<?xml version="1.0" encoding="UTF-8" standalone="no"?>
<!DOCTYPE svg PUBLIC "-//W3C//DTD SVG 1.1//EN"
 "http://www.w3.org/Graphics/SVG/1.1/DTD/svg11.dtd">
<!-- Generated by graphviz version 7.0.5 (20221223.1930)
 -->
<!-- Title: DataHandlerSync.cpp Pages: 1 -->
<svg width="1884pt" height="489pt"
 viewBox="0.00 0.00 1884.00 489.00" xmlns="http://www.w3.org/2000/svg" xmlns:xlink="http://www.w3.org/1999/xlink">
<g id="graph0" class="graph" transform="scale(1 1) rotate(0) translate(4 485)">
<title>DataHandlerSync.cpp</title>
<!-- Node1 -->
<g id="node1" class="node">
<title>Node1</title>
<g id="a_node1"><a xlink:title=" ">
<polygon fill="#999999" stroke="#666666" points="332.5,-481 222.5,-481 222.5,-462 332.5,-462 332.5,-481"/>
<text text-anchor="middle" x="277.5" y="-469" font-family="Helvetica,sans-Serif" font-size="10.00">DataHandlerSync.cpp</text>
</a>
</g>
</g>
<!-- Node2 -->
<g id="node2" class="node">
<title>Node2</title>
<g id="a_node2"><a xlink:href="_data_handler_sync_8hpp.html" target="_top" xlink:title=" ">
<polygon fill="white" stroke="#666666" points="350,-426 205,-426 205,-407 350,-407 350,-426"/>
<text text-anchor="middle" x="277.5" y="-414" font-family="Helvetica,sans-Serif" font-size="10.00">udmaio/DataHandlerSync.hpp</text>
</a>
</g>
</g>
<!-- Node1&#45;&gt;Node2 -->
<g id="edge1" class="edge">
<title>Node1&#45;&gt;Node2</title>
<path fill="none" stroke="#63b8ff" d="M277.5,-461.75C277.5,-455.27 277.5,-446.16 277.5,-437.9"/>
<polygon fill="#63b8ff" stroke="#63b8ff" points="281,-437.96 277.5,-427.96 274,-437.96 281,-437.96"/>
</g>
<!-- Node3 -->
<g id="node3" class="node">
<title>Node3</title>
<g id="a_node3"><a xlink:title=" ">
<polygon fill="#e0e0e0" stroke="#999999" points="208.5,-371 158.5,-371 158.5,-352 208.5,-352 208.5,-371"/>
<text text-anchor="middle" x="183.5" y="-359" font-family="Helvetica,sans-Serif" font-size="10.00">optional</text>
</a>
</g>
</g>
<!-- Node2&#45;&gt;Node3 -->
<g id="edge2" class="edge">
<title>Node2&#45;&gt;Node3</title>
<path fill="none" stroke="#63b8ff" d="M261.55,-406.51C247.15,-398.39 225.71,-386.3 208.94,-376.85"/>
<polygon fill="#63b8ff" stroke="#63b8ff" points="210.96,-373.96 200.53,-372.1 207.52,-380.06 210.96,-373.96"/>
</g>
<!-- Node4 -->
<g id="node4" class="node">
<title>Node4</title>
<g id="a_node4"><a xlink:title=" ">
<polygon fill="#e0e0e0" stroke="#999999" points="218.5,-310.5 174.5,-310.5 174.5,-291.5 218.5,-291.5 218.5,-310.5"/>
<text text-anchor="middle" x="196.5" y="-298.5" font-family="Helvetica,sans-Serif" font-size="10.00">thread</text>
</a>
</g>
</g>
<!-- Node2&#45;&gt;Node4 -->
<g id="edge3" class="edge">
<title>Node2&#45;&gt;Node4</title>
<path fill="none" stroke="#63b8ff" d="M271.14,-406.59C257.9,-388.03 227.1,-344.87 209.48,-320.19"/>
<polygon fill="#63b8ff" stroke="#63b8ff" points="212.36,-318.2 203.71,-312.1 206.67,-322.27 212.36,-318.2"/>
</g>
<!-- Node5 -->
<g id="node5" class="node">
<title>Node5</title>
<g id="a_node5"><a xlink:href="_concurrent_queue_8hpp.html" target="_top" xlink:title=" ">
<polygon fill="white" stroke="#666666" points="374.5,-371 264.5,-371 264.5,-352 374.5,-352 374.5,-371"/>
<text text-anchor="middle" x="319.5" y="-359" font-family="Helvetica,sans-Serif" font-size="10.00">ConcurrentQueue.hpp</text>
</a>
</g>
</g>
<!-- Node2&#45;&gt;Node5 -->
<g id="edge4" class="edge">
<title>Node2&#45;&gt;Node5</title>
<path fill="none" stroke="#63b8ff" d="M284.44,-406.75C290.12,-399.58 298.34,-389.2 305.39,-380.3"/>
<polygon fill="#63b8ff" stroke="#63b8ff" points="308.01,-382.64 311.47,-372.63 302.52,-378.29 308.01,-382.64"/>
</g>
<!-- Node10 -->
<g id="node10" class="node">
<title>Node10</title>
<g id="a_node10"><a xlink:href="_data_handler_abstract_8hpp.html" target="_top" xlink:title=" ">
<polygon fill="white" stroke="#666666" points="878,-371 753,-371 753,-352 878,-352 878,-371"/>
<text text-anchor="middle" x="815.5" y="-359" font-family="Helvetica,sans-Serif" font-size="10.00">DataHandlerAbstract.hpp</text>
</a>
</g>
</g>
<!-- Node2&#45;&gt;Node10 -->
<g id="edge10" class="edge">
<title>Node2&#45;&gt;Node10</title>
<path fill="none" stroke="#63b8ff" d="M350.34,-408.32C452.71,-398.24 638.15,-379.97 741.27,-369.81"/>
<polygon fill="#63b8ff" stroke="#63b8ff" points="741.4,-373.32 751.01,-368.85 740.71,-366.35 741.4,-373.32"/>
</g>
<!-- Node5&#45;&gt;Node4 -->
<g id="edge9" class="edge">
<title>Node5&#45;&gt;Node4</title>
<path fill="none" stroke="#63b8ff" d="M300.82,-351.62C280.86,-342.12 248.96,-326.95 225.68,-315.88"/>
<polygon fill="#63b8ff" stroke="#63b8ff" points="227.26,-312.75 216.72,-311.62 224.25,-319.07 227.26,-312.75"/>
</g>
<!-- Node6 -->
<g id="node6" class="node">
<title>Node6</title>
<g id="a_node6"><a xlink:title=" ">
<polygon fill="#e0e0e0" stroke="#999999" points="405.5,-310.5 359.5,-310.5 359.5,-291.5 405.5,-291.5 405.5,-310.5"/>
<text text-anchor="middle" x="382.5" y="-298.5" font-family="Helvetica,sans-Serif" font-size="10.00">chrono</text>
</a>
</g>
</g>
<!-- Node5&#45;&gt;Node6 -->
<g id="edge5" class="edge">
<title>Node5&#45;&gt;Node6</title>
<path fill="none" stroke="#63b8ff" d="M329.07,-351.62C338.5,-342.85 353.15,-329.25 364.73,-318.5"/>
<polygon fill="#63b8ff" stroke="#63b8ff" points="366.79,-321.37 371.73,-312 362.02,-316.24 366.79,-321.37"/>
</g>
<!-- Node7 -->
<g id="node7" class="node">
<title>Node7</title>
<g id="a_node7"><a xlink:title=" ">
<polygon fill="#e0e0e0" stroke="#999999" points="519,-310.5 424,-310.5 424,-291.5 519,-291.5 519,-310.5"/>
<text text-anchor="middle" x="471.5" y="-298.5" font-family="Helvetica,sans-Serif" font-size="10.00">condition_variable</text>
</a>
</g>
</g>
<!-- Node5&#45;&gt;Node7 -->
<g id="edge6" class="edge">
<title>Node5&#45;&gt;Node7</title>
<path fill="none" stroke="#63b8ff" d="M342.59,-351.62C367.92,-341.87 408.82,-326.12 437.75,-314.99"/>
<polygon fill="#63b8ff" stroke="#63b8ff" points="438.71,-318.37 446.78,-311.51 436.19,-311.84 438.71,-318.37"/>
</g>
<!-- Node8 -->
<g id="node8" class="node">
<title>Node8</title>
<g id="a_node8"><a xlink:title=" ">
<polygon fill="#e0e0e0" stroke="#999999" points="280,-310.5 237,-310.5 237,-291.5 280,-291.5 280,-310.5"/>
<text text-anchor="middle" x="258.5" y="-298.5" font-family="Helvetica,sans-Serif" font-size="10.00">mutex</text>
</a>
</g>
</g>
<!-- Node5&#45;&gt;Node8 -->
<g id="edge7" class="edge">
<title>Node5&#45;&gt;Node8</title>
<path fill="none" stroke="#63b8ff" d="M310.24,-351.62C301.19,-342.94 287.19,-329.52 276.04,-318.82"/>
<polygon fill="#63b8ff" stroke="#63b8ff" points="278.58,-316.41 268.94,-312.02 273.74,-321.46 278.58,-316.41"/>
</g>
<!-- Node9 -->
<g id="node9" class="node">
<title>Node9</title>
<g id="a_node9"><a xlink:title=" ">
<polygon fill="#e0e0e0" stroke="#999999" points="341,-310.5 298,-310.5 298,-291.5 341,-291.5 341,-310.5"/>
<text text-anchor="middle" x="319.5" y="-298.5" font-family="Helvetica,sans-Serif" font-size="10.00">queue</text>
</a>
</g>
</g>
<!-- Node5&#45;&gt;Node9 -->
<g id="edge8" class="edge">
<title>Node5&#45;&gt;Node9</title>
<path fill="none" stroke="#63b8ff" d="M319.5,-351.87C319.5,-344 319.5,-332.1 319.5,-321.89"/>
<polygon fill="#63b8ff" stroke="#63b8ff" points="323,-322.18 319.5,-312.18 316,-322.18 323,-322.18"/>
</g>
<!-- Node11 -->
<g id="node11" class="node">
<title>Node11</title>
<g id="a_node11"><a xlink:title=" ">
<polygon fill="#e0e0e0" stroke="#999999" points="968,-24.5 927,-24.5 927,-5.5 968,-5.5 968,-24.5"/>
<text text-anchor="middle" x="947.5" y="-12.5" font-family="Helvetica,sans-Serif" font-size="10.00">string</text>
</a>
</g>
</g>
<!-- Node10&#45;&gt;Node11 -->
<g id="edge11" class="edge">
<title>Node10&#45;&gt;Node11</title>
<path fill="none" stroke="#63b8ff" d="M822.64,-351.92C833.54,-337.73 851.9,-308.67 840.5,-286 807.17,-219.73 706.5,-260.68 706.5,-186.5 706.5,-186.5 706.5,-186.5 706.5,-129.5 706.5,-97.27 715.54,-85.1 741.5,-66 805.81,-18.68 841.69,-55.05 917.5,-30 918.15,-29.79 918.8,-29.56 919.46,-29.33"/>
<polygon fill="#63b8ff" stroke="#63b8ff" points="920.69,-32.61 928.61,-25.57 918.03,-26.13 920.69,-32.61"/>
</g>
<!-- Node12 -->
<g id="node12" class="node">
<title>Node12</title>
<g id="a_node12"><a xlink:title=" ">
<polygon fill="#e0e0e0" stroke="#999999" points="1006.5,-195 962.5,-195 962.5,-176 1006.5,-176 1006.5,-195"/>
<text text-anchor="middle" x="984.5" y="-183" font-family="Helvetica,sans-Serif" font-size="10.00">vector</text>
</a>
</g>
</g>
<!-- Node10&#45;&gt;Node12 -->
<g id="edge12" class="edge">
<title>Node10&#45;&gt;Node12</title>
<path fill="none" stroke="#63b8ff" d="M871.85,-351.56C911.74,-344 960.39,-331.87 973.5,-316 999.17,-284.93 994.37,-234.16 989.13,-206.32"/>
<polygon fill="#63b8ff" stroke="#63b8ff" points="992.6,-205.83 987.11,-196.77 985.75,-207.28 992.6,-205.83"/>
</g>
<!-- Node13 -->
<g id="node13" class="node">
<title>Node13</title>
<g id="a_node13"><a xlink:title=" ">
<polygon fill="#e0e0e0" stroke="#999999" points="693.5,-310.5 613.5,-310.5 613.5,-291.5 693.5,-291.5 693.5,-310.5"/>
<text text-anchor="middle" x="653.5" y="-298.5" font-family="Helvetica,sans-Serif" font-size="10.00">boost/asio.hpp</text>
</a>
</g>
</g>
<!-- Node10&#45;&gt;Node13 -->
<g id="edge13" class="edge">
<title>Node10&#45;&gt;Node13</title>
<path fill="none" stroke="#63b8ff" d="M790.9,-351.62C763.78,-341.82 719.92,-325.98 689.06,-314.84"/>
<polygon fill="#63b8ff" stroke="#63b8ff" points="690.35,-311.59 679.76,-311.48 687.98,-318.17 690.35,-311.59"/>
</g>
<!-- Node14 -->
<g id="node14" class="node">
<title>Node14</title>
<g id="a_node14"><a xlink:title=" ">
<polygon fill="#e0e0e0" stroke="#999999" points="888,-85 751,-85 751,-66 888,-66 888,-85"/>
<text text-anchor="middle" x="819.5" y="-73" font-family="Helvetica,sans-Serif" font-size="10.00">boost/core/noncopyable.hpp</text>
</a>
</g>
</g>
<!-- Node10&#45;&gt;Node14 -->
<g id="edge14" class="edge">
<title>Node10&#45;&gt;Node14</title>
<path fill="none" stroke="#63b8ff" d="M752.75,-355.84C697.46,-350.28 622.92,-338.72 604.5,-316 532.04,-226.66 715.17,-126.12 789.67,-90.17"/>
<polygon fill="#63b8ff" stroke="#63b8ff" points="790.93,-93.45 798.46,-86 787.92,-87.13 790.93,-93.45"/>
</g>
<!-- Node15 -->
<g id="node15" class="node">
<title>Node15</title>
<g id="a_node15"><a xlink:href="_logging_8hpp.html" target="_top" xlink:title=" ">
<polygon fill="white" stroke="#666666" points="663,-85 594,-85 594,-66 663,-66 663,-85"/>
<text text-anchor="middle" x="628.5" y="-73" font-family="Helvetica,sans-Serif" font-size="10.00">Logging.hpp</text>
</a>
</g>
</g>
<!-- Node10&#45;&gt;Node15 -->
<g id="edge15" class="edge">
<title>Node10&#45;&gt;Node15</title>
<path fill="none" stroke="#63b8ff" d="M752.63,-354.43C694.15,-347.7 612.28,-335.2 586.5,-316 556.53,-293.67 547.5,-278.87 547.5,-241.5 547.5,-241.5 547.5,-241.5 547.5,-184.5 547.5,-145.19 582.27,-111.03 606.25,-92.14"/>
<polygon fill="#63b8ff" stroke="#63b8ff" points="608.04,-95.18 613.92,-86.37 603.82,-89.59 608.04,-95.18"/>
</g>
<!-- Node23 -->
<g id="node23" class="node">
<title>Node23</title>
<g id="a_node23"><a xlink:href="_u_dma_buf_8hpp.html" target="_top" xlink:title=" ">
<polygon fill="white" stroke="#666666" points="965,-310.5 888,-310.5 888,-291.5 965,-291.5 965,-310.5"/>
<text text-anchor="middle" x="926.5" y="-298.5" font-family="Helvetica,sans-Serif" font-size="10.00">UDmaBuf.hpp</text>
</a>
</g>
</g>
<!-- Node10&#45;&gt;Node23 -->
<g id="edge24" class="edge">
<title>Node10&#45;&gt;Node23</title>
<path fill="none" stroke="#63b8ff" d="M832.36,-351.62C850.12,-342.25 878.38,-327.36 899.3,-316.33"/>
<polygon fill="#63b8ff" stroke="#63b8ff" points="900.93,-319.43 908.14,-311.67 897.67,-313.24 900.93,-319.43"/>
</g>
<!-- Node31 -->
<g id="node31" class="node">
<title>Node31</title>
<g id="a_node31"><a xlink:href="_uio_axi_dma_if_8hpp.html" target="_top" xlink:title=" ">
<polygon fill="white" stroke="#666666" points="1257,-310.5 1168,-310.5 1168,-291.5 1257,-291.5 1257,-310.5"/>
<text text-anchor="middle" x="1212.5" y="-298.5" font-family="Helvetica,sans-Serif" font-size="10.00">UioAxiDmaIf.hpp</text>
</a>
</g>
</g>
<!-- Node10&#45;&gt;Node31 -->
<g id="edge37" class="edge">
<title>Node10&#45;&gt;Node31</title>
<path fill="none" stroke="#63b8ff" d="M876.23,-351.55C952.57,-340.3 1082.55,-321.15 1156.56,-310.24"/>
<polygon fill="#63b8ff" stroke="#63b8ff" points="1156.63,-313.77 1166.01,-308.85 1155.6,-306.85 1156.63,-313.77"/>
</g>
<!-- Node43 -->
<g id="node43" class="node">
<title>Node43</title>
<g id="a_node43"><a xlink:href="_uio_mem_sgdma_8hpp.html" target="_top" xlink:title=" ">
<polygon fill="white" stroke="#666666" points="1381.5,-310.5 1279.5,-310.5 1279.5,-291.5 1381.5,-291.5 1381.5,-310.5"/>
<text text-anchor="middle" x="1330.5" y="-298.5" font-family="Helvetica,sans-Serif" font-size="10.00">UioMemSgdma.hpp</text>
</a>
</g>
</g>
<!-- Node10&#45;&gt;Node43 -->
<g id="edge71" class="edge">
<title>Node10&#45;&gt;Node43</title>
<path fill="none" stroke="#63b8ff" d="M878.17,-356.64C965.55,-350.74 1128.75,-337.79 1266.5,-316 1271.5,-315.21 1276.7,-314.27 1281.87,-313.26"/>
<polygon fill="#63b8ff" stroke="#63b8ff" points="1282.5,-316.7 1291.59,-311.26 1281.09,-309.84 1282.5,-316.7"/>
</g>
<!-- Node45 -->
<g id="node45" class="node">
<title>Node45</title>
<g id="a_node45"><a xlink:title=" ">
<polygon fill="#e0e0e0" stroke="#999999" points="831.5,-316 711.5,-316 711.5,-286 831.5,-286 831.5,-316"/>
<text text-anchor="start" x="719.5" y="-304" font-family="Helvetica,sans-Serif" font-size="10.00">boost/asio/posix/stream</text>
<text text-anchor="middle" x="771.5" y="-293" font-family="Helvetica,sans-Serif" font-size="10.00">_descriptor.hpp</text>
</a>
</g>
</g>
<!-- Node10&#45;&gt;Node45 -->
<g id="edge76" class="edge">
<title>Node10&#45;&gt;Node45</title>
<path fill="none" stroke="#63b8ff" d="M809.01,-351.87C803.7,-344.81 795.94,-334.5 788.86,-325.08"/>
<polygon fill="#63b8ff" stroke="#63b8ff" points="791.83,-323.21 783.03,-317.32 786.24,-327.42 791.83,-323.21"/>
</g>
<!-- Node15&#45;&gt;Node11 -->
<g id="edge16" class="edge">
<title>Node15&#45;&gt;Node11</title>
<path fill="none" stroke="#63b8ff" d="M663.39,-69.69C734.93,-59.76 893.55,-37.27 917.5,-30 918.46,-29.71 919.43,-29.39 920.41,-29.05"/>
<polygon fill="#63b8ff" stroke="#63b8ff" points="921.36,-32.45 929.3,-25.43 918.71,-25.96 921.36,-32.45"/>
</g>
<!-- Node16 -->
<g id="node16" class="node">
<title>Node16</title>
<g id="a_node16"><a xlink:title=" ">
<polygon fill="#e0e0e0" stroke="#999999" points="515.5,-24.5 419.5,-24.5 419.5,-5.5 515.5,-5.5 515.5,-24.5"/>
<text text-anchor="middle" x="467.5" y="-12.5" font-family="Helvetica,sans-Serif" font-size="10.00">boost/log/core.hpp</text>
</a>
</g>
</g>
<!-- Node15&#45;&gt;Node16 -->
<g id="edge17" class="edge">
<title>Node15&#45;&gt;Node16</title>
<path fill="none" stroke="#63b8ff" d="M604.05,-65.62C577.1,-55.82 533.51,-39.98 502.84,-28.84"/>
<polygon fill="#63b8ff" stroke="#63b8ff" points="504.2,-25.61 493.61,-25.49 501.81,-32.19 504.2,-25.61"/>
</g>
<!-- Node17 -->
<g id="node17" class="node">
<title>Node17</title>
<g id="a_node17"><a xlink:title=" ">
<polygon fill="#e0e0e0" stroke="#999999" points="663,-24.5 534,-24.5 534,-5.5 663,-5.5 663,-24.5"/>
<text text-anchor="middle" x="598.5" y="-12.5" font-family="Helvetica,sans-Serif" font-size="10.00">boost/log/expressions.hpp</text>
</a>
</g>
</g>
<!-- Node15&#45;&gt;Node17 -->
<g id="edge18" class="edge">
<title>Node15&#45;&gt;Node17</title>
<path fill="none" stroke="#63b8ff" d="M624.07,-65.87C619.91,-57.75 613.53,-45.31 608.18,-34.89"/>
<polygon fill="#63b8ff" stroke="#63b8ff" points="611.31,-33.32 603.64,-26.01 605.08,-36.51 611.31,-33.32"/>
</g>
<!-- Node18 -->
<g id="node18" class="node">
<title>Node18</title>
<g id="a_node18"><a xlink:title=" ">
<polygon fill="#e0e0e0" stroke="#999999" points="782,-24.5 681,-24.5 681,-5.5 782,-5.5 782,-24.5"/>
<text text-anchor="middle" x="731.5" y="-12.5" font-family="Helvetica,sans-Serif" font-size="10.00">boost/log/trivial.hpp</text>
</a>
</g>
</g>
<!-- Node15&#45;&gt;Node18 -->
<g id="edge19" class="edge">
<title>Node15&#45;&gt;Node18</title>
<path fill="none" stroke="#63b8ff" d="M644.14,-65.62C660.48,-56.34 686.37,-41.63 705.73,-30.64"/>
<polygon fill="#63b8ff" stroke="#63b8ff" points="707.43,-33.7 714.39,-25.72 703.97,-27.61 707.43,-33.7"/>
</g>
<!-- Node19 -->
<g id="node19" class="node">
<title>Node19</title>
<g id="a_node19"><a xlink:title=" ">
<polygon fill="#e0e0e0" stroke="#999999" points="909,-30 800,-30 800,0 909,0 909,-30"/>
<text text-anchor="start" x="808" y="-18" font-family="Helvetica,sans-Serif" font-size="10.00">boost/log/utility/setup</text>
<text text-anchor="middle" x="854.5" y="-7" font-family="Helvetica,sans-Serif" font-size="10.00">/console.hpp</text>
</a>
</g>
</g>
<!-- Node15&#45;&gt;Node19 -->
<g id="edge20" class="edge">
<title>Node15&#45;&gt;Node19</title>
<path fill="none" stroke="#63b8ff" d="M662.82,-65.62C696.08,-57.01 747.38,-43.73 788.54,-33.07"/>
<polygon fill="#63b8ff" stroke="#63b8ff" points="789.32,-36.49 798.12,-30.59 787.57,-29.71 789.32,-36.49"/>
</g>
<!-- Node20 -->
<g id="node20" class="node">
<title>Node20</title>
<g id="a_node20"><a xlink:title=" ">
<polygon fill="#e0e0e0" stroke="#999999" points="131,-30 0,-30 0,0 131,0 131,-30"/>
<text text-anchor="start" x="8" y="-18" font-family="Helvetica,sans-Serif" font-size="10.00">boost/log/sources/severity</text>
<text text-anchor="middle" x="65.5" y="-7" font-family="Helvetica,sans-Serif" font-size="10.00">_channel_logger.hpp</text>
</a>
</g>
</g>
<!-- Node15&#45;&gt;Node20 -->
<g id="edge21" class="edge">
<title>Node15&#45;&gt;Node20</title>
<path fill="none" stroke="#63b8ff" d="M593.68,-72.49C515.05,-67.69 317.51,-54.27 142.44,-30.33"/>
<polygon fill="#63b8ff" stroke="#63b8ff" points="143.1,-26.88 132.71,-28.98 142.14,-33.82 143.1,-26.88"/>
</g>
<!-- Node21 -->
<g id="node21" class="node">
<title>Node21</title>
<g id="a_node21"><a xlink:title=" ">
<polygon fill="#e0e0e0" stroke="#999999" points="262,-30 149,-30 149,0 262,0 262,-30"/>
<text text-anchor="start" x="157" y="-18" font-family="Helvetica,sans-Serif" font-size="10.00">boost/log/support/date</text>
<text text-anchor="middle" x="205.5" y="-7" font-family="Helvetica,sans-Serif" font-size="10.00">_time.hpp</text>
</a>
</g>
</g>
<!-- Node15&#45;&gt;Node21 -->
<g id="edge22" class="edge">
<title>Node15&#45;&gt;Node21</title>
<path fill="none" stroke="#63b8ff" d="M593.54,-71.19C531.19,-65.07 396.49,-50.83 273.28,-30.38"/>
<polygon fill="#63b8ff" stroke="#63b8ff" points="274.1,-26.97 263.66,-28.76 272.94,-33.87 274.1,-26.97"/>
</g>
<!-- Node22 -->
<g id="node22" class="node">
<title>Node22</title>
<g id="a_node22"><a xlink:title=" ">
<polygon fill="#e0e0e0" stroke="#999999" points="401,-30 280,-30 280,0 401,0 401,-30"/>
<text text-anchor="start" x="288" y="-18" font-family="Helvetica,sans-Serif" font-size="10.00">boost/log/utility/setup</text>
<text text-anchor="middle" x="340.5" y="-7" font-family="Helvetica,sans-Serif" font-size="10.00">/common_attributes.hpp</text>
</a>
</g>
</g>
<!-- Node15&#45;&gt;Node22 -->
<g id="edge23" class="edge">
<title>Node15&#45;&gt;Node22</title>
<path fill="none" stroke="#63b8ff" d="M593.76,-67.44C549.09,-58.37 470.38,-42.38 412.54,-30.63"/>
<polygon fill="#63b8ff" stroke="#63b8ff" points="413.24,-27.2 402.74,-28.64 411.85,-34.06 413.24,-27.2"/>
</g>
<!-- Node23&#45;&gt;Node15 -->
<g id="edge35" class="edge">
<title>Node23&#45;&gt;Node15</title>
<path fill="none" stroke="#63b8ff" d="M914.82,-291.24C869.86,-257.52 707.6,-135.82 649.43,-92.2"/>
<polygon fill="#63b8ff" stroke="#63b8ff" points="651.74,-89.55 641.64,-86.35 647.54,-95.15 651.74,-89.55"/>
</g>
<!-- Node24 -->
<g id="node24" class="node">
<title>Node24</title>
<g id="a_node24"><a xlink:href="_dma_buffer_abstract_8hpp.html" target="_top" xlink:title=" ">
<polygon fill="white" stroke="#666666" points="1131,-250 1014,-250 1014,-231 1131,-231 1131,-250"/>
<text text-anchor="middle" x="1072.5" y="-238" font-family="Helvetica,sans-Serif" font-size="10.00">DmaBufferAbstract.hpp</text>
</a>
</g>
</g>
<!-- Node23&#45;&gt;Node24 -->
<g id="edge25" class="edge">
<title>Node23&#45;&gt;Node24</title>
<path fill="none" stroke="#63b8ff" d="M948.67,-291.12C972.9,-281.41 1011.95,-265.76 1039.72,-254.64"/>
<polygon fill="#63b8ff" stroke="#63b8ff" points="1040.73,-258 1048.71,-251.03 1038.13,-251.5 1040.73,-258"/>
</g>
<!-- Node26 -->
<g id="node26" class="node">
<title>Node26</title>
<g id="a_node26"><a xlink:href="_uio_config_8hpp.html" target="_top" xlink:title=" ">
<polygon fill="white" stroke="#666666" points="1056,-85 945,-85 945,-66 1056,-66 1056,-85"/>
<text text-anchor="middle" x="1000.5" y="-73" font-family="Helvetica,sans-Serif" font-size="10.00">udmaio/UioConfig.hpp</text>
</a>
</g>
</g>
<!-- Node23&#45;&gt;Node26 -->
<g id="edge36" class="edge">
<title>Node23&#45;&gt;Node26</title>
<path fill="none" stroke="#63b8ff" d="M927.73,-291.09C930.73,-270.46 939.24,-217.93 953.5,-176 963.42,-146.82 979.51,-114.9 990.04,-95.28"/>
<polygon fill="#63b8ff" stroke="#63b8ff" points="993.07,-97.05 994.79,-86.6 986.92,-93.69 993.07,-97.05"/>
</g>
<!-- Node24&#45;&gt;Node12 -->
<g id="edge27" class="edge">
<title>Node24&#45;&gt;Node12</title>
<path fill="none" stroke="#63b8ff" d="M1057.57,-230.51C1044.22,-222.47 1024.39,-210.53 1008.76,-201.11"/>
<polygon fill="#63b8ff" stroke="#63b8ff" points="1010.88,-198.3 1000.5,-196.14 1007.26,-204.3 1010.88,-198.3"/>
</g>
<!-- Node24&#45;&gt;Node14 -->
<g id="edge28" class="edge">
<title>Node24&#45;&gt;Node14</title>
<path fill="none" stroke="#63b8ff" d="M1066.94,-230.78C1057.81,-217.14 1038.37,-190.83 1015.5,-176 971.63,-147.56 949.9,-164.11 903.5,-140 878.55,-127.04 853.26,-106.73 837.04,-92.58"/>
<polygon fill="#63b8ff" stroke="#63b8ff" points="839.53,-90.11 829.74,-86.07 834.88,-95.34 839.53,-90.11"/>
</g>
<!-- Node25 -->
<g id="node25" class="node">
<title>Node25</title>
<g id="a_node25"><a xlink:title=" ">
<polygon fill="#e0e0e0" stroke="#999999" points="1230.5,-195 1184.5,-195 1184.5,-176 1230.5,-176 1230.5,-195"/>
<text text-anchor="middle" x="1207.5" y="-183" font-family="Helvetica,sans-Serif" font-size="10.00">cstdint</text>
</a>
</g>
</g>
<!-- Node24&#45;&gt;Node25 -->
<g id="edge26" class="edge">
<title>Node24&#45;&gt;Node25</title>
<path fill="none" stroke="#63b8ff" d="M1095.4,-230.51C1117.06,-222.01 1149.81,-209.15 1174.32,-199.53"/>
<polygon fill="#63b8ff" stroke="#63b8ff" points="1175.5,-202.82 1183.53,-195.91 1172.94,-196.31 1175.5,-202.82"/>
</g>
<!-- Node24&#45;&gt;Node26 -->
<g id="edge29" class="edge">
<title>Node24&#45;&gt;Node26</title>
<path fill="none" stroke="#63b8ff" d="M1069.48,-230.78C1065.14,-218.45 1056.77,-195.28 1048.5,-176 1036.3,-147.57 1020.41,-115.45 1010.33,-95.59"/>
<polygon fill="#63b8ff" stroke="#63b8ff" points="1013.49,-94.09 1005.83,-86.78 1007.26,-97.28 1013.49,-94.09"/>
</g>
<!-- Node26&#45;&gt;Node11 -->
<g id="edge33" class="edge">
<title>Node26&#45;&gt;Node11</title>
<path fill="none" stroke="#63b8ff" d="M992.68,-65.87C984.85,-57.23 972.6,-43.7 962.83,-32.92"/>
<polygon fill="#63b8ff" stroke="#63b8ff" points="965.68,-30.85 956.37,-25.79 960.49,-35.55 965.68,-30.85"/>
</g>
<!-- Node27 -->
<g id="node27" class="node">
<title>Node27</title>
<g id="a_node27"><a xlink:title=" ">
<polygon fill="#e0e0e0" stroke="#999999" points="1357.5,-24.5 1303.5,-24.5 1303.5,-5.5 1357.5,-5.5 1357.5,-24.5"/>
<text text-anchor="middle" x="1330.5" y="-12.5" font-family="Helvetica,sans-Serif" font-size="10.00">iostream</text>
</a>
</g>
</g>
<!-- Node26&#45;&gt;Node27 -->
<g id="edge30" class="edge">
<title>Node26&#45;&gt;Node27</title>
<path fill="none" stroke="#63b8ff" d="M1050.98,-65.55C1117.33,-53.79 1232.44,-33.38 1292.13,-22.8"/>
<polygon fill="#63b8ff" stroke="#63b8ff" points="1292.57,-26.28 1301.81,-21.09 1291.35,-19.39 1292.57,-26.28"/>
</g>
<!-- Node28 -->
<g id="node28" class="node">
<title>Node28</title>
<g id="a_node28"><a xlink:title=" ">
<polygon fill="#e0e0e0" stroke="#999999" points="1607,-24.5 1556,-24.5 1556,-5.5 1607,-5.5 1607,-24.5"/>
<text text-anchor="middle" x="1581.5" y="-12.5" font-family="Helvetica,sans-Serif" font-size="10.00">memory</text>
</a>
</g>
</g>
<!-- Node26&#45;&gt;Node28 -->
<g id="edge31" class="edge">
<title>Node26&#45;&gt;Node28</title>
<path fill="none" stroke="#63b8ff" d="M1056.15,-67.1C1059.31,-66.72 1062.45,-66.35 1065.5,-66 1244.67,-45.61 1459.46,-26.51 1544.36,-19.17"/>
<polygon fill="#63b8ff" stroke="#63b8ff" points="1544.53,-22.67 1554.19,-18.32 1543.92,-15.69 1544.53,-22.67"/>
</g>
<!-- Node29 -->
<g id="node29" class="node">
<title>Node29</title>
<g id="a_node29"><a xlink:title=" ">
<polygon fill="#e0e0e0" stroke="#999999" points="1045,-24.5 986,-24.5 986,-5.5 1045,-5.5 1045,-24.5"/>
<text text-anchor="middle" x="1015.5" y="-12.5" font-family="Helvetica,sans-Serif" font-size="10.00">stdexcept</text>
</a>
</g>
</g>
<!-- Node26&#45;&gt;Node29 -->
<g id="edge32" class="edge">
<title>Node26&#45;&gt;Node29</title>
<path fill="none" stroke="#63b8ff" d="M1002.71,-65.87C1004.75,-57.92 1007.85,-45.83 1010.49,-35.55"/>
<polygon fill="#63b8ff" stroke="#63b8ff" points="1013.81,-36.69 1012.9,-26.13 1007.03,-34.95 1013.81,-36.69"/>
</g>
<!-- Node30 -->
<g id="node30" class="node">
<title>Node30</title>
<g id="a_node30"><a xlink:title=" ">
<polygon fill="#e0e0e0" stroke="#999999" points="1129.5,-24.5 1063.5,-24.5 1063.5,-5.5 1129.5,-5.5 1129.5,-24.5"/>
<text text-anchor="middle" x="1096.5" y="-12.5" font-family="Helvetica,sans-Serif" font-size="10.00">string_view</text>
</a>
</g>
</g>
<!-- Node26&#45;&gt;Node30 -->
<g id="edge34" class="edge">
<title>Node26&#45;&gt;Node30</title>
<path fill="none" stroke="#63b8ff" d="M1015.08,-65.62C1030.16,-56.42 1053.99,-41.91 1071.98,-30.94"/>
<polygon fill="#63b8ff" stroke="#63b8ff" points="1073.77,-33.95 1080.49,-25.76 1070.13,-27.97 1073.77,-33.95"/>
</g>
<!-- Node32 -->
<g id="node32" class="node">
<title>Node32</title>
<g id="a_node32"><a xlink:href="_reg_accessor_8hpp.html" target="_top" xlink:title=" ">
<polygon fill="white" stroke="#666666" points="1377,-250 1284,-250 1284,-231 1377,-231 1377,-250"/>
<text text-anchor="middle" x="1330.5" y="-238" font-family="Helvetica,sans-Serif" font-size="10.00">RegAccessor.hpp</text>
</a>
</g>
</g>
<!-- Node31&#45;&gt;Node32 -->
<g id="edge38" class="edge">
<title>Node31&#45;&gt;Node32</title>
<path fill="none" stroke="#63b8ff" d="M1230.42,-291.12C1249.48,-281.67 1279.9,-266.59 1302.2,-255.53"/>
<polygon fill="#63b8ff" stroke="#63b8ff" points="1303.65,-258.72 1311.05,-251.14 1300.54,-252.45 1303.65,-258.72"/>
</g>
<!-- Node33 -->
<g id="node33" class="node">
<title>Node33</title>
<g id="a_node33"><a xlink:href="_uio_if_8hpp.html" target="_top" xlink:title=" ">
<polygon fill="white" stroke="#666666" points="1375.5,-195 1285.5,-195 1285.5,-176 1375.5,-176 1375.5,-195"/>
<text text-anchor="middle" x="1330.5" y="-183" font-family="Helvetica,sans-Serif" font-size="10.00">udmaio/UioIf.hpp</text>
</a>
</g>
</g>
<!-- Node31&#45;&gt;Node33 -->
<g id="edge68" class="edge">
<title>Node31&#45;&gt;Node33</title>
<path fill="none" stroke="#63b8ff" d="M1247.45,-291.1C1297.01,-278.32 1382.22,-255.68 1386.5,-250 1399.74,-232.42 1378.34,-213.69 1358.29,-201.16"/>
<polygon fill="#63b8ff" stroke="#63b8ff" points="1360.12,-198.18 1349.72,-196.14 1356.59,-204.22 1360.12,-198.18"/>
</g>
<!-- Node42 -->
<g id="node42" class="node">
<title>Node42</title>
<g id="a_node42"><a xlink:href="_axi_dma_8hpp.html" target="_top" xlink:title=" ">
<polygon fill="white" stroke="#666666" points="1265.5,-250 1149.5,-250 1149.5,-231 1265.5,-231 1265.5,-250"/>
<text text-anchor="middle" x="1207.5" y="-238" font-family="Helvetica,sans-Serif" font-size="10.00">udmaio/rdl/AxiDma.hpp</text>
</a>
</g>
</g>
<!-- Node31&#45;&gt;Node42 -->
<g id="edge69" class="edge">
<title>Node31&#45;&gt;Node42</title>
<path fill="none" stroke="#63b8ff" d="M1211.76,-291.37C1211.09,-283.5 1210.07,-271.6 1209.2,-261.39"/>
<polygon fill="#63b8ff" stroke="#63b8ff" points="1212.71,-261.34 1208.37,-251.68 1205.73,-261.94 1212.71,-261.34"/>
</g>
<!-- Node32&#45;&gt;Node25 -->
<g id="edge39" class="edge">
<title>Node32&#45;&gt;Node25</title>
<path fill="none" stroke="#63b8ff" d="M1309.63,-230.51C1290.08,-222.08 1260.6,-209.38 1238.33,-199.79"/>
<polygon fill="#63b8ff" stroke="#63b8ff" points="1240.02,-196.7 1229.45,-195.96 1237.25,-203.13 1240.02,-196.7"/>
</g>
<!-- Node32&#45;&gt;Node33 -->
<g id="edge40" class="edge">
<title>Node32&#45;&gt;Node33</title>
<path fill="none" stroke="#63b8ff" d="M1330.5,-230.75C1330.5,-224.27 1330.5,-215.16 1330.5,-206.9"/>
<polygon fill="#63b8ff" stroke="#63b8ff" points="1334,-206.96 1330.5,-196.96 1327,-206.96 1334,-206.96"/>
</g>
<!-- Node33&#45;&gt;Node11 -->
<g id="edge45" class="edge">
<title>Node33&#45;&gt;Node11</title>
<path fill="none" stroke="#63b8ff" d="M1285.31,-180.13C1190.76,-169.95 977.36,-141.12 935.5,-85 924.72,-70.55 930.45,-49.71 937.18,-34.71"/>
<polygon fill="#63b8ff" stroke="#63b8ff" points="940.22,-36.45 941.59,-25.94 933.97,-33.31 940.22,-36.45"/>
</g>
<!-- Node33&#45;&gt;Node14 -->
<g id="edge46" class="edge">
<title>Node33&#45;&gt;Node14</title>
<path fill="none" stroke="#63b8ff" d="M1285.24,-179.88C1193.01,-170.34 989.34,-148.66 958.5,-140 916.78,-128.28 871.72,-105.67 844.56,-90.84"/>
<polygon fill="#63b8ff" stroke="#63b8ff" points="846.51,-87.91 836.06,-86.12 843.11,-94.03 846.51,-87.91"/>
</g>
<!-- Node33&#45;&gt;Node15 -->
<g id="edge66" class="edge">
<title>Node33&#45;&gt;Node15</title>
<path fill="none" stroke="#63b8ff" d="M1285.34,-180.11C1183.21,-170.14 940.49,-146.17 903.5,-140 820.93,-126.22 726.09,-102.55 672.13,-88.33"/>
<polygon fill="#63b8ff" stroke="#63b8ff" points="673.28,-85.01 662.72,-85.83 671.49,-91.78 673.28,-85.01"/>
</g>
<!-- Node33&#45;&gt;Node26 -->
<g id="edge67" class="edge">
<title>Node33&#45;&gt;Node26</title>
<path fill="none" stroke="#63b8ff" d="M1298.24,-175.54C1267.56,-166.89 1220.18,-153.2 1179.5,-140 1128.76,-123.54 1070.67,-102.53 1034.78,-89.29"/>
<polygon fill="#63b8ff" stroke="#63b8ff" points="1036.4,-86.15 1025.81,-85.97 1033.97,-92.72 1036.4,-86.15"/>
</g>
<!-- Node33&#45;&gt;Node27 -->
<g id="edge43" class="edge">
<title>Node33&#45;&gt;Node27</title>
<path fill="none" stroke="#63b8ff" d="M1375.59,-184.78C1493.62,-184.06 1796.34,-172.11 1703.5,-66 1681.68,-41.06 1460.16,-24.25 1369.18,-18.34"/>
<polygon fill="#63b8ff" stroke="#63b8ff" points="1369.46,-14.85 1359.26,-17.71 1369.02,-21.84 1369.46,-14.85"/>
</g>
<!-- Node33&#45;&gt;Node28 -->
<g id="edge44" class="edge">
<title>Node33&#45;&gt;Node28</title>
<path fill="none" stroke="#63b8ff" d="M1375.8,-182.5C1473.09,-177.76 1695.12,-164.37 1718.5,-140 1741.3,-116.23 1741.5,-92.9 1722.5,-66 1699.11,-32.89 1651.82,-21.57 1618.47,-17.77"/>
<polygon fill="#63b8ff" stroke="#63b8ff" points="1619.11,-14.32 1608.83,-16.86 1618.46,-21.29 1619.11,-14.32"/>
</g>
<!-- Node34 -->
<g id="node34" class="node">
<title>Node34</title>
<g id="a_node34"><a xlink:title=" ">
<polygon fill="#e0e0e0" stroke="#999999" points="1134.5,-85 1074.5,-85 1074.5,-66 1134.5,-66 1134.5,-85"/>
<text text-anchor="middle" x="1104.5" y="-73" font-family="Helvetica,sans-Serif" font-size="10.00">filesystem</text>
</a>
</g>
</g>
<!-- Node33&#45;&gt;Node34 -->
<g id="edge41" class="edge">
<title>Node33&#45;&gt;Node34</title>
<path fill="none" stroke="#63b8ff" d="M1305.88,-175.63C1283.13,-167.2 1248.58,-153.79 1219.5,-140 1187.48,-124.81 1151.96,-104.67 1128.99,-91.18"/>
<polygon fill="#63b8ff" stroke="#63b8ff" points="1130.77,-88.17 1120.38,-86.09 1127.21,-94.19 1130.77,-88.17"/>
</g>
<!-- Node35 -->
<g id="node35" class="node">
<title>Node35</title>
<g id="a_node35"><a xlink:title=" ">
<polygon fill="#e0e0e0" stroke="#999999" points="1202.5,-85 1152.5,-85 1152.5,-66 1202.5,-66 1202.5,-85"/>
<text text-anchor="middle" x="1177.5" y="-73" font-family="Helvetica,sans-Serif" font-size="10.00">fstream</text>
</a>
</g>
</g>
<!-- Node33&#45;&gt;Node35 -->
<g id="edge42" class="edge">
<title>Node33&#45;&gt;Node35</title>
<path fill="none" stroke="#63b8ff" d="M1309.69,-175.52C1291.9,-167.42 1266.02,-154.55 1245.5,-140 1225.83,-126.05 1205.97,-106.78 1192.84,-93.13"/>
<polygon fill="#63b8ff" stroke="#63b8ff" points="1195.7,-91.06 1186.29,-86.19 1190.61,-95.86 1195.7,-91.06"/>
</g>
<!-- Node36 -->
<g id="node36" class="node">
<title>Node36</title>
<g id="a_node36"><a xlink:title=" ">
<polygon fill="#e0e0e0" stroke="#999999" points="1264,-85 1221,-85 1221,-66 1264,-66 1264,-85"/>
<text text-anchor="middle" x="1242.5" y="-73" font-family="Helvetica,sans-Serif" font-size="10.00">fcntl.h</text>
</a>
</g>
</g>
<!-- Node33&#45;&gt;Node36 -->
<g id="edge47" class="edge">
<title>Node33&#45;&gt;Node36</title>
<path fill="none" stroke="#63b8ff" d="M1307.77,-175.62C1291.99,-168.32 1271.69,-156.5 1259.5,-140 1250.15,-127.34 1245.94,-109.89 1244.04,-96.49"/>
<polygon fill="#63b8ff" stroke="#63b8ff" points="1247.54,-96.24 1243.01,-86.67 1240.58,-96.98 1247.54,-96.24"/>
</g>
<!-- Node37 -->
<g id="node37" class="node">
<title>Node37</title>
<g id="a_node37"><a xlink:title=" ">
<polygon fill="#e0e0e0" stroke="#999999" points="1466,-85 1397,-85 1397,-66 1466,-66 1466,-85"/>
<text text-anchor="middle" x="1431.5" y="-73" font-family="Helvetica,sans-Serif" font-size="10.00">sys/mman.h</text>
</a>
</g>
</g>
<!-- Node33&#45;&gt;Node37 -->
<g id="edge48" class="edge">
<title>Node33&#45;&gt;Node37</title>
<path fill="none" stroke="#63b8ff" d="M1351.75,-175.51C1367.47,-167.97 1388.5,-155.87 1402.5,-140 1413.67,-127.33 1421.27,-109.64 1425.88,-96.15"/>
<polygon fill="#63b8ff" stroke="#63b8ff" points="1429.21,-97.24 1428.84,-86.65 1422.53,-95.16 1429.21,-97.24"/>
</g>
<!-- Node38 -->
<g id="node38" class="node">
<title>Node38</title>
<g id="a_node38"><a xlink:title=" ">
<polygon fill="#e0e0e0" stroke="#999999" points="1543,-85 1484,-85 1484,-66 1543,-66 1543,-85"/>
<text text-anchor="middle" x="1513.5" y="-73" font-family="Helvetica,sans-Serif" font-size="10.00">sys/stat.h</text>
</a>
</g>
</g>
<!-- Node33&#45;&gt;Node38 -->
<g id="edge49" class="edge">
<title>Node33&#45;&gt;Node38</title>
<path fill="none" stroke="#63b8ff" d="M1351.45,-175.51C1370.42,-167.11 1398.92,-153.81 1422.5,-140 1447.75,-125.21 1475.07,-105.62 1493.11,-92.13"/>
<polygon fill="#63b8ff" stroke="#63b8ff" points="1495.03,-95.06 1500.9,-86.24 1490.82,-89.48 1495.03,-95.06"/>
</g>
<!-- Node39 -->
<g id="node39" class="node">
<title>Node39</title>
<g id="a_node39"><a xlink:title=" ">
<polygon fill="#e0e0e0" stroke="#999999" points="1626,-85 1561,-85 1561,-66 1626,-66 1626,-85"/>
<text text-anchor="middle" x="1593.5" y="-73" font-family="Helvetica,sans-Serif" font-size="10.00">sys/types.h</text>
</a>
</g>
</g>
<!-- Node33&#45;&gt;Node39 -->
<g id="edge50" class="edge">
<title>Node33&#45;&gt;Node39</title>
<path fill="none" stroke="#63b8ff" d="M1355.96,-175.58C1380.38,-166.91 1418.19,-153.15 1450.5,-140 1490.43,-123.75 1535.82,-103.24 1564.55,-90"/>
<polygon fill="#63b8ff" stroke="#63b8ff" points="1565.71,-93.31 1573.32,-85.94 1562.78,-86.96 1565.71,-93.31"/>
</g>
<!-- Node40 -->
<g id="node40" class="node">
<title>Node40</title>
<g id="a_node40"><a xlink:title=" ">
<polygon fill="#e0e0e0" stroke="#999999" points="1694.5,-85 1644.5,-85 1644.5,-66 1694.5,-66 1694.5,-85"/>
<text text-anchor="middle" x="1669.5" y="-73" font-family="Helvetica,sans-Serif" font-size="10.00">unistd.h</text>
</a>
</g>
</g>
<!-- Node33&#45;&gt;Node40 -->
<g id="edge51" class="edge">
<title>Node33&#45;&gt;Node40</title>
<path fill="none" stroke="#63b8ff" d="M1363.61,-175.54C1395.1,-166.89 1443.72,-153.2 1485.5,-140 1537.63,-123.54 1597.35,-102.52 1634.25,-89.29"/>
<polygon fill="#63b8ff" stroke="#63b8ff" points="1635.29,-92.63 1643.51,-85.95 1632.92,-86.04 1635.29,-92.63"/>
</g>
<!-- Node41 -->
<g id="node41" class="node">
<title>Node41</title>
<g id="a_node41"><a xlink:href="_hw_accessor_8hpp.html" target="_top" xlink:title=" ">
<polygon fill="white" stroke="#666666" points="1393,-140 1268,-140 1268,-121 1393,-121 1393,-140"/>
<text text-anchor="middle" x="1330.5" y="-128" font-family="Helvetica,sans-Serif" font-size="10.00">udmaio/HwAccessor.hpp</text>
</a>
</g>
</g>
<!-- Node33&#45;&gt;Node41 -->
<g id="edge52" class="edge">
<title>Node33&#45;&gt;Node41</title>
<path fill="none" stroke="#63b8ff" d="M1330.5,-175.75C1330.5,-169.27 1330.5,-160.16 1330.5,-151.9"/>
<polygon fill="#63b8ff" stroke="#63b8ff" points="1334,-151.96 1330.5,-141.96 1327,-151.96 1334,-151.96"/>
</g>
<!-- Node41&#45;&gt;Node11 -->
<g id="edge57" class="edge">
<title>Node41&#45;&gt;Node11</title>
<path fill="none" stroke="#63b8ff" d="M1325.53,-120.71C1316.96,-106.48 1297.94,-78.72 1273.5,-66 1155.56,-4.6 1104.1,-67.41 976.5,-30 975.7,-29.76 974.89,-29.51 974.07,-29.23"/>
<polygon fill="#63b8ff" stroke="#63b8ff" points="975.67,-26.11 965.09,-25.54 973.01,-32.58 975.67,-26.11"/>
</g>
<!-- Node41&#45;&gt;Node14 -->
<g id="edge58" class="edge">
<title>Node41&#45;&gt;Node14</title>
<path fill="none" stroke="#63b8ff" d="M1267.59,-122.97C1174.86,-113.36 1001.5,-95.38 899.74,-84.82"/>
<polygon fill="#63b8ff" stroke="#63b8ff" points="900.12,-81.34 889.81,-83.79 899.4,-88.31 900.12,-81.34"/>
</g>
<!-- Node41&#45;&gt;Node15 -->
<g id="edge64" class="edge">
<title>Node41&#45;&gt;Node15</title>
<path fill="none" stroke="#63b8ff" d="M1267.58,-124.75C1128.21,-114.23 796.17,-89.16 674.34,-79.96"/>
<polygon fill="#63b8ff" stroke="#63b8ff" points="674.96,-76.5 664.73,-79.24 674.44,-83.48 674.96,-76.5"/>
</g>
<!-- Node41&#45;&gt;Node26 -->
<g id="edge65" class="edge">
<title>Node41&#45;&gt;Node26</title>
<path fill="none" stroke="#63b8ff" d="M1274.52,-120.51C1217.31,-111.32 1128.44,-97.05 1067.52,-87.26"/>
<polygon fill="#63b8ff" stroke="#63b8ff" points="1068.4,-83.86 1057.97,-85.73 1067.29,-90.77 1068.4,-83.86"/>
</g>
<!-- Node41&#45;&gt;Node27 -->
<g id="edge55" class="edge">
<title>Node41&#45;&gt;Node27</title>
<path fill="none" stroke="#63b8ff" d="M1330.5,-120.59C1330.5,-102.53 1330.5,-61.17 1330.5,-36.21"/>
<polygon fill="#63b8ff" stroke="#63b8ff" points="1334,-36.38 1330.5,-26.38 1327,-36.38 1334,-36.38"/>
</g>
<!-- Node41&#45;&gt;Node28 -->
<g id="edge56" class="edge">
<title>Node41&#45;&gt;Node28</title>
<path fill="none" stroke="#63b8ff" d="M1336.1,-120.62C1345.3,-106.78 1364.97,-80.17 1388.5,-66 1437.48,-36.5 1503.61,-24.25 1544.37,-19.28"/>
<polygon fill="#63b8ff" stroke="#63b8ff" points="1544.6,-22.77 1554.15,-18.17 1543.82,-15.82 1544.6,-22.77"/>
</g>
<!-- Node41&#45;&gt;Node34 -->
<g id="edge53" class="edge">
<title>Node41&#45;&gt;Node34</title>
<path fill="none" stroke="#63b8ff" d="M1292.16,-120.51C1251.53,-110.98 1187.58,-95.98 1145.84,-86.19"/>
<polygon fill="#63b8ff" stroke="#63b8ff" points="1146.7,-82.8 1136.17,-83.93 1145.1,-89.62 1146.7,-82.8"/>
</g>
<!-- Node41&#45;&gt;Node35 -->
<g id="edge54" class="edge">
<title>Node41&#45;&gt;Node35</title>
<path fill="none" stroke="#63b8ff" d="M1304.55,-120.51C1279.48,-111.83 1241.32,-98.61 1213.36,-88.92"/>
<polygon fill="#63b8ff" stroke="#63b8ff" points="1214.84,-85.73 1204.25,-85.77 1212.55,-92.35 1214.84,-85.73"/>
</g>
<!-- Node41&#45;&gt;Node36 -->
<g id="edge59" class="edge">
<title>Node41&#45;&gt;Node36</title>
<path fill="none" stroke="#63b8ff" d="M1315.57,-120.51C1302.22,-112.47 1282.39,-100.53 1266.76,-91.11"/>
<polygon fill="#63b8ff" stroke="#63b8ff" points="1268.88,-88.3 1258.5,-86.14 1265.26,-94.3 1268.88,-88.3"/>
</g>
<!-- Node41&#45;&gt;Node37 -->
<g id="edge60" class="edge">
<title>Node41&#45;&gt;Node37</title>
<path fill="none" stroke="#63b8ff" d="M1347.63,-120.51C1363.25,-112.31 1386.58,-100.07 1404.67,-90.58"/>
<polygon fill="#63b8ff" stroke="#63b8ff" points="1406.05,-93.81 1413.28,-86.06 1402.8,-87.61 1406.05,-93.81"/>
</g>
<!-- Node41&#45;&gt;Node38 -->
<g id="edge61" class="edge">
<title>Node41&#45;&gt;Node38</title>
<path fill="none" stroke="#63b8ff" d="M1361.54,-120.51C1392.14,-111.65 1439.07,-98.06 1472.68,-88.32"/>
<polygon fill="#63b8ff" stroke="#63b8ff" points="1473.44,-91.75 1482.07,-85.6 1471.49,-85.02 1473.44,-91.75"/>
</g>
<!-- Node41&#45;&gt;Node39 -->
<g id="edge62" class="edge">
<title>Node41&#45;&gt;Node39</title>
<path fill="none" stroke="#63b8ff" d="M1375.59,-120.55C1418.09,-112.1 1483.86,-98.96 1549.82,-85.54"/>
<polygon fill="#63b8ff" stroke="#63b8ff" points="1550.25,-89.02 1559.35,-83.6 1548.85,-82.16 1550.25,-89.02"/>
</g>
<!-- Node41&#45;&gt;Node40 -->
<g id="edge63" class="edge">
<title>Node41&#45;&gt;Node40</title>
<path fill="none" stroke="#63b8ff" d="M1393.31,-122.2C1452.72,-114.88 1544.57,-102.47 1633.24,-85.27"/>
<polygon fill="#63b8ff" stroke="#63b8ff" points="1633.69,-88.75 1642.83,-83.39 1632.34,-81.88 1633.69,-88.75"/>
</g>
<!-- Node42&#45;&gt;Node25 -->
<g id="edge70" class="edge">
<title>Node42&#45;&gt;Node25</title>
<path fill="none" stroke="#63b8ff" d="M1207.5,-230.75C1207.5,-224.27 1207.5,-215.16 1207.5,-206.9"/>
<polygon fill="#63b8ff" stroke="#63b8ff" points="1211,-206.96 1207.5,-196.96 1204,-206.96 1211,-206.96"/>
</g>
<!-- Node43&#45;&gt;Node24 -->
<g id="edge74" class="edge">
<title>Node43&#45;&gt;Node24</title>
<path fill="none" stroke="#63b8ff" d="M1291.03,-291.05C1245.98,-280.84 1172.19,-264.1 1122.99,-252.95"/>
<polygon fill="#63b8ff" stroke="#63b8ff" points="1123.96,-249.58 1113.44,-250.78 1122.42,-256.41 1123.96,-249.58"/>
</g>
<!-- Node43&#45;&gt;Node28 -->
<g id="edge73" class="edge">
<title>Node43&#45;&gt;Node28</title>
<path fill="none" stroke="#63b8ff" d="M1381.92,-298.35C1503.5,-293.06 1798.5,-271.46 1798.5,-186.5 1798.5,-186.5 1798.5,-186.5 1798.5,-129.5 1798.5,-49.22 1680.43,-25.62 1618.48,-18.76"/>
<polygon fill="#63b8ff" stroke="#63b8ff" points="1619.05,-15.3 1608.75,-17.78 1618.35,-22.27 1619.05,-15.3"/>
</g>
<!-- Node43&#45;&gt;Node32 -->
<g id="edge75" class="edge">
<title>Node43&#45;&gt;Node32</title>
<path fill="none" stroke="#63b8ff" d="M1330.5,-291.37C1330.5,-283.5 1330.5,-271.6 1330.5,-261.39"/>
<polygon fill="#63b8ff" stroke="#63b8ff" points="1334,-261.68 1330.5,-251.68 1327,-261.68 1334,-261.68"/>
</g>
<!-- Node44 -->
<g id="node44" class="node">
<title>Node44</title>
<g id="a_node44"><a xlink:title=" ">
<polygon fill="#e0e0e0" stroke="#999999" points="1876,-250 1827,-250 1827,-231 1876,-231 1876,-250"/>
<text text-anchor="middle" x="1851.5" y="-238" font-family="Helvetica,sans-Serif" font-size="10.00">cstddef</text>
</a>
</g>
</g>
<!-- Node43&#45;&gt;Node44 -->
<g id="edge72" class="edge">
<title>Node43&#45;&gt;Node44</title>
<path fill="none" stroke="#63b8ff" d="M1381.75,-296.57C1470.09,-290.23 1656.54,-275.01 1812.5,-250 1813.52,-249.84 1814.55,-249.66 1815.59,-249.48"/>
<polygon fill="#63b8ff" stroke="#63b8ff" points="1816.18,-252.93 1825.34,-247.6 1814.85,-246.06 1816.18,-252.93"/>
</g>
</g>
</svg>
