<?xml version="1.0" encoding="UTF-8" standalone="no"?>
<!DOCTYPE svg PUBLIC "-//W3C//DTD SVG 1.1//EN"
 "http://www.w3.org/Graphics/SVG/1.1/DTD/svg11.dtd">
<!-- Generated by graphviz version 7.0.5 (20221223.1930)
 -->
<!-- Title: DataHandlerSync.cpp Pages: 1 -->
<svg width="1700pt" height="434pt"
 viewBox="0.00 0.00 1699.50 434.00" xmlns="http://www.w3.org/2000/svg" xmlns:xlink="http://www.w3.org/1999/xlink">
<g id="graph0" class="graph" transform="scale(1 1) rotate(0) translate(4 430)">
<title>DataHandlerSync.cpp</title>
<!-- Node1 -->
<g id="node1" class="node">
<title>Node1</title>
<g id="a_node1"><a xlink:title=" ">
<polygon fill="#999999" stroke="#666666" points="174,-426 64,-426 64,-407 174,-407 174,-426"/>
<text text-anchor="middle" x="119" y="-414" font-family="Helvetica,sans-Serif" font-size="10.00">DataHandlerSync.cpp</text>
</a>
</g>
</g>
<!-- Node2 -->
<g id="node2" class="node">
<title>Node2</title>
<g id="a_node2"><a xlink:href="_data_handler_sync_8hpp.html" target="_top" xlink:title=" ">
<polygon fill="white" stroke="#666666" points="191.5,-371 46.5,-371 46.5,-352 191.5,-352 191.5,-371"/>
<text text-anchor="middle" x="119" y="-359" font-family="Helvetica,sans-Serif" font-size="10.00">udmaio/DataHandlerSync.hpp</text>
</a>
</g>
</g>
<!-- Node1&#45;&gt;Node2 -->
<g id="edge1" class="edge">
<title>Node1&#45;&gt;Node2</title>
<path fill="none" stroke="#63b8ff" d="M119,-406.75C119,-400.27 119,-391.16 119,-382.9"/>
<polygon fill="#63b8ff" stroke="#63b8ff" points="122.5,-382.96 119,-372.96 115.5,-382.96 122.5,-382.96"/>
</g>
<!-- Node3 -->
<g id="node3" class="node">
<title>Node3</title>
<g id="a_node3"><a xlink:title=" ">
<polygon fill="#e0e0e0" stroke="#999999" points="50,-316 0,-316 0,-297 50,-297 50,-316"/>
<text text-anchor="middle" x="25" y="-304" font-family="Helvetica,sans-Serif" font-size="10.00">optional</text>
</a>
</g>
</g>
<!-- Node2&#45;&gt;Node3 -->
<g id="edge2" class="edge">
<title>Node2&#45;&gt;Node3</title>
<path fill="none" stroke="#63b8ff" d="M103.05,-351.51C88.65,-343.39 67.21,-331.3 50.44,-321.85"/>
<polygon fill="#63b8ff" stroke="#63b8ff" points="52.46,-318.96 42.03,-317.1 49.02,-325.06 52.46,-318.96"/>
</g>
<!-- Node4 -->
<g id="node4" class="node">
<title>Node4</title>
<g id="a_node4"><a xlink:title=" ">
<polygon fill="#e0e0e0" stroke="#999999" points="60,-255.5 16,-255.5 16,-236.5 60,-236.5 60,-255.5"/>
<text text-anchor="middle" x="38" y="-243.5" font-family="Helvetica,sans-Serif" font-size="10.00">thread</text>
</a>
</g>
</g>
<!-- Node2&#45;&gt;Node4 -->
<g id="edge3" class="edge">
<title>Node2&#45;&gt;Node4</title>
<path fill="none" stroke="#63b8ff" d="M112.64,-351.59C99.4,-333.03 68.6,-289.87 50.98,-265.19"/>
<polygon fill="#63b8ff" stroke="#63b8ff" points="53.86,-263.2 45.21,-257.1 48.17,-267.27 53.86,-263.2"/>
</g>
<!-- Node5 -->
<g id="node5" class="node">
<title>Node5</title>
<g id="a_node5"><a xlink:href="_concurrent_queue_8hpp.html" target="_top" xlink:title=" ">
<polygon fill="white" stroke="#666666" points="216,-316 106,-316 106,-297 216,-297 216,-316"/>
<text text-anchor="middle" x="161" y="-304" font-family="Helvetica,sans-Serif" font-size="10.00">ConcurrentQueue.hpp</text>
</a>
</g>
</g>
<!-- Node2&#45;&gt;Node5 -->
<g id="edge4" class="edge">
<title>Node2&#45;&gt;Node5</title>
<path fill="none" stroke="#63b8ff" d="M125.94,-351.75C131.62,-344.58 139.84,-334.2 146.89,-325.3"/>
<polygon fill="#63b8ff" stroke="#63b8ff" points="149.51,-327.64 152.97,-317.63 144.02,-323.29 149.51,-327.64"/>
</g>
<!-- Node10 -->
<g id="node10" class="node">
<title>Node10</title>
<g id="a_node10"><a xlink:href="_data_handler_abstract_8hpp.html" target="_top" xlink:title=" ">
<polygon fill="white" stroke="#666666" points="787.5,-316 662.5,-316 662.5,-297 787.5,-297 787.5,-316"/>
<text text-anchor="middle" x="725" y="-304" font-family="Helvetica,sans-Serif" font-size="10.00">DataHandlerAbstract.hpp</text>
</a>
</g>
</g>
<!-- Node2&#45;&gt;Node10 -->
<g id="edge10" class="edge">
<title>Node2&#45;&gt;Node10</title>
<path fill="none" stroke="#63b8ff" d="M191.8,-354.13C307.91,-343.98 533.82,-324.22 650.81,-313.99"/>
<polygon fill="#63b8ff" stroke="#63b8ff" points="650.96,-317.49 660.61,-313.13 650.35,-310.52 650.96,-317.49"/>
</g>
<!-- Node5&#45;&gt;Node4 -->
<g id="edge9" class="edge">
<title>Node5&#45;&gt;Node4</title>
<path fill="none" stroke="#63b8ff" d="M142.32,-296.62C122.36,-287.12 90.46,-271.95 67.18,-260.88"/>
<polygon fill="#63b8ff" stroke="#63b8ff" points="68.76,-257.75 58.22,-256.62 65.75,-264.07 68.76,-257.75"/>
</g>
<!-- Node6 -->
<g id="node6" class="node">
<title>Node6</title>
<g id="a_node6"><a xlink:title=" ">
<polygon fill="#e0e0e0" stroke="#999999" points="247,-255.5 201,-255.5 201,-236.5 247,-236.5 247,-255.5"/>
<text text-anchor="middle" x="224" y="-243.5" font-family="Helvetica,sans-Serif" font-size="10.00">chrono</text>
</a>
</g>
</g>
<!-- Node5&#45;&gt;Node6 -->
<g id="edge5" class="edge">
<title>Node5&#45;&gt;Node6</title>
<path fill="none" stroke="#63b8ff" d="M170.57,-296.62C180,-287.85 194.65,-274.25 206.23,-263.5"/>
<polygon fill="#63b8ff" stroke="#63b8ff" points="208.29,-266.37 213.23,-257 203.52,-261.24 208.29,-266.37"/>
</g>
<!-- Node7 -->
<g id="node7" class="node">
<title>Node7</title>
<g id="a_node7"><a xlink:title=" ">
<polygon fill="#e0e0e0" stroke="#999999" points="360.5,-255.5 265.5,-255.5 265.5,-236.5 360.5,-236.5 360.5,-255.5"/>
<text text-anchor="middle" x="313" y="-243.5" font-family="Helvetica,sans-Serif" font-size="10.00">condition_variable</text>
</a>
</g>
</g>
<!-- Node5&#45;&gt;Node7 -->
<g id="edge6" class="edge">
<title>Node5&#45;&gt;Node7</title>
<path fill="none" stroke="#63b8ff" d="M184.09,-296.62C209.42,-286.87 250.32,-271.12 279.25,-259.99"/>
<polygon fill="#63b8ff" stroke="#63b8ff" points="280.21,-263.37 288.28,-256.51 277.69,-256.84 280.21,-263.37"/>
</g>
<!-- Node8 -->
<g id="node8" class="node">
<title>Node8</title>
<g id="a_node8"><a xlink:title=" ">
<polygon fill="#e0e0e0" stroke="#999999" points="121.5,-255.5 78.5,-255.5 78.5,-236.5 121.5,-236.5 121.5,-255.5"/>
<text text-anchor="middle" x="100" y="-243.5" font-family="Helvetica,sans-Serif" font-size="10.00">mutex</text>
</a>
</g>
</g>
<!-- Node5&#45;&gt;Node8 -->
<g id="edge7" class="edge">
<title>Node5&#45;&gt;Node8</title>
<path fill="none" stroke="#63b8ff" d="M151.74,-296.62C142.69,-287.94 128.69,-274.52 117.54,-263.82"/>
<polygon fill="#63b8ff" stroke="#63b8ff" points="120.08,-261.41 110.44,-257.02 115.24,-266.46 120.08,-261.41"/>
</g>
<!-- Node9 -->
<g id="node9" class="node">
<title>Node9</title>
<g id="a_node9"><a xlink:title=" ">
<polygon fill="#e0e0e0" stroke="#999999" points="182.5,-255.5 139.5,-255.5 139.5,-236.5 182.5,-236.5 182.5,-255.5"/>
<text text-anchor="middle" x="161" y="-243.5" font-family="Helvetica,sans-Serif" font-size="10.00">queue</text>
</a>
</g>
</g>
<!-- Node5&#45;&gt;Node9 -->
<g id="edge8" class="edge">
<title>Node5&#45;&gt;Node9</title>
<path fill="none" stroke="#63b8ff" d="M161,-296.87C161,-289 161,-277.1 161,-266.89"/>
<polygon fill="#63b8ff" stroke="#63b8ff" points="164.5,-267.18 161,-257.18 157.5,-267.18 164.5,-267.18"/>
</g>
<!-- Node11 -->
<g id="node11" class="node">
<title>Node11</title>
<g id="a_node11"><a xlink:title=" ">
<polygon fill="#e0e0e0" stroke="#999999" points="979.5,-24.5 938.5,-24.5 938.5,-5.5 979.5,-5.5 979.5,-24.5"/>
<text text-anchor="middle" x="959" y="-12.5" font-family="Helvetica,sans-Serif" font-size="10.00">string</text>
</a>
</g>
</g>
<!-- Node10&#45;&gt;Node11 -->
<g id="edge11" class="edge">
<title>Node10&#45;&gt;Node11</title>
<path fill="none" stroke="#63b8ff" d="M729.31,-296.79C738.46,-277.45 759,-229.26 759,-186.5 759,-186.5 759,-186.5 759,-129.5 759,-100.04 756.57,-86.22 778,-66 828.5,-18.36 864.58,-53.23 930,-30 930.5,-29.82 931,-29.64 931.51,-29.45"/>
<polygon fill="#63b8ff" stroke="#63b8ff" points="932.88,-32.67 940.7,-25.52 930.13,-26.23 932.88,-32.67"/>
</g>
<!-- Node12 -->
<g id="node12" class="node">
<title>Node12</title>
<g id="a_node12"><a xlink:title=" ">
<polygon fill="#e0e0e0" stroke="#999999" points="876,-140 832,-140 832,-121 876,-121 876,-140"/>
<text text-anchor="middle" x="854" y="-128" font-family="Helvetica,sans-Serif" font-size="10.00">vector</text>
</a>
</g>
</g>
<!-- Node10&#45;&gt;Node12 -->
<g id="edge12" class="edge">
<title>Node10&#45;&gt;Node12</title>
<path fill="none" stroke="#63b8ff" d="M754.6,-296.64C773.15,-289.69 796.26,-278.26 811,-261 838.23,-229.12 848.36,-179.43 852.02,-151.79"/>
<polygon fill="#63b8ff" stroke="#63b8ff" points="855.48,-152.31 853.14,-141.98 848.53,-151.52 855.48,-152.31"/>
</g>
<!-- Node13 -->
<g id="node13" class="node">
<title>Node13</title>
<g id="a_node13"><a xlink:title=" ">
<polygon fill="#e0e0e0" stroke="#999999" points="497,-255.5 417,-255.5 417,-236.5 497,-236.5 497,-255.5"/>
<text text-anchor="middle" x="457" y="-243.5" font-family="Helvetica,sans-Serif" font-size="10.00">boost/asio.hpp</text>
</a>
</g>
</g>
<!-- Node10&#45;&gt;Node13 -->
<g id="edge13" class="edge">
<title>Node10&#45;&gt;Node13</title>
<path fill="none" stroke="#63b8ff" d="M675.18,-296.52C630.63,-288.22 563.67,-275.07 506,-261 503.39,-260.36 500.71,-259.68 498.01,-258.97"/>
<polygon fill="#63b8ff" stroke="#63b8ff" points="498.99,-255.61 488.42,-256.36 497.15,-262.36 498.99,-255.61"/>
</g>
<!-- Node14 -->
<g id="node14" class="node">
<title>Node14</title>
<g id="a_node14"><a xlink:title=" ">
<polygon fill="#e0e0e0" stroke="#999999" points="924.5,-85 787.5,-85 787.5,-66 924.5,-66 924.5,-85"/>
<text text-anchor="middle" x="856" y="-73" font-family="Helvetica,sans-Serif" font-size="10.00">boost/core/noncopyable.hpp</text>
</a>
</g>
</g>
<!-- Node10&#45;&gt;Node14 -->
<g id="edge14" class="edge">
<title>Node10&#45;&gt;Node14</title>
<path fill="none" stroke="#63b8ff" d="M737.62,-296.57C748.35,-288.4 763.49,-275.42 773,-261 809.38,-205.85 791.87,-179.28 823,-121 828.03,-111.57 834.91,-101.95 841.09,-94.07"/>
<polygon fill="#63b8ff" stroke="#63b8ff" points="843.78,-96.31 847.39,-86.35 838.35,-91.89 843.78,-96.31"/>
</g>
<!-- Node15 -->
<g id="node15" class="node">
<title>Node15</title>
<g id="a_node15"><a xlink:href="_logging_8hpp.html" target="_top" xlink:title=" ">
<polygon fill="white" stroke="#666666" points="620.5,-85 551.5,-85 551.5,-66 620.5,-66 620.5,-85"/>
<text text-anchor="middle" x="586" y="-73" font-family="Helvetica,sans-Serif" font-size="10.00">Logging.hpp</text>
</a>
</g>
</g>
<!-- Node10&#45;&gt;Node15 -->
<g id="edge15" class="edge">
<title>Node10&#45;&gt;Node15</title>
<path fill="none" stroke="#63b8ff" d="M662.29,-306.01C579.46,-305.18 440.27,-298.12 408,-261 349.91,-194.18 489.58,-119.8 554.74,-89.96"/>
<polygon fill="#63b8ff" stroke="#63b8ff" points="555.82,-93.31 563.5,-86.02 552.95,-86.93 555.82,-93.31"/>
</g>
<!-- Node23 -->
<g id="node23" class="node">
<title>Node23</title>
<g id="a_node23"><a xlink:href="_u_dma_buf_8hpp.html" target="_top" xlink:title=" ">
<polygon fill="white" stroke="#666666" points="730.5,-255.5 653.5,-255.5 653.5,-236.5 730.5,-236.5 730.5,-255.5"/>
<text text-anchor="middle" x="692" y="-243.5" font-family="Helvetica,sans-Serif" font-size="10.00">UDmaBuf.hpp</text>
</a>
</g>
</g>
<!-- Node10&#45;&gt;Node23 -->
<g id="edge24" class="edge">
<title>Node10&#45;&gt;Node23</title>
<path fill="none" stroke="#63b8ff" d="M720.13,-296.87C715.5,-288.66 708.38,-276.04 702.47,-265.55"/>
<polygon fill="#63b8ff" stroke="#63b8ff" points="705.59,-263.98 697.63,-256.99 699.5,-267.41 705.59,-263.98"/>
</g>
<!-- Node31 -->
<g id="node31" class="node">
<title>Node31</title>
<g id="a_node31"><a xlink:href="_uio_axi_dma_if_8hpp.html" target="_top" xlink:title=" ">
<polygon fill="white" stroke="#666666" points="1139.5,-255.5 1050.5,-255.5 1050.5,-236.5 1139.5,-236.5 1139.5,-255.5"/>
<text text-anchor="middle" x="1095" y="-243.5" font-family="Helvetica,sans-Serif" font-size="10.00">UioAxiDmaIf.hpp</text>
</a>
</g>
</g>
<!-- Node10&#45;&gt;Node31 -->
<g id="edge36" class="edge">
<title>Node10&#45;&gt;Node31</title>
<path fill="none" stroke="#63b8ff" d="M781.6,-296.55C851.4,-285.52 969.32,-266.87 1038.9,-255.87"/>
<polygon fill="#63b8ff" stroke="#63b8ff" points="1039.22,-259.36 1048.55,-254.34 1038.13,-252.45 1039.22,-259.36"/>
</g>
<!-- Node42 -->
<g id="node42" class="node">
<title>Node42</title>
<g id="a_node42"><a xlink:href="_uio_mem_sgdma_8hpp.html" target="_top" xlink:title=" ">
<polygon fill="white" stroke="#666666" points="973,-255.5 871,-255.5 871,-236.5 973,-236.5 973,-255.5"/>
<text text-anchor="middle" x="922" y="-243.5" font-family="Helvetica,sans-Serif" font-size="10.00">UioMemSgdma.hpp</text>
</a>
</g>
</g>
<!-- Node10&#45;&gt;Node42 -->
<g id="edge56" class="edge">
<title>Node10&#45;&gt;Node42</title>
<path fill="none" stroke="#63b8ff" d="M754.92,-296.62C788.62,-286.61 843.58,-270.29 881.2,-259.12"/>
<polygon fill="#63b8ff" stroke="#63b8ff" points="881.76,-262.6 890.35,-256.4 879.76,-255.89 881.76,-262.6"/>
</g>
<!-- Node43 -->
<g id="node43" class="node">
<title>Node43</title>
<g id="a_node43"><a xlink:title=" ">
<polygon fill="#e0e0e0" stroke="#999999" points="635,-261 515,-261 515,-231 635,-231 635,-261"/>
<text text-anchor="start" x="523" y="-249" font-family="Helvetica,sans-Serif" font-size="10.00">boost/asio/posix/stream</text>
<text text-anchor="middle" x="575" y="-238" font-family="Helvetica,sans-Serif" font-size="10.00">_descriptor.hpp</text>
</a>
</g>
</g>
<!-- Node10&#45;&gt;Node43 -->
<g id="edge59" class="edge">
<title>Node10&#45;&gt;Node43</title>
<path fill="none" stroke="#63b8ff" d="M702.22,-296.62C681.18,-288.41 649.27,-275.97 622.67,-265.59"/>
<polygon fill="#63b8ff" stroke="#63b8ff" points="624.02,-262.36 613.43,-261.99 621.48,-268.88 624.02,-262.36"/>
</g>
<!-- Node15&#45;&gt;Node11 -->
<g id="edge16" class="edge">
<title>Node15&#45;&gt;Node11</title>
<path fill="none" stroke="#63b8ff" d="M620.94,-73.66C683.96,-71.34 820.33,-62.63 930,-30 930.8,-29.76 931.61,-29.5 932.42,-29.23"/>
<polygon fill="#63b8ff" stroke="#63b8ff" points="933.5,-32.57 941.41,-25.52 930.83,-26.1 933.5,-32.57"/>
</g>
<!-- Node16 -->
<g id="node16" class="node">
<title>Node16</title>
<g id="a_node16"><a xlink:title=" ">
<polygon fill="#e0e0e0" stroke="#999999" points="247,-24.5 151,-24.5 151,-5.5 247,-5.5 247,-24.5"/>
<text text-anchor="middle" x="199" y="-12.5" font-family="Helvetica,sans-Serif" font-size="10.00">boost/log/core.hpp</text>
</a>
</g>
</g>
<!-- Node15&#45;&gt;Node16 -->
<g id="edge17" class="edge">
<title>Node15&#45;&gt;Node16</title>
<path fill="none" stroke="#63b8ff" d="M551.12,-71.04C490.7,-64.76 362.78,-50.25 256,-30 252.13,-29.27 248.13,-28.43 244.12,-27.55"/>
<polygon fill="#63b8ff" stroke="#63b8ff" points="244.94,-24.15 234.4,-25.3 243.36,-30.97 244.94,-24.15"/>
</g>
<!-- Node17 -->
<g id="node17" class="node">
<title>Node17</title>
<g id="a_node17"><a xlink:title=" ">
<polygon fill="#e0e0e0" stroke="#999999" points="394.5,-24.5 265.5,-24.5 265.5,-5.5 394.5,-5.5 394.5,-24.5"/>
<text text-anchor="middle" x="330" y="-12.5" font-family="Helvetica,sans-Serif" font-size="10.00">boost/log/expressions.hpp</text>
</a>
</g>
</g>
<!-- Node15&#45;&gt;Node17 -->
<g id="edge18" class="edge">
<title>Node15&#45;&gt;Node17</title>
<path fill="none" stroke="#63b8ff" d="M551.21,-66.55C507.11,-56.47 430.76,-39.03 380.31,-27.5"/>
<polygon fill="#63b8ff" stroke="#63b8ff" points="381.34,-24.14 370.81,-25.33 379.78,-30.97 381.34,-24.14"/>
</g>
<!-- Node18 -->
<g id="node18" class="node">
<title>Node18</title>
<g id="a_node18"><a xlink:title=" ">
<polygon fill="#e0e0e0" stroke="#999999" points="513.5,-24.5 412.5,-24.5 412.5,-5.5 513.5,-5.5 513.5,-24.5"/>
<text text-anchor="middle" x="463" y="-12.5" font-family="Helvetica,sans-Serif" font-size="10.00">boost/log/trivial.hpp</text>
</a>
</g>
</g>
<!-- Node15&#45;&gt;Node18 -->
<g id="edge19" class="edge">
<title>Node15&#45;&gt;Node18</title>
<path fill="none" stroke="#63b8ff" d="M567.32,-65.62C547.36,-56.12 515.46,-40.95 492.18,-29.88"/>
<polygon fill="#63b8ff" stroke="#63b8ff" points="493.76,-26.75 483.22,-25.62 490.75,-33.07 493.76,-26.75"/>
</g>
<!-- Node19 -->
<g id="node19" class="node">
<title>Node19</title>
<g id="a_node19"><a xlink:title=" ">
<polygon fill="#e0e0e0" stroke="#999999" points="640.5,-30 531.5,-30 531.5,0 640.5,0 640.5,-30"/>
<text text-anchor="start" x="539.5" y="-18" font-family="Helvetica,sans-Serif" font-size="10.00">boost/log/utility/setup</text>
<text text-anchor="middle" x="586" y="-7" font-family="Helvetica,sans-Serif" font-size="10.00">/console.hpp</text>
</a>
</g>
</g>
<!-- Node15&#45;&gt;Node19 -->
<g id="edge20" class="edge">
<title>Node15&#45;&gt;Node19</title>
<path fill="none" stroke="#63b8ff" d="M586,-65.87C586,-59.4 586,-50.2 586,-41.45"/>
<polygon fill="#63b8ff" stroke="#63b8ff" points="589.5,-41.63 586,-31.63 582.5,-41.63 589.5,-41.63"/>
</g>
<!-- Node20 -->
<g id="node20" class="node">
<title>Node20</title>
<g id="a_node20"><a xlink:title=" ">
<polygon fill="#e0e0e0" stroke="#999999" points="789.5,-30 658.5,-30 658.5,0 789.5,0 789.5,-30"/>
<text text-anchor="start" x="666.5" y="-18" font-family="Helvetica,sans-Serif" font-size="10.00">boost/log/sources/severity</text>
<text text-anchor="middle" x="724" y="-7" font-family="Helvetica,sans-Serif" font-size="10.00">_channel_logger.hpp</text>
</a>
</g>
</g>
<!-- Node15&#45;&gt;Node20 -->
<g id="edge21" class="edge">
<title>Node15&#45;&gt;Node20</title>
<path fill="none" stroke="#63b8ff" d="M606.96,-65.62C626.14,-57.48 655.15,-45.19 679.49,-34.87"/>
<polygon fill="#63b8ff" stroke="#63b8ff" points="680.7,-38.16 688.54,-31.03 677.97,-31.71 680.7,-38.16"/>
</g>
<!-- Node21 -->
<g id="node21" class="node">
<title>Node21</title>
<g id="a_node21"><a xlink:title=" ">
<polygon fill="#e0e0e0" stroke="#999999" points="920.5,-30 807.5,-30 807.5,0 920.5,0 920.5,-30"/>
<text text-anchor="start" x="815.5" y="-18" font-family="Helvetica,sans-Serif" font-size="10.00">boost/log/support/date</text>
<text text-anchor="middle" x="864" y="-7" font-family="Helvetica,sans-Serif" font-size="10.00">_time.hpp</text>
</a>
</g>
</g>
<!-- Node15&#45;&gt;Node21 -->
<g id="edge22" class="edge">
<title>Node15&#45;&gt;Node21</title>
<path fill="none" stroke="#63b8ff" d="M620.69,-67.32C660.64,-59.04 728.53,-44.92 796.02,-30.63"/>
<polygon fill="#63b8ff" stroke="#63b8ff" points="796.75,-34.05 805.8,-28.55 795.3,-27.2 796.75,-34.05"/>
</g>
<!-- Node22 -->
<g id="node22" class="node">
<title>Node22</title>
<g id="a_node22"><a xlink:title=" ">
<polygon fill="#e0e0e0" stroke="#999999" points="132.5,-30 11.5,-30 11.5,0 132.5,0 132.5,-30"/>
<text text-anchor="start" x="19.5" y="-18" font-family="Helvetica,sans-Serif" font-size="10.00">boost/log/utility/setup</text>
<text text-anchor="middle" x="72" y="-7" font-family="Helvetica,sans-Serif" font-size="10.00">/common_attributes.hpp</text>
</a>
</g>
</g>
<!-- Node15&#45;&gt;Node22 -->
<g id="edge23" class="edge">
<title>Node15&#45;&gt;Node22</title>
<path fill="none" stroke="#63b8ff" d="M551.03,-72.16C477.64,-67 302,-53.35 143.99,-30.19"/>
<polygon fill="#63b8ff" stroke="#63b8ff" points="144.55,-26.73 134.14,-28.73 143.52,-33.66 144.55,-26.73"/>
</g>
<!-- Node23&#45;&gt;Node15 -->
<g id="edge35" class="edge">
<title>Node23&#45;&gt;Node15</title>
<path fill="none" stroke="#63b8ff" d="M686.6,-236.41C670.09,-210.17 620.04,-130.61 597.37,-94.58"/>
<polygon fill="#63b8ff" stroke="#63b8ff" points="600.61,-93.15 592.32,-86.55 594.69,-96.88 600.61,-93.15"/>
</g>
<!-- Node24 -->
<g id="node24" class="node">
<title>Node24</title>
<g id="a_node24"><a xlink:href="_dma_buffer_abstract_8hpp.html" target="_top" xlink:title=" ">
<polygon fill="white" stroke="#666666" points="980.5,-195 863.5,-195 863.5,-176 980.5,-176 980.5,-195"/>
<text text-anchor="middle" x="922" y="-183" font-family="Helvetica,sans-Serif" font-size="10.00">DmaBufferAbstract.hpp</text>
</a>
</g>
</g>
<!-- Node23&#45;&gt;Node24 -->
<g id="edge25" class="edge">
<title>Node23&#45;&gt;Node24</title>
<path fill="none" stroke="#63b8ff" d="M727.18,-236.05C767,-225.92 832.02,-209.39 875.88,-198.23"/>
<polygon fill="#63b8ff" stroke="#63b8ff" points="876.53,-201.68 885.35,-195.82 874.8,-194.89 876.53,-201.68"/>
</g>
<!-- Node24&#45;&gt;Node12 -->
<g id="edge27" class="edge">
<title>Node24&#45;&gt;Node12</title>
<path fill="none" stroke="#63b8ff" d="M910.46,-175.51C900.54,-167.77 885.99,-156.43 874.14,-147.2"/>
<polygon fill="#63b8ff" stroke="#63b8ff" points="876.6,-144.68 866.56,-141.29 872.29,-150.2 876.6,-144.68"/>
</g>
<!-- Node24&#45;&gt;Node14 -->
<g id="edge28" class="edge">
<title>Node24&#45;&gt;Node14</title>
<path fill="none" stroke="#63b8ff" d="M917.11,-175.79C910.15,-163.48 896.92,-140.33 885,-121 879.62,-112.27 873.43,-102.72 868.17,-94.72"/>
<polygon fill="#63b8ff" stroke="#63b8ff" points="871.19,-92.94 862.75,-86.54 865.35,-96.81 871.19,-92.94"/>
</g>
<!-- Node25 -->
<g id="node25" class="node">
<title>Node25</title>
<g id="a_node25"><a xlink:title=" ">
<polygon fill="#e0e0e0" stroke="#999999" points="1068,-140 1022,-140 1022,-121 1068,-121 1068,-140"/>
<text text-anchor="middle" x="1045" y="-128" font-family="Helvetica,sans-Serif" font-size="10.00">cstdint</text>
</a>
</g>
</g>
<!-- Node24&#45;&gt;Node25 -->
<g id="edge26" class="edge">
<title>Node24&#45;&gt;Node25</title>
<path fill="none" stroke="#63b8ff" d="M942.87,-175.51C962.42,-167.08 991.9,-154.38 1014.17,-144.79"/>
<polygon fill="#63b8ff" stroke="#63b8ff" points="1015.25,-148.13 1023.05,-140.96 1012.48,-141.7 1015.25,-148.13"/>
</g>
<!-- Node26 -->
<g id="node26" class="node">
<title>Node26</title>
<g id="a_node26"><a xlink:href="_uio_config_8hpp.html" target="_top" xlink:title=" ">
<polygon fill="white" stroke="#666666" points="1092.5,-85 981.5,-85 981.5,-66 1092.5,-66 1092.5,-85"/>
<text text-anchor="middle" x="1037" y="-73" font-family="Helvetica,sans-Serif" font-size="10.00">udmaio/UioConfig.hpp</text>
</a>
</g>
</g>
<!-- Node24&#45;&gt;Node26 -->
<g id="edge29" class="edge">
<title>Node24&#45;&gt;Node26</title>
<path fill="none" stroke="#63b8ff" d="M931.41,-175.66C950.62,-157.62 994.59,-116.32 1019.31,-93.12"/>
<polygon fill="#63b8ff" stroke="#63b8ff" points="1021.46,-95.89 1026.36,-86.5 1016.67,-90.79 1021.46,-95.89"/>
</g>
<!-- Node26&#45;&gt;Node11 -->
<g id="edge33" class="edge">
<title>Node26&#45;&gt;Node11</title>
<path fill="none" stroke="#63b8ff" d="M1025.15,-65.62C1013.24,-56.68 994.62,-42.72 980.17,-31.87"/>
<polygon fill="#63b8ff" stroke="#63b8ff" points="982.27,-29.08 972.17,-25.88 978.07,-34.68 982.27,-29.08"/>
</g>
<!-- Node27 -->
<g id="node27" class="node">
<title>Node27</title>
<g id="a_node27"><a xlink:title=" ">
<polygon fill="#e0e0e0" stroke="#999999" points="1440,-24.5 1386,-24.5 1386,-5.5 1440,-5.5 1440,-24.5"/>
<text text-anchor="middle" x="1413" y="-12.5" font-family="Helvetica,sans-Serif" font-size="10.00">iostream</text>
</a>
</g>
</g>
<!-- Node26&#45;&gt;Node27 -->
<g id="edge30" class="edge">
<title>Node26&#45;&gt;Node27</title>
<path fill="none" stroke="#63b8ff" d="M1092.88,-65.81C1170.27,-53.76 1308.05,-32.33 1374.74,-21.95"/>
<polygon fill="#63b8ff" stroke="#63b8ff" points="1375.12,-25.44 1384.46,-20.44 1374.04,-18.52 1375.12,-25.44"/>
</g>
<!-- Node28 -->
<g id="node28" class="node">
<title>Node28</title>
<g id="a_node28"><a xlink:title=" ">
<polygon fill="#e0e0e0" stroke="#999999" points="1266.5,-24.5 1215.5,-24.5 1215.5,-5.5 1266.5,-5.5 1266.5,-24.5"/>
<text text-anchor="middle" x="1241" y="-12.5" font-family="Helvetica,sans-Serif" font-size="10.00">memory</text>
</a>
</g>
</g>
<!-- Node26&#45;&gt;Node28 -->
<g id="edge31" class="edge">
<title>Node26&#45;&gt;Node28</title>
<path fill="none" stroke="#63b8ff" d="M1067.98,-65.62C1104.61,-55.11 1165.48,-37.66 1204.39,-26.5"/>
<polygon fill="#63b8ff" stroke="#63b8ff" points="1205.13,-29.93 1213.77,-23.81 1203.2,-23.2 1205.13,-29.93"/>
</g>
<!-- Node29 -->
<g id="node29" class="node">
<title>Node29</title>
<g id="a_node29"><a xlink:title=" ">
<polygon fill="#e0e0e0" stroke="#999999" points="1144.5,-24.5 1085.5,-24.5 1085.5,-5.5 1144.5,-5.5 1144.5,-24.5"/>
<text text-anchor="middle" x="1115" y="-12.5" font-family="Helvetica,sans-Serif" font-size="10.00">stdexcept</text>
</a>
</g>
</g>
<!-- Node26&#45;&gt;Node29 -->
<g id="edge32" class="edge">
<title>Node26&#45;&gt;Node29</title>
<path fill="none" stroke="#63b8ff" d="M1048.85,-65.62C1060.76,-56.68 1079.38,-42.72 1093.83,-31.87"/>
<polygon fill="#63b8ff" stroke="#63b8ff" points="1095.93,-34.68 1101.83,-25.88 1091.73,-29.08 1095.93,-34.68"/>
</g>
<!-- Node30 -->
<g id="node30" class="node">
<title>Node30</title>
<g id="a_node30"><a xlink:title=" ">
<polygon fill="#e0e0e0" stroke="#999999" points="1067,-24.5 1001,-24.5 1001,-5.5 1067,-5.5 1067,-24.5"/>
<text text-anchor="middle" x="1034" y="-12.5" font-family="Helvetica,sans-Serif" font-size="10.00">string_view</text>
</a>
</g>
</g>
<!-- Node26&#45;&gt;Node30 -->
<g id="edge34" class="edge">
<title>Node26&#45;&gt;Node30</title>
<path fill="none" stroke="#63b8ff" d="M1036.56,-65.87C1036.15,-58 1035.54,-46.1 1035.02,-35.89"/>
<polygon fill="#63b8ff" stroke="#63b8ff" points="1038.53,-35.99 1034.52,-26.18 1031.54,-36.35 1038.53,-35.99"/>
</g>
<!-- Node32 -->
<g id="node32" class="node">
<title>Node32</title>
<g id="a_node32"><a xlink:href="_axi_dma_8hpp.html" target="_top" xlink:title=" ">
<polygon fill="white" stroke="#666666" points="1178,-195 1110,-195 1110,-176 1178,-176 1178,-195"/>
<text text-anchor="middle" x="1144" y="-183" font-family="Helvetica,sans-Serif" font-size="10.00">AxiDma.hpp</text>
</a>
</g>
</g>
<!-- Node31&#45;&gt;Node32 -->
<g id="edge37" class="edge">
<title>Node31&#45;&gt;Node32</title>
<path fill="none" stroke="#63b8ff" d="M1102.23,-236.37C1109.4,-227.81 1120.57,-214.47 1129.56,-203.74"/>
<polygon fill="#63b8ff" stroke="#63b8ff" points="1132.03,-206.24 1135.77,-196.33 1126.66,-201.75 1132.03,-206.24"/>
</g>
<!-- Node33 -->
<g id="node33" class="node">
<title>Node33</title>
<g id="a_node33"><a xlink:href="_reg_accessor_8hpp.html" target="_top" xlink:title=" ">
<polygon fill="white" stroke="#666666" points="1091.5,-195 998.5,-195 998.5,-176 1091.5,-176 1091.5,-195"/>
<text text-anchor="middle" x="1045" y="-183" font-family="Helvetica,sans-Serif" font-size="10.00">RegAccessor.hpp</text>
</a>
</g>
</g>
<!-- Node31&#45;&gt;Node33 -->
<g id="edge39" class="edge">
<title>Node31&#45;&gt;Node33</title>
<path fill="none" stroke="#63b8ff" d="M1087.62,-236.37C1080.31,-227.81 1068.91,-214.47 1059.74,-203.74"/>
<polygon fill="#63b8ff" stroke="#63b8ff" points="1062.55,-201.65 1053.39,-196.32 1057.23,-206.19 1062.55,-201.65"/>
</g>
<!-- Node34 -->
<g id="node34" class="node">
<title>Node34</title>
<g id="a_node34"><a xlink:href="_uio_if_8hpp.html" target="_top" xlink:title=" ">
<polygon fill="white" stroke="#666666" points="1265,-140 1175,-140 1175,-121 1265,-121 1265,-140"/>
<text text-anchor="middle" x="1220" y="-128" font-family="Helvetica,sans-Serif" font-size="10.00">udmaio/UioIf.hpp</text>
</a>
</g>
</g>
<!-- Node31&#45;&gt;Node34 -->
<g id="edge55" class="edge">
<title>Node31&#45;&gt;Node34</title>
<path fill="none" stroke="#63b8ff" d="M1120.24,-236.06C1140.35,-227.91 1168.15,-214.2 1187,-195 1199.25,-182.52 1208.01,-164.56 1213.41,-150.93"/>
<polygon fill="#63b8ff" stroke="#63b8ff" points="1216.63,-152.32 1216.77,-141.73 1210.05,-149.92 1216.63,-152.32"/>
</g>
<!-- Node32&#45;&gt;Node25 -->
<g id="edge38" class="edge">
<title>Node32&#45;&gt;Node25</title>
<path fill="none" stroke="#63b8ff" d="M1127.21,-175.51C1111.9,-167.31 1089.03,-155.07 1071.3,-145.58"/>
<polygon fill="#63b8ff" stroke="#63b8ff" points="1073.35,-142.71 1062.88,-141.07 1070.04,-148.88 1073.35,-142.71"/>
</g>
<!-- Node33&#45;&gt;Node25 -->
<g id="edge40" class="edge">
<title>Node33&#45;&gt;Node25</title>
<path fill="none" stroke="#63b8ff" d="M1045,-175.75C1045,-169.27 1045,-160.16 1045,-151.9"/>
<polygon fill="#63b8ff" stroke="#63b8ff" points="1048.5,-151.96 1045,-141.96 1041.5,-151.96 1048.5,-151.96"/>
</g>
<!-- Node33&#45;&gt;Node34 -->
<g id="edge41" class="edge">
<title>Node33&#45;&gt;Node34</title>
<path fill="none" stroke="#63b8ff" d="M1074.69,-175.51C1103.56,-166.76 1147.64,-153.42 1179.67,-143.71"/>
<polygon fill="#63b8ff" stroke="#63b8ff" points="1180.46,-147.13 1189.01,-140.88 1178.43,-140.43 1180.46,-147.13"/>
</g>
<!-- Node34&#45;&gt;Node11 -->
<g id="edge46" class="edge">
<title>Node34&#45;&gt;Node11</title>
<path fill="none" stroke="#63b8ff" d="M1174.5,-127.28C1111.14,-123.22 1000.95,-112.35 973,-85 960.17,-72.45 957.45,-51.58 957.47,-36.08"/>
<polygon fill="#63b8ff" stroke="#63b8ff" points="960.96,-36.27 957.9,-26.13 953.97,-35.97 960.96,-36.27"/>
</g>
<!-- Node34&#45;&gt;Node14 -->
<g id="edge47" class="edge">
<title>Node34&#45;&gt;Node14</title>
<path fill="none" stroke="#63b8ff" d="M1174.64,-122.89C1113,-113.92 1002.1,-97.77 928.77,-87.09"/>
<polygon fill="#63b8ff" stroke="#63b8ff" points="929.68,-83.69 919.28,-85.71 928.67,-90.62 929.68,-83.69"/>
</g>
<!-- Node34&#45;&gt;Node15 -->
<g id="edge53" class="edge">
<title>Node34&#45;&gt;Node15</title>
<path fill="none" stroke="#63b8ff" d="M1174.66,-125.71C1058.21,-115.97 749.55,-90.17 632.18,-80.36"/>
<polygon fill="#63b8ff" stroke="#63b8ff" points="632.55,-76.88 622.29,-79.53 631.96,-83.85 632.55,-76.88"/>
</g>
<!-- Node34&#45;&gt;Node26 -->
<g id="edge54" class="edge">
<title>Node34&#45;&gt;Node26</title>
<path fill="none" stroke="#63b8ff" d="M1188.96,-120.51C1158.63,-111.73 1112.27,-98.3 1078.73,-88.59"/>
<polygon fill="#63b8ff" stroke="#63b8ff" points="1079.92,-85.29 1069.34,-85.87 1077.98,-92.01 1079.92,-85.29"/>
</g>
<!-- Node34&#45;&gt;Node27 -->
<g id="edge44" class="edge">
<title>Node34&#45;&gt;Node27</title>
<path fill="none" stroke="#63b8ff" d="M1265.38,-126.15C1319.56,-121.09 1405.34,-109.38 1425,-85 1436.31,-70.97 1430.5,-50.06 1423.61,-34.93"/>
<polygon fill="#63b8ff" stroke="#63b8ff" points="1426.74,-33.37 1419.07,-26.05 1420.5,-36.55 1426.74,-33.37"/>
</g>
<!-- Node34&#45;&gt;Node28 -->
<g id="edge45" class="edge">
<title>Node34&#45;&gt;Node28</title>
<path fill="none" stroke="#63b8ff" d="M1265.18,-125.17C1315.02,-119.36 1390.52,-107.1 1408,-85 1444.58,-38.75 1337.41,-23.22 1277.86,-18.23"/>
<polygon fill="#63b8ff" stroke="#63b8ff" points="1278.39,-14.76 1268.15,-17.48 1277.86,-21.74 1278.39,-14.76"/>
</g>
<!-- Node35 -->
<g id="node35" class="node">
<title>Node35</title>
<g id="a_node35"><a xlink:title=" ">
<polygon fill="#e0e0e0" stroke="#999999" points="1399,-85 1339,-85 1339,-66 1399,-66 1399,-85"/>
<text text-anchor="middle" x="1369" y="-73" font-family="Helvetica,sans-Serif" font-size="10.00">filesystem</text>
</a>
</g>
</g>
<!-- Node34&#45;&gt;Node35 -->
<g id="edge42" class="edge">
<title>Node34&#45;&gt;Node35</title>
<path fill="none" stroke="#63b8ff" d="M1245.28,-120.51C1269.5,-111.89 1306.3,-98.8 1333.47,-89.14"/>
<polygon fill="#63b8ff" stroke="#63b8ff" points="1334.42,-92.51 1342.67,-85.87 1332.08,-85.92 1334.42,-92.51"/>
</g>
<!-- Node36 -->
<g id="node36" class="node">
<title>Node36</title>
<g id="a_node36"><a xlink:title=" ">
<polygon fill="#e0e0e0" stroke="#999999" points="1543,-85 1493,-85 1493,-66 1543,-66 1543,-85"/>
<text text-anchor="middle" x="1518" y="-73" font-family="Helvetica,sans-Serif" font-size="10.00">fstream</text>
</a>
</g>
</g>
<!-- Node34&#45;&gt;Node36 -->
<g id="edge43" class="edge">
<title>Node34&#45;&gt;Node36</title>
<path fill="none" stroke="#63b8ff" d="M1265.49,-122.31C1317.31,-113.98 1404.44,-99.52 1479,-85 1479.98,-84.81 1480.98,-84.61 1481.98,-84.41"/>
<polygon fill="#63b8ff" stroke="#63b8ff" points="1482.3,-87.92 1491.38,-82.46 1480.87,-81.07 1482.3,-87.92"/>
</g>
<!-- Node37 -->
<g id="node37" class="node">
<title>Node37</title>
<g id="a_node37"><a xlink:title=" ">
<polygon fill="#e0e0e0" stroke="#999999" points="1604.5,-85 1561.5,-85 1561.5,-66 1604.5,-66 1604.5,-85"/>
<text text-anchor="middle" x="1583" y="-73" font-family="Helvetica,sans-Serif" font-size="10.00">fcntl.h</text>
</a>
</g>
</g>
<!-- Node34&#45;&gt;Node37 -->
<g id="edge48" class="edge">
<title>Node34&#45;&gt;Node37</title>
<path fill="none" stroke="#63b8ff" d="M1265.43,-125.36C1327.54,-119.28 1442.59,-106.49 1550.03,-85.14"/>
<polygon fill="#63b8ff" stroke="#63b8ff" points="1550.48,-88.62 1559.59,-83.2 1549.09,-81.75 1550.48,-88.62"/>
</g>
<!-- Node38 -->
<g id="node38" class="node">
<title>Node38</title>
<g id="a_node38"><a xlink:title=" ">
<polygon fill="#e0e0e0" stroke="#999999" points="1691.5,-85 1622.5,-85 1622.5,-66 1691.5,-66 1691.5,-85"/>
<text text-anchor="middle" x="1657" y="-73" font-family="Helvetica,sans-Serif" font-size="10.00">sys/mman.h</text>
</a>
</g>
</g>
<!-- Node34&#45;&gt;Node38 -->
<g id="edge49" class="edge">
<title>Node34&#45;&gt;Node38</title>
<path fill="none" stroke="#63b8ff" d="M1265.37,-125.61C1336.83,-119.2 1480.21,-105.27 1611.29,-85.31"/>
<polygon fill="#63b8ff" stroke="#63b8ff" points="1611.46,-88.83 1620.81,-83.84 1610.4,-81.91 1611.46,-88.83"/>
</g>
<!-- Node39 -->
<g id="node39" class="node">
<title>Node39</title>
<g id="a_node39"><a xlink:title=" ">
<polygon fill="#e0e0e0" stroke="#999999" points="1169.5,-85 1110.5,-85 1110.5,-66 1169.5,-66 1169.5,-85"/>
<text text-anchor="middle" x="1140" y="-73" font-family="Helvetica,sans-Serif" font-size="10.00">sys/stat.h</text>
</a>
</g>
</g>
<!-- Node34&#45;&gt;Node39 -->
<g id="edge50" class="edge">
<title>Node34&#45;&gt;Node39</title>
<path fill="none" stroke="#63b8ff" d="M1206.43,-120.51C1194.52,-112.62 1176.95,-100.98 1162.87,-91.65"/>
<polygon fill="#63b8ff" stroke="#63b8ff" points="1164.9,-88.8 1154.63,-86.19 1161.04,-94.63 1164.9,-88.8"/>
</g>
<!-- Node40 -->
<g id="node40" class="node">
<title>Node40</title>
<g id="a_node40"><a xlink:title=" ">
<polygon fill="#e0e0e0" stroke="#999999" points="1252.5,-85 1187.5,-85 1187.5,-66 1252.5,-66 1252.5,-85"/>
<text text-anchor="middle" x="1220" y="-73" font-family="Helvetica,sans-Serif" font-size="10.00">sys/types.h</text>
</a>
</g>
</g>
<!-- Node34&#45;&gt;Node40 -->
<g id="edge51" class="edge">
<title>Node34&#45;&gt;Node40</title>
<path fill="none" stroke="#63b8ff" d="M1220,-120.75C1220,-114.27 1220,-105.16 1220,-96.9"/>
<polygon fill="#63b8ff" stroke="#63b8ff" points="1223.5,-96.96 1220,-86.96 1216.5,-96.96 1223.5,-96.96"/>
</g>
<!-- Node41 -->
<g id="node41" class="node">
<title>Node41</title>
<g id="a_node41"><a xlink:title=" ">
<polygon fill="#e0e0e0" stroke="#999999" points="1321,-85 1271,-85 1271,-66 1321,-66 1321,-85"/>
<text text-anchor="middle" x="1296" y="-73" font-family="Helvetica,sans-Serif" font-size="10.00">unistd.h</text>
</a>
</g>
</g>
<!-- Node34&#45;&gt;Node41 -->
<g id="edge52" class="edge">
<title>Node34&#45;&gt;Node41</title>
<path fill="none" stroke="#63b8ff" d="M1232.89,-120.51C1244.1,-112.7 1260.57,-101.21 1273.88,-91.93"/>
<polygon fill="#63b8ff" stroke="#63b8ff" points="1275.86,-94.81 1282.06,-86.22 1271.85,-89.07 1275.86,-94.81"/>
</g>
<!-- Node42&#45;&gt;Node24 -->
<g id="edge57" class="edge">
<title>Node42&#45;&gt;Node24</title>
<path fill="none" stroke="#63b8ff" d="M922,-236.37C922,-228.5 922,-216.6 922,-206.39"/>
<polygon fill="#63b8ff" stroke="#63b8ff" points="925.5,-206.68 922,-196.68 918.5,-206.68 925.5,-206.68"/>
</g>
<!-- Node42&#45;&gt;Node33 -->
<g id="edge58" class="edge">
<title>Node42&#45;&gt;Node33</title>
<path fill="none" stroke="#63b8ff" d="M940.68,-236.12C960.64,-226.62 992.54,-211.45 1015.82,-200.38"/>
<polygon fill="#63b8ff" stroke="#63b8ff" points="1017.25,-203.57 1024.78,-196.12 1014.24,-197.25 1017.25,-203.57"/>
</g>
</g>
</svg>
