<?xml version="1.0" encoding="UTF-8" standalone="no"?>
<!DOCTYPE svg PUBLIC "-//W3C//DTD SVG 1.1//EN"
 "http://www.w3.org/Graphics/SVG/1.1/DTD/svg11.dtd">
<!-- Generated by graphviz version 7.0.5 (20221223.1930)
 -->
<!-- Title: DataHandlerSync.cpp Pages: 1 -->
<!--zoomable 489 -->
<svg id="main" version="1.1" xmlns="http://www.w3.org/2000/svg" xmlns:xlink="http://www.w3.org/1999/xlink" xml:space="preserve" onload="init(evt)">
<style type="text/css"><![CDATA[
.edge:hover path { stroke: red; }
.edge:hover polygon { stroke: red; fill: red; }
]]></style>
<script type="text/javascript"><![CDATA[
var edges = document.getElementsByTagName('g');
if (edges && edges.length) {
  for (var i=0;i<edges.length;i++) {
    if (edges[i].id.substr(0,4)=='edge') {
      edges[i].setAttribute('class','edge');
    }
  }
}
]]></script>
        <defs>
                <circle id="rim" cx="0" cy="0" r="7"/>
                <circle id="rim2" cx="0" cy="0" r="3.5"/>
                <g id="zoomPlus">
                        <use xlink:href="#rim" fill="#404040">
                                <set attributeName="fill" to="#808080" begin="zoomplus.mouseover" end="zoomplus.mouseout"/>
                        </use>
                        <path d="M-4,0h8M0,-4v8" fill="none" stroke="white" stroke-width="1.5" pointer-events="none"/>
                </g>
                <g id="zoomMin">
                        <use xlink:href="#rim" fill="#404040">
                                <set attributeName="fill" to="#808080" begin="zoomminus.mouseover" end="zoomminus.mouseout"/>
                        </use>
                        <path d="M-4,0h8" fill="none" stroke="white" stroke-width="1.5" pointer-events="none"/>
                </g>
                <g id="dirArrow">
                        <path fill="none" stroke="white" stroke-width="1.5" d="M0,-3.0v7 M-2.5,-0.5L0,-3.0L2.5,-0.5"/>
                </g>
               <g id="resetDef">
                       <use xlink:href="#rim2" fill="#404040">
                               <set attributeName="fill" to="#808080" begin="reset.mouseover" end="reset.mouseout"/>
                       </use>
               </g>
        </defs>

<script type="text/javascript">
var viewWidth = 1949;
var viewHeight = 489;
var sectionId = 'dynsection-0';
</script>
<script xlink:href="svgpan.js"/>
<svg id="graph" class="graph">
<g id="viewport">
<title>DataHandlerSync.cpp</title>
<!-- Node1 -->
<g id="node1" class="node">
<title>Node1</title>
<g id="a_node1"><a xlink:title=" ">
<polygon fill="#999999" stroke="#666666" points="187,-481 77,-481 77,-462 187,-462 187,-481"/>
<text text-anchor="middle" x="132" y="-469" font-family="Helvetica,sans-Serif" font-size="10.00">DataHandlerSync.cpp</text>
</a>
</g>
</g>
<!-- Node2 -->
<g id="node2" class="node">
<title>Node2</title>
<g id="a_node2"><a xlink:href="_data_handler_sync_8hpp.html" target="_top" xlink:title=" ">
<polygon fill="white" stroke="#666666" points="204.5,-426 59.5,-426 59.5,-407 204.5,-407 204.5,-426"/>
<text text-anchor="middle" x="132" y="-414" font-family="Helvetica,sans-Serif" font-size="10.00">udmaio/DataHandlerSync.hpp</text>
</a>
</g>
</g>
<!-- Node1&#45;&gt;Node2 -->
<g id="edge1" class="edge">
<title>Node1&#45;&gt;Node2</title>
<path fill="none" stroke="#63b8ff" d="M132,-461.75C132,-455.27 132,-446.16 132,-437.9"/>
<polygon fill="#63b8ff" stroke="#63b8ff" points="135.5,-437.96 132,-427.96 128.5,-437.96 135.5,-437.96"/>
</g>
<!-- Node3 -->
<g id="node3" class="node">
<title>Node3</title>
<g id="a_node3"><a xlink:title=" ">
<polygon fill="#e0e0e0" stroke="#999999" points="63,-371 13,-371 13,-352 63,-352 63,-371"/>
<text text-anchor="middle" x="38" y="-359" font-family="Helvetica,sans-Serif" font-size="10.00">optional</text>
</a>
</g>
</g>
<!-- Node2&#45;&gt;Node3 -->
<g id="edge2" class="edge">
<title>Node2&#45;&gt;Node3</title>
<path fill="none" stroke="#63b8ff" d="M116.05,-406.51C101.65,-398.39 80.21,-386.3 63.44,-376.85"/>
<polygon fill="#63b8ff" stroke="#63b8ff" points="65.46,-373.96 55.03,-372.1 62.02,-380.06 65.46,-373.96"/>
</g>
<!-- Node4 -->
<g id="node4" class="node">
<title>Node4</title>
<g id="a_node4"><a xlink:title=" ">
<polygon fill="#e0e0e0" stroke="#999999" points="44,-310.5 0,-310.5 0,-291.5 44,-291.5 44,-310.5"/>
<text text-anchor="middle" x="22" y="-298.5" font-family="Helvetica,sans-Serif" font-size="10.00">thread</text>
</a>
</g>
</g>
<!-- Node2&#45;&gt;Node4 -->
<g id="edge3" class="edge">
<title>Node2&#45;&gt;Node4</title>
<path fill="none" stroke="#63b8ff" d="M123.92,-406.8C112.47,-394.5 90.82,-371.36 72,-352 61.12,-340.81 48.72,-328.41 38.99,-318.76"/>
<polygon fill="#63b8ff" stroke="#63b8ff" points="41.57,-316.39 32,-311.84 36.65,-321.36 41.57,-316.39"/>
</g>
<!-- Node5 -->
<g id="node5" class="node">
<title>Node5</title>
<g id="a_node5"><a xlink:href="_concurrent_queue_8hpp.html" target="_top" xlink:title=" ">
<polygon fill="white" stroke="#666666" points="229,-371 119,-371 119,-352 229,-352 229,-371"/>
<text text-anchor="middle" x="174" y="-359" font-family="Helvetica,sans-Serif" font-size="10.00">ConcurrentQueue.hpp</text>
</a>
</g>
</g>
<!-- Node2&#45;&gt;Node5 -->
<g id="edge4" class="edge">
<title>Node2&#45;&gt;Node5</title>
<path fill="none" stroke="#63b8ff" d="M138.94,-406.75C144.62,-399.58 152.84,-389.2 159.89,-380.3"/>
<polygon fill="#63b8ff" stroke="#63b8ff" points="162.51,-382.64 165.97,-372.63 157.02,-378.29 162.51,-382.64"/>
</g>
<!-- Node10 -->
<g id="node10" class="node">
<title>Node10</title>
<g id="a_node10"><a xlink:href="_data_handler_abstract_8hpp.html" target="_top" xlink:title=" ">
<polygon fill="white" stroke="#666666" points="1051.5,-371 926.5,-371 926.5,-352 1051.5,-352 1051.5,-371"/>
<text text-anchor="middle" x="989" y="-359" font-family="Helvetica,sans-Serif" font-size="10.00">DataHandlerAbstract.hpp</text>
</a>
</g>
</g>
<!-- Node2&#45;&gt;Node10 -->
<g id="edge10" class="edge">
<title>Node2&#45;&gt;Node10</title>
<path fill="none" stroke="#63b8ff" d="M204.7,-411C365.93,-401.03 752.04,-377.15 914.73,-367.09"/>
<polygon fill="#63b8ff" stroke="#63b8ff" points="914.77,-370.6 924.54,-366.49 914.34,-363.61 914.77,-370.6"/>
</g>
<!-- Node5&#45;&gt;Node4 -->
<g id="edge9" class="edge">
<title>Node5&#45;&gt;Node4</title>
<path fill="none" stroke="#63b8ff" d="M148.3,-351.65C123.67,-343.03 85.52,-329.3 53,-316 52.52,-315.8 52.04,-315.61 51.56,-315.4"/>
<polygon fill="#63b8ff" stroke="#63b8ff" points="53.21,-312.31 42.64,-311.55 50.44,-318.73 53.21,-312.31"/>
</g>
<!-- Node6 -->
<g id="node6" class="node">
<title>Node6</title>
<g id="a_node6"><a xlink:title=" ">
<polygon fill="#e0e0e0" stroke="#999999" points="108,-310.5 62,-310.5 62,-291.5 108,-291.5 108,-310.5"/>
<text text-anchor="middle" x="85" y="-298.5" font-family="Helvetica,sans-Serif" font-size="10.00">chrono</text>
</a>
</g>
</g>
<!-- Node5&#45;&gt;Node6 -->
<g id="edge5" class="edge">
<title>Node5&#45;&gt;Node6</title>
<path fill="none" stroke="#63b8ff" d="M160.48,-351.62C146.63,-342.51 124.82,-328.18 108.2,-317.25"/>
<polygon fill="#63b8ff" stroke="#63b8ff" points="110.19,-314.37 99.91,-311.8 106.34,-320.22 110.19,-314.37"/>
</g>
<!-- Node7 -->
<g id="node7" class="node">
<title>Node7</title>
<g id="a_node7"><a xlink:title=" ">
<polygon fill="#e0e0e0" stroke="#999999" points="221.5,-310.5 126.5,-310.5 126.5,-291.5 221.5,-291.5 221.5,-310.5"/>
<text text-anchor="middle" x="174" y="-298.5" font-family="Helvetica,sans-Serif" font-size="10.00">condition_variable</text>
</a>
</g>
</g>
<!-- Node5&#45;&gt;Node7 -->
<g id="edge6" class="edge">
<title>Node5&#45;&gt;Node7</title>
<path fill="none" stroke="#63b8ff" d="M174,-351.87C174,-344 174,-332.1 174,-321.89"/>
<polygon fill="#63b8ff" stroke="#63b8ff" points="177.5,-322.18 174,-312.18 170.5,-322.18 177.5,-322.18"/>
</g>
<!-- Node8 -->
<g id="node8" class="node">
<title>Node8</title>
<g id="a_node8"><a xlink:title=" ">
<polygon fill="#e0e0e0" stroke="#999999" points="282.5,-310.5 239.5,-310.5 239.5,-291.5 282.5,-291.5 282.5,-310.5"/>
<text text-anchor="middle" x="261" y="-298.5" font-family="Helvetica,sans-Serif" font-size="10.00">mutex</text>
</a>
</g>
</g>
<!-- Node5&#45;&gt;Node8 -->
<g id="edge7" class="edge">
<title>Node5&#45;&gt;Node8</title>
<path fill="none" stroke="#63b8ff" d="M187.21,-351.62C200.75,-342.51 222.07,-328.18 238.32,-317.25"/>
<polygon fill="#63b8ff" stroke="#63b8ff" points="240.06,-320.3 246.41,-311.81 236.15,-314.49 240.06,-320.3"/>
</g>
<!-- Node9 -->
<g id="node9" class="node">
<title>Node9</title>
<g id="a_node9"><a xlink:title=" ">
<polygon fill="#e0e0e0" stroke="#999999" points="343.5,-310.5 300.5,-310.5 300.5,-291.5 343.5,-291.5 343.5,-310.5"/>
<text text-anchor="middle" x="322" y="-298.5" font-family="Helvetica,sans-Serif" font-size="10.00">queue</text>
</a>
</g>
</g>
<!-- Node5&#45;&gt;Node9 -->
<g id="edge8" class="edge">
<title>Node5&#45;&gt;Node9</title>
<path fill="none" stroke="#63b8ff" d="M198.82,-351.56C222.63,-342.86 259.49,-329.09 291,-316 291.48,-315.8 291.96,-315.6 292.44,-315.4"/>
<polygon fill="#63b8ff" stroke="#63b8ff" points="293.57,-318.72 301.34,-311.52 290.78,-312.3 293.57,-318.72"/>
</g>
<!-- Node11 -->
<g id="node11" class="node">
<title>Node11</title>
<g id="a_node11"><a xlink:title=" ">
<polygon fill="#e0e0e0" stroke="#999999" points="1013.5,-24.5 972.5,-24.5 972.5,-5.5 1013.5,-5.5 1013.5,-24.5"/>
<text text-anchor="middle" x="993" y="-12.5" font-family="Helvetica,sans-Serif" font-size="10.00">string</text>
</a>
</g>
</g>
<!-- Node10&#45;&gt;Node11 -->
<g id="edge11" class="edge">
<title>Node10&#45;&gt;Node11</title>
<path fill="none" stroke="#63b8ff" d="M991.58,-351.89C996.32,-337.14 1007.57,-306.63 1025,-286 1127.84,-164.32 1413.36,-185.5 1308,-66 1265.78,-18.12 1084.33,-47.71 1023,-30 1022.03,-29.72 1021.06,-29.41 1020.08,-29.09"/>
<polygon fill="#63b8ff" stroke="#63b8ff" points="1021.77,-25.99 1011.18,-25.51 1019.16,-32.49 1021.77,-25.99"/>
</g>
<!-- Node12 -->
<g id="node12" class="node">
<title>Node12</title>
<g id="a_node12"><a xlink:title=" ">
<polygon fill="#e0e0e0" stroke="#999999" points="444,-195 400,-195 400,-176 444,-176 444,-195"/>
<text text-anchor="middle" x="422" y="-183" font-family="Helvetica,sans-Serif" font-size="10.00">vector</text>
</a>
</g>
</g>
<!-- Node10&#45;&gt;Node12 -->
<g id="edge12" class="edge">
<title>Node10&#45;&gt;Node12</title>
<path fill="none" stroke="#63b8ff" d="M926.13,-359.27C825.79,-354.69 626.3,-334.66 484,-250 464.2,-238.22 446.38,-218.54 434.98,-204.21"/>
<polygon fill="#63b8ff" stroke="#63b8ff" points="437.95,-202.32 429.09,-196.51 432.39,-206.58 437.95,-202.32"/>
</g>
<!-- Node13 -->
<g id="node13" class="node">
<title>Node13</title>
<g id="a_node13"><a xlink:title=" ">
<polygon fill="#e0e0e0" stroke="#999999" points="1209,-310.5 1129,-310.5 1129,-291.5 1209,-291.5 1209,-310.5"/>
<text text-anchor="middle" x="1169" y="-298.5" font-family="Helvetica,sans-Serif" font-size="10.00">boost/asio.hpp</text>
</a>
</g>
</g>
<!-- Node10&#45;&gt;Node13 -->
<g id="edge13" class="edge">
<title>Node10&#45;&gt;Node13</title>
<path fill="none" stroke="#63b8ff" d="M1016.34,-351.62C1046.87,-341.69 1096.49,-325.57 1130.83,-314.4"/>
<polygon fill="#63b8ff" stroke="#63b8ff" points="1131.54,-317.86 1139.97,-311.44 1129.37,-311.2 1131.54,-317.86"/>
</g>
<!-- Node14 -->
<g id="node14" class="node">
<title>Node14</title>
<g id="a_node14"><a xlink:title=" ">
<polygon fill="#e0e0e0" stroke="#999999" points="440.5,-85 303.5,-85 303.5,-66 440.5,-66 440.5,-85"/>
<text text-anchor="middle" x="372" y="-73" font-family="Helvetica,sans-Serif" font-size="10.00">boost/core/noncopyable.hpp</text>
</a>
</g>
</g>
<!-- Node10&#45;&gt;Node14 -->
<g id="edge14" class="edge">
<title>Node10&#45;&gt;Node14</title>
<path fill="none" stroke="#63b8ff" d="M926.07,-359.28C841.81,-356.45 688.18,-347.06 561,-316 473.29,-294.58 372,-331.79 372,-241.5 372,-241.5 372,-241.5 372,-184.5 372,-153.92 372,-118.48 372,-96.77"/>
<polygon fill="#63b8ff" stroke="#63b8ff" points="375.5,-96.97 372,-86.97 368.5,-96.97 375.5,-96.97"/>
</g>
<!-- Node15 -->
<g id="node15" class="node">
<title>Node15</title>
<g id="a_node15"><a xlink:href="_logging_8hpp.html" target="_top" xlink:title=" ">
<polygon fill="white" stroke="#666666" points="1447.5,-85 1378.5,-85 1378.5,-66 1447.5,-66 1447.5,-85"/>
<text text-anchor="middle" x="1413" y="-73" font-family="Helvetica,sans-Serif" font-size="10.00">Logging.hpp</text>
</a>
</g>
</g>
<!-- Node10&#45;&gt;Node15 -->
<g id="edge15" class="edge">
<title>Node10&#45;&gt;Node15</title>
<path fill="none" stroke="#63b8ff" d="M1051.97,-356.96C1141.99,-351.2 1302.49,-338.17 1356,-316 1405.57,-295.46 1451,-295.16 1451,-241.5 1451,-241.5 1451,-241.5 1451,-184.5 1451,-151.65 1435.16,-116.19 1423.93,-95.19"/>
<polygon fill="#63b8ff" stroke="#63b8ff" points="1427.12,-93.72 1419.18,-86.69 1421,-97.13 1427.12,-93.72"/>
</g>
<!-- Node23 -->
<g id="node23" class="node">
<title>Node23</title>
<g id="a_node23"><a xlink:href="_u_dma_buf_8hpp.html" target="_top" xlink:title=" ">
<polygon fill="white" stroke="#666666" points="1110.5,-310.5 1033.5,-310.5 1033.5,-291.5 1110.5,-291.5 1110.5,-310.5"/>
<text text-anchor="middle" x="1072" y="-298.5" font-family="Helvetica,sans-Serif" font-size="10.00">UDmaBuf.hpp</text>
</a>
</g>
</g>
<!-- Node10&#45;&gt;Node23 -->
<g id="edge24" class="edge">
<title>Node10&#45;&gt;Node23</title>
<path fill="none" stroke="#63b8ff" d="M1001.61,-351.62C1014.4,-342.6 1034.48,-328.45 1049.92,-317.56"/>
<polygon fill="#63b8ff" stroke="#63b8ff" points="1051.88,-320.46 1058.04,-311.84 1047.85,-314.74 1051.88,-320.46"/>
</g>
<!-- Node31 -->
<g id="node31" class="node">
<title>Node31</title>
<g id="a_node31"><a xlink:href="_uio_axi_dma_if_8hpp.html" target="_top" xlink:title=" ">
<polygon fill="white" stroke="#666666" points="958.5,-310.5 869.5,-310.5 869.5,-291.5 958.5,-291.5 958.5,-310.5"/>
<text text-anchor="middle" x="914" y="-298.5" font-family="Helvetica,sans-Serif" font-size="10.00">UioAxiDmaIf.hpp</text>
</a>
</g>
</g>
<!-- Node10&#45;&gt;Node31 -->
<g id="edge36" class="edge">
<title>Node10&#45;&gt;Node31</title>
<path fill="none" stroke="#63b8ff" d="M977.61,-351.62C966.16,-342.68 948.25,-328.72 934.35,-317.87"/>
<polygon fill="#63b8ff" stroke="#63b8ff" points="936.73,-315.29 926.69,-311.9 932.42,-320.81 936.73,-315.29"/>
</g>
<!-- Node43 -->
<g id="node43" class="node">
<title>Node43</title>
<g id="a_node43"><a xlink:href="_uio_mem_sgdma_8hpp.html" target="_top" xlink:title=" ">
<polygon fill="white" stroke="#666666" points="828,-310.5 726,-310.5 726,-291.5 828,-291.5 828,-310.5"/>
<text text-anchor="middle" x="777" y="-298.5" font-family="Helvetica,sans-Serif" font-size="10.00">UioMemSgdma.hpp</text>
</a>
</g>
</g>
<!-- Node10&#45;&gt;Node43 -->
<g id="edge70" class="edge">
<title>Node10&#45;&gt;Node43</title>
<path fill="none" stroke="#63b8ff" d="M956.8,-351.62C920.38,-341.56 860.88,-325.15 820.38,-313.97"/>
<polygon fill="#63b8ff" stroke="#63b8ff" points="821.53,-310.66 810.96,-311.37 819.67,-317.41 821.53,-310.66"/>
</g>
<!-- Node44 -->
<g id="node44" class="node">
<title>Node44</title>
<g id="a_node44"><a xlink:title=" ">
<polygon fill="#e0e0e0" stroke="#999999" points="1347,-316 1227,-316 1227,-286 1347,-286 1347,-316"/>
<text text-anchor="start" x="1235" y="-304" font-family="Helvetica,sans-Serif" font-size="10.00">boost/asio/posix/stream</text>
<text text-anchor="middle" x="1287" y="-293" font-family="Helvetica,sans-Serif" font-size="10.00">_descriptor.hpp</text>
</a>
</g>
</g>
<!-- Node10&#45;&gt;Node44 -->
<g id="edge73" class="edge">
<title>Node10&#45;&gt;Node44</title>
<path fill="none" stroke="#63b8ff" d="M1035.51,-351.58C1079.45,-343.12 1147.49,-329.97 1215.83,-316.42"/>
<polygon fill="#63b8ff" stroke="#63b8ff" points="1216.18,-319.92 1225.31,-314.54 1214.82,-313.05 1216.18,-319.92"/>
</g>
<!-- Node15&#45;&gt;Node11 -->
<g id="edge16" class="edge">
<title>Node15&#45;&gt;Node11</title>
<path fill="none" stroke="#63b8ff" d="M1378.25,-68.18C1373.47,-67.39 1368.62,-66.64 1364,-66 1213.06,-44.96 1169.84,-70.78 1023,-30 1022.01,-29.72 1021.01,-29.42 1020,-29.09"/>
<polygon fill="#63b8ff" stroke="#63b8ff" points="1021.43,-25.89 1010.85,-25.43 1018.83,-32.39 1021.43,-25.89"/>
</g>
<!-- Node16 -->
<g id="node16" class="node">
<title>Node16</title>
<g id="a_node16"><a xlink:title=" ">
<polygon fill="#e0e0e0" stroke="#999999" points="1793,-24.5 1697,-24.5 1697,-5.5 1793,-5.5 1793,-24.5"/>
<text text-anchor="middle" x="1745" y="-12.5" font-family="Helvetica,sans-Serif" font-size="10.00">boost/log/core.hpp</text>
</a>
</g>
</g>
<!-- Node15&#45;&gt;Node16 -->
<g id="edge17" class="edge">
<title>Node15&#45;&gt;Node16</title>
<path fill="none" stroke="#63b8ff" d="M1447.89,-69.77C1500.27,-62.47 1602.22,-47.45 1688,-30 1691.76,-29.24 1695.64,-28.39 1699.54,-27.51"/>
<polygon fill="#63b8ff" stroke="#63b8ff" points="1700.02,-30.99 1708.96,-25.31 1698.43,-24.18 1700.02,-30.99"/>
</g>
<!-- Node17 -->
<g id="node17" class="node">
<title>Node17</title>
<g id="a_node17"><a xlink:title=" ">
<polygon fill="#e0e0e0" stroke="#999999" points="1940.5,-24.5 1811.5,-24.5 1811.5,-5.5 1940.5,-5.5 1940.5,-24.5"/>
<text text-anchor="middle" x="1876" y="-12.5" font-family="Helvetica,sans-Serif" font-size="10.00">boost/log/expressions.hpp</text>
</a>
</g>
</g>
<!-- Node15&#45;&gt;Node17 -->
<g id="edge18" class="edge">
<title>Node15&#45;&gt;Node17</title>
<path fill="none" stroke="#63b8ff" d="M1447.98,-71.36C1516.26,-65.05 1671.95,-49.71 1802,-30 1807.98,-29.09 1814.21,-28.06 1820.41,-26.97"/>
<polygon fill="#63b8ff" stroke="#63b8ff" points="1820.77,-30.46 1829.99,-25.24 1819.53,-23.57 1820.77,-30.46"/>
</g>
<!-- Node18 -->
<g id="node18" class="node">
<title>Node18</title>
<g id="a_node18"><a xlink:title=" ">
<polygon fill="#e0e0e0" stroke="#999999" points="1132.5,-24.5 1031.5,-24.5 1031.5,-5.5 1132.5,-5.5 1132.5,-24.5"/>
<text text-anchor="middle" x="1082" y="-12.5" font-family="Helvetica,sans-Serif" font-size="10.00">boost/log/trivial.hpp</text>
</a>
</g>
</g>
<!-- Node15&#45;&gt;Node18 -->
<g id="edge19" class="edge">
<title>Node15&#45;&gt;Node18</title>
<path fill="none" stroke="#63b8ff" d="M1378.21,-68.42C1373.44,-67.6 1368.6,-66.77 1364,-66 1265.42,-49.46 1240.06,-49.37 1142,-30 1137.99,-29.21 1133.83,-28.34 1129.67,-27.44"/>
<polygon fill="#63b8ff" stroke="#63b8ff" points="1130.72,-24.08 1120.2,-25.32 1129.19,-30.92 1130.72,-24.08"/>
</g>
<!-- Node19 -->
<g id="node19" class="node">
<title>Node19</title>
<g id="a_node19"><a xlink:title=" ">
<polygon fill="#e0e0e0" stroke="#999999" points="1259.5,-30 1150.5,-30 1150.5,0 1259.5,0 1259.5,-30"/>
<text text-anchor="start" x="1158.5" y="-18" font-family="Helvetica,sans-Serif" font-size="10.00">boost/log/utility/setup</text>
<text text-anchor="middle" x="1205" y="-7" font-family="Helvetica,sans-Serif" font-size="10.00">/console.hpp</text>
</a>
</g>
</g>
<!-- Node15&#45;&gt;Node19 -->
<g id="edge20" class="edge">
<title>Node15&#45;&gt;Node19</title>
<path fill="none" stroke="#63b8ff" d="M1381.41,-65.62C1351.21,-57.12 1304.83,-44.08 1267.2,-33.49"/>
<polygon fill="#63b8ff" stroke="#63b8ff" points="1268.37,-30.19 1257.8,-30.85 1266.48,-36.93 1268.37,-30.19"/>
</g>
<!-- Node20 -->
<g id="node20" class="node">
<title>Node20</title>
<g id="a_node20"><a xlink:title=" ">
<polygon fill="#e0e0e0" stroke="#999999" points="1408.5,-30 1277.5,-30 1277.5,0 1408.5,0 1408.5,-30"/>
<text text-anchor="start" x="1285.5" y="-18" font-family="Helvetica,sans-Serif" font-size="10.00">boost/log/sources/severity</text>
<text text-anchor="middle" x="1343" y="-7" font-family="Helvetica,sans-Serif" font-size="10.00">_channel_logger.hpp</text>
</a>
</g>
</g>
<!-- Node15&#45;&gt;Node20 -->
<g id="edge21" class="edge">
<title>Node15&#45;&gt;Node20</title>
<path fill="none" stroke="#63b8ff" d="M1402.37,-65.62C1393.47,-58.18 1380.4,-47.25 1368.78,-37.55"/>
<polygon fill="#63b8ff" stroke="#63b8ff" points="1371.36,-35.14 1361.44,-31.41 1366.87,-40.51 1371.36,-35.14"/>
</g>
<!-- Node21 -->
<g id="node21" class="node">
<title>Node21</title>
<g id="a_node21"><a xlink:title=" ">
<polygon fill="#e0e0e0" stroke="#999999" points="1539.5,-30 1426.5,-30 1426.5,0 1539.5,0 1539.5,-30"/>
<text text-anchor="start" x="1434.5" y="-18" font-family="Helvetica,sans-Serif" font-size="10.00">boost/log/support/date</text>
<text text-anchor="middle" x="1483" y="-7" font-family="Helvetica,sans-Serif" font-size="10.00">_time.hpp</text>
</a>
</g>
</g>
<!-- Node15&#45;&gt;Node21 -->
<g id="edge22" class="edge">
<title>Node15&#45;&gt;Node21</title>
<path fill="none" stroke="#63b8ff" d="M1423.63,-65.62C1432.53,-58.18 1445.6,-47.25 1457.22,-37.55"/>
<polygon fill="#63b8ff" stroke="#63b8ff" points="1459.13,-40.51 1464.56,-31.41 1454.64,-35.14 1459.13,-40.51"/>
</g>
<!-- Node22 -->
<g id="node22" class="node">
<title>Node22</title>
<g id="a_node22"><a xlink:title=" ">
<polygon fill="#e0e0e0" stroke="#999999" points="1678.5,-30 1557.5,-30 1557.5,0 1678.5,0 1678.5,-30"/>
<text text-anchor="start" x="1565.5" y="-18" font-family="Helvetica,sans-Serif" font-size="10.00">boost/log/utility/setup</text>
<text text-anchor="middle" x="1618" y="-7" font-family="Helvetica,sans-Serif" font-size="10.00">/common_attributes.hpp</text>
</a>
</g>
</g>
<!-- Node15&#45;&gt;Node22 -->
<g id="edge23" class="edge">
<title>Node15&#45;&gt;Node22</title>
<path fill="none" stroke="#63b8ff" d="M1444.14,-65.62C1473.9,-57.12 1519.61,-44.08 1556.69,-33.49"/>
<polygon fill="#63b8ff" stroke="#63b8ff" points="1557.29,-36.96 1565.94,-30.85 1555.37,-30.23 1557.29,-36.96"/>
</g>
<!-- Node23&#45;&gt;Node15 -->
<g id="edge35" class="edge">
<title>Node23&#45;&gt;Node15</title>
<path fill="none" stroke="#63b8ff" d="M1095.85,-291.11C1136.91,-275.21 1222.75,-239.39 1287,-195 1331.26,-164.43 1375.26,-118.63 1397.71,-93.87"/>
<polygon fill="#63b8ff" stroke="#63b8ff" points="1400.14,-96.4 1404.2,-86.62 1394.92,-91.74 1400.14,-96.4"/>
</g>
<!-- Node24 -->
<g id="node24" class="node">
<title>Node24</title>
<g id="a_node24"><a xlink:href="_dma_buffer_abstract_8hpp.html" target="_top" xlink:title=" ">
<polygon fill="white" stroke="#666666" points="610.5,-250 493.5,-250 493.5,-231 610.5,-231 610.5,-250"/>
<text text-anchor="middle" x="552" y="-238" font-family="Helvetica,sans-Serif" font-size="10.00">DmaBufferAbstract.hpp</text>
</a>
</g>
</g>
<!-- Node23&#45;&gt;Node24 -->
<g id="edge25" class="edge">
<title>Node23&#45;&gt;Node24</title>
<path fill="none" stroke="#63b8ff" d="M1033.02,-294.5C1013.51,-291.81 989.52,-288.6 968,-286 846.61,-271.34 705,-256.72 622.24,-248.42"/>
<polygon fill="#63b8ff" stroke="#63b8ff" points="622.76,-244.96 612.46,-247.45 622.07,-251.92 622.76,-244.96"/>
</g>
<!-- Node24&#45;&gt;Node12 -->
<g id="edge27" class="edge">
<title>Node24&#45;&gt;Node12</title>
<path fill="none" stroke="#63b8ff" d="M529.95,-230.51C509.19,-222.04 477.84,-209.27 454.27,-199.66"/>
<polygon fill="#63b8ff" stroke="#63b8ff" points="455.71,-196.46 445.13,-195.93 453.07,-202.95 455.71,-196.46"/>
</g>
<!-- Node24&#45;&gt;Node14 -->
<g id="edge28" class="edge">
<title>Node24&#45;&gt;Node14</title>
<path fill="none" stroke="#63b8ff" d="M540.17,-230.6C528.65,-221.82 510.79,-207.89 496,-195 456.2,-160.29 412.03,-116.81 388.65,-93.36"/>
<polygon fill="#63b8ff" stroke="#63b8ff" points="391.36,-91.11 381.83,-86.49 386.39,-96.05 391.36,-91.11"/>
</g>
<!-- Node25 -->
<g id="node25" class="node">
<title>Node25</title>
<g id="a_node25"><a xlink:title=" ">
<polygon fill="#e0e0e0" stroke="#999999" points="800,-195 754,-195 754,-176 800,-176 800,-195"/>
<text text-anchor="middle" x="777" y="-183" font-family="Helvetica,sans-Serif" font-size="10.00">cstdint</text>
</a>
</g>
</g>
<!-- Node24&#45;&gt;Node25 -->
<g id="edge26" class="edge">
<title>Node24&#45;&gt;Node25</title>
<path fill="none" stroke="#63b8ff" d="M590.17,-230.51C632.82,-220.46 701.29,-204.34 742.42,-194.64"/>
<polygon fill="#63b8ff" stroke="#63b8ff" points="743.1,-198.08 752.03,-192.38 741.5,-191.27 743.1,-198.08"/>
</g>
<!-- Node26 -->
<g id="node26" class="node">
<title>Node26</title>
<g id="a_node26"><a xlink:href="_uio_config_8hpp.html" target="_top" xlink:title=" ">
<polygon fill="white" stroke="#666666" points="830.5,-85 719.5,-85 719.5,-66 830.5,-66 830.5,-85"/>
<text text-anchor="middle" x="775" y="-73" font-family="Helvetica,sans-Serif" font-size="10.00">udmaio/UioConfig.hpp</text>
</a>
</g>
</g>
<!-- Node24&#45;&gt;Node26 -->
<g id="edge29" class="edge">
<title>Node24&#45;&gt;Node26</title>
<path fill="none" stroke="#63b8ff" d="M564.31,-230.5C600.63,-203.95 707.7,-125.69 753.65,-92.1"/>
<polygon fill="#63b8ff" stroke="#63b8ff" points="755.5,-95.09 761.51,-86.36 751.37,-89.44 755.5,-95.09"/>
</g>
<!-- Node26&#45;&gt;Node11 -->
<g id="edge33" class="edge">
<title>Node26&#45;&gt;Node11</title>
<path fill="none" stroke="#63b8ff" d="M808.11,-65.62C849.61,-54.48 920.25,-35.52 961.15,-24.55"/>
<polygon fill="#63b8ff" stroke="#63b8ff" points="961.88,-27.97 970.63,-22 960.07,-21.21 961.88,-27.97"/>
</g>
<!-- Node27 -->
<g id="node27" class="node">
<title>Node27</title>
<g id="a_node27"><a xlink:title=" ">
<polygon fill="#e0e0e0" stroke="#999999" points="881,-24.5 827,-24.5 827,-5.5 881,-5.5 881,-24.5"/>
<text text-anchor="middle" x="854" y="-12.5" font-family="Helvetica,sans-Serif" font-size="10.00">iostream</text>
</a>
</g>
</g>
<!-- Node26&#45;&gt;Node27 -->
<g id="edge30" class="edge">
<title>Node26&#45;&gt;Node27</title>
<path fill="none" stroke="#63b8ff" d="M787,-65.62C799.18,-56.6 818.29,-42.45 832.98,-31.56"/>
<polygon fill="#63b8ff" stroke="#63b8ff" points="834.72,-34.63 840.67,-25.87 830.55,-29.01 834.72,-34.63"/>
</g>
<!-- Node28 -->
<g id="node28" class="node">
<title>Node28</title>
<g id="a_node28"><a xlink:title=" ">
<polygon fill="#e0e0e0" stroke="#999999" points="646.5,-24.5 595.5,-24.5 595.5,-5.5 646.5,-5.5 646.5,-24.5"/>
<text text-anchor="middle" x="621" y="-12.5" font-family="Helvetica,sans-Serif" font-size="10.00">memory</text>
</a>
</g>
</g>
<!-- Node26&#45;&gt;Node28 -->
<g id="edge31" class="edge">
<title>Node26&#45;&gt;Node28</title>
<path fill="none" stroke="#63b8ff" d="M750.78,-65.63C726.69,-56.76 688.71,-42.66 656,-30 655.22,-29.7 654.43,-29.39 653.64,-29.08"/>
<polygon fill="#63b8ff" stroke="#63b8ff" points="655.18,-25.93 644.6,-25.52 652.62,-32.44 655.18,-25.93"/>
</g>
<!-- Node29 -->
<g id="node29" class="node">
<title>Node29</title>
<g id="a_node29"><a xlink:title=" ">
<polygon fill="#e0e0e0" stroke="#999999" points="808.5,-24.5 749.5,-24.5 749.5,-5.5 808.5,-5.5 808.5,-24.5"/>
<text text-anchor="middle" x="779" y="-12.5" font-family="Helvetica,sans-Serif" font-size="10.00">stdexcept</text>
</a>
</g>
</g>
<!-- Node26&#45;&gt;Node29 -->
<g id="edge32" class="edge">
<title>Node26&#45;&gt;Node29</title>
<path fill="none" stroke="#63b8ff" d="M775.59,-65.87C776.13,-58 776.94,-46.1 777.64,-35.89"/>
<polygon fill="#63b8ff" stroke="#63b8ff" points="781.11,-36.39 778.3,-26.18 774.13,-35.92 781.11,-36.39"/>
</g>
<!-- Node30 -->
<g id="node30" class="node">
<title>Node30</title>
<g id="a_node30"><a xlink:title=" ">
<polygon fill="#e0e0e0" stroke="#999999" points="731,-24.5 665,-24.5 665,-5.5 731,-5.5 731,-24.5"/>
<text text-anchor="middle" x="698" y="-12.5" font-family="Helvetica,sans-Serif" font-size="10.00">string_view</text>
</a>
</g>
</g>
<!-- Node26&#45;&gt;Node30 -->
<g id="edge34" class="edge">
<title>Node26&#45;&gt;Node30</title>
<path fill="none" stroke="#63b8ff" d="M763.31,-65.62C751.55,-56.68 733.16,-42.72 718.89,-31.87"/>
<polygon fill="#63b8ff" stroke="#63b8ff" points="721.09,-29.15 711.01,-25.88 716.86,-34.72 721.09,-29.15"/>
</g>
<!-- Node32 -->
<g id="node32" class="node">
<title>Node32</title>
<g id="a_node32"><a xlink:href="_axi_dma_8hpp.html" target="_top" xlink:title=" ">
<polygon fill="white" stroke="#666666" points="910,-250 842,-250 842,-231 910,-231 910,-250"/>
<text text-anchor="middle" x="876" y="-238" font-family="Helvetica,sans-Serif" font-size="10.00">AxiDma.hpp</text>
</a>
</g>
</g>
<!-- Node31&#45;&gt;Node32 -->
<g id="edge37" class="edge">
<title>Node31&#45;&gt;Node32</title>
<path fill="none" stroke="#63b8ff" d="M908.39,-291.37C903,-283.07 894.69,-270.28 887.84,-259.72"/>
<polygon fill="#63b8ff" stroke="#63b8ff" points="890.84,-257.92 882.45,-251.44 884.97,-261.73 890.84,-257.92"/>
</g>
<!-- Node33 -->
<g id="node33" class="node">
<title>Node33</title>
<g id="a_node33"><a xlink:href="_reg_accessor_8hpp.html" target="_top" xlink:title=" ">
<polygon fill="white" stroke="#666666" points="823.5,-250 730.5,-250 730.5,-231 823.5,-231 823.5,-250"/>
<text text-anchor="middle" x="777" y="-238" font-family="Helvetica,sans-Serif" font-size="10.00">RegAccessor.hpp</text>
</a>
</g>
</g>
<!-- Node31&#45;&gt;Node33 -->
<g id="edge39" class="edge">
<title>Node31&#45;&gt;Node33</title>
<path fill="none" stroke="#63b8ff" d="M893.19,-291.12C870.66,-281.49 834.46,-266.04 808.46,-254.93"/>
<polygon fill="#63b8ff" stroke="#63b8ff" points="809.97,-251.77 799.4,-251.06 807.22,-258.21 809.97,-251.77"/>
</g>
<!-- Node34 -->
<g id="node34" class="node">
<title>Node34</title>
<g id="a_node34"><a xlink:href="_uio_if_8hpp.html" target="_top" xlink:title=" ">
<polygon fill="white" stroke="#666666" points="946,-195 856,-195 856,-176 946,-176 946,-195"/>
<text text-anchor="middle" x="901" y="-183" font-family="Helvetica,sans-Serif" font-size="10.00">udmaio/UioIf.hpp</text>
</a>
</g>
</g>
<!-- Node31&#45;&gt;Node34 -->
<g id="edge69" class="edge">
<title>Node31&#45;&gt;Node34</title>
<path fill="none" stroke="#63b8ff" d="M916.06,-291.42C918.89,-278.28 923.18,-252.46 919,-231 917.33,-222.42 914.01,-213.39 910.66,-205.73"/>
<polygon fill="#63b8ff" stroke="#63b8ff" points="913.86,-204.31 906.43,-196.76 907.53,-207.3 913.86,-204.31"/>
</g>
<!-- Node32&#45;&gt;Node25 -->
<g id="edge38" class="edge">
<title>Node32&#45;&gt;Node25</title>
<path fill="none" stroke="#63b8ff" d="M859.21,-230.51C843.9,-222.31 821.03,-210.07 803.3,-200.58"/>
<polygon fill="#63b8ff" stroke="#63b8ff" points="805.35,-197.71 794.88,-196.07 802.04,-203.88 805.35,-197.71"/>
</g>
<!-- Node33&#45;&gt;Node25 -->
<g id="edge40" class="edge">
<title>Node33&#45;&gt;Node25</title>
<path fill="none" stroke="#63b8ff" d="M777,-230.75C777,-224.27 777,-215.16 777,-206.9"/>
<polygon fill="#63b8ff" stroke="#63b8ff" points="780.5,-206.96 777,-196.96 773.5,-206.96 780.5,-206.96"/>
</g>
<!-- Node33&#45;&gt;Node34 -->
<g id="edge41" class="edge">
<title>Node33&#45;&gt;Node34</title>
<path fill="none" stroke="#63b8ff" d="M798.03,-230.51C817.75,-222.08 847.47,-209.38 869.91,-199.79"/>
<polygon fill="#63b8ff" stroke="#63b8ff" points="871.06,-203.1 878.88,-195.95 868.31,-196.66 871.06,-203.1"/>
</g>
<!-- Node34&#45;&gt;Node11 -->
<g id="edge46" class="edge">
<title>Node34&#45;&gt;Node11</title>
<path fill="none" stroke="#63b8ff" d="M946.18,-180.01C1040.13,-169.64 1251.33,-140.53 1293,-85 1298.07,-78.25 1298.56,-72.35 1293,-66 1253.13,-20.46 1081.1,-46.99 1023,-30 1022.03,-29.72 1021.06,-29.41 1020.08,-29.08"/>
<polygon fill="#63b8ff" stroke="#63b8ff" points="1021.77,-25.98 1011.19,-25.49 1019.15,-32.48 1021.77,-25.98"/>
</g>
<!-- Node34&#45;&gt;Node14 -->
<g id="edge47" class="edge">
<title>Node34&#45;&gt;Node14</title>
<path fill="none" stroke="#63b8ff" d="M855.8,-179.37C778.73,-170.45 625.07,-151.92 572,-140 512.67,-126.67 445.68,-103.73 406.25,-89.38"/>
<polygon fill="#63b8ff" stroke="#63b8ff" points="407.66,-86.17 397.07,-86 405.25,-92.74 407.66,-86.17"/>
</g>
<!-- Node34&#45;&gt;Node15 -->
<g id="edge67" class="edge">
<title>Node34&#45;&gt;Node15</title>
<path fill="none" stroke="#63b8ff" d="M946.26,-182.21C1038.72,-177.11 1246.2,-163.38 1313,-140 1343.75,-129.24 1374.73,-107.49 1393.88,-92.46"/>
<polygon fill="#63b8ff" stroke="#63b8ff" points="1395.99,-95.26 1401.58,-86.26 1391.59,-89.81 1395.99,-95.26"/>
</g>
<!-- Node34&#45;&gt;Node26 -->
<g id="edge68" class="edge">
<title>Node34&#45;&gt;Node26</title>
<path fill="none" stroke="#63b8ff" d="M872.82,-175.54C853.63,-168.33 828.61,-156.64 811,-140 797.9,-127.62 788.25,-109.41 782.25,-95.65"/>
<polygon fill="#63b8ff" stroke="#63b8ff" points="785.66,-94.73 778.65,-86.78 779.17,-97.36 785.66,-94.73"/>
</g>
<!-- Node34&#45;&gt;Node27 -->
<g id="edge44" class="edge">
<title>Node34&#45;&gt;Node27</title>
<path fill="none" stroke="#63b8ff" d="M855.5,-176.9C811.51,-169.14 743.15,-155.97 685,-140 648.95,-130.1 547.69,-115.45 526,-85 521.1,-78.12 520.41,-72.33 526,-66 569.31,-17.02 754.6,-45.97 818,-30 819.63,-29.59 821.28,-29.13 822.93,-28.63"/>
<polygon fill="#63b8ff" stroke="#63b8ff" points="823.99,-31.96 832.3,-25.39 821.7,-25.35 823.99,-31.96"/>
</g>
<!-- Node34&#45;&gt;Node28 -->
<g id="edge45" class="edge">
<title>Node34&#45;&gt;Node28</title>
<path fill="none" stroke="#63b8ff" d="M855.51,-180.17C783.65,-172.93 647.38,-157.42 602,-140 581.34,-132.07 529.47,-104.49 519,-85 502.48,-54.24 548.56,-34.64 584.08,-24.49"/>
<polygon fill="#63b8ff" stroke="#63b8ff" points="584.94,-27.88 593.69,-21.91 583.12,-21.12 584.94,-27.88"/>
</g>
<!-- Node35 -->
<g id="node35" class="node">
<title>Node35</title>
<g id="a_node35"><a xlink:title=" ">
<polygon fill="#e0e0e0" stroke="#999999" points="595,-85 535,-85 535,-66 595,-66 595,-85"/>
<text text-anchor="middle" x="565" y="-73" font-family="Helvetica,sans-Serif" font-size="10.00">filesystem</text>
</a>
</g>
</g>
<!-- Node34&#45;&gt;Node35 -->
<g id="edge42" class="edge">
<title>Node34&#45;&gt;Node35</title>
<path fill="none" stroke="#63b8ff" d="M867.12,-175.58C835.2,-167.01 786.11,-153.42 744,-140 693.04,-123.76 634.79,-102.6 598.95,-89.28"/>
<polygon fill="#63b8ff" stroke="#63b8ff" points="600.59,-86.16 590,-85.94 598.14,-92.72 600.59,-86.16"/>
</g>
<!-- Node36 -->
<g id="node36" class="node">
<title>Node36</title>
<g id="a_node36"><a xlink:title=" ">
<polygon fill="#e0e0e0" stroke="#999999" points="663,-85 613,-85 613,-66 663,-66 663,-85"/>
<text text-anchor="middle" x="638" y="-73" font-family="Helvetica,sans-Serif" font-size="10.00">fstream</text>
</a>
</g>
</g>
<!-- Node34&#45;&gt;Node36 -->
<g id="edge43" class="edge">
<title>Node34&#45;&gt;Node36</title>
<path fill="none" stroke="#63b8ff" d="M878.64,-175.52C856.4,-166.58 821.31,-152.42 791,-140 749.05,-122.81 700.75,-102.71 669.82,-89.81"/>
<polygon fill="#63b8ff" stroke="#63b8ff" points="671.23,-86.6 660.66,-85.98 668.54,-93.06 671.23,-86.6"/>
</g>
<!-- Node37 -->
<g id="node37" class="node">
<title>Node37</title>
<g id="a_node37"><a xlink:title=" ">
<polygon fill="#e0e0e0" stroke="#999999" points="968.5,-85 925.5,-85 925.5,-66 968.5,-66 968.5,-85"/>
<text text-anchor="middle" x="947" y="-73" font-family="Helvetica,sans-Serif" font-size="10.00">fcntl.h</text>
</a>
</g>
</g>
<!-- Node34&#45;&gt;Node37 -->
<g id="edge48" class="edge">
<title>Node34&#45;&gt;Node37</title>
<path fill="none" stroke="#63b8ff" d="M918.1,-175.56C930.61,-167.97 946.64,-155.79 954,-140 960.46,-126.15 957.93,-108.81 954.23,-95.75"/>
<polygon fill="#63b8ff" stroke="#63b8ff" points="957.67,-95 951.19,-86.62 951.03,-97.21 957.67,-95"/>
</g>
<!-- Node38 -->
<g id="node38" class="node">
<title>Node38</title>
<g id="a_node38"><a xlink:title=" ">
<polygon fill="#e0e0e0" stroke="#999999" points="1055.5,-85 986.5,-85 986.5,-66 1055.5,-66 1055.5,-85"/>
<text text-anchor="middle" x="1021" y="-73" font-family="Helvetica,sans-Serif" font-size="10.00">sys/mman.h</text>
</a>
</g>
</g>
<!-- Node34&#45;&gt;Node38 -->
<g id="edge49" class="edge">
<title>Node34&#45;&gt;Node38</title>
<path fill="none" stroke="#63b8ff" d="M917.65,-175.53C932.07,-167.33 953.05,-154.33 969,-140 984.2,-126.34 998.69,-108.05 1008.5,-94.61"/>
<polygon fill="#63b8ff" stroke="#63b8ff" points="1011.2,-96.85 1014.14,-86.67 1005.5,-92.79 1011.2,-96.85"/>
</g>
<!-- Node39 -->
<g id="node39" class="node">
<title>Node39</title>
<g id="a_node39"><a xlink:title=" ">
<polygon fill="#e0e0e0" stroke="#999999" points="1132.5,-85 1073.5,-85 1073.5,-66 1132.5,-66 1132.5,-85"/>
<text text-anchor="middle" x="1103" y="-73" font-family="Helvetica,sans-Serif" font-size="10.00">sys/stat.h</text>
</a>
</g>
</g>
<!-- Node34&#45;&gt;Node39 -->
<g id="edge50" class="edge">
<title>Node34&#45;&gt;Node39</title>
<path fill="none" stroke="#63b8ff" d="M919.77,-175.6C938.09,-166.83 966.67,-152.9 991,-140 1021.35,-123.91 1055.62,-104.26 1078.16,-91.12"/>
<polygon fill="#63b8ff" stroke="#63b8ff" points="1079.76,-94.24 1086.63,-86.17 1076.23,-88.19 1079.76,-94.24"/>
</g>
<!-- Node40 -->
<g id="node40" class="node">
<title>Node40</title>
<g id="a_node40"><a xlink:title=" ">
<polygon fill="#e0e0e0" stroke="#999999" points="1215.5,-85 1150.5,-85 1150.5,-66 1215.5,-66 1215.5,-85"/>
<text text-anchor="middle" x="1183" y="-73" font-family="Helvetica,sans-Serif" font-size="10.00">sys/types.h</text>
</a>
</g>
</g>
<!-- Node34&#45;&gt;Node40 -->
<g id="edge51" class="edge">
<title>Node34&#45;&gt;Node40</title>
<path fill="none" stroke="#63b8ff" d="M925.63,-175.63C950.12,-166.77 988.74,-152.67 1022,-140 1066.46,-123.06 1117.51,-102.78 1149.99,-89.78"/>
<polygon fill="#63b8ff" stroke="#63b8ff" points="1151.28,-93.03 1159.26,-86.06 1148.68,-86.54 1151.28,-93.03"/>
</g>
<!-- Node41 -->
<g id="node41" class="node">
<title>Node41</title>
<g id="a_node41"><a xlink:title=" ">
<polygon fill="#e0e0e0" stroke="#999999" points="1284,-85 1234,-85 1234,-66 1284,-66 1284,-85"/>
<text text-anchor="middle" x="1259" y="-73" font-family="Helvetica,sans-Serif" font-size="10.00">unistd.h</text>
</a>
</g>
</g>
<!-- Node34&#45;&gt;Node41 -->
<g id="edge52" class="edge">
<title>Node34&#45;&gt;Node41</title>
<path fill="none" stroke="#63b8ff" d="M934.29,-175.56C966.53,-166.81 1016.75,-152.95 1060,-140 1117.2,-122.88 1183.13,-101.51 1222.91,-88.45"/>
<polygon fill="#63b8ff" stroke="#63b8ff" points="1223.8,-91.84 1232.21,-85.39 1221.62,-85.19 1223.8,-91.84"/>
</g>
<!-- Node42 -->
<g id="node42" class="node">
<title>Node42</title>
<g id="a_node42"><a xlink:href="_hw_accessor_8hpp.html" target="_top" xlink:title=" ">
<polygon fill="white" stroke="#666666" points="944.5,-140 819.5,-140 819.5,-121 944.5,-121 944.5,-140"/>
<text text-anchor="middle" x="882" y="-128" font-family="Helvetica,sans-Serif" font-size="10.00">udmaio/HwAccessor.hpp</text>
</a>
</g>
</g>
<!-- Node34&#45;&gt;Node42 -->
<g id="edge53" class="edge">
<title>Node34&#45;&gt;Node42</title>
<path fill="none" stroke="#63b8ff" d="M897.86,-175.75C895.46,-169.04 892.04,-159.52 889,-151.02"/>
<polygon fill="#63b8ff" stroke="#63b8ff" points="892.39,-150.1 885.72,-141.87 885.8,-152.46 892.39,-150.1"/>
</g>
<!-- Node42&#45;&gt;Node11 -->
<g id="edge58" class="edge">
<title>Node42&#45;&gt;Node11</title>
<path fill="none" stroke="#63b8ff" d="M885.18,-120.87C890.32,-107.82 901.45,-82.82 917,-66 930.42,-51.49 948.87,-39.22 964.24,-30.47"/>
<polygon fill="#63b8ff" stroke="#63b8ff" points="965.86,-33.57 972.96,-25.71 962.5,-27.43 965.86,-33.57"/>
</g>
<!-- Node42&#45;&gt;Node14 -->
<g id="edge59" class="edge">
<title>Node42&#45;&gt;Node14</title>
<path fill="none" stroke="#63b8ff" d="M819.21,-122.97C726.66,-113.36 553.65,-95.38 452.09,-84.82"/>
<polygon fill="#63b8ff" stroke="#63b8ff" points="452.48,-81.35 442.18,-83.79 451.76,-88.31 452.48,-81.35"/>
</g>
<!-- Node42&#45;&gt;Node15 -->
<g id="edge65" class="edge">
<title>Node42&#45;&gt;Node15</title>
<path fill="none" stroke="#63b8ff" d="M945,-123.21C1053.12,-112.42 1271.57,-90.62 1366.83,-81.11"/>
<polygon fill="#63b8ff" stroke="#63b8ff" points="1366.98,-84.61 1376.58,-80.13 1366.28,-77.65 1366.98,-84.61"/>
</g>
<!-- Node42&#45;&gt;Node26 -->
<g id="edge66" class="edge">
<title>Node42&#45;&gt;Node26</title>
<path fill="none" stroke="#63b8ff" d="M863.85,-120.51C847.22,-112.27 822.36,-99.96 803.15,-90.45"/>
<polygon fill="#63b8ff" stroke="#63b8ff" points="804.75,-87.33 794.24,-86.03 801.65,-93.6 804.75,-87.33"/>
</g>
<!-- Node42&#45;&gt;Node27 -->
<g id="edge56" class="edge">
<title>Node42&#45;&gt;Node27</title>
<path fill="none" stroke="#63b8ff" d="M879.8,-120.59C875.33,-102.44 865.05,-60.79 858.9,-35.87"/>
<polygon fill="#63b8ff" stroke="#63b8ff" points="862.34,-35.2 856.55,-26.33 855.55,-36.88 862.34,-35.2"/>
</g>
<!-- Node42&#45;&gt;Node28 -->
<g id="edge57" class="edge">
<title>Node42&#45;&gt;Node28</title>
<path fill="none" stroke="#63b8ff" d="M824.94,-120.57C790.71,-113.79 746.97,-102.57 711,-85 682.94,-71.29 655.1,-48.08 637.98,-32.41"/>
<polygon fill="#63b8ff" stroke="#63b8ff" points="640.43,-29.91 630.74,-25.62 635.64,-35.01 640.43,-29.91"/>
</g>
<!-- Node42&#45;&gt;Node35 -->
<g id="edge54" class="edge">
<title>Node42&#45;&gt;Node35</title>
<path fill="none" stroke="#63b8ff" d="M819.44,-120.51C765.52,-112.52 685.33,-100.1 606.33,-85.35"/>
<polygon fill="#63b8ff" stroke="#63b8ff" points="607.16,-81.95 596.69,-83.54 605.87,-88.83 607.16,-81.95"/>
</g>
<!-- Node42&#45;&gt;Node36 -->
<g id="edge55" class="edge">
<title>Node42&#45;&gt;Node36</title>
<path fill="none" stroke="#63b8ff" d="M840.77,-120.56C799.37,-111.58 733.76,-97.35 677,-85 676.02,-84.79 675.03,-84.57 674.03,-84.35"/>
<polygon fill="#63b8ff" stroke="#63b8ff" points="675.17,-81.02 664.65,-82.31 673.68,-87.86 675.17,-81.02"/>
</g>
<!-- Node42&#45;&gt;Node37 -->
<g id="edge60" class="edge">
<title>Node42&#45;&gt;Node37</title>
<path fill="none" stroke="#63b8ff" d="M893.03,-120.51C902.42,-112.85 916.15,-101.66 927.41,-92.47"/>
<polygon fill="#63b8ff" stroke="#63b8ff" points="929.43,-95.35 934.96,-86.31 925,-89.92 929.43,-95.35"/>
</g>
<!-- Node42&#45;&gt;Node38 -->
<g id="edge61" class="edge">
<title>Node42&#45;&gt;Node38</title>
<path fill="none" stroke="#63b8ff" d="M905.58,-120.51C927.98,-111.97 961.9,-99.03 987.18,-89.4"/>
<polygon fill="#63b8ff" stroke="#63b8ff" points="988.26,-92.73 996.35,-85.9 985.76,-86.19 988.26,-92.73"/>
</g>
<!-- Node42&#45;&gt;Node39 -->
<g id="edge62" class="edge">
<title>Node42&#45;&gt;Node39</title>
<path fill="none" stroke="#63b8ff" d="M919.49,-120.51C959.03,-111.03 1021.14,-96.13 1061.97,-86.34"/>
<polygon fill="#63b8ff" stroke="#63b8ff" points="1062.76,-89.75 1071.67,-84.01 1061.13,-82.94 1062.76,-89.75"/>
</g>
<!-- Node42&#45;&gt;Node40 -->
<g id="edge63" class="edge">
<title>Node42&#45;&gt;Node40</title>
<path fill="none" stroke="#63b8ff" d="M937.89,-120.51C988.14,-112.3 1064.26,-99.55 1139.29,-85.46"/>
<polygon fill="#63b8ff" stroke="#63b8ff" points="1139.68,-88.95 1148.86,-83.66 1138.38,-82.07 1139.68,-88.95"/>
</g>
<!-- Node42&#45;&gt;Node41 -->
<g id="edge64" class="edge">
<title>Node42&#45;&gt;Node41</title>
<path fill="none" stroke="#63b8ff" d="M944.93,-123.55C1011.57,-116.75 1119.99,-104.28 1222.63,-85.25"/>
<polygon fill="#63b8ff" stroke="#63b8ff" points="1223.15,-88.71 1232.33,-83.42 1221.86,-81.83 1223.15,-88.71"/>
</g>
<!-- Node43&#45;&gt;Node24 -->
<g id="edge71" class="edge">
<title>Node43&#45;&gt;Node24</title>
<path fill="none" stroke="#63b8ff" d="M742.83,-291.12C704.01,-281.02 640.48,-264.51 597.49,-253.33"/>
<polygon fill="#63b8ff" stroke="#63b8ff" points="598.52,-249.98 587.96,-250.85 596.76,-256.75 598.52,-249.98"/>
</g>
<!-- Node43&#45;&gt;Node33 -->
<g id="edge72" class="edge">
<title>Node43&#45;&gt;Node33</title>
<path fill="none" stroke="#63b8ff" d="M777,-291.37C777,-283.5 777,-271.6 777,-261.39"/>
<polygon fill="#63b8ff" stroke="#63b8ff" points="780.5,-261.68 777,-251.68 773.5,-261.68 780.5,-261.68"/>
</g>
</g>
</svg>
        <g id="navigator" transform="translate(0 0)" fill="#404254">
                <rect fill="#f2f5e9" fill-opacity="0.5" stroke="#606060" stroke-width=".5" x="0" y="0" width="60" height="60"/>
                <use id="zoomplus" xlink:href="#zoomPlus" x="17" y="9" onmousedown="handleZoom(evt,'in')"/>
                <use id="zoomminus" xlink:href="#zoomMin" x="42" y="9" onmousedown="handleZoom(evt,'out')"/>
                <use id="reset" xlink:href="#resetDef" x="30" y="36" onmousedown="handleReset()"/>
                <g id="arrowUp" xlink:href="#dirArrow" transform="translate(30 24)" onmousedown="handlePan(0,-1)">
                  <use xlink:href="#rim" fill="#404040">
                        <set attributeName="fill" to="#808080" begin="arrowUp.mouseover" end="arrowUp.mouseout"/>
                  </use>
                  <path fill="none" stroke="white" stroke-width="1.5" d="M0,-3.0v7 M-2.5,-0.5L0,-3.0L2.5,-0.5"/>
                </g>
                <g id="arrowRight" xlink:href="#dirArrow" transform="rotate(90) translate(36 -43)" onmousedown="handlePan(1,0)">
                  <use xlink:href="#rim" fill="#404040">
                        <set attributeName="fill" to="#808080" begin="arrowRight.mouseover" end="arrowRight.mouseout"/>
                  </use>
                  <path fill="none" stroke="white" stroke-width="1.5" d="M0,-3.0v7 M-2.5,-0.5L0,-3.0L2.5,-0.5"/>
                </g>
                <g id="arrowDown" xlink:href="#dirArrow" transform="rotate(180) translate(-30 -48)" onmousedown="handlePan(0,1)">
                  <use xlink:href="#rim" fill="#404040">
                        <set attributeName="fill" to="#808080" begin="arrowDown.mouseover" end="arrowDown.mouseout"/>
                  </use>
                  <path fill="none" stroke="white" stroke-width="1.5" d="M0,-3.0v7 M-2.5,-0.5L0,-3.0L2.5,-0.5"/>
                </g>
                <g id="arrowLeft" xlink:href="#dirArrow" transform="rotate(270) translate(-36 17)" onmousedown="handlePan(-1,0)">
                  <use xlink:href="#rim" fill="#404040">
                        <set attributeName="fill" to="#808080" begin="arrowLeft.mouseover" end="arrowLeft.mouseout"/>
                  </use>
                  <path fill="none" stroke="white" stroke-width="1.5" d="M0,-3.0v7 M-2.5,-0.5L0,-3.0L2.5,-0.5"/>
                </g>
        </g>
        <svg viewBox="0 0 15 15" width="100%" height="30px" preserveAspectRatio="xMaxYMin meet">
         <g id="arrow_out" transform="scale(0.3 0.3)">
          <a xlink:href="_data_handler_sync_8cpp__incl_org.svg" target="_base">
           <rect id="button" ry="5" rx="5" y="6" x="6" height="38" width="38"
                fill="#f2f5e9" fill-opacity="0.5" stroke="#606060" stroke-width="1.0"/>
           <path id="arrow"
             d="M 11.500037,31.436501 C 11.940474,20.09759 22.043105,11.32322 32.158766,21.979434 L 37.068811,17.246167 C 37.068811,17.246167 37.088388,32 37.088388,32 L 22.160133,31.978069 C 22.160133,31.978069 26.997745,27.140456 26.997745,27.140456 C 18.528582,18.264221 13.291696,25.230495 11.500037,31.436501 z"
             style="fill:#404040;"/>
          </a>
         </g>
        </svg>
</svg>
