<?xml version="1.0" encoding="UTF-8" standalone="no"?>
<!DOCTYPE svg PUBLIC "-//W3C//DTD SVG 1.1//EN"
 "http://www.w3.org/Graphics/SVG/1.1/DTD/svg11.dtd">
<!-- Generated by graphviz version 7.0.5 (20221223.1930)
 -->
<!-- Title: DataHandlerAbstract.cpp Pages: 1 -->
<!--zoomable 379 -->
<svg id="main" version="1.1" xmlns="http://www.w3.org/2000/svg" xmlns:xlink="http://www.w3.org/1999/xlink" xml:space="preserve" onload="init(evt)">
<style type="text/css"><![CDATA[
.edge:hover path { stroke: red; }
.edge:hover polygon { stroke: red; fill: red; }
]]></style>
<script type="text/javascript"><![CDATA[
var edges = document.getElementsByTagName('g');
if (edges && edges.length) {
  for (var i=0;i<edges.length;i++) {
    if (edges[i].id.substr(0,4)=='edge') {
      edges[i].setAttribute('class','edge');
    }
  }
}
]]></script>
        <defs>
                <circle id="rim" cx="0" cy="0" r="7"/>
                <circle id="rim2" cx="0" cy="0" r="3.5"/>
                <g id="zoomPlus">
                        <use xlink:href="#rim" fill="#404040">
                                <set attributeName="fill" to="#808080" begin="zoomplus.mouseover" end="zoomplus.mouseout"/>
                        </use>
                        <path d="M-4,0h8M0,-4v8" fill="none" stroke="white" stroke-width="1.5" pointer-events="none"/>
                </g>
                <g id="zoomMin">
                        <use xlink:href="#rim" fill="#404040">
                                <set attributeName="fill" to="#808080" begin="zoomminus.mouseover" end="zoomminus.mouseout"/>
                        </use>
                        <path d="M-4,0h8" fill="none" stroke="white" stroke-width="1.5" pointer-events="none"/>
                </g>
                <g id="dirArrow">
                        <path fill="none" stroke="white" stroke-width="1.5" d="M0,-3.0v7 M-2.5,-0.5L0,-3.0L2.5,-0.5"/>
                </g>
               <g id="resetDef">
                       <use xlink:href="#rim2" fill="#404040">
                               <set attributeName="fill" to="#808080" begin="reset.mouseover" end="reset.mouseout"/>
                       </use>
               </g>
        </defs>

<script type="text/javascript">
var viewWidth = 1789;
var viewHeight = 379;
var sectionId = 'dynsection-0';
</script>
<script xlink:href="svgpan.js"/>
<svg id="graph" class="graph">
<g id="viewport">
<title>DataHandlerAbstract.cpp</title>
<!-- Node1 -->
<g id="node1" class="node">
<title>Node1</title>
<g id="a_node1"><a xlink:title=" ">
<polygon fill="#999999" stroke="#666666" points="1687,-371 1562,-371 1562,-352 1687,-352 1687,-371"/>
<text text-anchor="middle" x="1624.5" y="-359" font-family="Helvetica,sans-Serif" font-size="10.00">DataHandlerAbstract.cpp</text>
</a>
</g>
</g>
<!-- Node2 -->
<g id="node2" class="node">
<title>Node2</title>
<g id="a_node2"><a xlink:href="_data_handler_abstract_8hpp.html" target="_top" xlink:title=" ">
<polygon fill="white" stroke="#666666" points="1204.5,-316 1044.5,-316 1044.5,-297 1204.5,-297 1204.5,-316"/>
<text text-anchor="middle" x="1124.5" y="-304" font-family="Helvetica,sans-Serif" font-size="10.00">udmaio/DataHandlerAbstract.hpp</text>
</a>
</g>
</g>
<!-- Node1&#45;&gt;Node2 -->
<g id="edge1" class="edge">
<title>Node1&#45;&gt;Node2</title>
<path fill="none" stroke="#63b8ff" d="M1561.68,-353.84C1474.55,-344.61 1316.44,-327.85 1216.14,-317.21"/>
<polygon fill="#63b8ff" stroke="#63b8ff" points="1216.63,-313.75 1206.32,-316.17 1215.89,-320.71 1216.63,-313.75"/>
</g>
<!-- Node4 -->
<g id="node4" class="node">
<title>Node4</title>
<g id="a_node4"><a xlink:title=" ">
<polygon fill="#e0e0e0" stroke="#999999" points="1406.5,-140 1362.5,-140 1362.5,-121 1406.5,-121 1406.5,-140"/>
<text text-anchor="middle" x="1384.5" y="-128" font-family="Helvetica,sans-Serif" font-size="10.00">vector</text>
</a>
</g>
</g>
<!-- Node1&#45;&gt;Node4 -->
<g id="edge54" class="edge">
<title>Node1&#45;&gt;Node4</title>
<path fill="none" stroke="#63b8ff" d="M1615.09,-351.52C1579.02,-317.11 1449.23,-193.27 1401.92,-148.12"/>
<polygon fill="#63b8ff" stroke="#63b8ff" points="1404.59,-145.83 1394.94,-141.46 1399.76,-150.9 1404.59,-145.83"/>
</g>
<!-- Node19 -->
<g id="node19" class="node">
<title>Node19</title>
<g id="a_node19"><a xlink:title=" ">
<polygon fill="#e0e0e0" stroke="#999999" points="1457.5,-24.5 1403.5,-24.5 1403.5,-5.5 1457.5,-5.5 1457.5,-24.5"/>
<text text-anchor="middle" x="1430.5" y="-12.5" font-family="Helvetica,sans-Serif" font-size="10.00">iostream</text>
</a>
</g>
</g>
<!-- Node1&#45;&gt;Node19 -->
<g id="edge53" class="edge">
<title>Node1&#45;&gt;Node19</title>
<path fill="none" stroke="#63b8ff" d="M1624.5,-351.67C1624.5,-332.58 1624.5,-286.02 1624.5,-247 1624.5,-247 1624.5,-247 1624.5,-129.5 1624.5,-100.04 1626.46,-86.7 1605.5,-66 1569.05,-30 1508.59,-19.55 1469.14,-16.72"/>
<polygon fill="#63b8ff" stroke="#63b8ff" points="1469.57,-13.24 1459.38,-16.16 1469.17,-20.23 1469.57,-13.24"/>
</g>
<!-- Node36 -->
<g id="node36" class="node">
<title>Node36</title>
<g id="a_node36"><a xlink:title=" ">
<polygon fill="#e0e0e0" stroke="#999999" points="1712,-316 1653,-316 1653,-297 1712,-297 1712,-316"/>
<text text-anchor="middle" x="1682.5" y="-304" font-family="Helvetica,sans-Serif" font-size="10.00">functional</text>
</a>
</g>
</g>
<!-- Node1&#45;&gt;Node36 -->
<g id="edge51" class="edge">
<title>Node1&#45;&gt;Node36</title>
<path fill="none" stroke="#63b8ff" d="M1634.34,-351.51C1642.55,-344 1654.48,-333.1 1664.41,-324.03"/>
<polygon fill="#63b8ff" stroke="#63b8ff" points="1666.67,-326.71 1671.69,-317.38 1661.95,-321.54 1666.67,-326.71"/>
</g>
<!-- Node37 -->
<g id="node37" class="node">
<title>Node37</title>
<g id="a_node37"><a xlink:title=" ">
<polygon fill="#e0e0e0" stroke="#999999" points="1780.5,-316 1730.5,-316 1730.5,-297 1780.5,-297 1780.5,-316"/>
<text text-anchor="middle" x="1755.5" y="-304" font-family="Helvetica,sans-Serif" font-size="10.00">iomanip</text>
</a>
</g>
</g>
<!-- Node1&#45;&gt;Node37 -->
<g id="edge52" class="edge">
<title>Node1&#45;&gt;Node37</title>
<path fill="none" stroke="#63b8ff" d="M1646.72,-351.51C1667.64,-343.04 1699.23,-330.27 1722.98,-320.66"/>
<polygon fill="#63b8ff" stroke="#63b8ff" points="1724.25,-323.92 1732.2,-316.93 1721.62,-317.43 1724.25,-323.92"/>
</g>
<!-- Node3 -->
<g id="node3" class="node">
<title>Node3</title>
<g id="a_node3"><a xlink:title=" ">
<polygon fill="#e0e0e0" stroke="#999999" points="968,-24.5 927,-24.5 927,-5.5 968,-5.5 968,-24.5"/>
<text text-anchor="middle" x="947.5" y="-12.5" font-family="Helvetica,sans-Serif" font-size="10.00">string</text>
</a>
</g>
</g>
<!-- Node2&#45;&gt;Node3 -->
<g id="edge2" class="edge">
<title>Node2&#45;&gt;Node3</title>
<path fill="none" stroke="#63b8ff" d="M1044.17,-298.34C1000.5,-292.3 946.41,-281.22 901.5,-261 805.37,-217.73 772.62,-186.02 742.5,-85 740.09,-76.91 737.16,-72.55 742.5,-66 792.67,-4.45 842.12,-54.96 917.5,-30 918.15,-29.79 918.8,-29.56 919.46,-29.33"/>
<polygon fill="#63b8ff" stroke="#63b8ff" points="920.69,-32.6 928.61,-25.57 918.03,-26.13 920.69,-32.6"/>
</g>
<!-- Node2&#45;&gt;Node4 -->
<g id="edge3" class="edge">
<title>Node2&#45;&gt;Node4</title>
<path fill="none" stroke="#63b8ff" d="M1204.7,-300.58C1265.99,-295.08 1343.58,-283.75 1365.5,-261 1393.81,-231.63 1391.76,-179.78 1388.01,-151.41"/>
<polygon fill="#63b8ff" stroke="#63b8ff" points="1391.49,-151.04 1386.5,-141.69 1384.57,-152.11 1391.49,-151.04"/>
</g>
<!-- Node5 -->
<g id="node5" class="node">
<title>Node5</title>
<g id="a_node5"><a xlink:title=" ">
<polygon fill="#e0e0e0" stroke="#999999" points="1218.5,-255.5 1138.5,-255.5 1138.5,-236.5 1218.5,-236.5 1218.5,-255.5"/>
<text text-anchor="middle" x="1178.5" y="-243.5" font-family="Helvetica,sans-Serif" font-size="10.00">boost/asio.hpp</text>
</a>
</g>
</g>
<!-- Node2&#45;&gt;Node5 -->
<g id="edge4" class="edge">
<title>Node2&#45;&gt;Node5</title>
<path fill="none" stroke="#63b8ff" d="M1132.47,-296.87C1140.44,-288.23 1152.93,-274.7 1162.89,-263.92"/>
<polygon fill="#63b8ff" stroke="#63b8ff" points="1165.26,-266.5 1169.47,-256.78 1160.12,-261.75 1165.26,-266.5"/>
</g>
<!-- Node6 -->
<g id="node6" class="node">
<title>Node6</title>
<g id="a_node6"><a xlink:title=" ">
<polygon fill="#e0e0e0" stroke="#999999" points="1596,-85 1459,-85 1459,-66 1596,-66 1596,-85"/>
<text text-anchor="middle" x="1527.5" y="-73" font-family="Helvetica,sans-Serif" font-size="10.00">boost/core/noncopyable.hpp</text>
</a>
</g>
</g>
<!-- Node2&#45;&gt;Node6 -->
<g id="edge5" class="edge">
<title>Node2&#45;&gt;Node6</title>
<path fill="none" stroke="#63b8ff" d="M1204.87,-298.43C1270.61,-291.46 1357.45,-279.2 1387.5,-261 1454.82,-220.22 1501.04,-133.93 1519.07,-95.57"/>
<polygon fill="#63b8ff" stroke="#63b8ff" points="1522.16,-97.24 1523.13,-86.69 1515.79,-94.33 1522.16,-97.24"/>
</g>
<!-- Node7 -->
<g id="node7" class="node">
<title>Node7</title>
<g id="a_node7"><a xlink:href="_logging_8hpp.html" target="_top" xlink:title=" ">
<polygon fill="white" stroke="#666666" points="617,-85 548,-85 548,-66 617,-66 617,-85"/>
<text text-anchor="middle" x="582.5" y="-73" font-family="Helvetica,sans-Serif" font-size="10.00">Logging.hpp</text>
</a>
</g>
</g>
<!-- Node2&#45;&gt;Node7 -->
<g id="edge6" class="edge">
<title>Node2&#45;&gt;Node7</title>
<path fill="none" stroke="#63b8ff" d="M1044.11,-304.38C903.84,-301.62 626.31,-292.23 595.5,-261 551.94,-216.84 566.71,-134.28 576.59,-96.41"/>
<polygon fill="#63b8ff" stroke="#63b8ff" points="579.94,-97.43 579.26,-86.86 573.2,-95.55 579.94,-97.43"/>
</g>
<!-- Node15 -->
<g id="node15" class="node">
<title>Node15</title>
<g id="a_node15"><a xlink:href="_u_dma_buf_8hpp.html" target="_top" xlink:title=" ">
<polygon fill="white" stroke="#666666" points="682,-255.5 605,-255.5 605,-236.5 682,-236.5 682,-255.5"/>
<text text-anchor="middle" x="643.5" y="-243.5" font-family="Helvetica,sans-Serif" font-size="10.00">UDmaBuf.hpp</text>
</a>
</g>
</g>
<!-- Node2&#45;&gt;Node15 -->
<g id="edge15" class="edge">
<title>Node2&#45;&gt;Node15</title>
<path fill="none" stroke="#63b8ff" d="M1044.3,-300.88C957.91,-295.03 816.65,-282.98 696.5,-261 692.85,-260.33 689.08,-259.54 685.31,-258.68"/>
<polygon fill="#63b8ff" stroke="#63b8ff" points="686.16,-255.29 675.62,-256.31 684.5,-262.09 686.16,-255.29"/>
</g>
<!-- Node23 -->
<g id="node23" class="node">
<title>Node23</title>
<g id="a_node23"><a xlink:href="_uio_axi_dma_if_8hpp.html" target="_top" xlink:title=" ">
<polygon fill="white" stroke="#666666" points="1000,-255.5 911,-255.5 911,-236.5 1000,-236.5 1000,-255.5"/>
<text text-anchor="middle" x="955.5" y="-243.5" font-family="Helvetica,sans-Serif" font-size="10.00">UioAxiDmaIf.hpp</text>
</a>
</g>
</g>
<!-- Node2&#45;&gt;Node23 -->
<g id="edge27" class="edge">
<title>Node2&#45;&gt;Node23</title>
<path fill="none" stroke="#63b8ff" d="M1098.83,-296.62C1070.42,-286.78 1024.38,-270.84 992.17,-259.69"/>
<polygon fill="#63b8ff" stroke="#63b8ff" points="993.43,-256.43 982.84,-256.46 991.14,-263.04 993.43,-256.43"/>
</g>
<!-- Node34 -->
<g id="node34" class="node">
<title>Node34</title>
<g id="a_node34"><a xlink:href="_uio_mem_sgdma_8hpp.html" target="_top" xlink:title=" ">
<polygon fill="white" stroke="#666666" points="1120.5,-255.5 1018.5,-255.5 1018.5,-236.5 1120.5,-236.5 1120.5,-255.5"/>
<text text-anchor="middle" x="1069.5" y="-243.5" font-family="Helvetica,sans-Serif" font-size="10.00">UioMemSgdma.hpp</text>
</a>
</g>
</g>
<!-- Node2&#45;&gt;Node34 -->
<g id="edge47" class="edge">
<title>Node2&#45;&gt;Node34</title>
<path fill="none" stroke="#63b8ff" d="M1116.38,-296.87C1108.26,-288.23 1095.54,-274.7 1085.4,-263.92"/>
<polygon fill="#63b8ff" stroke="#63b8ff" points="1088.09,-261.66 1078.69,-256.77 1082.99,-266.45 1088.09,-261.66"/>
</g>
<!-- Node35 -->
<g id="node35" class="node">
<title>Node35</title>
<g id="a_node35"><a xlink:title=" ">
<polygon fill="#e0e0e0" stroke="#999999" points="1356.5,-261 1236.5,-261 1236.5,-231 1356.5,-231 1356.5,-261"/>
<text text-anchor="start" x="1244.5" y="-249" font-family="Helvetica,sans-Serif" font-size="10.00">boost/asio/posix/stream</text>
<text text-anchor="middle" x="1296.5" y="-238" font-family="Helvetica,sans-Serif" font-size="10.00">_descriptor.hpp</text>
</a>
</g>
</g>
<!-- Node2&#45;&gt;Node35 -->
<g id="edge50" class="edge">
<title>Node2&#45;&gt;Node35</title>
<path fill="none" stroke="#63b8ff" d="M1150.62,-296.62C1175.17,-288.27 1212.64,-275.52 1243.45,-265.04"/>
<polygon fill="#63b8ff" stroke="#63b8ff" points="1244.27,-268.46 1252.61,-261.93 1242.02,-261.83 1244.27,-268.46"/>
</g>
<!-- Node7&#45;&gt;Node3 -->
<g id="edge7" class="edge">
<title>Node7&#45;&gt;Node3</title>
<path fill="none" stroke="#63b8ff" d="M617.46,-70C701.85,-59.11 910.32,-32.1 917.5,-30 918.47,-29.72 919.44,-29.41 920.42,-29.08"/>
<polygon fill="#63b8ff" stroke="#63b8ff" points="921.35,-32.48 929.31,-25.49 918.73,-25.98 921.35,-32.48"/>
</g>
<!-- Node8 -->
<g id="node8" class="node">
<title>Node8</title>
<g id="a_node8"><a xlink:title=" ">
<polygon fill="#e0e0e0" stroke="#999999" points="366.5,-24.5 270.5,-24.5 270.5,-5.5 366.5,-5.5 366.5,-24.5"/>
<text text-anchor="middle" x="318.5" y="-12.5" font-family="Helvetica,sans-Serif" font-size="10.00">boost/log/core.hpp</text>
</a>
</g>
</g>
<!-- Node7&#45;&gt;Node8 -->
<g id="edge8" class="edge">
<title>Node7&#45;&gt;Node8</title>
<path fill="none" stroke="#63b8ff" d="M547.64,-67.33C506.44,-58.78 435.86,-43.9 375.5,-30 372.18,-29.24 368.76,-28.43 365.31,-27.61"/>
<polygon fill="#63b8ff" stroke="#63b8ff" points="366.35,-24.26 355.81,-25.33 364.72,-31.07 366.35,-24.26"/>
</g>
<!-- Node9 -->
<g id="node9" class="node">
<title>Node9</title>
<g id="a_node9"><a xlink:title=" ">
<polygon fill="#e0e0e0" stroke="#999999" points="514,-24.5 385,-24.5 385,-5.5 514,-5.5 514,-24.5"/>
<text text-anchor="middle" x="449.5" y="-12.5" font-family="Helvetica,sans-Serif" font-size="10.00">boost/log/expressions.hpp</text>
</a>
</g>
</g>
<!-- Node7&#45;&gt;Node9 -->
<g id="edge9" class="edge">
<title>Node7&#45;&gt;Node9</title>
<path fill="none" stroke="#63b8ff" d="M562.3,-65.62C540.52,-56.04 505.6,-40.68 480.38,-29.58"/>
<polygon fill="#63b8ff" stroke="#63b8ff" points="481.84,-26.4 471.28,-25.58 479.02,-32.81 481.84,-26.4"/>
</g>
<!-- Node10 -->
<g id="node10" class="node">
<title>Node10</title>
<g id="a_node10"><a xlink:title=" ">
<polygon fill="#e0e0e0" stroke="#999999" points="633,-24.5 532,-24.5 532,-5.5 633,-5.5 633,-24.5"/>
<text text-anchor="middle" x="582.5" y="-12.5" font-family="Helvetica,sans-Serif" font-size="10.00">boost/log/trivial.hpp</text>
</a>
</g>
</g>
<!-- Node7&#45;&gt;Node10 -->
<g id="edge10" class="edge">
<title>Node7&#45;&gt;Node10</title>
<path fill="none" stroke="#63b8ff" d="M582.5,-65.87C582.5,-58 582.5,-46.1 582.5,-35.89"/>
<polygon fill="#63b8ff" stroke="#63b8ff" points="586,-36.18 582.5,-26.18 579,-36.18 586,-36.18"/>
</g>
<!-- Node11 -->
<g id="node11" class="node">
<title>Node11</title>
<g id="a_node11"><a xlink:title=" ">
<polygon fill="#e0e0e0" stroke="#999999" points="760,-30 651,-30 651,0 760,0 760,-30"/>
<text text-anchor="start" x="659" y="-18" font-family="Helvetica,sans-Serif" font-size="10.00">boost/log/utility/setup</text>
<text text-anchor="middle" x="705.5" y="-7" font-family="Helvetica,sans-Serif" font-size="10.00">/console.hpp</text>
</a>
</g>
</g>
<!-- Node7&#45;&gt;Node11 -->
<g id="edge11" class="edge">
<title>Node7&#45;&gt;Node11</title>
<path fill="none" stroke="#63b8ff" d="M601.18,-65.62C618.05,-57.59 643.44,-45.52 664.95,-35.29"/>
<polygon fill="#63b8ff" stroke="#63b8ff" points="666.25,-38.55 673.77,-31.09 663.24,-32.22 666.25,-38.55"/>
</g>
<!-- Node12 -->
<g id="node12" class="node">
<title>Node12</title>
<g id="a_node12"><a xlink:title=" ">
<polygon fill="#e0e0e0" stroke="#999999" points="909,-30 778,-30 778,0 909,0 909,-30"/>
<text text-anchor="start" x="786" y="-18" font-family="Helvetica,sans-Serif" font-size="10.00">boost/log/sources/severity</text>
<text text-anchor="middle" x="843.5" y="-7" font-family="Helvetica,sans-Serif" font-size="10.00">_channel_logger.hpp</text>
</a>
</g>
</g>
<!-- Node7&#45;&gt;Node12 -->
<g id="edge12" class="edge">
<title>Node7&#45;&gt;Node12</title>
<path fill="none" stroke="#63b8ff" d="M617.43,-66.67C655.72,-58.09 718.31,-44.06 767.93,-32.94"/>
<polygon fill="#63b8ff" stroke="#63b8ff" points="768.48,-36.4 777.48,-30.8 766.95,-29.57 768.48,-36.4"/>
</g>
<!-- Node13 -->
<g id="node13" class="node">
<title>Node13</title>
<g id="a_node13"><a xlink:title=" ">
<polygon fill="#e0e0e0" stroke="#999999" points="113,-30 0,-30 0,0 113,0 113,-30"/>
<text text-anchor="start" x="8" y="-18" font-family="Helvetica,sans-Serif" font-size="10.00">boost/log/support/date</text>
<text text-anchor="middle" x="56.5" y="-7" font-family="Helvetica,sans-Serif" font-size="10.00">_time.hpp</text>
</a>
</g>
</g>
<!-- Node7&#45;&gt;Node13 -->
<g id="edge13" class="edge">
<title>Node7&#45;&gt;Node13</title>
<path fill="none" stroke="#63b8ff" d="M547.63,-72.52C472.21,-67.94 288.13,-55.17 124.4,-30.34"/>
<polygon fill="#63b8ff" stroke="#63b8ff" points="125.06,-26.9 114.64,-28.84 124,-33.82 125.06,-26.9"/>
</g>
<!-- Node14 -->
<g id="node14" class="node">
<title>Node14</title>
<g id="a_node14"><a xlink:title=" ">
<polygon fill="#e0e0e0" stroke="#999999" points="252,-30 131,-30 131,0 252,0 252,-30"/>
<text text-anchor="start" x="139" y="-18" font-family="Helvetica,sans-Serif" font-size="10.00">boost/log/utility/setup</text>
<text text-anchor="middle" x="191.5" y="-7" font-family="Helvetica,sans-Serif" font-size="10.00">/common_attributes.hpp</text>
</a>
</g>
</g>
<!-- Node7&#45;&gt;Node14 -->
<g id="edge14" class="edge">
<title>Node7&#45;&gt;Node14</title>
<path fill="none" stroke="#63b8ff" d="M547.72,-70.37C490.66,-63.44 373.36,-48.58 263.46,-30.26"/>
<polygon fill="#63b8ff" stroke="#63b8ff" points="264.1,-26.82 253.66,-28.61 262.94,-33.72 264.1,-26.82"/>
</g>
<!-- Node15&#45;&gt;Node7 -->
<g id="edge26" class="edge">
<title>Node15&#45;&gt;Node7</title>
<path fill="none" stroke="#63b8ff" d="M640.39,-236.41C631.01,-210.5 602.83,-132.65 589.56,-95.99"/>
<polygon fill="#63b8ff" stroke="#63b8ff" points="592.89,-94.91 586.19,-86.7 586.3,-97.29 592.89,-94.91"/>
</g>
<!-- Node16 -->
<g id="node16" class="node">
<title>Node16</title>
<g id="a_node16"><a xlink:href="_dma_buffer_abstract_8hpp.html" target="_top" xlink:title=" ">
<polygon fill="white" stroke="#666666" points="1233,-195 1116,-195 1116,-176 1233,-176 1233,-195"/>
<text text-anchor="middle" x="1174.5" y="-183" font-family="Helvetica,sans-Serif" font-size="10.00">DmaBufferAbstract.hpp</text>
</a>
</g>
</g>
<!-- Node15&#45;&gt;Node16 -->
<g id="edge16" class="edge">
<title>Node15&#45;&gt;Node16</title>
<path fill="none" stroke="#63b8ff" d="M682.12,-240.75C770.95,-230.96 990.85,-206.73 1104.3,-194.23"/>
<polygon fill="#63b8ff" stroke="#63b8ff" points="1104.54,-197.73 1114.1,-193.15 1103.78,-190.77 1104.54,-197.73"/>
</g>
<!-- Node16&#45;&gt;Node4 -->
<g id="edge18" class="edge">
<title>Node16&#45;&gt;Node4</title>
<path fill="none" stroke="#63b8ff" d="M1210.12,-175.51C1249.57,-165.55 1312.67,-149.63 1351.18,-139.91"/>
<polygon fill="#63b8ff" stroke="#63b8ff" points="1351.97,-143.32 1360.81,-137.48 1350.26,-136.53 1351.97,-143.32"/>
</g>
<!-- Node16&#45;&gt;Node6 -->
<g id="edge19" class="edge">
<title>Node16&#45;&gt;Node6</title>
<path fill="none" stroke="#63b8ff" d="M1197.45,-175.61C1231.29,-162.66 1296.72,-138.29 1353.5,-121 1394.81,-108.42 1442.36,-96.42 1477.3,-88.06"/>
<polygon fill="#63b8ff" stroke="#63b8ff" points="1477.78,-91.55 1486.7,-85.83 1476.16,-84.74 1477.78,-91.55"/>
</g>
<!-- Node17 -->
<g id="node17" class="node">
<title>Node17</title>
<g id="a_node17"><a xlink:title=" ">
<polygon fill="#e0e0e0" stroke="#999999" points="968.5,-140 922.5,-140 922.5,-121 968.5,-121 968.5,-140"/>
<text text-anchor="middle" x="945.5" y="-128" font-family="Helvetica,sans-Serif" font-size="10.00">cstdint</text>
</a>
</g>
</g>
<!-- Node16&#45;&gt;Node17 -->
<g id="edge17" class="edge">
<title>Node16&#45;&gt;Node17</title>
<path fill="none" stroke="#63b8ff" d="M1132.89,-175.57C1095.28,-167.4 1038.15,-154.73 979.8,-140.5"/>
<polygon fill="#63b8ff" stroke="#63b8ff" points="980.91,-137.17 970.36,-138.18 979.24,-143.96 980.91,-137.17"/>
</g>
<!-- Node18 -->
<g id="node18" class="node">
<title>Node18</title>
<g id="a_node18"><a xlink:href="_uio_config_8hpp.html" target="_top" xlink:title=" ">
<polygon fill="white" stroke="#666666" points="1402,-85 1291,-85 1291,-66 1402,-66 1402,-85"/>
<text text-anchor="middle" x="1346.5" y="-73" font-family="Helvetica,sans-Serif" font-size="10.00">udmaio/UioConfig.hpp</text>
</a>
</g>
</g>
<!-- Node16&#45;&gt;Node18 -->
<g id="edge20" class="edge">
<title>Node16&#45;&gt;Node18</title>
<path fill="none" stroke="#63b8ff" d="M1188.58,-175.66C1218.06,-157.15 1286.56,-114.13 1322.9,-91.32"/>
<polygon fill="#63b8ff" stroke="#63b8ff" points="1324.34,-94.55 1330.95,-86.27 1320.62,-88.62 1324.34,-94.55"/>
</g>
<!-- Node18&#45;&gt;Node3 -->
<g id="edge24" class="edge">
<title>Node18&#45;&gt;Node3</title>
<path fill="none" stroke="#63b8ff" d="M1290.6,-66.3C1205.83,-53.87 1047.46,-30.66 979.65,-20.71"/>
<polygon fill="#63b8ff" stroke="#63b8ff" points="980.35,-17.28 969.95,-19.29 979.34,-24.21 980.35,-17.28"/>
</g>
<!-- Node18&#45;&gt;Node19 -->
<g id="edge21" class="edge">
<title>Node18&#45;&gt;Node19</title>
<path fill="none" stroke="#63b8ff" d="M1359.26,-65.62C1372.33,-56.51 1392.91,-42.18 1408.6,-31.25"/>
<polygon fill="#63b8ff" stroke="#63b8ff" points="1410.17,-34.42 1416.38,-25.83 1406.17,-28.68 1410.17,-34.42"/>
</g>
<!-- Node20 -->
<g id="node20" class="node">
<title>Node20</title>
<g id="a_node20"><a xlink:title=" ">
<polygon fill="#e0e0e0" stroke="#999999" points="1137,-24.5 1086,-24.5 1086,-5.5 1137,-5.5 1137,-24.5"/>
<text text-anchor="middle" x="1111.5" y="-12.5" font-family="Helvetica,sans-Serif" font-size="10.00">memory</text>
</a>
</g>
</g>
<!-- Node18&#45;&gt;Node20 -->
<g id="edge22" class="edge">
<title>Node18&#45;&gt;Node20</title>
<path fill="none" stroke="#63b8ff" d="M1310.55,-65.55C1266.65,-54.62 1192.76,-36.23 1148.42,-25.19"/>
<polygon fill="#63b8ff" stroke="#63b8ff" points="1149.3,-21.8 1138.75,-22.78 1147.61,-28.6 1149.3,-21.8"/>
</g>
<!-- Node21 -->
<g id="node21" class="node">
<title>Node21</title>
<g id="a_node21"><a xlink:title=" ">
<polygon fill="#e0e0e0" stroke="#999999" points="1298,-24.5 1239,-24.5 1239,-5.5 1298,-5.5 1298,-24.5"/>
<text text-anchor="middle" x="1268.5" y="-12.5" font-family="Helvetica,sans-Serif" font-size="10.00">stdexcept</text>
</a>
</g>
</g>
<!-- Node18&#45;&gt;Node21 -->
<g id="edge23" class="edge">
<title>Node18&#45;&gt;Node21</title>
<path fill="none" stroke="#63b8ff" d="M1334.65,-65.62C1322.74,-56.68 1304.12,-42.72 1289.67,-31.87"/>
<polygon fill="#63b8ff" stroke="#63b8ff" points="1291.77,-29.08 1281.67,-25.88 1287.57,-34.68 1291.77,-29.08"/>
</g>
<!-- Node22 -->
<g id="node22" class="node">
<title>Node22</title>
<g id="a_node22"><a xlink:title=" ">
<polygon fill="#e0e0e0" stroke="#999999" points="1382.5,-24.5 1316.5,-24.5 1316.5,-5.5 1382.5,-5.5 1382.5,-24.5"/>
<text text-anchor="middle" x="1349.5" y="-12.5" font-family="Helvetica,sans-Serif" font-size="10.00">string_view</text>
</a>
</g>
</g>
<!-- Node18&#45;&gt;Node22 -->
<g id="edge25" class="edge">
<title>Node18&#45;&gt;Node22</title>
<path fill="none" stroke="#63b8ff" d="M1346.94,-65.87C1347.35,-58 1347.96,-46.1 1348.48,-35.89"/>
<polygon fill="#63b8ff" stroke="#63b8ff" points="1351.96,-36.35 1348.98,-26.18 1344.97,-35.99 1351.96,-36.35"/>
</g>
<!-- Node24 -->
<g id="node24" class="node">
<title>Node24</title>
<g id="a_node24"><a xlink:href="_axi_dma_8hpp.html" target="_top" xlink:title=" ">
<polygon fill="white" stroke="#666666" points="891.5,-195 823.5,-195 823.5,-176 891.5,-176 891.5,-195"/>
<text text-anchor="middle" x="857.5" y="-183" font-family="Helvetica,sans-Serif" font-size="10.00">AxiDma.hpp</text>
</a>
</g>
</g>
<!-- Node23&#45;&gt;Node24 -->
<g id="edge28" class="edge">
<title>Node23&#45;&gt;Node24</title>
<path fill="none" stroke="#63b8ff" d="M940.62,-236.12C925.15,-226.88 900.67,-212.27 882.28,-201.29"/>
<polygon fill="#63b8ff" stroke="#63b8ff" points="884.2,-198.36 873.82,-196.24 880.62,-204.38 884.2,-198.36"/>
</g>
<!-- Node25 -->
<g id="node25" class="node">
<title>Node25</title>
<g id="a_node25"><a xlink:href="_reg_accessor_8hpp.html" target="_top" xlink:title=" ">
<polygon fill="white" stroke="#666666" points="1003,-195 910,-195 910,-176 1003,-176 1003,-195"/>
<text text-anchor="middle" x="956.5" y="-183" font-family="Helvetica,sans-Serif" font-size="10.00">RegAccessor.hpp</text>
</a>
</g>
</g>
<!-- Node23&#45;&gt;Node25 -->
<g id="edge30" class="edge">
<title>Node23&#45;&gt;Node25</title>
<path fill="none" stroke="#63b8ff" d="M955.65,-236.37C955.78,-228.5 955.99,-216.6 956.16,-206.39"/>
<polygon fill="#63b8ff" stroke="#63b8ff" points="959.65,-206.74 956.33,-196.68 952.66,-206.62 959.65,-206.74"/>
</g>
<!-- Node26 -->
<g id="node26" class="node">
<title>Node26</title>
<g id="a_node26"><a xlink:href="_uio_if_8hpp.html" target="_top" xlink:title=" ">
<polygon fill="white" stroke="#666666" points="1076.5,-140 986.5,-140 986.5,-121 1076.5,-121 1076.5,-140"/>
<text text-anchor="middle" x="1031.5" y="-128" font-family="Helvetica,sans-Serif" font-size="10.00">udmaio/UioIf.hpp</text>
</a>
</g>
</g>
<!-- Node23&#45;&gt;Node26 -->
<g id="edge46" class="edge">
<title>Node23&#45;&gt;Node26</title>
<path fill="none" stroke="#63b8ff" d="M968.92,-236.23C981.61,-227.29 1000.33,-212.3 1011.5,-195 1020.05,-181.76 1025.17,-164.6 1028.08,-151.46"/>
<polygon fill="#63b8ff" stroke="#63b8ff" points="1031.48,-152.32 1029.95,-141.83 1024.61,-150.98 1031.48,-152.32"/>
</g>
<!-- Node24&#45;&gt;Node17 -->
<g id="edge29" class="edge">
<title>Node24&#45;&gt;Node17</title>
<path fill="none" stroke="#63b8ff" d="M872.43,-175.51C885.78,-167.47 905.61,-155.53 921.24,-146.11"/>
<polygon fill="#63b8ff" stroke="#63b8ff" points="922.74,-149.3 929.5,-141.14 919.12,-143.3 922.74,-149.3"/>
</g>
<!-- Node25&#45;&gt;Node17 -->
<g id="edge31" class="edge">
<title>Node25&#45;&gt;Node17</title>
<path fill="none" stroke="#63b8ff" d="M954.68,-175.75C953.32,-169.19 951.4,-159.95 949.67,-151.6"/>
<polygon fill="#63b8ff" stroke="#63b8ff" points="953.12,-151 947.66,-141.92 946.27,-152.43 953.12,-151"/>
</g>
<!-- Node25&#45;&gt;Node26 -->
<g id="edge32" class="edge">
<title>Node25&#45;&gt;Node26</title>
<path fill="none" stroke="#63b8ff" d="M969.22,-175.51C980.28,-167.7 996.54,-156.21 1009.67,-146.93"/>
<polygon fill="#63b8ff" stroke="#63b8ff" points="1011.58,-149.86 1017.73,-141.23 1007.54,-144.14 1011.58,-149.86"/>
</g>
<!-- Node26&#45;&gt;Node3 -->
<g id="edge37" class="edge">
<title>Node26&#45;&gt;Node3</title>
<path fill="none" stroke="#63b8ff" d="M986.09,-122.36C906.63,-109.85 750.74,-85.28 750.5,-85 745.02,-78.58 745.2,-72.57 750.5,-66 798.2,-6.92 845.53,-54.21 917.5,-30 918.15,-29.78 918.8,-29.55 919.45,-29.32"/>
<polygon fill="#63b8ff" stroke="#63b8ff" points="920.69,-32.59 928.6,-25.54 918.02,-26.12 920.69,-32.59"/>
</g>
<!-- Node26&#45;&gt;Node6 -->
<g id="edge38" class="edge">
<title>Node26&#45;&gt;Node6</title>
<path fill="none" stroke="#63b8ff" d="M1076.83,-124.66C1160.94,-115.67 1342.13,-96.31 1447.35,-85.06"/>
<polygon fill="#63b8ff" stroke="#63b8ff" points="1447.47,-88.57 1457.04,-84.03 1446.73,-81.61 1447.47,-88.57"/>
</g>
<!-- Node26&#45;&gt;Node7 -->
<g id="edge44" class="edge">
<title>Node26&#45;&gt;Node7</title>
<path fill="none" stroke="#63b8ff" d="M986.15,-122.21C983.22,-121.79 980.32,-121.38 977.5,-121 851.56,-104 702.42,-88.43 628.62,-81.03"/>
<polygon fill="#63b8ff" stroke="#63b8ff" points="629.24,-77.58 618.94,-80.07 628.55,-84.54 629.24,-77.58"/>
</g>
<!-- Node26&#45;&gt;Node18 -->
<g id="edge45" class="edge">
<title>Node26&#45;&gt;Node18</title>
<path fill="none" stroke="#63b8ff" d="M1076.97,-121.85C1130.86,-112.78 1221.04,-97.61 1282.1,-87.34"/>
<polygon fill="#63b8ff" stroke="#63b8ff" points="1282.37,-90.84 1291.65,-85.73 1281.21,-83.94 1282.37,-90.84"/>
</g>
<!-- Node26&#45;&gt;Node19 -->
<g id="edge35" class="edge">
<title>Node26&#45;&gt;Node19</title>
<path fill="none" stroke="#63b8ff" d="M1076.88,-130.3C1166.6,-130.94 1362.23,-127.29 1411.5,-85 1425.49,-72.99 1429.64,-51.73 1430.67,-35.98"/>
<polygon fill="#63b8ff" stroke="#63b8ff" points="1434.16,-36.4 1430.9,-26.31 1427.16,-36.22 1434.16,-36.4"/>
</g>
<!-- Node26&#45;&gt;Node20 -->
<g id="edge36" class="edge">
<title>Node26&#45;&gt;Node20</title>
<path fill="none" stroke="#63b8ff" d="M986.3,-122.32C908.96,-110.01 759.42,-86.08 758.5,-85 753.03,-78.57 752.96,-72.38 758.5,-66 768.82,-54.12 985.58,-29.55 1074.22,-19.96"/>
<polygon fill="#63b8ff" stroke="#63b8ff" points="1074.53,-23.45 1084.1,-18.9 1073.78,-16.49 1074.53,-23.45"/>
</g>
<!-- Node27 -->
<g id="node27" class="node">
<title>Node27</title>
<g id="a_node27"><a xlink:title=" ">
<polygon fill="#e0e0e0" stroke="#999999" points="827.5,-85 767.5,-85 767.5,-66 827.5,-66 827.5,-85"/>
<text text-anchor="middle" x="797.5" y="-73" font-family="Helvetica,sans-Serif" font-size="10.00">filesystem</text>
</a>
</g>
</g>
<!-- Node26&#45;&gt;Node27 -->
<g id="edge33" class="edge">
<title>Node26&#45;&gt;Node27</title>
<path fill="none" stroke="#63b8ff" d="M991.81,-120.51C949.19,-110.86 881.82,-95.6 838.65,-85.82"/>
<polygon fill="#63b8ff" stroke="#63b8ff" points="839.7,-82.47 829.17,-83.67 838.15,-89.3 839.7,-82.47"/>
</g>
<!-- Node28 -->
<g id="node28" class="node">
<title>Node28</title>
<g id="a_node28"><a xlink:title=" ">
<polygon fill="#e0e0e0" stroke="#999999" points="895.5,-85 845.5,-85 845.5,-66 895.5,-66 895.5,-85"/>
<text text-anchor="middle" x="870.5" y="-73" font-family="Helvetica,sans-Serif" font-size="10.00">fstream</text>
</a>
</g>
</g>
<!-- Node26&#45;&gt;Node28 -->
<g id="edge34" class="edge">
<title>Node26&#45;&gt;Node28</title>
<path fill="none" stroke="#63b8ff" d="M1004.19,-120.51C977.3,-111.66 936.08,-98.09 906.52,-88.36"/>
<polygon fill="#63b8ff" stroke="#63b8ff" points="907.85,-85.11 897.26,-85.31 905.66,-91.76 907.85,-85.11"/>
</g>
<!-- Node29 -->
<g id="node29" class="node">
<title>Node29</title>
<g id="a_node29"><a xlink:title=" ">
<polygon fill="#e0e0e0" stroke="#999999" points="957,-85 914,-85 914,-66 957,-66 957,-85"/>
<text text-anchor="middle" x="935.5" y="-73" font-family="Helvetica,sans-Serif" font-size="10.00">fcntl.h</text>
</a>
</g>
</g>
<!-- Node26&#45;&gt;Node29 -->
<g id="edge39" class="edge">
<title>Node26&#45;&gt;Node29</title>
<path fill="none" stroke="#63b8ff" d="M1015.21,-120.51C1000.51,-112.39 978.61,-100.3 961.48,-90.85"/>
<polygon fill="#63b8ff" stroke="#63b8ff" points="963.32,-87.86 952.87,-86.09 959.93,-93.99 963.32,-87.86"/>
</g>
<!-- Node30 -->
<g id="node30" class="node">
<title>Node30</title>
<g id="a_node30"><a xlink:title=" ">
<polygon fill="#e0e0e0" stroke="#999999" points="1044,-85 975,-85 975,-66 1044,-66 1044,-85"/>
<text text-anchor="middle" x="1009.5" y="-73" font-family="Helvetica,sans-Serif" font-size="10.00">sys/mman.h</text>
</a>
</g>
</g>
<!-- Node26&#45;&gt;Node30 -->
<g id="edge40" class="edge">
<title>Node26&#45;&gt;Node30</title>
<path fill="none" stroke="#63b8ff" d="M1027.87,-120.75C1025.08,-114.04 1021.13,-104.52 1017.6,-96.02"/>
<polygon fill="#63b8ff" stroke="#63b8ff" points="1020.86,-94.73 1013.79,-86.84 1014.39,-97.42 1020.86,-94.73"/>
</g>
<!-- Node31 -->
<g id="node31" class="node">
<title>Node31</title>
<g id="a_node31"><a xlink:title=" ">
<polygon fill="#e0e0e0" stroke="#999999" points="1121,-85 1062,-85 1062,-66 1121,-66 1121,-85"/>
<text text-anchor="middle" x="1091.5" y="-73" font-family="Helvetica,sans-Serif" font-size="10.00">sys/stat.h</text>
</a>
</g>
</g>
<!-- Node26&#45;&gt;Node31 -->
<g id="edge41" class="edge">
<title>Node26&#45;&gt;Node31</title>
<path fill="none" stroke="#63b8ff" d="M1041.68,-120.51C1050.26,-112.93 1062.77,-101.88 1073.1,-92.75"/>
<polygon fill="#63b8ff" stroke="#63b8ff" points="1075.16,-95.6 1080.34,-86.36 1070.53,-90.36 1075.16,-95.6"/>
</g>
<!-- Node32 -->
<g id="node32" class="node">
<title>Node32</title>
<g id="a_node32"><a xlink:title=" ">
<polygon fill="#e0e0e0" stroke="#999999" points="1204,-85 1139,-85 1139,-66 1204,-66 1204,-85"/>
<text text-anchor="middle" x="1171.5" y="-73" font-family="Helvetica,sans-Serif" font-size="10.00">sys/types.h</text>
</a>
</g>
</g>
<!-- Node26&#45;&gt;Node32 -->
<g id="edge42" class="edge">
<title>Node26&#45;&gt;Node32</title>
<path fill="none" stroke="#63b8ff" d="M1055.25,-120.51C1077.81,-111.97 1111.97,-99.03 1137.44,-89.4"/>
<polygon fill="#63b8ff" stroke="#63b8ff" points="1138.57,-92.71 1146.69,-85.89 1136.09,-86.16 1138.57,-92.71"/>
</g>
<!-- Node33 -->
<g id="node33" class="node">
<title>Node33</title>
<g id="a_node33"><a xlink:title=" ">
<polygon fill="#e0e0e0" stroke="#999999" points="1272.5,-85 1222.5,-85 1222.5,-66 1272.5,-66 1272.5,-85"/>
<text text-anchor="middle" x="1247.5" y="-73" font-family="Helvetica,sans-Serif" font-size="10.00">unistd.h</text>
</a>
</g>
</g>
<!-- Node26&#45;&gt;Node33 -->
<g id="edge43" class="edge">
<title>Node26&#45;&gt;Node33</title>
<path fill="none" stroke="#63b8ff" d="M1068.46,-120.52C1102.95,-112.13 1156.12,-99.16 1211.21,-85.56"/>
<polygon fill="#63b8ff" stroke="#63b8ff" points="1211.92,-88.99 1220.78,-83.19 1210.24,-82.19 1211.92,-88.99"/>
</g>
<!-- Node34&#45;&gt;Node16 -->
<g id="edge48" class="edge">
<title>Node34&#45;&gt;Node16</title>
<path fill="none" stroke="#63b8ff" d="M1085.45,-236.12C1102.18,-226.79 1128.73,-212 1148.5,-200.99"/>
<polygon fill="#63b8ff" stroke="#63b8ff" points="1150.05,-204.13 1157.08,-196.21 1146.64,-198.01 1150.05,-204.13"/>
</g>
<!-- Node34&#45;&gt;Node26 -->
<g id="edge49" class="edge">
<title>Node34&#45;&gt;Node26</title>
<path fill="none" stroke="#63b8ff" d="M1066.52,-236.09C1060.41,-217.86 1046.37,-175.91 1038.04,-151.03"/>
<polygon fill="#63b8ff" stroke="#63b8ff" points="1041.44,-150.17 1034.95,-141.8 1034.8,-152.39 1041.44,-150.17"/>
</g>
</g>
</svg>
        <g id="navigator" transform="translate(0 0)" fill="#404254">
                <rect fill="#f2f5e9" fill-opacity="0.5" stroke="#606060" stroke-width=".5" x="0" y="0" width="60" height="60"/>
                <use id="zoomplus" xlink:href="#zoomPlus" x="17" y="9" onmousedown="handleZoom(evt,'in')"/>
                <use id="zoomminus" xlink:href="#zoomMin" x="42" y="9" onmousedown="handleZoom(evt,'out')"/>
                <use id="reset" xlink:href="#resetDef" x="30" y="36" onmousedown="handleReset()"/>
                <g id="arrowUp" xlink:href="#dirArrow" transform="translate(30 24)" onmousedown="handlePan(0,-1)">
                  <use xlink:href="#rim" fill="#404040">
                        <set attributeName="fill" to="#808080" begin="arrowUp.mouseover" end="arrowUp.mouseout"/>
                  </use>
                  <path fill="none" stroke="white" stroke-width="1.5" d="M0,-3.0v7 M-2.5,-0.5L0,-3.0L2.5,-0.5"/>
                </g>
                <g id="arrowRight" xlink:href="#dirArrow" transform="rotate(90) translate(36 -43)" onmousedown="handlePan(1,0)">
                  <use xlink:href="#rim" fill="#404040">
                        <set attributeName="fill" to="#808080" begin="arrowRight.mouseover" end="arrowRight.mouseout"/>
                  </use>
                  <path fill="none" stroke="white" stroke-width="1.5" d="M0,-3.0v7 M-2.5,-0.5L0,-3.0L2.5,-0.5"/>
                </g>
                <g id="arrowDown" xlink:href="#dirArrow" transform="rotate(180) translate(-30 -48)" onmousedown="handlePan(0,1)">
                  <use xlink:href="#rim" fill="#404040">
                        <set attributeName="fill" to="#808080" begin="arrowDown.mouseover" end="arrowDown.mouseout"/>
                  </use>
                  <path fill="none" stroke="white" stroke-width="1.5" d="M0,-3.0v7 M-2.5,-0.5L0,-3.0L2.5,-0.5"/>
                </g>
                <g id="arrowLeft" xlink:href="#dirArrow" transform="rotate(270) translate(-36 17)" onmousedown="handlePan(-1,0)">
                  <use xlink:href="#rim" fill="#404040">
                        <set attributeName="fill" to="#808080" begin="arrowLeft.mouseover" end="arrowLeft.mouseout"/>
                  </use>
                  <path fill="none" stroke="white" stroke-width="1.5" d="M0,-3.0v7 M-2.5,-0.5L0,-3.0L2.5,-0.5"/>
                </g>
        </g>
        <svg viewBox="0 0 15 15" width="100%" height="30px" preserveAspectRatio="xMaxYMin meet">
         <g id="arrow_out" transform="scale(0.3 0.3)">
          <a xlink:href="_data_handler_abstract_8cpp__incl_org.svg" target="_base">
           <rect id="button" ry="5" rx="5" y="6" x="6" height="38" width="38"
                fill="#f2f5e9" fill-opacity="0.5" stroke="#606060" stroke-width="1.0"/>
           <path id="arrow"
             d="M 11.500037,31.436501 C 11.940474,20.09759 22.043105,11.32322 32.158766,21.979434 L 37.068811,17.246167 C 37.068811,17.246167 37.088388,32 37.088388,32 L 22.160133,31.978069 C 22.160133,31.978069 26.997745,27.140456 26.997745,27.140456 C 18.528582,18.264221 13.291696,25.230495 11.500037,31.436501 z"
             style="fill:#404040;"/>
          </a>
         </g>
        </svg>
</svg>
