<?xml version="1.0" encoding="UTF-8" standalone="no"?>
<!DOCTYPE svg PUBLIC "-//W3C//DTD SVG 1.1//EN"
 "http://www.w3.org/Graphics/SVG/1.1/DTD/svg11.dtd">
<!-- Generated by graphviz version 7.0.5 (20221223.1930)
 -->
<!-- Title: DataHandlerAbstract.cpp Pages: 1 -->
<svg width="1707pt" height="379pt"
 viewBox="0.00 0.00 1707.32 379.00" xmlns="http://www.w3.org/2000/svg" xmlns:xlink="http://www.w3.org/1999/xlink">
<g id="graph0" class="graph" transform="scale(1 1) rotate(0) translate(4 375)">
<title>DataHandlerAbstract.cpp</title>
<!-- Node1 -->
<g id="node1" class="node">
<title>Node1</title>
<g id="a_node1"><a xlink:title=" ">
<polygon fill="#999999" stroke="#666666" points="1213.32,-371 1088.32,-371 1088.32,-352 1213.32,-352 1213.32,-371"/>
<text text-anchor="middle" x="1150.82" y="-359" font-family="Helvetica,sans-Serif" font-size="10.00">DataHandlerAbstract.cpp</text>
</a>
</g>
</g>
<!-- Node2 -->
<g id="node2" class="node">
<title>Node2</title>
<g id="a_node2"><a xlink:href="_data_handler_abstract_8hpp.html" target="_top" xlink:title=" ">
<polygon fill="white" stroke="#666666" points="972.82,-316 812.82,-316 812.82,-297 972.82,-297 972.82,-316"/>
<text text-anchor="middle" x="892.82" y="-304" font-family="Helvetica,sans-Serif" font-size="10.00">udmaio/DataHandlerAbstract.hpp</text>
</a>
</g>
</g>
<!-- Node1&#45;&gt;Node2 -->
<g id="edge1" class="edge">
<title>Node1&#45;&gt;Node2</title>
<path fill="none" stroke="#63b8ff" d="M1107.05,-351.51C1062.99,-342.46 994.93,-328.48 947.38,-318.71"/>
<polygon fill="#63b8ff" stroke="#63b8ff" points="948.35,-315.33 937.85,-316.75 946.94,-322.19 948.35,-315.33"/>
</g>
<!-- Node4 -->
<g id="node4" class="node">
<title>Node4</title>
<g id="a_node4"><a xlink:title=" ">
<polygon fill="#e0e0e0" stroke="#999999" points="1046.82,-140 1002.82,-140 1002.82,-121 1046.82,-121 1046.82,-140"/>
<text text-anchor="middle" x="1024.82" y="-128" font-family="Helvetica,sans-Serif" font-size="10.00">vector</text>
</a>
</g>
</g>
<!-- Node1&#45;&gt;Node4 -->
<g id="edge54" class="edge">
<title>Node1&#45;&gt;Node4</title>
<path fill="none" stroke="#63b8ff" d="M1145.88,-351.52C1127.21,-317.6 1060.75,-196.82 1035.06,-150.12"/>
<polygon fill="#63b8ff" stroke="#63b8ff" points="1038.2,-148.57 1030.31,-141.5 1032.07,-151.94 1038.2,-148.57"/>
</g>
<!-- Node19 -->
<g id="node19" class="node">
<title>Node19</title>
<g id="a_node19"><a xlink:title=" ">
<polygon fill="#e0e0e0" stroke="#999999" points="381.82,-24.5 327.82,-24.5 327.82,-5.5 381.82,-5.5 381.82,-24.5"/>
<text text-anchor="middle" x="354.82" y="-12.5" font-family="Helvetica,sans-Serif" font-size="10.00">iostream</text>
</a>
</g>
</g>
<!-- Node1&#45;&gt;Node19 -->
<g id="edge53" class="edge">
<title>Node1&#45;&gt;Node19</title>
<path fill="none" stroke="#63b8ff" d="M1088.17,-360.95C848.19,-361.85 0.82,-357.22 0.82,-247 0.82,-247 0.82,-247 0.82,-129.5 0.82,-100.04 -2.45,-85.29 19.82,-66 63.51,-28.13 237.76,-18.94 316.2,-16.71"/>
<polygon fill="#63b8ff" stroke="#63b8ff" points="316.07,-20.21 325.98,-16.46 315.89,-13.22 316.07,-20.21"/>
</g>
<!-- Node36 -->
<g id="node36" class="node">
<title>Node36</title>
<g id="a_node36"><a xlink:title=" ">
<polygon fill="#e0e0e0" stroke="#999999" points="1238.32,-316 1179.32,-316 1179.32,-297 1238.32,-297 1238.32,-316"/>
<text text-anchor="middle" x="1208.82" y="-304" font-family="Helvetica,sans-Serif" font-size="10.00">functional</text>
</a>
</g>
</g>
<!-- Node1&#45;&gt;Node36 -->
<g id="edge51" class="edge">
<title>Node1&#45;&gt;Node36</title>
<path fill="none" stroke="#63b8ff" d="M1160.65,-351.51C1168.87,-344 1180.8,-333.1 1190.73,-324.03"/>
<polygon fill="#63b8ff" stroke="#63b8ff" points="1192.98,-326.71 1198,-317.38 1188.26,-321.54 1192.98,-326.71"/>
</g>
<!-- Node37 -->
<g id="node37" class="node">
<title>Node37</title>
<g id="a_node37"><a xlink:title=" ">
<polygon fill="#e0e0e0" stroke="#999999" points="1306.82,-316 1256.82,-316 1256.82,-297 1306.82,-297 1306.82,-316"/>
<text text-anchor="middle" x="1281.82" y="-304" font-family="Helvetica,sans-Serif" font-size="10.00">iomanip</text>
</a>
</g>
</g>
<!-- Node1&#45;&gt;Node37 -->
<g id="edge52" class="edge">
<title>Node1&#45;&gt;Node37</title>
<path fill="none" stroke="#63b8ff" d="M1173.04,-351.51C1193.96,-343.04 1225.54,-330.27 1249.3,-320.66"/>
<polygon fill="#63b8ff" stroke="#63b8ff" points="1250.56,-323.92 1258.52,-316.93 1247.94,-317.43 1250.56,-323.92"/>
</g>
<!-- Node3 -->
<g id="node3" class="node">
<title>Node3</title>
<g id="a_node3"><a xlink:title=" ">
<polygon fill="#e0e0e0" stroke="#999999" points="772.32,-24.5 731.32,-24.5 731.32,-5.5 772.32,-5.5 772.32,-24.5"/>
<text text-anchor="middle" x="751.82" y="-12.5" font-family="Helvetica,sans-Serif" font-size="10.00">string</text>
</a>
</g>
</g>
<!-- Node2&#45;&gt;Node3 -->
<g id="edge2" class="edge">
<title>Node2&#45;&gt;Node3</title>
<path fill="none" stroke="#63b8ff" d="M925.47,-296.51C943.11,-289.8 963.36,-278.68 973.82,-261 988.69,-235.86 1004.15,-129.47 942.82,-66 891.86,-13.27 851.22,-53.64 781.82,-30 781.17,-29.78 780.52,-29.55 779.87,-29.31"/>
<polygon fill="#63b8ff" stroke="#63b8ff" points="781.3,-26.12 770.72,-25.52 778.62,-32.58 781.3,-26.12"/>
</g>
<!-- Node2&#45;&gt;Node4 -->
<g id="edge3" class="edge">
<title>Node2&#45;&gt;Node4</title>
<path fill="none" stroke="#63b8ff" d="M947.33,-296.57C969.04,-290.24 992.27,-279.43 1006.82,-261 1031.83,-229.32 1030.78,-179.16 1027.8,-151.49"/>
<polygon fill="#63b8ff" stroke="#63b8ff" points="1031.29,-151.16 1026.53,-141.69 1024.35,-152.06 1031.29,-151.16"/>
</g>
<!-- Node5 -->
<g id="node5" class="node">
<title>Node5</title>
<g id="a_node5"><a xlink:title=" ">
<polygon fill="#e0e0e0" stroke="#999999" points="572.82,-255.5 492.82,-255.5 492.82,-236.5 572.82,-236.5 572.82,-255.5"/>
<text text-anchor="middle" x="532.82" y="-243.5" font-family="Helvetica,sans-Serif" font-size="10.00">boost/asio.hpp</text>
</a>
</g>
</g>
<!-- Node2&#45;&gt;Node5 -->
<g id="edge4" class="edge">
<title>Node2&#45;&gt;Node5</title>
<path fill="none" stroke="#63b8ff" d="M812.39,-297.04C749.28,-289.67 659.43,-277.56 581.82,-261 578.84,-260.36 575.77,-259.65 572.7,-258.88"/>
<polygon fill="#63b8ff" stroke="#63b8ff" points="573.7,-255.52 563.13,-256.34 571.9,-262.29 573.7,-255.52"/>
</g>
<!-- Node6 -->
<g id="node6" class="node">
<title>Node6</title>
<g id="a_node6"><a xlink:title=" ">
<polygon fill="#e0e0e0" stroke="#999999" points="933.32,-85 796.32,-85 796.32,-66 933.32,-66 933.32,-85"/>
<text text-anchor="middle" x="864.82" y="-73" font-family="Helvetica,sans-Serif" font-size="10.00">boost/core/noncopyable.hpp</text>
</a>
</g>
</g>
<!-- Node2&#45;&gt;Node6 -->
<g id="edge5" class="edge">
<title>Node2&#45;&gt;Node6</title>
<path fill="none" stroke="#63b8ff" d="M889.42,-296.79C886.12,-287.93 881.27,-273.72 878.82,-261 867.45,-201.98 865.22,-130.68 864.84,-96.58"/>
<polygon fill="#63b8ff" stroke="#63b8ff" points="868.34,-96.92 864.78,-86.94 861.34,-96.96 868.34,-96.92"/>
</g>
<!-- Node7 -->
<g id="node7" class="node">
<title>Node7</title>
<g id="a_node7"><a xlink:href="_logging_8hpp.html" target="_top" xlink:title=" ">
<polygon fill="white" stroke="#666666" points="1147.32,-85 1078.32,-85 1078.32,-66 1147.32,-66 1147.32,-85"/>
<text text-anchor="middle" x="1112.82" y="-73" font-family="Helvetica,sans-Serif" font-size="10.00">Logging.hpp</text>
</a>
</g>
</g>
<!-- Node2&#45;&gt;Node7 -->
<g id="edge6" class="edge">
<title>Node2&#45;&gt;Node7</title>
<path fill="none" stroke="#63b8ff" d="M953.33,-296.57C978.78,-290.22 1007.2,-279.41 1027.82,-261 1078.64,-215.63 1101.16,-133.69 1109.15,-96.19"/>
<polygon fill="#63b8ff" stroke="#63b8ff" points="1112.5,-97.27 1111.03,-86.78 1105.64,-95.9 1112.5,-97.27"/>
</g>
<!-- Node15 -->
<g id="node15" class="node">
<title>Node15</title>
<g id="a_node15"><a xlink:href="_u_dma_buf_8hpp.html" target="_top" xlink:title=" ">
<polygon fill="white" stroke="#666666" points="964.32,-255.5 887.32,-255.5 887.32,-236.5 964.32,-236.5 964.32,-255.5"/>
<text text-anchor="middle" x="925.82" y="-243.5" font-family="Helvetica,sans-Serif" font-size="10.00">UDmaBuf.hpp</text>
</a>
</g>
</g>
<!-- Node2&#45;&gt;Node15 -->
<g id="edge15" class="edge">
<title>Node2&#45;&gt;Node15</title>
<path fill="none" stroke="#63b8ff" d="M897.68,-296.87C902.32,-288.66 909.43,-276.04 915.35,-265.55"/>
<polygon fill="#63b8ff" stroke="#63b8ff" points="918.32,-267.41 920.18,-256.99 912.22,-263.98 918.32,-267.41"/>
</g>
<!-- Node23 -->
<g id="node23" class="node">
<title>Node23</title>
<g id="a_node23"><a xlink:href="_uio_axi_dma_if_8hpp.html" target="_top" xlink:title=" ">
<polygon fill="white" stroke="#666666" points="474.32,-255.5 385.32,-255.5 385.32,-236.5 474.32,-236.5 474.32,-255.5"/>
<text text-anchor="middle" x="429.82" y="-243.5" font-family="Helvetica,sans-Serif" font-size="10.00">UioAxiDmaIf.hpp</text>
</a>
</g>
</g>
<!-- Node2&#45;&gt;Node23 -->
<g id="edge27" class="edge">
<title>Node2&#45;&gt;Node23</title>
<path fill="none" stroke="#63b8ff" d="M812.38,-300.22C729.54,-293.97 596.93,-281.7 483.82,-261 480.03,-260.31 476.12,-259.49 472.22,-258.61"/>
<polygon fill="#63b8ff" stroke="#63b8ff" points="473.35,-255.28 462.81,-256.35 471.71,-262.09 473.35,-255.28"/>
</g>
<!-- Node34 -->
<g id="node34" class="node">
<title>Node34</title>
<g id="a_node34"><a xlink:href="_uio_mem_sgdma_8hpp.html" target="_top" xlink:title=" ">
<polygon fill="white" stroke="#666666" points="830.82,-255.5 728.82,-255.5 728.82,-236.5 830.82,-236.5 830.82,-255.5"/>
<text text-anchor="middle" x="779.82" y="-243.5" font-family="Helvetica,sans-Serif" font-size="10.00">UioMemSgdma.hpp</text>
</a>
</g>
</g>
<!-- Node2&#45;&gt;Node34 -->
<g id="edge47" class="edge">
<title>Node2&#45;&gt;Node34</title>
<path fill="none" stroke="#63b8ff" d="M875.65,-296.62C857.48,-287.21 828.54,-272.22 807.21,-261.18"/>
<polygon fill="#63b8ff" stroke="#63b8ff" points="808.97,-258.15 798.48,-256.66 805.75,-264.37 808.97,-258.15"/>
</g>
<!-- Node35 -->
<g id="node35" class="node">
<title>Node35</title>
<g id="a_node35"><a xlink:title=" ">
<polygon fill="#e0e0e0" stroke="#999999" points="710.82,-261 590.82,-261 590.82,-231 710.82,-231 710.82,-261"/>
<text text-anchor="start" x="598.82" y="-249" font-family="Helvetica,sans-Serif" font-size="10.00">boost/asio/posix/stream</text>
<text text-anchor="middle" x="650.82" y="-238" font-family="Helvetica,sans-Serif" font-size="10.00">_descriptor.hpp</text>
</a>
</g>
</g>
<!-- Node2&#45;&gt;Node35 -->
<g id="edge50" class="edge">
<title>Node2&#45;&gt;Node35</title>
<path fill="none" stroke="#63b8ff" d="M855.8,-296.55C820.16,-287.94 765.33,-274.68 721.35,-264.05"/>
<polygon fill="#63b8ff" stroke="#63b8ff" points="722.43,-260.71 711.89,-261.76 720.78,-267.51 722.43,-260.71"/>
</g>
<!-- Node7&#45;&gt;Node3 -->
<g id="edge7" class="edge">
<title>Node7&#45;&gt;Node3</title>
<path fill="none" stroke="#63b8ff" d="M1078.03,-71.17C1004.78,-63.94 836.9,-46.15 781.82,-30 780.85,-29.72 779.88,-29.41 778.9,-29.08"/>
<polygon fill="#63b8ff" stroke="#63b8ff" points="780.59,-25.98 770,-25.49 777.97,-32.47 780.59,-25.98"/>
</g>
<!-- Node8 -->
<g id="node8" class="node">
<title>Node8</title>
<g id="a_node8"><a xlink:title=" ">
<polygon fill="#e0e0e0" stroke="#999999" points="1305.82,-24.5 1209.82,-24.5 1209.82,-5.5 1305.82,-5.5 1305.82,-24.5"/>
<text text-anchor="middle" x="1257.82" y="-12.5" font-family="Helvetica,sans-Serif" font-size="10.00">boost/log/core.hpp</text>
</a>
</g>
</g>
<!-- Node7&#45;&gt;Node8 -->
<g id="edge8" class="edge">
<title>Node7&#45;&gt;Node8</title>
<path fill="none" stroke="#63b8ff" d="M1134.84,-65.62C1158.9,-55.91 1197.68,-40.26 1225.26,-29.14"/>
<polygon fill="#63b8ff" stroke="#63b8ff" points="1226.22,-32.52 1234.18,-25.53 1223.6,-26.03 1226.22,-32.52"/>
</g>
<!-- Node9 -->
<g id="node9" class="node">
<title>Node9</title>
<g id="a_node9"><a xlink:title=" ">
<polygon fill="#e0e0e0" stroke="#999999" points="1453.32,-24.5 1324.32,-24.5 1324.32,-5.5 1453.32,-5.5 1453.32,-24.5"/>
<text text-anchor="middle" x="1388.82" y="-12.5" font-family="Helvetica,sans-Serif" font-size="10.00">boost/log/expressions.hpp</text>
</a>
</g>
</g>
<!-- Node7&#45;&gt;Node9 -->
<g id="edge9" class="edge">
<title>Node7&#45;&gt;Node9</title>
<path fill="none" stroke="#63b8ff" d="M1147.77,-67.09C1195.13,-57.05 1280.11,-39.04 1335.47,-27.31"/>
<polygon fill="#63b8ff" stroke="#63b8ff" points="1335.93,-30.79 1344.99,-25.29 1334.48,-23.94 1335.93,-30.79"/>
</g>
<!-- Node10 -->
<g id="node10" class="node">
<title>Node10</title>
<g id="a_node10"><a xlink:title=" ">
<polygon fill="#e0e0e0" stroke="#999999" points="1572.32,-24.5 1471.32,-24.5 1471.32,-5.5 1572.32,-5.5 1572.32,-24.5"/>
<text text-anchor="middle" x="1521.82" y="-12.5" font-family="Helvetica,sans-Serif" font-size="10.00">boost/log/trivial.hpp</text>
</a>
</g>
</g>
<!-- Node7&#45;&gt;Node10 -->
<g id="edge10" class="edge">
<title>Node7&#45;&gt;Node10</title>
<path fill="none" stroke="#63b8ff" d="M1147.78,-71.3C1210.98,-65.24 1348.31,-50.8 1462.82,-30 1466.94,-29.25 1471.21,-28.39 1475.48,-27.48"/>
<polygon fill="#63b8ff" stroke="#63b8ff" points="1476.22,-30.91 1485.21,-25.31 1474.69,-24.08 1476.22,-30.91"/>
</g>
<!-- Node11 -->
<g id="node11" class="node">
<title>Node11</title>
<g id="a_node11"><a xlink:title=" ">
<polygon fill="#e0e0e0" stroke="#999999" points="1699.32,-30 1590.32,-30 1590.32,0 1699.32,0 1699.32,-30"/>
<text text-anchor="start" x="1598.32" y="-18" font-family="Helvetica,sans-Serif" font-size="10.00">boost/log/utility/setup</text>
<text text-anchor="middle" x="1644.82" y="-7" font-family="Helvetica,sans-Serif" font-size="10.00">/console.hpp</text>
</a>
</g>
</g>
<!-- Node7&#45;&gt;Node11 -->
<g id="edge11" class="edge">
<title>Node7&#45;&gt;Node11</title>
<path fill="none" stroke="#63b8ff" d="M1147.71,-72.67C1224.17,-68.36 1412.33,-56 1578.97,-30.33"/>
<polygon fill="#63b8ff" stroke="#63b8ff" points="1579.08,-33.86 1588.42,-28.85 1578,-26.94 1579.08,-33.86"/>
</g>
<!-- Node12 -->
<g id="node12" class="node">
<title>Node12</title>
<g id="a_node12"><a xlink:title=" ">
<polygon fill="#e0e0e0" stroke="#999999" points="921.32,-30 790.32,-30 790.32,0 921.32,0 921.32,-30"/>
<text text-anchor="start" x="798.32" y="-18" font-family="Helvetica,sans-Serif" font-size="10.00">boost/log/sources/severity</text>
<text text-anchor="middle" x="855.82" y="-7" font-family="Helvetica,sans-Serif" font-size="10.00">_channel_logger.hpp</text>
</a>
</g>
</g>
<!-- Node7&#45;&gt;Node12 -->
<g id="edge12" class="edge">
<title>Node7&#45;&gt;Node12</title>
<path fill="none" stroke="#63b8ff" d="M1077.89,-66.55C1040.2,-57.97 979.06,-44.05 930.46,-32.99"/>
<polygon fill="#63b8ff" stroke="#63b8ff" points="931.35,-29.6 920.82,-30.8 929.8,-36.43 931.35,-29.6"/>
</g>
<!-- Node13 -->
<g id="node13" class="node">
<title>Node13</title>
<g id="a_node13"><a xlink:title=" ">
<polygon fill="#e0e0e0" stroke="#999999" points="1052.32,-30 939.32,-30 939.32,0 1052.32,0 1052.32,-30"/>
<text text-anchor="start" x="947.32" y="-18" font-family="Helvetica,sans-Serif" font-size="10.00">boost/log/support/date</text>
<text text-anchor="middle" x="995.82" y="-7" font-family="Helvetica,sans-Serif" font-size="10.00">_time.hpp</text>
</a>
</g>
</g>
<!-- Node7&#45;&gt;Node13 -->
<g id="edge13" class="edge">
<title>Node7&#45;&gt;Node13</title>
<path fill="none" stroke="#63b8ff" d="M1095.05,-65.62C1079.15,-57.67 1055.29,-45.74 1034.95,-35.57"/>
<polygon fill="#63b8ff" stroke="#63b8ff" points="1036.56,-32.46 1026.05,-31.12 1033.43,-38.72 1036.56,-32.46"/>
</g>
<!-- Node14 -->
<g id="node14" class="node">
<title>Node14</title>
<g id="a_node14"><a xlink:title=" ">
<polygon fill="#e0e0e0" stroke="#999999" points="1191.32,-30 1070.32,-30 1070.32,0 1191.32,0 1191.32,-30"/>
<text text-anchor="start" x="1078.32" y="-18" font-family="Helvetica,sans-Serif" font-size="10.00">boost/log/utility/setup</text>
<text text-anchor="middle" x="1130.82" y="-7" font-family="Helvetica,sans-Serif" font-size="10.00">/common_attributes.hpp</text>
</a>
</g>
</g>
<!-- Node7&#45;&gt;Node14 -->
<g id="edge14" class="edge">
<title>Node7&#45;&gt;Node14</title>
<path fill="none" stroke="#63b8ff" d="M1115.47,-65.87C1117.51,-59.25 1120.42,-49.78 1123.17,-40.86"/>
<polygon fill="#63b8ff" stroke="#63b8ff" points="1126.43,-42.15 1126.03,-31.56 1119.74,-40.09 1126.43,-42.15"/>
</g>
<!-- Node15&#45;&gt;Node7 -->
<g id="edge26" class="edge">
<title>Node15&#45;&gt;Node7</title>
<path fill="none" stroke="#63b8ff" d="M938.18,-236.06C961.94,-218.65 1015.2,-178.55 1055.82,-140 1071.38,-125.23 1087.58,-106.84 1098.71,-93.66"/>
<polygon fill="#63b8ff" stroke="#63b8ff" points="1101.16,-96.2 1104.87,-86.28 1095.78,-91.71 1101.16,-96.2"/>
</g>
<!-- Node16 -->
<g id="node16" class="node">
<title>Node16</title>
<g id="a_node16"><a xlink:href="_dma_buffer_abstract_8hpp.html" target="_top" xlink:title=" ">
<polygon fill="white" stroke="#666666" points="830.32,-195 713.32,-195 713.32,-176 830.32,-176 830.32,-195"/>
<text text-anchor="middle" x="771.82" y="-183" font-family="Helvetica,sans-Serif" font-size="10.00">DmaBufferAbstract.hpp</text>
</a>
</g>
</g>
<!-- Node15&#45;&gt;Node16 -->
<g id="edge16" class="edge">
<title>Node15&#45;&gt;Node16</title>
<path fill="none" stroke="#63b8ff" d="M902.43,-236.12C876.76,-226.37 835.32,-210.62 806.01,-199.49"/>
<polygon fill="#63b8ff" stroke="#63b8ff" points="807.43,-196.29 796.84,-196.01 804.94,-202.83 807.43,-196.29"/>
</g>
<!-- Node16&#45;&gt;Node4 -->
<g id="edge18" class="edge">
<title>Node16&#45;&gt;Node4</title>
<path fill="none" stroke="#63b8ff" d="M814.73,-175.51C864.66,-165.05 946.04,-148 991.47,-138.49"/>
<polygon fill="#63b8ff" stroke="#63b8ff" points="991.92,-141.97 1000.99,-136.49 990.48,-135.12 991.92,-141.97"/>
</g>
<!-- Node16&#45;&gt;Node6 -->
<g id="edge19" class="edge">
<title>Node16&#45;&gt;Node6</title>
<path fill="none" stroke="#63b8ff" d="M779.43,-175.66C794.75,-157.86 829.59,-117.41 849.71,-94.04"/>
<polygon fill="#63b8ff" stroke="#63b8ff" points="852.24,-96.47 856.11,-86.61 846.93,-91.9 852.24,-96.47"/>
</g>
<!-- Node17 -->
<g id="node17" class="node">
<title>Node17</title>
<g id="a_node17"><a xlink:title=" ">
<polygon fill="#e0e0e0" stroke="#999999" points="613.82,-140 567.82,-140 567.82,-121 613.82,-121 613.82,-140"/>
<text text-anchor="middle" x="590.82" y="-128" font-family="Helvetica,sans-Serif" font-size="10.00">cstdint</text>
</a>
</g>
</g>
<!-- Node16&#45;&gt;Node17 -->
<g id="edge17" class="edge">
<title>Node16&#45;&gt;Node17</title>
<path fill="none" stroke="#63b8ff" d="M741.11,-175.51C708.85,-166.06 658.24,-151.24 624.8,-141.45"/>
<polygon fill="#63b8ff" stroke="#63b8ff" points="626.2,-138.22 615.62,-138.76 624.24,-144.93 626.2,-138.22"/>
</g>
<!-- Node18 -->
<g id="node18" class="node">
<title>Node18</title>
<g id="a_node18"><a xlink:href="_uio_config_8hpp.html" target="_top" xlink:title=" ">
<polygon fill="white" stroke="#666666" points="739.32,-85 628.32,-85 628.32,-66 739.32,-66 739.32,-85"/>
<text text-anchor="middle" x="683.82" y="-73" font-family="Helvetica,sans-Serif" font-size="10.00">udmaio/UioConfig.hpp</text>
</a>
</g>
</g>
<!-- Node16&#45;&gt;Node18 -->
<g id="edge20" class="edge">
<title>Node16&#45;&gt;Node18</title>
<path fill="none" stroke="#63b8ff" d="M764.61,-175.66C750.17,-157.94 717.44,-117.77 698.36,-94.35"/>
<polygon fill="#63b8ff" stroke="#63b8ff" points="701.1,-92.18 692.07,-86.63 695.68,-96.6 701.1,-92.18"/>
</g>
<!-- Node18&#45;&gt;Node3 -->
<g id="edge24" class="edge">
<title>Node18&#45;&gt;Node3</title>
<path fill="none" stroke="#63b8ff" d="M694.14,-65.62C704.43,-56.77 720.45,-42.98 733,-32.19"/>
<polygon fill="#63b8ff" stroke="#63b8ff" points="734.94,-35.13 740.24,-25.96 730.38,-29.82 734.94,-35.13"/>
</g>
<!-- Node18&#45;&gt;Node19 -->
<g id="edge21" class="edge">
<title>Node18&#45;&gt;Node19</title>
<path fill="none" stroke="#63b8ff" d="M633.49,-65.55C567.34,-53.79 452.58,-33.38 393.07,-22.8"/>
<polygon fill="#63b8ff" stroke="#63b8ff" points="393.88,-19.39 383.43,-21.09 392.66,-26.28 393.88,-19.39"/>
</g>
<!-- Node20 -->
<g id="node20" class="node">
<title>Node20</title>
<g id="a_node20"><a xlink:title=" ">
<polygon fill="#e0e0e0" stroke="#999999" points="501.32,-24.5 450.32,-24.5 450.32,-5.5 501.32,-5.5 501.32,-24.5"/>
<text text-anchor="middle" x="475.82" y="-12.5" font-family="Helvetica,sans-Serif" font-size="10.00">memory</text>
</a>
</g>
</g>
<!-- Node18&#45;&gt;Node20 -->
<g id="edge22" class="edge">
<title>Node18&#45;&gt;Node20</title>
<path fill="none" stroke="#63b8ff" d="M652.22,-65.62C614.78,-55.08 552.48,-37.56 512.81,-26.41"/>
<polygon fill="#63b8ff" stroke="#63b8ff" points="513.81,-23.05 503.23,-23.71 511.91,-29.79 513.81,-23.05"/>
</g>
<!-- Node21 -->
<g id="node21" class="node">
<title>Node21</title>
<g id="a_node21"><a xlink:title=" ">
<polygon fill="#e0e0e0" stroke="#999999" points="713.32,-24.5 654.32,-24.5 654.32,-5.5 713.32,-5.5 713.32,-24.5"/>
<text text-anchor="middle" x="683.82" y="-12.5" font-family="Helvetica,sans-Serif" font-size="10.00">stdexcept</text>
</a>
</g>
</g>
<!-- Node18&#45;&gt;Node21 -->
<g id="edge23" class="edge">
<title>Node18&#45;&gt;Node21</title>
<path fill="none" stroke="#63b8ff" d="M683.82,-65.87C683.82,-58 683.82,-46.1 683.82,-35.89"/>
<polygon fill="#63b8ff" stroke="#63b8ff" points="687.32,-36.18 683.82,-26.18 680.32,-36.18 687.32,-36.18"/>
</g>
<!-- Node22 -->
<g id="node22" class="node">
<title>Node22</title>
<g id="a_node22"><a xlink:title=" ">
<polygon fill="#e0e0e0" stroke="#999999" points="635.82,-24.5 569.82,-24.5 569.82,-5.5 635.82,-5.5 635.82,-24.5"/>
<text text-anchor="middle" x="602.82" y="-12.5" font-family="Helvetica,sans-Serif" font-size="10.00">string_view</text>
</a>
</g>
</g>
<!-- Node18&#45;&gt;Node22 -->
<g id="edge25" class="edge">
<title>Node18&#45;&gt;Node22</title>
<path fill="none" stroke="#63b8ff" d="M671.51,-65.62C659.02,-56.6 639.43,-42.45 624.36,-31.56"/>
<polygon fill="#63b8ff" stroke="#63b8ff" points="626.62,-28.87 616.46,-25.85 622.52,-34.55 626.62,-28.87"/>
</g>
<!-- Node24 -->
<g id="node24" class="node">
<title>Node24</title>
<g id="a_node24"><a xlink:href="_axi_dma_8hpp.html" target="_top" xlink:title=" ">
<polygon fill="white" stroke="#666666" points="525.82,-195 457.82,-195 457.82,-176 525.82,-176 525.82,-195"/>
<text text-anchor="middle" x="491.82" y="-183" font-family="Helvetica,sans-Serif" font-size="10.00">AxiDma.hpp</text>
</a>
</g>
</g>
<!-- Node23&#45;&gt;Node24 -->
<g id="edge28" class="edge">
<title>Node23&#45;&gt;Node24</title>
<path fill="none" stroke="#63b8ff" d="M439.23,-236.12C448.43,-227.44 462.65,-214.02 473.99,-203.32"/>
<polygon fill="#63b8ff" stroke="#63b8ff" points="476.34,-205.92 481.21,-196.51 471.53,-200.82 476.34,-205.92"/>
</g>
<!-- Node25 -->
<g id="node25" class="node">
<title>Node25</title>
<g id="a_node25"><a xlink:href="_reg_accessor_8hpp.html" target="_top" xlink:title=" ">
<polygon fill="white" stroke="#666666" points="637.32,-195 544.32,-195 544.32,-176 637.32,-176 637.32,-195"/>
<text text-anchor="middle" x="590.82" y="-183" font-family="Helvetica,sans-Serif" font-size="10.00">RegAccessor.hpp</text>
</a>
</g>
</g>
<!-- Node23&#45;&gt;Node25 -->
<g id="edge30" class="edge">
<title>Node23&#45;&gt;Node25</title>
<path fill="none" stroke="#63b8ff" d="M454.27,-236.12C481.22,-226.32 524.81,-210.48 555.47,-199.34"/>
<polygon fill="#63b8ff" stroke="#63b8ff" points="556.51,-202.69 564.71,-195.99 554.12,-196.11 556.51,-202.69"/>
</g>
<!-- Node26 -->
<g id="node26" class="node">
<title>Node26</title>
<g id="a_node26"><a xlink:href="_uio_if_8hpp.html" target="_top" xlink:title=" ">
<polygon fill="white" stroke="#666666" points="495.82,-140 405.82,-140 405.82,-121 495.82,-121 495.82,-140"/>
<text text-anchor="middle" x="450.82" y="-128" font-family="Helvetica,sans-Serif" font-size="10.00">udmaio/UioIf.hpp</text>
</a>
</g>
</g>
<!-- Node23&#45;&gt;Node26 -->
<g id="edge46" class="edge">
<title>Node23&#45;&gt;Node26</title>
<path fill="none" stroke="#63b8ff" d="M431.46,-236.09C434.82,-217.94 442.53,-176.29 447.14,-151.37"/>
<polygon fill="#63b8ff" stroke="#63b8ff" points="450.52,-152.32 448.9,-141.85 443.64,-151.05 450.52,-152.32"/>
</g>
<!-- Node24&#45;&gt;Node17 -->
<g id="edge29" class="edge">
<title>Node24&#45;&gt;Node17</title>
<path fill="none" stroke="#63b8ff" d="M508.61,-175.51C523.92,-167.31 546.79,-155.07 564.52,-145.58"/>
<polygon fill="#63b8ff" stroke="#63b8ff" points="565.77,-148.88 572.93,-141.07 562.47,-142.71 565.77,-148.88"/>
</g>
<!-- Node25&#45;&gt;Node17 -->
<g id="edge31" class="edge">
<title>Node25&#45;&gt;Node17</title>
<path fill="none" stroke="#63b8ff" d="M590.82,-175.75C590.82,-169.27 590.82,-160.16 590.82,-151.9"/>
<polygon fill="#63b8ff" stroke="#63b8ff" points="594.32,-151.96 590.82,-141.96 587.32,-151.96 594.32,-151.96"/>
</g>
<!-- Node25&#45;&gt;Node26 -->
<g id="edge32" class="edge">
<title>Node25&#45;&gt;Node26</title>
<path fill="none" stroke="#63b8ff" d="M567.07,-175.51C544.5,-166.97 510.34,-154.03 484.88,-144.4"/>
<polygon fill="#63b8ff" stroke="#63b8ff" points="486.22,-141.16 475.63,-140.89 483.74,-147.71 486.22,-141.16"/>
</g>
<!-- Node26&#45;&gt;Node3 -->
<g id="edge37" class="edge">
<title>Node26&#45;&gt;Node3</title>
<path fill="none" stroke="#63b8ff" d="M496.08,-125.89C575.27,-119.12 732.15,-103.51 748.82,-85 760.59,-71.92 759.85,-51.16 757.07,-35.82"/>
<polygon fill="#63b8ff" stroke="#63b8ff" points="760.57,-35.4 754.95,-26.41 753.74,-36.94 760.57,-35.4"/>
</g>
<!-- Node26&#45;&gt;Node6 -->
<g id="edge38" class="edge">
<title>Node26&#45;&gt;Node6</title>
<path fill="none" stroke="#63b8ff" d="M496.3,-123.68C565.66,-114.8 698.81,-97.75 784.64,-86.76"/>
<polygon fill="#63b8ff" stroke="#63b8ff" points="784.93,-90.26 794.4,-85.51 784.04,-83.31 784.93,-90.26"/>
</g>
<!-- Node26&#45;&gt;Node7 -->
<g id="edge44" class="edge">
<title>Node26&#45;&gt;Node7</title>
<path fill="none" stroke="#63b8ff" d="M496.06,-125.88C616.68,-116.22 945.08,-89.93 1066.7,-80.19"/>
<polygon fill="#63b8ff" stroke="#63b8ff" points="1066.95,-83.68 1076.64,-79.4 1066.39,-76.71 1066.95,-83.68"/>
</g>
<!-- Node26&#45;&gt;Node18 -->
<g id="edge45" class="edge">
<title>Node26&#45;&gt;Node18</title>
<path fill="none" stroke="#63b8ff" d="M490.34,-120.51C529.79,-111.54 590.56,-97.71 633.44,-87.96"/>
<polygon fill="#63b8ff" stroke="#63b8ff" points="634.04,-91.41 643.01,-85.78 632.48,-84.59 634.04,-91.41"/>
</g>
<!-- Node26&#45;&gt;Node19 -->
<g id="edge35" class="edge">
<title>Node26&#45;&gt;Node19</title>
<path fill="none" stroke="#63b8ff" d="M441.08,-120.7C431.66,-112 417.18,-98.12 405.82,-85 391.53,-68.51 376.9,-48.3 366.99,-34.03"/>
<polygon fill="#63b8ff" stroke="#63b8ff" points="370.08,-32.35 361.54,-26.07 364.31,-36.3 370.08,-32.35"/>
</g>
<!-- Node26&#45;&gt;Node20 -->
<g id="edge36" class="edge">
<title>Node26&#45;&gt;Node20</title>
<path fill="none" stroke="#63b8ff" d="M438.59,-120.56C423.76,-108.55 401.89,-86.35 411.82,-66 419.2,-50.85 433.65,-38.95 446.94,-30.56"/>
<polygon fill="#63b8ff" stroke="#63b8ff" points="448.57,-33.67 455.45,-25.6 445.04,-27.62 448.57,-33.67"/>
</g>
<!-- Node27 -->
<g id="node27" class="node">
<title>Node27</title>
<g id="a_node27"><a xlink:title=" ">
<polygon fill="#e0e0e0" stroke="#999999" points="480.82,-85 420.82,-85 420.82,-66 480.82,-66 480.82,-85"/>
<text text-anchor="middle" x="450.82" y="-73" font-family="Helvetica,sans-Serif" font-size="10.00">filesystem</text>
</a>
</g>
</g>
<!-- Node26&#45;&gt;Node27 -->
<g id="edge33" class="edge">
<title>Node26&#45;&gt;Node27</title>
<path fill="none" stroke="#63b8ff" d="M450.82,-120.75C450.82,-114.27 450.82,-105.16 450.82,-96.9"/>
<polygon fill="#63b8ff" stroke="#63b8ff" points="454.32,-96.96 450.82,-86.96 447.32,-96.96 454.32,-96.96"/>
</g>
<!-- Node28 -->
<g id="node28" class="node">
<title>Node28</title>
<g id="a_node28"><a xlink:title=" ">
<polygon fill="#e0e0e0" stroke="#999999" points="548.82,-85 498.82,-85 498.82,-66 548.82,-66 548.82,-85"/>
<text text-anchor="middle" x="523.82" y="-73" font-family="Helvetica,sans-Serif" font-size="10.00">fstream</text>
</a>
</g>
</g>
<!-- Node26&#45;&gt;Node28 -->
<g id="edge34" class="edge">
<title>Node26&#45;&gt;Node28</title>
<path fill="none" stroke="#63b8ff" d="M463.2,-120.51C473.96,-112.7 489.79,-101.21 502.57,-91.93"/>
<polygon fill="#63b8ff" stroke="#63b8ff" points="504.35,-94.95 510.39,-86.25 500.24,-89.29 504.35,-94.95"/>
</g>
<!-- Node29 -->
<g id="node29" class="node">
<title>Node29</title>
<g id="a_node29"><a xlink:title=" ">
<polygon fill="#e0e0e0" stroke="#999999" points="610.32,-85 567.32,-85 567.32,-66 610.32,-66 610.32,-85"/>
<text text-anchor="middle" x="588.82" y="-73" font-family="Helvetica,sans-Serif" font-size="10.00">fcntl.h</text>
</a>
</g>
</g>
<!-- Node26&#45;&gt;Node29 -->
<g id="edge39" class="edge">
<title>Node26&#45;&gt;Node29</title>
<path fill="none" stroke="#63b8ff" d="M474.23,-120.51C496.87,-111.81 531.36,-98.57 556.59,-88.88"/>
<polygon fill="#63b8ff" stroke="#63b8ff" points="557.62,-92.23 565.7,-85.38 555.11,-85.7 557.62,-92.23"/>
</g>
<!-- Node30 -->
<g id="node30" class="node">
<title>Node30</title>
<g id="a_node30"><a xlink:title=" ">
<polygon fill="#e0e0e0" stroke="#999999" points="98.32,-85 29.32,-85 29.32,-66 98.32,-66 98.32,-85"/>
<text text-anchor="middle" x="63.82" y="-73" font-family="Helvetica,sans-Serif" font-size="10.00">sys/mman.h</text>
</a>
</g>
</g>
<!-- Node26&#45;&gt;Node30 -->
<g id="edge40" class="edge">
<title>Node26&#45;&gt;Node30</title>
<path fill="none" stroke="#63b8ff" d="M405.32,-124.59C341.47,-117.49 221.41,-103.35 109.65,-85.37"/>
<polygon fill="#63b8ff" stroke="#63b8ff" points="110.44,-81.96 100.01,-83.81 109.32,-88.87 110.44,-81.96"/>
</g>
<!-- Node31 -->
<g id="node31" class="node">
<title>Node31</title>
<g id="a_node31"><a xlink:title=" ">
<polygon fill="#e0e0e0" stroke="#999999" points="175.32,-85 116.32,-85 116.32,-66 175.32,-66 175.32,-85"/>
<text text-anchor="middle" x="145.82" y="-73" font-family="Helvetica,sans-Serif" font-size="10.00">sys/stat.h</text>
</a>
</g>
</g>
<!-- Node26&#45;&gt;Node31 -->
<g id="edge41" class="edge">
<title>Node26&#45;&gt;Node31</title>
<path fill="none" stroke="#63b8ff" d="M405.33,-122.7C354.36,-114.9 269.04,-101.34 186.72,-85.49"/>
<polygon fill="#63b8ff" stroke="#63b8ff" points="187.62,-82.1 177.14,-83.63 186.29,-88.97 187.62,-82.1"/>
</g>
<!-- Node32 -->
<g id="node32" class="node">
<title>Node32</title>
<g id="a_node32"><a xlink:title=" ">
<polygon fill="#e0e0e0" stroke="#999999" points="258.32,-85 193.32,-85 193.32,-66 258.32,-66 258.32,-85"/>
<text text-anchor="middle" x="225.82" y="-73" font-family="Helvetica,sans-Serif" font-size="10.00">sys/types.h</text>
</a>
</g>
</g>
<!-- Node26&#45;&gt;Node32 -->
<g id="edge42" class="edge">
<title>Node26&#45;&gt;Node32</title>
<path fill="none" stroke="#63b8ff" d="M412.65,-120.51C373.11,-111.2 311.4,-96.66 269.83,-86.87"/>
<polygon fill="#63b8ff" stroke="#63b8ff" points="270.68,-83.47 260.15,-84.59 269.08,-90.29 270.68,-83.47"/>
</g>
<!-- Node33 -->
<g id="node33" class="node">
<title>Node33</title>
<g id="a_node33"><a xlink:title=" ">
<polygon fill="#e0e0e0" stroke="#999999" points="326.82,-85 276.82,-85 276.82,-66 326.82,-66 326.82,-85"/>
<text text-anchor="middle" x="301.82" y="-73" font-family="Helvetica,sans-Serif" font-size="10.00">unistd.h</text>
</a>
</g>
</g>
<!-- Node26&#45;&gt;Node33 -->
<g id="edge43" class="edge">
<title>Node26&#45;&gt;Node33</title>
<path fill="none" stroke="#63b8ff" d="M425.54,-120.51C401.31,-111.89 364.51,-98.8 337.34,-89.14"/>
<polygon fill="#63b8ff" stroke="#63b8ff" points="338.74,-85.92 328.14,-85.87 336.39,-92.51 338.74,-85.92"/>
</g>
<!-- Node34&#45;&gt;Node16 -->
<g id="edge48" class="edge">
<title>Node34&#45;&gt;Node16</title>
<path fill="none" stroke="#63b8ff" d="M778.63,-236.37C777.56,-228.5 775.93,-216.6 774.54,-206.39"/>
<polygon fill="#63b8ff" stroke="#63b8ff" points="778.03,-206.1 773.21,-196.67 771.09,-207.05 778.03,-206.1"/>
</g>
<!-- Node34&#45;&gt;Node25 -->
<g id="edge49" class="edge">
<title>Node34&#45;&gt;Node25</title>
<path fill="none" stroke="#63b8ff" d="M751.11,-236.12C718.92,-226.15 666.5,-209.93 630.42,-198.76"/>
<polygon fill="#63b8ff" stroke="#63b8ff" points="631.82,-195.53 621.24,-195.92 629.75,-202.22 631.82,-195.53"/>
</g>
</g>
</svg>
