<?xml version="1.0" encoding="UTF-8" standalone="no"?>
<!DOCTYPE svg PUBLIC "-//W3C//DTD SVG 1.1//EN"
 "http://www.w3.org/Graphics/SVG/1.1/DTD/svg11.dtd">
<!-- Generated by graphviz version 7.0.5 (20221223.1930)
 -->
<!-- Title: DataHandlerAbstract.cpp Pages: 1 -->
<svg width="2070pt" height="434pt"
 viewBox="0.00 0.00 2069.50 434.00" xmlns="http://www.w3.org/2000/svg" xmlns:xlink="http://www.w3.org/1999/xlink">
<g id="graph0" class="graph" transform="scale(1 1) rotate(0) translate(4 430)">
<title>DataHandlerAbstract.cpp</title>
<!-- Node1 -->
<g id="node1" class="node">
<title>Node1</title>
<g id="a_node1"><a xlink:title=" ">
<polygon fill="#999999" stroke="#666666" points="1968,-426 1843,-426 1843,-407 1968,-407 1968,-426"/>
<text text-anchor="middle" x="1905.5" y="-414" font-family="Helvetica,sans-Serif" font-size="10.00">DataHandlerAbstract.cpp</text>
</a>
</g>
</g>
<!-- Node2 -->
<g id="node2" class="node">
<title>Node2</title>
<g id="a_node2"><a xlink:href="_data_handler_abstract_8hpp.html" target="_top" xlink:title=" ">
<polygon fill="white" stroke="#666666" points="1365.5,-371 1205.5,-371 1205.5,-352 1365.5,-352 1365.5,-371"/>
<text text-anchor="middle" x="1285.5" y="-359" font-family="Helvetica,sans-Serif" font-size="10.00">udmaio/DataHandlerAbstract.hpp</text>
</a>
</g>
</g>
<!-- Node1&#45;&gt;Node2 -->
<g id="edge1" class="edge">
<title>Node1&#45;&gt;Node2</title>
<path fill="none" stroke="#63b8ff" d="M1842.64,-410.13C1732.59,-400.72 1504.64,-381.23 1377.05,-370.33"/>
<polygon fill="#63b8ff" stroke="#63b8ff" points="1377.55,-366.86 1367.29,-369.49 1376.96,-373.83 1377.55,-366.86"/>
</g>
<!-- Node3 -->
<g id="node3" class="node">
<title>Node3</title>
<g id="a_node3"><a xlink:title=" ">
<polygon fill="#e0e0e0" stroke="#999999" points="861.5,-195 817.5,-195 817.5,-176 861.5,-176 861.5,-195"/>
<text text-anchor="middle" x="839.5" y="-183" font-family="Helvetica,sans-Serif" font-size="10.00">vector</text>
</a>
</g>
</g>
<!-- Node1&#45;&gt;Node3 -->
<g id="edge54" class="edge">
<title>Node1&#45;&gt;Node3</title>
<path fill="none" stroke="#63b8ff" d="M1842.57,-413.33C1630.97,-405.51 954.16,-376 878.5,-316 845.16,-289.57 839.48,-235.68 839,-206.44"/>
<polygon fill="#63b8ff" stroke="#63b8ff" points="842.5,-206.78 839.06,-196.76 835.5,-206.75 842.5,-206.78"/>
</g>
<!-- Node13 -->
<g id="node13" class="node">
<title>Node13</title>
<g id="a_node13"><a xlink:title=" ">
<polygon fill="#e0e0e0" stroke="#999999" points="1619.5,-19 1565.5,-19 1565.5,0 1619.5,0 1619.5,-19"/>
<text text-anchor="middle" x="1592.5" y="-7" font-family="Helvetica,sans-Serif" font-size="10.00">iostream</text>
</a>
</g>
</g>
<!-- Node1&#45;&gt;Node13 -->
<g id="edge53" class="edge">
<title>Node1&#45;&gt;Node13</title>
<path fill="none" stroke="#63b8ff" d="M1905.5,-406.67C1905.5,-387.58 1905.5,-341.02 1905.5,-302 1905.5,-302 1905.5,-302 1905.5,-129.5 1905.5,-95.33 1911.83,-77.93 1886.5,-55 1849.61,-21.61 1701.58,-13.27 1630.7,-11.19"/>
<polygon fill="#63b8ff" stroke="#63b8ff" points="1631.21,-7.7 1621.12,-10.94 1631.03,-14.7 1631.21,-7.7"/>
</g>
<!-- Node36 -->
<g id="node36" class="node">
<title>Node36</title>
<g id="a_node36"><a xlink:title=" ">
<polygon fill="#e0e0e0" stroke="#999999" points="1993,-371 1934,-371 1934,-352 1993,-352 1993,-371"/>
<text text-anchor="middle" x="1963.5" y="-359" font-family="Helvetica,sans-Serif" font-size="10.00">functional</text>
</a>
</g>
</g>
<!-- Node1&#45;&gt;Node36 -->
<g id="edge51" class="edge">
<title>Node1&#45;&gt;Node36</title>
<path fill="none" stroke="#63b8ff" d="M1915.34,-406.51C1923.55,-399 1935.48,-388.1 1945.41,-379.03"/>
<polygon fill="#63b8ff" stroke="#63b8ff" points="1947.67,-381.71 1952.69,-372.38 1942.95,-376.54 1947.67,-381.71"/>
</g>
<!-- Node37 -->
<g id="node37" class="node">
<title>Node37</title>
<g id="a_node37"><a xlink:title=" ">
<polygon fill="#e0e0e0" stroke="#999999" points="2061.5,-371 2011.5,-371 2011.5,-352 2061.5,-352 2061.5,-371"/>
<text text-anchor="middle" x="2036.5" y="-359" font-family="Helvetica,sans-Serif" font-size="10.00">iomanip</text>
</a>
</g>
</g>
<!-- Node1&#45;&gt;Node37 -->
<g id="edge52" class="edge">
<title>Node1&#45;&gt;Node37</title>
<path fill="none" stroke="#63b8ff" d="M1927.72,-406.51C1948.64,-398.04 1980.23,-385.27 2003.98,-375.66"/>
<polygon fill="#63b8ff" stroke="#63b8ff" points="2005.25,-378.92 2013.2,-371.93 2002.62,-372.43 2005.25,-378.92"/>
</g>
<!-- Node2&#45;&gt;Node3 -->
<g id="edge2" class="edge">
<title>Node2&#45;&gt;Node3</title>
<path fill="none" stroke="#63b8ff" d="M1205.2,-359.28C1110.17,-356.43 958.96,-346.98 912.5,-316 873.42,-289.94 853.01,-235.48 844.48,-206.17"/>
<polygon fill="#63b8ff" stroke="#63b8ff" points="847.92,-205.5 841.92,-196.77 841.17,-207.34 847.92,-205.5"/>
</g>
<!-- Node4 -->
<g id="node4" class="node">
<title>Node4</title>
<g id="a_node4"><a xlink:title=" ">
<polygon fill="#e0e0e0" stroke="#999999" points="1325.5,-310.5 1245.5,-310.5 1245.5,-291.5 1325.5,-291.5 1325.5,-310.5"/>
<text text-anchor="middle" x="1285.5" y="-298.5" font-family="Helvetica,sans-Serif" font-size="10.00">boost/asio.hpp</text>
</a>
</g>
</g>
<!-- Node2&#45;&gt;Node4 -->
<g id="edge3" class="edge">
<title>Node2&#45;&gt;Node4</title>
<path fill="none" stroke="#63b8ff" d="M1285.5,-351.87C1285.5,-344 1285.5,-332.1 1285.5,-321.89"/>
<polygon fill="#63b8ff" stroke="#63b8ff" points="1289,-322.18 1285.5,-312.18 1282,-322.18 1289,-322.18"/>
</g>
<!-- Node5 -->
<g id="node5" class="node">
<title>Node5</title>
<g id="a_node5"><a xlink:title=" ">
<polygon fill="#e0e0e0" stroke="#999999" points="1877,-79.5 1740,-79.5 1740,-60.5 1877,-60.5 1877,-79.5"/>
<text text-anchor="middle" x="1808.5" y="-67.5" font-family="Helvetica,sans-Serif" font-size="10.00">boost/core/noncopyable.hpp</text>
</a>
</g>
</g>
<!-- Node2&#45;&gt;Node5 -->
<g id="edge4" class="edge">
<title>Node2&#45;&gt;Node5</title>
<path fill="none" stroke="#63b8ff" d="M1365.88,-354.48C1489.33,-343 1711.5,-312.48 1711.5,-241.5 1711.5,-241.5 1711.5,-241.5 1711.5,-184.5 1711.5,-140.45 1754.26,-104.86 1782.99,-85.92"/>
<polygon fill="#63b8ff" stroke="#63b8ff" points="1784.62,-89.03 1791.2,-80.73 1780.88,-83.11 1784.62,-89.03"/>
</g>
<!-- Node6 -->
<g id="node6" class="node">
<title>Node6</title>
<g id="a_node6"><a xlink:title=" ">
<polygon fill="#e0e0e0" stroke="#999999" points="1722,-79.5 1621,-79.5 1621,-60.5 1722,-60.5 1722,-79.5"/>
<text text-anchor="middle" x="1671.5" y="-67.5" font-family="Helvetica,sans-Serif" font-size="10.00">boost/log/trivial.hpp</text>
</a>
</g>
</g>
<!-- Node2&#45;&gt;Node6 -->
<g id="edge5" class="edge">
<title>Node2&#45;&gt;Node6</title>
<path fill="none" stroke="#63b8ff" d="M1355.14,-351.54C1401.1,-344.24 1455.79,-332.44 1472.5,-316 1496.86,-292.03 1491.5,-275.67 1491.5,-241.5 1491.5,-241.5 1491.5,-241.5 1491.5,-184.5 1491.5,-126.38 1559.47,-96.83 1611.87,-82.69"/>
<polygon fill="#63b8ff" stroke="#63b8ff" points="1612.5,-86.14 1621.32,-80.27 1610.77,-79.36 1612.5,-86.14"/>
</g>
<!-- Node7 -->
<g id="node7" class="node">
<title>Node7</title>
<g id="a_node7"><a xlink:href="_u_dma_buf_8hpp.html" target="_top" xlink:title=" ">
<polygon fill="white" stroke="#666666" points="999,-310.5 922,-310.5 922,-291.5 999,-291.5 999,-310.5"/>
<text text-anchor="middle" x="960.5" y="-298.5" font-family="Helvetica,sans-Serif" font-size="10.00">UDmaBuf.hpp</text>
</a>
</g>
</g>
<!-- Node2&#45;&gt;Node7 -->
<g id="edge6" class="edge">
<title>Node2&#45;&gt;Node7</title>
<path fill="none" stroke="#63b8ff" d="M1214.16,-351.53C1157.94,-343.86 1077.76,-331.6 1008.5,-316 1005.72,-315.37 1002.87,-314.68 1000,-313.94"/>
<polygon fill="#63b8ff" stroke="#63b8ff" points="1001.06,-310.6 990.49,-311.35 999.22,-317.36 1001.06,-310.6"/>
</g>
<!-- Node18 -->
<g id="node18" class="node">
<title>Node18</title>
<g id="a_node18"><a xlink:href="_uio_axi_dma_if_8hpp.html" target="_top" xlink:title=" ">
<polygon fill="white" stroke="#666666" points="1227,-310.5 1138,-310.5 1138,-291.5 1227,-291.5 1227,-310.5"/>
<text text-anchor="middle" x="1182.5" y="-298.5" font-family="Helvetica,sans-Serif" font-size="10.00">UioAxiDmaIf.hpp</text>
</a>
</g>
</g>
<!-- Node2&#45;&gt;Node18 -->
<g id="edge20" class="edge">
<title>Node2&#45;&gt;Node18</title>
<path fill="none" stroke="#63b8ff" d="M1269.86,-351.62C1253.52,-342.34 1227.63,-327.63 1208.27,-316.64"/>
<polygon fill="#63b8ff" stroke="#63b8ff" points="1210.03,-313.61 1199.61,-311.72 1206.57,-319.7 1210.03,-313.61"/>
</g>
<!-- Node34 -->
<g id="node34" class="node">
<title>Node34</title>
<g id="a_node34"><a xlink:href="_uio_mem_sgdma_8hpp.html" target="_top" xlink:title=" ">
<polygon fill="white" stroke="#666666" points="1119.5,-310.5 1017.5,-310.5 1017.5,-291.5 1119.5,-291.5 1119.5,-310.5"/>
<text text-anchor="middle" x="1068.5" y="-298.5" font-family="Helvetica,sans-Serif" font-size="10.00">UioMemSgdma.hpp</text>
</a>
</g>
</g>
<!-- Node2&#45;&gt;Node34 -->
<g id="edge47" class="edge">
<title>Node2&#45;&gt;Node34</title>
<path fill="none" stroke="#63b8ff" d="M1252.54,-351.62C1215.18,-341.54 1154.1,-325.08 1112.64,-313.9"/>
<polygon fill="#63b8ff" stroke="#63b8ff" points="1113.8,-310.59 1103.23,-311.36 1111.97,-317.34 1113.8,-310.59"/>
</g>
<!-- Node35 -->
<g id="node35" class="node">
<title>Node35</title>
<g id="a_node35"><a xlink:title=" ">
<polygon fill="#e0e0e0" stroke="#999999" points="1463.5,-316 1343.5,-316 1343.5,-286 1463.5,-286 1463.5,-316"/>
<text text-anchor="start" x="1351.5" y="-304" font-family="Helvetica,sans-Serif" font-size="10.00">boost/asio/posix/stream</text>
<text text-anchor="middle" x="1403.5" y="-293" font-family="Helvetica,sans-Serif" font-size="10.00">_descriptor.hpp</text>
</a>
</g>
</g>
<!-- Node2&#45;&gt;Node35 -->
<g id="edge50" class="edge">
<title>Node2&#45;&gt;Node35</title>
<path fill="none" stroke="#63b8ff" d="M1303.42,-351.62C1319.53,-343.63 1343.74,-331.63 1364.31,-321.43"/>
<polygon fill="#63b8ff" stroke="#63b8ff" points="1365.61,-324.69 1373.02,-317.11 1362.5,-318.42 1365.61,-324.69"/>
</g>
<!-- Node7&#45;&gt;Node6 -->
<g id="edge9" class="edge">
<title>Node7&#45;&gt;Node6</title>
<path fill="none" stroke="#63b8ff" d="M961.28,-291.2C963,-276.83 968.35,-248.2 984.5,-231 1027.73,-184.97 1055.03,-194.18 1115.5,-176 1127.46,-172.4 1471.71,-108.18 1612.43,-81.99"/>
<polygon fill="#63b8ff" stroke="#63b8ff" points="1612.72,-85.49 1621.91,-80.22 1611.44,-78.61 1612.72,-85.49"/>
</g>
<!-- Node8 -->
<g id="node8" class="node">
<title>Node8</title>
<g id="a_node8"><a xlink:title=" ">
<polygon fill="#e0e0e0" stroke="#999999" points="277.5,-79.5 159.5,-79.5 159.5,-60.5 277.5,-60.5 277.5,-79.5"/>
<text text-anchor="middle" x="218.5" y="-67.5" font-family="Helvetica,sans-Serif" font-size="10.00">boost/log/core/core.hpp</text>
</a>
</g>
</g>
<!-- Node7&#45;&gt;Node8 -->
<g id="edge7" class="edge">
<title>Node7&#45;&gt;Node8</title>
<path fill="none" stroke="#63b8ff" d="M960.84,-291.01C961.44,-261.03 958.88,-164.01 903.5,-121 849.27,-78.87 354.59,-93.95 286.5,-85 280.52,-84.21 274.29,-83.2 268.12,-82.08"/>
<polygon fill="#63b8ff" stroke="#63b8ff" points="269.14,-78.71 258.66,-80.26 267.82,-85.59 269.14,-78.71"/>
</g>
<!-- Node9 -->
<g id="node9" class="node">
<title>Node9</title>
<g id="a_node9"><a xlink:title=" ">
<polygon fill="#e0e0e0" stroke="#999999" points="141,-79.5 0,-79.5 0,-60.5 141,-60.5 141,-79.5"/>
<text text-anchor="middle" x="70.5" y="-67.5" font-family="Helvetica,sans-Serif" font-size="10.00">boost/log/sources/logger.hpp</text>
</a>
</g>
</g>
<!-- Node7&#45;&gt;Node9 -->
<g id="edge8" class="edge">
<title>Node7&#45;&gt;Node9</title>
<path fill="none" stroke="#63b8ff" d="M957.08,-291.19C947.48,-267.81 917.89,-204.04 870.5,-176 592.92,-11.74 469.45,-133.04 150.5,-85 144.07,-84.03 137.36,-82.96 130.68,-81.85"/>
<polygon fill="#63b8ff" stroke="#63b8ff" points="131.45,-78.43 121.01,-80.21 130.28,-85.33 131.45,-78.43"/>
</g>
<!-- Node10 -->
<g id="node10" class="node">
<title>Node10</title>
<g id="a_node10"><a xlink:href="_dma_buffer_abstract_8hpp.html" target="_top" xlink:title=" ">
<polygon fill="white" stroke="#666666" points="1111,-250 994,-250 994,-231 1111,-231 1111,-250"/>
<text text-anchor="middle" x="1052.5" y="-238" font-family="Helvetica,sans-Serif" font-size="10.00">DmaBufferAbstract.hpp</text>
</a>
</g>
</g>
<!-- Node7&#45;&gt;Node10 -->
<g id="edge10" class="edge">
<title>Node7&#45;&gt;Node10</title>
<path fill="none" stroke="#63b8ff" d="M974.47,-291.12C988.93,-281.92 1011.76,-267.41 1029,-256.44"/>
<polygon fill="#63b8ff" stroke="#63b8ff" points="1030.56,-259.6 1037.12,-251.28 1026.8,-253.69 1030.56,-259.6"/>
</g>
<!-- Node10&#45;&gt;Node3 -->
<g id="edge12" class="edge">
<title>Node10&#45;&gt;Node3</title>
<path fill="none" stroke="#63b8ff" d="M1016.37,-230.51C976.16,-220.5 911.73,-204.47 872.73,-194.77"/>
<polygon fill="#63b8ff" stroke="#63b8ff" points="873.76,-191.42 863.21,-192.4 872.07,-198.21 873.76,-191.42"/>
</g>
<!-- Node10&#45;&gt;Node5 -->
<g id="edge13" class="edge">
<title>Node10&#45;&gt;Node5</title>
<path fill="none" stroke="#63b8ff" d="M1064.07,-230.69C1083.09,-216.71 1122.63,-189.6 1160.5,-176 1402.36,-89.14 1478.18,-128.21 1731.5,-85 1737.13,-84.04 1742.99,-83.02 1748.85,-81.98"/>
<polygon fill="#63b8ff" stroke="#63b8ff" points="1749.34,-85.45 1758.57,-80.24 1748.11,-78.56 1749.34,-85.45"/>
</g>
<!-- Node11 -->
<g id="node11" class="node">
<title>Node11</title>
<g id="a_node11"><a xlink:title=" ">
<polygon fill="#e0e0e0" stroke="#999999" points="1323.5,-195 1277.5,-195 1277.5,-176 1323.5,-176 1323.5,-195"/>
<text text-anchor="middle" x="1300.5" y="-183" font-family="Helvetica,sans-Serif" font-size="10.00">cstdint</text>
</a>
</g>
</g>
<!-- Node10&#45;&gt;Node11 -->
<g id="edge11" class="edge">
<title>Node10&#45;&gt;Node11</title>
<path fill="none" stroke="#63b8ff" d="M1099.86,-230.54C1141.34,-222.52 1203.48,-210.07 1266.23,-195.43"/>
<polygon fill="#63b8ff" stroke="#63b8ff" points="1266.71,-198.92 1275.65,-193.22 1265.11,-192.1 1266.71,-198.92"/>
</g>
<!-- Node12 -->
<g id="node12" class="node">
<title>Node12</title>
<g id="a_node12"><a xlink:href="_uio_config_8hpp.html" target="_top" xlink:title=" ">
<polygon fill="white" stroke="#666666" points="407,-79.5 296,-79.5 296,-60.5 407,-60.5 407,-79.5"/>
<text text-anchor="middle" x="351.5" y="-67.5" font-family="Helvetica,sans-Serif" font-size="10.00">udmaio/UioConfig.hpp</text>
</a>
</g>
</g>
<!-- Node10&#45;&gt;Node12 -->
<g id="edge14" class="edge">
<title>Node10&#45;&gt;Node12</title>
<path fill="none" stroke="#63b8ff" d="M1047.45,-230.56C1033.85,-207.49 993.92,-145.98 941.5,-121 840.34,-72.79 549.82,-97.91 438.5,-85 430.46,-84.07 422.02,-82.92 413.69,-81.69"/>
<polygon fill="#63b8ff" stroke="#63b8ff" points="414.37,-78.25 403.96,-80.2 413.31,-85.17 414.37,-78.25"/>
</g>
<!-- Node12&#45;&gt;Node13 -->
<g id="edge15" class="edge">
<title>Node12&#45;&gt;Node13</title>
<path fill="none" stroke="#63b8ff" d="M407.36,-62.69C433.23,-59.97 464.4,-56.96 492.5,-55 907.49,-26.03 1411.98,-14.15 1553.79,-11.25"/>
<polygon fill="#63b8ff" stroke="#63b8ff" points="1553.81,-14.75 1563.74,-11.05 1553.67,-7.75 1553.81,-14.75"/>
</g>
<!-- Node14 -->
<g id="node14" class="node">
<title>Node14</title>
<g id="a_node14"><a xlink:title=" ">
<polygon fill="#e0e0e0" stroke="#999999" points="436,-19 385,-19 385,0 436,0 436,-19"/>
<text text-anchor="middle" x="410.5" y="-7" font-family="Helvetica,sans-Serif" font-size="10.00">memory</text>
</a>
</g>
</g>
<!-- Node12&#45;&gt;Node14 -->
<g id="edge16" class="edge">
<title>Node12&#45;&gt;Node14</title>
<path fill="none" stroke="#63b8ff" d="M360.46,-60.12C369.21,-51.44 382.75,-38.02 393.54,-27.32"/>
<polygon fill="#63b8ff" stroke="#63b8ff" points="395.74,-30.06 400.38,-20.53 390.81,-25.09 395.74,-30.06"/>
</g>
<!-- Node15 -->
<g id="node15" class="node">
<title>Node15</title>
<g id="a_node15"><a xlink:title=" ">
<polygon fill="#e0e0e0" stroke="#999999" points="367,-19 308,-19 308,0 367,0 367,-19"/>
<text text-anchor="middle" x="337.5" y="-7" font-family="Helvetica,sans-Serif" font-size="10.00">stdexcept</text>
</a>
</g>
</g>
<!-- Node12&#45;&gt;Node15 -->
<g id="edge17" class="edge">
<title>Node12&#45;&gt;Node15</title>
<path fill="none" stroke="#63b8ff" d="M349.43,-60.37C347.53,-52.42 344.64,-40.33 342.18,-30.05"/>
<polygon fill="#63b8ff" stroke="#63b8ff" points="345.66,-29.55 339.93,-20.64 338.85,-31.18 345.66,-29.55"/>
</g>
<!-- Node16 -->
<g id="node16" class="node">
<title>Node16</title>
<g id="a_node16"><a xlink:title=" ">
<polygon fill="#e0e0e0" stroke="#999999" points="290,-19 249,-19 249,0 290,0 290,-19"/>
<text text-anchor="middle" x="269.5" y="-7" font-family="Helvetica,sans-Serif" font-size="10.00">string</text>
</a>
</g>
</g>
<!-- Node12&#45;&gt;Node16 -->
<g id="edge18" class="edge">
<title>Node12&#45;&gt;Node16</title>
<path fill="none" stroke="#63b8ff" d="M339.05,-60.12C326.4,-51.1 306.57,-36.95 291.31,-26.06"/>
<polygon fill="#63b8ff" stroke="#63b8ff" points="293.48,-23.31 283.3,-20.35 289.41,-29 293.48,-23.31"/>
</g>
<!-- Node17 -->
<g id="node17" class="node">
<title>Node17</title>
<g id="a_node17"><a xlink:title=" ">
<polygon fill="#e0e0e0" stroke="#999999" points="520.5,-19 454.5,-19 454.5,0 520.5,0 520.5,-19"/>
<text text-anchor="middle" x="487.5" y="-7" font-family="Helvetica,sans-Serif" font-size="10.00">string_view</text>
</a>
</g>
</g>
<!-- Node12&#45;&gt;Node17 -->
<g id="edge19" class="edge">
<title>Node12&#45;&gt;Node17</title>
<path fill="none" stroke="#63b8ff" d="M372.16,-60.12C394.52,-50.49 430.46,-35.04 456.27,-23.93"/>
<polygon fill="#63b8ff" stroke="#63b8ff" points="457.46,-27.23 465.26,-20.07 454.69,-20.8 457.46,-27.23"/>
</g>
<!-- Node19 -->
<g id="node19" class="node">
<title>Node19</title>
<g id="a_node19"><a xlink:href="_axi_dma_8hpp.html" target="_top" xlink:title=" ">
<polygon fill="white" stroke="#666666" points="1385.5,-250 1317.5,-250 1317.5,-231 1385.5,-231 1385.5,-250"/>
<text text-anchor="middle" x="1351.5" y="-238" font-family="Helvetica,sans-Serif" font-size="10.00">AxiDma.hpp</text>
</a>
</g>
</g>
<!-- Node18&#45;&gt;Node19 -->
<g id="edge21" class="edge">
<title>Node18&#45;&gt;Node19</title>
<path fill="none" stroke="#63b8ff" d="M1208.17,-291.12C1236.58,-281.28 1282.62,-265.34 1314.83,-254.19"/>
<polygon fill="#63b8ff" stroke="#63b8ff" points="1315.86,-257.54 1324.16,-250.96 1313.57,-250.93 1315.86,-257.54"/>
</g>
<!-- Node20 -->
<g id="node20" class="node">
<title>Node20</title>
<g id="a_node20"><a xlink:href="_reg_accessor_8hpp.html" target="_top" xlink:title=" ">
<polygon fill="white" stroke="#666666" points="1299,-250 1206,-250 1206,-231 1299,-231 1299,-250"/>
<text text-anchor="middle" x="1252.5" y="-238" font-family="Helvetica,sans-Serif" font-size="10.00">RegAccessor.hpp</text>
</a>
</g>
</g>
<!-- Node18&#45;&gt;Node20 -->
<g id="edge23" class="edge">
<title>Node18&#45;&gt;Node20</title>
<path fill="none" stroke="#63b8ff" d="M1193.13,-291.12C1203.72,-282.27 1220.21,-268.48 1233.13,-257.69"/>
<polygon fill="#63b8ff" stroke="#63b8ff" points="1235.18,-260.54 1240.61,-251.44 1230.69,-255.17 1235.18,-260.54"/>
</g>
<!-- Node21 -->
<g id="node21" class="node">
<title>Node21</title>
<g id="a_node21"><a xlink:href="_uio_if_8hpp.html" target="_top" xlink:title=" ">
<polygon fill="white" stroke="#666666" points="1259.5,-195 1169.5,-195 1169.5,-176 1259.5,-176 1259.5,-195"/>
<text text-anchor="middle" x="1214.5" y="-183" font-family="Helvetica,sans-Serif" font-size="10.00">udmaio/UioIf.hpp</text>
</a>
</g>
</g>
<!-- Node18&#45;&gt;Node21 -->
<g id="edge46" class="edge">
<title>Node18&#45;&gt;Node21</title>
<path fill="none" stroke="#63b8ff" d="M1183.94,-291.4C1186.24,-278.24 1191.13,-252.38 1197.5,-231 1200.01,-222.58 1203.36,-213.48 1206.43,-205.72"/>
<polygon fill="#63b8ff" stroke="#63b8ff" points="1209.6,-207.21 1210.14,-196.63 1203.12,-204.57 1209.6,-207.21"/>
</g>
<!-- Node19&#45;&gt;Node11 -->
<g id="edge22" class="edge">
<title>Node19&#45;&gt;Node11</title>
<path fill="none" stroke="#63b8ff" d="M1343.08,-230.75C1336.03,-223.43 1325.77,-212.76 1317.09,-203.74"/>
<polygon fill="#63b8ff" stroke="#63b8ff" points="1319.61,-201.31 1310.15,-196.53 1314.57,-206.17 1319.61,-201.31"/>
</g>
<!-- Node20&#45;&gt;Node11 -->
<g id="edge24" class="edge">
<title>Node20&#45;&gt;Node11</title>
<path fill="none" stroke="#63b8ff" d="M1260.43,-230.75C1267.06,-223.43 1276.72,-212.76 1284.89,-203.74"/>
<polygon fill="#63b8ff" stroke="#63b8ff" points="1287.27,-206.33 1291.39,-196.56 1282.08,-201.63 1287.27,-206.33"/>
</g>
<!-- Node20&#45;&gt;Node21 -->
<g id="edge25" class="edge">
<title>Node20&#45;&gt;Node21</title>
<path fill="none" stroke="#63b8ff" d="M1246.23,-230.75C1241.14,-223.66 1233.8,-213.42 1227.47,-204.59"/>
<polygon fill="#63b8ff" stroke="#63b8ff" points="1230.46,-202.76 1221.79,-196.67 1224.78,-206.84 1230.46,-202.76"/>
</g>
<!-- Node22 -->
<g id="node22" class="node">
<title>Node22</title>
<g id="a_node22"><a xlink:href="_uio_if_base_8hpp.html" target="_top" xlink:title=" ">
<polygon fill="white" stroke="#666666" points="1107,-140 994,-140 994,-121 1107,-121 1107,-140"/>
<text text-anchor="middle" x="1050.5" y="-128" font-family="Helvetica,sans-Serif" font-size="10.00">udmaio/UioIfBase.hpp</text>
</a>
</g>
</g>
<!-- Node21&#45;&gt;Node22 -->
<g id="edge26" class="edge">
<title>Node21&#45;&gt;Node22</title>
<path fill="none" stroke="#63b8ff" d="M1186.68,-175.51C1159.86,-166.84 1119.04,-153.65 1089.08,-143.97"/>
<polygon fill="#63b8ff" stroke="#63b8ff" points="1090.21,-140.66 1079.62,-140.91 1088.06,-147.32 1090.21,-140.66"/>
</g>
<!-- Node22&#45;&gt;Node5 -->
<g id="edge32" class="edge">
<title>Node22&#45;&gt;Node5</title>
<path fill="none" stroke="#63b8ff" d="M1107.21,-127.99C1224.27,-124.39 1501.02,-113.39 1731.5,-85 1738.49,-84.14 1745.81,-83.05 1753.03,-81.87"/>
<polygon fill="#63b8ff" stroke="#63b8ff" points="1753.5,-85.34 1762.76,-80.2 1752.31,-78.44 1753.5,-85.34"/>
</g>
<!-- Node22&#45;&gt;Node6 -->
<g id="edge37" class="edge">
<title>Node22&#45;&gt;Node6</title>
<path fill="none" stroke="#63b8ff" d="M1107.44,-122.45C1112.19,-121.94 1116.93,-121.44 1121.5,-121 1336.64,-100.15 1392.56,-115.83 1606.5,-85 1611.86,-84.23 1617.44,-83.27 1622.97,-82.22"/>
<polygon fill="#63b8ff" stroke="#63b8ff" points="1623.6,-85.66 1632.71,-80.26 1622.22,-78.8 1623.6,-85.66"/>
</g>
<!-- Node22&#45;&gt;Node8 -->
<g id="edge33" class="edge">
<title>Node22&#45;&gt;Node8</title>
<path fill="none" stroke="#63b8ff" d="M993.66,-124.82C976.87,-123.5 958.45,-122.13 941.5,-121 650.59,-101.67 575.63,-122.5 286.5,-85 280.52,-84.22 274.29,-83.22 268.12,-82.1"/>
<polygon fill="#63b8ff" stroke="#63b8ff" points="269.14,-78.73 258.66,-80.28 267.81,-85.61 269.14,-78.73"/>
</g>
<!-- Node22&#45;&gt;Node9 -->
<g id="edge36" class="edge">
<title>Node22&#45;&gt;Node9</title>
<path fill="none" stroke="#63b8ff" d="M993.61,-126.08C966.36,-124.47 933.24,-122.57 903.5,-121 568.92,-103.33 483.51,-121.95 150.5,-85 142.97,-84.16 135.07,-83.06 127.3,-81.84"/>
<polygon fill="#63b8ff" stroke="#63b8ff" points="127.98,-78.41 117.54,-80.24 126.84,-85.31 127.98,-78.41"/>
</g>
<!-- Node22&#45;&gt;Node12 -->
<g id="edge43" class="edge">
<title>Node22&#45;&gt;Node12</title>
<path fill="none" stroke="#63b8ff" d="M993.56,-122.41C988.81,-121.9 984.07,-121.42 979.5,-121 732.03,-98.22 667.89,-117.44 421.5,-85 415.43,-84.2 409.1,-83.19 402.84,-82.08"/>
<polygon fill="#63b8ff" stroke="#63b8ff" points="403.66,-78.67 393.18,-80.27 402.37,-85.55 403.66,-78.67"/>
</g>
<!-- Node22&#45;&gt;Node13 -->
<g id="edge29" class="edge">
<title>Node22&#45;&gt;Node13</title>
<path fill="none" stroke="#63b8ff" d="M1107.44,-122.48C1112.2,-121.96 1116.93,-121.46 1121.5,-121 1171.63,-116 1534.98,-117.47 1573.5,-85 1589.11,-71.84 1592.85,-47.81 1593.33,-30.6"/>
<polygon fill="#63b8ff" stroke="#63b8ff" points="1596.83,-30.77 1593.23,-20.81 1589.83,-30.84 1596.83,-30.77"/>
</g>
<!-- Node22&#45;&gt;Node14 -->
<g id="edge30" class="edge">
<title>Node22&#45;&gt;Node14</title>
<path fill="none" stroke="#63b8ff" d="M993.56,-122.44C988.81,-121.93 984.07,-121.44 979.5,-121 868.17,-110.35 577.96,-134.15 477.5,-85 452.54,-72.79 432.64,-46.81 421.21,-29"/>
<polygon fill="#63b8ff" stroke="#63b8ff" points="424.33,-27.39 416.13,-20.68 418.35,-31.04 424.33,-27.39"/>
</g>
<!-- Node22&#45;&gt;Node17 -->
<g id="edge31" class="edge">
<title>Node22&#45;&gt;Node17</title>
<path fill="none" stroke="#63b8ff" d="M993.56,-122.45C988.81,-121.93 984.07,-121.44 979.5,-121 925.49,-115.77 530.74,-123.5 492.5,-85 478.53,-70.94 479.47,-47.1 482.48,-30.18"/>
<polygon fill="#63b8ff" stroke="#63b8ff" points="485.82,-31.31 484.54,-20.8 478.98,-29.81 485.82,-31.31"/>
</g>
<!-- Node23 -->
<g id="node23" class="node">
<title>Node23</title>
<g id="a_node23"><a xlink:title=" ">
<polygon fill="#e0e0e0" stroke="#999999" points="561.5,-79.5 501.5,-79.5 501.5,-60.5 561.5,-60.5 561.5,-79.5"/>
<text text-anchor="middle" x="531.5" y="-67.5" font-family="Helvetica,sans-Serif" font-size="10.00">filesystem</text>
</a>
</g>
</g>
<!-- Node22&#45;&gt;Node23 -->
<g id="edge27" class="edge">
<title>Node22&#45;&gt;Node23</title>
<path fill="none" stroke="#63b8ff" d="M993.55,-122.52C988.8,-121.99 984.07,-121.47 979.5,-121 798,-102.15 748.73,-124.15 570.5,-85 568.34,-84.53 566.14,-83.96 563.93,-83.34"/>
<polygon fill="#63b8ff" stroke="#63b8ff" points="565.11,-80.04 554.52,-80.32 562.97,-86.71 565.11,-80.04"/>
</g>
<!-- Node24 -->
<g id="node24" class="node">
<title>Node24</title>
<g id="a_node24"><a xlink:title=" ">
<polygon fill="#e0e0e0" stroke="#999999" points="629.5,-79.5 579.5,-79.5 579.5,-60.5 629.5,-60.5 629.5,-79.5"/>
<text text-anchor="middle" x="604.5" y="-67.5" font-family="Helvetica,sans-Serif" font-size="10.00">fstream</text>
</a>
</g>
</g>
<!-- Node22&#45;&gt;Node24 -->
<g id="edge28" class="edge">
<title>Node22&#45;&gt;Node24</title>
<path fill="none" stroke="#63b8ff" d="M993.54,-122.61C988.79,-122.06 984.06,-121.51 979.5,-121 828.06,-103.94 786.24,-122.39 638.5,-85 637.11,-84.65 635.7,-84.25 634.28,-83.81"/>
<polygon fill="#63b8ff" stroke="#63b8ff" points="635.61,-80.57 625.02,-80.49 633.25,-87.16 635.61,-80.57"/>
</g>
<!-- Node25 -->
<g id="node25" class="node">
<title>Node25</title>
<g id="a_node25"><a xlink:title=" ">
<polygon fill="#e0e0e0" stroke="#999999" points="777,-79.5 648,-79.5 648,-60.5 777,-60.5 777,-79.5"/>
<text text-anchor="middle" x="712.5" y="-67.5" font-family="Helvetica,sans-Serif" font-size="10.00">boost/log/expressions.hpp</text>
</a>
</g>
</g>
<!-- Node22&#45;&gt;Node25 -->
<g id="edge34" class="edge">
<title>Node22&#45;&gt;Node25</title>
<path fill="none" stroke="#63b8ff" d="M994.86,-120.54C941.19,-111.81 857.7,-97.98 785.5,-85 780.3,-84.06 774.89,-83.07 769.48,-82.06"/>
<polygon fill="#63b8ff" stroke="#63b8ff" points="770.38,-78.67 759.91,-80.25 769.09,-85.55 770.38,-78.67"/>
</g>
<!-- Node26 -->
<g id="node26" class="node">
<title>Node26</title>
<g id="a_node26"><a xlink:title=" ">
<polygon fill="#e0e0e0" stroke="#999999" points="896,-85 795,-85 795,-55 896,-55 896,-85"/>
<text text-anchor="start" x="803" y="-73" font-family="Helvetica,sans-Serif" font-size="10.00">boost/log/keywords</text>
<text text-anchor="middle" x="845.5" y="-62" font-family="Helvetica,sans-Serif" font-size="10.00">/severity.hpp</text>
</a>
</g>
</g>
<!-- Node22&#45;&gt;Node26 -->
<g id="edge35" class="edge">
<title>Node22&#45;&gt;Node26</title>
<path fill="none" stroke="#63b8ff" d="M1019.36,-120.62C989.6,-112.12 943.89,-99.08 906.81,-88.49"/>
<polygon fill="#63b8ff" stroke="#63b8ff" points="908.13,-85.23 897.56,-85.85 906.21,-91.96 908.13,-85.23"/>
</g>
<!-- Node27 -->
<g id="node27" class="node">
<title>Node27</title>
<g id="a_node27"><a xlink:title=" ">
<polygon fill="#e0e0e0" stroke="#999999" points="957,-79.5 914,-79.5 914,-60.5 957,-60.5 957,-79.5"/>
<text text-anchor="middle" x="935.5" y="-67.5" font-family="Helvetica,sans-Serif" font-size="10.00">fcntl.h</text>
</a>
</g>
</g>
<!-- Node22&#45;&gt;Node27 -->
<g id="edge38" class="edge">
<title>Node22&#45;&gt;Node27</title>
<path fill="none" stroke="#63b8ff" d="M1033.03,-120.62C1014.54,-111.21 985.09,-96.22 963.38,-85.18"/>
<polygon fill="#63b8ff" stroke="#63b8ff" points="964.98,-82.07 954.48,-80.65 961.81,-88.31 964.98,-82.07"/>
</g>
<!-- Node28 -->
<g id="node28" class="node">
<title>Node28</title>
<g id="a_node28"><a xlink:title=" ">
<polygon fill="#e0e0e0" stroke="#999999" points="1044,-79.5 975,-79.5 975,-60.5 1044,-60.5 1044,-79.5"/>
<text text-anchor="middle" x="1009.5" y="-67.5" font-family="Helvetica,sans-Serif" font-size="10.00">sys/mman.h</text>
</a>
</g>
</g>
<!-- Node22&#45;&gt;Node28 -->
<g id="edge39" class="edge">
<title>Node22&#45;&gt;Node28</title>
<path fill="none" stroke="#63b8ff" d="M1044.45,-120.87C1038.58,-112.49 1029.48,-99.51 1022.04,-88.89"/>
<polygon fill="#63b8ff" stroke="#63b8ff" points="1025.05,-87.09 1016.44,-80.91 1019.32,-91.1 1025.05,-87.09"/>
</g>
<!-- Node29 -->
<g id="node29" class="node">
<title>Node29</title>
<g id="a_node29"><a xlink:title=" ">
<polygon fill="#e0e0e0" stroke="#999999" points="1121,-79.5 1062,-79.5 1062,-60.5 1121,-60.5 1121,-79.5"/>
<text text-anchor="middle" x="1091.5" y="-67.5" font-family="Helvetica,sans-Serif" font-size="10.00">sys/stat.h</text>
</a>
</g>
</g>
<!-- Node22&#45;&gt;Node29 -->
<g id="edge40" class="edge">
<title>Node22&#45;&gt;Node29</title>
<path fill="none" stroke="#63b8ff" d="M1056.55,-120.87C1062.42,-112.49 1071.52,-99.51 1078.96,-88.89"/>
<polygon fill="#63b8ff" stroke="#63b8ff" points="1081.68,-91.1 1084.56,-80.91 1075.95,-87.09 1081.68,-91.1"/>
</g>
<!-- Node30 -->
<g id="node30" class="node">
<title>Node30</title>
<g id="a_node30"><a xlink:title=" ">
<polygon fill="#e0e0e0" stroke="#999999" points="1204,-79.5 1139,-79.5 1139,-60.5 1204,-60.5 1204,-79.5"/>
<text text-anchor="middle" x="1171.5" y="-67.5" font-family="Helvetica,sans-Serif" font-size="10.00">sys/types.h</text>
</a>
</g>
</g>
<!-- Node22&#45;&gt;Node30 -->
<g id="edge41" class="edge">
<title>Node22&#45;&gt;Node30</title>
<path fill="none" stroke="#63b8ff" d="M1068.88,-120.62C1088.51,-111.12 1119.89,-95.95 1142.79,-84.88"/>
<polygon fill="#63b8ff" stroke="#63b8ff" points="1144.11,-88.13 1151.59,-80.63 1141.06,-81.83 1144.11,-88.13"/>
</g>
<!-- Node31 -->
<g id="node31" class="node">
<title>Node31</title>
<g id="a_node31"><a xlink:title=" ">
<polygon fill="#e0e0e0" stroke="#999999" points="1272.5,-79.5 1222.5,-79.5 1222.5,-60.5 1272.5,-60.5 1272.5,-79.5"/>
<text text-anchor="middle" x="1247.5" y="-67.5" font-family="Helvetica,sans-Serif" font-size="10.00">unistd.h</text>
</a>
</g>
</g>
<!-- Node22&#45;&gt;Node31 -->
<g id="edge42" class="edge">
<title>Node22&#45;&gt;Node31</title>
<path fill="none" stroke="#63b8ff" d="M1088.45,-120.56C1121.75,-112.38 1171.3,-99.39 1213.5,-85 1214.48,-84.67 1215.47,-84.32 1216.47,-83.96"/>
<polygon fill="#63b8ff" stroke="#63b8ff" points="1217.67,-87.25 1225.75,-80.4 1215.16,-80.71 1217.67,-87.25"/>
</g>
<!-- Node32 -->
<g id="node32" class="node">
<title>Node32</title>
<g id="a_node32"><a xlink:title=" ">
<polygon fill="#e0e0e0" stroke="#999999" points="1414.5,-85 1290.5,-85 1290.5,-55 1414.5,-55 1414.5,-85"/>
<text text-anchor="start" x="1298.5" y="-73" font-family="Helvetica,sans-Serif" font-size="10.00">boost/log/sources/record</text>
<text text-anchor="middle" x="1352.5" y="-62" font-family="Helvetica,sans-Serif" font-size="10.00">_ostream.hpp</text>
</a>
</g>
</g>
<!-- Node22&#45;&gt;Node32 -->
<g id="edge44" class="edge">
<title>Node22&#45;&gt;Node32</title>
<path fill="none" stroke="#63b8ff" d="M1097.41,-120.53C1141.72,-112.04 1210.35,-98.85 1279.13,-85.46"/>
<polygon fill="#63b8ff" stroke="#63b8ff" points="1279.53,-88.94 1288.68,-83.6 1278.19,-82.07 1279.53,-88.94"/>
</g>
<!-- Node33 -->
<g id="node33" class="node">
<title>Node33</title>
<g id="a_node33"><a xlink:title=" ">
<polygon fill="#e0e0e0" stroke="#999999" points="1564,-85 1433,-85 1433,-55 1564,-55 1564,-85"/>
<text text-anchor="start" x="1441" y="-73" font-family="Helvetica,sans-Serif" font-size="10.00">boost/log/sources/severity</text>
<text text-anchor="middle" x="1498.5" y="-62" font-family="Helvetica,sans-Serif" font-size="10.00">_logger.hpp</text>
</a>
</g>
</g>
<!-- Node22&#45;&gt;Node33 -->
<g id="edge45" class="edge">
<title>Node22&#45;&gt;Node33</title>
<path fill="none" stroke="#63b8ff" d="M1107.47,-122.68C1112.21,-122.11 1116.94,-121.54 1121.5,-121 1252.18,-105.39 1288.01,-105.4 1421.62,-85.22"/>
<polygon fill="#63b8ff" stroke="#63b8ff" points="1421.84,-88.73 1431.2,-83.77 1420.78,-81.81 1421.84,-88.73"/>
</g>
<!-- Node34&#45;&gt;Node10 -->
<g id="edge48" class="edge">
<title>Node34&#45;&gt;Node10</title>
<path fill="none" stroke="#63b8ff" d="M1066.14,-291.37C1063.96,-283.42 1060.66,-271.33 1057.85,-261.05"/>
<polygon fill="#63b8ff" stroke="#63b8ff" points="1061.28,-260.35 1055.27,-251.63 1054.53,-262.2 1061.28,-260.35"/>
</g>
<!-- Node34&#45;&gt;Node21 -->
<g id="edge49" class="edge">
<title>Node34&#45;&gt;Node21</title>
<path fill="none" stroke="#63b8ff" d="M1079.96,-291.09C1104.58,-271.95 1162.85,-226.65 1194.01,-202.43"/>
<polygon fill="#63b8ff" stroke="#63b8ff" points="1196.16,-205.19 1201.9,-196.29 1191.86,-199.67 1196.16,-205.19"/>
</g>
</g>
</svg>
