<?xml version="1.0" encoding="UTF-8" standalone="no"?>
<!DOCTYPE svg PUBLIC "-//W3C//DTD SVG 1.1//EN"
 "http://www.w3.org/Graphics/SVG/1.1/DTD/svg11.dtd">
<!-- Generated by graphviz version 7.0.5 (20221223.1930)
 -->
<!-- Title: DataHandlerAbstract.cpp Pages: 1 -->
<!--zoomable 324 -->
<svg id="main" version="1.1" xmlns="http://www.w3.org/2000/svg" xmlns:xlink="http://www.w3.org/1999/xlink" xml:space="preserve" onload="init(evt)">
<style type="text/css"><![CDATA[
.edge:hover path { stroke: red; }
.edge:hover polygon { stroke: red; fill: red; }
]]></style>
<script type="text/javascript"><![CDATA[
var edges = document.getElementsByTagName('g');
if (edges && edges.length) {
  for (var i=0;i<edges.length;i++) {
    if (edges[i].id.substr(0,4)=='edge') {
      edges[i].setAttribute('class','edge');
    }
  }
}
]]></script>
        <defs>
                <circle id="rim" cx="0" cy="0" r="7"/>
                <circle id="rim2" cx="0" cy="0" r="3.5"/>
                <g id="zoomPlus">
                        <use xlink:href="#rim" fill="#404040">
                                <set attributeName="fill" to="#808080" begin="zoomplus.mouseover" end="zoomplus.mouseout"/>
                        </use>
                        <path d="M-4,0h8M0,-4v8" fill="none" stroke="white" stroke-width="1.5" pointer-events="none"/>
                </g>
                <g id="zoomMin">
                        <use xlink:href="#rim" fill="#404040">
                                <set attributeName="fill" to="#808080" begin="zoomminus.mouseover" end="zoomminus.mouseout"/>
                        </use>
                        <path d="M-4,0h8" fill="none" stroke="white" stroke-width="1.5" pointer-events="none"/>
                </g>
                <g id="dirArrow">
                        <path fill="none" stroke="white" stroke-width="1.5" d="M0,-3.0v7 M-2.5,-0.5L0,-3.0L2.5,-0.5"/>
                </g>
               <g id="resetDef">
                       <use xlink:href="#rim2" fill="#404040">
                               <set attributeName="fill" to="#808080" begin="reset.mouseover" end="reset.mouseout"/>
                       </use>
               </g>
        </defs>

<script type="text/javascript">
var viewWidth = 2189;
var viewHeight = 324;
var sectionId = 'dynsection-0';
</script>
<script xlink:href="svgpan.js"/>
<svg id="graph" class="graph">
<g id="viewport">
<title>DataHandlerAbstract.cpp</title>
<!-- Node1 -->
<g id="node1" class="node">
<title>Node1</title>
<g id="a_node1"><a xlink:title=" ">
<polygon fill="#999999" stroke="#666666" points="2087.5,-316 1962.5,-316 1962.5,-297 2087.5,-297 2087.5,-316"/>
<text text-anchor="middle" x="2025" y="-304" font-family="Helvetica,sans-Serif" font-size="10.00">DataHandlerAbstract.cpp</text>
</a>
</g>
</g>
<!-- Node2 -->
<g id="node2" class="node">
<title>Node2</title>
<g id="a_node2"><a xlink:href="_data_handler_abstract_8hpp.html" target="_top" xlink:title=" ">
<polygon fill="white" stroke="#666666" points="1103,-261 943,-261 943,-242 1103,-242 1103,-261"/>
<text text-anchor="middle" x="1023" y="-249" font-family="Helvetica,sans-Serif" font-size="10.00">udmaio/DataHandlerAbstract.hpp</text>
</a>
</g>
</g>
<!-- Node1&#45;&gt;Node2 -->
<g id="edge1" class="edge">
<title>Node1&#45;&gt;Node2</title>
<path fill="none" stroke="#63b8ff" d="M1962.32,-302.18C1791.27,-293.14 1315.82,-267.99 1114.71,-257.35"/>
<polygon fill="#63b8ff" stroke="#63b8ff" points="1114.99,-253.86 1104.82,-256.83 1114.62,-260.85 1114.99,-253.86"/>
</g>
<!-- Node3 -->
<g id="node3" class="node">
<title>Node3</title>
<g id="a_node3"><a xlink:title=" ">
<polygon fill="#e0e0e0" stroke="#999999" points="44,-79.5 0,-79.5 0,-60.5 44,-60.5 44,-79.5"/>
<text text-anchor="middle" x="22" y="-67.5" font-family="Helvetica,sans-Serif" font-size="10.00">vector</text>
</a>
</g>
</g>
<!-- Node1&#45;&gt;Node3 -->
<g id="edge45" class="edge">
<title>Node1&#45;&gt;Node3</title>
<path fill="none" stroke="#63b8ff" d="M1962.13,-305.37C1687.74,-304.26 594.22,-294.28 264,-206 174.02,-181.95 81.74,-117.07 42.09,-86.87"/>
<polygon fill="#63b8ff" stroke="#63b8ff" points="44.43,-84.25 34.38,-80.91 40.15,-89.79 44.43,-84.25"/>
</g>
<!-- Node13 -->
<g id="node13" class="node">
<title>Node13</title>
<g id="a_node13"><a xlink:title=" ">
<polygon fill="#e0e0e0" stroke="#999999" points="1598,-19 1544,-19 1544,0 1598,0 1598,-19"/>
<text text-anchor="middle" x="1571" y="-7" font-family="Helvetica,sans-Serif" font-size="10.00">iostream</text>
</a>
</g>
</g>
<!-- Node1&#45;&gt;Node13 -->
<g id="edge44" class="edge">
<title>Node1&#45;&gt;Node13</title>
<path fill="none" stroke="#63b8ff" d="M2025,-296.67C2025,-277.58 2025,-231.02 2025,-192 2025,-192 2025,-192 2025,-129.5 2025,-95.33 2031.88,-77.31 2006,-55 1976.27,-29.37 1710.6,-16.1 1609.67,-11.96"/>
<polygon fill="#63b8ff" stroke="#63b8ff" points="1609.85,-8.46 1599.72,-11.56 1609.57,-15.46 1609.85,-8.46"/>
</g>
<!-- Node32 -->
<g id="node32" class="node">
<title>Node32</title>
<g id="a_node32"><a xlink:title=" ">
<polygon fill="#e0e0e0" stroke="#999999" points="2112.5,-261 2053.5,-261 2053.5,-242 2112.5,-242 2112.5,-261"/>
<text text-anchor="middle" x="2083" y="-249" font-family="Helvetica,sans-Serif" font-size="10.00">functional</text>
</a>
</g>
</g>
<!-- Node1&#45;&gt;Node32 -->
<g id="edge42" class="edge">
<title>Node1&#45;&gt;Node32</title>
<path fill="none" stroke="#63b8ff" d="M2034.84,-296.51C2043.05,-289 2054.98,-278.1 2064.91,-269.03"/>
<polygon fill="#63b8ff" stroke="#63b8ff" points="2067.17,-271.71 2072.19,-262.38 2062.45,-266.54 2067.17,-271.71"/>
</g>
<!-- Node33 -->
<g id="node33" class="node">
<title>Node33</title>
<g id="a_node33"><a xlink:title=" ">
<polygon fill="#e0e0e0" stroke="#999999" points="2181,-261 2131,-261 2131,-242 2181,-242 2181,-261"/>
<text text-anchor="middle" x="2156" y="-249" font-family="Helvetica,sans-Serif" font-size="10.00">iomanip</text>
</a>
</g>
</g>
<!-- Node1&#45;&gt;Node33 -->
<g id="edge43" class="edge">
<title>Node1&#45;&gt;Node33</title>
<path fill="none" stroke="#63b8ff" d="M2047.22,-296.51C2068.14,-288.04 2099.73,-275.27 2123.48,-265.66"/>
<polygon fill="#63b8ff" stroke="#63b8ff" points="2124.75,-268.92 2132.7,-261.93 2122.12,-262.43 2124.75,-268.92"/>
</g>
<!-- Node2&#45;&gt;Node3 -->
<g id="edge2" class="edge">
<title>Node2&#45;&gt;Node3</title>
<path fill="none" stroke="#63b8ff" d="M942.66,-248.1C792.08,-243.09 472.86,-229.98 365,-206 242.05,-178.67 105.41,-113.57 48.81,-84.93"/>
<polygon fill="#63b8ff" stroke="#63b8ff" points="50.73,-81.98 40.23,-80.55 47.55,-88.22 50.73,-81.98"/>
</g>
<!-- Node4 -->
<g id="node4" class="node">
<title>Node4</title>
<g id="a_node4"><a xlink:title=" ">
<polygon fill="#e0e0e0" stroke="#999999" points="816,-200.5 736,-200.5 736,-181.5 816,-181.5 816,-200.5"/>
<text text-anchor="middle" x="776" y="-188.5" font-family="Helvetica,sans-Serif" font-size="10.00">boost/asio.hpp</text>
</a>
</g>
</g>
<!-- Node2&#45;&gt;Node4 -->
<g id="edge3" class="edge">
<title>Node2&#45;&gt;Node4</title>
<path fill="none" stroke="#63b8ff" d="M979.96,-241.57C939.74,-233.05 878.09,-219.54 825,-206 822.43,-205.35 819.79,-204.65 817.14,-203.94"/>
<polygon fill="#63b8ff" stroke="#63b8ff" points="818.28,-200.62 807.71,-201.34 816.42,-207.37 818.28,-200.62"/>
</g>
<!-- Node5 -->
<g id="node5" class="node">
<title>Node5</title>
<g id="a_node5"><a xlink:title=" ">
<polygon fill="#e0e0e0" stroke="#999999" points="263.5,-79.5 126.5,-79.5 126.5,-60.5 263.5,-60.5 263.5,-79.5"/>
<text text-anchor="middle" x="195" y="-67.5" font-family="Helvetica,sans-Serif" font-size="10.00">boost/core/noncopyable.hpp</text>
</a>
</g>
</g>
<!-- Node2&#45;&gt;Node5 -->
<g id="edge4" class="edge">
<title>Node2&#45;&gt;Node5</title>
<path fill="none" stroke="#63b8ff" d="M942.59,-246C770.48,-235.25 372.54,-204.06 255,-140 233.5,-128.28 216.13,-105.64 205.72,-89.49"/>
<polygon fill="#63b8ff" stroke="#63b8ff" points="208.9,-87.99 200.69,-81.29 202.93,-91.64 208.9,-87.99"/>
</g>
<!-- Node6 -->
<g id="node6" class="node">
<title>Node6</title>
<g id="a_node6"><a xlink:title=" ">
<polygon fill="#e0e0e0" stroke="#999999" points="1996.5,-79.5 1895.5,-79.5 1895.5,-60.5 1996.5,-60.5 1996.5,-79.5"/>
<text text-anchor="middle" x="1946" y="-67.5" font-family="Helvetica,sans-Serif" font-size="10.00">boost/log/trivial.hpp</text>
</a>
</g>
</g>
<!-- Node2&#45;&gt;Node6 -->
<g id="edge5" class="edge">
<title>Node2&#45;&gt;Node6</title>
<path fill="none" stroke="#63b8ff" d="M1103.39,-250.04C1261.07,-248.38 1605.36,-240.75 1718,-206 1802.74,-179.86 1889.14,-116.54 1926.65,-86.85"/>
<polygon fill="#63b8ff" stroke="#63b8ff" points="1928.71,-89.69 1934.32,-80.7 1924.33,-84.23 1928.71,-89.69"/>
</g>
<!-- Node7 -->
<g id="node7" class="node">
<title>Node7</title>
<g id="a_node7"><a xlink:href="_u_dma_buf_8hpp.html" target="_top" xlink:title=" ">
<polygon fill="white" stroke="#666666" points="1708.5,-200.5 1631.5,-200.5 1631.5,-181.5 1708.5,-181.5 1708.5,-200.5"/>
<text text-anchor="middle" x="1670" y="-188.5" font-family="Helvetica,sans-Serif" font-size="10.00">UDmaBuf.hpp</text>
</a>
</g>
</g>
<!-- Node2&#45;&gt;Node7 -->
<g id="edge6" class="edge">
<title>Node2&#45;&gt;Node7</title>
<path fill="none" stroke="#63b8ff" d="M1103.31,-243.24C1238.63,-231 1508.21,-206.63 1619.82,-196.54"/>
<polygon fill="#63b8ff" stroke="#63b8ff" points="1619.91,-200.04 1629.55,-195.66 1619.28,-193.07 1619.91,-200.04"/>
</g>
<!-- Node16 -->
<g id="node16" class="node">
<title>Node16</title>
<g id="a_node16"><a xlink:href="_uio_axi_dma_if_8hpp.html" target="_top" xlink:title=" ">
<polygon fill="white" stroke="#666666" points="1181.5,-200.5 1092.5,-200.5 1092.5,-181.5 1181.5,-181.5 1181.5,-200.5"/>
<text text-anchor="middle" x="1137" y="-188.5" font-family="Helvetica,sans-Serif" font-size="10.00">UioAxiDmaIf.hpp</text>
</a>
</g>
</g>
<!-- Node2&#45;&gt;Node16 -->
<g id="edge18" class="edge">
<title>Node2&#45;&gt;Node16</title>
<path fill="none" stroke="#63b8ff" d="M1040.31,-241.62C1058.64,-232.21 1087.84,-217.22 1109.36,-206.18"/>
<polygon fill="#63b8ff" stroke="#63b8ff" points="1110.88,-209.34 1118.18,-201.66 1107.68,-203.11 1110.88,-209.34"/>
</g>
<!-- Node30 -->
<g id="node30" class="node">
<title>Node30</title>
<g id="a_node30"><a xlink:href="_uio_mem_sgdma_8hpp.html" target="_top" xlink:title=" ">
<polygon fill="white" stroke="#666666" points="1074,-200.5 972,-200.5 972,-181.5 1074,-181.5 1074,-200.5"/>
<text text-anchor="middle" x="1023" y="-188.5" font-family="Helvetica,sans-Serif" font-size="10.00">UioMemSgdma.hpp</text>
</a>
</g>
</g>
<!-- Node2&#45;&gt;Node30 -->
<g id="edge38" class="edge">
<title>Node2&#45;&gt;Node30</title>
<path fill="none" stroke="#63b8ff" d="M1023,-241.87C1023,-234 1023,-222.1 1023,-211.89"/>
<polygon fill="#63b8ff" stroke="#63b8ff" points="1026.5,-212.18 1023,-202.18 1019.5,-212.18 1026.5,-212.18"/>
</g>
<!-- Node31 -->
<g id="node31" class="node">
<title>Node31</title>
<g id="a_node31"><a xlink:title=" ">
<polygon fill="#e0e0e0" stroke="#999999" points="954,-206 834,-206 834,-176 954,-176 954,-206"/>
<text text-anchor="start" x="842" y="-194" font-family="Helvetica,sans-Serif" font-size="10.00">boost/asio/posix/stream</text>
<text text-anchor="middle" x="894" y="-183" font-family="Helvetica,sans-Serif" font-size="10.00">_descriptor.hpp</text>
</a>
</g>
</g>
<!-- Node2&#45;&gt;Node31 -->
<g id="edge41" class="edge">
<title>Node2&#45;&gt;Node31</title>
<path fill="none" stroke="#63b8ff" d="M1003.41,-241.62C985.64,-233.56 958.85,-221.41 936.22,-211.15"/>
<polygon fill="#63b8ff" stroke="#63b8ff" points="937.77,-208.01 927.22,-207.06 934.88,-214.38 937.77,-208.01"/>
</g>
<!-- Node7&#45;&gt;Node6 -->
<g id="edge9" class="edge">
<title>Node7&#45;&gt;Node6</title>
<path fill="none" stroke="#63b8ff" d="M1690.74,-181.06C1738.81,-160.33 1858.05,-108.92 1914.89,-84.41"/>
<polygon fill="#63b8ff" stroke="#63b8ff" points="1916.2,-87.66 1924,-80.49 1913.43,-81.23 1916.2,-87.66"/>
</g>
<!-- Node8 -->
<g id="node8" class="node">
<title>Node8</title>
<g id="a_node8"><a xlink:title=" ">
<polygon fill="#e0e0e0" stroke="#999999" points="1877,-79.5 1759,-79.5 1759,-60.5 1877,-60.5 1877,-79.5"/>
<text text-anchor="middle" x="1818" y="-67.5" font-family="Helvetica,sans-Serif" font-size="10.00">boost/log/core/core.hpp</text>
</a>
</g>
</g>
<!-- Node7&#45;&gt;Node8 -->
<g id="edge7" class="edge">
<title>Node7&#45;&gt;Node8</title>
<path fill="none" stroke="#63b8ff" d="M1681.12,-181.06C1706.1,-160.97 1766.91,-112.08 1798.39,-86.77"/>
<polygon fill="#63b8ff" stroke="#63b8ff" points="1800.37,-89.67 1805.97,-80.67 1795.98,-84.21 1800.37,-89.67"/>
</g>
<!-- Node9 -->
<g id="node9" class="node">
<title>Node9</title>
<g id="a_node9"><a xlink:title=" ">
<polygon fill="#e0e0e0" stroke="#999999" points="1740.5,-79.5 1599.5,-79.5 1599.5,-60.5 1740.5,-60.5 1740.5,-79.5"/>
<text text-anchor="middle" x="1670" y="-67.5" font-family="Helvetica,sans-Serif" font-size="10.00">boost/log/sources/logger.hpp</text>
</a>
</g>
</g>
<!-- Node7&#45;&gt;Node9 -->
<g id="edge8" class="edge">
<title>Node7&#45;&gt;Node9</title>
<path fill="none" stroke="#63b8ff" d="M1670,-181.06C1670,-162.1 1670,-117.47 1670,-91.23"/>
<polygon fill="#63b8ff" stroke="#63b8ff" points="1673.5,-91.24 1670,-81.24 1666.5,-91.24 1673.5,-91.24"/>
</g>
<!-- Node10 -->
<g id="node10" class="node">
<title>Node10</title>
<g id="a_node10"><a xlink:href="_dma_buffer_abstract_8hpp.html" target="_top" xlink:title=" ">
<polygon fill="white" stroke="#666666" points="381.5,-140 264.5,-140 264.5,-121 381.5,-121 381.5,-140"/>
<text text-anchor="middle" x="323" y="-128" font-family="Helvetica,sans-Serif" font-size="10.00">DmaBufferAbstract.hpp</text>
</a>
</g>
</g>
<!-- Node7&#45;&gt;Node10 -->
<g id="edge10" class="edge">
<title>Node7&#45;&gt;Node10</title>
<path fill="none" stroke="#63b8ff" d="M1631.14,-188.31C1444.2,-180.19 636.52,-145.12 392.85,-134.53"/>
<polygon fill="#63b8ff" stroke="#63b8ff" points="393.34,-131.05 383.19,-134.11 393.03,-138.04 393.34,-131.05"/>
</g>
<!-- Node10&#45;&gt;Node3 -->
<g id="edge12" class="edge">
<title>Node10&#45;&gt;Node3</title>
<path fill="none" stroke="#63b8ff" d="M264.06,-124.26C208.68,-118.29 123.94,-106.46 53,-85 52.04,-84.71 51.06,-84.39 50.08,-84.06"/>
<polygon fill="#63b8ff" stroke="#63b8ff" points="51.72,-80.94 41.13,-80.52 49.14,-87.45 51.72,-80.94"/>
</g>
<!-- Node10&#45;&gt;Node5 -->
<g id="edge13" class="edge">
<title>Node10&#45;&gt;Node5</title>
<path fill="none" stroke="#63b8ff" d="M303.56,-120.62C282.7,-111.08 249.29,-95.81 225.04,-84.73"/>
<polygon fill="#63b8ff" stroke="#63b8ff" points="226.55,-81.57 216,-80.6 223.64,-87.94 226.55,-81.57"/>
</g>
<!-- Node11 -->
<g id="node11" class="node">
<title>Node11</title>
<g id="a_node11"><a xlink:title=" ">
<polygon fill="#e0e0e0" stroke="#999999" points="108,-79.5 62,-79.5 62,-60.5 108,-60.5 108,-79.5"/>
<text text-anchor="middle" x="85" y="-67.5" font-family="Helvetica,sans-Serif" font-size="10.00">cstdint</text>
</a>
</g>
</g>
<!-- Node10&#45;&gt;Node11 -->
<g id="edge11" class="edge">
<title>Node10&#45;&gt;Node11</title>
<path fill="none" stroke="#63b8ff" d="M267.12,-120.55C225.23,-113.09 166.79,-101.09 117,-85 116.04,-84.69 115.07,-84.36 114.1,-84.02"/>
<polygon fill="#63b8ff" stroke="#63b8ff" points="115.7,-80.89 105.12,-80.48 113.14,-87.4 115.7,-80.89"/>
</g>
<!-- Node12 -->
<g id="node12" class="node">
<title>Node12</title>
<g id="a_node12"><a xlink:href="_uio_config_8hpp.html" target="_top" xlink:title=" ">
<polygon fill="white" stroke="#666666" points="392.5,-79.5 281.5,-79.5 281.5,-60.5 392.5,-60.5 392.5,-79.5"/>
<text text-anchor="middle" x="337" y="-67.5" font-family="Helvetica,sans-Serif" font-size="10.00">udmaio/UioConfig.hpp</text>
</a>
</g>
</g>
<!-- Node10&#45;&gt;Node12 -->
<g id="edge14" class="edge">
<title>Node10&#45;&gt;Node12</title>
<path fill="none" stroke="#63b8ff" d="M325.07,-120.87C326.97,-112.92 329.86,-100.83 332.32,-90.55"/>
<polygon fill="#63b8ff" stroke="#63b8ff" points="335.65,-91.68 334.57,-81.14 328.84,-90.05 335.65,-91.68"/>
</g>
<!-- Node12&#45;&gt;Node13 -->
<g id="edge15" class="edge">
<title>Node12&#45;&gt;Node13</title>
<path fill="none" stroke="#63b8ff" d="M372.69,-60.02C381.86,-58.04 391.75,-56.18 401,-55 627.31,-26.17 1356.27,-13.69 1532.42,-11.05"/>
<polygon fill="#63b8ff" stroke="#63b8ff" points="1532.21,-14.55 1542.16,-10.9 1532.11,-7.55 1532.21,-14.55"/>
</g>
<!-- Node14 -->
<g id="node14" class="node">
<title>Node14</title>
<g id="a_node14"><a xlink:title=" ">
<polygon fill="#e0e0e0" stroke="#999999" points="400.5,-19 341.5,-19 341.5,0 400.5,0 400.5,-19"/>
<text text-anchor="middle" x="371" y="-7" font-family="Helvetica,sans-Serif" font-size="10.00">stdexcept</text>
</a>
</g>
</g>
<!-- Node12&#45;&gt;Node14 -->
<g id="edge16" class="edge">
<title>Node12&#45;&gt;Node14</title>
<path fill="none" stroke="#63b8ff" d="M342.02,-60.37C346.79,-52.16 354.12,-39.54 360.22,-29.05"/>
<polygon fill="#63b8ff" stroke="#63b8ff" points="363.2,-30.88 365.2,-20.48 357.15,-27.36 363.2,-30.88"/>
</g>
<!-- Node15 -->
<g id="node15" class="node">
<title>Node15</title>
<g id="a_node15"><a xlink:title=" ">
<polygon fill="#e0e0e0" stroke="#999999" points="323.5,-19 282.5,-19 282.5,0 323.5,0 323.5,-19"/>
<text text-anchor="middle" x="303" y="-7" font-family="Helvetica,sans-Serif" font-size="10.00">string</text>
</a>
</g>
</g>
<!-- Node12&#45;&gt;Node15 -->
<g id="edge17" class="edge">
<title>Node12&#45;&gt;Node15</title>
<path fill="none" stroke="#63b8ff" d="M331.98,-60.37C327.21,-52.16 319.88,-39.54 313.78,-29.05"/>
<polygon fill="#63b8ff" stroke="#63b8ff" points="316.85,-27.36 308.8,-20.48 310.8,-30.88 316.85,-27.36"/>
</g>
<!-- Node17 -->
<g id="node17" class="node">
<title>Node17</title>
<g id="a_node17"><a xlink:href="_uio_if_8hpp.html" target="_top" xlink:title=" ">
<polygon fill="white" stroke="#666666" points="1108,-140 1052,-140 1052,-121 1108,-121 1108,-140"/>
<text text-anchor="middle" x="1080" y="-128" font-family="Helvetica,sans-Serif" font-size="10.00">UioIf.hpp</text>
</a>
</g>
</g>
<!-- Node16&#45;&gt;Node17 -->
<g id="edge19" class="edge">
<title>Node16&#45;&gt;Node17</title>
<path fill="none" stroke="#63b8ff" d="M1128.59,-181.37C1120.09,-172.64 1106.73,-158.93 1096.17,-148.09"/>
<polygon fill="#63b8ff" stroke="#63b8ff" points="1098.99,-145.97 1089.5,-141.25 1093.97,-150.86 1098.99,-145.97"/>
</g>
<!-- Node17&#45;&gt;Node5 -->
<g id="edge24" class="edge">
<title>Node17&#45;&gt;Node5</title>
<path fill="none" stroke="#63b8ff" d="M1051.62,-129.22C947.37,-127.91 575.81,-120.84 272,-85 264.83,-84.15 257.32,-83.06 249.92,-81.85"/>
<polygon fill="#63b8ff" stroke="#63b8ff" points="250.77,-78.44 240.33,-80.2 249.59,-85.34 250.77,-78.44"/>
</g>
<!-- Node17&#45;&gt;Node6 -->
<g id="edge29" class="edge">
<title>Node17&#45;&gt;Node6</title>
<path fill="none" stroke="#63b8ff" d="M1108.37,-129.71C1212.59,-130.12 1583.92,-128.25 1886,-85 1890.96,-84.29 1896.11,-83.37 1901.22,-82.34"/>
<polygon fill="#63b8ff" stroke="#63b8ff" points="1901.73,-85.82 1910.76,-80.28 1900.25,-78.97 1901.73,-85.82"/>
</g>
<!-- Node17&#45;&gt;Node8 -->
<g id="edge25" class="edge">
<title>Node17&#45;&gt;Node8</title>
<path fill="none" stroke="#63b8ff" d="M1108.22,-129C1200.69,-127.09 1502.79,-118.5 1750,-85 1755.75,-84.22 1761.74,-83.24 1767.68,-82.16"/>
<polygon fill="#63b8ff" stroke="#63b8ff" points="1768.32,-85.6 1777.48,-80.28 1766.99,-78.73 1768.32,-85.6"/>
</g>
<!-- Node17&#45;&gt;Node9 -->
<g id="edge28" class="edge">
<title>Node17&#45;&gt;Node9</title>
<path fill="none" stroke="#63b8ff" d="M1108.28,-127.76C1185.1,-122.87 1404.03,-107.84 1585,-85 1592.48,-84.06 1600.3,-82.94 1608.05,-81.76"/>
<polygon fill="#63b8ff" stroke="#63b8ff" points="1608.47,-85.24 1617.81,-80.23 1607.38,-78.32 1608.47,-85.24"/>
</g>
<!-- Node17&#45;&gt;Node12 -->
<g id="edge35" class="edge">
<title>Node17&#45;&gt;Node12</title>
<path fill="none" stroke="#63b8ff" d="M1051.71,-129.16C958.33,-127.72 651.61,-120.42 401,-85 395.65,-84.24 390.08,-83.29 384.56,-82.23"/>
<polygon fill="#63b8ff" stroke="#63b8ff" points="385.36,-78.82 374.86,-80.25 383.96,-85.68 385.36,-78.82"/>
</g>
<!-- Node17&#45;&gt;Node13 -->
<g id="edge22" class="edge">
<title>Node17&#45;&gt;Node13</title>
<path fill="none" stroke="#63b8ff" d="M1108.5,-128.7C1205.42,-125.71 1518.22,-113.89 1552,-85 1567.52,-71.73 1571.27,-47.72 1571.78,-30.55"/>
<polygon fill="#63b8ff" stroke="#63b8ff" points="1575.29,-30.75 1571.71,-20.78 1568.29,-30.81 1575.29,-30.75"/>
</g>
<!-- Node18 -->
<g id="node18" class="node">
<title>Node18</title>
<g id="a_node18"><a xlink:title=" ">
<polygon fill="#e0e0e0" stroke="#999999" points="914,-79.5 854,-79.5 854,-60.5 914,-60.5 914,-79.5"/>
<text text-anchor="middle" x="884" y="-67.5" font-family="Helvetica,sans-Serif" font-size="10.00">filesystem</text>
</a>
</g>
</g>
<!-- Node17&#45;&gt;Node18 -->
<g id="edge20" class="edge">
<title>Node17&#45;&gt;Node18</title>
<path fill="none" stroke="#63b8ff" d="M1051.75,-122.12C1020.18,-113.72 967.65,-99.32 923,-85 921.65,-84.57 920.28,-84.12 918.9,-83.66"/>
<polygon fill="#63b8ff" stroke="#63b8ff" points="920.28,-80.43 909.68,-80.49 918,-87.05 920.28,-80.43"/>
</g>
<!-- Node19 -->
<g id="node19" class="node">
<title>Node19</title>
<g id="a_node19"><a xlink:title=" ">
<polygon fill="#e0e0e0" stroke="#999999" points="982,-79.5 932,-79.5 932,-60.5 982,-60.5 982,-79.5"/>
<text text-anchor="middle" x="957" y="-67.5" font-family="Helvetica,sans-Serif" font-size="10.00">fstream</text>
</a>
</g>
</g>
<!-- Node17&#45;&gt;Node19 -->
<g id="edge21" class="edge">
<title>Node17&#45;&gt;Node19</title>
<path fill="none" stroke="#63b8ff" d="M1061.32,-120.62C1041.36,-111.12 1009.46,-95.95 986.18,-84.88"/>
<polygon fill="#63b8ff" stroke="#63b8ff" points="987.76,-81.75 977.22,-80.62 984.75,-88.07 987.76,-81.75"/>
</g>
<!-- Node20 -->
<g id="node20" class="node">
<title>Node20</title>
<g id="a_node20"><a xlink:title=" ">
<polygon fill="#e0e0e0" stroke="#999999" points="1051.5,-79.5 1000.5,-79.5 1000.5,-60.5 1051.5,-60.5 1051.5,-79.5"/>
<text text-anchor="middle" x="1026" y="-67.5" font-family="Helvetica,sans-Serif" font-size="10.00">memory</text>
</a>
</g>
</g>
<!-- Node17&#45;&gt;Node20 -->
<g id="edge23" class="edge">
<title>Node17&#45;&gt;Node20</title>
<path fill="none" stroke="#63b8ff" d="M1072.03,-120.87C1064.06,-112.23 1051.57,-98.7 1041.61,-87.92"/>
<polygon fill="#63b8ff" stroke="#63b8ff" points="1044.38,-85.75 1035.03,-80.78 1039.24,-90.5 1044.38,-85.75"/>
</g>
<!-- Node21 -->
<g id="node21" class="node">
<title>Node21</title>
<g id="a_node21"><a xlink:title=" ">
<polygon fill="#e0e0e0" stroke="#999999" points="1198.5,-79.5 1069.5,-79.5 1069.5,-60.5 1198.5,-60.5 1198.5,-79.5"/>
<text text-anchor="middle" x="1134" y="-67.5" font-family="Helvetica,sans-Serif" font-size="10.00">boost/log/expressions.hpp</text>
</a>
</g>
</g>
<!-- Node17&#45;&gt;Node21 -->
<g id="edge26" class="edge">
<title>Node17&#45;&gt;Node21</title>
<path fill="none" stroke="#63b8ff" d="M1087.97,-120.87C1095.94,-112.23 1108.43,-98.7 1118.39,-87.92"/>
<polygon fill="#63b8ff" stroke="#63b8ff" points="1120.76,-90.5 1124.97,-80.78 1115.62,-85.75 1120.76,-90.5"/>
</g>
<!-- Node22 -->
<g id="node22" class="node">
<title>Node22</title>
<g id="a_node22"><a xlink:title=" ">
<polygon fill="#e0e0e0" stroke="#999999" points="1317.5,-85 1216.5,-85 1216.5,-55 1317.5,-55 1317.5,-85"/>
<text text-anchor="start" x="1224.5" y="-73" font-family="Helvetica,sans-Serif" font-size="10.00">boost/log/keywords</text>
<text text-anchor="middle" x="1267" y="-62" font-family="Helvetica,sans-Serif" font-size="10.00">/severity.hpp</text>
</a>
</g>
</g>
<!-- Node17&#45;&gt;Node22 -->
<g id="edge27" class="edge">
<title>Node17&#45;&gt;Node22</title>
<path fill="none" stroke="#63b8ff" d="M1108.4,-120.62C1135.32,-112.19 1176.54,-99.3 1210.2,-88.77"/>
<polygon fill="#63b8ff" stroke="#63b8ff" points="1210.9,-92.22 1219.4,-85.89 1208.81,-85.54 1210.9,-92.22"/>
</g>
<!-- Node23 -->
<g id="node23" class="node">
<title>Node23</title>
<g id="a_node23"><a xlink:title=" ">
<polygon fill="#e0e0e0" stroke="#999999" points="1378.5,-79.5 1335.5,-79.5 1335.5,-60.5 1378.5,-60.5 1378.5,-79.5"/>
<text text-anchor="middle" x="1357" y="-67.5" font-family="Helvetica,sans-Serif" font-size="10.00">fcntl.h</text>
</a>
</g>
</g>
<!-- Node17&#45;&gt;Node23 -->
<g id="edge30" class="edge">
<title>Node17&#45;&gt;Node23</title>
<path fill="none" stroke="#63b8ff" d="M1108.35,-126.8C1154.88,-121.84 1249.96,-109.46 1327,-85 1327.8,-84.75 1328.61,-84.47 1329.42,-84.19"/>
<polygon fill="#63b8ff" stroke="#63b8ff" points="1330.52,-87.52 1338.45,-80.5 1327.87,-81.04 1330.52,-87.52"/>
</g>
<!-- Node24 -->
<g id="node24" class="node">
<title>Node24</title>
<g id="a_node24"><a xlink:title=" ">
<polygon fill="#e0e0e0" stroke="#999999" points="1465.5,-79.5 1396.5,-79.5 1396.5,-60.5 1465.5,-60.5 1465.5,-79.5"/>
<text text-anchor="middle" x="1431" y="-67.5" font-family="Helvetica,sans-Serif" font-size="10.00">sys/mman.h</text>
</a>
</g>
</g>
<!-- Node17&#45;&gt;Node24 -->
<g id="edge31" class="edge">
<title>Node17&#45;&gt;Node24</title>
<path fill="none" stroke="#63b8ff" d="M1108.33,-127.04C1162.96,-121.95 1286.45,-108.68 1388,-85 1390.42,-84.43 1392.9,-83.8 1395.39,-83.11"/>
<polygon fill="#63b8ff" stroke="#63b8ff" points="1396.17,-86.53 1404.74,-80.31 1394.16,-79.82 1396.17,-86.53"/>
</g>
<!-- Node25 -->
<g id="node25" class="node">
<title>Node25</title>
<g id="a_node25"><a xlink:title=" ">
<polygon fill="#e0e0e0" stroke="#999999" points="1542.5,-79.5 1483.5,-79.5 1483.5,-60.5 1542.5,-60.5 1542.5,-79.5"/>
<text text-anchor="middle" x="1513" y="-67.5" font-family="Helvetica,sans-Serif" font-size="10.00">sys/stat.h</text>
</a>
</g>
</g>
<!-- Node17&#45;&gt;Node25 -->
<g id="edge32" class="edge">
<title>Node17&#45;&gt;Node25</title>
<path fill="none" stroke="#63b8ff" d="M1108.17,-128.65C1173.5,-126.17 1340.02,-116.97 1475,-85 1476.88,-84.55 1478.8,-84.04 1480.72,-83.48"/>
<polygon fill="#63b8ff" stroke="#63b8ff" points="1481.73,-86.84 1490.14,-80.39 1479.54,-80.19 1481.73,-86.84"/>
</g>
<!-- Node26 -->
<g id="node26" class="node">
<title>Node26</title>
<g id="a_node26"><a xlink:title=" ">
<polygon fill="#e0e0e0" stroke="#999999" points="475.5,-79.5 410.5,-79.5 410.5,-60.5 475.5,-60.5 475.5,-79.5"/>
<text text-anchor="middle" x="443" y="-67.5" font-family="Helvetica,sans-Serif" font-size="10.00">sys/types.h</text>
</a>
</g>
</g>
<!-- Node17&#45;&gt;Node26 -->
<g id="edge33" class="edge">
<title>Node17&#45;&gt;Node26</title>
<path fill="none" stroke="#63b8ff" d="M1051.79,-129.84C965.8,-130.37 699.8,-128.14 485,-85 482.39,-84.48 479.72,-83.84 477.06,-83.13"/>
<polygon fill="#63b8ff" stroke="#63b8ff" points="478.3,-79.85 467.72,-80.33 476.29,-86.55 478.3,-79.85"/>
</g>
<!-- Node27 -->
<g id="node27" class="node">
<title>Node27</title>
<g id="a_node27"><a xlink:title=" ">
<polygon fill="#e0e0e0" stroke="#999999" points="544,-79.5 494,-79.5 494,-60.5 544,-60.5 544,-79.5"/>
<text text-anchor="middle" x="519" y="-67.5" font-family="Helvetica,sans-Serif" font-size="10.00">unistd.h</text>
</a>
</g>
</g>
<!-- Node17&#45;&gt;Node27 -->
<g id="edge34" class="edge">
<title>Node17&#45;&gt;Node27</title>
<path fill="none" stroke="#63b8ff" d="M1051.52,-130.12C971.63,-131.23 739.07,-130.03 553,-85 551.41,-84.62 549.8,-84.17 548.18,-83.67"/>
<polygon fill="#63b8ff" stroke="#63b8ff" points="549.74,-80.51 539.14,-80.42 547.37,-87.1 549.74,-80.51"/>
</g>
<!-- Node28 -->
<g id="node28" class="node">
<title>Node28</title>
<g id="a_node28"><a xlink:title=" ">
<polygon fill="#e0e0e0" stroke="#999999" points="686,-85 562,-85 562,-55 686,-55 686,-85"/>
<text text-anchor="start" x="570" y="-73" font-family="Helvetica,sans-Serif" font-size="10.00">boost/log/sources/record</text>
<text text-anchor="middle" x="624" y="-62" font-family="Helvetica,sans-Serif" font-size="10.00">_ostream.hpp</text>
</a>
</g>
</g>
<!-- Node17&#45;&gt;Node28 -->
<g id="edge36" class="edge">
<title>Node17&#45;&gt;Node28</title>
<path fill="none" stroke="#63b8ff" d="M1051.88,-127.02C989.84,-121.4 836.34,-106.57 697.53,-85.31"/>
<polygon fill="#63b8ff" stroke="#63b8ff" points="698.2,-81.88 687.78,-83.81 697.13,-88.79 698.2,-81.88"/>
</g>
<!-- Node29 -->
<g id="node29" class="node">
<title>Node29</title>
<g id="a_node29"><a xlink:title=" ">
<polygon fill="#e0e0e0" stroke="#999999" points="835.5,-85 704.5,-85 704.5,-55 835.5,-55 835.5,-85"/>
<text text-anchor="start" x="712.5" y="-73" font-family="Helvetica,sans-Serif" font-size="10.00">boost/log/sources/severity</text>
<text text-anchor="middle" x="770" y="-62" font-family="Helvetica,sans-Serif" font-size="10.00">_logger.hpp</text>
</a>
</g>
</g>
<!-- Node17&#45;&gt;Node29 -->
<g id="edge37" class="edge">
<title>Node17&#45;&gt;Node29</title>
<path fill="none" stroke="#63b8ff" d="M1051.67,-124.15C1005.75,-115.49 913.52,-98.08 847.09,-85.55"/>
<polygon fill="#63b8ff" stroke="#63b8ff" points="847.8,-82.12 837.32,-83.7 846.5,-89 847.8,-82.12"/>
</g>
<!-- Node30&#45;&gt;Node10 -->
<g id="edge39" class="edge">
<title>Node30&#45;&gt;Node10</title>
<path fill="none" stroke="#63b8ff" d="M988.91,-181.05C980.49,-179.12 971.46,-177.27 963,-176 757.28,-145.05 511.06,-135.57 392.95,-132.71"/>
<polygon fill="#63b8ff" stroke="#63b8ff" points="393.17,-129.22 383.09,-132.48 393.01,-136.22 393.17,-129.22"/>
</g>
<!-- Node30&#45;&gt;Node17 -->
<g id="edge40" class="edge">
<title>Node30&#45;&gt;Node17</title>
<path fill="none" stroke="#63b8ff" d="M1031.41,-181.37C1039.91,-172.64 1053.27,-158.93 1063.83,-148.09"/>
<polygon fill="#63b8ff" stroke="#63b8ff" points="1066.03,-150.86 1070.5,-141.25 1061.01,-145.97 1066.03,-150.86"/>
</g>
</g>
</svg>
        <g id="navigator" transform="translate(0 0)" fill="#404254">
                <rect fill="#f2f5e9" fill-opacity="0.5" stroke="#606060" stroke-width=".5" x="0" y="0" width="60" height="60"/>
                <use id="zoomplus" xlink:href="#zoomPlus" x="17" y="9" onmousedown="handleZoom(evt,'in')"/>
                <use id="zoomminus" xlink:href="#zoomMin" x="42" y="9" onmousedown="handleZoom(evt,'out')"/>
                <use id="reset" xlink:href="#resetDef" x="30" y="36" onmousedown="handleReset()"/>
                <g id="arrowUp" xlink:href="#dirArrow" transform="translate(30 24)" onmousedown="handlePan(0,-1)">
                  <use xlink:href="#rim" fill="#404040">
                        <set attributeName="fill" to="#808080" begin="arrowUp.mouseover" end="arrowUp.mouseout"/>
                  </use>
                  <path fill="none" stroke="white" stroke-width="1.5" d="M0,-3.0v7 M-2.5,-0.5L0,-3.0L2.5,-0.5"/>
                </g>
                <g id="arrowRight" xlink:href="#dirArrow" transform="rotate(90) translate(36 -43)" onmousedown="handlePan(1,0)">
                  <use xlink:href="#rim" fill="#404040">
                        <set attributeName="fill" to="#808080" begin="arrowRight.mouseover" end="arrowRight.mouseout"/>
                  </use>
                  <path fill="none" stroke="white" stroke-width="1.5" d="M0,-3.0v7 M-2.5,-0.5L0,-3.0L2.5,-0.5"/>
                </g>
                <g id="arrowDown" xlink:href="#dirArrow" transform="rotate(180) translate(-30 -48)" onmousedown="handlePan(0,1)">
                  <use xlink:href="#rim" fill="#404040">
                        <set attributeName="fill" to="#808080" begin="arrowDown.mouseover" end="arrowDown.mouseout"/>
                  </use>
                  <path fill="none" stroke="white" stroke-width="1.5" d="M0,-3.0v7 M-2.5,-0.5L0,-3.0L2.5,-0.5"/>
                </g>
                <g id="arrowLeft" xlink:href="#dirArrow" transform="rotate(270) translate(-36 17)" onmousedown="handlePan(-1,0)">
                  <use xlink:href="#rim" fill="#404040">
                        <set attributeName="fill" to="#808080" begin="arrowLeft.mouseover" end="arrowLeft.mouseout"/>
                  </use>
                  <path fill="none" stroke="white" stroke-width="1.5" d="M0,-3.0v7 M-2.5,-0.5L0,-3.0L2.5,-0.5"/>
                </g>
        </g>
        <svg viewBox="0 0 15 15" width="100%" height="30px" preserveAspectRatio="xMaxYMin meet">
         <g id="arrow_out" transform="scale(0.3 0.3)">
          <a xlink:href="_data_handler_abstract_8cpp__incl_org.svg" target="_base">
           <rect id="button" ry="5" rx="5" y="6" x="6" height="38" width="38"
                fill="#f2f5e9" fill-opacity="0.5" stroke="#606060" stroke-width="1.0"/>
           <path id="arrow"
             d="M 11.500037,31.436501 C 11.940474,20.09759 22.043105,11.32322 32.158766,21.979434 L 37.068811,17.246167 C 37.068811,17.246167 37.088388,32 37.088388,32 L 22.160133,31.978069 C 22.160133,31.978069 26.997745,27.140456 26.997745,27.140456 C 18.528582,18.264221 13.291696,25.230495 11.500037,31.436501 z"
             style="fill:#404040;"/>
          </a>
         </g>
        </svg>
</svg>
