<?xml version="1.0" encoding="UTF-8" standalone="no"?>
<!DOCTYPE svg PUBLIC "-//W3C//DTD SVG 1.1//EN"
 "http://www.w3.org/Graphics/SVG/1.1/DTD/svg11.dtd">
<!-- Generated by graphviz version 7.0.5 (20221223.1930)
 -->
<!-- Title: DataHandlerAbstract.cpp Pages: 1 -->
<svg width="1932pt" height="434pt"
 viewBox="0.00 0.00 1931.50 434.00" xmlns="http://www.w3.org/2000/svg" xmlns:xlink="http://www.w3.org/1999/xlink">
<g id="graph0" class="graph" transform="scale(1 1) rotate(0) translate(4 430)">
<title>DataHandlerAbstract.cpp</title>
<!-- Node1 -->
<g id="node1" class="node">
<title>Node1</title>
<g id="a_node1"><a xlink:title=" ">
<polygon fill="#999999" stroke="#666666" points="1830,-426 1705,-426 1705,-407 1830,-407 1830,-426"/>
<text text-anchor="middle" x="1767.5" y="-414" font-family="Helvetica,sans-Serif" font-size="10.00">DataHandlerAbstract.cpp</text>
</a>
</g>
</g>
<!-- Node2 -->
<g id="node2" class="node">
<title>Node2</title>
<g id="a_node2"><a xlink:href="_data_handler_abstract_8hpp.html" target="_top" xlink:title=" ">
<polygon fill="white" stroke="#666666" points="1320.5,-371 1160.5,-371 1160.5,-352 1320.5,-352 1320.5,-371"/>
<text text-anchor="middle" x="1240.5" y="-359" font-family="Helvetica,sans-Serif" font-size="10.00">udmaio/DataHandlerAbstract.hpp</text>
</a>
</g>
</g>
<!-- Node1&#45;&gt;Node2 -->
<g id="edge1" class="edge">
<title>Node1&#45;&gt;Node2</title>
<path fill="none" stroke="#63b8ff" d="M1704.72,-409.19C1612.29,-399.89 1439.03,-382.47 1332.31,-371.73"/>
<polygon fill="#63b8ff" stroke="#63b8ff" points="1332.73,-368.26 1322.43,-370.74 1332.03,-375.22 1332.73,-368.26"/>
</g>
<!-- Node4 -->
<g id="node4" class="node">
<title>Node4</title>
<g id="a_node4"><a xlink:title=" ">
<polygon fill="#e0e0e0" stroke="#999999" points="1725.5,-195 1681.5,-195 1681.5,-176 1725.5,-176 1725.5,-195"/>
<text text-anchor="middle" x="1703.5" y="-183" font-family="Helvetica,sans-Serif" font-size="10.00">vector</text>
</a>
</g>
</g>
<!-- Node1&#45;&gt;Node4 -->
<g id="edge71" class="edge">
<title>Node1&#45;&gt;Node4</title>
<path fill="none" stroke="#63b8ff" d="M1764.61,-406.67C1761.7,-397.71 1757.14,-383.44 1753.5,-371 1736.06,-311.41 1717.4,-240.37 1708.63,-206.45"/>
<polygon fill="#63b8ff" stroke="#63b8ff" points="1712.03,-205.64 1706.15,-196.83 1705.25,-207.39 1712.03,-205.64"/>
</g>
<!-- Node19 -->
<g id="node19" class="node">
<title>Node19</title>
<g id="a_node19"><a xlink:title=" ">
<polygon fill="#e0e0e0" stroke="#999999" points="1363.5,-24.5 1309.5,-24.5 1309.5,-5.5 1363.5,-5.5 1363.5,-24.5"/>
<text text-anchor="middle" x="1336.5" y="-12.5" font-family="Helvetica,sans-Serif" font-size="10.00">iostream</text>
</a>
</g>
</g>
<!-- Node1&#45;&gt;Node19 -->
<g id="edge70" class="edge">
<title>Node1&#45;&gt;Node19</title>
<path fill="none" stroke="#63b8ff" d="M1767.5,-406.67C1767.5,-387.58 1767.5,-341.02 1767.5,-302 1767.5,-302 1767.5,-302 1767.5,-129.5 1767.5,-48.01 1673.99,-87.91 1595.5,-66 1574.54,-60.15 1441.91,-35.42 1375,-23.07"/>
<polygon fill="#63b8ff" stroke="#63b8ff" points="1375.65,-19.64 1365.18,-21.26 1374.38,-26.52 1375.65,-19.64"/>
</g>
<!-- Node38 -->
<g id="node38" class="node">
<title>Node38</title>
<g id="a_node38"><a xlink:title=" ">
<polygon fill="#e0e0e0" stroke="#999999" points="1855,-371 1796,-371 1796,-352 1855,-352 1855,-371"/>
<text text-anchor="middle" x="1825.5" y="-359" font-family="Helvetica,sans-Serif" font-size="10.00">functional</text>
</a>
</g>
</g>
<!-- Node1&#45;&gt;Node38 -->
<g id="edge68" class="edge">
<title>Node1&#45;&gt;Node38</title>
<path fill="none" stroke="#63b8ff" d="M1777.34,-406.51C1785.55,-399 1797.48,-388.1 1807.41,-379.03"/>
<polygon fill="#63b8ff" stroke="#63b8ff" points="1809.67,-381.71 1814.69,-372.38 1804.95,-376.54 1809.67,-381.71"/>
</g>
<!-- Node39 -->
<g id="node39" class="node">
<title>Node39</title>
<g id="a_node39"><a xlink:title=" ">
<polygon fill="#e0e0e0" stroke="#999999" points="1923.5,-371 1873.5,-371 1873.5,-352 1923.5,-352 1923.5,-371"/>
<text text-anchor="middle" x="1898.5" y="-359" font-family="Helvetica,sans-Serif" font-size="10.00">iomanip</text>
</a>
</g>
</g>
<!-- Node1&#45;&gt;Node39 -->
<g id="edge69" class="edge">
<title>Node1&#45;&gt;Node39</title>
<path fill="none" stroke="#63b8ff" d="M1789.72,-406.51C1810.64,-398.04 1842.23,-385.27 1865.98,-375.66"/>
<polygon fill="#63b8ff" stroke="#63b8ff" points="1867.25,-378.92 1875.2,-371.93 1864.62,-372.43 1867.25,-378.92"/>
</g>
<!-- Node3 -->
<g id="node3" class="node">
<title>Node3</title>
<g id="a_node3"><a xlink:title=" ">
<polygon fill="#e0e0e0" stroke="#999999" points="968,-24.5 927,-24.5 927,-5.5 968,-5.5 968,-24.5"/>
<text text-anchor="middle" x="947.5" y="-12.5" font-family="Helvetica,sans-Serif" font-size="10.00">string</text>
</a>
</g>
</g>
<!-- Node2&#45;&gt;Node3 -->
<g id="edge2" class="edge">
<title>Node2&#45;&gt;Node3</title>
<path fill="none" stroke="#63b8ff" d="M1160.32,-354.37C984.07,-339.83 578.5,-300 578.5,-241.5 578.5,-241.5 578.5,-241.5 578.5,-129.5 578.5,-93.58 597.22,-83.66 628.5,-66 741.22,-2.38 793.11,-65.81 917.5,-30 918.47,-29.72 919.44,-29.42 920.42,-29.09"/>
<polygon fill="#63b8ff" stroke="#63b8ff" points="921.34,-32.49 929.32,-25.51 918.73,-25.99 921.34,-32.49"/>
</g>
<!-- Node2&#45;&gt;Node4 -->
<g id="edge3" class="edge">
<title>Node2&#45;&gt;Node4</title>
<path fill="none" stroke="#63b8ff" d="M1320.97,-356.18C1410.59,-350.38 1549.09,-338.13 1596.5,-316 1645.48,-293.14 1679.62,-235.51 1694.74,-205.43"/>
<polygon fill="#63b8ff" stroke="#63b8ff" points="1697.73,-207.28 1698.93,-196.75 1691.43,-204.23 1697.73,-207.28"/>
</g>
<!-- Node5 -->
<g id="node5" class="node">
<title>Node5</title>
<g id="a_node5"><a xlink:title=" ">
<polygon fill="#e0e0e0" stroke="#999999" points="474.5,-310.5 394.5,-310.5 394.5,-291.5 474.5,-291.5 474.5,-310.5"/>
<text text-anchor="middle" x="434.5" y="-298.5" font-family="Helvetica,sans-Serif" font-size="10.00">boost/asio.hpp</text>
</a>
</g>
</g>
<!-- Node2&#45;&gt;Node5 -->
<g id="edge4" class="edge">
<title>Node2&#45;&gt;Node5</title>
<path fill="none" stroke="#63b8ff" d="M1160.09,-360.85C1021.92,-360.32 730.89,-354.22 488.5,-316 484.38,-315.35 480.12,-314.52 475.89,-313.6"/>
<polygon fill="#63b8ff" stroke="#63b8ff" points="476.85,-310.23 466.31,-311.32 475.23,-317.04 476.85,-310.23"/>
</g>
<!-- Node6 -->
<g id="node6" class="node">
<title>Node6</title>
<g id="a_node6"><a xlink:title=" ">
<polygon fill="#e0e0e0" stroke="#999999" points="1458,-85 1321,-85 1321,-66 1458,-66 1458,-85"/>
<text text-anchor="middle" x="1389.5" y="-73" font-family="Helvetica,sans-Serif" font-size="10.00">boost/core/noncopyable.hpp</text>
</a>
</g>
</g>
<!-- Node2&#45;&gt;Node6 -->
<g id="edge5" class="edge">
<title>Node2&#45;&gt;Node6</title>
<path fill="none" stroke="#63b8ff" d="M1189.56,-351.56C1169.18,-345.22 1147.69,-334.41 1135.5,-316 1124.1,-298.79 1144.95,-234.35 1147.5,-231 1199.8,-162.12 1248.7,-189.66 1319.5,-140 1339.33,-126.09 1359.58,-107.1 1373.16,-93.52"/>
<polygon fill="#63b8ff" stroke="#63b8ff" points="1375.48,-96.15 1379.99,-86.56 1370.48,-91.24 1375.48,-96.15"/>
</g>
<!-- Node7 -->
<g id="node7" class="node">
<title>Node7</title>
<g id="a_node7"><a xlink:href="_logging_8hpp.html" target="_top" xlink:title=" ">
<polygon fill="white" stroke="#666666" points="550,-85 481,-85 481,-66 550,-66 550,-85"/>
<text text-anchor="middle" x="515.5" y="-73" font-family="Helvetica,sans-Serif" font-size="10.00">Logging.hpp</text>
</a>
</g>
</g>
<!-- Node2&#45;&gt;Node7 -->
<g id="edge6" class="edge">
<title>Node2&#45;&gt;Node7</title>
<path fill="none" stroke="#63b8ff" d="M1160.11,-358.75C992.39,-354.6 616.37,-342.43 564.5,-316 526.12,-296.44 502.5,-284.58 502.5,-241.5 502.5,-241.5 502.5,-241.5 502.5,-184.5 502.5,-153.7 507.78,-118.32 511.61,-96.68"/>
<polygon fill="#63b8ff" stroke="#63b8ff" points="515.04,-97.38 513.42,-86.91 508.15,-96.1 515.04,-97.38"/>
</g>
<!-- Node15 -->
<g id="node15" class="node">
<title>Node15</title>
<g id="a_node15"><a xlink:href="_u_dma_buf_8hpp.html" target="_top" xlink:title=" ">
<polygon fill="white" stroke="#666666" points="1329,-310.5 1252,-310.5 1252,-291.5 1329,-291.5 1329,-310.5"/>
<text text-anchor="middle" x="1290.5" y="-298.5" font-family="Helvetica,sans-Serif" font-size="10.00">UDmaBuf.hpp</text>
</a>
</g>
</g>
<!-- Node2&#45;&gt;Node15 -->
<g id="edge15" class="edge">
<title>Node2&#45;&gt;Node15</title>
<path fill="none" stroke="#63b8ff" d="M1247.88,-351.87C1255.19,-343.31 1266.59,-329.97 1275.76,-319.24"/>
<polygon fill="#63b8ff" stroke="#63b8ff" points="1278.27,-321.69 1282.11,-311.82 1272.95,-317.15 1278.27,-321.69"/>
</g>
<!-- Node23 -->
<g id="node23" class="node">
<title>Node23</title>
<g id="a_node23"><a xlink:href="_uio_axi_dma_if_8hpp.html" target="_top" xlink:title=" ">
<polygon fill="white" stroke="#666666" points="1234,-310.5 1145,-310.5 1145,-291.5 1234,-291.5 1234,-310.5"/>
<text text-anchor="middle" x="1189.5" y="-298.5" font-family="Helvetica,sans-Serif" font-size="10.00">UioAxiDmaIf.hpp</text>
</a>
</g>
</g>
<!-- Node2&#45;&gt;Node23 -->
<g id="edge28" class="edge">
<title>Node2&#45;&gt;Node23</title>
<path fill="none" stroke="#63b8ff" d="M1232.97,-351.87C1225.52,-343.31 1213.89,-329.97 1204.53,-319.24"/>
<polygon fill="#63b8ff" stroke="#63b8ff" points="1207.26,-317.05 1198.05,-311.81 1201.98,-321.65 1207.26,-317.05"/>
</g>
<!-- Node35 -->
<g id="node35" class="node">
<title>Node35</title>
<g id="a_node35"><a xlink:href="_uio_mem_sgdma_8hpp.html" target="_top" xlink:title=" ">
<polygon fill="white" stroke="#666666" points="1587.5,-310.5 1485.5,-310.5 1485.5,-291.5 1587.5,-291.5 1587.5,-310.5"/>
<text text-anchor="middle" x="1536.5" y="-298.5" font-family="Helvetica,sans-Serif" font-size="10.00">UioMemSgdma.hpp</text>
</a>
</g>
</g>
<!-- Node2&#45;&gt;Node35 -->
<g id="edge62" class="edge">
<title>Node2&#45;&gt;Node35</title>
<path fill="none" stroke="#63b8ff" d="M1291.27,-351.58C1339.14,-343.01 1412.86,-329.42 1476.5,-316 1480.28,-315.2 1484.18,-314.35 1488.1,-313.48"/>
<polygon fill="#63b8ff" stroke="#63b8ff" points="1488.65,-316.94 1497.63,-311.32 1487.11,-310.12 1488.65,-316.94"/>
</g>
<!-- Node37 -->
<g id="node37" class="node">
<title>Node37</title>
<g id="a_node37"><a xlink:title=" ">
<polygon fill="#e0e0e0" stroke="#999999" points="1467.5,-316 1347.5,-316 1347.5,-286 1467.5,-286 1467.5,-316"/>
<text text-anchor="start" x="1355.5" y="-304" font-family="Helvetica,sans-Serif" font-size="10.00">boost/asio/posix/stream</text>
<text text-anchor="middle" x="1407.5" y="-293" font-family="Helvetica,sans-Serif" font-size="10.00">_descriptor.hpp</text>
</a>
</g>
</g>
<!-- Node2&#45;&gt;Node37 -->
<g id="edge67" class="edge">
<title>Node2&#45;&gt;Node37</title>
<path fill="none" stroke="#63b8ff" d="M1265.86,-351.62C1289.59,-343.3 1325.76,-330.63 1355.6,-320.18"/>
<polygon fill="#63b8ff" stroke="#63b8ff" points="1356.57,-323.55 1364.85,-316.94 1354.26,-316.94 1356.57,-323.55"/>
</g>
<!-- Node7&#45;&gt;Node3 -->
<g id="edge7" class="edge">
<title>Node7&#45;&gt;Node3</title>
<path fill="none" stroke="#63b8ff" d="M550.25,-68.16C555.03,-67.38 559.88,-66.64 564.5,-66 720.73,-44.51 765.47,-71.93 917.5,-30 918.49,-29.73 919.5,-29.42 920.5,-29.09"/>
<polygon fill="#63b8ff" stroke="#63b8ff" points="921.67,-32.4 929.65,-25.44 919.07,-25.9 921.67,-32.4"/>
</g>
<!-- Node8 -->
<g id="node8" class="node">
<title>Node8</title>
<g id="a_node8"><a xlink:title=" ">
<polygon fill="#e0e0e0" stroke="#999999" points="366.5,-24.5 270.5,-24.5 270.5,-5.5 366.5,-5.5 366.5,-24.5"/>
<text text-anchor="middle" x="318.5" y="-12.5" font-family="Helvetica,sans-Serif" font-size="10.00">boost/log/core.hpp</text>
</a>
</g>
</g>
<!-- Node7&#45;&gt;Node8 -->
<g id="edge8" class="edge">
<title>Node7&#45;&gt;Node8</title>
<path fill="none" stroke="#63b8ff" d="M485.58,-65.62C451.88,-55.61 396.92,-39.29 359.3,-28.12"/>
<polygon fill="#63b8ff" stroke="#63b8ff" points="360.74,-24.89 350.15,-25.4 358.74,-31.6 360.74,-24.89"/>
</g>
<!-- Node9 -->
<g id="node9" class="node">
<title>Node9</title>
<g id="a_node9"><a xlink:title=" ">
<polygon fill="#e0e0e0" stroke="#999999" points="514,-24.5 385,-24.5 385,-5.5 514,-5.5 514,-24.5"/>
<text text-anchor="middle" x="449.5" y="-12.5" font-family="Helvetica,sans-Serif" font-size="10.00">boost/log/expressions.hpp</text>
</a>
</g>
</g>
<!-- Node7&#45;&gt;Node9 -->
<g id="edge9" class="edge">
<title>Node7&#45;&gt;Node9</title>
<path fill="none" stroke="#63b8ff" d="M505.48,-65.62C495.59,-56.85 480.24,-43.25 468.12,-32.5"/>
<polygon fill="#63b8ff" stroke="#63b8ff" points="470.56,-29.99 460.75,-25.97 465.91,-35.22 470.56,-29.99"/>
</g>
<!-- Node10 -->
<g id="node10" class="node">
<title>Node10</title>
<g id="a_node10"><a xlink:title=" ">
<polygon fill="#e0e0e0" stroke="#999999" points="633,-24.5 532,-24.5 532,-5.5 633,-5.5 633,-24.5"/>
<text text-anchor="middle" x="582.5" y="-12.5" font-family="Helvetica,sans-Serif" font-size="10.00">boost/log/trivial.hpp</text>
</a>
</g>
</g>
<!-- Node7&#45;&gt;Node10 -->
<g id="edge10" class="edge">
<title>Node7&#45;&gt;Node10</title>
<path fill="none" stroke="#63b8ff" d="M525.68,-65.62C535.71,-56.85 551.29,-43.25 563.6,-32.5"/>
<polygon fill="#63b8ff" stroke="#63b8ff" points="565.86,-35.18 571.09,-25.96 561.25,-29.9 565.86,-35.18"/>
</g>
<!-- Node11 -->
<g id="node11" class="node">
<title>Node11</title>
<g id="a_node11"><a xlink:title=" ">
<polygon fill="#e0e0e0" stroke="#999999" points="760,-30 651,-30 651,0 760,0 760,-30"/>
<text text-anchor="start" x="659" y="-18" font-family="Helvetica,sans-Serif" font-size="10.00">boost/log/utility/setup</text>
<text text-anchor="middle" x="705.5" y="-7" font-family="Helvetica,sans-Serif" font-size="10.00">/console.hpp</text>
</a>
</g>
</g>
<!-- Node7&#45;&gt;Node11 -->
<g id="edge11" class="edge">
<title>Node7&#45;&gt;Node11</title>
<path fill="none" stroke="#63b8ff" d="M544.36,-65.62C571.71,-57.19 613.59,-44.3 647.79,-33.77"/>
<polygon fill="#63b8ff" stroke="#63b8ff" points="648.63,-37.17 657.16,-30.88 646.57,-30.48 648.63,-37.17"/>
</g>
<!-- Node12 -->
<g id="node12" class="node">
<title>Node12</title>
<g id="a_node12"><a xlink:title=" ">
<polygon fill="#e0e0e0" stroke="#999999" points="909,-30 778,-30 778,0 909,0 909,-30"/>
<text text-anchor="start" x="786" y="-18" font-family="Helvetica,sans-Serif" font-size="10.00">boost/log/sources/severity</text>
<text text-anchor="middle" x="843.5" y="-7" font-family="Helvetica,sans-Serif" font-size="10.00">_channel_logger.hpp</text>
</a>
</g>
</g>
<!-- Node7&#45;&gt;Node12 -->
<g id="edge12" class="edge">
<title>Node7&#45;&gt;Node12</title>
<path fill="none" stroke="#63b8ff" d="M550.37,-68.41C605.47,-58.79 711.33,-40.26 766.4,-30.36"/>
<polygon fill="#63b8ff" stroke="#63b8ff" points="766.95,-33.82 776.17,-28.6 765.7,-26.93 766.95,-33.82"/>
</g>
<!-- Node13 -->
<g id="node13" class="node">
<title>Node13</title>
<g id="a_node13"><a xlink:title=" ">
<polygon fill="#e0e0e0" stroke="#999999" points="113,-30 0,-30 0,0 113,0 113,-30"/>
<text text-anchor="start" x="8" y="-18" font-family="Helvetica,sans-Serif" font-size="10.00">boost/log/support/date</text>
<text text-anchor="middle" x="56.5" y="-7" font-family="Helvetica,sans-Serif" font-size="10.00">_time.hpp</text>
</a>
</g>
</g>
<!-- Node7&#45;&gt;Node13 -->
<g id="edge13" class="edge">
<title>Node7&#45;&gt;Node13</title>
<path fill="none" stroke="#63b8ff" d="M480.55,-71.73C413.42,-66.16 261.58,-52.33 124.28,-30.35"/>
<polygon fill="#63b8ff" stroke="#63b8ff" points="125.08,-26.94 114.65,-28.79 123.96,-33.85 125.08,-26.94"/>
</g>
<!-- Node14 -->
<g id="node14" class="node">
<title>Node14</title>
<g id="a_node14"><a xlink:title=" ">
<polygon fill="#e0e0e0" stroke="#999999" points="252,-30 131,-30 131,0 252,0 252,-30"/>
<text text-anchor="start" x="139" y="-18" font-family="Helvetica,sans-Serif" font-size="10.00">boost/log/utility/setup</text>
<text text-anchor="middle" x="191.5" y="-7" font-family="Helvetica,sans-Serif" font-size="10.00">/common_attributes.hpp</text>
</a>
</g>
</g>
<!-- Node7&#45;&gt;Node14 -->
<g id="edge14" class="edge">
<title>Node7&#45;&gt;Node14</title>
<path fill="none" stroke="#63b8ff" d="M480.53,-68.65C433.62,-60.73 347.42,-45.99 263.48,-30.34"/>
<polygon fill="#63b8ff" stroke="#63b8ff" points="264.15,-26.91 253.68,-28.51 262.86,-33.79 264.15,-26.91"/>
</g>
<!-- Node15&#45;&gt;Node7 -->
<g id="edge26" class="edge">
<title>Node15&#45;&gt;Node7</title>
<path fill="none" stroke="#63b8ff" d="M1260.88,-291.04C1254.82,-289.3 1248.47,-287.54 1242.5,-286 954.93,-211.94 856.4,-272.21 590.5,-140 567.22,-128.43 545.08,-108.13 530.98,-93.6"/>
<polygon fill="#63b8ff" stroke="#63b8ff" points="533.73,-91.42 524.33,-86.53 528.63,-96.21 533.73,-91.42"/>
</g>
<!-- Node16 -->
<g id="node16" class="node">
<title>Node16</title>
<g id="a_node16"><a xlink:href="_dma_buffer_abstract_8hpp.html" target="_top" xlink:title=" ">
<polygon fill="white" stroke="#666666" points="1558,-250 1441,-250 1441,-231 1558,-231 1558,-250"/>
<text text-anchor="middle" x="1499.5" y="-238" font-family="Helvetica,sans-Serif" font-size="10.00">DmaBufferAbstract.hpp</text>
</a>
</g>
</g>
<!-- Node15&#45;&gt;Node16 -->
<g id="edge16" class="edge">
<title>Node15&#45;&gt;Node16</title>
<path fill="none" stroke="#63b8ff" d="M1320.95,-291.05C1326.77,-289.36 1332.82,-287.61 1338.5,-286 1378.05,-274.77 1423.18,-262.33 1455.57,-253.46"/>
<polygon fill="#63b8ff" stroke="#63b8ff" points="1456.29,-256.9 1465.01,-250.88 1454.44,-250.14 1456.29,-256.9"/>
</g>
<!-- Node18 -->
<g id="node18" class="node">
<title>Node18</title>
<g id="a_node18"><a xlink:href="_uio_config_8hpp.html" target="_top" xlink:title=" ">
<polygon fill="white" stroke="#666666" points="1587,-85 1476,-85 1476,-66 1587,-66 1587,-85"/>
<text text-anchor="middle" x="1531.5" y="-73" font-family="Helvetica,sans-Serif" font-size="10.00">udmaio/UioConfig.hpp</text>
</a>
</g>
</g>
<!-- Node15&#45;&gt;Node18 -->
<g id="edge27" class="edge">
<title>Node15&#45;&gt;Node18</title>
<path fill="none" stroke="#63b8ff" d="M1316.17,-291.06C1337.95,-282.67 1369.26,-268.62 1392.5,-250 1450.39,-203.61 1499.7,-129.08 1520.69,-94.81"/>
<polygon fill="#63b8ff" stroke="#63b8ff" points="1523.54,-96.86 1525.7,-86.49 1517.55,-93.25 1523.54,-96.86"/>
</g>
<!-- Node16&#45;&gt;Node4 -->
<g id="edge18" class="edge">
<title>Node16&#45;&gt;Node4</title>
<path fill="none" stroke="#63b8ff" d="M1534.11,-230.51C1572.12,-220.63 1632.74,-204.88 1670.22,-195.15"/>
<polygon fill="#63b8ff" stroke="#63b8ff" points="1670.79,-198.61 1679.59,-192.71 1669.03,-191.84 1670.79,-198.61"/>
</g>
<!-- Node16&#45;&gt;Node6 -->
<g id="edge19" class="edge">
<title>Node16&#45;&gt;Node6</title>
<path fill="none" stroke="#63b8ff" d="M1493.59,-230.74C1476.28,-205.09 1425.46,-129.78 1401.83,-94.78"/>
<polygon fill="#63b8ff" stroke="#63b8ff" points="1404.79,-92.89 1396.29,-86.56 1398.98,-96.81 1404.79,-92.89"/>
</g>
<!-- Node17 -->
<g id="node17" class="node">
<title>Node17</title>
<g id="a_node17"><a xlink:title=" ">
<polygon fill="#e0e0e0" stroke="#999999" points="1360.5,-195 1314.5,-195 1314.5,-176 1360.5,-176 1360.5,-195"/>
<text text-anchor="middle" x="1337.5" y="-183" font-family="Helvetica,sans-Serif" font-size="10.00">cstdint</text>
</a>
</g>
</g>
<!-- Node16&#45;&gt;Node17 -->
<g id="edge17" class="edge">
<title>Node16&#45;&gt;Node17</title>
<path fill="none" stroke="#63b8ff" d="M1472.02,-230.51C1444.32,-221.45 1401.52,-207.44 1371.65,-197.67"/>
<polygon fill="#63b8ff" stroke="#63b8ff" points="1372.93,-194.41 1362.34,-194.63 1370.76,-201.06 1372.93,-194.41"/>
</g>
<!-- Node16&#45;&gt;Node18 -->
<g id="edge20" class="edge">
<title>Node16&#45;&gt;Node18</title>
<path fill="none" stroke="#63b8ff" d="M1501.22,-230.74C1506.19,-205.42 1520.66,-131.72 1527.64,-96.16"/>
<polygon fill="#63b8ff" stroke="#63b8ff" points="1530.99,-97.28 1529.48,-86.79 1524.12,-95.93 1530.99,-97.28"/>
</g>
<!-- Node18&#45;&gt;Node3 -->
<g id="edge24" class="edge">
<title>Node18&#45;&gt;Node3</title>
<path fill="none" stroke="#63b8ff" d="M1475.85,-67.1C1472.69,-66.71 1469.55,-66.35 1466.5,-66 1282.56,-45.12 1061.3,-25.69 979.73,-18.72"/>
<polygon fill="#63b8ff" stroke="#63b8ff" points="980.06,-15.24 969.8,-17.88 979.47,-22.21 980.06,-15.24"/>
</g>
<!-- Node18&#45;&gt;Node19 -->
<g id="edge21" class="edge">
<title>Node18&#45;&gt;Node19</title>
<path fill="none" stroke="#63b8ff" d="M1501.88,-65.62C1467.9,-55.42 1412.06,-38.67 1374.79,-27.49"/>
<polygon fill="#63b8ff" stroke="#63b8ff" points="1375.9,-24.17 1365.32,-24.65 1373.89,-30.87 1375.9,-24.17"/>
</g>
<!-- Node20 -->
<g id="node20" class="node">
<title>Node20</title>
<g id="a_node20"><a xlink:title=" ">
<polygon fill="#e0e0e0" stroke="#999999" points="1639,-24.5 1588,-24.5 1588,-5.5 1639,-5.5 1639,-24.5"/>
<text text-anchor="middle" x="1613.5" y="-12.5" font-family="Helvetica,sans-Serif" font-size="10.00">memory</text>
</a>
</g>
</g>
<!-- Node18&#45;&gt;Node20 -->
<g id="edge22" class="edge">
<title>Node18&#45;&gt;Node20</title>
<path fill="none" stroke="#63b8ff" d="M1543.95,-65.62C1556.6,-56.6 1576.43,-42.45 1591.69,-31.56"/>
<polygon fill="#63b8ff" stroke="#63b8ff" points="1593.59,-34.5 1599.7,-25.85 1589.52,-28.81 1593.59,-34.5"/>
</g>
<!-- Node21 -->
<g id="node21" class="node">
<title>Node21</title>
<g id="a_node21"><a xlink:title=" ">
<polygon fill="#e0e0e0" stroke="#999999" points="1482,-24.5 1423,-24.5 1423,-5.5 1482,-5.5 1482,-24.5"/>
<text text-anchor="middle" x="1452.5" y="-12.5" font-family="Helvetica,sans-Serif" font-size="10.00">stdexcept</text>
</a>
</g>
</g>
<!-- Node18&#45;&gt;Node21 -->
<g id="edge23" class="edge">
<title>Node18&#45;&gt;Node21</title>
<path fill="none" stroke="#63b8ff" d="M1519.5,-65.62C1507.32,-56.6 1488.21,-42.45 1473.52,-31.56"/>
<polygon fill="#63b8ff" stroke="#63b8ff" points="1475.95,-29.01 1465.83,-25.87 1471.78,-34.63 1475.95,-29.01"/>
</g>
<!-- Node22 -->
<g id="node22" class="node">
<title>Node22</title>
<g id="a_node22"><a xlink:title=" ">
<polygon fill="#e0e0e0" stroke="#999999" points="1566.5,-24.5 1500.5,-24.5 1500.5,-5.5 1566.5,-5.5 1566.5,-24.5"/>
<text text-anchor="middle" x="1533.5" y="-12.5" font-family="Helvetica,sans-Serif" font-size="10.00">string_view</text>
</a>
</g>
</g>
<!-- Node18&#45;&gt;Node22 -->
<g id="edge25" class="edge">
<title>Node18&#45;&gt;Node22</title>
<path fill="none" stroke="#63b8ff" d="M1531.8,-65.87C1532.06,-58 1532.47,-46.1 1532.82,-35.89"/>
<polygon fill="#63b8ff" stroke="#63b8ff" points="1536.31,-36.29 1533.15,-26.18 1529.31,-36.05 1536.31,-36.29"/>
</g>
<!-- Node24 -->
<g id="node24" class="node">
<title>Node24</title>
<g id="a_node24"><a xlink:href="_reg_accessor_8hpp.html" target="_top" xlink:title=" ">
<polygon fill="white" stroke="#666666" points="1384,-250 1291,-250 1291,-231 1384,-231 1384,-250"/>
<text text-anchor="middle" x="1337.5" y="-238" font-family="Helvetica,sans-Serif" font-size="10.00">RegAccessor.hpp</text>
</a>
</g>
</g>
<!-- Node23&#45;&gt;Node24 -->
<g id="edge29" class="edge">
<title>Node23&#45;&gt;Node24</title>
<path fill="none" stroke="#63b8ff" d="M1211.98,-291.12C1236.54,-281.41 1276.12,-265.76 1304.27,-254.64"/>
<polygon fill="#63b8ff" stroke="#63b8ff" points="1305.39,-257.96 1313.4,-251.02 1302.82,-251.45 1305.39,-257.96"/>
</g>
<!-- Node25 -->
<g id="node25" class="node">
<title>Node25</title>
<g id="a_node25"><a xlink:href="_uio_if_8hpp.html" target="_top" xlink:title=" ">
<polygon fill="white" stroke="#666666" points="1140.5,-195 1050.5,-195 1050.5,-176 1140.5,-176 1140.5,-195"/>
<text text-anchor="middle" x="1095.5" y="-183" font-family="Helvetica,sans-Serif" font-size="10.00">udmaio/UioIf.hpp</text>
</a>
</g>
</g>
<!-- Node23&#45;&gt;Node25 -->
<g id="edge59" class="edge">
<title>Node23&#45;&gt;Node25</title>
<path fill="none" stroke="#63b8ff" d="M1182.03,-291.18C1173.61,-281.21 1159.51,-264.49 1147.5,-250 1134.6,-234.44 1120.03,-216.63 1109.6,-203.84"/>
<polygon fill="#63b8ff" stroke="#63b8ff" points="1112.51,-201.87 1103.49,-196.33 1107.09,-206.29 1112.51,-201.87"/>
</g>
<!-- Node34 -->
<g id="node34" class="node">
<title>Node34</title>
<g id="a_node34"><a xlink:href="_axi_dma_8hpp.html" target="_top" xlink:title=" ">
<polygon fill="white" stroke="#666666" points="1272.5,-250 1156.5,-250 1156.5,-231 1272.5,-231 1272.5,-250"/>
<text text-anchor="middle" x="1214.5" y="-238" font-family="Helvetica,sans-Serif" font-size="10.00">udmaio/rdl/AxiDma.hpp</text>
</a>
</g>
</g>
<!-- Node23&#45;&gt;Node34 -->
<g id="edge60" class="edge">
<title>Node23&#45;&gt;Node34</title>
<path fill="none" stroke="#63b8ff" d="M1193.19,-291.37C1196.62,-283.33 1201.86,-271.07 1206.29,-260.72"/>
<polygon fill="#63b8ff" stroke="#63b8ff" points="1209.49,-262.13 1210.2,-251.56 1203.05,-259.38 1209.49,-262.13"/>
</g>
<!-- Node24&#45;&gt;Node17 -->
<g id="edge30" class="edge">
<title>Node24&#45;&gt;Node17</title>
<path fill="none" stroke="#63b8ff" d="M1337.5,-230.75C1337.5,-224.27 1337.5,-215.16 1337.5,-206.9"/>
<polygon fill="#63b8ff" stroke="#63b8ff" points="1341,-206.96 1337.5,-196.96 1334,-206.96 1341,-206.96"/>
</g>
<!-- Node24&#45;&gt;Node25 -->
<g id="edge31" class="edge">
<title>Node24&#45;&gt;Node25</title>
<path fill="none" stroke="#63b8ff" d="M1296.45,-230.51C1255.39,-221.52 1192.09,-207.65 1147.53,-197.9"/>
<polygon fill="#63b8ff" stroke="#63b8ff" points="1148.34,-194.49 1137.83,-195.77 1146.85,-201.33 1148.34,-194.49"/>
</g>
<!-- Node25&#45;&gt;Node3 -->
<g id="edge36" class="edge">
<title>Node25&#45;&gt;Node3</title>
<path fill="none" stroke="#63b8ff" d="M1050.19,-182.22C943.64,-175.75 682.63,-153.12 635.5,-85 630.7,-78.06 629.92,-72.34 635.5,-66 677.25,-18.58 856.82,-47.57 917.5,-30 918.47,-29.72 919.44,-29.41 920.42,-29.08"/>
<polygon fill="#63b8ff" stroke="#63b8ff" points="921.35,-32.48 929.32,-25.5 918.73,-25.99 921.35,-32.48"/>
</g>
<!-- Node25&#45;&gt;Node6 -->
<g id="edge37" class="edge">
<title>Node25&#45;&gt;Node6</title>
<path fill="none" stroke="#63b8ff" d="M1140.63,-178.34C1180.38,-171.92 1239.28,-159.95 1287.5,-140 1317.68,-127.52 1349.09,-106.55 1368.94,-92.15"/>
<polygon fill="#63b8ff" stroke="#63b8ff" points="1370.78,-95.15 1376.74,-86.39 1366.61,-89.52 1370.78,-95.15"/>
</g>
<!-- Node25&#45;&gt;Node7 -->
<g id="edge57" class="edge">
<title>Node25&#45;&gt;Node7</title>
<path fill="none" stroke="#63b8ff" d="M1050.27,-182.21C950.96,-176.85 716.6,-162.19 640.5,-140 602.64,-128.96 562.63,-106.46 538.36,-91.43"/>
<polygon fill="#63b8ff" stroke="#63b8ff" points="540.28,-88.5 529.96,-86.11 536.54,-94.41 540.28,-88.5"/>
</g>
<!-- Node25&#45;&gt;Node18 -->
<g id="edge58" class="edge">
<title>Node25&#45;&gt;Node18</title>
<path fill="none" stroke="#63b8ff" d="M1140.83,-176.8C1186.28,-168.77 1258.13,-155.25 1319.5,-140 1381.15,-124.68 1451.6,-102.66 1493.76,-88.99"/>
<polygon fill="#63b8ff" stroke="#63b8ff" points="1494.76,-92.34 1503.18,-85.92 1492.59,-85.69 1494.76,-92.34"/>
</g>
<!-- Node25&#45;&gt;Node19 -->
<g id="edge34" class="edge">
<title>Node25&#45;&gt;Node19</title>
<path fill="none" stroke="#63b8ff" d="M1116.71,-175.59C1151.64,-160.3 1222.5,-126.65 1273.5,-85 1292.46,-69.51 1310.97,-48.3 1322.96,-33.5"/>
<polygon fill="#63b8ff" stroke="#63b8ff" points="1325.43,-36.02 1328.9,-26.01 1319.94,-31.67 1325.43,-36.02"/>
</g>
<!-- Node25&#45;&gt;Node20 -->
<g id="edge35" class="edge">
<title>Node25&#45;&gt;Node20</title>
<path fill="none" stroke="#63b8ff" d="M1140.62,-181.7C1251.13,-173.93 1530.97,-148.29 1595.5,-85 1608.48,-72.27 1612.49,-51.43 1613.55,-35.98"/>
<polygon fill="#63b8ff" stroke="#63b8ff" points="1617.05,-36.18 1613.84,-26.08 1610.05,-35.98 1617.05,-36.18"/>
</g>
<!-- Node26 -->
<g id="node26" class="node">
<title>Node26</title>
<g id="a_node26"><a xlink:title=" ">
<polygon fill="#e0e0e0" stroke="#999999" points="704.5,-85 644.5,-85 644.5,-66 704.5,-66 704.5,-85"/>
<text text-anchor="middle" x="674.5" y="-73" font-family="Helvetica,sans-Serif" font-size="10.00">filesystem</text>
</a>
</g>
</g>
<!-- Node25&#45;&gt;Node26 -->
<g id="edge32" class="edge">
<title>Node25&#45;&gt;Node26</title>
<path fill="none" stroke="#63b8ff" d="M1050.42,-179.23C999.2,-172.65 913.37,-159.77 841.5,-140 792.46,-126.51 737.73,-104.25 704.72,-89.99"/>
<polygon fill="#63b8ff" stroke="#63b8ff" points="706.35,-86.88 695.78,-86.09 703.55,-93.3 706.35,-86.88"/>
</g>
<!-- Node27 -->
<g id="node27" class="node">
<title>Node27</title>
<g id="a_node27"><a xlink:title=" ">
<polygon fill="#e0e0e0" stroke="#999999" points="772.5,-85 722.5,-85 722.5,-66 772.5,-66 772.5,-85"/>
<text text-anchor="middle" x="747.5" y="-73" font-family="Helvetica,sans-Serif" font-size="10.00">fstream</text>
</a>
</g>
</g>
<!-- Node25&#45;&gt;Node27 -->
<g id="edge33" class="edge">
<title>Node25&#45;&gt;Node27</title>
<path fill="none" stroke="#63b8ff" d="M1050.14,-177C1008.97,-169.6 946.87,-156.94 894.5,-140 851.81,-126.19 804.53,-104.56 775.4,-90.45"/>
<polygon fill="#63b8ff" stroke="#63b8ff" points="777.06,-87.37 766.54,-86.11 773.98,-93.65 777.06,-87.37"/>
</g>
<!-- Node28 -->
<g id="node28" class="node">
<title>Node28</title>
<g id="a_node28"><a xlink:title=" ">
<polygon fill="#e0e0e0" stroke="#999999" points="834,-85 791,-85 791,-66 834,-66 834,-85"/>
<text text-anchor="middle" x="812.5" y="-73" font-family="Helvetica,sans-Serif" font-size="10.00">fcntl.h</text>
</a>
</g>
</g>
<!-- Node25&#45;&gt;Node28 -->
<g id="edge38" class="edge">
<title>Node25&#45;&gt;Node28</title>
<path fill="none" stroke="#63b8ff" d="M1057.55,-175.52C1025.99,-167.59 980.17,-154.97 941.5,-140 904.63,-125.73 864.01,-104.81 838.39,-90.93"/>
<polygon fill="#63b8ff" stroke="#63b8ff" points="840.16,-87.91 829.71,-86.18 836.8,-94.05 840.16,-87.91"/>
</g>
<!-- Node29 -->
<g id="node29" class="node">
<title>Node29</title>
<g id="a_node29"><a xlink:title=" ">
<polygon fill="#e0e0e0" stroke="#999999" points="921,-85 852,-85 852,-66 921,-66 921,-85"/>
<text text-anchor="middle" x="886.5" y="-73" font-family="Helvetica,sans-Serif" font-size="10.00">sys/mman.h</text>
</a>
</g>
</g>
<!-- Node25&#45;&gt;Node29 -->
<g id="edge39" class="edge">
<title>Node25&#45;&gt;Node29</title>
<path fill="none" stroke="#63b8ff" d="M1064.71,-175.57C1039.88,-167.78 1004.46,-155.35 975.5,-140 949.75,-126.35 922.87,-106.23 905.48,-92.31"/>
<polygon fill="#63b8ff" stroke="#63b8ff" points="908,-89.85 898.03,-86.25 903.58,-95.28 908,-89.85"/>
</g>
<!-- Node30 -->
<g id="node30" class="node">
<title>Node30</title>
<g id="a_node30"><a xlink:title=" ">
<polygon fill="#e0e0e0" stroke="#999999" points="998,-85 939,-85 939,-66 998,-66 998,-85"/>
<text text-anchor="middle" x="968.5" y="-73" font-family="Helvetica,sans-Serif" font-size="10.00">sys/stat.h</text>
</a>
</g>
</g>
<!-- Node25&#45;&gt;Node30 -->
<g id="edge40" class="edge">
<title>Node25&#45;&gt;Node30</title>
<path fill="none" stroke="#63b8ff" d="M1053.91,-175.51C1032.42,-168.94 1007.27,-157.93 990.5,-140 979.4,-128.12 973.86,-110.36 971.13,-96.64"/>
<polygon fill="#63b8ff" stroke="#63b8ff" points="974.61,-96.27 969.56,-86.96 967.7,-97.39 974.61,-96.27"/>
</g>
<!-- Node31 -->
<g id="node31" class="node">
<title>Node31</title>
<g id="a_node31"><a xlink:title=" ">
<polygon fill="#e0e0e0" stroke="#999999" points="1196,-85 1131,-85 1131,-66 1196,-66 1196,-85"/>
<text text-anchor="middle" x="1163.5" y="-73" font-family="Helvetica,sans-Serif" font-size="10.00">sys/types.h</text>
</a>
</g>
</g>
<!-- Node25&#45;&gt;Node31 -->
<g id="edge41" class="edge">
<title>Node25&#45;&gt;Node31</title>
<path fill="none" stroke="#63b8ff" d="M1104.43,-175.53C1112.67,-166.92 1124.89,-153.31 1133.5,-140 1142.62,-125.89 1150.62,-108.57 1156.06,-95.58"/>
<polygon fill="#63b8ff" stroke="#63b8ff" points="1159.23,-97.08 1159.72,-86.5 1152.73,-94.46 1159.23,-97.08"/>
</g>
<!-- Node32 -->
<g id="node32" class="node">
<title>Node32</title>
<g id="a_node32"><a xlink:title=" ">
<polygon fill="#e0e0e0" stroke="#999999" points="1264.5,-85 1214.5,-85 1214.5,-66 1264.5,-66 1264.5,-85"/>
<text text-anchor="middle" x="1239.5" y="-73" font-family="Helvetica,sans-Serif" font-size="10.00">unistd.h</text>
</a>
</g>
</g>
<!-- Node25&#45;&gt;Node32 -->
<g id="edge42" class="edge">
<title>Node25&#45;&gt;Node32</title>
<path fill="none" stroke="#63b8ff" d="M1107.28,-175.66C1131.65,-157.39 1187.86,-115.23 1218.55,-92.21"/>
<polygon fill="#63b8ff" stroke="#63b8ff" points="1220.44,-95.17 1226.34,-86.37 1216.24,-89.57 1220.44,-95.17"/>
</g>
<!-- Node33 -->
<g id="node33" class="node">
<title>Node33</title>
<g id="a_node33"><a xlink:href="_hw_accessor_8hpp.html" target="_top" xlink:title=" ">
<polygon fill="white" stroke="#666666" points="1125,-140 1000,-140 1000,-121 1125,-121 1125,-140"/>
<text text-anchor="middle" x="1062.5" y="-128" font-family="Helvetica,sans-Serif" font-size="10.00">udmaio/HwAccessor.hpp</text>
</a>
</g>
</g>
<!-- Node25&#45;&gt;Node33 -->
<g id="edge43" class="edge">
<title>Node25&#45;&gt;Node33</title>
<path fill="none" stroke="#63b8ff" d="M1090.05,-175.75C1085.73,-168.81 1079.54,-158.86 1074.12,-150.16"/>
<polygon fill="#63b8ff" stroke="#63b8ff" points="1077.12,-148.37 1068.87,-141.73 1071.18,-152.07 1077.12,-148.37"/>
</g>
<!-- Node33&#45;&gt;Node3 -->
<g id="edge48" class="edge">
<title>Node33&#45;&gt;Node3</title>
<path fill="none" stroke="#63b8ff" d="M1055.27,-120.51C1044.96,-107.86 1025.18,-84.32 1006.5,-66 994.22,-53.96 979.45,-41.44 967.76,-31.95"/>
<polygon fill="#63b8ff" stroke="#63b8ff" points="969.96,-29.23 959.97,-25.7 965.59,-34.69 969.96,-29.23"/>
</g>
<!-- Node33&#45;&gt;Node6 -->
<g id="edge49" class="edge">
<title>Node33&#45;&gt;Node6</title>
<path fill="none" stroke="#63b8ff" d="M1117.97,-120.51C1174.55,-111.34 1262.36,-97.11 1322.72,-87.32"/>
<polygon fill="#63b8ff" stroke="#63b8ff" points="1323.23,-90.79 1332.54,-85.73 1322.11,-83.88 1323.23,-90.79"/>
</g>
<!-- Node33&#45;&gt;Node7 -->
<g id="edge55" class="edge">
<title>Node33&#45;&gt;Node7</title>
<path fill="none" stroke="#63b8ff" d="M999.75,-123.42C888.65,-112.66 659.82,-90.48 561.76,-80.98"/>
<polygon fill="#63b8ff" stroke="#63b8ff" points="562.27,-77.52 551.98,-80.03 561.59,-84.48 562.27,-77.52"/>
</g>
<!-- Node33&#45;&gt;Node18 -->
<g id="edge56" class="edge">
<title>Node33&#45;&gt;Node18</title>
<path fill="none" stroke="#63b8ff" d="M1125.18,-122.99C1202.39,-114.89 1337.88,-100.39 1464.77,-85.18"/>
<polygon fill="#63b8ff" stroke="#63b8ff" points="1464.83,-88.7 1474.34,-84.03 1463.99,-81.75 1464.83,-88.7"/>
</g>
<!-- Node33&#45;&gt;Node19 -->
<g id="edge46" class="edge">
<title>Node33&#45;&gt;Node19</title>
<path fill="none" stroke="#63b8ff" d="M1063.5,-120.57C1065.56,-106.66 1071.6,-79.96 1088.5,-66 1119.99,-39.98 1236.65,-25.37 1298.09,-19.33"/>
<polygon fill="#63b8ff" stroke="#63b8ff" points="1298.11,-22.85 1307.73,-18.42 1297.45,-15.88 1298.11,-22.85"/>
</g>
<!-- Node33&#45;&gt;Node20 -->
<g id="edge47" class="edge">
<title>Node33&#45;&gt;Node20</title>
<path fill="none" stroke="#63b8ff" d="M1067.67,-120.59C1076.58,-106.19 1096.3,-78.19 1121.5,-66 1212.6,-21.92 1476.65,-51.7 1575.5,-30 1577.52,-29.56 1579.59,-29.03 1581.65,-28.44"/>
<polygon fill="#63b8ff" stroke="#63b8ff" points="1582.64,-31.8 1591.06,-25.37 1580.47,-25.15 1582.64,-31.8"/>
</g>
<!-- Node33&#45;&gt;Node26 -->
<g id="edge44" class="edge">
<title>Node33&#45;&gt;Node26</title>
<path fill="none" stroke="#63b8ff" d="M999.52,-123.15C931.84,-115.95 820.88,-103.07 715.81,-85.26"/>
<polygon fill="#63b8ff" stroke="#63b8ff" points="716.62,-81.85 706.17,-83.61 715.44,-88.75 716.62,-81.85"/>
</g>
<!-- Node33&#45;&gt;Node27 -->
<g id="edge45" class="edge">
<title>Node33&#45;&gt;Node27</title>
<path fill="none" stroke="#63b8ff" d="M999.72,-121.17C945.15,-113.56 863.75,-101.35 783.94,-85.34"/>
<polygon fill="#63b8ff" stroke="#63b8ff" points="784.67,-81.92 774.18,-83.36 783.28,-88.78 784.67,-81.92"/>
</g>
<!-- Node33&#45;&gt;Node28 -->
<g id="edge50" class="edge">
<title>Node33&#45;&gt;Node28</title>
<path fill="none" stroke="#63b8ff" d="M1012.46,-120.51C970.16,-112.65 907.73,-100.47 845.25,-85.53"/>
<polygon fill="#63b8ff" stroke="#63b8ff" points="846.42,-82.22 835.88,-83.27 844.77,-89.02 846.42,-82.22"/>
</g>
<!-- Node33&#45;&gt;Node29 -->
<g id="edge51" class="edge">
<title>Node33&#45;&gt;Node29</title>
<path fill="none" stroke="#63b8ff" d="M1032.64,-120.51C1003.61,-111.76 959.28,-98.42 927.06,-88.71"/>
<polygon fill="#63b8ff" stroke="#63b8ff" points="928.24,-85.41 917.66,-85.88 926.22,-92.12 928.24,-85.41"/>
</g>
<!-- Node33&#45;&gt;Node30 -->
<g id="edge52" class="edge">
<title>Node33&#45;&gt;Node30</title>
<path fill="none" stroke="#63b8ff" d="M1046.55,-120.51C1032.15,-112.39 1010.71,-100.3 993.94,-90.85"/>
<polygon fill="#63b8ff" stroke="#63b8ff" points="995.96,-87.96 985.53,-86.1 992.52,-94.06 995.96,-87.96"/>
</g>
<!-- Node33&#45;&gt;Node31 -->
<g id="edge53" class="edge">
<title>Node33&#45;&gt;Node31</title>
<path fill="none" stroke="#63b8ff" d="M1079.63,-120.51C1095.25,-112.31 1118.58,-100.07 1136.67,-90.58"/>
<polygon fill="#63b8ff" stroke="#63b8ff" points="1138.05,-93.81 1145.28,-86.06 1134.8,-87.61 1138.05,-93.81"/>
</g>
<!-- Node33&#45;&gt;Node32 -->
<g id="edge54" class="edge">
<title>Node33&#45;&gt;Node32</title>
<path fill="none" stroke="#63b8ff" d="M1092.53,-120.51C1123.14,-111.34 1170.65,-97.11 1203.32,-87.33"/>
<polygon fill="#63b8ff" stroke="#63b8ff" points="1204.18,-90.73 1212.76,-84.51 1202.18,-84.02 1204.18,-90.73"/>
</g>
<!-- Node34&#45;&gt;Node17 -->
<g id="edge61" class="edge">
<title>Node34&#45;&gt;Node17</title>
<path fill="none" stroke="#63b8ff" d="M1235.37,-230.51C1254.92,-222.08 1284.4,-209.38 1306.67,-199.79"/>
<polygon fill="#63b8ff" stroke="#63b8ff" points="1307.75,-203.13 1315.55,-195.96 1304.98,-196.7 1307.75,-203.13"/>
</g>
<!-- Node35&#45;&gt;Node16 -->
<g id="edge65" class="edge">
<title>Node35&#45;&gt;Node16</title>
<path fill="none" stroke="#63b8ff" d="M1531.04,-291.37C1525.79,-283.07 1517.7,-270.28 1511.03,-259.72"/>
<polygon fill="#63b8ff" stroke="#63b8ff" points="1514.09,-258.03 1505.79,-251.45 1508.18,-261.77 1514.09,-258.03"/>
</g>
<!-- Node35&#45;&gt;Node20 -->
<g id="edge64" class="edge">
<title>Node35&#45;&gt;Node20</title>
<path fill="none" stroke="#63b8ff" d="M1567.67,-291C1589,-283.34 1616.41,-270.29 1633.5,-250 1652.56,-227.37 1653.5,-216.09 1653.5,-186.5 1653.5,-186.5 1653.5,-186.5 1653.5,-129.5 1653.5,-94.45 1636.32,-56.6 1624.48,-34.67"/>
<polygon fill="#63b8ff" stroke="#63b8ff" points="1627.59,-33.06 1619.64,-26.07 1621.5,-36.5 1627.59,-33.06"/>
</g>
<!-- Node35&#45;&gt;Node24 -->
<g id="edge66" class="edge">
<title>Node35&#45;&gt;Node24</title>
<path fill="none" stroke="#63b8ff" d="M1506.28,-291.12C1472.23,-281.11 1416.71,-264.79 1378.71,-253.62"/>
<polygon fill="#63b8ff" stroke="#63b8ff" points="1380.04,-250.36 1369.46,-250.9 1378.07,-257.07 1380.04,-250.36"/>
</g>
<!-- Node36 -->
<g id="node36" class="node">
<title>Node36</title>
<g id="a_node36"><a xlink:title=" ">
<polygon fill="#e0e0e0" stroke="#999999" points="1625,-250 1576,-250 1576,-231 1625,-231 1625,-250"/>
<text text-anchor="middle" x="1600.5" y="-238" font-family="Helvetica,sans-Serif" font-size="10.00">cstddef</text>
</a>
</g>
</g>
<!-- Node35&#45;&gt;Node36 -->
<g id="edge63" class="edge">
<title>Node35&#45;&gt;Node36</title>
<path fill="none" stroke="#63b8ff" d="M1546.22,-291.12C1555.81,-282.35 1570.69,-268.75 1582.44,-258"/>
<polygon fill="#63b8ff" stroke="#63b8ff" points="1584.55,-260.82 1589.57,-251.49 1579.83,-255.65 1584.55,-260.82"/>
</g>
</g>
</svg>
