<?xml version="1.0" encoding="UTF-8" standalone="no"?>
<!DOCTYPE svg PUBLIC "-//W3C//DTD SVG 1.1//EN"
 "http://www.w3.org/Graphics/SVG/1.1/DTD/svg11.dtd">
<!-- Generated by graphviz version 7.0.5 (20221223.1930)
 -->
<!-- Title: DataHandlerSync.cpp Pages: 1 -->
<!--zoomable 489 -->
<svg id="main" version="1.1" xmlns="http://www.w3.org/2000/svg" xmlns:xlink="http://www.w3.org/1999/xlink" xml:space="preserve" onload="init(evt)">
<style type="text/css"><![CDATA[
.edge:hover path { stroke: red; }
.edge:hover polygon { stroke: red; fill: red; }
]]></style>
<script type="text/javascript"><![CDATA[
var edges = document.getElementsByTagName('g');
if (edges && edges.length) {
  for (var i=0;i<edges.length;i++) {
    if (edges[i].id.substr(0,4)=='edge') {
      edges[i].setAttribute('class','edge');
    }
  }
}
]]></script>
        <defs>
                <circle id="rim" cx="0" cy="0" r="7"/>
                <circle id="rim2" cx="0" cy="0" r="3.5"/>
                <g id="zoomPlus">
                        <use xlink:href="#rim" fill="#404040">
                                <set attributeName="fill" to="#808080" begin="zoomplus.mouseover" end="zoomplus.mouseout"/>
                        </use>
                        <path d="M-4,0h8M0,-4v8" fill="none" stroke="white" stroke-width="1.5" pointer-events="none"/>
                </g>
                <g id="zoomMin">
                        <use xlink:href="#rim" fill="#404040">
                                <set attributeName="fill" to="#808080" begin="zoomminus.mouseover" end="zoomminus.mouseout"/>
                        </use>
                        <path d="M-4,0h8" fill="none" stroke="white" stroke-width="1.5" pointer-events="none"/>
                </g>
                <g id="dirArrow">
                        <path fill="none" stroke="white" stroke-width="1.5" d="M0,-3.0v7 M-2.5,-0.5L0,-3.0L2.5,-0.5"/>
                </g>
               <g id="resetDef">
                       <use xlink:href="#rim2" fill="#404040">
                               <set attributeName="fill" to="#808080" begin="reset.mouseover" end="reset.mouseout"/>
                       </use>
               </g>
        </defs>

<script type="text/javascript">
var viewWidth = 1949;
var viewHeight = 489;
var sectionId = 'dynsection-0';
</script>
<script xlink:href="svgpan.js"/>
<svg id="graph" class="graph">
<g id="viewport">
<title>DataHandlerSync.cpp</title>
<!-- Node1 -->
<g id="node1" class="node">
<title>Node1</title>
<g id="a_node1"><a xlink:title=" ">
<polygon fill="#999999" stroke="#666666" points="187,-481 77,-481 77,-462 187,-462 187,-481"/>
<text text-anchor="middle" x="132" y="-469" font-family="Helvetica,sans-Serif" font-size="10.00">DataHandlerSync.cpp</text>
</a>
</g>
</g>
<!-- Node2 -->
<g id="node2" class="node">
<title>Node2</title>
<g id="a_node2"><a xlink:href="_data_handler_sync_8hpp.html" target="_top" xlink:title=" ">
<polygon fill="white" stroke="#666666" points="204.5,-426 59.5,-426 59.5,-407 204.5,-407 204.5,-426"/>
<text text-anchor="middle" x="132" y="-414" font-family="Helvetica,sans-Serif" font-size="10.00">udmaio/DataHandlerSync.hpp</text>
</a>
</g>
</g>
<!-- Node1&#45;&gt;Node2 -->
<g id="edge1" class="edge">
<title>Node1&#45;&gt;Node2</title>
<path fill="none" stroke="#63b8ff" d="M132,-461.75C132,-455.27 132,-446.16 132,-437.9"/>
<polygon fill="#63b8ff" stroke="#63b8ff" points="135.5,-437.96 132,-427.96 128.5,-437.96 135.5,-437.96"/>
</g>
<!-- Node3 -->
<g id="node3" class="node">
<title>Node3</title>
<g id="a_node3"><a xlink:title=" ">
<polygon fill="#e0e0e0" stroke="#999999" points="63,-371 13,-371 13,-352 63,-352 63,-371"/>
<text text-anchor="middle" x="38" y="-359" font-family="Helvetica,sans-Serif" font-size="10.00">optional</text>
</a>
</g>
</g>
<!-- Node2&#45;&gt;Node3 -->
<g id="edge2" class="edge">
<title>Node2&#45;&gt;Node3</title>
<path fill="none" stroke="#63b8ff" d="M116.05,-406.51C101.65,-398.39 80.21,-386.3 63.44,-376.85"/>
<polygon fill="#63b8ff" stroke="#63b8ff" points="65.46,-373.96 55.03,-372.1 62.02,-380.06 65.46,-373.96"/>
</g>
<!-- Node4 -->
<g id="node4" class="node">
<title>Node4</title>
<g id="a_node4"><a xlink:title=" ">
<polygon fill="#e0e0e0" stroke="#999999" points="44,-310.5 0,-310.5 0,-291.5 44,-291.5 44,-310.5"/>
<text text-anchor="middle" x="22" y="-298.5" font-family="Helvetica,sans-Serif" font-size="10.00">thread</text>
</a>
</g>
</g>
<!-- Node2&#45;&gt;Node4 -->
<g id="edge3" class="edge">
<title>Node2&#45;&gt;Node4</title>
<path fill="none" stroke="#63b8ff" d="M123.92,-406.8C112.47,-394.5 90.82,-371.36 72,-352 61.12,-340.81 48.72,-328.41 38.99,-318.76"/>
<polygon fill="#63b8ff" stroke="#63b8ff" points="41.57,-316.39 32,-311.84 36.65,-321.36 41.57,-316.39"/>
</g>
<!-- Node5 -->
<g id="node5" class="node">
<title>Node5</title>
<g id="a_node5"><a xlink:href="_concurrent_queue_8hpp.html" target="_top" xlink:title=" ">
<polygon fill="white" stroke="#666666" points="229,-371 119,-371 119,-352 229,-352 229,-371"/>
<text text-anchor="middle" x="174" y="-359" font-family="Helvetica,sans-Serif" font-size="10.00">ConcurrentQueue.hpp</text>
</a>
</g>
</g>
<!-- Node2&#45;&gt;Node5 -->
<g id="edge4" class="edge">
<title>Node2&#45;&gt;Node5</title>
<path fill="none" stroke="#63b8ff" d="M138.94,-406.75C144.62,-399.58 152.84,-389.2 159.89,-380.3"/>
<polygon fill="#63b8ff" stroke="#63b8ff" points="162.51,-382.64 165.97,-372.63 157.02,-378.29 162.51,-382.64"/>
</g>
<!-- Node10 -->
<g id="node10" class="node">
<title>Node10</title>
<g id="a_node10"><a xlink:href="_data_handler_abstract_8hpp.html" target="_top" xlink:title=" ">
<polygon fill="white" stroke="#666666" points="1048.5,-371 923.5,-371 923.5,-352 1048.5,-352 1048.5,-371"/>
<text text-anchor="middle" x="986" y="-359" font-family="Helvetica,sans-Serif" font-size="10.00">DataHandlerAbstract.hpp</text>
</a>
</g>
</g>
<!-- Node2&#45;&gt;Node10 -->
<g id="edge10" class="edge">
<title>Node2&#45;&gt;Node10</title>
<path fill="none" stroke="#63b8ff" d="M204.81,-410.98C365.62,-401 749.66,-377.17 911.77,-367.11"/>
<polygon fill="#63b8ff" stroke="#63b8ff" points="911.78,-370.61 921.54,-366.5 911.35,-363.63 911.78,-370.61"/>
</g>
<!-- Node5&#45;&gt;Node4 -->
<g id="edge9" class="edge">
<title>Node5&#45;&gt;Node4</title>
<path fill="none" stroke="#63b8ff" d="M148.3,-351.65C123.67,-343.03 85.52,-329.3 53,-316 52.52,-315.8 52.04,-315.61 51.56,-315.4"/>
<polygon fill="#63b8ff" stroke="#63b8ff" points="53.21,-312.31 42.64,-311.55 50.44,-318.73 53.21,-312.31"/>
</g>
<!-- Node6 -->
<g id="node6" class="node">
<title>Node6</title>
<g id="a_node6"><a xlink:title=" ">
<polygon fill="#e0e0e0" stroke="#999999" points="108,-310.5 62,-310.5 62,-291.5 108,-291.5 108,-310.5"/>
<text text-anchor="middle" x="85" y="-298.5" font-family="Helvetica,sans-Serif" font-size="10.00">chrono</text>
</a>
</g>
</g>
<!-- Node5&#45;&gt;Node6 -->
<g id="edge5" class="edge">
<title>Node5&#45;&gt;Node6</title>
<path fill="none" stroke="#63b8ff" d="M160.48,-351.62C146.63,-342.51 124.82,-328.18 108.2,-317.25"/>
<polygon fill="#63b8ff" stroke="#63b8ff" points="110.19,-314.37 99.91,-311.8 106.34,-320.22 110.19,-314.37"/>
</g>
<!-- Node7 -->
<g id="node7" class="node">
<title>Node7</title>
<g id="a_node7"><a xlink:title=" ">
<polygon fill="#e0e0e0" stroke="#999999" points="221.5,-310.5 126.5,-310.5 126.5,-291.5 221.5,-291.5 221.5,-310.5"/>
<text text-anchor="middle" x="174" y="-298.5" font-family="Helvetica,sans-Serif" font-size="10.00">condition_variable</text>
</a>
</g>
</g>
<!-- Node5&#45;&gt;Node7 -->
<g id="edge6" class="edge">
<title>Node5&#45;&gt;Node7</title>
<path fill="none" stroke="#63b8ff" d="M174,-351.87C174,-344 174,-332.1 174,-321.89"/>
<polygon fill="#63b8ff" stroke="#63b8ff" points="177.5,-322.18 174,-312.18 170.5,-322.18 177.5,-322.18"/>
</g>
<!-- Node8 -->
<g id="node8" class="node">
<title>Node8</title>
<g id="a_node8"><a xlink:title=" ">
<polygon fill="#e0e0e0" stroke="#999999" points="282.5,-310.5 239.5,-310.5 239.5,-291.5 282.5,-291.5 282.5,-310.5"/>
<text text-anchor="middle" x="261" y="-298.5" font-family="Helvetica,sans-Serif" font-size="10.00">mutex</text>
</a>
</g>
</g>
<!-- Node5&#45;&gt;Node8 -->
<g id="edge7" class="edge">
<title>Node5&#45;&gt;Node8</title>
<path fill="none" stroke="#63b8ff" d="M187.21,-351.62C200.75,-342.51 222.07,-328.18 238.32,-317.25"/>
<polygon fill="#63b8ff" stroke="#63b8ff" points="240.06,-320.3 246.41,-311.81 236.15,-314.49 240.06,-320.3"/>
</g>
<!-- Node9 -->
<g id="node9" class="node">
<title>Node9</title>
<g id="a_node9"><a xlink:title=" ">
<polygon fill="#e0e0e0" stroke="#999999" points="343.5,-310.5 300.5,-310.5 300.5,-291.5 343.5,-291.5 343.5,-310.5"/>
<text text-anchor="middle" x="322" y="-298.5" font-family="Helvetica,sans-Serif" font-size="10.00">queue</text>
</a>
</g>
</g>
<!-- Node5&#45;&gt;Node9 -->
<g id="edge8" class="edge">
<title>Node5&#45;&gt;Node9</title>
<path fill="none" stroke="#63b8ff" d="M198.82,-351.56C222.63,-342.86 259.49,-329.09 291,-316 291.48,-315.8 291.96,-315.6 292.44,-315.4"/>
<polygon fill="#63b8ff" stroke="#63b8ff" points="293.57,-318.72 301.34,-311.52 290.78,-312.3 293.57,-318.72"/>
</g>
<!-- Node11 -->
<g id="node11" class="node">
<title>Node11</title>
<g id="a_node11"><a xlink:title=" ">
<polygon fill="#e0e0e0" stroke="#999999" points="1013.5,-24.5 972.5,-24.5 972.5,-5.5 1013.5,-5.5 1013.5,-24.5"/>
<text text-anchor="middle" x="993" y="-12.5" font-family="Helvetica,sans-Serif" font-size="10.00">string</text>
</a>
</g>
</g>
<!-- Node10&#45;&gt;Node11 -->
<g id="edge11" class="edge">
<title>Node10&#45;&gt;Node11</title>
<path fill="none" stroke="#63b8ff" d="M988.84,-351.89C994.02,-337.14 1006.14,-306.64 1024,-286 1128.47,-165.26 1413.59,-185.76 1308,-66 1265.78,-18.12 1084.33,-47.71 1023,-30 1022.03,-29.72 1021.06,-29.41 1020.08,-29.09"/>
<polygon fill="#63b8ff" stroke="#63b8ff" points="1021.77,-25.99 1011.18,-25.51 1019.16,-32.49 1021.77,-25.99"/>
</g>
<!-- Node12 -->
<g id="node12" class="node">
<title>Node12</title>
<g id="a_node12"><a xlink:title=" ">
<polygon fill="#e0e0e0" stroke="#999999" points="444,-195 400,-195 400,-176 444,-176 444,-195"/>
<text text-anchor="middle" x="422" y="-183" font-family="Helvetica,sans-Serif" font-size="10.00">vector</text>
</a>
</g>
</g>
<!-- Node10&#45;&gt;Node12 -->
<g id="edge12" class="edge">
<title>Node10&#45;&gt;Node12</title>
<path fill="none" stroke="#63b8ff" d="M923.17,-358.17C824.86,-352.06 631.4,-329.96 491,-250 469.65,-237.84 449.49,-217.94 436.54,-203.66"/>
<polygon fill="#63b8ff" stroke="#63b8ff" points="439.35,-201.57 430.13,-196.36 434.09,-206.19 439.35,-201.57"/>
</g>
<!-- Node13 -->
<g id="node13" class="node">
<title>Node13</title>
<g id="a_node13"><a xlink:title=" ">
<polygon fill="#e0e0e0" stroke="#999999" points="1208,-310.5 1128,-310.5 1128,-291.5 1208,-291.5 1208,-310.5"/>
<text text-anchor="middle" x="1168" y="-298.5" font-family="Helvetica,sans-Serif" font-size="10.00">boost/asio.hpp</text>
</a>
</g>
</g>
<!-- Node10&#45;&gt;Node13 -->
<g id="edge13" class="edge">
<title>Node10&#45;&gt;Node13</title>
<path fill="none" stroke="#63b8ff" d="M1013.64,-351.62C1044.51,-341.69 1094.68,-325.57 1129.41,-314.4"/>
<polygon fill="#63b8ff" stroke="#63b8ff" points="1130.21,-317.82 1138.66,-311.43 1128.07,-311.16 1130.21,-317.82"/>
</g>
<!-- Node14 -->
<g id="node14" class="node">
<title>Node14</title>
<g id="a_node14"><a xlink:title=" ">
<polygon fill="#e0e0e0" stroke="#999999" points="440.5,-85 303.5,-85 303.5,-66 440.5,-66 440.5,-85"/>
<text text-anchor="middle" x="372" y="-73" font-family="Helvetica,sans-Serif" font-size="10.00">boost/core/noncopyable.hpp</text>
</a>
</g>
</g>
<!-- Node10&#45;&gt;Node14 -->
<g id="edge14" class="edge">
<title>Node10&#45;&gt;Node14</title>
<path fill="none" stroke="#63b8ff" d="M923.18,-361.46C766.69,-362.18 372,-352.93 372,-241.5 372,-241.5 372,-241.5 372,-184.5 372,-153.92 372,-118.48 372,-96.77"/>
<polygon fill="#63b8ff" stroke="#63b8ff" points="375.5,-96.97 372,-86.97 368.5,-96.97 375.5,-96.97"/>
</g>
<!-- Node15 -->
<g id="node15" class="node">
<title>Node15</title>
<g id="a_node15"><a xlink:href="_logging_8hpp.html" target="_top" xlink:title=" ">
<polygon fill="white" stroke="#666666" points="1447.5,-85 1378.5,-85 1378.5,-66 1447.5,-66 1447.5,-85"/>
<text text-anchor="middle" x="1413" y="-73" font-family="Helvetica,sans-Serif" font-size="10.00">Logging.hpp</text>
</a>
</g>
</g>
<!-- Node10&#45;&gt;Node15 -->
<g id="edge15" class="edge">
<title>Node10&#45;&gt;Node15</title>
<path fill="none" stroke="#63b8ff" d="M1048.92,-356.97C1139.34,-351.22 1301.06,-338.17 1355,-316 1404.95,-295.47 1451,-295.51 1451,-241.5 1451,-241.5 1451,-241.5 1451,-184.5 1451,-151.65 1435.16,-116.19 1423.93,-95.19"/>
<polygon fill="#63b8ff" stroke="#63b8ff" points="1427.12,-93.72 1419.18,-86.69 1421,-97.13 1427.12,-93.72"/>
</g>
<!-- Node23 -->
<g id="node23" class="node">
<title>Node23</title>
<g id="a_node23"><a xlink:href="_u_dma_buf_8hpp.html" target="_top" xlink:title=" ">
<polygon fill="white" stroke="#666666" points="1109.5,-310.5 1032.5,-310.5 1032.5,-291.5 1109.5,-291.5 1109.5,-310.5"/>
<text text-anchor="middle" x="1071" y="-298.5" font-family="Helvetica,sans-Serif" font-size="10.00">UDmaBuf.hpp</text>
</a>
</g>
</g>
<!-- Node10&#45;&gt;Node23 -->
<g id="edge24" class="edge">
<title>Node10&#45;&gt;Node23</title>
<path fill="none" stroke="#63b8ff" d="M998.91,-351.62C1012.14,-342.51 1032.97,-328.18 1048.84,-317.25"/>
<polygon fill="#63b8ff" stroke="#63b8ff" points="1050.47,-320.38 1056.72,-311.83 1046.5,-314.61 1050.47,-320.38"/>
</g>
<!-- Node31 -->
<g id="node31" class="node">
<title>Node31</title>
<g id="a_node31"><a xlink:href="_uio_axi_dma_if_8hpp.html" target="_top" xlink:title=" ">
<polygon fill="white" stroke="#666666" points="955.5,-310.5 866.5,-310.5 866.5,-291.5 955.5,-291.5 955.5,-310.5"/>
<text text-anchor="middle" x="911" y="-298.5" font-family="Helvetica,sans-Serif" font-size="10.00">UioAxiDmaIf.hpp</text>
</a>
</g>
</g>
<!-- Node10&#45;&gt;Node31 -->
<g id="edge36" class="edge">
<title>Node10&#45;&gt;Node31</title>
<path fill="none" stroke="#63b8ff" d="M974.61,-351.62C963.16,-342.68 945.25,-328.72 931.35,-317.87"/>
<polygon fill="#63b8ff" stroke="#63b8ff" points="933.73,-315.29 923.69,-311.9 929.42,-320.81 933.73,-315.29"/>
</g>
<!-- Node43 -->
<g id="node43" class="node">
<title>Node43</title>
<g id="a_node43"><a xlink:href="_uio_mem_sgdma_8hpp.html" target="_top" xlink:title=" ">
<polygon fill="white" stroke="#666666" points="822,-310.5 720,-310.5 720,-291.5 822,-291.5 822,-310.5"/>
<text text-anchor="middle" x="771" y="-298.5" font-family="Helvetica,sans-Serif" font-size="10.00">UioMemSgdma.hpp</text>
</a>
</g>
</g>
<!-- Node10&#45;&gt;Node43 -->
<g id="edge70" class="edge">
<title>Node10&#45;&gt;Node43</title>
<path fill="none" stroke="#63b8ff" d="M953.35,-351.62C916.41,-341.56 856.07,-325.15 815,-313.97"/>
<polygon fill="#63b8ff" stroke="#63b8ff" points="815.99,-310.61 805.42,-311.37 814.15,-317.37 815.99,-310.61"/>
</g>
<!-- Node44 -->
<g id="node44" class="node">
<title>Node44</title>
<g id="a_node44"><a xlink:title=" ">
<polygon fill="#e0e0e0" stroke="#999999" points="1346,-316 1226,-316 1226,-286 1346,-286 1346,-316"/>
<text text-anchor="start" x="1234" y="-304" font-family="Helvetica,sans-Serif" font-size="10.00">boost/asio/posix/stream</text>
<text text-anchor="middle" x="1286" y="-293" font-family="Helvetica,sans-Serif" font-size="10.00">_descriptor.hpp</text>
</a>
</g>
</g>
<!-- Node10&#45;&gt;Node44 -->
<g id="edge73" class="edge">
<title>Node10&#45;&gt;Node44</title>
<path fill="none" stroke="#63b8ff" d="M1033.36,-351.52C1077.71,-343.08 1146.11,-329.97 1214.78,-316.43"/>
<polygon fill="#63b8ff" stroke="#63b8ff" points="1215.18,-319.92 1224.31,-314.55 1213.82,-313.05 1215.18,-319.92"/>
</g>
<!-- Node15&#45;&gt;Node11 -->
<g id="edge16" class="edge">
<title>Node15&#45;&gt;Node11</title>
<path fill="none" stroke="#63b8ff" d="M1378.25,-68.18C1373.47,-67.39 1368.62,-66.64 1364,-66 1213.06,-44.96 1169.84,-70.78 1023,-30 1022.01,-29.72 1021.01,-29.42 1020,-29.09"/>
<polygon fill="#63b8ff" stroke="#63b8ff" points="1021.43,-25.89 1010.85,-25.43 1018.83,-32.39 1021.43,-25.89"/>
</g>
<!-- Node16 -->
<g id="node16" class="node">
<title>Node16</title>
<g id="a_node16"><a xlink:title=" ">
<polygon fill="#e0e0e0" stroke="#999999" points="1793,-24.5 1697,-24.5 1697,-5.5 1793,-5.5 1793,-24.5"/>
<text text-anchor="middle" x="1745" y="-12.5" font-family="Helvetica,sans-Serif" font-size="10.00">boost/log/core.hpp</text>
</a>
</g>
</g>
<!-- Node15&#45;&gt;Node16 -->
<g id="edge17" class="edge">
<title>Node15&#45;&gt;Node16</title>
<path fill="none" stroke="#63b8ff" d="M1447.89,-69.77C1500.27,-62.47 1602.22,-47.45 1688,-30 1691.76,-29.24 1695.64,-28.39 1699.54,-27.51"/>
<polygon fill="#63b8ff" stroke="#63b8ff" points="1700.02,-30.99 1708.96,-25.31 1698.43,-24.18 1700.02,-30.99"/>
</g>
<!-- Node17 -->
<g id="node17" class="node">
<title>Node17</title>
<g id="a_node17"><a xlink:title=" ">
<polygon fill="#e0e0e0" stroke="#999999" points="1940.5,-24.5 1811.5,-24.5 1811.5,-5.5 1940.5,-5.5 1940.5,-24.5"/>
<text text-anchor="middle" x="1876" y="-12.5" font-family="Helvetica,sans-Serif" font-size="10.00">boost/log/expressions.hpp</text>
</a>
</g>
</g>
<!-- Node15&#45;&gt;Node17 -->
<g id="edge18" class="edge">
<title>Node15&#45;&gt;Node17</title>
<path fill="none" stroke="#63b8ff" d="M1447.98,-71.36C1516.26,-65.05 1671.95,-49.71 1802,-30 1807.98,-29.09 1814.21,-28.06 1820.41,-26.97"/>
<polygon fill="#63b8ff" stroke="#63b8ff" points="1820.77,-30.46 1829.99,-25.24 1819.53,-23.57 1820.77,-30.46"/>
</g>
<!-- Node18 -->
<g id="node18" class="node">
<title>Node18</title>
<g id="a_node18"><a xlink:title=" ">
<polygon fill="#e0e0e0" stroke="#999999" points="1132.5,-24.5 1031.5,-24.5 1031.5,-5.5 1132.5,-5.5 1132.5,-24.5"/>
<text text-anchor="middle" x="1082" y="-12.5" font-family="Helvetica,sans-Serif" font-size="10.00">boost/log/trivial.hpp</text>
</a>
</g>
</g>
<!-- Node15&#45;&gt;Node18 -->
<g id="edge19" class="edge">
<title>Node15&#45;&gt;Node18</title>
<path fill="none" stroke="#63b8ff" d="M1378.21,-68.42C1373.44,-67.6 1368.6,-66.77 1364,-66 1265.42,-49.46 1240.06,-49.37 1142,-30 1137.99,-29.21 1133.83,-28.34 1129.67,-27.44"/>
<polygon fill="#63b8ff" stroke="#63b8ff" points="1130.72,-24.08 1120.2,-25.32 1129.19,-30.92 1130.72,-24.08"/>
</g>
<!-- Node19 -->
<g id="node19" class="node">
<title>Node19</title>
<g id="a_node19"><a xlink:title=" ">
<polygon fill="#e0e0e0" stroke="#999999" points="1259.5,-30 1150.5,-30 1150.5,0 1259.5,0 1259.5,-30"/>
<text text-anchor="start" x="1158.5" y="-18" font-family="Helvetica,sans-Serif" font-size="10.00">boost/log/utility/setup</text>
<text text-anchor="middle" x="1205" y="-7" font-family="Helvetica,sans-Serif" font-size="10.00">/console.hpp</text>
</a>
</g>
</g>
<!-- Node15&#45;&gt;Node19 -->
<g id="edge20" class="edge">
<title>Node15&#45;&gt;Node19</title>
<path fill="none" stroke="#63b8ff" d="M1381.41,-65.62C1351.21,-57.12 1304.83,-44.08 1267.2,-33.49"/>
<polygon fill="#63b8ff" stroke="#63b8ff" points="1268.37,-30.19 1257.8,-30.85 1266.48,-36.93 1268.37,-30.19"/>
</g>
<!-- Node20 -->
<g id="node20" class="node">
<title>Node20</title>
<g id="a_node20"><a xlink:title=" ">
<polygon fill="#e0e0e0" stroke="#999999" points="1408.5,-30 1277.5,-30 1277.5,0 1408.5,0 1408.5,-30"/>
<text text-anchor="start" x="1285.5" y="-18" font-family="Helvetica,sans-Serif" font-size="10.00">boost/log/sources/severity</text>
<text text-anchor="middle" x="1343" y="-7" font-family="Helvetica,sans-Serif" font-size="10.00">_channel_logger.hpp</text>
</a>
</g>
</g>
<!-- Node15&#45;&gt;Node20 -->
<g id="edge21" class="edge">
<title>Node15&#45;&gt;Node20</title>
<path fill="none" stroke="#63b8ff" d="M1402.37,-65.62C1393.47,-58.18 1380.4,-47.25 1368.78,-37.55"/>
<polygon fill="#63b8ff" stroke="#63b8ff" points="1371.36,-35.14 1361.44,-31.41 1366.87,-40.51 1371.36,-35.14"/>
</g>
<!-- Node21 -->
<g id="node21" class="node">
<title>Node21</title>
<g id="a_node21"><a xlink:title=" ">
<polygon fill="#e0e0e0" stroke="#999999" points="1539.5,-30 1426.5,-30 1426.5,0 1539.5,0 1539.5,-30"/>
<text text-anchor="start" x="1434.5" y="-18" font-family="Helvetica,sans-Serif" font-size="10.00">boost/log/support/date</text>
<text text-anchor="middle" x="1483" y="-7" font-family="Helvetica,sans-Serif" font-size="10.00">_time.hpp</text>
</a>
</g>
</g>
<!-- Node15&#45;&gt;Node21 -->
<g id="edge22" class="edge">
<title>Node15&#45;&gt;Node21</title>
<path fill="none" stroke="#63b8ff" d="M1423.63,-65.62C1432.53,-58.18 1445.6,-47.25 1457.22,-37.55"/>
<polygon fill="#63b8ff" stroke="#63b8ff" points="1459.13,-40.51 1464.56,-31.41 1454.64,-35.14 1459.13,-40.51"/>
</g>
<!-- Node22 -->
<g id="node22" class="node">
<title>Node22</title>
<g id="a_node22"><a xlink:title=" ">
<polygon fill="#e0e0e0" stroke="#999999" points="1678.5,-30 1557.5,-30 1557.5,0 1678.5,0 1678.5,-30"/>
<text text-anchor="start" x="1565.5" y="-18" font-family="Helvetica,sans-Serif" font-size="10.00">boost/log/utility/setup</text>
<text text-anchor="middle" x="1618" y="-7" font-family="Helvetica,sans-Serif" font-size="10.00">/common_attributes.hpp</text>
</a>
</g>
</g>
<!-- Node15&#45;&gt;Node22 -->
<g id="edge23" class="edge">
<title>Node15&#45;&gt;Node22</title>
<path fill="none" stroke="#63b8ff" d="M1444.14,-65.62C1473.9,-57.12 1519.61,-44.08 1556.69,-33.49"/>
<polygon fill="#63b8ff" stroke="#63b8ff" points="1557.29,-36.96 1565.94,-30.85 1555.37,-30.23 1557.29,-36.96"/>
</g>
<!-- Node23&#45;&gt;Node15 -->
<g id="edge35" class="edge">
<title>Node23&#45;&gt;Node15</title>
<path fill="none" stroke="#63b8ff" d="M1095.29,-291C1136.68,-275.07 1222.63,-239.38 1287,-195 1331.28,-164.47 1375.28,-118.65 1397.71,-93.88"/>
<polygon fill="#63b8ff" stroke="#63b8ff" points="1400.15,-96.41 1404.2,-86.63 1394.93,-91.75 1400.15,-96.41"/>
</g>
<!-- Node24 -->
<g id="node24" class="node">
<title>Node24</title>
<g id="a_node24"><a xlink:href="_dma_buffer_abstract_8hpp.html" target="_top" xlink:title=" ">
<polygon fill="white" stroke="#666666" points="617.5,-250 500.5,-250 500.5,-231 617.5,-231 617.5,-250"/>
<text text-anchor="middle" x="559" y="-238" font-family="Helvetica,sans-Serif" font-size="10.00">DmaBufferAbstract.hpp</text>
</a>
</g>
</g>
<!-- Node23&#45;&gt;Node24 -->
<g id="edge25" class="edge">
<title>Node23&#45;&gt;Node24</title>
<path fill="none" stroke="#63b8ff" d="M1032.26,-294.67C1012.2,-291.97 987.3,-288.69 965,-286 847.17,-271.76 709.86,-257.12 628.92,-248.69"/>
<polygon fill="#63b8ff" stroke="#63b8ff" points="629.69,-245.25 619.38,-247.7 628.97,-252.21 629.69,-245.25"/>
</g>
<!-- Node24&#45;&gt;Node12 -->
<g id="edge27" class="edge">
<title>Node24&#45;&gt;Node12</title>
<path fill="none" stroke="#63b8ff" d="M535.76,-230.51C513.55,-221.92 479.85,-208.88 454.88,-199.22"/>
<polygon fill="#63b8ff" stroke="#63b8ff" points="456.44,-196.07 445.85,-195.73 453.92,-202.6 456.44,-196.07"/>
</g>
<!-- Node24&#45;&gt;Node14 -->
<g id="edge28" class="edge">
<title>Node24&#45;&gt;Node14</title>
<path fill="none" stroke="#63b8ff" d="M545.05,-230.51C531.99,-221.9 512.13,-208.28 496,-195 455.03,-161.26 411,-117.06 388.03,-93.32"/>
<polygon fill="#63b8ff" stroke="#63b8ff" points="390.82,-91.17 381.36,-86.38 385.77,-96.02 390.82,-91.17"/>
</g>
<!-- Node25 -->
<g id="node25" class="node">
<title>Node25</title>
<g id="a_node25"><a xlink:title=" ">
<polygon fill="#e0e0e0" stroke="#999999" points="794,-195 748,-195 748,-176 794,-176 794,-195"/>
<text text-anchor="middle" x="771" y="-183" font-family="Helvetica,sans-Serif" font-size="10.00">cstdint</text>
</a>
</g>
</g>
<!-- Node24&#45;&gt;Node25 -->
<g id="edge26" class="edge">
<title>Node24&#45;&gt;Node25</title>
<path fill="none" stroke="#63b8ff" d="M594.96,-230.51C634.64,-220.59 698.01,-204.75 736.92,-195.02"/>
<polygon fill="#63b8ff" stroke="#63b8ff" points="737.35,-198.52 746.21,-192.7 735.66,-191.73 737.35,-198.52"/>
</g>
<!-- Node26 -->
<g id="node26" class="node">
<title>Node26</title>
<g id="a_node26"><a xlink:href="_uio_config_8hpp.html" target="_top" xlink:title=" ">
<polygon fill="white" stroke="#666666" points="830.5,-85 719.5,-85 719.5,-66 830.5,-66 830.5,-85"/>
<text text-anchor="middle" x="775" y="-73" font-family="Helvetica,sans-Serif" font-size="10.00">udmaio/UioConfig.hpp</text>
</a>
</g>
</g>
<!-- Node24&#45;&gt;Node26 -->
<g id="edge29" class="edge">
<title>Node24&#45;&gt;Node26</title>
<path fill="none" stroke="#63b8ff" d="M570.92,-230.5C606.03,-204.01 709.38,-126.02 754.04,-92.31"/>
<polygon fill="#63b8ff" stroke="#63b8ff" points="756.03,-95.2 761.91,-86.38 751.82,-89.61 756.03,-95.2"/>
</g>
<!-- Node26&#45;&gt;Node11 -->
<g id="edge33" class="edge">
<title>Node26&#45;&gt;Node11</title>
<path fill="none" stroke="#63b8ff" d="M808.11,-65.62C849.61,-54.48 920.25,-35.52 961.15,-24.55"/>
<polygon fill="#63b8ff" stroke="#63b8ff" points="961.88,-27.97 970.63,-22 960.07,-21.21 961.88,-27.97"/>
</g>
<!-- Node27 -->
<g id="node27" class="node">
<title>Node27</title>
<g id="a_node27"><a xlink:title=" ">
<polygon fill="#e0e0e0" stroke="#999999" points="881,-24.5 827,-24.5 827,-5.5 881,-5.5 881,-24.5"/>
<text text-anchor="middle" x="854" y="-12.5" font-family="Helvetica,sans-Serif" font-size="10.00">iostream</text>
</a>
</g>
</g>
<!-- Node26&#45;&gt;Node27 -->
<g id="edge30" class="edge">
<title>Node26&#45;&gt;Node27</title>
<path fill="none" stroke="#63b8ff" d="M787,-65.62C799.18,-56.6 818.29,-42.45 832.98,-31.56"/>
<polygon fill="#63b8ff" stroke="#63b8ff" points="834.72,-34.63 840.67,-25.87 830.55,-29.01 834.72,-34.63"/>
</g>
<!-- Node28 -->
<g id="node28" class="node">
<title>Node28</title>
<g id="a_node28"><a xlink:title=" ">
<polygon fill="#e0e0e0" stroke="#999999" points="646.5,-24.5 595.5,-24.5 595.5,-5.5 646.5,-5.5 646.5,-24.5"/>
<text text-anchor="middle" x="621" y="-12.5" font-family="Helvetica,sans-Serif" font-size="10.00">memory</text>
</a>
</g>
</g>
<!-- Node26&#45;&gt;Node28 -->
<g id="edge31" class="edge">
<title>Node26&#45;&gt;Node28</title>
<path fill="none" stroke="#63b8ff" d="M750.78,-65.63C726.69,-56.76 688.71,-42.66 656,-30 655.22,-29.7 654.43,-29.39 653.64,-29.08"/>
<polygon fill="#63b8ff" stroke="#63b8ff" points="655.18,-25.93 644.6,-25.52 652.62,-32.44 655.18,-25.93"/>
</g>
<!-- Node29 -->
<g id="node29" class="node">
<title>Node29</title>
<g id="a_node29"><a xlink:title=" ">
<polygon fill="#e0e0e0" stroke="#999999" points="808.5,-24.5 749.5,-24.5 749.5,-5.5 808.5,-5.5 808.5,-24.5"/>
<text text-anchor="middle" x="779" y="-12.5" font-family="Helvetica,sans-Serif" font-size="10.00">stdexcept</text>
</a>
</g>
</g>
<!-- Node26&#45;&gt;Node29 -->
<g id="edge32" class="edge">
<title>Node26&#45;&gt;Node29</title>
<path fill="none" stroke="#63b8ff" d="M775.59,-65.87C776.13,-58 776.94,-46.1 777.64,-35.89"/>
<polygon fill="#63b8ff" stroke="#63b8ff" points="781.11,-36.39 778.3,-26.18 774.13,-35.92 781.11,-36.39"/>
</g>
<!-- Node30 -->
<g id="node30" class="node">
<title>Node30</title>
<g id="a_node30"><a xlink:title=" ">
<polygon fill="#e0e0e0" stroke="#999999" points="731,-24.5 665,-24.5 665,-5.5 731,-5.5 731,-24.5"/>
<text text-anchor="middle" x="698" y="-12.5" font-family="Helvetica,sans-Serif" font-size="10.00">string_view</text>
</a>
</g>
</g>
<!-- Node26&#45;&gt;Node30 -->
<g id="edge34" class="edge">
<title>Node26&#45;&gt;Node30</title>
<path fill="none" stroke="#63b8ff" d="M763.31,-65.62C751.55,-56.68 733.16,-42.72 718.89,-31.87"/>
<polygon fill="#63b8ff" stroke="#63b8ff" points="721.09,-29.15 711.01,-25.88 716.86,-34.72 721.09,-29.15"/>
</g>
<!-- Node32 -->
<g id="node32" class="node">
<title>Node32</title>
<g id="a_node32"><a xlink:href="_reg_accessor_8hpp.html" target="_top" xlink:title=" ">
<polygon fill="white" stroke="#666666" points="817.5,-250 724.5,-250 724.5,-231 817.5,-231 817.5,-250"/>
<text text-anchor="middle" x="771" y="-238" font-family="Helvetica,sans-Serif" font-size="10.00">RegAccessor.hpp</text>
</a>
</g>
</g>
<!-- Node31&#45;&gt;Node32 -->
<g id="edge37" class="edge">
<title>Node31&#45;&gt;Node32</title>
<path fill="none" stroke="#63b8ff" d="M889.74,-291.12C866.61,-281.45 829.39,-265.9 802.79,-254.78"/>
<polygon fill="#63b8ff" stroke="#63b8ff" points="804.44,-251.68 793.86,-251.05 801.74,-258.14 804.44,-251.68"/>
</g>
<!-- Node33 -->
<g id="node33" class="node">
<title>Node33</title>
<g id="a_node33"><a xlink:href="_uio_if_8hpp.html" target="_top" xlink:title=" ">
<polygon fill="white" stroke="#666666" points="964,-195 874,-195 874,-176 964,-176 964,-195"/>
<text text-anchor="middle" x="919" y="-183" font-family="Helvetica,sans-Serif" font-size="10.00">udmaio/UioIf.hpp</text>
</a>
</g>
</g>
<!-- Node31&#45;&gt;Node33 -->
<g id="edge67" class="edge">
<title>Node31&#45;&gt;Node33</title>
<path fill="none" stroke="#63b8ff" d="M924.57,-291.17C936.71,-282.39 953.67,-267.69 961,-250 968.22,-232.57 954.33,-214.84 940.63,-202.56"/>
<polygon fill="#63b8ff" stroke="#63b8ff" points="942.98,-199.96 933.04,-196.29 938.53,-205.36 942.98,-199.96"/>
</g>
<!-- Node42 -->
<g id="node42" class="node">
<title>Node42</title>
<g id="a_node42"><a xlink:href="_axi_dma_8hpp.html" target="_top" xlink:title=" ">
<polygon fill="white" stroke="#666666" points="952,-250 836,-250 836,-231 952,-231 952,-250"/>
<text text-anchor="middle" x="894" y="-238" font-family="Helvetica,sans-Serif" font-size="10.00">udmaio/rdl/AxiDma.hpp</text>
</a>
</g>
</g>
<!-- Node31&#45;&gt;Node42 -->
<g id="edge68" class="edge">
<title>Node31&#45;&gt;Node42</title>
<path fill="none" stroke="#63b8ff" d="M908.49,-291.37C906.18,-283.42 902.67,-271.33 899.68,-261.05"/>
<polygon fill="#63b8ff" stroke="#63b8ff" points="903.09,-260.25 896.94,-251.62 896.37,-262.2 903.09,-260.25"/>
</g>
<!-- Node32&#45;&gt;Node25 -->
<g id="edge38" class="edge">
<title>Node32&#45;&gt;Node25</title>
<path fill="none" stroke="#63b8ff" d="M771,-230.75C771,-224.27 771,-215.16 771,-206.9"/>
<polygon fill="#63b8ff" stroke="#63b8ff" points="774.5,-206.96 771,-196.96 767.5,-206.96 774.5,-206.96"/>
</g>
<!-- Node32&#45;&gt;Node33 -->
<g id="edge39" class="edge">
<title>Node32&#45;&gt;Node33</title>
<path fill="none" stroke="#63b8ff" d="M796.11,-230.51C820.17,-221.89 856.72,-208.8 883.71,-199.14"/>
<polygon fill="#63b8ff" stroke="#63b8ff" points="884.61,-202.53 892.84,-195.87 882.25,-195.94 884.61,-202.53"/>
</g>
<!-- Node33&#45;&gt;Node11 -->
<g id="edge44" class="edge">
<title>Node33&#45;&gt;Node11</title>
<path fill="none" stroke="#63b8ff" d="M964.17,-179.41C1054.81,-168.14 1253.58,-137.85 1293,-85 1298.05,-78.23 1298.56,-72.35 1293,-66 1253.13,-20.46 1081.1,-46.99 1023,-30 1022.03,-29.72 1021.06,-29.41 1020.08,-29.08"/>
<polygon fill="#63b8ff" stroke="#63b8ff" points="1021.77,-25.98 1011.19,-25.49 1019.15,-32.48 1021.77,-25.98"/>
</g>
<!-- Node33&#45;&gt;Node14 -->
<g id="edge45" class="edge">
<title>Node33&#45;&gt;Node14</title>
<path fill="none" stroke="#63b8ff" d="M873.64,-181.3C806.93,-176.01 678.75,-163.59 572,-140 512.46,-126.84 445.29,-103.75 405.91,-89.33"/>
<polygon fill="#63b8ff" stroke="#63b8ff" points="407.34,-86.13 396.75,-85.95 404.92,-92.7 407.34,-86.13"/>
</g>
<!-- Node33&#45;&gt;Node15 -->
<g id="edge65" class="edge">
<title>Node33&#45;&gt;Node15</title>
<path fill="none" stroke="#63b8ff" d="M964.33,-181.95C1053.73,-176.5 1249.62,-162.36 1313,-140 1343.72,-129.16 1374.71,-107.43 1393.87,-92.43"/>
<polygon fill="#63b8ff" stroke="#63b8ff" points="1395.97,-95.23 1401.57,-86.24 1391.58,-89.78 1395.97,-95.23"/>
</g>
<!-- Node33&#45;&gt;Node26 -->
<g id="edge66" class="edge">
<title>Node33&#45;&gt;Node26</title>
<path fill="none" stroke="#63b8ff" d="M880.89,-175.53C858.52,-168.73 830.84,-157.51 811,-140 797.34,-127.95 787.67,-109.41 781.82,-95.47"/>
<polygon fill="#63b8ff" stroke="#63b8ff" points="785.22,-94.55 778.34,-86.49 778.69,-97.08 785.22,-94.55"/>
</g>
<!-- Node33&#45;&gt;Node27 -->
<g id="edge42" class="edge">
<title>Node33&#45;&gt;Node27</title>
<path fill="none" stroke="#63b8ff" d="M873.54,-178.09C825.49,-170.82 747.7,-157.64 682,-140 646.5,-130.47 547.24,-115 526,-85 521.12,-78.11 520.41,-72.33 526,-66 569.31,-17.02 754.6,-45.97 818,-30 819.63,-29.59 821.28,-29.13 822.93,-28.63"/>
<polygon fill="#63b8ff" stroke="#63b8ff" points="823.99,-31.96 832.3,-25.39 821.7,-25.35 823.99,-31.96"/>
</g>
<!-- Node33&#45;&gt;Node28 -->
<g id="edge43" class="edge">
<title>Node33&#45;&gt;Node28</title>
<path fill="none" stroke="#63b8ff" d="M873.67,-180.68C798.11,-173.89 649.89,-158.68 601,-140 580.5,-132.17 529.33,-104.36 519,-85 502.57,-54.19 548.62,-34.61 584.11,-24.47"/>
<polygon fill="#63b8ff" stroke="#63b8ff" points="584.96,-27.86 593.71,-21.9 583.15,-21.1 584.96,-27.86"/>
</g>
<!-- Node34 -->
<g id="node34" class="node">
<title>Node34</title>
<g id="a_node34"><a xlink:title=" ">
<polygon fill="#e0e0e0" stroke="#999999" points="595,-85 535,-85 535,-66 595,-66 595,-85"/>
<text text-anchor="middle" x="565" y="-73" font-family="Helvetica,sans-Serif" font-size="10.00">filesystem</text>
</a>
</g>
</g>
<!-- Node33&#45;&gt;Node34 -->
<g id="edge40" class="edge">
<title>Node33&#45;&gt;Node34</title>
<path fill="none" stroke="#63b8ff" d="M877.79,-175.54C841.29,-167.3 786.71,-154.24 740,-140 689.79,-124.69 632.84,-103.25 597.93,-89.62"/>
<polygon fill="#63b8ff" stroke="#63b8ff" points="599.4,-86.43 588.81,-86.03 596.84,-92.95 599.4,-86.43"/>
</g>
<!-- Node35 -->
<g id="node35" class="node">
<title>Node35</title>
<g id="a_node35"><a xlink:title=" ">
<polygon fill="#e0e0e0" stroke="#999999" points="663,-85 613,-85 613,-66 663,-66 663,-85"/>
<text text-anchor="middle" x="638" y="-73" font-family="Helvetica,sans-Serif" font-size="10.00">fstream</text>
</a>
</g>
</g>
<!-- Node33&#45;&gt;Node35 -->
<g id="edge41" class="edge">
<title>Node33&#45;&gt;Node35</title>
<path fill="none" stroke="#63b8ff" d="M891.86,-175.58C865.84,-166.91 825.52,-153.15 791,-140 748.16,-123.68 699.34,-103.06 668.6,-89.82"/>
<polygon fill="#63b8ff" stroke="#63b8ff" points="670.1,-86.66 659.53,-85.9 667.32,-93.08 670.1,-86.66"/>
</g>
<!-- Node36 -->
<g id="node36" class="node">
<title>Node36</title>
<g id="a_node36"><a xlink:title=" ">
<polygon fill="#e0e0e0" stroke="#999999" points="968.5,-85 925.5,-85 925.5,-66 968.5,-66 968.5,-85"/>
<text text-anchor="middle" x="947" y="-73" font-family="Helvetica,sans-Serif" font-size="10.00">fcntl.h</text>
</a>
</g>
</g>
<!-- Node33&#45;&gt;Node36 -->
<g id="edge46" class="edge">
<title>Node33&#45;&gt;Node36</title>
<path fill="none" stroke="#63b8ff" d="M928.88,-175.75C937.39,-167.5 949.05,-154.3 954,-140 958.89,-125.86 956.69,-108.99 953.5,-96.2"/>
<polygon fill="#63b8ff" stroke="#63b8ff" points="956.94,-95.47 950.78,-86.85 950.22,-97.43 956.94,-95.47"/>
</g>
<!-- Node37 -->
<g id="node37" class="node">
<title>Node37</title>
<g id="a_node37"><a xlink:title=" ">
<polygon fill="#e0e0e0" stroke="#999999" points="1055.5,-85 986.5,-85 986.5,-66 1055.5,-66 1055.5,-85"/>
<text text-anchor="middle" x="1021" y="-73" font-family="Helvetica,sans-Serif" font-size="10.00">sys/mman.h</text>
</a>
</g>
</g>
<!-- Node33&#45;&gt;Node37 -->
<g id="edge47" class="edge">
<title>Node33&#45;&gt;Node37</title>
<path fill="none" stroke="#63b8ff" d="M929.78,-175.75C940.22,-167.09 956.29,-153.25 969,-140 982.99,-125.42 997.45,-107.5 1007.55,-94.42"/>
<polygon fill="#63b8ff" stroke="#63b8ff" points="1010.16,-96.78 1013.43,-86.7 1004.59,-92.53 1010.16,-96.78"/>
</g>
<!-- Node38 -->
<g id="node38" class="node">
<title>Node38</title>
<g id="a_node38"><a xlink:title=" ">
<polygon fill="#e0e0e0" stroke="#999999" points="1132.5,-85 1073.5,-85 1073.5,-66 1132.5,-66 1132.5,-85"/>
<text text-anchor="middle" x="1103" y="-73" font-family="Helvetica,sans-Serif" font-size="10.00">sys/stat.h</text>
</a>
</g>
</g>
<!-- Node33&#45;&gt;Node38 -->
<g id="edge48" class="edge">
<title>Node33&#45;&gt;Node38</title>
<path fill="none" stroke="#63b8ff" d="M934.06,-175.66C965.73,-157.07 1039.51,-113.77 1078.24,-91.03"/>
<polygon fill="#63b8ff" stroke="#63b8ff" points="1079.58,-94.31 1086.43,-86.23 1076.03,-88.27 1079.58,-94.31"/>
</g>
<!-- Node39 -->
<g id="node39" class="node">
<title>Node39</title>
<g id="a_node39"><a xlink:title=" ">
<polygon fill="#e0e0e0" stroke="#999999" points="1215.5,-85 1150.5,-85 1150.5,-66 1215.5,-66 1215.5,-85"/>
<text text-anchor="middle" x="1183" y="-73" font-family="Helvetica,sans-Serif" font-size="10.00">sys/types.h</text>
</a>
</g>
</g>
<!-- Node33&#45;&gt;Node39 -->
<g id="edge49" class="edge">
<title>Node33&#45;&gt;Node39</title>
<path fill="none" stroke="#63b8ff" d="M940.6,-175.66C986.92,-156.72 1095.98,-112.1 1150.62,-89.75"/>
<polygon fill="#63b8ff" stroke="#63b8ff" points="1151.77,-93.06 1159.7,-86.03 1149.12,-86.58 1151.77,-93.06"/>
</g>
<!-- Node40 -->
<g id="node40" class="node">
<title>Node40</title>
<g id="a_node40"><a xlink:title=" ">
<polygon fill="#e0e0e0" stroke="#999999" points="1284,-85 1234,-85 1234,-66 1284,-66 1284,-85"/>
<text text-anchor="middle" x="1259" y="-73" font-family="Helvetica,sans-Serif" font-size="10.00">unistd.h</text>
</a>
</g>
</g>
<!-- Node33&#45;&gt;Node40 -->
<g id="edge50" class="edge">
<title>Node33&#45;&gt;Node40</title>
<path fill="none" stroke="#63b8ff" d="M948.97,-175.56C978.53,-166.7 1024.95,-152.66 1065,-140 1120.21,-122.55 1183.96,-101.51 1222.87,-88.57"/>
<polygon fill="#63b8ff" stroke="#63b8ff" points="1223.81,-91.95 1232.2,-85.47 1221.6,-85.3 1223.81,-91.95"/>
</g>
<!-- Node41 -->
<g id="node41" class="node">
<title>Node41</title>
<g id="a_node41"><a xlink:href="_hw_accessor_8hpp.html" target="_top" xlink:title=" ">
<polygon fill="white" stroke="#666666" points="944.5,-140 819.5,-140 819.5,-121 944.5,-121 944.5,-140"/>
<text text-anchor="middle" x="882" y="-128" font-family="Helvetica,sans-Serif" font-size="10.00">udmaio/HwAccessor.hpp</text>
</a>
</g>
</g>
<!-- Node33&#45;&gt;Node41 -->
<g id="edge51" class="edge">
<title>Node33&#45;&gt;Node41</title>
<path fill="none" stroke="#63b8ff" d="M912.89,-175.75C907.99,-168.73 900.95,-158.64 894.83,-149.87"/>
<polygon fill="#63b8ff" stroke="#63b8ff" points="897.7,-147.88 889.11,-141.68 891.96,-151.89 897.7,-147.88"/>
</g>
<!-- Node41&#45;&gt;Node11 -->
<g id="edge56" class="edge">
<title>Node41&#45;&gt;Node11</title>
<path fill="none" stroke="#63b8ff" d="M885.18,-120.87C890.32,-107.82 901.45,-82.82 917,-66 930.42,-51.49 948.87,-39.22 964.24,-30.47"/>
<polygon fill="#63b8ff" stroke="#63b8ff" points="965.86,-33.57 972.96,-25.71 962.5,-27.43 965.86,-33.57"/>
</g>
<!-- Node41&#45;&gt;Node14 -->
<g id="edge57" class="edge">
<title>Node41&#45;&gt;Node14</title>
<path fill="none" stroke="#63b8ff" d="M819.21,-122.97C726.66,-113.36 553.65,-95.38 452.09,-84.82"/>
<polygon fill="#63b8ff" stroke="#63b8ff" points="452.48,-81.35 442.18,-83.79 451.76,-88.31 452.48,-81.35"/>
</g>
<!-- Node41&#45;&gt;Node15 -->
<g id="edge63" class="edge">
<title>Node41&#45;&gt;Node15</title>
<path fill="none" stroke="#63b8ff" d="M945,-123.21C1053.12,-112.42 1271.57,-90.62 1366.83,-81.11"/>
<polygon fill="#63b8ff" stroke="#63b8ff" points="1366.98,-84.61 1376.58,-80.13 1366.28,-77.65 1366.98,-84.61"/>
</g>
<!-- Node41&#45;&gt;Node26 -->
<g id="edge64" class="edge">
<title>Node41&#45;&gt;Node26</title>
<path fill="none" stroke="#63b8ff" d="M863.85,-120.51C847.22,-112.27 822.36,-99.96 803.15,-90.45"/>
<polygon fill="#63b8ff" stroke="#63b8ff" points="804.75,-87.33 794.24,-86.03 801.65,-93.6 804.75,-87.33"/>
</g>
<!-- Node41&#45;&gt;Node27 -->
<g id="edge54" class="edge">
<title>Node41&#45;&gt;Node27</title>
<path fill="none" stroke="#63b8ff" d="M879.8,-120.59C875.33,-102.44 865.05,-60.79 858.9,-35.87"/>
<polygon fill="#63b8ff" stroke="#63b8ff" points="862.34,-35.2 856.55,-26.33 855.55,-36.88 862.34,-35.2"/>
</g>
<!-- Node41&#45;&gt;Node28 -->
<g id="edge55" class="edge">
<title>Node41&#45;&gt;Node28</title>
<path fill="none" stroke="#63b8ff" d="M824.94,-120.57C790.71,-113.79 746.97,-102.57 711,-85 682.94,-71.29 655.1,-48.08 637.98,-32.41"/>
<polygon fill="#63b8ff" stroke="#63b8ff" points="640.43,-29.91 630.74,-25.62 635.64,-35.01 640.43,-29.91"/>
</g>
<!-- Node41&#45;&gt;Node34 -->
<g id="edge52" class="edge">
<title>Node41&#45;&gt;Node34</title>
<path fill="none" stroke="#63b8ff" d="M819.44,-120.51C765.52,-112.52 685.33,-100.1 606.33,-85.35"/>
<polygon fill="#63b8ff" stroke="#63b8ff" points="607.16,-81.95 596.69,-83.54 605.87,-88.83 607.16,-81.95"/>
</g>
<!-- Node41&#45;&gt;Node35 -->
<g id="edge53" class="edge">
<title>Node41&#45;&gt;Node35</title>
<path fill="none" stroke="#63b8ff" d="M840.77,-120.56C799.37,-111.58 733.76,-97.35 677,-85 676.02,-84.79 675.03,-84.57 674.03,-84.35"/>
<polygon fill="#63b8ff" stroke="#63b8ff" points="675.17,-81.02 664.65,-82.31 673.68,-87.86 675.17,-81.02"/>
</g>
<!-- Node41&#45;&gt;Node36 -->
<g id="edge58" class="edge">
<title>Node41&#45;&gt;Node36</title>
<path fill="none" stroke="#63b8ff" d="M893.03,-120.51C902.42,-112.85 916.15,-101.66 927.41,-92.47"/>
<polygon fill="#63b8ff" stroke="#63b8ff" points="929.43,-95.35 934.96,-86.31 925,-89.92 929.43,-95.35"/>
</g>
<!-- Node41&#45;&gt;Node37 -->
<g id="edge59" class="edge">
<title>Node41&#45;&gt;Node37</title>
<path fill="none" stroke="#63b8ff" d="M905.58,-120.51C927.98,-111.97 961.9,-99.03 987.18,-89.4"/>
<polygon fill="#63b8ff" stroke="#63b8ff" points="988.26,-92.73 996.35,-85.9 985.76,-86.19 988.26,-92.73"/>
</g>
<!-- Node41&#45;&gt;Node38 -->
<g id="edge60" class="edge">
<title>Node41&#45;&gt;Node38</title>
<path fill="none" stroke="#63b8ff" d="M919.49,-120.51C959.03,-111.03 1021.14,-96.13 1061.97,-86.34"/>
<polygon fill="#63b8ff" stroke="#63b8ff" points="1062.76,-89.75 1071.67,-84.01 1061.13,-82.94 1062.76,-89.75"/>
</g>
<!-- Node41&#45;&gt;Node39 -->
<g id="edge61" class="edge">
<title>Node41&#45;&gt;Node39</title>
<path fill="none" stroke="#63b8ff" d="M937.89,-120.51C988.14,-112.3 1064.26,-99.55 1139.29,-85.46"/>
<polygon fill="#63b8ff" stroke="#63b8ff" points="1139.68,-88.95 1148.86,-83.66 1138.38,-82.07 1139.68,-88.95"/>
</g>
<!-- Node41&#45;&gt;Node40 -->
<g id="edge62" class="edge">
<title>Node41&#45;&gt;Node40</title>
<path fill="none" stroke="#63b8ff" d="M944.93,-123.55C1011.57,-116.75 1119.99,-104.28 1222.63,-85.25"/>
<polygon fill="#63b8ff" stroke="#63b8ff" points="1223.15,-88.71 1232.33,-83.42 1221.86,-81.83 1223.15,-88.71"/>
</g>
<!-- Node42&#45;&gt;Node25 -->
<g id="edge69" class="edge">
<title>Node42&#45;&gt;Node25</title>
<path fill="none" stroke="#63b8ff" d="M873.13,-230.51C853.58,-222.08 824.1,-209.38 801.83,-199.79"/>
<polygon fill="#63b8ff" stroke="#63b8ff" points="803.52,-196.7 792.95,-195.96 800.75,-203.13 803.52,-196.7"/>
</g>
<!-- Node43&#45;&gt;Node24 -->
<g id="edge71" class="edge">
<title>Node43&#45;&gt;Node24</title>
<path fill="none" stroke="#63b8ff" d="M738.8,-291.12C702.38,-281.06 642.88,-264.65 602.38,-253.47"/>
<polygon fill="#63b8ff" stroke="#63b8ff" points="603.53,-250.16 592.96,-250.87 601.67,-256.91 603.53,-250.16"/>
</g>
<!-- Node43&#45;&gt;Node32 -->
<g id="edge72" class="edge">
<title>Node43&#45;&gt;Node32</title>
<path fill="none" stroke="#63b8ff" d="M771,-291.37C771,-283.5 771,-271.6 771,-261.39"/>
<polygon fill="#63b8ff" stroke="#63b8ff" points="774.5,-261.68 771,-251.68 767.5,-261.68 774.5,-261.68"/>
</g>
</g>
</svg>
        <g id="navigator" transform="translate(0 0)" fill="#404254">
                <rect fill="#f2f5e9" fill-opacity="0.5" stroke="#606060" stroke-width=".5" x="0" y="0" width="60" height="60"/>
                <use id="zoomplus" xlink:href="#zoomPlus" x="17" y="9" onmousedown="handleZoom(evt,'in')"/>
                <use id="zoomminus" xlink:href="#zoomMin" x="42" y="9" onmousedown="handleZoom(evt,'out')"/>
                <use id="reset" xlink:href="#resetDef" x="30" y="36" onmousedown="handleReset()"/>
                <g id="arrowUp" xlink:href="#dirArrow" transform="translate(30 24)" onmousedown="handlePan(0,-1)">
                  <use xlink:href="#rim" fill="#404040">
                        <set attributeName="fill" to="#808080" begin="arrowUp.mouseover" end="arrowUp.mouseout"/>
                  </use>
                  <path fill="none" stroke="white" stroke-width="1.5" d="M0,-3.0v7 M-2.5,-0.5L0,-3.0L2.5,-0.5"/>
                </g>
                <g id="arrowRight" xlink:href="#dirArrow" transform="rotate(90) translate(36 -43)" onmousedown="handlePan(1,0)">
                  <use xlink:href="#rim" fill="#404040">
                        <set attributeName="fill" to="#808080" begin="arrowRight.mouseover" end="arrowRight.mouseout"/>
                  </use>
                  <path fill="none" stroke="white" stroke-width="1.5" d="M0,-3.0v7 M-2.5,-0.5L0,-3.0L2.5,-0.5"/>
                </g>
                <g id="arrowDown" xlink:href="#dirArrow" transform="rotate(180) translate(-30 -48)" onmousedown="handlePan(0,1)">
                  <use xlink:href="#rim" fill="#404040">
                        <set attributeName="fill" to="#808080" begin="arrowDown.mouseover" end="arrowDown.mouseout"/>
                  </use>
                  <path fill="none" stroke="white" stroke-width="1.5" d="M0,-3.0v7 M-2.5,-0.5L0,-3.0L2.5,-0.5"/>
                </g>
                <g id="arrowLeft" xlink:href="#dirArrow" transform="rotate(270) translate(-36 17)" onmousedown="handlePan(-1,0)">
                  <use xlink:href="#rim" fill="#404040">
                        <set attributeName="fill" to="#808080" begin="arrowLeft.mouseover" end="arrowLeft.mouseout"/>
                  </use>
                  <path fill="none" stroke="white" stroke-width="1.5" d="M0,-3.0v7 M-2.5,-0.5L0,-3.0L2.5,-0.5"/>
                </g>
        </g>
        <svg viewBox="0 0 15 15" width="100%" height="30px" preserveAspectRatio="xMaxYMin meet">
         <g id="arrow_out" transform="scale(0.3 0.3)">
          <a xlink:href="_data_handler_sync_8cpp__incl_org.svg" target="_base">
           <rect id="button" ry="5" rx="5" y="6" x="6" height="38" width="38"
                fill="#f2f5e9" fill-opacity="0.5" stroke="#606060" stroke-width="1.0"/>
           <path id="arrow"
             d="M 11.500037,31.436501 C 11.940474,20.09759 22.043105,11.32322 32.158766,21.979434 L 37.068811,17.246167 C 37.068811,17.246167 37.088388,32 37.088388,32 L 22.160133,31.978069 C 22.160133,31.978069 26.997745,27.140456 26.997745,27.140456 C 18.528582,18.264221 13.291696,25.230495 11.500037,31.436501 z"
             style="fill:#404040;"/>
          </a>
         </g>
        </svg>
</svg>
