<?xml version="1.0" encoding="UTF-8" standalone="no"?>
<!DOCTYPE svg PUBLIC "-//W3C//DTD SVG 1.1//EN"
 "http://www.w3.org/Graphics/SVG/1.1/DTD/svg11.dtd">
<!-- Generated by graphviz version 7.0.5 (20221223.1930)
 -->
<!-- Title: DataHandlerAbstract.cpp Pages: 1 -->
<!--zoomable 434 -->
<svg id="main" version="1.1" xmlns="http://www.w3.org/2000/svg" xmlns:xlink="http://www.w3.org/1999/xlink" xml:space="preserve" onload="init(evt)">
<style type="text/css"><![CDATA[
.edge:hover path { stroke: red; }
.edge:hover polygon { stroke: red; fill: red; }
]]></style>
<script type="text/javascript"><![CDATA[
var edges = document.getElementsByTagName('g');
if (edges && edges.length) {
  for (var i=0;i<edges.length;i++) {
    if (edges[i].id.substr(0,4)=='edge') {
      edges[i].setAttribute('class','edge');
    }
  }
}
]]></script>
        <defs>
                <circle id="rim" cx="0" cy="0" r="7"/>
                <circle id="rim2" cx="0" cy="0" r="3.5"/>
                <g id="zoomPlus">
                        <use xlink:href="#rim" fill="#404040">
                                <set attributeName="fill" to="#808080" begin="zoomplus.mouseover" end="zoomplus.mouseout"/>
                        </use>
                        <path d="M-4,0h8M0,-4v8" fill="none" stroke="white" stroke-width="1.5" pointer-events="none"/>
                </g>
                <g id="zoomMin">
                        <use xlink:href="#rim" fill="#404040">
                                <set attributeName="fill" to="#808080" begin="zoomminus.mouseover" end="zoomminus.mouseout"/>
                        </use>
                        <path d="M-4,0h8" fill="none" stroke="white" stroke-width="1.5" pointer-events="none"/>
                </g>
                <g id="dirArrow">
                        <path fill="none" stroke="white" stroke-width="1.5" d="M0,-3.0v7 M-2.5,-0.5L0,-3.0L2.5,-0.5"/>
                </g>
               <g id="resetDef">
                       <use xlink:href="#rim2" fill="#404040">
                               <set attributeName="fill" to="#808080" begin="reset.mouseover" end="reset.mouseout"/>
                       </use>
               </g>
        </defs>

<script type="text/javascript">
var viewWidth = 1983;
var viewHeight = 434;
var sectionId = 'dynsection-0';
</script>
<script xlink:href="svgpan.js"/>
<svg id="graph" class="graph">
<g id="viewport">
<title>DataHandlerAbstract.cpp</title>
<!-- Node1 -->
<g id="node1" class="node">
<title>Node1</title>
<g id="a_node1"><a xlink:title=" ">
<polygon fill="#999999" stroke="#666666" points="1881,-426 1756,-426 1756,-407 1881,-407 1881,-426"/>
<text text-anchor="middle" x="1818.5" y="-414" font-family="Helvetica,sans-Serif" font-size="10.00">DataHandlerAbstract.cpp</text>
</a>
</g>
</g>
<!-- Node2 -->
<g id="node2" class="node">
<title>Node2</title>
<g id="a_node2"><a xlink:href="_data_handler_abstract_8hpp.html" target="_top" xlink:title=" ">
<polygon fill="white" stroke="#666666" points="1025.5,-371 865.5,-371 865.5,-352 1025.5,-352 1025.5,-371"/>
<text text-anchor="middle" x="945.5" y="-359" font-family="Helvetica,sans-Serif" font-size="10.00">udmaio/DataHandlerAbstract.hpp</text>
</a>
</g>
</g>
<!-- Node1&#45;&gt;Node2 -->
<g id="edge1" class="edge">
<title>Node1&#45;&gt;Node2</title>
<path fill="none" stroke="#63b8ff" d="M1755.72,-411.69C1603.74,-402.46 1215.52,-378.89 1037.37,-368.08"/>
<polygon fill="#63b8ff" stroke="#63b8ff" points="1037.65,-364.59 1027.46,-367.48 1037.23,-371.58 1037.65,-364.59"/>
</g>
<!-- Node4 -->
<g id="node4" class="node">
<title>Node4</title>
<g id="a_node4"><a xlink:title=" ">
<polygon fill="#e0e0e0" stroke="#999999" points="1776.5,-195 1732.5,-195 1732.5,-176 1776.5,-176 1776.5,-195"/>
<text text-anchor="middle" x="1754.5" y="-183" font-family="Helvetica,sans-Serif" font-size="10.00">vector</text>
</a>
</g>
</g>
<!-- Node1&#45;&gt;Node4 -->
<g id="edge72" class="edge">
<title>Node1&#45;&gt;Node4</title>
<path fill="none" stroke="#63b8ff" d="M1815.61,-406.67C1812.7,-397.71 1808.14,-383.44 1804.5,-371 1787.06,-311.41 1768.4,-240.37 1759.63,-206.45"/>
<polygon fill="#63b8ff" stroke="#63b8ff" points="1763.03,-205.64 1757.15,-196.83 1756.25,-207.39 1763.03,-205.64"/>
</g>
<!-- Node19 -->
<g id="node19" class="node">
<title>Node19</title>
<g id="a_node19"><a xlink:title=" ">
<polygon fill="#e0e0e0" stroke="#999999" points="1527.5,-24.5 1473.5,-24.5 1473.5,-5.5 1527.5,-5.5 1527.5,-24.5"/>
<text text-anchor="middle" x="1500.5" y="-12.5" font-family="Helvetica,sans-Serif" font-size="10.00">iostream</text>
</a>
</g>
</g>
<!-- Node1&#45;&gt;Node19 -->
<g id="edge71" class="edge">
<title>Node1&#45;&gt;Node19</title>
<path fill="none" stroke="#63b8ff" d="M1818.5,-406.67C1818.5,-387.58 1818.5,-341.02 1818.5,-302 1818.5,-302 1818.5,-302 1818.5,-184.5 1818.5,-59.46 1624.17,-26.95 1539.34,-18.71"/>
<polygon fill="#63b8ff" stroke="#63b8ff" points="1539.67,-15.22 1529.4,-17.82 1539.04,-22.2 1539.67,-15.22"/>
</g>
<!-- Node39 -->
<g id="node39" class="node">
<title>Node39</title>
<g id="a_node39"><a xlink:title=" ">
<polygon fill="#e0e0e0" stroke="#999999" points="1906,-371 1847,-371 1847,-352 1906,-352 1906,-371"/>
<text text-anchor="middle" x="1876.5" y="-359" font-family="Helvetica,sans-Serif" font-size="10.00">functional</text>
</a>
</g>
</g>
<!-- Node1&#45;&gt;Node39 -->
<g id="edge69" class="edge">
<title>Node1&#45;&gt;Node39</title>
<path fill="none" stroke="#63b8ff" d="M1828.34,-406.51C1836.55,-399 1848.48,-388.1 1858.41,-379.03"/>
<polygon fill="#63b8ff" stroke="#63b8ff" points="1860.67,-381.71 1865.69,-372.38 1855.95,-376.54 1860.67,-381.71"/>
</g>
<!-- Node40 -->
<g id="node40" class="node">
<title>Node40</title>
<g id="a_node40"><a xlink:title=" ">
<polygon fill="#e0e0e0" stroke="#999999" points="1974.5,-371 1924.5,-371 1924.5,-352 1974.5,-352 1974.5,-371"/>
<text text-anchor="middle" x="1949.5" y="-359" font-family="Helvetica,sans-Serif" font-size="10.00">iomanip</text>
</a>
</g>
</g>
<!-- Node1&#45;&gt;Node40 -->
<g id="edge70" class="edge">
<title>Node1&#45;&gt;Node40</title>
<path fill="none" stroke="#63b8ff" d="M1840.72,-406.51C1861.64,-398.04 1893.23,-385.27 1916.98,-375.66"/>
<polygon fill="#63b8ff" stroke="#63b8ff" points="1918.25,-378.92 1926.2,-371.93 1915.62,-372.43 1918.25,-378.92"/>
</g>
<!-- Node3 -->
<g id="node3" class="node">
<title>Node3</title>
<g id="a_node3"><a xlink:title=" ">
<polygon fill="#e0e0e0" stroke="#999999" points="968,-24.5 927,-24.5 927,-5.5 968,-5.5 968,-24.5"/>
<text text-anchor="middle" x="947.5" y="-12.5" font-family="Helvetica,sans-Serif" font-size="10.00">string</text>
</a>
</g>
</g>
<!-- Node2&#45;&gt;Node3 -->
<g id="edge2" class="edge">
<title>Node2&#45;&gt;Node3</title>
<path fill="none" stroke="#63b8ff" d="M865.25,-353.58C795.48,-342.64 705.5,-314.4 705.5,-241.5 705.5,-241.5 705.5,-241.5 705.5,-129.5 705.5,-100.04 702.59,-85.69 724.5,-66 789.39,-7.67 834.42,-56.66 917.5,-30 918.3,-29.74 919.11,-29.47 919.92,-29.18"/>
<polygon fill="#63b8ff" stroke="#63b8ff" points="921.02,-32.51 928.95,-25.48 918.37,-26.04 921.02,-32.51"/>
</g>
<!-- Node2&#45;&gt;Node4 -->
<g id="edge3" class="edge">
<title>Node2&#45;&gt;Node4</title>
<path fill="none" stroke="#63b8ff" d="M1025.99,-358.07C1200.71,-351.37 1607.88,-327.64 1718.5,-250 1733.57,-239.42 1743.13,-220.39 1748.58,-205.91"/>
<polygon fill="#63b8ff" stroke="#63b8ff" points="1751.86,-207.14 1751.74,-196.54 1745.23,-204.9 1751.86,-207.14"/>
</g>
<!-- Node5 -->
<g id="node5" class="node">
<title>Node5</title>
<g id="a_node5"><a xlink:title=" ">
<polygon fill="#e0e0e0" stroke="#999999" points="639.5,-310.5 559.5,-310.5 559.5,-291.5 639.5,-291.5 639.5,-310.5"/>
<text text-anchor="middle" x="599.5" y="-298.5" font-family="Helvetica,sans-Serif" font-size="10.00">boost/asio.hpp</text>
</a>
</g>
</g>
<!-- Node2&#45;&gt;Node5 -->
<g id="edge4" class="edge">
<title>Node2&#45;&gt;Node5</title>
<path fill="none" stroke="#63b8ff" d="M872.83,-351.53C813.53,-343.71 727.72,-331.23 653.5,-316 650.1,-315.3 646.59,-314.52 643.08,-313.7"/>
<polygon fill="#63b8ff" stroke="#63b8ff" points="643.94,-310.31 633.4,-311.34 642.28,-317.11 643.94,-310.31"/>
</g>
<!-- Node6 -->
<g id="node6" class="node">
<title>Node6</title>
<g id="a_node6"><a xlink:title=" ">
<polygon fill="#e0e0e0" stroke="#999999" points="871,-85 734,-85 734,-66 871,-66 871,-85"/>
<text text-anchor="middle" x="802.5" y="-73" font-family="Helvetica,sans-Serif" font-size="10.00">boost/core/noncopyable.hpp</text>
</a>
</g>
</g>
<!-- Node2&#45;&gt;Node6 -->
<g id="edge5" class="edge">
<title>Node2&#45;&gt;Node6</title>
<path fill="none" stroke="#63b8ff" d="M887.07,-351.54C827.41,-338.68 743.5,-308.66 743.5,-241.5 743.5,-241.5 743.5,-241.5 743.5,-184.5 743.5,-148.9 768.49,-113.89 785.94,-93.79"/>
<polygon fill="#63b8ff" stroke="#63b8ff" points="788.4,-96.29 792.52,-86.53 783.21,-91.59 788.4,-96.29"/>
</g>
<!-- Node7 -->
<g id="node7" class="node">
<title>Node7</title>
<g id="a_node7"><a xlink:href="_logging_8hpp.html" target="_top" xlink:title=" ">
<polygon fill="white" stroke="#666666" points="677,-85 608,-85 608,-66 677,-66 677,-85"/>
<text text-anchor="middle" x="642.5" y="-73" font-family="Helvetica,sans-Serif" font-size="10.00">Logging.hpp</text>
</a>
</g>
</g>
<!-- Node2&#45;&gt;Node7 -->
<g id="edge6" class="edge">
<title>Node2&#45;&gt;Node7</title>
<path fill="none" stroke="#63b8ff" d="M865.23,-355.38C800.78,-349.69 716.99,-338.19 691.5,-316 665.26,-293.16 667.5,-276.29 667.5,-241.5 667.5,-241.5 667.5,-241.5 667.5,-184.5 667.5,-152.82 657.16,-117.23 649.78,-95.85"/>
<polygon fill="#63b8ff" stroke="#63b8ff" points="653.18,-94.94 646.49,-86.72 646.59,-97.32 653.18,-94.94"/>
</g>
<!-- Node15 -->
<g id="node15" class="node">
<title>Node15</title>
<g id="a_node15"><a xlink:href="_u_dma_buf_8hpp.html" target="_top" xlink:title=" ">
<polygon fill="white" stroke="#666666" points="912,-310.5 835,-310.5 835,-291.5 912,-291.5 912,-310.5"/>
<text text-anchor="middle" x="873.5" y="-298.5" font-family="Helvetica,sans-Serif" font-size="10.00">UDmaBuf.hpp</text>
</a>
</g>
</g>
<!-- Node2&#45;&gt;Node15 -->
<g id="edge15" class="edge">
<title>Node2&#45;&gt;Node15</title>
<path fill="none" stroke="#63b8ff" d="M934.56,-351.62C923.68,-342.77 906.71,-328.98 893.42,-318.19"/>
<polygon fill="#63b8ff" stroke="#63b8ff" points="895.68,-315.51 885.71,-311.92 891.27,-320.95 895.68,-315.51"/>
</g>
<!-- Node23 -->
<g id="node23" class="node">
<title>Node23</title>
<g id="a_node23"><a xlink:href="_uio_axi_dma_if_8hpp.html" target="_top" xlink:title=" ">
<polygon fill="white" stroke="#666666" points="1062,-310.5 973,-310.5 973,-291.5 1062,-291.5 1062,-310.5"/>
<text text-anchor="middle" x="1017.5" y="-298.5" font-family="Helvetica,sans-Serif" font-size="10.00">UioAxiDmaIf.hpp</text>
</a>
</g>
</g>
<!-- Node2&#45;&gt;Node23 -->
<g id="edge28" class="edge">
<title>Node2&#45;&gt;Node23</title>
<path fill="none" stroke="#63b8ff" d="M956.44,-351.62C967.32,-342.77 984.29,-328.98 997.58,-318.19"/>
<polygon fill="#63b8ff" stroke="#63b8ff" points="999.73,-320.95 1005.29,-311.92 995.32,-315.51 999.73,-320.95"/>
</g>
<!-- Node36 -->
<g id="node36" class="node">
<title>Node36</title>
<g id="a_node36"><a xlink:href="_uio_mem_sgdma_8hpp.html" target="_top" xlink:title=" ">
<polygon fill="white" stroke="#666666" points="1322.5,-310.5 1220.5,-310.5 1220.5,-291.5 1322.5,-291.5 1322.5,-310.5"/>
<text text-anchor="middle" x="1271.5" y="-298.5" font-family="Helvetica,sans-Serif" font-size="10.00">UioMemSgdma.hpp</text>
</a>
</g>
</g>
<!-- Node2&#45;&gt;Node36 -->
<g id="edge63" class="edge">
<title>Node2&#45;&gt;Node36</title>
<path fill="none" stroke="#63b8ff" d="M1004.39,-351.53C1058,-343.13 1139.27,-329.84 1209.5,-316 1213.58,-315.2 1217.81,-314.32 1222.05,-313.42"/>
<polygon fill="#63b8ff" stroke="#63b8ff" points="1222.7,-316.86 1231.73,-311.32 1221.21,-310.02 1222.7,-316.86"/>
</g>
<!-- Node38 -->
<g id="node38" class="node">
<title>Node38</title>
<g id="a_node38"><a xlink:title=" ">
<polygon fill="#e0e0e0" stroke="#999999" points="1200.5,-316 1080.5,-316 1080.5,-286 1200.5,-286 1200.5,-316"/>
<text text-anchor="start" x="1088.5" y="-304" font-family="Helvetica,sans-Serif" font-size="10.00">boost/asio/posix/stream</text>
<text text-anchor="middle" x="1140.5" y="-293" font-family="Helvetica,sans-Serif" font-size="10.00">_descriptor.hpp</text>
</a>
</g>
</g>
<!-- Node2&#45;&gt;Node38 -->
<g id="edge68" class="edge">
<title>Node2&#45;&gt;Node38</title>
<path fill="none" stroke="#63b8ff" d="M975.12,-351.62C1003.31,-343.16 1046.54,-330.19 1081.73,-319.63"/>
<polygon fill="#63b8ff" stroke="#63b8ff" points="1082.35,-323.1 1090.92,-316.87 1080.33,-316.4 1082.35,-323.1"/>
</g>
<!-- Node7&#45;&gt;Node3 -->
<g id="edge7" class="edge">
<title>Node7&#45;&gt;Node3</title>
<path fill="none" stroke="#63b8ff" d="M677.29,-68.4C682.06,-67.59 686.9,-66.77 691.5,-66 791.83,-49.31 820.25,-59.79 917.5,-30 918.3,-29.75 919.11,-29.49 919.93,-29.21"/>
<polygon fill="#63b8ff" stroke="#63b8ff" points="921.01,-32.55 928.97,-25.56 918.39,-26.06 921.01,-32.55"/>
</g>
<!-- Node8 -->
<g id="node8" class="node">
<title>Node8</title>
<g id="a_node8"><a xlink:title=" ">
<polygon fill="#e0e0e0" stroke="#999999" points="366.5,-24.5 270.5,-24.5 270.5,-5.5 366.5,-5.5 366.5,-24.5"/>
<text text-anchor="middle" x="318.5" y="-12.5" font-family="Helvetica,sans-Serif" font-size="10.00">boost/log/core.hpp</text>
</a>
</g>
</g>
<!-- Node7&#45;&gt;Node8 -->
<g id="edge8" class="edge">
<title>Node7&#45;&gt;Node8</title>
<path fill="none" stroke="#63b8ff" d="M607.78,-69.57C556.69,-62.13 458.35,-47.05 375.5,-30 371.74,-29.23 367.86,-28.38 363.97,-27.49"/>
<polygon fill="#63b8ff" stroke="#63b8ff" points="365.08,-24.16 354.54,-25.28 363.48,-30.97 365.08,-24.16"/>
</g>
<!-- Node9 -->
<g id="node9" class="node">
<title>Node9</title>
<g id="a_node9"><a xlink:title=" ">
<polygon fill="#e0e0e0" stroke="#999999" points="514,-24.5 385,-24.5 385,-5.5 514,-5.5 514,-24.5"/>
<text text-anchor="middle" x="449.5" y="-12.5" font-family="Helvetica,sans-Serif" font-size="10.00">boost/log/expressions.hpp</text>
</a>
</g>
</g>
<!-- Node7&#45;&gt;Node9 -->
<g id="edge9" class="edge">
<title>Node7&#45;&gt;Node9</title>
<path fill="none" stroke="#63b8ff" d="M613.19,-65.62C580.31,-55.65 526.79,-39.43 489.94,-28.26"/>
<polygon fill="#63b8ff" stroke="#63b8ff" points="491.12,-24.96 480.54,-25.41 489.09,-31.66 491.12,-24.96"/>
</g>
<!-- Node10 -->
<g id="node10" class="node">
<title>Node10</title>
<g id="a_node10"><a xlink:title=" ">
<polygon fill="#e0e0e0" stroke="#999999" points="633,-24.5 532,-24.5 532,-5.5 633,-5.5 633,-24.5"/>
<text text-anchor="middle" x="582.5" y="-12.5" font-family="Helvetica,sans-Serif" font-size="10.00">boost/log/trivial.hpp</text>
</a>
</g>
</g>
<!-- Node7&#45;&gt;Node10 -->
<g id="edge10" class="edge">
<title>Node7&#45;&gt;Node10</title>
<path fill="none" stroke="#63b8ff" d="M633.39,-65.62C624.49,-56.94 610.72,-43.52 599.75,-32.82"/>
<polygon fill="#63b8ff" stroke="#63b8ff" points="602.39,-30.5 592.78,-26.03 597.5,-35.51 602.39,-30.5"/>
</g>
<!-- Node11 -->
<g id="node11" class="node">
<title>Node11</title>
<g id="a_node11"><a xlink:title=" ">
<polygon fill="#e0e0e0" stroke="#999999" points="760,-30 651,-30 651,0 760,0 760,-30"/>
<text text-anchor="start" x="659" y="-18" font-family="Helvetica,sans-Serif" font-size="10.00">boost/log/utility/setup</text>
<text text-anchor="middle" x="705.5" y="-7" font-family="Helvetica,sans-Serif" font-size="10.00">/console.hpp</text>
</a>
</g>
</g>
<!-- Node7&#45;&gt;Node11 -->
<g id="edge11" class="edge">
<title>Node7&#45;&gt;Node11</title>
<path fill="none" stroke="#63b8ff" d="M652.07,-65.62C659.92,-58.32 671.38,-47.68 681.68,-38.12"/>
<polygon fill="#63b8ff" stroke="#63b8ff" points="683.89,-40.84 688.84,-31.47 679.13,-35.71 683.89,-40.84"/>
</g>
<!-- Node12 -->
<g id="node12" class="node">
<title>Node12</title>
<g id="a_node12"><a xlink:title=" ">
<polygon fill="#e0e0e0" stroke="#999999" points="909,-30 778,-30 778,0 909,0 909,-30"/>
<text text-anchor="start" x="786" y="-18" font-family="Helvetica,sans-Serif" font-size="10.00">boost/log/sources/severity</text>
<text text-anchor="middle" x="843.5" y="-7" font-family="Helvetica,sans-Serif" font-size="10.00">_channel_logger.hpp</text>
</a>
</g>
</g>
<!-- Node7&#45;&gt;Node12 -->
<g id="edge12" class="edge">
<title>Node7&#45;&gt;Node12</title>
<path fill="none" stroke="#63b8ff" d="M673.03,-65.62C702.09,-57.16 746.65,-44.19 782.92,-33.63"/>
<polygon fill="#63b8ff" stroke="#63b8ff" points="783.81,-37.02 792.43,-30.86 781.85,-30.3 783.81,-37.02"/>
</g>
<!-- Node13 -->
<g id="node13" class="node">
<title>Node13</title>
<g id="a_node13"><a xlink:title=" ">
<polygon fill="#e0e0e0" stroke="#999999" points="113,-30 0,-30 0,0 113,0 113,-30"/>
<text text-anchor="start" x="8" y="-18" font-family="Helvetica,sans-Serif" font-size="10.00">boost/log/support/date</text>
<text text-anchor="middle" x="56.5" y="-7" font-family="Helvetica,sans-Serif" font-size="10.00">_time.hpp</text>
</a>
</g>
</g>
<!-- Node7&#45;&gt;Node13 -->
<g id="edge13" class="edge">
<title>Node7&#45;&gt;Node13</title>
<path fill="none" stroke="#63b8ff" d="M607.57,-73.05C525.12,-69.3 311.85,-57.7 124.65,-30.36"/>
<polygon fill="#63b8ff" stroke="#63b8ff" points="125.4,-26.93 114.99,-28.93 124.37,-33.85 125.4,-26.93"/>
</g>
<!-- Node14 -->
<g id="node14" class="node">
<title>Node14</title>
<g id="a_node14"><a xlink:title=" ">
<polygon fill="#e0e0e0" stroke="#999999" points="252,-30 131,-30 131,0 252,0 252,-30"/>
<text text-anchor="start" x="139" y="-18" font-family="Helvetica,sans-Serif" font-size="10.00">boost/log/utility/setup</text>
<text text-anchor="middle" x="191.5" y="-7" font-family="Helvetica,sans-Serif" font-size="10.00">/common_attributes.hpp</text>
</a>
</g>
</g>
<!-- Node7&#45;&gt;Node14 -->
<g id="edge14" class="edge">
<title>Node7&#45;&gt;Node14</title>
<path fill="none" stroke="#63b8ff" d="M607.7,-71.39C542.37,-65.34 396.71,-50.89 263.37,-30.2"/>
<polygon fill="#63b8ff" stroke="#63b8ff" points="264.07,-26.77 253.65,-28.68 262.98,-33.69 264.07,-26.77"/>
</g>
<!-- Node15&#45;&gt;Node7 -->
<g id="edge26" class="edge">
<title>Node15&#45;&gt;Node7</title>
<path fill="none" stroke="#63b8ff" d="M864.44,-291.24C829.88,-257.8 705.89,-137.83 659.86,-93.3"/>
<polygon fill="#63b8ff" stroke="#63b8ff" points="662.45,-90.93 652.83,-86.5 657.58,-95.97 662.45,-90.93"/>
</g>
<!-- Node16 -->
<g id="node16" class="node">
<title>Node16</title>
<g id="a_node16"><a xlink:href="_dma_buffer_abstract_8hpp.html" target="_top" xlink:title=" ">
<polygon fill="white" stroke="#666666" points="978,-250 861,-250 861,-231 978,-231 978,-250"/>
<text text-anchor="middle" x="919.5" y="-238" font-family="Helvetica,sans-Serif" font-size="10.00">DmaBufferAbstract.hpp</text>
</a>
</g>
</g>
<!-- Node15&#45;&gt;Node16 -->
<g id="edge16" class="edge">
<title>Node15&#45;&gt;Node16</title>
<path fill="none" stroke="#63b8ff" d="M880.29,-291.37C886.95,-282.9 897.29,-269.74 905.69,-259.07"/>
<polygon fill="#63b8ff" stroke="#63b8ff" points="908.32,-261.38 911.75,-251.36 902.82,-257.05 908.32,-261.38"/>
</g>
<!-- Node18 -->
<g id="node18" class="node">
<title>Node18</title>
<g id="a_node18"><a xlink:href="_uio_config_8hpp.html" target="_top" xlink:title=" ">
<polygon fill="white" stroke="#666666" points="1039,-85 928,-85 928,-66 1039,-66 1039,-85"/>
<text text-anchor="middle" x="983.5" y="-73" font-family="Helvetica,sans-Serif" font-size="10.00">udmaio/UioConfig.hpp</text>
</a>
</g>
</g>
<!-- Node15&#45;&gt;Node18 -->
<g id="edge27" class="edge">
<title>Node15&#45;&gt;Node18</title>
<path fill="none" stroke="#63b8ff" d="M867.06,-291.42C858.04,-278.29 843.58,-252.47 851.5,-231 873.86,-170.41 931.74,-117.47 962.91,-92.22"/>
<polygon fill="#63b8ff" stroke="#63b8ff" points="964.8,-95.19 970.46,-86.24 960.45,-89.7 964.8,-95.19"/>
</g>
<!-- Node16&#45;&gt;Node4 -->
<g id="edge18" class="edge">
<title>Node16&#45;&gt;Node4</title>
<path fill="none" stroke="#63b8ff" d="M978.45,-231.89C981.51,-231.57 984.54,-231.27 987.5,-231 1270.48,-205.13 1613.65,-191.5 1720.86,-187.65"/>
<polygon fill="#63b8ff" stroke="#63b8ff" points="1720.8,-191.16 1730.67,-187.31 1720.55,-184.16 1720.8,-191.16"/>
</g>
<!-- Node16&#45;&gt;Node6 -->
<g id="edge19" class="edge">
<title>Node16&#45;&gt;Node6</title>
<path fill="none" stroke="#63b8ff" d="M913.21,-230.74C894.72,-204.98 840.28,-129.13 815.3,-94.33"/>
<polygon fill="#63b8ff" stroke="#63b8ff" points="818.38,-92.62 809.7,-86.54 812.69,-96.7 818.38,-92.62"/>
</g>
<!-- Node17 -->
<g id="node17" class="node">
<title>Node17</title>
<g id="a_node17"><a xlink:title=" ">
<polygon fill="#e0e0e0" stroke="#999999" points="1133.5,-195 1087.5,-195 1087.5,-176 1133.5,-176 1133.5,-195"/>
<text text-anchor="middle" x="1110.5" y="-183" font-family="Helvetica,sans-Serif" font-size="10.00">cstdint</text>
</a>
</g>
</g>
<!-- Node16&#45;&gt;Node17 -->
<g id="edge17" class="edge">
<title>Node16&#45;&gt;Node17</title>
<path fill="none" stroke="#63b8ff" d="M951.9,-230.51C986.57,-220.89 1041.32,-205.7 1076.57,-195.92"/>
<polygon fill="#63b8ff" stroke="#63b8ff" points="1077.12,-199.39 1085.82,-193.35 1075.25,-192.65 1077.12,-199.39"/>
</g>
<!-- Node16&#45;&gt;Node18 -->
<g id="edge20" class="edge">
<title>Node16&#45;&gt;Node18</title>
<path fill="none" stroke="#63b8ff" d="M922.94,-230.74C932.92,-205.31 962.07,-131.08 975.96,-95.69"/>
<polygon fill="#63b8ff" stroke="#63b8ff" points="979.09,-97.3 979.49,-86.72 972.58,-94.74 979.09,-97.3"/>
</g>
<!-- Node18&#45;&gt;Node3 -->
<g id="edge24" class="edge">
<title>Node18&#45;&gt;Node3</title>
<path fill="none" stroke="#63b8ff" d="M978.19,-65.87C973.08,-57.57 965.21,-44.78 958.71,-34.22"/>
<polygon fill="#63b8ff" stroke="#63b8ff" points="961.85,-32.64 953.63,-25.96 955.89,-36.31 961.85,-32.64"/>
</g>
<!-- Node18&#45;&gt;Node19 -->
<g id="edge21" class="edge">
<title>Node18&#45;&gt;Node19</title>
<path fill="none" stroke="#63b8ff" d="M1039.16,-67.15C1042.32,-66.75 1045.45,-66.37 1048.5,-66 1201.52,-47.53 1384.02,-28.15 1462.05,-19.99"/>
<polygon fill="#63b8ff" stroke="#63b8ff" points="1462.13,-23.5 1471.71,-18.98 1461.41,-16.54 1462.13,-23.5"/>
</g>
<!-- Node20 -->
<g id="node20" class="node">
<title>Node20</title>
<g id="a_node20"><a xlink:title=" ">
<polygon fill="#e0e0e0" stroke="#999999" points="1682,-24.5 1631,-24.5 1631,-5.5 1682,-5.5 1682,-24.5"/>
<text text-anchor="middle" x="1656.5" y="-12.5" font-family="Helvetica,sans-Serif" font-size="10.00">memory</text>
</a>
</g>
</g>
<!-- Node18&#45;&gt;Node20 -->
<g id="edge22" class="edge">
<title>Node18&#45;&gt;Node20</title>
<path fill="none" stroke="#63b8ff" d="M1039.5,-66.97C1042.54,-66.63 1045.56,-66.3 1048.5,-66 1264.85,-43.89 1320,-50.61 1536.5,-30 1564.37,-27.35 1595.79,-23.66 1619.49,-20.73"/>
<polygon fill="#63b8ff" stroke="#63b8ff" points="1619.79,-24.22 1629.28,-19.51 1618.93,-17.27 1619.79,-24.22"/>
</g>
<!-- Node21 -->
<g id="node21" class="node">
<title>Node21</title>
<g id="a_node21"><a xlink:title=" ">
<polygon fill="#e0e0e0" stroke="#999999" points="1130,-24.5 1071,-24.5 1071,-5.5 1130,-5.5 1130,-24.5"/>
<text text-anchor="middle" x="1100.5" y="-12.5" font-family="Helvetica,sans-Serif" font-size="10.00">stdexcept</text>
</a>
</g>
</g>
<!-- Node18&#45;&gt;Node21 -->
<g id="edge23" class="edge">
<title>Node18&#45;&gt;Node21</title>
<path fill="none" stroke="#63b8ff" d="M1001.27,-65.62C1020.17,-56.17 1050.32,-41.09 1072.44,-30.03"/>
<polygon fill="#63b8ff" stroke="#63b8ff" points="1073.83,-33.25 1081.21,-25.65 1070.7,-26.99 1073.83,-33.25"/>
</g>
<!-- Node22 -->
<g id="node22" class="node">
<title>Node22</title>
<g id="a_node22"><a xlink:title=" ">
<polygon fill="#e0e0e0" stroke="#999999" points="1052.5,-24.5 986.5,-24.5 986.5,-5.5 1052.5,-5.5 1052.5,-24.5"/>
<text text-anchor="middle" x="1019.5" y="-12.5" font-family="Helvetica,sans-Serif" font-size="10.00">string_view</text>
</a>
</g>
</g>
<!-- Node18&#45;&gt;Node22 -->
<g id="edge25" class="edge">
<title>Node18&#45;&gt;Node22</title>
<path fill="none" stroke="#63b8ff" d="M988.81,-65.87C993.92,-57.57 1001.79,-44.78 1008.29,-34.22"/>
<polygon fill="#63b8ff" stroke="#63b8ff" points="1011.11,-36.31 1013.37,-25.96 1005.15,-32.64 1011.11,-36.31"/>
</g>
<!-- Node24 -->
<g id="node24" class="node">
<title>Node24</title>
<g id="a_node24"><a xlink:title=" ">
<polygon fill="#e0e0e0" stroke="#999999" points="1034.5,-250 996.5,-250 996.5,-231 1034.5,-231 1034.5,-250"/>
<text text-anchor="middle" x="1015.5" y="-238" font-family="Helvetica,sans-Serif" font-size="10.00">tuple</text>
</a>
</g>
</g>
<!-- Node23&#45;&gt;Node24 -->
<g id="edge29" class="edge">
<title>Node23&#45;&gt;Node24</title>
<path fill="none" stroke="#63b8ff" d="M1017.2,-291.37C1016.94,-283.5 1016.53,-271.6 1016.18,-261.39"/>
<polygon fill="#63b8ff" stroke="#63b8ff" points="1019.69,-261.55 1015.85,-251.68 1012.69,-261.79 1019.69,-261.55"/>
</g>
<!-- Node25 -->
<g id="node25" class="node">
<title>Node25</title>
<g id="a_node25"><a xlink:href="_reg_accessor_8hpp.html" target="_top" xlink:title=" ">
<polygon fill="white" stroke="#666666" points="1318,-250 1225,-250 1225,-231 1318,-231 1318,-250"/>
<text text-anchor="middle" x="1271.5" y="-238" font-family="Helvetica,sans-Serif" font-size="10.00">RegAccessor.hpp</text>
</a>
</g>
</g>
<!-- Node23&#45;&gt;Node25 -->
<g id="edge30" class="edge">
<title>Node23&#45;&gt;Node25</title>
<path fill="none" stroke="#63b8ff" d="M1051.45,-291.01C1058.09,-289.3 1065,-287.56 1071.5,-286 1121.02,-274.07 1177.72,-261.57 1218.07,-252.86"/>
<polygon fill="#63b8ff" stroke="#63b8ff" points="1218.74,-256.3 1227.78,-250.77 1217.27,-249.45 1218.74,-256.3"/>
</g>
<!-- Node26 -->
<g id="node26" class="node">
<title>Node26</title>
<g id="a_node26"><a xlink:href="_uio_if_8hpp.html" target="_top" xlink:title=" ">
<polygon fill="white" stroke="#666666" points="1289.5,-195 1199.5,-195 1199.5,-176 1289.5,-176 1289.5,-195"/>
<text text-anchor="middle" x="1244.5" y="-183" font-family="Helvetica,sans-Serif" font-size="10.00">udmaio/UioIf.hpp</text>
</a>
</g>
</g>
<!-- Node23&#45;&gt;Node26 -->
<g id="edge60" class="edge">
<title>Node23&#45;&gt;Node26</title>
<path fill="none" stroke="#63b8ff" d="M1052.67,-291.01C1092.98,-280.36 1156.23,-262.48 1177.5,-250 1198.36,-237.76 1217.91,-217.88 1230.45,-203.62"/>
<polygon fill="#63b8ff" stroke="#63b8ff" points="1232.82,-206.24 1236.64,-196.35 1227.49,-201.7 1232.82,-206.24"/>
</g>
<!-- Node35 -->
<g id="node35" class="node">
<title>Node35</title>
<g id="a_node35"><a xlink:href="_axi_dma_8hpp.html" target="_top" xlink:title=" ">
<polygon fill="white" stroke="#666666" points="1168.5,-250 1052.5,-250 1052.5,-231 1168.5,-231 1168.5,-250"/>
<text text-anchor="middle" x="1110.5" y="-238" font-family="Helvetica,sans-Serif" font-size="10.00">udmaio/rdl/AxiDma.hpp</text>
</a>
</g>
</g>
<!-- Node23&#45;&gt;Node35 -->
<g id="edge61" class="edge">
<title>Node23&#45;&gt;Node35</title>
<path fill="none" stroke="#63b8ff" d="M1031.62,-291.12C1046.24,-281.92 1069.32,-267.41 1086.74,-256.44"/>
<polygon fill="#63b8ff" stroke="#63b8ff" points="1088.36,-259.56 1094.96,-251.27 1084.63,-253.64 1088.36,-259.56"/>
</g>
<!-- Node25&#45;&gt;Node17 -->
<g id="edge31" class="edge">
<title>Node25&#45;&gt;Node17</title>
<path fill="none" stroke="#63b8ff" d="M1244.19,-230.51C1216.66,-221.45 1174.12,-207.44 1144.44,-197.67"/>
<polygon fill="#63b8ff" stroke="#63b8ff" points="1145.79,-194.43 1135.2,-194.63 1143.6,-201.08 1145.79,-194.43"/>
</g>
<!-- Node25&#45;&gt;Node26 -->
<g id="edge32" class="edge">
<title>Node25&#45;&gt;Node26</title>
<path fill="none" stroke="#63b8ff" d="M1267.04,-230.75C1263.55,-223.88 1258.55,-214.08 1254.15,-205.45"/>
<polygon fill="#63b8ff" stroke="#63b8ff" points="1257.4,-204.11 1249.74,-196.79 1251.16,-207.29 1257.4,-204.11"/>
</g>
<!-- Node26&#45;&gt;Node3 -->
<g id="edge37" class="edge">
<title>Node26&#45;&gt;Node3</title>
<path fill="none" stroke="#63b8ff" d="M1206.11,-175.5C1123.72,-155.81 935.94,-108.76 918.5,-85 906.9,-69.19 919.06,-48.04 930.99,-33.34"/>
<polygon fill="#63b8ff" stroke="#63b8ff" points="933.58,-35.69 937.55,-25.87 928.32,-31.07 933.58,-35.69"/>
</g>
<!-- Node26&#45;&gt;Node6 -->
<g id="edge38" class="edge">
<title>Node26&#45;&gt;Node6</title>
<path fill="none" stroke="#63b8ff" d="M1199.11,-178.35C1148.89,-171.1 1065.75,-157.74 995.5,-140 938.85,-125.69 874.7,-103.31 836.48,-89.3"/>
<polygon fill="#63b8ff" stroke="#63b8ff" points="837.97,-86.12 827.37,-85.93 835.54,-92.68 837.97,-86.12"/>
</g>
<!-- Node26&#45;&gt;Node7 -->
<g id="edge58" class="edge">
<title>Node26&#45;&gt;Node7</title>
<path fill="none" stroke="#63b8ff" d="M1199.17,-179.29C1137.48,-171.94 1023.74,-157.45 927.5,-140 842.57,-124.6 744.54,-101.6 688.41,-87.91"/>
<polygon fill="#63b8ff" stroke="#63b8ff" points="689.43,-84.56 678.89,-85.58 687.77,-91.36 689.43,-84.56"/>
</g>
<!-- Node26&#45;&gt;Node18 -->
<g id="edge59" class="edge">
<title>Node26&#45;&gt;Node18</title>
<path fill="none" stroke="#63b8ff" d="M1223.14,-175.66C1177.35,-156.72 1069.53,-112.1 1015.51,-89.75"/>
<polygon fill="#63b8ff" stroke="#63b8ff" points="1017.13,-86.63 1006.55,-86.04 1014.45,-93.1 1017.13,-86.63"/>
</g>
<!-- Node26&#45;&gt;Node19 -->
<g id="edge35" class="edge">
<title>Node26&#45;&gt;Node19</title>
<path fill="none" stroke="#63b8ff" d="M1289.63,-181.59C1392.5,-173.89 1639.04,-148.98 1685.5,-85 1690.46,-78.17 1690.63,-72.7 1685.5,-66 1667.81,-42.89 1587.88,-28.01 1539.05,-20.91"/>
<polygon fill="#63b8ff" stroke="#63b8ff" points="1539.84,-17.49 1529.45,-19.56 1538.87,-24.42 1539.84,-17.49"/>
</g>
<!-- Node26&#45;&gt;Node20 -->
<g id="edge36" class="edge">
<title>Node26&#45;&gt;Node20</title>
<path fill="none" stroke="#63b8ff" d="M1289.88,-181.77C1375.86,-176.15 1559.17,-161.97 1618.5,-140 1659.65,-124.76 1679.85,-123.72 1700.5,-85 1710.5,-66.24 1693.78,-45.84 1678.16,-32.12"/>
<polygon fill="#63b8ff" stroke="#63b8ff" points="1680.43,-29.46 1670.47,-25.84 1676,-34.88 1680.43,-29.46"/>
</g>
<!-- Node27 -->
<g id="node27" class="node">
<title>Node27</title>
<g id="a_node27"><a xlink:title=" ">
<polygon fill="#e0e0e0" stroke="#999999" points="1608.5,-85 1548.5,-85 1548.5,-66 1608.5,-66 1608.5,-85"/>
<text text-anchor="middle" x="1578.5" y="-73" font-family="Helvetica,sans-Serif" font-size="10.00">filesystem</text>
</a>
</g>
</g>
<!-- Node26&#45;&gt;Node27 -->
<g id="edge33" class="edge">
<title>Node26&#45;&gt;Node27</title>
<path fill="none" stroke="#63b8ff" d="M1289.93,-176.43C1329.06,-168.88 1386.75,-156.34 1435.5,-140 1477.07,-126.07 1523.05,-104.47 1551.37,-90.4"/>
<polygon fill="#63b8ff" stroke="#63b8ff" points="1552.59,-93.7 1559.96,-86.09 1549.45,-87.45 1552.59,-93.7"/>
</g>
<!-- Node28 -->
<g id="node28" class="node">
<title>Node28</title>
<g id="a_node28"><a xlink:title=" ">
<polygon fill="#e0e0e0" stroke="#999999" points="1676.5,-85 1626.5,-85 1626.5,-66 1676.5,-66 1676.5,-85"/>
<text text-anchor="middle" x="1651.5" y="-73" font-family="Helvetica,sans-Serif" font-size="10.00">fstream</text>
</a>
</g>
</g>
<!-- Node26&#45;&gt;Node28 -->
<g id="edge34" class="edge">
<title>Node26&#45;&gt;Node28</title>
<path fill="none" stroke="#63b8ff" d="M1289.72,-177.78C1336.25,-170.38 1410.61,-157.22 1473.5,-140 1525.47,-125.77 1584.01,-103.66 1619.31,-89.64"/>
<polygon fill="#63b8ff" stroke="#63b8ff" points="1620.53,-92.93 1628.51,-85.96 1617.93,-86.43 1620.53,-92.93"/>
</g>
<!-- Node29 -->
<g id="node29" class="node">
<title>Node29</title>
<g id="a_node29"><a xlink:title=" ">
<polygon fill="#e0e0e0" stroke="#999999" points="1100,-85 1057,-85 1057,-66 1100,-66 1100,-85"/>
<text text-anchor="middle" x="1078.5" y="-73" font-family="Helvetica,sans-Serif" font-size="10.00">fcntl.h</text>
</a>
</g>
</g>
<!-- Node26&#45;&gt;Node29 -->
<g id="edge39" class="edge">
<title>Node26&#45;&gt;Node29</title>
<path fill="none" stroke="#63b8ff" d="M1230.92,-175.66C1202.58,-157.23 1136.91,-114.5 1101.73,-91.62"/>
<polygon fill="#63b8ff" stroke="#63b8ff" points="1103.83,-88.81 1093.54,-86.29 1100.01,-94.67 1103.83,-88.81"/>
</g>
<!-- Node30 -->
<g id="node30" class="node">
<title>Node30</title>
<g id="a_node30"><a xlink:title=" ">
<polygon fill="#e0e0e0" stroke="#999999" points="1187,-85 1118,-85 1118,-66 1187,-66 1187,-85"/>
<text text-anchor="middle" x="1152.5" y="-73" font-family="Helvetica,sans-Serif" font-size="10.00">sys/mman.h</text>
</a>
</g>
</g>
<!-- Node26&#45;&gt;Node30 -->
<g id="edge40" class="edge">
<title>Node26&#45;&gt;Node30</title>
<path fill="none" stroke="#63b8ff" d="M1236.97,-175.66C1221.81,-157.86 1187.35,-117.41 1167.44,-94.04"/>
<polygon fill="#63b8ff" stroke="#63b8ff" points="1170.26,-91.96 1161.11,-86.61 1164.93,-96.49 1170.26,-91.96"/>
</g>
<!-- Node31 -->
<g id="node31" class="node">
<title>Node31</title>
<g id="a_node31"><a xlink:title=" ">
<polygon fill="#e0e0e0" stroke="#999999" points="1264,-85 1205,-85 1205,-66 1264,-66 1264,-85"/>
<text text-anchor="middle" x="1234.5" y="-73" font-family="Helvetica,sans-Serif" font-size="10.00">sys/stat.h</text>
</a>
</g>
</g>
<!-- Node26&#45;&gt;Node31 -->
<g id="edge41" class="edge">
<title>Node26&#45;&gt;Node31</title>
<path fill="none" stroke="#63b8ff" d="M1243.12,-175.66C1241.76,-166.69 1239.73,-152.41 1238.5,-140 1237.07,-125.48 1236.05,-109.03 1235.4,-96.52"/>
<polygon fill="#63b8ff" stroke="#63b8ff" points="1238.9,-96.48 1234.92,-86.66 1231.91,-96.81 1238.9,-96.48"/>
</g>
<!-- Node32 -->
<g id="node32" class="node">
<title>Node32</title>
<g id="a_node32"><a xlink:title=" ">
<polygon fill="#e0e0e0" stroke="#999999" points="1462,-85 1397,-85 1397,-66 1462,-66 1462,-85"/>
<text text-anchor="middle" x="1429.5" y="-73" font-family="Helvetica,sans-Serif" font-size="10.00">sys/types.h</text>
</a>
</g>
</g>
<!-- Node26&#45;&gt;Node32 -->
<g id="edge42" class="edge">
<title>Node26&#45;&gt;Node32</title>
<path fill="none" stroke="#63b8ff" d="M1289.91,-176.99C1318.22,-170.64 1354.3,-159.37 1381.5,-140 1398.01,-128.25 1411.35,-109.13 1419.74,-94.93"/>
<polygon fill="#63b8ff" stroke="#63b8ff" points="1422.59,-97 1424.42,-86.56 1416.48,-93.58 1422.59,-97"/>
</g>
<!-- Node33 -->
<g id="node33" class="node">
<title>Node33</title>
<g id="a_node33"><a xlink:title=" ">
<polygon fill="#e0e0e0" stroke="#999999" points="1530.5,-85 1480.5,-85 1480.5,-66 1530.5,-66 1530.5,-85"/>
<text text-anchor="middle" x="1505.5" y="-73" font-family="Helvetica,sans-Serif" font-size="10.00">unistd.h</text>
</a>
</g>
</g>
<!-- Node26&#45;&gt;Node33 -->
<g id="edge43" class="edge">
<title>Node26&#45;&gt;Node33</title>
<path fill="none" stroke="#63b8ff" d="M1289.84,-175.58C1322.56,-168.27 1367.32,-156.44 1404.5,-140 1434.02,-126.95 1465.03,-106.26 1484.77,-92.06"/>
<polygon fill="#63b8ff" stroke="#63b8ff" points="1486.78,-94.93 1492.78,-86.2 1482.64,-89.28 1486.78,-94.93"/>
</g>
<!-- Node34 -->
<g id="node34" class="node">
<title>Node34</title>
<g id="a_node34"><a xlink:href="_hw_accessor_8hpp.html" target="_top" xlink:title=" ">
<polygon fill="white" stroke="#666666" points="1372,-140 1247,-140 1247,-121 1372,-121 1372,-140"/>
<text text-anchor="middle" x="1309.5" y="-128" font-family="Helvetica,sans-Serif" font-size="10.00">udmaio/HwAccessor.hpp</text>
</a>
</g>
</g>
<!-- Node26&#45;&gt;Node34 -->
<g id="edge44" class="edge">
<title>Node26&#45;&gt;Node34</title>
<path fill="none" stroke="#63b8ff" d="M1255.53,-175.51C1264.92,-167.85 1278.65,-156.66 1289.91,-147.47"/>
<polygon fill="#63b8ff" stroke="#63b8ff" points="1291.93,-150.35 1297.46,-141.31 1287.5,-144.92 1291.93,-150.35"/>
</g>
<!-- Node34&#45;&gt;Node3 -->
<g id="edge49" class="edge">
<title>Node34&#45;&gt;Node3</title>
<path fill="none" stroke="#63b8ff" d="M1307.3,-120.79C1303.23,-106.67 1293.11,-79.08 1273.5,-66 1163.24,7.52 1104.91,-66.47 977.5,-30 976.53,-29.72 975.56,-29.42 974.58,-29.09"/>
<polygon fill="#63b8ff" stroke="#63b8ff" points="976.26,-26 965.68,-25.52 973.66,-32.49 976.26,-26"/>
</g>
<!-- Node34&#45;&gt;Node6 -->
<g id="edge50" class="edge">
<title>Node34&#45;&gt;Node6</title>
<path fill="none" stroke="#63b8ff" d="M1246.57,-122.92C1154.64,-113.31 983.64,-95.44 882.77,-84.89"/>
<polygon fill="#63b8ff" stroke="#63b8ff" points="883.25,-81.42 872.94,-83.86 882.52,-88.38 883.25,-81.42"/>
</g>
<!-- Node34&#45;&gt;Node7 -->
<g id="edge56" class="edge">
<title>Node34&#45;&gt;Node7</title>
<path fill="none" stroke="#63b8ff" d="M1246.69,-125.29C1139.51,-117.98 914.46,-102.07 724.5,-85 712.85,-83.95 700.27,-82.71 688.56,-81.5"/>
<polygon fill="#63b8ff" stroke="#63b8ff" points="689.01,-78.03 678.7,-80.47 688.28,-84.99 689.01,-78.03"/>
</g>
<!-- Node34&#45;&gt;Node18 -->
<g id="edge57" class="edge">
<title>Node34&#45;&gt;Node18</title>
<path fill="none" stroke="#63b8ff" d="M1254.2,-120.51C1197.8,-111.34 1110.25,-97.11 1050.08,-87.32"/>
<polygon fill="#63b8ff" stroke="#63b8ff" points="1050.73,-83.88 1040.29,-85.73 1049.6,-90.79 1050.73,-83.88"/>
</g>
<!-- Node34&#45;&gt;Node19 -->
<g id="edge47" class="edge">
<title>Node34&#45;&gt;Node19</title>
<path fill="none" stroke="#63b8ff" d="M1313.45,-120.79C1320.05,-107.18 1334.59,-80.89 1354.5,-66 1386.51,-42.06 1430.79,-29.04 1462.17,-22.35"/>
<polygon fill="#63b8ff" stroke="#63b8ff" points="1462.5,-25.85 1471.62,-20.46 1461.13,-18.99 1462.5,-25.85"/>
</g>
<!-- Node34&#45;&gt;Node20 -->
<g id="edge48" class="edge">
<title>Node34&#45;&gt;Node20</title>
<path fill="none" stroke="#63b8ff" d="M1317.32,-120.92C1330.53,-107 1358.76,-79.67 1388.5,-66 1429.19,-47.3 1556.15,-28.93 1619.61,-20.61"/>
<polygon fill="#63b8ff" stroke="#63b8ff" points="1619.72,-24.13 1629.19,-19.38 1618.82,-17.19 1619.72,-24.13"/>
</g>
<!-- Node34&#45;&gt;Node27 -->
<g id="edge45" class="edge">
<title>Node34&#45;&gt;Node27</title>
<path fill="none" stroke="#63b8ff" d="M1357.58,-120.54C1401.79,-112.22 1469.45,-99.3 1537.38,-85.4"/>
<polygon fill="#63b8ff" stroke="#63b8ff" points="1537.71,-88.9 1546.8,-83.46 1536.3,-82.05 1537.71,-88.9"/>
</g>
<!-- Node34&#45;&gt;Node28 -->
<g id="edge46" class="edge">
<title>Node34&#45;&gt;Node28</title>
<path fill="none" stroke="#63b8ff" d="M1372.34,-122.32C1432.31,-115.03 1525.39,-102.62 1615.11,-85.29"/>
<polygon fill="#63b8ff" stroke="#63b8ff" points="1615.69,-88.75 1624.83,-83.39 1614.34,-81.88 1615.69,-88.75"/>
</g>
<!-- Node34&#45;&gt;Node29 -->
<g id="edge51" class="edge">
<title>Node34&#45;&gt;Node29</title>
<path fill="none" stroke="#63b8ff" d="M1266.44,-120.55C1228.22,-112.47 1170.6,-99.94 1111.52,-85.41"/>
<polygon fill="#63b8ff" stroke="#63b8ff" points="1112.5,-82.04 1101.95,-83.03 1110.81,-88.84 1112.5,-82.04"/>
</g>
<!-- Node34&#45;&gt;Node30 -->
<g id="edge52" class="edge">
<title>Node34&#45;&gt;Node30</title>
<path fill="none" stroke="#63b8ff" d="M1282.87,-120.51C1257.3,-111.88 1218.45,-98.76 1189.81,-89.1"/>
<polygon fill="#63b8ff" stroke="#63b8ff" points="1191.03,-85.81 1180.44,-85.93 1188.79,-92.45 1191.03,-85.81"/>
</g>
<!-- Node34&#45;&gt;Node31 -->
<g id="edge53" class="edge">
<title>Node34&#45;&gt;Node31</title>
<path fill="none" stroke="#63b8ff" d="M1296.78,-120.51C1285.72,-112.7 1269.46,-101.21 1256.33,-91.93"/>
<polygon fill="#63b8ff" stroke="#63b8ff" points="1258.46,-89.14 1248.27,-86.23 1254.42,-94.86 1258.46,-89.14"/>
</g>
<!-- Node34&#45;&gt;Node32 -->
<g id="edge54" class="edge">
<title>Node34&#45;&gt;Node32</title>
<path fill="none" stroke="#63b8ff" d="M1329.86,-120.51C1348.85,-112.12 1377.43,-99.5 1399.12,-89.92"/>
<polygon fill="#63b8ff" stroke="#63b8ff" points="1400.33,-93.21 1408.06,-85.97 1397.5,-86.81 1400.33,-93.21"/>
</g>
<!-- Node34&#45;&gt;Node33 -->
<g id="edge55" class="edge">
<title>Node34&#45;&gt;Node33</title>
<path fill="none" stroke="#63b8ff" d="M1342.75,-120.51C1377.83,-111.02 1432.96,-96.12 1469.17,-86.32"/>
<polygon fill="#63b8ff" stroke="#63b8ff" points="1470.01,-89.72 1478.75,-83.73 1468.18,-82.97 1470.01,-89.72"/>
</g>
<!-- Node35&#45;&gt;Node17 -->
<g id="edge62" class="edge">
<title>Node35&#45;&gt;Node17</title>
<path fill="none" stroke="#63b8ff" d="M1110.5,-230.75C1110.5,-224.27 1110.5,-215.16 1110.5,-206.9"/>
<polygon fill="#63b8ff" stroke="#63b8ff" points="1114,-206.96 1110.5,-196.96 1107,-206.96 1114,-206.96"/>
</g>
<!-- Node36&#45;&gt;Node16 -->
<g id="edge66" class="edge">
<title>Node36&#45;&gt;Node16</title>
<path fill="none" stroke="#63b8ff" d="M1233.88,-291.06C1225.86,-289.28 1217.41,-287.5 1209.5,-286 1134.78,-271.85 1048.58,-259.07 989.7,-250.87"/>
<polygon fill="#63b8ff" stroke="#63b8ff" points="990.19,-247.41 979.8,-249.5 989.23,-254.34 990.19,-247.41"/>
</g>
<!-- Node36&#45;&gt;Node20 -->
<g id="edge65" class="edge">
<title>Node36&#45;&gt;Node20</title>
<path fill="none" stroke="#63b8ff" d="M1303.3,-291.06C1371.65,-270.97 1536.14,-217.81 1656.5,-140 1691.82,-117.16 1733.18,-104.17 1715.5,-66 1708.73,-51.39 1695.35,-39.49 1683.05,-30.98"/>
<polygon fill="#63b8ff" stroke="#63b8ff" points="1685.13,-28.16 1674.83,-25.7 1681.35,-34.05 1685.13,-28.16"/>
</g>
<!-- Node36&#45;&gt;Node25 -->
<g id="edge67" class="edge">
<title>Node36&#45;&gt;Node25</title>
<path fill="none" stroke="#63b8ff" d="M1271.5,-291.37C1271.5,-283.5 1271.5,-271.6 1271.5,-261.39"/>
<polygon fill="#63b8ff" stroke="#63b8ff" points="1275,-261.68 1271.5,-251.68 1268,-261.68 1275,-261.68"/>
</g>
<!-- Node37 -->
<g id="node37" class="node">
<title>Node37</title>
<g id="a_node37"><a xlink:title=" ">
<polygon fill="#e0e0e0" stroke="#999999" points="1385,-250 1336,-250 1336,-231 1385,-231 1385,-250"/>
<text text-anchor="middle" x="1360.5" y="-238" font-family="Helvetica,sans-Serif" font-size="10.00">cstddef</text>
</a>
</g>
</g>
<!-- Node36&#45;&gt;Node37 -->
<g id="edge64" class="edge">
<title>Node36&#45;&gt;Node37</title>
<path fill="none" stroke="#63b8ff" d="M1285.02,-291.12C1298.87,-282.01 1320.68,-267.68 1337.3,-256.75"/>
<polygon fill="#63b8ff" stroke="#63b8ff" points="1339.16,-259.72 1345.59,-251.3 1335.31,-253.87 1339.16,-259.72"/>
</g>
</g>
</svg>
        <g id="navigator" transform="translate(0 0)" fill="#404254">
                <rect fill="#f2f5e9" fill-opacity="0.5" stroke="#606060" stroke-width=".5" x="0" y="0" width="60" height="60"/>
                <use id="zoomplus" xlink:href="#zoomPlus" x="17" y="9" onmousedown="handleZoom(evt,'in')"/>
                <use id="zoomminus" xlink:href="#zoomMin" x="42" y="9" onmousedown="handleZoom(evt,'out')"/>
                <use id="reset" xlink:href="#resetDef" x="30" y="36" onmousedown="handleReset()"/>
                <g id="arrowUp" xlink:href="#dirArrow" transform="translate(30 24)" onmousedown="handlePan(0,-1)">
                  <use xlink:href="#rim" fill="#404040">
                        <set attributeName="fill" to="#808080" begin="arrowUp.mouseover" end="arrowUp.mouseout"/>
                  </use>
                  <path fill="none" stroke="white" stroke-width="1.5" d="M0,-3.0v7 M-2.5,-0.5L0,-3.0L2.5,-0.5"/>
                </g>
                <g id="arrowRight" xlink:href="#dirArrow" transform="rotate(90) translate(36 -43)" onmousedown="handlePan(1,0)">
                  <use xlink:href="#rim" fill="#404040">
                        <set attributeName="fill" to="#808080" begin="arrowRight.mouseover" end="arrowRight.mouseout"/>
                  </use>
                  <path fill="none" stroke="white" stroke-width="1.5" d="M0,-3.0v7 M-2.5,-0.5L0,-3.0L2.5,-0.5"/>
                </g>
                <g id="arrowDown" xlink:href="#dirArrow" transform="rotate(180) translate(-30 -48)" onmousedown="handlePan(0,1)">
                  <use xlink:href="#rim" fill="#404040">
                        <set attributeName="fill" to="#808080" begin="arrowDown.mouseover" end="arrowDown.mouseout"/>
                  </use>
                  <path fill="none" stroke="white" stroke-width="1.5" d="M0,-3.0v7 M-2.5,-0.5L0,-3.0L2.5,-0.5"/>
                </g>
                <g id="arrowLeft" xlink:href="#dirArrow" transform="rotate(270) translate(-36 17)" onmousedown="handlePan(-1,0)">
                  <use xlink:href="#rim" fill="#404040">
                        <set attributeName="fill" to="#808080" begin="arrowLeft.mouseover" end="arrowLeft.mouseout"/>
                  </use>
                  <path fill="none" stroke="white" stroke-width="1.5" d="M0,-3.0v7 M-2.5,-0.5L0,-3.0L2.5,-0.5"/>
                </g>
        </g>
        <svg viewBox="0 0 15 15" width="100%" height="30px" preserveAspectRatio="xMaxYMin meet">
         <g id="arrow_out" transform="scale(0.3 0.3)">
          <a xlink:href="_data_handler_abstract_8cpp__incl_org.svg" target="_base">
           <rect id="button" ry="5" rx="5" y="6" x="6" height="38" width="38"
                fill="#f2f5e9" fill-opacity="0.5" stroke="#606060" stroke-width="1.0"/>
           <path id="arrow"
             d="M 11.500037,31.436501 C 11.940474,20.09759 22.043105,11.32322 32.158766,21.979434 L 37.068811,17.246167 C 37.068811,17.246167 37.088388,32 37.088388,32 L 22.160133,31.978069 C 22.160133,31.978069 26.997745,27.140456 26.997745,27.140456 C 18.528582,18.264221 13.291696,25.230495 11.500037,31.436501 z"
             style="fill:#404040;"/>
          </a>
         </g>
        </svg>
</svg>
