<?xml version="1.0" encoding="UTF-8" standalone="no"?>
<!DOCTYPE svg PUBLIC "-//W3C//DTD SVG 1.1//EN"
 "http://www.w3.org/Graphics/SVG/1.1/DTD/svg11.dtd">
<!-- Generated by graphviz version 7.0.5 (20221223.1930)
 -->
<!-- Title: DataHandlerAbstract.cpp Pages: 1 -->
<svg width="1729pt" height="434pt"
 viewBox="0.00 0.00 1729.00 434.00" xmlns="http://www.w3.org/2000/svg" xmlns:xlink="http://www.w3.org/1999/xlink">
<g id="graph0" class="graph" transform="scale(1 1) rotate(0) translate(4 430)">
<title>DataHandlerAbstract.cpp</title>
<!-- Node1 -->
<g id="node1" class="node">
<title>Node1</title>
<g id="a_node1"><a xlink:title=" ">
<polygon fill="#999999" stroke="#666666" points="1315.5,-426 1190.5,-426 1190.5,-407 1315.5,-407 1315.5,-426"/>
<text text-anchor="middle" x="1253" y="-414" font-family="Helvetica,sans-Serif" font-size="10.00">DataHandlerAbstract.cpp</text>
</a>
</g>
</g>
<!-- Node2 -->
<g id="node2" class="node">
<title>Node2</title>
<g id="a_node2"><a xlink:href="_data_handler_abstract_8hpp.html" target="_top" xlink:title=" ">
<polygon fill="white" stroke="#666666" points="1104,-371 944,-371 944,-352 1104,-352 1104,-371"/>
<text text-anchor="middle" x="1024" y="-359" font-family="Helvetica,sans-Serif" font-size="10.00">udmaio/DataHandlerAbstract.hpp</text>
</a>
</g>
</g>
<!-- Node1&#45;&gt;Node2 -->
<g id="edge1" class="edge">
<title>Node1&#45;&gt;Node2</title>
<path fill="none" stroke="#63b8ff" d="M1214.15,-406.51C1175.46,-397.55 1115.91,-383.77 1073.78,-374.02"/>
<polygon fill="#63b8ff" stroke="#63b8ff" points="1074.66,-370.63 1064.13,-371.79 1073.08,-377.45 1074.66,-370.63"/>
</g>
<!-- Node4 -->
<g id="node4" class="node">
<title>Node4</title>
<g id="a_node4"><a xlink:title=" ">
<polygon fill="#e0e0e0" stroke="#999999" points="1187,-195 1143,-195 1143,-176 1187,-176 1187,-195"/>
<text text-anchor="middle" x="1165" y="-183" font-family="Helvetica,sans-Serif" font-size="10.00">vector</text>
</a>
</g>
</g>
<!-- Node1&#45;&gt;Node4 -->
<g id="edge68" class="edge">
<title>Node1&#45;&gt;Node4</title>
<path fill="none" stroke="#63b8ff" d="M1250.43,-406.88C1242.39,-380.25 1216.56,-297.09 1188,-231 1184.25,-222.32 1179.53,-212.98 1175.35,-205.11"/>
<polygon fill="#63b8ff" stroke="#63b8ff" points="1178.53,-203.63 1170.67,-196.52 1172.38,-206.98 1178.53,-203.63"/>
</g>
<!-- Node19 -->
<g id="node19" class="node">
<title>Node19</title>
<g id="a_node19"><a xlink:title=" ">
<polygon fill="#e0e0e0" stroke="#999999" points="267,-24.5 213,-24.5 213,-5.5 267,-5.5 267,-24.5"/>
<text text-anchor="middle" x="240" y="-12.5" font-family="Helvetica,sans-Serif" font-size="10.00">iostream</text>
</a>
</g>
</g>
<!-- Node1&#45;&gt;Node19 -->
<g id="edge67" class="edge">
<title>Node1&#45;&gt;Node19</title>
<path fill="none" stroke="#63b8ff" d="M1190,-413.13C935.92,-403.18 0,-362.41 0,-302 0,-302 0,-302 0,-129.5 0,-41.45 133.64,-21.61 201.47,-17.21"/>
<polygon fill="#63b8ff" stroke="#63b8ff" points="201.63,-20.7 211.42,-16.65 201.25,-13.71 201.63,-20.7"/>
</g>
<!-- Node37 -->
<g id="node37" class="node">
<title>Node37</title>
<g id="a_node37"><a xlink:title=" ">
<polygon fill="#e0e0e0" stroke="#999999" points="1340.5,-371 1281.5,-371 1281.5,-352 1340.5,-352 1340.5,-371"/>
<text text-anchor="middle" x="1311" y="-359" font-family="Helvetica,sans-Serif" font-size="10.00">functional</text>
</a>
</g>
</g>
<!-- Node1&#45;&gt;Node37 -->
<g id="edge65" class="edge">
<title>Node1&#45;&gt;Node37</title>
<path fill="none" stroke="#63b8ff" d="M1262.84,-406.51C1271.05,-399 1282.98,-388.1 1292.91,-379.03"/>
<polygon fill="#63b8ff" stroke="#63b8ff" points="1295.17,-381.71 1300.19,-372.38 1290.45,-376.54 1295.17,-381.71"/>
</g>
<!-- Node38 -->
<g id="node38" class="node">
<title>Node38</title>
<g id="a_node38"><a xlink:title=" ">
<polygon fill="#e0e0e0" stroke="#999999" points="1409,-371 1359,-371 1359,-352 1409,-352 1409,-371"/>
<text text-anchor="middle" x="1384" y="-359" font-family="Helvetica,sans-Serif" font-size="10.00">iomanip</text>
</a>
</g>
</g>
<!-- Node1&#45;&gt;Node38 -->
<g id="edge66" class="edge">
<title>Node1&#45;&gt;Node38</title>
<path fill="none" stroke="#63b8ff" d="M1275.22,-406.51C1296.14,-398.04 1327.73,-385.27 1351.48,-375.66"/>
<polygon fill="#63b8ff" stroke="#63b8ff" points="1352.75,-378.92 1360.7,-371.93 1350.12,-372.43 1352.75,-378.92"/>
</g>
<!-- Node3 -->
<g id="node3" class="node">
<title>Node3</title>
<g id="a_node3"><a xlink:title=" ">
<polygon fill="#e0e0e0" stroke="#999999" points="794.5,-24.5 753.5,-24.5 753.5,-5.5 794.5,-5.5 794.5,-24.5"/>
<text text-anchor="middle" x="774" y="-12.5" font-family="Helvetica,sans-Serif" font-size="10.00">string</text>
</a>
</g>
</g>
<!-- Node2&#45;&gt;Node3 -->
<g id="edge2" class="edge">
<title>Node2&#45;&gt;Node3</title>
<path fill="none" stroke="#63b8ff" d="M1028.7,-351.73C1041.67,-326.71 1077,-252.5 1077,-186.5 1077,-186.5 1077,-186.5 1077,-129.5 1077,-100.04 1080.34,-85.21 1058,-66 971.21,8.62 912.51,-63.28 803,-30 802.2,-29.76 801.39,-29.49 800.58,-29.21"/>
<polygon fill="#63b8ff" stroke="#63b8ff" points="802.18,-26.09 791.6,-25.49 799.5,-32.55 802.18,-26.09"/>
</g>
<!-- Node2&#45;&gt;Node4 -->
<g id="edge3" class="edge">
<title>Node2&#45;&gt;Node4</title>
<path fill="none" stroke="#63b8ff" d="M1100.27,-351.6C1122.24,-345.18 1144.02,-334.31 1158,-316 1182.41,-284.03 1176.16,-233.62 1170.16,-206.07"/>
<polygon fill="#63b8ff" stroke="#63b8ff" points="1173.63,-205.54 1167.88,-196.64 1166.82,-207.18 1173.63,-205.54"/>
</g>
<!-- Node5 -->
<g id="node5" class="node">
<title>Node5</title>
<g id="a_node5"><a xlink:title=" ">
<polygon fill="#e0e0e0" stroke="#999999" points="719,-310.5 639,-310.5 639,-291.5 719,-291.5 719,-310.5"/>
<text text-anchor="middle" x="679" y="-298.5" font-family="Helvetica,sans-Serif" font-size="10.00">boost/asio.hpp</text>
</a>
</g>
</g>
<!-- Node2&#45;&gt;Node5 -->
<g id="edge4" class="edge">
<title>Node2&#45;&gt;Node5</title>
<path fill="none" stroke="#63b8ff" d="M945.6,-351.52C885.64,-343.97 801.13,-331.87 728,-316 725.06,-315.36 722.04,-314.65 719.01,-313.89"/>
<polygon fill="#63b8ff" stroke="#63b8ff" points="720.15,-310.57 709.59,-311.38 718.35,-317.33 720.15,-310.57"/>
</g>
<!-- Node6 -->
<g id="node6" class="node">
<title>Node6</title>
<g id="a_node6"><a xlink:title=" ">
<polygon fill="#e0e0e0" stroke="#999999" points="1048.5,-85 911.5,-85 911.5,-66 1048.5,-66 1048.5,-85"/>
<text text-anchor="middle" x="980" y="-73" font-family="Helvetica,sans-Serif" font-size="10.00">boost/core/noncopyable.hpp</text>
</a>
</g>
</g>
<!-- Node2&#45;&gt;Node6 -->
<g id="edge5" class="edge">
<title>Node2&#45;&gt;Node6</title>
<path fill="none" stroke="#63b8ff" d="M1021.37,-351.7C1016.5,-336.67 1004.84,-305.75 986,-286 963.74,-262.66 939.19,-277.89 923,-250 892.57,-197.56 939.4,-126.66 965.05,-94.13"/>
<polygon fill="#63b8ff" stroke="#63b8ff" points="967.66,-96.47 971.27,-86.51 962.24,-92.05 967.66,-96.47"/>
</g>
<!-- Node7 -->
<g id="node7" class="node">
<title>Node7</title>
<g id="a_node7"><a xlink:href="_logging_8hpp.html" target="_top" xlink:title=" ">
<polygon fill="white" stroke="#666666" points="1174.5,-85 1105.5,-85 1105.5,-66 1174.5,-66 1174.5,-85"/>
<text text-anchor="middle" x="1140" y="-73" font-family="Helvetica,sans-Serif" font-size="10.00">Logging.hpp</text>
</a>
</g>
</g>
<!-- Node2&#45;&gt;Node7 -->
<g id="edge6" class="edge">
<title>Node2&#45;&gt;Node7</title>
<path fill="none" stroke="#63b8ff" d="M1099.3,-351.59C1126.48,-345.27 1155.89,-334.46 1178,-316 1206.38,-292.31 1215,-278.47 1215,-241.5 1215,-241.5 1215,-241.5 1215,-184.5 1215,-146.35 1183.04,-111.98 1160.84,-92.72"/>
<polygon fill="#63b8ff" stroke="#63b8ff" points="1163.14,-90.08 1153.21,-86.39 1158.67,-95.47 1163.14,-90.08"/>
</g>
<!-- Node15 -->
<g id="node15" class="node">
<title>Node15</title>
<g id="a_node15"><a xlink:href="_u_dma_buf_8hpp.html" target="_top" xlink:title=" ">
<polygon fill="white" stroke="#666666" points="1148.5,-310.5 1071.5,-310.5 1071.5,-291.5 1148.5,-291.5 1148.5,-310.5"/>
<text text-anchor="middle" x="1110" y="-298.5" font-family="Helvetica,sans-Serif" font-size="10.00">UDmaBuf.hpp</text>
</a>
</g>
</g>
<!-- Node2&#45;&gt;Node15 -->
<g id="edge15" class="edge">
<title>Node2&#45;&gt;Node15</title>
<path fill="none" stroke="#63b8ff" d="M1037.06,-351.62C1050.45,-342.51 1071.52,-328.18 1087.58,-317.25"/>
<polygon fill="#63b8ff" stroke="#63b8ff" points="1089.26,-320.34 1095.56,-311.82 1085.33,-314.55 1089.26,-320.34"/>
</g>
<!-- Node23 -->
<g id="node23" class="node">
<title>Node23</title>
<g id="a_node23"><a xlink:href="_uio_axi_dma_if_8hpp.html" target="_top" xlink:title=" ">
<polygon fill="white" stroke="#666666" points="620.5,-310.5 531.5,-310.5 531.5,-291.5 620.5,-291.5 620.5,-310.5"/>
<text text-anchor="middle" x="576" y="-298.5" font-family="Helvetica,sans-Serif" font-size="10.00">UioAxiDmaIf.hpp</text>
</a>
</g>
</g>
<!-- Node2&#45;&gt;Node23 -->
<g id="edge27" class="edge">
<title>Node2&#45;&gt;Node23</title>
<path fill="none" stroke="#63b8ff" d="M943.52,-354.76C863.55,-348.27 737.62,-335.93 630,-316 626.22,-315.3 622.31,-314.48 618.41,-313.6"/>
<polygon fill="#63b8ff" stroke="#63b8ff" points="619.54,-310.27 609,-311.33 617.9,-317.07 619.54,-310.27"/>
</g>
<!-- Node35 -->
<g id="node35" class="node">
<title>Node35</title>
<g id="a_node35"><a xlink:href="_uio_mem_sgdma_8hpp.html" target="_top" xlink:title=" ">
<polygon fill="white" stroke="#666666" points="977,-310.5 875,-310.5 875,-291.5 977,-291.5 977,-310.5"/>
<text text-anchor="middle" x="926" y="-298.5" font-family="Helvetica,sans-Serif" font-size="10.00">UioMemSgdma.hpp</text>
</a>
</g>
</g>
<!-- Node2&#45;&gt;Node35 -->
<g id="edge61" class="edge">
<title>Node2&#45;&gt;Node35</title>
<path fill="none" stroke="#63b8ff" d="M1009.12,-351.62C993.65,-342.38 969.17,-327.77 950.78,-316.79"/>
<polygon fill="#63b8ff" stroke="#63b8ff" points="952.7,-313.86 942.32,-311.74 949.12,-319.88 952.7,-313.86"/>
</g>
<!-- Node36 -->
<g id="node36" class="node">
<title>Node36</title>
<g id="a_node36"><a xlink:title=" ">
<polygon fill="#e0e0e0" stroke="#999999" points="857,-316 737,-316 737,-286 857,-286 857,-316"/>
<text text-anchor="start" x="745" y="-304" font-family="Helvetica,sans-Serif" font-size="10.00">boost/asio/posix/stream</text>
<text text-anchor="middle" x="797" y="-293" font-family="Helvetica,sans-Serif" font-size="10.00">_descriptor.hpp</text>
</a>
</g>
</g>
<!-- Node2&#45;&gt;Node36 -->
<g id="edge64" class="edge">
<title>Node2&#45;&gt;Node36</title>
<path fill="none" stroke="#63b8ff" d="M989.52,-351.62C956.35,-343.07 905.29,-329.91 864.09,-319.29"/>
<polygon fill="#63b8ff" stroke="#63b8ff" points="865.05,-315.92 854.5,-316.82 863.31,-322.7 865.05,-315.92"/>
</g>
<!-- Node7&#45;&gt;Node3 -->
<g id="edge7" class="edge">
<title>Node7&#45;&gt;Node3</title>
<path fill="none" stroke="#63b8ff" d="M1105.23,-68.26C1100.46,-67.46 1095.61,-66.69 1091,-66 963.42,-46.97 926.72,-66.52 803,-30 802.2,-29.76 801.39,-29.5 800.57,-29.23"/>
<polygon fill="#63b8ff" stroke="#63b8ff" points="802.17,-26.1 791.59,-25.53 799.51,-32.58 802.17,-26.1"/>
</g>
<!-- Node8 -->
<g id="node8" class="node">
<title>Node8</title>
<g id="a_node8"><a xlink:title=" ">
<polygon fill="#e0e0e0" stroke="#999999" points="1721,-24.5 1625,-24.5 1625,-5.5 1721,-5.5 1721,-24.5"/>
<text text-anchor="middle" x="1673" y="-12.5" font-family="Helvetica,sans-Serif" font-size="10.00">boost/log/core.hpp</text>
</a>
</g>
</g>
<!-- Node7&#45;&gt;Node8 -->
<g id="edge8" class="edge">
<title>Node7&#45;&gt;Node8</title>
<path fill="none" stroke="#63b8ff" d="M1174.87,-73.01C1253.86,-69.23 1452.31,-57.6 1616,-30 1620.29,-29.28 1624.73,-28.41 1629.15,-27.46"/>
<polygon fill="#63b8ff" stroke="#63b8ff" points="1629.57,-30.95 1638.54,-25.31 1628.01,-24.13 1629.57,-30.95"/>
</g>
<!-- Node9 -->
<g id="node9" class="node">
<title>Node9</title>
<g id="a_node9"><a xlink:title=" ">
<polygon fill="#e0e0e0" stroke="#999999" points="941.5,-24.5 812.5,-24.5 812.5,-5.5 941.5,-5.5 941.5,-24.5"/>
<text text-anchor="middle" x="877" y="-12.5" font-family="Helvetica,sans-Serif" font-size="10.00">boost/log/expressions.hpp</text>
</a>
</g>
</g>
<!-- Node7&#45;&gt;Node9 -->
<g id="edge9" class="edge">
<title>Node7&#45;&gt;Node9</title>
<path fill="none" stroke="#63b8ff" d="M1105.08,-66.73C1059.77,-56.66 980.39,-39 928.26,-27.4"/>
<polygon fill="#63b8ff" stroke="#63b8ff" points="929.24,-24.04 918.72,-25.28 927.72,-30.87 929.24,-24.04"/>
</g>
<!-- Node10 -->
<g id="node10" class="node">
<title>Node10</title>
<g id="a_node10"><a xlink:title=" ">
<polygon fill="#e0e0e0" stroke="#999999" points="1060.5,-24.5 959.5,-24.5 959.5,-5.5 1060.5,-5.5 1060.5,-24.5"/>
<text text-anchor="middle" x="1010" y="-12.5" font-family="Helvetica,sans-Serif" font-size="10.00">boost/log/trivial.hpp</text>
</a>
</g>
</g>
<!-- Node7&#45;&gt;Node10 -->
<g id="edge10" class="edge">
<title>Node7&#45;&gt;Node10</title>
<path fill="none" stroke="#63b8ff" d="M1120.26,-65.62C1098.97,-56.04 1064.83,-40.68 1040.18,-29.58"/>
<polygon fill="#63b8ff" stroke="#63b8ff" points="1041.87,-26.5 1031.31,-25.59 1038.99,-32.89 1041.87,-26.5"/>
</g>
<!-- Node11 -->
<g id="node11" class="node">
<title>Node11</title>
<g id="a_node11"><a xlink:title=" ">
<polygon fill="#e0e0e0" stroke="#999999" points="1187.5,-30 1078.5,-30 1078.5,0 1187.5,0 1187.5,-30"/>
<text text-anchor="start" x="1086.5" y="-18" font-family="Helvetica,sans-Serif" font-size="10.00">boost/log/utility/setup</text>
<text text-anchor="middle" x="1133" y="-7" font-family="Helvetica,sans-Serif" font-size="10.00">/console.hpp</text>
</a>
</g>
</g>
<!-- Node7&#45;&gt;Node11 -->
<g id="edge11" class="edge">
<title>Node7&#45;&gt;Node11</title>
<path fill="none" stroke="#63b8ff" d="M1138.97,-65.87C1138.19,-59.4 1137.09,-50.2 1136.05,-41.45"/>
<polygon fill="#63b8ff" stroke="#63b8ff" points="1139.53,-41.13 1134.87,-31.62 1132.58,-41.96 1139.53,-41.13"/>
</g>
<!-- Node12 -->
<g id="node12" class="node">
<title>Node12</title>
<g id="a_node12"><a xlink:title=" ">
<polygon fill="#e0e0e0" stroke="#999999" points="1336.5,-30 1205.5,-30 1205.5,0 1336.5,0 1336.5,-30"/>
<text text-anchor="start" x="1213.5" y="-18" font-family="Helvetica,sans-Serif" font-size="10.00">boost/log/sources/severity</text>
<text text-anchor="middle" x="1271" y="-7" font-family="Helvetica,sans-Serif" font-size="10.00">_channel_logger.hpp</text>
</a>
</g>
</g>
<!-- Node7&#45;&gt;Node12 -->
<g id="edge12" class="edge">
<title>Node7&#45;&gt;Node12</title>
<path fill="none" stroke="#63b8ff" d="M1159.9,-65.62C1178.02,-57.52 1205.39,-45.3 1228.43,-35.01"/>
<polygon fill="#63b8ff" stroke="#63b8ff" points="1229.58,-38.33 1237.28,-31.06 1226.73,-31.94 1229.58,-38.33"/>
</g>
<!-- Node13 -->
<g id="node13" class="node">
<title>Node13</title>
<g id="a_node13"><a xlink:title=" ">
<polygon fill="#e0e0e0" stroke="#999999" points="1467.5,-30 1354.5,-30 1354.5,0 1467.5,0 1467.5,-30"/>
<text text-anchor="start" x="1362.5" y="-18" font-family="Helvetica,sans-Serif" font-size="10.00">boost/log/support/date</text>
<text text-anchor="middle" x="1411" y="-7" font-family="Helvetica,sans-Serif" font-size="10.00">_time.hpp</text>
</a>
</g>
</g>
<!-- Node7&#45;&gt;Node13 -->
<g id="edge13" class="edge">
<title>Node7&#45;&gt;Node13</title>
<path fill="none" stroke="#63b8ff" d="M1174.87,-66.97C1217.18,-57.84 1289.47,-42.23 1342.95,-30.69"/>
<polygon fill="#63b8ff" stroke="#63b8ff" points="1343.54,-34.14 1352.58,-28.61 1342.06,-27.3 1343.54,-34.14"/>
</g>
<!-- Node14 -->
<g id="node14" class="node">
<title>Node14</title>
<g id="a_node14"><a xlink:title=" ">
<polygon fill="#e0e0e0" stroke="#999999" points="1606.5,-30 1485.5,-30 1485.5,0 1606.5,0 1606.5,-30"/>
<text text-anchor="start" x="1493.5" y="-18" font-family="Helvetica,sans-Serif" font-size="10.00">boost/log/utility/setup</text>
<text text-anchor="middle" x="1546" y="-7" font-family="Helvetica,sans-Serif" font-size="10.00">/common_attributes.hpp</text>
</a>
</g>
</g>
<!-- Node7&#45;&gt;Node14 -->
<g id="edge14" class="edge">
<title>Node7&#45;&gt;Node14</title>
<path fill="none" stroke="#63b8ff" d="M1174.56,-70.73C1233.82,-64.1 1358.86,-49.36 1473.98,-30.44"/>
<polygon fill="#63b8ff" stroke="#63b8ff" points="1474.3,-33.93 1483.6,-28.84 1473.16,-27.03 1474.3,-33.93"/>
</g>
<!-- Node15&#45;&gt;Node7 -->
<g id="edge26" class="edge">
<title>Node15&#45;&gt;Node7</title>
<path fill="none" stroke="#63b8ff" d="M1111.18,-291.24C1115.55,-258.63 1130.97,-143.77 1137.28,-96.78"/>
<polygon fill="#63b8ff" stroke="#63b8ff" points="1140.74,-97.32 1138.6,-86.94 1133.8,-96.39 1140.74,-97.32"/>
</g>
<!-- Node16 -->
<g id="node16" class="node">
<title>Node16</title>
<g id="a_node16"><a xlink:href="_dma_buffer_abstract_8hpp.html" target="_top" xlink:title=" ">
<polygon fill="white" stroke="#666666" points="1048.5,-250 931.5,-250 931.5,-231 1048.5,-231 1048.5,-250"/>
<text text-anchor="middle" x="990" y="-238" font-family="Helvetica,sans-Serif" font-size="10.00">DmaBufferAbstract.hpp</text>
</a>
</g>
</g>
<!-- Node15&#45;&gt;Node16 -->
<g id="edge16" class="edge">
<title>Node15&#45;&gt;Node16</title>
<path fill="none" stroke="#63b8ff" d="M1091.77,-291.12C1072.3,-281.62 1041.18,-266.45 1018.47,-255.38"/>
<polygon fill="#63b8ff" stroke="#63b8ff" points="1020.28,-252.37 1009.76,-251.13 1017.21,-258.66 1020.28,-252.37"/>
</g>
<!-- Node16&#45;&gt;Node4 -->
<g id="edge18" class="edge">
<title>Node16&#45;&gt;Node4</title>
<path fill="none" stroke="#63b8ff" d="M1019.69,-230.51C1050.83,-221.08 1099.65,-206.29 1131.99,-196.5"/>
<polygon fill="#63b8ff" stroke="#63b8ff" points="1132.68,-199.95 1141.23,-193.7 1130.65,-193.25 1132.68,-199.95"/>
</g>
<!-- Node16&#45;&gt;Node6 -->
<g id="edge19" class="edge">
<title>Node16&#45;&gt;Node6</title>
<path fill="none" stroke="#63b8ff" d="M991.43,-230.51C994.35,-210.64 1000.22,-161.49 994,-121 992.71,-112.59 990.12,-103.6 987.52,-95.91"/>
<polygon fill="#63b8ff" stroke="#63b8ff" points="990.84,-94.79 984.12,-86.6 984.26,-97.19 990.84,-94.79"/>
</g>
<!-- Node17 -->
<g id="node17" class="node">
<title>Node17</title>
<g id="a_node17"><a xlink:title=" ">
<polygon fill="#e0e0e0" stroke="#999999" points="744,-195 698,-195 698,-176 744,-176 744,-195"/>
<text text-anchor="middle" x="721" y="-183" font-family="Helvetica,sans-Serif" font-size="10.00">cstdint</text>
</a>
</g>
</g>
<!-- Node16&#45;&gt;Node17 -->
<g id="edge17" class="edge">
<title>Node16&#45;&gt;Node17</title>
<path fill="none" stroke="#63b8ff" d="M944.37,-230.51C890.92,-219.98 803.57,-202.77 755.47,-193.29"/>
<polygon fill="#63b8ff" stroke="#63b8ff" points="756.39,-189.9 745.9,-191.41 755.03,-196.77 756.39,-189.9"/>
</g>
<!-- Node18 -->
<g id="node18" class="node">
<title>Node18</title>
<g id="a_node18"><a xlink:href="_uio_config_8hpp.html" target="_top" xlink:title=" ">
<polygon fill="white" stroke="#666666" points="738.5,-85 627.5,-85 627.5,-66 738.5,-66 738.5,-85"/>
<text text-anchor="middle" x="683" y="-73" font-family="Helvetica,sans-Serif" font-size="10.00">udmaio/UioConfig.hpp</text>
</a>
</g>
</g>
<!-- Node16&#45;&gt;Node18 -->
<g id="edge20" class="edge">
<title>Node16&#45;&gt;Node18</title>
<path fill="none" stroke="#63b8ff" d="M973.06,-230.5C922.42,-203.62 771.92,-123.71 710.04,-90.86"/>
<polygon fill="#63b8ff" stroke="#63b8ff" points="711.7,-87.78 701.23,-86.18 708.42,-93.96 711.7,-87.78"/>
</g>
<!-- Node18&#45;&gt;Node3 -->
<g id="edge24" class="edge">
<title>Node18&#45;&gt;Node3</title>
<path fill="none" stroke="#63b8ff" d="M696.82,-65.62C711.12,-56.42 733.7,-41.91 750.75,-30.94"/>
<polygon fill="#63b8ff" stroke="#63b8ff" points="752.26,-34.14 758.78,-25.79 748.47,-28.25 752.26,-34.14"/>
</g>
<!-- Node18&#45;&gt;Node19 -->
<g id="edge21" class="edge">
<title>Node18&#45;&gt;Node19</title>
<path fill="none" stroke="#63b8ff" d="M627.34,-67.15C536.16,-55.11 357.26,-31.48 278.63,-21.1"/>
<polygon fill="#63b8ff" stroke="#63b8ff" points="279.21,-17.65 268.84,-19.81 278.3,-24.59 279.21,-17.65"/>
</g>
<!-- Node20 -->
<g id="node20" class="node">
<title>Node20</title>
<g id="a_node20"><a xlink:title=" ">
<polygon fill="#e0e0e0" stroke="#999999" points="537.5,-24.5 486.5,-24.5 486.5,-5.5 537.5,-5.5 537.5,-24.5"/>
<text text-anchor="middle" x="512" y="-12.5" font-family="Helvetica,sans-Serif" font-size="10.00">memory</text>
</a>
</g>
</g>
<!-- Node18&#45;&gt;Node20 -->
<g id="edge22" class="edge">
<title>Node18&#45;&gt;Node20</title>
<path fill="none" stroke="#63b8ff" d="M657.03,-65.62C628.19,-55.75 581.43,-39.75 548.82,-28.6"/>
<polygon fill="#63b8ff" stroke="#63b8ff" points="549.96,-25.29 539.37,-25.36 547.7,-31.91 549.96,-25.29"/>
</g>
<!-- Node21 -->
<g id="node21" class="node">
<title>Node21</title>
<g id="a_node21"><a xlink:title=" ">
<polygon fill="#e0e0e0" stroke="#999999" points="637.5,-24.5 578.5,-24.5 578.5,-5.5 637.5,-5.5 637.5,-24.5"/>
<text text-anchor="middle" x="608" y="-12.5" font-family="Helvetica,sans-Serif" font-size="10.00">stdexcept</text>
</a>
</g>
</g>
<!-- Node18&#45;&gt;Node21 -->
<g id="edge23" class="edge">
<title>Node18&#45;&gt;Node21</title>
<path fill="none" stroke="#63b8ff" d="M671.61,-65.62C660.16,-56.68 642.25,-42.72 628.35,-31.87"/>
<polygon fill="#63b8ff" stroke="#63b8ff" points="630.73,-29.29 620.69,-25.9 626.42,-34.81 630.73,-29.29"/>
</g>
<!-- Node22 -->
<g id="node22" class="node">
<title>Node22</title>
<g id="a_node22"><a xlink:title=" ">
<polygon fill="#e0e0e0" stroke="#999999" points="722,-24.5 656,-24.5 656,-5.5 722,-5.5 722,-24.5"/>
<text text-anchor="middle" x="689" y="-12.5" font-family="Helvetica,sans-Serif" font-size="10.00">string_view</text>
</a>
</g>
</g>
<!-- Node18&#45;&gt;Node22 -->
<g id="edge25" class="edge">
<title>Node18&#45;&gt;Node22</title>
<path fill="none" stroke="#63b8ff" d="M683.89,-65.87C684.69,-58 685.91,-46.1 686.96,-35.89"/>
<polygon fill="#63b8ff" stroke="#63b8ff" points="690.42,-36.48 687.96,-26.17 683.45,-35.76 690.42,-36.48"/>
</g>
<!-- Node24 -->
<g id="node24" class="node">
<title>Node24</title>
<g id="a_node24"><a xlink:href="_reg_accessor_8hpp.html" target="_top" xlink:title=" ">
<polygon fill="white" stroke="#666666" points="767.5,-250 674.5,-250 674.5,-231 767.5,-231 767.5,-250"/>
<text text-anchor="middle" x="721" y="-238" font-family="Helvetica,sans-Serif" font-size="10.00">RegAccessor.hpp</text>
</a>
</g>
</g>
<!-- Node23&#45;&gt;Node24 -->
<g id="edge28" class="edge">
<title>Node23&#45;&gt;Node24</title>
<path fill="none" stroke="#63b8ff" d="M598.02,-291.12C622.08,-281.41 660.87,-265.76 688.44,-254.64"/>
<polygon fill="#63b8ff" stroke="#63b8ff" points="689.4,-258.02 697.37,-251.03 686.78,-251.53 689.4,-258.02"/>
</g>
<!-- Node25 -->
<g id="node25" class="node">
<title>Node25</title>
<g id="a_node25"><a xlink:href="_uio_if_8hpp.html" target="_top" xlink:title=" ">
<polygon fill="white" stroke="#666666" points="557,-195 467,-195 467,-176 557,-176 557,-195"/>
<text text-anchor="middle" x="512" y="-183" font-family="Helvetica,sans-Serif" font-size="10.00">udmaio/UioIf.hpp</text>
</a>
</g>
</g>
<!-- Node23&#45;&gt;Node25 -->
<g id="edge58" class="edge">
<title>Node23&#45;&gt;Node25</title>
<path fill="none" stroke="#63b8ff" d="M565.62,-291.05C555.44,-281.75 540.15,-266.29 531,-250 523.31,-236.31 518.42,-219.18 515.53,-206.17"/>
<polygon fill="#63b8ff" stroke="#63b8ff" points="519.03,-205.8 513.64,-196.68 512.16,-207.17 519.03,-205.8"/>
</g>
<!-- Node34 -->
<g id="node34" class="node">
<title>Node34</title>
<g id="a_node34"><a xlink:href="_axi_dma_8hpp.html" target="_top" xlink:title=" ">
<polygon fill="white" stroke="#666666" points="656,-250 540,-250 540,-231 656,-231 656,-250"/>
<text text-anchor="middle" x="598" y="-238" font-family="Helvetica,sans-Serif" font-size="10.00">udmaio/rdl/AxiDma.hpp</text>
</a>
</g>
</g>
<!-- Node23&#45;&gt;Node34 -->
<g id="edge59" class="edge">
<title>Node23&#45;&gt;Node34</title>
<path fill="none" stroke="#63b8ff" d="M579.25,-291.37C582.27,-283.33 586.88,-271.07 590.77,-260.72"/>
<polygon fill="#63b8ff" stroke="#63b8ff" points="593.96,-262.18 594.21,-251.58 587.41,-259.71 593.96,-262.18"/>
</g>
<!-- Node24&#45;&gt;Node17 -->
<g id="edge29" class="edge">
<title>Node24&#45;&gt;Node17</title>
<path fill="none" stroke="#63b8ff" d="M721,-230.75C721,-224.27 721,-215.16 721,-206.9"/>
<polygon fill="#63b8ff" stroke="#63b8ff" points="724.5,-206.96 721,-196.96 717.5,-206.96 724.5,-206.96"/>
</g>
<!-- Node24&#45;&gt;Node25 -->
<g id="edge30" class="edge">
<title>Node24&#45;&gt;Node25</title>
<path fill="none" stroke="#63b8ff" d="M685.55,-230.51C650.46,-221.61 596.58,-207.95 558.17,-198.21"/>
<polygon fill="#63b8ff" stroke="#63b8ff" points="559.3,-194.88 548.75,-195.82 557.58,-201.67 559.3,-194.88"/>
</g>
<!-- Node25&#45;&gt;Node3 -->
<g id="edge35" class="edge">
<title>Node25&#45;&gt;Node3</title>
<path fill="none" stroke="#63b8ff" d="M557.36,-178.51C643.72,-166.06 826.45,-134.38 863,-85 868.02,-78.21 867.27,-73.29 863,-66 859.49,-60.01 826.96,-42.63 802.24,-30.05"/>
<polygon fill="#63b8ff" stroke="#63b8ff" points="804.08,-27.06 793.58,-25.67 800.93,-33.3 804.08,-27.06"/>
</g>
<!-- Node25&#45;&gt;Node6 -->
<g id="edge36" class="edge">
<title>Node25&#45;&gt;Node6</title>
<path fill="none" stroke="#63b8ff" d="M557.44,-182.63C621.9,-179.03 743.04,-168.74 842,-140 883.36,-127.99 928.12,-105.46 955.1,-90.72"/>
<polygon fill="#63b8ff" stroke="#63b8ff" points="956.49,-93.95 963.53,-86.04 953.09,-87.83 956.49,-93.95"/>
</g>
<!-- Node25&#45;&gt;Node7 -->
<g id="edge56" class="edge">
<title>Node25&#45;&gt;Node7</title>
<path fill="none" stroke="#63b8ff" d="M557.26,-180.84C627.26,-174.79 765.84,-161.2 882,-140 958.99,-125.95 1047.26,-102.63 1098.03,-88.5"/>
<polygon fill="#63b8ff" stroke="#63b8ff" points="1098.75,-91.94 1107.43,-85.87 1096.86,-85.19 1098.75,-91.94"/>
</g>
<!-- Node25&#45;&gt;Node18 -->
<g id="edge57" class="edge">
<title>Node25&#45;&gt;Node18</title>
<path fill="none" stroke="#63b8ff" d="M532.14,-175.61C550.36,-167.27 577.67,-154.02 600,-140 623.12,-125.48 647.74,-106.09 664.1,-92.58"/>
<polygon fill="#63b8ff" stroke="#63b8ff" points="666.12,-95.45 671.55,-86.35 661.63,-90.08 666.12,-95.45"/>
</g>
<!-- Node25&#45;&gt;Node19 -->
<g id="edge33" class="edge">
<title>Node25&#45;&gt;Node19</title>
<path fill="none" stroke="#63b8ff" d="M466.61,-182.43C381.64,-178.01 202.11,-165.83 146,-140 113.14,-124.87 100.57,-118.11 86,-85 64.78,-36.76 149.43,-22.24 201.63,-17.88"/>
<polygon fill="#63b8ff" stroke="#63b8ff" points="201.64,-21.39 211.35,-17.16 201.12,-14.41 201.64,-21.39"/>
</g>
<!-- Node25&#45;&gt;Node20 -->
<g id="edge34" class="edge">
<title>Node25&#45;&gt;Node20</title>
<path fill="none" stroke="#63b8ff" d="M466.76,-179.59C348.59,-165.88 43.24,-124.34 95,-66 120.06,-37.76 377.51,-22.49 474.93,-17.68"/>
<polygon fill="#63b8ff" stroke="#63b8ff" points="474.92,-21.19 484.74,-17.21 474.58,-14.2 474.92,-21.19"/>
</g>
<!-- Node26 -->
<g id="node26" class="node">
<title>Node26</title>
<g id="a_node26"><a xlink:title=" ">
<polygon fill="#e0e0e0" stroke="#999999" points="316,-85 256,-85 256,-66 316,-66 316,-85"/>
<text text-anchor="middle" x="286" y="-73" font-family="Helvetica,sans-Serif" font-size="10.00">filesystem</text>
</a>
</g>
</g>
<!-- Node25&#45;&gt;Node26 -->
<g id="edge31" class="edge">
<title>Node25&#45;&gt;Node26</title>
<path fill="none" stroke="#63b8ff" d="M487.62,-175.57C465.09,-167.11 430.85,-153.68 402,-140 369.62,-124.65 333.6,-104.41 310.42,-90.95"/>
<polygon fill="#63b8ff" stroke="#63b8ff" points="312.43,-88.08 302.03,-86.05 308.9,-94.12 312.43,-88.08"/>
</g>
<!-- Node27 -->
<g id="node27" class="node">
<title>Node27</title>
<g id="a_node27"><a xlink:title=" ">
<polygon fill="#e0e0e0" stroke="#999999" points="384,-85 334,-85 334,-66 384,-66 384,-85"/>
<text text-anchor="middle" x="359" y="-73" font-family="Helvetica,sans-Serif" font-size="10.00">fstream</text>
</a>
</g>
</g>
<!-- Node25&#45;&gt;Node27 -->
<g id="edge32" class="edge">
<title>Node25&#45;&gt;Node27</title>
<path fill="none" stroke="#63b8ff" d="M491.19,-175.52C473.4,-167.42 447.52,-154.55 427,-140 407.33,-126.05 387.47,-106.78 374.34,-93.13"/>
<polygon fill="#63b8ff" stroke="#63b8ff" points="377.2,-91.06 367.79,-86.19 372.11,-95.86 377.2,-91.06"/>
</g>
<!-- Node28 -->
<g id="node28" class="node">
<title>Node28</title>
<g id="a_node28"><a xlink:title=" ">
<polygon fill="#e0e0e0" stroke="#999999" points="445.5,-85 402.5,-85 402.5,-66 445.5,-66 445.5,-85"/>
<text text-anchor="middle" x="424" y="-73" font-family="Helvetica,sans-Serif" font-size="10.00">fcntl.h</text>
</a>
</g>
</g>
<!-- Node25&#45;&gt;Node28 -->
<g id="edge37" class="edge">
<title>Node25&#45;&gt;Node28</title>
<path fill="none" stroke="#63b8ff" d="M488.53,-175.59C472.55,-168.35 452.15,-156.6 440,-140 430.74,-127.35 426.81,-109.9 425.16,-96.49"/>
<polygon fill="#63b8ff" stroke="#63b8ff" points="428.66,-96.33 424.3,-86.67 421.69,-96.94 428.66,-96.33"/>
</g>
<!-- Node29 -->
<g id="node29" class="node">
<title>Node29</title>
<g id="a_node29"><a xlink:title=" ">
<polygon fill="#e0e0e0" stroke="#999999" points="609.5,-85 540.5,-85 540.5,-66 609.5,-66 609.5,-85"/>
<text text-anchor="middle" x="575" y="-73" font-family="Helvetica,sans-Serif" font-size="10.00">sys/mman.h</text>
</a>
</g>
</g>
<!-- Node25&#45;&gt;Node29 -->
<g id="edge38" class="edge">
<title>Node25&#45;&gt;Node29</title>
<path fill="none" stroke="#63b8ff" d="M538.22,-175.59C554.27,-168.62 573.49,-157.18 583,-140 590.41,-126.6 587.53,-109.23 583.28,-96.04"/>
<polygon fill="#63b8ff" stroke="#63b8ff" points="586.59,-94.88 579.79,-86.76 580.04,-97.35 586.59,-94.88"/>
</g>
<!-- Node30 -->
<g id="node30" class="node">
<title>Node30</title>
<g id="a_node30"><a xlink:title=" ">
<polygon fill="#e0e0e0" stroke="#999999" points="854.5,-85 795.5,-85 795.5,-66 854.5,-66 854.5,-85"/>
<text text-anchor="middle" x="825" y="-73" font-family="Helvetica,sans-Serif" font-size="10.00">sys/stat.h</text>
</a>
</g>
</g>
<!-- Node25&#45;&gt;Node30 -->
<g id="edge39" class="edge">
<title>Node25&#45;&gt;Node30</title>
<path fill="none" stroke="#63b8ff" d="M537.88,-175.57C593.42,-156.4 724.21,-111.28 788.3,-89.16"/>
<polygon fill="#63b8ff" stroke="#63b8ff" points="789.35,-92.5 797.66,-85.93 787.06,-85.89 789.35,-92.5"/>
</g>
<!-- Node31 -->
<g id="node31" class="node">
<title>Node31</title>
<g id="a_node31"><a xlink:title=" ">
<polygon fill="#e0e0e0" stroke="#999999" points="169.5,-85 104.5,-85 104.5,-66 169.5,-66 169.5,-85"/>
<text text-anchor="middle" x="137" y="-73" font-family="Helvetica,sans-Serif" font-size="10.00">sys/types.h</text>
</a>
</g>
</g>
<!-- Node25&#45;&gt;Node31 -->
<g id="edge40" class="edge">
<title>Node25&#45;&gt;Node31</title>
<path fill="none" stroke="#63b8ff" d="M466.77,-175.99C426.38,-168 365.76,-155.04 314,-140 262.8,-125.12 204.88,-103.38 169.66,-89.59"/>
<polygon fill="#63b8ff" stroke="#63b8ff" points="171.06,-86.38 160.47,-85.97 168.49,-92.89 171.06,-86.38"/>
</g>
<!-- Node32 -->
<g id="node32" class="node">
<title>Node32</title>
<g id="a_node32"><a xlink:title=" ">
<polygon fill="#e0e0e0" stroke="#999999" points="238,-85 188,-85 188,-66 238,-66 238,-85"/>
<text text-anchor="middle" x="213" y="-73" font-family="Helvetica,sans-Serif" font-size="10.00">unistd.h</text>
</a>
</g>
</g>
<!-- Node25&#45;&gt;Node32 -->
<g id="edge41" class="edge">
<title>Node25&#45;&gt;Node32</title>
<path fill="none" stroke="#63b8ff" d="M478.22,-175.56C447.8,-167.23 401.99,-154.03 363,-140 320.34,-124.65 272.29,-103.63 242.32,-90.05"/>
<polygon fill="#63b8ff" stroke="#63b8ff" points="244.08,-87 233.52,-86.04 241.17,-93.37 244.08,-87"/>
</g>
<!-- Node33 -->
<g id="node33" class="node">
<title>Node33</title>
<g id="a_node33"><a xlink:href="_hw_accessor_8hpp.html" target="_top" xlink:title=" ">
<polygon fill="white" stroke="#666666" points="574.5,-140 449.5,-140 449.5,-121 574.5,-121 574.5,-140"/>
<text text-anchor="middle" x="512" y="-128" font-family="Helvetica,sans-Serif" font-size="10.00">udmaio/HwAccessor.hpp</text>
</a>
</g>
</g>
<!-- Node25&#45;&gt;Node33 -->
<g id="edge42" class="edge">
<title>Node25&#45;&gt;Node33</title>
<path fill="none" stroke="#63b8ff" d="M512,-175.75C512,-169.27 512,-160.16 512,-151.9"/>
<polygon fill="#63b8ff" stroke="#63b8ff" points="515.5,-151.96 512,-141.96 508.5,-151.96 515.5,-151.96"/>
</g>
<!-- Node33&#45;&gt;Node3 -->
<g id="edge47" class="edge">
<title>Node33&#45;&gt;Node3</title>
<path fill="none" stroke="#63b8ff" d="M574.72,-124.45C635.23,-118.4 721.31,-106.31 747,-85 761.69,-72.82 768.42,-51.58 771.48,-35.88"/>
<polygon fill="#63b8ff" stroke="#63b8ff" points="774.9,-36.67 773,-26.25 767.99,-35.58 774.9,-36.67"/>
</g>
<!-- Node33&#45;&gt;Node6 -->
<g id="edge48" class="edge">
<title>Node33&#45;&gt;Node6</title>
<path fill="none" stroke="#63b8ff" d="M574.63,-122.41C658.67,-112.89 808.01,-95.98 900.07,-85.55"/>
<polygon fill="#63b8ff" stroke="#63b8ff" points="900.23,-89.06 909.78,-84.45 899.45,-82.1 900.23,-89.06"/>
</g>
<!-- Node33&#45;&gt;Node7 -->
<g id="edge54" class="edge">
<title>Node33&#45;&gt;Node7</title>
<path fill="none" stroke="#63b8ff" d="M574.68,-124.84C676.24,-117.19 883.04,-101.2 1058,-85 1069.65,-83.92 1082.22,-82.67 1093.94,-81.45"/>
<polygon fill="#63b8ff" stroke="#63b8ff" points="1094.22,-84.94 1103.8,-80.42 1093.49,-77.98 1094.22,-84.94"/>
</g>
<!-- Node33&#45;&gt;Node18 -->
<g id="edge55" class="edge">
<title>Node33&#45;&gt;Node18</title>
<path fill="none" stroke="#63b8ff" d="M541.01,-120.51C569.1,-111.8 611.91,-98.53 643.19,-88.84"/>
<polygon fill="#63b8ff" stroke="#63b8ff" points="644.17,-92.2 652.69,-85.89 642.1,-85.51 644.17,-92.2"/>
</g>
<!-- Node33&#45;&gt;Node19 -->
<g id="edge45" class="edge">
<title>Node33&#45;&gt;Node19</title>
<path fill="none" stroke="#63b8ff" d="M506.44,-120.55C497.3,-106.62 477.7,-79.89 454,-66 398.55,-33.51 323.42,-22.13 278.51,-18.14"/>
<polygon fill="#63b8ff" stroke="#63b8ff" points="278.99,-14.67 268.74,-17.36 278.43,-21.65 278.99,-14.67"/>
</g>
<!-- Node33&#45;&gt;Node20 -->
<g id="edge46" class="edge">
<title>Node33&#45;&gt;Node20</title>
<path fill="none" stroke="#63b8ff" d="M512,-120.59C512,-102.53 512,-61.17 512,-36.21"/>
<polygon fill="#63b8ff" stroke="#63b8ff" points="515.5,-36.38 512,-26.38 508.5,-36.38 515.5,-36.38"/>
</g>
<!-- Node33&#45;&gt;Node26 -->
<g id="edge43" class="edge">
<title>Node33&#45;&gt;Node26</title>
<path fill="none" stroke="#63b8ff" d="M473.66,-120.51C433.03,-110.98 369.08,-95.98 327.34,-86.19"/>
<polygon fill="#63b8ff" stroke="#63b8ff" points="328.2,-82.8 317.67,-83.93 326.6,-89.62 328.2,-82.8"/>
</g>
<!-- Node33&#45;&gt;Node27 -->
<g id="edge44" class="edge">
<title>Node33&#45;&gt;Node27</title>
<path fill="none" stroke="#63b8ff" d="M486.05,-120.51C460.98,-111.83 422.82,-98.61 394.86,-88.92"/>
<polygon fill="#63b8ff" stroke="#63b8ff" points="396.34,-85.73 385.75,-85.77 394.05,-92.35 396.34,-85.73"/>
</g>
<!-- Node33&#45;&gt;Node28 -->
<g id="edge49" class="edge">
<title>Node33&#45;&gt;Node28</title>
<path fill="none" stroke="#63b8ff" d="M497.07,-120.51C483.72,-112.47 463.89,-100.53 448.26,-91.11"/>
<polygon fill="#63b8ff" stroke="#63b8ff" points="450.38,-88.3 440,-86.14 446.76,-94.3 450.38,-88.3"/>
</g>
<!-- Node33&#45;&gt;Node29 -->
<g id="edge50" class="edge">
<title>Node33&#45;&gt;Node29</title>
<path fill="none" stroke="#63b8ff" d="M522.69,-120.51C531.7,-112.93 544.83,-101.88 555.68,-92.75"/>
<polygon fill="#63b8ff" stroke="#63b8ff" points="557.91,-95.45 563.31,-86.33 553.41,-90.09 557.91,-95.45"/>
</g>
<!-- Node33&#45;&gt;Node30 -->
<g id="edge51" class="edge">
<title>Node33&#45;&gt;Node30</title>
<path fill="none" stroke="#63b8ff" d="M569.01,-120.52C623.52,-111.84 707.96,-98.09 781,-85 782.01,-84.82 783.02,-84.64 784.05,-84.45"/>
<polygon fill="#63b8ff" stroke="#63b8ff" points="784.52,-87.92 793.71,-82.65 783.24,-81.04 784.52,-87.92"/>
</g>
<!-- Node33&#45;&gt;Node31 -->
<g id="edge52" class="edge">
<title>Node33&#45;&gt;Node31</title>
<path fill="none" stroke="#63b8ff" d="M449.21,-122.38C384.55,-114.76 280.61,-101.72 181.14,-85.26"/>
<polygon fill="#63b8ff" stroke="#63b8ff" points="181.91,-81.84 171.47,-83.64 180.76,-88.74 181.91,-81.84"/>
</g>
<!-- Node33&#45;&gt;Node32 -->
<g id="edge53" class="edge">
<title>Node33&#45;&gt;Node32</title>
<path fill="none" stroke="#63b8ff" d="M450.17,-120.52C398.82,-112.75 323.64,-100.64 249.18,-85.32"/>
<polygon fill="#63b8ff" stroke="#63b8ff" points="250.19,-81.95 239.68,-83.34 248.76,-88.81 250.19,-81.95"/>
</g>
<!-- Node34&#45;&gt;Node17 -->
<g id="edge60" class="edge">
<title>Node34&#45;&gt;Node17</title>
<path fill="none" stroke="#63b8ff" d="M618.87,-230.51C638.42,-222.08 667.9,-209.38 690.17,-199.79"/>
<polygon fill="#63b8ff" stroke="#63b8ff" points="691.25,-203.13 699.05,-195.96 688.48,-196.7 691.25,-203.13"/>
</g>
<!-- Node35&#45;&gt;Node16 -->
<g id="edge62" class="edge">
<title>Node35&#45;&gt;Node16</title>
<path fill="none" stroke="#63b8ff" d="M935.72,-291.12C945.31,-282.35 960.19,-268.75 971.94,-258"/>
<polygon fill="#63b8ff" stroke="#63b8ff" points="974.05,-260.82 979.07,-251.49 969.33,-255.65 974.05,-260.82"/>
</g>
<!-- Node35&#45;&gt;Node24 -->
<g id="edge63" class="edge">
<title>Node35&#45;&gt;Node24</title>
<path fill="none" stroke="#63b8ff" d="M894.86,-291.12C859.8,-281.11 802.6,-264.79 763.45,-253.62"/>
<polygon fill="#63b8ff" stroke="#63b8ff" points="764.46,-250.26 753.88,-250.88 762.54,-256.99 764.46,-250.26"/>
</g>
</g>
</svg>
