<?xml version="1.0" encoding="UTF-8" standalone="no"?>
<!DOCTYPE svg PUBLIC "-//W3C//DTD SVG 1.1//EN"
 "http://www.w3.org/Graphics/SVG/1.1/DTD/svg11.dtd">
<!-- Generated by graphviz version 7.0.5 (20221223.1930)
 -->
<!-- Title: DataHandlerAbstract.hpp Pages: 1 -->
<!--zoomable 379 -->
<svg id="main" version="1.1" xmlns="http://www.w3.org/2000/svg" xmlns:xlink="http://www.w3.org/1999/xlink" xml:space="preserve" onload="init(evt)">
<style type="text/css"><![CDATA[
.edge:hover path { stroke: red; }
.edge:hover polygon { stroke: red; fill: red; }
]]></style>
<script type="text/javascript"><![CDATA[
var edges = document.getElementsByTagName('g');
if (edges && edges.length) {
  for (var i=0;i<edges.length;i++) {
    if (edges[i].id.substr(0,4)=='edge') {
      edges[i].setAttribute('class','edge');
    }
  }
}
]]></script>
        <defs>
                <circle id="rim" cx="0" cy="0" r="7"/>
                <circle id="rim2" cx="0" cy="0" r="3.5"/>
                <g id="zoomPlus">
                        <use xlink:href="#rim" fill="#404040">
                                <set attributeName="fill" to="#808080" begin="zoomplus.mouseover" end="zoomplus.mouseout"/>
                        </use>
                        <path d="M-4,0h8M0,-4v8" fill="none" stroke="white" stroke-width="1.5" pointer-events="none"/>
                </g>
                <g id="zoomMin">
                        <use xlink:href="#rim" fill="#404040">
                                <set attributeName="fill" to="#808080" begin="zoomminus.mouseover" end="zoomminus.mouseout"/>
                        </use>
                        <path d="M-4,0h8" fill="none" stroke="white" stroke-width="1.5" pointer-events="none"/>
                </g>
                <g id="dirArrow">
                        <path fill="none" stroke="white" stroke-width="1.5" d="M0,-3.0v7 M-2.5,-0.5L0,-3.0L2.5,-0.5"/>
                </g>
               <g id="resetDef">
                       <use xlink:href="#rim2" fill="#404040">
                               <set attributeName="fill" to="#808080" begin="reset.mouseover" end="reset.mouseout"/>
                       </use>
               </g>
        </defs>

<script type="text/javascript">
var viewWidth = 1964;
var viewHeight = 379;
var sectionId = 'dynsection-0';
</script>
<script xlink:href="svgpan.js"/>
<svg id="graph" class="graph">
<g id="viewport">
<title>DataHandlerAbstract.hpp</title>
<!-- Node1 -->
<g id="node1" class="node">
<title>Node1</title>
<g id="a_node1"><a xlink:title=" ">
<polygon fill="#999999" stroke="#666666" points="1495,-371 1370,-371 1370,-352 1495,-352 1495,-371"/>
<text text-anchor="middle" x="1432.5" y="-359" font-family="Helvetica,sans-Serif" font-size="10.00">DataHandlerAbstract.hpp</text>
</a>
</g>
</g>
<!-- Node2 -->
<g id="node2" class="node">
<title>Node2</title>
<g id="a_node2"><a xlink:title=" ">
<polygon fill="#e0e0e0" stroke="#999999" points="968,-24.5 927,-24.5 927,-5.5 968,-5.5 968,-24.5"/>
<text text-anchor="middle" x="947.5" y="-12.5" font-family="Helvetica,sans-Serif" font-size="10.00">string</text>
</a>
</g>
</g>
<!-- Node1&#45;&gt;Node2 -->
<g id="edge1" class="edge">
<title>Node1&#45;&gt;Node2</title>
<path fill="none" stroke="#63b8ff" d="M1369.8,-357.83C1256.89,-352.48 1028.43,-338.94 1000.5,-316 917.5,-247.83 945.45,-191.22 929.5,-85 928.25,-76.65 928.05,-74.32 929.5,-66 931.31,-55.64 935.08,-44.58 938.7,-35.51"/>
<polygon fill="#63b8ff" stroke="#63b8ff" points="941.91,-36.92 942.61,-26.35 935.47,-34.17 941.91,-36.92"/>
</g>
<!-- Node3 -->
<g id="node3" class="node">
<title>Node3</title>
<g id="a_node3"><a xlink:title=" ">
<polygon fill="#e0e0e0" stroke="#999999" points="1681.5,-195 1637.5,-195 1637.5,-176 1681.5,-176 1681.5,-195"/>
<text text-anchor="middle" x="1659.5" y="-183" font-family="Helvetica,sans-Serif" font-size="10.00">vector</text>
</a>
</g>
</g>
<!-- Node1&#45;&gt;Node3 -->
<g id="edge2" class="edge">
<title>Node1&#45;&gt;Node3</title>
<path fill="none" stroke="#63b8ff" d="M1444.07,-351.63C1480.42,-323.77 1592.69,-237.71 1639.1,-202.14"/>
<polygon fill="#63b8ff" stroke="#63b8ff" points="1640.95,-205.13 1646.75,-196.27 1636.69,-199.58 1640.95,-205.13"/>
</g>
<!-- Node4 -->
<g id="node4" class="node">
<title>Node4</title>
<g id="a_node4"><a xlink:title=" ">
<polygon fill="#e0e0e0" stroke="#999999" points="1817.5,-310.5 1737.5,-310.5 1737.5,-291.5 1817.5,-291.5 1817.5,-310.5"/>
<text text-anchor="middle" x="1777.5" y="-298.5" font-family="Helvetica,sans-Serif" font-size="10.00">boost/asio.hpp</text>
</a>
</g>
</g>
<!-- Node1&#45;&gt;Node4 -->
<g id="edge3" class="edge">
<title>Node1&#45;&gt;Node4</title>
<path fill="none" stroke="#63b8ff" d="M1495.27,-352.78C1554.43,-345.06 1645.4,-332.05 1723.5,-316 1726.9,-315.3 1730.41,-314.52 1733.92,-313.7"/>
<polygon fill="#63b8ff" stroke="#63b8ff" points="1734.72,-317.11 1743.6,-311.34 1733.06,-310.31 1734.72,-317.11"/>
</g>
<!-- Node5 -->
<g id="node5" class="node">
<title>Node5</title>
<g id="a_node5"><a xlink:title=" ">
<polygon fill="#e0e0e0" stroke="#999999" points="1902,-85 1765,-85 1765,-66 1902,-66 1902,-85"/>
<text text-anchor="middle" x="1833.5" y="-73" font-family="Helvetica,sans-Serif" font-size="10.00">boost/core/noncopyable.hpp</text>
</a>
</g>
</g>
<!-- Node1&#45;&gt;Node5 -->
<g id="edge4" class="edge">
<title>Node1&#45;&gt;Node5</title>
<path fill="none" stroke="#63b8ff" d="M1495.36,-359.96C1577.08,-355.56 1709.5,-334.14 1709.5,-241.5 1709.5,-241.5 1709.5,-241.5 1709.5,-184.5 1709.5,-137.34 1761.13,-106.07 1797.76,-89.82"/>
<polygon fill="#63b8ff" stroke="#63b8ff" points="1798.87,-93.16 1806.71,-86.04 1796.14,-86.71 1798.87,-93.16"/>
</g>
<!-- Node6 -->
<g id="node6" class="node">
<title>Node6</title>
<g id="a_node6"><a xlink:href="_logging_8hpp.html" target="_top" xlink:title=" ">
<polygon fill="white" stroke="#666666" points="774,-85 705,-85 705,-66 774,-66 774,-85"/>
<text text-anchor="middle" x="739.5" y="-73" font-family="Helvetica,sans-Serif" font-size="10.00">Logging.hpp</text>
</a>
</g>
</g>
<!-- Node1&#45;&gt;Node6 -->
<g id="edge5" class="edge">
<title>Node1&#45;&gt;Node6</title>
<path fill="none" stroke="#63b8ff" d="M1369.6,-358.84C1222.92,-354.57 867.03,-341.66 819.5,-316 782.82,-296.19 762.5,-283.19 762.5,-241.5 762.5,-241.5 762.5,-241.5 762.5,-184.5 762.5,-153.09 753.08,-117.65 746.3,-96.2"/>
<polygon fill="#63b8ff" stroke="#63b8ff" points="749.64,-95.16 743.17,-86.76 742.99,-97.36 749.64,-95.16"/>
</g>
<!-- Node14 -->
<g id="node14" class="node">
<title>Node14</title>
<g id="a_node14"><a xlink:href="_u_dma_buf_8hpp.html" target="_top" xlink:title=" ">
<polygon fill="white" stroke="#666666" points="1087,-310.5 1010,-310.5 1010,-291.5 1087,-291.5 1087,-310.5"/>
<text text-anchor="middle" x="1048.5" y="-298.5" font-family="Helvetica,sans-Serif" font-size="10.00">UDmaBuf.hpp</text>
</a>
</g>
</g>
<!-- Node1&#45;&gt;Node14 -->
<g id="edge14" class="edge">
<title>Node1&#45;&gt;Node14</title>
<path fill="none" stroke="#63b8ff" d="M1373.76,-351.55C1298.53,-340.09 1169.44,-320.43 1098.62,-309.64"/>
<polygon fill="#63b8ff" stroke="#63b8ff" points="1099.27,-306.19 1088.85,-308.15 1098.21,-313.11 1099.27,-306.19"/>
</g>
<!-- Node22 -->
<g id="node22" class="node">
<title>Node22</title>
<g id="a_node22"><a xlink:href="_uio_axi_dma_if_8hpp.html" target="_top" xlink:title=" ">
<polygon fill="white" stroke="#666666" points="1477,-310.5 1388,-310.5 1388,-291.5 1477,-291.5 1477,-310.5"/>
<text text-anchor="middle" x="1432.5" y="-298.5" font-family="Helvetica,sans-Serif" font-size="10.00">UioAxiDmaIf.hpp</text>
</a>
</g>
</g>
<!-- Node1&#45;&gt;Node22 -->
<g id="edge27" class="edge">
<title>Node1&#45;&gt;Node22</title>
<path fill="none" stroke="#63b8ff" d="M1432.5,-351.87C1432.5,-344 1432.5,-332.1 1432.5,-321.89"/>
<polygon fill="#63b8ff" stroke="#63b8ff" points="1436,-322.18 1432.5,-312.18 1429,-322.18 1436,-322.18"/>
</g>
<!-- Node34 -->
<g id="node34" class="node">
<title>Node34</title>
<g id="a_node34"><a xlink:href="_uio_mem_sgdma_8hpp.html" target="_top" xlink:title=" ">
<polygon fill="white" stroke="#666666" points="1360.5,-310.5 1258.5,-310.5 1258.5,-291.5 1360.5,-291.5 1360.5,-310.5"/>
<text text-anchor="middle" x="1309.5" y="-298.5" font-family="Helvetica,sans-Serif" font-size="10.00">UioMemSgdma.hpp</text>
</a>
</g>
</g>
<!-- Node1&#45;&gt;Node34 -->
<g id="edge61" class="edge">
<title>Node1&#45;&gt;Node34</title>
<path fill="none" stroke="#63b8ff" d="M1413.82,-351.62C1393.86,-342.12 1361.96,-326.95 1338.68,-315.88"/>
<polygon fill="#63b8ff" stroke="#63b8ff" points="1340.26,-312.75 1329.72,-311.62 1337.25,-319.07 1340.26,-312.75"/>
</g>
<!-- Node35 -->
<g id="node35" class="node">
<title>Node35</title>
<g id="a_node35"><a xlink:title=" ">
<polygon fill="#e0e0e0" stroke="#999999" points="1955.5,-316 1835.5,-316 1835.5,-286 1955.5,-286 1955.5,-316"/>
<text text-anchor="start" x="1843.5" y="-304" font-family="Helvetica,sans-Serif" font-size="10.00">boost/asio/posix/stream</text>
<text text-anchor="middle" x="1895.5" y="-293" font-family="Helvetica,sans-Serif" font-size="10.00">_descriptor.hpp</text>
</a>
</g>
</g>
<!-- Node1&#45;&gt;Node35 -->
<g id="edge64" class="edge">
<title>Node1&#45;&gt;Node35</title>
<path fill="none" stroke="#63b8ff" d="M1495.17,-355.13C1570.81,-348.27 1702.08,-335.15 1824.31,-316.26"/>
<polygon fill="#63b8ff" stroke="#63b8ff" points="1824.51,-319.77 1833.85,-314.76 1823.43,-312.85 1824.51,-319.77"/>
</g>
<!-- Node6&#45;&gt;Node2 -->
<g id="edge6" class="edge">
<title>Node6&#45;&gt;Node2</title>
<path fill="none" stroke="#63b8ff" d="M774.2,-67.88C810.5,-60.49 868.86,-47.25 917.5,-30 918.14,-29.77 918.79,-29.53 919.44,-29.29"/>
<polygon fill="#63b8ff" stroke="#63b8ff" points="920.71,-32.55 928.57,-25.45 918,-26.1 920.71,-32.55"/>
</g>
<!-- Node7 -->
<g id="node7" class="node">
<title>Node7</title>
<g id="a_node7"><a xlink:title=" ">
<polygon fill="#e0e0e0" stroke="#999999" points="908.5,-24.5 812.5,-24.5 812.5,-5.5 908.5,-5.5 908.5,-24.5"/>
<text text-anchor="middle" x="860.5" y="-12.5" font-family="Helvetica,sans-Serif" font-size="10.00">boost/log/core.hpp</text>
</a>
</g>
</g>
<!-- Node6&#45;&gt;Node7 -->
<g id="edge7" class="edge">
<title>Node6&#45;&gt;Node7</title>
<path fill="none" stroke="#63b8ff" d="M757.88,-65.62C777.51,-56.12 808.89,-40.95 831.79,-29.88"/>
<polygon fill="#63b8ff" stroke="#63b8ff" points="833.11,-33.13 840.59,-25.63 830.06,-26.83 833.11,-33.13"/>
</g>
<!-- Node8 -->
<g id="node8" class="node">
<title>Node8</title>
<g id="a_node8"><a xlink:title=" ">
<polygon fill="#e0e0e0" stroke="#999999" points="129,-24.5 0,-24.5 0,-5.5 129,-5.5 129,-24.5"/>
<text text-anchor="middle" x="64.5" y="-12.5" font-family="Helvetica,sans-Serif" font-size="10.00">boost/log/expressions.hpp</text>
</a>
</g>
</g>
<!-- Node6&#45;&gt;Node8 -->
<g id="edge8" class="edge">
<title>Node6&#45;&gt;Node8</title>
<path fill="none" stroke="#63b8ff" d="M704.74,-73.34C612.17,-69.94 352.04,-58.4 137.5,-30 131.11,-29.15 124.43,-28.1 117.82,-26.96"/>
<polygon fill="#63b8ff" stroke="#63b8ff" points="118.78,-23.58 108.32,-25.25 117.53,-30.47 118.78,-23.58"/>
</g>
<!-- Node9 -->
<g id="node9" class="node">
<title>Node9</title>
<g id="a_node9"><a xlink:title=" ">
<polygon fill="#e0e0e0" stroke="#999999" points="248,-24.5 147,-24.5 147,-5.5 248,-5.5 248,-24.5"/>
<text text-anchor="middle" x="197.5" y="-12.5" font-family="Helvetica,sans-Serif" font-size="10.00">boost/log/trivial.hpp</text>
</a>
</g>
</g>
<!-- Node6&#45;&gt;Node9 -->
<g id="edge9" class="edge">
<title>Node6&#45;&gt;Node9</title>
<path fill="none" stroke="#63b8ff" d="M704.73,-72.98C625.02,-69.14 423.12,-57.3 256.5,-30 251.94,-29.25 247.21,-28.35 242.51,-27.37"/>
<polygon fill="#63b8ff" stroke="#63b8ff" points="243.65,-24.04 233.13,-25.29 242.14,-30.87 243.65,-24.04"/>
</g>
<!-- Node10 -->
<g id="node10" class="node">
<title>Node10</title>
<g id="a_node10"><a xlink:title=" ">
<polygon fill="#e0e0e0" stroke="#999999" points="375,-30 266,-30 266,0 375,0 375,-30"/>
<text text-anchor="start" x="274" y="-18" font-family="Helvetica,sans-Serif" font-size="10.00">boost/log/utility/setup</text>
<text text-anchor="middle" x="320.5" y="-7" font-family="Helvetica,sans-Serif" font-size="10.00">/console.hpp</text>
</a>
</g>
</g>
<!-- Node6&#45;&gt;Node10 -->
<g id="edge10" class="edge">
<title>Node6&#45;&gt;Node10</title>
<path fill="none" stroke="#63b8ff" d="M704.72,-71.25C642.7,-65.23 508.72,-51.14 386.45,-30.42"/>
<polygon fill="#63b8ff" stroke="#63b8ff" points="387.35,-27.02 376.91,-28.78 386.17,-33.92 387.35,-27.02"/>
</g>
<!-- Node11 -->
<g id="node11" class="node">
<title>Node11</title>
<g id="a_node11"><a xlink:title=" ">
<polygon fill="#e0e0e0" stroke="#999999" points="524,-30 393,-30 393,0 524,0 524,-30"/>
<text text-anchor="start" x="401" y="-18" font-family="Helvetica,sans-Serif" font-size="10.00">boost/log/sources/severity</text>
<text text-anchor="middle" x="458.5" y="-7" font-family="Helvetica,sans-Serif" font-size="10.00">_channel_logger.hpp</text>
</a>
</g>
</g>
<!-- Node6&#45;&gt;Node11 -->
<g id="edge11" class="edge">
<title>Node6&#45;&gt;Node11</title>
<path fill="none" stroke="#63b8ff" d="M704.76,-67.27C662.79,-58.53 590.94,-43.57 535.65,-32.06"/>
<polygon fill="#63b8ff" stroke="#63b8ff" points="536.46,-28.65 525.95,-30.04 535.03,-35.51 536.46,-28.65"/>
</g>
<!-- Node12 -->
<g id="node12" class="node">
<title>Node12</title>
<g id="a_node12"><a xlink:title=" ">
<polygon fill="#e0e0e0" stroke="#999999" points="655,-30 542,-30 542,0 655,0 655,-30"/>
<text text-anchor="start" x="550" y="-18" font-family="Helvetica,sans-Serif" font-size="10.00">boost/log/support/date</text>
<text text-anchor="middle" x="598.5" y="-7" font-family="Helvetica,sans-Serif" font-size="10.00">_time.hpp</text>
</a>
</g>
</g>
<!-- Node6&#45;&gt;Node12 -->
<g id="edge12" class="edge">
<title>Node6&#45;&gt;Node12</title>
<path fill="none" stroke="#63b8ff" d="M718.09,-65.62C698.4,-57.45 668.58,-45.08 643.65,-34.73"/>
<polygon fill="#63b8ff" stroke="#63b8ff" points="645.28,-31.62 634.7,-31.02 642.6,-38.08 645.28,-31.62"/>
</g>
<!-- Node13 -->
<g id="node13" class="node">
<title>Node13</title>
<g id="a_node13"><a xlink:title=" ">
<polygon fill="#e0e0e0" stroke="#999999" points="794,-30 673,-30 673,0 794,0 794,-30"/>
<text text-anchor="start" x="681" y="-18" font-family="Helvetica,sans-Serif" font-size="10.00">boost/log/utility/setup</text>
<text text-anchor="middle" x="733.5" y="-7" font-family="Helvetica,sans-Serif" font-size="10.00">/common_attributes.hpp</text>
</a>
</g>
</g>
<!-- Node6&#45;&gt;Node13 -->
<g id="edge13" class="edge">
<title>Node6&#45;&gt;Node13</title>
<path fill="none" stroke="#63b8ff" d="M738.61,-65.87C737.95,-59.4 737.01,-50.2 736.11,-41.45"/>
<polygon fill="#63b8ff" stroke="#63b8ff" points="739.6,-41.21 735.1,-31.62 732.64,-41.93 739.6,-41.21"/>
</g>
<!-- Node14&#45;&gt;Node6 -->
<g id="edge25" class="edge">
<title>Node14&#45;&gt;Node6</title>
<path fill="none" stroke="#63b8ff" d="M1036.39,-291.24C989.67,-257.45 820.82,-135.32 760.83,-91.93"/>
<polygon fill="#63b8ff" stroke="#63b8ff" points="763.25,-89.36 753.09,-86.33 759.14,-95.03 763.25,-89.36"/>
</g>
<!-- Node15 -->
<g id="node15" class="node">
<title>Node15</title>
<g id="a_node15"><a xlink:href="_dma_buffer_abstract_8hpp.html" target="_top" xlink:title=" ">
<polygon fill="white" stroke="#666666" points="1245,-250 1128,-250 1128,-231 1245,-231 1245,-250"/>
<text text-anchor="middle" x="1186.5" y="-238" font-family="Helvetica,sans-Serif" font-size="10.00">DmaBufferAbstract.hpp</text>
</a>
</g>
</g>
<!-- Node14&#45;&gt;Node15 -->
<g id="edge15" class="edge">
<title>Node14&#45;&gt;Node15</title>
<path fill="none" stroke="#63b8ff" d="M1069.46,-291.12C1092.15,-281.49 1128.62,-266.04 1154.81,-254.93"/>
<polygon fill="#63b8ff" stroke="#63b8ff" points="1156.11,-258.18 1163.95,-251.06 1153.38,-251.74 1156.11,-258.18"/>
</g>
<!-- Node17 -->
<g id="node17" class="node">
<title>Node17</title>
<g id="a_node17"><a xlink:href="_uio_config_8hpp.html" target="_top" xlink:title=" ">
<polygon fill="white" stroke="#666666" points="1071,-85 960,-85 960,-66 1071,-66 1071,-85"/>
<text text-anchor="middle" x="1015.5" y="-73" font-family="Helvetica,sans-Serif" font-size="10.00">udmaio/UioConfig.hpp</text>
</a>
</g>
</g>
<!-- Node14&#45;&gt;Node17 -->
<g id="edge26" class="edge">
<title>Node14&#45;&gt;Node17</title>
<path fill="none" stroke="#63b8ff" d="M1047.21,-291.24C1042.39,-258.63 1025.43,-143.77 1018.49,-96.78"/>
<polygon fill="#63b8ff" stroke="#63b8ff" points="1021.96,-96.32 1017.04,-86.94 1015.04,-97.35 1021.96,-96.32"/>
</g>
<!-- Node15&#45;&gt;Node3 -->
<g id="edge17" class="edge">
<title>Node15&#45;&gt;Node3</title>
<path fill="none" stroke="#63b8ff" d="M1245.31,-231.94C1248.08,-231.62 1250.82,-231.3 1253.5,-231 1417.69,-212.6 1460.51,-222.04 1623.5,-195 1624.33,-194.86 1625.17,-194.72 1626.02,-194.56"/>
<polygon fill="#63b8ff" stroke="#63b8ff" points="1626.56,-198.03 1635.64,-192.58 1625.14,-191.17 1626.56,-198.03"/>
</g>
<!-- Node15&#45;&gt;Node5 -->
<g id="edge18" class="edge">
<title>Node15&#45;&gt;Node5</title>
<path fill="none" stroke="#63b8ff" d="M1232.5,-230.54C1277.05,-221.78 1346.5,-207.91 1406.5,-195 1513.91,-171.89 1542.56,-172.53 1647.5,-140 1669.41,-133.21 1673.9,-128.75 1695.5,-121 1727.99,-109.35 1765.26,-97.41 1792.87,-88.84"/>
<polygon fill="#63b8ff" stroke="#63b8ff" points="1793.73,-92.24 1802.25,-85.94 1791.67,-85.55 1793.73,-92.24"/>
</g>
<!-- Node16 -->
<g id="node16" class="node">
<title>Node16</title>
<g id="a_node16"><a xlink:title=" ">
<polygon fill="#e0e0e0" stroke="#999999" points="1289.5,-195 1243.5,-195 1243.5,-176 1289.5,-176 1289.5,-195"/>
<text text-anchor="middle" x="1266.5" y="-183" font-family="Helvetica,sans-Serif" font-size="10.00">cstdint</text>
</a>
</g>
</g>
<!-- Node15&#45;&gt;Node16 -->
<g id="edge16" class="edge">
<title>Node15&#45;&gt;Node16</title>
<path fill="none" stroke="#63b8ff" d="M1200.07,-230.51C1211.98,-222.62 1229.55,-210.98 1243.63,-201.65"/>
<polygon fill="#63b8ff" stroke="#63b8ff" points="1245.46,-204.63 1251.87,-196.19 1241.6,-198.8 1245.46,-204.63"/>
</g>
<!-- Node15&#45;&gt;Node17 -->
<g id="edge19" class="edge">
<title>Node15&#45;&gt;Node17</title>
<path fill="none" stroke="#63b8ff" d="M1171.19,-230.62C1144.97,-214.87 1090.79,-179.92 1054.5,-140 1042.26,-126.54 1031.7,-108.7 1024.67,-95.36"/>
<polygon fill="#63b8ff" stroke="#63b8ff" points="1027.95,-94.1 1020.31,-86.76 1021.71,-97.26 1027.95,-94.1"/>
</g>
<!-- Node17&#45;&gt;Node2 -->
<g id="edge23" class="edge">
<title>Node17&#45;&gt;Node2</title>
<path fill="none" stroke="#63b8ff" d="M1005.17,-65.62C994.89,-56.77 978.87,-42.98 966.32,-32.19"/>
<polygon fill="#63b8ff" stroke="#63b8ff" points="968.94,-29.82 959.07,-25.96 964.37,-35.13 968.94,-29.82"/>
</g>
<!-- Node18 -->
<g id="node18" class="node">
<title>Node18</title>
<g id="a_node18"><a xlink:title=" ">
<polygon fill="#e0e0e0" stroke="#999999" points="1416.5,-24.5 1362.5,-24.5 1362.5,-5.5 1416.5,-5.5 1416.5,-24.5"/>
<text text-anchor="middle" x="1389.5" y="-12.5" font-family="Helvetica,sans-Serif" font-size="10.00">iostream</text>
</a>
</g>
</g>
<!-- Node17&#45;&gt;Node18 -->
<g id="edge20" class="edge">
<title>Node17&#45;&gt;Node18</title>
<path fill="none" stroke="#63b8ff" d="M1071.49,-65.74C1148.39,-53.71 1284.67,-32.4 1351.04,-22.02"/>
<polygon fill="#63b8ff" stroke="#63b8ff" points="1351.37,-25.51 1360.71,-20.5 1350.29,-18.59 1351.37,-25.51"/>
</g>
<!-- Node19 -->
<g id="node19" class="node">
<title>Node19</title>
<g id="a_node19"><a xlink:title=" ">
<polygon fill="#e0e0e0" stroke="#999999" points="1199,-24.5 1148,-24.5 1148,-5.5 1199,-5.5 1199,-24.5"/>
<text text-anchor="middle" x="1173.5" y="-12.5" font-family="Helvetica,sans-Serif" font-size="10.00">memory</text>
</a>
</g>
</g>
<!-- Node17&#45;&gt;Node19 -->
<g id="edge21" class="edge">
<title>Node17&#45;&gt;Node19</title>
<path fill="none" stroke="#63b8ff" d="M1041.03,-65.54C1065.97,-56.73 1104.97,-42.77 1138.5,-30 1139.28,-29.7 1140.07,-29.4 1140.86,-29.1"/>
<polygon fill="#63b8ff" stroke="#63b8ff" points="1141.88,-32.46 1149.92,-25.55 1139.33,-25.94 1141.88,-32.46"/>
</g>
<!-- Node20 -->
<g id="node20" class="node">
<title>Node20</title>
<g id="a_node20"><a xlink:title=" ">
<polygon fill="#e0e0e0" stroke="#999999" points="1045,-24.5 986,-24.5 986,-5.5 1045,-5.5 1045,-24.5"/>
<text text-anchor="middle" x="1015.5" y="-12.5" font-family="Helvetica,sans-Serif" font-size="10.00">stdexcept</text>
</a>
</g>
</g>
<!-- Node17&#45;&gt;Node20 -->
<g id="edge22" class="edge">
<title>Node17&#45;&gt;Node20</title>
<path fill="none" stroke="#63b8ff" d="M1015.5,-65.87C1015.5,-58 1015.5,-46.1 1015.5,-35.89"/>
<polygon fill="#63b8ff" stroke="#63b8ff" points="1019,-36.18 1015.5,-26.18 1012,-36.18 1019,-36.18"/>
</g>
<!-- Node21 -->
<g id="node21" class="node">
<title>Node21</title>
<g id="a_node21"><a xlink:title=" ">
<polygon fill="#e0e0e0" stroke="#999999" points="1129.5,-24.5 1063.5,-24.5 1063.5,-5.5 1129.5,-5.5 1129.5,-24.5"/>
<text text-anchor="middle" x="1096.5" y="-12.5" font-family="Helvetica,sans-Serif" font-size="10.00">string_view</text>
</a>
</g>
</g>
<!-- Node17&#45;&gt;Node21 -->
<g id="edge24" class="edge">
<title>Node17&#45;&gt;Node21</title>
<path fill="none" stroke="#63b8ff" d="M1027.8,-65.62C1040.29,-56.6 1059.88,-42.45 1074.95,-31.56"/>
<polygon fill="#63b8ff" stroke="#63b8ff" points="1076.8,-34.55 1082.86,-25.85 1072.7,-28.87 1076.8,-34.55"/>
</g>
<!-- Node23 -->
<g id="node23" class="node">
<title>Node23</title>
<g id="a_node23"><a xlink:href="_reg_accessor_8hpp.html" target="_top" xlink:title=" ">
<polygon fill="white" stroke="#666666" points="1356,-250 1263,-250 1263,-231 1356,-231 1356,-250"/>
<text text-anchor="middle" x="1309.5" y="-238" font-family="Helvetica,sans-Serif" font-size="10.00">RegAccessor.hpp</text>
</a>
</g>
</g>
<!-- Node22&#45;&gt;Node23 -->
<g id="edge28" class="edge">
<title>Node22&#45;&gt;Node23</title>
<path fill="none" stroke="#63b8ff" d="M1413.82,-291.12C1393.86,-281.62 1361.96,-266.45 1338.68,-255.38"/>
<polygon fill="#63b8ff" stroke="#63b8ff" points="1340.26,-252.25 1329.72,-251.12 1337.25,-258.57 1340.26,-252.25"/>
</g>
<!-- Node24 -->
<g id="node24" class="node">
<title>Node24</title>
<g id="a_node24"><a xlink:href="_uio_if_8hpp.html" target="_top" xlink:title=" ">
<polygon fill="white" stroke="#666666" points="1397.5,-195 1307.5,-195 1307.5,-176 1397.5,-176 1397.5,-195"/>
<text text-anchor="middle" x="1352.5" y="-183" font-family="Helvetica,sans-Serif" font-size="10.00">udmaio/UioIf.hpp</text>
</a>
</g>
</g>
<!-- Node22&#45;&gt;Node24 -->
<g id="edge58" class="edge">
<title>Node22&#45;&gt;Node24</title>
<path fill="none" stroke="#63b8ff" d="M1452.74,-291.12C1478.34,-278.63 1517.11,-254.73 1499.5,-231 1478.75,-203.03 1440.91,-192.02 1408.82,-187.94"/>
<polygon fill="#63b8ff" stroke="#63b8ff" points="1409.57,-184.5 1399.25,-186.93 1408.83,-191.46 1409.57,-184.5"/>
</g>
<!-- Node33 -->
<g id="node33" class="node">
<title>Node33</title>
<g id="a_node33"><a xlink:href="_axi_dma_8hpp.html" target="_top" xlink:title=" ">
<polygon fill="white" stroke="#666666" points="1490.5,-250 1374.5,-250 1374.5,-231 1490.5,-231 1490.5,-250"/>
<text text-anchor="middle" x="1432.5" y="-238" font-family="Helvetica,sans-Serif" font-size="10.00">udmaio/rdl/AxiDma.hpp</text>
</a>
</g>
</g>
<!-- Node22&#45;&gt;Node33 -->
<g id="edge59" class="edge">
<title>Node22&#45;&gt;Node33</title>
<path fill="none" stroke="#63b8ff" d="M1432.5,-291.37C1432.5,-283.5 1432.5,-271.6 1432.5,-261.39"/>
<polygon fill="#63b8ff" stroke="#63b8ff" points="1436,-261.68 1432.5,-251.68 1429,-261.68 1436,-261.68"/>
</g>
<!-- Node23&#45;&gt;Node16 -->
<g id="edge29" class="edge">
<title>Node23&#45;&gt;Node16</title>
<path fill="none" stroke="#63b8ff" d="M1302.4,-230.75C1296.58,-223.58 1288.17,-213.2 1280.94,-204.3"/>
<polygon fill="#63b8ff" stroke="#63b8ff" points="1283.73,-202.18 1274.71,-196.62 1278.29,-206.59 1283.73,-202.18"/>
</g>
<!-- Node23&#45;&gt;Node24 -->
<g id="edge30" class="edge">
<title>Node23&#45;&gt;Node24</title>
<path fill="none" stroke="#63b8ff" d="M1316.6,-230.75C1322.42,-223.58 1330.83,-213.2 1338.06,-204.3"/>
<polygon fill="#63b8ff" stroke="#63b8ff" points="1340.71,-206.59 1344.29,-196.62 1335.27,-202.18 1340.71,-206.59"/>
</g>
<!-- Node24&#45;&gt;Node2 -->
<g id="edge35" class="edge">
<title>Node24&#45;&gt;Node2</title>
<path fill="none" stroke="#63b8ff" d="M1307.13,-177.33C1304.21,-176.87 1301.31,-176.43 1298.5,-176 1190.13,-159.48 1159.4,-171.83 1054.5,-140 999.9,-123.43 969,-133.22 938.5,-85 929.12,-70.18 933.28,-49.97 938.63,-35.26"/>
<polygon fill="#63b8ff" stroke="#63b8ff" points="941.77,-36.82 942.37,-26.24 935.3,-34.14 941.77,-36.82"/>
</g>
<!-- Node24&#45;&gt;Node5 -->
<g id="edge36" class="edge">
<title>Node24&#45;&gt;Node5</title>
<path fill="none" stroke="#63b8ff" d="M1397.69,-179.53C1449.52,-173.17 1536.7,-160.47 1609.5,-140 1631.59,-133.79 1635.67,-128.05 1657.5,-121 1698.37,-107.81 1745.59,-96.05 1780.82,-87.94"/>
<polygon fill="#63b8ff" stroke="#63b8ff" points="1781.37,-91.41 1790.34,-85.77 1779.82,-84.58 1781.37,-91.41"/>
</g>
<!-- Node24&#45;&gt;Node6 -->
<g id="edge56" class="edge">
<title>Node24&#45;&gt;Node6</title>
<path fill="none" stroke="#63b8ff" d="M1307.15,-177.2C1304.22,-176.78 1301.32,-176.38 1298.5,-176 1153.58,-156.63 1115.12,-167.38 971.5,-140 902.11,-126.77 823.12,-103.3 777.52,-88.9"/>
<polygon fill="#63b8ff" stroke="#63b8ff" points="778.7,-85.6 768.11,-85.9 776.58,-92.27 778.7,-85.6"/>
</g>
<!-- Node24&#45;&gt;Node17 -->
<g id="edge57" class="edge">
<title>Node24&#45;&gt;Node17</title>
<path fill="none" stroke="#63b8ff" d="M1307.04,-177.26C1232.14,-165.28 1090.47,-142.41 1085.5,-140 1062.97,-129.09 1042.43,-108.63 1029.51,-93.88"/>
<polygon fill="#63b8ff" stroke="#63b8ff" points="1032.27,-91.72 1023.15,-86.32 1026.91,-96.23 1032.27,-91.72"/>
</g>
<!-- Node24&#45;&gt;Node18 -->
<g id="edge33" class="edge">
<title>Node24&#45;&gt;Node18</title>
<path fill="none" stroke="#63b8ff" d="M1394.15,-175.51C1432.39,-167.04 1490.51,-153.66 1540.5,-140 1550.43,-137.28 1711.39,-93.29 1717.5,-85 1722.51,-78.2 1723,-72.41 1717.5,-66 1680.59,-23.04 1506.83,-16.58 1428.26,-15.89"/>
<polygon fill="#63b8ff" stroke="#63b8ff" points="1428.47,-12.39 1418.45,-15.83 1428.43,-19.39 1428.47,-12.39"/>
</g>
<!-- Node24&#45;&gt;Node19 -->
<g id="edge34" class="edge">
<title>Node24&#45;&gt;Node19</title>
<path fill="none" stroke="#63b8ff" d="M1319.04,-175.54C1259.61,-158.84 1139.88,-121.34 1118.5,-85 1106.74,-65.01 1128.13,-44.53 1147.57,-31.13"/>
<polygon fill="#63b8ff" stroke="#63b8ff" points="1149.32,-34.17 1155.82,-25.8 1145.52,-28.29 1149.32,-34.17"/>
</g>
<!-- Node25 -->
<g id="node25" class="node">
<title>Node25</title>
<g id="a_node25"><a xlink:title=" ">
<polygon fill="#e0e0e0" stroke="#999999" points="1255.5,-85 1195.5,-85 1195.5,-66 1255.5,-66 1255.5,-85"/>
<text text-anchor="middle" x="1225.5" y="-73" font-family="Helvetica,sans-Serif" font-size="10.00">filesystem</text>
</a>
</g>
</g>
<!-- Node24&#45;&gt;Node25 -->
<g id="edge31" class="edge">
<title>Node24&#45;&gt;Node25</title>
<path fill="none" stroke="#63b8ff" d="M1331.55,-175.61C1314.71,-167.81 1291.04,-155.33 1273.5,-140 1258.56,-126.94 1245.27,-108.55 1236.49,-94.92"/>
<polygon fill="#63b8ff" stroke="#63b8ff" points="1239.51,-93.14 1231.26,-86.49 1233.56,-96.83 1239.51,-93.14"/>
</g>
<!-- Node26 -->
<g id="node26" class="node">
<title>Node26</title>
<g id="a_node26"><a xlink:title=" ">
<polygon fill="#e0e0e0" stroke="#999999" points="1323.5,-85 1273.5,-85 1273.5,-66 1323.5,-66 1323.5,-85"/>
<text text-anchor="middle" x="1298.5" y="-73" font-family="Helvetica,sans-Serif" font-size="10.00">fstream</text>
</a>
</g>
</g>
<!-- Node24&#45;&gt;Node26 -->
<g id="edge32" class="edge">
<title>Node24&#45;&gt;Node26</title>
<path fill="none" stroke="#63b8ff" d="M1325.56,-175.53C1309.37,-168.58 1290.09,-157.2 1280.5,-140 1272.65,-125.93 1278.86,-108.15 1286.05,-94.99"/>
<polygon fill="#63b8ff" stroke="#63b8ff" points="1289.01,-96.85 1291.24,-86.5 1283.04,-93.2 1289.01,-96.85"/>
</g>
<!-- Node27 -->
<g id="node27" class="node">
<title>Node27</title>
<g id="a_node27"><a xlink:title=" ">
<polygon fill="#e0e0e0" stroke="#999999" points="1461,-85 1418,-85 1418,-66 1461,-66 1461,-85"/>
<text text-anchor="middle" x="1439.5" y="-73" font-family="Helvetica,sans-Serif" font-size="10.00">fcntl.h</text>
</a>
</g>
</g>
<!-- Node24&#45;&gt;Node27 -->
<g id="edge37" class="edge">
<title>Node24&#45;&gt;Node27</title>
<path fill="none" stroke="#63b8ff" d="M1376.04,-175.65C1392.06,-168.43 1412.47,-156.69 1424.5,-140 1433.64,-127.33 1437.28,-109.88 1438.7,-96.48"/>
<polygon fill="#63b8ff" stroke="#63b8ff" points="1442.18,-96.89 1439.38,-86.67 1435.2,-96.4 1442.18,-96.89"/>
</g>
<!-- Node28 -->
<g id="node28" class="node">
<title>Node28</title>
<g id="a_node28"><a xlink:title=" ">
<polygon fill="#e0e0e0" stroke="#999999" points="1548,-85 1479,-85 1479,-66 1548,-66 1548,-85"/>
<text text-anchor="middle" x="1513.5" y="-73" font-family="Helvetica,sans-Serif" font-size="10.00">sys/mman.h</text>
</a>
</g>
</g>
<!-- Node24&#45;&gt;Node28 -->
<g id="edge38" class="edge">
<title>Node24&#45;&gt;Node28</title>
<path fill="none" stroke="#63b8ff" d="M1374.5,-175.62C1393.3,-167.57 1420.69,-154.74 1442.5,-140 1462.95,-126.17 1483.7,-106.88 1497.44,-93.19"/>
<polygon fill="#63b8ff" stroke="#63b8ff" points="1499.8,-95.78 1504.32,-86.2 1494.81,-90.87 1499.8,-95.78"/>
</g>
<!-- Node29 -->
<g id="node29" class="node">
<title>Node29</title>
<g id="a_node29"><a xlink:title=" ">
<polygon fill="#e0e0e0" stroke="#999999" points="1625,-85 1566,-85 1566,-66 1625,-66 1625,-85"/>
<text text-anchor="middle" x="1595.5" y="-73" font-family="Helvetica,sans-Serif" font-size="10.00">sys/stat.h</text>
</a>
</g>
</g>
<!-- Node24&#45;&gt;Node29 -->
<g id="edge39" class="edge">
<title>Node24&#45;&gt;Node29</title>
<path fill="none" stroke="#63b8ff" d="M1377.44,-175.6C1400.92,-167.04 1436.94,-153.46 1467.5,-140 1503.06,-124.34 1543.02,-104.07 1568.68,-90.7"/>
<polygon fill="#63b8ff" stroke="#63b8ff" points="1570.18,-93.86 1577.41,-86.12 1566.93,-87.66 1570.18,-93.86"/>
</g>
<!-- Node30 -->
<g id="node30" class="node">
<title>Node30</title>
<g id="a_node30"><a xlink:title=" ">
<polygon fill="#e0e0e0" stroke="#999999" points="1708,-85 1643,-85 1643,-66 1708,-66 1708,-85"/>
<text text-anchor="middle" x="1675.5" y="-73" font-family="Helvetica,sans-Serif" font-size="10.00">sys/types.h</text>
</a>
</g>
</g>
<!-- Node24&#45;&gt;Node30 -->
<g id="edge40" class="edge">
<title>Node24&#45;&gt;Node30</title>
<path fill="none" stroke="#63b8ff" d="M1384.13,-175.55C1414.21,-166.9 1460.64,-153.21 1500.5,-140 1549.91,-123.62 1606.42,-102.72 1641.54,-89.46"/>
<polygon fill="#63b8ff" stroke="#63b8ff" points="1642.62,-92.79 1650.74,-85.98 1640.14,-86.25 1642.62,-92.79"/>
</g>
<!-- Node31 -->
<g id="node31" class="node">
<title>Node31</title>
<g id="a_node31"><a xlink:title=" ">
<polygon fill="#e0e0e0" stroke="#999999" points="1177.5,-85 1127.5,-85 1127.5,-66 1177.5,-66 1177.5,-85"/>
<text text-anchor="middle" x="1152.5" y="-73" font-family="Helvetica,sans-Serif" font-size="10.00">unistd.h</text>
</a>
</g>
</g>
<!-- Node24&#45;&gt;Node31 -->
<g id="edge41" class="edge">
<title>Node24&#45;&gt;Node31</title>
<path fill="none" stroke="#63b8ff" d="M1329.56,-175.58C1308.77,-167.23 1277.5,-153.96 1251.5,-140 1223.92,-125.2 1193.88,-105.36 1174.21,-91.82"/>
<polygon fill="#63b8ff" stroke="#63b8ff" points="1176.38,-89.07 1166.18,-86.23 1172.39,-94.82 1176.38,-89.07"/>
</g>
<!-- Node32 -->
<g id="node32" class="node">
<title>Node32</title>
<g id="a_node32"><a xlink:href="_hw_accessor_8hpp.html" target="_top" xlink:title=" ">
<polygon fill="white" stroke="#666666" points="1415,-140 1290,-140 1290,-121 1415,-121 1415,-140"/>
<text text-anchor="middle" x="1352.5" y="-128" font-family="Helvetica,sans-Serif" font-size="10.00">udmaio/HwAccessor.hpp</text>
</a>
</g>
</g>
<!-- Node24&#45;&gt;Node32 -->
<g id="edge42" class="edge">
<title>Node24&#45;&gt;Node32</title>
<path fill="none" stroke="#63b8ff" d="M1352.5,-175.75C1352.5,-169.27 1352.5,-160.16 1352.5,-151.9"/>
<polygon fill="#63b8ff" stroke="#63b8ff" points="1356,-151.96 1352.5,-141.96 1349,-151.96 1356,-151.96"/>
</g>
<!-- Node32&#45;&gt;Node2 -->
<g id="edge47" class="edge">
<title>Node32&#45;&gt;Node2</title>
<path fill="none" stroke="#63b8ff" d="M1289.81,-126.97C1182.58,-122.01 973.22,-109.29 950.5,-85 938.35,-72.01 939.27,-50.91 942.2,-35.45"/>
<polygon fill="#63b8ff" stroke="#63b8ff" points="945.54,-36.54 944.42,-26.01 938.72,-34.94 945.54,-36.54"/>
</g>
<!-- Node32&#45;&gt;Node5 -->
<g id="edge48" class="edge">
<title>Node32&#45;&gt;Node5</title>
<path fill="none" stroke="#63b8ff" d="M1415.38,-122.57C1502.13,-113.01 1658.53,-95.78 1753.5,-85.31"/>
<polygon fill="#63b8ff" stroke="#63b8ff" points="1753.71,-88.81 1763.27,-84.24 1752.94,-81.86 1753.71,-88.81"/>
</g>
<!-- Node32&#45;&gt;Node6 -->
<g id="edge54" class="edge">
<title>Node32&#45;&gt;Node6</title>
<path fill="none" stroke="#63b8ff" d="M1289.78,-124.08C1166.27,-113.4 894.15,-89.87 785.56,-80.48"/>
<polygon fill="#63b8ff" stroke="#63b8ff" points="786.13,-77.02 775.87,-79.64 785.53,-83.99 786.13,-77.02"/>
</g>
<!-- Node32&#45;&gt;Node17 -->
<g id="edge55" class="edge">
<title>Node32&#45;&gt;Node17</title>
<path fill="none" stroke="#63b8ff" d="M1295.33,-120.51C1236.46,-111.25 1144.78,-96.83 1082.53,-87.04"/>
<polygon fill="#63b8ff" stroke="#63b8ff" points="1083.18,-83.6 1072.76,-85.51 1082.09,-90.52 1083.18,-83.6"/>
</g>
<!-- Node32&#45;&gt;Node18 -->
<g id="edge45" class="edge">
<title>Node32&#45;&gt;Node18</title>
<path fill="none" stroke="#63b8ff" d="M1355.4,-120.59C1361.35,-102.36 1375.02,-60.41 1383.13,-35.53"/>
<polygon fill="#63b8ff" stroke="#63b8ff" points="1386.37,-36.9 1386.14,-26.3 1379.71,-34.73 1386.37,-36.9"/>
</g>
<!-- Node32&#45;&gt;Node19 -->
<g id="edge46" class="edge">
<title>Node32&#45;&gt;Node19</title>
<path fill="none" stroke="#63b8ff" d="M1352.21,-120.82C1351.29,-107.26 1347.54,-81.03 1332.5,-66 1299.95,-33.47 1246.49,-22.06 1210.65,-18.08"/>
<polygon fill="#63b8ff" stroke="#63b8ff" points="1211.02,-14.6 1200.74,-17.14 1210.36,-21.57 1211.02,-14.6"/>
</g>
<!-- Node32&#45;&gt;Node25 -->
<g id="edge43" class="edge">
<title>Node32&#45;&gt;Node25</title>
<path fill="none" stroke="#63b8ff" d="M1330.96,-120.51C1310.76,-112.08 1280.33,-99.38 1257.34,-89.79"/>
<polygon fill="#63b8ff" stroke="#63b8ff" points="1258.7,-86.56 1248.12,-85.94 1256,-93.02 1258.7,-86.56"/>
</g>
<!-- Node32&#45;&gt;Node26 -->
<g id="edge44" class="edge">
<title>Node32&#45;&gt;Node26</title>
<path fill="none" stroke="#63b8ff" d="M1343.58,-120.75C1336.05,-113.35 1325.03,-102.54 1315.77,-93.45"/>
<polygon fill="#63b8ff" stroke="#63b8ff" points="1318.28,-91.01 1308.69,-86.5 1313.38,-96 1318.28,-91.01"/>
</g>
<!-- Node32&#45;&gt;Node27 -->
<g id="edge49" class="edge">
<title>Node32&#45;&gt;Node27</title>
<path fill="none" stroke="#63b8ff" d="M1367.26,-120.51C1380.46,-112.47 1400.06,-100.53 1415.51,-91.11"/>
<polygon fill="#63b8ff" stroke="#63b8ff" points="1416.95,-94.34 1423.67,-86.15 1413.31,-88.36 1416.95,-94.34"/>
</g>
<!-- Node32&#45;&gt;Node28 -->
<g id="edge50" class="edge">
<title>Node32&#45;&gt;Node28</title>
<path fill="none" stroke="#63b8ff" d="M1379.81,-120.51C1406.14,-111.84 1446.22,-98.65 1475.63,-88.97"/>
<polygon fill="#63b8ff" stroke="#63b8ff" points="1476.48,-92.37 1484.89,-85.92 1474.29,-85.72 1476.48,-92.37"/>
</g>
<!-- Node32&#45;&gt;Node29 -->
<g id="edge51" class="edge">
<title>Node32&#45;&gt;Node29</title>
<path fill="none" stroke="#63b8ff" d="M1394.14,-120.54C1433.22,-112.12 1493.62,-99.05 1554.64,-85.62"/>
<polygon fill="#63b8ff" stroke="#63b8ff" points="1555.14,-89.09 1564.16,-83.52 1553.64,-82.26 1555.14,-89.09"/>
</g>
<!-- Node32&#45;&gt;Node30 -->
<g id="edge52" class="edge">
<title>Node32&#45;&gt;Node30</title>
<path fill="none" stroke="#63b8ff" d="M1415.09,-120.5C1469.76,-112.44 1551.54,-99.91 1631.57,-85.47"/>
<polygon fill="#63b8ff" stroke="#63b8ff" points="1632.15,-88.92 1641.36,-83.69 1630.9,-82.03 1632.15,-88.92"/>
</g>
<!-- Node32&#45;&gt;Node31 -->
<g id="edge53" class="edge">
<title>Node32&#45;&gt;Node31</title>
<path fill="none" stroke="#63b8ff" d="M1318.57,-120.51C1282.42,-110.93 1225.4,-95.82 1188.47,-86.03"/>
<polygon fill="#63b8ff" stroke="#63b8ff" points="1189.73,-82.75 1179.17,-83.57 1187.94,-89.51 1189.73,-82.75"/>
</g>
<!-- Node33&#45;&gt;Node16 -->
<g id="edge60" class="edge">
<title>Node33&#45;&gt;Node16</title>
<path fill="none" stroke="#63b8ff" d="M1404.34,-230.51C1375.67,-221.36 1331.2,-207.16 1300.57,-197.38"/>
<polygon fill="#63b8ff" stroke="#63b8ff" points="1301.99,-194.16 1291.4,-194.45 1299.86,-200.83 1301.99,-194.16"/>
</g>
<!-- Node34&#45;&gt;Node15 -->
<g id="edge62" class="edge">
<title>Node34&#45;&gt;Node15</title>
<path fill="none" stroke="#63b8ff" d="M1290.82,-291.12C1270.86,-281.62 1238.96,-266.45 1215.68,-255.38"/>
<polygon fill="#63b8ff" stroke="#63b8ff" points="1217.26,-252.25 1206.72,-251.12 1214.25,-258.57 1217.26,-252.25"/>
</g>
<!-- Node34&#45;&gt;Node23 -->
<g id="edge63" class="edge">
<title>Node34&#45;&gt;Node23</title>
<path fill="none" stroke="#63b8ff" d="M1309.5,-291.37C1309.5,-283.5 1309.5,-271.6 1309.5,-261.39"/>
<polygon fill="#63b8ff" stroke="#63b8ff" points="1313,-261.68 1309.5,-251.68 1306,-261.68 1313,-261.68"/>
</g>
</g>
</svg>
        <g id="navigator" transform="translate(0 0)" fill="#404254">
                <rect fill="#f2f5e9" fill-opacity="0.5" stroke="#606060" stroke-width=".5" x="0" y="0" width="60" height="60"/>
                <use id="zoomplus" xlink:href="#zoomPlus" x="17" y="9" onmousedown="handleZoom(evt,'in')"/>
                <use id="zoomminus" xlink:href="#zoomMin" x="42" y="9" onmousedown="handleZoom(evt,'out')"/>
                <use id="reset" xlink:href="#resetDef" x="30" y="36" onmousedown="handleReset()"/>
                <g id="arrowUp" xlink:href="#dirArrow" transform="translate(30 24)" onmousedown="handlePan(0,-1)">
                  <use xlink:href="#rim" fill="#404040">
                        <set attributeName="fill" to="#808080" begin="arrowUp.mouseover" end="arrowUp.mouseout"/>
                  </use>
                  <path fill="none" stroke="white" stroke-width="1.5" d="M0,-3.0v7 M-2.5,-0.5L0,-3.0L2.5,-0.5"/>
                </g>
                <g id="arrowRight" xlink:href="#dirArrow" transform="rotate(90) translate(36 -43)" onmousedown="handlePan(1,0)">
                  <use xlink:href="#rim" fill="#404040">
                        <set attributeName="fill" to="#808080" begin="arrowRight.mouseover" end="arrowRight.mouseout"/>
                  </use>
                  <path fill="none" stroke="white" stroke-width="1.5" d="M0,-3.0v7 M-2.5,-0.5L0,-3.0L2.5,-0.5"/>
                </g>
                <g id="arrowDown" xlink:href="#dirArrow" transform="rotate(180) translate(-30 -48)" onmousedown="handlePan(0,1)">
                  <use xlink:href="#rim" fill="#404040">
                        <set attributeName="fill" to="#808080" begin="arrowDown.mouseover" end="arrowDown.mouseout"/>
                  </use>
                  <path fill="none" stroke="white" stroke-width="1.5" d="M0,-3.0v7 M-2.5,-0.5L0,-3.0L2.5,-0.5"/>
                </g>
                <g id="arrowLeft" xlink:href="#dirArrow" transform="rotate(270) translate(-36 17)" onmousedown="handlePan(-1,0)">
                  <use xlink:href="#rim" fill="#404040">
                        <set attributeName="fill" to="#808080" begin="arrowLeft.mouseover" end="arrowLeft.mouseout"/>
                  </use>
                  <path fill="none" stroke="white" stroke-width="1.5" d="M0,-3.0v7 M-2.5,-0.5L0,-3.0L2.5,-0.5"/>
                </g>
        </g>
        <svg viewBox="0 0 15 15" width="100%" height="30px" preserveAspectRatio="xMaxYMin meet">
         <g id="arrow_out" transform="scale(0.3 0.3)">
          <a xlink:href="_data_handler_abstract_8hpp__incl_org.svg" target="_base">
           <rect id="button" ry="5" rx="5" y="6" x="6" height="38" width="38"
                fill="#f2f5e9" fill-opacity="0.5" stroke="#606060" stroke-width="1.0"/>
           <path id="arrow"
             d="M 11.500037,31.436501 C 11.940474,20.09759 22.043105,11.32322 32.158766,21.979434 L 37.068811,17.246167 C 37.068811,17.246167 37.088388,32 37.088388,32 L 22.160133,31.978069 C 22.160133,31.978069 26.997745,27.140456 26.997745,27.140456 C 18.528582,18.264221 13.291696,25.230495 11.500037,31.436501 z"
             style="fill:#404040;"/>
          </a>
         </g>
        </svg>
</svg>
