<?xml version="1.0" encoding="UTF-8" standalone="no"?>
<!DOCTYPE svg PUBLIC "-//W3C//DTD SVG 1.1//EN"
 "http://www.w3.org/Graphics/SVG/1.1/DTD/svg11.dtd">
<!-- Generated by graphviz version 7.0.5 (20221223.1930)
 -->
<!-- Title: DataHandlerAbstract.cpp Pages: 1 -->
<svg width="1826pt" height="434pt"
 viewBox="0.00 0.00 1825.50 434.00" xmlns="http://www.w3.org/2000/svg" xmlns:xlink="http://www.w3.org/1999/xlink">
<g id="graph0" class="graph" transform="scale(1 1) rotate(0) translate(4 430)">
<title>DataHandlerAbstract.cpp</title>
<!-- Node1 -->
<g id="node1" class="node">
<title>Node1</title>
<g id="a_node1"><a xlink:title=" ">
<polygon fill="#999999" stroke="#666666" points="1012.5,-426 887.5,-426 887.5,-407 1012.5,-407 1012.5,-426"/>
<text text-anchor="middle" x="950" y="-414" font-family="Helvetica,sans-Serif" font-size="10.00">DataHandlerAbstract.cpp</text>
</a>
</g>
</g>
<!-- Node2 -->
<g id="node2" class="node">
<title>Node2</title>
<g id="a_node2"><a xlink:href="_data_handler_abstract_8hpp.html" target="_top" xlink:title=" ">
<polygon fill="white" stroke="#666666" points="1030,-371 870,-371 870,-352 1030,-352 1030,-371"/>
<text text-anchor="middle" x="950" y="-359" font-family="Helvetica,sans-Serif" font-size="10.00">udmaio/DataHandlerAbstract.hpp</text>
</a>
</g>
</g>
<!-- Node1&#45;&gt;Node2 -->
<g id="edge1" class="edge">
<title>Node1&#45;&gt;Node2</title>
<path fill="none" stroke="#63b8ff" d="M950,-406.75C950,-400.27 950,-391.16 950,-382.9"/>
<polygon fill="#63b8ff" stroke="#63b8ff" points="953.5,-382.96 950,-372.96 946.5,-382.96 953.5,-382.96"/>
</g>
<!-- Node4 -->
<g id="node4" class="node">
<title>Node4</title>
<g id="a_node4"><a xlink:title=" ">
<polygon fill="#e0e0e0" stroke="#999999" points="901,-195 857,-195 857,-176 901,-176 901,-195"/>
<text text-anchor="middle" x="879" y="-183" font-family="Helvetica,sans-Serif" font-size="10.00">vector</text>
</a>
</g>
</g>
<!-- Node1&#45;&gt;Node4 -->
<g id="edge69" class="edge">
<title>Node1&#45;&gt;Node4</title>
<path fill="none" stroke="#63b8ff" d="M920.83,-406.64C901.76,-399.59 877.42,-388.04 861,-371 842.37,-351.67 841.68,-342.24 836,-316 833.18,-302.97 832.26,-298.8 836,-286 841.32,-267.78 850.97,-267.2 859,-250 865.6,-235.87 870.79,-219 874.24,-206.2"/>
<polygon fill="#63b8ff" stroke="#63b8ff" points="877.54,-207.42 876.61,-196.87 870.75,-205.7 877.54,-207.42"/>
</g>
<!-- Node19 -->
<g id="node19" class="node">
<title>Node19</title>
<g id="a_node19"><a xlink:title=" ">
<polygon fill="#e0e0e0" stroke="#999999" points="234,-24.5 180,-24.5 180,-5.5 234,-5.5 234,-24.5"/>
<text text-anchor="middle" x="207" y="-12.5" font-family="Helvetica,sans-Serif" font-size="10.00">iostream</text>
</a>
</g>
</g>
<!-- Node1&#45;&gt;Node19 -->
<g id="edge68" class="edge">
<title>Node1&#45;&gt;Node19</title>
<path fill="none" stroke="#63b8ff" d="M887.3,-414.62C675.54,-410.81 0,-391.64 0,-302 0,-302 0,-302 0,-129.5 0,-53.61 108.28,-28.13 168.22,-19.83"/>
<polygon fill="#63b8ff" stroke="#63b8ff" points="168.53,-23.32 178.01,-18.58 167.65,-16.37 168.53,-23.32"/>
</g>
<!-- Node37 -->
<g id="node37" class="node">
<title>Node37</title>
<g id="a_node37"><a xlink:title=" ">
<polygon fill="#e0e0e0" stroke="#999999" points="1107.5,-371 1048.5,-371 1048.5,-352 1107.5,-352 1107.5,-371"/>
<text text-anchor="middle" x="1078" y="-359" font-family="Helvetica,sans-Serif" font-size="10.00">functional</text>
</a>
</g>
</g>
<!-- Node1&#45;&gt;Node37 -->
<g id="edge66" class="edge">
<title>Node1&#45;&gt;Node37</title>
<path fill="none" stroke="#63b8ff" d="M971.71,-406.51C992.16,-398.04 1023.02,-385.27 1046.23,-375.66"/>
<polygon fill="#63b8ff" stroke="#63b8ff" points="1047.31,-379 1055.21,-371.94 1044.63,-372.53 1047.31,-379"/>
</g>
<!-- Node38 -->
<g id="node38" class="node">
<title>Node38</title>
<g id="a_node38"><a xlink:title=" ">
<polygon fill="#e0e0e0" stroke="#999999" points="1176,-371 1126,-371 1126,-352 1176,-352 1176,-371"/>
<text text-anchor="middle" x="1151" y="-359" font-family="Helvetica,sans-Serif" font-size="10.00">iomanip</text>
</a>
</g>
</g>
<!-- Node1&#45;&gt;Node38 -->
<g id="edge67" class="edge">
<title>Node1&#45;&gt;Node38</title>
<path fill="none" stroke="#63b8ff" d="M984.1,-406.51C1020.44,-396.93 1077.74,-381.82 1114.85,-372.03"/>
<polygon fill="#63b8ff" stroke="#63b8ff" points="1115.43,-375.5 1124.2,-369.57 1113.64,-368.73 1115.43,-375.5"/>
</g>
<!-- Node3 -->
<g id="node3" class="node">
<title>Node3</title>
<g id="a_node3"><a xlink:title=" ">
<polygon fill="#e0e0e0" stroke="#999999" points="890.5,-24.5 849.5,-24.5 849.5,-5.5 890.5,-5.5 890.5,-24.5"/>
<text text-anchor="middle" x="870" y="-12.5" font-family="Helvetica,sans-Serif" font-size="10.00">string</text>
</a>
</g>
</g>
<!-- Node2&#45;&gt;Node3 -->
<g id="edge2" class="edge">
<title>Node2&#45;&gt;Node3</title>
<path fill="none" stroke="#63b8ff" d="M1030.48,-352.61C1106.13,-344.37 1209.59,-330.61 1222,-316 1230.63,-305.84 1226.22,-298.65 1222,-286 1183.35,-170.05 1159.48,-132.61 1057,-66 996.98,-26.99 967.7,-53.27 900,-30 899.35,-29.78 898.7,-29.55 898.05,-29.31"/>
<polygon fill="#63b8ff" stroke="#63b8ff" points="899.49,-26.11 888.91,-25.51 896.8,-32.58 899.49,-26.11"/>
</g>
<!-- Node2&#45;&gt;Node4 -->
<g id="edge3" class="edge">
<title>Node2&#45;&gt;Node4</title>
<path fill="none" stroke="#63b8ff" d="M1030.49,-351.66C1100.91,-343.09 1193.69,-329.46 1205,-316 1213.58,-305.79 1212.93,-296.72 1205,-286 1169.57,-238.15 988.4,-204.04 912.51,-191.64"/>
<polygon fill="#63b8ff" stroke="#63b8ff" points="913.2,-188.21 902.77,-190.08 912.09,-195.12 913.2,-188.21"/>
</g>
<!-- Node5 -->
<g id="node5" class="node">
<title>Node5</title>
<g id="a_node5"><a xlink:title=" ">
<polygon fill="#e0e0e0" stroke="#999999" points="1058,-310.5 978,-310.5 978,-291.5 1058,-291.5 1058,-310.5"/>
<text text-anchor="middle" x="1018" y="-298.5" font-family="Helvetica,sans-Serif" font-size="10.00">boost/asio.hpp</text>
</a>
</g>
</g>
<!-- Node2&#45;&gt;Node5 -->
<g id="edge4" class="edge">
<title>Node2&#45;&gt;Node5</title>
<path fill="none" stroke="#63b8ff" d="M960.33,-351.62C970.61,-342.77 986.63,-328.98 999.18,-318.19"/>
<polygon fill="#63b8ff" stroke="#63b8ff" points="1001.13,-321.13 1006.43,-311.96 996.56,-315.82 1001.13,-321.13"/>
</g>
<!-- Node6 -->
<g id="node6" class="node">
<title>Node6</title>
<g id="a_node6"><a xlink:title=" ">
<polygon fill="#e0e0e0" stroke="#999999" points="1047.5,-85 910.5,-85 910.5,-66 1047.5,-66 1047.5,-85"/>
<text text-anchor="middle" x="979" y="-73" font-family="Helvetica,sans-Serif" font-size="10.00">boost/core/noncopyable.hpp</text>
</a>
</g>
</g>
<!-- Node2&#45;&gt;Node6 -->
<g id="edge5" class="edge">
<title>Node2&#45;&gt;Node6</title>
<path fill="none" stroke="#63b8ff" d="M950.9,-351.69C954.9,-312.52 971.13,-153.59 976.93,-96.8"/>
<polygon fill="#63b8ff" stroke="#63b8ff" points="980.39,-97.3 977.93,-87 973.43,-96.59 980.39,-97.3"/>
</g>
<!-- Node7 -->
<g id="node7" class="node">
<title>Node7</title>
<g id="a_node7"><a xlink:href="_logging_8hpp.html" target="_top" xlink:title=" ">
<polygon fill="white" stroke="#666666" points="1283.5,-85 1214.5,-85 1214.5,-66 1283.5,-66 1283.5,-85"/>
<text text-anchor="middle" x="1249" y="-73" font-family="Helvetica,sans-Serif" font-size="10.00">Logging.hpp</text>
</a>
</g>
</g>
<!-- Node2&#45;&gt;Node7 -->
<g id="edge6" class="edge">
<title>Node2&#45;&gt;Node7</title>
<path fill="none" stroke="#63b8ff" d="M1030.45,-351.68C1123.91,-341.11 1266.63,-323.85 1276,-316 1302.66,-293.66 1300,-276.29 1300,-241.5 1300,-241.5 1300,-241.5 1300,-184.5 1300,-150.09 1278.57,-114.9 1263.49,-94.41"/>
<polygon fill="#63b8ff" stroke="#63b8ff" points="1266.32,-92.35 1257.45,-86.56 1260.77,-96.62 1266.32,-92.35"/>
</g>
<!-- Node15 -->
<g id="node15" class="node">
<title>Node15</title>
<g id="a_node15"><a xlink:href="_u_dma_buf_8hpp.html" target="_top" xlink:title=" ">
<polygon fill="white" stroke="#666666" points="921.5,-310.5 844.5,-310.5 844.5,-291.5 921.5,-291.5 921.5,-310.5"/>
<text text-anchor="middle" x="883" y="-298.5" font-family="Helvetica,sans-Serif" font-size="10.00">UDmaBuf.hpp</text>
</a>
</g>
</g>
<!-- Node2&#45;&gt;Node15 -->
<g id="edge15" class="edge">
<title>Node2&#45;&gt;Node15</title>
<path fill="none" stroke="#63b8ff" d="M939.82,-351.62C929.79,-342.85 914.21,-329.25 901.9,-318.5"/>
<polygon fill="#63b8ff" stroke="#63b8ff" points="904.25,-315.9 894.41,-311.96 899.64,-321.18 904.25,-315.9"/>
</g>
<!-- Node23 -->
<g id="node23" class="node">
<title>Node23</title>
<g id="a_node23"><a xlink:href="_uio_axi_dma_if_8hpp.html" target="_top" xlink:title=" ">
<polygon fill="white" stroke="#666666" points="622.5,-310.5 533.5,-310.5 533.5,-291.5 622.5,-291.5 622.5,-310.5"/>
<text text-anchor="middle" x="578" y="-298.5" font-family="Helvetica,sans-Serif" font-size="10.00">UioAxiDmaIf.hpp</text>
</a>
</g>
</g>
<!-- Node2&#45;&gt;Node23 -->
<g id="edge28" class="edge">
<title>Node2&#45;&gt;Node23</title>
<path fill="none" stroke="#63b8ff" d="M893.1,-351.55C822.82,-340.5 704.03,-321.82 634.12,-310.83"/>
<polygon fill="#63b8ff" stroke="#63b8ff" points="634.83,-307.39 624.41,-309.3 633.74,-314.31 634.83,-307.39"/>
</g>
<!-- Node35 -->
<g id="node35" class="node">
<title>Node35</title>
<g id="a_node35"><a xlink:href="_uio_mem_sgdma_8hpp.html" target="_top" xlink:title=" ">
<polygon fill="white" stroke="#666666" points="788,-310.5 686,-310.5 686,-291.5 788,-291.5 788,-310.5"/>
<text text-anchor="middle" x="737" y="-298.5" font-family="Helvetica,sans-Serif" font-size="10.00">UioMemSgdma.hpp</text>
</a>
</g>
</g>
<!-- Node2&#45;&gt;Node35 -->
<g id="edge62" class="edge">
<title>Node2&#45;&gt;Node35</title>
<path fill="none" stroke="#63b8ff" d="M917.65,-351.62C881.06,-341.56 821.27,-325.15 780.59,-313.97"/>
<polygon fill="#63b8ff" stroke="#63b8ff" points="781.68,-310.64 771.11,-311.37 779.83,-317.39 781.68,-310.64"/>
</g>
<!-- Node36 -->
<g id="node36" class="node">
<title>Node36</title>
<g id="a_node36"><a xlink:title=" ">
<polygon fill="#e0e0e0" stroke="#999999" points="1196,-316 1076,-316 1076,-286 1196,-286 1196,-316"/>
<text text-anchor="start" x="1084" y="-304" font-family="Helvetica,sans-Serif" font-size="10.00">boost/asio/posix/stream</text>
<text text-anchor="middle" x="1136" y="-293" font-family="Helvetica,sans-Serif" font-size="10.00">_descriptor.hpp</text>
</a>
</g>
</g>
<!-- Node2&#45;&gt;Node36 -->
<g id="edge65" class="edge">
<title>Node2&#45;&gt;Node36</title>
<path fill="none" stroke="#63b8ff" d="M978.25,-351.62C1005.03,-343.19 1046.02,-330.3 1079.51,-319.77"/>
<polygon fill="#63b8ff" stroke="#63b8ff" points="1080.16,-323.23 1088.65,-316.89 1078.06,-316.56 1080.16,-323.23"/>
</g>
<!-- Node7&#45;&gt;Node3 -->
<g id="edge7" class="edge">
<title>Node7&#45;&gt;Node3</title>
<path fill="none" stroke="#63b8ff" d="M1214.24,-68.24C1209.46,-67.45 1204.61,-66.68 1200,-66 1067.13,-46.52 1029.13,-66.86 900,-30 899.03,-29.72 898.06,-29.42 897.08,-29.09"/>
<polygon fill="#63b8ff" stroke="#63b8ff" points="898.76,-26 888.18,-25.53 896.16,-32.49 898.76,-26"/>
</g>
<!-- Node8 -->
<g id="node8" class="node">
<title>Node8</title>
<g id="a_node8"><a xlink:title=" ">
<polygon fill="#e0e0e0" stroke="#999999" points="1424,-24.5 1328,-24.5 1328,-5.5 1424,-5.5 1424,-24.5"/>
<text text-anchor="middle" x="1376" y="-12.5" font-family="Helvetica,sans-Serif" font-size="10.00">boost/log/core.hpp</text>
</a>
</g>
</g>
<!-- Node7&#45;&gt;Node8 -->
<g id="edge8" class="edge">
<title>Node7&#45;&gt;Node8</title>
<path fill="none" stroke="#63b8ff" d="M1268.29,-65.62C1288.99,-56.08 1322.13,-40.81 1346.19,-29.73"/>
<polygon fill="#63b8ff" stroke="#63b8ff" points="1347.54,-32.96 1355.16,-25.6 1344.61,-26.61 1347.54,-32.96"/>
</g>
<!-- Node9 -->
<g id="node9" class="node">
<title>Node9</title>
<g id="a_node9"><a xlink:title=" ">
<polygon fill="#e0e0e0" stroke="#999999" points="1571.5,-24.5 1442.5,-24.5 1442.5,-5.5 1571.5,-5.5 1571.5,-24.5"/>
<text text-anchor="middle" x="1507" y="-12.5" font-family="Helvetica,sans-Serif" font-size="10.00">boost/log/expressions.hpp</text>
</a>
</g>
</g>
<!-- Node7&#45;&gt;Node9 -->
<g id="edge9" class="edge">
<title>Node7&#45;&gt;Node9</title>
<path fill="none" stroke="#63b8ff" d="M1283.8,-66.61C1328.3,-56.52 1405.68,-38.97 1456.62,-27.42"/>
<polygon fill="#63b8ff" stroke="#63b8ff" points="1457.25,-30.87 1466.23,-25.25 1455.7,-24.04 1457.25,-30.87"/>
</g>
<!-- Node10 -->
<g id="node10" class="node">
<title>Node10</title>
<g id="a_node10"><a xlink:title=" ">
<polygon fill="#e0e0e0" stroke="#999999" points="1690.5,-24.5 1589.5,-24.5 1589.5,-5.5 1690.5,-5.5 1690.5,-24.5"/>
<text text-anchor="middle" x="1640" y="-12.5" font-family="Helvetica,sans-Serif" font-size="10.00">boost/log/trivial.hpp</text>
</a>
</g>
</g>
<!-- Node7&#45;&gt;Node10 -->
<g id="edge10" class="edge">
<title>Node7&#45;&gt;Node10</title>
<path fill="none" stroke="#63b8ff" d="M1283.59,-71.01C1344.16,-64.65 1473.21,-49.96 1581,-30 1585.12,-29.24 1589.39,-28.37 1593.66,-27.45"/>
<polygon fill="#63b8ff" stroke="#63b8ff" points="1594.4,-30.88 1603.39,-25.27 1592.87,-24.05 1594.4,-30.88"/>
</g>
<!-- Node11 -->
<g id="node11" class="node">
<title>Node11</title>
<g id="a_node11"><a xlink:title=" ">
<polygon fill="#e0e0e0" stroke="#999999" points="1817.5,-30 1708.5,-30 1708.5,0 1817.5,0 1817.5,-30"/>
<text text-anchor="start" x="1716.5" y="-18" font-family="Helvetica,sans-Serif" font-size="10.00">boost/log/utility/setup</text>
<text text-anchor="middle" x="1763" y="-7" font-family="Helvetica,sans-Serif" font-size="10.00">/console.hpp</text>
</a>
</g>
</g>
<!-- Node7&#45;&gt;Node11 -->
<g id="edge11" class="edge">
<title>Node7&#45;&gt;Node11</title>
<path fill="none" stroke="#63b8ff" d="M1283.98,-72.49C1358.33,-67.9 1537.68,-55.21 1697.14,-30.34"/>
<polygon fill="#63b8ff" stroke="#63b8ff" points="1697.27,-33.86 1706.6,-28.84 1696.18,-26.95 1697.27,-33.86"/>
</g>
<!-- Node12 -->
<g id="node12" class="node">
<title>Node12</title>
<g id="a_node12"><a xlink:title=" ">
<polygon fill="#e0e0e0" stroke="#999999" points="1039.5,-30 908.5,-30 908.5,0 1039.5,0 1039.5,-30"/>
<text text-anchor="start" x="916.5" y="-18" font-family="Helvetica,sans-Serif" font-size="10.00">boost/log/sources/severity</text>
<text text-anchor="middle" x="974" y="-7" font-family="Helvetica,sans-Serif" font-size="10.00">_channel_logger.hpp</text>
</a>
</g>
</g>
<!-- Node7&#45;&gt;Node12 -->
<g id="edge12" class="edge">
<title>Node7&#45;&gt;Node12</title>
<path fill="none" stroke="#63b8ff" d="M1214.17,-67.09C1173.35,-58.41 1104.49,-43.76 1050.95,-32.37"/>
<polygon fill="#63b8ff" stroke="#63b8ff" points="1051.76,-28.96 1041.25,-30.31 1050.3,-35.81 1051.76,-28.96"/>
</g>
<!-- Node13 -->
<g id="node13" class="node">
<title>Node13</title>
<g id="a_node13"><a xlink:title=" ">
<polygon fill="#e0e0e0" stroke="#999999" points="1170.5,-30 1057.5,-30 1057.5,0 1170.5,0 1170.5,-30"/>
<text text-anchor="start" x="1065.5" y="-18" font-family="Helvetica,sans-Serif" font-size="10.00">boost/log/support/date</text>
<text text-anchor="middle" x="1114" y="-7" font-family="Helvetica,sans-Serif" font-size="10.00">_time.hpp</text>
</a>
</g>
</g>
<!-- Node7&#45;&gt;Node13 -->
<g id="edge13" class="edge">
<title>Node7&#45;&gt;Node13</title>
<path fill="none" stroke="#63b8ff" d="M1228.5,-65.62C1209.82,-57.52 1181.61,-45.3 1157.87,-35.01"/>
<polygon fill="#63b8ff" stroke="#63b8ff" points="1159.28,-31.81 1148.71,-31.04 1156.49,-38.23 1159.28,-31.81"/>
</g>
<!-- Node14 -->
<g id="node14" class="node">
<title>Node14</title>
<g id="a_node14"><a xlink:title=" ">
<polygon fill="#e0e0e0" stroke="#999999" points="1309.5,-30 1188.5,-30 1188.5,0 1309.5,0 1309.5,-30"/>
<text text-anchor="start" x="1196.5" y="-18" font-family="Helvetica,sans-Serif" font-size="10.00">boost/log/utility/setup</text>
<text text-anchor="middle" x="1249" y="-7" font-family="Helvetica,sans-Serif" font-size="10.00">/common_attributes.hpp</text>
</a>
</g>
</g>
<!-- Node7&#45;&gt;Node14 -->
<g id="edge14" class="edge">
<title>Node7&#45;&gt;Node14</title>
<path fill="none" stroke="#63b8ff" d="M1249,-65.87C1249,-59.4 1249,-50.2 1249,-41.45"/>
<polygon fill="#63b8ff" stroke="#63b8ff" points="1252.5,-41.63 1249,-31.63 1245.5,-41.63 1252.5,-41.63"/>
</g>
<!-- Node15&#45;&gt;Node7 -->
<g id="edge26" class="edge">
<title>Node15&#45;&gt;Node7</title>
<path fill="none" stroke="#63b8ff" d="M897.35,-291.24C952.91,-257.31 1154.33,-134.31 1224.61,-91.4"/>
<polygon fill="#63b8ff" stroke="#63b8ff" points="1226.35,-94.43 1233.06,-86.23 1222.7,-88.46 1226.35,-94.43"/>
</g>
<!-- Node16 -->
<g id="node16" class="node">
<title>Node16</title>
<g id="a_node16"><a xlink:href="_dma_buffer_abstract_8hpp.html" target="_top" xlink:title=" ">
<polygon fill="white" stroke="#666666" points="849.5,-250 732.5,-250 732.5,-231 849.5,-231 849.5,-250"/>
<text text-anchor="middle" x="791" y="-238" font-family="Helvetica,sans-Serif" font-size="10.00">DmaBufferAbstract.hpp</text>
</a>
</g>
</g>
<!-- Node15&#45;&gt;Node16 -->
<g id="edge16" class="edge">
<title>Node15&#45;&gt;Node16</title>
<path fill="none" stroke="#63b8ff" d="M869.03,-291.12C854.57,-281.92 831.74,-267.41 814.5,-256.44"/>
<polygon fill="#63b8ff" stroke="#63b8ff" points="816.7,-253.69 806.38,-251.28 812.94,-259.6 816.7,-253.69"/>
</g>
<!-- Node18 -->
<g id="node18" class="node">
<title>Node18</title>
<g id="a_node18"><a xlink:href="_uio_config_8hpp.html" target="_top" xlink:title=" ">
<polygon fill="white" stroke="#666666" points="853.5,-85 742.5,-85 742.5,-66 853.5,-66 853.5,-85"/>
<text text-anchor="middle" x="798" y="-73" font-family="Helvetica,sans-Serif" font-size="10.00">udmaio/UioConfig.hpp</text>
</a>
</g>
</g>
<!-- Node15&#45;&gt;Node18 -->
<g id="edge27" class="edge">
<title>Node15&#45;&gt;Node18</title>
<path fill="none" stroke="#63b8ff" d="M888.53,-291.19C900.88,-270.33 928.24,-216.6 910,-176 892.61,-137.29 851.89,-107.51 824.65,-90.99"/>
<polygon fill="#63b8ff" stroke="#63b8ff" points="826.65,-88.11 816.25,-86.09 823.12,-94.15 826.65,-88.11"/>
</g>
<!-- Node16&#45;&gt;Node4 -->
<g id="edge18" class="edge">
<title>Node16&#45;&gt;Node4</title>
<path fill="none" stroke="#63b8ff" d="M805.93,-230.51C819.28,-222.47 839.11,-210.53 854.74,-201.11"/>
<polygon fill="#63b8ff" stroke="#63b8ff" points="856.24,-204.3 863,-196.14 852.62,-198.3 856.24,-204.3"/>
</g>
<!-- Node16&#45;&gt;Node6 -->
<g id="edge19" class="edge">
<title>Node16&#45;&gt;Node6</title>
<path fill="none" stroke="#63b8ff" d="M797.9,-230.81C808.18,-218.12 828.39,-194.07 848,-176 883.57,-143.23 929.41,-110.27 956.37,-91.71"/>
<polygon fill="#63b8ff" stroke="#63b8ff" points="958.17,-94.72 964.46,-86.19 954.23,-88.94 958.17,-94.72"/>
</g>
<!-- Node17 -->
<g id="node17" class="node">
<title>Node17</title>
<g id="a_node17"><a xlink:title=" ">
<polygon fill="#e0e0e0" stroke="#999999" points="679,-195 633,-195 633,-176 679,-176 679,-195"/>
<text text-anchor="middle" x="656" y="-183" font-family="Helvetica,sans-Serif" font-size="10.00">cstdint</text>
</a>
</g>
</g>
<!-- Node16&#45;&gt;Node17 -->
<g id="edge17" class="edge">
<title>Node16&#45;&gt;Node17</title>
<path fill="none" stroke="#63b8ff" d="M768.1,-230.51C746.44,-222.01 713.69,-209.15 689.18,-199.53"/>
<polygon fill="#63b8ff" stroke="#63b8ff" points="690.56,-196.31 679.97,-195.91 688,-202.82 690.56,-196.31"/>
</g>
<!-- Node16&#45;&gt;Node18 -->
<g id="edge20" class="edge">
<title>Node16&#45;&gt;Node18</title>
<path fill="none" stroke="#63b8ff" d="M791.38,-230.74C792.46,-205.53 795.6,-132.36 797.14,-96.62"/>
<polygon fill="#63b8ff" stroke="#63b8ff" points="800.62,-96.96 797.56,-86.82 793.63,-96.66 800.62,-96.96"/>
</g>
<!-- Node18&#45;&gt;Node3 -->
<g id="edge24" class="edge">
<title>Node18&#45;&gt;Node3</title>
<path fill="none" stroke="#63b8ff" d="M808.94,-65.62C819.82,-56.77 836.79,-42.98 850.08,-32.19"/>
<polygon fill="#63b8ff" stroke="#63b8ff" points="852.23,-34.95 857.79,-25.92 847.82,-29.51 852.23,-34.95"/>
</g>
<!-- Node18&#45;&gt;Node19 -->
<g id="edge21" class="edge">
<title>Node18&#45;&gt;Node19</title>
<path fill="none" stroke="#63b8ff" d="M742.35,-67.09C739.19,-66.71 736.05,-66.34 733,-66 551.05,-45.46 333.05,-26.55 245.84,-19.22"/>
<polygon fill="#63b8ff" stroke="#63b8ff" points="246.18,-15.74 235.92,-18.39 245.6,-22.71 246.18,-15.74"/>
</g>
<!-- Node20 -->
<g id="node20" class="node">
<title>Node20</title>
<g id="a_node20"><a xlink:title=" ">
<polygon fill="#e0e0e0" stroke="#999999" points="472.5,-24.5 421.5,-24.5 421.5,-5.5 472.5,-5.5 472.5,-24.5"/>
<text text-anchor="middle" x="447" y="-12.5" font-family="Helvetica,sans-Serif" font-size="10.00">memory</text>
</a>
</g>
</g>
<!-- Node18&#45;&gt;Node20 -->
<g id="edge22" class="edge">
<title>Node18&#45;&gt;Node20</title>
<path fill="none" stroke="#63b8ff" d="M744.31,-65.55C672.32,-53.55 546.39,-32.56 484.08,-22.18"/>
<polygon fill="#63b8ff" stroke="#63b8ff" points="484.79,-18.75 474.35,-20.56 483.64,-25.65 484.79,-18.75"/>
</g>
<!-- Node21 -->
<g id="node21" class="node">
<title>Node21</title>
<g id="a_node21"><a xlink:title=" ">
<polygon fill="#e0e0e0" stroke="#999999" points="746.5,-24.5 687.5,-24.5 687.5,-5.5 746.5,-5.5 746.5,-24.5"/>
<text text-anchor="middle" x="717" y="-12.5" font-family="Helvetica,sans-Serif" font-size="10.00">stdexcept</text>
</a>
</g>
</g>
<!-- Node18&#45;&gt;Node21 -->
<g id="edge23" class="edge">
<title>Node18&#45;&gt;Node21</title>
<path fill="none" stroke="#63b8ff" d="M785.7,-65.62C773.21,-56.6 753.62,-42.45 738.55,-31.56"/>
<polygon fill="#63b8ff" stroke="#63b8ff" points="740.8,-28.87 730.64,-25.85 736.7,-34.55 740.8,-28.87"/>
</g>
<!-- Node22 -->
<g id="node22" class="node">
<title>Node22</title>
<g id="a_node22"><a xlink:title=" ">
<polygon fill="#e0e0e0" stroke="#999999" points="831,-24.5 765,-24.5 765,-5.5 831,-5.5 831,-24.5"/>
<text text-anchor="middle" x="798" y="-12.5" font-family="Helvetica,sans-Serif" font-size="10.00">string_view</text>
</a>
</g>
</g>
<!-- Node18&#45;&gt;Node22 -->
<g id="edge25" class="edge">
<title>Node18&#45;&gt;Node22</title>
<path fill="none" stroke="#63b8ff" d="M798,-65.87C798,-58 798,-46.1 798,-35.89"/>
<polygon fill="#63b8ff" stroke="#63b8ff" points="801.5,-36.18 798,-26.18 794.5,-36.18 801.5,-36.18"/>
</g>
<!-- Node24 -->
<g id="node24" class="node">
<title>Node24</title>
<g id="a_node24"><a xlink:href="_reg_accessor_8hpp.html" target="_top" xlink:title=" ">
<polygon fill="white" stroke="#666666" points="579.5,-250 486.5,-250 486.5,-231 579.5,-231 579.5,-250"/>
<text text-anchor="middle" x="533" y="-238" font-family="Helvetica,sans-Serif" font-size="10.00">RegAccessor.hpp</text>
</a>
</g>
</g>
<!-- Node23&#45;&gt;Node24 -->
<g id="edge29" class="edge">
<title>Node23&#45;&gt;Node24</title>
<path fill="none" stroke="#63b8ff" d="M571.36,-291.37C564.85,-282.9 554.72,-269.74 546.51,-259.07"/>
<polygon fill="#63b8ff" stroke="#63b8ff" points="549.46,-257.16 540.59,-251.37 543.91,-261.43 549.46,-257.16"/>
</g>
<!-- Node25 -->
<g id="node25" class="node">
<title>Node25</title>
<g id="a_node25"><a xlink:href="_uio_if_8hpp.html" target="_top" xlink:title=" ">
<polygon fill="white" stroke="#666666" points="541,-195 451,-195 451,-176 541,-176 541,-195"/>
<text text-anchor="middle" x="496" y="-183" font-family="Helvetica,sans-Serif" font-size="10.00">udmaio/UioIf.hpp</text>
</a>
</g>
</g>
<!-- Node23&#45;&gt;Node25 -->
<g id="edge59" class="edge">
<title>Node23&#45;&gt;Node25</title>
<path fill="none" stroke="#63b8ff" d="M537.66,-291.04C515.66,-283.88 490.26,-271.36 477,-250 468.38,-236.11 475.17,-218.09 482.93,-204.79"/>
<polygon fill="#63b8ff" stroke="#63b8ff" points="485.75,-206.88 488.26,-196.58 479.88,-203.07 485.75,-206.88"/>
</g>
<!-- Node34 -->
<g id="node34" class="node">
<title>Node34</title>
<g id="a_node34"><a xlink:href="_axi_dma_8hpp.html" target="_top" xlink:title=" ">
<polygon fill="white" stroke="#666666" points="714,-250 598,-250 598,-231 714,-231 714,-250"/>
<text text-anchor="middle" x="656" y="-238" font-family="Helvetica,sans-Serif" font-size="10.00">udmaio/rdl/AxiDma.hpp</text>
</a>
</g>
</g>
<!-- Node23&#45;&gt;Node34 -->
<g id="edge60" class="edge">
<title>Node23&#45;&gt;Node34</title>
<path fill="none" stroke="#63b8ff" d="M589.85,-291.12C601.76,-282.18 620.38,-268.22 634.83,-257.37"/>
<polygon fill="#63b8ff" stroke="#63b8ff" points="636.93,-260.18 642.83,-251.38 632.73,-254.58 636.93,-260.18"/>
</g>
<!-- Node24&#45;&gt;Node17 -->
<g id="edge30" class="edge">
<title>Node24&#45;&gt;Node17</title>
<path fill="none" stroke="#63b8ff" d="M553.87,-230.51C573.42,-222.08 602.9,-209.38 625.17,-199.79"/>
<polygon fill="#63b8ff" stroke="#63b8ff" points="626.25,-203.13 634.05,-195.96 623.48,-196.7 626.25,-203.13"/>
</g>
<!-- Node24&#45;&gt;Node25 -->
<g id="edge31" class="edge">
<title>Node24&#45;&gt;Node25</title>
<path fill="none" stroke="#63b8ff" d="M526.89,-230.75C521.99,-223.73 514.95,-213.64 508.83,-204.87"/>
<polygon fill="#63b8ff" stroke="#63b8ff" points="511.7,-202.88 503.11,-196.68 505.96,-206.89 511.7,-202.88"/>
</g>
<!-- Node25&#45;&gt;Node3 -->
<g id="edge36" class="edge">
<title>Node25&#45;&gt;Node3</title>
<path fill="none" stroke="#63b8ff" d="M529.52,-175.55C562.88,-166.63 615.51,-152.49 661,-140 691.26,-131.69 698.74,-129.29 729,-121 788.47,-104.7 823.05,-131.98 863,-85 874.33,-71.67 875.06,-51.24 873.56,-36.07"/>
<polygon fill="#63b8ff" stroke="#63b8ff" points="877.05,-35.74 872.18,-26.33 870.12,-36.72 877.05,-35.74"/>
</g>
<!-- Node25&#45;&gt;Node6 -->
<g id="edge37" class="edge">
<title>Node25&#45;&gt;Node6</title>
<path fill="none" stroke="#63b8ff" d="M541.27,-176.69C588.34,-168.36 664.07,-154.43 729,-140 801.8,-123.82 885.67,-101.82 935.41,-88.42"/>
<polygon fill="#63b8ff" stroke="#63b8ff" points="936.19,-91.83 944.93,-85.84 934.36,-85.08 936.19,-91.83"/>
</g>
<!-- Node25&#45;&gt;Node7 -->
<g id="edge57" class="edge">
<title>Node25&#45;&gt;Node7</title>
<path fill="none" stroke="#63b8ff" d="M541.41,-177.99C675.5,-158.76 1068.73,-102.36 1203.25,-83.06"/>
<polygon fill="#63b8ff" stroke="#63b8ff" points="1203.45,-86.57 1212.85,-81.69 1202.45,-79.64 1203.45,-86.57"/>
</g>
<!-- Node25&#45;&gt;Node18 -->
<g id="edge58" class="edge">
<title>Node25&#45;&gt;Node18</title>
<path fill="none" stroke="#63b8ff" d="M520.97,-175.57C574.45,-156.44 700.23,-111.47 762.2,-89.3"/>
<polygon fill="#63b8ff" stroke="#63b8ff" points="763.34,-92.61 771.57,-85.95 760.98,-86.02 763.34,-92.61"/>
</g>
<!-- Node25&#45;&gt;Node19 -->
<g id="edge34" class="edge">
<title>Node25&#45;&gt;Node19</title>
<path fill="none" stroke="#63b8ff" d="M450.78,-182.18C368.97,-177.42 199.95,-164.84 147,-140 108.92,-122.14 64.72,-101.03 88,-66 105.74,-39.3 140.82,-26.83 168.31,-21.02"/>
<polygon fill="#63b8ff" stroke="#63b8ff" points="168.89,-24.47 178.07,-19.19 167.6,-17.59 168.89,-24.47"/>
</g>
<!-- Node25&#45;&gt;Node20 -->
<g id="edge35" class="edge">
<title>Node25&#45;&gt;Node20</title>
<path fill="none" stroke="#63b8ff" d="M450.78,-180.66C354.52,-171.41 134.85,-144.1 95,-85 90.28,-78 89.46,-72.38 95,-66 115.46,-42.43 323.27,-24.9 409.65,-18.57"/>
<polygon fill="#63b8ff" stroke="#63b8ff" points="409.77,-22.07 419.5,-17.86 409.27,-15.09 409.77,-22.07"/>
</g>
<!-- Node26 -->
<g id="node26" class="node">
<title>Node26</title>
<g id="a_node26"><a xlink:title=" ">
<polygon fill="#e0e0e0" stroke="#999999" points="164,-85 104,-85 104,-66 164,-66 164,-85"/>
<text text-anchor="middle" x="134" y="-73" font-family="Helvetica,sans-Serif" font-size="10.00">filesystem</text>
</a>
</g>
</g>
<!-- Node25&#45;&gt;Node26 -->
<g id="edge32" class="edge">
<title>Node25&#45;&gt;Node26</title>
<path fill="none" stroke="#63b8ff" d="M450.91,-177.55C407.75,-170.3 341.1,-157.54 285,-140 241,-126.25 192.18,-104.45 162.29,-90.31"/>
<polygon fill="#63b8ff" stroke="#63b8ff" points="164.07,-87.29 153.54,-86.13 161.05,-93.6 164.07,-87.29"/>
</g>
<!-- Node27 -->
<g id="node27" class="node">
<title>Node27</title>
<g id="a_node27"><a xlink:title=" ">
<polygon fill="#e0e0e0" stroke="#999999" points="232,-85 182,-85 182,-66 232,-66 232,-85"/>
<text text-anchor="middle" x="207" y="-73" font-family="Helvetica,sans-Serif" font-size="10.00">fstream</text>
</a>
</g>
</g>
<!-- Node25&#45;&gt;Node27 -->
<g id="edge33" class="edge">
<title>Node25&#45;&gt;Node27</title>
<path fill="none" stroke="#63b8ff" d="M453.17,-175.55C419.4,-167.88 371.41,-155.6 331,-140 295.23,-126.19 256.21,-105.13 231.68,-91.1"/>
<polygon fill="#63b8ff" stroke="#63b8ff" points="233.52,-88.12 223.11,-86.14 230.01,-94.18 233.52,-88.12"/>
</g>
<!-- Node28 -->
<g id="node28" class="node">
<title>Node28</title>
<g id="a_node28"><a xlink:title=" ">
<polygon fill="#e0e0e0" stroke="#999999" points="293.5,-85 250.5,-85 250.5,-66 293.5,-66 293.5,-85"/>
<text text-anchor="middle" x="272" y="-73" font-family="Helvetica,sans-Serif" font-size="10.00">fcntl.h</text>
</a>
</g>
</g>
<!-- Node25&#45;&gt;Node28 -->
<g id="edge38" class="edge">
<title>Node25&#45;&gt;Node28</title>
<path fill="none" stroke="#63b8ff" d="M462.45,-175.51C435.84,-167.77 398.09,-155.43 367,-140 339.59,-126.39 310.71,-106.13 292.09,-92.17"/>
<polygon fill="#63b8ff" stroke="#63b8ff" points="294.4,-89.52 284.32,-86.24 290.15,-95.09 294.4,-89.52"/>
</g>
<!-- Node29 -->
<g id="node29" class="node">
<title>Node29</title>
<g id="a_node29"><a xlink:title=" ">
<polygon fill="#e0e0e0" stroke="#999999" points="380.5,-85 311.5,-85 311.5,-66 380.5,-66 380.5,-85"/>
<text text-anchor="middle" x="346" y="-73" font-family="Helvetica,sans-Serif" font-size="10.00">sys/mman.h</text>
</a>
</g>
</g>
<!-- Node25&#45;&gt;Node29 -->
<g id="edge39" class="edge">
<title>Node25&#45;&gt;Node29</title>
<path fill="none" stroke="#63b8ff" d="M459.18,-175.57C436.53,-168.69 407.92,-157.36 387,-140 372.48,-127.96 361.34,-109.42 354.36,-95.47"/>
<polygon fill="#63b8ff" stroke="#63b8ff" points="357.55,-94.03 350.14,-86.46 351.21,-97 357.55,-94.03"/>
</g>
<!-- Node30 -->
<g id="node30" class="node">
<title>Node30</title>
<g id="a_node30"><a xlink:title=" ">
<polygon fill="#e0e0e0" stroke="#999999" points="572.5,-85 513.5,-85 513.5,-66 572.5,-66 572.5,-85"/>
<text text-anchor="middle" x="543" y="-73" font-family="Helvetica,sans-Serif" font-size="10.00">sys/stat.h</text>
</a>
</g>
</g>
<!-- Node25&#45;&gt;Node30 -->
<g id="edge40" class="edge">
<title>Node25&#45;&gt;Node30</title>
<path fill="none" stroke="#63b8ff" d="M504.63,-175.75C512.47,-167.31 523.72,-153.8 530,-140 536.29,-126.17 539.56,-109.27 541.25,-96.38"/>
<polygon fill="#63b8ff" stroke="#63b8ff" points="544.71,-96.91 542.3,-86.6 537.75,-96.17 544.71,-96.91"/>
</g>
<!-- Node31 -->
<g id="node31" class="node">
<title>Node31</title>
<g id="a_node31"><a xlink:title=" ">
<polygon fill="#e0e0e0" stroke="#999999" points="655.5,-85 590.5,-85 590.5,-66 655.5,-66 655.5,-85"/>
<text text-anchor="middle" x="623" y="-73" font-family="Helvetica,sans-Serif" font-size="10.00">sys/types.h</text>
</a>
</g>
</g>
<!-- Node25&#45;&gt;Node31 -->
<g id="edge41" class="edge">
<title>Node25&#45;&gt;Node31</title>
<path fill="none" stroke="#63b8ff" d="M506.39,-175.66C527.7,-157.55 576.6,-115.96 603.82,-92.81"/>
<polygon fill="#63b8ff" stroke="#63b8ff" points="605.96,-95.59 611.31,-86.44 601.43,-90.25 605.96,-95.59"/>
</g>
<!-- Node32 -->
<g id="node32" class="node">
<title>Node32</title>
<g id="a_node32"><a xlink:title=" ">
<polygon fill="#e0e0e0" stroke="#999999" points="724,-85 674,-85 674,-66 724,-66 724,-85"/>
<text text-anchor="middle" x="699" y="-73" font-family="Helvetica,sans-Serif" font-size="10.00">unistd.h</text>
</a>
</g>
</g>
<!-- Node25&#45;&gt;Node32 -->
<g id="edge42" class="edge">
<title>Node25&#45;&gt;Node32</title>
<path fill="none" stroke="#63b8ff" d="M512.61,-175.66C547.7,-156.99 629.65,-113.4 672.23,-90.74"/>
<polygon fill="#63b8ff" stroke="#63b8ff" points="673.64,-93.96 680.82,-86.17 670.35,-87.78 673.64,-93.96"/>
</g>
<!-- Node33 -->
<g id="node33" class="node">
<title>Node33</title>
<g id="a_node33"><a xlink:href="_hw_accessor_8hpp.html" target="_top" xlink:title=" ">
<polygon fill="white" stroke="#666666" points="521.5,-140 396.5,-140 396.5,-121 521.5,-121 521.5,-140"/>
<text text-anchor="middle" x="459" y="-128" font-family="Helvetica,sans-Serif" font-size="10.00">udmaio/HwAccessor.hpp</text>
</a>
</g>
</g>
<!-- Node25&#45;&gt;Node33 -->
<g id="edge43" class="edge">
<title>Node25&#45;&gt;Node33</title>
<path fill="none" stroke="#63b8ff" d="M489.89,-175.75C484.99,-168.73 477.95,-158.64 471.83,-149.87"/>
<polygon fill="#63b8ff" stroke="#63b8ff" points="474.7,-147.88 466.11,-141.68 468.96,-151.89 474.7,-147.88"/>
</g>
<!-- Node33&#45;&gt;Node3 -->
<g id="edge48" class="edge">
<title>Node33&#45;&gt;Node3</title>
<path fill="none" stroke="#63b8ff" d="M462.39,-120.71C468.39,-106.48 482.32,-78.72 504,-66 633.54,9.99 695.32,-70.3 840,-30 840.99,-29.72 841.99,-29.42 843,-29.09"/>
<polygon fill="#63b8ff" stroke="#63b8ff" points="844.17,-32.39 852.15,-25.42 841.56,-25.89 844.17,-32.39"/>
</g>
<!-- Node33&#45;&gt;Node6 -->
<g id="edge49" class="edge">
<title>Node33&#45;&gt;Node6</title>
<path fill="none" stroke="#63b8ff" d="M521.98,-123.08C616.59,-113.44 795.32,-95.22 899.01,-84.65"/>
<polygon fill="#63b8ff" stroke="#63b8ff" points="899.25,-88.15 908.85,-83.65 898.54,-81.18 899.25,-88.15"/>
</g>
<!-- Node33&#45;&gt;Node7 -->
<g id="edge55" class="edge">
<title>Node33&#45;&gt;Node7</title>
<path fill="none" stroke="#63b8ff" d="M521.98,-125.27C675.96,-114.94 1068.65,-88.6 1203.06,-79.58"/>
<polygon fill="#63b8ff" stroke="#63b8ff" points="1202.89,-83.1 1212.64,-78.94 1202.42,-76.12 1202.89,-83.1"/>
</g>
<!-- Node33&#45;&gt;Node18 -->
<g id="edge56" class="edge">
<title>Node33&#45;&gt;Node18</title>
<path fill="none" stroke="#63b8ff" d="M516.51,-120.51C575.81,-111.24 668.23,-96.79 730.85,-87"/>
<polygon fill="#63b8ff" stroke="#63b8ff" points="731.35,-90.46 740.69,-85.46 730.27,-83.55 731.35,-90.46"/>
</g>
<!-- Node33&#45;&gt;Node19 -->
<g id="edge46" class="edge">
<title>Node33&#45;&gt;Node19</title>
<path fill="none" stroke="#63b8ff" d="M451.78,-120.71C440.05,-106.98 415.46,-80.54 389,-66 343.19,-40.83 283.82,-27.62 245.56,-21.23"/>
<polygon fill="#63b8ff" stroke="#63b8ff" points="246.32,-17.81 235.9,-19.7 245.23,-24.72 246.32,-17.81"/>
</g>
<!-- Node33&#45;&gt;Node20 -->
<g id="edge47" class="edge">
<title>Node33&#45;&gt;Node20</title>
<path fill="none" stroke="#63b8ff" d="M458.06,-120.59C456.15,-102.53 451.78,-61.17 449.14,-36.21"/>
<polygon fill="#63b8ff" stroke="#63b8ff" points="452.63,-35.95 448.1,-26.37 445.67,-36.68 452.63,-35.95"/>
</g>
<!-- Node33&#45;&gt;Node26 -->
<g id="edge44" class="edge">
<title>Node33&#45;&gt;Node26</title>
<path fill="none" stroke="#63b8ff" d="M396.05,-120.82C340.53,-112.91 257.17,-100.42 175.45,-85.36"/>
<polygon fill="#63b8ff" stroke="#63b8ff" points="176.16,-81.93 165.69,-83.55 174.88,-88.82 176.16,-81.93"/>
</g>
<!-- Node33&#45;&gt;Node27 -->
<g id="edge45" class="edge">
<title>Node33&#45;&gt;Node27</title>
<path fill="none" stroke="#63b8ff" d="M412.1,-120.54C370.28,-112.41 307.14,-99.81 243.3,-85.45"/>
<polygon fill="#63b8ff" stroke="#63b8ff" points="244.22,-82.07 233.7,-83.27 242.68,-88.89 244.22,-82.07"/>
</g>
<!-- Node33&#45;&gt;Node28 -->
<g id="edge50" class="edge">
<title>Node33&#45;&gt;Node28</title>
<path fill="none" stroke="#63b8ff" d="M427.28,-120.51C393.2,-110.85 339.31,-95.58 304.81,-85.8"/>
<polygon fill="#63b8ff" stroke="#63b8ff" points="305.95,-82.48 295.37,-83.12 304.04,-89.22 305.95,-82.48"/>
</g>
<!-- Node33&#45;&gt;Node29 -->
<g id="edge51" class="edge">
<title>Node33&#45;&gt;Node29</title>
<path fill="none" stroke="#63b8ff" d="M439.83,-120.51C422.11,-112.2 395.52,-99.73 375.17,-90.18"/>
<polygon fill="#63b8ff" stroke="#63b8ff" points="376.8,-87.08 366.26,-86 373.82,-93.42 376.8,-87.08"/>
</g>
<!-- Node33&#45;&gt;Node30 -->
<g id="edge52" class="edge">
<title>Node33&#45;&gt;Node30</title>
<path fill="none" stroke="#63b8ff" d="M473.25,-120.51C485.88,-112.54 504.56,-100.75 519.41,-91.38"/>
<polygon fill="#63b8ff" stroke="#63b8ff" points="521.09,-94.46 527.68,-86.17 517.36,-88.54 521.09,-94.46"/>
</g>
<!-- Node33&#45;&gt;Node31 -->
<g id="edge53" class="edge">
<title>Node33&#45;&gt;Node31</title>
<path fill="none" stroke="#63b8ff" d="M486.82,-120.51C513.64,-111.84 554.46,-98.65 584.42,-88.97"/>
<polygon fill="#63b8ff" stroke="#63b8ff" points="585.44,-92.32 593.88,-85.91 583.29,-85.66 585.44,-92.32"/>
</g>
<!-- Node33&#45;&gt;Node32 -->
<g id="edge54" class="edge">
<title>Node33&#45;&gt;Node32</title>
<path fill="none" stroke="#63b8ff" d="M502.49,-120.53C541.88,-112.31 601.79,-99.58 662.78,-85.46"/>
<polygon fill="#63b8ff" stroke="#63b8ff" points="663.35,-88.92 672.3,-83.25 661.76,-82.1 663.35,-88.92"/>
</g>
<!-- Node34&#45;&gt;Node17 -->
<g id="edge61" class="edge">
<title>Node34&#45;&gt;Node17</title>
<path fill="none" stroke="#63b8ff" d="M656,-230.75C656,-224.27 656,-215.16 656,-206.9"/>
<polygon fill="#63b8ff" stroke="#63b8ff" points="659.5,-206.96 656,-196.96 652.5,-206.96 659.5,-206.96"/>
</g>
<!-- Node35&#45;&gt;Node16 -->
<g id="edge63" class="edge">
<title>Node35&#45;&gt;Node16</title>
<path fill="none" stroke="#63b8ff" d="M744.97,-291.37C752.94,-282.73 765.43,-269.2 775.39,-258.42"/>
<polygon fill="#63b8ff" stroke="#63b8ff" points="777.76,-261 781.97,-251.28 772.62,-256.25 777.76,-261"/>
</g>
<!-- Node35&#45;&gt;Node24 -->
<g id="edge64" class="edge">
<title>Node35&#45;&gt;Node24</title>
<path fill="none" stroke="#63b8ff" d="M706.02,-291.12C671.12,-281.11 614.2,-264.79 575.25,-253.62"/>
<polygon fill="#63b8ff" stroke="#63b8ff" points="576.31,-250.28 565.73,-250.89 574.38,-257.01 576.31,-250.28"/>
</g>
</g>
</svg>
