<?xml version="1.0" encoding="UTF-8" standalone="no"?>
<!DOCTYPE svg PUBLIC "-//W3C//DTD SVG 1.1//EN"
 "http://www.w3.org/Graphics/SVG/1.1/DTD/svg11.dtd">
<!-- Generated by graphviz version 7.0.5 (20221223.1930)
 -->
<!-- Title: DataHandlerAbstract.hpp Pages: 1 -->
<!--zoomable 379 -->
<svg id="main" version="1.1" xmlns="http://www.w3.org/2000/svg" xmlns:xlink="http://www.w3.org/1999/xlink" xml:space="preserve" onload="init(evt)">
<style type="text/css"><![CDATA[
.edge:hover path { stroke: red; }
.edge:hover polygon { stroke: red; fill: red; }
]]></style>
<script type="text/javascript"><![CDATA[
var edges = document.getElementsByTagName('g');
if (edges && edges.length) {
  for (var i=0;i<edges.length;i++) {
    if (edges[i].id.substr(0,4)=='edge') {
      edges[i].setAttribute('class','edge');
    }
  }
}
]]></script>
        <defs>
                <circle id="rim" cx="0" cy="0" r="7"/>
                <circle id="rim2" cx="0" cy="0" r="3.5"/>
                <g id="zoomPlus">
                        <use xlink:href="#rim" fill="#404040">
                                <set attributeName="fill" to="#808080" begin="zoomplus.mouseover" end="zoomplus.mouseout"/>
                        </use>
                        <path d="M-4,0h8M0,-4v8" fill="none" stroke="white" stroke-width="1.5" pointer-events="none"/>
                </g>
                <g id="zoomMin">
                        <use xlink:href="#rim" fill="#404040">
                                <set attributeName="fill" to="#808080" begin="zoomminus.mouseover" end="zoomminus.mouseout"/>
                        </use>
                        <path d="M-4,0h8" fill="none" stroke="white" stroke-width="1.5" pointer-events="none"/>
                </g>
                <g id="dirArrow">
                        <path fill="none" stroke="white" stroke-width="1.5" d="M0,-3.0v7 M-2.5,-0.5L0,-3.0L2.5,-0.5"/>
                </g>
               <g id="resetDef">
                       <use xlink:href="#rim2" fill="#404040">
                               <set attributeName="fill" to="#808080" begin="reset.mouseover" end="reset.mouseout"/>
                       </use>
               </g>
        </defs>

<script type="text/javascript">
var viewWidth = 1706;
var viewHeight = 379;
var sectionId = 'dynsection-0';
</script>
<script xlink:href="svgpan.js"/>
<svg id="graph" class="graph">
<g id="viewport">
<title>DataHandlerAbstract.hpp</title>
<!-- Node1 -->
<g id="node1" class="node">
<title>Node1</title>
<g id="a_node1"><a xlink:title=" ">
<polygon fill="#999999" stroke="#666666" points="1332,-371 1207,-371 1207,-352 1332,-352 1332,-371"/>
<text text-anchor="middle" x="1269.5" y="-359" font-family="Helvetica,sans-Serif" font-size="10.00">DataHandlerAbstract.hpp</text>
</a>
</g>
</g>
<!-- Node2 -->
<g id="node2" class="node">
<title>Node2</title>
<g id="a_node2"><a xlink:title=" ">
<polygon fill="#e0e0e0" stroke="#999999" points="968,-24.5 927,-24.5 927,-5.5 968,-5.5 968,-24.5"/>
<text text-anchor="middle" x="947.5" y="-12.5" font-family="Helvetica,sans-Serif" font-size="10.00">string</text>
</a>
</g>
</g>
<!-- Node1&#45;&gt;Node2 -->
<g id="edge1" class="edge">
<title>Node1&#45;&gt;Node2</title>
<path fill="none" stroke="#63b8ff" d="M1206.64,-355.01C1049.02,-340.4 649.5,-297.81 649.5,-241.5 649.5,-241.5 649.5,-241.5 649.5,-129.5 649.5,-87.82 681.18,-84.56 718.5,-66 798.98,-25.98 831.84,-57.23 917.5,-30 918.3,-29.75 919.11,-29.47 919.92,-29.19"/>
<polygon fill="#63b8ff" stroke="#63b8ff" points="921.02,-32.52 928.95,-25.5 918.37,-26.04 921.02,-32.52"/>
</g>
<!-- Node3 -->
<g id="node3" class="node">
<title>Node3</title>
<g id="a_node3"><a xlink:title=" ">
<polygon fill="#e0e0e0" stroke="#999999" points="1418.5,-195 1374.5,-195 1374.5,-176 1418.5,-176 1418.5,-195"/>
<text text-anchor="middle" x="1396.5" y="-183" font-family="Helvetica,sans-Serif" font-size="10.00">vector</text>
</a>
</g>
</g>
<!-- Node1&#45;&gt;Node3 -->
<g id="edge2" class="edge">
<title>Node1&#45;&gt;Node3</title>
<path fill="none" stroke="#63b8ff" d="M1285.36,-351.55C1298.46,-343.55 1316.89,-330.82 1329.5,-316 1358.52,-281.9 1379.43,-233.09 1389.58,-206.18"/>
<polygon fill="#63b8ff" stroke="#63b8ff" points="1392.82,-207.51 1392.95,-196.91 1386.24,-205.11 1392.82,-207.51"/>
</g>
<!-- Node4 -->
<g id="node4" class="node">
<title>Node4</title>
<g id="a_node4"><a xlink:title=" ">
<polygon fill="#e0e0e0" stroke="#999999" points="1554.5,-310.5 1474.5,-310.5 1474.5,-291.5 1554.5,-291.5 1554.5,-310.5"/>
<text text-anchor="middle" x="1514.5" y="-298.5" font-family="Helvetica,sans-Serif" font-size="10.00">boost/asio.hpp</text>
</a>
</g>
</g>
<!-- Node1&#45;&gt;Node4 -->
<g id="edge3" class="edge">
<title>Node1&#45;&gt;Node4</title>
<path fill="none" stroke="#63b8ff" d="M1309.08,-351.58C1347.75,-342.79 1408.26,-328.85 1460.5,-316 1463.44,-315.28 1466.47,-314.52 1469.52,-313.75"/>
<polygon fill="#63b8ff" stroke="#63b8ff" points="1470.25,-317.18 1479.07,-311.31 1468.52,-310.39 1470.25,-317.18"/>
</g>
<!-- Node5 -->
<g id="node5" class="node">
<title>Node5</title>
<g id="a_node5"><a xlink:title=" ">
<polygon fill="#e0e0e0" stroke="#999999" points="1698,-85 1561,-85 1561,-66 1698,-66 1698,-85"/>
<text text-anchor="middle" x="1629.5" y="-73" font-family="Helvetica,sans-Serif" font-size="10.00">boost/core/noncopyable.hpp</text>
</a>
</g>
</g>
<!-- Node1&#45;&gt;Node5 -->
<g id="edge4" class="edge">
<title>Node1&#45;&gt;Node5</title>
<path fill="none" stroke="#63b8ff" d="M1312.35,-351.52C1364.73,-337.75 1446.5,-305.93 1446.5,-241.5 1446.5,-241.5 1446.5,-241.5 1446.5,-184.5 1446.5,-128.88 1509.98,-101.31 1562.16,-88.05"/>
<polygon fill="#63b8ff" stroke="#63b8ff" points="1562.72,-91.51 1571.63,-85.78 1561.09,-84.71 1562.72,-91.51"/>
</g>
<!-- Node6 -->
<g id="node6" class="node">
<title>Node6</title>
<g id="a_node6"><a xlink:href="_logging_8hpp.html" target="_top" xlink:title=" ">
<polygon fill="white" stroke="#666666" points="620,-85 551,-85 551,-66 620,-66 620,-85"/>
<text text-anchor="middle" x="585.5" y="-73" font-family="Helvetica,sans-Serif" font-size="10.00">Logging.hpp</text>
</a>
</g>
</g>
<!-- Node1&#45;&gt;Node6 -->
<g id="edge5" class="edge">
<title>Node1&#45;&gt;Node6</title>
<path fill="none" stroke="#63b8ff" d="M1206.75,-354.7C1152.76,-348.58 1073.25,-336.85 1006.5,-316 830.38,-261 772.09,-258.31 630.5,-140 615.61,-127.56 603.26,-109.09 595.29,-95.28"/>
<polygon fill="#63b8ff" stroke="#63b8ff" points="598.48,-93.81 590.6,-86.72 592.34,-97.18 598.48,-93.81"/>
</g>
<!-- Node14 -->
<g id="node14" class="node">
<title>Node14</title>
<g id="a_node14"><a xlink:href="_u_dma_buf_8hpp.html" target="_top" xlink:title=" ">
<polygon fill="white" stroke="#666666" points="1200,-310.5 1123,-310.5 1123,-291.5 1200,-291.5 1200,-310.5"/>
<text text-anchor="middle" x="1161.5" y="-298.5" font-family="Helvetica,sans-Serif" font-size="10.00">UDmaBuf.hpp</text>
</a>
</g>
</g>
<!-- Node1&#45;&gt;Node14 -->
<g id="edge14" class="edge">
<title>Node1&#45;&gt;Node14</title>
<path fill="none" stroke="#63b8ff" d="M1253.1,-351.62C1235.81,-342.25 1208.32,-327.36 1187.96,-316.33"/>
<polygon fill="#63b8ff" stroke="#63b8ff" points="1189.85,-313.37 1179.39,-311.69 1186.51,-319.53 1189.85,-313.37"/>
</g>
<!-- Node22 -->
<g id="node22" class="node">
<title>Node22</title>
<g id="a_node22"><a xlink:href="_uio_axi_dma_if_8hpp.html" target="_top" xlink:title=" ">
<polygon fill="white" stroke="#666666" points="1105,-310.5 1016,-310.5 1016,-291.5 1105,-291.5 1105,-310.5"/>
<text text-anchor="middle" x="1060.5" y="-298.5" font-family="Helvetica,sans-Serif" font-size="10.00">UioAxiDmaIf.hpp</text>
</a>
</g>
</g>
<!-- Node1&#45;&gt;Node22 -->
<g id="edge26" class="edge">
<title>Node1&#45;&gt;Node22</title>
<path fill="none" stroke="#63b8ff" d="M1237.76,-351.62C1201.93,-341.59 1143.44,-325.22 1103.53,-314.04"/>
<polygon fill="#63b8ff" stroke="#63b8ff" points="1104.57,-310.7 1094,-311.38 1102.69,-317.44 1104.57,-310.7"/>
</g>
<!-- Node34 -->
<g id="node34" class="node">
<title>Node34</title>
<g id="a_node34"><a xlink:href="_uio_mem_sgdma_8hpp.html" target="_top" xlink:title=" ">
<polygon fill="white" stroke="#666666" points="1320.5,-310.5 1218.5,-310.5 1218.5,-291.5 1320.5,-291.5 1320.5,-310.5"/>
<text text-anchor="middle" x="1269.5" y="-298.5" font-family="Helvetica,sans-Serif" font-size="10.00">UioMemSgdma.hpp</text>
</a>
</g>
</g>
<!-- Node1&#45;&gt;Node34 -->
<g id="edge60" class="edge">
<title>Node1&#45;&gt;Node34</title>
<path fill="none" stroke="#63b8ff" d="M1269.5,-351.87C1269.5,-344 1269.5,-332.1 1269.5,-321.89"/>
<polygon fill="#63b8ff" stroke="#63b8ff" points="1273,-322.18 1269.5,-312.18 1266,-322.18 1273,-322.18"/>
</g>
<!-- Node35 -->
<g id="node35" class="node">
<title>Node35</title>
<g id="a_node35"><a xlink:title=" ">
<polygon fill="#e0e0e0" stroke="#999999" points="1692.5,-316 1572.5,-316 1572.5,-286 1692.5,-286 1692.5,-316"/>
<text text-anchor="start" x="1580.5" y="-304" font-family="Helvetica,sans-Serif" font-size="10.00">boost/asio/posix/stream</text>
<text text-anchor="middle" x="1632.5" y="-293" font-family="Helvetica,sans-Serif" font-size="10.00">_descriptor.hpp</text>
</a>
</g>
</g>
<!-- Node1&#45;&gt;Node35 -->
<g id="edge63" class="edge">
<title>Node1&#45;&gt;Node35</title>
<path fill="none" stroke="#63b8ff" d="M1332.45,-351.9C1389.58,-343.89 1476.4,-331.18 1561.19,-316.36"/>
<polygon fill="#63b8ff" stroke="#63b8ff" points="1561.59,-319.84 1570.83,-314.66 1560.38,-312.94 1561.59,-319.84"/>
</g>
<!-- Node6&#45;&gt;Node2 -->
<g id="edge6" class="edge">
<title>Node6&#45;&gt;Node2</title>
<path fill="none" stroke="#63b8ff" d="M620.44,-68.37C625.49,-67.54 630.62,-66.73 635.5,-66 760.48,-47.41 796.13,-65.14 917.5,-30 918.47,-29.72 919.44,-29.41 920.42,-29.08"/>
<polygon fill="#63b8ff" stroke="#63b8ff" points="921.35,-32.48 929.32,-25.5 918.73,-25.99 921.35,-32.48"/>
</g>
<!-- Node7 -->
<g id="node7" class="node">
<title>Node7</title>
<g id="a_node7"><a xlink:title=" ">
<polygon fill="#e0e0e0" stroke="#999999" points="366.5,-24.5 270.5,-24.5 270.5,-5.5 366.5,-5.5 366.5,-24.5"/>
<text text-anchor="middle" x="318.5" y="-12.5" font-family="Helvetica,sans-Serif" font-size="10.00">boost/log/core.hpp</text>
</a>
</g>
</g>
<!-- Node6&#45;&gt;Node7 -->
<g id="edge7" class="edge">
<title>Node6&#45;&gt;Node7</title>
<path fill="none" stroke="#63b8ff" d="M550.87,-67.52C509.18,-59.03 437.08,-44.08 375.5,-30 372.18,-29.24 368.76,-28.44 365.31,-27.62"/>
<polygon fill="#63b8ff" stroke="#63b8ff" points="366.35,-24.28 355.81,-25.34 364.71,-31.08 366.35,-24.28"/>
</g>
<!-- Node8 -->
<g id="node8" class="node">
<title>Node8</title>
<g id="a_node8"><a xlink:title=" ">
<polygon fill="#e0e0e0" stroke="#999999" points="514,-24.5 385,-24.5 385,-5.5 514,-5.5 514,-24.5"/>
<text text-anchor="middle" x="449.5" y="-12.5" font-family="Helvetica,sans-Serif" font-size="10.00">boost/log/expressions.hpp</text>
</a>
</g>
</g>
<!-- Node6&#45;&gt;Node8 -->
<g id="edge8" class="edge">
<title>Node6&#45;&gt;Node8</title>
<path fill="none" stroke="#63b8ff" d="M564.84,-65.62C542.48,-55.99 506.54,-40.54 480.73,-29.43"/>
<polygon fill="#63b8ff" stroke="#63b8ff" points="482.31,-26.3 471.74,-25.57 479.54,-32.73 482.31,-26.3"/>
</g>
<!-- Node9 -->
<g id="node9" class="node">
<title>Node9</title>
<g id="a_node9"><a xlink:title=" ">
<polygon fill="#e0e0e0" stroke="#999999" points="633,-24.5 532,-24.5 532,-5.5 633,-5.5 633,-24.5"/>
<text text-anchor="middle" x="582.5" y="-12.5" font-family="Helvetica,sans-Serif" font-size="10.00">boost/log/trivial.hpp</text>
</a>
</g>
</g>
<!-- Node6&#45;&gt;Node9 -->
<g id="edge9" class="edge">
<title>Node6&#45;&gt;Node9</title>
<path fill="none" stroke="#63b8ff" d="M585.06,-65.87C584.65,-58 584.04,-46.1 583.52,-35.89"/>
<polygon fill="#63b8ff" stroke="#63b8ff" points="587.03,-35.99 583.02,-26.18 580.04,-36.35 587.03,-35.99"/>
</g>
<!-- Node10 -->
<g id="node10" class="node">
<title>Node10</title>
<g id="a_node10"><a xlink:title=" ">
<polygon fill="#e0e0e0" stroke="#999999" points="760,-30 651,-30 651,0 760,0 760,-30"/>
<text text-anchor="start" x="659" y="-18" font-family="Helvetica,sans-Serif" font-size="10.00">boost/log/utility/setup</text>
<text text-anchor="middle" x="705.5" y="-7" font-family="Helvetica,sans-Serif" font-size="10.00">/console.hpp</text>
</a>
</g>
</g>
<!-- Node6&#45;&gt;Node10 -->
<g id="edge10" class="edge">
<title>Node6&#45;&gt;Node10</title>
<path fill="none" stroke="#63b8ff" d="M603.73,-65.62C620.1,-57.63 644.73,-45.63 665.65,-35.43"/>
<polygon fill="#63b8ff" stroke="#63b8ff" points="667.06,-38.63 674.52,-31.1 664,-32.34 667.06,-38.63"/>
</g>
<!-- Node11 -->
<g id="node11" class="node">
<title>Node11</title>
<g id="a_node11"><a xlink:title=" ">
<polygon fill="#e0e0e0" stroke="#999999" points="909,-30 778,-30 778,0 909,0 909,-30"/>
<text text-anchor="start" x="786" y="-18" font-family="Helvetica,sans-Serif" font-size="10.00">boost/log/sources/severity</text>
<text text-anchor="middle" x="843.5" y="-7" font-family="Helvetica,sans-Serif" font-size="10.00">_channel_logger.hpp</text>
</a>
</g>
</g>
<!-- Node6&#45;&gt;Node11 -->
<g id="edge11" class="edge">
<title>Node6&#45;&gt;Node11</title>
<path fill="none" stroke="#63b8ff" d="M620.3,-66.61C658.07,-58.05 719.53,-44.11 768.4,-33.03"/>
<polygon fill="#63b8ff" stroke="#63b8ff" points="769.13,-36.45 778.1,-30.83 767.58,-29.63 769.13,-36.45"/>
</g>
<!-- Node12 -->
<g id="node12" class="node">
<title>Node12</title>
<g id="a_node12"><a xlink:title=" ">
<polygon fill="#e0e0e0" stroke="#999999" points="113,-30 0,-30 0,0 113,0 113,-30"/>
<text text-anchor="start" x="8" y="-18" font-family="Helvetica,sans-Serif" font-size="10.00">boost/log/support/date</text>
<text text-anchor="middle" x="56.5" y="-7" font-family="Helvetica,sans-Serif" font-size="10.00">_time.hpp</text>
</a>
</g>
</g>
<!-- Node6&#45;&gt;Node12 -->
<g id="edge12" class="edge">
<title>Node6&#45;&gt;Node12</title>
<path fill="none" stroke="#63b8ff" d="M550.69,-72.55C474.97,-68.02 289.42,-55.3 124.48,-30.35"/>
<polygon fill="#63b8ff" stroke="#63b8ff" points="125.06,-26.89 114.64,-28.84 124,-33.81 125.06,-26.89"/>
</g>
<!-- Node13 -->
<g id="node13" class="node">
<title>Node13</title>
<g id="a_node13"><a xlink:title=" ">
<polygon fill="#e0e0e0" stroke="#999999" points="252,-30 131,-30 131,0 252,0 252,-30"/>
<text text-anchor="start" x="139" y="-18" font-family="Helvetica,sans-Serif" font-size="10.00">boost/log/utility/setup</text>
<text text-anchor="middle" x="191.5" y="-7" font-family="Helvetica,sans-Serif" font-size="10.00">/common_attributes.hpp</text>
</a>
</g>
</g>
<!-- Node6&#45;&gt;Node13 -->
<g id="edge13" class="edge">
<title>Node6&#45;&gt;Node13</title>
<path fill="none" stroke="#63b8ff" d="M550.87,-70.45C493.4,-63.57 374.47,-48.69 263.25,-30.22"/>
<polygon fill="#63b8ff" stroke="#63b8ff" points="264.1,-26.82 253.66,-28.62 262.94,-33.72 264.1,-26.82"/>
</g>
<!-- Node14&#45;&gt;Node6 -->
<g id="edge25" class="edge">
<title>Node14&#45;&gt;Node6</title>
<path fill="none" stroke="#63b8ff" d="M1131.15,-291.03C1029.42,-260.88 704.51,-163.7 661.5,-140 638.55,-127.36 616,-107.27 601.5,-93.08"/>
<polygon fill="#63b8ff" stroke="#63b8ff" points="604.18,-90.81 594.65,-86.19 599.22,-95.75 604.18,-90.81"/>
</g>
<!-- Node15 -->
<g id="node15" class="node">
<title>Node15</title>
<g id="a_node15"><a xlink:href="_dma_buffer_abstract_8hpp.html" target="_top" xlink:title=" ">
<polygon fill="white" stroke="#666666" points="1328,-250 1211,-250 1211,-231 1328,-231 1328,-250"/>
<text text-anchor="middle" x="1269.5" y="-238" font-family="Helvetica,sans-Serif" font-size="10.00">DmaBufferAbstract.hpp</text>
</a>
</g>
</g>
<!-- Node14&#45;&gt;Node15 -->
<g id="edge15" class="edge">
<title>Node14&#45;&gt;Node15</title>
<path fill="none" stroke="#63b8ff" d="M1177.9,-291.12C1195.19,-281.75 1222.68,-266.86 1243.04,-255.83"/>
<polygon fill="#63b8ff" stroke="#63b8ff" points="1244.49,-259.03 1251.61,-251.19 1241.15,-252.87 1244.49,-259.03"/>
</g>
<!-- Node15&#45;&gt;Node3 -->
<g id="edge17" class="edge">
<title>Node15&#45;&gt;Node3</title>
<path fill="none" stroke="#63b8ff" d="M1291.04,-230.51C1311.24,-222.08 1341.67,-209.38 1364.66,-199.79"/>
<polygon fill="#63b8ff" stroke="#63b8ff" points="1366,-203.02 1373.88,-195.94 1363.3,-196.56 1366,-203.02"/>
</g>
<!-- Node15&#45;&gt;Node5 -->
<g id="edge18" class="edge">
<title>Node15&#45;&gt;Node5</title>
<path fill="none" stroke="#63b8ff" d="M1278.55,-230.79C1301.95,-208.78 1367.17,-150.6 1432.5,-121 1469.26,-104.35 1512.78,-93.67 1549.56,-86.97"/>
<polygon fill="#63b8ff" stroke="#63b8ff" points="1550.01,-90.44 1559.25,-85.27 1548.8,-83.55 1550.01,-90.44"/>
</g>
<!-- Node16 -->
<g id="node16" class="node">
<title>Node16</title>
<g id="a_node16"><a xlink:title=" ">
<polygon fill="#e0e0e0" stroke="#999999" points="1181.5,-195 1135.5,-195 1135.5,-176 1181.5,-176 1181.5,-195"/>
<text text-anchor="middle" x="1158.5" y="-183" font-family="Helvetica,sans-Serif" font-size="10.00">cstdint</text>
</a>
</g>
</g>
<!-- Node15&#45;&gt;Node16 -->
<g id="edge16" class="edge">
<title>Node15&#45;&gt;Node16</title>
<path fill="none" stroke="#63b8ff" d="M1250.67,-230.51C1233.34,-222.24 1207.39,-209.84 1187.43,-200.31"/>
<polygon fill="#63b8ff" stroke="#63b8ff" points="1188.95,-197.16 1178.42,-196.01 1185.93,-203.48 1188.95,-197.16"/>
</g>
<!-- Node17 -->
<g id="node17" class="node">
<title>Node17</title>
<g id="a_node17"><a xlink:href="_uio_config_8hpp.html" target="_top" xlink:title=" ">
<polygon fill="white" stroke="#666666" points="1150,-85 1039,-85 1039,-66 1150,-66 1150,-85"/>
<text text-anchor="middle" x="1094.5" y="-73" font-family="Helvetica,sans-Serif" font-size="10.00">udmaio/UioConfig.hpp</text>
</a>
</g>
</g>
<!-- Node15&#45;&gt;Node17 -->
<g id="edge19" class="edge">
<title>Node15&#45;&gt;Node17</title>
<path fill="none" stroke="#63b8ff" d="M1259.84,-230.5C1231.57,-204.17 1148.68,-126.97 1112.14,-92.93"/>
<polygon fill="#63b8ff" stroke="#63b8ff" points="1114.73,-90.56 1105.02,-86.3 1109.95,-95.68 1114.73,-90.56"/>
</g>
<!-- Node17&#45;&gt;Node2 -->
<g id="edge23" class="edge">
<title>Node17&#45;&gt;Node2</title>
<path fill="none" stroke="#63b8ff" d="M1068.92,-65.6C1044.84,-57.04 1007.89,-43.46 976.5,-30 976.28,-29.9 976.05,-29.81 975.82,-29.71"/>
<polygon fill="#63b8ff" stroke="#63b8ff" points="977.41,-26.59 966.86,-25.62 974.51,-32.95 977.41,-26.59"/>
</g>
<!-- Node18 -->
<g id="node18" class="node">
<title>Node18</title>
<g id="a_node18"><a xlink:title=" ">
<polygon fill="#e0e0e0" stroke="#999999" points="1270.5,-24.5 1216.5,-24.5 1216.5,-5.5 1270.5,-5.5 1270.5,-24.5"/>
<text text-anchor="middle" x="1243.5" y="-12.5" font-family="Helvetica,sans-Serif" font-size="10.00">iostream</text>
</a>
</g>
</g>
<!-- Node17&#45;&gt;Node18 -->
<g id="edge20" class="edge">
<title>Node17&#45;&gt;Node18</title>
<path fill="none" stroke="#63b8ff" d="M1117.13,-65.62C1141.85,-55.91 1181.71,-40.26 1210.04,-29.14"/>
<polygon fill="#63b8ff" stroke="#63b8ff" points="1211.22,-32.43 1219.25,-25.52 1208.66,-25.92 1211.22,-32.43"/>
</g>
<!-- Node19 -->
<g id="node19" class="node">
<title>Node19</title>
<g id="a_node19"><a xlink:title=" ">
<polygon fill="#e0e0e0" stroke="#999999" points="1037,-24.5 986,-24.5 986,-5.5 1037,-5.5 1037,-24.5"/>
<text text-anchor="middle" x="1011.5" y="-12.5" font-family="Helvetica,sans-Serif" font-size="10.00">memory</text>
</a>
</g>
</g>
<!-- Node17&#45;&gt;Node19 -->
<g id="edge21" class="edge">
<title>Node17&#45;&gt;Node19</title>
<path fill="none" stroke="#63b8ff" d="M1081.89,-65.62C1069.1,-56.6 1049.02,-42.45 1033.58,-31.56"/>
<polygon fill="#63b8ff" stroke="#63b8ff" points="1035.65,-28.74 1025.46,-25.84 1031.62,-34.46 1035.65,-28.74"/>
</g>
<!-- Node20 -->
<g id="node20" class="node">
<title>Node20</title>
<g id="a_node20"><a xlink:title=" ">
<polygon fill="#e0e0e0" stroke="#999999" points="1114,-24.5 1055,-24.5 1055,-5.5 1114,-5.5 1114,-24.5"/>
<text text-anchor="middle" x="1084.5" y="-12.5" font-family="Helvetica,sans-Serif" font-size="10.00">stdexcept</text>
</a>
</g>
</g>
<!-- Node17&#45;&gt;Node20 -->
<g id="edge22" class="edge">
<title>Node17&#45;&gt;Node20</title>
<path fill="none" stroke="#63b8ff" d="M1093.02,-65.87C1091.68,-58 1089.64,-46.1 1087.9,-35.89"/>
<polygon fill="#63b8ff" stroke="#63b8ff" points="1091.37,-35.43 1086.24,-26.16 1084.47,-36.61 1091.37,-35.43"/>
</g>
<!-- Node21 -->
<g id="node21" class="node">
<title>Node21</title>
<g id="a_node21"><a xlink:title=" ">
<polygon fill="#e0e0e0" stroke="#999999" points="1198.5,-24.5 1132.5,-24.5 1132.5,-5.5 1198.5,-5.5 1198.5,-24.5"/>
<text text-anchor="middle" x="1165.5" y="-12.5" font-family="Helvetica,sans-Serif" font-size="10.00">string_view</text>
</a>
</g>
</g>
<!-- Node17&#45;&gt;Node21 -->
<g id="edge24" class="edge">
<title>Node17&#45;&gt;Node21</title>
<path fill="none" stroke="#63b8ff" d="M1105.28,-65.62C1116.02,-56.77 1132.75,-42.98 1145.85,-32.19"/>
<polygon fill="#63b8ff" stroke="#63b8ff" points="1147.95,-34.99 1153.45,-25.93 1143.5,-29.59 1147.95,-34.99"/>
</g>
<!-- Node23 -->
<g id="node23" class="node">
<title>Node23</title>
<g id="a_node23"><a xlink:href="_axi_dma_8hpp.html" target="_top" xlink:title=" ">
<polygon fill="white" stroke="#666666" points="1192.5,-250 1124.5,-250 1124.5,-231 1192.5,-231 1192.5,-250"/>
<text text-anchor="middle" x="1158.5" y="-238" font-family="Helvetica,sans-Serif" font-size="10.00">AxiDma.hpp</text>
</a>
</g>
</g>
<!-- Node22&#45;&gt;Node23 -->
<g id="edge27" class="edge">
<title>Node22&#45;&gt;Node23</title>
<path fill="none" stroke="#63b8ff" d="M1075.38,-291.12C1090.85,-281.88 1115.33,-267.27 1133.72,-256.29"/>
<polygon fill="#63b8ff" stroke="#63b8ff" points="1135.38,-259.38 1142.18,-251.24 1131.8,-253.36 1135.38,-259.38"/>
</g>
<!-- Node24 -->
<g id="node24" class="node">
<title>Node24</title>
<g id="a_node24"><a xlink:href="_reg_accessor_8hpp.html" target="_top" xlink:title=" ">
<polygon fill="white" stroke="#666666" points="1106,-250 1013,-250 1013,-231 1106,-231 1106,-250"/>
<text text-anchor="middle" x="1059.5" y="-238" font-family="Helvetica,sans-Serif" font-size="10.00">RegAccessor.hpp</text>
</a>
</g>
</g>
<!-- Node22&#45;&gt;Node24 -->
<g id="edge29" class="edge">
<title>Node22&#45;&gt;Node24</title>
<path fill="none" stroke="#63b8ff" d="M1060.35,-291.37C1060.22,-283.5 1060.01,-271.6 1059.84,-261.39"/>
<polygon fill="#63b8ff" stroke="#63b8ff" points="1063.34,-261.62 1059.67,-251.68 1056.35,-261.74 1063.34,-261.62"/>
</g>
<!-- Node25 -->
<g id="node25" class="node">
<title>Node25</title>
<g id="a_node25"><a xlink:href="_uio_if_8hpp.html" target="_top" xlink:title=" ">
<polygon fill="white" stroke="#666666" points="1081.5,-195 991.5,-195 991.5,-176 1081.5,-176 1081.5,-195"/>
<text text-anchor="middle" x="1036.5" y="-183" font-family="Helvetica,sans-Serif" font-size="10.00">udmaio/UioIf.hpp</text>
</a>
</g>
</g>
<!-- Node22&#45;&gt;Node25 -->
<g id="edge59" class="edge">
<title>Node22&#45;&gt;Node25</title>
<path fill="none" stroke="#63b8ff" d="M1044.28,-291.14C1030.55,-282.62 1011.81,-268.35 1003.5,-250 996.24,-233.97 1007.11,-216.24 1018.28,-203.6"/>
<polygon fill="#63b8ff" stroke="#63b8ff" points="1020.72,-206.11 1025.15,-196.48 1015.69,-201.24 1020.72,-206.11"/>
</g>
<!-- Node23&#45;&gt;Node16 -->
<g id="edge28" class="edge">
<title>Node23&#45;&gt;Node16</title>
<path fill="none" stroke="#63b8ff" d="M1158.5,-230.75C1158.5,-224.27 1158.5,-215.16 1158.5,-206.9"/>
<polygon fill="#63b8ff" stroke="#63b8ff" points="1162,-206.96 1158.5,-196.96 1155,-206.96 1162,-206.96"/>
</g>
<!-- Node24&#45;&gt;Node16 -->
<g id="edge30" class="edge">
<title>Node24&#45;&gt;Node16</title>
<path fill="none" stroke="#63b8ff" d="M1076.29,-230.51C1091.6,-222.31 1114.47,-210.07 1132.2,-200.58"/>
<polygon fill="#63b8ff" stroke="#63b8ff" points="1133.46,-203.88 1140.62,-196.07 1130.15,-197.71 1133.46,-203.88"/>
</g>
<!-- Node24&#45;&gt;Node25 -->
<g id="edge31" class="edge">
<title>Node24&#45;&gt;Node25</title>
<path fill="none" stroke="#63b8ff" d="M1055.7,-230.75C1052.76,-223.96 1048.56,-214.3 1044.85,-205.73"/>
<polygon fill="#63b8ff" stroke="#63b8ff" points="1048.17,-204.61 1040.98,-196.83 1041.75,-207.4 1048.17,-204.61"/>
</g>
<!-- Node25&#45;&gt;Node2 -->
<g id="edge36" class="edge">
<title>Node25&#45;&gt;Node2</title>
<path fill="none" stroke="#63b8ff" d="M991.16,-180.37C926.76,-173.91 812.6,-160.01 776.5,-140 747.87,-124.12 739.15,-115.59 727.5,-85 688.6,17.15 783.16,-73.32 917.5,-30 918.3,-29.74 919.11,-29.47 919.92,-29.18"/>
<polygon fill="#63b8ff" stroke="#63b8ff" points="921.03,-32.51 928.95,-25.47 918.37,-26.03 921.03,-32.51"/>
</g>
<!-- Node25&#45;&gt;Node5 -->
<g id="edge37" class="edge">
<title>Node25&#45;&gt;Node5</title>
<path fill="none" stroke="#63b8ff" d="M1081.8,-179.32C1155.37,-170.69 1297.5,-153.02 1346.5,-140 1368.67,-134.11 1372.46,-127.39 1394.5,-121 1446.54,-105.92 1506.59,-94.65 1552.96,-87.23"/>
<polygon fill="#63b8ff" stroke="#63b8ff" points="1553.31,-90.72 1562.64,-85.7 1552.22,-83.8 1553.31,-90.72"/>
</g>
<!-- Node25&#45;&gt;Node6 -->
<g id="edge57" class="edge">
<title>Node25&#45;&gt;Node6</title>
<path fill="none" stroke="#63b8ff" d="M991.06,-182.99C927.28,-179.83 808.16,-170.06 711.5,-140 673.64,-128.23 633.28,-105.95 608.72,-91.17"/>
<polygon fill="#63b8ff" stroke="#63b8ff" points="610.86,-88.37 600.5,-86.13 607.2,-94.34 610.86,-88.37"/>
</g>
<!-- Node25&#45;&gt;Node17 -->
<g id="edge58" class="edge">
<title>Node25&#45;&gt;Node17</title>
<path fill="none" stroke="#63b8ff" d="M1050.25,-175.67C1061.38,-167.73 1076.48,-155.04 1084.5,-140 1091.59,-126.7 1093.98,-109.77 1094.66,-96.74"/>
<polygon fill="#63b8ff" stroke="#63b8ff" points="1098.16,-96.86 1094.85,-86.79 1091.16,-96.72 1098.16,-96.86"/>
</g>
<!-- Node25&#45;&gt;Node18 -->
<g id="edge34" class="edge">
<title>Node25&#45;&gt;Node18</title>
<path fill="none" stroke="#63b8ff" d="M1081.91,-178.69C1133.07,-171.65 1218.5,-158.41 1290.5,-140 1315.96,-133.49 1321.17,-128 1346.5,-121 1419.68,-100.77 1465.8,-144.08 1513.5,-85 1518.8,-78.43 1518.9,-72.49 1513.5,-66 1484.53,-31.17 1349.72,-20.5 1282.22,-17.31"/>
<polygon fill="#63b8ff" stroke="#63b8ff" points="1282.48,-13.82 1272.34,-16.88 1282.17,-20.81 1282.48,-13.82"/>
</g>
<!-- Node25&#45;&gt;Node19 -->
<g id="edge35" class="edge">
<title>Node25&#45;&gt;Node19</title>
<path fill="none" stroke="#63b8ff" d="M991.05,-185.06C922.98,-183.06 797.02,-167.7 745.5,-85 710.31,-28.51 701.61,-105.35 976.5,-30 977.88,-29.62 979.29,-29.2 980.7,-28.76"/>
<polygon fill="#63b8ff" stroke="#63b8ff" points="981.74,-32.1 989.98,-25.44 979.39,-25.51 981.74,-32.1"/>
</g>
<!-- Node26 -->
<g id="node26" class="node">
<title>Node26</title>
<g id="a_node26"><a xlink:title=" ">
<polygon fill="#e0e0e0" stroke="#999999" points="814.5,-85 754.5,-85 754.5,-66 814.5,-66 814.5,-85"/>
<text text-anchor="middle" x="784.5" y="-73" font-family="Helvetica,sans-Serif" font-size="10.00">filesystem</text>
</a>
</g>
</g>
<!-- Node25&#45;&gt;Node26 -->
<g id="edge32" class="edge">
<title>Node25&#45;&gt;Node26</title>
<path fill="none" stroke="#63b8ff" d="M1002.9,-175.53C974.76,-167.56 933.8,-154.88 899.5,-140 866.81,-125.82 831.18,-105.29 808.38,-91.45"/>
<polygon fill="#63b8ff" stroke="#63b8ff" points="810.22,-88.47 799.87,-86.22 806.56,-94.44 810.22,-88.47"/>
</g>
<!-- Node27 -->
<g id="node27" class="node">
<title>Node27</title>
<g id="a_node27"><a xlink:title=" ">
<polygon fill="#e0e0e0" stroke="#999999" points="882.5,-85 832.5,-85 832.5,-66 882.5,-66 882.5,-85"/>
<text text-anchor="middle" x="857.5" y="-73" font-family="Helvetica,sans-Serif" font-size="10.00">fstream</text>
</a>
</g>
</g>
<!-- Node25&#45;&gt;Node27 -->
<g id="edge33" class="edge">
<title>Node25&#45;&gt;Node27</title>
<path fill="none" stroke="#63b8ff" d="M1006.94,-175.57C984.21,-167.98 952.58,-155.8 927.5,-140 906.77,-126.94 886.41,-107.52 873.04,-93.59"/>
<polygon fill="#63b8ff" stroke="#63b8ff" points="875.76,-91.37 866.37,-86.46 870.65,-96.16 875.76,-91.37"/>
</g>
<!-- Node28 -->
<g id="node28" class="node">
<title>Node28</title>
<g id="a_node28"><a xlink:title=" ">
<polygon fill="#e0e0e0" stroke="#999999" points="944,-85 901,-85 901,-66 944,-66 944,-85"/>
<text text-anchor="middle" x="922.5" y="-73" font-family="Helvetica,sans-Serif" font-size="10.00">fcntl.h</text>
</a>
</g>
</g>
<!-- Node25&#45;&gt;Node28 -->
<g id="edge38" class="edge">
<title>Node25&#45;&gt;Node28</title>
<path fill="none" stroke="#63b8ff" d="M1000.89,-175.65C980.85,-168.95 956.85,-157.79 941.5,-140 931.03,-127.86 926.33,-110.12 924.22,-96.48"/>
<polygon fill="#63b8ff" stroke="#63b8ff" points="927.73,-96.4 923.09,-86.88 920.78,-97.22 927.73,-96.4"/>
</g>
<!-- Node29 -->
<g id="node29" class="node">
<title>Node29</title>
<g id="a_node29"><a xlink:title=" ">
<polygon fill="#e0e0e0" stroke="#999999" points="1276,-85 1207,-85 1207,-66 1276,-66 1276,-85"/>
<text text-anchor="middle" x="1241.5" y="-73" font-family="Helvetica,sans-Serif" font-size="10.00">sys/mman.h</text>
</a>
</g>
</g>
<!-- Node25&#45;&gt;Node29 -->
<g id="edge39" class="edge">
<title>Node25&#45;&gt;Node29</title>
<path fill="none" stroke="#63b8ff" d="M1053.28,-175.66C1088.71,-156.99 1171.46,-113.4 1214.47,-90.74"/>
<polygon fill="#63b8ff" stroke="#63b8ff" points="1215.94,-93.92 1223.15,-86.17 1212.67,-87.73 1215.94,-93.92"/>
</g>
<!-- Node30 -->
<g id="node30" class="node">
<title>Node30</title>
<g id="a_node30"><a xlink:title=" ">
<polygon fill="#e0e0e0" stroke="#999999" points="1353,-85 1294,-85 1294,-66 1353,-66 1353,-85"/>
<text text-anchor="middle" x="1323.5" y="-73" font-family="Helvetica,sans-Serif" font-size="10.00">sys/stat.h</text>
</a>
</g>
</g>
<!-- Node25&#45;&gt;Node30 -->
<g id="edge40" class="edge">
<title>Node25&#45;&gt;Node30</title>
<path fill="none" stroke="#63b8ff" d="M1060.14,-175.54C1092.65,-163.21 1152.99,-140.37 1204.5,-121 1233.02,-110.28 1265.4,-98.17 1289.18,-89.3"/>
<polygon fill="#63b8ff" stroke="#63b8ff" points="1290.22,-92.65 1298.37,-85.87 1287.77,-86.09 1290.22,-92.65"/>
</g>
<!-- Node31 -->
<g id="node31" class="node">
<title>Node31</title>
<g id="a_node31"><a xlink:title=" ">
<polygon fill="#e0e0e0" stroke="#999999" points="1436,-85 1371,-85 1371,-66 1436,-66 1436,-85"/>
<text text-anchor="middle" x="1403.5" y="-73" font-family="Helvetica,sans-Serif" font-size="10.00">sys/types.h</text>
</a>
</g>
</g>
<!-- Node25&#45;&gt;Node31 -->
<g id="edge41" class="edge">
<title>Node25&#45;&gt;Node31</title>
<path fill="none" stroke="#63b8ff" d="M1069.45,-175.52C1101.65,-166.69 1152.03,-152.72 1195.5,-140 1254.42,-122.76 1322.4,-101.81 1364.17,-88.81"/>
<polygon fill="#63b8ff" stroke="#63b8ff" points="1365.01,-92.21 1373.52,-85.89 1362.93,-85.53 1365.01,-92.21"/>
</g>
<!-- Node32 -->
<g id="node32" class="node">
<title>Node32</title>
<g id="a_node32"><a xlink:title=" ">
<polygon fill="#e0e0e0" stroke="#999999" points="1504.5,-85 1454.5,-85 1454.5,-66 1504.5,-66 1504.5,-85"/>
<text text-anchor="middle" x="1479.5" y="-73" font-family="Helvetica,sans-Serif" font-size="10.00">unistd.h</text>
</a>
</g>
</g>
<!-- Node25&#45;&gt;Node32 -->
<g id="edge42" class="edge">
<title>Node25&#45;&gt;Node32</title>
<path fill="none" stroke="#63b8ff" d="M1080.4,-175.52C1121.81,-166.91 1185.53,-153.29 1240.5,-140 1312.63,-122.56 1396.32,-99.72 1443.07,-86.73"/>
<polygon fill="#63b8ff" stroke="#63b8ff" points="1443.98,-90.11 1452.67,-84.05 1442.1,-83.36 1443.98,-90.11"/>
</g>
<!-- Node33 -->
<g id="node33" class="node">
<title>Node33</title>
<g id="a_node33"><a xlink:href="_hw_accessor_8hpp.html" target="_top" xlink:title=" ">
<polygon fill="white" stroke="#666666" points="1076,-140 951,-140 951,-121 1076,-121 1076,-140"/>
<text text-anchor="middle" x="1013.5" y="-128" font-family="Helvetica,sans-Serif" font-size="10.00">udmaio/HwAccessor.hpp</text>
</a>
</g>
</g>
<!-- Node25&#45;&gt;Node33 -->
<g id="edge43" class="edge">
<title>Node25&#45;&gt;Node33</title>
<path fill="none" stroke="#63b8ff" d="M1032.7,-175.75C1029.76,-168.96 1025.56,-159.3 1021.85,-150.73"/>
<polygon fill="#63b8ff" stroke="#63b8ff" points="1025.17,-149.61 1017.98,-141.83 1018.75,-152.4 1025.17,-149.61"/>
</g>
<!-- Node33&#45;&gt;Node2 -->
<g id="edge48" class="edge">
<title>Node33&#45;&gt;Node2</title>
<path fill="none" stroke="#63b8ff" d="M1008.32,-120.59C997.57,-102.11 972.65,-59.26 958.27,-34.52"/>
<polygon fill="#63b8ff" stroke="#63b8ff" points="961.47,-33.06 953.42,-26.17 955.42,-36.58 961.47,-33.06"/>
</g>
<!-- Node33&#45;&gt;Node5 -->
<g id="edge49" class="edge">
<title>Node33&#45;&gt;Node5</title>
<path fill="none" stroke="#63b8ff" d="M1076.24,-124.1C1188.95,-114.4 1425.46,-94.05 1549.58,-83.38"/>
<polygon fill="#63b8ff" stroke="#63b8ff" points="1549.7,-86.88 1559.36,-82.53 1549.1,-79.9 1549.7,-86.88"/>
</g>
<!-- Node33&#45;&gt;Node6 -->
<g id="edge55" class="edge">
<title>Node33&#45;&gt;Node6</title>
<path fill="none" stroke="#63b8ff" d="M950.81,-121.74C863.9,-110.97 708.84,-91.77 631.71,-82.22"/>
<polygon fill="#63b8ff" stroke="#63b8ff" points="632.32,-78.77 621.97,-81.02 631.46,-85.72 632.32,-78.77"/>
</g>
<!-- Node33&#45;&gt;Node17 -->
<g id="edge56" class="edge">
<title>Node33&#45;&gt;Node17</title>
<path fill="none" stroke="#63b8ff" d="M1027.24,-120.51C1039.3,-112.62 1057.09,-100.98 1071.34,-91.65"/>
<polygon fill="#63b8ff" stroke="#63b8ff" points="1073.24,-94.59 1079.7,-86.19 1069.41,-88.73 1073.24,-94.59"/>
</g>
<!-- Node33&#45;&gt;Node18 -->
<g id="edge46" class="edge">
<title>Node33&#45;&gt;Node18</title>
<path fill="none" stroke="#63b8ff" d="M1058.06,-120.52C1087.66,-113.44 1126.78,-101.91 1158.5,-85 1184.82,-70.97 1210.82,-48.21 1226.99,-32.7"/>
<polygon fill="#63b8ff" stroke="#63b8ff" points="1229.14,-35.49 1233.83,-25.99 1224.24,-30.49 1229.14,-35.49"/>
</g>
<!-- Node33&#45;&gt;Node19 -->
<g id="edge47" class="edge">
<title>Node33&#45;&gt;Node19</title>
<path fill="none" stroke="#63b8ff" d="M1013.34,-120.59C1013.02,-102.53 1012.3,-61.17 1011.86,-36.21"/>
<polygon fill="#63b8ff" stroke="#63b8ff" points="1015.36,-36.31 1011.68,-26.38 1008.36,-36.44 1015.36,-36.31"/>
</g>
<!-- Node33&#45;&gt;Node26 -->
<g id="edge44" class="edge">
<title>Node33&#45;&gt;Node26</title>
<path fill="none" stroke="#63b8ff" d="M974.65,-120.51C933.27,-110.93 868.04,-95.83 825.76,-86.05"/>
<polygon fill="#63b8ff" stroke="#63b8ff" points="826.75,-82.69 816.22,-83.84 825.17,-89.51 826.75,-82.69"/>
</g>
<!-- Node33&#45;&gt;Node27 -->
<g id="edge45" class="edge">
<title>Node33&#45;&gt;Node27</title>
<path fill="none" stroke="#63b8ff" d="M987.04,-120.51C961.33,-111.77 922.1,-98.45 893.55,-88.75"/>
<polygon fill="#63b8ff" stroke="#63b8ff" points="894.83,-85.48 884.23,-85.58 892.57,-92.11 894.83,-85.48"/>
</g>
<!-- Node33&#45;&gt;Node28 -->
<g id="edge50" class="edge">
<title>Node33&#45;&gt;Node28</title>
<path fill="none" stroke="#63b8ff" d="M998.06,-120.51C984.25,-112.47 963.75,-100.53 947.59,-91.11"/>
<polygon fill="#63b8ff" stroke="#63b8ff" points="949.42,-88.13 939.02,-86.12 945.9,-94.18 949.42,-88.13"/>
</g>
<!-- Node33&#45;&gt;Node29 -->
<g id="edge51" class="edge">
<title>Node33&#45;&gt;Node29</title>
<path fill="none" stroke="#63b8ff" d="M1052.18,-120.51C1091.86,-111.28 1153.59,-96.93 1195.7,-87.15"/>
<polygon fill="#63b8ff" stroke="#63b8ff" points="1196.33,-90.59 1205.28,-84.92 1194.74,-83.78 1196.33,-90.59"/>
</g>
<!-- Node33&#45;&gt;Node30 -->
<g id="edge52" class="edge">
<title>Node33&#45;&gt;Node30</title>
<path fill="none" stroke="#63b8ff" d="M1074.72,-120.52C1127.48,-112.55 1205.95,-100.13 1282.83,-85.43"/>
<polygon fill="#63b8ff" stroke="#63b8ff" points="1283.02,-88.96 1292.18,-83.63 1281.7,-82.09 1283.02,-88.96"/>
</g>
<!-- Node33&#45;&gt;Node31 -->
<g id="edge53" class="edge">
<title>Node33&#45;&gt;Node31</title>
<path fill="none" stroke="#63b8ff" d="M1076.45,-122.96C1144.1,-115.6 1255.04,-102.57 1359.78,-85.35"/>
<polygon fill="#63b8ff" stroke="#63b8ff" points="1360.09,-88.84 1369.38,-83.75 1358.94,-81.94 1360.09,-88.84"/>
</g>
<!-- Node33&#45;&gt;Node32 -->
<g id="edge54" class="edge">
<title>Node33&#45;&gt;Node32</title>
<path fill="none" stroke="#63b8ff" d="M1076.49,-125.83C1158.72,-120.42 1307.26,-108.5 1443.31,-85.14"/>
<polygon fill="#63b8ff" stroke="#63b8ff" points="1443.59,-88.64 1452.84,-83.48 1442.39,-81.75 1443.59,-88.64"/>
</g>
<!-- Node34&#45;&gt;Node15 -->
<g id="edge61" class="edge">
<title>Node34&#45;&gt;Node15</title>
<path fill="none" stroke="#63b8ff" d="M1269.5,-291.37C1269.5,-283.5 1269.5,-271.6 1269.5,-261.39"/>
<polygon fill="#63b8ff" stroke="#63b8ff" points="1273,-261.68 1269.5,-251.68 1266,-261.68 1273,-261.68"/>
</g>
<!-- Node34&#45;&gt;Node24 -->
<g id="edge62" class="edge">
<title>Node34&#45;&gt;Node24</title>
<path fill="none" stroke="#63b8ff" d="M1237.61,-291.12C1201.6,-281.09 1142.84,-264.72 1102.73,-253.54"/>
<polygon fill="#63b8ff" stroke="#63b8ff" points="1103.73,-250.19 1093.15,-250.87 1101.85,-256.93 1103.73,-250.19"/>
</g>
</g>
</svg>
        <g id="navigator" transform="translate(0 0)" fill="#404254">
                <rect fill="#f2f5e9" fill-opacity="0.5" stroke="#606060" stroke-width=".5" x="0" y="0" width="60" height="60"/>
                <use id="zoomplus" xlink:href="#zoomPlus" x="17" y="9" onmousedown="handleZoom(evt,'in')"/>
                <use id="zoomminus" xlink:href="#zoomMin" x="42" y="9" onmousedown="handleZoom(evt,'out')"/>
                <use id="reset" xlink:href="#resetDef" x="30" y="36" onmousedown="handleReset()"/>
                <g id="arrowUp" xlink:href="#dirArrow" transform="translate(30 24)" onmousedown="handlePan(0,-1)">
                  <use xlink:href="#rim" fill="#404040">
                        <set attributeName="fill" to="#808080" begin="arrowUp.mouseover" end="arrowUp.mouseout"/>
                  </use>
                  <path fill="none" stroke="white" stroke-width="1.5" d="M0,-3.0v7 M-2.5,-0.5L0,-3.0L2.5,-0.5"/>
                </g>
                <g id="arrowRight" xlink:href="#dirArrow" transform="rotate(90) translate(36 -43)" onmousedown="handlePan(1,0)">
                  <use xlink:href="#rim" fill="#404040">
                        <set attributeName="fill" to="#808080" begin="arrowRight.mouseover" end="arrowRight.mouseout"/>
                  </use>
                  <path fill="none" stroke="white" stroke-width="1.5" d="M0,-3.0v7 M-2.5,-0.5L0,-3.0L2.5,-0.5"/>
                </g>
                <g id="arrowDown" xlink:href="#dirArrow" transform="rotate(180) translate(-30 -48)" onmousedown="handlePan(0,1)">
                  <use xlink:href="#rim" fill="#404040">
                        <set attributeName="fill" to="#808080" begin="arrowDown.mouseover" end="arrowDown.mouseout"/>
                  </use>
                  <path fill="none" stroke="white" stroke-width="1.5" d="M0,-3.0v7 M-2.5,-0.5L0,-3.0L2.5,-0.5"/>
                </g>
                <g id="arrowLeft" xlink:href="#dirArrow" transform="rotate(270) translate(-36 17)" onmousedown="handlePan(-1,0)">
                  <use xlink:href="#rim" fill="#404040">
                        <set attributeName="fill" to="#808080" begin="arrowLeft.mouseover" end="arrowLeft.mouseout"/>
                  </use>
                  <path fill="none" stroke="white" stroke-width="1.5" d="M0,-3.0v7 M-2.5,-0.5L0,-3.0L2.5,-0.5"/>
                </g>
        </g>
        <svg viewBox="0 0 15 15" width="100%" height="30px" preserveAspectRatio="xMaxYMin meet">
         <g id="arrow_out" transform="scale(0.3 0.3)">
          <a xlink:href="_data_handler_abstract_8hpp__incl_org.svg" target="_base">
           <rect id="button" ry="5" rx="5" y="6" x="6" height="38" width="38"
                fill="#f2f5e9" fill-opacity="0.5" stroke="#606060" stroke-width="1.0"/>
           <path id="arrow"
             d="M 11.500037,31.436501 C 11.940474,20.09759 22.043105,11.32322 32.158766,21.979434 L 37.068811,17.246167 C 37.068811,17.246167 37.088388,32 37.088388,32 L 22.160133,31.978069 C 22.160133,31.978069 26.997745,27.140456 26.997745,27.140456 C 18.528582,18.264221 13.291696,25.230495 11.500037,31.436501 z"
             style="fill:#404040;"/>
          </a>
         </g>
        </svg>
</svg>
