<?xml version="1.0" encoding="UTF-8" standalone="no"?>
<!DOCTYPE svg PUBLIC "-//W3C//DTD SVG 1.1//EN"
 "http://www.w3.org/Graphics/SVG/1.1/DTD/svg11.dtd">
<!-- Generated by graphviz version 7.0.5 (20221223.1930)
 -->
<!-- Title: DataHandlerSync.hpp Pages: 1 -->
<svg width="1987pt" height="434pt"
 viewBox="0.00 0.00 1986.50 434.00" xmlns="http://www.w3.org/2000/svg" xmlns:xlink="http://www.w3.org/1999/xlink">
<g id="graph0" class="graph" transform="scale(1 1) rotate(0) translate(4 430)">
<title>DataHandlerSync.hpp</title>
<!-- Node1 -->
<g id="node1" class="node">
<title>Node1</title>
<g id="a_node1"><a xlink:title=" ">
<polygon fill="#999999" stroke="#666666" points="174,-426 64,-426 64,-407 174,-407 174,-426"/>
<text text-anchor="middle" x="119" y="-414" font-family="Helvetica,sans-Serif" font-size="10.00">DataHandlerSync.hpp</text>
</a>
</g>
</g>
<!-- Node2 -->
<g id="node2" class="node">
<title>Node2</title>
<g id="a_node2"><a xlink:title=" ">
<polygon fill="#e0e0e0" stroke="#999999" points="50,-371 0,-371 0,-352 50,-352 50,-371"/>
<text text-anchor="middle" x="25" y="-359" font-family="Helvetica,sans-Serif" font-size="10.00">optional</text>
</a>
</g>
</g>
<!-- Node1&#45;&gt;Node2 -->
<g id="edge1" class="edge">
<title>Node1&#45;&gt;Node2</title>
<path fill="none" stroke="#63b8ff" d="M103.05,-406.51C88.65,-398.39 67.21,-386.3 50.44,-376.85"/>
<polygon fill="#63b8ff" stroke="#63b8ff" points="52.46,-373.96 42.03,-372.1 49.02,-380.06 52.46,-373.96"/>
</g>
<!-- Node3 -->
<g id="node3" class="node">
<title>Node3</title>
<g id="a_node3"><a xlink:title=" ">
<polygon fill="#e0e0e0" stroke="#999999" points="60,-310.5 16,-310.5 16,-291.5 60,-291.5 60,-310.5"/>
<text text-anchor="middle" x="38" y="-298.5" font-family="Helvetica,sans-Serif" font-size="10.00">thread</text>
</a>
</g>
</g>
<!-- Node1&#45;&gt;Node3 -->
<g id="edge2" class="edge">
<title>Node1&#45;&gt;Node3</title>
<path fill="none" stroke="#63b8ff" d="M112.64,-406.59C99.4,-388.03 68.6,-344.87 50.98,-320.19"/>
<polygon fill="#63b8ff" stroke="#63b8ff" points="53.86,-318.2 45.21,-312.1 48.17,-322.27 53.86,-318.2"/>
</g>
<!-- Node4 -->
<g id="node4" class="node">
<title>Node4</title>
<g id="a_node4"><a xlink:href="_concurrent_queue_8hpp.html" target="_top" xlink:title=" ">
<polygon fill="white" stroke="#666666" points="216,-371 106,-371 106,-352 216,-352 216,-371"/>
<text text-anchor="middle" x="161" y="-359" font-family="Helvetica,sans-Serif" font-size="10.00">ConcurrentQueue.hpp</text>
</a>
</g>
</g>
<!-- Node1&#45;&gt;Node4 -->
<g id="edge3" class="edge">
<title>Node1&#45;&gt;Node4</title>
<path fill="none" stroke="#63b8ff" d="M125.94,-406.75C131.62,-399.58 139.84,-389.2 146.89,-380.3"/>
<polygon fill="#63b8ff" stroke="#63b8ff" points="149.51,-382.64 152.97,-372.63 144.02,-378.29 149.51,-382.64"/>
</g>
<!-- Node9 -->
<g id="node9" class="node">
<title>Node9</title>
<g id="a_node9"><a xlink:href="_data_handler_abstract_8hpp.html" target="_top" xlink:title=" ">
<polygon fill="white" stroke="#666666" points="823.5,-371 698.5,-371 698.5,-352 823.5,-352 823.5,-371"/>
<text text-anchor="middle" x="761" y="-359" font-family="Helvetica,sans-Serif" font-size="10.00">DataHandlerAbstract.hpp</text>
</a>
</g>
</g>
<!-- Node1&#45;&gt;Node9 -->
<g id="edge9" class="edge">
<title>Node1&#45;&gt;Node9</title>
<path fill="none" stroke="#63b8ff" d="M174.29,-410.94C289.73,-401.41 556.43,-379.39 686.7,-368.63"/>
<polygon fill="#63b8ff" stroke="#63b8ff" points="686.92,-372.13 696.6,-367.82 686.35,-365.15 686.92,-372.13"/>
</g>
<!-- Node4&#45;&gt;Node3 -->
<g id="edge8" class="edge">
<title>Node4&#45;&gt;Node3</title>
<path fill="none" stroke="#63b8ff" d="M142.32,-351.62C122.36,-342.12 90.46,-326.95 67.18,-315.88"/>
<polygon fill="#63b8ff" stroke="#63b8ff" points="68.76,-312.75 58.22,-311.62 65.75,-319.07 68.76,-312.75"/>
</g>
<!-- Node5 -->
<g id="node5" class="node">
<title>Node5</title>
<g id="a_node5"><a xlink:title=" ">
<polygon fill="#e0e0e0" stroke="#999999" points="247,-310.5 201,-310.5 201,-291.5 247,-291.5 247,-310.5"/>
<text text-anchor="middle" x="224" y="-298.5" font-family="Helvetica,sans-Serif" font-size="10.00">chrono</text>
</a>
</g>
</g>
<!-- Node4&#45;&gt;Node5 -->
<g id="edge4" class="edge">
<title>Node4&#45;&gt;Node5</title>
<path fill="none" stroke="#63b8ff" d="M170.57,-351.62C180,-342.85 194.65,-329.25 206.23,-318.5"/>
<polygon fill="#63b8ff" stroke="#63b8ff" points="208.29,-321.37 213.23,-312 203.52,-316.24 208.29,-321.37"/>
</g>
<!-- Node6 -->
<g id="node6" class="node">
<title>Node6</title>
<g id="a_node6"><a xlink:title=" ">
<polygon fill="#e0e0e0" stroke="#999999" points="360.5,-310.5 265.5,-310.5 265.5,-291.5 360.5,-291.5 360.5,-310.5"/>
<text text-anchor="middle" x="313" y="-298.5" font-family="Helvetica,sans-Serif" font-size="10.00">condition_variable</text>
</a>
</g>
</g>
<!-- Node4&#45;&gt;Node6 -->
<g id="edge5" class="edge">
<title>Node4&#45;&gt;Node6</title>
<path fill="none" stroke="#63b8ff" d="M184.09,-351.62C209.42,-341.87 250.32,-326.12 279.25,-314.99"/>
<polygon fill="#63b8ff" stroke="#63b8ff" points="280.21,-318.37 288.28,-311.51 277.69,-311.84 280.21,-318.37"/>
</g>
<!-- Node7 -->
<g id="node7" class="node">
<title>Node7</title>
<g id="a_node7"><a xlink:title=" ">
<polygon fill="#e0e0e0" stroke="#999999" points="121.5,-310.5 78.5,-310.5 78.5,-291.5 121.5,-291.5 121.5,-310.5"/>
<text text-anchor="middle" x="100" y="-298.5" font-family="Helvetica,sans-Serif" font-size="10.00">mutex</text>
</a>
</g>
</g>
<!-- Node4&#45;&gt;Node7 -->
<g id="edge6" class="edge">
<title>Node4&#45;&gt;Node7</title>
<path fill="none" stroke="#63b8ff" d="M151.74,-351.62C142.69,-342.94 128.69,-329.52 117.54,-318.82"/>
<polygon fill="#63b8ff" stroke="#63b8ff" points="120.08,-316.41 110.44,-312.02 115.24,-321.46 120.08,-316.41"/>
</g>
<!-- Node8 -->
<g id="node8" class="node">
<title>Node8</title>
<g id="a_node8"><a xlink:title=" ">
<polygon fill="#e0e0e0" stroke="#999999" points="182.5,-310.5 139.5,-310.5 139.5,-291.5 182.5,-291.5 182.5,-310.5"/>
<text text-anchor="middle" x="161" y="-298.5" font-family="Helvetica,sans-Serif" font-size="10.00">queue</text>
</a>
</g>
</g>
<!-- Node4&#45;&gt;Node8 -->
<g id="edge7" class="edge">
<title>Node4&#45;&gt;Node8</title>
<path fill="none" stroke="#63b8ff" d="M161,-351.87C161,-344 161,-332.1 161,-321.89"/>
<polygon fill="#63b8ff" stroke="#63b8ff" points="164.5,-322.18 161,-312.18 157.5,-322.18 164.5,-322.18"/>
</g>
<!-- Node10 -->
<g id="node10" class="node">
<title>Node10</title>
<g id="a_node10"><a xlink:title=" ">
<polygon fill="#e0e0e0" stroke="#999999" points="1101,-140 1057,-140 1057,-121 1101,-121 1101,-140"/>
<text text-anchor="middle" x="1079" y="-128" font-family="Helvetica,sans-Serif" font-size="10.00">vector</text>
</a>
</g>
</g>
<!-- Node9&#45;&gt;Node10 -->
<g id="edge10" class="edge">
<title>Node9&#45;&gt;Node10</title>
<path fill="none" stroke="#63b8ff" d="M823.71,-358.27C895.2,-354.41 1006.04,-343.97 1036,-316 1082.44,-272.64 1083.28,-189.67 1080.89,-151.55"/>
<polygon fill="#63b8ff" stroke="#63b8ff" points="1084.41,-151.67 1080.14,-141.98 1077.43,-152.22 1084.41,-151.67"/>
</g>
<!-- Node11 -->
<g id="node11" class="node">
<title>Node11</title>
<g id="a_node11"><a xlink:title=" ">
<polygon fill="#e0e0e0" stroke="#999999" points="1185,-310.5 1105,-310.5 1105,-291.5 1185,-291.5 1185,-310.5"/>
<text text-anchor="middle" x="1145" y="-298.5" font-family="Helvetica,sans-Serif" font-size="10.00">boost/asio.hpp</text>
</a>
</g>
</g>
<!-- Node9&#45;&gt;Node11 -->
<g id="edge11" class="edge">
<title>Node9&#45;&gt;Node11</title>
<path fill="none" stroke="#63b8ff" d="M823.71,-354.3C890.37,-347.19 998.68,-334.13 1091,-316 1094.61,-315.29 1098.34,-314.48 1102.07,-313.62"/>
<polygon fill="#63b8ff" stroke="#63b8ff" points="1102.8,-317.05 1111.69,-311.29 1101.15,-310.25 1102.8,-317.05"/>
</g>
<!-- Node12 -->
<g id="node12" class="node">
<title>Node12</title>
<g id="a_node12"><a xlink:title=" ">
<polygon fill="#e0e0e0" stroke="#999999" points="645.5,-79.5 508.5,-79.5 508.5,-60.5 645.5,-60.5 645.5,-79.5"/>
<text text-anchor="middle" x="577" y="-67.5" font-family="Helvetica,sans-Serif" font-size="10.00">boost/core/noncopyable.hpp</text>
</a>
</g>
</g>
<!-- Node9&#45;&gt;Node12 -->
<g id="edge12" class="edge">
<title>Node9&#45;&gt;Node12</title>
<path fill="none" stroke="#63b8ff" d="M740.98,-351.61C707.32,-335.15 643,-296.49 643,-241.5 643,-241.5 643,-241.5 643,-184.5 643,-145.98 614.24,-108.86 594.69,-88.07"/>
<polygon fill="#63b8ff" stroke="#63b8ff" points="597.3,-85.73 587.8,-81.05 592.3,-90.64 597.3,-85.73"/>
</g>
<!-- Node13 -->
<g id="node13" class="node">
<title>Node13</title>
<g id="a_node13"><a xlink:title=" ">
<polygon fill="#e0e0e0" stroke="#999999" points="194.5,-79.5 93.5,-79.5 93.5,-60.5 194.5,-60.5 194.5,-79.5"/>
<text text-anchor="middle" x="144" y="-67.5" font-family="Helvetica,sans-Serif" font-size="10.00">boost/log/trivial.hpp</text>
</a>
</g>
</g>
<!-- Node9&#45;&gt;Node13 -->
<g id="edge13" class="edge">
<title>Node9&#45;&gt;Node13</title>
<path fill="none" stroke="#63b8ff" d="M698.32,-353.53C592.3,-339.99 389,-305.66 389,-241.5 389,-241.5 389,-241.5 389,-184.5 389,-141.5 263.21,-101.85 191.89,-82.82"/>
<polygon fill="#63b8ff" stroke="#63b8ff" points="192.97,-79.49 182.41,-80.33 191.19,-86.26 192.97,-79.49"/>
</g>
<!-- Node14 -->
<g id="node14" class="node">
<title>Node14</title>
<g id="a_node14"><a xlink:href="_u_dma_buf_8hpp.html" target="_top" xlink:title=" ">
<polygon fill="white" stroke="#666666" points="541.5,-250 464.5,-250 464.5,-231 541.5,-231 541.5,-250"/>
<text text-anchor="middle" x="503" y="-238" font-family="Helvetica,sans-Serif" font-size="10.00">UDmaBuf.hpp</text>
</a>
</g>
</g>
<!-- Node9&#45;&gt;Node14 -->
<g id="edge14" class="edge">
<title>Node9&#45;&gt;Node14</title>
<path fill="none" stroke="#63b8ff" d="M728.27,-351.54C701.1,-343.62 661.76,-331.01 629,-316 590.99,-298.59 549.81,-272.79 525.22,-256.58"/>
<polygon fill="#63b8ff" stroke="#63b8ff" points="527.27,-253.74 517.01,-251.1 523.39,-259.57 527.27,-253.74"/>
</g>
<!-- Node25 -->
<g id="node25" class="node">
<title>Node25</title>
<g id="a_node25"><a xlink:href="_uio_axi_dma_if_8hpp.html" target="_top" xlink:title=" ">
<polygon fill="white" stroke="#666666" points="888.5,-310.5 799.5,-310.5 799.5,-291.5 888.5,-291.5 888.5,-310.5"/>
<text text-anchor="middle" x="844" y="-298.5" font-family="Helvetica,sans-Serif" font-size="10.00">UioAxiDmaIf.hpp</text>
</a>
</g>
</g>
<!-- Node9&#45;&gt;Node25 -->
<g id="edge28" class="edge">
<title>Node9&#45;&gt;Node25</title>
<path fill="none" stroke="#63b8ff" d="M773.61,-351.62C786.4,-342.6 806.48,-328.45 821.92,-317.56"/>
<polygon fill="#63b8ff" stroke="#63b8ff" points="823.88,-320.46 830.04,-311.84 819.85,-314.74 823.88,-320.46"/>
</g>
<!-- Node41 -->
<g id="node41" class="node">
<title>Node41</title>
<g id="a_node41"><a xlink:href="_uio_mem_sgdma_8hpp.html" target="_top" xlink:title=" ">
<polygon fill="white" stroke="#666666" points="812,-250 710,-250 710,-231 812,-231 812,-250"/>
<text text-anchor="middle" x="761" y="-238" font-family="Helvetica,sans-Serif" font-size="10.00">UioMemSgdma.hpp</text>
</a>
</g>
</g>
<!-- Node9&#45;&gt;Node41 -->
<g id="edge55" class="edge">
<title>Node9&#45;&gt;Node41</title>
<path fill="none" stroke="#63b8ff" d="M761,-351.56C761,-332.6 761,-287.97 761,-261.73"/>
<polygon fill="#63b8ff" stroke="#63b8ff" points="764.5,-261.74 761,-251.74 757.5,-261.74 764.5,-261.74"/>
</g>
<!-- Node42 -->
<g id="node42" class="node">
<title>Node42</title>
<g id="a_node42"><a xlink:title=" ">
<polygon fill="#e0e0e0" stroke="#999999" points="1027,-316 907,-316 907,-286 1027,-286 1027,-316"/>
<text text-anchor="start" x="915" y="-304" font-family="Helvetica,sans-Serif" font-size="10.00">boost/asio/posix/stream</text>
<text text-anchor="middle" x="967" y="-293" font-family="Helvetica,sans-Serif" font-size="10.00">_descriptor.hpp</text>
</a>
</g>
</g>
<!-- Node9&#45;&gt;Node42 -->
<g id="edge58" class="edge">
<title>Node9&#45;&gt;Node42</title>
<path fill="none" stroke="#63b8ff" d="M792.29,-351.62C822.2,-343.12 868.13,-330.08 905.4,-319.49"/>
<polygon fill="#63b8ff" stroke="#63b8ff" points="906.03,-322.95 914.7,-316.85 904.12,-316.22 906.03,-322.95"/>
</g>
<!-- Node14&#45;&gt;Node13 -->
<g id="edge17" class="edge">
<title>Node14&#45;&gt;Node13</title>
<path fill="none" stroke="#63b8ff" d="M498.36,-230.55C486.16,-208 450.77,-148.63 403,-121 325.2,-76 292.01,-103.22 204,-85 200.17,-84.21 196.2,-83.35 192.22,-82.47"/>
<polygon fill="#63b8ff" stroke="#63b8ff" points="193.06,-79.08 182.54,-80.29 191.52,-85.9 193.06,-79.08"/>
</g>
<!-- Node15 -->
<g id="node15" class="node">
<title>Node15</title>
<g id="a_node15"><a xlink:title=" ">
<polygon fill="#e0e0e0" stroke="#999999" points="331,-79.5 213,-79.5 213,-60.5 331,-60.5 331,-79.5"/>
<text text-anchor="middle" x="272" y="-67.5" font-family="Helvetica,sans-Serif" font-size="10.00">boost/log/core/core.hpp</text>
</a>
</g>
</g>
<!-- Node14&#45;&gt;Node15 -->
<g id="edge15" class="edge">
<title>Node14&#45;&gt;Node15</title>
<path fill="none" stroke="#63b8ff" d="M500.89,-230.54C495.23,-208.47 477.58,-151.08 441,-121 423.48,-106.59 369.58,-92.11 327.3,-82.46"/>
<polygon fill="#63b8ff" stroke="#63b8ff" points="328.28,-79.09 317.76,-80.32 326.75,-85.92 328.28,-79.09"/>
</g>
<!-- Node16 -->
<g id="node16" class="node">
<title>Node16</title>
<g id="a_node16"><a xlink:title=" ">
<polygon fill="#e0e0e0" stroke="#999999" points="490.5,-79.5 349.5,-79.5 349.5,-60.5 490.5,-60.5 490.5,-79.5"/>
<text text-anchor="middle" x="420" y="-67.5" font-family="Helvetica,sans-Serif" font-size="10.00">boost/log/sources/logger.hpp</text>
</a>
</g>
</g>
<!-- Node14&#45;&gt;Node16 -->
<g id="edge16" class="edge">
<title>Node14&#45;&gt;Node16</title>
<path fill="none" stroke="#63b8ff" d="M503.13,-230.78C503.04,-210.18 500.57,-157.5 479,-121 470.64,-106.86 456.81,-94.82 444.63,-86.1"/>
<polygon fill="#63b8ff" stroke="#63b8ff" points="446.86,-83.38 436.61,-80.69 442.94,-89.18 446.86,-83.38"/>
</g>
<!-- Node17 -->
<g id="node17" class="node">
<title>Node17</title>
<g id="a_node17"><a xlink:href="_dma_buffer_abstract_8hpp.html" target="_top" xlink:title=" ">
<polygon fill="white" stroke="#666666" points="816.5,-195 699.5,-195 699.5,-176 816.5,-176 816.5,-195"/>
<text text-anchor="middle" x="758" y="-183" font-family="Helvetica,sans-Serif" font-size="10.00">DmaBufferAbstract.hpp</text>
</a>
</g>
</g>
<!-- Node14&#45;&gt;Node17 -->
<g id="edge18" class="edge">
<title>Node14&#45;&gt;Node17</title>
<path fill="none" stroke="#63b8ff" d="M541.73,-231.45C584.94,-222.47 655.15,-207.88 703.81,-197.76"/>
<polygon fill="#63b8ff" stroke="#63b8ff" points="704.5,-201.19 713.58,-195.73 703.08,-194.34 704.5,-201.19"/>
</g>
<!-- Node17&#45;&gt;Node10 -->
<g id="edge20" class="edge">
<title>Node17&#45;&gt;Node10</title>
<path fill="none" stroke="#63b8ff" d="M816.72,-176.31C883.54,-166.85 989.73,-151.39 1045.6,-140.25"/>
<polygon fill="#63b8ff" stroke="#63b8ff" points="1046.16,-143.7 1055.24,-138.25 1044.74,-136.85 1046.16,-143.7"/>
</g>
<!-- Node17&#45;&gt;Node12 -->
<g id="edge21" class="edge">
<title>Node17&#45;&gt;Node12</title>
<path fill="none" stroke="#63b8ff" d="M743.96,-175.65C724.45,-163.37 688.06,-140.47 657,-121 638.1,-109.15 616.67,-95.76 600.75,-85.82"/>
<polygon fill="#63b8ff" stroke="#63b8ff" points="602.79,-82.97 592.45,-80.64 599.08,-88.91 602.79,-82.97"/>
</g>
<!-- Node18 -->
<g id="node18" class="node">
<title>Node18</title>
<g id="a_node18"><a xlink:title=" ">
<polygon fill="#e0e0e0" stroke="#999999" points="1039,-140 993,-140 993,-121 1039,-121 1039,-140"/>
<text text-anchor="middle" x="1016" y="-128" font-family="Helvetica,sans-Serif" font-size="10.00">cstdint</text>
</a>
</g>
</g>
<!-- Node17&#45;&gt;Node18 -->
<g id="edge19" class="edge">
<title>Node17&#45;&gt;Node18</title>
<path fill="none" stroke="#63b8ff" d="M804.21,-175.57C848.98,-166.84 918.74,-152.99 979,-140 979.82,-139.82 980.65,-139.64 981.49,-139.46"/>
<polygon fill="#63b8ff" stroke="#63b8ff" points="982.06,-142.92 991.06,-137.32 980.53,-136.09 982.06,-142.92"/>
</g>
<!-- Node19 -->
<g id="node19" class="node">
<title>Node19</title>
<g id="a_node19"><a xlink:href="_uio_config_8hpp.html" target="_top" xlink:title=" ">
<polygon fill="white" stroke="#666666" points="1970.5,-79.5 1859.5,-79.5 1859.5,-60.5 1970.5,-60.5 1970.5,-79.5"/>
<text text-anchor="middle" x="1915" y="-67.5" font-family="Helvetica,sans-Serif" font-size="10.00">udmaio/UioConfig.hpp</text>
</a>
</g>
</g>
<!-- Node17&#45;&gt;Node19 -->
<g id="edge22" class="edge">
<title>Node17&#45;&gt;Node19</title>
<path fill="none" stroke="#63b8ff" d="M810,-175.55C848.28,-168.16 901.23,-156.24 946,-140 963.75,-133.56 965.72,-125.72 984,-121 1170.71,-72.81 1659.76,-109.7 1851,-85 1856.64,-84.27 1862.51,-83.29 1868.32,-82.19"/>
<polygon fill="#63b8ff" stroke="#63b8ff" points="1868.73,-85.68 1877.83,-80.26 1867.33,-78.82 1868.73,-85.68"/>
</g>
<!-- Node20 -->
<g id="node20" class="node">
<title>Node20</title>
<g id="a_node20"><a xlink:title=" ">
<polygon fill="#e0e0e0" stroke="#999999" points="1737,-19 1683,-19 1683,0 1737,0 1737,-19"/>
<text text-anchor="middle" x="1710" y="-7" font-family="Helvetica,sans-Serif" font-size="10.00">iostream</text>
</a>
</g>
</g>
<!-- Node19&#45;&gt;Node20 -->
<g id="edge23" class="edge">
<title>Node19&#45;&gt;Node20</title>
<path fill="none" stroke="#63b8ff" d="M1883.86,-60.12C1847.57,-49.76 1787.58,-32.64 1748.43,-21.47"/>
<polygon fill="#63b8ff" stroke="#63b8ff" points="1749.51,-18.14 1738.94,-18.76 1747.59,-24.87 1749.51,-18.14"/>
</g>
<!-- Node21 -->
<g id="node21" class="node">
<title>Node21</title>
<g id="a_node21"><a xlink:title=" ">
<polygon fill="#e0e0e0" stroke="#999999" points="1594.5,-19 1543.5,-19 1543.5,0 1594.5,0 1594.5,-19"/>
<text text-anchor="middle" x="1569" y="-7" font-family="Helvetica,sans-Serif" font-size="10.00">memory</text>
</a>
</g>
</g>
<!-- Node19&#45;&gt;Node21 -->
<g id="edge24" class="edge">
<title>Node19&#45;&gt;Node21</title>
<path fill="none" stroke="#63b8ff" d="M1875.81,-60.05C1867.63,-58.28 1859.05,-56.51 1851,-55 1763.6,-38.56 1660.18,-23.3 1606.14,-15.65"/>
<polygon fill="#63b8ff" stroke="#63b8ff" points="1606.64,-12.19 1596.25,-14.26 1605.66,-19.12 1606.64,-12.19"/>
</g>
<!-- Node22 -->
<g id="node22" class="node">
<title>Node22</title>
<g id="a_node22"><a xlink:title=" ">
<polygon fill="#e0e0e0" stroke="#999999" points="1978.5,-19 1919.5,-19 1919.5,0 1978.5,0 1978.5,-19"/>
<text text-anchor="middle" x="1949" y="-7" font-family="Helvetica,sans-Serif" font-size="10.00">stdexcept</text>
</a>
</g>
</g>
<!-- Node19&#45;&gt;Node22 -->
<g id="edge25" class="edge">
<title>Node19&#45;&gt;Node22</title>
<path fill="none" stroke="#63b8ff" d="M1920.02,-60.37C1924.79,-52.16 1932.12,-39.54 1938.22,-29.05"/>
<polygon fill="#63b8ff" stroke="#63b8ff" points="1941.2,-30.88 1943.2,-20.48 1935.15,-27.36 1941.2,-30.88"/>
</g>
<!-- Node23 -->
<g id="node23" class="node">
<title>Node23</title>
<g id="a_node23"><a xlink:title=" ">
<polygon fill="#e0e0e0" stroke="#999999" points="1901.5,-19 1860.5,-19 1860.5,0 1901.5,0 1901.5,-19"/>
<text text-anchor="middle" x="1881" y="-7" font-family="Helvetica,sans-Serif" font-size="10.00">string</text>
</a>
</g>
</g>
<!-- Node19&#45;&gt;Node23 -->
<g id="edge26" class="edge">
<title>Node19&#45;&gt;Node23</title>
<path fill="none" stroke="#63b8ff" d="M1909.98,-60.37C1905.21,-52.16 1897.88,-39.54 1891.78,-29.05"/>
<polygon fill="#63b8ff" stroke="#63b8ff" points="1894.85,-27.36 1886.8,-20.48 1888.8,-30.88 1894.85,-27.36"/>
</g>
<!-- Node24 -->
<g id="node24" class="node">
<title>Node24</title>
<g id="a_node24"><a xlink:title=" ">
<polygon fill="#e0e0e0" stroke="#999999" points="1151,-19 1085,-19 1085,0 1151,0 1151,-19"/>
<text text-anchor="middle" x="1118" y="-7" font-family="Helvetica,sans-Serif" font-size="10.00">string_view</text>
</a>
</g>
</g>
<!-- Node19&#45;&gt;Node24 -->
<g id="edge27" class="edge">
<title>Node19&#45;&gt;Node24</title>
<path fill="none" stroke="#63b8ff" d="M1878.62,-60.02C1869.64,-58.09 1860.01,-56.25 1851,-55 1592.13,-19.05 1277.83,-12.14 1162.87,-10.81"/>
<polygon fill="#63b8ff" stroke="#63b8ff" points="1162.97,-7.32 1152.94,-10.71 1162.9,-14.31 1162.97,-7.32"/>
</g>
<!-- Node26 -->
<g id="node26" class="node">
<title>Node26</title>
<g id="a_node26"><a xlink:href="_axi_dma_8hpp.html" target="_top" xlink:title=" ">
<polygon fill="white" stroke="#666666" points="1049,-195 981,-195 981,-176 1049,-176 1049,-195"/>
<text text-anchor="middle" x="1015" y="-183" font-family="Helvetica,sans-Serif" font-size="10.00">AxiDma.hpp</text>
</a>
</g>
</g>
<!-- Node25&#45;&gt;Node26 -->
<g id="edge29" class="edge">
<title>Node25&#45;&gt;Node26</title>
<path fill="none" stroke="#63b8ff" d="M873.89,-291.03C907.4,-280.55 959.14,-263 975,-250 989.49,-238.13 1000.32,-219.57 1007.03,-205.57"/>
<polygon fill="#63b8ff" stroke="#63b8ff" points="1010.19,-207.08 1011.07,-196.52 1003.8,-204.22 1010.19,-207.08"/>
</g>
<!-- Node27 -->
<g id="node27" class="node">
<title>Node27</title>
<g id="a_node27"><a xlink:href="_reg_accessor_8hpp.html" target="_top" xlink:title=" ">
<polygon fill="white" stroke="#666666" points="965.5,-250 872.5,-250 872.5,-231 965.5,-231 965.5,-250"/>
<text text-anchor="middle" x="919" y="-238" font-family="Helvetica,sans-Serif" font-size="10.00">RegAccessor.hpp</text>
</a>
</g>
</g>
<!-- Node25&#45;&gt;Node27 -->
<g id="edge31" class="edge">
<title>Node25&#45;&gt;Node27</title>
<path fill="none" stroke="#63b8ff" d="M855.39,-291.12C866.84,-282.18 884.75,-268.22 898.65,-257.37"/>
<polygon fill="#63b8ff" stroke="#63b8ff" points="900.58,-260.31 906.31,-251.4 896.27,-254.79 900.58,-260.31"/>
</g>
<!-- Node28 -->
<g id="node28" class="node">
<title>Node28</title>
<g id="a_node28"><a xlink:href="_uio_if_8hpp.html" target="_top" xlink:title=" ">
<polygon fill="white" stroke="#666666" points="925,-195 835,-195 835,-176 925,-176 925,-195"/>
<text text-anchor="middle" x="880" y="-183" font-family="Helvetica,sans-Serif" font-size="10.00">udmaio/UioIf.hpp</text>
</a>
</g>
</g>
<!-- Node25&#45;&gt;Node28 -->
<g id="edge54" class="edge">
<title>Node25&#45;&gt;Node28</title>
<path fill="none" stroke="#63b8ff" d="M846.41,-291.01C850,-277.79 857.07,-252.35 864,-231 866.69,-222.7 869.9,-213.63 872.74,-205.85"/>
<polygon fill="#63b8ff" stroke="#63b8ff" points="875.93,-207.32 876.12,-196.73 869.37,-204.89 875.93,-207.32"/>
</g>
<!-- Node26&#45;&gt;Node18 -->
<g id="edge30" class="edge">
<title>Node26&#45;&gt;Node18</title>
<path fill="none" stroke="#63b8ff" d="M1015.17,-175.75C1015.29,-169.27 1015.46,-160.16 1015.62,-151.9"/>
<polygon fill="#63b8ff" stroke="#63b8ff" points="1019.11,-152.02 1015.8,-141.96 1012.11,-151.89 1019.11,-152.02"/>
</g>
<!-- Node27&#45;&gt;Node18 -->
<g id="edge32" class="edge">
<title>Node27&#45;&gt;Node18</title>
<path fill="none" stroke="#63b8ff" d="M925.97,-230.68C935.9,-218.23 954.81,-194.92 972,-176 980.48,-166.67 990.31,-156.66 998.53,-148.49"/>
<polygon fill="#63b8ff" stroke="#63b8ff" points="1000.91,-151.06 1005.59,-141.55 996.01,-146.06 1000.91,-151.06"/>
</g>
<!-- Node27&#45;&gt;Node28 -->
<g id="edge33" class="edge">
<title>Node27&#45;&gt;Node28</title>
<path fill="none" stroke="#63b8ff" d="M912.56,-230.75C907.34,-223.66 899.81,-213.42 893.31,-204.59"/>
<polygon fill="#63b8ff" stroke="#63b8ff" points="896.22,-202.64 887.48,-196.66 890.58,-206.79 896.22,-202.64"/>
</g>
<!-- Node29 -->
<g id="node29" class="node">
<title>Node29</title>
<g id="a_node29"><a xlink:href="_uio_if_base_8hpp.html" target="_top" xlink:title=" ">
<polygon fill="white" stroke="#666666" points="936.5,-140 823.5,-140 823.5,-121 936.5,-121 936.5,-140"/>
<text text-anchor="middle" x="880" y="-128" font-family="Helvetica,sans-Serif" font-size="10.00">udmaio/UioIfBase.hpp</text>
</a>
</g>
</g>
<!-- Node28&#45;&gt;Node29 -->
<g id="edge34" class="edge">
<title>Node28&#45;&gt;Node29</title>
<path fill="none" stroke="#63b8ff" d="M880,-175.75C880,-169.27 880,-160.16 880,-151.9"/>
<polygon fill="#63b8ff" stroke="#63b8ff" points="883.5,-151.96 880,-141.96 876.5,-151.96 883.5,-151.96"/>
</g>
<!-- Node29&#45;&gt;Node12 -->
<g id="edge40" class="edge">
<title>Node29&#45;&gt;Node12</title>
<path fill="none" stroke="#63b8ff" d="M833.65,-120.55C780.26,-110.24 692.5,-93.3 634.73,-82.15"/>
<polygon fill="#63b8ff" stroke="#63b8ff" points="635.56,-78.74 625.08,-80.28 634.23,-85.61 635.56,-78.74"/>
</g>
<!-- Node29&#45;&gt;Node13 -->
<g id="edge45" class="edge">
<title>Node29&#45;&gt;Node13</title>
<path fill="none" stroke="#63b8ff" d="M823.14,-128.89C706.44,-126.94 431.73,-118.83 204,-85 199.11,-84.27 194.02,-83.35 188.98,-82.33"/>
<polygon fill="#63b8ff" stroke="#63b8ff" points="190.08,-78.99 179.56,-80.29 188.59,-85.83 190.08,-78.99"/>
</g>
<!-- Node29&#45;&gt;Node15 -->
<g id="edge41" class="edge">
<title>Node29&#45;&gt;Node15</title>
<path fill="none" stroke="#63b8ff" d="M823.39,-127.09C724.78,-122.39 515.28,-110.17 340,-85 334.33,-84.19 328.42,-83.19 322.56,-82.11"/>
<polygon fill="#63b8ff" stroke="#63b8ff" points="323.38,-78.71 312.9,-80.24 322.05,-85.58 323.38,-78.71"/>
</g>
<!-- Node29&#45;&gt;Node16 -->
<g id="edge44" class="edge">
<title>Node29&#45;&gt;Node16</title>
<path fill="none" stroke="#63b8ff" d="M823.06,-123.91C748.46,-116.35 613.65,-101.84 499,-85 492.56,-84.05 485.83,-82.99 479.14,-81.87"/>
<polygon fill="#63b8ff" stroke="#63b8ff" points="479.91,-78.45 469.46,-80.22 478.73,-85.35 479.91,-78.45"/>
</g>
<!-- Node29&#45;&gt;Node19 -->
<g id="edge51" class="edge">
<title>Node29&#45;&gt;Node19</title>
<path fill="none" stroke="#63b8ff" d="M936.93,-122.28C941.68,-121.8 946.42,-121.37 951,-121 1350.05,-89.18 1453.94,-135.97 1851,-85 1856.64,-84.28 1862.51,-83.3 1868.32,-82.2"/>
<polygon fill="#63b8ff" stroke="#63b8ff" points="1868.73,-85.69 1877.83,-80.27 1867.33,-78.83 1868.73,-85.69"/>
</g>
<!-- Node29&#45;&gt;Node20 -->
<g id="edge37" class="edge">
<title>Node29&#45;&gt;Node20</title>
<path fill="none" stroke="#63b8ff" d="M936.94,-122.4C941.69,-121.9 946.43,-121.42 951,-121 1075.84,-109.54 1395.66,-126.4 1514,-85 1536,-77.31 1535.98,-65.05 1557,-55 1594.23,-37.19 1640.02,-25.03 1671.76,-17.98"/>
<polygon fill="#63b8ff" stroke="#63b8ff" points="1672.25,-21.45 1681.29,-15.93 1670.78,-14.61 1672.25,-21.45"/>
</g>
<!-- Node29&#45;&gt;Node21 -->
<g id="edge38" class="edge">
<title>Node29&#45;&gt;Node21</title>
<path fill="none" stroke="#63b8ff" d="M936.94,-122.42C941.69,-121.91 946.43,-121.43 951,-121 1068.53,-109.98 1371.6,-129.35 1481,-85 1496.92,-78.55 1531.04,-47.27 1551.8,-27.35"/>
<polygon fill="#63b8ff" stroke="#63b8ff" points="1554.21,-29.89 1558.96,-20.42 1549.34,-24.86 1554.21,-29.89"/>
</g>
<!-- Node29&#45;&gt;Node24 -->
<g id="edge39" class="edge">
<title>Node29&#45;&gt;Node24</title>
<path fill="none" stroke="#63b8ff" d="M823.09,-125.46C754.19,-118.52 652.13,-100.38 693,-55 718.13,-27.1 969.3,-15.5 1073.29,-11.86"/>
<polygon fill="#63b8ff" stroke="#63b8ff" points="1073.24,-15.37 1083.12,-11.53 1073.01,-8.37 1073.24,-15.37"/>
</g>
<!-- Node30 -->
<g id="node30" class="node">
<title>Node30</title>
<g id="a_node30"><a xlink:title=" ">
<polygon fill="#e0e0e0" stroke="#999999" points="1626,-79.5 1566,-79.5 1566,-60.5 1626,-60.5 1626,-79.5"/>
<text text-anchor="middle" x="1596" y="-67.5" font-family="Helvetica,sans-Serif" font-size="10.00">filesystem</text>
</a>
</g>
</g>
<!-- Node29&#45;&gt;Node30 -->
<g id="edge35" class="edge">
<title>Node29&#45;&gt;Node30</title>
<path fill="none" stroke="#63b8ff" d="M936.94,-122.38C941.69,-121.88 946.43,-121.41 951,-121 1217.52,-97.09 1288.92,-133.94 1552,-85 1554.83,-84.47 1557.73,-83.82 1560.62,-83.09"/>
<polygon fill="#63b8ff" stroke="#63b8ff" points="1561.5,-86.47 1570.15,-80.36 1559.58,-79.74 1561.5,-86.47"/>
</g>
<!-- Node31 -->
<g id="node31" class="node">
<title>Node31</title>
<g id="a_node31"><a xlink:title=" ">
<polygon fill="#e0e0e0" stroke="#999999" points="1694,-79.5 1644,-79.5 1644,-60.5 1694,-60.5 1694,-79.5"/>
<text text-anchor="middle" x="1669" y="-67.5" font-family="Helvetica,sans-Serif" font-size="10.00">fstream</text>
</a>
</g>
</g>
<!-- Node29&#45;&gt;Node31 -->
<g id="edge36" class="edge">
<title>Node29&#45;&gt;Node31</title>
<path fill="none" stroke="#63b8ff" d="M936.93,-122.35C941.69,-121.85 946.42,-121.39 951,-121 1254.3,-94.89 1338.02,-151.91 1635,-85 1636.63,-84.63 1638.29,-84.19 1639.95,-83.7"/>
<polygon fill="#63b8ff" stroke="#63b8ff" points="1641,-87.04 1649.24,-80.38 1638.64,-80.45 1641,-87.04"/>
</g>
<!-- Node32 -->
<g id="node32" class="node">
<title>Node32</title>
<g id="a_node32"><a xlink:title=" ">
<polygon fill="#e0e0e0" stroke="#999999" points="1841.5,-79.5 1712.5,-79.5 1712.5,-60.5 1841.5,-60.5 1841.5,-79.5"/>
<text text-anchor="middle" x="1777" y="-67.5" font-family="Helvetica,sans-Serif" font-size="10.00">boost/log/expressions.hpp</text>
</a>
</g>
</g>
<!-- Node29&#45;&gt;Node32 -->
<g id="edge42" class="edge">
<title>Node29&#45;&gt;Node32</title>
<path fill="none" stroke="#63b8ff" d="M936.93,-122.32C941.69,-121.83 946.42,-121.38 951,-121 1284.44,-93.1 1370.7,-124.19 1703,-85 1709.82,-84.2 1716.96,-83.13 1723.99,-81.95"/>
<polygon fill="#63b8ff" stroke="#63b8ff" points="1724.56,-85.4 1733.79,-80.21 1723.33,-78.51 1724.56,-85.4"/>
</g>
<!-- Node33 -->
<g id="node33" class="node">
<title>Node33</title>
<g id="a_node33"><a xlink:title=" ">
<polygon fill="#e0e0e0" stroke="#999999" points="803.5,-85 702.5,-85 702.5,-55 803.5,-55 803.5,-85"/>
<text text-anchor="start" x="710.5" y="-73" font-family="Helvetica,sans-Serif" font-size="10.00">boost/log/keywords</text>
<text text-anchor="middle" x="753" y="-62" font-family="Helvetica,sans-Serif" font-size="10.00">/severity.hpp</text>
</a>
</g>
</g>
<!-- Node29&#45;&gt;Node33 -->
<g id="edge43" class="edge">
<title>Node29&#45;&gt;Node33</title>
<path fill="none" stroke="#63b8ff" d="M860.71,-120.62C843.22,-112.56 816.84,-100.41 794.57,-90.15"/>
<polygon fill="#63b8ff" stroke="#63b8ff" points="796.27,-87.08 785.72,-86.07 793.34,-93.44 796.27,-87.08"/>
</g>
<!-- Node34 -->
<g id="node34" class="node">
<title>Node34</title>
<g id="a_node34"><a xlink:title=" ">
<polygon fill="#e0e0e0" stroke="#999999" points="864.5,-79.5 821.5,-79.5 821.5,-60.5 864.5,-60.5 864.5,-79.5"/>
<text text-anchor="middle" x="843" y="-67.5" font-family="Helvetica,sans-Serif" font-size="10.00">fcntl.h</text>
</a>
</g>
</g>
<!-- Node29&#45;&gt;Node34 -->
<g id="edge46" class="edge">
<title>Node29&#45;&gt;Node34</title>
<path fill="none" stroke="#63b8ff" d="M874.54,-120.87C869.29,-112.57 861.2,-99.78 854.53,-89.22"/>
<polygon fill="#63b8ff" stroke="#63b8ff" points="857.59,-87.53 849.29,-80.95 851.68,-91.27 857.59,-87.53"/>
</g>
<!-- Node35 -->
<g id="node35" class="node">
<title>Node35</title>
<g id="a_node35"><a xlink:title=" ">
<polygon fill="#e0e0e0" stroke="#999999" points="951.5,-79.5 882.5,-79.5 882.5,-60.5 951.5,-60.5 951.5,-79.5"/>
<text text-anchor="middle" x="917" y="-67.5" font-family="Helvetica,sans-Serif" font-size="10.00">sys/mman.h</text>
</a>
</g>
</g>
<!-- Node29&#45;&gt;Node35 -->
<g id="edge47" class="edge">
<title>Node29&#45;&gt;Node35</title>
<path fill="none" stroke="#63b8ff" d="M885.46,-120.87C890.71,-112.57 898.8,-99.78 905.47,-89.22"/>
<polygon fill="#63b8ff" stroke="#63b8ff" points="908.32,-91.27 910.71,-80.95 902.41,-87.53 908.32,-91.27"/>
</g>
<!-- Node36 -->
<g id="node36" class="node">
<title>Node36</title>
<g id="a_node36"><a xlink:title=" ">
<polygon fill="#e0e0e0" stroke="#999999" points="1028.5,-79.5 969.5,-79.5 969.5,-60.5 1028.5,-60.5 1028.5,-79.5"/>
<text text-anchor="middle" x="999" y="-67.5" font-family="Helvetica,sans-Serif" font-size="10.00">sys/stat.h</text>
</a>
</g>
</g>
<!-- Node29&#45;&gt;Node36 -->
<g id="edge48" class="edge">
<title>Node29&#45;&gt;Node36</title>
<path fill="none" stroke="#63b8ff" d="M898.07,-120.62C917.29,-111.17 947.97,-96.09 970.46,-85.03"/>
<polygon fill="#63b8ff" stroke="#63b8ff" points="971.97,-88.19 979.4,-80.64 968.88,-81.91 971.97,-88.19"/>
</g>
<!-- Node37 -->
<g id="node37" class="node">
<title>Node37</title>
<g id="a_node37"><a xlink:title=" ">
<polygon fill="#e0e0e0" stroke="#999999" points="1111.5,-79.5 1046.5,-79.5 1046.5,-60.5 1111.5,-60.5 1111.5,-79.5"/>
<text text-anchor="middle" x="1079" y="-67.5" font-family="Helvetica,sans-Serif" font-size="10.00">sys/types.h</text>
</a>
</g>
</g>
<!-- Node29&#45;&gt;Node37 -->
<g id="edge49" class="edge">
<title>Node29&#45;&gt;Node37</title>
<path fill="none" stroke="#63b8ff" d="M913.75,-120.57C945.85,-111.94 995.42,-98.26 1038,-85 1039.57,-84.51 1041.17,-84 1042.79,-83.48"/>
<polygon fill="#63b8ff" stroke="#63b8ff" points="1043.65,-86.89 1052.04,-80.43 1041.45,-80.24 1043.65,-86.89"/>
</g>
<!-- Node38 -->
<g id="node38" class="node">
<title>Node38</title>
<g id="a_node38"><a xlink:title=" ">
<polygon fill="#e0e0e0" stroke="#999999" points="1180,-79.5 1130,-79.5 1130,-60.5 1180,-60.5 1180,-79.5"/>
<text text-anchor="middle" x="1155" y="-67.5" font-family="Helvetica,sans-Serif" font-size="10.00">unistd.h</text>
</a>
</g>
</g>
<!-- Node29&#45;&gt;Node38 -->
<g id="edge50" class="edge">
<title>Node29&#45;&gt;Node38</title>
<path fill="none" stroke="#63b8ff" d="M936.78,-122.42C986.12,-115.46 1059.17,-103.22 1121,-85 1122.16,-84.66 1123.34,-84.29 1124.53,-83.9"/>
<polygon fill="#63b8ff" stroke="#63b8ff" points="1125.52,-87.26 1133.69,-80.52 1123.1,-80.69 1125.52,-87.26"/>
</g>
<!-- Node39 -->
<g id="node39" class="node">
<title>Node39</title>
<g id="a_node39"><a xlink:title=" ">
<polygon fill="#e0e0e0" stroke="#999999" points="1322,-85 1198,-85 1198,-55 1322,-55 1322,-85"/>
<text text-anchor="start" x="1206" y="-73" font-family="Helvetica,sans-Serif" font-size="10.00">boost/log/sources/record</text>
<text text-anchor="middle" x="1260" y="-62" font-family="Helvetica,sans-Serif" font-size="10.00">_ostream.hpp</text>
</a>
</g>
</g>
<!-- Node29&#45;&gt;Node39 -->
<g id="edge52" class="edge">
<title>Node29&#45;&gt;Node39</title>
<path fill="none" stroke="#63b8ff" d="M936.81,-122.21C996.47,-114.36 1093.31,-101.05 1186.37,-85.4"/>
<polygon fill="#63b8ff" stroke="#63b8ff" points="1186.93,-88.85 1196.2,-83.73 1185.76,-81.95 1186.93,-88.85"/>
</g>
<!-- Node40 -->
<g id="node40" class="node">
<title>Node40</title>
<g id="a_node40"><a xlink:title=" ">
<polygon fill="#e0e0e0" stroke="#999999" points="1471.5,-85 1340.5,-85 1340.5,-55 1471.5,-55 1471.5,-85"/>
<text text-anchor="start" x="1348.5" y="-73" font-family="Helvetica,sans-Serif" font-size="10.00">boost/log/sources/severity</text>
<text text-anchor="middle" x="1406" y="-62" font-family="Helvetica,sans-Serif" font-size="10.00">_logger.hpp</text>
</a>
</g>
</g>
<!-- Node29&#45;&gt;Node40 -->
<g id="edge53" class="edge">
<title>Node29&#45;&gt;Node40</title>
<path fill="none" stroke="#63b8ff" d="M936.95,-122.56C941.7,-122.02 946.43,-121.49 951,-121 1116.05,-103.3 1161.08,-108.36 1328.97,-85.2"/>
<polygon fill="#63b8ff" stroke="#63b8ff" points="1329.28,-88.68 1338.71,-83.84 1328.32,-81.75 1329.28,-88.68"/>
</g>
<!-- Node41&#45;&gt;Node17 -->
<g id="edge56" class="edge">
<title>Node41&#45;&gt;Node17</title>
<path fill="none" stroke="#63b8ff" d="M760.5,-230.75C760.14,-224.27 759.62,-215.16 759.15,-206.9"/>
<polygon fill="#63b8ff" stroke="#63b8ff" points="762.65,-206.74 758.59,-196.95 755.66,-207.13 762.65,-206.74"/>
</g>
<!-- Node41&#45;&gt;Node28 -->
<g id="edge57" class="edge">
<title>Node41&#45;&gt;Node28</title>
<path fill="none" stroke="#63b8ff" d="M781.19,-230.51C800.02,-222.12 828.37,-209.5 849.87,-199.92"/>
<polygon fill="#63b8ff" stroke="#63b8ff" points="851.02,-203.24 858.73,-195.97 848.17,-196.85 851.02,-203.24"/>
</g>
</g>
</svg>
