<?xml version="1.0" encoding="UTF-8" standalone="no"?>
<!DOCTYPE svg PUBLIC "-//W3C//DTD SVG 1.1//EN"
 "http://www.w3.org/Graphics/SVG/1.1/DTD/svg11.dtd">
<!-- Generated by graphviz version 7.0.5 (20221223.1930)
 -->
<!-- Title: DataHandlerAbstract.cpp Pages: 1 -->
<!--zoomable 434 -->
<svg id="main" version="1.1" xmlns="http://www.w3.org/2000/svg" xmlns:xlink="http://www.w3.org/1999/xlink" xml:space="preserve" onload="init(evt)">
<style type="text/css"><![CDATA[
.edge:hover path { stroke: red; }
.edge:hover polygon { stroke: red; fill: red; }
]]></style>
<script type="text/javascript"><![CDATA[
var edges = document.getElementsByTagName('g');
if (edges && edges.length) {
  for (var i=0;i<edges.length;i++) {
    if (edges[i].id.substr(0,4)=='edge') {
      edges[i].setAttribute('class','edge');
    }
  }
}
]]></script>
        <defs>
                <circle id="rim" cx="0" cy="0" r="7"/>
                <circle id="rim2" cx="0" cy="0" r="3.5"/>
                <g id="zoomPlus">
                        <use xlink:href="#rim" fill="#404040">
                                <set attributeName="fill" to="#808080" begin="zoomplus.mouseover" end="zoomplus.mouseout"/>
                        </use>
                        <path d="M-4,0h8M0,-4v8" fill="none" stroke="white" stroke-width="1.5" pointer-events="none"/>
                </g>
                <g id="zoomMin">
                        <use xlink:href="#rim" fill="#404040">
                                <set attributeName="fill" to="#808080" begin="zoomminus.mouseover" end="zoomminus.mouseout"/>
                        </use>
                        <path d="M-4,0h8" fill="none" stroke="white" stroke-width="1.5" pointer-events="none"/>
                </g>
                <g id="dirArrow">
                        <path fill="none" stroke="white" stroke-width="1.5" d="M0,-3.0v7 M-2.5,-0.5L0,-3.0L2.5,-0.5"/>
                </g>
               <g id="resetDef">
                       <use xlink:href="#rim2" fill="#404040">
                               <set attributeName="fill" to="#808080" begin="reset.mouseover" end="reset.mouseout"/>
                       </use>
               </g>
        </defs>

<script type="text/javascript">
var viewWidth = 2179;
var viewHeight = 434;
var sectionId = 'dynsection-0';
</script>
<script xlink:href="svgpan.js"/>
<svg id="graph" class="graph">
<g id="viewport">
<title>DataHandlerAbstract.cpp</title>
<!-- Node1 -->
<g id="node1" class="node">
<title>Node1</title>
<g id="a_node1"><a xlink:title=" ">
<polygon fill="#999999" stroke="#666666" points="2071,-426 1946,-426 1946,-407 2071,-407 2071,-426"/>
<text text-anchor="middle" x="2008.5" y="-414" font-family="Helvetica,sans-Serif" font-size="10.00">DataHandlerAbstract.cpp</text>
</a>
</g>
</g>
<!-- Node2 -->
<g id="node2" class="node">
<title>Node2</title>
<g id="a_node2"><a xlink:href="_data_handler_abstract_8hpp.html" target="_top" xlink:title=" ">
<polygon fill="white" stroke="#666666" points="1580.5,-371 1420.5,-371 1420.5,-352 1580.5,-352 1580.5,-371"/>
<text text-anchor="middle" x="1500.5" y="-359" font-family="Helvetica,sans-Serif" font-size="10.00">udmaio/DataHandlerAbstract.hpp</text>
</a>
</g>
</g>
<!-- Node1&#45;&gt;Node2 -->
<g id="edge1" class="edge">
<title>Node1&#45;&gt;Node2</title>
<path fill="none" stroke="#63b8ff" d="M1945.7,-408.95C1856.91,-399.68 1694.15,-382.7 1591.94,-372.04"/>
<polygon fill="#63b8ff" stroke="#63b8ff" points="1592.52,-368.58 1582.21,-371.03 1591.8,-375.54 1592.52,-368.58"/>
</g>
<!-- Node4 -->
<g id="node4" class="node">
<title>Node4</title>
<g id="a_node4"><a xlink:title=" ">
<polygon fill="#e0e0e0" stroke="#999999" points="1928.5,-195 1884.5,-195 1884.5,-176 1928.5,-176 1928.5,-195"/>
<text text-anchor="middle" x="1906.5" y="-183" font-family="Helvetica,sans-Serif" font-size="10.00">vector</text>
</a>
</g>
</g>
<!-- Node1&#45;&gt;Node4 -->
<g id="edge74" class="edge">
<title>Node1&#45;&gt;Node4</title>
<path fill="none" stroke="#63b8ff" d="M2004.5,-406.52C1989.43,-372.68 1935.82,-252.33 1914.93,-205.42"/>
<polygon fill="#63b8ff" stroke="#63b8ff" points="1918.24,-204.26 1910.98,-196.55 1911.85,-207.11 1918.24,-204.26"/>
</g>
<!-- Node19 -->
<g id="node19" class="node">
<title>Node19</title>
<g id="a_node19"><a xlink:title=" ">
<polygon fill="#e0e0e0" stroke="#999999" points="1453.5,-24.5 1399.5,-24.5 1399.5,-5.5 1453.5,-5.5 1453.5,-24.5"/>
<text text-anchor="middle" x="1426.5" y="-12.5" font-family="Helvetica,sans-Serif" font-size="10.00">iostream</text>
</a>
</g>
</g>
<!-- Node1&#45;&gt;Node19 -->
<g id="edge73" class="edge">
<title>Node1&#45;&gt;Node19</title>
<path fill="none" stroke="#63b8ff" d="M2008.5,-406.67C2008.5,-387.58 2008.5,-341.02 2008.5,-302 2008.5,-302 2008.5,-302 2008.5,-129.5 2008.5,-90.06 1982.07,-83.04 1946.5,-66 1935.63,-60.79 1583.87,-29.72 1465.17,-19.36"/>
<polygon fill="#63b8ff" stroke="#63b8ff" points="1465.56,-15.88 1455.3,-18.5 1464.96,-22.86 1465.56,-15.88"/>
</g>
<!-- Node39 -->
<g id="node39" class="node">
<title>Node39</title>
<g id="a_node39"><a xlink:title=" ">
<polygon fill="#e0e0e0" stroke="#999999" points="2096,-371 2037,-371 2037,-352 2096,-352 2096,-371"/>
<text text-anchor="middle" x="2066.5" y="-359" font-family="Helvetica,sans-Serif" font-size="10.00">functional</text>
</a>
</g>
</g>
<!-- Node1&#45;&gt;Node39 -->
<g id="edge72" class="edge">
<title>Node1&#45;&gt;Node39</title>
<path fill="none" stroke="#63b8ff" d="M2018.34,-406.51C2026.55,-399 2038.48,-388.1 2048.41,-379.03"/>
<polygon fill="#63b8ff" stroke="#63b8ff" points="2050.67,-381.71 2055.69,-372.38 2045.95,-376.54 2050.67,-381.71"/>
</g>
<!-- Node40 -->
<g id="node40" class="node">
<title>Node40</title>
<g id="a_node40"><a xlink:title=" ">
<polygon fill="#e0e0e0" stroke="#999999" points="2170.5,-371 2114.5,-371 2114.5,-352 2170.5,-352 2170.5,-371"/>
<text text-anchor="middle" x="2142.5" y="-359" font-family="Helvetica,sans-Serif" font-size="10.00">pthread.h</text>
</a>
</g>
</g>
<!-- Node1&#45;&gt;Node40 -->
<g id="edge75" class="edge">
<title>Node1&#45;&gt;Node40</title>
<path fill="none" stroke="#63b8ff" d="M2031.23,-406.51C2052.73,-398.01 2085.23,-385.15 2109.57,-375.53"/>
<polygon fill="#63b8ff" stroke="#63b8ff" points="2110.69,-378.85 2118.7,-371.91 2108.11,-372.34 2110.69,-378.85"/>
</g>
<!-- Node3 -->
<g id="node3" class="node">
<title>Node3</title>
<g id="a_node3"><a xlink:title=" ">
<polygon fill="#e0e0e0" stroke="#999999" points="968,-24.5 927,-24.5 927,-5.5 968,-5.5 968,-24.5"/>
<text text-anchor="middle" x="947.5" y="-12.5" font-family="Helvetica,sans-Serif" font-size="10.00">string</text>
</a>
</g>
</g>
<!-- Node2&#45;&gt;Node3 -->
<g id="edge2" class="edge">
<title>Node2&#45;&gt;Node3</title>
<path fill="none" stroke="#63b8ff" d="M1420.02,-360.21C1321.99,-358.26 1151.97,-349.71 1010.5,-316 923.07,-295.17 822.5,-331.38 822.5,-241.5 822.5,-241.5 822.5,-241.5 822.5,-129.5 822.5,-93.58 846.12,-90.38 872.5,-66 887.26,-52.37 906.07,-39.83 921.17,-30.72"/>
<polygon fill="#63b8ff" stroke="#63b8ff" points="922.77,-33.84 929.62,-25.76 919.23,-27.81 922.77,-33.84"/>
</g>
<!-- Node2&#45;&gt;Node4 -->
<g id="edge3" class="edge">
<title>Node2&#45;&gt;Node4</title>
<path fill="none" stroke="#63b8ff" d="M1580.62,-356.32C1662.9,-347.94 1789.98,-323.12 1870.5,-250 1883.84,-237.89 1893.47,-219.64 1899.39,-205.81"/>
<polygon fill="#63b8ff" stroke="#63b8ff" points="1902.5,-207.46 1902.94,-196.87 1896,-204.87 1902.5,-207.46"/>
</g>
<!-- Node5 -->
<g id="node5" class="node">
<title>Node5</title>
<g id="a_node5"><a xlink:title=" ">
<polygon fill="#e0e0e0" stroke="#999999" points="1713.5,-310.5 1633.5,-310.5 1633.5,-291.5 1713.5,-291.5 1713.5,-310.5"/>
<text text-anchor="middle" x="1673.5" y="-298.5" font-family="Helvetica,sans-Serif" font-size="10.00">boost/asio.hpp</text>
</a>
</g>
</g>
<!-- Node2&#45;&gt;Node5 -->
<g id="edge4" class="edge">
<title>Node2&#45;&gt;Node5</title>
<path fill="none" stroke="#63b8ff" d="M1526.77,-351.62C1555.99,-341.74 1603.4,-325.71 1636.39,-314.55"/>
<polygon fill="#63b8ff" stroke="#63b8ff" points="1637.19,-317.97 1645.54,-311.45 1634.95,-311.34 1637.19,-317.97"/>
</g>
<!-- Node6 -->
<g id="node6" class="node">
<title>Node6</title>
<g id="a_node6"><a xlink:title=" ">
<polygon fill="#e0e0e0" stroke="#999999" points="1937,-85 1800,-85 1800,-66 1937,-66 1937,-85"/>
<text text-anchor="middle" x="1868.5" y="-73" font-family="Helvetica,sans-Serif" font-size="10.00">boost/core/noncopyable.hpp</text>
</a>
</g>
</g>
<!-- Node2&#45;&gt;Node6 -->
<g id="edge5" class="edge">
<title>Node2&#45;&gt;Node6</title>
<path fill="none" stroke="#63b8ff" d="M1580.76,-356.62C1715,-347.93 1970.5,-320.94 1970.5,-241.5 1970.5,-241.5 1970.5,-241.5 1970.5,-184.5 1970.5,-141.36 1926.95,-108.48 1896.76,-90.88"/>
<polygon fill="#63b8ff" stroke="#63b8ff" points="1898.5,-87.84 1888.06,-86.03 1895.09,-93.96 1898.5,-87.84"/>
</g>
<!-- Node7 -->
<g id="node7" class="node">
<title>Node7</title>
<g id="a_node7"><a xlink:href="_logging_8hpp.html" target="_top" xlink:title=" ">
<polygon fill="white" stroke="#666666" points="772,-85 703,-85 703,-66 772,-66 772,-85"/>
<text text-anchor="middle" x="737.5" y="-73" font-family="Helvetica,sans-Serif" font-size="10.00">Logging.hpp</text>
</a>
</g>
</g>
<!-- Node2&#45;&gt;Node7 -->
<g id="edge6" class="edge">
<title>Node2&#45;&gt;Node7</title>
<path fill="none" stroke="#63b8ff" d="M1420.2,-358.79C1249.59,-354.67 862.13,-342.49 808.5,-316 769.1,-296.54 743.5,-285.44 743.5,-241.5 743.5,-241.5 743.5,-241.5 743.5,-184.5 743.5,-153.88 741.07,-118.44 739.3,-96.75"/>
<polygon fill="#63b8ff" stroke="#63b8ff" points="742.8,-96.63 738.46,-86.96 735.82,-97.22 742.8,-96.63"/>
</g>
<!-- Node15 -->
<g id="node15" class="node">
<title>Node15</title>
<g id="a_node15"><a xlink:href="_u_dma_buf_8hpp.html" target="_top" xlink:title=" ">
<polygon fill="white" stroke="#666666" points="1096,-310.5 1019,-310.5 1019,-291.5 1096,-291.5 1096,-310.5"/>
<text text-anchor="middle" x="1057.5" y="-298.5" font-family="Helvetica,sans-Serif" font-size="10.00">UDmaBuf.hpp</text>
</a>
</g>
</g>
<!-- Node2&#45;&gt;Node15 -->
<g id="edge15" class="edge">
<title>Node2&#45;&gt;Node15</title>
<path fill="none" stroke="#63b8ff" d="M1432.74,-351.55C1343.1,-339.71 1187.19,-319.13 1107.51,-308.6"/>
<polygon fill="#63b8ff" stroke="#63b8ff" points="1108.19,-305.16 1097.82,-307.32 1107.28,-312.1 1108.19,-305.16"/>
</g>
<!-- Node23 -->
<g id="node23" class="node">
<title>Node23</title>
<g id="a_node23"><a xlink:href="_uio_axi_dma_if_8hpp.html" target="_top" xlink:title=" ">
<polygon fill="white" stroke="#666666" points="1357,-310.5 1268,-310.5 1268,-291.5 1357,-291.5 1357,-310.5"/>
<text text-anchor="middle" x="1312.5" y="-298.5" font-family="Helvetica,sans-Serif" font-size="10.00">UioAxiDmaIf.hpp</text>
</a>
</g>
</g>
<!-- Node2&#45;&gt;Node23 -->
<g id="edge28" class="edge">
<title>Node2&#45;&gt;Node23</title>
<path fill="none" stroke="#63b8ff" d="M1471.95,-351.62C1439.92,-341.65 1387.78,-325.43 1351.9,-314.26"/>
<polygon fill="#63b8ff" stroke="#63b8ff" points="1353.36,-311.05 1342.77,-311.42 1351.28,-317.73 1353.36,-311.05"/>
</g>
<!-- Node37 -->
<g id="node37" class="node">
<title>Node37</title>
<g id="a_node37"><a xlink:href="_uio_mem_sgdma_8hpp.html" target="_top" xlink:title=" ">
<polygon fill="white" stroke="#666666" points="1615.5,-310.5 1513.5,-310.5 1513.5,-291.5 1615.5,-291.5 1615.5,-310.5"/>
<text text-anchor="middle" x="1564.5" y="-298.5" font-family="Helvetica,sans-Serif" font-size="10.00">UioMemSgdma.hpp</text>
</a>
</g>
</g>
<!-- Node2&#45;&gt;Node37 -->
<g id="edge66" class="edge">
<title>Node2&#45;&gt;Node37</title>
<path fill="none" stroke="#63b8ff" d="M1510.22,-351.62C1519.81,-342.85 1534.69,-329.25 1546.44,-318.5"/>
<polygon fill="#63b8ff" stroke="#63b8ff" points="1548.55,-321.32 1553.57,-311.99 1543.83,-316.15 1548.55,-321.32"/>
</g>
<!-- Node38 -->
<g id="node38" class="node">
<title>Node38</title>
<g id="a_node38"><a xlink:title=" ">
<polygon fill="#e0e0e0" stroke="#999999" points="1495.5,-316 1375.5,-316 1375.5,-286 1495.5,-286 1495.5,-316"/>
<text text-anchor="start" x="1383.5" y="-304" font-family="Helvetica,sans-Serif" font-size="10.00">boost/asio/posix/stream</text>
<text text-anchor="middle" x="1435.5" y="-293" font-family="Helvetica,sans-Serif" font-size="10.00">_descriptor.hpp</text>
</a>
</g>
</g>
<!-- Node2&#45;&gt;Node38 -->
<g id="edge71" class="edge">
<title>Node2&#45;&gt;Node38</title>
<path fill="none" stroke="#63b8ff" d="M1490.63,-351.62C1482.53,-344.32 1470.7,-333.68 1460.08,-324.12"/>
<polygon fill="#63b8ff" stroke="#63b8ff" points="1462.44,-321.54 1452.67,-317.45 1457.76,-326.74 1462.44,-321.54"/>
</g>
<!-- Node7&#45;&gt;Node3 -->
<g id="edge7" class="edge">
<title>Node7&#45;&gt;Node3</title>
<path fill="none" stroke="#63b8ff" d="M772.26,-68C808.94,-60.65 868.18,-47.42 917.5,-30 918.14,-29.77 918.79,-29.54 919.44,-29.29"/>
<polygon fill="#63b8ff" stroke="#63b8ff" points="920.71,-32.56 928.58,-25.46 918,-26.1 920.71,-32.56"/>
</g>
<!-- Node8 -->
<g id="node8" class="node">
<title>Node8</title>
<g id="a_node8"><a xlink:title=" ">
<polygon fill="#e0e0e0" stroke="#999999" points="642.5,-24.5 546.5,-24.5 546.5,-5.5 642.5,-5.5 642.5,-24.5"/>
<text text-anchor="middle" x="594.5" y="-12.5" font-family="Helvetica,sans-Serif" font-size="10.00">boost/log/core.hpp</text>
</a>
</g>
</g>
<!-- Node7&#45;&gt;Node8 -->
<g id="edge8" class="edge">
<title>Node7&#45;&gt;Node8</title>
<path fill="none" stroke="#63b8ff" d="M715.78,-65.62C692.16,-55.95 654.14,-40.4 626.97,-29.28"/>
<polygon fill="#63b8ff" stroke="#63b8ff" points="628.4,-26.09 617.82,-25.54 625.75,-32.57 628.4,-26.09"/>
</g>
<!-- Node9 -->
<g id="node9" class="node">
<title>Node9</title>
<g id="a_node9"><a xlink:title=" ">
<polygon fill="#e0e0e0" stroke="#999999" points="790,-24.5 661,-24.5 661,-5.5 790,-5.5 790,-24.5"/>
<text text-anchor="middle" x="725.5" y="-12.5" font-family="Helvetica,sans-Serif" font-size="10.00">boost/log/expressions.hpp</text>
</a>
</g>
</g>
<!-- Node7&#45;&gt;Node9 -->
<g id="edge9" class="edge">
<title>Node7&#45;&gt;Node9</title>
<path fill="none" stroke="#63b8ff" d="M735.73,-65.87C734.12,-58 731.67,-46.1 729.58,-35.89"/>
<polygon fill="#63b8ff" stroke="#63b8ff" points="733.02,-35.24 727.58,-26.15 726.16,-36.65 733.02,-35.24"/>
</g>
<!-- Node10 -->
<g id="node10" class="node">
<title>Node10</title>
<g id="a_node10"><a xlink:title=" ">
<polygon fill="#e0e0e0" stroke="#999999" points="909,-24.5 808,-24.5 808,-5.5 909,-5.5 909,-24.5"/>
<text text-anchor="middle" x="858.5" y="-12.5" font-family="Helvetica,sans-Serif" font-size="10.00">boost/log/trivial.hpp</text>
</a>
</g>
</g>
<!-- Node7&#45;&gt;Node10 -->
<g id="edge10" class="edge">
<title>Node7&#45;&gt;Node10</title>
<path fill="none" stroke="#63b8ff" d="M755.88,-65.62C775.51,-56.12 806.89,-40.95 829.79,-29.88"/>
<polygon fill="#63b8ff" stroke="#63b8ff" points="831.11,-33.13 838.59,-25.63 828.06,-26.83 831.11,-33.13"/>
</g>
<!-- Node11 -->
<g id="node11" class="node">
<title>Node11</title>
<g id="a_node11"><a xlink:title=" ">
<polygon fill="#e0e0e0" stroke="#999999" points="109,-30 0,-30 0,0 109,0 109,-30"/>
<text text-anchor="start" x="8" y="-18" font-family="Helvetica,sans-Serif" font-size="10.00">boost/log/utility/setup</text>
<text text-anchor="middle" x="54.5" y="-7" font-family="Helvetica,sans-Serif" font-size="10.00">/console.hpp</text>
</a>
</g>
</g>
<!-- Node7&#45;&gt;Node11 -->
<g id="edge11" class="edge">
<title>Node7&#45;&gt;Node11</title>
<path fill="none" stroke="#63b8ff" d="M702.69,-73.79C609.66,-71.52 347.44,-62.64 120.51,-30.3"/>
<polygon fill="#63b8ff" stroke="#63b8ff" points="121.28,-26.88 110.88,-28.91 120.28,-33.81 121.28,-26.88"/>
</g>
<!-- Node12 -->
<g id="node12" class="node">
<title>Node12</title>
<g id="a_node12"><a xlink:title=" ">
<polygon fill="#e0e0e0" stroke="#999999" points="258,-30 127,-30 127,0 258,0 258,-30"/>
<text text-anchor="start" x="135" y="-18" font-family="Helvetica,sans-Serif" font-size="10.00">boost/log/sources/severity</text>
<text text-anchor="middle" x="192.5" y="-7" font-family="Helvetica,sans-Serif" font-size="10.00">_channel_logger.hpp</text>
</a>
</g>
</g>
<!-- Node7&#45;&gt;Node12 -->
<g id="edge12" class="edge">
<title>Node7&#45;&gt;Node12</title>
<path fill="none" stroke="#63b8ff" d="M702.51,-72.31C625.88,-67.27 437.27,-53.58 269.49,-30.34"/>
<polygon fill="#63b8ff" stroke="#63b8ff" points="270.1,-26.89 259.71,-28.97 269.13,-33.82 270.1,-26.89"/>
</g>
<!-- Node13 -->
<g id="node13" class="node">
<title>Node13</title>
<g id="a_node13"><a xlink:title=" ">
<polygon fill="#e0e0e0" stroke="#999999" points="389,-30 276,-30 276,0 389,0 389,-30"/>
<text text-anchor="start" x="284" y="-18" font-family="Helvetica,sans-Serif" font-size="10.00">boost/log/support/date</text>
<text text-anchor="middle" x="332.5" y="-7" font-family="Helvetica,sans-Serif" font-size="10.00">_time.hpp</text>
</a>
</g>
</g>
<!-- Node7&#45;&gt;Node13 -->
<g id="edge13" class="edge">
<title>Node7&#45;&gt;Node13</title>
<path fill="none" stroke="#63b8ff" d="M702.61,-70.89C642.78,-64.49 516.58,-50.1 400.38,-30.41"/>
<polygon fill="#63b8ff" stroke="#63b8ff" points="401.11,-26.99 390.66,-28.75 399.92,-33.89 401.11,-26.99"/>
</g>
<!-- Node14 -->
<g id="node14" class="node">
<title>Node14</title>
<g id="a_node14"><a xlink:title=" ">
<polygon fill="#e0e0e0" stroke="#999999" points="528,-30 407,-30 407,0 528,0 528,-30"/>
<text text-anchor="start" x="415" y="-18" font-family="Helvetica,sans-Serif" font-size="10.00">boost/log/utility/setup</text>
<text text-anchor="middle" x="467.5" y="-7" font-family="Helvetica,sans-Serif" font-size="10.00">/common_attributes.hpp</text>
</a>
</g>
</g>
<!-- Node7&#45;&gt;Node14 -->
<g id="edge14" class="edge">
<title>Node7&#45;&gt;Node14</title>
<path fill="none" stroke="#63b8ff" d="M702.75,-66.97C661.67,-58.07 592.2,-43.02 539.37,-31.57"/>
<polygon fill="#63b8ff" stroke="#63b8ff" points="540.36,-28.2 529.84,-29.51 538.88,-35.05 540.36,-28.2"/>
</g>
<!-- Node15&#45;&gt;Node7 -->
<g id="edge26" class="edge">
<title>Node15&#45;&gt;Node7</title>
<path fill="none" stroke="#63b8ff" d="M1044.96,-291.24C996.57,-257.45 821.72,-135.32 759.59,-91.93"/>
<polygon fill="#63b8ff" stroke="#63b8ff" points="761.75,-89.17 751.55,-86.31 757.74,-94.91 761.75,-89.17"/>
</g>
<!-- Node16 -->
<g id="node16" class="node">
<title>Node16</title>
<g id="a_node16"><a xlink:href="_dma_buffer_abstract_8hpp.html" target="_top" xlink:title=" ">
<polygon fill="white" stroke="#666666" points="1621,-250 1504,-250 1504,-231 1621,-231 1621,-250"/>
<text text-anchor="middle" x="1562.5" y="-238" font-family="Helvetica,sans-Serif" font-size="10.00">DmaBufferAbstract.hpp</text>
</a>
</g>
</g>
<!-- Node15&#45;&gt;Node16 -->
<g id="edge16" class="edge">
<title>Node15&#45;&gt;Node16</title>
<path fill="none" stroke="#63b8ff" d="M1096.21,-295.63C1170.42,-287.25 1338.13,-268.21 1492.59,-249.98"/>
<polygon fill="#63b8ff" stroke="#63b8ff" points="1492.66,-253.5 1502.18,-248.85 1491.84,-246.54 1492.66,-253.5"/>
</g>
<!-- Node18 -->
<g id="node18" class="node">
<title>Node18</title>
<g id="a_node18"><a xlink:href="_uio_config_8hpp.html" target="_top" xlink:title=" ">
<polygon fill="white" stroke="#666666" points="1000,-85 889,-85 889,-66 1000,-66 1000,-85"/>
<text text-anchor="middle" x="944.5" y="-73" font-family="Helvetica,sans-Serif" font-size="10.00">udmaio/UioConfig.hpp</text>
</a>
</g>
</g>
<!-- Node15&#45;&gt;Node18 -->
<g id="edge27" class="edge">
<title>Node15&#45;&gt;Node18</title>
<path fill="none" stroke="#63b8ff" d="M1053.07,-291.24C1036.44,-258.35 977.52,-141.8 954.15,-95.59"/>
<polygon fill="#63b8ff" stroke="#63b8ff" points="957.34,-94.14 949.7,-86.79 951.09,-97.3 957.34,-94.14"/>
</g>
<!-- Node16&#45;&gt;Node4 -->
<g id="edge18" class="edge">
<title>Node16&#45;&gt;Node4</title>
<path fill="none" stroke="#63b8ff" d="M1620.85,-230.51C1693.31,-219.35 1814.45,-200.68 1872.92,-191.67"/>
<polygon fill="#63b8ff" stroke="#63b8ff" points="1873.22,-195.17 1882.57,-190.19 1872.16,-188.25 1873.22,-195.17"/>
</g>
<!-- Node16&#45;&gt;Node6 -->
<g id="edge19" class="edge">
<title>Node16&#45;&gt;Node6</title>
<path fill="none" stroke="#63b8ff" d="M1580.06,-230.62C1613.96,-213.44 1690.68,-174.3 1754.5,-140 1784.99,-123.61 1819.7,-104.16 1842.72,-91.15"/>
<polygon fill="#63b8ff" stroke="#63b8ff" points="1844.43,-94.21 1851.41,-86.23 1840.98,-88.11 1844.43,-94.21"/>
</g>
<!-- Node17 -->
<g id="node17" class="node">
<title>Node17</title>
<g id="a_node17"><a xlink:title=" ">
<polygon fill="#e0e0e0" stroke="#999999" points="1204.5,-195 1158.5,-195 1158.5,-176 1204.5,-176 1204.5,-195"/>
<text text-anchor="middle" x="1181.5" y="-183" font-family="Helvetica,sans-Serif" font-size="10.00">cstdint</text>
</a>
</g>
</g>
<!-- Node16&#45;&gt;Node17 -->
<g id="edge17" class="edge">
<title>Node16&#45;&gt;Node17</title>
<path fill="none" stroke="#63b8ff" d="M1503.75,-232.22C1412.9,-220.91 1245.88,-199.9 1218.5,-195 1217.67,-194.85 1216.84,-194.7 1215.99,-194.54"/>
<polygon fill="#63b8ff" stroke="#63b8ff" points="1216.9,-191.15 1206.4,-192.55 1215.48,-198.01 1216.9,-191.15"/>
</g>
<!-- Node16&#45;&gt;Node18 -->
<g id="edge20" class="edge">
<title>Node16&#45;&gt;Node18</title>
<path fill="none" stroke="#63b8ff" d="M1503.55,-230.5C1451.51,-222.27 1373.69,-209.22 1306.5,-195 1257.2,-184.57 1134.13,-156.46 1086.5,-140 1045.49,-125.83 1000.02,-104.43 971.85,-90.46"/>
<polygon fill="#63b8ff" stroke="#63b8ff" points="973.45,-87.35 962.94,-86 970.32,-93.61 973.45,-87.35"/>
</g>
<!-- Node18&#45;&gt;Node3 -->
<g id="edge24" class="edge">
<title>Node18&#45;&gt;Node3</title>
<path fill="none" stroke="#63b8ff" d="M944.94,-65.87C945.35,-58 945.96,-46.1 946.48,-35.89"/>
<polygon fill="#63b8ff" stroke="#63b8ff" points="949.96,-36.35 946.98,-26.18 942.97,-35.99 949.96,-36.35"/>
</g>
<!-- Node18&#45;&gt;Node19 -->
<g id="edge21" class="edge">
<title>Node18&#45;&gt;Node19</title>
<path fill="none" stroke="#63b8ff" d="M1000.16,-67.18C1003.32,-66.78 1006.45,-66.38 1009.5,-66 1148.91,-48.53 1314.71,-29.03 1388.18,-20.46"/>
<polygon fill="#63b8ff" stroke="#63b8ff" points="1388.13,-23.98 1397.66,-19.35 1387.32,-17.03 1388.13,-23.98"/>
</g>
<!-- Node20 -->
<g id="node20" class="node">
<title>Node20</title>
<g id="a_node20"><a xlink:title=" ">
<polygon fill="#e0e0e0" stroke="#999999" points="1661,-24.5 1610,-24.5 1610,-5.5 1661,-5.5 1661,-24.5"/>
<text text-anchor="middle" x="1635.5" y="-12.5" font-family="Helvetica,sans-Serif" font-size="10.00">memory</text>
</a>
</g>
</g>
<!-- Node18&#45;&gt;Node20 -->
<g id="edge22" class="edge">
<title>Node18&#45;&gt;Node20</title>
<path fill="none" stroke="#63b8ff" d="M1000.5,-66.99C1003.54,-66.64 1006.56,-66.31 1009.5,-66 1210.36,-44.9 1261.18,-46.15 1462.5,-30 1509.46,-26.23 1563.58,-21.85 1598.6,-19"/>
<polygon fill="#63b8ff" stroke="#63b8ff" points="1598.52,-22.52 1608.2,-18.22 1597.95,-15.54 1598.52,-22.52"/>
</g>
<!-- Node21 -->
<g id="node21" class="node">
<title>Node21</title>
<g id="a_node21"><a xlink:title=" ">
<polygon fill="#e0e0e0" stroke="#999999" points="1130,-24.5 1071,-24.5 1071,-5.5 1130,-5.5 1130,-24.5"/>
<text text-anchor="middle" x="1100.5" y="-12.5" font-family="Helvetica,sans-Serif" font-size="10.00">stdexcept</text>
</a>
</g>
</g>
<!-- Node18&#45;&gt;Node21 -->
<g id="edge23" class="edge">
<title>Node18&#45;&gt;Node21</title>
<path fill="none" stroke="#63b8ff" d="M968.19,-65.62C994.19,-55.87 1036.17,-40.12 1065.86,-28.99"/>
<polygon fill="#63b8ff" stroke="#63b8ff" points="1067.03,-32.29 1075.17,-25.5 1064.57,-25.73 1067.03,-32.29"/>
</g>
<!-- Node22 -->
<g id="node22" class="node">
<title>Node22</title>
<g id="a_node22"><a xlink:title=" ">
<polygon fill="#e0e0e0" stroke="#999999" points="1052.5,-24.5 986.5,-24.5 986.5,-5.5 1052.5,-5.5 1052.5,-24.5"/>
<text text-anchor="middle" x="1019.5" y="-12.5" font-family="Helvetica,sans-Serif" font-size="10.00">string_view</text>
</a>
</g>
</g>
<!-- Node18&#45;&gt;Node22 -->
<g id="edge25" class="edge">
<title>Node18&#45;&gt;Node22</title>
<path fill="none" stroke="#63b8ff" d="M955.89,-65.62C967.34,-56.68 985.25,-42.72 999.15,-31.87"/>
<polygon fill="#63b8ff" stroke="#63b8ff" points="1001.08,-34.81 1006.81,-25.9 996.77,-29.29 1001.08,-34.81"/>
</g>
<!-- Node23&#45;&gt;Node17 -->
<g id="edge29" class="edge">
<title>Node23&#45;&gt;Node17</title>
<path fill="none" stroke="#63b8ff" d="M1305.6,-291.32C1294.45,-277.6 1271.4,-250.47 1248.5,-231 1235.57,-220.01 1219.82,-209.43 1206.84,-201.34"/>
<polygon fill="#63b8ff" stroke="#63b8ff" points="1208.79,-198.43 1198.42,-196.22 1205.15,-204.41 1208.79,-198.43"/>
</g>
<!-- Node24 -->
<g id="node24" class="node">
<title>Node24</title>
<g id="a_node24"><a xlink:title=" ">
<polygon fill="#e0e0e0" stroke="#999999" points="1333.5,-250 1295.5,-250 1295.5,-231 1333.5,-231 1333.5,-250"/>
<text text-anchor="middle" x="1314.5" y="-238" font-family="Helvetica,sans-Serif" font-size="10.00">tuple</text>
</a>
</g>
</g>
<!-- Node23&#45;&gt;Node24 -->
<g id="edge30" class="edge">
<title>Node23&#45;&gt;Node24</title>
<path fill="none" stroke="#63b8ff" d="M1312.8,-291.37C1313.06,-283.5 1313.47,-271.6 1313.82,-261.39"/>
<polygon fill="#63b8ff" stroke="#63b8ff" points="1317.31,-261.79 1314.15,-251.68 1310.31,-261.55 1317.31,-261.79"/>
</g>
<!-- Node25 -->
<g id="node25" class="node">
<title>Node25</title>
<g id="a_node25"><a xlink:title=" ">
<polygon fill="#e0e0e0" stroke="#999999" points="1083,-85 1018,-85 1018,-66 1083,-66 1083,-85"/>
<text text-anchor="middle" x="1050.5" y="-73" font-family="Helvetica,sans-Serif" font-size="10.00">sys/types.h</text>
</a>
</g>
</g>
<!-- Node23&#45;&gt;Node25 -->
<g id="edge31" class="edge">
<title>Node23&#45;&gt;Node25</title>
<path fill="none" stroke="#63b8ff" d="M1267.65,-300.18C1223.48,-297.98 1156.68,-287.93 1114.5,-250 1069,-209.09 1055.78,-132.92 1051.99,-96.68"/>
<polygon fill="#63b8ff" stroke="#63b8ff" points="1055.48,-96.43 1051.11,-86.78 1048.51,-97.05 1055.48,-96.43"/>
</g>
<!-- Node26 -->
<g id="node26" class="node">
<title>Node26</title>
<g id="a_node26"><a xlink:href="_reg_accessor_8hpp.html" target="_top" xlink:title=" ">
<polygon fill="white" stroke="#666666" points="1483,-250 1390,-250 1390,-231 1483,-231 1483,-250"/>
<text text-anchor="middle" x="1436.5" y="-238" font-family="Helvetica,sans-Serif" font-size="10.00">RegAccessor.hpp</text>
</a>
</g>
</g>
<!-- Node23&#45;&gt;Node26 -->
<g id="edge32" class="edge">
<title>Node23&#45;&gt;Node26</title>
<path fill="none" stroke="#63b8ff" d="M1331.33,-291.12C1351.45,-281.62 1383.61,-266.45 1407.08,-255.38"/>
<polygon fill="#63b8ff" stroke="#63b8ff" points="1408.57,-258.55 1416.12,-251.11 1405.58,-252.22 1408.57,-258.55"/>
</g>
<!-- Node27 -->
<g id="node27" class="node">
<title>Node27</title>
<g id="a_node27"><a xlink:href="_uio_if_8hpp.html" target="_top" xlink:title=" ">
<polygon fill="white" stroke="#666666" points="1405.5,-195 1315.5,-195 1315.5,-176 1405.5,-176 1405.5,-195"/>
<text text-anchor="middle" x="1360.5" y="-183" font-family="Helvetica,sans-Serif" font-size="10.00">udmaio/UioIf.hpp</text>
</a>
</g>
</g>
<!-- Node23&#45;&gt;Node27 -->
<g id="edge63" class="edge">
<title>Node23&#45;&gt;Node27</title>
<path fill="none" stroke="#63b8ff" d="M1318.78,-291.17C1325.45,-281.47 1335.91,-265.24 1342.5,-250 1348.57,-235.96 1353.21,-219.29 1356.25,-206.56"/>
<polygon fill="#63b8ff" stroke="#63b8ff" points="1359.66,-207.38 1358.43,-196.86 1352.83,-205.85 1359.66,-207.38"/>
</g>
<!-- Node36 -->
<g id="node36" class="node">
<title>Node36</title>
<g id="a_node36"><a xlink:href="_axi_dma_8hpp.html" target="_top" xlink:title=" ">
<polygon fill="white" stroke="#666666" points="1239.5,-250 1123.5,-250 1123.5,-231 1239.5,-231 1239.5,-250"/>
<text text-anchor="middle" x="1181.5" y="-238" font-family="Helvetica,sans-Serif" font-size="10.00">udmaio/rdl/AxiDma.hpp</text>
</a>
</g>
</g>
<!-- Node23&#45;&gt;Node36 -->
<g id="edge64" class="edge">
<title>Node23&#45;&gt;Node36</title>
<path fill="none" stroke="#63b8ff" d="M1292.6,-291.12C1271.16,-281.54 1236.76,-266.18 1211.91,-255.08"/>
<polygon fill="#63b8ff" stroke="#63b8ff" points="1213.52,-251.97 1202.97,-251.09 1210.67,-258.36 1213.52,-251.97"/>
</g>
<!-- Node26&#45;&gt;Node17 -->
<g id="edge33" class="edge">
<title>Node26&#45;&gt;Node17</title>
<path fill="none" stroke="#63b8ff" d="M1390.92,-230.53C1346.77,-221.77 1277.96,-207.9 1218.5,-195 1217.68,-194.82 1216.85,-194.64 1216.01,-194.46"/>
<polygon fill="#63b8ff" stroke="#63b8ff" points="1216.97,-191.08 1206.45,-192.31 1215.44,-197.92 1216.97,-191.08"/>
</g>
<!-- Node26&#45;&gt;Node27 -->
<g id="edge34" class="edge">
<title>Node26&#45;&gt;Node27</title>
<path fill="none" stroke="#63b8ff" d="M1423.61,-230.51C1412.4,-222.7 1395.93,-211.21 1382.62,-201.93"/>
<polygon fill="#63b8ff" stroke="#63b8ff" points="1384.65,-199.07 1374.44,-196.22 1380.64,-204.81 1384.65,-199.07"/>
</g>
<!-- Node27&#45;&gt;Node3 -->
<g id="edge39" class="edge">
<title>Node27&#45;&gt;Node3</title>
<path fill="none" stroke="#63b8ff" d="M1315.27,-178.52C1200.7,-162.92 906.24,-119.77 879.5,-85 874.35,-78.31 875.69,-73.53 879.5,-66 884.26,-56.6 905.12,-41.99 922.5,-30.98"/>
<polygon fill="#63b8ff" stroke="#63b8ff" points="924.23,-34.02 930.89,-25.78 920.55,-28.07 924.23,-34.02"/>
</g>
<!-- Node27&#45;&gt;Node6 -->
<g id="edge40" class="edge">
<title>Node27&#45;&gt;Node6</title>
<path fill="none" stroke="#63b8ff" d="M1405.92,-182.87C1474.64,-179.51 1608.71,-169.45 1718.5,-140 1730.6,-136.75 1797.85,-107.56 1838.09,-89.91"/>
<polygon fill="#63b8ff" stroke="#63b8ff" points="1839.27,-93.21 1847.02,-85.98 1836.46,-86.8 1839.27,-93.21"/>
</g>
<!-- Node27&#45;&gt;Node7 -->
<g id="edge61" class="edge">
<title>Node27&#45;&gt;Node7</title>
<path fill="none" stroke="#63b8ff" d="M1315.15,-180.4C1247.42,-173.91 1115.98,-159.95 1005.5,-140 925.71,-125.59 834.05,-102.41 781.24,-88.4"/>
<polygon fill="#63b8ff" stroke="#63b8ff" points="782.29,-85.06 771.73,-85.86 780.49,-91.82 782.29,-85.06"/>
</g>
<!-- Node27&#45;&gt;Node18 -->
<g id="edge62" class="edge">
<title>Node27&#45;&gt;Node18</title>
<path fill="none" stroke="#63b8ff" d="M1315.24,-175.82C1273.34,-167.52 1209.4,-154.21 1154.5,-140 1093.7,-124.27 1024.11,-102.46 982.27,-88.93"/>
<polygon fill="#63b8ff" stroke="#63b8ff" points="983.52,-85.65 972.93,-85.89 981.35,-92.31 983.52,-85.65"/>
</g>
<!-- Node27&#45;&gt;Node19 -->
<g id="edge37" class="edge">
<title>Node27&#45;&gt;Node19</title>
<path fill="none" stroke="#63b8ff" d="M1405.98,-184.29C1472.49,-181.2 1594.17,-164.32 1647.5,-85 1652.21,-77.99 1652.77,-72.6 1647.5,-66 1625.09,-37.95 1522.3,-24.48 1465.13,-19.06"/>
<polygon fill="#63b8ff" stroke="#63b8ff" points="1465.46,-15.58 1455.18,-18.16 1464.82,-22.55 1465.46,-15.58"/>
</g>
<!-- Node27&#45;&gt;Node20 -->
<g id="edge38" class="edge">
<title>Node27&#45;&gt;Node20</title>
<path fill="none" stroke="#63b8ff" d="M1405.88,-180.21C1469.01,-173.63 1579.55,-159.7 1614.5,-140 1642.76,-124.07 1651.11,-115.38 1662.5,-85 1669.04,-67.55 1659.54,-47.76 1650.05,-33.86"/>
<polygon fill="#63b8ff" stroke="#63b8ff" points="1653.06,-32.04 1644.28,-26.11 1647.45,-36.23 1653.06,-32.04"/>
</g>
<!-- Node27&#45;&gt;Node25 -->
<g id="edge44" class="edge">
<title>Node27&#45;&gt;Node25</title>
<path fill="none" stroke="#63b8ff" d="M1326.16,-175.58C1294.94,-167.22 1247.75,-153.95 1207.5,-140 1162.89,-124.54 1112.48,-103.49 1081.09,-89.95"/>
<polygon fill="#63b8ff" stroke="#63b8ff" points="1082.78,-86.86 1072.21,-86.09 1079.99,-93.29 1082.78,-86.86"/>
</g>
<!-- Node28 -->
<g id="node28" class="node">
<title>Node28</title>
<g id="a_node28"><a xlink:title=" ">
<polygon fill="#e0e0e0" stroke="#999999" points="1161.5,-85 1101.5,-85 1101.5,-66 1161.5,-66 1161.5,-85"/>
<text text-anchor="middle" x="1131.5" y="-73" font-family="Helvetica,sans-Serif" font-size="10.00">filesystem</text>
</a>
</g>
</g>
<!-- Node27&#45;&gt;Node28 -->
<g id="edge35" class="edge">
<title>Node27&#45;&gt;Node28</title>
<path fill="none" stroke="#63b8ff" d="M1335.43,-175.66C1312.28,-167.25 1277.1,-153.86 1247.5,-140 1215.05,-124.8 1179.04,-104.53 1155.88,-91.02"/>
<polygon fill="#63b8ff" stroke="#63b8ff" points="1157.9,-88.15 1147.51,-86.1 1154.36,-94.18 1157.9,-88.15"/>
</g>
<!-- Node29 -->
<g id="node29" class="node">
<title>Node29</title>
<g id="a_node29"><a xlink:title=" ">
<polygon fill="#e0e0e0" stroke="#999999" points="1229.5,-85 1179.5,-85 1179.5,-66 1229.5,-66 1229.5,-85"/>
<text text-anchor="middle" x="1204.5" y="-73" font-family="Helvetica,sans-Serif" font-size="10.00">fstream</text>
</a>
</g>
</g>
<!-- Node27&#45;&gt;Node29 -->
<g id="edge36" class="edge">
<title>Node27&#45;&gt;Node29</title>
<path fill="none" stroke="#63b8ff" d="M1339.84,-175.65C1321.87,-167.53 1295.49,-154.58 1274.5,-140 1254.38,-126.02 1233.92,-106.75 1220.36,-93.12"/>
<polygon fill="#63b8ff" stroke="#63b8ff" points="1223.06,-90.87 1213.57,-86.16 1218.05,-95.76 1223.06,-90.87"/>
</g>
<!-- Node30 -->
<g id="node30" class="node">
<title>Node30</title>
<g id="a_node30"><a xlink:title=" ">
<polygon fill="#e0e0e0" stroke="#999999" points="1291,-85 1248,-85 1248,-66 1291,-66 1291,-85"/>
<text text-anchor="middle" x="1269.5" y="-73" font-family="Helvetica,sans-Serif" font-size="10.00">fcntl.h</text>
</a>
</g>
</g>
<!-- Node27&#45;&gt;Node30 -->
<g id="edge41" class="edge">
<title>Node27&#45;&gt;Node30</title>
<path fill="none" stroke="#63b8ff" d="M1338.32,-175.61C1322.6,-168.25 1302.13,-156.34 1289.5,-140 1279.75,-127.39 1274.7,-109.93 1272.12,-96.52"/>
<polygon fill="#63b8ff" stroke="#63b8ff" points="1275.58,-96 1270.56,-86.67 1268.67,-97.1 1275.58,-96"/>
</g>
<!-- Node31 -->
<g id="node31" class="node">
<title>Node31</title>
<g id="a_node31"><a xlink:title=" ">
<polygon fill="#e0e0e0" stroke="#999999" points="1493,-85 1424,-85 1424,-66 1493,-66 1493,-85"/>
<text text-anchor="middle" x="1458.5" y="-73" font-family="Helvetica,sans-Serif" font-size="10.00">sys/mman.h</text>
</a>
</g>
</g>
<!-- Node27&#45;&gt;Node31 -->
<g id="edge42" class="edge">
<title>Node27&#45;&gt;Node31</title>
<path fill="none" stroke="#63b8ff" d="M1382.26,-175.51C1398.04,-168.04 1418.92,-156.03 1432.5,-140 1443.23,-127.34 1449.98,-109.64 1453.91,-96.15"/>
<polygon fill="#63b8ff" stroke="#63b8ff" points="1457.24,-97.23 1456.37,-86.67 1450.47,-95.47 1457.24,-97.23"/>
</g>
<!-- Node32 -->
<g id="node32" class="node">
<title>Node32</title>
<g id="a_node32"><a xlink:title=" ">
<polygon fill="#e0e0e0" stroke="#999999" points="1570,-85 1511,-85 1511,-66 1570,-66 1570,-85"/>
<text text-anchor="middle" x="1540.5" y="-73" font-family="Helvetica,sans-Serif" font-size="10.00">sys/stat.h</text>
</a>
</g>
</g>
<!-- Node27&#45;&gt;Node32 -->
<g id="edge43" class="edge">
<title>Node27&#45;&gt;Node32</title>
<path fill="none" stroke="#63b8ff" d="M1381.25,-175.54C1400.03,-167.15 1428.23,-153.86 1451.5,-140 1476.27,-125.25 1502.97,-105.65 1520.6,-92.15"/>
<polygon fill="#63b8ff" stroke="#63b8ff" points="1522.42,-95.16 1528.19,-86.27 1518.14,-89.62 1522.42,-95.16"/>
</g>
<!-- Node33 -->
<g id="node33" class="node">
<title>Node33</title>
<g id="a_node33"><a xlink:title=" ">
<polygon fill="#e0e0e0" stroke="#999999" points="1638.5,-85 1588.5,-85 1588.5,-66 1638.5,-66 1638.5,-85"/>
<text text-anchor="middle" x="1613.5" y="-73" font-family="Helvetica,sans-Serif" font-size="10.00">unistd.h</text>
</a>
</g>
</g>
<!-- Node27&#45;&gt;Node33 -->
<g id="edge45" class="edge">
<title>Node27&#45;&gt;Node33</title>
<path fill="none" stroke="#63b8ff" d="M1386.05,-175.53C1410.11,-166.92 1447.04,-153.31 1478.5,-140 1516.03,-124.13 1558.42,-103.78 1585.52,-90.46"/>
<polygon fill="#63b8ff" stroke="#63b8ff" points="1587.02,-93.61 1594.44,-86.05 1583.92,-87.34 1587.02,-93.61"/>
</g>
<!-- Node34 -->
<g id="node34" class="node">
<title>Node34</title>
<g id="a_node34"><a xlink:href="_hw_accessor_8hpp.html" target="_top" xlink:title=" ">
<polygon fill="white" stroke="#666666" points="1423,-140 1298,-140 1298,-121 1423,-121 1423,-140"/>
<text text-anchor="middle" x="1360.5" y="-128" font-family="Helvetica,sans-Serif" font-size="10.00">udmaio/HwAccessor.hpp</text>
</a>
</g>
</g>
<!-- Node27&#45;&gt;Node34 -->
<g id="edge46" class="edge">
<title>Node27&#45;&gt;Node34</title>
<path fill="none" stroke="#63b8ff" d="M1360.5,-175.75C1360.5,-169.27 1360.5,-160.16 1360.5,-151.9"/>
<polygon fill="#63b8ff" stroke="#63b8ff" points="1364,-151.96 1360.5,-141.96 1357,-151.96 1364,-151.96"/>
</g>
<!-- Node34&#45;&gt;Node3 -->
<g id="edge52" class="edge">
<title>Node34&#45;&gt;Node3</title>
<path fill="none" stroke="#63b8ff" d="M1355.16,-120.68C1345.98,-106.4 1325.75,-78.58 1300.5,-66 1171.22,-1.57 1116.56,-69.06 977.5,-30 976.53,-29.73 975.56,-29.43 974.58,-29.1"/>
<polygon fill="#63b8ff" stroke="#63b8ff" points="976.26,-26.01 965.67,-25.55 973.66,-32.51 976.26,-26.01"/>
</g>
<!-- Node34&#45;&gt;Node6 -->
<g id="edge53" class="edge">
<title>Node34&#45;&gt;Node6</title>
<path fill="none" stroke="#63b8ff" d="M1423.33,-123.15C1504.96,-114.88 1652.27,-99.83 1788.22,-85.34"/>
<polygon fill="#63b8ff" stroke="#63b8ff" points="1788.58,-88.83 1798.15,-84.28 1787.84,-81.87 1788.58,-88.83"/>
</g>
<!-- Node34&#45;&gt;Node7 -->
<g id="edge59" class="edge">
<title>Node34&#45;&gt;Node7</title>
<path fill="none" stroke="#63b8ff" d="M1297.62,-124.15C1172.28,-113.49 893.87,-89.8 783.68,-80.43"/>
<polygon fill="#63b8ff" stroke="#63b8ff" points="784.09,-76.95 773.83,-79.59 783.5,-83.93 784.09,-76.95"/>
</g>
<!-- Node34&#45;&gt;Node18 -->
<g id="edge60" class="edge">
<title>Node34&#45;&gt;Node18</title>
<path fill="none" stroke="#63b8ff" d="M1297.72,-121.62C1229.89,-113.08 1118.28,-98.99 1011.49,-85.25"/>
<polygon fill="#63b8ff" stroke="#63b8ff" points="1012.03,-81.79 1001.67,-83.99 1011.14,-88.74 1012.03,-81.79"/>
</g>
<!-- Node34&#45;&gt;Node19 -->
<g id="edge50" class="edge">
<title>Node34&#45;&gt;Node19</title>
<path fill="none" stroke="#63b8ff" d="M1362.18,-120.81C1364.89,-108.13 1371,-84.07 1381.5,-66 1388.7,-53.6 1399.34,-41.6 1408.47,-32.46"/>
<polygon fill="#63b8ff" stroke="#63b8ff" points="1410.72,-35.15 1415.51,-25.7 1405.87,-30.11 1410.72,-35.15"/>
</g>
<!-- Node34&#45;&gt;Node20 -->
<g id="edge51" class="edge">
<title>Node34&#45;&gt;Node20</title>
<path fill="none" stroke="#63b8ff" d="M1365.64,-120.53C1374.14,-106.57 1392.49,-79.8 1415.5,-66 1473.13,-31.44 1552.33,-20.74 1598.3,-17.45"/>
<polygon fill="#63b8ff" stroke="#63b8ff" points="1598.24,-20.96 1608,-16.84 1597.8,-13.97 1598.24,-20.96"/>
</g>
<!-- Node34&#45;&gt;Node25 -->
<g id="edge57" class="edge">
<title>Node34&#45;&gt;Node25</title>
<path fill="none" stroke="#63b8ff" d="M1302.89,-120.53C1250.99,-112.32 1172.32,-99.54 1094.47,-85.31"/>
<polygon fill="#63b8ff" stroke="#63b8ff" points="1095.45,-81.93 1084.98,-83.56 1094.19,-88.81 1095.45,-81.93"/>
</g>
<!-- Node34&#45;&gt;Node28 -->
<g id="edge48" class="edge">
<title>Node34&#45;&gt;Node28</title>
<path fill="none" stroke="#63b8ff" d="M1321.65,-120.51C1280.27,-110.93 1215.04,-95.83 1172.76,-86.05"/>
<polygon fill="#63b8ff" stroke="#63b8ff" points="1173.75,-82.69 1163.22,-83.84 1172.17,-89.51 1173.75,-82.69"/>
</g>
<!-- Node34&#45;&gt;Node29 -->
<g id="edge49" class="edge">
<title>Node34&#45;&gt;Node29</title>
<path fill="none" stroke="#63b8ff" d="M1334.04,-120.51C1308.33,-111.77 1269.1,-98.45 1240.55,-88.75"/>
<polygon fill="#63b8ff" stroke="#63b8ff" points="1241.83,-85.48 1231.23,-85.58 1239.57,-92.11 1241.83,-85.48"/>
</g>
<!-- Node34&#45;&gt;Node30 -->
<g id="edge54" class="edge">
<title>Node34&#45;&gt;Node30</title>
<path fill="none" stroke="#63b8ff" d="M1345.06,-120.51C1331.25,-112.47 1310.75,-100.53 1294.59,-91.11"/>
<polygon fill="#63b8ff" stroke="#63b8ff" points="1296.42,-88.13 1286.02,-86.12 1292.9,-94.18 1296.42,-88.13"/>
</g>
<!-- Node34&#45;&gt;Node31 -->
<g id="edge55" class="edge">
<title>Node34&#45;&gt;Node31</title>
<path fill="none" stroke="#63b8ff" d="M1377.12,-120.51C1392.28,-112.31 1414.92,-100.07 1432.47,-90.58"/>
<polygon fill="#63b8ff" stroke="#63b8ff" points="1433.66,-93.91 1440.79,-86.08 1430.33,-87.76 1433.66,-93.91"/>
</g>
<!-- Node34&#45;&gt;Node32 -->
<g id="edge56" class="edge">
<title>Node34&#45;&gt;Node32</title>
<path fill="none" stroke="#63b8ff" d="M1391.03,-120.51C1421.04,-111.67 1467.02,-98.14 1500.05,-88.41"/>
<polygon fill="#63b8ff" stroke="#63b8ff" points="1500.66,-91.88 1509.26,-85.7 1498.68,-85.16 1500.66,-91.88"/>
</g>
<!-- Node34&#45;&gt;Node33 -->
<g id="edge58" class="edge">
<title>Node34&#45;&gt;Node33</title>
<path fill="none" stroke="#63b8ff" d="M1407.62,-120.55C1449.63,-112.44 1513.06,-99.84 1577.15,-85.45"/>
<polygon fill="#63b8ff" stroke="#63b8ff" points="1577.82,-88.89 1586.8,-83.27 1576.28,-82.06 1577.82,-88.89"/>
</g>
<!-- Node35 -->
<g id="node35" class="node">
<title>Node35</title>
<g id="a_node35"><a xlink:title=" ">
<polygon fill="#e0e0e0" stroke="#999999" points="1782,-85 1733,-85 1733,-66 1782,-66 1782,-85"/>
<text text-anchor="middle" x="1757.5" y="-73" font-family="Helvetica,sans-Serif" font-size="10.00">cstddef</text>
</a>
</g>
</g>
<!-- Node34&#45;&gt;Node35 -->
<g id="edge47" class="edge">
<title>Node34&#45;&gt;Node35</title>
<path fill="none" stroke="#63b8ff" d="M1423.41,-121.1C1507.56,-109.87 1653.99,-90.32 1721.51,-81.3"/>
<polygon fill="#63b8ff" stroke="#63b8ff" points="1721.84,-84.79 1731.29,-80 1720.91,-77.85 1721.84,-84.79"/>
</g>
<!-- Node36&#45;&gt;Node17 -->
<g id="edge65" class="edge">
<title>Node36&#45;&gt;Node17</title>
<path fill="none" stroke="#63b8ff" d="M1181.5,-230.75C1181.5,-224.27 1181.5,-215.16 1181.5,-206.9"/>
<polygon fill="#63b8ff" stroke="#63b8ff" points="1185,-206.96 1181.5,-196.96 1178,-206.96 1185,-206.96"/>
</g>
<!-- Node37&#45;&gt;Node16 -->
<g id="edge69" class="edge">
<title>Node37&#45;&gt;Node16</title>
<path fill="none" stroke="#63b8ff" d="M1564.2,-291.37C1563.94,-283.5 1563.53,-271.6 1563.18,-261.39"/>
<polygon fill="#63b8ff" stroke="#63b8ff" points="1566.69,-261.55 1562.85,-251.68 1559.69,-261.79 1566.69,-261.55"/>
</g>
<!-- Node37&#45;&gt;Node20 -->
<g id="edge68" class="edge">
<title>Node37&#45;&gt;Node20</title>
<path fill="none" stroke="#63b8ff" d="M1586.53,-291.09C1661.58,-260.23 1905.02,-155.95 1946.5,-85 1950.76,-77.71 1951.98,-72.43 1946.5,-66 1911.66,-25.11 1747.09,-17.53 1672.46,-16.22"/>
<polygon fill="#63b8ff" stroke="#63b8ff" points="1672.85,-12.73 1662.8,-16.08 1672.75,-19.72 1672.85,-12.73"/>
</g>
<!-- Node37&#45;&gt;Node26 -->
<g id="edge70" class="edge">
<title>Node37&#45;&gt;Node26</title>
<path fill="none" stroke="#63b8ff" d="M1545.06,-291.12C1524.2,-281.58 1490.79,-266.31 1466.54,-255.23"/>
<polygon fill="#63b8ff" stroke="#63b8ff" points="1468.05,-252.07 1457.5,-251.1 1465.14,-258.44 1468.05,-252.07"/>
</g>
<!-- Node37&#45;&gt;Node35 -->
<g id="edge67" class="edge">
<title>Node37&#45;&gt;Node35</title>
<path fill="none" stroke="#63b8ff" d="M1578.58,-291.1C1592.62,-281.83 1614.37,-266.4 1630.5,-250 1680.12,-199.55 1725.9,-128.68 1746.31,-95.29"/>
<polygon fill="#63b8ff" stroke="#63b8ff" points="1749.27,-97.16 1751.44,-86.79 1743.28,-93.54 1749.27,-97.16"/>
</g>
</g>
</svg>
        <g id="navigator" transform="translate(0 0)" fill="#404254">
                <rect fill="#f2f5e9" fill-opacity="0.5" stroke="#606060" stroke-width=".5" x="0" y="0" width="60" height="60"/>
                <use id="zoomplus" xlink:href="#zoomPlus" x="17" y="9" onmousedown="handleZoom(evt,'in')"/>
                <use id="zoomminus" xlink:href="#zoomMin" x="42" y="9" onmousedown="handleZoom(evt,'out')"/>
                <use id="reset" xlink:href="#resetDef" x="30" y="36" onmousedown="handleReset()"/>
                <g id="arrowUp" xlink:href="#dirArrow" transform="translate(30 24)" onmousedown="handlePan(0,-1)">
                  <use xlink:href="#rim" fill="#404040">
                        <set attributeName="fill" to="#808080" begin="arrowUp.mouseover" end="arrowUp.mouseout"/>
                  </use>
                  <path fill="none" stroke="white" stroke-width="1.5" d="M0,-3.0v7 M-2.5,-0.5L0,-3.0L2.5,-0.5"/>
                </g>
                <g id="arrowRight" xlink:href="#dirArrow" transform="rotate(90) translate(36 -43)" onmousedown="handlePan(1,0)">
                  <use xlink:href="#rim" fill="#404040">
                        <set attributeName="fill" to="#808080" begin="arrowRight.mouseover" end="arrowRight.mouseout"/>
                  </use>
                  <path fill="none" stroke="white" stroke-width="1.5" d="M0,-3.0v7 M-2.5,-0.5L0,-3.0L2.5,-0.5"/>
                </g>
                <g id="arrowDown" xlink:href="#dirArrow" transform="rotate(180) translate(-30 -48)" onmousedown="handlePan(0,1)">
                  <use xlink:href="#rim" fill="#404040">
                        <set attributeName="fill" to="#808080" begin="arrowDown.mouseover" end="arrowDown.mouseout"/>
                  </use>
                  <path fill="none" stroke="white" stroke-width="1.5" d="M0,-3.0v7 M-2.5,-0.5L0,-3.0L2.5,-0.5"/>
                </g>
                <g id="arrowLeft" xlink:href="#dirArrow" transform="rotate(270) translate(-36 17)" onmousedown="handlePan(-1,0)">
                  <use xlink:href="#rim" fill="#404040">
                        <set attributeName="fill" to="#808080" begin="arrowLeft.mouseover" end="arrowLeft.mouseout"/>
                  </use>
                  <path fill="none" stroke="white" stroke-width="1.5" d="M0,-3.0v7 M-2.5,-0.5L0,-3.0L2.5,-0.5"/>
                </g>
        </g>
        <svg viewBox="0 0 15 15" width="100%" height="30px" preserveAspectRatio="xMaxYMin meet">
         <g id="arrow_out" transform="scale(0.3 0.3)">
          <a xlink:href="_data_handler_abstract_8cpp__incl_org.svg" target="_base">
           <rect id="button" ry="5" rx="5" y="6" x="6" height="38" width="38"
                fill="#f2f5e9" fill-opacity="0.5" stroke="#606060" stroke-width="1.0"/>
           <path id="arrow"
             d="M 11.500037,31.436501 C 11.940474,20.09759 22.043105,11.32322 32.158766,21.979434 L 37.068811,17.246167 C 37.068811,17.246167 37.088388,32 37.088388,32 L 22.160133,31.978069 C 22.160133,31.978069 26.997745,27.140456 26.997745,27.140456 C 18.528582,18.264221 13.291696,25.230495 11.500037,31.436501 z"
             style="fill:#404040;"/>
          </a>
         </g>
        </svg>
</svg>
