<?xml version="1.0" encoding="UTF-8" standalone="no"?>
<!DOCTYPE svg PUBLIC "-//W3C//DTD SVG 1.1//EN"
 "http://www.w3.org/Graphics/SVG/1.1/DTD/svg11.dtd">
<!-- Generated by graphviz version 7.0.5 (20221223.1930)
 -->
<!-- Title: FpgaMemBufferOverAxi.hpp Pages: 1 -->
<!--zoomable 203 -->
<svg id="main" version="1.1" xmlns="http://www.w3.org/2000/svg" xmlns:xlink="http://www.w3.org/1999/xlink" xml:space="preserve" onload="init(evt)">
<style type="text/css"><![CDATA[
.edge:hover path { stroke: red; }
.edge:hover polygon { stroke: red; fill: red; }
]]></style>
<script type="text/javascript"><![CDATA[
var edges = document.getElementsByTagName('g');
if (edges && edges.length) {
  for (var i=0;i<edges.length;i++) {
    if (edges[i].id.substr(0,4)=='edge') {
      edges[i].setAttribute('class','edge');
    }
  }
}
]]></script>
        <defs>
                <circle id="rim" cx="0" cy="0" r="7"/>
                <circle id="rim2" cx="0" cy="0" r="3.5"/>
                <g id="zoomPlus">
                        <use xlink:href="#rim" fill="#404040">
                                <set attributeName="fill" to="#808080" begin="zoomplus.mouseover" end="zoomplus.mouseout"/>
                        </use>
                        <path d="M-4,0h8M0,-4v8" fill="none" stroke="white" stroke-width="1.5" pointer-events="none"/>
                </g>
                <g id="zoomMin">
                        <use xlink:href="#rim" fill="#404040">
                                <set attributeName="fill" to="#808080" begin="zoomminus.mouseover" end="zoomminus.mouseout"/>
                        </use>
                        <path d="M-4,0h8" fill="none" stroke="white" stroke-width="1.5" pointer-events="none"/>
                </g>
                <g id="dirArrow">
                        <path fill="none" stroke="white" stroke-width="1.5" d="M0,-3.0v7 M-2.5,-0.5L0,-3.0L2.5,-0.5"/>
                </g>
               <g id="resetDef">
                       <use xlink:href="#rim2" fill="#404040">
                               <set attributeName="fill" to="#808080" begin="reset.mouseover" end="reset.mouseout"/>
                       </use>
               </g>
        </defs>

<script type="text/javascript">
var viewWidth = 1403;
var viewHeight = 203;
var sectionId = 'dynsection-0';
</script>
<script xlink:href="svgpan.js"/>
<svg id="graph" class="graph">
<g id="viewport">
<title>FpgaMemBufferOverAxi.hpp</title>
<!-- Node1 -->
<g id="node1" class="node">
<title>Node1</title>
<g id="a_node1"><a xlink:title=" ">
<polygon fill="#999999" stroke="#666666" points="569.5,-195 431.5,-195 431.5,-176 569.5,-176 569.5,-195"/>
<text text-anchor="middle" x="500.5" y="-183" font-family="Helvetica,sans-Serif" font-size="10.00">FpgaMemBufferOverAxi.hpp</text>
</a>
</g>
</g>
<!-- Node2 -->
<g id="node2" class="node">
<title>Node2</title>
<g id="a_node2"><a xlink:title=" ">
<polygon fill="#e0e0e0" stroke="#999999" points="286,-85 243,-85 243,-66 286,-66 286,-85"/>
<text text-anchor="middle" x="264.5" y="-73" font-family="Helvetica,sans-Serif" font-size="10.00">fcntl.h</text>
</a>
</g>
</g>
<!-- Node1&#45;&gt;Node2 -->
<g id="edge1" class="edge">
<title>Node1&#45;&gt;Node2</title>
<path fill="none" stroke="#63b8ff" d="M481.19,-175.66C440.04,-156.83 343.51,-112.66 294.37,-90.17"/>
<polygon fill="#63b8ff" stroke="#63b8ff" points="296.01,-87.07 285.46,-86.09 293.09,-93.43 296.01,-87.07"/>
</g>
<!-- Node3 -->
<g id="node3" class="node">
<title>Node3</title>
<g id="a_node3"><a xlink:title=" ">
<polygon fill="#e0e0e0" stroke="#999999" points="373,-85 304,-85 304,-66 373,-66 373,-85"/>
<text text-anchor="middle" x="338.5" y="-73" font-family="Helvetica,sans-Serif" font-size="10.00">sys/mman.h</text>
</a>
</g>
</g>
<!-- Node1&#45;&gt;Node3 -->
<g id="edge2" class="edge">
<title>Node1&#45;&gt;Node3</title>
<path fill="none" stroke="#63b8ff" d="M487.24,-175.66C459.59,-157.23 395.5,-114.5 361.17,-91.62"/>
<polygon fill="#63b8ff" stroke="#63b8ff" points="363.46,-88.93 353.2,-86.3 359.58,-94.76 363.46,-88.93"/>
</g>
<!-- Node4 -->
<g id="node4" class="node">
<title>Node4</title>
<g id="a_node4"><a xlink:title=" ">
<polygon fill="#e0e0e0" stroke="#999999" points="450,-85 391,-85 391,-66 450,-66 450,-85"/>
<text text-anchor="middle" x="420.5" y="-73" font-family="Helvetica,sans-Serif" font-size="10.00">sys/stat.h</text>
</a>
</g>
</g>
<!-- Node1&#45;&gt;Node4 -->
<g id="edge3" class="edge">
<title>Node1&#45;&gt;Node4</title>
<path fill="none" stroke="#63b8ff" d="M493.95,-175.66C480.89,-158.02 451.33,-118.12 433.96,-94.67"/>
<polygon fill="#63b8ff" stroke="#63b8ff" points="436.8,-92.63 428.04,-86.68 431.18,-96.8 436.8,-92.63"/>
</g>
<!-- Node5 -->
<g id="node5" class="node">
<title>Node5</title>
<g id="a_node5"><a xlink:title=" ">
<polygon fill="#e0e0e0" stroke="#999999" points="533,-85 468,-85 468,-66 533,-66 533,-85"/>
<text text-anchor="middle" x="500.5" y="-73" font-family="Helvetica,sans-Serif" font-size="10.00">sys/types.h</text>
</a>
</g>
</g>
<!-- Node1&#45;&gt;Node5 -->
<g id="edge4" class="edge">
<title>Node1&#45;&gt;Node5</title>
<path fill="none" stroke="#63b8ff" d="M500.5,-175.66C500.5,-158.57 500.5,-120.61 500.5,-96.92"/>
<polygon fill="#63b8ff" stroke="#63b8ff" points="504,-96.97 500.5,-86.97 497,-96.97 504,-96.97"/>
</g>
<!-- Node6 -->
<g id="node6" class="node">
<title>Node6</title>
<g id="a_node6"><a xlink:title=" ">
<polygon fill="#e0e0e0" stroke="#999999" points="601.5,-85 551.5,-85 551.5,-66 601.5,-66 601.5,-85"/>
<text text-anchor="middle" x="576.5" y="-73" font-family="Helvetica,sans-Serif" font-size="10.00">unistd.h</text>
</a>
</g>
</g>
<!-- Node1&#45;&gt;Node6 -->
<g id="edge5" class="edge">
<title>Node1&#45;&gt;Node6</title>
<path fill="none" stroke="#63b8ff" d="M506.72,-175.66C519.13,-158.02 547.21,-118.12 563.71,-94.67"/>
<polygon fill="#63b8ff" stroke="#63b8ff" points="566.43,-96.89 569.32,-86.7 560.71,-92.86 566.43,-96.89"/>
</g>
<!-- Node7 -->
<g id="node7" class="node">
<title>Node7</title>
<g id="a_node7"><a xlink:href="_dma_buffer_abstract_8hpp.html" target="_top" xlink:title=" ">
<polygon fill="white" stroke="#666666" points="1258,-140 1141,-140 1141,-121 1258,-121 1258,-140"/>
<text text-anchor="middle" x="1199.5" y="-128" font-family="Helvetica,sans-Serif" font-size="10.00">DmaBufferAbstract.hpp</text>
</a>
</g>
</g>
<!-- Node1&#45;&gt;Node7 -->
<g id="edge6" class="edge">
<title>Node1&#45;&gt;Node7</title>
<path fill="none" stroke="#63b8ff" d="M569.76,-179.25C703.3,-169.12 995.04,-147 1129.31,-136.82"/>
<polygon fill="#63b8ff" stroke="#63b8ff" points="1129.43,-140.32 1139.13,-136.08 1128.9,-133.34 1129.43,-140.32"/>
</g>
<!-- Node17 -->
<g id="node17" class="node">
<title>Node17</title>
<g id="a_node17"><a xlink:href="_uio_if_8hpp.html" target="_top" xlink:title=" ">
<polygon fill="white" stroke="#666666" points="719.5,-140 663.5,-140 663.5,-121 719.5,-121 719.5,-140"/>
<text text-anchor="middle" x="691.5" y="-128" font-family="Helvetica,sans-Serif" font-size="10.00">UioIf.hpp</text>
</a>
</g>
</g>
<!-- Node1&#45;&gt;Node17 -->
<g id="edge16" class="edge">
<title>Node1&#45;&gt;Node17</title>
<path fill="none" stroke="#63b8ff" d="M532.9,-175.51C565.84,-166.37 616.91,-152.2 652.16,-142.42"/>
<polygon fill="#63b8ff" stroke="#63b8ff" points="652.84,-145.86 661.54,-139.81 650.97,-139.11 652.84,-145.86"/>
</g>
<!-- Node8 -->
<g id="node8" class="node">
<title>Node8</title>
<g id="a_node8"><a xlink:title=" ">
<polygon fill="#e0e0e0" stroke="#999999" points="1394.5,-85 1348.5,-85 1348.5,-66 1394.5,-66 1394.5,-85"/>
<text text-anchor="middle" x="1371.5" y="-73" font-family="Helvetica,sans-Serif" font-size="10.00">cstdint</text>
</a>
</g>
</g>
<!-- Node7&#45;&gt;Node8 -->
<g id="edge7" class="edge">
<title>Node7&#45;&gt;Node8</title>
<path fill="none" stroke="#63b8ff" d="M1228.68,-120.51C1258.72,-111.25 1305.52,-96.83 1337.29,-87.04"/>
<polygon fill="#63b8ff" stroke="#63b8ff" points="1338.29,-90.4 1346.81,-84.11 1336.22,-83.71 1338.29,-90.4"/>
</g>
<!-- Node9 -->
<g id="node9" class="node">
<title>Node9</title>
<g id="a_node9"><a xlink:title=" ">
<polygon fill="#e0e0e0" stroke="#999999" points="1330.5,-85 1286.5,-85 1286.5,-66 1330.5,-66 1330.5,-85"/>
<text text-anchor="middle" x="1308.5" y="-73" font-family="Helvetica,sans-Serif" font-size="10.00">vector</text>
</a>
</g>
</g>
<!-- Node7&#45;&gt;Node9 -->
<g id="edge8" class="edge">
<title>Node7&#45;&gt;Node9</title>
<path fill="none" stroke="#63b8ff" d="M1217.99,-120.51C1235,-112.24 1260.49,-99.84 1280.09,-90.31"/>
<polygon fill="#63b8ff" stroke="#63b8ff" points="1281.46,-93.54 1288.92,-86.02 1278.4,-87.25 1281.46,-93.54"/>
</g>
<!-- Node10 -->
<g id="node10" class="node">
<title>Node10</title>
<g id="a_node10"><a xlink:title=" ">
<polygon fill="#e0e0e0" stroke="#999999" points="1268,-85 1131,-85 1131,-66 1268,-66 1268,-85"/>
<text text-anchor="middle" x="1199.5" y="-73" font-family="Helvetica,sans-Serif" font-size="10.00">boost/core/noncopyable.hpp</text>
</a>
</g>
</g>
<!-- Node7&#45;&gt;Node10 -->
<g id="edge9" class="edge">
<title>Node7&#45;&gt;Node10</title>
<path fill="none" stroke="#63b8ff" d="M1199.5,-120.75C1199.5,-114.27 1199.5,-105.16 1199.5,-96.9"/>
<polygon fill="#63b8ff" stroke="#63b8ff" points="1203,-96.96 1199.5,-86.96 1196,-96.96 1203,-96.96"/>
</g>
<!-- Node11 -->
<g id="node11" class="node">
<title>Node11</title>
<g id="a_node11"><a xlink:href="_uio_config_8hpp.html" target="_top" xlink:title=" ">
<polygon fill="white" stroke="#666666" points="1113,-85 1002,-85 1002,-66 1113,-66 1113,-85"/>
<text text-anchor="middle" x="1057.5" y="-73" font-family="Helvetica,sans-Serif" font-size="10.00">udmaio/UioConfig.hpp</text>
</a>
</g>
</g>
<!-- Node7&#45;&gt;Node11 -->
<g id="edge10" class="edge">
<title>Node7&#45;&gt;Node11</title>
<path fill="none" stroke="#63b8ff" d="M1175.41,-120.51C1152.43,-111.93 1117.56,-98.92 1091.7,-89.27"/>
<polygon fill="#63b8ff" stroke="#63b8ff" points="1093.24,-86.1 1082.65,-85.89 1090.8,-92.66 1093.24,-86.1"/>
</g>
<!-- Node12 -->
<g id="node12" class="node">
<title>Node12</title>
<g id="a_node12"><a xlink:title=" ">
<polygon fill="#e0e0e0" stroke="#999999" points="1040.5,-24.5 986.5,-24.5 986.5,-5.5 1040.5,-5.5 1040.5,-24.5"/>
<text text-anchor="middle" x="1013.5" y="-12.5" font-family="Helvetica,sans-Serif" font-size="10.00">iostream</text>
</a>
</g>
</g>
<!-- Node11&#45;&gt;Node12 -->
<g id="edge11" class="edge">
<title>Node11&#45;&gt;Node12</title>
<path fill="none" stroke="#63b8ff" d="M1051.01,-65.87C1044.64,-57.4 1034.74,-44.24 1026.71,-33.57"/>
<polygon fill="#63b8ff" stroke="#63b8ff" points="1029.74,-31.76 1020.93,-25.88 1024.14,-35.97 1029.74,-31.76"/>
</g>
<!-- Node13 -->
<g id="node13" class="node">
<title>Node13</title>
<g id="a_node13"><a xlink:title=" ">
<polygon fill="#e0e0e0" stroke="#999999" points="1110,-24.5 1059,-24.5 1059,-5.5 1110,-5.5 1110,-24.5"/>
<text text-anchor="middle" x="1084.5" y="-12.5" font-family="Helvetica,sans-Serif" font-size="10.00">memory</text>
</a>
</g>
</g>
<!-- Node11&#45;&gt;Node13 -->
<g id="edge12" class="edge">
<title>Node11&#45;&gt;Node13</title>
<path fill="none" stroke="#63b8ff" d="M1061.48,-65.87C1065.23,-57.75 1070.97,-45.31 1075.78,-34.89"/>
<polygon fill="#63b8ff" stroke="#63b8ff" points="1078.85,-36.59 1079.87,-26.04 1072.5,-33.65 1078.85,-36.59"/>
</g>
<!-- Node14 -->
<g id="node14" class="node">
<title>Node14</title>
<g id="a_node14"><a xlink:title=" ">
<polygon fill="#e0e0e0" stroke="#999999" points="1187,-24.5 1128,-24.5 1128,-5.5 1187,-5.5 1187,-24.5"/>
<text text-anchor="middle" x="1157.5" y="-12.5" font-family="Helvetica,sans-Serif" font-size="10.00">stdexcept</text>
</a>
</g>
</g>
<!-- Node11&#45;&gt;Node14 -->
<g id="edge13" class="edge">
<title>Node11&#45;&gt;Node14</title>
<path fill="none" stroke="#63b8ff" d="M1072.69,-65.62C1088.55,-56.34 1113.68,-41.63 1132.48,-30.64"/>
<polygon fill="#63b8ff" stroke="#63b8ff" points="1134,-33.8 1140.86,-25.73 1130.46,-27.76 1134,-33.8"/>
</g>
<!-- Node15 -->
<g id="node15" class="node">
<title>Node15</title>
<g id="a_node15"><a xlink:title=" ">
<polygon fill="#e0e0e0" stroke="#999999" points="968,-24.5 927,-24.5 927,-5.5 968,-5.5 968,-24.5"/>
<text text-anchor="middle" x="947.5" y="-12.5" font-family="Helvetica,sans-Serif" font-size="10.00">string</text>
</a>
</g>
</g>
<!-- Node11&#45;&gt;Node15 -->
<g id="edge14" class="edge">
<title>Node11&#45;&gt;Node15</title>
<path fill="none" stroke="#63b8ff" d="M1040.79,-65.62C1023.19,-56.25 995.19,-41.36 974.45,-30.33"/>
<polygon fill="#63b8ff" stroke="#63b8ff" points="976.17,-27.28 965.7,-25.68 972.89,-33.46 976.17,-27.28"/>
</g>
<!-- Node16 -->
<g id="node16" class="node">
<title>Node16</title>
<g id="a_node16"><a xlink:title=" ">
<polygon fill="#e0e0e0" stroke="#999999" points="1271.5,-24.5 1205.5,-24.5 1205.5,-5.5 1271.5,-5.5 1271.5,-24.5"/>
<text text-anchor="middle" x="1238.5" y="-12.5" font-family="Helvetica,sans-Serif" font-size="10.00">string_view</text>
</a>
</g>
</g>
<!-- Node11&#45;&gt;Node16 -->
<g id="edge15" class="edge">
<title>Node11&#45;&gt;Node16</title>
<path fill="none" stroke="#63b8ff" d="M1085.75,-65.56C1113.86,-56.65 1158.2,-42.51 1196.5,-30 1198.05,-29.49 1199.64,-28.97 1201.24,-28.45"/>
<polygon fill="#63b8ff" stroke="#63b8ff" points="1202.02,-31.87 1210.42,-25.41 1199.82,-25.23 1202.02,-31.87"/>
</g>
<!-- Node17&#45;&gt;Node2 -->
<g id="edge23" class="edge">
<title>Node17&#45;&gt;Node2</title>
<path fill="none" stroke="#63b8ff" d="M663.43,-127.85C599.95,-123.81 440.44,-111.86 297.55,-85.09"/>
<polygon fill="#63b8ff" stroke="#63b8ff" points="298.38,-81.68 287.9,-83.25 297.07,-88.56 298.38,-81.68"/>
</g>
<!-- Node17&#45;&gt;Node3 -->
<g id="edge24" class="edge">
<title>Node17&#45;&gt;Node3</title>
<path fill="none" stroke="#63b8ff" d="M663.31,-125.9C610.7,-119.08 493.76,-103.46 384.31,-85.23"/>
<polygon fill="#63b8ff" stroke="#63b8ff" points="384.99,-81.79 374.55,-83.59 383.83,-88.7 384.99,-81.79"/>
</g>
<!-- Node17&#45;&gt;Node4 -->
<g id="edge25" class="edge">
<title>Node17&#45;&gt;Node4</title>
<path fill="none" stroke="#63b8ff" d="M663.24,-124.32C621.47,-116.6 540.53,-101.46 461.44,-85.35"/>
<polygon fill="#63b8ff" stroke="#63b8ff" points="462.28,-81.95 451.78,-83.38 460.87,-88.81 462.28,-81.95"/>
</g>
<!-- Node17&#45;&gt;Node5 -->
<g id="edge26" class="edge">
<title>Node17&#45;&gt;Node5</title>
<path fill="none" stroke="#63b8ff" d="M663.32,-121.68C631.72,-112.91 580.12,-98.59 543.48,-88.43"/>
<polygon fill="#63b8ff" stroke="#63b8ff" points="544.66,-85.12 534.09,-85.82 542.79,-91.87 544.66,-85.12"/>
</g>
<!-- Node17&#45;&gt;Node6 -->
<g id="edge27" class="edge">
<title>Node17&#45;&gt;Node6</title>
<path fill="none" stroke="#63b8ff" d="M671.99,-120.51C653.87,-112.16 626.65,-99.61 605.9,-90.05"/>
<polygon fill="#63b8ff" stroke="#63b8ff" points="607.64,-87 597.09,-85.99 604.71,-93.36 607.64,-87"/>
</g>
<!-- Node17&#45;&gt;Node10 -->
<g id="edge22" class="edge">
<title>Node17&#45;&gt;Node10</title>
<path fill="none" stroke="#63b8ff" d="M719.75,-126.65C787,-119.86 962.19,-102.08 1119.37,-85.33"/>
<polygon fill="#63b8ff" stroke="#63b8ff" points="1119.58,-88.83 1129.15,-84.28 1118.84,-81.87 1119.58,-88.83"/>
</g>
<!-- Node17&#45;&gt;Node11 -->
<g id="edge37" class="edge">
<title>Node17&#45;&gt;Node11</title>
<path fill="none" stroke="#63b8ff" d="M719.91,-125.39C777.58,-117.03 909.72,-97.9 990.52,-86.2"/>
<polygon fill="#63b8ff" stroke="#63b8ff" points="990.67,-89.71 1000.07,-84.82 989.67,-82.79 990.67,-89.71"/>
</g>
<!-- Node17&#45;&gt;Node12 -->
<g id="edge19" class="edge">
<title>Node17&#45;&gt;Node12</title>
<path fill="none" stroke="#63b8ff" d="M719.8,-121.81C748.9,-113.64 795.37,-99.87 834.5,-85 853.65,-77.72 857.5,-73.67 876.5,-66 920.69,-48.16 932.84,-46.64 977.5,-30 978.3,-29.7 979.11,-29.4 979.93,-29.09"/>
<polygon fill="#63b8ff" stroke="#63b8ff" points="981.18,-32.36 989.27,-25.53 978.68,-25.82 981.18,-32.36"/>
</g>
<!-- Node17&#45;&gt;Node13 -->
<g id="edge20" class="edge">
<title>Node17&#45;&gt;Node13</title>
<path fill="none" stroke="#63b8ff" d="M719.86,-127.68C768.87,-123.89 872.07,-113.03 954.5,-85 965.24,-81.35 1023.66,-49.54 1058.43,-30.41"/>
<polygon fill="#63b8ff" stroke="#63b8ff" points="1059.98,-33.55 1067.05,-25.66 1056.6,-27.42 1059.98,-33.55"/>
</g>
<!-- Node17&#45;&gt;Node15 -->
<g id="edge21" class="edge">
<title>Node17&#45;&gt;Node15</title>
<path fill="none" stroke="#63b8ff" d="M714.18,-120.61C736.32,-111.85 770.91,-97.93 800.5,-85 853.52,-61.84 866.22,-54.8 918.5,-30 918.61,-29.95 918.71,-29.9 918.82,-29.85"/>
<polygon fill="#63b8ff" stroke="#63b8ff" points="920.23,-33.05 927.74,-25.58 917.21,-26.74 920.23,-33.05"/>
</g>
<!-- Node18 -->
<g id="node18" class="node">
<title>Node18</title>
<g id="a_node18"><a xlink:title=" ">
<polygon fill="#e0e0e0" stroke="#999999" points="945.5,-85 885.5,-85 885.5,-66 945.5,-66 945.5,-85"/>
<text text-anchor="middle" x="915.5" y="-73" font-family="Helvetica,sans-Serif" font-size="10.00">filesystem</text>
</a>
</g>
</g>
<!-- Node17&#45;&gt;Node18 -->
<g id="edge17" class="edge">
<title>Node17&#45;&gt;Node18</title>
<path fill="none" stroke="#63b8ff" d="M719.87,-122.79C758.86,-113.56 829.26,-96.91 874.12,-86.29"/>
<polygon fill="#63b8ff" stroke="#63b8ff" points="874.82,-89.72 883.74,-84.01 873.21,-82.91 874.82,-89.72"/>
</g>
<!-- Node19 -->
<g id="node19" class="node">
<title>Node19</title>
<g id="a_node19"><a xlink:title=" ">
<polygon fill="#e0e0e0" stroke="#999999" points="669.5,-85 619.5,-85 619.5,-66 669.5,-66 669.5,-85"/>
<text text-anchor="middle" x="644.5" y="-73" font-family="Helvetica,sans-Serif" font-size="10.00">fstream</text>
</a>
</g>
</g>
<!-- Node17&#45;&gt;Node19 -->
<g id="edge18" class="edge">
<title>Node17&#45;&gt;Node19</title>
<path fill="none" stroke="#63b8ff" d="M683.74,-120.75C677.31,-113.5 667.99,-102.98 660.04,-94.02"/>
<polygon fill="#63b8ff" stroke="#63b8ff" points="662.69,-91.73 653.43,-86.57 657.45,-96.38 662.69,-91.73"/>
</g>
<!-- Node20 -->
<g id="node20" class="node">
<title>Node20</title>
<g id="a_node20"><a xlink:href="_logging_8hpp.html" target="_top" xlink:title=" ">
<polygon fill="white" stroke="#666666" points="791.5,-85 687.5,-85 687.5,-66 791.5,-66 791.5,-85"/>
<text text-anchor="middle" x="739.5" y="-73" font-family="Helvetica,sans-Serif" font-size="10.00">udmaio/Logging.hpp</text>
</a>
</g>
</g>
<!-- Node17&#45;&gt;Node20 -->
<g id="edge28" class="edge">
<title>Node17&#45;&gt;Node20</title>
<path fill="none" stroke="#63b8ff" d="M699.43,-120.75C706.06,-113.43 715.72,-102.76 723.89,-93.74"/>
<polygon fill="#63b8ff" stroke="#63b8ff" points="726.27,-96.33 730.39,-86.56 721.08,-91.63 726.27,-96.33"/>
</g>
<!-- Node20&#45;&gt;Node15 -->
<g id="edge29" class="edge">
<title>Node20&#45;&gt;Node15</title>
<path fill="none" stroke="#63b8ff" d="M786.64,-65.56C823.2,-57.96 874.83,-45.78 918.5,-30 919,-29.82 919.5,-29.63 920.01,-29.44"/>
<polygon fill="#63b8ff" stroke="#63b8ff" points="921.39,-32.66 929.19,-25.49 918.62,-26.23 921.39,-32.66"/>
</g>
<!-- Node21 -->
<g id="node21" class="node">
<title>Node21</title>
<g id="a_node21"><a xlink:title=" ">
<polygon fill="#e0e0e0" stroke="#999999" points="235.5,-24.5 139.5,-24.5 139.5,-5.5 235.5,-5.5 235.5,-24.5"/>
<text text-anchor="middle" x="187.5" y="-12.5" font-family="Helvetica,sans-Serif" font-size="10.00">boost/log/core.hpp</text>
</a>
</g>
</g>
<!-- Node20&#45;&gt;Node21 -->
<g id="edge30" class="edge">
<title>Node20&#45;&gt;Node21</title>
<path fill="none" stroke="#63b8ff" d="M687.28,-67.03C684.31,-66.67 681.37,-66.32 678.5,-66 486.57,-44.67 436.14,-60.75 245.5,-30 241.08,-29.29 236.5,-28.42 231.94,-27.46"/>
<polygon fill="#63b8ff" stroke="#63b8ff" points="232.75,-24.06 222.23,-25.29 231.22,-30.89 232.75,-24.06"/>
</g>
<!-- Node22 -->
<g id="node22" class="node">
<title>Node22</title>
<g id="a_node22"><a xlink:title=" ">
<polygon fill="#e0e0e0" stroke="#999999" points="383,-24.5 254,-24.5 254,-5.5 383,-5.5 383,-24.5"/>
<text text-anchor="middle" x="318.5" y="-12.5" font-family="Helvetica,sans-Serif" font-size="10.00">boost/log/expressions.hpp</text>
</a>
</g>
</g>
<!-- Node20&#45;&gt;Node22 -->
<g id="edge31" class="edge">
<title>Node20&#45;&gt;Node22</title>
<path fill="none" stroke="#63b8ff" d="M687.26,-67.17C684.3,-66.77 681.36,-66.38 678.5,-66 551.5,-49.16 519.06,-49.92 392.5,-30 386.61,-29.07 380.46,-28.03 374.35,-26.95"/>
<polygon fill="#63b8ff" stroke="#63b8ff" points="375.38,-23.58 364.91,-25.23 374.13,-30.46 375.38,-23.58"/>
</g>
<!-- Node23 -->
<g id="node23" class="node">
<title>Node23</title>
<g id="a_node23"><a xlink:title=" ">
<polygon fill="#e0e0e0" stroke="#999999" points="502,-24.5 401,-24.5 401,-5.5 502,-5.5 502,-24.5"/>
<text text-anchor="middle" x="451.5" y="-12.5" font-family="Helvetica,sans-Serif" font-size="10.00">boost/log/trivial.hpp</text>
</a>
</g>
</g>
<!-- Node20&#45;&gt;Node23 -->
<g id="edge32" class="edge">
<title>Node20&#45;&gt;Node23</title>
<path fill="none" stroke="#63b8ff" d="M690.92,-65.55C644.68,-56.91 573.22,-43.22 511.5,-30 507.72,-29.19 503.82,-28.33 499.9,-27.45"/>
<polygon fill="#63b8ff" stroke="#63b8ff" points="500.9,-24.09 490.38,-25.28 499.35,-30.92 500.9,-24.09"/>
</g>
<!-- Node24 -->
<g id="node24" class="node">
<title>Node24</title>
<g id="a_node24"><a xlink:title=" ">
<polygon fill="#e0e0e0" stroke="#999999" points="629,-30 520,-30 520,0 629,0 629,-30"/>
<text text-anchor="start" x="528" y="-18" font-family="Helvetica,sans-Serif" font-size="10.00">boost/log/utility/setup</text>
<text text-anchor="middle" x="574.5" y="-7" font-family="Helvetica,sans-Serif" font-size="10.00">/console.hpp</text>
</a>
</g>
</g>
<!-- Node20&#45;&gt;Node24 -->
<g id="edge33" class="edge">
<title>Node20&#45;&gt;Node24</title>
<path fill="none" stroke="#63b8ff" d="M714.44,-65.62C690.99,-57.3 655.26,-44.63 625.77,-34.18"/>
<polygon fill="#63b8ff" stroke="#63b8ff" points="627.25,-30.99 616.65,-30.95 624.91,-37.59 627.25,-30.99"/>
</g>
<!-- Node25 -->
<g id="node25" class="node">
<title>Node25</title>
<g id="a_node25"><a xlink:title=" ">
<polygon fill="#e0e0e0" stroke="#999999" points="778,-30 647,-30 647,0 778,0 778,-30"/>
<text text-anchor="start" x="655" y="-18" font-family="Helvetica,sans-Serif" font-size="10.00">boost/log/sources/severity</text>
<text text-anchor="middle" x="712.5" y="-7" font-family="Helvetica,sans-Serif" font-size="10.00">_channel_logger.hpp</text>
</a>
</g>
</g>
<!-- Node20&#45;&gt;Node25 -->
<g id="edge34" class="edge">
<title>Node20&#45;&gt;Node25</title>
<path fill="none" stroke="#63b8ff" d="M735.52,-65.87C732.43,-59.18 727.99,-49.57 723.84,-40.56"/>
<polygon fill="#63b8ff" stroke="#63b8ff" points="727.02,-39.1 719.65,-31.49 720.66,-42.04 727.02,-39.1"/>
</g>
<!-- Node26 -->
<g id="node26" class="node">
<title>Node26</title>
<g id="a_node26"><a xlink:title=" ">
<polygon fill="#e0e0e0" stroke="#999999" points="909,-30 796,-30 796,0 909,0 909,-30"/>
<text text-anchor="start" x="804" y="-18" font-family="Helvetica,sans-Serif" font-size="10.00">boost/log/support/date</text>
<text text-anchor="middle" x="852.5" y="-7" font-family="Helvetica,sans-Serif" font-size="10.00">_time.hpp</text>
</a>
</g>
</g>
<!-- Node20&#45;&gt;Node26 -->
<g id="edge35" class="edge">
<title>Node20&#45;&gt;Node26</title>
<path fill="none" stroke="#63b8ff" d="M756.66,-65.62C771.94,-57.7 794.85,-45.85 814.43,-35.71"/>
<polygon fill="#63b8ff" stroke="#63b8ff" points="815.99,-38.84 823.26,-31.14 812.77,-32.62 815.99,-38.84"/>
</g>
<!-- Node27 -->
<g id="node27" class="node">
<title>Node27</title>
<g id="a_node27"><a xlink:title=" ">
<polygon fill="#e0e0e0" stroke="#999999" points="121,-30 0,-30 0,0 121,0 121,-30"/>
<text text-anchor="start" x="8" y="-18" font-family="Helvetica,sans-Serif" font-size="10.00">boost/log/utility/setup</text>
<text text-anchor="middle" x="60.5" y="-7" font-family="Helvetica,sans-Serif" font-size="10.00">/common_attributes.hpp</text>
</a>
</g>
</g>
<!-- Node20&#45;&gt;Node27 -->
<g id="edge36" class="edge">
<title>Node20&#45;&gt;Node27</title>
<path fill="none" stroke="#63b8ff" d="M687.29,-66.97C684.32,-66.62 681.37,-66.29 678.5,-66 439.36,-41.52 374.43,-61.38 132.41,-30.11"/>
<polygon fill="#63b8ff" stroke="#63b8ff" points="133,-26.66 122.63,-28.83 132.09,-33.6 133,-26.66"/>
</g>
</g>
</svg>
        <g id="navigator" transform="translate(0 0)" fill="#404254">
                <rect fill="#f2f5e9" fill-opacity="0.5" stroke="#606060" stroke-width=".5" x="0" y="0" width="60" height="60"/>
                <use id="zoomplus" xlink:href="#zoomPlus" x="17" y="9" onmousedown="handleZoom(evt,'in')"/>
                <use id="zoomminus" xlink:href="#zoomMin" x="42" y="9" onmousedown="handleZoom(evt,'out')"/>
                <use id="reset" xlink:href="#resetDef" x="30" y="36" onmousedown="handleReset()"/>
                <g id="arrowUp" xlink:href="#dirArrow" transform="translate(30 24)" onmousedown="handlePan(0,-1)">
                  <use xlink:href="#rim" fill="#404040">
                        <set attributeName="fill" to="#808080" begin="arrowUp.mouseover" end="arrowUp.mouseout"/>
                  </use>
                  <path fill="none" stroke="white" stroke-width="1.5" d="M0,-3.0v7 M-2.5,-0.5L0,-3.0L2.5,-0.5"/>
                </g>
                <g id="arrowRight" xlink:href="#dirArrow" transform="rotate(90) translate(36 -43)" onmousedown="handlePan(1,0)">
                  <use xlink:href="#rim" fill="#404040">
                        <set attributeName="fill" to="#808080" begin="arrowRight.mouseover" end="arrowRight.mouseout"/>
                  </use>
                  <path fill="none" stroke="white" stroke-width="1.5" d="M0,-3.0v7 M-2.5,-0.5L0,-3.0L2.5,-0.5"/>
                </g>
                <g id="arrowDown" xlink:href="#dirArrow" transform="rotate(180) translate(-30 -48)" onmousedown="handlePan(0,1)">
                  <use xlink:href="#rim" fill="#404040">
                        <set attributeName="fill" to="#808080" begin="arrowDown.mouseover" end="arrowDown.mouseout"/>
                  </use>
                  <path fill="none" stroke="white" stroke-width="1.5" d="M0,-3.0v7 M-2.5,-0.5L0,-3.0L2.5,-0.5"/>
                </g>
                <g id="arrowLeft" xlink:href="#dirArrow" transform="rotate(270) translate(-36 17)" onmousedown="handlePan(-1,0)">
                  <use xlink:href="#rim" fill="#404040">
                        <set attributeName="fill" to="#808080" begin="arrowLeft.mouseover" end="arrowLeft.mouseout"/>
                  </use>
                  <path fill="none" stroke="white" stroke-width="1.5" d="M0,-3.0v7 M-2.5,-0.5L0,-3.0L2.5,-0.5"/>
                </g>
        </g>
        <svg viewBox="0 0 15 15" width="100%" height="30px" preserveAspectRatio="xMaxYMin meet">
         <g id="arrow_out" transform="scale(0.3 0.3)">
          <a xlink:href="_fpga_mem_buffer_over_axi_8hpp__incl_org.svg" target="_base">
           <rect id="button" ry="5" rx="5" y="6" x="6" height="38" width="38"
                fill="#f2f5e9" fill-opacity="0.5" stroke="#606060" stroke-width="1.0"/>
           <path id="arrow"
             d="M 11.500037,31.436501 C 11.940474,20.09759 22.043105,11.32322 32.158766,21.979434 L 37.068811,17.246167 C 37.068811,17.246167 37.088388,32 37.088388,32 L 22.160133,31.978069 C 22.160133,31.978069 26.997745,27.140456 26.997745,27.140456 C 18.528582,18.264221 13.291696,25.230495 11.500037,31.436501 z"
             style="fill:#404040;"/>
          </a>
         </g>
        </svg>
</svg>
