<?xml version="1.0" encoding="UTF-8" standalone="no"?>
<!DOCTYPE svg PUBLIC "-//W3C//DTD SVG 1.1//EN"
 "http://www.w3.org/Graphics/SVG/1.1/DTD/svg11.dtd">
<!-- Generated by graphviz version 7.0.5 (20221223.1930)
 -->
<!-- Title: FpgaMemBufferOverAxi.hpp Pages: 1 -->
<!--zoomable 258 -->
<svg id="main" version="1.1" xmlns="http://www.w3.org/2000/svg" xmlns:xlink="http://www.w3.org/1999/xlink" xml:space="preserve" onload="init(evt)">
<style type="text/css"><![CDATA[
.edge:hover path { stroke: red; }
.edge:hover polygon { stroke: red; fill: red; }
]]></style>
<script type="text/javascript"><![CDATA[
var edges = document.getElementsByTagName('g');
if (edges && edges.length) {
  for (var i=0;i<edges.length;i++) {
    if (edges[i].id.substr(0,4)=='edge') {
      edges[i].setAttribute('class','edge');
    }
  }
}
]]></script>
        <defs>
                <circle id="rim" cx="0" cy="0" r="7"/>
                <circle id="rim2" cx="0" cy="0" r="3.5"/>
                <g id="zoomPlus">
                        <use xlink:href="#rim" fill="#404040">
                                <set attributeName="fill" to="#808080" begin="zoomplus.mouseover" end="zoomplus.mouseout"/>
                        </use>
                        <path d="M-4,0h8M0,-4v8" fill="none" stroke="white" stroke-width="1.5" pointer-events="none"/>
                </g>
                <g id="zoomMin">
                        <use xlink:href="#rim" fill="#404040">
                                <set attributeName="fill" to="#808080" begin="zoomminus.mouseover" end="zoomminus.mouseout"/>
                        </use>
                        <path d="M-4,0h8" fill="none" stroke="white" stroke-width="1.5" pointer-events="none"/>
                </g>
                <g id="dirArrow">
                        <path fill="none" stroke="white" stroke-width="1.5" d="M0,-3.0v7 M-2.5,-0.5L0,-3.0L2.5,-0.5"/>
                </g>
               <g id="resetDef">
                       <use xlink:href="#rim2" fill="#404040">
                               <set attributeName="fill" to="#808080" begin="reset.mouseover" end="reset.mouseout"/>
                       </use>
               </g>
        </defs>

<script type="text/javascript">
var viewWidth = 1809;
var viewHeight = 258;
var sectionId = 'dynsection-0';
</script>
<script xlink:href="svgpan.js"/>
<svg id="graph" class="graph">
<g id="viewport">
<title>FpgaMemBufferOverAxi.hpp</title>
<!-- Node1 -->
<g id="node1" class="node">
<title>Node1</title>
<g id="a_node1"><a xlink:title=" ">
<polygon fill="#999999" stroke="#666666" points="524,-250 386,-250 386,-231 524,-231 524,-250"/>
<text text-anchor="middle" x="455" y="-238" font-family="Helvetica,sans-Serif" font-size="10.00">FpgaMemBufferOverAxi.hpp</text>
</a>
</g>
</g>
<!-- Node2 -->
<g id="node2" class="node">
<title>Node2</title>
<g id="a_node2"><a xlink:title=" ">
<polygon fill="#e0e0e0" stroke="#999999" points="1105.5,-85 1062.5,-85 1062.5,-66 1105.5,-66 1105.5,-85"/>
<text text-anchor="middle" x="1084" y="-73" font-family="Helvetica,sans-Serif" font-size="10.00">fcntl.h</text>
</a>
</g>
</g>
<!-- Node1&#45;&gt;Node2 -->
<g id="edge1" class="edge">
<title>Node1&#45;&gt;Node2</title>
<path fill="none" stroke="#63b8ff" d="M524.37,-237.94C668.48,-233.2 993.23,-214.35 1070,-140 1081.42,-128.94 1084.51,-110.82 1084.98,-96.76"/>
<polygon fill="#63b8ff" stroke="#63b8ff" points="1088.48,-96.78 1084.86,-86.83 1081.48,-96.87 1088.48,-96.78"/>
</g>
<!-- Node3 -->
<g id="node3" class="node">
<title>Node3</title>
<g id="a_node3"><a xlink:title=" ">
<polygon fill="#e0e0e0" stroke="#999999" points="517.5,-85 448.5,-85 448.5,-66 517.5,-66 517.5,-85"/>
<text text-anchor="middle" x="483" y="-73" font-family="Helvetica,sans-Serif" font-size="10.00">sys/mman.h</text>
</a>
</g>
</g>
<!-- Node1&#45;&gt;Node3 -->
<g id="edge2" class="edge">
<title>Node1&#45;&gt;Node3</title>
<path fill="none" stroke="#63b8ff" d="M416.06,-230.53C397.19,-224.02 376.22,-213.06 365,-195 347.65,-167.06 346.29,-148.05 365,-121 373.67,-108.47 407.81,-96.4 437.15,-88.01"/>
<polygon fill="#63b8ff" stroke="#63b8ff" points="437.93,-91.42 446.64,-85.38 436.06,-84.68 437.93,-91.42"/>
</g>
<!-- Node4 -->
<g id="node4" class="node">
<title>Node4</title>
<g id="a_node4"><a xlink:title=" ">
<polygon fill="#e0e0e0" stroke="#999999" points="594.5,-85 535.5,-85 535.5,-66 594.5,-66 594.5,-85"/>
<text text-anchor="middle" x="565" y="-73" font-family="Helvetica,sans-Serif" font-size="10.00">sys/stat.h</text>
</a>
</g>
</g>
<!-- Node1&#45;&gt;Node4 -->
<g id="edge3" class="edge">
<title>Node1&#45;&gt;Node4</title>
<path fill="none" stroke="#63b8ff" d="M450.34,-230.79C439.78,-209.75 416.8,-155.39 441,-121 450.89,-106.94 491.9,-94.06 524.08,-85.81"/>
<polygon fill="#63b8ff" stroke="#63b8ff" points="524.7,-89.26 533.57,-83.45 523.02,-82.47 524.7,-89.26"/>
</g>
<!-- Node5 -->
<g id="node5" class="node">
<title>Node5</title>
<g id="a_node5"><a xlink:title=" ">
<polygon fill="#e0e0e0" stroke="#999999" points="677.5,-85 612.5,-85 612.5,-66 677.5,-66 677.5,-85"/>
<text text-anchor="middle" x="645" y="-73" font-family="Helvetica,sans-Serif" font-size="10.00">sys/types.h</text>
</a>
</g>
</g>
<!-- Node1&#45;&gt;Node5 -->
<g id="edge4" class="edge">
<title>Node1&#45;&gt;Node5</title>
<path fill="none" stroke="#63b8ff" d="M465.49,-230.5C496.31,-204.06 586.94,-126.31 626.35,-92.5"/>
<polygon fill="#63b8ff" stroke="#63b8ff" points="628.32,-95.42 633.63,-86.25 623.76,-90.11 628.32,-95.42"/>
</g>
<!-- Node6 -->
<g id="node6" class="node">
<title>Node6</title>
<g id="a_node6"><a xlink:title=" ">
<polygon fill="#e0e0e0" stroke="#999999" points="746,-85 696,-85 696,-66 746,-66 746,-85"/>
<text text-anchor="middle" x="721" y="-73" font-family="Helvetica,sans-Serif" font-size="10.00">unistd.h</text>
</a>
</g>
</g>
<!-- Node1&#45;&gt;Node6 -->
<g id="edge5" class="edge">
<title>Node1&#45;&gt;Node6</title>
<path fill="none" stroke="#63b8ff" d="M471.25,-230.5C487.12,-221.65 511.88,-207.67 533,-195 593.22,-158.87 662.85,-114.2 698.07,-91.41"/>
<polygon fill="#63b8ff" stroke="#63b8ff" points="699.69,-94.53 706.18,-86.15 695.88,-88.66 699.69,-94.53"/>
</g>
<!-- Node7 -->
<g id="node7" class="node">
<title>Node7</title>
<g id="a_node7"><a xlink:href="_dma_buffer_abstract_8hpp.html" target="_top" xlink:title=" ">
<polygon fill="white" stroke="#666666" points="278.5,-140 161.5,-140 161.5,-121 278.5,-121 278.5,-140"/>
<text text-anchor="middle" x="220" y="-128" font-family="Helvetica,sans-Serif" font-size="10.00">DmaBufferAbstract.hpp</text>
</a>
</g>
</g>
<!-- Node1&#45;&gt;Node7 -->
<g id="edge6" class="edge">
<title>Node1&#45;&gt;Node7</title>
<path fill="none" stroke="#63b8ff" d="M423.53,-230.5C397.19,-222.51 358.9,-209.83 327,-195 296.53,-180.84 263.58,-160.44 242.42,-146.62"/>
<polygon fill="#63b8ff" stroke="#63b8ff" points="244.58,-143.85 234.3,-141.25 240.71,-149.68 244.58,-143.85"/>
</g>
<!-- Node17 -->
<g id="node17" class="node">
<title>Node17</title>
<g id="a_node17"><a xlink:href="_uio_if_8hpp.html" target="_top" xlink:title=" ">
<polygon fill="white" stroke="#666666" points="767,-195 711,-195 711,-176 767,-176 767,-195"/>
<text text-anchor="middle" x="739" y="-183" font-family="Helvetica,sans-Serif" font-size="10.00">UioIf.hpp</text>
</a>
</g>
</g>
<!-- Node1&#45;&gt;Node17 -->
<g id="edge16" class="edge">
<title>Node1&#45;&gt;Node17</title>
<path fill="none" stroke="#63b8ff" d="M505.1,-230.56C554.08,-221.75 630.73,-207.8 697,-195 697.82,-194.84 698.65,-194.68 699.49,-194.52"/>
<polygon fill="#63b8ff" stroke="#63b8ff" points="699.93,-198 709.06,-192.62 698.57,-191.13 699.93,-198"/>
</g>
<!-- Node8 -->
<g id="node8" class="node">
<title>Node8</title>
<g id="a_node8"><a xlink:title=" ">
<polygon fill="#e0e0e0" stroke="#999999" points="108,-85 62,-85 62,-66 108,-66 108,-85"/>
<text text-anchor="middle" x="85" y="-73" font-family="Helvetica,sans-Serif" font-size="10.00">cstdint</text>
</a>
</g>
</g>
<!-- Node7&#45;&gt;Node8 -->
<g id="edge7" class="edge">
<title>Node7&#45;&gt;Node8</title>
<path fill="none" stroke="#63b8ff" d="M197.1,-120.51C175.44,-112.01 142.69,-99.15 118.18,-89.53"/>
<polygon fill="#63b8ff" stroke="#63b8ff" points="119.56,-86.31 108.97,-85.91 117,-92.82 119.56,-86.31"/>
</g>
<!-- Node9 -->
<g id="node9" class="node">
<title>Node9</title>
<g id="a_node9"><a xlink:title=" ">
<polygon fill="#e0e0e0" stroke="#999999" points="44,-85 0,-85 0,-66 44,-66 44,-85"/>
<text text-anchor="middle" x="22" y="-73" font-family="Helvetica,sans-Serif" font-size="10.00">vector</text>
</a>
</g>
</g>
<!-- Node7&#45;&gt;Node9 -->
<g id="edge8" class="edge">
<title>Node7&#45;&gt;Node9</title>
<path fill="none" stroke="#63b8ff" d="M186.08,-120.54C154.56,-112.19 106.04,-99.31 55.22,-85.59"/>
<polygon fill="#63b8ff" stroke="#63b8ff" points="56.37,-82.27 45.81,-83.04 54.55,-89.03 56.37,-82.27"/>
</g>
<!-- Node10 -->
<g id="node10" class="node">
<title>Node10</title>
<g id="a_node10"><a xlink:title=" ">
<polygon fill="#e0e0e0" stroke="#999999" points="430.5,-85 293.5,-85 293.5,-66 430.5,-66 430.5,-85"/>
<text text-anchor="middle" x="362" y="-73" font-family="Helvetica,sans-Serif" font-size="10.00">boost/core/noncopyable.hpp</text>
</a>
</g>
</g>
<!-- Node7&#45;&gt;Node10 -->
<g id="edge9" class="edge">
<title>Node7&#45;&gt;Node10</title>
<path fill="none" stroke="#63b8ff" d="M244.09,-120.51C267.07,-111.93 301.94,-98.92 327.8,-89.27"/>
<polygon fill="#63b8ff" stroke="#63b8ff" points="328.7,-92.66 336.85,-85.89 326.26,-86.1 328.7,-92.66"/>
</g>
<!-- Node11 -->
<g id="node11" class="node">
<title>Node11</title>
<g id="a_node11"><a xlink:href="_uio_config_8hpp.html" target="_top" xlink:title=" ">
<polygon fill="white" stroke="#666666" points="275.5,-85 164.5,-85 164.5,-66 275.5,-66 275.5,-85"/>
<text text-anchor="middle" x="220" y="-73" font-family="Helvetica,sans-Serif" font-size="10.00">udmaio/UioConfig.hpp</text>
</a>
</g>
</g>
<!-- Node7&#45;&gt;Node11 -->
<g id="edge10" class="edge">
<title>Node7&#45;&gt;Node11</title>
<path fill="none" stroke="#63b8ff" d="M220,-120.75C220,-114.27 220,-105.16 220,-96.9"/>
<polygon fill="#63b8ff" stroke="#63b8ff" points="223.5,-96.96 220,-86.96 216.5,-96.96 223.5,-96.96"/>
</g>
<!-- Node12 -->
<g id="node12" class="node">
<title>Node12</title>
<g id="a_node12"><a xlink:title=" ">
<polygon fill="#e0e0e0" stroke="#999999" points="814,-24.5 760,-24.5 760,-5.5 814,-5.5 814,-24.5"/>
<text text-anchor="middle" x="787" y="-12.5" font-family="Helvetica,sans-Serif" font-size="10.00">iostream</text>
</a>
</g>
</g>
<!-- Node11&#45;&gt;Node12 -->
<g id="edge11" class="edge">
<title>Node11&#45;&gt;Node12</title>
<path fill="none" stroke="#63b8ff" d="M275.83,-66.97C278.59,-66.64 281.33,-66.31 284,-66 456.99,-45.92 664.05,-26.92 748.4,-19.4"/>
<polygon fill="#63b8ff" stroke="#63b8ff" points="748.55,-22.9 758.2,-18.53 747.93,-15.93 748.55,-22.9"/>
</g>
<!-- Node13 -->
<g id="node13" class="node">
<title>Node13</title>
<g id="a_node13"><a xlink:title=" ">
<polygon fill="#e0e0e0" stroke="#999999" points="318.5,-24.5 267.5,-24.5 267.5,-5.5 318.5,-5.5 318.5,-24.5"/>
<text text-anchor="middle" x="293" y="-12.5" font-family="Helvetica,sans-Serif" font-size="10.00">memory</text>
</a>
</g>
</g>
<!-- Node11&#45;&gt;Node13 -->
<g id="edge12" class="edge">
<title>Node11&#45;&gt;Node13</title>
<path fill="none" stroke="#63b8ff" d="M231.09,-65.62C242.24,-56.68 259.66,-42.72 273.19,-31.87"/>
<polygon fill="#63b8ff" stroke="#63b8ff" points="275.01,-34.9 280.63,-25.91 270.64,-29.44 275.01,-34.9"/>
</g>
<!-- Node14 -->
<g id="node14" class="node">
<title>Node14</title>
<g id="a_node14"><a xlink:title=" ">
<polygon fill="#e0e0e0" stroke="#999999" points="249.5,-24.5 190.5,-24.5 190.5,-5.5 249.5,-5.5 249.5,-24.5"/>
<text text-anchor="middle" x="220" y="-12.5" font-family="Helvetica,sans-Serif" font-size="10.00">stdexcept</text>
</a>
</g>
</g>
<!-- Node11&#45;&gt;Node14 -->
<g id="edge13" class="edge">
<title>Node11&#45;&gt;Node14</title>
<path fill="none" stroke="#63b8ff" d="M220,-65.87C220,-58 220,-46.1 220,-35.89"/>
<polygon fill="#63b8ff" stroke="#63b8ff" points="223.5,-36.18 220,-26.18 216.5,-36.18 223.5,-36.18"/>
</g>
<!-- Node15 -->
<g id="node15" class="node">
<title>Node15</title>
<g id="a_node15"><a xlink:title=" ">
<polygon fill="#e0e0e0" stroke="#999999" points="873.5,-24.5 832.5,-24.5 832.5,-5.5 873.5,-5.5 873.5,-24.5"/>
<text text-anchor="middle" x="853" y="-12.5" font-family="Helvetica,sans-Serif" font-size="10.00">string</text>
</a>
</g>
</g>
<!-- Node11&#45;&gt;Node15 -->
<g id="edge14" class="edge">
<title>Node11&#45;&gt;Node15</title>
<path fill="none" stroke="#63b8ff" d="M275.82,-66.87C278.59,-66.56 281.32,-66.27 284,-66 522.9,-42.18 590.47,-89.78 823,-30 824,-29.74 825,-29.45 826.01,-29.14"/>
<polygon fill="#63b8ff" stroke="#63b8ff" points="827.15,-32.45 835.18,-25.54 824.59,-25.93 827.15,-32.45"/>
</g>
<!-- Node16 -->
<g id="node16" class="node">
<title>Node16</title>
<g id="a_node16"><a xlink:title=" ">
<polygon fill="#e0e0e0" stroke="#999999" points="172,-24.5 106,-24.5 106,-5.5 172,-5.5 172,-24.5"/>
<text text-anchor="middle" x="139" y="-12.5" font-family="Helvetica,sans-Serif" font-size="10.00">string_view</text>
</a>
</g>
</g>
<!-- Node11&#45;&gt;Node16 -->
<g id="edge15" class="edge">
<title>Node11&#45;&gt;Node16</title>
<path fill="none" stroke="#63b8ff" d="M207.7,-65.62C195.21,-56.6 175.62,-42.45 160.55,-31.56"/>
<polygon fill="#63b8ff" stroke="#63b8ff" points="162.8,-28.87 152.64,-25.85 158.7,-34.55 162.8,-28.87"/>
</g>
<!-- Node17&#45;&gt;Node2 -->
<g id="edge23" class="edge">
<title>Node17&#45;&gt;Node2</title>
<path fill="none" stroke="#63b8ff" d="M767.41,-183.56C834.89,-180.83 1002.57,-171.02 1048,-140 1063.21,-129.62 1072.75,-110.56 1078.16,-96.02"/>
<polygon fill="#63b8ff" stroke="#63b8ff" points="1081.46,-97.2 1081.29,-86.6 1074.81,-94.99 1081.46,-97.2"/>
</g>
<!-- Node17&#45;&gt;Node3 -->
<g id="edge24" class="edge">
<title>Node17&#45;&gt;Node3</title>
<path fill="none" stroke="#63b8ff" d="M718.05,-175.66C673.23,-156.75 567.82,-112.29 514.73,-89.89"/>
<polygon fill="#63b8ff" stroke="#63b8ff" points="516.21,-86.71 505.63,-86.05 513.49,-93.16 516.21,-86.71"/>
</g>
<!-- Node17&#45;&gt;Node4 -->
<g id="edge25" class="edge">
<title>Node17&#45;&gt;Node4</title>
<path fill="none" stroke="#63b8ff" d="M724.76,-175.66C694.94,-157.15 625.63,-114.13 588.88,-91.32"/>
<polygon fill="#63b8ff" stroke="#63b8ff" points="591.06,-88.56 580.72,-86.26 587.37,-94.51 591.06,-88.56"/>
</g>
<!-- Node17&#45;&gt;Node5 -->
<g id="edge26" class="edge">
<title>Node17&#45;&gt;Node5</title>
<path fill="none" stroke="#63b8ff" d="M731.31,-175.66C715.82,-157.86 680.6,-117.41 660.27,-94.04"/>
<polygon fill="#63b8ff" stroke="#63b8ff" points="663,-91.85 653.79,-86.6 657.72,-96.44 663,-91.85"/>
</g>
<!-- Node17&#45;&gt;Node6 -->
<g id="edge27" class="edge">
<title>Node17&#45;&gt;Node6</title>
<path fill="none" stroke="#63b8ff" d="M737.53,-175.66C734.67,-158.5 728.29,-120.26 724.35,-96.6"/>
<polygon fill="#63b8ff" stroke="#63b8ff" points="727.84,-96.24 722.74,-86.95 720.93,-97.39 727.84,-96.24"/>
</g>
<!-- Node17&#45;&gt;Node10 -->
<g id="edge22" class="edge">
<title>Node17&#45;&gt;Node10</title>
<path fill="none" stroke="#63b8ff" d="M710.66,-176.38C644.89,-157.54 481.57,-110.75 404.08,-88.56"/>
<polygon fill="#63b8ff" stroke="#63b8ff" points="405.33,-85.27 394.75,-85.88 403.4,-92 405.33,-85.27"/>
</g>
<!-- Node17&#45;&gt;Node11 -->
<g id="edge51" class="edge">
<title>Node17&#45;&gt;Node11</title>
<path fill="none" stroke="#63b8ff" d="M710.82,-178.69C669.74,-170.2 590.99,-153.93 524,-140 436.47,-121.8 334.79,-100.54 274.01,-87.81"/>
<polygon fill="#63b8ff" stroke="#63b8ff" points="274.77,-84.4 264.27,-85.77 273.34,-91.25 274.77,-84.4"/>
</g>
<!-- Node17&#45;&gt;Node12 -->
<g id="edge19" class="edge">
<title>Node17&#45;&gt;Node12</title>
<path fill="none" stroke="#63b8ff" d="M767.28,-185.18C827.57,-184.84 967.17,-174.08 1015,-85 1068.39,14.43 1107.63,-111.27 823,-30 821.62,-29.61 820.22,-29.18 818.82,-28.73"/>
<polygon fill="#63b8ff" stroke="#63b8ff" points="820.12,-25.48 809.52,-25.46 817.79,-32.08 820.12,-25.48"/>
</g>
<!-- Node17&#45;&gt;Node13 -->
<g id="edge20" class="edge">
<title>Node17&#45;&gt;Node13</title>
<path fill="none" stroke="#63b8ff" d="M710.64,-180.71C596.12,-165.28 173.09,-106.95 155,-85 108.12,-28.1 134.11,-76.4 258,-30 258.94,-29.65 259.89,-29.29 260.85,-28.92"/>
<polygon fill="#63b8ff" stroke="#63b8ff" points="261.76,-32.33 269.8,-25.44 259.21,-25.8 261.76,-32.33"/>
</g>
<!-- Node17&#45;&gt;Node15 -->
<g id="edge21" class="edge">
<title>Node17&#45;&gt;Node15</title>
<path fill="none" stroke="#63b8ff" d="M767.26,-183.34C837.51,-180.06 1018.18,-168.94 1070,-140 1097.57,-124.6 1104.38,-114.75 1115,-85 1158.1,35.74 1097.79,-97.11 882,-30 881.2,-29.75 880.39,-29.48 879.58,-29.2"/>
<polygon fill="#63b8ff" stroke="#63b8ff" points="881.19,-26.08 870.61,-25.45 878.49,-32.54 881.19,-26.08"/>
</g>
<!-- Node18 -->
<g id="node18" class="node">
<title>Node18</title>
<g id="a_node18"><a xlink:title=" ">
<polygon fill="#e0e0e0" stroke="#999999" points="938,-85 878,-85 878,-66 938,-66 938,-85"/>
<text text-anchor="middle" x="908" y="-73" font-family="Helvetica,sans-Serif" font-size="10.00">filesystem</text>
</a>
</g>
</g>
<!-- Node17&#45;&gt;Node18 -->
<g id="edge17" class="edge">
<title>Node17&#45;&gt;Node18</title>
<path fill="none" stroke="#63b8ff" d="M767.49,-182.88C799.44,-179.6 850.96,-169.71 883,-140 895.36,-128.53 901.71,-110.19 904.9,-96.16"/>
<polygon fill="#63b8ff" stroke="#63b8ff" points="908.27,-97.19 906.69,-86.71 901.39,-95.89 908.27,-97.19"/>
</g>
<!-- Node19 -->
<g id="node19" class="node">
<title>Node19</title>
<g id="a_node19"><a xlink:title=" ">
<polygon fill="#e0e0e0" stroke="#999999" points="1006,-85 956,-85 956,-66 1006,-66 1006,-85"/>
<text text-anchor="middle" x="981" y="-73" font-family="Helvetica,sans-Serif" font-size="10.00">fstream</text>
</a>
</g>
</g>
<!-- Node17&#45;&gt;Node19 -->
<g id="edge18" class="edge">
<title>Node17&#45;&gt;Node19</title>
<path fill="none" stroke="#63b8ff" d="M767.48,-180.59C801.47,-175.1 859.31,-163.07 904,-140 927.46,-127.89 950.27,-107.7 964.9,-93.34"/>
<polygon fill="#63b8ff" stroke="#63b8ff" points="967.27,-95.92 971.81,-86.35 962.29,-91 967.27,-95.92"/>
</g>
<!-- Node20 -->
<g id="node20" class="node">
<title>Node20</title>
<g id="a_node20"><a xlink:href="_hw_accessor_8hpp.html" target="_top" xlink:title=" ">
<polygon fill="white" stroke="#666666" points="874.5,-140 749.5,-140 749.5,-121 874.5,-121 874.5,-140"/>
<text text-anchor="middle" x="812" y="-128" font-family="Helvetica,sans-Serif" font-size="10.00">udmaio/HwAccessor.hpp</text>
</a>
</g>
</g>
<!-- Node17&#45;&gt;Node20 -->
<g id="edge28" class="edge">
<title>Node17&#45;&gt;Node20</title>
<path fill="none" stroke="#63b8ff" d="M751.38,-175.51C762.15,-167.7 777.97,-156.21 790.75,-146.93"/>
<polygon fill="#63b8ff" stroke="#63b8ff" points="792.54,-149.95 798.57,-141.25 788.43,-144.29 792.54,-149.95"/>
</g>
<!-- Node21 -->
<g id="node21" class="node">
<title>Node21</title>
<g id="a_node21"><a xlink:href="_logging_8hpp.html" target="_top" xlink:title=" ">
<polygon fill="white" stroke="#666666" points="1266,-85 1162,-85 1162,-66 1266,-66 1266,-85"/>
<text text-anchor="middle" x="1214" y="-73" font-family="Helvetica,sans-Serif" font-size="10.00">udmaio/Logging.hpp</text>
</a>
</g>
</g>
<!-- Node17&#45;&gt;Node21 -->
<g id="edge50" class="edge">
<title>Node17&#45;&gt;Node21</title>
<path fill="none" stroke="#63b8ff" d="M767.29,-183.78C848.36,-181.36 1080.06,-171.76 1148,-140 1169.98,-129.73 1189.2,-109.14 1201.15,-94.19"/>
<polygon fill="#63b8ff" stroke="#63b8ff" points="1203.7,-96.61 1206.99,-86.54 1198.14,-92.37 1203.7,-96.61"/>
</g>
<!-- Node20&#45;&gt;Node2 -->
<g id="edge35" class="edge">
<title>Node20&#45;&gt;Node2</title>
<path fill="none" stroke="#63b8ff" d="M858.14,-120.51C912.89,-109.84 1002.81,-92.32 1051.02,-82.93"/>
<polygon fill="#63b8ff" stroke="#63b8ff" points="1051.42,-86.41 1060.56,-81.07 1050.08,-79.54 1051.42,-86.41"/>
</g>
<!-- Node20&#45;&gt;Node3 -->
<g id="edge36" class="edge">
<title>Node20&#45;&gt;Node3</title>
<path fill="none" stroke="#63b8ff" d="M749.39,-120.51C693.86,-112.36 610.26,-99.69 528.68,-85.42"/>
<polygon fill="#63b8ff" stroke="#63b8ff" points="529.66,-82.04 519.2,-83.75 528.44,-88.93 529.66,-82.04"/>
</g>
<!-- Node20&#45;&gt;Node4 -->
<g id="edge37" class="edge">
<title>Node20&#45;&gt;Node4</title>
<path fill="none" stroke="#63b8ff" d="M769.14,-120.51C729.27,-112.11 667.9,-99.12 606.01,-85.64"/>
<polygon fill="#63b8ff" stroke="#63b8ff" points="606.86,-82.24 596.34,-83.53 605.37,-89.08 606.86,-82.24"/>
</g>
<!-- Node20&#45;&gt;Node5 -->
<g id="edge38" class="edge">
<title>Node20&#45;&gt;Node5</title>
<path fill="none" stroke="#63b8ff" d="M783.67,-120.51C756.24,-111.8 714.42,-98.53 683.88,-88.84"/>
<polygon fill="#63b8ff" stroke="#63b8ff" points="685.22,-85.59 674.63,-85.9 683.1,-92.27 685.22,-85.59"/>
</g>
<!-- Node20&#45;&gt;Node6 -->
<g id="edge39" class="edge">
<title>Node20&#45;&gt;Node6</title>
<path fill="none" stroke="#63b8ff" d="M796.56,-120.51C782.75,-112.47 762.25,-100.53 746.09,-91.11"/>
<polygon fill="#63b8ff" stroke="#63b8ff" points="747.92,-88.13 737.52,-86.12 744.4,-94.18 747.92,-88.13"/>
</g>
<!-- Node20&#45;&gt;Node10 -->
<g id="edge34" class="edge">
<title>Node20&#45;&gt;Node10</title>
<path fill="none" stroke="#63b8ff" d="M749.43,-122.13C669.15,-112.68 529.79,-96.26 441.92,-85.91"/>
<polygon fill="#63b8ff" stroke="#63b8ff" points="442.51,-82.46 432.17,-84.76 441.69,-89.41 442.51,-82.46"/>
</g>
<!-- Node20&#45;&gt;Node11 -->
<g id="edge49" class="edge">
<title>Node20&#45;&gt;Node11</title>
<path fill="none" stroke="#63b8ff" d="M749.32,-125.19C652.47,-118.33 460.3,-103.85 287.2,-85.3"/>
<polygon fill="#63b8ff" stroke="#63b8ff" points="287.65,-81.83 277.33,-84.24 286.9,-88.79 287.65,-81.83"/>
</g>
<!-- Node20&#45;&gt;Node12 -->
<g id="edge31" class="edge">
<title>Node20&#45;&gt;Node12</title>
<path fill="none" stroke="#63b8ff" d="M810.04,-120.59C806.04,-102.44 796.86,-60.79 791.38,-35.87"/>
<polygon fill="#63b8ff" stroke="#63b8ff" points="794.85,-35.36 789.28,-26.34 788.01,-36.86 794.85,-35.36"/>
</g>
<!-- Node20&#45;&gt;Node13 -->
<g id="edge32" class="edge">
<title>Node20&#45;&gt;Node13</title>
<path fill="none" stroke="#63b8ff" d="M807.05,-120.67C798.5,-106.39 779.52,-78.57 755,-66 680.98,-28.07 426.51,-18.8 330.27,-16.63"/>
<polygon fill="#63b8ff" stroke="#63b8ff" points="330.4,-13.14 320.33,-16.43 330.25,-20.13 330.4,-13.14"/>
</g>
<!-- Node20&#45;&gt;Node15 -->
<g id="edge33" class="edge">
<title>Node20&#45;&gt;Node15</title>
<path fill="none" stroke="#63b8ff" d="M815.22,-120.59C821.8,-102.36 836.96,-60.41 845.95,-35.53"/>
<polygon fill="#63b8ff" stroke="#63b8ff" points="849.18,-36.88 849.28,-26.29 842.59,-34.5 849.18,-36.88"/>
</g>
<!-- Node20&#45;&gt;Node18 -->
<g id="edge29" class="edge">
<title>Node20&#45;&gt;Node18</title>
<path fill="none" stroke="#63b8ff" d="M828.29,-120.51C842.99,-112.39 864.89,-100.3 882.02,-90.85"/>
<polygon fill="#63b8ff" stroke="#63b8ff" points="883.57,-93.99 890.63,-86.09 880.18,-87.86 883.57,-93.99"/>
</g>
<!-- Node20&#45;&gt;Node19 -->
<g id="edge30" class="edge">
<title>Node20&#45;&gt;Node19</title>
<path fill="none" stroke="#63b8ff" d="M840.67,-120.51C869.35,-111.51 913.57,-97.65 944.69,-87.89"/>
<polygon fill="#63b8ff" stroke="#63b8ff" points="945.57,-91.28 954.07,-84.95 943.48,-84.6 945.57,-91.28"/>
</g>
<!-- Node20&#45;&gt;Node21 -->
<g id="edge40" class="edge">
<title>Node20&#45;&gt;Node21</title>
<path fill="none" stroke="#63b8ff" d="M874.81,-121.22C949.9,-111.32 1074.86,-94.84 1150.33,-84.89"/>
<polygon fill="#63b8ff" stroke="#63b8ff" points="1150.59,-88.39 1160.05,-83.61 1149.68,-81.45 1150.59,-88.39"/>
</g>
<!-- Node21&#45;&gt;Node15 -->
<g id="edge41" class="edge">
<title>Node21&#45;&gt;Node15</title>
<path fill="none" stroke="#63b8ff" d="M1161.58,-67.69C1069.71,-55.72 888.64,-31.99 882,-30 881.2,-29.76 880.39,-29.5 879.58,-29.22"/>
<polygon fill="#63b8ff" stroke="#63b8ff" points="881.18,-26.09 870.6,-25.51 878.5,-32.56 881.18,-26.09"/>
</g>
<!-- Node22 -->
<g id="node22" class="node">
<title>Node22</title>
<g id="a_node22"><a xlink:title=" ">
<polygon fill="#e0e0e0" stroke="#999999" points="1258,-24.5 1162,-24.5 1162,-5.5 1258,-5.5 1258,-24.5"/>
<text text-anchor="middle" x="1210" y="-12.5" font-family="Helvetica,sans-Serif" font-size="10.00">boost/log/core.hpp</text>
</a>
</g>
</g>
<!-- Node21&#45;&gt;Node22 -->
<g id="edge42" class="edge">
<title>Node21&#45;&gt;Node22</title>
<path fill="none" stroke="#63b8ff" d="M1213.41,-65.87C1212.87,-58 1212.06,-46.1 1211.36,-35.89"/>
<polygon fill="#63b8ff" stroke="#63b8ff" points="1214.87,-35.92 1210.7,-26.18 1207.89,-36.39 1214.87,-35.92"/>
</g>
<!-- Node23 -->
<g id="node23" class="node">
<title>Node23</title>
<g id="a_node23"><a xlink:title=" ">
<polygon fill="#e0e0e0" stroke="#999999" points="1405.5,-24.5 1276.5,-24.5 1276.5,-5.5 1405.5,-5.5 1405.5,-24.5"/>
<text text-anchor="middle" x="1341" y="-12.5" font-family="Helvetica,sans-Serif" font-size="10.00">boost/log/expressions.hpp</text>
</a>
</g>
</g>
<!-- Node21&#45;&gt;Node23 -->
<g id="edge43" class="edge">
<title>Node21&#45;&gt;Node23</title>
<path fill="none" stroke="#63b8ff" d="M1233.29,-65.62C1253.99,-56.08 1287.13,-40.81 1311.19,-29.73"/>
<polygon fill="#63b8ff" stroke="#63b8ff" points="1312.54,-32.96 1320.16,-25.6 1309.61,-26.61 1312.54,-32.96"/>
</g>
<!-- Node24 -->
<g id="node24" class="node">
<title>Node24</title>
<g id="a_node24"><a xlink:title=" ">
<polygon fill="#e0e0e0" stroke="#999999" points="1524.5,-24.5 1423.5,-24.5 1423.5,-5.5 1524.5,-5.5 1524.5,-24.5"/>
<text text-anchor="middle" x="1474" y="-12.5" font-family="Helvetica,sans-Serif" font-size="10.00">boost/log/trivial.hpp</text>
</a>
</g>
</g>
<!-- Node21&#45;&gt;Node24 -->
<g id="edge44" class="edge">
<title>Node21&#45;&gt;Node24</title>
<path fill="none" stroke="#63b8ff" d="M1255.23,-65.56C1295.89,-56.7 1359.78,-42.66 1415,-30 1418.38,-29.22 1421.87,-28.42 1425.38,-27.6"/>
<polygon fill="#63b8ff" stroke="#63b8ff" points="1426.16,-31.01 1435.09,-25.32 1424.56,-24.2 1426.16,-31.01"/>
</g>
<!-- Node25 -->
<g id="node25" class="node">
<title>Node25</title>
<g id="a_node25"><a xlink:title=" ">
<polygon fill="#e0e0e0" stroke="#999999" points="1651.5,-30 1542.5,-30 1542.5,0 1651.5,0 1651.5,-30"/>
<text text-anchor="start" x="1550.5" y="-18" font-family="Helvetica,sans-Serif" font-size="10.00">boost/log/utility/setup</text>
<text text-anchor="middle" x="1597" y="-7" font-family="Helvetica,sans-Serif" font-size="10.00">/console.hpp</text>
</a>
</g>
</g>
<!-- Node21&#45;&gt;Node25 -->
<g id="edge45" class="edge">
<title>Node21&#45;&gt;Node25</title>
<path fill="none" stroke="#63b8ff" d="M1266.31,-68.54C1327.54,-61.27 1432.25,-47.93 1531,-30.46"/>
<polygon fill="#63b8ff" stroke="#63b8ff" points="1531.36,-33.95 1540.59,-28.74 1530.13,-27.06 1531.36,-33.95"/>
</g>
<!-- Node26 -->
<g id="node26" class="node">
<title>Node26</title>
<g id="a_node26"><a xlink:title=" ">
<polygon fill="#e0e0e0" stroke="#999999" points="1800.5,-30 1669.5,-30 1669.5,0 1800.5,0 1800.5,-30"/>
<text text-anchor="start" x="1677.5" y="-18" font-family="Helvetica,sans-Serif" font-size="10.00">boost/log/sources/severity</text>
<text text-anchor="middle" x="1735" y="-7" font-family="Helvetica,sans-Serif" font-size="10.00">_channel_logger.hpp</text>
</a>
</g>
</g>
<!-- Node21&#45;&gt;Node26 -->
<g id="edge46" class="edge">
<title>Node21&#45;&gt;Node26</title>
<path fill="none" stroke="#63b8ff" d="M1266.48,-70.78C1348.14,-64.65 1510.78,-51.15 1658.24,-30.32"/>
<polygon fill="#63b8ff" stroke="#63b8ff" points="1658.38,-33.84 1667.78,-28.96 1657.39,-26.91 1658.38,-33.84"/>
</g>
<!-- Node27 -->
<g id="node27" class="node">
<title>Node27</title>
<g id="a_node27"><a xlink:title=" ">
<polygon fill="#e0e0e0" stroke="#999999" points="1004.5,-30 891.5,-30 891.5,0 1004.5,0 1004.5,-30"/>
<text text-anchor="start" x="899.5" y="-18" font-family="Helvetica,sans-Serif" font-size="10.00">boost/log/support/date</text>
<text text-anchor="middle" x="948" y="-7" font-family="Helvetica,sans-Serif" font-size="10.00">_time.hpp</text>
</a>
</g>
</g>
<!-- Node21&#45;&gt;Node27 -->
<g id="edge47" class="edge">
<title>Node21&#45;&gt;Node27</title>
<path fill="none" stroke="#63b8ff" d="M1173.31,-65.55C1131.5,-56.36 1065.68,-41.88 1015.95,-30.94"/>
<polygon fill="#63b8ff" stroke="#63b8ff" points="1016.96,-27.58 1006.44,-28.85 1015.46,-34.42 1016.96,-27.58"/>
</g>
<!-- Node28 -->
<g id="node28" class="node">
<title>Node28</title>
<g id="a_node28"><a xlink:title=" ">
<polygon fill="#e0e0e0" stroke="#999999" points="1143.5,-30 1022.5,-30 1022.5,0 1143.5,0 1143.5,-30"/>
<text text-anchor="start" x="1030.5" y="-18" font-family="Helvetica,sans-Serif" font-size="10.00">boost/log/utility/setup</text>
<text text-anchor="middle" x="1083" y="-7" font-family="Helvetica,sans-Serif" font-size="10.00">/common_attributes.hpp</text>
</a>
</g>
</g>
<!-- Node21&#45;&gt;Node28 -->
<g id="edge48" class="edge">
<title>Node21&#45;&gt;Node28</title>
<path fill="none" stroke="#63b8ff" d="M1194.1,-65.62C1175.98,-57.52 1148.61,-45.3 1125.57,-35.01"/>
<polygon fill="#63b8ff" stroke="#63b8ff" points="1127.27,-31.94 1116.72,-31.06 1124.42,-38.33 1127.27,-31.94"/>
</g>
</g>
</svg>
        <g id="navigator" transform="translate(0 0)" fill="#404254">
                <rect fill="#f2f5e9" fill-opacity="0.5" stroke="#606060" stroke-width=".5" x="0" y="0" width="60" height="60"/>
                <use id="zoomplus" xlink:href="#zoomPlus" x="17" y="9" onmousedown="handleZoom(evt,'in')"/>
                <use id="zoomminus" xlink:href="#zoomMin" x="42" y="9" onmousedown="handleZoom(evt,'out')"/>
                <use id="reset" xlink:href="#resetDef" x="30" y="36" onmousedown="handleReset()"/>
                <g id="arrowUp" xlink:href="#dirArrow" transform="translate(30 24)" onmousedown="handlePan(0,-1)">
                  <use xlink:href="#rim" fill="#404040">
                        <set attributeName="fill" to="#808080" begin="arrowUp.mouseover" end="arrowUp.mouseout"/>
                  </use>
                  <path fill="none" stroke="white" stroke-width="1.5" d="M0,-3.0v7 M-2.5,-0.5L0,-3.0L2.5,-0.5"/>
                </g>
                <g id="arrowRight" xlink:href="#dirArrow" transform="rotate(90) translate(36 -43)" onmousedown="handlePan(1,0)">
                  <use xlink:href="#rim" fill="#404040">
                        <set attributeName="fill" to="#808080" begin="arrowRight.mouseover" end="arrowRight.mouseout"/>
                  </use>
                  <path fill="none" stroke="white" stroke-width="1.5" d="M0,-3.0v7 M-2.5,-0.5L0,-3.0L2.5,-0.5"/>
                </g>
                <g id="arrowDown" xlink:href="#dirArrow" transform="rotate(180) translate(-30 -48)" onmousedown="handlePan(0,1)">
                  <use xlink:href="#rim" fill="#404040">
                        <set attributeName="fill" to="#808080" begin="arrowDown.mouseover" end="arrowDown.mouseout"/>
                  </use>
                  <path fill="none" stroke="white" stroke-width="1.5" d="M0,-3.0v7 M-2.5,-0.5L0,-3.0L2.5,-0.5"/>
                </g>
                <g id="arrowLeft" xlink:href="#dirArrow" transform="rotate(270) translate(-36 17)" onmousedown="handlePan(-1,0)">
                  <use xlink:href="#rim" fill="#404040">
                        <set attributeName="fill" to="#808080" begin="arrowLeft.mouseover" end="arrowLeft.mouseout"/>
                  </use>
                  <path fill="none" stroke="white" stroke-width="1.5" d="M0,-3.0v7 M-2.5,-0.5L0,-3.0L2.5,-0.5"/>
                </g>
        </g>
        <svg viewBox="0 0 15 15" width="100%" height="30px" preserveAspectRatio="xMaxYMin meet">
         <g id="arrow_out" transform="scale(0.3 0.3)">
          <a xlink:href="_fpga_mem_buffer_over_axi_8hpp__incl_org.svg" target="_base">
           <rect id="button" ry="5" rx="5" y="6" x="6" height="38" width="38"
                fill="#f2f5e9" fill-opacity="0.5" stroke="#606060" stroke-width="1.0"/>
           <path id="arrow"
             d="M 11.500037,31.436501 C 11.940474,20.09759 22.043105,11.32322 32.158766,21.979434 L 37.068811,17.246167 C 37.068811,17.246167 37.088388,32 37.088388,32 L 22.160133,31.978069 C 22.160133,31.978069 26.997745,27.140456 26.997745,27.140456 C 18.528582,18.264221 13.291696,25.230495 11.500037,31.436501 z"
             style="fill:#404040;"/>
          </a>
         </g>
        </svg>
</svg>
