<?xml version="1.0" encoding="UTF-8" standalone="no"?>
<!DOCTYPE svg PUBLIC "-//W3C//DTD SVG 1.1//EN"
 "http://www.w3.org/Graphics/SVG/1.1/DTD/svg11.dtd">
<!-- Generated by graphviz version 7.0.5 (20221223.1930)
 -->
<!-- Title: HwAccessor.cpp Pages: 1 -->
<svg width="1432pt" height="203pt"
 viewBox="0.00 0.00 1431.50 203.00" xmlns="http://www.w3.org/2000/svg" xmlns:xlink="http://www.w3.org/1999/xlink">
<g id="graph0" class="graph" transform="scale(1 1) rotate(0) translate(4 199)">
<title>HwAccessor.cpp</title>
<!-- Node1 -->
<g id="node1" class="node">
<title>Node1</title>
<g id="a_node1"><a xlink:title=" ">
<polygon fill="#999999" stroke="#666666" points="589,-195 498,-195 498,-176 589,-176 589,-195"/>
<text text-anchor="middle" x="543.5" y="-183" font-family="Helvetica,sans-Serif" font-size="10.00">HwAccessor.cpp</text>
</a>
</g>
</g>
<!-- Node2 -->
<g id="node2" class="node">
<title>Node2</title>
<g id="a_node2"><a xlink:href="_hw_accessor_8hpp.html" target="_top" xlink:title=" ">
<polygon fill="white" stroke="#666666" points="556,-140 431,-140 431,-121 556,-121 556,-140"/>
<text text-anchor="middle" x="493.5" y="-128" font-family="Helvetica,sans-Serif" font-size="10.00">udmaio/HwAccessor.hpp</text>
</a>
</g>
</g>
<!-- Node1&#45;&gt;Node2 -->
<g id="edge1" class="edge">
<title>Node1&#45;&gt;Node2</title>
<path fill="none" stroke="#63b8ff" d="M535.24,-175.75C528.34,-168.43 518.28,-157.76 509.76,-148.74"/>
<polygon fill="#63b8ff" stroke="#63b8ff" points="512.38,-146.42 502.97,-141.54 507.29,-151.22 512.38,-146.42"/>
</g>
<!-- Node27 -->
<g id="node27" class="node">
<title>Node27</title>
<g id="a_node27"><a xlink:title=" ">
<polygon fill="#e0e0e0" stroke="#999999" points="614.5,-140 574.5,-140 574.5,-121 614.5,-121 614.5,-140"/>
<text text-anchor="middle" x="594.5" y="-128" font-family="Helvetica,sans-Serif" font-size="10.00">regex</text>
</a>
</g>
</g>
<!-- Node1&#45;&gt;Node27 -->
<g id="edge30" class="edge">
<title>Node1&#45;&gt;Node27</title>
<path fill="none" stroke="#63b8ff" d="M551.92,-175.75C558.97,-168.43 569.23,-157.76 577.91,-148.74"/>
<polygon fill="#63b8ff" stroke="#63b8ff" points="580.43,-151.17 584.85,-141.53 575.39,-146.31 580.43,-151.17"/>
</g>
<!-- Node3 -->
<g id="node3" class="node">
<title>Node3</title>
<g id="a_node3"><a xlink:title=" ">
<polygon fill="#e0e0e0" stroke="#999999" points="49,-85 0,-85 0,-66 49,-66 49,-85"/>
<text text-anchor="middle" x="24.5" y="-73" font-family="Helvetica,sans-Serif" font-size="10.00">cstddef</text>
</a>
</g>
</g>
<!-- Node2&#45;&gt;Node3 -->
<g id="edge2" class="edge">
<title>Node2&#45;&gt;Node3</title>
<path fill="none" stroke="#63b8ff" d="M430.8,-125.91C348.15,-120.56 198.1,-108.68 60.45,-85.08"/>
<polygon fill="#63b8ff" stroke="#63b8ff" points="61.24,-81.66 50.79,-83.39 60.04,-88.56 61.24,-81.66"/>
</g>
<!-- Node4 -->
<g id="node4" class="node">
<title>Node4</title>
<g id="a_node4"><a xlink:title=" ">
<polygon fill="#e0e0e0" stroke="#999999" points="113.5,-85 67.5,-85 67.5,-66 113.5,-66 113.5,-85"/>
<text text-anchor="middle" x="90.5" y="-73" font-family="Helvetica,sans-Serif" font-size="10.00">cstring</text>
</a>
</g>
</g>
<!-- Node2&#45;&gt;Node4 -->
<g id="edge3" class="edge">
<title>Node2&#45;&gt;Node4</title>
<path fill="none" stroke="#63b8ff" d="M430.73,-124.67C359,-118.56 237.97,-106.41 125.08,-85.25"/>
<polygon fill="#63b8ff" stroke="#63b8ff" points="125.8,-81.82 115.32,-83.39 124.49,-88.7 125.8,-81.82"/>
</g>
<!-- Node5 -->
<g id="node5" class="node">
<title>Node5</title>
<g id="a_node5"><a xlink:title=" ">
<polygon fill="#e0e0e0" stroke="#999999" points="191.5,-85 131.5,-85 131.5,-66 191.5,-66 191.5,-85"/>
<text text-anchor="middle" x="161.5" y="-73" font-family="Helvetica,sans-Serif" font-size="10.00">filesystem</text>
</a>
</g>
</g>
<!-- Node2&#45;&gt;Node5 -->
<g id="edge4" class="edge">
<title>Node2&#45;&gt;Node5</title>
<path fill="none" stroke="#63b8ff" d="M430.72,-121.15C373.76,-113.3 287.2,-100.72 202.78,-85.32"/>
<polygon fill="#63b8ff" stroke="#63b8ff" points="203.65,-81.92 193.18,-83.55 202.38,-88.81 203.65,-81.92"/>
</g>
<!-- Node6 -->
<g id="node6" class="node">
<title>Node6</title>
<g id="a_node6"><a xlink:title=" ">
<polygon fill="#e0e0e0" stroke="#999999" points="259.5,-85 209.5,-85 209.5,-66 259.5,-66 259.5,-85"/>
<text text-anchor="middle" x="234.5" y="-73" font-family="Helvetica,sans-Serif" font-size="10.00">fstream</text>
</a>
</g>
</g>
<!-- Node2&#45;&gt;Node6 -->
<g id="edge5" class="edge">
<title>Node2&#45;&gt;Node6</title>
<path fill="none" stroke="#63b8ff" d="M448.38,-120.58C403.88,-111.73 333.94,-97.7 273.5,-85 272.52,-84.79 271.53,-84.58 270.53,-84.37"/>
<polygon fill="#63b8ff" stroke="#63b8ff" points="271.65,-81.03 261.14,-82.36 270.19,-87.88 271.65,-81.03"/>
</g>
<!-- Node7 -->
<g id="node7" class="node">
<title>Node7</title>
<g id="a_node7"><a xlink:title=" ">
<polygon fill="#e0e0e0" stroke="#999999" points="206.5,-24.5 152.5,-24.5 152.5,-5.5 206.5,-5.5 206.5,-24.5"/>
<text text-anchor="middle" x="179.5" y="-12.5" font-family="Helvetica,sans-Serif" font-size="10.00">iostream</text>
</a>
</g>
</g>
<!-- Node2&#45;&gt;Node7 -->
<g id="edge6" class="edge">
<title>Node2&#45;&gt;Node7</title>
<path fill="none" stroke="#63b8ff" d="M442,-120.5C404.76,-113.16 353.62,-101.31 310.5,-85 289.66,-77.11 236.95,-48.26 205.1,-30.45"/>
<polygon fill="#63b8ff" stroke="#63b8ff" points="206.93,-27.47 196.5,-25.63 203.51,-33.57 206.93,-27.47"/>
</g>
<!-- Node8 -->
<g id="node8" class="node">
<title>Node8</title>
<g id="a_node8"><a xlink:title=" ">
<polygon fill="#e0e0e0" stroke="#999999" points="276,-24.5 225,-24.5 225,-5.5 276,-5.5 276,-24.5"/>
<text text-anchor="middle" x="250.5" y="-12.5" font-family="Helvetica,sans-Serif" font-size="10.00">memory</text>
</a>
</g>
</g>
<!-- Node2&#45;&gt;Node8 -->
<g id="edge7" class="edge">
<title>Node2&#45;&gt;Node8</title>
<path fill="none" stroke="#63b8ff" d="M449.3,-120.51C418.84,-113.32 377.98,-101.66 344.5,-85 315.79,-70.72 286.62,-47.69 268.56,-32.21"/>
<polygon fill="#63b8ff" stroke="#63b8ff" points="271.15,-29.83 261.32,-25.89 266.55,-35.11 271.15,-29.83"/>
</g>
<!-- Node9 -->
<g id="node9" class="node">
<title>Node9</title>
<g id="a_node9"><a xlink:title=" ">
<polygon fill="#e0e0e0" stroke="#999999" points="497,-24.5 456,-24.5 456,-5.5 497,-5.5 497,-24.5"/>
<text text-anchor="middle" x="476.5" y="-12.5" font-family="Helvetica,sans-Serif" font-size="10.00">string</text>
</a>
</g>
</g>
<!-- Node2&#45;&gt;Node9 -->
<g id="edge8" class="edge">
<title>Node2&#45;&gt;Node9</title>
<path fill="none" stroke="#63b8ff" d="M492.17,-120.59C489.46,-102.53 483.27,-61.17 479.53,-36.21"/>
<polygon fill="#63b8ff" stroke="#63b8ff" points="482.99,-35.73 478.05,-26.36 476.07,-36.77 482.99,-35.73"/>
</g>
<!-- Node10 -->
<g id="node10" class="node">
<title>Node10</title>
<g id="a_node10"><a xlink:title=" ">
<polygon fill="#e0e0e0" stroke="#999999" points="781,-85 644,-85 644,-66 781,-66 781,-85"/>
<text text-anchor="middle" x="712.5" y="-73" font-family="Helvetica,sans-Serif" font-size="10.00">boost/core/noncopyable.hpp</text>
</a>
</g>
</g>
<!-- Node2&#45;&gt;Node10 -->
<g id="edge9" class="edge">
<title>Node2&#45;&gt;Node10</title>
<path fill="none" stroke="#63b8ff" d="M530.65,-120.51C567.49,-111.59 624.12,-97.89 664.38,-88.15"/>
<polygon fill="#63b8ff" stroke="#63b8ff" points="665.17,-91.56 674.06,-85.8 663.52,-84.75 665.17,-91.56"/>
</g>
<!-- Node11 -->
<g id="node11" class="node">
<title>Node11</title>
<g id="a_node11"><a xlink:title=" ">
<polygon fill="#e0e0e0" stroke="#999999" points="842,-85 799,-85 799,-66 842,-66 842,-85"/>
<text text-anchor="middle" x="820.5" y="-73" font-family="Helvetica,sans-Serif" font-size="10.00">fcntl.h</text>
</a>
</g>
</g>
<!-- Node2&#45;&gt;Node11 -->
<g id="edge10" class="edge">
<title>Node2&#45;&gt;Node11</title>
<path fill="none" stroke="#63b8ff" d="M556.22,-121.06C624.85,-111.67 731.66,-96.55 787.51,-85.37"/>
<polygon fill="#63b8ff" stroke="#63b8ff" points="788.07,-88.83 797.14,-83.36 786.64,-81.98 788.07,-88.83"/>
</g>
<!-- Node12 -->
<g id="node12" class="node">
<title>Node12</title>
<g id="a_node12"><a xlink:title=" ">
<polygon fill="#e0e0e0" stroke="#999999" points="929,-85 860,-85 860,-66 929,-66 929,-85"/>
<text text-anchor="middle" x="894.5" y="-73" font-family="Helvetica,sans-Serif" font-size="10.00">sys/mman.h</text>
</a>
</g>
</g>
<!-- Node2&#45;&gt;Node12 -->
<g id="edge11" class="edge">
<title>Node2&#45;&gt;Node12</title>
<path fill="none" stroke="#63b8ff" d="M556.16,-121.96C643.43,-111.42 796.03,-92.86 848.49,-85.29"/>
<polygon fill="#63b8ff" stroke="#63b8ff" points="848.94,-88.76 858.31,-83.81 847.9,-81.84 848.94,-88.76"/>
</g>
<!-- Node13 -->
<g id="node13" class="node">
<title>Node13</title>
<g id="a_node13"><a xlink:title=" ">
<polygon fill="#e0e0e0" stroke="#999999" points="1006,-85 947,-85 947,-66 1006,-66 1006,-85"/>
<text text-anchor="middle" x="976.5" y="-73" font-family="Helvetica,sans-Serif" font-size="10.00">sys/stat.h</text>
</a>
</g>
</g>
<!-- Node2&#45;&gt;Node13 -->
<g id="edge12" class="edge">
<title>Node2&#45;&gt;Node13</title>
<path fill="none" stroke="#63b8ff" d="M556.32,-122C559.42,-121.66 562.5,-121.32 565.5,-121 727.54,-103.62 772.13,-110.9 935.74,-85.27"/>
<polygon fill="#63b8ff" stroke="#63b8ff" points="935.87,-88.79 945.2,-83.77 934.78,-81.88 935.87,-88.79"/>
</g>
<!-- Node14 -->
<g id="node14" class="node">
<title>Node14</title>
<g id="a_node14"><a xlink:title=" ">
<polygon fill="#e0e0e0" stroke="#999999" points="1089,-85 1024,-85 1024,-66 1089,-66 1089,-85"/>
<text text-anchor="middle" x="1056.5" y="-73" font-family="Helvetica,sans-Serif" font-size="10.00">sys/types.h</text>
</a>
</g>
</g>
<!-- Node2&#45;&gt;Node14 -->
<g id="edge13" class="edge">
<title>Node2&#45;&gt;Node14</title>
<path fill="none" stroke="#63b8ff" d="M556.31,-121.94C559.42,-121.61 562.49,-121.3 565.5,-121 761.46,-101.6 814.91,-112.98 1012.53,-85.26"/>
<polygon fill="#63b8ff" stroke="#63b8ff" points="1012.98,-88.73 1022.39,-83.86 1012,-81.8 1012.98,-88.73"/>
</g>
<!-- Node15 -->
<g id="node15" class="node">
<title>Node15</title>
<g id="a_node15"><a xlink:title=" ">
<polygon fill="#e0e0e0" stroke="#999999" points="1157.5,-85 1107.5,-85 1107.5,-66 1157.5,-66 1157.5,-85"/>
<text text-anchor="middle" x="1132.5" y="-73" font-family="Helvetica,sans-Serif" font-size="10.00">unistd.h</text>
</a>
</g>
</g>
<!-- Node2&#45;&gt;Node15 -->
<g id="edge14" class="edge">
<title>Node2&#45;&gt;Node15</title>
<path fill="none" stroke="#63b8ff" d="M556.31,-121.9C559.42,-121.58 562.49,-121.28 565.5,-121 798.22,-99.42 861.98,-121.23 1096.07,-85.08"/>
<polygon fill="#63b8ff" stroke="#63b8ff" points="1096.52,-88.55 1105.86,-83.55 1095.43,-81.64 1096.52,-88.55"/>
</g>
<!-- Node16 -->
<g id="node16" class="node">
<title>Node16</title>
<g id="a_node16"><a xlink:href="_logging_8hpp.html" target="_top" xlink:title=" ">
<polygon fill="white" stroke="#666666" points="625.5,-85 521.5,-85 521.5,-66 625.5,-66 625.5,-85"/>
<text text-anchor="middle" x="573.5" y="-73" font-family="Helvetica,sans-Serif" font-size="10.00">udmaio/Logging.hpp</text>
</a>
</g>
</g>
<!-- Node2&#45;&gt;Node16 -->
<g id="edge15" class="edge">
<title>Node2&#45;&gt;Node16</title>
<path fill="none" stroke="#63b8ff" d="M507.07,-120.51C518.98,-112.62 536.55,-100.98 550.63,-91.65"/>
<polygon fill="#63b8ff" stroke="#63b8ff" points="552.46,-94.63 558.87,-86.19 548.6,-88.8 552.46,-94.63"/>
</g>
<!-- Node24 -->
<g id="node24" class="node">
<title>Node24</title>
<g id="a_node24"><a xlink:href="_uio_config_8hpp.html" target="_top" xlink:title=" ">
<polygon fill="white" stroke="#666666" points="465,-85 354,-85 354,-66 465,-66 465,-85"/>
<text text-anchor="middle" x="409.5" y="-73" font-family="Helvetica,sans-Serif" font-size="10.00">udmaio/UioConfig.hpp</text>
</a>
</g>
</g>
<!-- Node2&#45;&gt;Node24 -->
<g id="edge24" class="edge">
<title>Node2&#45;&gt;Node24</title>
<path fill="none" stroke="#63b8ff" d="M479.25,-120.51C466.62,-112.54 447.94,-100.75 433.09,-91.38"/>
<polygon fill="#63b8ff" stroke="#63b8ff" points="435.14,-88.54 424.82,-86.17 431.41,-94.46 435.14,-88.54"/>
</g>
<!-- Node16&#45;&gt;Node9 -->
<g id="edge16" class="edge">
<title>Node16&#45;&gt;Node9</title>
<path fill="none" stroke="#63b8ff" d="M558.77,-65.62C543.46,-56.38 519.23,-41.77 501.03,-30.79"/>
<polygon fill="#63b8ff" stroke="#63b8ff" points="503.04,-27.92 492.67,-25.75 499.42,-33.91 503.04,-27.92"/>
</g>
<!-- Node17 -->
<g id="node17" class="node">
<title>Node17</title>
<g id="a_node17"><a xlink:title=" ">
<polygon fill="#e0e0e0" stroke="#999999" points="1423.5,-24.5 1327.5,-24.5 1327.5,-5.5 1423.5,-5.5 1423.5,-24.5"/>
<text text-anchor="middle" x="1375.5" y="-12.5" font-family="Helvetica,sans-Serif" font-size="10.00">boost/log/core.hpp</text>
</a>
</g>
</g>
<!-- Node16&#45;&gt;Node17 -->
<g id="edge17" class="edge">
<title>Node16&#45;&gt;Node17</title>
<path fill="none" stroke="#63b8ff" d="M625.89,-67C629.14,-66.64 632.36,-66.3 635.5,-66 938.12,-37.33 1017.79,-74.45 1318.5,-30 1323.09,-29.32 1327.86,-28.44 1332.58,-27.45"/>
<polygon fill="#63b8ff" stroke="#63b8ff" points="1333,-30.95 1341.98,-25.32 1331.45,-24.12 1333,-30.95"/>
</g>
<!-- Node18 -->
<g id="node18" class="node">
<title>Node18</title>
<g id="a_node18"><a xlink:title=" ">
<polygon fill="#e0e0e0" stroke="#999999" points="644,-24.5 515,-24.5 515,-5.5 644,-5.5 644,-24.5"/>
<text text-anchor="middle" x="579.5" y="-12.5" font-family="Helvetica,sans-Serif" font-size="10.00">boost/log/expressions.hpp</text>
</a>
</g>
</g>
<!-- Node16&#45;&gt;Node18 -->
<g id="edge18" class="edge">
<title>Node16&#45;&gt;Node18</title>
<path fill="none" stroke="#63b8ff" d="M574.39,-65.87C575.19,-58 576.41,-46.1 577.46,-35.89"/>
<polygon fill="#63b8ff" stroke="#63b8ff" points="580.92,-36.48 578.46,-26.17 573.95,-35.76 580.92,-36.48"/>
</g>
<!-- Node19 -->
<g id="node19" class="node">
<title>Node19</title>
<g id="a_node19"><a xlink:title=" ">
<polygon fill="#e0e0e0" stroke="#999999" points="763,-24.5 662,-24.5 662,-5.5 763,-5.5 763,-24.5"/>
<text text-anchor="middle" x="712.5" y="-12.5" font-family="Helvetica,sans-Serif" font-size="10.00">boost/log/trivial.hpp</text>
</a>
</g>
</g>
<!-- Node16&#45;&gt;Node19 -->
<g id="edge19" class="edge">
<title>Node16&#45;&gt;Node19</title>
<path fill="none" stroke="#63b8ff" d="M594.61,-65.62C617.47,-55.99 654.2,-40.54 680.58,-29.43"/>
<polygon fill="#63b8ff" stroke="#63b8ff" points="681.94,-32.66 689.8,-25.56 679.22,-26.21 681.94,-32.66"/>
</g>
<!-- Node20 -->
<g id="node20" class="node">
<title>Node20</title>
<g id="a_node20"><a xlink:title=" ">
<polygon fill="#e0e0e0" stroke="#999999" points="890,-30 781,-30 781,0 890,0 890,-30"/>
<text text-anchor="start" x="789" y="-18" font-family="Helvetica,sans-Serif" font-size="10.00">boost/log/utility/setup</text>
<text text-anchor="middle" x="835.5" y="-7" font-family="Helvetica,sans-Serif" font-size="10.00">/console.hpp</text>
</a>
</g>
</g>
<!-- Node16&#45;&gt;Node20 -->
<g id="edge20" class="edge">
<title>Node16&#45;&gt;Node20</title>
<path fill="none" stroke="#63b8ff" d="M613.58,-65.55C655.07,-56.29 720.58,-41.66 769.68,-30.7"/>
<polygon fill="#63b8ff" stroke="#63b8ff" points="770.37,-34.13 779.36,-28.53 768.84,-27.3 770.37,-34.13"/>
</g>
<!-- Node21 -->
<g id="node21" class="node">
<title>Node21</title>
<g id="a_node21"><a xlink:title=" ">
<polygon fill="#e0e0e0" stroke="#999999" points="1039,-30 908,-30 908,0 1039,0 1039,-30"/>
<text text-anchor="start" x="916" y="-18" font-family="Helvetica,sans-Serif" font-size="10.00">boost/log/sources/severity</text>
<text text-anchor="middle" x="973.5" y="-7" font-family="Helvetica,sans-Serif" font-size="10.00">_channel_logger.hpp</text>
</a>
</g>
</g>
<!-- Node16&#45;&gt;Node21 -->
<g id="edge21" class="edge">
<title>Node16&#45;&gt;Node21</title>
<path fill="none" stroke="#63b8ff" d="M625.93,-67.31C629.17,-66.87 632.38,-66.43 635.5,-66 749.28,-50.44 780.73,-49.08 896.65,-30.42"/>
<polygon fill="#63b8ff" stroke="#63b8ff" points="896.96,-33.91 906.27,-28.86 895.84,-27 896.96,-33.91"/>
</g>
<!-- Node22 -->
<g id="node22" class="node">
<title>Node22</title>
<g id="a_node22"><a xlink:title=" ">
<polygon fill="#e0e0e0" stroke="#999999" points="1170,-30 1057,-30 1057,0 1170,0 1170,-30"/>
<text text-anchor="start" x="1065" y="-18" font-family="Helvetica,sans-Serif" font-size="10.00">boost/log/support/date</text>
<text text-anchor="middle" x="1113.5" y="-7" font-family="Helvetica,sans-Serif" font-size="10.00">_time.hpp</text>
</a>
</g>
</g>
<!-- Node16&#45;&gt;Node22 -->
<g id="edge22" class="edge">
<title>Node16&#45;&gt;Node22</title>
<path fill="none" stroke="#63b8ff" d="M625.91,-67.13C629.15,-66.73 632.37,-66.35 635.5,-66 814.94,-45.89 864.34,-56.99 1045.25,-30.38"/>
<polygon fill="#63b8ff" stroke="#63b8ff" points="1045.63,-33.86 1055.01,-28.92 1044.6,-26.94 1045.63,-33.86"/>
</g>
<!-- Node23 -->
<g id="node23" class="node">
<title>Node23</title>
<g id="a_node23"><a xlink:title=" ">
<polygon fill="#e0e0e0" stroke="#999999" points="1309,-30 1188,-30 1188,0 1309,0 1309,-30"/>
<text text-anchor="start" x="1196" y="-18" font-family="Helvetica,sans-Serif" font-size="10.00">boost/log/utility/setup</text>
<text text-anchor="middle" x="1248.5" y="-7" font-family="Helvetica,sans-Serif" font-size="10.00">/common_attributes.hpp</text>
</a>
</g>
</g>
<!-- Node16&#45;&gt;Node23 -->
<g id="edge23" class="edge">
<title>Node16&#45;&gt;Node23</title>
<path fill="none" stroke="#63b8ff" d="M625.9,-67.05C629.15,-66.67 632.37,-66.32 635.5,-66 872.92,-41.9 937.4,-61.55 1176.47,-30.29"/>
<polygon fill="#63b8ff" stroke="#63b8ff" points="1176.67,-33.8 1186.12,-29.01 1175.75,-26.86 1176.67,-33.8"/>
</g>
<!-- Node24&#45;&gt;Node7 -->
<g id="edge25" class="edge">
<title>Node24&#45;&gt;Node7</title>
<path fill="none" stroke="#63b8ff" d="M361.55,-65.52C321.97,-57.63 264.55,-45.08 215.5,-30 214.17,-29.59 212.81,-29.15 211.45,-28.7"/>
<polygon fill="#63b8ff" stroke="#63b8ff" points="213.04,-25.55 202.45,-25.47 210.68,-32.14 213.04,-25.55"/>
</g>
<!-- Node24&#45;&gt;Node8 -->
<g id="edge26" class="edge">
<title>Node24&#45;&gt;Node8</title>
<path fill="none" stroke="#63b8ff" d="M383.51,-65.66C358.13,-56.93 318.48,-43.04 284.5,-30 283.72,-29.7 282.93,-29.39 282.13,-29.08"/>
<polygon fill="#63b8ff" stroke="#63b8ff" points="283.65,-25.92 273.06,-25.46 281.05,-32.42 283.65,-25.92"/>
</g>
<!-- Node24&#45;&gt;Node9 -->
<g id="edge28" class="edge">
<title>Node24&#45;&gt;Node9</title>
<path fill="none" stroke="#63b8ff" d="M419.68,-65.62C429.71,-56.85 445.29,-43.25 457.6,-32.5"/>
<polygon fill="#63b8ff" stroke="#63b8ff" points="459.86,-35.18 465.09,-25.96 455.25,-29.9 459.86,-35.18"/>
</g>
<!-- Node25 -->
<g id="node25" class="node">
<title>Node25</title>
<g id="a_node25"><a xlink:title=" ">
<polygon fill="#e0e0e0" stroke="#999999" points="353,-24.5 294,-24.5 294,-5.5 353,-5.5 353,-24.5"/>
<text text-anchor="middle" x="323.5" y="-12.5" font-family="Helvetica,sans-Serif" font-size="10.00">stdexcept</text>
</a>
</g>
</g>
<!-- Node24&#45;&gt;Node25 -->
<g id="edge27" class="edge">
<title>Node24&#45;&gt;Node25</title>
<path fill="none" stroke="#63b8ff" d="M396.44,-65.62C383.05,-56.51 361.98,-42.18 345.92,-31.25"/>
<polygon fill="#63b8ff" stroke="#63b8ff" points="348.17,-28.55 337.94,-25.82 344.24,-34.34 348.17,-28.55"/>
</g>
<!-- Node26 -->
<g id="node26" class="node">
<title>Node26</title>
<g id="a_node26"><a xlink:title=" ">
<polygon fill="#e0e0e0" stroke="#999999" points="437.5,-24.5 371.5,-24.5 371.5,-5.5 437.5,-5.5 437.5,-24.5"/>
<text text-anchor="middle" x="404.5" y="-12.5" font-family="Helvetica,sans-Serif" font-size="10.00">string_view</text>
</a>
</g>
</g>
<!-- Node24&#45;&gt;Node26 -->
<g id="edge29" class="edge">
<title>Node24&#45;&gt;Node26</title>
<path fill="none" stroke="#63b8ff" d="M408.76,-65.87C408.09,-58 407.07,-46.1 406.2,-35.89"/>
<polygon fill="#63b8ff" stroke="#63b8ff" points="409.71,-35.84 405.37,-26.18 402.73,-36.44 409.71,-35.84"/>
</g>
</g>
</svg>
