<?xml version="1.0" encoding="UTF-8" standalone="no"?>
<!DOCTYPE svg PUBLIC "-//W3C//DTD SVG 1.1//EN"
 "http://www.w3.org/Graphics/SVG/1.1/DTD/svg11.dtd">
<!-- Generated by graphviz version 7.0.5 (20221223.1930)
 -->
<!-- Title: HwAccessor.hpp Pages: 1 -->
<svg width="444pt" height="357pt"
 viewBox="0.00 0.00 443.50 357.00" xmlns="http://www.w3.org/2000/svg" xmlns:xlink="http://www.w3.org/1999/xlink">
<g id="graph0" class="graph" transform="scale(1 1) rotate(0) translate(4 353)">
<title>HwAccessor.hpp</title>
<!-- Node1 -->
<g id="node1" class="node">
<title>Node1</title>
<g id="a_node1"><a xlink:title=" ">
<polygon fill="#999999" stroke="#666666" points="193,-349 102,-349 102,-330 193,-330 193,-349"/>
<text text-anchor="middle" x="147.5" y="-337" font-family="Helvetica,sans-Serif" font-size="10.00">HwAccessor.hpp</text>
</a>
</g>
</g>
<!-- Node2 -->
<g id="node2" class="node">
<title>Node2</title>
<g id="a_node2"><a xlink:href="_hw_accessor_8cpp.html" target="_top" xlink:title=" ">
<polygon fill="white" stroke="#666666" points="91,-294 0,-294 0,-275 91,-275 91,-294"/>
<text text-anchor="middle" x="45.5" y="-282" font-family="Helvetica,sans-Serif" font-size="10.00">HwAccessor.cpp</text>
</a>
</g>
</g>
<!-- Node1&#45;&gt;Node2 -->
<g id="edge1" class="edge">
<title>Node1&#45;&gt;Node2</title>
<path fill="none" stroke="#63b8ff" d="M120.11,-324.27C101.78,-314.74 78.24,-302.51 62.55,-294.36"/>
<polygon fill="#63b8ff" stroke="#63b8ff" points="118.37,-327.31 128.85,-328.81 121.59,-321.09 118.37,-327.31"/>
</g>
<!-- Node3 -->
<g id="node3" class="node">
<title>Node3</title>
<g id="a_node3"><a xlink:href="_uio_config_8cpp.html" target="_top" xlink:title=" ">
<polygon fill="white" stroke="#666666" points="186,-294 109,-294 109,-275 186,-275 186,-294"/>
<text text-anchor="middle" x="147.5" y="-282" font-family="Helvetica,sans-Serif" font-size="10.00">UioConfig.cpp</text>
</a>
</g>
</g>
<!-- Node1&#45;&gt;Node3 -->
<g id="edge2" class="edge">
<title>Node1&#45;&gt;Node3</title>
<path fill="none" stroke="#63b8ff" d="M147.5,-318.35C147.5,-310.1 147.5,-300.97 147.5,-294.44"/>
<polygon fill="#63b8ff" stroke="#63b8ff" points="144,-318.23 147.5,-328.23 151,-318.23 144,-318.23"/>
</g>
<!-- Node4 -->
<g id="node4" class="node">
<title>Node4</title>
<g id="a_node4"><a xlink:href="_uio_if_8hpp.html" target="_top" xlink:title=" ">
<polygon fill="white" stroke="#666666" points="260.5,-294 204.5,-294 204.5,-275 260.5,-275 260.5,-294"/>
<text text-anchor="middle" x="232.5" y="-282" font-family="Helvetica,sans-Serif" font-size="10.00">UioIf.hpp</text>
</a>
</g>
</g>
<!-- Node1&#45;&gt;Node4 -->
<g id="edge3" class="edge">
<title>Node1&#45;&gt;Node4</title>
<path fill="none" stroke="#63b8ff" d="M171.62,-323.46C186.69,-314.06 205.59,-302.28 218.29,-294.36"/>
<polygon fill="#63b8ff" stroke="#63b8ff" points="169.84,-320.45 163.2,-328.71 173.54,-326.39 169.84,-320.45"/>
</g>
<!-- Node5 -->
<g id="node5" class="node">
<title>Node5</title>
<g id="a_node5"><a xlink:href="_fpga_mem_buffer_over_axi_8hpp.html" target="_top" xlink:title=" ">
<polygon fill="white" stroke="#666666" points="167.5,-239 29.5,-239 29.5,-220 167.5,-220 167.5,-239"/>
<text text-anchor="middle" x="98.5" y="-227" font-family="Helvetica,sans-Serif" font-size="10.00">FpgaMemBufferOverAxi.hpp</text>
</a>
</g>
</g>
<!-- Node4&#45;&gt;Node5 -->
<g id="edge4" class="edge">
<title>Node4&#45;&gt;Node5</title>
<path fill="none" stroke="#63b8ff" d="M199.19,-270.32C174.77,-260.67 142.28,-247.82 120.9,-239.36"/>
<polygon fill="#63b8ff" stroke="#63b8ff" points="197.77,-273.53 208.36,-273.95 200.35,-267.02 197.77,-273.53"/>
</g>
<!-- Node6 -->
<g id="node6" class="node">
<title>Node6</title>
<g id="a_node6"><a xlink:href="_reg_accessor_8hpp.html" target="_top" xlink:title=" ">
<polygon fill="white" stroke="#666666" points="317,-239 224,-239 224,-220 317,-220 317,-239"/>
<text text-anchor="middle" x="270.5" y="-227" font-family="Helvetica,sans-Serif" font-size="10.00">RegAccessor.hpp</text>
</a>
</g>
</g>
<!-- Node4&#45;&gt;Node6 -->
<g id="edge5" class="edge">
<title>Node4&#45;&gt;Node6</title>
<path fill="none" stroke="#63b8ff" d="M245.3,-265.65C251.62,-256.84 258.96,-246.59 264.09,-239.44"/>
<polygon fill="#63b8ff" stroke="#63b8ff" points="242.64,-263.35 239.66,-273.52 248.33,-267.43 242.64,-263.35"/>
</g>
<!-- Node7 -->
<g id="node7" class="node">
<title>Node7</title>
<g id="a_node7"><a xlink:href="_uio_axi_dma_if_8hpp.html" target="_top" xlink:title=" ">
<polygon fill="white" stroke="#666666" points="240,-184 151,-184 151,-165 240,-165 240,-184"/>
<text text-anchor="middle" x="195.5" y="-172" font-family="Helvetica,sans-Serif" font-size="10.00">UioAxiDmaIf.hpp</text>
</a>
</g>
</g>
<!-- Node4&#45;&gt;Node7 -->
<g id="edge15" class="edge">
<title>Node4&#45;&gt;Node7</title>
<path fill="none" stroke="#63b8ff" d="M224.24,-264.21C221.03,-256.44 217.43,-247.35 214.5,-239 207.72,-219.67 201.18,-196.52 197.83,-184.21"/>
<polygon fill="#63b8ff" stroke="#63b8ff" points="220.97,-265.48 228.08,-273.33 227.42,-262.76 220.97,-265.48"/>
</g>
<!-- Node15 -->
<g id="node15" class="node">
<title>Node15</title>
<g id="a_node15"><a xlink:href="_uio_if_8cpp.html" target="_top" xlink:title=" ">
<polygon fill="white" stroke="#666666" points="391.5,-239 335.5,-239 335.5,-220 391.5,-220 391.5,-239"/>
<text text-anchor="middle" x="363.5" y="-227" font-family="Helvetica,sans-Serif" font-size="10.00">UioIf.cpp</text>
</a>
</g>
</g>
<!-- Node4&#45;&gt;Node15 -->
<g id="edge16" class="edge">
<title>Node4&#45;&gt;Node15</title>
<path fill="none" stroke="#63b8ff" d="M265.39,-270.19C289.23,-260.55 320.8,-247.78 341.61,-239.36"/>
<polygon fill="#63b8ff" stroke="#63b8ff" points="264.08,-266.95 256.13,-273.94 266.71,-273.44 264.08,-266.95"/>
</g>
<!-- Node6&#45;&gt;Node7 -->
<g id="edge6" class="edge">
<title>Node6&#45;&gt;Node7</title>
<path fill="none" stroke="#63b8ff" d="M248.45,-212.92C235.28,-203.61 219.03,-192.13 208.03,-184.36"/>
<polygon fill="#63b8ff" stroke="#63b8ff" points="246.35,-215.72 256.54,-218.64 250.39,-210.01 246.35,-215.72"/>
</g>
<!-- Node13 -->
<g id="node13" class="node">
<title>Node13</title>
<g id="a_node13"><a xlink:href="_uio_mem_sgdma_8hpp.html" target="_top" xlink:title=" ">
<polygon fill="white" stroke="#666666" points="360.5,-184 258.5,-184 258.5,-165 360.5,-165 360.5,-184"/>
<text text-anchor="middle" x="309.5" y="-172" font-family="Helvetica,sans-Serif" font-size="10.00">UioMemSgdma.hpp</text>
</a>
</g>
</g>
<!-- Node6&#45;&gt;Node13 -->
<g id="edge12" class="edge">
<title>Node6&#45;&gt;Node13</title>
<path fill="none" stroke="#63b8ff" d="M283.64,-210.65C290.12,-201.84 297.66,-191.59 302.92,-184.44"/>
<polygon fill="#63b8ff" stroke="#63b8ff" points="280.94,-208.4 277.84,-218.53 286.58,-212.55 280.94,-208.4"/>
</g>
<!-- Node8 -->
<g id="node8" class="node">
<title>Node8</title>
<g id="a_node8"><a xlink:href="_data_handler_abstract_8hpp.html" target="_top" xlink:title=" ">
<polygon fill="white" stroke="#666666" points="315,-129 190,-129 190,-110 315,-110 315,-129"/>
<text text-anchor="middle" x="252.5" y="-117" font-family="Helvetica,sans-Serif" font-size="10.00">DataHandlerAbstract.hpp</text>
</a>
</g>
</g>
<!-- Node7&#45;&gt;Node8 -->
<g id="edge7" class="edge">
<title>Node7&#45;&gt;Node8</title>
<path fill="none" stroke="#63b8ff" d="M213.45,-156.81C223.23,-147.72 234.94,-136.82 242.97,-129.36"/>
<polygon fill="#63b8ff" stroke="#63b8ff" points="211.22,-154.11 206.28,-163.48 215.98,-159.23 211.22,-154.11"/>
</g>
<!-- Node12 -->
<g id="node12" class="node">
<title>Node12</title>
<g id="a_node12"><a xlink:href="_uio_axi_dma_if_8cpp.html" target="_top" xlink:title=" ">
<polygon fill="white" stroke="#666666" points="172,-129 83,-129 83,-110 172,-110 172,-129"/>
<text text-anchor="middle" x="127.5" y="-117" font-family="Helvetica,sans-Serif" font-size="10.00">UioAxiDmaIf.cpp</text>
</a>
</g>
</g>
<!-- Node7&#45;&gt;Node12 -->
<g id="edge11" class="edge">
<title>Node7&#45;&gt;Node12</title>
<path fill="none" stroke="#63b8ff" d="M175.15,-157.64C163.28,-148.39 148.74,-137.05 138.86,-129.36"/>
<polygon fill="#63b8ff" stroke="#63b8ff" points="172.73,-160.19 182.77,-163.58 177.04,-154.67 172.73,-160.19"/>
</g>
<!-- Node9 -->
<g id="node9" class="node">
<title>Node9</title>
<g id="a_node9"><a xlink:href="_data_handler_abstract_8cpp.html" target="_top" xlink:title=" ">
<polygon fill="white" stroke="#666666" points="247,-74 122,-74 122,-55 247,-55 247,-74"/>
<text text-anchor="middle" x="184.5" y="-62" font-family="Helvetica,sans-Serif" font-size="10.00">DataHandlerAbstract.cpp</text>
</a>
</g>
</g>
<!-- Node8&#45;&gt;Node9 -->
<g id="edge8" class="edge">
<title>Node8&#45;&gt;Node9</title>
<path fill="none" stroke="#63b8ff" d="M232.15,-102.64C220.28,-93.39 205.74,-82.05 195.86,-74.36"/>
<polygon fill="#63b8ff" stroke="#63b8ff" points="229.73,-105.19 239.77,-108.58 234.04,-99.67 229.73,-105.19"/>
</g>
<!-- Node10 -->
<g id="node10" class="node">
<title>Node10</title>
<g id="a_node10"><a xlink:href="_data_handler_sync_8hpp.html" target="_top" xlink:title=" ">
<polygon fill="white" stroke="#666666" points="375.5,-74 265.5,-74 265.5,-55 375.5,-55 375.5,-74"/>
<text text-anchor="middle" x="320.5" y="-62" font-family="Helvetica,sans-Serif" font-size="10.00">DataHandlerSync.hpp</text>
</a>
</g>
</g>
<!-- Node8&#45;&gt;Node10 -->
<g id="edge9" class="edge">
<title>Node8&#45;&gt;Node10</title>
<path fill="none" stroke="#63b8ff" d="M272.85,-102.64C284.72,-93.39 299.26,-82.05 309.14,-74.36"/>
<polygon fill="#63b8ff" stroke="#63b8ff" points="270.96,-99.67 265.23,-108.58 275.27,-105.19 270.96,-99.67"/>
</g>
<!-- Node11 -->
<g id="node11" class="node">
<title>Node11</title>
<g id="a_node11"><a xlink:href="_data_handler_sync_8cpp.html" target="_top" xlink:title=" ">
<polygon fill="white" stroke="#666666" points="375.5,-19 265.5,-19 265.5,0 375.5,0 375.5,-19"/>
<text text-anchor="middle" x="320.5" y="-7" font-family="Helvetica,sans-Serif" font-size="10.00">DataHandlerSync.cpp</text>
</a>
</g>
</g>
<!-- Node10&#45;&gt;Node11 -->
<g id="edge10" class="edge">
<title>Node10&#45;&gt;Node11</title>
<path fill="none" stroke="#63b8ff" d="M320.5,-43.35C320.5,-35.1 320.5,-25.97 320.5,-19.44"/>
<polygon fill="#63b8ff" stroke="#63b8ff" points="317,-43.23 320.5,-53.23 324,-43.23 317,-43.23"/>
</g>
<!-- Node13&#45;&gt;Node8 -->
<g id="edge13" class="edge">
<title>Node13&#45;&gt;Node8</title>
<path fill="none" stroke="#63b8ff" d="M291.55,-156.81C281.77,-147.72 270.06,-136.82 262.03,-129.36"/>
<polygon fill="#63b8ff" stroke="#63b8ff" points="289.02,-159.23 298.72,-163.48 293.78,-154.11 289.02,-159.23"/>
</g>
<!-- Node14 -->
<g id="node14" class="node">
<title>Node14</title>
<g id="a_node14"><a xlink:href="_uio_mem_sgdma_8cpp.html" target="_top" xlink:title=" ">
<polygon fill="white" stroke="#666666" points="435.5,-129 333.5,-129 333.5,-110 435.5,-110 435.5,-129"/>
<text text-anchor="middle" x="384.5" y="-117" font-family="Helvetica,sans-Serif" font-size="10.00">UioMemSgdma.cpp</text>
</a>
</g>
</g>
<!-- Node13&#45;&gt;Node14 -->
<g id="edge14" class="edge">
<title>Node13&#45;&gt;Node14</title>
<path fill="none" stroke="#63b8ff" d="M331.55,-157.92C344.72,-148.61 360.97,-137.13 371.97,-129.36"/>
<polygon fill="#63b8ff" stroke="#63b8ff" points="329.61,-155.01 323.46,-163.64 333.65,-160.72 329.61,-155.01"/>
</g>
</g>
</svg>
