<?xml version="1.0" encoding="UTF-8" standalone="no"?>
<!DOCTYPE svg PUBLIC "-//W3C//DTD SVG 1.1//EN"
 "http://www.w3.org/Graphics/SVG/1.1/DTD/svg11.dtd">
<!-- Generated by graphviz version 7.0.5 (20221223.1930)
 -->
<!-- Title: Logging.hpp Pages: 1 -->
<svg width="763pt" height="412pt"
 viewBox="0.00 0.00 763.00 412.00" xmlns="http://www.w3.org/2000/svg" xmlns:xlink="http://www.w3.org/1999/xlink">
<g id="graph0" class="graph" transform="scale(1 1) rotate(0) translate(4 408)">
<title>Logging.hpp</title>
<!-- Node1 -->
<g id="node1" class="node">
<title>Node1</title>
<g id="a_node1"><a xlink:title=" ">
<polygon fill="#999999" stroke="#666666" points="464.5,-404 395.5,-404 395.5,-385 464.5,-385 464.5,-404"/>
<text text-anchor="middle" x="430" y="-392" font-family="Helvetica,sans-Serif" font-size="10.00">Logging.hpp</text>
</a>
</g>
</g>
<!-- Node2 -->
<g id="node2" class="node">
<title>Node2</title>
<g id="a_node2"><a xlink:href="_data_handler_abstract_8hpp.html" target="_top" xlink:title=" ">
<polygon fill="white" stroke="#666666" points="694.5,-129 569.5,-129 569.5,-110 694.5,-110 694.5,-129"/>
<text text-anchor="middle" x="632" y="-117" font-family="Helvetica,sans-Serif" font-size="10.00">DataHandlerAbstract.hpp</text>
</a>
</g>
</g>
<!-- Node1&#45;&gt;Node2 -->
<g id="edge1" class="edge">
<title>Node1&#45;&gt;Node2</title>
<path fill="none" stroke="#63b8ff" d="M475.88,-389.96C541.53,-384.19 658.33,-371.14 694,-349 723.61,-330.62 740,-320.35 740,-285.5 740,-285.5 740,-285.5 740,-228.5 740,-179.44 683.6,-144.89 652.31,-129.49"/>
<polygon fill="#63b8ff" stroke="#63b8ff" points="475.8,-386.45 466.14,-390.79 476.4,-393.43 475.8,-386.45"/>
</g>
<!-- Node6 -->
<g id="node6" class="node">
<title>Node6</title>
<g id="a_node6"><a xlink:href="_frame_format_8hpp.html" target="_top" xlink:title=" ">
<polygon fill="white" stroke="#666666" points="196.5,-349 103.5,-349 103.5,-330 196.5,-330 196.5,-349"/>
<text text-anchor="middle" x="150" y="-337" font-family="Helvetica,sans-Serif" font-size="10.00">FrameFormat.hpp</text>
</a>
</g>
</g>
<!-- Node1&#45;&gt;Node6 -->
<g id="edge5" class="edge">
<title>Node1&#45;&gt;Node6</title>
<path fill="none" stroke="#63b8ff" d="M383.93,-384.78C332.14,-374.98 248.52,-359.15 196.54,-349.31"/>
<polygon fill="#63b8ff" stroke="#63b8ff" points="383.14,-388.19 393.62,-386.61 384.44,-381.31 383.14,-388.19"/>
</g>
<!-- Node9 -->
<g id="node9" class="node">
<title>Node9</title>
<g id="a_node9"><a xlink:href="_uio_axi_vdma_if_8cpp.html" target="_top" xlink:title=" ">
<polygon fill="white" stroke="#666666" points="122.5,-129 27.5,-129 27.5,-110 122.5,-110 122.5,-129"/>
<text text-anchor="middle" x="75" y="-117" font-family="Helvetica,sans-Serif" font-size="10.00">UioAxiVdmaIf.cpp</text>
</a>
</g>
</g>
<!-- Node1&#45;&gt;Node9 -->
<g id="edge29" class="edge">
<title>Node1&#45;&gt;Node9</title>
<path fill="none" stroke="#63b8ff" d="M383.69,-391.65C272.58,-385.94 0,-363.94 0,-285.5 0,-285.5 0,-285.5 0,-228.5 0,-184.9 41.75,-146.24 62.95,-129.42"/>
<polygon fill="#63b8ff" stroke="#63b8ff" points="383.5,-395.14 393.66,-392.13 383.85,-388.15 383.5,-395.14"/>
</g>
<!-- Node10 -->
<g id="node10" class="node">
<title>Node10</title>
<g id="a_node10"><a xlink:href="_hw_accessor_8hpp.html" target="_top" xlink:title=" ">
<polygon fill="white" stroke="#666666" points="475.5,-349 384.5,-349 384.5,-330 475.5,-330 475.5,-349"/>
<text text-anchor="middle" x="430" y="-337" font-family="Helvetica,sans-Serif" font-size="10.00">HwAccessor.hpp</text>
</a>
</g>
</g>
<!-- Node1&#45;&gt;Node10 -->
<g id="edge9" class="edge">
<title>Node1&#45;&gt;Node10</title>
<path fill="none" stroke="#63b8ff" d="M430,-373.35C430,-365.1 430,-355.97 430,-349.44"/>
<polygon fill="#63b8ff" stroke="#63b8ff" points="426.5,-373.23 430,-383.23 433.5,-373.23 426.5,-373.23"/>
</g>
<!-- Node13 -->
<g id="node13" class="node">
<title>Node13</title>
<g id="a_node13"><a xlink:href="_uio_if_8hpp.html" target="_top" xlink:title=" ">
<polygon fill="white" stroke="#666666" points="373,-294 317,-294 317,-275 373,-275 373,-294"/>
<text text-anchor="middle" x="345" y="-282" font-family="Helvetica,sans-Serif" font-size="10.00">UioIf.hpp</text>
</a>
</g>
</g>
<!-- Node1&#45;&gt;Node13 -->
<g id="edge30" class="edge">
<title>Node1&#45;&gt;Node13</title>
<path fill="none" stroke="#63b8ff" d="M406.64,-378.26C396,-370.46 383.83,-360.24 375,-349 361.44,-331.74 352.12,-307.36 347.78,-294.4"/>
<polygon fill="#63b8ff" stroke="#63b8ff" points="404.41,-380.97 414.61,-383.84 408.43,-375.23 404.41,-380.97"/>
</g>
<!-- Node21 -->
<g id="node21" class="node">
<title>Node21</title>
<g id="a_node21"><a xlink:href="_logging_8cpp.html" target="_top" xlink:title=" ">
<polygon fill="white" stroke="#666666" points="684.5,-349 615.5,-349 615.5,-330 684.5,-330 684.5,-349"/>
<text text-anchor="middle" x="650" y="-337" font-family="Helvetica,sans-Serif" font-size="10.00">Logging.cpp</text>
</a>
</g>
</g>
<!-- Node1&#45;&gt;Node21 -->
<g id="edge25" class="edge">
<title>Node1&#45;&gt;Node21</title>
<path fill="none" stroke="#63b8ff" d="M476.04,-382.41C517.56,-372.41 577.71,-357.91 615.3,-348.86"/>
<polygon fill="#63b8ff" stroke="#63b8ff" points="475.23,-379 466.33,-384.75 476.87,-385.81 475.23,-379"/>
</g>
<!-- Node22 -->
<g id="node22" class="node">
<title>Node22</title>
<g id="a_node22"><a xlink:href="_u_dma_buf_8hpp.html" target="_top" xlink:title=" ">
<polygon fill="white" stroke="#666666" points="597.5,-349 520.5,-349 520.5,-330 597.5,-330 597.5,-349"/>
<text text-anchor="middle" x="559" y="-337" font-family="Helvetica,sans-Serif" font-size="10.00">UDmaBuf.hpp</text>
</a>
</g>
</g>
<!-- Node1&#45;&gt;Node22 -->
<g id="edge26" class="edge">
<title>Node1&#45;&gt;Node22</title>
<path fill="none" stroke="#63b8ff" d="M462.39,-380.19C485.86,-370.55 516.95,-357.78 537.44,-349.36"/>
<polygon fill="#63b8ff" stroke="#63b8ff" points="461.2,-376.9 453.28,-383.93 463.86,-383.37 461.2,-376.9"/>
</g>
<!-- Node3 -->
<g id="node3" class="node">
<title>Node3</title>
<g id="a_node3"><a xlink:href="_data_handler_abstract_8cpp.html" target="_top" xlink:title=" ">
<polygon fill="white" stroke="#666666" points="626.5,-74 501.5,-74 501.5,-55 626.5,-55 626.5,-74"/>
<text text-anchor="middle" x="564" y="-62" font-family="Helvetica,sans-Serif" font-size="10.00">DataHandlerAbstract.cpp</text>
</a>
</g>
</g>
<!-- Node2&#45;&gt;Node3 -->
<g id="edge2" class="edge">
<title>Node2&#45;&gt;Node3</title>
<path fill="none" stroke="#63b8ff" d="M611.65,-102.64C599.78,-93.39 585.24,-82.05 575.36,-74.36"/>
<polygon fill="#63b8ff" stroke="#63b8ff" points="609.23,-105.19 619.27,-108.58 613.54,-99.67 609.23,-105.19"/>
</g>
<!-- Node4 -->
<g id="node4" class="node">
<title>Node4</title>
<g id="a_node4"><a xlink:href="_data_handler_sync_8hpp.html" target="_top" xlink:title=" ">
<polygon fill="white" stroke="#666666" points="755,-74 645,-74 645,-55 755,-55 755,-74"/>
<text text-anchor="middle" x="700" y="-62" font-family="Helvetica,sans-Serif" font-size="10.00">DataHandlerSync.hpp</text>
</a>
</g>
</g>
<!-- Node2&#45;&gt;Node4 -->
<g id="edge3" class="edge">
<title>Node2&#45;&gt;Node4</title>
<path fill="none" stroke="#63b8ff" d="M652.35,-102.64C664.22,-93.39 678.76,-82.05 688.64,-74.36"/>
<polygon fill="#63b8ff" stroke="#63b8ff" points="650.46,-99.67 644.73,-108.58 654.77,-105.19 650.46,-99.67"/>
</g>
<!-- Node5 -->
<g id="node5" class="node">
<title>Node5</title>
<g id="a_node5"><a xlink:href="_data_handler_sync_8cpp.html" target="_top" xlink:title=" ">
<polygon fill="white" stroke="#666666" points="755,-19 645,-19 645,0 755,0 755,-19"/>
<text text-anchor="middle" x="700" y="-7" font-family="Helvetica,sans-Serif" font-size="10.00">DataHandlerSync.cpp</text>
</a>
</g>
</g>
<!-- Node4&#45;&gt;Node5 -->
<g id="edge4" class="edge">
<title>Node4&#45;&gt;Node5</title>
<path fill="none" stroke="#63b8ff" d="M700,-43.35C700,-35.1 700,-25.97 700,-19.44"/>
<polygon fill="#63b8ff" stroke="#63b8ff" points="696.5,-43.23 700,-53.23 703.5,-43.23 696.5,-43.23"/>
</g>
<!-- Node7 -->
<g id="node7" class="node">
<title>Node7</title>
<g id="a_node7"><a xlink:href="_frame_format_8cpp.html" target="_top" xlink:title=" ">
<polygon fill="white" stroke="#666666" points="121.5,-294 28.5,-294 28.5,-275 121.5,-275 121.5,-294"/>
<text text-anchor="middle" x="75" y="-282" font-family="Helvetica,sans-Serif" font-size="10.00">FrameFormat.cpp</text>
</a>
</g>
</g>
<!-- Node6&#45;&gt;Node7 -->
<g id="edge6" class="edge">
<title>Node6&#45;&gt;Node7</title>
<path fill="none" stroke="#63b8ff" d="M127.95,-322.92C114.78,-313.61 98.53,-302.13 87.53,-294.36"/>
<polygon fill="#63b8ff" stroke="#63b8ff" points="125.85,-325.72 136.04,-328.64 129.89,-320.01 125.85,-325.72"/>
</g>
<!-- Node8 -->
<g id="node8" class="node">
<title>Node8</title>
<g id="a_node8"><a xlink:href="_uio_axi_vdma_if_8hpp.html" target="_top" xlink:title=" ">
<polygon fill="white" stroke="#666666" points="216.5,-184 121.5,-184 121.5,-165 216.5,-165 216.5,-184"/>
<text text-anchor="middle" x="169" y="-172" font-family="Helvetica,sans-Serif" font-size="10.00">UioAxiVdmaIf.hpp</text>
</a>
</g>
</g>
<!-- Node6&#45;&gt;Node8 -->
<g id="edge7" class="edge">
<title>Node6&#45;&gt;Node8</title>
<path fill="none" stroke="#63b8ff" d="M152.34,-318.44C156.5,-282.74 165.03,-209.57 167.97,-184.31"/>
<polygon fill="#63b8ff" stroke="#63b8ff" points="148.88,-317.9 151.2,-328.23 155.83,-318.71 148.88,-317.9"/>
</g>
<!-- Node8&#45;&gt;Node9 -->
<g id="edge8" class="edge">
<title>Node8&#45;&gt;Node9</title>
<path fill="none" stroke="#63b8ff" d="M143.28,-159C126.46,-149.52 105.03,-137.43 90.71,-129.36"/>
<polygon fill="#63b8ff" stroke="#63b8ff" points="141.31,-161.9 151.74,-163.77 144.74,-155.81 141.31,-161.9"/>
</g>
<!-- Node11 -->
<g id="node11" class="node">
<title>Node11</title>
<g id="a_node11"><a xlink:href="_hw_accessor_8cpp.html" target="_top" xlink:title=" ">
<polygon fill="white" stroke="#666666" points="577.5,-294 486.5,-294 486.5,-275 577.5,-275 577.5,-294"/>
<text text-anchor="middle" x="532" y="-282" font-family="Helvetica,sans-Serif" font-size="10.00">HwAccessor.cpp</text>
</a>
</g>
</g>
<!-- Node10&#45;&gt;Node11 -->
<g id="edge10" class="edge">
<title>Node10&#45;&gt;Node11</title>
<path fill="none" stroke="#63b8ff" d="M457.39,-324.27C475.72,-314.74 499.26,-302.51 514.95,-294.36"/>
<polygon fill="#63b8ff" stroke="#63b8ff" points="455.91,-321.09 448.65,-328.81 459.13,-327.31 455.91,-321.09"/>
</g>
<!-- Node12 -->
<g id="node12" class="node">
<title>Node12</title>
<g id="a_node12"><a xlink:href="_uio_config_8cpp.html" target="_top" xlink:title=" ">
<polygon fill="white" stroke="#666666" points="468.5,-294 391.5,-294 391.5,-275 468.5,-275 468.5,-294"/>
<text text-anchor="middle" x="430" y="-282" font-family="Helvetica,sans-Serif" font-size="10.00">UioConfig.cpp</text>
</a>
</g>
</g>
<!-- Node10&#45;&gt;Node12 -->
<g id="edge11" class="edge">
<title>Node10&#45;&gt;Node12</title>
<path fill="none" stroke="#63b8ff" d="M430,-318.35C430,-310.1 430,-300.97 430,-294.44"/>
<polygon fill="#63b8ff" stroke="#63b8ff" points="426.5,-318.23 430,-328.23 433.5,-318.23 426.5,-318.23"/>
</g>
<!-- Node10&#45;&gt;Node13 -->
<g id="edge12" class="edge">
<title>Node10&#45;&gt;Node13</title>
<path fill="none" stroke="#63b8ff" d="M405.88,-323.46C390.81,-314.06 371.91,-302.28 359.21,-294.36"/>
<polygon fill="#63b8ff" stroke="#63b8ff" points="403.96,-326.39 414.3,-328.71 407.66,-320.45 403.96,-326.39"/>
</g>
<!-- Node13&#45;&gt;Node8 -->
<g id="edge23" class="edge">
<title>Node13&#45;&gt;Node8</title>
<path fill="none" stroke="#63b8ff" d="M305.37,-278.39C275.68,-272.87 235.44,-261.61 207,-239 188.5,-224.29 176.96,-197.92 171.94,-184.25"/>
<polygon fill="#63b8ff" stroke="#63b8ff" points="304.65,-281.82 315.1,-280.05 305.82,-274.92 304.65,-281.82"/>
</g>
<!-- Node14 -->
<g id="node14" class="node">
<title>Node14</title>
<g id="a_node14"><a xlink:href="_fpga_mem_buffer_over_axi_8hpp.html" target="_top" xlink:title=" ">
<polygon fill="white" stroke="#666666" points="354,-239 216,-239 216,-220 354,-220 354,-239"/>
<text text-anchor="middle" x="285" y="-227" font-family="Helvetica,sans-Serif" font-size="10.00">FpgaMemBufferOverAxi.hpp</text>
</a>
</g>
</g>
<!-- Node13&#45;&gt;Node14 -->
<g id="edge13" class="edge">
<title>Node13&#45;&gt;Node14</title>
<path fill="none" stroke="#63b8ff" d="M326.42,-267.09C316.06,-257.94 303.57,-246.9 295.03,-239.36"/>
<polygon fill="#63b8ff" stroke="#63b8ff" points="323.88,-269.51 333.69,-273.51 328.51,-264.26 323.88,-269.51"/>
</g>
<!-- Node15 -->
<g id="node15" class="node">
<title>Node15</title>
<g id="a_node15"><a xlink:href="_reg_accessor_8hpp.html" target="_top" xlink:title=" ">
<polygon fill="white" stroke="#666666" points="465.5,-239 372.5,-239 372.5,-220 465.5,-220 465.5,-239"/>
<text text-anchor="middle" x="419" y="-227" font-family="Helvetica,sans-Serif" font-size="10.00">RegAccessor.hpp</text>
</a>
</g>
</g>
<!-- Node13&#45;&gt;Node15 -->
<g id="edge14" class="edge">
<title>Node13&#45;&gt;Node15</title>
<path fill="none" stroke="#63b8ff" d="M366.76,-267.92C379.75,-258.61 395.78,-247.13 406.63,-239.36"/>
<polygon fill="#63b8ff" stroke="#63b8ff" points="364.88,-264.96 358.78,-273.63 368.95,-270.65 364.88,-264.96"/>
</g>
<!-- Node16 -->
<g id="node16" class="node">
<title>Node16</title>
<g id="a_node16"><a xlink:href="_uio_axi_dma_if_8hpp.html" target="_top" xlink:title=" ">
<polygon fill="white" stroke="#666666" points="577.5,-184 488.5,-184 488.5,-165 577.5,-165 577.5,-184"/>
<text text-anchor="middle" x="533" y="-172" font-family="Helvetica,sans-Serif" font-size="10.00">UioAxiDmaIf.hpp</text>
</a>
</g>
</g>
<!-- Node13&#45;&gt;Node16 -->
<g id="edge22" class="edge">
<title>Node13&#45;&gt;Node16</title>
<path fill="none" stroke="#63b8ff" d="M384.21,-274.81C460.18,-261.86 503.45,-295.42 549,-239 562,-222.9 548.43,-197.6 539.5,-184.31"/>
<polygon fill="#63b8ff" stroke="#63b8ff" points="383.89,-271.31 374.76,-276.67 385.25,-278.18 383.89,-271.31"/>
</g>
<!-- Node20 -->
<g id="node20" class="node">
<title>Node20</title>
<g id="a_node20"><a xlink:href="_uio_if_8cpp.html" target="_top" xlink:title=" ">
<polygon fill="white" stroke="#666666" points="540,-239 484,-239 484,-220 540,-220 540,-239"/>
<text text-anchor="middle" x="512" y="-227" font-family="Helvetica,sans-Serif" font-size="10.00">UioIf.cpp</text>
</a>
</g>
</g>
<!-- Node13&#45;&gt;Node20 -->
<g id="edge24" class="edge">
<title>Node13&#45;&gt;Node20</title>
<path fill="none" stroke="#63b8ff" d="M384.04,-271.11C414.62,-261.41 456.43,-248.14 483.81,-239.45"/>
<polygon fill="#63b8ff" stroke="#63b8ff" points="383.24,-267.69 374.77,-274.05 385.36,-274.36 383.24,-267.69"/>
</g>
<!-- Node15&#45;&gt;Node8 -->
<g id="edge18" class="edge">
<title>Node15&#45;&gt;Node8</title>
<path fill="none" stroke="#63b8ff" d="M365.61,-217.18C319.48,-207.4 253.72,-193.46 211.2,-184.45"/>
<polygon fill="#63b8ff" stroke="#63b8ff" points="364.6,-220.55 375.11,-219.2 366.05,-213.7 364.6,-220.55"/>
</g>
<!-- Node15&#45;&gt;Node16 -->
<g id="edge15" class="edge">
<title>Node15&#45;&gt;Node16</title>
<path fill="none" stroke="#63b8ff" d="M448.76,-214.67C469.36,-205.09 496.17,-192.62 513.95,-184.36"/>
<polygon fill="#63b8ff" stroke="#63b8ff" points="447.3,-211.48 439.71,-218.87 450.25,-217.83 447.3,-211.48"/>
</g>
<!-- Node18 -->
<g id="node18" class="node">
<title>Node18</title>
<g id="a_node18"><a xlink:href="_uio_mem_sgdma_8hpp.html" target="_top" xlink:title=" ">
<polygon fill="white" stroke="#666666" points="470,-184 368,-184 368,-165 470,-165 470,-184"/>
<text text-anchor="middle" x="419" y="-172" font-family="Helvetica,sans-Serif" font-size="10.00">UioMemSgdma.hpp</text>
</a>
</g>
</g>
<!-- Node15&#45;&gt;Node18 -->
<g id="edge19" class="edge">
<title>Node15&#45;&gt;Node18</title>
<path fill="none" stroke="#63b8ff" d="M419,-208.35C419,-200.1 419,-190.97 419,-184.44"/>
<polygon fill="#63b8ff" stroke="#63b8ff" points="415.5,-208.23 419,-218.23 422.5,-208.23 415.5,-208.23"/>
</g>
<!-- Node16&#45;&gt;Node2 -->
<g id="edge16" class="edge">
<title>Node16&#45;&gt;Node2</title>
<path fill="none" stroke="#63b8ff" d="M559.84,-159.13C577.59,-149.63 600.3,-137.47 615.45,-129.36"/>
<polygon fill="#63b8ff" stroke="#63b8ff" points="558.29,-155.99 551.13,-163.79 561.6,-162.16 558.29,-155.99"/>
</g>
<!-- Node17 -->
<g id="node17" class="node">
<title>Node17</title>
<g id="a_node17"><a xlink:href="_uio_axi_dma_if_8cpp.html" target="_top" xlink:title=" ">
<polygon fill="white" stroke="#666666" points="551.5,-129 462.5,-129 462.5,-110 551.5,-110 551.5,-129"/>
<text text-anchor="middle" x="507" y="-117" font-family="Helvetica,sans-Serif" font-size="10.00">UioAxiDmaIf.cpp</text>
</a>
</g>
</g>
<!-- Node16&#45;&gt;Node17 -->
<g id="edge17" class="edge">
<title>Node16&#45;&gt;Node17</title>
<path fill="none" stroke="#63b8ff" d="M523.68,-154.5C519.49,-145.96 514.74,-136.28 511.39,-129.44"/>
<polygon fill="#63b8ff" stroke="#63b8ff" points="520.49,-155.95 528.04,-163.39 526.78,-152.87 520.49,-155.95"/>
</g>
<!-- Node18&#45;&gt;Node2 -->
<g id="edge20" class="edge">
<title>Node18&#45;&gt;Node2</title>
<path fill="none" stroke="#63b8ff" d="M466.25,-161.74C505.45,-151.99 560.35,-138.33 596.05,-129.45"/>
<polygon fill="#63b8ff" stroke="#63b8ff" points="465.46,-158.33 456.6,-164.14 467.15,-165.13 465.46,-158.33"/>
</g>
<!-- Node19 -->
<g id="node19" class="node">
<title>Node19</title>
<g id="a_node19"><a xlink:href="_uio_mem_sgdma_8cpp.html" target="_top" xlink:title=" ">
<polygon fill="white" stroke="#666666" points="444,-129 342,-129 342,-110 444,-110 444,-129"/>
<text text-anchor="middle" x="393" y="-117" font-family="Helvetica,sans-Serif" font-size="10.00">UioMemSgdma.cpp</text>
</a>
</g>
</g>
<!-- Node18&#45;&gt;Node19 -->
<g id="edge21" class="edge">
<title>Node18&#45;&gt;Node19</title>
<path fill="none" stroke="#63b8ff" d="M409.68,-154.5C405.49,-145.96 400.74,-136.28 397.39,-129.44"/>
<polygon fill="#63b8ff" stroke="#63b8ff" points="406.49,-155.95 414.04,-163.39 412.78,-152.87 406.49,-155.95"/>
</g>
<!-- Node22&#45;&gt;Node2 -->
<g id="edge27" class="edge">
<title>Node22&#45;&gt;Node2</title>
<path fill="none" stroke="#63b8ff" d="M572.07,-320.55C577.3,-312.71 583.02,-303.21 587,-294 612.91,-234.01 626.59,-155.69 630.67,-129.48"/>
<polygon fill="#63b8ff" stroke="#63b8ff" points="569.37,-318.3 566.52,-328.51 575.11,-322.31 569.37,-318.3"/>
</g>
<!-- Node23 -->
<g id="node23" class="node">
<title>Node23</title>
<g id="a_node23"><a xlink:href="_u_dma_buf_8cpp.html" target="_top" xlink:title=" ">
<polygon fill="white" stroke="#666666" points="711.5,-294 634.5,-294 634.5,-275 711.5,-275 711.5,-294"/>
<text text-anchor="middle" x="673" y="-282" font-family="Helvetica,sans-Serif" font-size="10.00">UDmaBuf.cpp</text>
</a>
</g>
</g>
<!-- Node22&#45;&gt;Node23 -->
<g id="edge28" class="edge">
<title>Node22&#45;&gt;Node23</title>
<path fill="none" stroke="#63b8ff" d="M588.76,-324.67C609.36,-315.09 636.17,-302.62 653.95,-294.36"/>
<polygon fill="#63b8ff" stroke="#63b8ff" points="587.3,-321.48 579.71,-328.87 590.25,-327.83 587.3,-321.48"/>
</g>
</g>
</svg>
