<?xml version="1.0" encoding="UTF-8" standalone="no"?>
<!DOCTYPE svg PUBLIC "-//W3C//DTD SVG 1.1//EN"
 "http://www.w3.org/Graphics/SVG/1.1/DTD/svg11.dtd">
<!-- Generated by graphviz version 7.0.5 (20221223.1930)
 -->
<!-- Title: Logging.hpp Pages: 1 -->
<!--zoomable 357 -->
<svg id="main" version="1.1" xmlns="http://www.w3.org/2000/svg" xmlns:xlink="http://www.w3.org/1999/xlink" xml:space="preserve" onload="init(evt)">
<style type="text/css"><![CDATA[
.edge:hover path { stroke: red; }
.edge:hover polygon { stroke: red; fill: red; }
]]></style>
<script type="text/javascript"><![CDATA[
var edges = document.getElementsByTagName('g');
if (edges && edges.length) {
  for (var i=0;i<edges.length;i++) {
    if (edges[i].id.substr(0,4)=='edge') {
      edges[i].setAttribute('class','edge');
    }
  }
}
]]></script>
        <defs>
                <circle id="rim" cx="0" cy="0" r="7"/>
                <circle id="rim2" cx="0" cy="0" r="3.5"/>
                <g id="zoomPlus">
                        <use xlink:href="#rim" fill="#404040">
                                <set attributeName="fill" to="#808080" begin="zoomplus.mouseover" end="zoomplus.mouseout"/>
                        </use>
                        <path d="M-4,0h8M0,-4v8" fill="none" stroke="white" stroke-width="1.5" pointer-events="none"/>
                </g>
                <g id="zoomMin">
                        <use xlink:href="#rim" fill="#404040">
                                <set attributeName="fill" to="#808080" begin="zoomminus.mouseover" end="zoomminus.mouseout"/>
                        </use>
                        <path d="M-4,0h8" fill="none" stroke="white" stroke-width="1.5" pointer-events="none"/>
                </g>
                <g id="dirArrow">
                        <path fill="none" stroke="white" stroke-width="1.5" d="M0,-3.0v7 M-2.5,-0.5L0,-3.0L2.5,-0.5"/>
                </g>
               <g id="resetDef">
                       <use xlink:href="#rim2" fill="#404040">
                               <set attributeName="fill" to="#808080" begin="reset.mouseover" end="reset.mouseout"/>
                       </use>
               </g>
        </defs>

<script type="text/javascript">
var viewWidth = 534;
var viewHeight = 357;
var sectionId = 'dynsection-1';
</script>
<script xlink:href="svgpan.js"/>
<svg id="graph" class="graph">
<g id="viewport">
<title>Logging.hpp</title>
<!-- Node1 -->
<g id="node1" class="node">
<title>Node1</title>
<g id="a_node1"><a xlink:title=" ">
<polygon fill="#999999" stroke="#666666" points="234,-349 165,-349 165,-330 234,-330 234,-349"/>
<text text-anchor="middle" x="199.5" y="-337" font-family="Helvetica,sans-Serif" font-size="10.00">Logging.hpp</text>
</a>
</g>
</g>
<!-- Node2 -->
<g id="node2" class="node">
<title>Node2</title>
<g id="a_node2"><a xlink:href="_data_handler_abstract_8hpp.html" target="_top" xlink:title=" ">
<polygon fill="white" stroke="#666666" points="193,-129 68,-129 68,-110 193,-110 193,-129"/>
<text text-anchor="middle" x="130.5" y="-117" font-family="Helvetica,sans-Serif" font-size="10.00">DataHandlerAbstract.hpp</text>
</a>
</g>
</g>
<!-- Node1&#45;&gt;Node2 -->
<g id="edge1" class="edge">
<title>Node1&#45;&gt;Node2</title>
<path fill="none" stroke="#63b8ff" d="M157.1,-325.98C118.45,-311.92 64.19,-284.86 42.5,-239 21.03,-193.6 84.02,-148.25 114.73,-129.49"/>
<polygon fill="#63b8ff" stroke="#63b8ff" points="155.52,-329.13 166.12,-329.1 157.82,-322.52 155.52,-329.13"/>
</g>
<!-- Node6 -->
<g id="node6" class="node">
<title>Node6</title>
<g id="a_node6"><a xlink:href="_logging_8cpp.html" target="_top" xlink:title=" ">
<polygon fill="white" stroke="#666666" points="420,-294 351,-294 351,-275 420,-275 420,-294"/>
<text text-anchor="middle" x="385.5" y="-282" font-family="Helvetica,sans-Serif" font-size="10.00">Logging.cpp</text>
</a>
</g>
</g>
<!-- Node1&#45;&gt;Node6 -->
<g id="edge5" class="edge">
<title>Node1&#45;&gt;Node6</title>
<path fill="none" stroke="#63b8ff" d="M242.09,-326.36C276.22,-316.64 323.34,-303.21 354.1,-294.45"/>
<polygon fill="#63b8ff" stroke="#63b8ff" points="241.17,-322.99 232.51,-329.09 243.08,-329.72 241.17,-322.99"/>
</g>
<!-- Node7 -->
<g id="node7" class="node">
<title>Node7</title>
<g id="a_node7"><a xlink:href="_u_dma_buf_8hpp.html" target="_top" xlink:title=" ">
<polygon fill="white" stroke="#666666" points="196,-294 119,-294 119,-275 196,-275 196,-294"/>
<text text-anchor="middle" x="157.5" y="-282" font-family="Helvetica,sans-Serif" font-size="10.00">UDmaBuf.hpp</text>
</a>
</g>
</g>
<!-- Node1&#45;&gt;Node7 -->
<g id="edge6" class="edge">
<title>Node1&#45;&gt;Node7</title>
<path fill="none" stroke="#63b8ff" d="M185.58,-320.93C178.54,-312.06 170.31,-301.67 164.59,-294.44"/>
<polygon fill="#63b8ff" stroke="#63b8ff" points="182.67,-322.9 191.62,-328.56 188.16,-318.55 182.67,-322.9"/>
</g>
<!-- Node9 -->
<g id="node9" class="node">
<title>Node9</title>
<g id="a_node9"><a xlink:href="_uio_if_8hpp.html" target="_top" xlink:title=" ">
<polygon fill="white" stroke="#666666" points="332.5,-294 276.5,-294 276.5,-275 332.5,-275 332.5,-294"/>
<text text-anchor="middle" x="304.5" y="-282" font-family="Helvetica,sans-Serif" font-size="10.00">UioIf.hpp</text>
</a>
</g>
</g>
<!-- Node1&#45;&gt;Node9 -->
<g id="edge9" class="edge">
<title>Node1&#45;&gt;Node9</title>
<path fill="none" stroke="#63b8ff" d="M227.43,-324.4C246.34,-314.86 270.72,-302.55 286.95,-294.36"/>
<polygon fill="#63b8ff" stroke="#63b8ff" points="226.01,-321.2 218.66,-328.83 229.17,-327.45 226.01,-321.2"/>
</g>
<!-- Node3 -->
<g id="node3" class="node">
<title>Node3</title>
<g id="a_node3"><a xlink:href="_data_handler_abstract_8cpp.html" target="_top" xlink:title=" ">
<polygon fill="white" stroke="#666666" points="125,-74 0,-74 0,-55 125,-55 125,-74"/>
<text text-anchor="middle" x="62.5" y="-62" font-family="Helvetica,sans-Serif" font-size="10.00">DataHandlerAbstract.cpp</text>
</a>
</g>
</g>
<!-- Node2&#45;&gt;Node3 -->
<g id="edge2" class="edge">
<title>Node2&#45;&gt;Node3</title>
<path fill="none" stroke="#63b8ff" d="M110.15,-102.64C98.28,-93.39 83.74,-82.05 73.86,-74.36"/>
<polygon fill="#63b8ff" stroke="#63b8ff" points="107.73,-105.19 117.77,-108.58 112.04,-99.67 107.73,-105.19"/>
</g>
<!-- Node4 -->
<g id="node4" class="node">
<title>Node4</title>
<g id="a_node4"><a xlink:href="_data_handler_sync_8hpp.html" target="_top" xlink:title=" ">
<polygon fill="white" stroke="#666666" points="253.5,-74 143.5,-74 143.5,-55 253.5,-55 253.5,-74"/>
<text text-anchor="middle" x="198.5" y="-62" font-family="Helvetica,sans-Serif" font-size="10.00">DataHandlerSync.hpp</text>
</a>
</g>
</g>
<!-- Node2&#45;&gt;Node4 -->
<g id="edge3" class="edge">
<title>Node2&#45;&gt;Node4</title>
<path fill="none" stroke="#63b8ff" d="M150.85,-102.64C162.72,-93.39 177.26,-82.05 187.14,-74.36"/>
<polygon fill="#63b8ff" stroke="#63b8ff" points="148.96,-99.67 143.23,-108.58 153.27,-105.19 148.96,-99.67"/>
</g>
<!-- Node5 -->
<g id="node5" class="node">
<title>Node5</title>
<g id="a_node5"><a xlink:href="_data_handler_sync_8cpp.html" target="_top" xlink:title=" ">
<polygon fill="white" stroke="#666666" points="253.5,-19 143.5,-19 143.5,0 253.5,0 253.5,-19"/>
<text text-anchor="middle" x="198.5" y="-7" font-family="Helvetica,sans-Serif" font-size="10.00">DataHandlerSync.cpp</text>
</a>
</g>
</g>
<!-- Node4&#45;&gt;Node5 -->
<g id="edge4" class="edge">
<title>Node4&#45;&gt;Node5</title>
<path fill="none" stroke="#63b8ff" d="M198.5,-43.35C198.5,-35.1 198.5,-25.97 198.5,-19.44"/>
<polygon fill="#63b8ff" stroke="#63b8ff" points="195,-43.23 198.5,-53.23 202,-43.23 195,-43.23"/>
</g>
<!-- Node7&#45;&gt;Node2 -->
<g id="edge7" class="edge">
<title>Node7&#45;&gt;Node2</title>
<path fill="none" stroke="#63b8ff" d="M154.18,-263.44C148.26,-227.74 136.14,-154.57 131.96,-129.31"/>
<polygon fill="#63b8ff" stroke="#63b8ff" points="150.71,-263.95 155.8,-273.24 157.62,-262.81 150.71,-263.95"/>
</g>
<!-- Node8 -->
<g id="node8" class="node">
<title>Node8</title>
<g id="a_node8"><a xlink:href="_u_dma_buf_8cpp.html" target="_top" xlink:title=" ">
<polygon fill="white" stroke="#666666" points="129,-239 52,-239 52,-220 129,-220 129,-239"/>
<text text-anchor="middle" x="90.5" y="-227" font-family="Helvetica,sans-Serif" font-size="10.00">UDmaBuf.cpp</text>
</a>
</g>
</g>
<!-- Node7&#45;&gt;Node8 -->
<g id="edge8" class="edge">
<title>Node7&#45;&gt;Node8</title>
<path fill="none" stroke="#63b8ff" d="M137.45,-267.64C125.75,-258.39 111.43,-247.05 101.7,-239.36"/>
<polygon fill="#63b8ff" stroke="#63b8ff" points="134.93,-270.11 144.95,-273.57 139.28,-264.62 134.93,-270.11"/>
</g>
<!-- Node10 -->
<g id="node10" class="node">
<title>Node10</title>
<g id="a_node10"><a xlink:href="_fpga_mem_buffer_over_axi_8hpp.html" target="_top" xlink:title=" ">
<polygon fill="white" stroke="#666666" points="435.5,-239 297.5,-239 297.5,-220 435.5,-220 435.5,-239"/>
<text text-anchor="middle" x="366.5" y="-227" font-family="Helvetica,sans-Serif" font-size="10.00">FpgaMemBufferOverAxi.hpp</text>
</a>
</g>
</g>
<!-- Node9&#45;&gt;Node10 -->
<g id="edge10" class="edge">
<title>Node9&#45;&gt;Node10</title>
<path fill="none" stroke="#63b8ff" d="M323.7,-267.09C334.4,-257.94 347.31,-246.9 356.14,-239.36"/>
<polygon fill="#63b8ff" stroke="#63b8ff" points="321.49,-264.37 316.17,-273.53 326.04,-269.69 321.49,-264.37"/>
</g>
<!-- Node11 -->
<g id="node11" class="node">
<title>Node11</title>
<g id="a_node11"><a xlink:href="_reg_accessor_8hpp.html" target="_top" xlink:title=" ">
<polygon fill="white" stroke="#666666" points="279,-239 186,-239 186,-220 279,-220 279,-239"/>
<text text-anchor="middle" x="232.5" y="-227" font-family="Helvetica,sans-Serif" font-size="10.00">RegAccessor.hpp</text>
</a>
</g>
</g>
<!-- Node9&#45;&gt;Node11 -->
<g id="edge11" class="edge">
<title>Node9&#45;&gt;Node11</title>
<path fill="none" stroke="#63b8ff" d="M283.33,-267.92C270.69,-258.61 255.09,-247.13 244.53,-239.36"/>
<polygon fill="#63b8ff" stroke="#63b8ff" points="280.94,-270.5 291.07,-273.61 285.09,-264.87 280.94,-270.5"/>
</g>
<!-- Node12 -->
<g id="node12" class="node">
<title>Node12</title>
<g id="a_node12"><a xlink:href="_uio_axi_dma_if_8hpp.html" target="_top" xlink:title=" ">
<polygon fill="white" stroke="#666666" points="408,-184 319,-184 319,-165 408,-165 408,-184"/>
<text text-anchor="middle" x="363.5" y="-172" font-family="Helvetica,sans-Serif" font-size="10.00">UioAxiDmaIf.hpp</text>
</a>
</g>
</g>
<!-- Node9&#45;&gt;Node12 -->
<g id="edge18" class="edge">
<title>Node9&#45;&gt;Node12</title>
<path fill="none" stroke="#63b8ff" d="M343.81,-275.03C424.66,-261.75 470.19,-298.2 518.5,-239 550.95,-199.24 464.98,-184.12 408.45,-178.56"/>
<polygon fill="#63b8ff" stroke="#63b8ff" points="343.37,-271.55 334.2,-276.85 344.67,-278.43 343.37,-271.55"/>
</g>
<!-- Node16 -->
<g id="node16" class="node">
<title>Node16</title>
<g id="a_node16"><a xlink:href="_uio_if_8cpp.html" target="_top" xlink:title=" ">
<polygon fill="white" stroke="#666666" points="509.5,-239 453.5,-239 453.5,-220 509.5,-220 509.5,-239"/>
<text text-anchor="middle" x="481.5" y="-227" font-family="Helvetica,sans-Serif" font-size="10.00">UioIf.cpp</text>
</a>
</g>
</g>
<!-- Node9&#45;&gt;Node16 -->
<g id="edge19" class="edge">
<title>Node9&#45;&gt;Node16</title>
<path fill="none" stroke="#63b8ff" d="M343.61,-271.79C376.75,-261.87 423.48,-247.87 453.13,-238.99"/>
<polygon fill="#63b8ff" stroke="#63b8ff" points="342.96,-268.33 334.39,-274.55 344.97,-275.03 342.96,-268.33"/>
</g>
<!-- Node11&#45;&gt;Node12 -->
<g id="edge12" class="edge">
<title>Node11&#45;&gt;Node12</title>
<path fill="none" stroke="#63b8ff" d="M265.39,-215.19C289.23,-205.55 320.8,-192.78 341.61,-184.36"/>
<polygon fill="#63b8ff" stroke="#63b8ff" points="264.08,-211.95 256.13,-218.94 266.71,-218.44 264.08,-211.95"/>
</g>
<!-- Node14 -->
<g id="node14" class="node">
<title>Node14</title>
<g id="a_node14"><a xlink:href="_uio_mem_sgdma_8hpp.html" target="_top" xlink:title=" ">
<polygon fill="white" stroke="#666666" points="287.5,-184 185.5,-184 185.5,-165 287.5,-165 287.5,-184"/>
<text text-anchor="middle" x="236.5" y="-172" font-family="Helvetica,sans-Serif" font-size="10.00">UioMemSgdma.hpp</text>
</a>
</g>
</g>
<!-- Node11&#45;&gt;Node14 -->
<g id="edge15" class="edge">
<title>Node11&#45;&gt;Node14</title>
<path fill="none" stroke="#63b8ff" d="M234.02,-208.35C234.64,-200.1 235.33,-190.97 235.83,-184.44"/>
<polygon fill="#63b8ff" stroke="#63b8ff" points="230.54,-208 233.27,-218.24 237.52,-208.53 230.54,-208"/>
</g>
<!-- Node12&#45;&gt;Node2 -->
<g id="edge13" class="edge">
<title>Node12&#45;&gt;Node2</title>
<path fill="none" stroke="#63b8ff" d="M312.92,-161.99C269.97,-152.22 209.21,-138.4 169.83,-129.45"/>
<polygon fill="#63b8ff" stroke="#63b8ff" points="311.97,-165.37 322.5,-164.17 313.52,-158.54 311.97,-165.37"/>
</g>
<!-- Node13 -->
<g id="node13" class="node">
<title>Node13</title>
<g id="a_node13"><a xlink:href="_uio_axi_dma_if_8cpp.html" target="_top" xlink:title=" ">
<polygon fill="white" stroke="#666666" points="421,-129 332,-129 332,-110 421,-110 421,-129"/>
<text text-anchor="middle" x="376.5" y="-117" font-family="Helvetica,sans-Serif" font-size="10.00">UioAxiDmaIf.cpp</text>
</a>
</g>
</g>
<!-- Node12&#45;&gt;Node13 -->
<g id="edge14" class="edge">
<title>Node12&#45;&gt;Node13</title>
<path fill="none" stroke="#63b8ff" d="M368.37,-153.64C370.41,-145.31 372.69,-136.05 374.31,-129.44"/>
<polygon fill="#63b8ff" stroke="#63b8ff" points="364.99,-152.73 366.01,-163.28 371.79,-154.4 364.99,-152.73"/>
</g>
<!-- Node14&#45;&gt;Node2 -->
<g id="edge16" class="edge">
<title>Node14&#45;&gt;Node2</title>
<path fill="none" stroke="#63b8ff" d="M208.3,-159.4C189.22,-149.86 164.6,-137.55 148.22,-129.36"/>
<polygon fill="#63b8ff" stroke="#63b8ff" points="206.66,-162.49 217.16,-163.83 209.79,-156.23 206.66,-162.49"/>
</g>
<!-- Node15 -->
<g id="node15" class="node">
<title>Node15</title>
<g id="a_node15"><a xlink:href="_uio_mem_sgdma_8cpp.html" target="_top" xlink:title=" ">
<polygon fill="white" stroke="#666666" points="313.5,-129 211.5,-129 211.5,-110 313.5,-110 313.5,-129"/>
<text text-anchor="middle" x="262.5" y="-117" font-family="Helvetica,sans-Serif" font-size="10.00">UioMemSgdma.cpp</text>
</a>
</g>
</g>
<!-- Node14&#45;&gt;Node15 -->
<g id="edge17" class="edge">
<title>Node14&#45;&gt;Node15</title>
<path fill="none" stroke="#63b8ff" d="M245.82,-154.5C250.01,-145.96 254.76,-136.28 258.11,-129.44"/>
<polygon fill="#63b8ff" stroke="#63b8ff" points="242.72,-152.87 241.46,-163.39 249.01,-155.95 242.72,-152.87"/>
</g>
</g>
</svg>
        <g id="navigator" transform="translate(0 0)" fill="#404254">
                <rect fill="#f2f5e9" fill-opacity="0.5" stroke="#606060" stroke-width=".5" x="0" y="0" width="60" height="60"/>
                <use id="zoomplus" xlink:href="#zoomPlus" x="17" y="9" onmousedown="handleZoom(evt,'in')"/>
                <use id="zoomminus" xlink:href="#zoomMin" x="42" y="9" onmousedown="handleZoom(evt,'out')"/>
                <use id="reset" xlink:href="#resetDef" x="30" y="36" onmousedown="handleReset()"/>
                <g id="arrowUp" xlink:href="#dirArrow" transform="translate(30 24)" onmousedown="handlePan(0,-1)">
                  <use xlink:href="#rim" fill="#404040">
                        <set attributeName="fill" to="#808080" begin="arrowUp.mouseover" end="arrowUp.mouseout"/>
                  </use>
                  <path fill="none" stroke="white" stroke-width="1.5" d="M0,-3.0v7 M-2.5,-0.5L0,-3.0L2.5,-0.5"/>
                </g>
                <g id="arrowRight" xlink:href="#dirArrow" transform="rotate(90) translate(36 -43)" onmousedown="handlePan(1,0)">
                  <use xlink:href="#rim" fill="#404040">
                        <set attributeName="fill" to="#808080" begin="arrowRight.mouseover" end="arrowRight.mouseout"/>
                  </use>
                  <path fill="none" stroke="white" stroke-width="1.5" d="M0,-3.0v7 M-2.5,-0.5L0,-3.0L2.5,-0.5"/>
                </g>
                <g id="arrowDown" xlink:href="#dirArrow" transform="rotate(180) translate(-30 -48)" onmousedown="handlePan(0,1)">
                  <use xlink:href="#rim" fill="#404040">
                        <set attributeName="fill" to="#808080" begin="arrowDown.mouseover" end="arrowDown.mouseout"/>
                  </use>
                  <path fill="none" stroke="white" stroke-width="1.5" d="M0,-3.0v7 M-2.5,-0.5L0,-3.0L2.5,-0.5"/>
                </g>
                <g id="arrowLeft" xlink:href="#dirArrow" transform="rotate(270) translate(-36 17)" onmousedown="handlePan(-1,0)">
                  <use xlink:href="#rim" fill="#404040">
                        <set attributeName="fill" to="#808080" begin="arrowLeft.mouseover" end="arrowLeft.mouseout"/>
                  </use>
                  <path fill="none" stroke="white" stroke-width="1.5" d="M0,-3.0v7 M-2.5,-0.5L0,-3.0L2.5,-0.5"/>
                </g>
        </g>
        <svg viewBox="0 0 15 15" width="100%" height="30px" preserveAspectRatio="xMaxYMin meet">
         <g id="arrow_out" transform="scale(0.3 0.3)">
          <a xlink:href="_logging_8hpp__dep__incl_org.svg" target="_base">
           <rect id="button" ry="5" rx="5" y="6" x="6" height="38" width="38"
                fill="#f2f5e9" fill-opacity="0.5" stroke="#606060" stroke-width="1.0"/>
           <path id="arrow"
             d="M 11.500037,31.436501 C 11.940474,20.09759 22.043105,11.32322 32.158766,21.979434 L 37.068811,17.246167 C 37.068811,17.246167 37.088388,32 37.088388,32 L 22.160133,31.978069 C 22.160133,31.978069 26.997745,27.140456 26.997745,27.140456 C 18.528582,18.264221 13.291696,25.230495 11.500037,31.436501 z"
             style="fill:#404040;"/>
          </a>
         </g>
        </svg>
</svg>
