<?xml version="1.0" encoding="UTF-8" standalone="no"?>
<!DOCTYPE svg PUBLIC "-//W3C//DTD SVG 1.1//EN"
 "http://www.w3.org/Graphics/SVG/1.1/DTD/svg11.dtd">
<!-- Generated by graphviz version 7.0.5 (20221223.1930)
 -->
<!-- Title: Logging.hpp Pages: 1 -->
<svg width="976pt" height="93pt"
 viewBox="0.00 0.00 976.00 93.00" xmlns="http://www.w3.org/2000/svg" xmlns:xlink="http://www.w3.org/1999/xlink">
<g id="graph0" class="graph" transform="scale(1 1) rotate(0) translate(4 89)">
<title>Logging.hpp</title>
<!-- Node1 -->
<g id="node1" class="node">
<title>Node1</title>
<g id="a_node1"><a xlink:title=" ">
<polygon fill="#999999" stroke="#666666" points="467,-85 398,-85 398,-66 467,-66 467,-85"/>
<text text-anchor="middle" x="432.5" y="-73" font-family="Helvetica,sans-Serif" font-size="10.00">Logging.hpp</text>
</a>
</g>
</g>
<!-- Node2 -->
<g id="node2" class="node">
<title>Node2</title>
<g id="a_node2"><a xlink:title=" ">
<polygon fill="#e0e0e0" stroke="#999999" points="41,-24.5 0,-24.5 0,-5.5 41,-5.5 41,-24.5"/>
<text text-anchor="middle" x="20.5" y="-12.5" font-family="Helvetica,sans-Serif" font-size="10.00">string</text>
</a>
</g>
</g>
<!-- Node1&#45;&gt;Node2 -->
<g id="edge1" class="edge">
<title>Node1&#45;&gt;Node2</title>
<path fill="none" stroke="#63b8ff" d="M397.54,-74.14C329.44,-72.63 174.8,-65.24 50.5,-30 49.53,-29.73 48.56,-29.42 47.58,-29.1"/>
<polygon fill="#63b8ff" stroke="#63b8ff" points="49.26,-26 38.67,-25.54 46.66,-32.5 49.26,-26"/>
</g>
<!-- Node3 -->
<g id="node3" class="node">
<title>Node3</title>
<g id="a_node3"><a xlink:title=" ">
<polygon fill="#e0e0e0" stroke="#999999" points="155.5,-24.5 59.5,-24.5 59.5,-5.5 155.5,-5.5 155.5,-24.5"/>
<text text-anchor="middle" x="107.5" y="-12.5" font-family="Helvetica,sans-Serif" font-size="10.00">boost/log/core.hpp</text>
</a>
</g>
</g>
<!-- Node1&#45;&gt;Node3 -->
<g id="edge2" class="edge">
<title>Node1&#45;&gt;Node3</title>
<path fill="none" stroke="#63b8ff" d="M397.65,-69.58C346.37,-62.15 247.66,-47.09 164.5,-30 160.74,-29.23 156.86,-28.38 152.97,-27.5"/>
<polygon fill="#63b8ff" stroke="#63b8ff" points="154.08,-24.16 143.54,-25.28 152.48,-30.98 154.08,-24.16"/>
</g>
<!-- Node4 -->
<g id="node4" class="node">
<title>Node4</title>
<g id="a_node4"><a xlink:title=" ">
<polygon fill="#e0e0e0" stroke="#999999" points="303,-24.5 174,-24.5 174,-5.5 303,-5.5 303,-24.5"/>
<text text-anchor="middle" x="238.5" y="-12.5" font-family="Helvetica,sans-Serif" font-size="10.00">boost/log/expressions.hpp</text>
</a>
</g>
</g>
<!-- Node1&#45;&gt;Node4 -->
<g id="edge3" class="edge">
<title>Node1&#45;&gt;Node4</title>
<path fill="none" stroke="#63b8ff" d="M403.04,-65.62C369.99,-55.65 316.19,-39.43 279.15,-28.26"/>
<polygon fill="#63b8ff" stroke="#63b8ff" points="280.28,-24.94 269.69,-25.41 278.25,-31.64 280.28,-24.94"/>
</g>
<!-- Node5 -->
<g id="node5" class="node">
<title>Node5</title>
<g id="a_node5"><a xlink:title=" ">
<polygon fill="#e0e0e0" stroke="#999999" points="422,-24.5 321,-24.5 321,-5.5 422,-5.5 422,-24.5"/>
<text text-anchor="middle" x="371.5" y="-12.5" font-family="Helvetica,sans-Serif" font-size="10.00">boost/log/trivial.hpp</text>
</a>
</g>
</g>
<!-- Node1&#45;&gt;Node5 -->
<g id="edge4" class="edge">
<title>Node1&#45;&gt;Node5</title>
<path fill="none" stroke="#63b8ff" d="M423.24,-65.62C414.19,-56.94 400.19,-43.52 389.04,-32.82"/>
<polygon fill="#63b8ff" stroke="#63b8ff" points="391.58,-30.41 381.94,-26.02 386.74,-35.46 391.58,-30.41"/>
</g>
<!-- Node6 -->
<g id="node6" class="node">
<title>Node6</title>
<g id="a_node6"><a xlink:title=" ">
<polygon fill="#e0e0e0" stroke="#999999" points="549,-30 440,-30 440,0 549,0 549,-30"/>
<text text-anchor="start" x="448" y="-18" font-family="Helvetica,sans-Serif" font-size="10.00">boost/log/utility/setup</text>
<text text-anchor="middle" x="494.5" y="-7" font-family="Helvetica,sans-Serif" font-size="10.00">/console.hpp</text>
</a>
</g>
</g>
<!-- Node1&#45;&gt;Node6 -->
<g id="edge5" class="edge">
<title>Node1&#45;&gt;Node6</title>
<path fill="none" stroke="#63b8ff" d="M441.92,-65.62C449.64,-58.32 460.92,-47.68 471.06,-38.12"/>
<polygon fill="#63b8ff" stroke="#63b8ff" points="473.22,-40.89 478.1,-31.48 468.42,-35.8 473.22,-40.89"/>
</g>
<!-- Node7 -->
<g id="node7" class="node">
<title>Node7</title>
<g id="a_node7"><a xlink:title=" ">
<polygon fill="#e0e0e0" stroke="#999999" points="698,-30 567,-30 567,0 698,0 698,-30"/>
<text text-anchor="start" x="575" y="-18" font-family="Helvetica,sans-Serif" font-size="10.00">boost/log/sources/severity</text>
<text text-anchor="middle" x="632.5" y="-7" font-family="Helvetica,sans-Serif" font-size="10.00">_channel_logger.hpp</text>
</a>
</g>
</g>
<!-- Node1&#45;&gt;Node7 -->
<g id="edge6" class="edge">
<title>Node1&#45;&gt;Node7</title>
<path fill="none" stroke="#63b8ff" d="M462.88,-65.62C491.79,-57.16 536.13,-44.19 572.22,-33.63"/>
<polygon fill="#63b8ff" stroke="#63b8ff" points="573.07,-37.03 581.68,-30.86 571.1,-30.31 573.07,-37.03"/>
</g>
<!-- Node8 -->
<g id="node8" class="node">
<title>Node8</title>
<g id="a_node8"><a xlink:title=" ">
<polygon fill="#e0e0e0" stroke="#999999" points="829,-30 716,-30 716,0 829,0 829,-30"/>
<text text-anchor="start" x="724" y="-18" font-family="Helvetica,sans-Serif" font-size="10.00">boost/log/support/date</text>
<text text-anchor="middle" x="772.5" y="-7" font-family="Helvetica,sans-Serif" font-size="10.00">_time.hpp</text>
</a>
</g>
</g>
<!-- Node1&#45;&gt;Node8 -->
<g id="edge7" class="edge">
<title>Node1&#45;&gt;Node8</title>
<path fill="none" stroke="#63b8ff" d="M467.33,-69.45C517.58,-62.05 613.59,-47.41 704.73,-30.47"/>
<polygon fill="#63b8ff" stroke="#63b8ff" points="705.14,-33.95 714.33,-28.67 703.85,-27.07 705.14,-33.95"/>
</g>
<!-- Node9 -->
<g id="node9" class="node">
<title>Node9</title>
<g id="a_node9"><a xlink:title=" ">
<polygon fill="#e0e0e0" stroke="#999999" points="968,-30 847,-30 847,0 968,0 968,-30"/>
<text text-anchor="start" x="855" y="-18" font-family="Helvetica,sans-Serif" font-size="10.00">boost/log/utility/setup</text>
<text text-anchor="middle" x="907.5" y="-7" font-family="Helvetica,sans-Serif" font-size="10.00">/common_attributes.hpp</text>
</a>
</g>
</g>
<!-- Node1&#45;&gt;Node9 -->
<g id="edge8" class="edge">
<title>Node1&#45;&gt;Node9</title>
<path fill="none" stroke="#63b8ff" d="M467.4,-71.75C536.04,-66.12 693.61,-52.04 835.54,-30.38"/>
<polygon fill="#63b8ff" stroke="#63b8ff" points="835.76,-33.89 845.11,-28.9 834.69,-26.97 835.76,-33.89"/>
</g>
</g>
</svg>
