<?xml version="1.0" encoding="UTF-8" standalone="no"?>
<!DOCTYPE svg PUBLIC "-//W3C//DTD SVG 1.1//EN"
 "http://www.w3.org/Graphics/SVG/1.1/DTD/svg11.dtd">
<!-- Generated by graphviz version 7.0.5 (20221223.1930)
 -->
<!-- Title: Logging.hpp Pages: 1 -->
<!--zoomable 412 -->
<svg id="main" version="1.1" xmlns="http://www.w3.org/2000/svg" xmlns:xlink="http://www.w3.org/1999/xlink" xml:space="preserve" onload="init(evt)">
<style type="text/css"><![CDATA[
.edge:hover path { stroke: red; }
.edge:hover polygon { stroke: red; fill: red; }
]]></style>
<script type="text/javascript"><![CDATA[
var edges = document.getElementsByTagName('g');
if (edges && edges.length) {
  for (var i=0;i<edges.length;i++) {
    if (edges[i].id.substr(0,4)=='edge') {
      edges[i].setAttribute('class','edge');
    }
  }
}
]]></script>
        <defs>
                <circle id="rim" cx="0" cy="0" r="7"/>
                <circle id="rim2" cx="0" cy="0" r="3.5"/>
                <g id="zoomPlus">
                        <use xlink:href="#rim" fill="#404040">
                                <set attributeName="fill" to="#808080" begin="zoomplus.mouseover" end="zoomplus.mouseout"/>
                        </use>
                        <path d="M-4,0h8M0,-4v8" fill="none" stroke="white" stroke-width="1.5" pointer-events="none"/>
                </g>
                <g id="zoomMin">
                        <use xlink:href="#rim" fill="#404040">
                                <set attributeName="fill" to="#808080" begin="zoomminus.mouseover" end="zoomminus.mouseout"/>
                        </use>
                        <path d="M-4,0h8" fill="none" stroke="white" stroke-width="1.5" pointer-events="none"/>
                </g>
                <g id="dirArrow">
                        <path fill="none" stroke="white" stroke-width="1.5" d="M0,-3.0v7 M-2.5,-0.5L0,-3.0L2.5,-0.5"/>
                </g>
               <g id="resetDef">
                       <use xlink:href="#rim2" fill="#404040">
                               <set attributeName="fill" to="#808080" begin="reset.mouseover" end="reset.mouseout"/>
                       </use>
               </g>
        </defs>

<script type="text/javascript">
var viewWidth = 851;
var viewHeight = 412;
var sectionId = 'dynsection-1';
</script>
<script xlink:href="svgpan.js"/>
<svg id="graph" class="graph">
<g id="viewport">
<title>Logging.hpp</title>
<!-- Node1 -->
<g id="node1" class="node">
<title>Node1</title>
<g id="a_node1"><a xlink:title=" ">
<polygon fill="#999999" stroke="#666666" points="482.5,-404 413.5,-404 413.5,-385 482.5,-385 482.5,-404"/>
<text text-anchor="middle" x="448" y="-392" font-family="Helvetica,sans-Serif" font-size="10.00">Logging.hpp</text>
</a>
</g>
</g>
<!-- Node2 -->
<g id="node2" class="node">
<title>Node2</title>
<g id="a_node2"><a xlink:href="_concurrent_queue_8hpp.html" target="_top" xlink:title=" ">
<polygon fill="white" stroke="#666666" points="110,-239 0,-239 0,-220 110,-220 110,-239"/>
<text text-anchor="middle" x="55" y="-227" font-family="Helvetica,sans-Serif" font-size="10.00">ConcurrentQueue.hpp</text>
</a>
</g>
</g>
<!-- Node1&#45;&gt;Node2 -->
<g id="edge1" class="edge">
<title>Node1&#45;&gt;Node2</title>
<path fill="none" stroke="#63b8ff" d="M401.93,-390.35C330.82,-384.84 198.18,-371.82 157,-349 108.09,-321.9 71.85,-261.68 59.56,-239.19"/>
<polygon fill="#63b8ff" stroke="#63b8ff" points="401.47,-393.82 411.7,-391.09 402,-386.84 401.47,-393.82"/>
</g>
<!-- Node5 -->
<g id="node5" class="node">
<title>Node5</title>
<g id="a_node5"><a xlink:href="_data_handler_abstract_8hpp.html" target="_top" xlink:title=" ">
<polygon fill="white" stroke="#666666" points="282.5,-129 157.5,-129 157.5,-110 282.5,-110 282.5,-129"/>
<text text-anchor="middle" x="220" y="-117" font-family="Helvetica,sans-Serif" font-size="10.00">DataHandlerAbstract.hpp</text>
</a>
</g>
</g>
<!-- Node1&#45;&gt;Node5 -->
<g id="edge4" class="edge">
<title>Node1&#45;&gt;Node5</title>
<path fill="none" stroke="#63b8ff" d="M402.21,-385.86C350.06,-374.23 272,-346.62 272,-285.5 272,-285.5 272,-285.5 272,-228.5 272,-188.13 242.14,-146.92 227.67,-129.33"/>
<polygon fill="#63b8ff" stroke="#63b8ff" points="401.24,-389.23 411.75,-387.86 402.68,-382.38 401.24,-389.23"/>
</g>
<!-- Node7 -->
<g id="node7" class="node">
<title>Node7</title>
<g id="a_node7"><a xlink:href="_hw_accessor_8hpp.html" target="_top" xlink:title=" ">
<polygon fill="white" stroke="#666666" points="493.5,-349 402.5,-349 402.5,-330 493.5,-330 493.5,-349"/>
<text text-anchor="middle" x="448" y="-337" font-family="Helvetica,sans-Serif" font-size="10.00">HwAccessor.hpp</text>
</a>
</g>
</g>
<!-- Node1&#45;&gt;Node7 -->
<g id="edge7" class="edge">
<title>Node1&#45;&gt;Node7</title>
<path fill="none" stroke="#63b8ff" d="M448,-373.35C448,-365.1 448,-355.97 448,-349.44"/>
<polygon fill="#63b8ff" stroke="#63b8ff" points="444.5,-373.23 448,-383.23 451.5,-373.23 444.5,-373.23"/>
</g>
<!-- Node10 -->
<g id="node10" class="node">
<title>Node10</title>
<g id="a_node10"><a xlink:href="_uio_if_8hpp.html" target="_top" xlink:title=" ">
<polygon fill="white" stroke="#666666" points="561,-294 505,-294 505,-275 561,-275 561,-294"/>
<text text-anchor="middle" x="533" y="-282" font-family="Helvetica,sans-Serif" font-size="10.00">UioIf.hpp</text>
</a>
</g>
</g>
<!-- Node1&#45;&gt;Node10 -->
<g id="edge29" class="edge">
<title>Node1&#45;&gt;Node10</title>
<path fill="none" stroke="#63b8ff" d="M471.36,-378.26C482,-370.46 494.17,-360.24 503,-349 516.56,-331.74 525.88,-307.36 530.22,-294.4"/>
<polygon fill="#63b8ff" stroke="#63b8ff" points="469.57,-375.23 463.39,-383.84 473.59,-380.97 469.57,-375.23"/>
</g>
<!-- Node16 -->
<g id="node16" class="node">
<title>Node16</title>
<g id="a_node16"><a xlink:href="_uio_axi_vdma_if_8cpp.html" target="_top" xlink:title=" ">
<polygon fill="white" stroke="#666666" points="754.5,-129 659.5,-129 659.5,-110 754.5,-110 754.5,-129"/>
<text text-anchor="middle" x="707" y="-117" font-family="Helvetica,sans-Serif" font-size="10.00">UioAxiVdmaIf.cpp</text>
</a>
</g>
</g>
<!-- Node1&#45;&gt;Node16 -->
<g id="edge28" class="edge">
<title>Node1&#45;&gt;Node16</title>
<path fill="none" stroke="#63b8ff" d="M494.13,-386.55C577.57,-372.66 745,-338.23 745,-285.5 745,-285.5 745,-285.5 745,-228.5 745,-189.74 722.95,-147.37 712.44,-129.37"/>
<polygon fill="#63b8ff" stroke="#63b8ff" points="493.74,-383.06 484.44,-388.13 494.87,-389.97 493.74,-383.06"/>
</g>
<!-- Node20 -->
<g id="node20" class="node">
<title>Node20</title>
<g id="a_node20"><a xlink:href="_logging_8cpp.html" target="_top" xlink:title=" ">
<polygon fill="white" stroke="#666666" points="842.5,-349 773.5,-349 773.5,-330 842.5,-330 842.5,-349"/>
<text text-anchor="middle" x="808" y="-337" font-family="Helvetica,sans-Serif" font-size="10.00">Logging.cpp</text>
</a>
</g>
</g>
<!-- Node1&#45;&gt;Node20 -->
<g id="edge24" class="edge">
<title>Node1&#45;&gt;Node20</title>
<path fill="none" stroke="#63b8ff" d="M493.66,-387.4C554.34,-379.19 664.86,-363.9 759,-349 763.61,-348.27 768.45,-347.47 773.22,-346.66"/>
<polygon fill="#63b8ff" stroke="#63b8ff" points="493.51,-383.89 484.07,-388.69 494.44,-390.82 493.51,-383.89"/>
</g>
<!-- Node21 -->
<g id="node21" class="node">
<title>Node21</title>
<g id="a_node21"><a xlink:href="_u_dma_buf_8hpp.html" target="_top" xlink:title=" ">
<polygon fill="white" stroke="#666666" points="243.5,-349 166.5,-349 166.5,-330 243.5,-330 243.5,-349"/>
<text text-anchor="middle" x="205" y="-337" font-family="Helvetica,sans-Serif" font-size="10.00">UDmaBuf.hpp</text>
</a>
</g>
</g>
<!-- Node1&#45;&gt;Node21 -->
<g id="edge25" class="edge">
<title>Node1&#45;&gt;Node21</title>
<path fill="none" stroke="#63b8ff" d="M402.09,-383.49C356.33,-373.51 286.84,-358.35 243.77,-348.96"/>
<polygon fill="#63b8ff" stroke="#63b8ff" points="401.19,-386.87 411.71,-385.58 402.68,-380.03 401.19,-386.87"/>
</g>
<!-- Node3 -->
<g id="node3" class="node">
<title>Node3</title>
<g id="a_node3"><a xlink:href="_data_handler_sync_8hpp.html" target="_top" xlink:title=" ">
<polygon fill="white" stroke="#666666" points="132,-74 22,-74 22,-55 132,-55 132,-74"/>
<text text-anchor="middle" x="77" y="-62" font-family="Helvetica,sans-Serif" font-size="10.00">DataHandlerSync.hpp</text>
</a>
</g>
</g>
<!-- Node2&#45;&gt;Node3 -->
<g id="edge2" class="edge">
<title>Node2&#45;&gt;Node3</title>
<path fill="none" stroke="#63b8ff" d="M57.71,-208.44C62.53,-172.74 72.4,-99.57 75.81,-74.31"/>
<polygon fill="#63b8ff" stroke="#63b8ff" points="54.25,-207.86 56.39,-218.24 61.19,-208.79 54.25,-207.86"/>
</g>
<!-- Node4 -->
<g id="node4" class="node">
<title>Node4</title>
<g id="a_node4"><a xlink:href="_data_handler_sync_8cpp.html" target="_top" xlink:title=" ">
<polygon fill="white" stroke="#666666" points="132,-19 22,-19 22,0 132,0 132,-19"/>
<text text-anchor="middle" x="77" y="-7" font-family="Helvetica,sans-Serif" font-size="10.00">DataHandlerSync.cpp</text>
</a>
</g>
</g>
<!-- Node3&#45;&gt;Node4 -->
<g id="edge3" class="edge">
<title>Node3&#45;&gt;Node4</title>
<path fill="none" stroke="#63b8ff" d="M77,-43.35C77,-35.1 77,-25.97 77,-19.44"/>
<polygon fill="#63b8ff" stroke="#63b8ff" points="73.5,-43.23 77,-53.23 80.5,-43.23 73.5,-43.23"/>
</g>
<!-- Node5&#45;&gt;Node3 -->
<g id="edge6" class="edge">
<title>Node5&#45;&gt;Node3</title>
<path fill="none" stroke="#63b8ff" d="M185.15,-105.58C159.01,-95.9 123.92,-82.89 100.9,-74.36"/>
<polygon fill="#63b8ff" stroke="#63b8ff" points="183.73,-108.79 194.32,-108.98 186.16,-102.23 183.73,-108.79"/>
</g>
<!-- Node6 -->
<g id="node6" class="node">
<title>Node6</title>
<g id="a_node6"><a xlink:href="_data_handler_abstract_8cpp.html" target="_top" xlink:title=" ">
<polygon fill="white" stroke="#666666" points="282.5,-74 157.5,-74 157.5,-55 282.5,-55 282.5,-74"/>
<text text-anchor="middle" x="220" y="-62" font-family="Helvetica,sans-Serif" font-size="10.00">DataHandlerAbstract.cpp</text>
</a>
</g>
</g>
<!-- Node5&#45;&gt;Node6 -->
<g id="edge5" class="edge">
<title>Node5&#45;&gt;Node6</title>
<path fill="none" stroke="#63b8ff" d="M220,-98.35C220,-90.1 220,-80.97 220,-74.44"/>
<polygon fill="#63b8ff" stroke="#63b8ff" points="216.5,-98.23 220,-108.23 223.5,-98.23 216.5,-98.23"/>
</g>
<!-- Node8 -->
<g id="node8" class="node">
<title>Node8</title>
<g id="a_node8"><a xlink:href="_hw_accessor_8cpp.html" target="_top" xlink:title=" ">
<polygon fill="white" stroke="#666666" points="391.5,-294 300.5,-294 300.5,-275 391.5,-275 391.5,-294"/>
<text text-anchor="middle" x="346" y="-282" font-family="Helvetica,sans-Serif" font-size="10.00">HwAccessor.cpp</text>
</a>
</g>
</g>
<!-- Node7&#45;&gt;Node8 -->
<g id="edge8" class="edge">
<title>Node7&#45;&gt;Node8</title>
<path fill="none" stroke="#63b8ff" d="M420.61,-324.27C402.28,-314.74 378.74,-302.51 363.05,-294.36"/>
<polygon fill="#63b8ff" stroke="#63b8ff" points="418.87,-327.31 429.35,-328.81 422.09,-321.09 418.87,-327.31"/>
</g>
<!-- Node9 -->
<g id="node9" class="node">
<title>Node9</title>
<g id="a_node9"><a xlink:href="_uio_config_8cpp.html" target="_top" xlink:title=" ">
<polygon fill="white" stroke="#666666" points="486.5,-294 409.5,-294 409.5,-275 486.5,-275 486.5,-294"/>
<text text-anchor="middle" x="448" y="-282" font-family="Helvetica,sans-Serif" font-size="10.00">UioConfig.cpp</text>
</a>
</g>
</g>
<!-- Node7&#45;&gt;Node9 -->
<g id="edge9" class="edge">
<title>Node7&#45;&gt;Node9</title>
<path fill="none" stroke="#63b8ff" d="M448,-318.35C448,-310.1 448,-300.97 448,-294.44"/>
<polygon fill="#63b8ff" stroke="#63b8ff" points="444.5,-318.23 448,-328.23 451.5,-318.23 444.5,-318.23"/>
</g>
<!-- Node7&#45;&gt;Node10 -->
<g id="edge10" class="edge">
<title>Node7&#45;&gt;Node10</title>
<path fill="none" stroke="#63b8ff" d="M472.12,-323.46C487.19,-314.06 506.09,-302.28 518.79,-294.36"/>
<polygon fill="#63b8ff" stroke="#63b8ff" points="470.34,-320.45 463.7,-328.71 474.04,-326.39 470.34,-320.45"/>
</g>
<!-- Node11 -->
<g id="node11" class="node">
<title>Node11</title>
<g id="a_node11"><a xlink:href="_fpga_mem_buffer_over_axi_8hpp.html" target="_top" xlink:title=" ">
<polygon fill="white" stroke="#666666" points="679,-239 541,-239 541,-220 679,-220 679,-239"/>
<text text-anchor="middle" x="610" y="-227" font-family="Helvetica,sans-Serif" font-size="10.00">FpgaMemBufferOverAxi.hpp</text>
</a>
</g>
</g>
<!-- Node10&#45;&gt;Node11 -->
<g id="edge11" class="edge">
<title>Node10&#45;&gt;Node11</title>
<path fill="none" stroke="#63b8ff" d="M555.25,-268.19C568.83,-258.84 585.73,-247.21 597.13,-239.36"/>
<polygon fill="#63b8ff" stroke="#63b8ff" points="553.56,-265.1 547.31,-273.65 557.53,-270.86 553.56,-265.1"/>
</g>
<!-- Node12 -->
<g id="node12" class="node">
<title>Node12</title>
<g id="a_node12"><a xlink:href="_reg_accessor_8hpp.html" target="_top" xlink:title=" ">
<polygon fill="white" stroke="#666666" points="448.5,-239 355.5,-239 355.5,-220 448.5,-220 448.5,-239"/>
<text text-anchor="middle" x="402" y="-227" font-family="Helvetica,sans-Serif" font-size="10.00">RegAccessor.hpp</text>
</a>
</g>
</g>
<!-- Node10&#45;&gt;Node12 -->
<g id="edge12" class="edge">
<title>Node10&#45;&gt;Node12</title>
<path fill="none" stroke="#63b8ff" d="M500.11,-270.19C476.27,-260.55 444.7,-247.78 423.89,-239.36"/>
<polygon fill="#63b8ff" stroke="#63b8ff" points="498.79,-273.44 509.37,-273.94 501.42,-266.95 498.79,-273.44"/>
</g>
<!-- Node13 -->
<g id="node13" class="node">
<title>Node13</title>
<g id="a_node13"><a xlink:href="_uio_axi_dma_if_8hpp.html" target="_top" xlink:title=" ">
<polygon fill="white" stroke="#666666" points="389.5,-184 300.5,-184 300.5,-165 389.5,-165 389.5,-184"/>
<text text-anchor="middle" x="345" y="-172" font-family="Helvetica,sans-Serif" font-size="10.00">UioAxiDmaIf.hpp</text>
</a>
</g>
</g>
<!-- Node10&#45;&gt;Node13 -->
<g id="edge21" class="edge">
<title>Node10&#45;&gt;Node13</title>
<path fill="none" stroke="#63b8ff" d="M493.61,-274.39C439.37,-261.79 348.18,-240.45 347,-239 334.32,-223.44 338.66,-197.91 342.23,-184.45"/>
<polygon fill="#63b8ff" stroke="#63b8ff" points="492.57,-277.74 503.1,-276.59 494.15,-270.92 492.57,-277.74"/>
</g>
<!-- Node15 -->
<g id="node15" class="node">
<title>Node15</title>
<g id="a_node15"><a xlink:href="_uio_axi_vdma_if_8hpp.html" target="_top" xlink:title=" ">
<polygon fill="white" stroke="#666666" points="716.5,-184 621.5,-184 621.5,-165 716.5,-165 716.5,-184"/>
<text text-anchor="middle" x="669" y="-172" font-family="Helvetica,sans-Serif" font-size="10.00">UioAxiVdmaIf.hpp</text>
</a>
</g>
</g>
<!-- Node10&#45;&gt;Node15 -->
<g id="edge22" class="edge">
<title>Node10&#45;&gt;Node15</title>
<path fill="none" stroke="#63b8ff" d="M572.5,-277.63C613.66,-270.62 674.09,-257.46 688,-239 700.6,-222.27 685.68,-197.23 676,-184.16"/>
<polygon fill="#63b8ff" stroke="#63b8ff" points="571.98,-274.17 562.68,-279.25 573.12,-281.08 571.98,-274.17"/>
</g>
<!-- Node19 -->
<g id="node19" class="node">
<title>Node19</title>
<g id="a_node19"><a xlink:href="_uio_if_8cpp.html" target="_top" xlink:title=" ">
<polygon fill="white" stroke="#666666" points="523,-239 467,-239 467,-220 523,-220 523,-239"/>
<text text-anchor="middle" x="495" y="-227" font-family="Helvetica,sans-Serif" font-size="10.00">UioIf.cpp</text>
</a>
</g>
</g>
<!-- Node10&#45;&gt;Node19 -->
<g id="edge23" class="edge">
<title>Node10&#45;&gt;Node19</title>
<path fill="none" stroke="#63b8ff" d="M520.2,-265.65C513.88,-256.84 506.54,-246.59 501.41,-239.44"/>
<polygon fill="#63b8ff" stroke="#63b8ff" points="517.17,-267.43 525.84,-273.52 522.86,-263.35 517.17,-267.43"/>
</g>
<!-- Node12&#45;&gt;Node13 -->
<g id="edge13" class="edge">
<title>Node12&#45;&gt;Node13</title>
<path fill="none" stroke="#63b8ff" d="M384.05,-211.81C374.27,-202.72 362.56,-191.82 354.53,-184.36"/>
<polygon fill="#63b8ff" stroke="#63b8ff" points="381.52,-214.23 391.22,-218.48 386.28,-209.11 381.52,-214.23"/>
</g>
<!-- Node12&#45;&gt;Node15 -->
<g id="edge16" class="edge">
<title>Node12&#45;&gt;Node15</title>
<path fill="none" stroke="#63b8ff" d="M458.4,-217.3C507.69,-207.52 578.33,-193.5 623.93,-184.45"/>
<polygon fill="#63b8ff" stroke="#63b8ff" points="457.9,-213.83 448.78,-219.21 459.27,-220.7 457.9,-213.83"/>
</g>
<!-- Node17 -->
<g id="node17" class="node">
<title>Node17</title>
<g id="a_node17"><a xlink:href="_uio_mem_sgdma_8hpp.html" target="_top" xlink:title=" ">
<polygon fill="white" stroke="#666666" points="510,-184 408,-184 408,-165 510,-165 510,-184"/>
<text text-anchor="middle" x="459" y="-172" font-family="Helvetica,sans-Serif" font-size="10.00">UioMemSgdma.hpp</text>
</a>
</g>
</g>
<!-- Node12&#45;&gt;Node17 -->
<g id="edge18" class="edge">
<title>Node12&#45;&gt;Node17</title>
<path fill="none" stroke="#63b8ff" d="M419.95,-211.81C429.73,-202.72 441.44,-191.82 449.47,-184.36"/>
<polygon fill="#63b8ff" stroke="#63b8ff" points="417.72,-209.11 412.78,-218.48 422.48,-214.23 417.72,-209.11"/>
</g>
<!-- Node13&#45;&gt;Node5 -->
<g id="edge14" class="edge">
<title>Node13&#45;&gt;Node5</title>
<path fill="none" stroke="#63b8ff" d="M313.31,-160.06C290.6,-150.43 260.66,-137.74 240.89,-129.36"/>
<polygon fill="#63b8ff" stroke="#63b8ff" points="311.83,-163.24 322.4,-163.92 314.56,-156.79 311.83,-163.24"/>
</g>
<!-- Node14 -->
<g id="node14" class="node">
<title>Node14</title>
<g id="a_node14"><a xlink:href="_uio_axi_dma_if_8cpp.html" target="_top" xlink:title=" ">
<polygon fill="white" stroke="#666666" points="389.5,-129 300.5,-129 300.5,-110 389.5,-110 389.5,-129"/>
<text text-anchor="middle" x="345" y="-117" font-family="Helvetica,sans-Serif" font-size="10.00">UioAxiDmaIf.cpp</text>
</a>
</g>
</g>
<!-- Node13&#45;&gt;Node14 -->
<g id="edge15" class="edge">
<title>Node13&#45;&gt;Node14</title>
<path fill="none" stroke="#63b8ff" d="M345,-153.35C345,-145.1 345,-135.97 345,-129.44"/>
<polygon fill="#63b8ff" stroke="#63b8ff" points="341.5,-153.23 345,-163.23 348.5,-153.23 341.5,-153.23"/>
</g>
<!-- Node15&#45;&gt;Node16 -->
<g id="edge17" class="edge">
<title>Node15&#45;&gt;Node16</title>
<path fill="none" stroke="#63b8ff" d="M681.8,-155.65C688.12,-146.84 695.46,-136.59 700.59,-129.44"/>
<polygon fill="#63b8ff" stroke="#63b8ff" points="679.14,-153.35 676.16,-163.52 684.83,-157.43 679.14,-153.35"/>
</g>
<!-- Node17&#45;&gt;Node5 -->
<g id="edge19" class="edge">
<title>Node17&#45;&gt;Node5</title>
<path fill="none" stroke="#63b8ff" d="M407.39,-162.06C363.33,-152.28 300.82,-138.42 260.34,-129.45"/>
<polygon fill="#63b8ff" stroke="#63b8ff" points="406.46,-165.43 416.98,-164.18 407.97,-158.6 406.46,-165.43"/>
</g>
<!-- Node18 -->
<g id="node18" class="node">
<title>Node18</title>
<g id="a_node18"><a xlink:href="_uio_mem_sgdma_8cpp.html" target="_top" xlink:title=" ">
<polygon fill="white" stroke="#666666" points="510,-129 408,-129 408,-110 510,-110 510,-129"/>
<text text-anchor="middle" x="459" y="-117" font-family="Helvetica,sans-Serif" font-size="10.00">UioMemSgdma.cpp</text>
</a>
</g>
</g>
<!-- Node17&#45;&gt;Node18 -->
<g id="edge20" class="edge">
<title>Node17&#45;&gt;Node18</title>
<path fill="none" stroke="#63b8ff" d="M459,-153.35C459,-145.1 459,-135.97 459,-129.44"/>
<polygon fill="#63b8ff" stroke="#63b8ff" points="455.5,-153.23 459,-163.23 462.5,-153.23 455.5,-153.23"/>
</g>
<!-- Node21&#45;&gt;Node5 -->
<g id="edge26" class="edge">
<title>Node21&#45;&gt;Node5</title>
<path fill="none" stroke="#63b8ff" d="M181.1,-322.97C171.74,-315.46 162.05,-305.56 157,-294 153.62,-286.26 155.38,-283.29 157,-275 168.48,-216.44 202.28,-152.08 215.04,-129.18"/>
<polygon fill="#63b8ff" stroke="#63b8ff" points="178.83,-325.64 188.95,-328.75 182.98,-320 178.83,-325.64"/>
</g>
<!-- Node22 -->
<g id="node22" class="node">
<title>Node22</title>
<g id="a_node22"><a xlink:href="_u_dma_buf_8cpp.html" target="_top" xlink:title=" ">
<polygon fill="white" stroke="#666666" points="243.5,-294 166.5,-294 166.5,-275 243.5,-275 243.5,-294"/>
<text text-anchor="middle" x="205" y="-282" font-family="Helvetica,sans-Serif" font-size="10.00">UDmaBuf.cpp</text>
</a>
</g>
</g>
<!-- Node21&#45;&gt;Node22 -->
<g id="edge27" class="edge">
<title>Node21&#45;&gt;Node22</title>
<path fill="none" stroke="#63b8ff" d="M205,-318.35C205,-310.1 205,-300.97 205,-294.44"/>
<polygon fill="#63b8ff" stroke="#63b8ff" points="201.5,-318.23 205,-328.23 208.5,-318.23 201.5,-318.23"/>
</g>
</g>
</svg>
        <g id="navigator" transform="translate(0 0)" fill="#404254">
                <rect fill="#f2f5e9" fill-opacity="0.5" stroke="#606060" stroke-width=".5" x="0" y="0" width="60" height="60"/>
                <use id="zoomplus" xlink:href="#zoomPlus" x="17" y="9" onmousedown="handleZoom(evt,'in')"/>
                <use id="zoomminus" xlink:href="#zoomMin" x="42" y="9" onmousedown="handleZoom(evt,'out')"/>
                <use id="reset" xlink:href="#resetDef" x="30" y="36" onmousedown="handleReset()"/>
                <g id="arrowUp" xlink:href="#dirArrow" transform="translate(30 24)" onmousedown="handlePan(0,-1)">
                  <use xlink:href="#rim" fill="#404040">
                        <set attributeName="fill" to="#808080" begin="arrowUp.mouseover" end="arrowUp.mouseout"/>
                  </use>
                  <path fill="none" stroke="white" stroke-width="1.5" d="M0,-3.0v7 M-2.5,-0.5L0,-3.0L2.5,-0.5"/>
                </g>
                <g id="arrowRight" xlink:href="#dirArrow" transform="rotate(90) translate(36 -43)" onmousedown="handlePan(1,0)">
                  <use xlink:href="#rim" fill="#404040">
                        <set attributeName="fill" to="#808080" begin="arrowRight.mouseover" end="arrowRight.mouseout"/>
                  </use>
                  <path fill="none" stroke="white" stroke-width="1.5" d="M0,-3.0v7 M-2.5,-0.5L0,-3.0L2.5,-0.5"/>
                </g>
                <g id="arrowDown" xlink:href="#dirArrow" transform="rotate(180) translate(-30 -48)" onmousedown="handlePan(0,1)">
                  <use xlink:href="#rim" fill="#404040">
                        <set attributeName="fill" to="#808080" begin="arrowDown.mouseover" end="arrowDown.mouseout"/>
                  </use>
                  <path fill="none" stroke="white" stroke-width="1.5" d="M0,-3.0v7 M-2.5,-0.5L0,-3.0L2.5,-0.5"/>
                </g>
                <g id="arrowLeft" xlink:href="#dirArrow" transform="rotate(270) translate(-36 17)" onmousedown="handlePan(-1,0)">
                  <use xlink:href="#rim" fill="#404040">
                        <set attributeName="fill" to="#808080" begin="arrowLeft.mouseover" end="arrowLeft.mouseout"/>
                  </use>
                  <path fill="none" stroke="white" stroke-width="1.5" d="M0,-3.0v7 M-2.5,-0.5L0,-3.0L2.5,-0.5"/>
                </g>
        </g>
        <svg viewBox="0 0 15 15" width="100%" height="30px" preserveAspectRatio="xMaxYMin meet">
         <g id="arrow_out" transform="scale(0.3 0.3)">
          <a xlink:href="_logging_8hpp__dep__incl_org.svg" target="_base">
           <rect id="button" ry="5" rx="5" y="6" x="6" height="38" width="38"
                fill="#f2f5e9" fill-opacity="0.5" stroke="#606060" stroke-width="1.0"/>
           <path id="arrow"
             d="M 11.500037,31.436501 C 11.940474,20.09759 22.043105,11.32322 32.158766,21.979434 L 37.068811,17.246167 C 37.068811,17.246167 37.088388,32 37.088388,32 L 22.160133,31.978069 C 22.160133,31.978069 26.997745,27.140456 26.997745,27.140456 C 18.528582,18.264221 13.291696,25.230495 11.500037,31.436501 z"
             style="fill:#404040;"/>
          </a>
         </g>
        </svg>
</svg>
