<?xml version="1.0" encoding="UTF-8" standalone="no"?>
<!DOCTYPE svg PUBLIC "-//W3C//DTD SVG 1.1//EN"
 "http://www.w3.org/Graphics/SVG/1.1/DTD/svg11.dtd">
<!-- Generated by graphviz version 7.0.5 (20221223.1930)
 -->
<!-- Title: UioMemSgdma.hpp Pages: 1 -->
<svg width="1709pt" height="313pt"
 viewBox="0.00 0.00 1708.50 313.00" xmlns="http://www.w3.org/2000/svg" xmlns:xlink="http://www.w3.org/1999/xlink">
<g id="graph0" class="graph" transform="scale(1 1) rotate(0) translate(4 309)">
<title>UioMemSgdma.hpp</title>
<!-- Node1 -->
<g id="node1" class="node">
<title>Node1</title>
<g id="a_node1"><a xlink:title=" ">
<polygon fill="#999999" stroke="#666666" points="171.5,-305 69.5,-305 69.5,-286 171.5,-286 171.5,-305"/>
<text text-anchor="middle" x="120.5" y="-293" font-family="Helvetica,sans-Serif" font-size="10.00">UioMemSgdma.hpp</text>
</a>
</g>
</g>
<!-- Node2 -->
<g id="node2" class="node">
<title>Node2</title>
<g id="a_node2"><a xlink:title=" ">
<polygon fill="#e0e0e0" stroke="#999999" points="49,-250 0,-250 0,-231 49,-231 49,-250"/>
<text text-anchor="middle" x="24.5" y="-238" font-family="Helvetica,sans-Serif" font-size="10.00">cstddef</text>
</a>
</g>
</g>
<!-- Node1&#45;&gt;Node2 -->
<g id="edge1" class="edge">
<title>Node1&#45;&gt;Node2</title>
<path fill="none" stroke="#63b8ff" d="M104.21,-285.51C89.51,-277.39 67.61,-265.3 50.48,-255.85"/>
<polygon fill="#63b8ff" stroke="#63b8ff" points="52.32,-252.86 41.87,-251.09 48.93,-258.99 52.32,-252.86"/>
</g>
<!-- Node3 -->
<g id="node3" class="node">
<title>Node3</title>
<g id="a_node3"><a xlink:title=" ">
<polygon fill="#e0e0e0" stroke="#999999" points="143,-24.5 92,-24.5 92,-5.5 143,-5.5 143,-24.5"/>
<text text-anchor="middle" x="117.5" y="-12.5" font-family="Helvetica,sans-Serif" font-size="10.00">memory</text>
</a>
</g>
</g>
<!-- Node1&#45;&gt;Node3 -->
<g id="edge2" class="edge">
<title>Node1&#45;&gt;Node3</title>
<path fill="none" stroke="#63b8ff" d="M114.34,-285.73C102.45,-267.92 77.5,-225.85 77.5,-186.5 77.5,-186.5 77.5,-186.5 77.5,-129.5 77.5,-94.45 94.68,-56.6 106.52,-34.67"/>
<polygon fill="#63b8ff" stroke="#63b8ff" points="109.5,-36.5 111.36,-26.07 103.41,-33.06 109.5,-36.5"/>
</g>
<!-- Node4 -->
<g id="node4" class="node">
<title>Node4</title>
<g id="a_node4"><a xlink:href="_dma_buffer_abstract_8hpp.html" target="_top" xlink:title=" ">
<polygon fill="white" stroke="#666666" points="223,-250 106,-250 106,-231 223,-231 223,-250"/>
<text text-anchor="middle" x="164.5" y="-238" font-family="Helvetica,sans-Serif" font-size="10.00">DmaBufferAbstract.hpp</text>
</a>
</g>
</g>
<!-- Node1&#45;&gt;Node4 -->
<g id="edge3" class="edge">
<title>Node1&#45;&gt;Node4</title>
<path fill="none" stroke="#63b8ff" d="M127.77,-285.75C133.78,-278.5 142.51,-267.98 149.96,-259.02"/>
<polygon fill="#63b8ff" stroke="#63b8ff" points="152.42,-261.54 156.11,-251.61 147.03,-257.07 152.42,-261.54"/>
</g>
<!-- Node13 -->
<g id="node13" class="node">
<title>Node13</title>
<g id="a_node13"><a xlink:href="_reg_accessor_8hpp.html" target="_top" xlink:title=" ">
<polygon fill="white" stroke="#666666" points="334,-250 241,-250 241,-231 334,-231 334,-250"/>
<text text-anchor="middle" x="287.5" y="-238" font-family="Helvetica,sans-Serif" font-size="10.00">RegAccessor.hpp</text>
</a>
</g>
</g>
<!-- Node1&#45;&gt;Node13 -->
<g id="edge13" class="edge">
<title>Node1&#45;&gt;Node13</title>
<path fill="none" stroke="#63b8ff" d="M148.83,-285.51C176.26,-276.8 218.08,-263.53 248.62,-253.84"/>
<polygon fill="#63b8ff" stroke="#63b8ff" points="249.4,-257.27 257.87,-250.9 247.28,-250.59 249.4,-257.27"/>
</g>
<!-- Node5 -->
<g id="node5" class="node">
<title>Node5</title>
<g id="a_node5"><a xlink:title=" ">
<polygon fill="#e0e0e0" stroke="#999999" points="300.5,-195 254.5,-195 254.5,-176 300.5,-176 300.5,-195"/>
<text text-anchor="middle" x="277.5" y="-183" font-family="Helvetica,sans-Serif" font-size="10.00">cstdint</text>
</a>
</g>
</g>
<!-- Node4&#45;&gt;Node5 -->
<g id="edge4" class="edge">
<title>Node4&#45;&gt;Node5</title>
<path fill="none" stroke="#63b8ff" d="M183.67,-230.51C201.39,-222.2 227.98,-209.73 248.33,-200.18"/>
<polygon fill="#63b8ff" stroke="#63b8ff" points="249.68,-203.42 257.24,-196 246.7,-197.08 249.68,-203.42"/>
</g>
<!-- Node6 -->
<g id="node6" class="node">
<title>Node6</title>
<g id="a_node6"><a xlink:title=" ">
<polygon fill="#e0e0e0" stroke="#999999" points="230.5,-195 186.5,-195 186.5,-176 230.5,-176 230.5,-195"/>
<text text-anchor="middle" x="208.5" y="-183" font-family="Helvetica,sans-Serif" font-size="10.00">vector</text>
</a>
</g>
</g>
<!-- Node4&#45;&gt;Node6 -->
<g id="edge5" class="edge">
<title>Node4&#45;&gt;Node6</title>
<path fill="none" stroke="#63b8ff" d="M171.77,-230.75C177.78,-223.5 186.51,-212.98 193.96,-204.02"/>
<polygon fill="#63b8ff" stroke="#63b8ff" points="196.42,-206.54 200.11,-196.61 191.03,-202.07 196.42,-206.54"/>
</g>
<!-- Node7 -->
<g id="node7" class="node">
<title>Node7</title>
<g id="a_node7"><a xlink:title=" ">
<polygon fill="#e0e0e0" stroke="#999999" points="410,-85 273,-85 273,-66 410,-66 410,-85"/>
<text text-anchor="middle" x="341.5" y="-73" font-family="Helvetica,sans-Serif" font-size="10.00">boost/core/noncopyable.hpp</text>
</a>
</g>
</g>
<!-- Node4&#45;&gt;Node7 -->
<g id="edge6" class="edge">
<title>Node4&#45;&gt;Node7</title>
<path fill="none" stroke="#63b8ff" d="M164.17,-230.85C164.11,-217.77 165.71,-192.74 177.5,-176 208.31,-132.26 265.03,-104.24 303.01,-89.43"/>
<polygon fill="#63b8ff" stroke="#63b8ff" points="304.12,-92.75 312.25,-85.96 301.66,-86.2 304.12,-92.75"/>
</g>
<!-- Node8 -->
<g id="node8" class="node">
<title>Node8</title>
<g id="a_node8"><a xlink:href="_uio_config_8hpp.html" target="_top" xlink:title=" ">
<polygon fill="white" stroke="#666666" points="255,-85 144,-85 144,-66 255,-66 255,-85"/>
<text text-anchor="middle" x="199.5" y="-73" font-family="Helvetica,sans-Serif" font-size="10.00">udmaio/UioConfig.hpp</text>
</a>
</g>
</g>
<!-- Node4&#45;&gt;Node8 -->
<g id="edge7" class="edge">
<title>Node4&#45;&gt;Node8</title>
<path fill="none" stroke="#63b8ff" d="M159.18,-230.68C154.27,-221.97 147.31,-208.09 144.5,-195 137.61,-162.84 130.33,-150.68 144.5,-121 150.33,-108.78 161.34,-98.83 171.99,-91.46"/>
<polygon fill="#63b8ff" stroke="#63b8ff" points="173.65,-94.55 180.23,-86.24 169.9,-88.64 173.65,-94.55"/>
</g>
<!-- Node8&#45;&gt;Node3 -->
<g id="edge9" class="edge">
<title>Node8&#45;&gt;Node3</title>
<path fill="none" stroke="#63b8ff" d="M187.05,-65.62C174.4,-56.6 154.57,-42.45 139.31,-31.56"/>
<polygon fill="#63b8ff" stroke="#63b8ff" points="141.48,-28.81 131.3,-25.85 137.41,-34.5 141.48,-28.81"/>
</g>
<!-- Node9 -->
<g id="node9" class="node">
<title>Node9</title>
<g id="a_node9"><a xlink:title=" ">
<polygon fill="#e0e0e0" stroke="#999999" points="714.5,-24.5 660.5,-24.5 660.5,-5.5 714.5,-5.5 714.5,-24.5"/>
<text text-anchor="middle" x="687.5" y="-12.5" font-family="Helvetica,sans-Serif" font-size="10.00">iostream</text>
</a>
</g>
</g>
<!-- Node8&#45;&gt;Node9 -->
<g id="edge8" class="edge">
<title>Node8&#45;&gt;Node9</title>
<path fill="none" stroke="#63b8ff" d="M255.34,-67.03C258.1,-66.68 260.83,-66.33 263.5,-66 405.56,-48.19 574.64,-28.79 649.08,-20.34"/>
<polygon fill="#63b8ff" stroke="#63b8ff" points="649.15,-23.85 658.7,-19.25 648.37,-16.9 649.15,-23.85"/>
</g>
<!-- Node10 -->
<g id="node10" class="node">
<title>Node10</title>
<g id="a_node10"><a xlink:title=" ">
<polygon fill="#e0e0e0" stroke="#999999" points="308,-24.5 249,-24.5 249,-5.5 308,-5.5 308,-24.5"/>
<text text-anchor="middle" x="278.5" y="-12.5" font-family="Helvetica,sans-Serif" font-size="10.00">stdexcept</text>
</a>
</g>
</g>
<!-- Node8&#45;&gt;Node10 -->
<g id="edge10" class="edge">
<title>Node8&#45;&gt;Node10</title>
<path fill="none" stroke="#63b8ff" d="M211.5,-65.62C223.68,-56.6 242.79,-42.45 257.48,-31.56"/>
<polygon fill="#63b8ff" stroke="#63b8ff" points="259.22,-34.63 265.17,-25.87 255.05,-29.01 259.22,-34.63"/>
</g>
<!-- Node11 -->
<g id="node11" class="node">
<title>Node11</title>
<g id="a_node11"><a xlink:title=" ">
<polygon fill="#e0e0e0" stroke="#999999" points="774,-24.5 733,-24.5 733,-5.5 774,-5.5 774,-24.5"/>
<text text-anchor="middle" x="753.5" y="-12.5" font-family="Helvetica,sans-Serif" font-size="10.00">string</text>
</a>
</g>
</g>
<!-- Node8&#45;&gt;Node11 -->
<g id="edge11" class="edge">
<title>Node8&#45;&gt;Node11</title>
<path fill="none" stroke="#63b8ff" d="M255.33,-66.91C258.09,-66.59 260.82,-66.28 263.5,-66 467.44,-44.49 525.18,-82.2 723.5,-30 724.5,-29.74 725.5,-29.44 726.51,-29.12"/>
<polygon fill="#63b8ff" stroke="#63b8ff" points="727.66,-32.43 735.67,-25.5 725.08,-25.92 727.66,-32.43"/>
</g>
<!-- Node12 -->
<g id="node12" class="node">
<title>Node12</title>
<g id="a_node12"><a xlink:title=" ">
<polygon fill="#e0e0e0" stroke="#999999" points="230.5,-24.5 164.5,-24.5 164.5,-5.5 230.5,-5.5 230.5,-24.5"/>
<text text-anchor="middle" x="197.5" y="-12.5" font-family="Helvetica,sans-Serif" font-size="10.00">string_view</text>
</a>
</g>
</g>
<!-- Node8&#45;&gt;Node12 -->
<g id="edge12" class="edge">
<title>Node8&#45;&gt;Node12</title>
<path fill="none" stroke="#63b8ff" d="M199.2,-65.87C198.94,-58 198.53,-46.1 198.18,-35.89"/>
<polygon fill="#63b8ff" stroke="#63b8ff" points="201.69,-36.05 197.85,-26.18 194.69,-36.29 201.69,-36.05"/>
</g>
<!-- Node13&#45;&gt;Node5 -->
<g id="edge14" class="edge">
<title>Node13&#45;&gt;Node5</title>
<path fill="none" stroke="#63b8ff" d="M285.85,-230.75C284.61,-224.19 282.87,-214.95 281.29,-206.6"/>
<polygon fill="#63b8ff" stroke="#63b8ff" points="284.76,-206.11 279.47,-196.93 277.88,-207.4 284.76,-206.11"/>
</g>
<!-- Node14 -->
<g id="node14" class="node">
<title>Node14</title>
<g id="a_node14"><a xlink:href="_uio_if_8hpp.html" target="_top" xlink:title=" ">
<polygon fill="white" stroke="#666666" points="746.5,-195 656.5,-195 656.5,-176 746.5,-176 746.5,-195"/>
<text text-anchor="middle" x="701.5" y="-183" font-family="Helvetica,sans-Serif" font-size="10.00">udmaio/UioIf.hpp</text>
</a>
</g>
</g>
<!-- Node13&#45;&gt;Node14 -->
<g id="edge15" class="edge">
<title>Node13&#45;&gt;Node14</title>
<path fill="none" stroke="#63b8ff" d="M334.19,-233.52C410.65,-223.73 562.33,-204.32 644.83,-193.75"/>
<polygon fill="#63b8ff" stroke="#63b8ff" points="645.27,-197.23 654.74,-192.49 644.38,-190.28 645.27,-197.23"/>
</g>
<!-- Node14&#45;&gt;Node3 -->
<g id="edge19" class="edge">
<title>Node14&#45;&gt;Node3</title>
<path fill="none" stroke="#63b8ff" d="M656.16,-182.92C535.18,-177.76 208.85,-157.27 134.5,-85 121.51,-72.37 117.83,-51.52 117.05,-36.04"/>
<polygon fill="#63b8ff" stroke="#63b8ff" points="120.55,-36.08 116.96,-26.11 113.55,-36.14 120.55,-36.08"/>
</g>
<!-- Node14&#45;&gt;Node7 -->
<g id="edge21" class="edge">
<title>Node14&#45;&gt;Node7</title>
<path fill="none" stroke="#63b8ff" d="M667.03,-175.57C633.95,-166.89 582.64,-153.13 538.5,-140 482.42,-123.32 417.99,-102.17 378.52,-88.99"/>
<polygon fill="#63b8ff" stroke="#63b8ff" points="379.86,-85.74 369.26,-85.89 377.64,-92.38 379.86,-85.74"/>
</g>
<!-- Node14&#45;&gt;Node8 -->
<g id="edge50" class="edge">
<title>Node14&#45;&gt;Node8</title>
<path fill="none" stroke="#63b8ff" d="M656.39,-176.05C610.71,-167.4 538.07,-153.36 475.5,-140 395.37,-122.9 302.61,-101.15 247.61,-88.06"/>
<polygon fill="#63b8ff" stroke="#63b8ff" points="248.48,-84.67 237.94,-85.75 246.86,-91.47 248.48,-84.67"/>
</g>
<!-- Node14&#45;&gt;Node9 -->
<g id="edge18" class="edge">
<title>Node14&#45;&gt;Node9</title>
<path fill="none" stroke="#63b8ff" d="M746.65,-184.11C860.86,-181.68 1146.01,-165.74 1056.5,-66 1006.93,-10.77 796.67,-47.27 724.5,-30 722.75,-29.58 720.96,-29.1 719.18,-28.57"/>
<polygon fill="#63b8ff" stroke="#63b8ff" points="720.37,-25.28 709.78,-25.42 718.14,-31.92 720.37,-25.28"/>
</g>
<!-- Node14&#45;&gt;Node11 -->
<g id="edge20" class="edge">
<title>Node14&#45;&gt;Node11</title>
<path fill="none" stroke="#63b8ff" d="M746.71,-182.09C839.79,-176.7 1046.03,-162.34 1068.5,-140 1091.93,-116.71 1097.38,-90.75 1075.5,-66 1032.19,-17.02 846.34,-48.05 783.5,-30 782.53,-29.72 781.56,-29.42 780.58,-29.09"/>
<polygon fill="#63b8ff" stroke="#63b8ff" points="782.26,-25.99 771.68,-25.52 779.66,-32.49 782.26,-25.99"/>
</g>
<!-- Node15 -->
<g id="node15" class="node">
<title>Node15</title>
<g id="a_node15"><a xlink:title=" ">
<polygon fill="#e0e0e0" stroke="#999999" points="979.5,-85 919.5,-85 919.5,-66 979.5,-66 979.5,-85"/>
<text text-anchor="middle" x="949.5" y="-73" font-family="Helvetica,sans-Serif" font-size="10.00">filesystem</text>
</a>
</g>
</g>
<!-- Node14&#45;&gt;Node15 -->
<g id="edge16" class="edge">
<title>Node14&#45;&gt;Node15</title>
<path fill="none" stroke="#63b8ff" d="M727.8,-175.51C752.11,-167.01 789.11,-153.55 820.5,-140 856.39,-124.5 896.65,-104.2 922.5,-90.77"/>
<polygon fill="#63b8ff" stroke="#63b8ff" points="924.06,-93.91 931.3,-86.17 920.82,-87.7 924.06,-93.91"/>
</g>
<!-- Node16 -->
<g id="node16" class="node">
<title>Node16</title>
<g id="a_node16"><a xlink:title=" ">
<polygon fill="#e0e0e0" stroke="#999999" points="1047.5,-85 997.5,-85 997.5,-66 1047.5,-66 1047.5,-85"/>
<text text-anchor="middle" x="1022.5" y="-73" font-family="Helvetica,sans-Serif" font-size="10.00">fstream</text>
</a>
</g>
</g>
<!-- Node14&#45;&gt;Node16 -->
<g id="edge17" class="edge">
<title>Node14&#45;&gt;Node16</title>
<path fill="none" stroke="#63b8ff" d="M734.63,-175.57C765.57,-167.05 812.94,-153.54 853.5,-140 901.31,-124.04 955.75,-103.07 989.62,-89.69"/>
<polygon fill="#63b8ff" stroke="#63b8ff" points="990.86,-92.96 998.87,-86.02 988.28,-86.45 990.86,-92.96"/>
</g>
<!-- Node17 -->
<g id="node17" class="node">
<title>Node17</title>
<g id="a_node17"><a xlink:title=" ">
<polygon fill="#e0e0e0" stroke="#999999" points="471,-85 428,-85 428,-66 471,-66 471,-85"/>
<text text-anchor="middle" x="449.5" y="-73" font-family="Helvetica,sans-Serif" font-size="10.00">fcntl.h</text>
</a>
</g>
</g>
<!-- Node14&#45;&gt;Node17 -->
<g id="edge22" class="edge">
<title>Node14&#45;&gt;Node17</title>
<path fill="none" stroke="#63b8ff" d="M675.71,-175.59C651.43,-167.03 614.17,-153.45 582.5,-140 545.45,-124.26 503.71,-103.89 477.03,-90.52"/>
<polygon fill="#63b8ff" stroke="#63b8ff" points="478.77,-87.47 468.27,-86.1 475.62,-93.73 478.77,-87.47"/>
</g>
<!-- Node18 -->
<g id="node18" class="node">
<title>Node18</title>
<g id="a_node18"><a xlink:title=" ">
<polygon fill="#e0e0e0" stroke="#999999" points="558,-85 489,-85 489,-66 558,-66 558,-85"/>
<text text-anchor="middle" x="523.5" y="-73" font-family="Helvetica,sans-Serif" font-size="10.00">sys/mman.h</text>
</a>
</g>
</g>
<!-- Node14&#45;&gt;Node18 -->
<g id="edge23" class="edge">
<title>Node14&#45;&gt;Node18</title>
<path fill="none" stroke="#63b8ff" d="M682.09,-175.51C664.18,-167 637.04,-153.54 614.5,-140 589.56,-125.02 562.37,-105.61 544.27,-92.22"/>
<polygon fill="#63b8ff" stroke="#63b8ff" points="546.54,-89.54 536.44,-86.36 542.35,-95.15 546.54,-89.54"/>
</g>
<!-- Node19 -->
<g id="node19" class="node">
<title>Node19</title>
<g id="a_node19"><a xlink:title=" ">
<polygon fill="#e0e0e0" stroke="#999999" points="635,-85 576,-85 576,-66 635,-66 635,-85"/>
<text text-anchor="middle" x="605.5" y="-73" font-family="Helvetica,sans-Serif" font-size="10.00">sys/stat.h</text>
</a>
</g>
</g>
<!-- Node14&#45;&gt;Node19 -->
<g id="edge24" class="edge">
<title>Node14&#45;&gt;Node19</title>
<path fill="none" stroke="#63b8ff" d="M680.31,-175.65C664.67,-168.18 643.88,-156.12 630.5,-140 619.95,-127.3 613.48,-109.61 609.77,-96.13"/>
<polygon fill="#63b8ff" stroke="#63b8ff" points="613.23,-95.55 607.46,-86.66 606.43,-97.21 613.23,-95.55"/>
</g>
<!-- Node20 -->
<g id="node20" class="node">
<title>Node20</title>
<g id="a_node20"><a xlink:title=" ">
<polygon fill="#e0e0e0" stroke="#999999" points="833,-85 768,-85 768,-66 833,-66 833,-85"/>
<text text-anchor="middle" x="800.5" y="-73" font-family="Helvetica,sans-Serif" font-size="10.00">sys/types.h</text>
</a>
</g>
</g>
<!-- Node14&#45;&gt;Node20 -->
<g id="edge25" class="edge">
<title>Node14&#45;&gt;Node20</title>
<path fill="none" stroke="#63b8ff" d="M722.87,-175.62C738.66,-168.13 759.71,-156.05 773.5,-140 784.38,-127.34 791.41,-109.65 795.57,-96.15"/>
<polygon fill="#63b8ff" stroke="#63b8ff" points="798.9,-97.23 798.19,-86.66 792.15,-95.37 798.9,-97.23"/>
</g>
<!-- Node21 -->
<g id="node21" class="node">
<title>Node21</title>
<g id="a_node21"><a xlink:title=" ">
<polygon fill="#e0e0e0" stroke="#999999" points="901.5,-85 851.5,-85 851.5,-66 901.5,-66 901.5,-85"/>
<text text-anchor="middle" x="876.5" y="-73" font-family="Helvetica,sans-Serif" font-size="10.00">unistd.h</text>
</a>
</g>
</g>
<!-- Node14&#45;&gt;Node21 -->
<g id="edge26" class="edge">
<title>Node14&#45;&gt;Node21</title>
<path fill="none" stroke="#63b8ff" d="M722.97,-175.6C742.04,-167.35 770.38,-154.23 793.5,-140 816.75,-125.69 841.34,-106.26 857.67,-92.68"/>
<polygon fill="#63b8ff" stroke="#63b8ff" points="859.71,-95.54 865.09,-86.42 855.19,-90.19 859.71,-95.54"/>
</g>
<!-- Node22 -->
<g id="node22" class="node">
<title>Node22</title>
<g id="a_node22"><a xlink:href="_hw_accessor_8hpp.html" target="_top" xlink:title=" ">
<polygon fill="white" stroke="#666666" points="764,-140 639,-140 639,-121 764,-121 764,-140"/>
<text text-anchor="middle" x="701.5" y="-128" font-family="Helvetica,sans-Serif" font-size="10.00">udmaio/HwAccessor.hpp</text>
</a>
</g>
</g>
<!-- Node14&#45;&gt;Node22 -->
<g id="edge27" class="edge">
<title>Node14&#45;&gt;Node22</title>
<path fill="none" stroke="#63b8ff" d="M701.5,-175.75C701.5,-169.27 701.5,-160.16 701.5,-151.9"/>
<polygon fill="#63b8ff" stroke="#63b8ff" points="705,-151.96 701.5,-141.96 698,-151.96 705,-151.96"/>
</g>
<!-- Node23 -->
<g id="node23" class="node">
<title>Node23</title>
<g id="a_node23"><a xlink:href="_logging_8hpp.html" target="_top" xlink:title=" ">
<polygon fill="white" stroke="#666666" points="1245.5,-85 1141.5,-85 1141.5,-66 1245.5,-66 1245.5,-85"/>
<text text-anchor="middle" x="1193.5" y="-73" font-family="Helvetica,sans-Serif" font-size="10.00">udmaio/Logging.hpp</text>
</a>
</g>
</g>
<!-- Node14&#45;&gt;Node23 -->
<g id="edge49" class="edge">
<title>Node14&#45;&gt;Node23</title>
<path fill="none" stroke="#63b8ff" d="M746.91,-183.46C842.41,-180.68 1060.74,-171.03 1127.5,-140 1149.5,-129.77 1168.72,-109.18 1180.66,-94.21"/>
<polygon fill="#63b8ff" stroke="#63b8ff" points="1183.22,-96.63 1186.49,-86.55 1177.65,-92.39 1183.22,-96.63"/>
</g>
<!-- Node22&#45;&gt;Node3 -->
<g id="edge31" class="edge">
<title>Node22&#45;&gt;Node3</title>
<path fill="none" stroke="#63b8ff" d="M696.59,-120.58C688.12,-106.16 669.23,-78.14 644.5,-66 546.69,-17.98 261.99,-53.06 155.5,-30 153.48,-29.56 151.41,-29.04 149.35,-28.46"/>
<polygon fill="#63b8ff" stroke="#63b8ff" points="150.52,-25.16 139.93,-25.39 148.36,-31.81 150.52,-25.16"/>
</g>
<!-- Node22&#45;&gt;Node7 -->
<g id="edge33" class="edge">
<title>Node22&#45;&gt;Node7</title>
<path fill="none" stroke="#63b8ff" d="M640.43,-120.51C577.76,-111.28 480.26,-96.93 413.78,-87.14"/>
<polygon fill="#63b8ff" stroke="#63b8ff" points="414.47,-83.7 404.06,-85.71 413.45,-90.63 414.47,-83.7"/>
</g>
<!-- Node22&#45;&gt;Node8 -->
<g id="edge48" class="edge">
<title>Node22&#45;&gt;Node8</title>
<path fill="none" stroke="#63b8ff" d="M638.69,-123.73C555.83,-115.98 405.13,-101.43 266.56,-85.33"/>
<polygon fill="#63b8ff" stroke="#63b8ff" points="267.18,-81.88 256.84,-84.19 266.36,-88.83 267.18,-81.88"/>
</g>
<!-- Node22&#45;&gt;Node9 -->
<g id="edge30" class="edge">
<title>Node22&#45;&gt;Node9</title>
<path fill="none" stroke="#63b8ff" d="M700.4,-120.59C698.17,-102.53 693.07,-61.17 689.99,-36.21"/>
<polygon fill="#63b8ff" stroke="#63b8ff" points="693.48,-35.86 688.78,-26.37 686.53,-36.72 693.48,-35.86"/>
</g>
<!-- Node22&#45;&gt;Node11 -->
<g id="edge32" class="edge">
<title>Node22&#45;&gt;Node11</title>
<path fill="none" stroke="#63b8ff" d="M705.58,-120.59C713.97,-102.28 733.33,-60.02 744.71,-35.19"/>
<polygon fill="#63b8ff" stroke="#63b8ff" points="747.82,-36.79 748.81,-26.24 741.46,-33.87 747.82,-36.79"/>
</g>
<!-- Node22&#45;&gt;Node15 -->
<g id="edge28" class="edge">
<title>Node22&#45;&gt;Node15</title>
<path fill="none" stroke="#63b8ff" d="M743.94,-120.53C783.87,-112.07 845.62,-98.96 908.37,-85.45"/>
<polygon fill="#63b8ff" stroke="#63b8ff" points="908.75,-88.95 917.79,-83.42 907.28,-82.11 908.75,-88.95"/>
</g>
<!-- Node22&#45;&gt;Node16 -->
<g id="edge29" class="edge">
<title>Node22&#45;&gt;Node16</title>
<path fill="none" stroke="#63b8ff" d="M764.5,-121.41C820.28,-113.88 904.13,-101.62 986.03,-85.34"/>
<polygon fill="#63b8ff" stroke="#63b8ff" points="986.71,-88.77 995.82,-83.37 985.33,-81.91 986.71,-88.77"/>
</g>
<!-- Node22&#45;&gt;Node17 -->
<g id="edge34" class="edge">
<title>Node22&#45;&gt;Node17</title>
<path fill="none" stroke="#63b8ff" d="M651,-120.54C608.31,-112.71 545.32,-100.54 482.33,-85.55"/>
<polygon fill="#63b8ff" stroke="#63b8ff" points="483.42,-82.21 472.87,-83.27 481.78,-89.02 483.42,-82.21"/>
</g>
<!-- Node22&#45;&gt;Node18 -->
<g id="edge35" class="edge">
<title>Node22&#45;&gt;Node18</title>
<path fill="none" stroke="#63b8ff" d="M671.3,-120.51C641.94,-111.76 597.1,-98.42 564.52,-88.71"/>
<polygon fill="#63b8ff" stroke="#63b8ff" points="565.58,-85.38 555,-85.88 563.58,-92.09 565.58,-85.38"/>
</g>
<!-- Node22&#45;&gt;Node19 -->
<g id="edge36" class="edge">
<title>Node22&#45;&gt;Node19</title>
<path fill="none" stroke="#63b8ff" d="M685.21,-120.51C670.51,-112.39 648.61,-100.3 631.48,-90.85"/>
<polygon fill="#63b8ff" stroke="#63b8ff" points="633.32,-87.86 622.87,-86.09 629.93,-93.99 633.32,-87.86"/>
</g>
<!-- Node22&#45;&gt;Node20 -->
<g id="edge37" class="edge">
<title>Node22&#45;&gt;Node20</title>
<path fill="none" stroke="#63b8ff" d="M718.29,-120.51C733.6,-112.31 756.47,-100.07 774.2,-90.58"/>
<polygon fill="#63b8ff" stroke="#63b8ff" points="775.46,-93.88 782.62,-86.07 772.15,-87.71 775.46,-93.88"/>
</g>
<!-- Node22&#45;&gt;Node21 -->
<g id="edge38" class="edge">
<title>Node22&#45;&gt;Node21</title>
<path fill="none" stroke="#63b8ff" d="M731.19,-120.51C761.37,-111.37 808.16,-97.2 840.45,-87.42"/>
<polygon fill="#63b8ff" stroke="#63b8ff" points="841.22,-90.84 849.77,-84.59 839.19,-84.14 841.22,-90.84"/>
</g>
<!-- Node22&#45;&gt;Node23 -->
<g id="edge39" class="edge">
<title>Node22&#45;&gt;Node23</title>
<path fill="none" stroke="#63b8ff" d="M764.31,-122.73C858.44,-112.59 1035.12,-93.56 1129.77,-83.36"/>
<polygon fill="#63b8ff" stroke="#63b8ff" points="1130.11,-86.85 1139.67,-82.3 1129.36,-79.89 1130.11,-86.85"/>
</g>
<!-- Node23&#45;&gt;Node11 -->
<g id="edge40" class="edge">
<title>Node23&#45;&gt;Node11</title>
<path fill="none" stroke="#63b8ff" d="M1141.28,-67.66C1136.62,-67.08 1131.98,-66.52 1127.5,-66 974.81,-48.18 931.64,-71.07 783.5,-30 782.51,-29.72 781.5,-29.42 780.5,-29.09"/>
<polygon fill="#63b8ff" stroke="#63b8ff" points="781.93,-25.89 771.35,-25.43 779.33,-32.39 781.93,-25.89"/>
</g>
<!-- Node24 -->
<g id="node24" class="node">
<title>Node24</title>
<g id="a_node24"><a xlink:title=" ">
<polygon fill="#e0e0e0" stroke="#999999" points="1700.5,-24.5 1604.5,-24.5 1604.5,-5.5 1700.5,-5.5 1700.5,-24.5"/>
<text text-anchor="middle" x="1652.5" y="-12.5" font-family="Helvetica,sans-Serif" font-size="10.00">boost/log/core.hpp</text>
</a>
</g>
</g>
<!-- Node23&#45;&gt;Node24 -->
<g id="edge41" class="edge">
<title>Node23&#45;&gt;Node24</title>
<path fill="none" stroke="#63b8ff" d="M1245.85,-70.9C1322.87,-65.11 1471.05,-52.07 1595.5,-30 1599.6,-29.27 1603.85,-28.42 1608.09,-27.5"/>
<polygon fill="#63b8ff" stroke="#63b8ff" points="1608.76,-30.94 1617.72,-25.29 1607.19,-24.12 1608.76,-30.94"/>
</g>
<!-- Node25 -->
<g id="node25" class="node">
<title>Node25</title>
<g id="a_node25"><a xlink:title=" ">
<polygon fill="#e0e0e0" stroke="#999999" points="921,-24.5 792,-24.5 792,-5.5 921,-5.5 921,-24.5"/>
<text text-anchor="middle" x="856.5" y="-12.5" font-family="Helvetica,sans-Serif" font-size="10.00">boost/log/expressions.hpp</text>
</a>
</g>
</g>
<!-- Node23&#45;&gt;Node25 -->
<g id="edge42" class="edge">
<title>Node23&#45;&gt;Node25</title>
<path fill="none" stroke="#63b8ff" d="M1141.05,-65.93C1087.93,-57.18 1003.43,-43.07 930.5,-30 925.23,-29.06 919.75,-28.05 914.26,-27.04"/>
<polygon fill="#63b8ff" stroke="#63b8ff" points="915.01,-23.62 904.54,-25.23 913.73,-30.5 915.01,-23.62"/>
</g>
<!-- Node26 -->
<g id="node26" class="node">
<title>Node26</title>
<g id="a_node26"><a xlink:title=" ">
<polygon fill="#e0e0e0" stroke="#999999" points="1040,-24.5 939,-24.5 939,-5.5 1040,-5.5 1040,-24.5"/>
<text text-anchor="middle" x="989.5" y="-12.5" font-family="Helvetica,sans-Serif" font-size="10.00">boost/log/trivial.hpp</text>
</a>
</g>
</g>
<!-- Node23&#45;&gt;Node26 -->
<g id="edge43" class="edge">
<title>Node23&#45;&gt;Node26</title>
<path fill="none" stroke="#63b8ff" d="M1162.52,-65.62C1127.62,-55.61 1070.7,-39.29 1031.75,-28.12"/>
<polygon fill="#63b8ff" stroke="#63b8ff" points="1032.81,-24.78 1022.23,-25.39 1030.88,-31.51 1032.81,-24.78"/>
</g>
<!-- Node27 -->
<g id="node27" class="node">
<title>Node27</title>
<g id="a_node27"><a xlink:title=" ">
<polygon fill="#e0e0e0" stroke="#999999" points="1167,-30 1058,-30 1058,0 1167,0 1167,-30"/>
<text text-anchor="start" x="1066" y="-18" font-family="Helvetica,sans-Serif" font-size="10.00">boost/log/utility/setup</text>
<text text-anchor="middle" x="1112.5" y="-7" font-family="Helvetica,sans-Serif" font-size="10.00">/console.hpp</text>
</a>
</g>
</g>
<!-- Node23&#45;&gt;Node27 -->
<g id="edge44" class="edge">
<title>Node23&#45;&gt;Node27</title>
<path fill="none" stroke="#63b8ff" d="M1181.2,-65.62C1170.7,-58.03 1155.18,-46.82 1141.55,-36.98"/>
<polygon fill="#63b8ff" stroke="#63b8ff" points="1143.88,-34.34 1133.72,-31.33 1139.78,-40.02 1143.88,-34.34"/>
</g>
<!-- Node28 -->
<g id="node28" class="node">
<title>Node28</title>
<g id="a_node28"><a xlink:title=" ">
<polygon fill="#e0e0e0" stroke="#999999" points="1316,-30 1185,-30 1185,0 1316,0 1316,-30"/>
<text text-anchor="start" x="1193" y="-18" font-family="Helvetica,sans-Serif" font-size="10.00">boost/log/sources/severity</text>
<text text-anchor="middle" x="1250.5" y="-7" font-family="Helvetica,sans-Serif" font-size="10.00">_channel_logger.hpp</text>
</a>
</g>
</g>
<!-- Node23&#45;&gt;Node28 -->
<g id="edge45" class="edge">
<title>Node23&#45;&gt;Node28</title>
<path fill="none" stroke="#63b8ff" d="M1201.91,-65.87C1209,-58.59 1219.46,-47.85 1228.87,-38.2"/>
<polygon fill="#63b8ff" stroke="#63b8ff" points="1231.22,-40.8 1235.69,-31.2 1226.21,-35.92 1231.22,-40.8"/>
</g>
<!-- Node29 -->
<g id="node29" class="node">
<title>Node29</title>
<g id="a_node29"><a xlink:title=" ">
<polygon fill="#e0e0e0" stroke="#999999" points="1447,-30 1334,-30 1334,0 1447,0 1447,-30"/>
<text text-anchor="start" x="1342" y="-18" font-family="Helvetica,sans-Serif" font-size="10.00">boost/log/support/date</text>
<text text-anchor="middle" x="1390.5" y="-7" font-family="Helvetica,sans-Serif" font-size="10.00">_time.hpp</text>
</a>
</g>
</g>
<!-- Node23&#45;&gt;Node29 -->
<g id="edge46" class="edge">
<title>Node23&#45;&gt;Node29</title>
<path fill="none" stroke="#63b8ff" d="M1223.42,-65.62C1251.9,-57.16 1295.58,-44.19 1331.13,-33.63"/>
<polygon fill="#63b8ff" stroke="#63b8ff" points="1331.83,-37.07 1340.42,-30.87 1329.84,-30.36 1331.83,-37.07"/>
</g>
<!-- Node30 -->
<g id="node30" class="node">
<title>Node30</title>
<g id="a_node30"><a xlink:title=" ">
<polygon fill="#e0e0e0" stroke="#999999" points="1586,-30 1465,-30 1465,0 1586,0 1586,-30"/>
<text text-anchor="start" x="1473" y="-18" font-family="Helvetica,sans-Serif" font-size="10.00">boost/log/utility/setup</text>
<text text-anchor="middle" x="1525.5" y="-7" font-family="Helvetica,sans-Serif" font-size="10.00">/common_attributes.hpp</text>
</a>
</g>
</g>
<!-- Node23&#45;&gt;Node30 -->
<g id="edge47" class="edge">
<title>Node23&#45;&gt;Node30</title>
<path fill="none" stroke="#63b8ff" d="M1245.98,-66.14C1296.74,-57.93 1376.12,-44.8 1453.64,-30.5"/>
<polygon fill="#63b8ff" stroke="#63b8ff" points="1453.89,-34.01 1463.08,-28.75 1452.61,-27.13 1453.89,-34.01"/>
</g>
</g>
</svg>
