<?xml version="1.0" encoding="UTF-8" standalone="no"?>
<!DOCTYPE svg PUBLIC "-//W3C//DTD SVG 1.1//EN"
 "http://www.w3.org/Graphics/SVG/1.1/DTD/svg11.dtd">
<!-- Generated by graphviz version 7.0.5 (20221223.1930)
 -->
<!-- Title: UioAxiDmaIf.cpp Pages: 1 -->
<svg width="1877pt" height="258pt"
 viewBox="0.00 0.00 1876.50 258.00" xmlns="http://www.w3.org/2000/svg" xmlns:xlink="http://www.w3.org/1999/xlink">
<g id="graph0" class="graph" transform="scale(1 1) rotate(0) translate(4 254)">
<title>UioAxiDmaIf.cpp</title>
<!-- Node1 -->
<g id="node1" class="node">
<title>Node1</title>
<g id="a_node1"><a xlink:title=" ">
<polygon fill="#999999" stroke="#666666" points="1550.5,-250 1461.5,-250 1461.5,-231 1550.5,-231 1550.5,-250"/>
<text text-anchor="middle" x="1506" y="-238" font-family="Helvetica,sans-Serif" font-size="10.00">UioAxiDmaIf.cpp</text>
</a>
</g>
</g>
<!-- Node2 -->
<g id="node2" class="node">
<title>Node2</title>
<g id="a_node2"><a xlink:href="_uio_axi_dma_if_8hpp.html" target="_top" xlink:title=" ">
<polygon fill="white" stroke="#666666" points="1134,-195 1010,-195 1010,-176 1134,-176 1134,-195"/>
<text text-anchor="middle" x="1072" y="-183" font-family="Helvetica,sans-Serif" font-size="10.00">udmaio/UioAxiDmaIf.hpp</text>
</a>
</g>
</g>
<!-- Node1&#45;&gt;Node2 -->
<g id="edge1" class="edge">
<title>Node1&#45;&gt;Node2</title>
<path fill="none" stroke="#63b8ff" d="M1461.19,-234.03C1386.52,-224.91 1235.95,-206.52 1145.55,-195.48"/>
<polygon fill="#63b8ff" stroke="#63b8ff" points="1146.14,-192.03 1135.79,-194.29 1145.3,-198.98 1146.14,-192.03"/>
</g>
<!-- Node9 -->
<g id="node9" class="node">
<title>Node9</title>
<g id="a_node9"><a xlink:title=" ">
<polygon fill="#e0e0e0" stroke="#999999" points="118,-79.5 0,-79.5 0,-60.5 118,-60.5 118,-79.5"/>
<text text-anchor="middle" x="59" y="-67.5" font-family="Helvetica,sans-Serif" font-size="10.00">boost/log/core/core.hpp</text>
</a>
</g>
</g>
<!-- Node1&#45;&gt;Node9 -->
<g id="edge25" class="edge">
<title>Node1&#45;&gt;Node9</title>
<path fill="none" stroke="#63b8ff" d="M1461.02,-236.1C1372.73,-229.31 1170.56,-213.13 1001,-195 611.71,-153.37 513.25,-148.97 127,-85 121.78,-84.13 116.34,-83.15 110.92,-82.12"/>
<polygon fill="#63b8ff" stroke="#63b8ff" points="111.87,-78.74 101.38,-80.25 110.52,-85.61 111.87,-78.74"/>
</g>
<!-- Node12 -->
<g id="node12" class="node">
<title>Node12</title>
<g id="a_node12"><a xlink:title=" ">
<polygon fill="#e0e0e0" stroke="#999999" points="1749.5,-79.5 1608.5,-79.5 1608.5,-60.5 1749.5,-60.5 1749.5,-79.5"/>
<text text-anchor="middle" x="1679" y="-67.5" font-family="Helvetica,sans-Serif" font-size="10.00">boost/log/sources/logger.hpp</text>
</a>
</g>
</g>
<!-- Node1&#45;&gt;Node12 -->
<g id="edge26" class="edge">
<title>Node1&#45;&gt;Node12</title>
<path fill="none" stroke="#63b8ff" d="M1505.06,-230.79C1503.24,-209.29 1501.65,-153.1 1530,-121 1543.15,-106.11 1589.56,-91.98 1627.12,-82.56"/>
<polygon fill="#63b8ff" stroke="#63b8ff" points="1627.6,-86.05 1636.48,-80.28 1625.94,-79.25 1627.6,-86.05"/>
</g>
<!-- Node13 -->
<g id="node13" class="node">
<title>Node13</title>
<g id="a_node13"><a xlink:title=" ">
<polygon fill="#e0e0e0" stroke="#999999" points="1868.5,-79.5 1767.5,-79.5 1767.5,-60.5 1868.5,-60.5 1868.5,-79.5"/>
<text text-anchor="middle" x="1818" y="-67.5" font-family="Helvetica,sans-Serif" font-size="10.00">boost/log/trivial.hpp</text>
</a>
</g>
</g>
<!-- Node1&#45;&gt;Node13 -->
<g id="edge27" class="edge">
<title>Node1&#45;&gt;Node13</title>
<path fill="none" stroke="#63b8ff" d="M1512.16,-230.56C1521.82,-217.11 1541.75,-191.6 1564,-176 1630.03,-129.72 1719.56,-98.79 1772.79,-83.11"/>
<polygon fill="#63b8ff" stroke="#63b8ff" points="1773.49,-86.55 1782.13,-80.41 1771.55,-79.82 1773.49,-86.55"/>
</g>
<!-- Node24 -->
<g id="node24" class="node">
<title>Node24</title>
<g id="a_node24"><a xlink:title=" ">
<polygon fill="#e0e0e0" stroke="#999999" points="1601.5,-195 1572.5,-195 1572.5,-176 1601.5,-176 1601.5,-195"/>
<text text-anchor="middle" x="1587" y="-183" font-family="Helvetica,sans-Serif" font-size="10.00">ios</text>
</a>
</g>
</g>
<!-- Node1&#45;&gt;Node24 -->
<g id="edge24" class="edge">
<title>Node1&#45;&gt;Node24</title>
<path fill="none" stroke="#63b8ff" d="M1519.74,-230.51C1531.8,-222.62 1549.59,-210.98 1563.84,-201.65"/>
<polygon fill="#63b8ff" stroke="#63b8ff" points="1565.74,-204.59 1572.2,-196.19 1561.91,-198.73 1565.74,-204.59"/>
</g>
<!-- Node3 -->
<g id="node3" class="node">
<title>Node3</title>
<g id="a_node3"><a xlink:href="_uio_if_8hpp.html" target="_top" xlink:title=" ">
<polygon fill="white" stroke="#666666" points="928,-140 872,-140 872,-121 928,-121 928,-140"/>
<text text-anchor="middle" x="900" y="-128" font-family="Helvetica,sans-Serif" font-size="10.00">UioIf.hpp</text>
</a>
</g>
</g>
<!-- Node2&#45;&gt;Node3 -->
<g id="edge2" class="edge">
<title>Node2&#45;&gt;Node3</title>
<path fill="none" stroke="#63b8ff" d="M1042.82,-175.51C1014.27,-166.71 970.6,-153.25 939.06,-143.54"/>
<polygon fill="#63b8ff" stroke="#63b8ff" points="940.49,-140.32 929.91,-140.72 938.43,-147.01 940.49,-140.32"/>
</g>
<!-- Node4 -->
<g id="node4" class="node">
<title>Node4</title>
<g id="a_node4"><a xlink:title=" ">
<polygon fill="#e0e0e0" stroke="#999999" points="804,-79.5 744,-79.5 744,-60.5 804,-60.5 804,-79.5"/>
<text text-anchor="middle" x="774" y="-67.5" font-family="Helvetica,sans-Serif" font-size="10.00">filesystem</text>
</a>
</g>
</g>
<!-- Node3&#45;&gt;Node4 -->
<g id="edge3" class="edge">
<title>Node3&#45;&gt;Node4</title>
<path fill="none" stroke="#63b8ff" d="M880.86,-120.62C860.33,-111.08 827.44,-95.81 803.57,-84.73"/>
<polygon fill="#63b8ff" stroke="#63b8ff" points="805.23,-81.64 794.69,-80.61 802.29,-87.99 805.23,-81.64"/>
</g>
<!-- Node5 -->
<g id="node5" class="node">
<title>Node5</title>
<g id="a_node5"><a xlink:title=" ">
<polygon fill="#e0e0e0" stroke="#999999" points="872,-79.5 822,-79.5 822,-60.5 872,-60.5 872,-79.5"/>
<text text-anchor="middle" x="847" y="-67.5" font-family="Helvetica,sans-Serif" font-size="10.00">fstream</text>
</a>
</g>
</g>
<!-- Node3&#45;&gt;Node5 -->
<g id="edge4" class="edge">
<title>Node3&#45;&gt;Node5</title>
<path fill="none" stroke="#63b8ff" d="M892.18,-120.87C884.35,-112.23 872.1,-98.7 862.33,-87.92"/>
<polygon fill="#63b8ff" stroke="#63b8ff" points="865.18,-85.85 855.87,-80.79 859.99,-90.55 865.18,-85.85"/>
</g>
<!-- Node6 -->
<g id="node6" class="node">
<title>Node6</title>
<g id="a_node6"><a xlink:title=" ">
<polygon fill="#e0e0e0" stroke="#999999" points="931,-19 877,-19 877,0 931,0 931,-19"/>
<text text-anchor="middle" x="904" y="-7" font-family="Helvetica,sans-Serif" font-size="10.00">iostream</text>
</a>
</g>
</g>
<!-- Node3&#45;&gt;Node6 -->
<g id="edge5" class="edge">
<title>Node3&#45;&gt;Node6</title>
<path fill="none" stroke="#63b8ff" d="M900.3,-120.56C900.94,-101.51 902.45,-56.56 903.33,-30.37"/>
<polygon fill="#63b8ff" stroke="#63b8ff" points="906.82,-30.85 903.66,-20.74 899.82,-30.61 906.82,-30.85"/>
</g>
<!-- Node7 -->
<g id="node7" class="node">
<title>Node7</title>
<g id="a_node7"><a xlink:title=" ">
<polygon fill="#e0e0e0" stroke="#999999" points="1108.5,-79.5 1057.5,-79.5 1057.5,-60.5 1108.5,-60.5 1108.5,-79.5"/>
<text text-anchor="middle" x="1083" y="-67.5" font-family="Helvetica,sans-Serif" font-size="10.00">memory</text>
</a>
</g>
</g>
<!-- Node3&#45;&gt;Node7 -->
<g id="edge6" class="edge">
<title>Node3&#45;&gt;Node7</title>
<path fill="none" stroke="#63b8ff" d="M928.34,-121.79C958.3,-113.44 1006.84,-99.39 1048,-85 1048.97,-84.66 1049.96,-84.31 1050.95,-83.95"/>
<polygon fill="#63b8ff" stroke="#63b8ff" points="1052.12,-87.25 1060.23,-80.43 1049.64,-80.7 1052.12,-87.25"/>
</g>
<!-- Node8 -->
<g id="node8" class="node">
<title>Node8</title>
<g id="a_node8"><a xlink:title=" ">
<polygon fill="#e0e0e0" stroke="#999999" points="1263.5,-79.5 1126.5,-79.5 1126.5,-60.5 1263.5,-60.5 1263.5,-79.5"/>
<text text-anchor="middle" x="1195" y="-67.5" font-family="Helvetica,sans-Serif" font-size="10.00">boost/core/noncopyable.hpp</text>
</a>
</g>
</g>
<!-- Node3&#45;&gt;Node8 -->
<g id="edge7" class="edge">
<title>Node3&#45;&gt;Node8</title>
<path fill="none" stroke="#63b8ff" d="M928.29,-123.89C976.65,-114.3 1076.09,-94.58 1138.94,-82.12"/>
<polygon fill="#63b8ff" stroke="#63b8ff" points="1139.23,-85.63 1148.36,-80.25 1137.87,-78.76 1139.23,-85.63"/>
</g>
<!-- Node3&#45;&gt;Node9 -->
<g id="edge8" class="edge">
<title>Node3&#45;&gt;Node9</title>
<path fill="none" stroke="#63b8ff" d="M871.78,-128.43C750.8,-123.74 275.45,-104.45 127,-85 121.02,-84.22 114.79,-83.21 108.62,-82.09"/>
<polygon fill="#63b8ff" stroke="#63b8ff" points="109.64,-78.72 99.16,-80.26 108.32,-85.59 109.64,-78.72"/>
</g>
<!-- Node10 -->
<g id="node10" class="node">
<title>Node10</title>
<g id="a_node10"><a xlink:title=" ">
<polygon fill="#e0e0e0" stroke="#999999" points="1410.5,-79.5 1281.5,-79.5 1281.5,-60.5 1410.5,-60.5 1410.5,-79.5"/>
<text text-anchor="middle" x="1346" y="-67.5" font-family="Helvetica,sans-Serif" font-size="10.00">boost/log/expressions.hpp</text>
</a>
</g>
</g>
<!-- Node3&#45;&gt;Node10 -->
<g id="edge9" class="edge">
<title>Node3&#45;&gt;Node10</title>
<path fill="none" stroke="#63b8ff" d="M928.09,-126.8C990.25,-120.68 1144.08,-104.73 1272,-85 1277.98,-84.08 1284.21,-83.03 1290.41,-81.94"/>
<polygon fill="#63b8ff" stroke="#63b8ff" points="1290.77,-85.43 1299.99,-80.2 1289.52,-78.54 1290.77,-85.43"/>
</g>
<!-- Node11 -->
<g id="node11" class="node">
<title>Node11</title>
<g id="a_node11"><a xlink:title=" ">
<polygon fill="#e0e0e0" stroke="#999999" points="1529.5,-85 1428.5,-85 1428.5,-55 1529.5,-55 1529.5,-85"/>
<text text-anchor="start" x="1436.5" y="-73" font-family="Helvetica,sans-Serif" font-size="10.00">boost/log/keywords</text>
<text text-anchor="middle" x="1479" y="-62" font-family="Helvetica,sans-Serif" font-size="10.00">/severity.hpp</text>
</a>
</g>
</g>
<!-- Node3&#45;&gt;Node11 -->
<g id="edge10" class="edge">
<title>Node3&#45;&gt;Node11</title>
<path fill="none" stroke="#63b8ff" d="M928.3,-128.5C1005.22,-125.49 1224.65,-114.9 1416.87,-85.17"/>
<polygon fill="#63b8ff" stroke="#63b8ff" points="1417.2,-88.66 1426.54,-83.65 1416.12,-81.75 1417.2,-88.66"/>
</g>
<!-- Node3&#45;&gt;Node12 -->
<g id="edge11" class="edge">
<title>Node3&#45;&gt;Node12</title>
<path fill="none" stroke="#63b8ff" d="M928.44,-128.83C1023.74,-126.36 1340.36,-116.16 1600,-85 1607.26,-84.13 1614.85,-83.03 1622.35,-81.83"/>
<polygon fill="#63b8ff" stroke="#63b8ff" points="1622.82,-85.3 1632.1,-80.19 1621.66,-78.39 1622.82,-85.3"/>
</g>
<!-- Node3&#45;&gt;Node13 -->
<g id="edge12" class="edge">
<title>Node3&#45;&gt;Node13</title>
<path fill="none" stroke="#63b8ff" d="M928.36,-129.89C1036.78,-130.98 1435.27,-131.4 1759,-85 1763.88,-84.3 1768.95,-83.39 1773.97,-82.37"/>
<polygon fill="#63b8ff" stroke="#63b8ff" points="1774.32,-85.87 1783.34,-80.31 1772.82,-79.04 1774.32,-85.87"/>
</g>
<!-- Node14 -->
<g id="node14" class="node">
<title>Node14</title>
<g id="a_node14"><a xlink:title=" ">
<polygon fill="#e0e0e0" stroke="#999999" points="1590.5,-79.5 1547.5,-79.5 1547.5,-60.5 1590.5,-60.5 1590.5,-79.5"/>
<text text-anchor="middle" x="1569" y="-67.5" font-family="Helvetica,sans-Serif" font-size="10.00">fcntl.h</text>
</a>
</g>
</g>
<!-- Node3&#45;&gt;Node14 -->
<g id="edge13" class="edge">
<title>Node3&#45;&gt;Node14</title>
<path fill="none" stroke="#63b8ff" d="M928.37,-128.85C1036.14,-126.18 1419.97,-114.75 1538,-85 1539.17,-84.7 1540.36,-84.37 1541.54,-83.99"/>
<polygon fill="#63b8ff" stroke="#63b8ff" points="1542.52,-87.37 1550.6,-80.51 1540.01,-80.83 1542.52,-87.37"/>
</g>
<!-- Node15 -->
<g id="node15" class="node">
<title>Node15</title>
<g id="a_node15"><a xlink:title=" ">
<polygon fill="#e0e0e0" stroke="#999999" points="205.5,-79.5 136.5,-79.5 136.5,-60.5 205.5,-60.5 205.5,-79.5"/>
<text text-anchor="middle" x="171" y="-67.5" font-family="Helvetica,sans-Serif" font-size="10.00">sys/mman.h</text>
</a>
</g>
</g>
<!-- Node3&#45;&gt;Node15 -->
<g id="edge14" class="edge">
<title>Node3&#45;&gt;Node15</title>
<path fill="none" stroke="#63b8ff" d="M871.54,-128.6C758.77,-124.9 343.22,-109.82 214,-85 211.33,-84.49 208.6,-83.86 205.87,-83.15"/>
<polygon fill="#63b8ff" stroke="#63b8ff" points="206.86,-79.8 196.28,-80.35 204.9,-86.52 206.86,-79.8"/>
</g>
<!-- Node16 -->
<g id="node16" class="node">
<title>Node16</title>
<g id="a_node16"><a xlink:title=" ">
<polygon fill="#e0e0e0" stroke="#999999" points="282.5,-79.5 223.5,-79.5 223.5,-60.5 282.5,-60.5 282.5,-79.5"/>
<text text-anchor="middle" x="253" y="-67.5" font-family="Helvetica,sans-Serif" font-size="10.00">sys/stat.h</text>
</a>
</g>
</g>
<!-- Node3&#45;&gt;Node16 -->
<g id="edge15" class="edge">
<title>Node3&#45;&gt;Node16</title>
<path fill="none" stroke="#63b8ff" d="M871.55,-128.48C766.98,-124.55 404.07,-109.45 291,-85 288.97,-84.56 286.91,-84.04 284.85,-83.46"/>
<polygon fill="#63b8ff" stroke="#63b8ff" points="286.02,-80.16 275.43,-80.39 283.86,-86.82 286.02,-80.16"/>
</g>
<!-- Node17 -->
<g id="node17" class="node">
<title>Node17</title>
<g id="a_node17"><a xlink:title=" ">
<polygon fill="#e0e0e0" stroke="#999999" points="365.5,-79.5 300.5,-79.5 300.5,-60.5 365.5,-60.5 365.5,-79.5"/>
<text text-anchor="middle" x="333" y="-67.5" font-family="Helvetica,sans-Serif" font-size="10.00">sys/types.h</text>
</a>
</g>
</g>
<!-- Node3&#45;&gt;Node17 -->
<g id="edge16" class="edge">
<title>Node3&#45;&gt;Node17</title>
<path fill="none" stroke="#63b8ff" d="M871.78,-129.45C792.57,-128.8 561.8,-123.48 375,-85 372.55,-84.5 370.05,-83.89 367.55,-83.23"/>
<polygon fill="#63b8ff" stroke="#63b8ff" points="368.75,-79.94 358.17,-80.43 366.75,-86.64 368.75,-79.94"/>
</g>
<!-- Node18 -->
<g id="node18" class="node">
<title>Node18</title>
<g id="a_node18"><a xlink:title=" ">
<polygon fill="#e0e0e0" stroke="#999999" points="434,-79.5 384,-79.5 384,-60.5 434,-60.5 434,-79.5"/>
<text text-anchor="middle" x="409" y="-67.5" font-family="Helvetica,sans-Serif" font-size="10.00">unistd.h</text>
</a>
</g>
</g>
<!-- Node3&#45;&gt;Node18 -->
<g id="edge17" class="edge">
<title>Node3&#45;&gt;Node18</title>
<path fill="none" stroke="#63b8ff" d="M871.7,-129.6C799.24,-129.26 601.58,-124.45 443,-85 441.41,-84.61 439.8,-84.15 438.19,-83.65"/>
<polygon fill="#63b8ff" stroke="#63b8ff" points="439.75,-80.49 429.15,-80.37 437.36,-87.07 439.75,-80.49"/>
</g>
<!-- Node19 -->
<g id="node19" class="node">
<title>Node19</title>
<g id="a_node19"><a xlink:href="_uio_config_8hpp.html" target="_top" xlink:title=" ">
<polygon fill="white" stroke="#666666" points="1039.5,-79.5 928.5,-79.5 928.5,-60.5 1039.5,-60.5 1039.5,-79.5"/>
<text text-anchor="middle" x="984" y="-67.5" font-family="Helvetica,sans-Serif" font-size="10.00">udmaio/UioConfig.hpp</text>
</a>
</g>
</g>
<!-- Node3&#45;&gt;Node19 -->
<g id="edge18" class="edge">
<title>Node3&#45;&gt;Node19</title>
<path fill="none" stroke="#63b8ff" d="M912.76,-120.62C925.83,-111.51 946.41,-97.18 962.1,-86.25"/>
<polygon fill="#63b8ff" stroke="#63b8ff" points="963.67,-89.42 969.88,-80.83 959.67,-83.68 963.67,-89.42"/>
</g>
<!-- Node22 -->
<g id="node22" class="node">
<title>Node22</title>
<g id="a_node22"><a xlink:title=" ">
<polygon fill="#e0e0e0" stroke="#999999" points="576,-85 452,-85 452,-55 576,-55 576,-85"/>
<text text-anchor="start" x="460" y="-73" font-family="Helvetica,sans-Serif" font-size="10.00">boost/log/sources/record</text>
<text text-anchor="middle" x="514" y="-62" font-family="Helvetica,sans-Serif" font-size="10.00">_ostream.hpp</text>
</a>
</g>
</g>
<!-- Node3&#45;&gt;Node22 -->
<g id="edge22" class="edge">
<title>Node3&#45;&gt;Node22</title>
<path fill="none" stroke="#63b8ff" d="M871.68,-126.02C818.2,-119.35 698.43,-103.86 587.37,-85.34"/>
<polygon fill="#63b8ff" stroke="#63b8ff" points="588.24,-81.94 577.8,-83.73 587.08,-88.84 588.24,-81.94"/>
</g>
<!-- Node23 -->
<g id="node23" class="node">
<title>Node23</title>
<g id="a_node23"><a xlink:title=" ">
<polygon fill="#e0e0e0" stroke="#999999" points="725.5,-85 594.5,-85 594.5,-55 725.5,-55 725.5,-85"/>
<text text-anchor="start" x="602.5" y="-73" font-family="Helvetica,sans-Serif" font-size="10.00">boost/log/sources/severity</text>
<text text-anchor="middle" x="660" y="-62" font-family="Helvetica,sans-Serif" font-size="10.00">_logger.hpp</text>
</a>
</g>
</g>
<!-- Node3&#45;&gt;Node23 -->
<g id="edge23" class="edge">
<title>Node3&#45;&gt;Node23</title>
<path fill="none" stroke="#63b8ff" d="M871.53,-122.56C836.93,-114.13 777.33,-99.6 730.2,-88.11"/>
<polygon fill="#63b8ff" stroke="#63b8ff" points="731.14,-84.74 720.59,-85.77 729.48,-91.54 731.14,-84.74"/>
</g>
<!-- Node19&#45;&gt;Node6 -->
<g id="edge19" class="edge">
<title>Node19&#45;&gt;Node6</title>
<path fill="none" stroke="#63b8ff" d="M971.85,-60.12C959.52,-51.1 940.17,-36.95 925.28,-26.06"/>
<polygon fill="#63b8ff" stroke="#63b8ff" points="927.62,-23.44 917.49,-20.36 923.49,-29.09 927.62,-23.44"/>
</g>
<!-- Node20 -->
<g id="node20" class="node">
<title>Node20</title>
<g id="a_node20"><a xlink:title=" ">
<polygon fill="#e0e0e0" stroke="#999999" points="1010.5,-19 951.5,-19 951.5,0 1010.5,0 1010.5,-19"/>
<text text-anchor="middle" x="981" y="-7" font-family="Helvetica,sans-Serif" font-size="10.00">stdexcept</text>
</a>
</g>
</g>
<!-- Node19&#45;&gt;Node20 -->
<g id="edge20" class="edge">
<title>Node19&#45;&gt;Node20</title>
<path fill="none" stroke="#63b8ff" d="M983.56,-60.37C983.15,-52.5 982.54,-40.6 982.02,-30.39"/>
<polygon fill="#63b8ff" stroke="#63b8ff" points="985.53,-30.49 981.52,-20.68 978.54,-30.85 985.53,-30.49"/>
</g>
<!-- Node21 -->
<g id="node21" class="node">
<title>Node21</title>
<g id="a_node21"><a xlink:title=" ">
<polygon fill="#e0e0e0" stroke="#999999" points="1069.5,-19 1028.5,-19 1028.5,0 1069.5,0 1069.5,-19"/>
<text text-anchor="middle" x="1049" y="-7" font-family="Helvetica,sans-Serif" font-size="10.00">string</text>
</a>
</g>
</g>
<!-- Node19&#45;&gt;Node21 -->
<g id="edge21" class="edge">
<title>Node19&#45;&gt;Node21</title>
<path fill="none" stroke="#63b8ff" d="M993.87,-60.12C1003.61,-51.35 1018.72,-37.75 1030.66,-27"/>
<polygon fill="#63b8ff" stroke="#63b8ff" points="1032.82,-29.77 1037.91,-20.48 1028.14,-24.57 1032.82,-29.77"/>
</g>
</g>
</svg>
