<?xml version="1.0" encoding="UTF-8" standalone="no"?>
<!DOCTYPE svg PUBLIC "-//W3C//DTD SVG 1.1//EN"
 "http://www.w3.org/Graphics/SVG/1.1/DTD/svg11.dtd">
<!-- Generated by graphviz version 7.0.5 (20221223.1930)
 -->
<!-- Title: UioMemSgdma.cpp Pages: 1 -->
<!--zoomable 368 -->
<svg id="main" version="1.1" xmlns="http://www.w3.org/2000/svg" xmlns:xlink="http://www.w3.org/1999/xlink" xml:space="preserve" onload="init(evt)">
<style type="text/css"><![CDATA[
.edge:hover path { stroke: red; }
.edge:hover polygon { stroke: red; fill: red; }
]]></style>
<script type="text/javascript"><![CDATA[
var edges = document.getElementsByTagName('g');
if (edges && edges.length) {
  for (var i=0;i<edges.length;i++) {
    if (edges[i].id.substr(0,4)=='edge') {
      edges[i].setAttribute('class','edge');
    }
  }
}
]]></script>
        <defs>
                <circle id="rim" cx="0" cy="0" r="7"/>
                <circle id="rim2" cx="0" cy="0" r="3.5"/>
                <g id="zoomPlus">
                        <use xlink:href="#rim" fill="#404040">
                                <set attributeName="fill" to="#808080" begin="zoomplus.mouseover" end="zoomplus.mouseout"/>
                        </use>
                        <path d="M-4,0h8M0,-4v8" fill="none" stroke="white" stroke-width="1.5" pointer-events="none"/>
                </g>
                <g id="zoomMin">
                        <use xlink:href="#rim" fill="#404040">
                                <set attributeName="fill" to="#808080" begin="zoomminus.mouseover" end="zoomminus.mouseout"/>
                        </use>
                        <path d="M-4,0h8" fill="none" stroke="white" stroke-width="1.5" pointer-events="none"/>
                </g>
                <g id="dirArrow">
                        <path fill="none" stroke="white" stroke-width="1.5" d="M0,-3.0v7 M-2.5,-0.5L0,-3.0L2.5,-0.5"/>
                </g>
               <g id="resetDef">
                       <use xlink:href="#rim2" fill="#404040">
                               <set attributeName="fill" to="#808080" begin="reset.mouseover" end="reset.mouseout"/>
                       </use>
               </g>
        </defs>

<script type="text/javascript">
var viewWidth = 1895;
var viewHeight = 368;
var sectionId = 'dynsection-0';
</script>
<script xlink:href="svgpan.js"/>
<svg id="graph" class="graph">
<g id="viewport">
<title>UioMemSgdma.cpp</title>
<!-- Node1 -->
<g id="node1" class="node">
<title>Node1</title>
<g id="a_node1"><a xlink:title=" ">
<polygon fill="#999999" stroke="#666666" points="289.02,-360 187.02,-360 187.02,-341 289.02,-341 289.02,-360"/>
<text text-anchor="middle" x="238.02" y="-348" font-family="Helvetica,sans-Serif" font-size="10.00">UioMemSgdma.cpp</text>
</a>
</g>
</g>
<!-- Node2 -->
<g id="node2" class="node">
<title>Node2</title>
<g id="a_node2"><a xlink:href="_uio_mem_sgdma_8hpp.html" target="_top" xlink:title=" ">
<polygon fill="white" stroke="#666666" points="355.52,-305 218.52,-305 218.52,-286 355.52,-286 355.52,-305"/>
<text text-anchor="middle" x="287.02" y="-293" font-family="Helvetica,sans-Serif" font-size="10.00">udmaio/UioMemSgdma.hpp</text>
</a>
</g>
</g>
<!-- Node1&#45;&gt;Node2 -->
<g id="edge1" class="edge">
<title>Node1&#45;&gt;Node2</title>
<path fill="none" stroke="#63b8ff" d="M246.11,-340.75C252.88,-333.43 262.74,-322.76 271.08,-313.74"/>
<polygon fill="#63b8ff" stroke="#63b8ff" points="273.51,-316.27 277.72,-306.55 268.37,-311.52 273.51,-316.27"/>
</g>
<!-- Node4 -->
<g id="node4" class="node">
<title>Node4</title>
<g id="a_node4"><a xlink:title=" ">
<polygon fill="#e0e0e0" stroke="#999999" points="213.02,-195 167.02,-195 167.02,-176 213.02,-176 213.02,-195"/>
<text text-anchor="middle" x="190.02" y="-183" font-family="Helvetica,sans-Serif" font-size="10.00">cstdint</text>
</a>
</g>
</g>
<!-- Node1&#45;&gt;Node4 -->
<g id="edge50" class="edge">
<title>Node1&#45;&gt;Node4</title>
<path fill="none" stroke="#63b8ff" d="M230.57,-340.58C223.83,-332.01 214.2,-318.42 209.02,-305 196.3,-272.05 192.1,-230.77 190.7,-206.65"/>
<polygon fill="#63b8ff" stroke="#63b8ff" points="194.21,-206.79 190.26,-196.96 187.22,-207.11 194.21,-206.79"/>
</g>
<!-- Node3 -->
<g id="node3" class="node">
<title>Node3</title>
<g id="a_node3"><a xlink:href="_dma_buffer_abstract_8hpp.html" target="_top" xlink:title=" ">
<polygon fill="white" stroke="#666666" points="457.52,-250 340.52,-250 340.52,-231 457.52,-231 457.52,-250"/>
<text text-anchor="middle" x="399.02" y="-238" font-family="Helvetica,sans-Serif" font-size="10.00">DmaBufferAbstract.hpp</text>
</a>
</g>
</g>
<!-- Node2&#45;&gt;Node3 -->
<g id="edge2" class="edge">
<title>Node2&#45;&gt;Node3</title>
<path fill="none" stroke="#63b8ff" d="M306.02,-285.51C323.58,-277.2 349.93,-264.73 370.11,-255.18"/>
<polygon fill="#63b8ff" stroke="#63b8ff" points="371.39,-258.45 378.93,-251.01 368.4,-252.12 371.39,-258.45"/>
</g>
<!-- Node13 -->
<g id="node13" class="node">
<title>Node13</title>
<g id="a_node13"><a xlink:href="_reg_accessor_8hpp.html" target="_top" xlink:title=" ">
<polygon fill="white" stroke="#666666" points="322.52,-250 229.52,-250 229.52,-231 322.52,-231 322.52,-250"/>
<text text-anchor="middle" x="276.02" y="-238" font-family="Helvetica,sans-Serif" font-size="10.00">RegAccessor.hpp</text>
</a>
</g>
</g>
<!-- Node2&#45;&gt;Node13 -->
<g id="edge12" class="edge">
<title>Node2&#45;&gt;Node13</title>
<path fill="none" stroke="#63b8ff" d="M285.2,-285.75C283.84,-279.19 281.92,-269.95 280.19,-261.6"/>
<polygon fill="#63b8ff" stroke="#63b8ff" points="283.64,-261 278.18,-251.92 276.79,-262.43 283.64,-261"/>
</g>
<!-- Node3&#45;&gt;Node4 -->
<g id="edge3" class="edge">
<title>Node3&#45;&gt;Node4</title>
<path fill="none" stroke="#63b8ff" d="M363.56,-230.51C324.72,-220.66 262.85,-204.97 224.43,-195.23"/>
<polygon fill="#63b8ff" stroke="#63b8ff" points="225.33,-191.84 214.78,-192.78 223.61,-198.63 225.33,-191.84"/>
</g>
<!-- Node5 -->
<g id="node5" class="node">
<title>Node5</title>
<g id="a_node5"><a xlink:title=" ">
<polygon fill="#e0e0e0" stroke="#999999" points="583.02,-195 539.02,-195 539.02,-176 583.02,-176 583.02,-195"/>
<text text-anchor="middle" x="561.02" y="-183" font-family="Helvetica,sans-Serif" font-size="10.00">vector</text>
</a>
</g>
</g>
<!-- Node3&#45;&gt;Node5 -->
<g id="edge4" class="edge">
<title>Node3&#45;&gt;Node5</title>
<path fill="none" stroke="#63b8ff" d="M426.5,-230.51C454.52,-221.34 497.99,-207.12 527.89,-197.34"/>
<polygon fill="#63b8ff" stroke="#63b8ff" points="528.77,-200.73 537.19,-194.3 526.6,-194.08 528.77,-200.73"/>
</g>
<!-- Node6 -->
<g id="node6" class="node">
<title>Node6</title>
<g id="a_node6"><a xlink:title=" ">
<polygon fill="#e0e0e0" stroke="#999999" points="153.52,-85 16.52,-85 16.52,-66 153.52,-66 153.52,-85"/>
<text text-anchor="middle" x="85.02" y="-73" font-family="Helvetica,sans-Serif" font-size="10.00">boost/core/noncopyable.hpp</text>
</a>
</g>
</g>
<!-- Node3&#45;&gt;Node6 -->
<g id="edge5" class="edge">
<title>Node3&#45;&gt;Node6</title>
<path fill="none" stroke="#63b8ff" d="M381.69,-230.5C329.79,-203.56 175.33,-123.38 112.28,-90.65"/>
<polygon fill="#63b8ff" stroke="#63b8ff" points="114.13,-87.67 103.64,-86.17 110.9,-93.88 114.13,-87.67"/>
</g>
<!-- Node7 -->
<g id="node7" class="node">
<title>Node7</title>
<g id="a_node7"><a xlink:href="_uio_config_8hpp.html" target="_top" xlink:title=" ">
<polygon fill="white" stroke="#666666" points="919.52,-85 808.52,-85 808.52,-66 919.52,-66 919.52,-85"/>
<text text-anchor="middle" x="864.02" y="-73" font-family="Helvetica,sans-Serif" font-size="10.00">udmaio/UioConfig.hpp</text>
</a>
</g>
</g>
<!-- Node3&#45;&gt;Node7 -->
<g id="edge6" class="edge">
<title>Node3&#45;&gt;Node7</title>
<path fill="none" stroke="#63b8ff" d="M457.98,-238.84C544.89,-235.14 709.16,-217.45 821.02,-140 836.91,-129 848.61,-110.05 855.76,-95.71"/>
<polygon fill="#63b8ff" stroke="#63b8ff" points="858.85,-97.35 859.87,-86.81 852.5,-94.42 858.85,-97.35"/>
</g>
<!-- Node8 -->
<g id="node8" class="node">
<title>Node8</title>
<g id="a_node8"><a xlink:title=" ">
<polygon fill="#e0e0e0" stroke="#999999" points="740.02,-24.5 686.02,-24.5 686.02,-5.5 740.02,-5.5 740.02,-24.5"/>
<text text-anchor="middle" x="713.02" y="-12.5" font-family="Helvetica,sans-Serif" font-size="10.00">iostream</text>
</a>
</g>
</g>
<!-- Node7&#45;&gt;Node8 -->
<g id="edge7" class="edge">
<title>Node7&#45;&gt;Node8</title>
<path fill="none" stroke="#63b8ff" d="M841.1,-65.65C817.89,-56.67 780.95,-42.39 749.02,-30 748.22,-29.69 747.41,-29.38 746.6,-29.06"/>
<polygon fill="#63b8ff" stroke="#63b8ff" points="747.87,-25.8 737.28,-25.44 745.33,-32.32 747.87,-25.8"/>
</g>
<!-- Node9 -->
<g id="node9" class="node">
<title>Node9</title>
<g id="a_node9"><a xlink:title=" ">
<polygon fill="#e0e0e0" stroke="#999999" points="515.52,-24.5 464.52,-24.5 464.52,-5.5 515.52,-5.5 515.52,-24.5"/>
<text text-anchor="middle" x="490.02" y="-12.5" font-family="Helvetica,sans-Serif" font-size="10.00">memory</text>
</a>
</g>
</g>
<!-- Node7&#45;&gt;Node9 -->
<g id="edge8" class="edge">
<title>Node7&#45;&gt;Node9</title>
<path fill="none" stroke="#63b8ff" d="M808.03,-65.74C730.56,-53.62 592.8,-32.08 527,-21.78"/>
<polygon fill="#63b8ff" stroke="#63b8ff" points="527.87,-18.38 517.45,-20.29 526.79,-25.29 527.87,-18.38"/>
</g>
<!-- Node10 -->
<g id="node10" class="node">
<title>Node10</title>
<g id="a_node10"><a xlink:title=" ">
<polygon fill="#e0e0e0" stroke="#999999" points="901.52,-24.5 842.52,-24.5 842.52,-5.5 901.52,-5.5 901.52,-24.5"/>
<text text-anchor="middle" x="872.02" y="-12.5" font-family="Helvetica,sans-Serif" font-size="10.00">stdexcept</text>
</a>
</g>
</g>
<!-- Node7&#45;&gt;Node10 -->
<g id="edge9" class="edge">
<title>Node7&#45;&gt;Node10</title>
<path fill="none" stroke="#63b8ff" d="M865.2,-65.87C866.27,-58 867.9,-46.1 869.3,-35.89"/>
<polygon fill="#63b8ff" stroke="#63b8ff" points="872.74,-36.55 870.63,-26.17 865.81,-35.6 872.74,-36.55"/>
</g>
<!-- Node11 -->
<g id="node11" class="node">
<title>Node11</title>
<g id="a_node11"><a xlink:title=" ">
<polygon fill="#e0e0e0" stroke="#999999" points="960.52,-24.5 919.52,-24.5 919.52,-5.5 960.52,-5.5 960.52,-24.5"/>
<text text-anchor="middle" x="940.02" y="-12.5" font-family="Helvetica,sans-Serif" font-size="10.00">string</text>
</a>
</g>
</g>
<!-- Node7&#45;&gt;Node11 -->
<g id="edge10" class="edge">
<title>Node7&#45;&gt;Node11</title>
<path fill="none" stroke="#63b8ff" d="M875.56,-65.62C887.17,-56.68 905.31,-42.72 919.39,-31.87"/>
<polygon fill="#63b8ff" stroke="#63b8ff" points="921.38,-34.76 927.17,-25.89 917.11,-29.22 921.38,-34.76"/>
</g>
<!-- Node12 -->
<g id="node12" class="node">
<title>Node12</title>
<g id="a_node12"><a xlink:title=" ">
<polygon fill="#e0e0e0" stroke="#999999" points="824.02,-24.5 758.02,-24.5 758.02,-5.5 824.02,-5.5 824.02,-24.5"/>
<text text-anchor="middle" x="791.02" y="-12.5" font-family="Helvetica,sans-Serif" font-size="10.00">string_view</text>
</a>
</g>
</g>
<!-- Node7&#45;&gt;Node12 -->
<g id="edge11" class="edge">
<title>Node7&#45;&gt;Node12</title>
<path fill="none" stroke="#63b8ff" d="M852.93,-65.62C841.78,-56.68 824.36,-42.72 810.83,-31.87"/>
<polygon fill="#63b8ff" stroke="#63b8ff" points="813.38,-29.44 803.39,-25.91 809.01,-34.9 813.38,-29.44"/>
</g>
<!-- Node13&#45;&gt;Node4 -->
<g id="edge13" class="edge">
<title>Node13&#45;&gt;Node4</title>
<path fill="none" stroke="#63b8ff" d="M261.43,-230.51C248.5,-222.54 229.37,-210.75 214.17,-201.38"/>
<polygon fill="#63b8ff" stroke="#63b8ff" points="216.03,-198.42 205.68,-196.15 212.36,-204.38 216.03,-198.42"/>
</g>
<!-- Node14 -->
<g id="node14" class="node">
<title>Node14</title>
<g id="a_node14"><a xlink:href="_uio_if_8hpp.html" target="_top" xlink:title=" ">
<polygon fill="white" stroke="#666666" points="521.02,-195 431.02,-195 431.02,-176 521.02,-176 521.02,-195"/>
<text text-anchor="middle" x="476.02" y="-183" font-family="Helvetica,sans-Serif" font-size="10.00">udmaio/UioIf.hpp</text>
</a>
</g>
</g>
<!-- Node13&#45;&gt;Node14 -->
<g id="edge14" class="edge">
<title>Node13&#45;&gt;Node14</title>
<path fill="none" stroke="#63b8ff" d="M309.95,-230.51C343.38,-221.65 394.64,-208.07 431.36,-198.33"/>
<polygon fill="#63b8ff" stroke="#63b8ff" points="432.03,-201.78 440.8,-195.83 430.23,-195.01 432.03,-201.78"/>
</g>
<!-- Node14&#45;&gt;Node6 -->
<g id="edge20" class="edge">
<title>Node14&#45;&gt;Node6</title>
<path fill="none" stroke="#63b8ff" d="M434.44,-175.52C398.9,-167.45 346.6,-154.64 302.02,-140 280.61,-132.97 276.4,-128.09 255.02,-121 215.6,-107.93 170.04,-96.18 136.01,-88.04"/>
<polygon fill="#63b8ff" stroke="#63b8ff" points="136.95,-84.67 126.41,-85.77 135.34,-91.48 136.95,-84.67"/>
</g>
<!-- Node14&#45;&gt;Node7 -->
<g id="edge49" class="edge">
<title>Node14&#45;&gt;Node7</title>
<path fill="none" stroke="#63b8ff" d="M521.38,-177.29C524.3,-176.85 527.2,-176.41 530.02,-176 647.18,-158.79 686.68,-190.03 794.02,-140 816.71,-129.42 837.22,-108.9 850.09,-94.04"/>
<polygon fill="#63b8ff" stroke="#63b8ff" points="852.72,-96.35 856.42,-86.42 847.33,-91.87 852.72,-96.35"/>
</g>
<!-- Node14&#45;&gt;Node8 -->
<g id="edge17" class="edge">
<title>Node14&#45;&gt;Node8</title>
<path fill="none" stroke="#63b8ff" d="M521.4,-177.22C559.72,-170.23 615.6,-158.05 662.02,-140 708.93,-121.75 735.49,-128.38 761.02,-85 772.2,-66 753.48,-45.41 736.25,-31.71"/>
<polygon fill="#63b8ff" stroke="#63b8ff" points="738.36,-28.92 728.24,-25.76 734.19,-34.54 738.36,-28.92"/>
</g>
<!-- Node14&#45;&gt;Node9 -->
<g id="edge18" class="edge">
<title>Node14&#45;&gt;Node9</title>
<path fill="none" stroke="#63b8ff" d="M430.77,-180.78C302.23,-169.36 -52.11,-131.56 7.02,-66 36.78,-33 345.16,-20.44 453.02,-17.04"/>
<polygon fill="#63b8ff" stroke="#63b8ff" points="452.88,-20.54 462.76,-16.74 452.66,-13.55 452.88,-20.54"/>
</g>
<!-- Node14&#45;&gt;Node11 -->
<g id="edge19" class="edge">
<title>Node14&#45;&gt;Node11</title>
<path fill="none" stroke="#63b8ff" d="M521.38,-177.25C524.3,-176.82 527.2,-176.4 530.02,-176 659.07,-157.87 695.28,-174.24 821.02,-140 880.37,-123.84 914.25,-136.42 948.02,-85 957.63,-70.36 953.77,-50.14 948.62,-35.37"/>
<polygon fill="#63b8ff" stroke="#63b8ff" points="951.96,-34.3 945.01,-26.31 945.46,-36.89 951.96,-34.3"/>
</g>
<!-- Node15 -->
<g id="node15" class="node">
<title>Node15</title>
<g id="a_node15"><a xlink:title=" ">
<polygon fill="#e0e0e0" stroke="#999999" points="684.02,-85 624.02,-85 624.02,-66 684.02,-66 684.02,-85"/>
<text text-anchor="middle" x="654.02" y="-73" font-family="Helvetica,sans-Serif" font-size="10.00">filesystem</text>
</a>
</g>
</g>
<!-- Node14&#45;&gt;Node15 -->
<g id="edge15" class="edge">
<title>Node14&#45;&gt;Node15</title>
<path fill="none" stroke="#63b8ff" d="M521.33,-177.02C549.04,-170.7 584.02,-159.47 610.02,-140 625.61,-128.33 637.66,-109.47 645.18,-95.33"/>
<polygon fill="#63b8ff" stroke="#63b8ff" points="648.21,-97.1 649.55,-86.59 641.95,-93.97 648.21,-97.1"/>
</g>
<!-- Node16 -->
<g id="node16" class="node">
<title>Node16</title>
<g id="a_node16"><a xlink:title=" ">
<polygon fill="#e0e0e0" stroke="#999999" points="752.02,-85 702.02,-85 702.02,-66 752.02,-66 752.02,-85"/>
<text text-anchor="middle" x="727.02" y="-73" font-family="Helvetica,sans-Serif" font-size="10.00">fstream</text>
</a>
</g>
</g>
<!-- Node14&#45;&gt;Node16 -->
<g id="edge16" class="edge">
<title>Node14&#45;&gt;Node16</title>
<path fill="none" stroke="#63b8ff" d="M521.04,-175.57C552.94,-168.32 596.24,-156.56 632.02,-140 659.94,-127.07 688.91,-106.5 707.4,-92.29"/>
<polygon fill="#63b8ff" stroke="#63b8ff" points="709.38,-95.18 715.09,-86.26 705.06,-89.67 709.38,-95.18"/>
</g>
<!-- Node17 -->
<g id="node17" class="node">
<title>Node17</title>
<g id="a_node17"><a xlink:title=" ">
<polygon fill="#e0e0e0" stroke="#999999" points="214.52,-85 171.52,-85 171.52,-66 214.52,-66 214.52,-85"/>
<text text-anchor="middle" x="193.02" y="-73" font-family="Helvetica,sans-Serif" font-size="10.00">fcntl.h</text>
</a>
</g>
</g>
<!-- Node14&#45;&gt;Node17 -->
<g id="edge21" class="edge">
<title>Node14&#45;&gt;Node17</title>
<path fill="none" stroke="#63b8ff" d="M451.4,-175.62C426.91,-166.74 388.29,-152.64 355.02,-140 309.86,-122.85 257.9,-102.34 225.26,-89.37"/>
<polygon fill="#63b8ff" stroke="#63b8ff" points="226.96,-86.28 216.38,-85.84 224.37,-92.78 226.96,-86.28"/>
</g>
<!-- Node18 -->
<g id="node18" class="node">
<title>Node18</title>
<g id="a_node18"><a xlink:title=" ">
<polygon fill="#e0e0e0" stroke="#999999" points="301.52,-85 232.52,-85 232.52,-66 301.52,-66 301.52,-85"/>
<text text-anchor="middle" x="267.02" y="-73" font-family="Helvetica,sans-Serif" font-size="10.00">sys/mman.h</text>
</a>
</g>
</g>
<!-- Node14&#45;&gt;Node18 -->
<g id="edge22" class="edge">
<title>Node14&#45;&gt;Node18</title>
<path fill="none" stroke="#63b8ff" d="M458.91,-175.66C422.79,-156.99 338.42,-113.4 294.58,-90.74"/>
<polygon fill="#63b8ff" stroke="#63b8ff" points="296.19,-87.64 285.7,-86.16 292.98,-93.86 296.19,-87.64"/>
</g>
<!-- Node19 -->
<g id="node19" class="node">
<title>Node19</title>
<g id="a_node19"><a xlink:title=" ">
<polygon fill="#e0e0e0" stroke="#999999" points="378.52,-85 319.52,-85 319.52,-66 378.52,-66 378.52,-85"/>
<text text-anchor="middle" x="349.02" y="-73" font-family="Helvetica,sans-Serif" font-size="10.00">sys/stat.h</text>
</a>
</g>
</g>
<!-- Node14&#45;&gt;Node19 -->
<g id="edge23" class="edge">
<title>Node14&#45;&gt;Node19</title>
<path fill="none" stroke="#63b8ff" d="M465.63,-175.66C444.32,-157.55 395.42,-115.96 368.2,-92.81"/>
<polygon fill="#63b8ff" stroke="#63b8ff" points="370.59,-90.25 360.71,-86.44 366.06,-95.59 370.59,-90.25"/>
</g>
<!-- Node20 -->
<g id="node20" class="node">
<title>Node20</title>
<g id="a_node20"><a xlink:title=" ">
<polygon fill="#e0e0e0" stroke="#999999" points="461.52,-85 396.52,-85 396.52,-66 461.52,-66 461.52,-85"/>
<text text-anchor="middle" x="429.02" y="-73" font-family="Helvetica,sans-Serif" font-size="10.00">sys/types.h</text>
</a>
</g>
</g>
<!-- Node14&#45;&gt;Node20 -->
<g id="edge24" class="edge">
<title>Node14&#45;&gt;Node20</title>
<path fill="none" stroke="#63b8ff" d="M470.36,-175.54C464.94,-166.73 456.76,-152.77 451.02,-140 444.56,-125.65 438.8,-108.79 434.8,-96.05"/>
<polygon fill="#63b8ff" stroke="#63b8ff" points="438.23,-95.31 431.97,-86.77 431.53,-97.35 438.23,-95.31"/>
</g>
<!-- Node21 -->
<g id="node21" class="node">
<title>Node21</title>
<g id="a_node21"><a xlink:title=" ">
<polygon fill="#e0e0e0" stroke="#999999" points="606.02,-85 556.02,-85 556.02,-66 606.02,-66 606.02,-85"/>
<text text-anchor="middle" x="581.02" y="-73" font-family="Helvetica,sans-Serif" font-size="10.00">unistd.h</text>
</a>
</g>
</g>
<!-- Node14&#45;&gt;Node21 -->
<g id="edge25" class="edge">
<title>Node14&#45;&gt;Node21</title>
<path fill="none" stroke="#63b8ff" d="M512.72,-175.54C543.67,-167.15 584.43,-153.87 594.02,-140 603.12,-126.84 598.1,-108.71 591.84,-95.19"/>
<polygon fill="#63b8ff" stroke="#63b8ff" points="595.01,-93.7 587.27,-86.47 588.81,-96.95 595.01,-93.7"/>
</g>
<!-- Node22 -->
<g id="node22" class="node">
<title>Node22</title>
<g id="a_node22"><a xlink:href="_hw_accessor_8hpp.html" target="_top" xlink:title=" ">
<polygon fill="white" stroke="#666666" points="584.52,-140 459.52,-140 459.52,-121 584.52,-121 584.52,-140"/>
<text text-anchor="middle" x="522.02" y="-128" font-family="Helvetica,sans-Serif" font-size="10.00">udmaio/HwAccessor.hpp</text>
</a>
</g>
</g>
<!-- Node14&#45;&gt;Node22 -->
<g id="edge26" class="edge">
<title>Node14&#45;&gt;Node22</title>
<path fill="none" stroke="#63b8ff" d="M483.61,-175.75C489.9,-168.5 499.03,-157.98 506.81,-149.02"/>
<polygon fill="#63b8ff" stroke="#63b8ff" points="509.35,-151.43 513.27,-141.59 504.07,-146.84 509.35,-151.43"/>
</g>
<!-- Node23 -->
<g id="node23" class="node">
<title>Node23</title>
<g id="a_node23"><a xlink:href="_logging_8hpp.html" target="_top" xlink:title=" ">
<polygon fill="white" stroke="#666666" points="1290.02,-85 1186.02,-85 1186.02,-66 1290.02,-66 1290.02,-85"/>
<text text-anchor="middle" x="1238.02" y="-73" font-family="Helvetica,sans-Serif" font-size="10.00">udmaio/Logging.hpp</text>
</a>
</g>
</g>
<!-- Node14&#45;&gt;Node23 -->
<g id="edge48" class="edge">
<title>Node14&#45;&gt;Node23</title>
<path fill="none" stroke="#63b8ff" d="M521.36,-177.1C524.28,-176.7 527.19,-176.33 530.02,-176 738.1,-151.69 793.49,-175.15 1000.02,-140 1071.88,-127.77 1153.55,-103.68 1200.12,-88.94"/>
<polygon fill="#63b8ff" stroke="#63b8ff" points="1200.99,-92.33 1209.45,-85.96 1198.86,-85.66 1200.99,-92.33"/>
</g>
<!-- Node22&#45;&gt;Node6 -->
<g id="edge32" class="edge">
<title>Node22&#45;&gt;Node6</title>
<path fill="none" stroke="#63b8ff" d="M459.41,-121.91C382.01,-112.52 250.18,-96.53 165.39,-86.25"/>
<polygon fill="#63b8ff" stroke="#63b8ff" points="165.85,-82.78 155.5,-85.05 165.01,-89.73 165.85,-82.78"/>
</g>
<!-- Node22&#45;&gt;Node7 -->
<g id="edge47" class="edge">
<title>Node22&#45;&gt;Node7</title>
<path fill="none" stroke="#63b8ff" d="M580.03,-120.51C640.17,-111.19 734.05,-96.64 797.24,-86.85"/>
<polygon fill="#63b8ff" stroke="#63b8ff" points="797.43,-90.36 806.78,-85.37 796.36,-83.44 797.43,-90.36"/>
</g>
<!-- Node22&#45;&gt;Node8 -->
<g id="edge29" class="edge">
<title>Node22&#45;&gt;Node8</title>
<path fill="none" stroke="#63b8ff" d="M523.03,-120.76C525.08,-107.11 530.98,-80.77 547.02,-66 582.08,-33.71 637.29,-22.24 674.3,-18.18"/>
<polygon fill="#63b8ff" stroke="#63b8ff" points="674.49,-21.68 684.12,-17.25 673.83,-14.71 674.49,-21.68"/>
</g>
<!-- Node22&#45;&gt;Node9 -->
<g id="edge30" class="edge">
<title>Node22&#45;&gt;Node9</title>
<path fill="none" stroke="#63b8ff" d="M519.51,-120.59C514.39,-102.44 502.65,-60.79 495.62,-35.87"/>
<polygon fill="#63b8ff" stroke="#63b8ff" points="499.01,-35 492.93,-26.32 492.27,-36.9 499.01,-35"/>
</g>
<!-- Node22&#45;&gt;Node11 -->
<g id="edge31" class="edge">
<title>Node22&#45;&gt;Node11</title>
<path fill="none" stroke="#63b8ff" d="M584.78,-126.77C692.77,-121.48 904.6,-108.25 929.02,-85 942.05,-72.59 943.67,-51.4 942.73,-35.76"/>
<polygon fill="#63b8ff" stroke="#63b8ff" points="946.25,-35.79 941.75,-26.2 939.29,-36.5 946.25,-35.79"/>
</g>
<!-- Node22&#45;&gt;Node15 -->
<g id="edge27" class="edge">
<title>Node22&#45;&gt;Node15</title>
<path fill="none" stroke="#63b8ff" d="M544.41,-120.51C565.59,-112.01 597.61,-99.15 621.58,-89.53"/>
<polygon fill="#63b8ff" stroke="#63b8ff" points="622.58,-92.9 630.55,-85.92 619.97,-86.4 622.58,-92.9"/>
</g>
<!-- Node22&#45;&gt;Node16 -->
<g id="edge28" class="edge">
<title>Node22&#45;&gt;Node16</title>
<path fill="none" stroke="#63b8ff" d="M556.79,-120.51C594.06,-110.87 652.95,-95.65 690.78,-85.87"/>
<polygon fill="#63b8ff" stroke="#63b8ff" points="691.52,-89.29 700.33,-83.4 689.77,-82.52 691.52,-89.29"/>
</g>
<!-- Node22&#45;&gt;Node17 -->
<g id="edge33" class="edge">
<title>Node22&#45;&gt;Node17</title>
<path fill="none" stroke="#63b8ff" d="M459.18,-122.53C400.93,-115.53 311.71,-103.45 226.12,-85.45"/>
<polygon fill="#63b8ff" stroke="#63b8ff" points="226.88,-82.03 216.37,-83.36 225.42,-88.88 226.88,-82.03"/>
</g>
<!-- Node22&#45;&gt;Node18 -->
<g id="edge34" class="edge">
<title>Node22&#45;&gt;Node18</title>
<path fill="none" stroke="#63b8ff" d="M478.76,-120.51C432.68,-110.93 360.04,-95.83 312.96,-86.05"/>
<polygon fill="#63b8ff" stroke="#63b8ff" points="313.85,-82.66 303.35,-84.05 312.43,-89.51 313.85,-82.66"/>
</g>
<!-- Node22&#45;&gt;Node19 -->
<g id="edge35" class="edge">
<title>Node22&#45;&gt;Node19</title>
<path fill="none" stroke="#63b8ff" d="M492.67,-120.51C464.13,-111.76 420.56,-98.42 388.88,-88.71"/>
<polygon fill="#63b8ff" stroke="#63b8ff" points="390.25,-85.47 379.67,-85.89 388.2,-92.17 390.25,-85.47"/>
</g>
<!-- Node22&#45;&gt;Node20 -->
<g id="edge36" class="edge">
<title>Node22&#45;&gt;Node20</title>
<path fill="none" stroke="#63b8ff" d="M506.24,-120.51C491.99,-112.39 470.78,-100.3 454.19,-90.85"/>
<polygon fill="#63b8ff" stroke="#63b8ff" points="456.3,-88.02 445.88,-86.11 452.83,-94.1 456.3,-88.02"/>
</g>
<!-- Node22&#45;&gt;Node21 -->
<g id="edge37" class="edge">
<title>Node22&#45;&gt;Node21</title>
<path fill="none" stroke="#63b8ff" d="M532.03,-120.51C540.38,-113 552.52,-102.1 562.62,-93.03"/>
<polygon fill="#63b8ff" stroke="#63b8ff" points="564.93,-95.66 570.03,-86.37 560.25,-90.45 564.93,-95.66"/>
</g>
<!-- Node22&#45;&gt;Node23 -->
<g id="edge38" class="edge">
<title>Node22&#45;&gt;Node23</title>
<path fill="none" stroke="#63b8ff" d="M584.93,-124.84C720.38,-114.82 1038.33,-91.28 1174.41,-81.21"/>
<polygon fill="#63b8ff" stroke="#63b8ff" points="1174.61,-84.7 1184.32,-80.47 1174.09,-77.72 1174.61,-84.7"/>
</g>
<!-- Node23&#45;&gt;Node11 -->
<g id="edge39" class="edge">
<title>Node23&#45;&gt;Node11</title>
<path fill="none" stroke="#63b8ff" d="M1185.67,-70.06C1130.93,-64.43 1043,-52.62 970.02,-30 969.22,-29.75 968.41,-29.48 967.59,-29.2"/>
<polygon fill="#63b8ff" stroke="#63b8ff" points="969.13,-26.05 958.55,-25.54 966.5,-32.54 969.13,-26.05"/>
</g>
<!-- Node24 -->
<g id="node24" class="node">
<title>Node24</title>
<g id="a_node24"><a xlink:title=" ">
<polygon fill="#e0e0e0" stroke="#999999" points="1887.02,-24.5 1791.02,-24.5 1791.02,-5.5 1887.02,-5.5 1887.02,-24.5"/>
<text text-anchor="middle" x="1839.02" y="-12.5" font-family="Helvetica,sans-Serif" font-size="10.00">boost/log/core.hpp</text>
</a>
</g>
</g>
<!-- Node23&#45;&gt;Node24 -->
<g id="edge40" class="edge">
<title>Node23&#45;&gt;Node24</title>
<path fill="none" stroke="#63b8ff" d="M1290.49,-72.98C1387.92,-69.55 1603.14,-59.09 1782.02,-30 1786.36,-29.29 1790.87,-28.43 1795.35,-27.47"/>
<polygon fill="#63b8ff" stroke="#63b8ff" points="1795.9,-30.94 1804.87,-25.31 1794.34,-24.11 1795.9,-30.94"/>
</g>
<!-- Node25 -->
<g id="node25" class="node">
<title>Node25</title>
<g id="a_node25"><a xlink:title=" ">
<polygon fill="#e0e0e0" stroke="#999999" points="1107.52,-24.5 978.52,-24.5 978.52,-5.5 1107.52,-5.5 1107.52,-24.5"/>
<text text-anchor="middle" x="1043.02" y="-12.5" font-family="Helvetica,sans-Serif" font-size="10.00">boost/log/expressions.hpp</text>
</a>
</g>
</g>
<!-- Node23&#45;&gt;Node25 -->
<g id="edge41" class="edge">
<title>Node23&#45;&gt;Node25</title>
<path fill="none" stroke="#63b8ff" d="M1208.4,-65.62C1175.19,-55.65 1121.11,-39.43 1083.88,-28.26"/>
<polygon fill="#63b8ff" stroke="#63b8ff" points="1084.95,-24.92 1074.36,-25.4 1082.94,-31.63 1084.95,-24.92"/>
</g>
<!-- Node26 -->
<g id="node26" class="node">
<title>Node26</title>
<g id="a_node26"><a xlink:title=" ">
<polygon fill="#e0e0e0" stroke="#999999" points="1226.52,-24.5 1125.52,-24.5 1125.52,-5.5 1226.52,-5.5 1226.52,-24.5"/>
<text text-anchor="middle" x="1176.02" y="-12.5" font-family="Helvetica,sans-Serif" font-size="10.00">boost/log/trivial.hpp</text>
</a>
</g>
</g>
<!-- Node23&#45;&gt;Node26 -->
<g id="edge42" class="edge">
<title>Node23&#45;&gt;Node26</title>
<path fill="none" stroke="#63b8ff" d="M1228.6,-65.62C1219.41,-56.94 1205.18,-43.52 1193.85,-32.82"/>
<polygon fill="#63b8ff" stroke="#63b8ff" points="1196.3,-30.32 1186.62,-26.01 1191.5,-35.42 1196.3,-30.32"/>
</g>
<!-- Node27 -->
<g id="node27" class="node">
<title>Node27</title>
<g id="a_node27"><a xlink:title=" ">
<polygon fill="#e0e0e0" stroke="#999999" points="1353.52,-30 1244.52,-30 1244.52,0 1353.52,0 1353.52,-30"/>
<text text-anchor="start" x="1252.52" y="-18" font-family="Helvetica,sans-Serif" font-size="10.00">boost/log/utility/setup</text>
<text text-anchor="middle" x="1299.02" y="-7" font-family="Helvetica,sans-Serif" font-size="10.00">/console.hpp</text>
</a>
</g>
</g>
<!-- Node23&#45;&gt;Node27 -->
<g id="edge43" class="edge">
<title>Node23&#45;&gt;Node27</title>
<path fill="none" stroke="#63b8ff" d="M1247.28,-65.62C1254.81,-58.4 1265.76,-47.89 1275.65,-38.41"/>
<polygon fill="#63b8ff" stroke="#63b8ff" points="1278.07,-40.93 1282.87,-31.49 1273.23,-35.88 1278.07,-40.93"/>
</g>
<!-- Node28 -->
<g id="node28" class="node">
<title>Node28</title>
<g id="a_node28"><a xlink:title=" ">
<polygon fill="#e0e0e0" stroke="#999999" points="1502.52,-30 1371.52,-30 1371.52,0 1502.52,0 1502.52,-30"/>
<text text-anchor="start" x="1379.52" y="-18" font-family="Helvetica,sans-Serif" font-size="10.00">boost/log/sources/severity</text>
<text text-anchor="middle" x="1437.02" y="-7" font-family="Helvetica,sans-Serif" font-size="10.00">_channel_logger.hpp</text>
</a>
</g>
</g>
<!-- Node23&#45;&gt;Node28 -->
<g id="edge44" class="edge">
<title>Node23&#45;&gt;Node28</title>
<path fill="none" stroke="#63b8ff" d="M1268.24,-65.62C1297.01,-57.16 1341.13,-44.19 1377.04,-33.63"/>
<polygon fill="#63b8ff" stroke="#63b8ff" points="1377.84,-37.04 1386.45,-30.87 1375.87,-30.33 1377.84,-37.04"/>
</g>
<!-- Node29 -->
<g id="node29" class="node">
<title>Node29</title>
<g id="a_node29"><a xlink:title=" ">
<polygon fill="#e0e0e0" stroke="#999999" points="1633.52,-30 1520.52,-30 1520.52,0 1633.52,0 1633.52,-30"/>
<text text-anchor="start" x="1528.52" y="-18" font-family="Helvetica,sans-Serif" font-size="10.00">boost/log/support/date</text>
<text text-anchor="middle" x="1577.02" y="-7" font-family="Helvetica,sans-Serif" font-size="10.00">_time.hpp</text>
</a>
</g>
</g>
<!-- Node23&#45;&gt;Node29 -->
<g id="edge45" class="edge">
<title>Node23&#45;&gt;Node29</title>
<path fill="none" stroke="#63b8ff" d="M1290.43,-66.8C1343.25,-58.86 1427.38,-45.72 1509.08,-30.5"/>
<polygon fill="#63b8ff" stroke="#63b8ff" points="1509.66,-33.95 1518.85,-28.67 1508.37,-27.07 1509.66,-33.95"/>
</g>
<!-- Node30 -->
<g id="node30" class="node">
<title>Node30</title>
<g id="a_node30"><a xlink:title=" ">
<polygon fill="#e0e0e0" stroke="#999999" points="1772.52,-30 1651.52,-30 1651.52,0 1772.52,0 1772.52,-30"/>
<text text-anchor="start" x="1659.52" y="-18" font-family="Helvetica,sans-Serif" font-size="10.00">boost/log/utility/setup</text>
<text text-anchor="middle" x="1712.02" y="-7" font-family="Helvetica,sans-Serif" font-size="10.00">/common_attributes.hpp</text>
</a>
</g>
</g>
<!-- Node23&#45;&gt;Node30 -->
<g id="edge46" class="edge">
<title>Node23&#45;&gt;Node30</title>
<path fill="none" stroke="#63b8ff" d="M1290.32,-70.28C1365.57,-63.88 1508.93,-50.42 1640.09,-30.37"/>
<polygon fill="#63b8ff" stroke="#63b8ff" points="1640.28,-33.89 1649.62,-28.9 1639.21,-26.97 1640.28,-33.89"/>
</g>
</g>
</svg>
        <g id="navigator" transform="translate(0 0)" fill="#404254">
                <rect fill="#f2f5e9" fill-opacity="0.5" stroke="#606060" stroke-width=".5" x="0" y="0" width="60" height="60"/>
                <use id="zoomplus" xlink:href="#zoomPlus" x="17" y="9" onmousedown="handleZoom(evt,'in')"/>
                <use id="zoomminus" xlink:href="#zoomMin" x="42" y="9" onmousedown="handleZoom(evt,'out')"/>
                <use id="reset" xlink:href="#resetDef" x="30" y="36" onmousedown="handleReset()"/>
                <g id="arrowUp" xlink:href="#dirArrow" transform="translate(30 24)" onmousedown="handlePan(0,-1)">
                  <use xlink:href="#rim" fill="#404040">
                        <set attributeName="fill" to="#808080" begin="arrowUp.mouseover" end="arrowUp.mouseout"/>
                  </use>
                  <path fill="none" stroke="white" stroke-width="1.5" d="M0,-3.0v7 M-2.5,-0.5L0,-3.0L2.5,-0.5"/>
                </g>
                <g id="arrowRight" xlink:href="#dirArrow" transform="rotate(90) translate(36 -43)" onmousedown="handlePan(1,0)">
                  <use xlink:href="#rim" fill="#404040">
                        <set attributeName="fill" to="#808080" begin="arrowRight.mouseover" end="arrowRight.mouseout"/>
                  </use>
                  <path fill="none" stroke="white" stroke-width="1.5" d="M0,-3.0v7 M-2.5,-0.5L0,-3.0L2.5,-0.5"/>
                </g>
                <g id="arrowDown" xlink:href="#dirArrow" transform="rotate(180) translate(-30 -48)" onmousedown="handlePan(0,1)">
                  <use xlink:href="#rim" fill="#404040">
                        <set attributeName="fill" to="#808080" begin="arrowDown.mouseover" end="arrowDown.mouseout"/>
                  </use>
                  <path fill="none" stroke="white" stroke-width="1.5" d="M0,-3.0v7 M-2.5,-0.5L0,-3.0L2.5,-0.5"/>
                </g>
                <g id="arrowLeft" xlink:href="#dirArrow" transform="rotate(270) translate(-36 17)" onmousedown="handlePan(-1,0)">
                  <use xlink:href="#rim" fill="#404040">
                        <set attributeName="fill" to="#808080" begin="arrowLeft.mouseover" end="arrowLeft.mouseout"/>
                  </use>
                  <path fill="none" stroke="white" stroke-width="1.5" d="M0,-3.0v7 M-2.5,-0.5L0,-3.0L2.5,-0.5"/>
                </g>
        </g>
        <svg viewBox="0 0 15 15" width="100%" height="30px" preserveAspectRatio="xMaxYMin meet">
         <g id="arrow_out" transform="scale(0.3 0.3)">
          <a xlink:href="_uio_mem_sgdma_8cpp__incl_org.svg" target="_base">
           <rect id="button" ry="5" rx="5" y="6" x="6" height="38" width="38"
                fill="#f2f5e9" fill-opacity="0.5" stroke="#606060" stroke-width="1.0"/>
           <path id="arrow"
             d="M 11.500037,31.436501 C 11.940474,20.09759 22.043105,11.32322 32.158766,21.979434 L 37.068811,17.246167 C 37.068811,17.246167 37.088388,32 37.088388,32 L 22.160133,31.978069 C 22.160133,31.978069 26.997745,27.140456 26.997745,27.140456 C 18.528582,18.264221 13.291696,25.230495 11.500037,31.436501 z"
             style="fill:#404040;"/>
          </a>
         </g>
        </svg>
</svg>
