<?xml version="1.0" encoding="UTF-8" standalone="no"?>
<!DOCTYPE svg PUBLIC "-//W3C//DTD SVG 1.1//EN"
 "http://www.w3.org/Graphics/SVG/1.1/DTD/svg11.dtd">
<!-- Generated by graphviz version 7.0.5 (20221223.1930)
 -->
<!-- Title: UioAxiDmaIf.cpp Pages: 1 -->
<!--zoomable 313 -->
<svg id="main" version="1.1" xmlns="http://www.w3.org/2000/svg" xmlns:xlink="http://www.w3.org/1999/xlink" xml:space="preserve" onload="init(evt)">
<style type="text/css"><![CDATA[
.edge:hover path { stroke: red; }
.edge:hover polygon { stroke: red; fill: red; }
]]></style>
<script type="text/javascript"><![CDATA[
var edges = document.getElementsByTagName('g');
if (edges && edges.length) {
  for (var i=0;i<edges.length;i++) {
    if (edges[i].id.substr(0,4)=='edge') {
      edges[i].setAttribute('class','edge');
    }
  }
}
]]></script>
        <defs>
                <circle id="rim" cx="0" cy="0" r="7"/>
                <circle id="rim2" cx="0" cy="0" r="3.5"/>
                <g id="zoomPlus">
                        <use xlink:href="#rim" fill="#404040">
                                <set attributeName="fill" to="#808080" begin="zoomplus.mouseover" end="zoomplus.mouseout"/>
                        </use>
                        <path d="M-4,0h8M0,-4v8" fill="none" stroke="white" stroke-width="1.5" pointer-events="none"/>
                </g>
                <g id="zoomMin">
                        <use xlink:href="#rim" fill="#404040">
                                <set attributeName="fill" to="#808080" begin="zoomminus.mouseover" end="zoomminus.mouseout"/>
                        </use>
                        <path d="M-4,0h8" fill="none" stroke="white" stroke-width="1.5" pointer-events="none"/>
                </g>
                <g id="dirArrow">
                        <path fill="none" stroke="white" stroke-width="1.5" d="M0,-3.0v7 M-2.5,-0.5L0,-3.0L2.5,-0.5"/>
                </g>
               <g id="resetDef">
                       <use xlink:href="#rim2" fill="#404040">
                               <set attributeName="fill" to="#808080" begin="reset.mouseover" end="reset.mouseout"/>
                       </use>
               </g>
        </defs>

<script type="text/javascript">
var viewWidth = 1304;
var viewHeight = 313;
var sectionId = 'dynsection-0';
</script>
<script xlink:href="svgpan.js"/>
<svg id="graph" class="graph">
<g id="viewport">
<title>UioAxiDmaIf.cpp</title>
<!-- Node1 -->
<g id="node1" class="node">
<title>Node1</title>
<g id="a_node1"><a xlink:title=" ">
<polygon fill="#999999" stroke="#666666" points="554.5,-305 465.5,-305 465.5,-286 554.5,-286 554.5,-305"/>
<text text-anchor="middle" x="510" y="-293" font-family="Helvetica,sans-Serif" font-size="10.00">UioAxiDmaIf.cpp</text>
</a>
</g>
</g>
<!-- Node2 -->
<g id="node2" class="node">
<title>Node2</title>
<g id="a_node2"><a xlink:href="_uio_axi_dma_if_8hpp.html" target="_top" xlink:title=" ">
<polygon fill="white" stroke="#666666" points="525,-250 401,-250 401,-231 525,-231 525,-250"/>
<text text-anchor="middle" x="463" y="-238" font-family="Helvetica,sans-Serif" font-size="10.00">udmaio/UioAxiDmaIf.hpp</text>
</a>
</g>
</g>
<!-- Node1&#45;&gt;Node2 -->
<g id="edge1" class="edge">
<title>Node1&#45;&gt;Node2</title>
<path fill="none" stroke="#63b8ff" d="M502.24,-285.75C495.81,-278.5 486.49,-267.98 478.54,-259.02"/>
<polygon fill="#63b8ff" stroke="#63b8ff" points="481.19,-256.73 471.93,-251.57 475.95,-261.38 481.19,-256.73"/>
</g>
<!-- Node30 -->
<g id="node30" class="node">
<title>Node30</title>
<g id="a_node30"><a xlink:title=" ">
<polygon fill="#e0e0e0" stroke="#999999" points="572.5,-250 543.5,-250 543.5,-231 572.5,-231 572.5,-250"/>
<text text-anchor="middle" x="558" y="-238" font-family="Helvetica,sans-Serif" font-size="10.00">ios</text>
</a>
</g>
</g>
<!-- Node1&#45;&gt;Node30 -->
<g id="edge35" class="edge">
<title>Node1&#45;&gt;Node30</title>
<path fill="none" stroke="#63b8ff" d="M517.93,-285.75C524.56,-278.43 534.22,-267.76 542.39,-258.74"/>
<polygon fill="#63b8ff" stroke="#63b8ff" points="544.77,-261.33 548.89,-251.56 539.58,-256.63 544.77,-261.33"/>
</g>
<!-- Node3 -->
<g id="node3" class="node">
<title>Node3</title>
<g id="a_node3"><a xlink:href="_axi_dma_8hpp.html" target="_top" xlink:title=" ">
<polygon fill="white" stroke="#666666" points="398,-195 330,-195 330,-176 398,-176 398,-195"/>
<text text-anchor="middle" x="364" y="-183" font-family="Helvetica,sans-Serif" font-size="10.00">AxiDma.hpp</text>
</a>
</g>
</g>
<!-- Node2&#45;&gt;Node3 -->
<g id="edge2" class="edge">
<title>Node2&#45;&gt;Node3</title>
<path fill="none" stroke="#63b8ff" d="M446.21,-230.51C430.9,-222.31 408.03,-210.07 390.3,-200.58"/>
<polygon fill="#63b8ff" stroke="#63b8ff" points="392.35,-197.71 381.88,-196.07 389.04,-203.88 392.35,-197.71"/>
</g>
<!-- Node5 -->
<g id="node5" class="node">
<title>Node5</title>
<g id="a_node5"><a xlink:href="_reg_accessor_8hpp.html" target="_top" xlink:title=" ">
<polygon fill="white" stroke="#666666" points="509.5,-195 416.5,-195 416.5,-176 509.5,-176 509.5,-195"/>
<text text-anchor="middle" x="463" y="-183" font-family="Helvetica,sans-Serif" font-size="10.00">RegAccessor.hpp</text>
</a>
</g>
</g>
<!-- Node2&#45;&gt;Node5 -->
<g id="edge4" class="edge">
<title>Node2&#45;&gt;Node5</title>
<path fill="none" stroke="#63b8ff" d="M463,-230.75C463,-224.27 463,-215.16 463,-206.9"/>
<polygon fill="#63b8ff" stroke="#63b8ff" points="466.5,-206.96 463,-196.96 459.5,-206.96 466.5,-206.96"/>
</g>
<!-- Node6 -->
<g id="node6" class="node">
<title>Node6</title>
<g id="a_node6"><a xlink:href="_uio_if_8hpp.html" target="_top" xlink:title=" ">
<polygon fill="white" stroke="#666666" points="545,-140 455,-140 455,-121 545,-121 545,-140"/>
<text text-anchor="middle" x="500" y="-128" font-family="Helvetica,sans-Serif" font-size="10.00">udmaio/UioIf.hpp</text>
</a>
</g>
</g>
<!-- Node2&#45;&gt;Node6 -->
<g id="edge34" class="edge">
<title>Node2&#45;&gt;Node6</title>
<path fill="none" stroke="#63b8ff" d="M481,-230.57C493.93,-223.05 510.38,-210.96 518,-195 524.86,-180.62 518.96,-163.12 512.13,-150.14"/>
<polygon fill="#63b8ff" stroke="#63b8ff" points="515.3,-148.62 507.21,-141.77 509.26,-152.16 515.3,-148.62"/>
</g>
<!-- Node4 -->
<g id="node4" class="node">
<title>Node4</title>
<g id="a_node4"><a xlink:title=" ">
<polygon fill="#e0e0e0" stroke="#999999" points="431,-140 385,-140 385,-121 431,-121 431,-140"/>
<text text-anchor="middle" x="408" y="-128" font-family="Helvetica,sans-Serif" font-size="10.00">cstdint</text>
</a>
</g>
</g>
<!-- Node3&#45;&gt;Node4 -->
<g id="edge3" class="edge">
<title>Node3&#45;&gt;Node4</title>
<path fill="none" stroke="#63b8ff" d="M371.27,-175.75C377.28,-168.5 386.01,-157.98 393.46,-149.02"/>
<polygon fill="#63b8ff" stroke="#63b8ff" points="395.92,-151.54 399.61,-141.61 390.53,-147.07 395.92,-151.54"/>
</g>
<!-- Node5&#45;&gt;Node4 -->
<g id="edge5" class="edge">
<title>Node5&#45;&gt;Node4</title>
<path fill="none" stroke="#63b8ff" d="M453.92,-175.75C446.16,-168.27 434.79,-157.32 425.3,-148.17"/>
<polygon fill="#63b8ff" stroke="#63b8ff" points="428,-145.91 418.37,-141.49 423.14,-150.95 428,-145.91"/>
</g>
<!-- Node5&#45;&gt;Node6 -->
<g id="edge6" class="edge">
<title>Node5&#45;&gt;Node6</title>
<path fill="none" stroke="#63b8ff" d="M469.11,-175.75C474.01,-168.73 481.05,-158.64 487.17,-149.87"/>
<polygon fill="#63b8ff" stroke="#63b8ff" points="490.04,-151.89 492.89,-141.68 484.3,-147.88 490.04,-151.89"/>
</g>
<!-- Node7 -->
<g id="node7" class="node">
<title>Node7</title>
<g id="a_node7"><a xlink:title=" ">
<polygon fill="#e0e0e0" stroke="#999999" points="60,-85 0,-85 0,-66 60,-66 60,-85"/>
<text text-anchor="middle" x="30" y="-73" font-family="Helvetica,sans-Serif" font-size="10.00">filesystem</text>
</a>
</g>
</g>
<!-- Node6&#45;&gt;Node7 -->
<g id="edge7" class="edge">
<title>Node6&#45;&gt;Node7</title>
<path fill="none" stroke="#63b8ff" d="M454.82,-122.88C449.82,-122.21 444.81,-121.57 440,-121 279.04,-101.8 234.56,-110.3 71.11,-85.15"/>
<polygon fill="#63b8ff" stroke="#63b8ff" points="72.08,-81.76 61.66,-83.68 71,-88.67 72.08,-81.76"/>
</g>
<!-- Node8 -->
<g id="node8" class="node">
<title>Node8</title>
<g id="a_node8"><a xlink:title=" ">
<polygon fill="#e0e0e0" stroke="#999999" points="128,-85 78,-85 78,-66 128,-66 128,-85"/>
<text text-anchor="middle" x="103" y="-73" font-family="Helvetica,sans-Serif" font-size="10.00">fstream</text>
</a>
</g>
</g>
<!-- Node6&#45;&gt;Node8 -->
<g id="edge8" class="edge">
<title>Node6&#45;&gt;Node8</title>
<path fill="none" stroke="#63b8ff" d="M454.8,-123C449.81,-122.31 444.8,-121.63 440,-121 307.73,-103.64 273.54,-107.23 142,-85 141.01,-84.83 140.01,-84.66 139.01,-84.48"/>
<polygon fill="#63b8ff" stroke="#63b8ff" points="140.08,-81.12 129.59,-82.63 138.73,-87.99 140.08,-81.12"/>
</g>
<!-- Node9 -->
<g id="node9" class="node">
<title>Node9</title>
<g id="a_node9"><a xlink:title=" ">
<polygon fill="#e0e0e0" stroke="#999999" points="79,-24.5 25,-24.5 25,-5.5 79,-5.5 79,-24.5"/>
<text text-anchor="middle" x="52" y="-12.5" font-family="Helvetica,sans-Serif" font-size="10.00">iostream</text>
</a>
</g>
</g>
<!-- Node6&#45;&gt;Node9 -->
<g id="edge9" class="edge">
<title>Node6&#45;&gt;Node9</title>
<path fill="none" stroke="#63b8ff" d="M454.79,-123.07C449.8,-122.37 444.79,-121.67 440,-121 323.15,-104.73 288.98,-122.14 177,-85 156.58,-78.23 106.41,-48.93 76.2,-30.76"/>
<polygon fill="#63b8ff" stroke="#63b8ff" points="78.09,-27.81 67.72,-25.63 74.47,-33.8 78.09,-27.81"/>
</g>
<!-- Node10 -->
<g id="node10" class="node">
<title>Node10</title>
<g id="a_node10"><a xlink:title=" ">
<polygon fill="#e0e0e0" stroke="#999999" points="148.5,-24.5 97.5,-24.5 97.5,-5.5 148.5,-5.5 148.5,-24.5"/>
<text text-anchor="middle" x="123" y="-12.5" font-family="Helvetica,sans-Serif" font-size="10.00">memory</text>
</a>
</g>
</g>
<!-- Node6&#45;&gt;Node10 -->
<g id="edge10" class="edge">
<title>Node6&#45;&gt;Node10</title>
<path fill="none" stroke="#63b8ff" d="M454.8,-123.09C376.77,-111.94 224.01,-89.71 213,-85 184.02,-72.61 156.09,-48.73 139.23,-32.58"/>
<polygon fill="#63b8ff" stroke="#63b8ff" points="142.13,-30.53 132.55,-26 137.22,-35.51 142.13,-30.53"/>
</g>
<!-- Node11 -->
<g id="node11" class="node">
<title>Node11</title>
<g id="a_node11"><a xlink:title=" ">
<polygon fill="#e0e0e0" stroke="#999999" points="369.5,-24.5 328.5,-24.5 328.5,-5.5 369.5,-5.5 369.5,-24.5"/>
<text text-anchor="middle" x="349" y="-12.5" font-family="Helvetica,sans-Serif" font-size="10.00">string</text>
</a>
</g>
</g>
<!-- Node6&#45;&gt;Node11 -->
<g id="edge11" class="edge">
<title>Node6&#45;&gt;Node11</title>
<path fill="none" stroke="#63b8ff" d="M460.37,-120.53C437.5,-113.77 409.33,-102.59 389,-85 373.48,-71.57 362.52,-50.56 356.05,-35.25"/>
<polygon fill="#63b8ff" stroke="#63b8ff" points="359.44,-34.31 352.52,-26.28 352.92,-36.87 359.44,-34.31"/>
</g>
<!-- Node12 -->
<g id="node12" class="node">
<title>Node12</title>
<g id="a_node12"><a xlink:title=" ">
<polygon fill="#e0e0e0" stroke="#999999" points="582,-85 520,-85 520,-66 582,-66 582,-85"/>
<text text-anchor="middle" x="551" y="-73" font-family="Helvetica,sans-Serif" font-size="10.00">type_traits</text>
</a>
</g>
</g>
<!-- Node6&#45;&gt;Node12 -->
<g id="edge12" class="edge">
<title>Node6&#45;&gt;Node12</title>
<path fill="none" stroke="#63b8ff" d="M508.42,-120.75C515.47,-113.43 525.73,-102.76 534.41,-93.74"/>
<polygon fill="#63b8ff" stroke="#63b8ff" points="536.93,-96.17 541.35,-86.53 531.89,-91.31 536.93,-96.17"/>
</g>
<!-- Node13 -->
<g id="node13" class="node">
<title>Node13</title>
<g id="a_node13"><a xlink:title=" ">
<polygon fill="#e0e0e0" stroke="#999999" points="737.5,-85 600.5,-85 600.5,-66 737.5,-66 737.5,-85"/>
<text text-anchor="middle" x="669" y="-73" font-family="Helvetica,sans-Serif" font-size="10.00">boost/core/noncopyable.hpp</text>
</a>
</g>
</g>
<!-- Node6&#45;&gt;Node13 -->
<g id="edge13" class="edge">
<title>Node6&#45;&gt;Node13</title>
<path fill="none" stroke="#63b8ff" d="M528.67,-120.51C556.43,-111.8 598.75,-98.53 629.65,-88.84"/>
<polygon fill="#63b8ff" stroke="#63b8ff" points="630.53,-92.23 639.03,-85.9 628.44,-85.55 630.53,-92.23"/>
</g>
<!-- Node14 -->
<g id="node14" class="node">
<title>Node14</title>
<g id="a_node14"><a xlink:title=" ">
<polygon fill="#e0e0e0" stroke="#999999" points="798.5,-85 755.5,-85 755.5,-66 798.5,-66 798.5,-85"/>
<text text-anchor="middle" x="777" y="-73" font-family="Helvetica,sans-Serif" font-size="10.00">fcntl.h</text>
</a>
</g>
</g>
<!-- Node6&#45;&gt;Node14 -->
<g id="edge14" class="edge">
<title>Node6&#45;&gt;Node14</title>
<path fill="none" stroke="#63b8ff" d="M545.13,-122.57C592.33,-115.05 668.79,-102.1 743.97,-85.29"/>
<polygon fill="#63b8ff" stroke="#63b8ff" points="744.59,-88.73 753.57,-83.11 743.04,-81.91 744.59,-88.73"/>
</g>
<!-- Node15 -->
<g id="node15" class="node">
<title>Node15</title>
<g id="a_node15"><a xlink:title=" ">
<polygon fill="#e0e0e0" stroke="#999999" points="885.5,-85 816.5,-85 816.5,-66 885.5,-66 885.5,-85"/>
<text text-anchor="middle" x="851" y="-73" font-family="Helvetica,sans-Serif" font-size="10.00">sys/mman.h</text>
</a>
</g>
</g>
<!-- Node6&#45;&gt;Node15 -->
<g id="edge15" class="edge">
<title>Node6&#45;&gt;Node15</title>
<path fill="none" stroke="#63b8ff" d="M545.36,-123.6C603.19,-115.93 706.52,-101.73 805.35,-85.2"/>
<polygon fill="#63b8ff" stroke="#63b8ff" points="805.67,-88.7 814.95,-83.59 804.51,-81.8 805.67,-88.7"/>
</g>
<!-- Node16 -->
<g id="node16" class="node">
<title>Node16</title>
<g id="a_node16"><a xlink:title=" ">
<polygon fill="#e0e0e0" stroke="#999999" points="962.5,-85 903.5,-85 903.5,-66 962.5,-66 962.5,-85"/>
<text text-anchor="middle" x="933" y="-73" font-family="Helvetica,sans-Serif" font-size="10.00">sys/stat.h</text>
</a>
</g>
</g>
<!-- Node6&#45;&gt;Node16 -->
<g id="edge16" class="edge">
<title>Node6&#45;&gt;Node16</title>
<path fill="none" stroke="#63b8ff" d="M545.41,-125.89C616.94,-119.87 760.4,-106.46 892.17,-85.13"/>
<polygon fill="#63b8ff" stroke="#63b8ff" points="892.45,-88.63 901.76,-83.56 891.32,-81.72 892.45,-88.63"/>
</g>
<!-- Node17 -->
<g id="node17" class="node">
<title>Node17</title>
<g id="a_node17"><a xlink:title=" ">
<polygon fill="#e0e0e0" stroke="#999999" points="1045.5,-85 980.5,-85 980.5,-66 1045.5,-66 1045.5,-85"/>
<text text-anchor="middle" x="1013" y="-73" font-family="Helvetica,sans-Serif" font-size="10.00">sys/types.h</text>
</a>
</g>
</g>
<!-- Node6&#45;&gt;Node17 -->
<g id="edge17" class="edge">
<title>Node6&#45;&gt;Node17</title>
<path fill="none" stroke="#63b8ff" d="M545.44,-126.89C627.93,-121.79 808.01,-108.99 969.3,-85.25"/>
<polygon fill="#63b8ff" stroke="#63b8ff" points="969.51,-88.76 978.89,-83.82 968.48,-81.84 969.51,-88.76"/>
</g>
<!-- Node18 -->
<g id="node18" class="node">
<title>Node18</title>
<g id="a_node18"><a xlink:title=" ">
<polygon fill="#e0e0e0" stroke="#999999" points="1114,-85 1064,-85 1064,-66 1114,-66 1114,-85"/>
<text text-anchor="middle" x="1089" y="-73" font-family="Helvetica,sans-Serif" font-size="10.00">unistd.h</text>
</a>
</g>
</g>
<!-- Node6&#45;&gt;Node18 -->
<g id="edge18" class="edge">
<title>Node6&#45;&gt;Node18</title>
<path fill="none" stroke="#63b8ff" d="M545.27,-128.4C638.49,-125.58 858.72,-116.14 1052.59,-85.11"/>
<polygon fill="#63b8ff" stroke="#63b8ff" points="1053.04,-88.58 1062.35,-83.52 1051.92,-81.67 1053.04,-88.58"/>
</g>
<!-- Node19 -->
<g id="node19" class="node">
<title>Node19</title>
<g id="a_node19"><a xlink:href="_logging_8hpp.html" target="_top" xlink:title=" ">
<polygon fill="white" stroke="#666666" points="502,-85 398,-85 398,-66 502,-66 502,-85"/>
<text text-anchor="middle" x="450" y="-73" font-family="Helvetica,sans-Serif" font-size="10.00">udmaio/Logging.hpp</text>
</a>
</g>
</g>
<!-- Node6&#45;&gt;Node19 -->
<g id="edge19" class="edge">
<title>Node6&#45;&gt;Node19</title>
<path fill="none" stroke="#63b8ff" d="M491.74,-120.75C484.84,-113.43 474.78,-102.76 466.26,-93.74"/>
<polygon fill="#63b8ff" stroke="#63b8ff" points="468.88,-91.42 459.47,-86.54 463.79,-96.22 468.88,-91.42"/>
</g>
<!-- Node27 -->
<g id="node27" class="node">
<title>Node27</title>
<g id="a_node27"><a xlink:href="_uio_config_8hpp.html" target="_top" xlink:title=" ">
<polygon fill="white" stroke="#666666" points="333.5,-85 222.5,-85 222.5,-66 333.5,-66 333.5,-85"/>
<text text-anchor="middle" x="278" y="-73" font-family="Helvetica,sans-Serif" font-size="10.00">udmaio/UioConfig.hpp</text>
</a>
</g>
</g>
<!-- Node6&#45;&gt;Node27 -->
<g id="edge28" class="edge">
<title>Node6&#45;&gt;Node27</title>
<path fill="none" stroke="#63b8ff" d="M462.34,-120.51C424.91,-111.57 367.35,-97.83 326.52,-88.08"/>
<polygon fill="#63b8ff" stroke="#63b8ff" points="327.48,-84.72 316.95,-85.8 325.86,-91.52 327.48,-84.72"/>
</g>
<!-- Node19&#45;&gt;Node11 -->
<g id="edge20" class="edge">
<title>Node19&#45;&gt;Node11</title>
<path fill="none" stroke="#63b8ff" d="M434.66,-65.62C418.64,-56.34 393.26,-41.63 374.27,-30.64"/>
<polygon fill="#63b8ff" stroke="#63b8ff" points="376.2,-27.71 365.79,-25.73 372.69,-33.77 376.2,-27.71"/>
</g>
<!-- Node20 -->
<g id="node20" class="node">
<title>Node20</title>
<g id="a_node20"><a xlink:title=" ">
<polygon fill="#e0e0e0" stroke="#999999" points="1296,-24.5 1200,-24.5 1200,-5.5 1296,-5.5 1296,-24.5"/>
<text text-anchor="middle" x="1248" y="-12.5" font-family="Helvetica,sans-Serif" font-size="10.00">boost/log/core.hpp</text>
</a>
</g>
</g>
<!-- Node19&#45;&gt;Node20 -->
<g id="edge21" class="edge">
<title>Node19&#45;&gt;Node20</title>
<path fill="none" stroke="#63b8ff" d="M502.21,-66.93C505.18,-66.59 508.13,-66.28 511,-66 812.26,-37.09 891.61,-74.29 1191,-30 1195.59,-29.32 1200.36,-28.44 1205.08,-27.45"/>
<polygon fill="#63b8ff" stroke="#63b8ff" points="1205.5,-30.95 1214.48,-25.32 1203.95,-24.12 1205.5,-30.95"/>
</g>
<!-- Node21 -->
<g id="node21" class="node">
<title>Node21</title>
<g id="a_node21"><a xlink:title=" ">
<polygon fill="#e0e0e0" stroke="#999999" points="516.5,-24.5 387.5,-24.5 387.5,-5.5 516.5,-5.5 516.5,-24.5"/>
<text text-anchor="middle" x="452" y="-12.5" font-family="Helvetica,sans-Serif" font-size="10.00">boost/log/expressions.hpp</text>
</a>
</g>
</g>
<!-- Node19&#45;&gt;Node21 -->
<g id="edge22" class="edge">
<title>Node19&#45;&gt;Node21</title>
<path fill="none" stroke="#63b8ff" d="M450.3,-65.87C450.56,-58 450.97,-46.1 451.32,-35.89"/>
<polygon fill="#63b8ff" stroke="#63b8ff" points="454.81,-36.29 451.65,-26.18 447.81,-36.05 454.81,-36.29"/>
</g>
<!-- Node22 -->
<g id="node22" class="node">
<title>Node22</title>
<g id="a_node22"><a xlink:title=" ">
<polygon fill="#e0e0e0" stroke="#999999" points="635.5,-24.5 534.5,-24.5 534.5,-5.5 635.5,-5.5 635.5,-24.5"/>
<text text-anchor="middle" x="585" y="-12.5" font-family="Helvetica,sans-Serif" font-size="10.00">boost/log/trivial.hpp</text>
</a>
</g>
</g>
<!-- Node19&#45;&gt;Node22 -->
<g id="edge23" class="edge">
<title>Node19&#45;&gt;Node22</title>
<path fill="none" stroke="#63b8ff" d="M470.5,-65.62C492.71,-55.99 528.37,-40.54 554,-29.43"/>
<polygon fill="#63b8ff" stroke="#63b8ff" points="555.13,-32.76 562.91,-25.57 552.35,-26.33 555.13,-32.76"/>
</g>
<!-- Node23 -->
<g id="node23" class="node">
<title>Node23</title>
<g id="a_node23"><a xlink:title=" ">
<polygon fill="#e0e0e0" stroke="#999999" points="762.5,-30 653.5,-30 653.5,0 762.5,0 762.5,-30"/>
<text text-anchor="start" x="661.5" y="-18" font-family="Helvetica,sans-Serif" font-size="10.00">boost/log/utility/setup</text>
<text text-anchor="middle" x="708" y="-7" font-family="Helvetica,sans-Serif" font-size="10.00">/console.hpp</text>
</a>
</g>
</g>
<!-- Node19&#45;&gt;Node23 -->
<g id="edge24" class="edge">
<title>Node19&#45;&gt;Node23</title>
<path fill="none" stroke="#63b8ff" d="M489.47,-65.55C530.06,-56.35 594,-41.85 642.26,-30.91"/>
<polygon fill="#63b8ff" stroke="#63b8ff" points="642.77,-34.38 651.75,-28.75 641.22,-27.55 642.77,-34.38"/>
</g>
<!-- Node24 -->
<g id="node24" class="node">
<title>Node24</title>
<g id="a_node24"><a xlink:title=" ">
<polygon fill="#e0e0e0" stroke="#999999" points="911.5,-30 780.5,-30 780.5,0 911.5,0 911.5,-30"/>
<text text-anchor="start" x="788.5" y="-18" font-family="Helvetica,sans-Serif" font-size="10.00">boost/log/sources/severity</text>
<text text-anchor="middle" x="846" y="-7" font-family="Helvetica,sans-Serif" font-size="10.00">_channel_logger.hpp</text>
</a>
</g>
</g>
<!-- Node19&#45;&gt;Node24 -->
<g id="edge25" class="edge">
<title>Node19&#45;&gt;Node24</title>
<path fill="none" stroke="#63b8ff" d="M502.24,-67.22C505.21,-66.81 508.14,-66.4 511,-66 623.05,-50.44 654,-48.8 769.15,-30.25"/>
<polygon fill="#63b8ff" stroke="#63b8ff" points="769.37,-33.76 778.69,-28.71 768.26,-26.85 769.37,-33.76"/>
</g>
<!-- Node25 -->
<g id="node25" class="node">
<title>Node25</title>
<g id="a_node25"><a xlink:title=" ">
<polygon fill="#e0e0e0" stroke="#999999" points="1042.5,-30 929.5,-30 929.5,0 1042.5,0 1042.5,-30"/>
<text text-anchor="start" x="937.5" y="-18" font-family="Helvetica,sans-Serif" font-size="10.00">boost/log/support/date</text>
<text text-anchor="middle" x="986" y="-7" font-family="Helvetica,sans-Serif" font-size="10.00">_time.hpp</text>
</a>
</g>
</g>
<!-- Node19&#45;&gt;Node25 -->
<g id="edge26" class="edge">
<title>Node19&#45;&gt;Node25</title>
<path fill="none" stroke="#63b8ff" d="M502.22,-67.05C505.19,-66.68 508.13,-66.33 511,-66 689.12,-45.78 738.18,-56.85 917.83,-30.37"/>
<polygon fill="#63b8ff" stroke="#63b8ff" points="918.13,-33.86 927.51,-28.92 917.1,-26.94 918.13,-33.86"/>
</g>
<!-- Node26 -->
<g id="node26" class="node">
<title>Node26</title>
<g id="a_node26"><a xlink:title=" ">
<polygon fill="#e0e0e0" stroke="#999999" points="1181.5,-30 1060.5,-30 1060.5,0 1181.5,0 1181.5,-30"/>
<text text-anchor="start" x="1068.5" y="-18" font-family="Helvetica,sans-Serif" font-size="10.00">boost/log/utility/setup</text>
<text text-anchor="middle" x="1121" y="-7" font-family="Helvetica,sans-Serif" font-size="10.00">/common_attributes.hpp</text>
</a>
</g>
</g>
<!-- Node19&#45;&gt;Node26 -->
<g id="edge27" class="edge">
<title>Node19&#45;&gt;Node26</title>
<path fill="none" stroke="#63b8ff" d="M502.21,-66.97C505.18,-66.62 508.13,-66.3 511,-66 747.08,-41.73 811.23,-61.41 1049.03,-30.28"/>
<polygon fill="#63b8ff" stroke="#63b8ff" points="1049.17,-33.8 1058.62,-29.01 1048.25,-26.86 1049.17,-33.8"/>
</g>
<!-- Node27&#45;&gt;Node9 -->
<g id="edge29" class="edge">
<title>Node27&#45;&gt;Node9</title>
<path fill="none" stroke="#63b8ff" d="M231.44,-65.51C192.67,-57.56 136.22,-44.94 88,-30 86.67,-29.59 85.31,-29.15 83.95,-28.69"/>
<polygon fill="#63b8ff" stroke="#63b8ff" points="85.55,-25.55 74.95,-25.45 83.18,-32.13 85.55,-25.55"/>
</g>
<!-- Node27&#45;&gt;Node10 -->
<g id="edge30" class="edge">
<title>Node27&#45;&gt;Node10</title>
<path fill="none" stroke="#63b8ff" d="M252.87,-65.57C228.32,-56.78 189.95,-42.84 157,-30 156.22,-29.7 155.43,-29.39 154.63,-29.07"/>
<polygon fill="#63b8ff" stroke="#63b8ff" points="156.16,-25.91 145.57,-25.43 153.55,-32.41 156.16,-25.91"/>
</g>
<!-- Node27&#45;&gt;Node11 -->
<g id="edge32" class="edge">
<title>Node27&#45;&gt;Node11</title>
<path fill="none" stroke="#63b8ff" d="M288.78,-65.62C299.52,-56.77 316.25,-42.98 329.35,-32.19"/>
<polygon fill="#63b8ff" stroke="#63b8ff" points="331.45,-34.99 336.95,-25.93 327,-29.59 331.45,-34.99"/>
</g>
<!-- Node28 -->
<g id="node28" class="node">
<title>Node28</title>
<g id="a_node28"><a xlink:title=" ">
<polygon fill="#e0e0e0" stroke="#999999" points="225.5,-24.5 166.5,-24.5 166.5,-5.5 225.5,-5.5 225.5,-24.5"/>
<text text-anchor="middle" x="196" y="-12.5" font-family="Helvetica,sans-Serif" font-size="10.00">stdexcept</text>
</a>
</g>
</g>
<!-- Node27&#45;&gt;Node28 -->
<g id="edge31" class="edge">
<title>Node27&#45;&gt;Node28</title>
<path fill="none" stroke="#63b8ff" d="M265.55,-65.62C252.9,-56.6 233.07,-42.45 217.81,-31.56"/>
<polygon fill="#63b8ff" stroke="#63b8ff" points="219.98,-28.81 209.8,-25.85 215.91,-34.5 219.98,-28.81"/>
</g>
<!-- Node29 -->
<g id="node29" class="node">
<title>Node29</title>
<g id="a_node29"><a xlink:title=" ">
<polygon fill="#e0e0e0" stroke="#999999" points="310,-24.5 244,-24.5 244,-5.5 310,-5.5 310,-24.5"/>
<text text-anchor="middle" x="277" y="-12.5" font-family="Helvetica,sans-Serif" font-size="10.00">string_view</text>
</a>
</g>
</g>
<!-- Node27&#45;&gt;Node29 -->
<g id="edge33" class="edge">
<title>Node27&#45;&gt;Node29</title>
<path fill="none" stroke="#63b8ff" d="M277.85,-65.87C277.72,-58 277.51,-46.1 277.34,-35.89"/>
<polygon fill="#63b8ff" stroke="#63b8ff" points="280.84,-36.12 277.17,-26.18 273.85,-36.24 280.84,-36.12"/>
</g>
</g>
</svg>
        <g id="navigator" transform="translate(0 0)" fill="#404254">
                <rect fill="#f2f5e9" fill-opacity="0.5" stroke="#606060" stroke-width=".5" x="0" y="0" width="60" height="60"/>
                <use id="zoomplus" xlink:href="#zoomPlus" x="17" y="9" onmousedown="handleZoom(evt,'in')"/>
                <use id="zoomminus" xlink:href="#zoomMin" x="42" y="9" onmousedown="handleZoom(evt,'out')"/>
                <use id="reset" xlink:href="#resetDef" x="30" y="36" onmousedown="handleReset()"/>
                <g id="arrowUp" xlink:href="#dirArrow" transform="translate(30 24)" onmousedown="handlePan(0,-1)">
                  <use xlink:href="#rim" fill="#404040">
                        <set attributeName="fill" to="#808080" begin="arrowUp.mouseover" end="arrowUp.mouseout"/>
                  </use>
                  <path fill="none" stroke="white" stroke-width="1.5" d="M0,-3.0v7 M-2.5,-0.5L0,-3.0L2.5,-0.5"/>
                </g>
                <g id="arrowRight" xlink:href="#dirArrow" transform="rotate(90) translate(36 -43)" onmousedown="handlePan(1,0)">
                  <use xlink:href="#rim" fill="#404040">
                        <set attributeName="fill" to="#808080" begin="arrowRight.mouseover" end="arrowRight.mouseout"/>
                  </use>
                  <path fill="none" stroke="white" stroke-width="1.5" d="M0,-3.0v7 M-2.5,-0.5L0,-3.0L2.5,-0.5"/>
                </g>
                <g id="arrowDown" xlink:href="#dirArrow" transform="rotate(180) translate(-30 -48)" onmousedown="handlePan(0,1)">
                  <use xlink:href="#rim" fill="#404040">
                        <set attributeName="fill" to="#808080" begin="arrowDown.mouseover" end="arrowDown.mouseout"/>
                  </use>
                  <path fill="none" stroke="white" stroke-width="1.5" d="M0,-3.0v7 M-2.5,-0.5L0,-3.0L2.5,-0.5"/>
                </g>
                <g id="arrowLeft" xlink:href="#dirArrow" transform="rotate(270) translate(-36 17)" onmousedown="handlePan(-1,0)">
                  <use xlink:href="#rim" fill="#404040">
                        <set attributeName="fill" to="#808080" begin="arrowLeft.mouseover" end="arrowLeft.mouseout"/>
                  </use>
                  <path fill="none" stroke="white" stroke-width="1.5" d="M0,-3.0v7 M-2.5,-0.5L0,-3.0L2.5,-0.5"/>
                </g>
        </g>
        <svg viewBox="0 0 15 15" width="100%" height="30px" preserveAspectRatio="xMaxYMin meet">
         <g id="arrow_out" transform="scale(0.3 0.3)">
          <a xlink:href="_uio_axi_dma_if_8cpp__incl_org.svg" target="_base">
           <rect id="button" ry="5" rx="5" y="6" x="6" height="38" width="38"
                fill="#f2f5e9" fill-opacity="0.5" stroke="#606060" stroke-width="1.0"/>
           <path id="arrow"
             d="M 11.500037,31.436501 C 11.940474,20.09759 22.043105,11.32322 32.158766,21.979434 L 37.068811,17.246167 C 37.068811,17.246167 37.088388,32 37.088388,32 L 22.160133,31.978069 C 22.160133,31.978069 26.997745,27.140456 26.997745,27.140456 C 18.528582,18.264221 13.291696,25.230495 11.500037,31.436501 z"
             style="fill:#404040;"/>
          </a>
         </g>
        </svg>
</svg>
