<?xml version="1.0" encoding="UTF-8" standalone="no"?>
<!DOCTYPE svg PUBLIC "-//W3C//DTD SVG 1.1//EN"
 "http://www.w3.org/Graphics/SVG/1.1/DTD/svg11.dtd">
<!-- Generated by graphviz version 7.0.5 (20221223.1930)
 -->
<!-- Title: UioConfig.hpp Pages: 1 -->
<!--zoomable 412 -->
<svg id="main" version="1.1" xmlns="http://www.w3.org/2000/svg" xmlns:xlink="http://www.w3.org/1999/xlink" xml:space="preserve" onload="init(evt)">
<style type="text/css"><![CDATA[
.edge:hover path { stroke: red; }
.edge:hover polygon { stroke: red; fill: red; }
]]></style>
<script type="text/javascript"><![CDATA[
var edges = document.getElementsByTagName('g');
if (edges && edges.length) {
  for (var i=0;i<edges.length;i++) {
    if (edges[i].id.substr(0,4)=='edge') {
      edges[i].setAttribute('class','edge');
    }
  }
}
]]></script>
        <defs>
                <circle id="rim" cx="0" cy="0" r="7"/>
                <circle id="rim2" cx="0" cy="0" r="3.5"/>
                <g id="zoomPlus">
                        <use xlink:href="#rim" fill="#404040">
                                <set attributeName="fill" to="#808080" begin="zoomplus.mouseover" end="zoomplus.mouseout"/>
                        </use>
                        <path d="M-4,0h8M0,-4v8" fill="none" stroke="white" stroke-width="1.5" pointer-events="none"/>
                </g>
                <g id="zoomMin">
                        <use xlink:href="#rim" fill="#404040">
                                <set attributeName="fill" to="#808080" begin="zoomminus.mouseover" end="zoomminus.mouseout"/>
                        </use>
                        <path d="M-4,0h8" fill="none" stroke="white" stroke-width="1.5" pointer-events="none"/>
                </g>
                <g id="dirArrow">
                        <path fill="none" stroke="white" stroke-width="1.5" d="M0,-3.0v7 M-2.5,-0.5L0,-3.0L2.5,-0.5"/>
                </g>
               <g id="resetDef">
                       <use xlink:href="#rim2" fill="#404040">
                               <set attributeName="fill" to="#808080" begin="reset.mouseover" end="reset.mouseout"/>
                       </use>
               </g>
        </defs>

<script type="text/javascript">
var viewWidth = 922;
var viewHeight = 412;
var sectionId = 'dynsection-1';
</script>
<script xlink:href="svgpan.js"/>
<svg id="graph" class="graph">
<g id="viewport">
<title>UioConfig.hpp</title>
<!-- Node1 -->
<g id="node1" class="node">
<title>Node1</title>
<g id="a_node1"><a xlink:title=" ">
<polygon fill="#999999" stroke="#666666" points="718,-404 641,-404 641,-385 718,-385 718,-404"/>
<text text-anchor="middle" x="679.5" y="-392" font-family="Helvetica,sans-Serif" font-size="10.00">UioConfig.hpp</text>
</a>
</g>
</g>
<!-- Node2 -->
<g id="node2" class="node">
<title>Node2</title>
<g id="a_node2"><a xlink:href="_dma_buffer_abstract_8hpp.html" target="_top" xlink:title=" ">
<polygon fill="white" stroke="#666666" points="376,-294 259,-294 259,-275 376,-275 376,-294"/>
<text text-anchor="middle" x="317.5" y="-282" font-family="Helvetica,sans-Serif" font-size="10.00">DmaBufferAbstract.hpp</text>
</a>
</g>
</g>
<!-- Node1&#45;&gt;Node2 -->
<g id="edge1" class="edge">
<title>Node1&#45;&gt;Node2</title>
<path fill="none" stroke="#63b8ff" d="M638.92,-381.39C565.51,-359.49 412.27,-313.77 347.47,-294.44"/>
<polygon fill="#63b8ff" stroke="#63b8ff" points="637.53,-384.63 648.12,-384.14 639.54,-377.92 637.53,-384.63"/>
</g>
<!-- Node6 -->
<g id="node6" class="node">
<title>Node6</title>
<g id="a_node6"><a xlink:href="_u_dma_buf_8hpp.html" target="_top" xlink:title=" ">
<polygon fill="white" stroke="#666666" points="115,-239 38,-239 38,-220 115,-220 115,-239"/>
<text text-anchor="middle" x="76.5" y="-227" font-family="Helvetica,sans-Serif" font-size="10.00">UDmaBuf.hpp</text>
</a>
</g>
</g>
<!-- Node1&#45;&gt;Node6 -->
<g id="edge30" class="edge">
<title>Node1&#45;&gt;Node6</title>
<path fill="none" stroke="#63b8ff" d="M629.47,-384.25C548.68,-368.8 384.84,-335.31 249.5,-294 194.27,-277.14 130.92,-252.49 98.35,-239.41"/>
<polygon fill="#63b8ff" stroke="#63b8ff" points="628.81,-387.69 639.29,-386.12 630.12,-380.81 628.81,-387.69"/>
</g>
<!-- Node14 -->
<g id="node14" class="node">
<title>Node14</title>
<g id="a_node14"><a xlink:href="_hw_accessor_8hpp.html" target="_top" xlink:title=" ">
<polygon fill="white" stroke="#666666" points="808,-349 717,-349 717,-330 808,-330 808,-349"/>
<text text-anchor="middle" x="762.5" y="-337" font-family="Helvetica,sans-Serif" font-size="10.00">HwAccessor.hpp</text>
</a>
</g>
</g>
<!-- Node1&#45;&gt;Node14 -->
<g id="edge15" class="edge">
<title>Node1&#45;&gt;Node14</title>
<path fill="none" stroke="#63b8ff" d="M703.05,-378.46C717.77,-369.06 736.22,-357.28 748.63,-349.36"/>
<polygon fill="#63b8ff" stroke="#63b8ff" points="701.4,-375.36 694.86,-383.69 705.17,-381.26 701.4,-375.36"/>
</g>
<!-- Node16 -->
<g id="node16" class="node">
<title>Node16</title>
<g id="a_node16"><a xlink:href="_uio_config_8cpp.html" target="_top" xlink:title=" ">
<polygon fill="white" stroke="#666666" points="912,-294 835,-294 835,-275 912,-275 912,-294"/>
<text text-anchor="middle" x="873.5" y="-282" font-family="Helvetica,sans-Serif" font-size="10.00">UioConfig.cpp</text>
</a>
</g>
</g>
<!-- Node1&#45;&gt;Node16 -->
<g id="edge31" class="edge">
<title>Node1&#45;&gt;Node16</title>
<path fill="none" stroke="#63b8ff" d="M729.22,-384.27C756.82,-377.53 790.85,-366.46 817.5,-349 840.12,-334.18 859.16,-307.86 868.07,-294.23"/>
<polygon fill="#63b8ff" stroke="#63b8ff" points="728.65,-380.81 719.69,-386.47 730.22,-387.63 728.65,-380.81"/>
</g>
<!-- Node17 -->
<g id="node17" class="node">
<title>Node17</title>
<g id="a_node17"><a xlink:href="_uio_if_8hpp.html" target="_top" xlink:title=" ">
<polygon fill="white" stroke="#666666" points="707.5,-294 651.5,-294 651.5,-275 707.5,-275 707.5,-294"/>
<text text-anchor="middle" x="679.5" y="-282" font-family="Helvetica,sans-Serif" font-size="10.00">UioIf.hpp</text>
</a>
</g>
</g>
<!-- Node1&#45;&gt;Node17 -->
<g id="edge32" class="edge">
<title>Node1&#45;&gt;Node17</title>
<path fill="none" stroke="#63b8ff" d="M679.5,-373.24C679.5,-349.63 679.5,-311.65 679.5,-294.46"/>
<polygon fill="#63b8ff" stroke="#63b8ff" points="676,-373.15 679.5,-383.15 683,-373.15 676,-373.15"/>
</g>
<!-- Node3 -->
<g id="node3" class="node">
<title>Node3</title>
<g id="a_node3"><a xlink:href="_dma_buffer_abstract_8cpp.html" target="_top" xlink:title=" ">
<polygon fill="white" stroke="#666666" points="289,-239 172,-239 172,-220 289,-220 289,-239"/>
<text text-anchor="middle" x="230.5" y="-227" font-family="Helvetica,sans-Serif" font-size="10.00">DmaBufferAbstract.cpp</text>
</a>
</g>
</g>
<!-- Node2&#45;&gt;Node3 -->
<g id="edge2" class="edge">
<title>Node2&#45;&gt;Node3</title>
<path fill="none" stroke="#63b8ff" d="M293.26,-268.73C277.76,-259.29 258.17,-247.36 245.04,-239.36"/>
<polygon fill="#63b8ff" stroke="#63b8ff" points="291.09,-271.51 301.45,-273.72 294.73,-265.53 291.09,-271.51"/>
</g>
<!-- Node4 -->
<g id="node4" class="node">
<title>Node4</title>
<g id="a_node4"><a xlink:href="_fpga_mem_buffer_over_axi_8hpp.html" target="_top" xlink:title=" ">
<polygon fill="white" stroke="#666666" points="651.5,-239 513.5,-239 513.5,-220 651.5,-220 651.5,-239"/>
<text text-anchor="middle" x="582.5" y="-227" font-family="Helvetica,sans-Serif" font-size="10.00">FpgaMemBufferOverAxi.hpp</text>
</a>
</g>
</g>
<!-- Node2&#45;&gt;Node4 -->
<g id="edge3" class="edge">
<title>Node2&#45;&gt;Node4</title>
<path fill="none" stroke="#63b8ff" d="M373.48,-272.3C422.4,-262.52 492.5,-248.5 537.77,-239.45"/>
<polygon fill="#63b8ff" stroke="#63b8ff" points="373.06,-268.82 363.94,-274.21 374.43,-275.68 373.06,-268.82"/>
</g>
<!-- Node5 -->
<g id="node5" class="node">
<title>Node5</title>
<g id="a_node5"><a xlink:href="_fpga_mem_buffer_over_xdma_8hpp.html" target="_top" xlink:title=" ">
<polygon fill="white" stroke="#666666" points="495.5,-239 345.5,-239 345.5,-220 495.5,-220 495.5,-239"/>
<text text-anchor="middle" x="420.5" y="-227" font-family="Helvetica,sans-Serif" font-size="10.00">FpgaMemBufferOverXdma.hpp</text>
</a>
</g>
</g>
<!-- Node2&#45;&gt;Node5 -->
<g id="edge4" class="edge">
<title>Node2&#45;&gt;Node5</title>
<path fill="none" stroke="#63b8ff" d="M345.16,-269.27C363.67,-259.74 387.44,-247.51 403.29,-239.36"/>
<polygon fill="#63b8ff" stroke="#63b8ff" points="343.61,-266.13 336.32,-273.82 346.81,-272.35 343.61,-266.13"/>
</g>
<!-- Node2&#45;&gt;Node6 -->
<g id="edge5" class="edge">
<title>Node2&#45;&gt;Node6</title>
<path fill="none" stroke="#63b8ff" d="M265.57,-272.08C220.4,-262.15 155.96,-247.97 115.19,-239.01"/>
<polygon fill="#63b8ff" stroke="#63b8ff" points="264.62,-275.45 275.14,-274.18 266.12,-268.62 264.62,-275.45"/>
</g>
<!-- Node12 -->
<g id="node12" class="node">
<title>Node12</title>
<g id="a_node12"><a xlink:href="_uio_mem_sgdma_8cpp.html" target="_top" xlink:title=" ">
<polygon fill="white" stroke="#666666" points="215.5,-129 113.5,-129 113.5,-110 215.5,-110 215.5,-129"/>
<text text-anchor="middle" x="164.5" y="-117" font-family="Helvetica,sans-Serif" font-size="10.00">UioMemSgdma.cpp</text>
</a>
</g>
</g>
<!-- Node2&#45;&gt;Node12 -->
<g id="edge11" class="edge">
<title>Node2&#45;&gt;Node12</title>
<path fill="none" stroke="#63b8ff" d="M249.81,-272.34C213.28,-264.79 173.45,-253.54 162.5,-239 137.37,-205.64 153.35,-150.67 161.05,-129.34"/>
<polygon fill="#63b8ff" stroke="#63b8ff" points="249.04,-275.76 259.53,-274.27 250.4,-268.89 249.04,-275.76"/>
</g>
<!-- Node13 -->
<g id="node13" class="node">
<title>Node13</title>
<g id="a_node13"><a xlink:href="_uio_mem_sgdma_8hpp.html" target="_top" xlink:title=" ">
<polygon fill="white" stroke="#666666" points="368.5,-184 266.5,-184 266.5,-165 368.5,-165 368.5,-184"/>
<text text-anchor="middle" x="317.5" y="-172" font-family="Helvetica,sans-Serif" font-size="10.00">UioMemSgdma.hpp</text>
</a>
</g>
</g>
<!-- Node2&#45;&gt;Node13 -->
<g id="edge12" class="edge">
<title>Node2&#45;&gt;Node13</title>
<path fill="none" stroke="#63b8ff" d="M317.5,-263.24C317.5,-239.63 317.5,-201.65 317.5,-184.46"/>
<polygon fill="#63b8ff" stroke="#63b8ff" points="314,-263.15 317.5,-273.15 321,-263.15 314,-263.15"/>
</g>
<!-- Node7 -->
<g id="node7" class="node">
<title>Node7</title>
<g id="a_node7"><a xlink:href="_data_handler_abstract_8hpp.html" target="_top" xlink:title=" ">
<polygon fill="white" stroke="#666666" points="380,-129 255,-129 255,-110 380,-110 380,-129"/>
<text text-anchor="middle" x="317.5" y="-117" font-family="Helvetica,sans-Serif" font-size="10.00">DataHandlerAbstract.hpp</text>
</a>
</g>
</g>
<!-- Node6&#45;&gt;Node7 -->
<g id="edge6" class="edge">
<title>Node6&#45;&gt;Node7</title>
<path fill="none" stroke="#63b8ff" d="M106.68,-214.98C156.65,-192.58 255.25,-148.4 297.51,-129.46"/>
<polygon fill="#63b8ff" stroke="#63b8ff" points="105.3,-211.76 97.6,-219.04 108.16,-218.15 105.3,-211.76"/>
</g>
<!-- Node11 -->
<g id="node11" class="node">
<title>Node11</title>
<g id="a_node11"><a xlink:href="_u_dma_buf_8cpp.html" target="_top" xlink:title=" ">
<polygon fill="white" stroke="#666666" points="77,-184 0,-184 0,-165 77,-165 77,-184"/>
<text text-anchor="middle" x="38.5" y="-172" font-family="Helvetica,sans-Serif" font-size="10.00">UDmaBuf.cpp</text>
</a>
</g>
</g>
<!-- Node6&#45;&gt;Node11 -->
<g id="edge10" class="edge">
<title>Node6&#45;&gt;Node11</title>
<path fill="none" stroke="#63b8ff" d="M63.7,-210.65C57.38,-201.84 50.04,-191.59 44.91,-184.44"/>
<polygon fill="#63b8ff" stroke="#63b8ff" points="60.67,-212.43 69.34,-218.52 66.36,-208.35 60.67,-212.43"/>
</g>
<!-- Node8 -->
<g id="node8" class="node">
<title>Node8</title>
<g id="a_node8"><a xlink:href="_data_handler_abstract_8cpp.html" target="_top" xlink:title=" ">
<polygon fill="white" stroke="#666666" points="312,-74 187,-74 187,-55 312,-55 312,-74"/>
<text text-anchor="middle" x="249.5" y="-62" font-family="Helvetica,sans-Serif" font-size="10.00">DataHandlerAbstract.cpp</text>
</a>
</g>
</g>
<!-- Node7&#45;&gt;Node8 -->
<g id="edge7" class="edge">
<title>Node7&#45;&gt;Node8</title>
<path fill="none" stroke="#63b8ff" d="M297.15,-102.64C285.28,-93.39 270.74,-82.05 260.86,-74.36"/>
<polygon fill="#63b8ff" stroke="#63b8ff" points="294.73,-105.19 304.77,-108.58 299.04,-99.67 294.73,-105.19"/>
</g>
<!-- Node9 -->
<g id="node9" class="node">
<title>Node9</title>
<g id="a_node9"><a xlink:href="_data_handler_sync_8hpp.html" target="_top" xlink:title=" ">
<polygon fill="white" stroke="#666666" points="440.5,-74 330.5,-74 330.5,-55 440.5,-55 440.5,-74"/>
<text text-anchor="middle" x="385.5" y="-62" font-family="Helvetica,sans-Serif" font-size="10.00">DataHandlerSync.hpp</text>
</a>
</g>
</g>
<!-- Node7&#45;&gt;Node9 -->
<g id="edge8" class="edge">
<title>Node7&#45;&gt;Node9</title>
<path fill="none" stroke="#63b8ff" d="M337.85,-102.64C349.72,-93.39 364.26,-82.05 374.14,-74.36"/>
<polygon fill="#63b8ff" stroke="#63b8ff" points="335.96,-99.67 330.23,-108.58 340.27,-105.19 335.96,-99.67"/>
</g>
<!-- Node10 -->
<g id="node10" class="node">
<title>Node10</title>
<g id="a_node10"><a xlink:href="_data_handler_sync_8cpp.html" target="_top" xlink:title=" ">
<polygon fill="white" stroke="#666666" points="440.5,-19 330.5,-19 330.5,0 440.5,0 440.5,-19"/>
<text text-anchor="middle" x="385.5" y="-7" font-family="Helvetica,sans-Serif" font-size="10.00">DataHandlerSync.cpp</text>
</a>
</g>
</g>
<!-- Node9&#45;&gt;Node10 -->
<g id="edge9" class="edge">
<title>Node9&#45;&gt;Node10</title>
<path fill="none" stroke="#63b8ff" d="M385.5,-43.35C385.5,-35.1 385.5,-25.97 385.5,-19.44"/>
<polygon fill="#63b8ff" stroke="#63b8ff" points="382,-43.23 385.5,-53.23 389,-43.23 382,-43.23"/>
</g>
<!-- Node13&#45;&gt;Node7 -->
<g id="edge13" class="edge">
<title>Node13&#45;&gt;Node7</title>
<path fill="none" stroke="#63b8ff" d="M317.5,-153.35C317.5,-145.1 317.5,-135.97 317.5,-129.44"/>
<polygon fill="#63b8ff" stroke="#63b8ff" points="314,-153.23 317.5,-163.23 321,-153.23 314,-153.23"/>
</g>
<!-- Node13&#45;&gt;Node12 -->
<g id="edge14" class="edge">
<title>Node13&#45;&gt;Node12</title>
<path fill="none" stroke="#63b8ff" d="M280.99,-160.85C253.05,-151.17 215.19,-138.06 190.33,-129.45"/>
<polygon fill="#63b8ff" stroke="#63b8ff" points="279.52,-164.05 290.12,-164.01 281.81,-157.43 279.52,-164.05"/>
</g>
<!-- Node15 -->
<g id="node15" class="node">
<title>Node15</title>
<g id="a_node15"><a xlink:href="_hw_accessor_8cpp.html" target="_top" xlink:title=" ">
<polygon fill="white" stroke="#666666" points="817,-294 726,-294 726,-275 817,-275 817,-294"/>
<text text-anchor="middle" x="771.5" y="-282" font-family="Helvetica,sans-Serif" font-size="10.00">HwAccessor.cpp</text>
</a>
</g>
</g>
<!-- Node14&#45;&gt;Node15 -->
<g id="edge16" class="edge">
<title>Node14&#45;&gt;Node15</title>
<path fill="none" stroke="#63b8ff" d="M765.87,-318.64C767.29,-310.31 768.86,-301.05 769.98,-294.44"/>
<polygon fill="#63b8ff" stroke="#63b8ff" points="762.46,-317.81 764.24,-328.26 769.36,-318.98 762.46,-317.81"/>
</g>
<!-- Node14&#45;&gt;Node16 -->
<g id="edge17" class="edge">
<title>Node14&#45;&gt;Node16</title>
<path fill="none" stroke="#63b8ff" d="M791.47,-324.67C811.53,-315.09 837.64,-302.62 854.95,-294.36"/>
<polygon fill="#63b8ff" stroke="#63b8ff" points="790.21,-321.39 782.7,-328.86 793.23,-327.71 790.21,-321.39"/>
</g>
<!-- Node14&#45;&gt;Node17 -->
<g id="edge18" class="edge">
<title>Node14&#45;&gt;Node17</title>
<path fill="none" stroke="#63b8ff" d="M738.95,-323.46C724.23,-314.06 705.78,-302.28 693.37,-294.36"/>
<polygon fill="#63b8ff" stroke="#63b8ff" points="736.83,-326.26 747.14,-328.69 740.6,-320.36 736.83,-326.26"/>
</g>
<!-- Node17&#45;&gt;Node4 -->
<g id="edge19" class="edge">
<title>Node17&#45;&gt;Node4</title>
<path fill="none" stroke="#63b8ff" d="M652.96,-269C635.61,-259.52 613.49,-247.43 598.71,-239.36"/>
<polygon fill="#63b8ff" stroke="#63b8ff" points="651.26,-272.06 661.72,-273.78 654.62,-265.92 651.26,-272.06"/>
</g>
<!-- Node18 -->
<g id="node18" class="node">
<title>Node18</title>
<g id="a_node18"><a xlink:href="_reg_accessor_8hpp.html" target="_top" xlink:title=" ">
<polygon fill="white" stroke="#666666" points="801,-239 708,-239 708,-220 801,-220 801,-239"/>
<text text-anchor="middle" x="754.5" y="-227" font-family="Helvetica,sans-Serif" font-size="10.00">RegAccessor.hpp</text>
</a>
</g>
</g>
<!-- Node17&#45;&gt;Node18 -->
<g id="edge20" class="edge">
<title>Node17&#45;&gt;Node18</title>
<path fill="none" stroke="#63b8ff" d="M701.55,-267.92C714.72,-258.61 730.97,-247.13 741.97,-239.36"/>
<polygon fill="#63b8ff" stroke="#63b8ff" points="699.61,-265.01 693.46,-273.64 703.65,-270.72 699.61,-265.01"/>
</g>
<!-- Node19 -->
<g id="node19" class="node">
<title>Node19</title>
<g id="a_node19"><a xlink:href="_uio_axi_dma_if_8hpp.html" target="_top" xlink:title=" ">
<polygon fill="white" stroke="#666666" points="724,-184 635,-184 635,-165 724,-165 724,-184"/>
<text text-anchor="middle" x="679.5" y="-172" font-family="Helvetica,sans-Serif" font-size="10.00">UioAxiDmaIf.hpp</text>
</a>
</g>
</g>
<!-- Node17&#45;&gt;Node19 -->
<g id="edge27" class="edge">
<title>Node17&#45;&gt;Node19</title>
<path fill="none" stroke="#63b8ff" d="M679.5,-263.24C679.5,-239.63 679.5,-201.65 679.5,-184.46"/>
<polygon fill="#63b8ff" stroke="#63b8ff" points="676,-263.15 679.5,-273.15 683,-263.15 676,-263.15"/>
</g>
<!-- Node21 -->
<g id="node21" class="node">
<title>Node21</title>
<g id="a_node21"><a xlink:href="_uio_axi_vdma_if_8hpp.html" target="_top" xlink:title=" ">
<polygon fill="white" stroke="#666666" points="857,-184 762,-184 762,-165 857,-165 857,-184"/>
<text text-anchor="middle" x="809.5" y="-172" font-family="Helvetica,sans-Serif" font-size="10.00">UioAxiVdmaIf.hpp</text>
</a>
</g>
</g>
<!-- Node17&#45;&gt;Node21 -->
<g id="edge28" class="edge">
<title>Node17&#45;&gt;Node21</title>
<path fill="none" stroke="#63b8ff" d="M718.62,-272.71C755.16,-262.23 804.91,-246.81 810.5,-239 822.19,-222.69 816.75,-197.47 812.63,-184.26"/>
<polygon fill="#63b8ff" stroke="#63b8ff" points="717.89,-269.27 709.22,-275.37 719.8,-276.01 717.89,-269.27"/>
</g>
<!-- Node23 -->
<g id="node23" class="node">
<title>Node23</title>
<g id="a_node23"><a xlink:href="_uio_if_8cpp.html" target="_top" xlink:title=" ">
<polygon fill="white" stroke="#666666" points="913.5,-239 857.5,-239 857.5,-220 913.5,-220 913.5,-239"/>
<text text-anchor="middle" x="885.5" y="-227" font-family="Helvetica,sans-Serif" font-size="10.00">UioIf.cpp</text>
</a>
</g>
</g>
<!-- Node17&#45;&gt;Node23 -->
<g id="edge29" class="edge">
<title>Node17&#45;&gt;Node23</title>
<path fill="none" stroke="#63b8ff" d="M718.77,-273.4C759.27,-262.98 821.42,-246.99 857.3,-237.76"/>
<polygon fill="#63b8ff" stroke="#63b8ff" points="717.99,-269.98 709.18,-275.86 719.73,-276.76 717.99,-269.98"/>
</g>
<!-- Node18&#45;&gt;Node13 -->
<g id="edge26" class="edge">
<title>Node18&#45;&gt;Node13</title>
<path fill="none" stroke="#63b8ff" d="M696.37,-221.45C610.44,-211.03 450.9,-191.68 368.98,-181.74"/>
<polygon fill="#63b8ff" stroke="#63b8ff" points="695.88,-224.92 706.23,-222.65 696.72,-217.97 695.88,-224.92"/>
</g>
<!-- Node18&#45;&gt;Node19 -->
<g id="edge21" class="edge">
<title>Node18&#45;&gt;Node19</title>
<path fill="none" stroke="#63b8ff" d="M732.45,-212.92C719.28,-203.61 703.03,-192.13 692.03,-184.36"/>
<polygon fill="#63b8ff" stroke="#63b8ff" points="730.35,-215.72 740.54,-218.64 734.39,-210.01 730.35,-215.72"/>
</g>
<!-- Node18&#45;&gt;Node21 -->
<g id="edge24" class="edge">
<title>Node18&#45;&gt;Node21</title>
<path fill="none" stroke="#63b8ff" d="M771.85,-211.78C781.25,-202.72 792.48,-191.9 800.22,-184.44"/>
<polygon fill="#63b8ff" stroke="#63b8ff" points="769.44,-209.24 764.67,-218.7 774.3,-214.28 769.44,-209.24"/>
</g>
<!-- Node19&#45;&gt;Node7 -->
<g id="edge22" class="edge">
<title>Node19&#45;&gt;Node7</title>
<path fill="none" stroke="#63b8ff" d="M623.71,-165.33C557.46,-155.63 447.32,-139.51 378.76,-129.47"/>
<polygon fill="#63b8ff" stroke="#63b8ff" points="622.85,-168.74 633.25,-166.73 623.86,-161.82 622.85,-168.74"/>
</g>
<!-- Node20 -->
<g id="node20" class="node">
<title>Node20</title>
<g id="a_node20"><a xlink:href="_uio_axi_dma_if_8cpp.html" target="_top" xlink:title=" ">
<polygon fill="white" stroke="#666666" points="724,-129 635,-129 635,-110 724,-110 724,-129"/>
<text text-anchor="middle" x="679.5" y="-117" font-family="Helvetica,sans-Serif" font-size="10.00">UioAxiDmaIf.cpp</text>
</a>
</g>
</g>
<!-- Node19&#45;&gt;Node20 -->
<g id="edge23" class="edge">
<title>Node19&#45;&gt;Node20</title>
<path fill="none" stroke="#63b8ff" d="M679.5,-153.35C679.5,-145.1 679.5,-135.97 679.5,-129.44"/>
<polygon fill="#63b8ff" stroke="#63b8ff" points="676,-153.23 679.5,-163.23 683,-153.23 676,-153.23"/>
</g>
<!-- Node22 -->
<g id="node22" class="node">
<title>Node22</title>
<g id="a_node22"><a xlink:href="_uio_axi_vdma_if_8cpp.html" target="_top" xlink:title=" ">
<polygon fill="white" stroke="#666666" points="857,-129 762,-129 762,-110 857,-110 857,-129"/>
<text text-anchor="middle" x="809.5" y="-117" font-family="Helvetica,sans-Serif" font-size="10.00">UioAxiVdmaIf.cpp</text>
</a>
</g>
</g>
<!-- Node21&#45;&gt;Node22 -->
<g id="edge25" class="edge">
<title>Node21&#45;&gt;Node22</title>
<path fill="none" stroke="#63b8ff" d="M809.5,-153.35C809.5,-145.1 809.5,-135.97 809.5,-129.44"/>
<polygon fill="#63b8ff" stroke="#63b8ff" points="806,-153.23 809.5,-163.23 813,-153.23 806,-153.23"/>
</g>
</g>
</svg>
        <g id="navigator" transform="translate(0 0)" fill="#404254">
                <rect fill="#f2f5e9" fill-opacity="0.5" stroke="#606060" stroke-width=".5" x="0" y="0" width="60" height="60"/>
                <use id="zoomplus" xlink:href="#zoomPlus" x="17" y="9" onmousedown="handleZoom(evt,'in')"/>
                <use id="zoomminus" xlink:href="#zoomMin" x="42" y="9" onmousedown="handleZoom(evt,'out')"/>
                <use id="reset" xlink:href="#resetDef" x="30" y="36" onmousedown="handleReset()"/>
                <g id="arrowUp" xlink:href="#dirArrow" transform="translate(30 24)" onmousedown="handlePan(0,-1)">
                  <use xlink:href="#rim" fill="#404040">
                        <set attributeName="fill" to="#808080" begin="arrowUp.mouseover" end="arrowUp.mouseout"/>
                  </use>
                  <path fill="none" stroke="white" stroke-width="1.5" d="M0,-3.0v7 M-2.5,-0.5L0,-3.0L2.5,-0.5"/>
                </g>
                <g id="arrowRight" xlink:href="#dirArrow" transform="rotate(90) translate(36 -43)" onmousedown="handlePan(1,0)">
                  <use xlink:href="#rim" fill="#404040">
                        <set attributeName="fill" to="#808080" begin="arrowRight.mouseover" end="arrowRight.mouseout"/>
                  </use>
                  <path fill="none" stroke="white" stroke-width="1.5" d="M0,-3.0v7 M-2.5,-0.5L0,-3.0L2.5,-0.5"/>
                </g>
                <g id="arrowDown" xlink:href="#dirArrow" transform="rotate(180) translate(-30 -48)" onmousedown="handlePan(0,1)">
                  <use xlink:href="#rim" fill="#404040">
                        <set attributeName="fill" to="#808080" begin="arrowDown.mouseover" end="arrowDown.mouseout"/>
                  </use>
                  <path fill="none" stroke="white" stroke-width="1.5" d="M0,-3.0v7 M-2.5,-0.5L0,-3.0L2.5,-0.5"/>
                </g>
                <g id="arrowLeft" xlink:href="#dirArrow" transform="rotate(270) translate(-36 17)" onmousedown="handlePan(-1,0)">
                  <use xlink:href="#rim" fill="#404040">
                        <set attributeName="fill" to="#808080" begin="arrowLeft.mouseover" end="arrowLeft.mouseout"/>
                  </use>
                  <path fill="none" stroke="white" stroke-width="1.5" d="M0,-3.0v7 M-2.5,-0.5L0,-3.0L2.5,-0.5"/>
                </g>
        </g>
        <svg viewBox="0 0 15 15" width="100%" height="30px" preserveAspectRatio="xMaxYMin meet">
         <g id="arrow_out" transform="scale(0.3 0.3)">
          <a xlink:href="_uio_config_8hpp__dep__incl_org.svg" target="_base">
           <rect id="button" ry="5" rx="5" y="6" x="6" height="38" width="38"
                fill="#f2f5e9" fill-opacity="0.5" stroke="#606060" stroke-width="1.0"/>
           <path id="arrow"
             d="M 11.500037,31.436501 C 11.940474,20.09759 22.043105,11.32322 32.158766,21.979434 L 37.068811,17.246167 C 37.068811,17.246167 37.088388,32 37.088388,32 L 22.160133,31.978069 C 22.160133,31.978069 26.997745,27.140456 26.997745,27.140456 C 18.528582,18.264221 13.291696,25.230495 11.500037,31.436501 z"
             style="fill:#404040;"/>
          </a>
         </g>
        </svg>
</svg>
