<?xml version="1.0" encoding="UTF-8" standalone="no"?>
<!DOCTYPE svg PUBLIC "-//W3C//DTD SVG 1.1//EN"
 "http://www.w3.org/Graphics/SVG/1.1/DTD/svg11.dtd">
<!-- Generated by graphviz version 7.0.5 (20221223.1930)
 -->
<!-- Title: UioAxiDmaIf.cpp Pages: 1 -->
<svg width="1838pt" height="368pt"
 viewBox="0.00 0.00 1838.00 368.00" xmlns="http://www.w3.org/2000/svg" xmlns:xlink="http://www.w3.org/1999/xlink">
<g id="graph0" class="graph" transform="scale(1 1) rotate(0) translate(4 364)">
<title>UioAxiDmaIf.cpp</title>
<!-- Node1 -->
<g id="node1" class="node">
<title>Node1</title>
<g id="a_node1"><a xlink:title=" ">
<polygon fill="#999999" stroke="#666666" points="1105,-360 1016,-360 1016,-341 1105,-341 1105,-360"/>
<text text-anchor="middle" x="1060.5" y="-348" font-family="Helvetica,sans-Serif" font-size="10.00">UioAxiDmaIf.cpp</text>
</a>
</g>
</g>
<!-- Node2 -->
<g id="node2" class="node">
<title>Node2</title>
<g id="a_node2"><a xlink:href="_uio_axi_dma_if_8hpp.html" target="_top" xlink:title=" ">
<polygon fill="white" stroke="#666666" points="790.5,-305 666.5,-305 666.5,-286 790.5,-286 790.5,-305"/>
<text text-anchor="middle" x="728.5" y="-293" font-family="Helvetica,sans-Serif" font-size="10.00">udmaio/UioAxiDmaIf.hpp</text>
</a>
</g>
</g>
<!-- Node1&#45;&gt;Node2 -->
<g id="edge1" class="edge">
<title>Node1&#45;&gt;Node2</title>
<path fill="none" stroke="#63b8ff" d="M1015.73,-342.35C959.17,-333.32 861.35,-317.71 795.78,-307.24"/>
<polygon fill="#63b8ff" stroke="#63b8ff" points="796.66,-303.84 786.24,-305.72 795.56,-310.75 796.66,-303.84"/>
</g>
<!-- Node3 -->
<g id="node3" class="node">
<title>Node3</title>
<g id="a_node3"><a xlink:title=" ">
<polygon fill="#e0e0e0" stroke="#999999" points="837.5,-195 791.5,-195 791.5,-176 837.5,-176 837.5,-195"/>
<text text-anchor="middle" x="814.5" y="-183" font-family="Helvetica,sans-Serif" font-size="10.00">cstdint</text>
</a>
</g>
</g>
<!-- Node1&#45;&gt;Node3 -->
<g id="edge52" class="edge">
<title>Node1&#45;&gt;Node3</title>
<path fill="none" stroke="#63b8ff" d="M1053.69,-340.78C1036.47,-319.24 988.85,-262.98 937.5,-231 909.75,-213.72 874.32,-201.8 848.61,-194.68"/>
<polygon fill="#63b8ff" stroke="#63b8ff" points="849.58,-191.32 839.02,-192.13 847.78,-198.08 849.58,-191.32"/>
</g>
<!-- Node29 -->
<g id="node29" class="node">
<title>Node29</title>
<g id="a_node29"><a xlink:title=" ">
<polygon fill="#e0e0e0" stroke="#999999" points="844,-24.5 785,-24.5 785,-5.5 844,-5.5 844,-24.5"/>
<text text-anchor="middle" x="814.5" y="-12.5" font-family="Helvetica,sans-Serif" font-size="10.00">stdexcept</text>
</a>
</g>
</g>
<!-- Node1&#45;&gt;Node29 -->
<g id="edge54" class="edge">
<title>Node1&#45;&gt;Node29</title>
<path fill="none" stroke="#63b8ff" d="M1075.37,-340.67C1114.27,-316.37 1213.97,-245.62 1182.5,-176 1152.02,-108.57 1124.2,-98.07 1057.5,-66 974.52,-26.11 942.48,-53.64 853.5,-30 851.77,-29.54 850,-29.04 848.22,-28.5"/>
<polygon fill="#63b8ff" stroke="#63b8ff" points="849.42,-25.21 838.83,-25.42 847.24,-31.86 849.42,-25.21"/>
</g>
<!-- Node32 -->
<g id="node32" class="node">
<title>Node32</title>
<g id="a_node32"><a xlink:title=" ">
<polygon fill="#e0e0e0" stroke="#999999" points="1259,-305 1230,-305 1230,-286 1259,-286 1259,-305"/>
<text text-anchor="middle" x="1244.5" y="-293" font-family="Helvetica,sans-Serif" font-size="10.00">ios</text>
</a>
</g>
</g>
<!-- Node1&#45;&gt;Node32 -->
<g id="edge53" class="edge">
<title>Node1&#45;&gt;Node32</title>
<path fill="none" stroke="#63b8ff" d="M1091.98,-340.52C1123.31,-331.56 1172.75,-317.4 1215.5,-305 1216.66,-304.66 1217.84,-304.32 1219.04,-303.97"/>
<polygon fill="#63b8ff" stroke="#63b8ff" points="1219.68,-307.43 1228.3,-301.26 1217.72,-300.71 1219.68,-307.43"/>
</g>
<!-- Node33 -->
<g id="node33" class="node">
<title>Node33</title>
<g id="a_node33"><a xlink:href="_frame_format_8hpp.html" target="_top" xlink:title=" ">
<polygon fill="white" stroke="#666666" points="1124.5,-250 996.5,-250 996.5,-231 1124.5,-231 1124.5,-250"/>
<text text-anchor="middle" x="1060.5" y="-238" font-family="Helvetica,sans-Serif" font-size="10.00">udmaio/FrameFormat.hpp</text>
</a>
</g>
</g>
<!-- Node1&#45;&gt;Node33 -->
<g id="edge55" class="edge">
<title>Node1&#45;&gt;Node33</title>
<path fill="none" stroke="#63b8ff" d="M1060.5,-340.66C1060.5,-323.57 1060.5,-285.61 1060.5,-261.92"/>
<polygon fill="#63b8ff" stroke="#63b8ff" points="1064,-261.97 1060.5,-251.97 1057,-261.97 1064,-261.97"/>
</g>
<!-- Node2&#45;&gt;Node3 -->
<g id="edge2" class="edge">
<title>Node2&#45;&gt;Node3</title>
<path fill="none" stroke="#63b8ff" d="M729.22,-285.87C730.69,-272.82 735.03,-247.83 747.5,-231 756.88,-218.34 771.01,-208.19 783.87,-200.81"/>
<polygon fill="#63b8ff" stroke="#63b8ff" points="785.32,-204 792.48,-196.19 782.01,-197.84 785.32,-204"/>
</g>
<!-- Node4 -->
<g id="node4" class="node">
<title>Node4</title>
<g id="a_node4"><a xlink:title=" ">
<polygon fill="#e0e0e0" stroke="#999999" points="928.5,-250 890.5,-250 890.5,-231 928.5,-231 928.5,-250"/>
<text text-anchor="middle" x="909.5" y="-238" font-family="Helvetica,sans-Serif" font-size="10.00">tuple</text>
</a>
</g>
</g>
<!-- Node2&#45;&gt;Node4 -->
<g id="edge3" class="edge">
<title>Node2&#45;&gt;Node4</title>
<path fill="none" stroke="#63b8ff" d="M759.59,-285.57C788.29,-277.31 832.38,-264.55 879.23,-250.65"/>
<polygon fill="#63b8ff" stroke="#63b8ff" points="880.19,-254.02 888.78,-247.81 878.2,-247.31 880.19,-254.02"/>
</g>
<!-- Node5 -->
<g id="node5" class="node">
<title>Node5</title>
<g id="a_node5"><a xlink:title=" ">
<polygon fill="#e0e0e0" stroke="#999999" points="65,-85 0,-85 0,-66 65,-66 65,-85"/>
<text text-anchor="middle" x="32.5" y="-73" font-family="Helvetica,sans-Serif" font-size="10.00">sys/types.h</text>
</a>
</g>
</g>
<!-- Node2&#45;&gt;Node5 -->
<g id="edge4" class="edge">
<title>Node2&#45;&gt;Node5</title>
<path fill="none" stroke="#63b8ff" d="M666.17,-287.81C517.32,-270.66 146.73,-220.74 55.5,-140 43,-128.94 37.29,-110.55 34.69,-96.4"/>
<polygon fill="#63b8ff" stroke="#63b8ff" points="38.2,-96.25 33.32,-86.85 31.27,-97.24 38.2,-96.25"/>
</g>
<!-- Node6 -->
<g id="node6" class="node">
<title>Node6</title>
<g id="a_node6"><a xlink:href="_reg_accessor_8hpp.html" target="_top" xlink:title=" ">
<polygon fill="white" stroke="#666666" points="700,-250 607,-250 607,-231 700,-231 700,-250"/>
<text text-anchor="middle" x="653.5" y="-238" font-family="Helvetica,sans-Serif" font-size="10.00">RegAccessor.hpp</text>
</a>
</g>
</g>
<!-- Node2&#45;&gt;Node6 -->
<g id="edge5" class="edge">
<title>Node2&#45;&gt;Node6</title>
<path fill="none" stroke="#63b8ff" d="M715.78,-285.51C704.72,-277.7 688.46,-266.21 675.33,-256.93"/>
<polygon fill="#63b8ff" stroke="#63b8ff" points="677.46,-254.14 667.27,-251.23 673.42,-259.86 677.46,-254.14"/>
</g>
<!-- Node7 -->
<g id="node7" class="node">
<title>Node7</title>
<g id="a_node7"><a xlink:href="_uio_if_8hpp.html" target="_top" xlink:title=" ">
<polygon fill="white" stroke="#666666" points="605.5,-195 515.5,-195 515.5,-176 605.5,-176 605.5,-195"/>
<text text-anchor="middle" x="560.5" y="-183" font-family="Helvetica,sans-Serif" font-size="10.00">udmaio/UioIf.hpp</text>
</a>
</g>
</g>
<!-- Node2&#45;&gt;Node7 -->
<g id="edge49" class="edge">
<title>Node2&#45;&gt;Node7</title>
<path fill="none" stroke="#63b8ff" d="M675.44,-285.53C649.74,-279.07 619.72,-268.17 597.5,-250 583.3,-238.39 573.38,-219.8 567.41,-205.72"/>
<polygon fill="#63b8ff" stroke="#63b8ff" points="570.76,-204.68 563.87,-196.63 564.24,-207.22 570.76,-204.68"/>
</g>
<!-- Node31 -->
<g id="node31" class="node">
<title>Node31</title>
<g id="a_node31"><a xlink:href="_axi_dma_8hpp.html" target="_top" xlink:title=" ">
<polygon fill="white" stroke="#666666" points="872.5,-250 756.5,-250 756.5,-231 872.5,-231 872.5,-250"/>
<text text-anchor="middle" x="814.5" y="-238" font-family="Helvetica,sans-Serif" font-size="10.00">udmaio/rdl/AxiDma.hpp</text>
</a>
</g>
</g>
<!-- Node2&#45;&gt;Node31 -->
<g id="edge50" class="edge">
<title>Node2&#45;&gt;Node31</title>
<path fill="none" stroke="#63b8ff" d="M743.09,-285.51C756.02,-277.54 775.14,-265.75 790.35,-256.38"/>
<polygon fill="#63b8ff" stroke="#63b8ff" points="792.16,-259.38 798.84,-251.15 788.49,-253.42 792.16,-259.38"/>
</g>
<!-- Node6&#45;&gt;Node3 -->
<g id="edge6" class="edge">
<title>Node6&#45;&gt;Node3</title>
<path fill="none" stroke="#63b8ff" d="M680.81,-230.51C708.34,-221.45 750.88,-207.44 780.56,-197.67"/>
<polygon fill="#63b8ff" stroke="#63b8ff" points="781.4,-201.08 789.8,-194.63 779.21,-194.43 781.4,-201.08"/>
</g>
<!-- Node6&#45;&gt;Node7 -->
<g id="edge7" class="edge">
<title>Node6&#45;&gt;Node7</title>
<path fill="none" stroke="#63b8ff" d="M637.72,-230.51C623.48,-222.39 602.26,-210.3 585.67,-200.85"/>
<polygon fill="#63b8ff" stroke="#63b8ff" points="587.78,-198.02 577.36,-196.11 584.31,-204.1 587.78,-198.02"/>
</g>
<!-- Node7&#45;&gt;Node5 -->
<g id="edge17" class="edge">
<title>Node7&#45;&gt;Node5</title>
<path fill="none" stroke="#63b8ff" d="M515.17,-184.94C410.12,-185.24 153.3,-181.57 79.5,-140 61.79,-130.02 48.83,-110.31 41.06,-95.48"/>
<polygon fill="#63b8ff" stroke="#63b8ff" points="44.31,-94.17 36.8,-86.7 38.01,-97.23 44.31,-94.17"/>
</g>
<!-- Node8 -->
<g id="node8" class="node">
<title>Node8</title>
<g id="a_node8"><a xlink:title=" ">
<polygon fill="#e0e0e0" stroke="#999999" points="912.5,-85 852.5,-85 852.5,-66 912.5,-66 912.5,-85"/>
<text text-anchor="middle" x="882.5" y="-73" font-family="Helvetica,sans-Serif" font-size="10.00">filesystem</text>
</a>
</g>
</g>
<!-- Node7&#45;&gt;Node8 -->
<g id="edge8" class="edge">
<title>Node7&#45;&gt;Node8</title>
<path fill="none" stroke="#63b8ff" d="M605.9,-175.62C642.69,-167.87 695.6,-155.45 740.5,-140 781.53,-125.88 826.99,-104.47 855.16,-90.48"/>
<polygon fill="#63b8ff" stroke="#63b8ff" points="856.69,-93.63 864.06,-86.02 853.55,-87.38 856.69,-93.63"/>
</g>
<!-- Node9 -->
<g id="node9" class="node">
<title>Node9</title>
<g id="a_node9"><a xlink:title=" ">
<polygon fill="#e0e0e0" stroke="#999999" points="980.5,-85 930.5,-85 930.5,-66 980.5,-66 980.5,-85"/>
<text text-anchor="middle" x="955.5" y="-73" font-family="Helvetica,sans-Serif" font-size="10.00">fstream</text>
</a>
</g>
</g>
<!-- Node7&#45;&gt;Node9 -->
<g id="edge9" class="edge">
<title>Node7&#45;&gt;Node9</title>
<path fill="none" stroke="#63b8ff" d="M605.83,-177.12C650.03,-169.47 718.98,-156.35 777.5,-140 829.25,-125.54 887.64,-103.59 922.99,-89.66"/>
<polygon fill="#63b8ff" stroke="#63b8ff" points="924.21,-92.94 932.21,-85.99 921.63,-86.43 924.21,-92.94"/>
</g>
<!-- Node10 -->
<g id="node10" class="node">
<title>Node10</title>
<g id="a_node10"><a xlink:title=" ">
<polygon fill="#e0e0e0" stroke="#999999" points="612.5,-24.5 558.5,-24.5 558.5,-5.5 612.5,-5.5 612.5,-24.5"/>
<text text-anchor="middle" x="585.5" y="-12.5" font-family="Helvetica,sans-Serif" font-size="10.00">iostream</text>
</a>
</g>
</g>
<!-- Node7&#45;&gt;Node10 -->
<g id="edge10" class="edge">
<title>Node7&#45;&gt;Node10</title>
<path fill="none" stroke="#63b8ff" d="M515.18,-183.32C407.6,-180.05 143.85,-169.13 117.5,-140 95.44,-115.61 95.51,-90.46 117.5,-66 146.06,-34.22 440.36,-20.99 547.1,-17.22"/>
<polygon fill="#63b8ff" stroke="#63b8ff" points="546.9,-20.73 556.78,-16.88 546.66,-13.73 546.9,-20.73"/>
</g>
<!-- Node11 -->
<g id="node11" class="node">
<title>Node11</title>
<g id="a_node11"><a xlink:title=" ">
<polygon fill="#e0e0e0" stroke="#999999" points="682,-24.5 631,-24.5 631,-5.5 682,-5.5 682,-24.5"/>
<text text-anchor="middle" x="656.5" y="-12.5" font-family="Helvetica,sans-Serif" font-size="10.00">memory</text>
</a>
</g>
</g>
<!-- Node7&#45;&gt;Node11 -->
<g id="edge11" class="edge">
<title>Node7&#45;&gt;Node11</title>
<path fill="none" stroke="#63b8ff" d="M515.03,-179.27C397.89,-164.91 98.44,-122.19 150.5,-66 186.17,-27.5 570.38,-41.88 621.5,-30 623.13,-29.62 624.79,-29.18 626.45,-28.68"/>
<polygon fill="#63b8ff" stroke="#63b8ff" points="627.5,-32.03 635.79,-25.43 625.19,-25.42 627.5,-32.03"/>
</g>
<!-- Node12 -->
<g id="node12" class="node">
<title>Node12</title>
<g id="a_node12"><a xlink:title=" ">
<polygon fill="#e0e0e0" stroke="#999999" points="903,-24.5 862,-24.5 862,-5.5 903,-5.5 903,-24.5"/>
<text text-anchor="middle" x="882.5" y="-12.5" font-family="Helvetica,sans-Serif" font-size="10.00">string</text>
</a>
</g>
</g>
<!-- Node7&#45;&gt;Node12 -->
<g id="edge12" class="edge">
<title>Node7&#45;&gt;Node12</title>
<path fill="none" stroke="#63b8ff" d="M605.89,-178.77C723.19,-163.5 1029.24,-120.57 1057.5,-85 1086.79,-48.14 1042.01,-75.81 912.5,-30 911.86,-29.77 911.21,-29.54 910.56,-29.29"/>
<polygon fill="#63b8ff" stroke="#63b8ff" points="912,-26.1 901.43,-25.46 909.29,-32.56 912,-26.1"/>
</g>
<!-- Node13 -->
<g id="node13" class="node">
<title>Node13</title>
<g id="a_node13"><a xlink:title=" ">
<polygon fill="#e0e0e0" stroke="#999999" points="297,-85 160,-85 160,-66 297,-66 297,-85"/>
<text text-anchor="middle" x="228.5" y="-73" font-family="Helvetica,sans-Serif" font-size="10.00">boost/core/noncopyable.hpp</text>
</a>
</g>
</g>
<!-- Node7&#45;&gt;Node13 -->
<g id="edge13" class="edge">
<title>Node7&#45;&gt;Node13</title>
<path fill="none" stroke="#63b8ff" d="M533.05,-175.57C473.89,-156.33 334.26,-110.9 266.59,-88.89"/>
<polygon fill="#63b8ff" stroke="#63b8ff" points="268.02,-85.67 257.42,-85.91 265.85,-92.33 268.02,-85.67"/>
</g>
<!-- Node14 -->
<g id="node14" class="node">
<title>Node14</title>
<g id="a_node14"><a xlink:title=" ">
<polygon fill="#e0e0e0" stroke="#999999" points="358,-85 315,-85 315,-66 358,-66 358,-85"/>
<text text-anchor="middle" x="336.5" y="-73" font-family="Helvetica,sans-Serif" font-size="10.00">fcntl.h</text>
</a>
</g>
</g>
<!-- Node7&#45;&gt;Node14 -->
<g id="edge14" class="edge">
<title>Node7&#45;&gt;Node14</title>
<path fill="none" stroke="#63b8ff" d="M542.17,-175.66C503.28,-156.91 412.26,-113.03 365.44,-90.45"/>
<polygon fill="#63b8ff" stroke="#63b8ff" points="366.98,-87.31 356.45,-86.12 363.94,-93.61 366.98,-87.31"/>
</g>
<!-- Node15 -->
<g id="node15" class="node">
<title>Node15</title>
<g id="a_node15"><a xlink:title=" ">
<polygon fill="#e0e0e0" stroke="#999999" points="445,-85 376,-85 376,-66 445,-66 445,-85"/>
<text text-anchor="middle" x="410.5" y="-73" font-family="Helvetica,sans-Serif" font-size="10.00">sys/mman.h</text>
</a>
</g>
</g>
<!-- Node7&#45;&gt;Node15 -->
<g id="edge15" class="edge">
<title>Node7&#45;&gt;Node15</title>
<path fill="none" stroke="#63b8ff" d="M548.22,-175.66C522.73,-157.31 463.79,-114.87 431.9,-91.91"/>
<polygon fill="#63b8ff" stroke="#63b8ff" points="434.33,-89.35 424.17,-86.34 430.24,-95.03 434.33,-89.35"/>
</g>
<!-- Node16 -->
<g id="node16" class="node">
<title>Node16</title>
<g id="a_node16"><a xlink:title=" ">
<polygon fill="#e0e0e0" stroke="#999999" points="522,-85 463,-85 463,-66 522,-66 522,-85"/>
<text text-anchor="middle" x="492.5" y="-73" font-family="Helvetica,sans-Serif" font-size="10.00">sys/stat.h</text>
</a>
</g>
</g>
<!-- Node7&#45;&gt;Node16 -->
<g id="edge16" class="edge">
<title>Node7&#45;&gt;Node16</title>
<path fill="none" stroke="#63b8ff" d="M554.94,-175.66C543.88,-158.1 518.93,-118.48 504.14,-94.98"/>
<polygon fill="#63b8ff" stroke="#63b8ff" points="507.24,-93.34 498.95,-86.74 501.31,-97.07 507.24,-93.34"/>
</g>
<!-- Node17 -->
<g id="node17" class="node">
<title>Node17</title>
<g id="a_node17"><a xlink:title=" ">
<polygon fill="#e0e0e0" stroke="#999999" points="590.5,-85 540.5,-85 540.5,-66 590.5,-66 590.5,-85"/>
<text text-anchor="middle" x="565.5" y="-73" font-family="Helvetica,sans-Serif" font-size="10.00">unistd.h</text>
</a>
</g>
</g>
<!-- Node7&#45;&gt;Node17 -->
<g id="edge18" class="edge">
<title>Node7&#45;&gt;Node17</title>
<path fill="none" stroke="#63b8ff" d="M560.91,-175.66C561.7,-158.57 563.46,-120.61 564.55,-96.92"/>
<polygon fill="#63b8ff" stroke="#63b8ff" points="568.05,-97.12 565.02,-86.97 561.06,-96.8 568.05,-97.12"/>
</g>
<!-- Node18 -->
<g id="node18" class="node">
<title>Node18</title>
<g id="a_node18"><a xlink:href="_hw_accessor_8hpp.html" target="_top" xlink:title=" ">
<polygon fill="white" stroke="#666666" points="712,-140 587,-140 587,-121 712,-121 712,-140"/>
<text text-anchor="middle" x="649.5" y="-128" font-family="Helvetica,sans-Serif" font-size="10.00">udmaio/HwAccessor.hpp</text>
</a>
</g>
</g>
<!-- Node7&#45;&gt;Node18 -->
<g id="edge19" class="edge">
<title>Node7&#45;&gt;Node18</title>
<path fill="none" stroke="#63b8ff" d="M575.6,-175.51C589.1,-167.47 609.15,-155.53 624.96,-146.11"/>
<polygon fill="#63b8ff" stroke="#63b8ff" points="626.52,-149.26 633.32,-141.13 622.94,-143.24 626.52,-149.26"/>
</g>
<!-- Node20 -->
<g id="node20" class="node">
<title>Node20</title>
<g id="a_node20"><a xlink:href="_logging_8hpp.html" target="_top" xlink:title=" ">
<polygon fill="white" stroke="#666666" points="1288.5,-85 1184.5,-85 1184.5,-66 1288.5,-66 1288.5,-85"/>
<text text-anchor="middle" x="1236.5" y="-73" font-family="Helvetica,sans-Serif" font-size="10.00">udmaio/Logging.hpp</text>
</a>
</g>
</g>
<!-- Node7&#45;&gt;Node20 -->
<g id="edge47" class="edge">
<title>Node7&#45;&gt;Node20</title>
<path fill="none" stroke="#63b8ff" d="M605.71,-182.32C685.68,-177.93 857.09,-166.12 999.5,-140 1070.72,-126.94 1151.85,-103.22 1198.33,-88.76"/>
<polygon fill="#63b8ff" stroke="#63b8ff" points="1199.16,-92.17 1207.65,-85.84 1197.07,-85.49 1199.16,-92.17"/>
</g>
<!-- Node28 -->
<g id="node28" class="node">
<title>Node28</title>
<g id="a_node28"><a xlink:href="_uio_config_8hpp.html" target="_top" xlink:title=" ">
<polygon fill="white" stroke="#666666" points="796,-85 685,-85 685,-66 796,-66 796,-85"/>
<text text-anchor="middle" x="740.5" y="-73" font-family="Helvetica,sans-Serif" font-size="10.00">udmaio/UioConfig.hpp</text>
</a>
</g>
</g>
<!-- Node7&#45;&gt;Node28 -->
<g id="edge48" class="edge">
<title>Node7&#45;&gt;Node28</title>
<path fill="none" stroke="#63b8ff" d="M605.91,-183.45C641.81,-180.21 690.83,-170.03 721.5,-140 733.08,-128.66 737.67,-110.57 739.46,-96.59"/>
<polygon fill="#63b8ff" stroke="#63b8ff" points="742.93,-97 740.3,-86.74 735.96,-96.4 742.93,-97"/>
</g>
<!-- Node18&#45;&gt;Node5 -->
<g id="edge30" class="edge">
<title>Node18&#45;&gt;Node5</title>
<path fill="none" stroke="#63b8ff" d="M586.66,-124.1C461.74,-113.37 184.96,-89.6 76.92,-80.32"/>
<polygon fill="#63b8ff" stroke="#63b8ff" points="77.27,-76.83 67.01,-79.46 76.67,-83.81 77.27,-76.83"/>
</g>
<!-- Node18&#45;&gt;Node8 -->
<g id="edge21" class="edge">
<title>Node18&#45;&gt;Node8</title>
<path fill="none" stroke="#63b8ff" d="M689.03,-120.51C731.25,-110.91 797.88,-95.75 840.89,-85.97"/>
<polygon fill="#63b8ff" stroke="#63b8ff" points="841.63,-89.39 850.61,-83.75 840.08,-82.56 841.63,-89.39"/>
</g>
<!-- Node18&#45;&gt;Node9 -->
<g id="edge22" class="edge">
<title>Node18&#45;&gt;Node9</title>
<path fill="none" stroke="#63b8ff" d="M712.43,-120.71C765.14,-113.01 842.59,-100.91 919.03,-85.36"/>
<polygon fill="#63b8ff" stroke="#63b8ff" points="919.73,-88.79 928.82,-83.35 918.32,-81.94 919.73,-88.79"/>
</g>
<!-- Node18&#45;&gt;Node10 -->
<g id="edge23" class="edge">
<title>Node18&#45;&gt;Node10</title>
<path fill="none" stroke="#63b8ff" d="M644.48,-120.59C634.1,-102.19 610.11,-59.64 596.13,-34.85"/>
<polygon fill="#63b8ff" stroke="#63b8ff" points="599.2,-33.17 591.24,-26.18 593.11,-36.61 599.2,-33.17"/>
</g>
<!-- Node18&#45;&gt;Node11 -->
<g id="edge24" class="edge">
<title>Node18&#45;&gt;Node11</title>
<path fill="none" stroke="#63b8ff" d="M650.05,-120.59C651.16,-102.53 653.71,-61.17 655.25,-36.21"/>
<polygon fill="#63b8ff" stroke="#63b8ff" points="658.74,-36.57 655.86,-26.38 651.75,-36.14 658.74,-36.57"/>
</g>
<!-- Node18&#45;&gt;Node12 -->
<g id="edge25" class="edge">
<title>Node18&#45;&gt;Node12</title>
<path fill="none" stroke="#63b8ff" d="M702.74,-120.55C734.02,-113.8 773.57,-102.62 805.5,-85 830.2,-71.37 853.59,-48.47 867.97,-32.82"/>
<polygon fill="#63b8ff" stroke="#63b8ff" points="870.28,-35.49 874.33,-25.7 865.06,-30.82 870.28,-35.49"/>
</g>
<!-- Node18&#45;&gt;Node13 -->
<g id="edge26" class="edge">
<title>Node18&#45;&gt;Node13</title>
<path fill="none" stroke="#63b8ff" d="M586.93,-121.62C512.87,-112.3 389.43,-96.76 308.5,-86.57"/>
<polygon fill="#63b8ff" stroke="#63b8ff" points="309.23,-83.14 298.87,-85.36 308.36,-90.08 309.23,-83.14"/>
</g>
<!-- Node18&#45;&gt;Node14 -->
<g id="edge27" class="edge">
<title>Node18&#45;&gt;Node14</title>
<path fill="none" stroke="#63b8ff" d="M586.71,-121.83C531.68,-114.61 449.36,-102.61 369.61,-85.48"/>
<polygon fill="#63b8ff" stroke="#63b8ff" points="370.37,-82.06 359.86,-83.35 368.88,-88.9 370.37,-82.06"/>
</g>
<!-- Node18&#45;&gt;Node15 -->
<g id="edge28" class="edge">
<title>Node18&#45;&gt;Node15</title>
<path fill="none" stroke="#63b8ff" d="M608.96,-120.51C566.69,-111.14 500.57,-96.47 456.41,-86.68"/>
<polygon fill="#63b8ff" stroke="#63b8ff" points="457.4,-83.32 446.88,-84.57 455.89,-90.15 457.4,-83.32"/>
</g>
<!-- Node18&#45;&gt;Node16 -->
<g id="edge29" class="edge">
<title>Node18&#45;&gt;Node16</title>
<path fill="none" stroke="#63b8ff" d="M622.87,-120.51C597.3,-111.88 558.45,-98.76 529.81,-89.1"/>
<polygon fill="#63b8ff" stroke="#63b8ff" points="531.03,-85.81 520.44,-85.93 528.79,-92.45 531.03,-85.81"/>
</g>
<!-- Node18&#45;&gt;Node17 -->
<g id="edge31" class="edge">
<title>Node18&#45;&gt;Node17</title>
<path fill="none" stroke="#63b8ff" d="M635.25,-120.51C622.62,-112.54 603.94,-100.75 589.09,-91.38"/>
<polygon fill="#63b8ff" stroke="#63b8ff" points="591.14,-88.54 580.82,-86.17 587.41,-94.46 591.14,-88.54"/>
</g>
<!-- Node19 -->
<g id="node19" class="node">
<title>Node19</title>
<g id="a_node19"><a xlink:title=" ">
<polygon fill="#e0e0e0" stroke="#999999" points="1048,-85 999,-85 999,-66 1048,-66 1048,-85"/>
<text text-anchor="middle" x="1023.5" y="-73" font-family="Helvetica,sans-Serif" font-size="10.00">cstddef</text>
</a>
</g>
</g>
<!-- Node18&#45;&gt;Node19 -->
<g id="edge20" class="edge">
<title>Node18&#45;&gt;Node19</title>
<path fill="none" stroke="#63b8ff" d="M712.2,-123.48C778.27,-116.64 885.56,-104.15 987.56,-85.15"/>
<polygon fill="#63b8ff" stroke="#63b8ff" points="988.03,-88.63 997.2,-83.33 986.73,-81.75 988.03,-88.63"/>
</g>
<!-- Node18&#45;&gt;Node20 -->
<g id="edge32" class="edge">
<title>Node18&#45;&gt;Node20</title>
<path fill="none" stroke="#63b8ff" d="M712.32,-123.83C824.98,-113.66 1060.14,-92.42 1173.17,-82.22"/>
<polygon fill="#63b8ff" stroke="#63b8ff" points="1173.22,-85.73 1182.87,-81.34 1172.59,-78.76 1173.22,-85.73"/>
</g>
<!-- Node18&#45;&gt;Node28 -->
<g id="edge41" class="edge">
<title>Node18&#45;&gt;Node28</title>
<path fill="none" stroke="#63b8ff" d="M664.94,-120.51C678.75,-112.47 699.25,-100.53 715.41,-91.11"/>
<polygon fill="#63b8ff" stroke="#63b8ff" points="717.1,-94.18 723.98,-86.12 713.58,-88.13 717.1,-94.18"/>
</g>
<!-- Node20&#45;&gt;Node12 -->
<g id="edge33" class="edge">
<title>Node20&#45;&gt;Node12</title>
<path fill="none" stroke="#63b8ff" d="M1184.18,-67.73C1095.83,-56.24 925.37,-33.79 912.5,-30 911.54,-29.72 910.56,-29.4 909.59,-29.07"/>
<polygon fill="#63b8ff" stroke="#63b8ff" points="911.27,-25.98 900.69,-25.48 908.65,-32.47 911.27,-25.98"/>
</g>
<!-- Node21 -->
<g id="node21" class="node">
<title>Node21</title>
<g id="a_node21"><a xlink:title=" ">
<polygon fill="#e0e0e0" stroke="#999999" points="1156.5,-24.5 1060.5,-24.5 1060.5,-5.5 1156.5,-5.5 1156.5,-24.5"/>
<text text-anchor="middle" x="1108.5" y="-12.5" font-family="Helvetica,sans-Serif" font-size="10.00">boost/log/core.hpp</text>
</a>
</g>
</g>
<!-- Node20&#45;&gt;Node21 -->
<g id="edge34" class="edge">
<title>Node20&#45;&gt;Node21</title>
<path fill="none" stroke="#63b8ff" d="M1217.06,-65.62C1196.2,-56.08 1162.79,-40.81 1138.54,-29.73"/>
<polygon fill="#63b8ff" stroke="#63b8ff" points="1140.05,-26.57 1129.5,-25.6 1137.14,-32.94 1140.05,-26.57"/>
</g>
<!-- Node22 -->
<g id="node22" class="node">
<title>Node22</title>
<g id="a_node22"><a xlink:title=" ">
<polygon fill="#e0e0e0" stroke="#999999" points="1304,-24.5 1175,-24.5 1175,-5.5 1304,-5.5 1304,-24.5"/>
<text text-anchor="middle" x="1239.5" y="-12.5" font-family="Helvetica,sans-Serif" font-size="10.00">boost/log/expressions.hpp</text>
</a>
</g>
</g>
<!-- Node20&#45;&gt;Node22 -->
<g id="edge35" class="edge">
<title>Node20&#45;&gt;Node22</title>
<path fill="none" stroke="#63b8ff" d="M1236.94,-65.87C1237.35,-58 1237.96,-46.1 1238.48,-35.89"/>
<polygon fill="#63b8ff" stroke="#63b8ff" points="1241.96,-36.35 1238.98,-26.18 1234.97,-35.99 1241.96,-36.35"/>
</g>
<!-- Node23 -->
<g id="node23" class="node">
<title>Node23</title>
<g id="a_node23"><a xlink:title=" ">
<polygon fill="#e0e0e0" stroke="#999999" points="1423,-24.5 1322,-24.5 1322,-5.5 1423,-5.5 1423,-24.5"/>
<text text-anchor="middle" x="1372.5" y="-12.5" font-family="Helvetica,sans-Serif" font-size="10.00">boost/log/trivial.hpp</text>
</a>
</g>
</g>
<!-- Node20&#45;&gt;Node23 -->
<g id="edge36" class="edge">
<title>Node20&#45;&gt;Node23</title>
<path fill="none" stroke="#63b8ff" d="M1257.16,-65.62C1279.52,-55.99 1315.46,-40.54 1341.27,-29.43"/>
<polygon fill="#63b8ff" stroke="#63b8ff" points="1342.46,-32.73 1350.26,-25.57 1339.69,-26.3 1342.46,-32.73"/>
</g>
<!-- Node24 -->
<g id="node24" class="node">
<title>Node24</title>
<g id="a_node24"><a xlink:title=" ">
<polygon fill="#e0e0e0" stroke="#999999" points="1550,-30 1441,-30 1441,0 1550,0 1550,-30"/>
<text text-anchor="start" x="1449" y="-18" font-family="Helvetica,sans-Serif" font-size="10.00">boost/log/utility/setup</text>
<text text-anchor="middle" x="1495.5" y="-7" font-family="Helvetica,sans-Serif" font-size="10.00">/console.hpp</text>
</a>
</g>
</g>
<!-- Node20&#45;&gt;Node24 -->
<g id="edge37" class="edge">
<title>Node20&#45;&gt;Node24</title>
<path fill="none" stroke="#63b8ff" d="M1276.12,-65.55C1316.87,-56.35 1381.06,-41.85 1429.5,-30.91"/>
<polygon fill="#63b8ff" stroke="#63b8ff" points="1430.06,-34.37 1439.04,-28.75 1428.51,-27.54 1430.06,-34.37"/>
</g>
<!-- Node25 -->
<g id="node25" class="node">
<title>Node25</title>
<g id="a_node25"><a xlink:title=" ">
<polygon fill="#e0e0e0" stroke="#999999" points="1699,-30 1568,-30 1568,0 1699,0 1699,-30"/>
<text text-anchor="start" x="1576" y="-18" font-family="Helvetica,sans-Serif" font-size="10.00">boost/log/sources/severity</text>
<text text-anchor="middle" x="1633.5" y="-7" font-family="Helvetica,sans-Serif" font-size="10.00">_channel_logger.hpp</text>
</a>
</g>
</g>
<!-- Node20&#45;&gt;Node25 -->
<g id="edge38" class="edge">
<title>Node20&#45;&gt;Node25</title>
<path fill="none" stroke="#63b8ff" d="M1288.93,-68.1C1350.62,-60.38 1456.4,-46.58 1556.53,-30.44"/>
<polygon fill="#63b8ff" stroke="#63b8ff" points="1556.96,-33.91 1566.27,-28.86 1555.84,-27.01 1556.96,-33.91"/>
</g>
<!-- Node26 -->
<g id="node26" class="node">
<title>Node26</title>
<g id="a_node26"><a xlink:title=" ">
<polygon fill="#e0e0e0" stroke="#999999" points="1830,-30 1717,-30 1717,0 1830,0 1830,-30"/>
<text text-anchor="start" x="1725" y="-18" font-family="Helvetica,sans-Serif" font-size="10.00">boost/log/support/date</text>
<text text-anchor="middle" x="1773.5" y="-7" font-family="Helvetica,sans-Serif" font-size="10.00">_time.hpp</text>
</a>
</g>
</g>
<!-- Node20&#45;&gt;Node26 -->
<g id="edge39" class="edge">
<title>Node20&#45;&gt;Node26</title>
<path fill="none" stroke="#63b8ff" d="M1288.78,-71.6C1374.06,-66.42 1548.57,-53.98 1705.25,-30.39"/>
<polygon fill="#63b8ff" stroke="#63b8ff" points="1705.65,-33.87 1715,-28.9 1704.59,-26.95 1705.65,-33.87"/>
</g>
<!-- Node27 -->
<g id="node27" class="node">
<title>Node27</title>
<g id="a_node27"><a xlink:title=" ">
<polygon fill="#e0e0e0" stroke="#999999" points="1042,-30 921,-30 921,0 1042,0 1042,-30"/>
<text text-anchor="start" x="929" y="-18" font-family="Helvetica,sans-Serif" font-size="10.00">boost/log/utility/setup</text>
<text text-anchor="middle" x="981.5" y="-7" font-family="Helvetica,sans-Serif" font-size="10.00">/common_attributes.hpp</text>
</a>
</g>
</g>
<!-- Node20&#45;&gt;Node27 -->
<g id="edge40" class="edge">
<title>Node20&#45;&gt;Node27</title>
<path fill="none" stroke="#63b8ff" d="M1197.49,-65.55C1159.26,-56.78 1100.08,-43.2 1053.33,-32.48"/>
<polygon fill="#63b8ff" stroke="#63b8ff" points="1054.35,-29.12 1043.82,-30.3 1052.78,-35.94 1054.35,-29.12"/>
</g>
<!-- Node28&#45;&gt;Node10 -->
<g id="edge42" class="edge">
<title>Node28&#45;&gt;Node10</title>
<path fill="none" stroke="#63b8ff" d="M716.31,-65.56C692.24,-56.64 654.27,-42.5 621.5,-30 620.7,-29.7 619.89,-29.39 619.08,-29.07"/>
<polygon fill="#63b8ff" stroke="#63b8ff" points="620.34,-25.81 609.75,-25.48 617.82,-32.34 620.34,-25.81"/>
</g>
<!-- Node28&#45;&gt;Node11 -->
<g id="edge43" class="edge">
<title>Node28&#45;&gt;Node11</title>
<path fill="none" stroke="#63b8ff" d="M727.74,-65.62C714.67,-56.51 694.09,-42.18 678.4,-31.25"/>
<polygon fill="#63b8ff" stroke="#63b8ff" points="680.83,-28.68 670.62,-25.83 676.83,-34.42 680.83,-28.68"/>
</g>
<!-- Node28&#45;&gt;Node12 -->
<g id="edge45" class="edge">
<title>Node28&#45;&gt;Node12</title>
<path fill="none" stroke="#63b8ff" d="M764.52,-65.64C787.54,-57 823.17,-43.27 853.5,-30 853.72,-29.9 853.95,-29.8 854.17,-29.7"/>
<polygon fill="#63b8ff" stroke="#63b8ff" points="855.5,-32.94 863.12,-25.58 852.58,-26.59 855.5,-32.94"/>
</g>
<!-- Node28&#45;&gt;Node29 -->
<g id="edge44" class="edge">
<title>Node28&#45;&gt;Node29</title>
<path fill="none" stroke="#63b8ff" d="M751.74,-65.62C763.04,-56.68 780.71,-42.72 794.42,-31.87"/>
<polygon fill="#63b8ff" stroke="#63b8ff" points="796.29,-34.85 801.97,-25.91 791.95,-29.36 796.29,-34.85"/>
</g>
<!-- Node30 -->
<g id="node30" class="node">
<title>Node30</title>
<g id="a_node30"><a xlink:title=" ">
<polygon fill="#e0e0e0" stroke="#999999" points="766.5,-24.5 700.5,-24.5 700.5,-5.5 766.5,-5.5 766.5,-24.5"/>
<text text-anchor="middle" x="733.5" y="-12.5" font-family="Helvetica,sans-Serif" font-size="10.00">string_view</text>
</a>
</g>
</g>
<!-- Node28&#45;&gt;Node30 -->
<g id="edge46" class="edge">
<title>Node28&#45;&gt;Node30</title>
<path fill="none" stroke="#63b8ff" d="M739.47,-65.87C738.53,-58 737.1,-46.1 735.88,-35.89"/>
<polygon fill="#63b8ff" stroke="#63b8ff" points="739.38,-35.68 734.72,-26.17 732.43,-36.52 739.38,-35.68"/>
</g>
<!-- Node31&#45;&gt;Node3 -->
<g id="edge51" class="edge">
<title>Node31&#45;&gt;Node3</title>
<path fill="none" stroke="#63b8ff" d="M814.5,-230.75C814.5,-224.27 814.5,-215.16 814.5,-206.9"/>
<polygon fill="#63b8ff" stroke="#63b8ff" points="818,-206.96 814.5,-196.96 811,-206.96 818,-206.96"/>
</g>
<!-- Node33&#45;&gt;Node3 -->
<g id="edge57" class="edge">
<title>Node33&#45;&gt;Node3</title>
<path fill="none" stroke="#63b8ff" d="M1018.77,-230.51C970.95,-220.21 893.47,-203.51 848.95,-193.92"/>
<polygon fill="#63b8ff" stroke="#63b8ff" points="849.84,-190.53 839.32,-191.85 848.36,-197.38 849.84,-190.53"/>
</g>
<!-- Node33&#45;&gt;Node12 -->
<g id="edge58" class="edge">
<title>Node33&#45;&gt;Node12</title>
<path fill="none" stroke="#63b8ff" d="M1062.76,-230.86C1070.75,-199.44 1096.14,-91.69 1075.5,-66 1029.04,-8.16 982.76,-53.83 912.5,-30 911.85,-29.78 911.2,-29.55 910.55,-29.31"/>
<polygon fill="#63b8ff" stroke="#63b8ff" points="911.98,-26.12 901.4,-25.53 909.3,-32.59 911.98,-26.12"/>
</g>
<!-- Node33&#45;&gt;Node19 -->
<g id="edge56" class="edge">
<title>Node33&#45;&gt;Node19</title>
<path fill="none" stroke="#63b8ff" d="M1057.69,-230.69C1054.89,-221.76 1050.59,-207.5 1047.5,-195 1039.05,-160.78 1031.36,-120.47 1027.07,-96.78"/>
<polygon fill="#63b8ff" stroke="#63b8ff" points="1030.52,-96.2 1025.32,-86.97 1023.63,-97.43 1030.52,-96.2"/>
</g>
<!-- Node34 -->
<g id="node34" class="node">
<title>Node34</title>
<g id="a_node34"><a xlink:title=" ">
<polygon fill="#e0e0e0" stroke="#999999" points="1173,-195 1090,-195 1090,-176 1173,-176 1173,-195"/>
<text text-anchor="middle" x="1131.5" y="-183" font-family="Helvetica,sans-Serif" font-size="10.00">unordered_map</text>
</a>
</g>
</g>
<!-- Node33&#45;&gt;Node34 -->
<g id="edge59" class="edge">
<title>Node33&#45;&gt;Node34</title>
<path fill="none" stroke="#63b8ff" d="M1072.54,-230.51C1082.91,-222.77 1098.1,-211.43 1110.47,-202.2"/>
<polygon fill="#63b8ff" stroke="#63b8ff" points="1112.5,-205.05 1118.42,-196.26 1108.31,-199.44 1112.5,-205.05"/>
</g>
</g>
</svg>
