<?xml version="1.0" encoding="UTF-8" standalone="no"?>
<!DOCTYPE svg PUBLIC "-//W3C//DTD SVG 1.1//EN"
 "http://www.w3.org/Graphics/SVG/1.1/DTD/svg11.dtd">
<!-- Generated by graphviz version 7.0.5 (20221223.1930)
 -->
<!-- Title: UioMemSgdma.cpp Pages: 1 -->
<svg width="1788pt" height="368pt"
 viewBox="0.00 0.00 1788.00 368.00" xmlns="http://www.w3.org/2000/svg" xmlns:xlink="http://www.w3.org/1999/xlink">
<g id="graph0" class="graph" transform="scale(1 1) rotate(0) translate(4 364)">
<title>UioMemSgdma.cpp</title>
<!-- Node1 -->
<g id="node1" class="node">
<title>Node1</title>
<g id="a_node1"><a xlink:title=" ">
<polygon fill="#999999" stroke="#666666" points="1487.5,-360 1385.5,-360 1385.5,-341 1487.5,-341 1487.5,-360"/>
<text text-anchor="middle" x="1436.5" y="-348" font-family="Helvetica,sans-Serif" font-size="10.00">UioMemSgdma.cpp</text>
</a>
</g>
</g>
<!-- Node2 -->
<g id="node2" class="node">
<title>Node2</title>
<g id="a_node2"><a xlink:href="_uio_mem_sgdma_8hpp.html" target="_top" xlink:title=" ">
<polygon fill="white" stroke="#666666" points="1292,-305 1155,-305 1155,-286 1292,-286 1292,-305"/>
<text text-anchor="middle" x="1223.5" y="-293" font-family="Helvetica,sans-Serif" font-size="10.00">udmaio/UioMemSgdma.hpp</text>
</a>
</g>
</g>
<!-- Node1&#45;&gt;Node2 -->
<g id="edge1" class="edge">
<title>Node1&#45;&gt;Node2</title>
<path fill="none" stroke="#63b8ff" d="M1400.37,-340.51C1364.61,-331.61 1309.7,-317.95 1270.55,-308.21"/>
<polygon fill="#63b8ff" stroke="#63b8ff" points="1271.47,-304.83 1260.92,-305.81 1269.78,-311.62 1271.47,-304.83"/>
</g>
<!-- Node3 -->
<g id="node3" class="node">
<title>Node3</title>
<g id="a_node3"><a xlink:title=" ">
<polygon fill="#e0e0e0" stroke="#999999" points="700,-250 651,-250 651,-231 700,-231 700,-250"/>
<text text-anchor="middle" x="675.5" y="-238" font-family="Helvetica,sans-Serif" font-size="10.00">cstddef</text>
</a>
</g>
</g>
<!-- Node1&#45;&gt;Node3 -->
<g id="edge52" class="edge">
<title>Node1&#45;&gt;Node3</title>
<path fill="none" stroke="#63b8ff" d="M1385.07,-343.8C1266.44,-330.36 964.6,-294.42 714.5,-250 713.49,-249.82 712.46,-249.63 711.42,-249.44"/>
<polygon fill="#63b8ff" stroke="#63b8ff" points="712.18,-246.02 701.68,-247.48 710.8,-252.88 712.18,-246.02"/>
</g>
<!-- Node4 -->
<g id="node4" class="node">
<title>Node4</title>
<g id="a_node4"><a xlink:title=" ">
<polygon fill="#e0e0e0" stroke="#999999" points="978,-24.5 927,-24.5 927,-5.5 978,-5.5 978,-24.5"/>
<text text-anchor="middle" x="952.5" y="-12.5" font-family="Helvetica,sans-Serif" font-size="10.00">memory</text>
</a>
</g>
</g>
<!-- Node1&#45;&gt;Node4 -->
<g id="edge54" class="edge">
<title>Node1&#45;&gt;Node4</title>
<path fill="none" stroke="#63b8ff" d="M1385.27,-348.12C1206.7,-342.64 622.5,-318.79 622.5,-241.5 622.5,-241.5 622.5,-241.5 622.5,-129.5 622.5,-88.47 652.69,-84.13 689.5,-66 781.53,-20.68 818.59,-57.22 917.5,-30 918.88,-29.62 920.29,-29.2 921.7,-28.75"/>
<polygon fill="#63b8ff" stroke="#63b8ff" points="922.74,-32.1 930.98,-25.44 920.39,-25.51 922.74,-32.1"/>
</g>
<!-- Node5 -->
<g id="node5" class="node">
<title>Node5</title>
<g id="a_node5"><a xlink:href="_dma_buffer_abstract_8hpp.html" target="_top" xlink:title=" ">
<polygon fill="white" stroke="#666666" points="1539,-250 1422,-250 1422,-231 1539,-231 1539,-250"/>
<text text-anchor="middle" x="1480.5" y="-238" font-family="Helvetica,sans-Serif" font-size="10.00">DmaBufferAbstract.hpp</text>
</a>
</g>
</g>
<!-- Node1&#45;&gt;Node5 -->
<g id="edge58" class="edge">
<title>Node1&#45;&gt;Node5</title>
<path fill="none" stroke="#63b8ff" d="M1440.1,-340.66C1447.16,-323.34 1462.96,-284.55 1472.58,-260.95"/>
<polygon fill="#63b8ff" stroke="#63b8ff" points="1475.75,-262.44 1476.28,-251.86 1469.26,-259.8 1475.75,-262.44"/>
</g>
<!-- Node6 -->
<g id="node6" class="node">
<title>Node6</title>
<g id="a_node6"><a xlink:title=" ">
<polygon fill="#e0e0e0" stroke="#999999" points="1416.5,-195 1370.5,-195 1370.5,-176 1416.5,-176 1416.5,-195"/>
<text text-anchor="middle" x="1393.5" y="-183" font-family="Helvetica,sans-Serif" font-size="10.00">cstdint</text>
</a>
</g>
</g>
<!-- Node1&#45;&gt;Node6 -->
<g id="edge53" class="edge">
<title>Node1&#45;&gt;Node6</title>
<path fill="none" stroke="#63b8ff" d="M1434.19,-340.74C1427.51,-315.42 1408.07,-241.72 1398.69,-206.16"/>
<polygon fill="#63b8ff" stroke="#63b8ff" points="1402.14,-205.55 1396.21,-196.77 1395.38,-207.33 1402.14,-205.55"/>
</g>
<!-- Node7 -->
<g id="node7" class="node">
<title>Node7</title>
<g id="a_node7"><a xlink:title=" ">
<polygon fill="#e0e0e0" stroke="#999999" points="1590.5,-195 1546.5,-195 1546.5,-176 1590.5,-176 1590.5,-195"/>
<text text-anchor="middle" x="1568.5" y="-183" font-family="Helvetica,sans-Serif" font-size="10.00">vector</text>
</a>
</g>
</g>
<!-- Node1&#45;&gt;Node7 -->
<g id="edge57" class="edge">
<title>Node1&#45;&gt;Node7</title>
<path fill="none" stroke="#63b8ff" d="M1450.57,-340.54C1473.98,-324.92 1520.99,-290.49 1547.5,-250 1556.18,-236.75 1561.57,-219.59 1564.71,-206.45"/>
<polygon fill="#63b8ff" stroke="#63b8ff" points="1568.1,-207.33 1566.76,-196.82 1561.26,-205.88 1568.1,-207.33"/>
</g>
<!-- Node11 -->
<g id="node11" class="node">
<title>Node11</title>
<g id="a_node11"><a xlink:title=" ">
<polygon fill="#e0e0e0" stroke="#999999" points="1780,-24.5 1721,-24.5 1721,-5.5 1780,-5.5 1780,-24.5"/>
<text text-anchor="middle" x="1750.5" y="-12.5" font-family="Helvetica,sans-Serif" font-size="10.00">stdexcept</text>
</a>
</g>
</g>
<!-- Node1&#45;&gt;Node11 -->
<g id="edge55" class="edge">
<title>Node1&#45;&gt;Node11</title>
<path fill="none" stroke="#63b8ff" d="M1487.95,-347.77C1541,-344.36 1625.11,-334.32 1691.5,-305 1733.67,-286.38 1773.5,-287.59 1773.5,-241.5 1773.5,-241.5 1773.5,-241.5 1773.5,-129.5 1773.5,-96.08 1763.8,-58.21 1757,-35.76"/>
<polygon fill="#63b8ff" stroke="#63b8ff" points="1760.41,-34.92 1754.06,-26.44 1753.73,-37.03 1760.41,-34.92"/>
</g>
<!-- Node12 -->
<g id="node12" class="node">
<title>Node12</title>
<g id="a_node12"><a xlink:title=" ">
<polygon fill="#e0e0e0" stroke="#999999" points="1395,-24.5 1354,-24.5 1354,-5.5 1395,-5.5 1395,-24.5"/>
<text text-anchor="middle" x="1374.5" y="-12.5" font-family="Helvetica,sans-Serif" font-size="10.00">string</text>
</a>
</g>
</g>
<!-- Node1&#45;&gt;Node12 -->
<g id="edge56" class="edge">
<title>Node1&#45;&gt;Node12</title>
<path fill="none" stroke="#63b8ff" d="M1487.75,-350.06C1563.76,-347.91 1697.5,-331.36 1697.5,-241.5 1697.5,-241.5 1697.5,-241.5 1697.5,-129.5 1697.5,-99.91 1699.85,-85.39 1677.5,-66 1657.19,-48.38 1480.67,-27.47 1406.8,-19.41"/>
<polygon fill="#63b8ff" stroke="#63b8ff" points="1407.28,-15.94 1396.96,-18.35 1406.53,-22.9 1407.28,-15.94"/>
</g>
<!-- Node2&#45;&gt;Node3 -->
<g id="edge2" class="edge">
<title>Node2&#45;&gt;Node3</title>
<path fill="none" stroke="#63b8ff" d="M1154.84,-291.28C1056.74,-286.05 871.04,-273.8 714.5,-250 713.48,-249.85 712.45,-249.68 711.41,-249.5"/>
<polygon fill="#63b8ff" stroke="#63b8ff" points="712.13,-246.08 701.66,-247.66 710.83,-252.96 712.13,-246.08"/>
</g>
<!-- Node2&#45;&gt;Node4 -->
<g id="edge3" class="edge">
<title>Node2&#45;&gt;Node4</title>
<path fill="none" stroke="#63b8ff" d="M1154.94,-293.51C1032.3,-287.4 780.85,-253.92 702.5,-85 651.14,25.73 623.28,-112.45 917.5,-30 918.88,-29.61 920.28,-29.19 921.69,-28.74"/>
<polygon fill="#63b8ff" stroke="#63b8ff" points="922.74,-32.08 930.97,-25.41 920.38,-25.49 922.74,-32.08"/>
</g>
<!-- Node2&#45;&gt;Node5 -->
<g id="edge4" class="edge">
<title>Node2&#45;&gt;Node5</title>
<path fill="none" stroke="#63b8ff" d="M1267.1,-285.51C1310.89,-276.48 1378.49,-262.54 1425.84,-252.77"/>
<polygon fill="#63b8ff" stroke="#63b8ff" points="1426.55,-256.2 1435.64,-250.75 1425.14,-249.34 1426.55,-256.2"/>
</g>
<!-- Node14 -->
<g id="node14" class="node">
<title>Node14</title>
<g id="a_node14"><a xlink:href="_reg_accessor_8hpp.html" target="_top" xlink:title=" ">
<polygon fill="white" stroke="#666666" points="1270,-250 1177,-250 1177,-231 1270,-231 1270,-250"/>
<text text-anchor="middle" x="1223.5" y="-238" font-family="Helvetica,sans-Serif" font-size="10.00">RegAccessor.hpp</text>
</a>
</g>
</g>
<!-- Node2&#45;&gt;Node14 -->
<g id="edge14" class="edge">
<title>Node2&#45;&gt;Node14</title>
<path fill="none" stroke="#63b8ff" d="M1223.5,-285.75C1223.5,-279.27 1223.5,-270.16 1223.5,-261.9"/>
<polygon fill="#63b8ff" stroke="#63b8ff" points="1227,-261.96 1223.5,-251.96 1220,-261.96 1227,-261.96"/>
</g>
<!-- Node5&#45;&gt;Node6 -->
<g id="edge5" class="edge">
<title>Node5&#45;&gt;Node6</title>
<path fill="none" stroke="#63b8ff" d="M1465.74,-230.51C1452.54,-222.47 1432.94,-210.53 1417.49,-201.11"/>
<polygon fill="#63b8ff" stroke="#63b8ff" points="1419.69,-198.36 1409.33,-196.15 1416.05,-204.34 1419.69,-198.36"/>
</g>
<!-- Node5&#45;&gt;Node7 -->
<g id="edge6" class="edge">
<title>Node5&#45;&gt;Node7</title>
<path fill="none" stroke="#63b8ff" d="M1495.43,-230.51C1508.78,-222.47 1528.61,-210.53 1544.24,-201.11"/>
<polygon fill="#63b8ff" stroke="#63b8ff" points="1545.74,-204.3 1552.5,-196.14 1542.12,-198.3 1545.74,-204.3"/>
</g>
<!-- Node8 -->
<g id="node8" class="node">
<title>Node8</title>
<g id="a_node8"><a xlink:title=" ">
<polygon fill="#e0e0e0" stroke="#999999" points="1540,-85 1403,-85 1403,-66 1540,-66 1540,-85"/>
<text text-anchor="middle" x="1471.5" y="-73" font-family="Helvetica,sans-Serif" font-size="10.00">boost/core/noncopyable.hpp</text>
</a>
</g>
</g>
<!-- Node5&#45;&gt;Node8 -->
<g id="edge7" class="edge">
<title>Node5&#45;&gt;Node8</title>
<path fill="none" stroke="#63b8ff" d="M1480.02,-230.74C1478.62,-205.53 1474.58,-132.36 1472.61,-96.62"/>
<polygon fill="#63b8ff" stroke="#63b8ff" points="1476.12,-96.61 1472.07,-86.82 1469.13,-97 1476.12,-96.61"/>
</g>
<!-- Node9 -->
<g id="node9" class="node">
<title>Node9</title>
<g id="a_node9"><a xlink:href="_uio_config_8hpp.html" target="_top" xlink:title=" ">
<polygon fill="white" stroke="#666666" points="1669,-85 1558,-85 1558,-66 1669,-66 1669,-85"/>
<text text-anchor="middle" x="1613.5" y="-73" font-family="Helvetica,sans-Serif" font-size="10.00">udmaio/UioConfig.hpp</text>
</a>
</g>
</g>
<!-- Node5&#45;&gt;Node9 -->
<g id="edge8" class="edge">
<title>Node5&#45;&gt;Node9</title>
<path fill="none" stroke="#63b8ff" d="M1487.65,-230.74C1508.76,-204.87 1571.09,-128.48 1599.32,-93.88"/>
<polygon fill="#63b8ff" stroke="#63b8ff" points="1601.75,-96.44 1605.36,-86.48 1596.32,-92.01 1601.75,-96.44"/>
</g>
<!-- Node9&#45;&gt;Node4 -->
<g id="edge10" class="edge">
<title>Node9&#45;&gt;Node4</title>
<path fill="none" stroke="#63b8ff" d="M1557.85,-67.05C1554.69,-66.68 1551.56,-66.33 1548.5,-66 1337.58,-43.37 1083.74,-25.02 989.8,-18.53"/>
<polygon fill="#63b8ff" stroke="#63b8ff" points="990.12,-15.04 979.9,-17.85 989.64,-22.02 990.12,-15.04"/>
</g>
<!-- Node10 -->
<g id="node10" class="node">
<title>Node10</title>
<g id="a_node10"><a xlink:title=" ">
<polygon fill="#e0e0e0" stroke="#999999" points="1679.5,-24.5 1625.5,-24.5 1625.5,-5.5 1679.5,-5.5 1679.5,-24.5"/>
<text text-anchor="middle" x="1652.5" y="-12.5" font-family="Helvetica,sans-Serif" font-size="10.00">iostream</text>
</a>
</g>
</g>
<!-- Node9&#45;&gt;Node10 -->
<g id="edge9" class="edge">
<title>Node9&#45;&gt;Node10</title>
<path fill="none" stroke="#63b8ff" d="M1619.25,-65.87C1624.78,-57.57 1633.32,-44.78 1640.35,-34.22"/>
<polygon fill="#63b8ff" stroke="#63b8ff" points="1643.25,-36.19 1645.88,-25.93 1637.42,-32.31 1643.25,-36.19"/>
</g>
<!-- Node9&#45;&gt;Node11 -->
<g id="edge11" class="edge">
<title>Node9&#45;&gt;Node11</title>
<path fill="none" stroke="#63b8ff" d="M1634.31,-65.62C1656.84,-55.99 1693.04,-40.54 1719.04,-29.43"/>
<polygon fill="#63b8ff" stroke="#63b8ff" points="1720.28,-32.71 1728.1,-25.56 1717.53,-26.27 1720.28,-32.71"/>
</g>
<!-- Node9&#45;&gt;Node12 -->
<g id="edge12" class="edge">
<title>Node9&#45;&gt;Node12</title>
<path fill="none" stroke="#63b8ff" d="M1576.94,-65.55C1530.37,-54.15 1450.62,-34.63 1406.4,-23.81"/>
<polygon fill="#63b8ff" stroke="#63b8ff" points="1407.46,-20.46 1396.91,-21.49 1405.79,-27.26 1407.46,-20.46"/>
</g>
<!-- Node13 -->
<g id="node13" class="node">
<title>Node13</title>
<g id="a_node13"><a xlink:title=" ">
<polygon fill="#e0e0e0" stroke="#999999" points="1607.5,-24.5 1541.5,-24.5 1541.5,-5.5 1607.5,-5.5 1607.5,-24.5"/>
<text text-anchor="middle" x="1574.5" y="-12.5" font-family="Helvetica,sans-Serif" font-size="10.00">string_view</text>
</a>
</g>
</g>
<!-- Node9&#45;&gt;Node13 -->
<g id="edge13" class="edge">
<title>Node9&#45;&gt;Node13</title>
<path fill="none" stroke="#63b8ff" d="M1607.75,-65.87C1602.22,-57.57 1593.68,-44.78 1586.65,-34.22"/>
<polygon fill="#63b8ff" stroke="#63b8ff" points="1589.58,-32.31 1581.12,-25.93 1583.75,-36.19 1589.58,-32.31"/>
</g>
<!-- Node14&#45;&gt;Node6 -->
<g id="edge15" class="edge">
<title>Node14&#45;&gt;Node6</title>
<path fill="none" stroke="#63b8ff" d="M1252.34,-230.51C1281.87,-221.3 1327.76,-206.99 1359.15,-197.21"/>
<polygon fill="#63b8ff" stroke="#63b8ff" points="1360.05,-200.59 1368.56,-194.28 1357.97,-193.91 1360.05,-200.59"/>
</g>
<!-- Node15 -->
<g id="node15" class="node">
<title>Node15</title>
<g id="a_node15"><a xlink:href="_uio_if_8hpp.html" target="_top" xlink:title=" ">
<polygon fill="white" stroke="#666666" points="1196.5,-195 1106.5,-195 1106.5,-176 1196.5,-176 1196.5,-195"/>
<text text-anchor="middle" x="1151.5" y="-183" font-family="Helvetica,sans-Serif" font-size="10.00">udmaio/UioIf.hpp</text>
</a>
</g>
</g>
<!-- Node14&#45;&gt;Node15 -->
<g id="edge16" class="edge">
<title>Node14&#45;&gt;Node15</title>
<path fill="none" stroke="#63b8ff" d="M1211.29,-230.51C1200.67,-222.7 1185.06,-211.21 1172.46,-201.93"/>
<polygon fill="#63b8ff" stroke="#63b8ff" points="1174.88,-199.36 1164.75,-196.26 1170.73,-205 1174.88,-199.36"/>
</g>
<!-- Node15&#45;&gt;Node4 -->
<g id="edge20" class="edge">
<title>Node15&#45;&gt;Node4</title>
<path fill="none" stroke="#63b8ff" d="M1106.28,-181.72C1003.94,-174.33 760.1,-150.08 717.5,-85 684.87,-35.16 706.03,-90.65 917.5,-30 918.84,-29.61 920.21,-29.2 921.58,-28.75"/>
<polygon fill="#63b8ff" stroke="#63b8ff" points="922.37,-32.19 930.59,-25.51 920,-25.6 922.37,-32.19"/>
</g>
<!-- Node15&#45;&gt;Node8 -->
<g id="edge22" class="edge">
<title>Node15&#45;&gt;Node8</title>
<path fill="none" stroke="#63b8ff" d="M1196.58,-181.3C1243.96,-176.68 1319.9,-165.66 1380.5,-140 1408.04,-128.34 1435.65,-107.47 1453.11,-92.84"/>
<polygon fill="#63b8ff" stroke="#63b8ff" points="1455.25,-95.62 1460.55,-86.45 1450.69,-90.31 1455.25,-95.62"/>
</g>
<!-- Node15&#45;&gt;Node9 -->
<g id="edge51" class="edge">
<title>Node15&#45;&gt;Node9</title>
<path fill="none" stroke="#63b8ff" d="M1196.68,-178.72C1249.02,-171.57 1337.67,-158.11 1412.5,-140 1471.55,-125.71 1538.53,-103.25 1578.34,-89.23"/>
<polygon fill="#63b8ff" stroke="#63b8ff" points="1579.37,-92.57 1587.63,-85.93 1577.03,-85.98 1579.37,-92.57"/>
</g>
<!-- Node15&#45;&gt;Node10 -->
<g id="edge19" class="edge">
<title>Node15&#45;&gt;Node10</title>
<path fill="none" stroke="#63b8ff" d="M1196.71,-183.26C1313.2,-178.98 1618.64,-160.64 1677.5,-85 1689.31,-69.82 1678.5,-48.56 1667.64,-33.66"/>
<polygon fill="#63b8ff" stroke="#63b8ff" points="1670.62,-31.78 1661.68,-26.1 1665.13,-36.12 1670.62,-31.78"/>
</g>
<!-- Node15&#45;&gt;Node12 -->
<g id="edge21" class="edge">
<title>Node15&#45;&gt;Node12</title>
<path fill="none" stroke="#63b8ff" d="M1191.25,-175.55C1237.3,-163.11 1312.23,-136.12 1354.5,-85 1366.05,-71.03 1370.93,-50.69 1372.99,-35.71"/>
<polygon fill="#63b8ff" stroke="#63b8ff" points="1376.43,-36.46 1373.99,-26.15 1369.47,-35.73 1376.43,-36.46"/>
</g>
<!-- Node16 -->
<g id="node16" class="node">
<title>Node16</title>
<g id="a_node16"><a xlink:title=" ">
<polygon fill="#e0e0e0" stroke="#999999" points="854.5,-85 794.5,-85 794.5,-66 854.5,-66 854.5,-85"/>
<text text-anchor="middle" x="824.5" y="-73" font-family="Helvetica,sans-Serif" font-size="10.00">filesystem</text>
</a>
</g>
</g>
<!-- Node15&#45;&gt;Node16 -->
<g id="edge17" class="edge">
<title>Node15&#45;&gt;Node16</title>
<path fill="none" stroke="#63b8ff" d="M1106.16,-178.97C1062.47,-172.72 995.02,-160.63 939.5,-140 905.73,-127.45 869.84,-106.21 847.31,-91.78"/>
<polygon fill="#63b8ff" stroke="#63b8ff" points="849.23,-88.85 838.94,-86.33 845.41,-94.72 849.23,-88.85"/>
</g>
<!-- Node17 -->
<g id="node17" class="node">
<title>Node17</title>
<g id="a_node17"><a xlink:title=" ">
<polygon fill="#e0e0e0" stroke="#999999" points="922.5,-85 872.5,-85 872.5,-66 922.5,-66 922.5,-85"/>
<text text-anchor="middle" x="897.5" y="-73" font-family="Helvetica,sans-Serif" font-size="10.00">fstream</text>
</a>
</g>
</g>
<!-- Node15&#45;&gt;Node17 -->
<g id="edge18" class="edge">
<title>Node15&#45;&gt;Node17</title>
<path fill="none" stroke="#63b8ff" d="M1106.36,-179.6C1068.17,-174.06 1012.89,-162.66 969.5,-140 946.99,-128.24 925.77,-107.99 912.28,-93.51"/>
<polygon fill="#63b8ff" stroke="#63b8ff" points="915.24,-91.58 905.95,-86.5 910.05,-96.27 915.24,-91.58"/>
</g>
<!-- Node18 -->
<g id="node18" class="node">
<title>Node18</title>
<g id="a_node18"><a xlink:title=" ">
<polygon fill="#e0e0e0" stroke="#999999" points="984,-85 941,-85 941,-66 984,-66 984,-85"/>
<text text-anchor="middle" x="962.5" y="-73" font-family="Helvetica,sans-Serif" font-size="10.00">fcntl.h</text>
</a>
</g>
</g>
<!-- Node15&#45;&gt;Node18 -->
<g id="edge23" class="edge">
<title>Node15&#45;&gt;Node18</title>
<path fill="none" stroke="#63b8ff" d="M1106.28,-183.46C1069.45,-180.27 1018.36,-170.16 985.5,-140 973.21,-128.72 967.47,-110.35 964.81,-96.27"/>
<polygon fill="#63b8ff" stroke="#63b8ff" points="968.33,-96.15 963.39,-86.78 961.4,-97.19 968.33,-96.15"/>
</g>
<!-- Node19 -->
<g id="node19" class="node">
<title>Node19</title>
<g id="a_node19"><a xlink:title=" ">
<polygon fill="#e0e0e0" stroke="#999999" points="1186,-85 1117,-85 1117,-66 1186,-66 1186,-85"/>
<text text-anchor="middle" x="1151.5" y="-73" font-family="Helvetica,sans-Serif" font-size="10.00">sys/mman.h</text>
</a>
</g>
</g>
<!-- Node15&#45;&gt;Node19 -->
<g id="edge24" class="edge">
<title>Node15&#45;&gt;Node19</title>
<path fill="none" stroke="#63b8ff" d="M1151.5,-175.66C1151.5,-158.57 1151.5,-120.61 1151.5,-96.92"/>
<polygon fill="#63b8ff" stroke="#63b8ff" points="1155,-96.97 1151.5,-86.97 1148,-96.97 1155,-96.97"/>
</g>
<!-- Node20 -->
<g id="node20" class="node">
<title>Node20</title>
<g id="a_node20"><a xlink:title=" ">
<polygon fill="#e0e0e0" stroke="#999999" points="1263,-85 1204,-85 1204,-66 1263,-66 1263,-85"/>
<text text-anchor="middle" x="1233.5" y="-73" font-family="Helvetica,sans-Serif" font-size="10.00">sys/stat.h</text>
</a>
</g>
</g>
<!-- Node15&#45;&gt;Node20 -->
<g id="edge25" class="edge">
<title>Node15&#45;&gt;Node20</title>
<path fill="none" stroke="#63b8ff" d="M1158.21,-175.66C1171.66,-157.94 1202.17,-117.77 1219.94,-94.35"/>
<polygon fill="#63b8ff" stroke="#63b8ff" points="1222.52,-96.75 1225.78,-86.67 1216.95,-92.51 1222.52,-96.75"/>
</g>
<!-- Node21 -->
<g id="node21" class="node">
<title>Node21</title>
<g id="a_node21"><a xlink:title=" ">
<polygon fill="#e0e0e0" stroke="#999999" points="1346,-85 1281,-85 1281,-66 1346,-66 1346,-85"/>
<text text-anchor="middle" x="1313.5" y="-73" font-family="Helvetica,sans-Serif" font-size="10.00">sys/types.h</text>
</a>
</g>
</g>
<!-- Node15&#45;&gt;Node21 -->
<g id="edge26" class="edge">
<title>Node15&#45;&gt;Node21</title>
<path fill="none" stroke="#63b8ff" d="M1164.76,-175.66C1192.41,-157.23 1256.5,-114.5 1290.83,-91.62"/>
<polygon fill="#63b8ff" stroke="#63b8ff" points="1292.42,-94.76 1298.8,-86.3 1288.54,-88.93 1292.42,-94.76"/>
</g>
<!-- Node22 -->
<g id="node22" class="node">
<title>Node22</title>
<g id="a_node22"><a xlink:title=" ">
<polygon fill="#e0e0e0" stroke="#999999" points="776.5,-85 726.5,-85 726.5,-66 776.5,-66 776.5,-85"/>
<text text-anchor="middle" x="751.5" y="-73" font-family="Helvetica,sans-Serif" font-size="10.00">unistd.h</text>
</a>
</g>
</g>
<!-- Node15&#45;&gt;Node22 -->
<g id="edge27" class="edge">
<title>Node15&#45;&gt;Node22</title>
<path fill="none" stroke="#63b8ff" d="M1106.06,-179.9C1054.46,-173.92 968.14,-161.59 896.5,-140 853.57,-127.06 806.46,-104.82 777.94,-90.39"/>
<polygon fill="#63b8ff" stroke="#63b8ff" points="779.81,-87.42 769.32,-85.97 776.62,-93.65 779.81,-87.42"/>
</g>
<!-- Node23 -->
<g id="node23" class="node">
<title>Node23</title>
<g id="a_node23"><a xlink:href="_hw_accessor_8hpp.html" target="_top" xlink:title=" ">
<polygon fill="white" stroke="#666666" points="1120,-140 995,-140 995,-121 1120,-121 1120,-140"/>
<text text-anchor="middle" x="1057.5" y="-128" font-family="Helvetica,sans-Serif" font-size="10.00">udmaio/HwAccessor.hpp</text>
</a>
</g>
</g>
<!-- Node15&#45;&gt;Node23 -->
<g id="edge28" class="edge">
<title>Node15&#45;&gt;Node23</title>
<path fill="none" stroke="#63b8ff" d="M1135.55,-175.51C1121.15,-167.39 1099.71,-155.3 1082.94,-145.85"/>
<polygon fill="#63b8ff" stroke="#63b8ff" points="1084.96,-142.96 1074.53,-141.1 1081.52,-149.06 1084.96,-142.96"/>
</g>
<!-- Node24 -->
<g id="node24" class="node">
<title>Node24</title>
<g id="a_node24"><a xlink:href="_logging_8hpp.html" target="_top" xlink:title=" ">
<polygon fill="white" stroke="#666666" points="594.5,-85 490.5,-85 490.5,-66 594.5,-66 594.5,-85"/>
<text text-anchor="middle" x="542.5" y="-73" font-family="Helvetica,sans-Serif" font-size="10.00">udmaio/Logging.hpp</text>
</a>
</g>
</g>
<!-- Node15&#45;&gt;Node24 -->
<g id="edge50" class="edge">
<title>Node15&#45;&gt;Node24</title>
<path fill="none" stroke="#63b8ff" d="M1106.16,-183.3C1027.27,-180.44 860.02,-170.93 722.5,-140 668.68,-127.89 608.73,-104.68 573.39,-89.92"/>
<polygon fill="#63b8ff" stroke="#63b8ff" points="574.79,-86.71 564.22,-86.04 572.06,-93.16 574.79,-86.71"/>
</g>
<!-- Node23&#45;&gt;Node4 -->
<g id="edge32" class="edge">
<title>Node23&#45;&gt;Node4</title>
<path fill="none" stroke="#63b8ff" d="M1049.26,-120.59C1031.86,-101.78 991.09,-57.71 968.42,-33.21"/>
<polygon fill="#63b8ff" stroke="#63b8ff" points="971.09,-30.94 961.73,-25.98 965.95,-35.69 971.09,-30.94"/>
</g>
<!-- Node23&#45;&gt;Node8 -->
<g id="edge34" class="edge">
<title>Node23&#45;&gt;Node8</title>
<path fill="none" stroke="#63b8ff" d="M1120.38,-121.45C1192.93,-112.16 1312.36,-96.87 1391.48,-86.74"/>
<polygon fill="#63b8ff" stroke="#63b8ff" points="1391.87,-90.22 1401.35,-85.48 1390.98,-83.28 1391.87,-90.22"/>
</g>
<!-- Node23&#45;&gt;Node9 -->
<g id="edge49" class="edge">
<title>Node23&#45;&gt;Node9</title>
<path fill="none" stroke="#63b8ff" d="M1120.36,-124.61C1211.73,-117.31 1386.85,-102.67 1546.84,-85.14"/>
<polygon fill="#63b8ff" stroke="#63b8ff" points="1546.79,-88.67 1556.34,-84.09 1546.02,-81.71 1546.79,-88.67"/>
</g>
<!-- Node23&#45;&gt;Node10 -->
<g id="edge31" class="edge">
<title>Node23&#45;&gt;Node10</title>
<path fill="none" stroke="#63b8ff" d="M1061.5,-120.59C1068.49,-106.2 1084.44,-78.22 1107.5,-66 1207.7,-12.91 1505.86,-54.83 1616.5,-30 1618.26,-29.6 1620.05,-29.14 1621.84,-28.62"/>
<polygon fill="#63b8ff" stroke="#63b8ff" points="1622.88,-31.96 1631.22,-25.43 1620.62,-25.34 1622.88,-31.96"/>
</g>
<!-- Node23&#45;&gt;Node12 -->
<g id="edge33" class="edge">
<title>Node23&#45;&gt;Node12</title>
<path fill="none" stroke="#63b8ff" d="M1057.09,-120.61C1056.97,-106.74 1058.95,-80.12 1074.5,-66 1113.41,-30.68 1273.18,-20.05 1342.34,-17.08"/>
<polygon fill="#63b8ff" stroke="#63b8ff" points="1342.41,-20.58 1352.26,-16.68 1342.13,-13.58 1342.41,-20.58"/>
</g>
<!-- Node23&#45;&gt;Node16 -->
<g id="edge29" class="edge">
<title>Node23&#45;&gt;Node16</title>
<path fill="none" stroke="#63b8ff" d="M1017.97,-120.51C975.75,-110.91 909.12,-95.75 866.11,-85.97"/>
<polygon fill="#63b8ff" stroke="#63b8ff" points="866.92,-82.56 856.39,-83.75 865.37,-89.39 866.92,-82.56"/>
</g>
<!-- Node23&#45;&gt;Node17 -->
<g id="edge30" class="edge">
<title>Node23&#45;&gt;Node17</title>
<path fill="none" stroke="#63b8ff" d="M1030.36,-120.51C1003.72,-111.68 962.92,-98.17 933.56,-88.44"/>
<polygon fill="#63b8ff" stroke="#63b8ff" points="934.95,-85.22 924.36,-85.4 932.75,-91.86 934.95,-85.22"/>
</g>
<!-- Node23&#45;&gt;Node18 -->
<g id="edge35" class="edge">
<title>Node23&#45;&gt;Node18</title>
<path fill="none" stroke="#63b8ff" d="M1041.38,-120.51C1026.83,-112.39 1005.16,-100.3 988.21,-90.85"/>
<polygon fill="#63b8ff" stroke="#63b8ff" points="990.14,-87.91 979.7,-86.1 986.73,-94.02 990.14,-87.91"/>
</g>
<!-- Node23&#45;&gt;Node19 -->
<g id="edge36" class="edge">
<title>Node23&#45;&gt;Node19</title>
<path fill="none" stroke="#63b8ff" d="M1073.45,-120.51C1087.85,-112.39 1109.29,-100.3 1126.06,-90.85"/>
<polygon fill="#63b8ff" stroke="#63b8ff" points="1127.48,-94.06 1134.47,-86.1 1124.04,-87.96 1127.48,-94.06"/>
</g>
<!-- Node23&#45;&gt;Node20 -->
<g id="edge37" class="edge">
<title>Node23&#45;&gt;Node20</title>
<path fill="none" stroke="#63b8ff" d="M1087.36,-120.51C1116.39,-111.76 1160.72,-98.42 1192.94,-88.71"/>
<polygon fill="#63b8ff" stroke="#63b8ff" points="1193.78,-92.12 1202.34,-85.88 1191.76,-85.41 1193.78,-92.12"/>
</g>
<!-- Node23&#45;&gt;Node21 -->
<g id="edge38" class="edge">
<title>Node23&#45;&gt;Node21</title>
<path fill="none" stroke="#63b8ff" d="M1100.93,-120.51C1147.97,-110.77 1222.61,-95.32 1269.78,-85.55"/>
<polygon fill="#63b8ff" stroke="#63b8ff" points="1270.29,-89.02 1279.37,-83.57 1268.87,-82.17 1270.29,-89.02"/>
</g>
<!-- Node23&#45;&gt;Node22 -->
<g id="edge39" class="edge">
<title>Node23&#45;&gt;Node22</title>
<path fill="none" stroke="#63b8ff" d="M994.57,-120.71C941.86,-113.01 864.41,-100.91 787.97,-85.36"/>
<polygon fill="#63b8ff" stroke="#63b8ff" points="788.68,-81.94 778.18,-83.35 787.27,-88.79 788.68,-81.94"/>
</g>
<!-- Node23&#45;&gt;Node24 -->
<g id="edge40" class="edge">
<title>Node23&#45;&gt;Node24</title>
<path fill="none" stroke="#63b8ff" d="M994.61,-123.03C895.88,-112.87 705.57,-93.28 606.29,-83.07"/>
<polygon fill="#63b8ff" stroke="#63b8ff" points="606.75,-79.59 596.45,-82.05 606.03,-86.56 606.75,-79.59"/>
</g>
<!-- Node24&#45;&gt;Node12 -->
<g id="edge41" class="edge">
<title>Node24&#45;&gt;Node12</title>
<path fill="none" stroke="#63b8ff" d="M594.86,-70.82C751.99,-59.77 1216.4,-27.12 1342.56,-18.25"/>
<polygon fill="#63b8ff" stroke="#63b8ff" points="1342.45,-21.76 1352.18,-17.57 1341.96,-14.78 1342.45,-21.76"/>
</g>
<!-- Node25 -->
<g id="node25" class="node">
<title>Node25</title>
<g id="a_node25"><a xlink:title=" ">
<polygon fill="#e0e0e0" stroke="#999999" points="777.5,-24.5 681.5,-24.5 681.5,-5.5 777.5,-5.5 777.5,-24.5"/>
<text text-anchor="middle" x="729.5" y="-12.5" font-family="Helvetica,sans-Serif" font-size="10.00">boost/log/core.hpp</text>
</a>
</g>
</g>
<!-- Node24&#45;&gt;Node25 -->
<g id="edge42" class="edge">
<title>Node24&#45;&gt;Node25</title>
<path fill="none" stroke="#63b8ff" d="M570.9,-65.62C602.62,-55.69 654.17,-39.57 689.85,-28.4"/>
<polygon fill="#63b8ff" stroke="#63b8ff" points="690.89,-31.75 699.39,-25.42 688.8,-25.07 690.89,-31.75"/>
</g>
<!-- Node26 -->
<g id="node26" class="node">
<title>Node26</title>
<g id="a_node26"><a xlink:title=" ">
<polygon fill="#e0e0e0" stroke="#999999" points="129,-24.5 0,-24.5 0,-5.5 129,-5.5 129,-24.5"/>
<text text-anchor="middle" x="64.5" y="-12.5" font-family="Helvetica,sans-Serif" font-size="10.00">boost/log/expressions.hpp</text>
</a>
</g>
</g>
<!-- Node24&#45;&gt;Node26 -->
<g id="edge43" class="edge">
<title>Node24&#45;&gt;Node26</title>
<path fill="none" stroke="#63b8ff" d="M490.22,-70.1C412.9,-63.3 263.58,-48.99 137.5,-30 131.52,-29.1 125.28,-28.06 119.08,-26.96"/>
<polygon fill="#63b8ff" stroke="#63b8ff" points="119.98,-23.57 109.51,-25.21 118.72,-30.45 119.98,-23.57"/>
</g>
<!-- Node27 -->
<g id="node27" class="node">
<title>Node27</title>
<g id="a_node27"><a xlink:title=" ">
<polygon fill="#e0e0e0" stroke="#999999" points="248,-24.5 147,-24.5 147,-5.5 248,-5.5 248,-24.5"/>
<text text-anchor="middle" x="197.5" y="-12.5" font-family="Helvetica,sans-Serif" font-size="10.00">boost/log/trivial.hpp</text>
</a>
</g>
</g>
<!-- Node24&#45;&gt;Node27 -->
<g id="edge44" class="edge">
<title>Node24&#45;&gt;Node27</title>
<path fill="none" stroke="#63b8ff" d="M490.1,-67.61C432.58,-59.75 337.62,-45.91 256.5,-30 252.49,-29.21 248.35,-28.35 244.19,-27.44"/>
<polygon fill="#63b8ff" stroke="#63b8ff" points="245.28,-24.09 234.76,-25.3 243.74,-30.92 245.28,-24.09"/>
</g>
<!-- Node28 -->
<g id="node28" class="node">
<title>Node28</title>
<g id="a_node28"><a xlink:title=" ">
<polygon fill="#e0e0e0" stroke="#999999" points="375,-30 266,-30 266,0 375,0 375,-30"/>
<text text-anchor="start" x="274" y="-18" font-family="Helvetica,sans-Serif" font-size="10.00">boost/log/utility/setup</text>
<text text-anchor="middle" x="320.5" y="-7" font-family="Helvetica,sans-Serif" font-size="10.00">/console.hpp</text>
</a>
</g>
</g>
<!-- Node24&#45;&gt;Node28 -->
<g id="edge45" class="edge">
<title>Node24&#45;&gt;Node28</title>
<path fill="none" stroke="#63b8ff" d="M508.78,-65.62C476.41,-57.08 426.62,-43.96 386.37,-33.36"/>
<polygon fill="#63b8ff" stroke="#63b8ff" points="387.32,-29.99 376.76,-30.83 385.54,-36.76 387.32,-29.99"/>
</g>
<!-- Node29 -->
<g id="node29" class="node">
<title>Node29</title>
<g id="a_node29"><a xlink:title=" ">
<polygon fill="#e0e0e0" stroke="#999999" points="524,-30 393,-30 393,0 524,0 524,-30"/>
<text text-anchor="start" x="401" y="-18" font-family="Helvetica,sans-Serif" font-size="10.00">boost/log/sources/severity</text>
<text text-anchor="middle" x="458.5" y="-7" font-family="Helvetica,sans-Serif" font-size="10.00">_channel_logger.hpp</text>
</a>
</g>
</g>
<!-- Node24&#45;&gt;Node29 -->
<g id="edge46" class="edge">
<title>Node24&#45;&gt;Node29</title>
<path fill="none" stroke="#63b8ff" d="M529.74,-65.62C518.85,-58.03 502.76,-46.82 488.62,-36.98"/>
<polygon fill="#63b8ff" stroke="#63b8ff" points="490.68,-34.15 480.48,-31.3 486.68,-39.89 490.68,-34.15"/>
</g>
<!-- Node30 -->
<g id="node30" class="node">
<title>Node30</title>
<g id="a_node30"><a xlink:title=" ">
<polygon fill="#e0e0e0" stroke="#999999" points="909,-30 796,-30 796,0 909,0 909,-30"/>
<text text-anchor="start" x="804" y="-18" font-family="Helvetica,sans-Serif" font-size="10.00">boost/log/support/date</text>
<text text-anchor="middle" x="852.5" y="-7" font-family="Helvetica,sans-Serif" font-size="10.00">_time.hpp</text>
</a>
</g>
</g>
<!-- Node24&#45;&gt;Node30 -->
<g id="edge47" class="edge">
<title>Node24&#45;&gt;Node30</title>
<path fill="none" stroke="#63b8ff" d="M593.99,-65.55C641.01,-57.28 712.74,-44.41 784.58,-30.34"/>
<polygon fill="#63b8ff" stroke="#63b8ff" points="785.02,-33.83 794.15,-28.46 783.67,-26.96 785.02,-33.83"/>
</g>
<!-- Node31 -->
<g id="node31" class="node">
<title>Node31</title>
<g id="a_node31"><a xlink:title=" ">
<polygon fill="#e0e0e0" stroke="#999999" points="663,-30 542,-30 542,0 663,0 663,-30"/>
<text text-anchor="start" x="550" y="-18" font-family="Helvetica,sans-Serif" font-size="10.00">boost/log/utility/setup</text>
<text text-anchor="middle" x="602.5" y="-7" font-family="Helvetica,sans-Serif" font-size="10.00">/common_attributes.hpp</text>
</a>
</g>
</g>
<!-- Node24&#45;&gt;Node31 -->
<g id="edge48" class="edge">
<title>Node24&#45;&gt;Node31</title>
<path fill="none" stroke="#63b8ff" d="M551.61,-65.62C559.02,-58.4 569.79,-47.89 579.52,-38.41"/>
<polygon fill="#63b8ff" stroke="#63b8ff" points="581.89,-40.98 586.61,-31.5 577,-35.97 581.89,-40.98"/>
</g>
</g>
</svg>
