<?xml version="1.0" encoding="UTF-8" standalone="no"?>
<!DOCTYPE svg PUBLIC "-//W3C//DTD SVG 1.1//EN"
 "http://www.w3.org/Graphics/SVG/1.1/DTD/svg11.dtd">
<!-- Generated by graphviz version 7.0.5 (20221223.1930)
 -->
<!-- Title: UioIf.cpp Pages: 1 -->
<!--zoomable 258 -->
<svg id="main" version="1.1" xmlns="http://www.w3.org/2000/svg" xmlns:xlink="http://www.w3.org/1999/xlink" xml:space="preserve" onload="init(evt)">
<style type="text/css"><![CDATA[
.edge:hover path { stroke: red; }
.edge:hover polygon { stroke: red; fill: red; }
]]></style>
<script type="text/javascript"><![CDATA[
var edges = document.getElementsByTagName('g');
if (edges && edges.length) {
  for (var i=0;i<edges.length;i++) {
    if (edges[i].id.substr(0,4)=='edge') {
      edges[i].setAttribute('class','edge');
    }
  }
}
]]></script>
        <defs>
                <circle id="rim" cx="0" cy="0" r="7"/>
                <circle id="rim2" cx="0" cy="0" r="3.5"/>
                <g id="zoomPlus">
                        <use xlink:href="#rim" fill="#404040">
                                <set attributeName="fill" to="#808080" begin="zoomplus.mouseover" end="zoomplus.mouseout"/>
                        </use>
                        <path d="M-4,0h8M0,-4v8" fill="none" stroke="white" stroke-width="1.5" pointer-events="none"/>
                </g>
                <g id="zoomMin">
                        <use xlink:href="#rim" fill="#404040">
                                <set attributeName="fill" to="#808080" begin="zoomminus.mouseover" end="zoomminus.mouseout"/>
                        </use>
                        <path d="M-4,0h8" fill="none" stroke="white" stroke-width="1.5" pointer-events="none"/>
                </g>
                <g id="dirArrow">
                        <path fill="none" stroke="white" stroke-width="1.5" d="M0,-3.0v7 M-2.5,-0.5L0,-3.0L2.5,-0.5"/>
                </g>
               <g id="resetDef">
                       <use xlink:href="#rim2" fill="#404040">
                               <set attributeName="fill" to="#808080" begin="reset.mouseover" end="reset.mouseout"/>
                       </use>
               </g>
        </defs>

<script type="text/javascript">
var viewWidth = 1880;
var viewHeight = 258;
var sectionId = 'dynsection-0';
</script>
<script xlink:href="svgpan.js"/>
<svg id="graph" class="graph">
<g id="viewport">
<title>UioIf.cpp</title>
<!-- Node1 -->
<g id="node1" class="node">
<title>Node1</title>
<g id="a_node1"><a xlink:title=" ">
<polygon fill="#999999" stroke="#666666" points="574.03,-250 518.03,-250 518.03,-231 574.03,-231 574.03,-250"/>
<text text-anchor="middle" x="546.03" y="-238" font-family="Helvetica,sans-Serif" font-size="10.00">UioIf.cpp</text>
</a>
</g>
</g>
<!-- Node2 -->
<g id="node2" class="node">
<title>Node2</title>
<g id="a_node2"><a xlink:href="_uio_if_8hpp.html" target="_top" xlink:title=" ">
<polygon fill="white" stroke="#666666" points="591.03,-195 501.03,-195 501.03,-176 591.03,-176 591.03,-195"/>
<text text-anchor="middle" x="546.03" y="-183" font-family="Helvetica,sans-Serif" font-size="10.00">udmaio/UioIf.hpp</text>
</a>
</g>
</g>
<!-- Node1&#45;&gt;Node2 -->
<g id="edge1" class="edge">
<title>Node1&#45;&gt;Node2</title>
<path fill="none" stroke="#63b8ff" d="M546.03,-230.75C546.03,-224.27 546.03,-215.16 546.03,-206.9"/>
<polygon fill="#63b8ff" stroke="#63b8ff" points="549.53,-206.96 546.03,-196.96 542.53,-206.96 549.53,-206.96"/>
</g>
<!-- Node3 -->
<g id="node3" class="node">
<title>Node3</title>
<g id="a_node3"><a xlink:title=" ">
<polygon fill="#e0e0e0" stroke="#999999" points="77.03,-85 17.03,-85 17.03,-66 77.03,-66 77.03,-85"/>
<text text-anchor="middle" x="47.03" y="-73" font-family="Helvetica,sans-Serif" font-size="10.00">filesystem</text>
</a>
</g>
</g>
<!-- Node2&#45;&gt;Node3 -->
<g id="edge2" class="edge">
<title>Node2&#45;&gt;Node3</title>
<path fill="none" stroke="#63b8ff" d="M500.67,-177.46C450.43,-169.41 367.13,-155.37 296.03,-140 222.4,-124.08 137.58,-101.54 88.36,-88.03"/>
<polygon fill="#63b8ff" stroke="#63b8ff" points="89.55,-84.73 78.98,-85.45 87.7,-91.48 89.55,-84.73"/>
</g>
<!-- Node4 -->
<g id="node4" class="node">
<title>Node4</title>
<g id="a_node4"><a xlink:title=" ">
<polygon fill="#e0e0e0" stroke="#999999" points="145.03,-85 95.03,-85 95.03,-66 145.03,-66 145.03,-85"/>
<text text-anchor="middle" x="120.03" y="-73" font-family="Helvetica,sans-Serif" font-size="10.00">fstream</text>
</a>
</g>
</g>
<!-- Node2&#45;&gt;Node4 -->
<g id="edge3" class="edge">
<title>Node2&#45;&gt;Node4</title>
<path fill="none" stroke="#63b8ff" d="M509.67,-175.55C473.49,-166.62 416.39,-152.48 367.03,-140 292.08,-121.05 204.47,-98.41 156.33,-85.93"/>
<polygon fill="#63b8ff" stroke="#63b8ff" points="157.28,-82.56 146.72,-83.44 155.52,-89.34 157.28,-82.56"/>
</g>
<!-- Node5 -->
<g id="node5" class="node">
<title>Node5</title>
<g id="a_node5"><a xlink:title=" ">
<polygon fill="#e0e0e0" stroke="#999999" points="581.03,-24.5 527.03,-24.5 527.03,-5.5 581.03,-5.5 581.03,-24.5"/>
<text text-anchor="middle" x="554.03" y="-12.5" font-family="Helvetica,sans-Serif" font-size="10.00">iostream</text>
</a>
</g>
</g>
<!-- Node2&#45;&gt;Node5 -->
<g id="edge4" class="edge">
<title>Node2&#45;&gt;Node5</title>
<path fill="none" stroke="#63b8ff" d="M500.78,-182.02C359.37,-173.46 -60.79,-141.41 8.03,-66 42.15,-28.61 396.48,-18.84 515.37,-16.6"/>
<polygon fill="#63b8ff" stroke="#63b8ff" points="515.32,-20.1 525.26,-16.42 515.19,-13.1 515.32,-20.1"/>
</g>
<!-- Node6 -->
<g id="node6" class="node">
<title>Node6</title>
<g id="a_node6"><a xlink:title=" ">
<polygon fill="#e0e0e0" stroke="#999999" points="723.53,-24.5 672.53,-24.5 672.53,-5.5 723.53,-5.5 723.53,-24.5"/>
<text text-anchor="middle" x="698.03" y="-12.5" font-family="Helvetica,sans-Serif" font-size="10.00">memory</text>
</a>
</g>
</g>
<!-- Node2&#45;&gt;Node6 -->
<g id="edge5" class="edge">
<title>Node2&#45;&gt;Node6</title>
<path fill="none" stroke="#63b8ff" d="M591.2,-177.56C640.2,-167.21 715.14,-142.38 743.03,-85 752.33,-65.86 735.62,-45.66 719.99,-32.1"/>
<polygon fill="#63b8ff" stroke="#63b8ff" points="722.27,-29.44 712.29,-25.89 717.88,-34.89 722.27,-29.44"/>
</g>
<!-- Node7 -->
<g id="node7" class="node">
<title>Node7</title>
<g id="a_node7"><a xlink:title=" ">
<polygon fill="#e0e0e0" stroke="#999999" points="944.53,-24.5 903.53,-24.5 903.53,-5.5 944.53,-5.5 944.53,-24.5"/>
<text text-anchor="middle" x="924.03" y="-12.5" font-family="Helvetica,sans-Serif" font-size="10.00">string</text>
</a>
</g>
</g>
<!-- Node2&#45;&gt;Node7 -->
<g id="edge6" class="edge">
<title>Node2&#45;&gt;Node7</title>
<path fill="none" stroke="#63b8ff" d="M591.18,-183.85C712.29,-181.01 1039.39,-165.87 1101.03,-85 1129.76,-47.31 1080.56,-75.71 953.03,-30 952.53,-29.82 952.03,-29.64 951.52,-29.45"/>
<polygon fill="#63b8ff" stroke="#63b8ff" points="952.91,-26.23 942.34,-25.5 950.15,-32.66 952.91,-26.23"/>
</g>
<!-- Node8 -->
<g id="node8" class="node">
<title>Node8</title>
<g id="a_node8"><a xlink:title=" ">
<polygon fill="#e0e0e0" stroke="#999999" points="300.53,-85 163.53,-85 163.53,-66 300.53,-66 300.53,-85"/>
<text text-anchor="middle" x="232.03" y="-73" font-family="Helvetica,sans-Serif" font-size="10.00">boost/core/noncopyable.hpp</text>
</a>
</g>
</g>
<!-- Node2&#45;&gt;Node8 -->
<g id="edge7" class="edge">
<title>Node2&#45;&gt;Node8</title>
<path fill="none" stroke="#63b8ff" d="M520.07,-175.57C464.35,-156.4 333.15,-111.28 268.85,-89.16"/>
<polygon fill="#63b8ff" stroke="#63b8ff" points="270.05,-85.88 259.45,-85.93 267.77,-92.49 270.05,-85.88"/>
</g>
<!-- Node9 -->
<g id="node9" class="node">
<title>Node9</title>
<g id="a_node9"><a xlink:title=" ">
<polygon fill="#e0e0e0" stroke="#999999" points="361.53,-85 318.53,-85 318.53,-66 361.53,-66 361.53,-85"/>
<text text-anchor="middle" x="340.03" y="-73" font-family="Helvetica,sans-Serif" font-size="10.00">fcntl.h</text>
</a>
</g>
</g>
<!-- Node2&#45;&gt;Node9 -->
<g id="edge8" class="edge">
<title>Node2&#45;&gt;Node9</title>
<path fill="none" stroke="#63b8ff" d="M529.17,-175.66C493.56,-156.99 410.41,-113.4 367.19,-90.74"/>
<polygon fill="#63b8ff" stroke="#63b8ff" points="368.94,-87.71 358.46,-86.16 365.69,-93.91 368.94,-87.71"/>
</g>
<!-- Node10 -->
<g id="node10" class="node">
<title>Node10</title>
<g id="a_node10"><a xlink:title=" ">
<polygon fill="#e0e0e0" stroke="#999999" points="448.53,-85 379.53,-85 379.53,-66 448.53,-66 448.53,-85"/>
<text text-anchor="middle" x="414.03" y="-73" font-family="Helvetica,sans-Serif" font-size="10.00">sys/mman.h</text>
</a>
</g>
</g>
<!-- Node2&#45;&gt;Node10 -->
<g id="edge9" class="edge">
<title>Node2&#45;&gt;Node10</title>
<path fill="none" stroke="#63b8ff" d="M535.23,-175.66C512.99,-157.47 461.82,-115.6 433.6,-92.51"/>
<polygon fill="#63b8ff" stroke="#63b8ff" points="436.11,-90.04 426.15,-86.42 431.68,-95.46 436.11,-90.04"/>
</g>
<!-- Node11 -->
<g id="node11" class="node">
<title>Node11</title>
<g id="a_node11"><a xlink:title=" ">
<polygon fill="#e0e0e0" stroke="#999999" points="525.53,-85 466.53,-85 466.53,-66 525.53,-66 525.53,-85"/>
<text text-anchor="middle" x="496.03" y="-73" font-family="Helvetica,sans-Serif" font-size="10.00">sys/stat.h</text>
</a>
</g>
</g>
<!-- Node2&#45;&gt;Node11 -->
<g id="edge10" class="edge">
<title>Node2&#45;&gt;Node11</title>
<path fill="none" stroke="#63b8ff" d="M541.94,-175.66C533.88,-158.26 515.8,-119.19 504.88,-95.62"/>
<polygon fill="#63b8ff" stroke="#63b8ff" points="508.19,-94.44 500.81,-86.83 501.84,-97.38 508.19,-94.44"/>
</g>
<!-- Node12 -->
<g id="node12" class="node">
<title>Node12</title>
<g id="a_node12"><a xlink:title=" ">
<polygon fill="#e0e0e0" stroke="#999999" points="1023.53,-85 958.53,-85 958.53,-66 1023.53,-66 1023.53,-85"/>
<text text-anchor="middle" x="991.03" y="-73" font-family="Helvetica,sans-Serif" font-size="10.00">sys/types.h</text>
</a>
</g>
</g>
<!-- Node2&#45;&gt;Node12 -->
<g id="edge11" class="edge">
<title>Node2&#45;&gt;Node12</title>
<path fill="none" stroke="#63b8ff" d="M591.22,-178.89C643.09,-171.95 730.47,-158.71 804.03,-140 858.84,-126.06 920.64,-103.72 957.68,-89.6"/>
<polygon fill="#63b8ff" stroke="#63b8ff" points="958.86,-92.89 966.93,-86.04 956.34,-86.36 958.86,-92.89"/>
</g>
<!-- Node13 -->
<g id="node13" class="node">
<title>Node13</title>
<g id="a_node13"><a xlink:title=" ">
<polygon fill="#e0e0e0" stroke="#999999" points="1092.03,-85 1042.03,-85 1042.03,-66 1092.03,-66 1092.03,-85"/>
<text text-anchor="middle" x="1067.03" y="-73" font-family="Helvetica,sans-Serif" font-size="10.00">unistd.h</text>
</a>
</g>
</g>
<!-- Node2&#45;&gt;Node13 -->
<g id="edge12" class="edge">
<title>Node2&#45;&gt;Node13</title>
<path fill="none" stroke="#63b8ff" d="M591.45,-179.85C651.19,-173.28 759.22,-159.83 850.03,-140 914.63,-125.89 988.17,-102.86 1030.91,-88.75"/>
<polygon fill="#63b8ff" stroke="#63b8ff" points="1031.79,-92.15 1040.17,-85.67 1029.58,-85.51 1031.79,-92.15"/>
</g>
<!-- Node14 -->
<g id="node14" class="node">
<title>Node14</title>
<g id="a_node14"><a xlink:href="_hw_accessor_8hpp.html" target="_top" xlink:title=" ">
<polygon fill="white" stroke="#666666" points="664.53,-140 539.53,-140 539.53,-121 664.53,-121 664.53,-140"/>
<text text-anchor="middle" x="602.03" y="-128" font-family="Helvetica,sans-Serif" font-size="10.00">udmaio/HwAccessor.hpp</text>
</a>
</g>
</g>
<!-- Node2&#45;&gt;Node14 -->
<g id="edge13" class="edge">
<title>Node2&#45;&gt;Node14</title>
<path fill="none" stroke="#63b8ff" d="M555.53,-175.51C563.46,-168 574.98,-157.1 584.57,-148.03"/>
<polygon fill="#63b8ff" stroke="#63b8ff" points="586.71,-150.81 591.57,-141.4 581.9,-145.73 586.71,-150.81"/>
</g>
<!-- Node17 -->
<g id="node17" class="node">
<title>Node17</title>
<g id="a_node17"><a xlink:href="_logging_8hpp.html" target="_top" xlink:title=" ">
<polygon fill="white" stroke="#666666" points="1317.03,-85 1213.03,-85 1213.03,-66 1317.03,-66 1317.03,-85"/>
<text text-anchor="middle" x="1265.03" y="-73" font-family="Helvetica,sans-Serif" font-size="10.00">udmaio/Logging.hpp</text>
</a>
</g>
</g>
<!-- Node2&#45;&gt;Node17 -->
<g id="edge42" class="edge">
<title>Node2&#45;&gt;Node17</title>
<path fill="none" stroke="#63b8ff" d="M591.17,-183.27C710.42,-179.66 1031.73,-167.59 1134.03,-140 1173.74,-129.29 1215.91,-106.53 1241.36,-91.37"/>
<polygon fill="#63b8ff" stroke="#63b8ff" points="1243.16,-94.37 1249.89,-86.19 1239.53,-88.39 1243.16,-94.37"/>
</g>
<!-- Node25 -->
<g id="node25" class="node">
<title>Node25</title>
<g id="a_node25"><a xlink:href="_uio_config_8hpp.html" target="_top" xlink:title=" ">
<polygon fill="white" stroke="#666666" points="901.53,-85 790.53,-85 790.53,-66 901.53,-66 901.53,-85"/>
<text text-anchor="middle" x="846.03" y="-73" font-family="Helvetica,sans-Serif" font-size="10.00">udmaio/UioConfig.hpp</text>
</a>
</g>
</g>
<!-- Node2&#45;&gt;Node25 -->
<g id="edge43" class="edge">
<title>Node2&#45;&gt;Node25</title>
<path fill="none" stroke="#63b8ff" d="M591.12,-182.92C639.24,-179.65 716.56,-169.76 776.03,-140 798.42,-128.8 818.99,-108.39 831.95,-93.73"/>
<polygon fill="#63b8ff" stroke="#63b8ff" points="834.51,-96.12 838.33,-86.24 829.18,-91.58 834.51,-96.12"/>
</g>
<!-- Node14&#45;&gt;Node3 -->
<g id="edge16" class="edge">
<title>Node14&#45;&gt;Node3</title>
<path fill="none" stroke="#63b8ff" d="M539.37,-126.7C444.1,-121.87 256.95,-110.14 88.52,-85.18"/>
<polygon fill="#63b8ff" stroke="#63b8ff" points="89.1,-81.73 78.69,-83.7 88.06,-88.65 89.1,-81.73"/>
</g>
<!-- Node14&#45;&gt;Node4 -->
<g id="edge17" class="edge">
<title>Node14&#45;&gt;Node4</title>
<path fill="none" stroke="#63b8ff" d="M539.31,-126.17C454.53,-121.02 298.51,-109.29 156.28,-85.14"/>
<polygon fill="#63b8ff" stroke="#63b8ff" points="157.13,-81.73 146.69,-83.48 155.94,-88.63 157.13,-81.73"/>
</g>
<!-- Node14&#45;&gt;Node5 -->
<g id="edge18" class="edge">
<title>Node14&#45;&gt;Node5</title>
<path fill="none" stroke="#63b8ff" d="M595.16,-120.77C588.66,-112.12 579.01,-98.28 573.03,-85 565.85,-69.05 560.82,-49.78 557.75,-35.66"/>
<polygon fill="#63b8ff" stroke="#63b8ff" points="561.26,-35.38 555.85,-26.28 554.4,-36.77 561.26,-35.38"/>
</g>
<!-- Node14&#45;&gt;Node6 -->
<g id="edge19" class="edge">
<title>Node14&#45;&gt;Node6</title>
<path fill="none" stroke="#63b8ff" d="M609.62,-120.65C617.31,-111.68 629.52,-97.4 640.03,-85 654.82,-67.54 671.64,-47.51 683.35,-33.54"/>
<polygon fill="#63b8ff" stroke="#63b8ff" points="685.83,-36.02 689.57,-26.11 680.47,-31.53 685.83,-36.02"/>
</g>
<!-- Node14&#45;&gt;Node7 -->
<g id="edge20" class="edge">
<title>Node14&#45;&gt;Node7</title>
<path fill="none" stroke="#63b8ff" d="M664.7,-128.71C744.36,-126.34 875.67,-117.47 910.03,-85 923.21,-72.55 925.82,-51.36 925.68,-35.74"/>
<polygon fill="#63b8ff" stroke="#63b8ff" points="929.2,-36 925.2,-26.19 922.2,-36.35 929.2,-36"/>
</g>
<!-- Node14&#45;&gt;Node8 -->
<g id="edge21" class="edge">
<title>Node14&#45;&gt;Node8</title>
<path fill="none" stroke="#63b8ff" d="M539.26,-120.51C474.72,-111.26 374.23,-96.87 305.9,-87.08"/>
<polygon fill="#63b8ff" stroke="#63b8ff" points="306.69,-83.66 296.29,-85.71 305.69,-90.59 306.69,-83.66"/>
</g>
<!-- Node14&#45;&gt;Node9 -->
<g id="edge22" class="edge">
<title>Node14&#45;&gt;Node9</title>
<path fill="none" stroke="#63b8ff" d="M548.3,-120.56C503.59,-112.8 438.05,-100.74 372.82,-85.51"/>
<polygon fill="#63b8ff" stroke="#63b8ff" points="373.94,-82.18 363.4,-83.29 372.33,-88.99 373.94,-82.18"/>
</g>
<!-- Node14&#45;&gt;Node10 -->
<g id="edge23" class="edge">
<title>Node14&#45;&gt;Node10</title>
<path fill="none" stroke="#63b8ff" d="M570.14,-120.51C538.85,-111.69 490.94,-98.18 456.45,-88.46"/>
<polygon fill="#63b8ff" stroke="#63b8ff" points="457.8,-85.2 447.22,-85.86 455.9,-91.94 457.8,-85.2"/>
</g>
<!-- Node14&#45;&gt;Node11 -->
<g id="edge24" class="edge">
<title>Node14&#45;&gt;Node11</title>
<path fill="none" stroke="#63b8ff" d="M584.05,-120.51C567.58,-112.27 542.94,-99.96 523.92,-90.45"/>
<polygon fill="#63b8ff" stroke="#63b8ff" points="525.61,-87.38 515.1,-86.03 522.48,-93.64 525.61,-87.38"/>
</g>
<!-- Node14&#45;&gt;Node12 -->
<g id="edge25" class="edge">
<title>Node14&#45;&gt;Node12</title>
<path fill="none" stroke="#63b8ff" d="M664.88,-122.27C733.59,-114.14 846.85,-100.1 944.03,-85 945.03,-84.84 946.05,-84.68 947.07,-84.52"/>
<polygon fill="#63b8ff" stroke="#63b8ff" points="947.42,-88.01 956.7,-82.9 946.26,-81.11 947.42,-88.01"/>
</g>
<!-- Node14&#45;&gt;Node13 -->
<g id="edge26" class="edge">
<title>Node14&#45;&gt;Node13</title>
<path fill="none" stroke="#63b8ff" d="M664.87,-125.82C746.91,-120.39 895.11,-108.46 1030.86,-85.14"/>
<polygon fill="#63b8ff" stroke="#63b8ff" points="1031.12,-88.64 1040.37,-83.47 1029.92,-81.75 1031.12,-88.64"/>
</g>
<!-- Node15 -->
<g id="node15" class="node">
<title>Node15</title>
<g id="a_node15"><a xlink:title=" ">
<polygon fill="#e0e0e0" stroke="#999999" points="631.53,-85 582.53,-85 582.53,-66 631.53,-66 631.53,-85"/>
<text text-anchor="middle" x="607.03" y="-73" font-family="Helvetica,sans-Serif" font-size="10.00">cstddef</text>
</a>
</g>
</g>
<!-- Node14&#45;&gt;Node15 -->
<g id="edge14" class="edge">
<title>Node14&#45;&gt;Node15</title>
<path fill="none" stroke="#63b8ff" d="M602.86,-120.75C603.47,-114.27 604.33,-105.16 605.11,-96.9"/>
<polygon fill="#63b8ff" stroke="#63b8ff" points="608.59,-97.23 606.04,-86.95 601.62,-96.58 608.59,-97.23"/>
</g>
<!-- Node16 -->
<g id="node16" class="node">
<title>Node16</title>
<g id="a_node16"><a xlink:title=" ">
<polygon fill="#e0e0e0" stroke="#999999" points="734.03,-85 688.03,-85 688.03,-66 734.03,-66 734.03,-85"/>
<text text-anchor="middle" x="711.03" y="-73" font-family="Helvetica,sans-Serif" font-size="10.00">cstring</text>
</a>
</g>
</g>
<!-- Node14&#45;&gt;Node16 -->
<g id="edge15" class="edge">
<title>Node14&#45;&gt;Node16</title>
<path fill="none" stroke="#63b8ff" d="M620.52,-120.51C637.53,-112.24 663.02,-99.84 682.62,-90.31"/>
<polygon fill="#63b8ff" stroke="#63b8ff" points="683.99,-93.54 691.45,-86.02 680.93,-87.25 683.99,-93.54"/>
</g>
<!-- Node14&#45;&gt;Node17 -->
<g id="edge27" class="edge">
<title>Node14&#45;&gt;Node17</title>
<path fill="none" stroke="#63b8ff" d="M665,-124.47C791.32,-114.37 1074.38,-91.74 1201.31,-81.59"/>
<polygon fill="#63b8ff" stroke="#63b8ff" points="1201.54,-85.09 1211.23,-80.8 1200.98,-78.11 1201.54,-85.09"/>
</g>
<!-- Node14&#45;&gt;Node25 -->
<g id="edge36" class="edge">
<title>Node14&#45;&gt;Node25</title>
<path fill="none" stroke="#63b8ff" d="M643.42,-120.51C684.91,-111.5 748.91,-97.6 793.85,-87.83"/>
<polygon fill="#63b8ff" stroke="#63b8ff" points="794.34,-91.31 803.36,-85.77 792.85,-84.47 794.34,-91.31"/>
</g>
<!-- Node17&#45;&gt;Node7 -->
<g id="edge28" class="edge">
<title>Node17&#45;&gt;Node7</title>
<path fill="none" stroke="#63b8ff" d="M1212.63,-71.95C1149.76,-67.77 1041.75,-57.03 953.03,-30 952.23,-29.76 951.42,-29.49 950.61,-29.21"/>
<polygon fill="#63b8ff" stroke="#63b8ff" points="952.21,-26.09 941.64,-25.49 949.53,-32.55 952.21,-26.09"/>
</g>
<!-- Node18 -->
<g id="node18" class="node">
<title>Node18</title>
<g id="a_node18"><a xlink:title=" ">
<polygon fill="#e0e0e0" stroke="#999999" points="1478.03,-24.5 1382.03,-24.5 1382.03,-5.5 1478.03,-5.5 1478.03,-24.5"/>
<text text-anchor="middle" x="1430.03" y="-12.5" font-family="Helvetica,sans-Serif" font-size="10.00">boost/log/core.hpp</text>
</a>
</g>
</g>
<!-- Node17&#45;&gt;Node18 -->
<g id="edge29" class="edge">
<title>Node17&#45;&gt;Node18</title>
<path fill="none" stroke="#63b8ff" d="M1290.09,-65.62C1317.83,-55.78 1362.78,-39.84 1394.22,-28.69"/>
<polygon fill="#63b8ff" stroke="#63b8ff" points="1395.05,-32.11 1403.31,-25.47 1392.71,-25.52 1395.05,-32.11"/>
</g>
<!-- Node19 -->
<g id="node19" class="node">
<title>Node19</title>
<g id="a_node19"><a xlink:title=" ">
<polygon fill="#e0e0e0" stroke="#999999" points="1625.53,-24.5 1496.53,-24.5 1496.53,-5.5 1625.53,-5.5 1625.53,-24.5"/>
<text text-anchor="middle" x="1561.03" y="-12.5" font-family="Helvetica,sans-Serif" font-size="10.00">boost/log/expressions.hpp</text>
</a>
</g>
</g>
<!-- Node17&#45;&gt;Node19 -->
<g id="edge30" class="edge">
<title>Node17&#45;&gt;Node19</title>
<path fill="none" stroke="#63b8ff" d="M1310.31,-65.55C1362.43,-55.25 1448.09,-38.32 1504.53,-27.17"/>
<polygon fill="#63b8ff" stroke="#63b8ff" points="1505.14,-30.61 1514.27,-25.24 1503.78,-23.75 1505.14,-30.61"/>
</g>
<!-- Node20 -->
<g id="node20" class="node">
<title>Node20</title>
<g id="a_node20"><a xlink:title=" ">
<polygon fill="#e0e0e0" stroke="#999999" points="1744.53,-24.5 1643.53,-24.5 1643.53,-5.5 1744.53,-5.5 1744.53,-24.5"/>
<text text-anchor="middle" x="1694.03" y="-12.5" font-family="Helvetica,sans-Serif" font-size="10.00">boost/log/trivial.hpp</text>
</a>
</g>
</g>
<!-- Node17&#45;&gt;Node20 -->
<g id="edge31" class="edge">
<title>Node17&#45;&gt;Node20</title>
<path fill="none" stroke="#63b8ff" d="M1317.39,-70.09C1389.33,-63.59 1522.61,-50.03 1635.03,-30 1639.34,-29.23 1643.8,-28.35 1648.26,-27.4"/>
<polygon fill="#63b8ff" stroke="#63b8ff" points="1648.75,-30.87 1657.75,-25.28 1647.23,-24.04 1648.75,-30.87"/>
</g>
<!-- Node21 -->
<g id="node21" class="node">
<title>Node21</title>
<g id="a_node21"><a xlink:title=" ">
<polygon fill="#e0e0e0" stroke="#999999" points="1871.53,-30 1762.53,-30 1762.53,0 1871.53,0 1871.53,-30"/>
<text text-anchor="start" x="1770.53" y="-18" font-family="Helvetica,sans-Serif" font-size="10.00">boost/log/utility/setup</text>
<text text-anchor="middle" x="1817.03" y="-7" font-family="Helvetica,sans-Serif" font-size="10.00">/console.hpp</text>
</a>
</g>
</g>
<!-- Node17&#45;&gt;Node21 -->
<g id="edge32" class="edge">
<title>Node17&#45;&gt;Node21</title>
<path fill="none" stroke="#63b8ff" d="M1317.41,-71.94C1405.18,-67.16 1587.67,-55.18 1750.91,-30.36"/>
<polygon fill="#63b8ff" stroke="#63b8ff" points="1751.29,-33.85 1760.64,-28.86 1750.22,-26.93 1751.29,-33.85"/>
</g>
<!-- Node22 -->
<g id="node22" class="node">
<title>Node22</title>
<g id="a_node22"><a xlink:title=" ">
<polygon fill="#e0e0e0" stroke="#999999" points="1093.53,-30 962.53,-30 962.53,0 1093.53,0 1093.53,-30"/>
<text text-anchor="start" x="970.53" y="-18" font-family="Helvetica,sans-Serif" font-size="10.00">boost/log/sources/severity</text>
<text text-anchor="middle" x="1028.03" y="-7" font-family="Helvetica,sans-Serif" font-size="10.00">_channel_logger.hpp</text>
</a>
</g>
</g>
<!-- Node17&#45;&gt;Node22 -->
<g id="edge33" class="edge">
<title>Node17&#45;&gt;Node22</title>
<path fill="none" stroke="#63b8ff" d="M1228.78,-65.55C1193.95,-56.95 1140.41,-43.74 1097.38,-33.12"/>
<polygon fill="#63b8ff" stroke="#63b8ff" points="1098.42,-29.77 1087.87,-30.77 1096.74,-36.56 1098.42,-29.77"/>
</g>
<!-- Node23 -->
<g id="node23" class="node">
<title>Node23</title>
<g id="a_node23"><a xlink:title=" ">
<polygon fill="#e0e0e0" stroke="#999999" points="1224.53,-30 1111.53,-30 1111.53,0 1224.53,0 1224.53,-30"/>
<text text-anchor="start" x="1119.53" y="-18" font-family="Helvetica,sans-Serif" font-size="10.00">boost/log/support/date</text>
<text text-anchor="middle" x="1168.03" y="-7" font-family="Helvetica,sans-Serif" font-size="10.00">_time.hpp</text>
</a>
</g>
</g>
<!-- Node17&#45;&gt;Node23 -->
<g id="edge34" class="edge">
<title>Node17&#45;&gt;Node23</title>
<path fill="none" stroke="#63b8ff" d="M1250.3,-65.62C1237.36,-57.81 1218.06,-46.17 1201.41,-36.13"/>
<polygon fill="#63b8ff" stroke="#63b8ff" points="1203.64,-33.39 1193.27,-31.22 1200.02,-39.38 1203.64,-33.39"/>
</g>
<!-- Node24 -->
<g id="node24" class="node">
<title>Node24</title>
<g id="a_node24"><a xlink:title=" ">
<polygon fill="#e0e0e0" stroke="#999999" points="1363.53,-30 1242.53,-30 1242.53,0 1363.53,0 1363.53,-30"/>
<text text-anchor="start" x="1250.53" y="-18" font-family="Helvetica,sans-Serif" font-size="10.00">boost/log/utility/setup</text>
<text text-anchor="middle" x="1303.03" y="-7" font-family="Helvetica,sans-Serif" font-size="10.00">/common_attributes.hpp</text>
</a>
</g>
</g>
<!-- Node17&#45;&gt;Node24 -->
<g id="edge35" class="edge">
<title>Node17&#45;&gt;Node24</title>
<path fill="none" stroke="#63b8ff" d="M1270.64,-65.87C1275.12,-58.96 1281.64,-48.93 1287.65,-39.67"/>
<polygon fill="#63b8ff" stroke="#63b8ff" points="1290.52,-41.68 1293.04,-31.38 1284.65,-37.86 1290.52,-41.68"/>
</g>
<!-- Node25&#45;&gt;Node5 -->
<g id="edge37" class="edge">
<title>Node25&#45;&gt;Node5</title>
<path fill="none" stroke="#63b8ff" d="M801.36,-65.55C744.21,-54.1 646.17,-34.46 592.29,-23.66"/>
<polygon fill="#63b8ff" stroke="#63b8ff" points="593.15,-20.27 582.66,-21.74 591.77,-27.13 593.15,-20.27"/>
</g>
<!-- Node25&#45;&gt;Node6 -->
<g id="edge38" class="edge">
<title>Node25&#45;&gt;Node6</title>
<path fill="none" stroke="#63b8ff" d="M822.84,-65.59C799.77,-56.69 763.38,-42.57 732.03,-30 731.4,-29.75 730.76,-29.49 730.12,-29.23"/>
<polygon fill="#63b8ff" stroke="#63b8ff" points="731.57,-26.04 720.99,-25.52 728.93,-32.53 731.57,-26.04"/>
</g>
<!-- Node25&#45;&gt;Node7 -->
<g id="edge40" class="edge">
<title>Node25&#45;&gt;Node7</title>
<path fill="none" stroke="#63b8ff" d="M857.88,-65.62C869.79,-56.68 888.41,-42.72 902.86,-31.87"/>
<polygon fill="#63b8ff" stroke="#63b8ff" points="904.96,-34.68 910.86,-25.88 900.76,-29.08 904.96,-34.68"/>
</g>
<!-- Node26 -->
<g id="node26" class="node">
<title>Node26</title>
<g id="a_node26"><a xlink:title=" ">
<polygon fill="#e0e0e0" stroke="#999999" points="800.53,-24.5 741.53,-24.5 741.53,-5.5 800.53,-5.5 800.53,-24.5"/>
<text text-anchor="middle" x="771.03" y="-12.5" font-family="Helvetica,sans-Serif" font-size="10.00">stdexcept</text>
</a>
</g>
</g>
<!-- Node25&#45;&gt;Node26 -->
<g id="edge39" class="edge">
<title>Node25&#45;&gt;Node26</title>
<path fill="none" stroke="#63b8ff" d="M834.64,-65.62C823.19,-56.68 805.28,-42.72 791.38,-31.87"/>
<polygon fill="#63b8ff" stroke="#63b8ff" points="793.76,-29.29 783.72,-25.9 789.45,-34.81 793.76,-29.29"/>
</g>
<!-- Node27 -->
<g id="node27" class="node">
<title>Node27</title>
<g id="a_node27"><a xlink:title=" ">
<polygon fill="#e0e0e0" stroke="#999999" points="885.03,-24.5 819.03,-24.5 819.03,-5.5 885.03,-5.5 885.03,-24.5"/>
<text text-anchor="middle" x="852.03" y="-12.5" font-family="Helvetica,sans-Serif" font-size="10.00">string_view</text>
</a>
</g>
</g>
<!-- Node25&#45;&gt;Node27 -->
<g id="edge41" class="edge">
<title>Node25&#45;&gt;Node27</title>
<path fill="none" stroke="#63b8ff" d="M846.92,-65.87C847.72,-58 848.94,-46.1 849.99,-35.89"/>
<polygon fill="#63b8ff" stroke="#63b8ff" points="853.45,-36.48 850.99,-26.17 846.48,-35.76 853.45,-36.48"/>
</g>
</g>
</svg>
        <g id="navigator" transform="translate(0 0)" fill="#404254">
                <rect fill="#f2f5e9" fill-opacity="0.5" stroke="#606060" stroke-width=".5" x="0" y="0" width="60" height="60"/>
                <use id="zoomplus" xlink:href="#zoomPlus" x="17" y="9" onmousedown="handleZoom(evt,'in')"/>
                <use id="zoomminus" xlink:href="#zoomMin" x="42" y="9" onmousedown="handleZoom(evt,'out')"/>
                <use id="reset" xlink:href="#resetDef" x="30" y="36" onmousedown="handleReset()"/>
                <g id="arrowUp" xlink:href="#dirArrow" transform="translate(30 24)" onmousedown="handlePan(0,-1)">
                  <use xlink:href="#rim" fill="#404040">
                        <set attributeName="fill" to="#808080" begin="arrowUp.mouseover" end="arrowUp.mouseout"/>
                  </use>
                  <path fill="none" stroke="white" stroke-width="1.5" d="M0,-3.0v7 M-2.5,-0.5L0,-3.0L2.5,-0.5"/>
                </g>
                <g id="arrowRight" xlink:href="#dirArrow" transform="rotate(90) translate(36 -43)" onmousedown="handlePan(1,0)">
                  <use xlink:href="#rim" fill="#404040">
                        <set attributeName="fill" to="#808080" begin="arrowRight.mouseover" end="arrowRight.mouseout"/>
                  </use>
                  <path fill="none" stroke="white" stroke-width="1.5" d="M0,-3.0v7 M-2.5,-0.5L0,-3.0L2.5,-0.5"/>
                </g>
                <g id="arrowDown" xlink:href="#dirArrow" transform="rotate(180) translate(-30 -48)" onmousedown="handlePan(0,1)">
                  <use xlink:href="#rim" fill="#404040">
                        <set attributeName="fill" to="#808080" begin="arrowDown.mouseover" end="arrowDown.mouseout"/>
                  </use>
                  <path fill="none" stroke="white" stroke-width="1.5" d="M0,-3.0v7 M-2.5,-0.5L0,-3.0L2.5,-0.5"/>
                </g>
                <g id="arrowLeft" xlink:href="#dirArrow" transform="rotate(270) translate(-36 17)" onmousedown="handlePan(-1,0)">
                  <use xlink:href="#rim" fill="#404040">
                        <set attributeName="fill" to="#808080" begin="arrowLeft.mouseover" end="arrowLeft.mouseout"/>
                  </use>
                  <path fill="none" stroke="white" stroke-width="1.5" d="M0,-3.0v7 M-2.5,-0.5L0,-3.0L2.5,-0.5"/>
                </g>
        </g>
        <svg viewBox="0 0 15 15" width="100%" height="30px" preserveAspectRatio="xMaxYMin meet">
         <g id="arrow_out" transform="scale(0.3 0.3)">
          <a xlink:href="_uio_if_8cpp__incl_org.svg" target="_base">
           <rect id="button" ry="5" rx="5" y="6" x="6" height="38" width="38"
                fill="#f2f5e9" fill-opacity="0.5" stroke="#606060" stroke-width="1.0"/>
           <path id="arrow"
             d="M 11.500037,31.436501 C 11.940474,20.09759 22.043105,11.32322 32.158766,21.979434 L 37.068811,17.246167 C 37.068811,17.246167 37.088388,32 37.088388,32 L 22.160133,31.978069 C 22.160133,31.978069 26.997745,27.140456 26.997745,27.140456 C 18.528582,18.264221 13.291696,25.230495 11.500037,31.436501 z"
             style="fill:#404040;"/>
          </a>
         </g>
        </svg>
</svg>
