<?xml version="1.0" encoding="UTF-8" standalone="no"?>
<!DOCTYPE svg PUBLIC "-//W3C//DTD SVG 1.1//EN"
 "http://www.w3.org/Graphics/SVG/1.1/DTD/svg11.dtd">
<!-- Generated by graphviz version 7.0.5 (20221223.1930)
 -->
<!-- Title: UioAxiDmaIf.hpp Pages: 1 -->
<!--zoomable 313 -->
<svg id="main" version="1.1" xmlns="http://www.w3.org/2000/svg" xmlns:xlink="http://www.w3.org/1999/xlink" xml:space="preserve" onload="init(evt)">
<style type="text/css"><![CDATA[
.edge:hover path { stroke: red; }
.edge:hover polygon { stroke: red; fill: red; }
]]></style>
<script type="text/javascript"><![CDATA[
var edges = document.getElementsByTagName('g');
if (edges && edges.length) {
  for (var i=0;i<edges.length;i++) {
    if (edges[i].id.substr(0,4)=='edge') {
      edges[i].setAttribute('class','edge');
    }
  }
}
]]></script>
        <defs>
                <circle id="rim" cx="0" cy="0" r="7"/>
                <circle id="rim2" cx="0" cy="0" r="3.5"/>
                <g id="zoomPlus">
                        <use xlink:href="#rim" fill="#404040">
                                <set attributeName="fill" to="#808080" begin="zoomplus.mouseover" end="zoomplus.mouseout"/>
                        </use>
                        <path d="M-4,0h8M0,-4v8" fill="none" stroke="white" stroke-width="1.5" pointer-events="none"/>
                </g>
                <g id="zoomMin">
                        <use xlink:href="#rim" fill="#404040">
                                <set attributeName="fill" to="#808080" begin="zoomminus.mouseover" end="zoomminus.mouseout"/>
                        </use>
                        <path d="M-4,0h8" fill="none" stroke="white" stroke-width="1.5" pointer-events="none"/>
                </g>
                <g id="dirArrow">
                        <path fill="none" stroke="white" stroke-width="1.5" d="M0,-3.0v7 M-2.5,-0.5L0,-3.0L2.5,-0.5"/>
                </g>
               <g id="resetDef">
                       <use xlink:href="#rim2" fill="#404040">
                               <set attributeName="fill" to="#808080" begin="reset.mouseover" end="reset.mouseout"/>
                       </use>
               </g>
        </defs>

<script type="text/javascript">
var viewWidth = 1698;
var viewHeight = 313;
var sectionId = 'dynsection-0';
</script>
<script xlink:href="svgpan.js"/>
<svg id="graph" class="graph">
<g id="viewport">
<title>UioAxiDmaIf.hpp</title>
<!-- Node1 -->
<g id="node1" class="node">
<title>Node1</title>
<g id="a_node1"><a xlink:title=" ">
<polygon fill="#999999" stroke="#666666" points="1027.29,-305 938.29,-305 938.29,-286 1027.29,-286 1027.29,-305"/>
<text text-anchor="middle" x="982.79" y="-293" font-family="Helvetica,sans-Serif" font-size="10.00">UioAxiDmaIf.hpp</text>
</a>
</g>
</g>
<!-- Node2 -->
<g id="node2" class="node">
<title>Node2</title>
<g id="a_node2"><a xlink:title=" ">
<polygon fill="#e0e0e0" stroke="#999999" points="1067.79,-195 1021.79,-195 1021.79,-176 1067.79,-176 1067.79,-195"/>
<text text-anchor="middle" x="1044.79" y="-183" font-family="Helvetica,sans-Serif" font-size="10.00">cstdint</text>
</a>
</g>
</g>
<!-- Node1&#45;&gt;Node2 -->
<g id="edge1" class="edge">
<title>Node1&#45;&gt;Node2</title>
<path fill="none" stroke="#63b8ff" d="M1027.66,-291.82C1056.81,-287.47 1092.82,-276.62 1111.79,-250 1125.65,-230.56 1100.7,-212.25 1077.41,-200.33"/>
<polygon fill="#63b8ff" stroke="#63b8ff" points="1079.2,-197.31 1068.67,-196.13 1076.17,-203.61 1079.2,-197.31"/>
</g>
<!-- Node3 -->
<g id="node3" class="node">
<title>Node3</title>
<g id="a_node3"><a xlink:title=" ">
<polygon fill="#e0e0e0" stroke="#999999" points="856.79,-250 818.79,-250 818.79,-231 856.79,-231 856.79,-250"/>
<text text-anchor="middle" x="837.79" y="-238" font-family="Helvetica,sans-Serif" font-size="10.00">tuple</text>
</a>
</g>
</g>
<!-- Node1&#45;&gt;Node3 -->
<g id="edge2" class="edge">
<title>Node1&#45;&gt;Node3</title>
<path fill="none" stroke="#63b8ff" d="M958.2,-285.51C933.17,-276.36 894.36,-262.17 867.6,-252.39"/>
<polygon fill="#63b8ff" stroke="#63b8ff" points="868.96,-249.16 858.37,-249.02 866.56,-255.74 868.96,-249.16"/>
</g>
<!-- Node4 -->
<g id="node4" class="node">
<title>Node4</title>
<g id="a_node4"><a xlink:title=" ">
<polygon fill="#e0e0e0" stroke="#999999" points="1248.29,-85 1183.29,-85 1183.29,-66 1248.29,-66 1248.29,-85"/>
<text text-anchor="middle" x="1215.79" y="-73" font-family="Helvetica,sans-Serif" font-size="10.00">sys/types.h</text>
</a>
</g>
</g>
<!-- Node1&#45;&gt;Node4 -->
<g id="edge3" class="edge">
<title>Node1&#45;&gt;Node4</title>
<path fill="none" stroke="#63b8ff" d="M1027.75,-289.82C1058.59,-284.57 1098.84,-273.47 1126.79,-250 1176.43,-208.34 1201.6,-131.97 1211.14,-96.09"/>
<polygon fill="#63b8ff" stroke="#63b8ff" points="1214.46,-97.24 1213.51,-86.68 1207.67,-95.53 1214.46,-97.24"/>
</g>
<!-- Node5 -->
<g id="node5" class="node">
<title>Node5</title>
<g id="a_node5"><a xlink:href="_reg_accessor_8hpp.html" target="_top" xlink:title=" ">
<polygon fill="white" stroke="#666666" points="968.29,-250 875.29,-250 875.29,-231 968.29,-231 968.29,-250"/>
<text text-anchor="middle" x="921.79" y="-238" font-family="Helvetica,sans-Serif" font-size="10.00">RegAccessor.hpp</text>
</a>
</g>
</g>
<!-- Node1&#45;&gt;Node5 -->
<g id="edge4" class="edge">
<title>Node1&#45;&gt;Node5</title>
<path fill="none" stroke="#63b8ff" d="M972.45,-285.51C963.72,-277.93 951,-266.88 940.5,-257.75"/>
<polygon fill="#63b8ff" stroke="#63b8ff" points="942.98,-255.27 933.13,-251.35 938.39,-260.55 942.98,-255.27"/>
</g>
<!-- Node6 -->
<g id="node6" class="node">
<title>Node6</title>
<g id="a_node6"><a xlink:href="_uio_if_8hpp.html" target="_top" xlink:title=" ">
<polygon fill="white" stroke="#666666" points="835.79,-195 745.79,-195 745.79,-176 835.79,-176 835.79,-195"/>
<text text-anchor="middle" x="790.79" y="-183" font-family="Helvetica,sans-Serif" font-size="10.00">udmaio/UioIf.hpp</text>
</a>
</g>
</g>
<!-- Node1&#45;&gt;Node6 -->
<g id="edge49" class="edge">
<title>Node1&#45;&gt;Node6</title>
<path fill="none" stroke="#63b8ff" d="M937.92,-294.66C899.11,-292.36 843.99,-282.89 809.79,-250 798.11,-238.76 793.53,-220.66 791.78,-206.66"/>
<polygon fill="#63b8ff" stroke="#63b8ff" points="795.27,-206.45 790.96,-196.77 788.3,-207.02 795.27,-206.45"/>
</g>
<!-- Node31 -->
<g id="node31" class="node">
<title>Node31</title>
<g id="a_node31"><a xlink:href="_axi_dma_8hpp.html" target="_top" xlink:title=" ">
<polygon fill="white" stroke="#666666" points="1102.79,-250 986.79,-250 986.79,-231 1102.79,-231 1102.79,-250"/>
<text text-anchor="middle" x="1044.79" y="-238" font-family="Helvetica,sans-Serif" font-size="10.00">udmaio/rdl/AxiDma.hpp</text>
</a>
</g>
</g>
<!-- Node1&#45;&gt;Node31 -->
<g id="edge50" class="edge">
<title>Node1&#45;&gt;Node31</title>
<path fill="none" stroke="#63b8ff" d="M993.31,-285.51C1002.18,-277.93 1015.11,-266.88 1025.78,-257.75"/>
<polygon fill="#63b8ff" stroke="#63b8ff" points="1027.95,-260.5 1033.28,-251.34 1023.41,-255.18 1027.95,-260.5"/>
</g>
<!-- Node5&#45;&gt;Node2 -->
<g id="edge5" class="edge">
<title>Node5&#45;&gt;Node2</title>
<path fill="none" stroke="#63b8ff" d="M942.66,-230.51C962.22,-222.08 991.69,-209.38 1013.96,-199.79"/>
<polygon fill="#63b8ff" stroke="#63b8ff" points="1015.05,-203.13 1022.85,-195.96 1012.28,-196.7 1015.05,-203.13"/>
</g>
<!-- Node5&#45;&gt;Node6 -->
<g id="edge6" class="edge">
<title>Node5&#45;&gt;Node6</title>
<path fill="none" stroke="#63b8ff" d="M899.57,-230.51C878.65,-222.04 847.07,-209.27 823.31,-199.66"/>
<polygon fill="#63b8ff" stroke="#63b8ff" points="824.67,-196.43 814.09,-195.93 822.05,-202.92 824.67,-196.43"/>
</g>
<!-- Node6&#45;&gt;Node4 -->
<g id="edge16" class="edge">
<title>Node6&#45;&gt;Node4</title>
<path fill="none" stroke="#63b8ff" d="M836.21,-181.08C892.8,-175.98 992.02,-164.25 1073.79,-140 1115.85,-127.53 1161.71,-105.32 1189.61,-90.75"/>
<polygon fill="#63b8ff" stroke="#63b8ff" points="1191.19,-93.87 1198.38,-86.1 1187.91,-87.69 1191.19,-93.87"/>
</g>
<!-- Node7 -->
<g id="node7" class="node">
<title>Node7</title>
<g id="a_node7"><a xlink:title=" ">
<polygon fill="#e0e0e0" stroke="#999999" points="966.79,-85 906.79,-85 906.79,-66 966.79,-66 966.79,-85"/>
<text text-anchor="middle" x="936.79" y="-73" font-family="Helvetica,sans-Serif" font-size="10.00">filesystem</text>
</a>
</g>
</g>
<!-- Node6&#45;&gt;Node7 -->
<g id="edge7" class="edge">
<title>Node6&#45;&gt;Node7</title>
<path fill="none" stroke="#63b8ff" d="M802.74,-175.66C827.45,-157.39 884.43,-115.23 915.56,-92.21"/>
<polygon fill="#63b8ff" stroke="#63b8ff" points="917.51,-95.12 923.46,-86.36 913.34,-89.49 917.51,-95.12"/>
</g>
<!-- Node8 -->
<g id="node8" class="node">
<title>Node8</title>
<g id="a_node8"><a xlink:title=" ">
<polygon fill="#e0e0e0" stroke="#999999" points="63.79,-85 13.79,-85 13.79,-66 63.79,-66 63.79,-85"/>
<text text-anchor="middle" x="38.79" y="-73" font-family="Helvetica,sans-Serif" font-size="10.00">fstream</text>
</a>
</g>
</g>
<!-- Node6&#45;&gt;Node8 -->
<g id="edge8" class="edge">
<title>Node6&#45;&gt;Node8</title>
<path fill="none" stroke="#63b8ff" d="M745.46,-182.18C660.8,-177.42 473.11,-164.85 316.79,-140 229.11,-126.06 127.85,-100.49 75.06,-86.42"/>
<polygon fill="#63b8ff" stroke="#63b8ff" points="76.28,-83.12 65.71,-83.91 74.46,-89.89 76.28,-83.12"/>
</g>
<!-- Node9 -->
<g id="node9" class="node">
<title>Node9</title>
<g id="a_node9"><a xlink:title=" ">
<polygon fill="#e0e0e0" stroke="#999999" points="703.79,-24.5 649.79,-24.5 649.79,-5.5 703.79,-5.5 703.79,-24.5"/>
<text text-anchor="middle" x="676.79" y="-12.5" font-family="Helvetica,sans-Serif" font-size="10.00">iostream</text>
</a>
</g>
</g>
<!-- Node6&#45;&gt;Node9 -->
<g id="edge9" class="edge">
<title>Node6&#45;&gt;Node9</title>
<path fill="none" stroke="#63b8ff" d="M831.92,-175.56C899.77,-159.02 1023.19,-120.32 975.79,-66 937.01,-21.55 769.9,-44.79 712.79,-30 711.21,-29.59 709.6,-29.13 707.99,-28.64"/>
<polygon fill="#63b8ff" stroke="#63b8ff" points="709.49,-25.45 698.89,-25.49 707.2,-32.07 709.49,-25.45"/>
</g>
<!-- Node10 -->
<g id="node10" class="node">
<title>Node10</title>
<g id="a_node10"><a xlink:title=" ">
<polygon fill="#e0e0e0" stroke="#999999" points="421.29,-24.5 370.29,-24.5 370.29,-5.5 421.29,-5.5 421.29,-24.5"/>
<text text-anchor="middle" x="395.79" y="-12.5" font-family="Helvetica,sans-Serif" font-size="10.00">memory</text>
</a>
</g>
</g>
<!-- Node6&#45;&gt;Node10 -->
<g id="edge10" class="edge">
<title>Node6&#45;&gt;Node10</title>
<path fill="none" stroke="#63b8ff" d="M745.37,-182.41C584.73,-174.51 50.64,-143.98 4.79,-85 -39.71,-27.75 253.03,-18 358.75,-16.34"/>
<polygon fill="#63b8ff" stroke="#63b8ff" points="358.64,-19.84 368.59,-16.2 358.55,-12.84 358.64,-19.84"/>
</g>
<!-- Node11 -->
<g id="node11" class="node">
<title>Node11</title>
<g id="a_node11"><a xlink:title=" ">
<polygon fill="#e0e0e0" stroke="#999999" points="763.29,-24.5 722.29,-24.5 722.29,-5.5 763.29,-5.5 763.29,-24.5"/>
<text text-anchor="middle" x="742.79" y="-12.5" font-family="Helvetica,sans-Serif" font-size="10.00">string</text>
</a>
</g>
</g>
<!-- Node6&#45;&gt;Node11 -->
<g id="edge11" class="edge">
<title>Node6&#45;&gt;Node11</title>
<path fill="none" stroke="#63b8ff" d="M836.04,-181.82C893.4,-177.36 987.42,-166.18 1008.79,-140 1029.6,-114.52 1030.23,-90.94 1008.79,-66 974.07,-25.6 822.68,-45.76 771.79,-30 770.99,-29.75 770.19,-29.48 769.38,-29.2"/>
<polygon fill="#63b8ff" stroke="#63b8ff" points="770.98,-26.08 760.41,-25.46 768.29,-32.54 770.98,-26.08"/>
</g>
<!-- Node12 -->
<g id="node12" class="node">
<title>Node12</title>
<g id="a_node12"><a xlink:title=" ">
<polygon fill="#e0e0e0" stroke="#999999" points="219.29,-85 82.29,-85 82.29,-66 219.29,-66 219.29,-85"/>
<text text-anchor="middle" x="150.79" y="-73" font-family="Helvetica,sans-Serif" font-size="10.00">boost/core/noncopyable.hpp</text>
</a>
</g>
</g>
<!-- Node6&#45;&gt;Node12 -->
<g id="edge12" class="edge">
<title>Node6&#45;&gt;Node12</title>
<path fill="none" stroke="#63b8ff" d="M745.35,-181.19C672.89,-175.48 526.91,-162.21 404.79,-140 328.87,-126.19 241.94,-102.77 191.99,-88.56"/>
<polygon fill="#63b8ff" stroke="#63b8ff" points="193.04,-85.22 182.47,-85.83 191.12,-91.95 193.04,-85.22"/>
</g>
<!-- Node13 -->
<g id="node13" class="node">
<title>Node13</title>
<g id="a_node13"><a xlink:title=" ">
<polygon fill="#e0e0e0" stroke="#999999" points="280.29,-85 237.29,-85 237.29,-66 280.29,-66 280.29,-85"/>
<text text-anchor="middle" x="258.79" y="-73" font-family="Helvetica,sans-Serif" font-size="10.00">fcntl.h</text>
</a>
</g>
</g>
<!-- Node6&#45;&gt;Node13 -->
<g id="edge13" class="edge">
<title>Node6&#45;&gt;Node13</title>
<path fill="none" stroke="#63b8ff" d="M745.32,-179.84C684.93,-173.22 575.14,-159.67 482.79,-140 413.66,-125.27 334.45,-101.04 291.19,-87.15"/>
<polygon fill="#63b8ff" stroke="#63b8ff" points="292.52,-83.9 281.93,-84.16 290.37,-90.56 292.52,-83.9"/>
</g>
<!-- Node14 -->
<g id="node14" class="node">
<title>Node14</title>
<g id="a_node14"><a xlink:title=" ">
<polygon fill="#e0e0e0" stroke="#999999" points="367.29,-85 298.29,-85 298.29,-66 367.29,-66 367.29,-85"/>
<text text-anchor="middle" x="332.79" y="-73" font-family="Helvetica,sans-Serif" font-size="10.00">sys/mman.h</text>
</a>
</g>
</g>
<!-- Node6&#45;&gt;Node14 -->
<g id="edge14" class="edge">
<title>Node6&#45;&gt;Node14</title>
<path fill="none" stroke="#63b8ff" d="M745.53,-177.31C697.64,-169.39 619.99,-155.69 553.79,-140 489.29,-124.71 415.49,-102.54 371.59,-88.85"/>
<polygon fill="#63b8ff" stroke="#63b8ff" points="372.86,-85.58 362.27,-85.93 370.77,-92.26 372.86,-85.58"/>
</g>
<!-- Node15 -->
<g id="node15" class="node">
<title>Node15</title>
<g id="a_node15"><a xlink:title=" ">
<polygon fill="#e0e0e0" stroke="#999999" points="820.29,-85 761.29,-85 761.29,-66 820.29,-66 820.29,-85"/>
<text text-anchor="middle" x="790.79" y="-73" font-family="Helvetica,sans-Serif" font-size="10.00">sys/stat.h</text>
</a>
</g>
</g>
<!-- Node6&#45;&gt;Node15 -->
<g id="edge15" class="edge">
<title>Node6&#45;&gt;Node15</title>
<path fill="none" stroke="#63b8ff" d="M790.79,-175.66C790.79,-158.57 790.79,-120.61 790.79,-96.92"/>
<polygon fill="#63b8ff" stroke="#63b8ff" points="794.29,-96.97 790.79,-86.97 787.29,-96.97 794.29,-96.97"/>
</g>
<!-- Node16 -->
<g id="node16" class="node">
<title>Node16</title>
<g id="a_node16"><a xlink:title=" ">
<polygon fill="#e0e0e0" stroke="#999999" points="888.79,-85 838.79,-85 838.79,-66 888.79,-66 888.79,-85"/>
<text text-anchor="middle" x="863.79" y="-73" font-family="Helvetica,sans-Serif" font-size="10.00">unistd.h</text>
</a>
</g>
</g>
<!-- Node6&#45;&gt;Node16 -->
<g id="edge17" class="edge">
<title>Node6&#45;&gt;Node16</title>
<path fill="none" stroke="#63b8ff" d="M796.77,-175.66C808.64,-158.1 835.42,-118.48 851.3,-94.98"/>
<polygon fill="#63b8ff" stroke="#63b8ff" points="854.19,-96.96 856.89,-86.71 848.39,-93.04 854.19,-96.96"/>
</g>
<!-- Node17 -->
<g id="node17" class="node">
<title>Node17</title>
<g id="a_node17"><a xlink:href="_hw_accessor_8hpp.html" target="_top" xlink:title=" ">
<polygon fill="white" stroke="#666666" points="731.29,-140 606.29,-140 606.29,-121 731.29,-121 731.29,-140"/>
<text text-anchor="middle" x="668.79" y="-128" font-family="Helvetica,sans-Serif" font-size="10.00">udmaio/HwAccessor.hpp</text>
</a>
</g>
</g>
<!-- Node6&#45;&gt;Node17 -->
<g id="edge18" class="edge">
<title>Node6&#45;&gt;Node17</title>
<path fill="none" stroke="#63b8ff" d="M770.1,-175.51C750.79,-167.12 721.73,-154.5 699.68,-144.92"/>
<polygon fill="#63b8ff" stroke="#63b8ff" points="701.14,-141.74 690.57,-140.96 698.35,-148.16 701.14,-141.74"/>
</g>
<!-- Node20 -->
<g id="node20" class="node">
<title>Node20</title>
<g id="a_node20"><a xlink:href="_logging_8hpp.html" target="_top" xlink:title=" ">
<polygon fill="white" stroke="#666666" points="1164.79,-85 1060.79,-85 1060.79,-66 1164.79,-66 1164.79,-85"/>
<text text-anchor="middle" x="1112.79" y="-73" font-family="Helvetica,sans-Serif" font-size="10.00">udmaio/Logging.hpp</text>
</a>
</g>
</g>
<!-- Node6&#45;&gt;Node20 -->
<g id="edge47" class="edge">
<title>Node6&#45;&gt;Node20</title>
<path fill="none" stroke="#63b8ff" d="M835.84,-184.52C889.01,-182.82 978.79,-174.47 1046.79,-140 1068.43,-129.03 1087.72,-108.58 1099.78,-93.85"/>
<polygon fill="#63b8ff" stroke="#63b8ff" points="1102.25,-96.37 1105.67,-86.34 1096.74,-92.04 1102.25,-96.37"/>
</g>
<!-- Node28 -->
<g id="node28" class="node">
<title>Node28</title>
<g id="a_node28"><a xlink:href="_uio_config_8hpp.html" target="_top" xlink:title=" ">
<polygon fill="white" stroke="#666666" points="535.29,-85 424.29,-85 424.29,-66 535.29,-66 535.29,-85"/>
<text text-anchor="middle" x="479.79" y="-73" font-family="Helvetica,sans-Serif" font-size="10.00">udmaio/UioConfig.hpp</text>
</a>
</g>
</g>
<!-- Node6&#45;&gt;Node28 -->
<g id="edge48" class="edge">
<title>Node6&#45;&gt;Node28</title>
<path fill="none" stroke="#63b8ff" d="M745.48,-177.7C705.5,-170.86 646.09,-158.63 596.79,-140 562.49,-127.03 525.75,-105.74 502.79,-91.43"/>
<polygon fill="#63b8ff" stroke="#63b8ff" points="504.86,-88.6 494.54,-86.21 501.12,-94.51 504.86,-88.6"/>
</g>
<!-- Node17&#45;&gt;Node4 -->
<g id="edge30" class="edge">
<title>Node17&#45;&gt;Node4</title>
<path fill="none" stroke="#63b8ff" d="M731.64,-126.23C825.27,-120.85 1007.08,-108.49 1171.53,-85.16"/>
<polygon fill="#63b8ff" stroke="#63b8ff" points="1171.94,-88.63 1181.34,-83.75 1170.95,-81.71 1171.94,-88.63"/>
</g>
<!-- Node17&#45;&gt;Node7 -->
<g id="edge21" class="edge">
<title>Node17&#45;&gt;Node7</title>
<path fill="none" stroke="#63b8ff" d="M716.66,-120.52C760.68,-112.2 828.04,-99.27 895.72,-85.39"/>
<polygon fill="#63b8ff" stroke="#63b8ff" points="896,-88.91 905.09,-83.46 894.59,-82.05 896,-88.91"/>
</g>
<!-- Node17&#45;&gt;Node8 -->
<g id="edge22" class="edge">
<title>Node17&#45;&gt;Node8</title>
<path fill="none" stroke="#63b8ff" d="M606.18,-128.33C499.17,-125.56 274.19,-116.42 75.2,-85.1"/>
<polygon fill="#63b8ff" stroke="#63b8ff" points="75.87,-81.66 65.44,-83.53 74.76,-88.57 75.87,-81.66"/>
</g>
<!-- Node17&#45;&gt;Node9 -->
<g id="edge23" class="edge">
<title>Node17&#45;&gt;Node9</title>
<path fill="none" stroke="#63b8ff" d="M670.56,-120.68C672.26,-111.73 674.73,-97.47 675.79,-85 677.19,-68.72 677.38,-50.2 677.25,-36.45"/>
<polygon fill="#63b8ff" stroke="#63b8ff" points="680.75,-36.41 677.09,-26.47 673.76,-36.52 680.75,-36.41"/>
</g>
<!-- Node17&#45;&gt;Node10 -->
<g id="edge24" class="edge">
<title>Node17&#45;&gt;Node10</title>
<path fill="none" stroke="#63b8ff" d="M605.99,-126.07C540.04,-121.18 442.17,-109.88 414.79,-85 401.16,-72.6 396.94,-51.4 395.81,-35.77"/>
<polygon fill="#63b8ff" stroke="#63b8ff" points="399.33,-36.08 395.5,-26.21 392.33,-36.32 399.33,-36.08"/>
</g>
<!-- Node17&#45;&gt;Node11 -->
<g id="edge25" class="edge">
<title>Node17&#45;&gt;Node11</title>
<path fill="none" stroke="#63b8ff" d="M674.6,-120.59C686.71,-102.03 714.84,-58.87 730.94,-34.19"/>
<polygon fill="#63b8ff" stroke="#63b8ff" points="733.66,-36.42 736.19,-26.13 727.79,-32.6 733.66,-36.42"/>
</g>
<!-- Node17&#45;&gt;Node12 -->
<g id="edge26" class="edge">
<title>Node17&#45;&gt;Node12</title>
<path fill="none" stroke="#63b8ff" d="M605.97,-123.35C522.67,-115.15 370.76,-100.05 230.97,-85.33"/>
<polygon fill="#63b8ff" stroke="#63b8ff" points="231.46,-81.86 221.14,-84.29 230.72,-88.82 231.46,-81.86"/>
</g>
<!-- Node17&#45;&gt;Node13 -->
<g id="edge27" class="edge">
<title>Node17&#45;&gt;Node13</title>
<path fill="none" stroke="#63b8ff" d="M606.12,-125.24C532.76,-119.57 407.52,-107.76 291.82,-85.33"/>
<polygon fill="#63b8ff" stroke="#63b8ff" points="292.62,-81.92 282.14,-83.42 291.27,-88.79 292.62,-81.92"/>
</g>
<!-- Node17&#45;&gt;Node14 -->
<g id="edge28" class="edge">
<title>Node17&#45;&gt;Node14</title>
<path fill="none" stroke="#63b8ff" d="M608.83,-120.52C550.73,-111.75 460.16,-97.87 381.79,-85 380.79,-84.83 379.77,-84.67 378.74,-84.5"/>
<polygon fill="#63b8ff" stroke="#63b8ff" points="379.52,-81.08 369.07,-82.87 378.35,-87.98 379.52,-81.08"/>
</g>
<!-- Node17&#45;&gt;Node15 -->
<g id="edge29" class="edge">
<title>Node17&#45;&gt;Node15</title>
<path fill="none" stroke="#63b8ff" d="M689.49,-120.51C708.8,-112.12 737.86,-99.5 759.91,-89.92"/>
<polygon fill="#63b8ff" stroke="#63b8ff" points="761.24,-93.16 769.02,-85.96 758.45,-86.74 761.24,-93.16"/>
</g>
<!-- Node17&#45;&gt;Node16 -->
<g id="edge31" class="edge">
<title>Node17&#45;&gt;Node16</title>
<path fill="none" stroke="#63b8ff" d="M701.87,-120.51C736.68,-111.05 791.32,-96.2 827.34,-86.41"/>
<polygon fill="#63b8ff" stroke="#63b8ff" points="828.15,-89.82 836.88,-83.82 826.31,-83.06 828.15,-89.82"/>
</g>
<!-- Node18 -->
<g id="node18" class="node">
<title>Node18</title>
<g id="a_node18"><a xlink:title=" ">
<polygon fill="#e0e0e0" stroke="#999999" points="602.29,-85 553.29,-85 553.29,-66 602.29,-66 602.29,-85"/>
<text text-anchor="middle" x="577.79" y="-73" font-family="Helvetica,sans-Serif" font-size="10.00">cstddef</text>
</a>
</g>
</g>
<!-- Node17&#45;&gt;Node18 -->
<g id="edge19" class="edge">
<title>Node17&#45;&gt;Node18</title>
<path fill="none" stroke="#63b8ff" d="M653.36,-120.51C639.55,-112.47 619.05,-100.53 602.89,-91.11"/>
<polygon fill="#63b8ff" stroke="#63b8ff" points="604.71,-88.13 594.31,-86.12 601.19,-94.18 604.71,-88.13"/>
</g>
<!-- Node19 -->
<g id="node19" class="node">
<title>Node19</title>
<g id="a_node19"><a xlink:title=" ">
<polygon fill="#e0e0e0" stroke="#999999" points="666.79,-85 620.79,-85 620.79,-66 666.79,-66 666.79,-85"/>
<text text-anchor="middle" x="643.79" y="-73" font-family="Helvetica,sans-Serif" font-size="10.00">cstring</text>
</a>
</g>
</g>
<!-- Node17&#45;&gt;Node19 -->
<g id="edge20" class="edge">
<title>Node17&#45;&gt;Node19</title>
<path fill="none" stroke="#63b8ff" d="M664.67,-120.75C661.46,-113.96 656.91,-104.3 652.87,-95.73"/>
<polygon fill="#63b8ff" stroke="#63b8ff" points="656.09,-94.36 648.66,-86.81 649.76,-97.35 656.09,-94.36"/>
</g>
<!-- Node17&#45;&gt;Node20 -->
<g id="edge32" class="edge">
<title>Node17&#45;&gt;Node20</title>
<path fill="none" stroke="#63b8ff" d="M731.47,-122.02C815.68,-111.97 964.55,-94.2 1049.22,-84.09"/>
<polygon fill="#63b8ff" stroke="#63b8ff" points="1049.46,-87.58 1058.98,-82.92 1048.63,-80.63 1049.46,-87.58"/>
</g>
<!-- Node17&#45;&gt;Node28 -->
<g id="edge41" class="edge">
<title>Node17&#45;&gt;Node28</title>
<path fill="none" stroke="#63b8ff" d="M636.73,-120.51C605.28,-111.69 557.12,-98.18 522.44,-88.46"/>
<polygon fill="#63b8ff" stroke="#63b8ff" points="523.73,-85.19 513.15,-85.85 521.84,-91.93 523.73,-85.19"/>
</g>
<!-- Node20&#45;&gt;Node11 -->
<g id="edge33" class="edge">
<title>Node20&#45;&gt;Node11</title>
<path fill="none" stroke="#63b8ff" d="M1060.58,-67.74C965.46,-55.42 773.52,-30.51 771.79,-30 770.99,-29.76 770.18,-29.5 769.37,-29.22"/>
<polygon fill="#63b8ff" stroke="#63b8ff" points="770.97,-26.1 760.39,-25.52 768.3,-32.57 770.97,-26.1"/>
</g>
<!-- Node21 -->
<g id="node21" class="node">
<title>Node21</title>
<g id="a_node21"><a xlink:title=" ">
<polygon fill="#e0e0e0" stroke="#999999" points="1689.79,-24.5 1593.79,-24.5 1593.79,-5.5 1689.79,-5.5 1689.79,-24.5"/>
<text text-anchor="middle" x="1641.79" y="-12.5" font-family="Helvetica,sans-Serif" font-size="10.00">boost/log/core.hpp</text>
</a>
</g>
</g>
<!-- Node20&#45;&gt;Node21 -->
<g id="edge34" class="edge">
<title>Node20&#45;&gt;Node21</title>
<path fill="none" stroke="#63b8ff" d="M1165.2,-67.13C1168.45,-66.73 1171.66,-66.35 1174.79,-66 1356.57,-45.57 1404.33,-59.9 1584.79,-30 1589.14,-29.28 1593.64,-28.4 1598.12,-27.45"/>
<polygon fill="#63b8ff" stroke="#63b8ff" points="1598.67,-30.91 1607.64,-25.27 1597.11,-24.09 1598.67,-30.91"/>
</g>
<!-- Node22 -->
<g id="node22" class="node">
<title>Node22</title>
<g id="a_node22"><a xlink:title=" ">
<polygon fill="#e0e0e0" stroke="#999999" points="910.29,-24.5 781.29,-24.5 781.29,-5.5 910.29,-5.5 910.29,-24.5"/>
<text text-anchor="middle" x="845.79" y="-12.5" font-family="Helvetica,sans-Serif" font-size="10.00">boost/log/expressions.hpp</text>
</a>
</g>
</g>
<!-- Node20&#45;&gt;Node22 -->
<g id="edge35" class="edge">
<title>Node20&#45;&gt;Node22</title>
<path fill="none" stroke="#63b8ff" d="M1071.95,-65.55C1025.23,-55.32 948.64,-38.53 897.72,-27.38"/>
<polygon fill="#63b8ff" stroke="#63b8ff" points="898.63,-23.99 888.11,-25.27 897.13,-30.83 898.63,-23.99"/>
</g>
<!-- Node23 -->
<g id="node23" class="node">
<title>Node23</title>
<g id="a_node23"><a xlink:title=" ">
<polygon fill="#e0e0e0" stroke="#999999" points="1029.29,-24.5 928.29,-24.5 928.29,-5.5 1029.29,-5.5 1029.29,-24.5"/>
<text text-anchor="middle" x="978.79" y="-12.5" font-family="Helvetica,sans-Serif" font-size="10.00">boost/log/trivial.hpp</text>
</a>
</g>
</g>
<!-- Node20&#45;&gt;Node23 -->
<g id="edge36" class="edge">
<title>Node20&#45;&gt;Node23</title>
<path fill="none" stroke="#63b8ff" d="M1092.44,-65.62C1070.41,-55.99 1035,-40.54 1009.56,-29.43"/>
<polygon fill="#63b8ff" stroke="#63b8ff" points="1011.29,-26.37 1000.72,-25.57 1008.49,-32.78 1011.29,-26.37"/>
</g>
<!-- Node24 -->
<g id="node24" class="node">
<title>Node24</title>
<g id="a_node24"><a xlink:title=" ">
<polygon fill="#e0e0e0" stroke="#999999" points="1156.29,-30 1047.29,-30 1047.29,0 1156.29,0 1156.29,-30"/>
<text text-anchor="start" x="1055.29" y="-18" font-family="Helvetica,sans-Serif" font-size="10.00">boost/log/utility/setup</text>
<text text-anchor="middle" x="1101.79" y="-7" font-family="Helvetica,sans-Serif" font-size="10.00">/console.hpp</text>
</a>
</g>
</g>
<!-- Node20&#45;&gt;Node24 -->
<g id="edge37" class="edge">
<title>Node20&#45;&gt;Node24</title>
<path fill="none" stroke="#63b8ff" d="M1111.17,-65.87C1109.94,-59.33 1108.19,-49.99 1106.52,-41.15"/>
<polygon fill="#63b8ff" stroke="#63b8ff" points="1110.02,-40.78 1104.73,-31.6 1103.14,-42.08 1110.02,-40.78"/>
</g>
<!-- Node25 -->
<g id="node25" class="node">
<title>Node25</title>
<g id="a_node25"><a xlink:title=" ">
<polygon fill="#e0e0e0" stroke="#999999" points="1305.29,-30 1174.29,-30 1174.29,0 1305.29,0 1305.29,-30"/>
<text text-anchor="start" x="1182.29" y="-18" font-family="Helvetica,sans-Serif" font-size="10.00">boost/log/sources/severity</text>
<text text-anchor="middle" x="1239.79" y="-7" font-family="Helvetica,sans-Serif" font-size="10.00">_channel_logger.hpp</text>
</a>
</g>
</g>
<!-- Node20&#45;&gt;Node25 -->
<g id="edge38" class="edge">
<title>Node20&#45;&gt;Node25</title>
<path fill="none" stroke="#63b8ff" d="M1132.08,-65.62C1149.57,-57.56 1175.95,-45.41 1198.23,-35.15"/>
<polygon fill="#63b8ff" stroke="#63b8ff" points="1199.45,-38.44 1207.07,-31.07 1196.53,-32.08 1199.45,-38.44"/>
</g>
<!-- Node26 -->
<g id="node26" class="node">
<title>Node26</title>
<g id="a_node26"><a xlink:title=" ">
<polygon fill="#e0e0e0" stroke="#999999" points="1436.29,-30 1323.29,-30 1323.29,0 1436.29,0 1436.29,-30"/>
<text text-anchor="start" x="1331.29" y="-18" font-family="Helvetica,sans-Serif" font-size="10.00">boost/log/support/date</text>
<text text-anchor="middle" x="1379.79" y="-7" font-family="Helvetica,sans-Serif" font-size="10.00">_time.hpp</text>
</a>
</g>
</g>
<!-- Node20&#45;&gt;Node26 -->
<g id="edge39" class="edge">
<title>Node20&#45;&gt;Node26</title>
<path fill="none" stroke="#63b8ff" d="M1153.64,-65.55C1195.74,-56.33 1262.1,-41.79 1312.07,-30.84"/>
<polygon fill="#63b8ff" stroke="#63b8ff" points="1312.61,-34.3 1321.63,-28.74 1311.11,-27.46 1312.61,-34.3"/>
</g>
<!-- Node27 -->
<g id="node27" class="node">
<title>Node27</title>
<g id="a_node27"><a xlink:title=" ">
<polygon fill="#e0e0e0" stroke="#999999" points="1575.29,-30 1454.29,-30 1454.29,0 1575.29,0 1575.29,-30"/>
<text text-anchor="start" x="1462.29" y="-18" font-family="Helvetica,sans-Serif" font-size="10.00">boost/log/utility/setup</text>
<text text-anchor="middle" x="1514.79" y="-7" font-family="Helvetica,sans-Serif" font-size="10.00">/common_attributes.hpp</text>
</a>
</g>
</g>
<!-- Node20&#45;&gt;Node27 -->
<g id="edge40" class="edge">
<title>Node20&#45;&gt;Node27</title>
<path fill="none" stroke="#63b8ff" d="M1165.22,-67.3C1168.46,-66.86 1171.67,-66.42 1174.79,-66 1291.56,-50.24 1324.02,-50.09 1442.53,-30.49"/>
<polygon fill="#63b8ff" stroke="#63b8ff" points="1443.1,-33.94 1452.39,-28.84 1441.95,-27.03 1443.1,-33.94"/>
</g>
<!-- Node28&#45;&gt;Node9 -->
<g id="edge42" class="edge">
<title>Node28&#45;&gt;Node9</title>
<path fill="none" stroke="#63b8ff" d="M509.71,-65.62C544.15,-55.39 600.78,-38.57 638.43,-27.39"/>
<polygon fill="#63b8ff" stroke="#63b8ff" points="639.42,-30.75 648,-24.55 637.42,-24.04 639.42,-30.75"/>
</g>
<!-- Node28&#45;&gt;Node10 -->
<g id="edge43" class="edge">
<title>Node28&#45;&gt;Node10</title>
<path fill="none" stroke="#63b8ff" d="M467.04,-65.62C453.96,-56.51 433.38,-42.18 417.7,-31.25"/>
<polygon fill="#63b8ff" stroke="#63b8ff" points="420.12,-28.68 409.91,-25.83 416.12,-34.42 420.12,-28.68"/>
</g>
<!-- Node28&#45;&gt;Node11 -->
<g id="edge45" class="edge">
<title>Node28&#45;&gt;Node11</title>
<path fill="none" stroke="#63b8ff" d="M535.46,-65.5C593.55,-55.82 680.56,-40.42 712.79,-30 713.59,-29.74 714.4,-29.47 715.21,-29.18"/>
<polygon fill="#63b8ff" stroke="#63b8ff" points="716.32,-32.51 724.24,-25.47 713.66,-26.03 716.32,-32.51"/>
</g>
<!-- Node29 -->
<g id="node29" class="node">
<title>Node29</title>
<g id="a_node29"><a xlink:title=" ">
<polygon fill="#e0e0e0" stroke="#999999" points="587.29,-24.5 528.29,-24.5 528.29,-5.5 587.29,-5.5 587.29,-24.5"/>
<text text-anchor="middle" x="557.79" y="-12.5" font-family="Helvetica,sans-Serif" font-size="10.00">stdexcept</text>
</a>
</g>
</g>
<!-- Node28&#45;&gt;Node29 -->
<g id="edge44" class="edge">
<title>Node28&#45;&gt;Node29</title>
<path fill="none" stroke="#63b8ff" d="M491.64,-65.62C503.55,-56.68 522.17,-42.72 536.63,-31.87"/>
<polygon fill="#63b8ff" stroke="#63b8ff" points="538.73,-34.68 544.63,-25.88 534.53,-29.08 538.73,-34.68"/>
</g>
<!-- Node30 -->
<g id="node30" class="node">
<title>Node30</title>
<g id="a_node30"><a xlink:title=" ">
<polygon fill="#e0e0e0" stroke="#999999" points="509.79,-24.5 443.79,-24.5 443.79,-5.5 509.79,-5.5 509.79,-24.5"/>
<text text-anchor="middle" x="476.79" y="-12.5" font-family="Helvetica,sans-Serif" font-size="10.00">string_view</text>
</a>
</g>
</g>
<!-- Node28&#45;&gt;Node30 -->
<g id="edge46" class="edge">
<title>Node28&#45;&gt;Node30</title>
<path fill="none" stroke="#63b8ff" d="M479.35,-65.87C478.95,-58 478.34,-46.1 477.81,-35.89"/>
<polygon fill="#63b8ff" stroke="#63b8ff" points="481.32,-35.99 477.32,-26.18 474.33,-36.35 481.32,-35.99"/>
</g>
<!-- Node31&#45;&gt;Node2 -->
<g id="edge51" class="edge">
<title>Node31&#45;&gt;Node2</title>
<path fill="none" stroke="#63b8ff" d="M1044.79,-230.75C1044.79,-224.27 1044.79,-215.16 1044.79,-206.9"/>
<polygon fill="#63b8ff" stroke="#63b8ff" points="1048.29,-206.96 1044.79,-196.96 1041.29,-206.96 1048.29,-206.96"/>
</g>
</g>
</svg>
        <g id="navigator" transform="translate(0 0)" fill="#404254">
                <rect fill="#f2f5e9" fill-opacity="0.5" stroke="#606060" stroke-width=".5" x="0" y="0" width="60" height="60"/>
                <use id="zoomplus" xlink:href="#zoomPlus" x="17" y="9" onmousedown="handleZoom(evt,'in')"/>
                <use id="zoomminus" xlink:href="#zoomMin" x="42" y="9" onmousedown="handleZoom(evt,'out')"/>
                <use id="reset" xlink:href="#resetDef" x="30" y="36" onmousedown="handleReset()"/>
                <g id="arrowUp" xlink:href="#dirArrow" transform="translate(30 24)" onmousedown="handlePan(0,-1)">
                  <use xlink:href="#rim" fill="#404040">
                        <set attributeName="fill" to="#808080" begin="arrowUp.mouseover" end="arrowUp.mouseout"/>
                  </use>
                  <path fill="none" stroke="white" stroke-width="1.5" d="M0,-3.0v7 M-2.5,-0.5L0,-3.0L2.5,-0.5"/>
                </g>
                <g id="arrowRight" xlink:href="#dirArrow" transform="rotate(90) translate(36 -43)" onmousedown="handlePan(1,0)">
                  <use xlink:href="#rim" fill="#404040">
                        <set attributeName="fill" to="#808080" begin="arrowRight.mouseover" end="arrowRight.mouseout"/>
                  </use>
                  <path fill="none" stroke="white" stroke-width="1.5" d="M0,-3.0v7 M-2.5,-0.5L0,-3.0L2.5,-0.5"/>
                </g>
                <g id="arrowDown" xlink:href="#dirArrow" transform="rotate(180) translate(-30 -48)" onmousedown="handlePan(0,1)">
                  <use xlink:href="#rim" fill="#404040">
                        <set attributeName="fill" to="#808080" begin="arrowDown.mouseover" end="arrowDown.mouseout"/>
                  </use>
                  <path fill="none" stroke="white" stroke-width="1.5" d="M0,-3.0v7 M-2.5,-0.5L0,-3.0L2.5,-0.5"/>
                </g>
                <g id="arrowLeft" xlink:href="#dirArrow" transform="rotate(270) translate(-36 17)" onmousedown="handlePan(-1,0)">
                  <use xlink:href="#rim" fill="#404040">
                        <set attributeName="fill" to="#808080" begin="arrowLeft.mouseover" end="arrowLeft.mouseout"/>
                  </use>
                  <path fill="none" stroke="white" stroke-width="1.5" d="M0,-3.0v7 M-2.5,-0.5L0,-3.0L2.5,-0.5"/>
                </g>
        </g>
        <svg viewBox="0 0 15 15" width="100%" height="30px" preserveAspectRatio="xMaxYMin meet">
         <g id="arrow_out" transform="scale(0.3 0.3)">
          <a xlink:href="_uio_axi_dma_if_8hpp__incl_org.svg" target="_base">
           <rect id="button" ry="5" rx="5" y="6" x="6" height="38" width="38"
                fill="#f2f5e9" fill-opacity="0.5" stroke="#606060" stroke-width="1.0"/>
           <path id="arrow"
             d="M 11.500037,31.436501 C 11.940474,20.09759 22.043105,11.32322 32.158766,21.979434 L 37.068811,17.246167 C 37.068811,17.246167 37.088388,32 37.088388,32 L 22.160133,31.978069 C 22.160133,31.978069 26.997745,27.140456 26.997745,27.140456 C 18.528582,18.264221 13.291696,25.230495 11.500037,31.436501 z"
             style="fill:#404040;"/>
          </a>
         </g>
        </svg>
</svg>
