<?xml version="1.0" encoding="UTF-8" standalone="no"?>
<!DOCTYPE svg PUBLIC "-//W3C//DTD SVG 1.1//EN"
 "http://www.w3.org/Graphics/SVG/1.1/DTD/svg11.dtd">
<!-- Generated by graphviz version 7.0.5 (20221223.1930)
 -->
<!-- Title: UioIf.hpp Pages: 1 -->
<svg width="503pt" height="302pt"
 viewBox="0.00 0.00 503.00 302.00" xmlns="http://www.w3.org/2000/svg" xmlns:xlink="http://www.w3.org/1999/xlink">
<g id="graph0" class="graph" transform="scale(1 1) rotate(0) translate(4 298)">
<title>UioIf.hpp</title>
<!-- Node1 -->
<g id="node1" class="node">
<title>Node1</title>
<g id="a_node1"><a xlink:title=" ">
<polygon fill="#999999" stroke="#666666" points="306,-294 250,-294 250,-275 306,-275 306,-294"/>
<text text-anchor="middle" x="278" y="-282" font-family="Helvetica,sans-Serif" font-size="10.00">UioIf.hpp</text>
</a>
</g>
</g>
<!-- Node2 -->
<g id="node2" class="node">
<title>Node2</title>
<g id="a_node2"><a xlink:href="_fpga_mem_buffer_over_axi_8hpp.html" target="_top" xlink:title=" ">
<polygon fill="white" stroke="#666666" points="138,-239 0,-239 0,-220 138,-220 138,-239"/>
<text text-anchor="middle" x="69" y="-227" font-family="Helvetica,sans-Serif" font-size="10.00">FpgaMemBufferOverAxi.hpp</text>
</a>
</g>
</g>
<!-- Node1&#45;&gt;Node2 -->
<g id="edge1" class="edge">
<title>Node1&#45;&gt;Node2</title>
<path fill="none" stroke="#63b8ff" d="M239,-273.61C200.37,-263.81 141.73,-248.94 104.41,-239.48"/>
<polygon fill="#63b8ff" stroke="#63b8ff" points="237.79,-276.91 248.35,-275.98 239.51,-270.13 237.79,-276.91"/>
</g>
<!-- Node3 -->
<g id="node3" class="node">
<title>Node3</title>
<g id="a_node3"><a xlink:href="_reg_accessor_8hpp.html" target="_top" xlink:title=" ">
<polygon fill="white" stroke="#666666" points="249.5,-239 156.5,-239 156.5,-220 249.5,-220 249.5,-239"/>
<text text-anchor="middle" x="203" y="-227" font-family="Helvetica,sans-Serif" font-size="10.00">RegAccessor.hpp</text>
</a>
</g>
</g>
<!-- Node1&#45;&gt;Node3 -->
<g id="edge2" class="edge">
<title>Node1&#45;&gt;Node3</title>
<path fill="none" stroke="#63b8ff" d="M255.95,-267.92C242.78,-258.61 226.53,-247.13 215.53,-239.36"/>
<polygon fill="#63b8ff" stroke="#63b8ff" points="253.85,-270.72 264.04,-273.64 257.89,-265.01 253.85,-270.72"/>
</g>
<!-- Node4 -->
<g id="node4" class="node">
<title>Node4</title>
<g id="a_node4"><a xlink:href="_uio_axi_dma_if_8hpp.html" target="_top" xlink:title=" ">
<polygon fill="white" stroke="#666666" points="309.5,-184 220.5,-184 220.5,-165 309.5,-165 309.5,-184"/>
<text text-anchor="middle" x="265" y="-172" font-family="Helvetica,sans-Serif" font-size="10.00">UioAxiDmaIf.hpp</text>
</a>
</g>
</g>
<!-- Node1&#45;&gt;Node4 -->
<g id="edge9" class="edge">
<title>Node1&#45;&gt;Node4</title>
<path fill="none" stroke="#63b8ff" d="M275.56,-263.24C272.72,-239.63 268.15,-201.65 266.08,-184.46"/>
<polygon fill="#63b8ff" stroke="#63b8ff" points="272.09,-263.65 276.76,-273.16 279.04,-262.81 272.09,-263.65"/>
</g>
<!-- Node10 -->
<g id="node10" class="node">
<title>Node10</title>
<g id="a_node10"><a xlink:href="_uio_if_8cpp.html" target="_top" xlink:title=" ">
<polygon fill="white" stroke="#666666" points="362,-239 306,-239 306,-220 362,-220 362,-239"/>
<text text-anchor="middle" x="334" y="-227" font-family="Helvetica,sans-Serif" font-size="10.00">UioIf.cpp</text>
</a>
</g>
</g>
<!-- Node1&#45;&gt;Node10 -->
<g id="edge10" class="edge">
<title>Node1&#45;&gt;Node10</title>
<path fill="none" stroke="#63b8ff" d="M295.63,-266.81C305.24,-257.72 316.75,-246.82 324.64,-239.36"/>
<polygon fill="#63b8ff" stroke="#63b8ff" points="293.46,-264.05 288.6,-273.47 298.27,-269.14 293.46,-264.05"/>
</g>
<!-- Node11 -->
<g id="node11" class="node">
<title>Node11</title>
<g id="a_node11"><a xlink:href="_uio_mem_sgdma_8hpp.html" target="_top" xlink:title=" ">
<polygon fill="white" stroke="#666666" points="482,-239 380,-239 380,-220 482,-220 482,-239"/>
<text text-anchor="middle" x="431" y="-227" font-family="Helvetica,sans-Serif" font-size="10.00">UioMemSgdma.hpp</text>
</a>
</g>
</g>
<!-- Node1&#45;&gt;Node11 -->
<g id="edge11" class="edge">
<title>Node1&#45;&gt;Node11</title>
<path fill="none" stroke="#63b8ff" d="M314.51,-270.85C342.45,-261.17 380.31,-248.06 405.17,-239.45"/>
<polygon fill="#63b8ff" stroke="#63b8ff" points="313.69,-267.43 305.38,-274.01 315.98,-274.05 313.69,-267.43"/>
</g>
<!-- Node3&#45;&gt;Node4 -->
<g id="edge3" class="edge">
<title>Node3&#45;&gt;Node4</title>
<path fill="none" stroke="#63b8ff" d="M222.2,-212.09C232.9,-202.94 245.81,-191.9 254.64,-184.36"/>
<polygon fill="#63b8ff" stroke="#63b8ff" points="219.99,-209.37 214.67,-218.53 224.54,-214.69 219.99,-209.37"/>
</g>
<!-- Node5 -->
<g id="node5" class="node">
<title>Node5</title>
<g id="a_node5"><a xlink:href="_data_handler_abstract_8hpp.html" target="_top" xlink:title=" ">
<polygon fill="white" stroke="#666666" points="427.5,-129 302.5,-129 302.5,-110 427.5,-110 427.5,-129"/>
<text text-anchor="middle" x="365" y="-117" font-family="Helvetica,sans-Serif" font-size="10.00">DataHandlerAbstract.hpp</text>
</a>
</g>
</g>
<!-- Node4&#45;&gt;Node5 -->
<g id="edge4" class="edge">
<title>Node4&#45;&gt;Node5</title>
<path fill="none" stroke="#63b8ff" d="M292.11,-159.13C310.04,-149.63 332.98,-137.47 348.29,-129.36"/>
<polygon fill="#63b8ff" stroke="#63b8ff" points="290.5,-156.02 283.3,-163.8 293.78,-162.21 290.5,-156.02"/>
</g>
<!-- Node9 -->
<g id="node9" class="node">
<title>Node9</title>
<g id="a_node9"><a xlink:href="_uio_axi_dma_if_8cpp.html" target="_top" xlink:title=" ">
<polygon fill="white" stroke="#666666" points="284.5,-129 195.5,-129 195.5,-110 284.5,-110 284.5,-129"/>
<text text-anchor="middle" x="240" y="-117" font-family="Helvetica,sans-Serif" font-size="10.00">UioAxiDmaIf.cpp</text>
</a>
</g>
</g>
<!-- Node4&#45;&gt;Node9 -->
<g id="edge8" class="edge">
<title>Node4&#45;&gt;Node9</title>
<path fill="none" stroke="#63b8ff" d="M256.04,-154.5C252.01,-145.96 247.44,-136.28 244.22,-129.44"/>
<polygon fill="#63b8ff" stroke="#63b8ff" points="252.79,-155.83 260.23,-163.38 259.13,-152.84 252.79,-155.83"/>
</g>
<!-- Node6 -->
<g id="node6" class="node">
<title>Node6</title>
<g id="a_node6"><a xlink:href="_data_handler_abstract_8cpp.html" target="_top" xlink:title=" ">
<polygon fill="white" stroke="#666666" points="359.5,-74 234.5,-74 234.5,-55 359.5,-55 359.5,-74"/>
<text text-anchor="middle" x="297" y="-62" font-family="Helvetica,sans-Serif" font-size="10.00">DataHandlerAbstract.cpp</text>
</a>
</g>
</g>
<!-- Node5&#45;&gt;Node6 -->
<g id="edge5" class="edge">
<title>Node5&#45;&gt;Node6</title>
<path fill="none" stroke="#63b8ff" d="M344.65,-102.64C332.78,-93.39 318.24,-82.05 308.36,-74.36"/>
<polygon fill="#63b8ff" stroke="#63b8ff" points="342.23,-105.19 352.27,-108.58 346.54,-99.67 342.23,-105.19"/>
</g>
<!-- Node7 -->
<g id="node7" class="node">
<title>Node7</title>
<g id="a_node7"><a xlink:href="_data_handler_sync_8hpp.html" target="_top" xlink:title=" ">
<polygon fill="white" stroke="#666666" points="488,-74 378,-74 378,-55 488,-55 488,-74"/>
<text text-anchor="middle" x="433" y="-62" font-family="Helvetica,sans-Serif" font-size="10.00">DataHandlerSync.hpp</text>
</a>
</g>
</g>
<!-- Node5&#45;&gt;Node7 -->
<g id="edge6" class="edge">
<title>Node5&#45;&gt;Node7</title>
<path fill="none" stroke="#63b8ff" d="M385.35,-102.64C397.22,-93.39 411.76,-82.05 421.64,-74.36"/>
<polygon fill="#63b8ff" stroke="#63b8ff" points="383.46,-99.67 377.73,-108.58 387.77,-105.19 383.46,-99.67"/>
</g>
<!-- Node8 -->
<g id="node8" class="node">
<title>Node8</title>
<g id="a_node8"><a xlink:href="_data_handler_sync_8cpp.html" target="_top" xlink:title=" ">
<polygon fill="white" stroke="#666666" points="488,-19 378,-19 378,0 488,0 488,-19"/>
<text text-anchor="middle" x="433" y="-7" font-family="Helvetica,sans-Serif" font-size="10.00">DataHandlerSync.cpp</text>
</a>
</g>
</g>
<!-- Node7&#45;&gt;Node8 -->
<g id="edge7" class="edge">
<title>Node7&#45;&gt;Node8</title>
<path fill="none" stroke="#63b8ff" d="M433,-43.35C433,-35.1 433,-25.97 433,-19.44"/>
<polygon fill="#63b8ff" stroke="#63b8ff" points="429.5,-43.23 433,-53.23 436.5,-43.23 429.5,-43.23"/>
</g>
<!-- Node11&#45;&gt;Node5 -->
<g id="edge12" class="edge">
<title>Node11&#45;&gt;Node5</title>
<path fill="none" stroke="#63b8ff" d="M409.57,-212.44C400.56,-204.72 390.64,-194.8 384,-184 373.14,-166.36 368.16,-142.13 366.16,-129.3"/>
<polygon fill="#63b8ff" stroke="#63b8ff" points="407.31,-215.11 417.29,-218.68 411.72,-209.67 407.31,-215.11"/>
</g>
<!-- Node12 -->
<g id="node12" class="node">
<title>Node12</title>
<g id="a_node12"><a xlink:href="_uio_mem_sgdma_8cpp.html" target="_top" xlink:title=" ">
<polygon fill="white" stroke="#666666" points="495,-184 393,-184 393,-165 495,-165 495,-184"/>
<text text-anchor="middle" x="444" y="-172" font-family="Helvetica,sans-Serif" font-size="10.00">UioMemSgdma.cpp</text>
</a>
</g>
</g>
<!-- Node11&#45;&gt;Node12 -->
<g id="edge13" class="edge">
<title>Node11&#45;&gt;Node12</title>
<path fill="none" stroke="#63b8ff" d="M435.87,-208.64C437.91,-200.31 440.19,-191.05 441.81,-184.44"/>
<polygon fill="#63b8ff" stroke="#63b8ff" points="432.49,-207.73 433.51,-218.28 439.29,-209.4 432.49,-207.73"/>
</g>
</g>
</svg>
