<?xml version="1.0" encoding="UTF-8" standalone="no"?>
<!DOCTYPE svg PUBLIC "-//W3C//DTD SVG 1.1//EN"
 "http://www.w3.org/Graphics/SVG/1.1/DTD/svg11.dtd">
<!-- Generated by graphviz version 7.0.5 (20221223.1930)
 -->
<!-- Title: UioConfig.hpp Pages: 1 -->
<svg width="880pt" height="412pt"
 viewBox="0.00 0.00 880.00 412.00" xmlns="http://www.w3.org/2000/svg" xmlns:xlink="http://www.w3.org/1999/xlink">
<g id="graph0" class="graph" transform="scale(1 1) rotate(0) translate(4 408)">
<title>UioConfig.hpp</title>
<!-- Node1 -->
<g id="node1" class="node">
<title>Node1</title>
<g id="a_node1"><a xlink:title=" ">
<polygon fill="#999999" stroke="#666666" points="659,-404 582,-404 582,-385 659,-385 659,-404"/>
<text text-anchor="middle" x="620.5" y="-392" font-family="Helvetica,sans-Serif" font-size="10.00">UioConfig.hpp</text>
</a>
</g>
</g>
<!-- Node2 -->
<g id="node2" class="node">
<title>Node2</title>
<g id="a_node2"><a xlink:href="_dma_buffer_abstract_8hpp.html" target="_top" xlink:title=" ">
<polygon fill="white" stroke="#666666" points="415,-294 298,-294 298,-275 415,-275 415,-294"/>
<text text-anchor="middle" x="356.5" y="-282" font-family="Helvetica,sans-Serif" font-size="10.00">DmaBufferAbstract.hpp</text>
</a>
</g>
</g>
<!-- Node1&#45;&gt;Node2 -->
<g id="edge1" class="edge">
<title>Node1&#45;&gt;Node2</title>
<path fill="none" stroke="#63b8ff" d="M588.47,-380.4C534.06,-358.14 424.99,-313.52 378.4,-294.46"/>
<polygon fill="#63b8ff" stroke="#63b8ff" points="586.91,-383.54 597.49,-384.09 589.56,-377.06 586.91,-383.54"/>
</g>
<!-- Node6 -->
<g id="node6" class="node">
<title>Node6</title>
<g id="a_node6"><a xlink:href="_u_dma_buf_8hpp.html" target="_top" xlink:title=" ">
<polygon fill="white" stroke="#666666" points="77,-239 0,-239 0,-220 77,-220 77,-239"/>
<text text-anchor="middle" x="38.5" y="-227" font-family="Helvetica,sans-Serif" font-size="10.00">UDmaBuf.hpp</text>
</a>
</g>
</g>
<!-- Node1&#45;&gt;Node6 -->
<g id="edge29" class="edge">
<title>Node1&#45;&gt;Node6</title>
<path fill="none" stroke="#63b8ff" d="M577.56,-381.47C465.98,-350.22 168.76,-266.98 70.52,-239.47"/>
<polygon fill="#63b8ff" stroke="#63b8ff" points="576.35,-384.77 586.92,-384.1 578.24,-378.03 576.35,-384.77"/>
</g>
<!-- Node14 -->
<g id="node14" class="node">
<title>Node14</title>
<g id="a_node14"><a xlink:href="_hw_accessor_8hpp.html" target="_top" xlink:title=" ">
<polygon fill="white" stroke="#666666" points="749,-349 658,-349 658,-330 749,-330 749,-349"/>
<text text-anchor="middle" x="703.5" y="-337" font-family="Helvetica,sans-Serif" font-size="10.00">HwAccessor.hpp</text>
</a>
</g>
</g>
<!-- Node1&#45;&gt;Node14 -->
<g id="edge14" class="edge">
<title>Node1&#45;&gt;Node14</title>
<path fill="none" stroke="#63b8ff" d="M644.05,-378.46C658.77,-369.06 677.22,-357.28 689.63,-349.36"/>
<polygon fill="#63b8ff" stroke="#63b8ff" points="642.4,-375.36 635.86,-383.69 646.17,-381.26 642.4,-375.36"/>
</g>
<!-- Node16 -->
<g id="node16" class="node">
<title>Node16</title>
<g id="a_node16"><a xlink:href="_uio_config_8cpp.html" target="_top" xlink:title=" ">
<polygon fill="white" stroke="#666666" points="853,-294 776,-294 776,-275 853,-275 853,-294"/>
<text text-anchor="middle" x="814.5" y="-282" font-family="Helvetica,sans-Serif" font-size="10.00">UioConfig.cpp</text>
</a>
</g>
</g>
<!-- Node1&#45;&gt;Node16 -->
<g id="edge30" class="edge">
<title>Node1&#45;&gt;Node16</title>
<path fill="none" stroke="#63b8ff" d="M670.22,-384.27C697.82,-377.53 731.85,-366.46 758.5,-349 781.12,-334.18 800.16,-307.86 809.07,-294.23"/>
<polygon fill="#63b8ff" stroke="#63b8ff" points="669.65,-380.81 660.69,-386.47 671.22,-387.63 669.65,-380.81"/>
</g>
<!-- Node17 -->
<g id="node17" class="node">
<title>Node17</title>
<g id="a_node17"><a xlink:href="_uio_if_8hpp.html" target="_top" xlink:title=" ">
<polygon fill="white" stroke="#666666" points="648.5,-294 592.5,-294 592.5,-275 648.5,-275 648.5,-294"/>
<text text-anchor="middle" x="620.5" y="-282" font-family="Helvetica,sans-Serif" font-size="10.00">UioIf.hpp</text>
</a>
</g>
</g>
<!-- Node1&#45;&gt;Node17 -->
<g id="edge31" class="edge">
<title>Node1&#45;&gt;Node17</title>
<path fill="none" stroke="#63b8ff" d="M620.5,-373.24C620.5,-349.63 620.5,-311.65 620.5,-294.46"/>
<polygon fill="#63b8ff" stroke="#63b8ff" points="617,-373.15 620.5,-383.15 624,-373.15 617,-373.15"/>
</g>
<!-- Node3 -->
<g id="node3" class="node">
<title>Node3</title>
<g id="a_node3"><a xlink:href="_dma_buffer_abstract_8cpp.html" target="_top" xlink:title=" ">
<polygon fill="white" stroke="#666666" points="212,-239 95,-239 95,-220 212,-220 212,-239"/>
<text text-anchor="middle" x="153.5" y="-227" font-family="Helvetica,sans-Serif" font-size="10.00">DmaBufferAbstract.cpp</text>
</a>
</g>
</g>
<!-- Node2&#45;&gt;Node3 -->
<g id="edge2" class="edge">
<title>Node2&#45;&gt;Node3</title>
<path fill="none" stroke="#63b8ff" d="M310.99,-271.62C273.66,-261.87 221.64,-248.29 187.77,-239.45"/>
<polygon fill="#63b8ff" stroke="#63b8ff" points="310.04,-274.99 320.6,-274.13 311.81,-268.21 310.04,-274.99"/>
</g>
<!-- Node4 -->
<g id="node4" class="node">
<title>Node4</title>
<g id="a_node4"><a xlink:href="_fpga_mem_buffer_over_axi_8hpp.html" target="_top" xlink:title=" ">
<polygon fill="white" stroke="#666666" points="574.5,-239 436.5,-239 436.5,-220 574.5,-220 574.5,-239"/>
<text text-anchor="middle" x="505.5" y="-227" font-family="Helvetica,sans-Serif" font-size="10.00">FpgaMemBufferOverAxi.hpp</text>
</a>
</g>
</g>
<!-- Node2&#45;&gt;Node4 -->
<g id="edge3" class="edge">
<title>Node2&#45;&gt;Node4</title>
<path fill="none" stroke="#63b8ff" d="M392.45,-270.71C419.72,-261.01 456.5,-247.93 480.6,-239.36"/>
<polygon fill="#63b8ff" stroke="#63b8ff" points="391.45,-267.35 383.2,-274 393.8,-273.95 391.45,-267.35"/>
</g>
<!-- Node5 -->
<g id="node5" class="node">
<title>Node5</title>
<g id="a_node5"><a xlink:href="_fpga_mem_buffer_over_xdma_8hpp.html" target="_top" xlink:title=" ">
<polygon fill="white" stroke="#666666" points="380.5,-239 230.5,-239 230.5,-220 380.5,-220 380.5,-239"/>
<text text-anchor="middle" x="305.5" y="-227" font-family="Helvetica,sans-Serif" font-size="10.00">FpgaMemBufferOverXdma.hpp</text>
</a>
</g>
</g>
<!-- Node2&#45;&gt;Node5 -->
<g id="edge4" class="edge">
<title>Node2&#45;&gt;Node5</title>
<path fill="none" stroke="#63b8ff" d="M340.14,-266.5C331.48,-257.5 321.2,-246.82 314.1,-239.44"/>
<polygon fill="#63b8ff" stroke="#63b8ff" points="337.57,-268.88 347.03,-273.66 342.62,-264.02 337.57,-268.88"/>
</g>
<!-- Node2&#45;&gt;Node6 -->
<g id="edge5" class="edge">
<title>Node2&#45;&gt;Node6</title>
<path fill="none" stroke="#63b8ff" d="M288.82,-272.7C233.97,-263.87 154.7,-250.94 85.5,-239 82.89,-238.55 80.19,-238.08 77.47,-237.6"/>
<polygon fill="#63b8ff" stroke="#63b8ff" points="288.22,-276.15 298.65,-274.28 289.33,-269.23 288.22,-276.15"/>
</g>
<!-- Node12 -->
<g id="node12" class="node">
<title>Node12</title>
<g id="a_node12"><a xlink:href="_uio_mem_sgdma_8hpp.html" target="_top" xlink:title=" ">
<polygon fill="white" stroke="#666666" points="516.5,-184 414.5,-184 414.5,-165 516.5,-165 516.5,-184"/>
<text text-anchor="middle" x="465.5" y="-172" font-family="Helvetica,sans-Serif" font-size="10.00">UioMemSgdma.hpp</text>
</a>
</g>
</g>
<!-- Node2&#45;&gt;Node12 -->
<g id="edge11" class="edge">
<title>Node2&#45;&gt;Node12</title>
<path fill="none" stroke="#63b8ff" d="M373.42,-266.74C396.82,-243.55 438.23,-202.52 456.46,-184.46"/>
<polygon fill="#63b8ff" stroke="#63b8ff" points="371.14,-264.07 366.5,-273.6 376.06,-269.04 371.14,-264.07"/>
</g>
<!-- Node7 -->
<g id="node7" class="node">
<title>Node7</title>
<g id="a_node7"><a xlink:href="_data_handler_abstract_8hpp.html" target="_top" xlink:title=" ">
<polygon fill="white" stroke="#666666" points="594,-129 469,-129 469,-110 594,-110 594,-129"/>
<text text-anchor="middle" x="531.5" y="-117" font-family="Helvetica,sans-Serif" font-size="10.00">DataHandlerAbstract.hpp</text>
</a>
</g>
</g>
<!-- Node6&#45;&gt;Node7 -->
<g id="edge6" class="edge">
<title>Node6&#45;&gt;Node7</title>
<path fill="none" stroke="#63b8ff" d="M88.21,-217.61C185.76,-196.24 400.6,-149.18 490.59,-129.46"/>
<polygon fill="#63b8ff" stroke="#63b8ff" points="87.68,-214.14 78.66,-219.7 89.18,-220.98 87.68,-214.14"/>
</g>
<!-- Node11 -->
<g id="node11" class="node">
<title>Node11</title>
<g id="a_node11"><a xlink:href="_u_dma_buf_8cpp.html" target="_top" xlink:title=" ">
<polygon fill="white" stroke="#666666" points="77,-184 0,-184 0,-165 77,-165 77,-184"/>
<text text-anchor="middle" x="38.5" y="-172" font-family="Helvetica,sans-Serif" font-size="10.00">UDmaBuf.cpp</text>
</a>
</g>
</g>
<!-- Node6&#45;&gt;Node11 -->
<g id="edge10" class="edge">
<title>Node6&#45;&gt;Node11</title>
<path fill="none" stroke="#63b8ff" d="M38.5,-208.35C38.5,-200.1 38.5,-190.97 38.5,-184.44"/>
<polygon fill="#63b8ff" stroke="#63b8ff" points="35,-208.23 38.5,-218.23 42,-208.23 35,-208.23"/>
</g>
<!-- Node8 -->
<g id="node8" class="node">
<title>Node8</title>
<g id="a_node8"><a xlink:href="_data_handler_abstract_8cpp.html" target="_top" xlink:title=" ">
<polygon fill="white" stroke="#666666" points="526,-74 401,-74 401,-55 526,-55 526,-74"/>
<text text-anchor="middle" x="463.5" y="-62" font-family="Helvetica,sans-Serif" font-size="10.00">DataHandlerAbstract.cpp</text>
</a>
</g>
</g>
<!-- Node7&#45;&gt;Node8 -->
<g id="edge7" class="edge">
<title>Node7&#45;&gt;Node8</title>
<path fill="none" stroke="#63b8ff" d="M511.15,-102.64C499.28,-93.39 484.74,-82.05 474.86,-74.36"/>
<polygon fill="#63b8ff" stroke="#63b8ff" points="508.73,-105.19 518.77,-108.58 513.04,-99.67 508.73,-105.19"/>
</g>
<!-- Node9 -->
<g id="node9" class="node">
<title>Node9</title>
<g id="a_node9"><a xlink:href="_data_handler_sync_8hpp.html" target="_top" xlink:title=" ">
<polygon fill="white" stroke="#666666" points="654.5,-74 544.5,-74 544.5,-55 654.5,-55 654.5,-74"/>
<text text-anchor="middle" x="599.5" y="-62" font-family="Helvetica,sans-Serif" font-size="10.00">DataHandlerSync.hpp</text>
</a>
</g>
</g>
<!-- Node7&#45;&gt;Node9 -->
<g id="edge8" class="edge">
<title>Node7&#45;&gt;Node9</title>
<path fill="none" stroke="#63b8ff" d="M551.85,-102.64C563.72,-93.39 578.26,-82.05 588.14,-74.36"/>
<polygon fill="#63b8ff" stroke="#63b8ff" points="549.96,-99.67 544.23,-108.58 554.27,-105.19 549.96,-99.67"/>
</g>
<!-- Node10 -->
<g id="node10" class="node">
<title>Node10</title>
<g id="a_node10"><a xlink:href="_data_handler_sync_8cpp.html" target="_top" xlink:title=" ">
<polygon fill="white" stroke="#666666" points="654.5,-19 544.5,-19 544.5,0 654.5,0 654.5,-19"/>
<text text-anchor="middle" x="599.5" y="-7" font-family="Helvetica,sans-Serif" font-size="10.00">DataHandlerSync.cpp</text>
</a>
</g>
</g>
<!-- Node9&#45;&gt;Node10 -->
<g id="edge9" class="edge">
<title>Node9&#45;&gt;Node10</title>
<path fill="none" stroke="#63b8ff" d="M599.5,-43.35C599.5,-35.1 599.5,-25.97 599.5,-19.44"/>
<polygon fill="#63b8ff" stroke="#63b8ff" points="596,-43.23 599.5,-53.23 603,-43.23 596,-43.23"/>
</g>
<!-- Node12&#45;&gt;Node7 -->
<g id="edge12" class="edge">
<title>Node12&#45;&gt;Node7</title>
<path fill="none" stroke="#63b8ff" d="M485.59,-157.37C497.05,-148.16 510.98,-136.98 520.47,-129.36"/>
<polygon fill="#63b8ff" stroke="#63b8ff" points="483.48,-154.57 477.88,-163.56 487.86,-160.03 483.48,-154.57"/>
</g>
<!-- Node13 -->
<g id="node13" class="node">
<title>Node13</title>
<g id="a_node13"><a xlink:href="_uio_mem_sgdma_8cpp.html" target="_top" xlink:title=" ">
<polygon fill="white" stroke="#666666" points="450.5,-129 348.5,-129 348.5,-110 450.5,-110 450.5,-129"/>
<text text-anchor="middle" x="399.5" y="-117" font-family="Helvetica,sans-Serif" font-size="10.00">UioMemSgdma.cpp</text>
</a>
</g>
</g>
<!-- Node12&#45;&gt;Node13 -->
<g id="edge13" class="edge">
<title>Node12&#45;&gt;Node13</title>
<path fill="none" stroke="#63b8ff" d="M445.41,-157.37C433.95,-148.16 420.02,-136.98 410.53,-129.36"/>
<polygon fill="#63b8ff" stroke="#63b8ff" points="443.14,-160.03 453.12,-163.56 447.52,-154.57 443.14,-160.03"/>
</g>
<!-- Node15 -->
<g id="node15" class="node">
<title>Node15</title>
<g id="a_node15"><a xlink:href="_hw_accessor_8cpp.html" target="_top" xlink:title=" ">
<polygon fill="white" stroke="#666666" points="758,-294 667,-294 667,-275 758,-275 758,-294"/>
<text text-anchor="middle" x="712.5" y="-282" font-family="Helvetica,sans-Serif" font-size="10.00">HwAccessor.cpp</text>
</a>
</g>
</g>
<!-- Node14&#45;&gt;Node15 -->
<g id="edge15" class="edge">
<title>Node14&#45;&gt;Node15</title>
<path fill="none" stroke="#63b8ff" d="M706.87,-318.64C708.29,-310.31 709.86,-301.05 710.98,-294.44"/>
<polygon fill="#63b8ff" stroke="#63b8ff" points="703.46,-317.81 705.24,-328.26 710.36,-318.98 703.46,-317.81"/>
</g>
<!-- Node14&#45;&gt;Node16 -->
<g id="edge16" class="edge">
<title>Node14&#45;&gt;Node16</title>
<path fill="none" stroke="#63b8ff" d="M732.47,-324.67C752.53,-315.09 778.64,-302.62 795.95,-294.36"/>
<polygon fill="#63b8ff" stroke="#63b8ff" points="731.21,-321.39 723.7,-328.86 734.23,-327.71 731.21,-321.39"/>
</g>
<!-- Node14&#45;&gt;Node17 -->
<g id="edge17" class="edge">
<title>Node14&#45;&gt;Node17</title>
<path fill="none" stroke="#63b8ff" d="M679.95,-323.46C665.23,-314.06 646.78,-302.28 634.37,-294.36"/>
<polygon fill="#63b8ff" stroke="#63b8ff" points="677.83,-326.26 688.14,-328.69 681.6,-320.36 677.83,-326.26"/>
</g>
<!-- Node17&#45;&gt;Node4 -->
<g id="edge18" class="edge">
<title>Node17&#45;&gt;Node4</title>
<path fill="none" stroke="#63b8ff" d="M590.77,-269.8C569.95,-260.2 542.74,-247.66 524.72,-239.36"/>
<polygon fill="#63b8ff" stroke="#63b8ff" points="589.07,-272.87 599.62,-273.88 592,-266.51 589.07,-272.87"/>
</g>
<!-- Node18 -->
<g id="node18" class="node">
<title>Node18</title>
<g id="a_node18"><a xlink:href="_reg_accessor_8hpp.html" target="_top" xlink:title=" ">
<polygon fill="white" stroke="#666666" points="760,-239 667,-239 667,-220 760,-220 760,-239"/>
<text text-anchor="middle" x="713.5" y="-227" font-family="Helvetica,sans-Serif" font-size="10.00">RegAccessor.hpp</text>
</a>
</g>
</g>
<!-- Node17&#45;&gt;Node18 -->
<g id="edge19" class="edge">
<title>Node17&#45;&gt;Node18</title>
<path fill="none" stroke="#63b8ff" d="M645.94,-269C662.58,-259.52 683.79,-247.43 697.96,-239.36"/>
<polygon fill="#63b8ff" stroke="#63b8ff" points="644.55,-265.77 637.59,-273.76 648.01,-271.85 644.55,-265.77"/>
</g>
<!-- Node19 -->
<g id="node19" class="node">
<title>Node19</title>
<g id="a_node19"><a xlink:href="_uio_axi_dma_if_8hpp.html" target="_top" xlink:title=" ">
<polygon fill="white" stroke="#666666" points="758,-184 669,-184 669,-165 758,-165 758,-184"/>
<text text-anchor="middle" x="713.5" y="-172" font-family="Helvetica,sans-Serif" font-size="10.00">UioAxiDmaIf.hpp</text>
</a>
</g>
</g>
<!-- Node17&#45;&gt;Node19 -->
<g id="edge26" class="edge">
<title>Node17&#45;&gt;Node19</title>
<path fill="none" stroke="#63b8ff" d="M659.78,-274.33C701.62,-264.17 762.78,-248.02 769.5,-239 784.87,-218.37 753.06,-196.27 731.39,-184.35"/>
<polygon fill="#63b8ff" stroke="#63b8ff" points="659.19,-270.87 650.28,-276.61 660.83,-277.68 659.19,-270.87"/>
</g>
<!-- Node21 -->
<g id="node21" class="node">
<title>Node21</title>
<g id="a_node21"><a xlink:href="_uio_axi_vdma_if_8hpp.html" target="_top" xlink:title=" ">
<polygon fill="white" stroke="#666666" points="872,-184 777,-184 777,-165 872,-165 872,-184"/>
<text text-anchor="middle" x="824.5" y="-172" font-family="Helvetica,sans-Serif" font-size="10.00">UioAxiVdmaIf.hpp</text>
</a>
</g>
</g>
<!-- Node17&#45;&gt;Node21 -->
<g id="edge27" class="edge">
<title>Node17&#45;&gt;Node21</title>
<path fill="none" stroke="#63b8ff" d="M659.87,-273.66C707.02,-261.76 780.37,-242.84 785.5,-239 804.57,-224.75 816.37,-198.18 821.51,-184.36"/>
<polygon fill="#63b8ff" stroke="#63b8ff" points="659.1,-270.24 650.26,-276.08 660.81,-277.03 659.1,-270.24"/>
</g>
<!-- Node23 -->
<g id="node23" class="node">
<title>Node23</title>
<g id="a_node23"><a xlink:href="_uio_if_8cpp.html" target="_top" xlink:title=" ">
<polygon fill="white" stroke="#666666" points="648.5,-239 592.5,-239 592.5,-220 648.5,-220 648.5,-239"/>
<text text-anchor="middle" x="620.5" y="-227" font-family="Helvetica,sans-Serif" font-size="10.00">UioIf.cpp</text>
</a>
</g>
</g>
<!-- Node17&#45;&gt;Node23 -->
<g id="edge28" class="edge">
<title>Node17&#45;&gt;Node23</title>
<path fill="none" stroke="#63b8ff" d="M620.5,-263.35C620.5,-255.1 620.5,-245.97 620.5,-239.44"/>
<polygon fill="#63b8ff" stroke="#63b8ff" points="617,-263.23 620.5,-273.23 624,-263.23 617,-263.23"/>
</g>
<!-- Node18&#45;&gt;Node12 -->
<g id="edge25" class="edge">
<title>Node18&#45;&gt;Node12</title>
<path fill="none" stroke="#63b8ff" d="M660.24,-217.12C614.5,-207.34 549.45,-193.44 507.36,-184.45"/>
<polygon fill="#63b8ff" stroke="#63b8ff" points="659.44,-220.53 669.95,-219.19 660.9,-213.68 659.44,-220.53"/>
</g>
<!-- Node18&#45;&gt;Node19 -->
<g id="edge20" class="edge">
<title>Node18&#45;&gt;Node19</title>
<path fill="none" stroke="#63b8ff" d="M713.5,-208.35C713.5,-200.1 713.5,-190.97 713.5,-184.44"/>
<polygon fill="#63b8ff" stroke="#63b8ff" points="710,-208.23 713.5,-218.23 717,-208.23 710,-208.23"/>
</g>
<!-- Node18&#45;&gt;Node21 -->
<g id="edge23" class="edge">
<title>Node18&#45;&gt;Node21</title>
<path fill="none" stroke="#63b8ff" d="M742.47,-214.67C762.53,-205.09 788.64,-192.62 805.95,-184.36"/>
<polygon fill="#63b8ff" stroke="#63b8ff" points="741.21,-211.39 733.7,-218.86 744.23,-217.71 741.21,-211.39"/>
</g>
<!-- Node19&#45;&gt;Node7 -->
<g id="edge21" class="edge">
<title>Node19&#45;&gt;Node7</title>
<path fill="none" stroke="#63b8ff" d="M671.83,-161.36C638.43,-151.64 592.33,-138.21 562.22,-129.45"/>
<polygon fill="#63b8ff" stroke="#63b8ff" points="670.59,-164.65 681.17,-164.09 672.55,-157.93 670.59,-164.65"/>
</g>
<!-- Node20 -->
<g id="node20" class="node">
<title>Node20</title>
<g id="a_node20"><a xlink:href="_uio_axi_dma_if_8cpp.html" target="_top" xlink:title=" ">
<polygon fill="white" stroke="#666666" points="758,-129 669,-129 669,-110 758,-110 758,-129"/>
<text text-anchor="middle" x="713.5" y="-117" font-family="Helvetica,sans-Serif" font-size="10.00">UioAxiDmaIf.cpp</text>
</a>
</g>
</g>
<!-- Node19&#45;&gt;Node20 -->
<g id="edge22" class="edge">
<title>Node19&#45;&gt;Node20</title>
<path fill="none" stroke="#63b8ff" d="M713.5,-153.35C713.5,-145.1 713.5,-135.97 713.5,-129.44"/>
<polygon fill="#63b8ff" stroke="#63b8ff" points="710,-153.23 713.5,-163.23 717,-153.23 710,-153.23"/>
</g>
<!-- Node22 -->
<g id="node22" class="node">
<title>Node22</title>
<g id="a_node22"><a xlink:href="_uio_axi_vdma_if_8cpp.html" target="_top" xlink:title=" ">
<polygon fill="white" stroke="#666666" points="872,-129 777,-129 777,-110 872,-110 872,-129"/>
<text text-anchor="middle" x="824.5" y="-117" font-family="Helvetica,sans-Serif" font-size="10.00">UioAxiVdmaIf.cpp</text>
</a>
</g>
</g>
<!-- Node21&#45;&gt;Node22 -->
<g id="edge24" class="edge">
<title>Node21&#45;&gt;Node22</title>
<path fill="none" stroke="#63b8ff" d="M824.5,-153.35C824.5,-145.1 824.5,-135.97 824.5,-129.44"/>
<polygon fill="#63b8ff" stroke="#63b8ff" points="821,-153.23 824.5,-163.23 828,-153.23 821,-153.23"/>
</g>
</g>
</svg>
