<?xml version="1.0" encoding="UTF-8" standalone="no"?>
<!DOCTYPE svg PUBLIC "-//W3C//DTD SVG 1.1//EN"
 "http://www.w3.org/Graphics/SVG/1.1/DTD/svg11.dtd">
<!-- Generated by graphviz version 7.0.5 (20221223.1930)
 -->
<!-- Title: UioMemSgdma.cpp Pages: 1 -->
<svg width="1983pt" height="379pt"
 viewBox="0.00 0.00 1982.50 379.00" xmlns="http://www.w3.org/2000/svg" xmlns:xlink="http://www.w3.org/1999/xlink">
<g id="graph0" class="graph" transform="scale(1 1) rotate(0) translate(4 375)">
<title>UioMemSgdma.cpp</title>
<!-- Node1 -->
<g id="node1" class="node">
<title>Node1</title>
<g id="a_node1"><a xlink:title=" ">
<polygon fill="#999999" stroke="#666666" points="1679,-371 1577,-371 1577,-352 1679,-352 1679,-371"/>
<text text-anchor="middle" x="1628" y="-359" font-family="Helvetica,sans-Serif" font-size="10.00">UioMemSgdma.cpp</text>
</a>
</g>
</g>
<!-- Node2 -->
<g id="node2" class="node">
<title>Node2</title>
<g id="a_node2"><a xlink:href="_uio_mem_sgdma_8hpp.html" target="_top" xlink:title=" ">
<polygon fill="white" stroke="#666666" points="1334.5,-310.5 1197.5,-310.5 1197.5,-291.5 1334.5,-291.5 1334.5,-310.5"/>
<text text-anchor="middle" x="1266" y="-298.5" font-family="Helvetica,sans-Serif" font-size="10.00">udmaio/UioMemSgdma.hpp</text>
</a>
</g>
</g>
<!-- Node1&#45;&gt;Node2 -->
<g id="edge1" class="edge">
<title>Node1&#45;&gt;Node2</title>
<path fill="none" stroke="#63b8ff" d="M1576.52,-352.18C1512.41,-341.82 1402.78,-324.1 1332.4,-312.73"/>
<polygon fill="#63b8ff" stroke="#63b8ff" points="1333.38,-309.34 1322.95,-311.2 1332.27,-316.25 1333.38,-309.34"/>
</g>
<!-- Node3 -->
<g id="node3" class="node">
<title>Node3</title>
<g id="a_node3"><a xlink:title=" ">
<polygon fill="#e0e0e0" stroke="#999999" points="447.5,-85 398.5,-85 398.5,-66 447.5,-66 447.5,-85"/>
<text text-anchor="middle" x="423" y="-73" font-family="Helvetica,sans-Serif" font-size="10.00">cstddef</text>
</a>
</g>
</g>
<!-- Node1&#45;&gt;Node3 -->
<g id="edge53" class="edge">
<title>Node1&#45;&gt;Node3</title>
<path fill="none" stroke="#63b8ff" d="M1576.6,-360.01C1367.19,-357.81 587.44,-347.51 546,-316 518.31,-294.94 522,-276.29 522,-241.5 522,-241.5 522,-241.5 522,-184.5 522,-141.95 479.73,-108.9 450.43,-91.09"/>
<polygon fill="#63b8ff" stroke="#63b8ff" points="452.41,-88.2 442.01,-86.2 448.9,-94.25 452.41,-88.2"/>
</g>
<!-- Node4 -->
<g id="node4" class="node">
<title>Node4</title>
<g id="a_node4"><a xlink:title=" ">
<polygon fill="#e0e0e0" stroke="#999999" points="977.5,-24.5 926.5,-24.5 926.5,-5.5 977.5,-5.5 977.5,-24.5"/>
<text text-anchor="middle" x="952" y="-12.5" font-family="Helvetica,sans-Serif" font-size="10.00">memory</text>
</a>
</g>
</g>
<!-- Node1&#45;&gt;Node4 -->
<g id="edge56" class="edge">
<title>Node1&#45;&gt;Node4</title>
<path fill="none" stroke="#63b8ff" d="M1576.52,-361.02C1388.04,-361.66 740.94,-352.23 632,-195 598.92,-147.25 604.94,-98.63 653,-66 750.97,0.53 802.5,-60.22 917,-30 918.58,-29.58 920.19,-29.11 921.8,-28.61"/>
<polygon fill="#63b8ff" stroke="#63b8ff" points="922.63,-32.03 930.87,-25.37 920.28,-25.43 922.63,-32.03"/>
</g>
<!-- Node5 -->
<g id="node5" class="node">
<title>Node5</title>
<g id="a_node5"><a xlink:href="_dma_buffer_abstract_8hpp.html" target="_top" xlink:title=" ">
<polygon fill="white" stroke="#666666" points="1620.5,-250 1503.5,-250 1503.5,-231 1620.5,-231 1620.5,-250"/>
<text text-anchor="middle" x="1562" y="-238" font-family="Helvetica,sans-Serif" font-size="10.00">DmaBufferAbstract.hpp</text>
</a>
</g>
</g>
<!-- Node1&#45;&gt;Node5 -->
<g id="edge60" class="edge">
<title>Node1&#45;&gt;Node5</title>
<path fill="none" stroke="#63b8ff" d="M1623.04,-351.56C1612.28,-332.16 1586.63,-285.91 1572.24,-259.97"/>
<polygon fill="#63b8ff" stroke="#63b8ff" points="1575.48,-258.6 1567.57,-251.55 1569.36,-261.99 1575.48,-258.6"/>
</g>
<!-- Node6 -->
<g id="node6" class="node">
<title>Node6</title>
<g id="a_node6"><a xlink:title=" ">
<polygon fill="#e0e0e0" stroke="#999999" points="1497,-195 1451,-195 1451,-176 1497,-176 1497,-195"/>
<text text-anchor="middle" x="1474" y="-183" font-family="Helvetica,sans-Serif" font-size="10.00">cstdint</text>
</a>
</g>
</g>
<!-- Node1&#45;&gt;Node6 -->
<g id="edge54" class="edge">
<title>Node1&#45;&gt;Node6</title>
<path fill="none" stroke="#63b8ff" d="M1612.26,-351.73C1584.33,-335.36 1526.03,-297.5 1494,-250 1485.19,-236.93 1480.09,-219.76 1477.25,-206.57"/>
<polygon fill="#63b8ff" stroke="#63b8ff" points="1480.72,-206.08 1475.44,-196.89 1473.83,-207.37 1480.72,-206.08"/>
</g>
<!-- Node7 -->
<g id="node7" class="node">
<title>Node7</title>
<g id="a_node7"><a xlink:title=" ">
<polygon fill="#e0e0e0" stroke="#999999" points="1673,-195 1629,-195 1629,-176 1673,-176 1673,-195"/>
<text text-anchor="middle" x="1651" y="-183" font-family="Helvetica,sans-Serif" font-size="10.00">vector</text>
</a>
</g>
</g>
<!-- Node1&#45;&gt;Node7 -->
<g id="edge59" class="edge">
<title>Node1&#45;&gt;Node7</title>
<path fill="none" stroke="#63b8ff" d="M1629.17,-351.63C1632.73,-324.75 1643.43,-243.73 1648.41,-206.1"/>
<polygon fill="#63b8ff" stroke="#63b8ff" points="1651.82,-207.02 1649.66,-196.64 1644.88,-206.1 1651.82,-207.02"/>
</g>
<!-- Node11 -->
<g id="node11" class="node">
<title>Node11</title>
<g id="a_node11"><a xlink:title=" ">
<polygon fill="#e0e0e0" stroke="#999999" points="1771.5,-24.5 1712.5,-24.5 1712.5,-5.5 1771.5,-5.5 1771.5,-24.5"/>
<text text-anchor="middle" x="1742" y="-12.5" font-family="Helvetica,sans-Serif" font-size="10.00">stdexcept</text>
</a>
</g>
</g>
<!-- Node1&#45;&gt;Node11 -->
<g id="edge57" class="edge">
<title>Node1&#45;&gt;Node11</title>
<path fill="none" stroke="#63b8ff" d="M1649.25,-351.55C1684.2,-335.23 1750,-297.13 1750,-241.5 1750,-241.5 1750,-241.5 1750,-129.5 1750,-96.8 1746.66,-58.94 1744.29,-36.26"/>
<polygon fill="#63b8ff" stroke="#63b8ff" points="1747.77,-35.88 1743.21,-26.32 1740.81,-36.64 1747.77,-35.88"/>
</g>
<!-- Node12 -->
<g id="node12" class="node">
<title>Node12</title>
<g id="a_node12"><a xlink:title=" ">
<polygon fill="#e0e0e0" stroke="#999999" points="1601.5,-24.5 1560.5,-24.5 1560.5,-5.5 1601.5,-5.5 1601.5,-24.5"/>
<text text-anchor="middle" x="1581" y="-12.5" font-family="Helvetica,sans-Serif" font-size="10.00">string</text>
</a>
</g>
</g>
<!-- Node1&#45;&gt;Node12 -->
<g id="edge58" class="edge">
<title>Node1&#45;&gt;Node12</title>
<path fill="none" stroke="#63b8ff" d="M1640.39,-351.57C1663.76,-333.6 1712,-290.56 1712,-241.5 1712,-241.5 1712,-241.5 1712,-129.5 1712,-95.66 1694.78,-89.04 1670,-66 1660.25,-56.94 1631.3,-41.29 1609.04,-29.91"/>
<polygon fill="#63b8ff" stroke="#63b8ff" points="1610.92,-26.94 1600.42,-25.55 1607.76,-33.19 1610.92,-26.94"/>
</g>
<!-- Node32 -->
<g id="node32" class="node">
<title>Node32</title>
<g id="a_node32"><a xlink:title=" ">
<polygon fill="#e0e0e0" stroke="#999999" points="1825.5,-310.5 1778.5,-310.5 1778.5,-291.5 1825.5,-291.5 1825.5,-310.5"/>
<text text-anchor="middle" x="1802" y="-298.5" font-family="Helvetica,sans-Serif" font-size="10.00">iterator</text>
</a>
</g>
</g>
<!-- Node1&#45;&gt;Node32 -->
<g id="edge55" class="edge">
<title>Node1&#45;&gt;Node32</title>
<path fill="none" stroke="#63b8ff" d="M1656.49,-351.51C1684.08,-342.73 1727.04,-328.85 1764,-316 1765.16,-315.6 1766.34,-315.18 1767.53,-314.76"/>
<polygon fill="#63b8ff" stroke="#63b8ff" points="1768.68,-318.07 1776.91,-311.39 1766.31,-311.48 1768.68,-318.07"/>
</g>
<!-- Node33 -->
<g id="node33" class="node">
<title>Node33</title>
<g id="a_node33"><a xlink:title=" ">
<polygon fill="#e0e0e0" stroke="#999999" points="1974.5,-316 1843.5,-316 1843.5,-286 1974.5,-286 1974.5,-316"/>
<text text-anchor="start" x="1851.5" y="-304" font-family="Helvetica,sans-Serif" font-size="10.00">boost/log/sources/severity</text>
<text text-anchor="middle" x="1909" y="-293" font-family="Helvetica,sans-Serif" font-size="10.00">_feature.hpp</text>
</a>
</g>
</g>
<!-- Node1&#45;&gt;Node33 -->
<g id="edge61" class="edge">
<title>Node1&#45;&gt;Node33</title>
<path fill="none" stroke="#63b8ff" d="M1670.98,-351.55C1713.67,-342.67 1780.04,-328.85 1831.87,-318.06"/>
<polygon fill="#63b8ff" stroke="#63b8ff" points="1832.47,-321.51 1841.55,-316.04 1831.04,-314.65 1832.47,-321.51"/>
</g>
<!-- Node2&#45;&gt;Node3 -->
<g id="edge2" class="edge">
<title>Node2&#45;&gt;Node3</title>
<path fill="none" stroke="#63b8ff" d="M1197.2,-298.04C1041.28,-293.12 670.71,-278.55 622,-250 562.55,-215.16 589.62,-164.27 536,-121 523.69,-111.06 486.98,-97.48 458.7,-87.95"/>
<polygon fill="#63b8ff" stroke="#63b8ff" points="460,-84.69 449.4,-84.86 457.79,-91.33 460,-84.69"/>
</g>
<!-- Node2&#45;&gt;Node4 -->
<g id="edge3" class="edge">
<title>Node2&#45;&gt;Node4</title>
<path fill="none" stroke="#63b8ff" d="M1197.08,-294.75C1033.61,-281.36 636,-243.01 636,-186.5 636,-186.5 636,-186.5 636,-129.5 636,-93.58 654.99,-84.13 686,-66 775.69,-13.54 816.79,-57.47 917,-30 918.38,-29.62 919.79,-29.2 921.2,-28.76"/>
<polygon fill="#63b8ff" stroke="#63b8ff" points="922.24,-32.1 930.48,-25.44 919.89,-25.51 922.24,-32.1"/>
</g>
<!-- Node2&#45;&gt;Node5 -->
<g id="edge4" class="edge">
<title>Node2&#45;&gt;Node5</title>
<path fill="none" stroke="#63b8ff" d="M1311.28,-291.05C1363.4,-280.75 1449.06,-263.82 1505.5,-252.67"/>
<polygon fill="#63b8ff" stroke="#63b8ff" points="1506.11,-256.11 1515.24,-250.74 1504.75,-249.25 1506.11,-256.11"/>
</g>
<!-- Node14 -->
<g id="node14" class="node">
<title>Node14</title>
<g id="a_node14"><a xlink:href="_reg_accessor_8hpp.html" target="_top" xlink:title=" ">
<polygon fill="white" stroke="#666666" points="1312.5,-250 1219.5,-250 1219.5,-231 1312.5,-231 1312.5,-250"/>
<text text-anchor="middle" x="1266" y="-238" font-family="Helvetica,sans-Serif" font-size="10.00">RegAccessor.hpp</text>
</a>
</g>
</g>
<!-- Node2&#45;&gt;Node14 -->
<g id="edge14" class="edge">
<title>Node2&#45;&gt;Node14</title>
<path fill="none" stroke="#63b8ff" d="M1266,-291.37C1266,-283.5 1266,-271.6 1266,-261.39"/>
<polygon fill="#63b8ff" stroke="#63b8ff" points="1269.5,-261.68 1266,-251.68 1262.5,-261.68 1269.5,-261.68"/>
</g>
<!-- Node5&#45;&gt;Node6 -->
<g id="edge5" class="edge">
<title>Node5&#45;&gt;Node6</title>
<path fill="none" stroke="#63b8ff" d="M1547.07,-230.51C1533.72,-222.47 1513.89,-210.53 1498.26,-201.11"/>
<polygon fill="#63b8ff" stroke="#63b8ff" points="1500.38,-198.3 1490,-196.14 1496.76,-204.3 1500.38,-198.3"/>
</g>
<!-- Node5&#45;&gt;Node7 -->
<g id="edge6" class="edge">
<title>Node5&#45;&gt;Node7</title>
<path fill="none" stroke="#63b8ff" d="M1577.1,-230.51C1590.6,-222.47 1610.65,-210.53 1626.46,-201.11"/>
<polygon fill="#63b8ff" stroke="#63b8ff" points="1628.02,-204.26 1634.82,-196.13 1624.44,-198.24 1628.02,-204.26"/>
</g>
<!-- Node8 -->
<g id="node8" class="node">
<title>Node8</title>
<g id="a_node8"><a xlink:title=" ">
<polygon fill="#e0e0e0" stroke="#999999" points="1477.5,-85 1340.5,-85 1340.5,-66 1477.5,-66 1477.5,-85"/>
<text text-anchor="middle" x="1409" y="-73" font-family="Helvetica,sans-Serif" font-size="10.00">boost/core/noncopyable.hpp</text>
</a>
</g>
</g>
<!-- Node5&#45;&gt;Node8 -->
<g id="edge7" class="edge">
<title>Node5&#45;&gt;Node8</title>
<path fill="none" stroke="#63b8ff" d="M1554.53,-230.75C1543.91,-218.39 1523.79,-195.18 1506,-176 1478.55,-146.39 1445.53,-112.97 1425.96,-93.38"/>
<polygon fill="#63b8ff" stroke="#63b8ff" points="1428.6,-91.07 1419.05,-86.48 1423.65,-96.02 1428.6,-91.07"/>
</g>
<!-- Node9 -->
<g id="node9" class="node">
<title>Node9</title>
<g id="a_node9"><a xlink:href="_uio_config_8hpp.html" target="_top" xlink:title=" ">
<polygon fill="white" stroke="#666666" points="1645.5,-85 1534.5,-85 1534.5,-66 1645.5,-66 1645.5,-85"/>
<text text-anchor="middle" x="1590" y="-73" font-family="Helvetica,sans-Serif" font-size="10.00">udmaio/UioConfig.hpp</text>
</a>
</g>
</g>
<!-- Node5&#45;&gt;Node9 -->
<g id="edge8" class="edge">
<title>Node5&#45;&gt;Node9</title>
<path fill="none" stroke="#63b8ff" d="M1563.51,-230.74C1567.84,-205.53 1580.4,-132.36 1586.54,-96.62"/>
<polygon fill="#63b8ff" stroke="#63b8ff" points="1589.99,-97.25 1588.23,-86.8 1583.09,-96.06 1589.99,-97.25"/>
</g>
<!-- Node9&#45;&gt;Node4 -->
<g id="edge10" class="edge">
<title>Node9&#45;&gt;Node4</title>
<path fill="none" stroke="#63b8ff" d="M1534.22,-69.39C1406.62,-57.69 1096.25,-29.23 989.1,-19.4"/>
<polygon fill="#63b8ff" stroke="#63b8ff" points="989.71,-15.94 979.43,-18.52 989.07,-22.91 989.71,-15.94"/>
</g>
<!-- Node10 -->
<g id="node10" class="node">
<title>Node10</title>
<g id="a_node10"><a xlink:title=" ">
<polygon fill="#e0e0e0" stroke="#999999" points="1533,-24.5 1479,-24.5 1479,-5.5 1533,-5.5 1533,-24.5"/>
<text text-anchor="middle" x="1506" y="-12.5" font-family="Helvetica,sans-Serif" font-size="10.00">iostream</text>
</a>
</g>
</g>
<!-- Node9&#45;&gt;Node10 -->
<g id="edge9" class="edge">
<title>Node9&#45;&gt;Node10</title>
<path fill="none" stroke="#63b8ff" d="M1577.24,-65.62C1564.17,-56.51 1543.59,-42.18 1527.9,-31.25"/>
<polygon fill="#63b8ff" stroke="#63b8ff" points="1530.33,-28.68 1520.12,-25.83 1526.33,-34.42 1530.33,-28.68"/>
</g>
<!-- Node9&#45;&gt;Node11 -->
<g id="edge11" class="edge">
<title>Node9&#45;&gt;Node11</title>
<path fill="none" stroke="#63b8ff" d="M1613.09,-65.62C1638.42,-55.87 1679.32,-40.12 1708.25,-28.99"/>
<polygon fill="#63b8ff" stroke="#63b8ff" points="1709.21,-32.37 1717.28,-25.51 1706.69,-25.84 1709.21,-32.37"/>
</g>
<!-- Node9&#45;&gt;Node12 -->
<g id="edge12" class="edge">
<title>Node9&#45;&gt;Node12</title>
<path fill="none" stroke="#63b8ff" d="M1588.67,-65.87C1587.46,-58 1585.63,-46.1 1584.06,-35.89"/>
<polygon fill="#63b8ff" stroke="#63b8ff" points="1587.54,-35.51 1582.56,-26.16 1580.62,-36.58 1587.54,-35.51"/>
</g>
<!-- Node13 -->
<g id="node13" class="node">
<title>Node13</title>
<g id="a_node13"><a xlink:title=" ">
<polygon fill="#e0e0e0" stroke="#999999" points="1686,-24.5 1620,-24.5 1620,-5.5 1686,-5.5 1686,-24.5"/>
<text text-anchor="middle" x="1653" y="-12.5" font-family="Helvetica,sans-Serif" font-size="10.00">string_view</text>
</a>
</g>
</g>
<!-- Node9&#45;&gt;Node13 -->
<g id="edge13" class="edge">
<title>Node9&#45;&gt;Node13</title>
<path fill="none" stroke="#63b8ff" d="M1599.57,-65.62C1609,-56.85 1623.65,-43.25 1635.23,-32.5"/>
<polygon fill="#63b8ff" stroke="#63b8ff" points="1637.29,-35.37 1642.23,-26 1632.52,-30.24 1637.29,-35.37"/>
</g>
<!-- Node14&#45;&gt;Node6 -->
<g id="edge15" class="edge">
<title>Node14&#45;&gt;Node6</title>
<path fill="none" stroke="#63b8ff" d="M1301.28,-230.51C1339.83,-220.69 1401.18,-205.05 1439.44,-195.31"/>
<polygon fill="#63b8ff" stroke="#63b8ff" points="1440.23,-198.72 1449.06,-192.86 1438.5,-191.93 1440.23,-198.72"/>
</g>
<!-- Node15 -->
<g id="node15" class="node">
<title>Node15</title>
<g id="a_node15"><a xlink:href="_uio_if_8hpp.html" target="_top" xlink:title=" ">
<polygon fill="white" stroke="#666666" points="1188,-195 1098,-195 1098,-176 1188,-176 1188,-195"/>
<text text-anchor="middle" x="1143" y="-183" font-family="Helvetica,sans-Serif" font-size="10.00">udmaio/UioIf.hpp</text>
</a>
</g>
</g>
<!-- Node14&#45;&gt;Node15 -->
<g id="edge16" class="edge">
<title>Node14&#45;&gt;Node15</title>
<path fill="none" stroke="#63b8ff" d="M1245.13,-230.51C1225.58,-222.08 1196.1,-209.38 1173.83,-199.79"/>
<polygon fill="#63b8ff" stroke="#63b8ff" points="1175.52,-196.7 1164.95,-195.96 1172.75,-203.13 1175.52,-196.7"/>
</g>
<!-- Node15&#45;&gt;Node4 -->
<g id="edge20" class="edge">
<title>Node15&#45;&gt;Node4</title>
<path fill="none" stroke="#63b8ff" d="M1097.7,-182.12C992.56,-175.48 737.51,-152.57 693,-85 688.35,-77.95 687.52,-72.43 693,-66 725.7,-27.63 868.41,-43.44 917,-30 918.38,-29.62 919.79,-29.2 921.2,-28.75"/>
<polygon fill="#63b8ff" stroke="#63b8ff" points="922.24,-32.09 930.48,-25.43 919.88,-25.5 922.24,-32.09"/>
</g>
<!-- Node15&#45;&gt;Node8 -->
<g id="edge22" class="edge">
<title>Node15&#45;&gt;Node8</title>
<path fill="none" stroke="#63b8ff" d="M1164.77,-175.66C1211.43,-156.72 1321.32,-112.1 1376.37,-89.75"/>
<polygon fill="#63b8ff" stroke="#63b8ff" points="1377.58,-93.03 1385.53,-86.03 1374.95,-86.55 1377.58,-93.03"/>
</g>
<!-- Node15&#45;&gt;Node9 -->
<g id="edge52" class="edge">
<title>Node15&#45;&gt;Node9</title>
<path fill="none" stroke="#63b8ff" d="M1188.43,-181.64C1271.61,-175.95 1444.98,-161.84 1501,-140 1528.75,-129.18 1555.93,-107.76 1572.8,-92.81"/>
<polygon fill="#63b8ff" stroke="#63b8ff" points="1574.91,-95.62 1579.94,-86.29 1570.19,-90.45 1574.91,-95.62"/>
</g>
<!-- Node15&#45;&gt;Node10 -->
<g id="edge19" class="edge">
<title>Node15&#45;&gt;Node10</title>
<path fill="none" stroke="#63b8ff" d="M1188.21,-184.52C1261.12,-182.04 1404.68,-166.34 1486,-85 1498.81,-72.18 1503.52,-51.68 1505.2,-36.36"/>
<polygon fill="#63b8ff" stroke="#63b8ff" points="1508.69,-36.71 1505.9,-26.49 1501.7,-36.21 1508.69,-36.71"/>
</g>
<!-- Node15&#45;&gt;Node12 -->
<g id="edge21" class="edge">
<title>Node15&#45;&gt;Node12</title>
<path fill="none" stroke="#63b8ff" d="M1188.1,-183.55C1303.43,-180 1603.6,-163.27 1654,-85 1658.57,-77.9 1657.94,-73.47 1654,-66 1648.8,-56.14 1626.04,-41.39 1607.29,-30.46"/>
<polygon fill="#63b8ff" stroke="#63b8ff" points="1609.17,-27.5 1598.75,-25.59 1605.7,-33.58 1609.17,-27.5"/>
</g>
<!-- Node16 -->
<g id="node16" class="node">
<title>Node16</title>
<g id="a_node16"><a xlink:title=" ">
<polygon fill="#e0e0e0" stroke="#999999" points="1322,-85 1262,-85 1262,-66 1322,-66 1322,-85"/>
<text text-anchor="middle" x="1292" y="-73" font-family="Helvetica,sans-Serif" font-size="10.00">filesystem</text>
</a>
</g>
</g>
<!-- Node15&#45;&gt;Node16 -->
<g id="edge17" class="edge">
<title>Node15&#45;&gt;Node16</title>
<path fill="none" stroke="#63b8ff" d="M1155.19,-175.66C1180.4,-157.39 1238.56,-115.23 1270.33,-92.21"/>
<polygon fill="#63b8ff" stroke="#63b8ff" points="1272.37,-95.05 1278.41,-86.35 1268.26,-89.38 1272.37,-95.05"/>
</g>
<!-- Node17 -->
<g id="node17" class="node">
<title>Node17</title>
<g id="a_node17"><a xlink:title=" ">
<polygon fill="#e0e0e0" stroke="#999999" points="752,-85 702,-85 702,-66 752,-66 752,-85"/>
<text text-anchor="middle" x="727" y="-73" font-family="Helvetica,sans-Serif" font-size="10.00">fstream</text>
</a>
</g>
</g>
<!-- Node15&#45;&gt;Node17 -->
<g id="edge18" class="edge">
<title>Node15&#45;&gt;Node17</title>
<path fill="none" stroke="#63b8ff" d="M1097.51,-180.39C1043.4,-174.73 950.75,-162.56 874,-140 830.48,-127.21 782.73,-104.93 753.81,-90.45"/>
<polygon fill="#63b8ff" stroke="#63b8ff" points="755.55,-87.41 745.05,-86.01 752.38,-93.65 755.55,-87.41"/>
</g>
<!-- Node18 -->
<g id="node18" class="node">
<title>Node18</title>
<g id="a_node18"><a xlink:title=" ">
<polygon fill="#e0e0e0" stroke="#999999" points="813.5,-85 770.5,-85 770.5,-66 813.5,-66 813.5,-85"/>
<text text-anchor="middle" x="792" y="-73" font-family="Helvetica,sans-Serif" font-size="10.00">fcntl.h</text>
</a>
</g>
</g>
<!-- Node15&#45;&gt;Node18 -->
<g id="edge23" class="edge">
<title>Node15&#45;&gt;Node18</title>
<path fill="none" stroke="#63b8ff" d="M1097.88,-178.96C1052.38,-172.56 980.55,-160.24 921,-140 883.16,-127.14 842.18,-105.52 816.8,-91.14"/>
<polygon fill="#63b8ff" stroke="#63b8ff" points="818.66,-88.17 808.25,-86.21 815.17,-94.23 818.66,-88.17"/>
</g>
<!-- Node19 -->
<g id="node19" class="node">
<title>Node19</title>
<g id="a_node19"><a xlink:title=" ">
<polygon fill="#e0e0e0" stroke="#999999" points="900.5,-85 831.5,-85 831.5,-66 900.5,-66 900.5,-85"/>
<text text-anchor="middle" x="866" y="-73" font-family="Helvetica,sans-Serif" font-size="10.00">sys/mman.h</text>
</a>
</g>
</g>
<!-- Node15&#45;&gt;Node19 -->
<g id="edge24" class="edge">
<title>Node15&#45;&gt;Node19</title>
<path fill="none" stroke="#63b8ff" d="M1097.61,-178.65C1058.74,-172.49 1001.93,-160.73 956,-140 928.94,-127.79 901.6,-107.03 884.27,-92.59"/>
<polygon fill="#63b8ff" stroke="#63b8ff" points="886.77,-90.12 876.89,-86.29 882.23,-95.44 886.77,-90.12"/>
</g>
<!-- Node20 -->
<g id="node20" class="node">
<title>Node20</title>
<g id="a_node20"><a xlink:title=" ">
<polygon fill="#e0e0e0" stroke="#999999" points="977.5,-85 918.5,-85 918.5,-66 977.5,-66 977.5,-85"/>
<text text-anchor="middle" x="948" y="-73" font-family="Helvetica,sans-Serif" font-size="10.00">sys/stat.h</text>
</a>
</g>
</g>
<!-- Node15&#45;&gt;Node20 -->
<g id="edge25" class="edge">
<title>Node15&#45;&gt;Node20</title>
<path fill="none" stroke="#63b8ff" d="M1097.69,-183.81C1059.76,-180.88 1006.46,-170.96 972,-140 959.52,-128.79 953.5,-110.42 950.61,-96.31"/>
<polygon fill="#63b8ff" stroke="#63b8ff" points="954.13,-96.1 949.05,-86.8 947.22,-97.23 954.13,-96.1"/>
</g>
<!-- Node21 -->
<g id="node21" class="node">
<title>Node21</title>
<g id="a_node21"><a xlink:title=" ">
<polygon fill="#e0e0e0" stroke="#999999" points="1175.5,-85 1110.5,-85 1110.5,-66 1175.5,-66 1175.5,-85"/>
<text text-anchor="middle" x="1143" y="-73" font-family="Helvetica,sans-Serif" font-size="10.00">sys/types.h</text>
</a>
</g>
</g>
<!-- Node15&#45;&gt;Node21 -->
<g id="edge26" class="edge">
<title>Node15&#45;&gt;Node21</title>
<path fill="none" stroke="#63b8ff" d="M1143,-175.66C1143,-158.57 1143,-120.61 1143,-96.92"/>
<polygon fill="#63b8ff" stroke="#63b8ff" points="1146.5,-96.97 1143,-86.97 1139.5,-96.97 1146.5,-96.97"/>
</g>
<!-- Node22 -->
<g id="node22" class="node">
<title>Node22</title>
<g id="a_node22"><a xlink:title=" ">
<polygon fill="#e0e0e0" stroke="#999999" points="1244,-85 1194,-85 1194,-66 1244,-66 1244,-85"/>
<text text-anchor="middle" x="1219" y="-73" font-family="Helvetica,sans-Serif" font-size="10.00">unistd.h</text>
</a>
</g>
</g>
<!-- Node15&#45;&gt;Node22 -->
<g id="edge27" class="edge">
<title>Node15&#45;&gt;Node22</title>
<path fill="none" stroke="#63b8ff" d="M1149.22,-175.66C1161.63,-158.02 1189.71,-118.12 1206.21,-94.67"/>
<polygon fill="#63b8ff" stroke="#63b8ff" points="1208.93,-96.89 1211.82,-86.7 1203.21,-92.86 1208.93,-96.89"/>
</g>
<!-- Node23 -->
<g id="node23" class="node">
<title>Node23</title>
<g id="a_node23"><a xlink:href="_hw_accessor_8hpp.html" target="_top" xlink:title=" ">
<polygon fill="white" stroke="#666666" points="1106.5,-140 981.5,-140 981.5,-121 1106.5,-121 1106.5,-140"/>
<text text-anchor="middle" x="1044" y="-128" font-family="Helvetica,sans-Serif" font-size="10.00">udmaio/HwAccessor.hpp</text>
</a>
</g>
</g>
<!-- Node15&#45;&gt;Node23 -->
<g id="edge28" class="edge">
<title>Node15&#45;&gt;Node23</title>
<path fill="none" stroke="#63b8ff" d="M1126.21,-175.51C1110.9,-167.31 1088.03,-155.07 1070.3,-145.58"/>
<polygon fill="#63b8ff" stroke="#63b8ff" points="1072.35,-142.71 1061.88,-141.07 1069.04,-148.88 1072.35,-142.71"/>
</g>
<!-- Node24 -->
<g id="node24" class="node">
<title>Node24</title>
<g id="a_node24"><a xlink:href="_logging_8hpp.html" target="_top" xlink:title=" ">
<polygon fill="white" stroke="#666666" points="570,-85 466,-85 466,-66 570,-66 570,-85"/>
<text text-anchor="middle" x="518" y="-73" font-family="Helvetica,sans-Serif" font-size="10.00">udmaio/Logging.hpp</text>
</a>
</g>
</g>
<!-- Node15&#45;&gt;Node24 -->
<g id="edge51" class="edge">
<title>Node15&#45;&gt;Node24</title>
<path fill="none" stroke="#63b8ff" d="M1097.59,-183.53C1016.44,-181.02 841.6,-172.02 698,-140 644.15,-127.99 584.22,-104.75 548.88,-89.96"/>
<polygon fill="#63b8ff" stroke="#63b8ff" points="550.28,-86.75 539.71,-86.07 547.55,-93.19 550.28,-86.75"/>
</g>
<!-- Node23&#45;&gt;Node3 -->
<g id="edge29" class="edge">
<title>Node23&#45;&gt;Node3</title>
<path fill="none" stroke="#63b8ff" d="M981.04,-128.22C875.18,-125.3 654.77,-115.96 459.15,-85.04"/>
<polygon fill="#63b8ff" stroke="#63b8ff" points="459.7,-81.58 449.28,-83.45 458.59,-88.49 459.7,-81.58"/>
</g>
<!-- Node23&#45;&gt;Node4 -->
<g id="edge33" class="edge">
<title>Node23&#45;&gt;Node4</title>
<path fill="none" stroke="#63b8ff" d="M1036.78,-120.59C1021.6,-101.86 986.12,-58.1 966.21,-33.53"/>
<polygon fill="#63b8ff" stroke="#63b8ff" points="969.15,-31.61 960.14,-26.04 963.72,-36.01 969.15,-31.61"/>
</g>
<!-- Node23&#45;&gt;Node8 -->
<g id="edge35" class="edge">
<title>Node23&#45;&gt;Node8</title>
<path fill="none" stroke="#63b8ff" d="M1105.92,-120.51C1169.46,-111.28 1268.31,-96.93 1335.71,-87.14"/>
<polygon fill="#63b8ff" stroke="#63b8ff" points="1336.19,-90.61 1345.59,-85.71 1335.19,-83.68 1336.19,-90.61"/>
</g>
<!-- Node23&#45;&gt;Node9 -->
<g id="edge50" class="edge">
<title>Node23&#45;&gt;Node9</title>
<path fill="none" stroke="#63b8ff" d="M1106.9,-123.39C1210.66,-113.32 1416.76,-93.32 1523.09,-82.99"/>
<polygon fill="#63b8ff" stroke="#63b8ff" points="1523.18,-86.5 1532.8,-82.05 1522.51,-79.54 1523.18,-86.5"/>
</g>
<!-- Node23&#45;&gt;Node10 -->
<g id="edge32" class="edge">
<title>Node23&#45;&gt;Node10</title>
<path fill="none" stroke="#63b8ff" d="M1044.52,-120.87C1045.87,-106.89 1050.7,-79.47 1068,-66 1129.68,-17.98 1371.78,-14.76 1467.12,-15.42"/>
<polygon fill="#63b8ff" stroke="#63b8ff" points="1466.98,-18.92 1477.01,-15.51 1467.04,-11.92 1466.98,-18.92"/>
</g>
<!-- Node23&#45;&gt;Node12 -->
<g id="edge34" class="edge">
<title>Node23&#45;&gt;Node12</title>
<path fill="none" stroke="#63b8ff" d="M1048.92,-120.6C1057.41,-106.22 1076.31,-78.24 1101,-66 1189.09,-22.32 1445.9,-50.79 1542,-30 1544.46,-29.47 1546.97,-28.82 1549.48,-28.1"/>
<polygon fill="#63b8ff" stroke="#63b8ff" points="1550.38,-31.49 1558.81,-25.06 1548.21,-24.83 1550.38,-31.49"/>
</g>
<!-- Node23&#45;&gt;Node16 -->
<g id="edge30" class="edge">
<title>Node23&#45;&gt;Node16</title>
<path fill="none" stroke="#63b8ff" d="M1086.44,-120.53C1126.37,-112.07 1188.12,-98.96 1250.87,-85.45"/>
<polygon fill="#63b8ff" stroke="#63b8ff" points="1251.25,-88.95 1260.29,-83.42 1249.78,-82.11 1251.25,-88.95"/>
</g>
<!-- Node23&#45;&gt;Node17 -->
<g id="edge31" class="edge">
<title>Node23&#45;&gt;Node17</title>
<path fill="none" stroke="#63b8ff" d="M981.05,-121.24C925.98,-113.64 843.63,-101.39 763.04,-85.26"/>
<polygon fill="#63b8ff" stroke="#63b8ff" points="764.17,-81.92 753.68,-83.36 762.78,-88.78 764.17,-81.92"/>
</g>
<!-- Node23&#45;&gt;Node18 -->
<g id="edge36" class="edge">
<title>Node23&#45;&gt;Node18</title>
<path fill="none" stroke="#63b8ff" d="M993.5,-120.54C950.81,-112.71 887.82,-100.54 824.83,-85.55"/>
<polygon fill="#63b8ff" stroke="#63b8ff" points="825.92,-82.21 815.37,-83.27 824.28,-89.02 825.92,-82.21"/>
</g>
<!-- Node23&#45;&gt;Node19 -->
<g id="edge37" class="edge">
<title>Node23&#45;&gt;Node19</title>
<path fill="none" stroke="#63b8ff" d="M1013.8,-120.51C984.44,-111.76 939.6,-98.42 907.02,-88.71"/>
<polygon fill="#63b8ff" stroke="#63b8ff" points="908.08,-85.38 897.5,-85.88 906.08,-92.09 908.08,-85.38"/>
</g>
<!-- Node23&#45;&gt;Node20 -->
<g id="edge38" class="edge">
<title>Node23&#45;&gt;Node20</title>
<path fill="none" stroke="#63b8ff" d="M1027.71,-120.51C1013.01,-112.39 991.11,-100.3 973.98,-90.85"/>
<polygon fill="#63b8ff" stroke="#63b8ff" points="975.82,-87.86 965.37,-86.09 972.43,-93.99 975.82,-87.86"/>
</g>
<!-- Node23&#45;&gt;Node21 -->
<g id="edge39" class="edge">
<title>Node23&#45;&gt;Node21</title>
<path fill="none" stroke="#63b8ff" d="M1060.79,-120.51C1076.1,-112.31 1098.97,-100.07 1116.7,-90.58"/>
<polygon fill="#63b8ff" stroke="#63b8ff" points="1117.96,-93.88 1125.12,-86.07 1114.65,-87.71 1117.96,-93.88"/>
</g>
<!-- Node23&#45;&gt;Node22 -->
<g id="edge40" class="edge">
<title>Node23&#45;&gt;Node22</title>
<path fill="none" stroke="#63b8ff" d="M1073.69,-120.51C1103.87,-111.37 1150.66,-97.2 1182.95,-87.42"/>
<polygon fill="#63b8ff" stroke="#63b8ff" points="1183.72,-90.84 1192.27,-84.59 1181.69,-84.14 1183.72,-90.84"/>
</g>
<!-- Node23&#45;&gt;Node24 -->
<g id="edge41" class="edge">
<title>Node23&#45;&gt;Node24</title>
<path fill="none" stroke="#63b8ff" d="M981.07,-123.16C880.12,-112.99 683.03,-93.13 581.63,-82.91"/>
<polygon fill="#63b8ff" stroke="#63b8ff" points="582.15,-79.45 571.85,-81.93 581.45,-86.41 582.15,-79.45"/>
</g>
<!-- Node24&#45;&gt;Node12 -->
<g id="edge42" class="edge">
<title>Node24&#45;&gt;Node12</title>
<path fill="none" stroke="#63b8ff" d="M570.45,-71.87C605.21,-70.14 651.83,-67.87 693,-66 881.64,-57.42 1356.69,-66.31 1542,-30 1544.47,-29.52 1546.99,-28.9 1549.5,-28.21"/>
<polygon fill="#63b8ff" stroke="#63b8ff" points="1550.39,-31.6 1558.84,-25.21 1548.25,-24.93 1550.39,-31.6"/>
</g>
<!-- Node25 -->
<g id="node25" class="node">
<title>Node25</title>
<g id="a_node25"><a xlink:title=" ">
<polygon fill="#e0e0e0" stroke="#999999" points="96,-24.5 0,-24.5 0,-5.5 96,-5.5 96,-24.5"/>
<text text-anchor="middle" x="48" y="-12.5" font-family="Helvetica,sans-Serif" font-size="10.00">boost/log/core.hpp</text>
</a>
</g>
</g>
<!-- Node24&#45;&gt;Node25 -->
<g id="edge43" class="edge">
<title>Node24&#45;&gt;Node25</title>
<path fill="none" stroke="#63b8ff" d="M465.59,-67.19C462.34,-66.77 459.13,-66.37 456,-66 300.29,-47.35 259.52,-56.77 105,-30 100.89,-29.29 96.64,-28.45 92.4,-27.54"/>
<polygon fill="#63b8ff" stroke="#63b8ff" points="93.3,-24.15 82.77,-25.33 91.74,-30.97 93.3,-24.15"/>
</g>
<!-- Node26 -->
<g id="node26" class="node">
<title>Node26</title>
<g id="a_node26"><a xlink:title=" ">
<polygon fill="#e0e0e0" stroke="#999999" points="243.5,-24.5 114.5,-24.5 114.5,-5.5 243.5,-5.5 243.5,-24.5"/>
<text text-anchor="middle" x="179" y="-12.5" font-family="Helvetica,sans-Serif" font-size="10.00">boost/log/expressions.hpp</text>
</a>
</g>
</g>
<!-- Node24&#45;&gt;Node26 -->
<g id="edge44" class="edge">
<title>Node24&#45;&gt;Node26</title>
<path fill="none" stroke="#63b8ff" d="M465.7,-66.13C412.01,-57.44 326.08,-43.3 252,-30 246.8,-29.07 241.39,-28.07 235.98,-27.06"/>
<polygon fill="#63b8ff" stroke="#63b8ff" points="236.88,-23.67 226.41,-25.26 235.59,-30.55 236.88,-23.67"/>
</g>
<!-- Node27 -->
<g id="node27" class="node">
<title>Node27</title>
<g id="a_node27"><a xlink:title=" ">
<polygon fill="#e0e0e0" stroke="#999999" points="362.5,-24.5 261.5,-24.5 261.5,-5.5 362.5,-5.5 362.5,-24.5"/>
<text text-anchor="middle" x="312" y="-12.5" font-family="Helvetica,sans-Serif" font-size="10.00">boost/log/trivial.hpp</text>
</a>
</g>
</g>
<!-- Node24&#45;&gt;Node27 -->
<g id="edge45" class="edge">
<title>Node24&#45;&gt;Node27</title>
<path fill="none" stroke="#63b8ff" d="M486.71,-65.62C451.4,-55.59 393.75,-39.22 354.41,-28.04"/>
<polygon fill="#63b8ff" stroke="#63b8ff" points="355.61,-24.75 345.04,-25.38 353.7,-31.48 355.61,-24.75"/>
</g>
<!-- Node28 -->
<g id="node28" class="node">
<title>Node28</title>
<g id="a_node28"><a xlink:title=" ">
<polygon fill="#e0e0e0" stroke="#999999" points="489.5,-30 380.5,-30 380.5,0 489.5,0 489.5,-30"/>
<text text-anchor="start" x="388.5" y="-18" font-family="Helvetica,sans-Serif" font-size="10.00">boost/log/utility/setup</text>
<text text-anchor="middle" x="435" y="-7" font-family="Helvetica,sans-Serif" font-size="10.00">/console.hpp</text>
</a>
</g>
</g>
<!-- Node24&#45;&gt;Node28 -->
<g id="edge46" class="edge">
<title>Node24&#45;&gt;Node28</title>
<path fill="none" stroke="#63b8ff" d="M505.39,-65.62C494.63,-58.03 478.73,-46.82 464.76,-36.98"/>
<polygon fill="#63b8ff" stroke="#63b8ff" points="466.91,-34.21 456.72,-31.31 462.88,-39.93 466.91,-34.21"/>
</g>
<!-- Node29 -->
<g id="node29" class="node">
<title>Node29</title>
<g id="a_node29"><a xlink:title=" ">
<polygon fill="#e0e0e0" stroke="#999999" points="638.5,-30 507.5,-30 507.5,0 638.5,0 638.5,-30"/>
<text text-anchor="start" x="515.5" y="-18" font-family="Helvetica,sans-Serif" font-size="10.00">boost/log/sources/severity</text>
<text text-anchor="middle" x="573" y="-7" font-family="Helvetica,sans-Serif" font-size="10.00">_channel_logger.hpp</text>
</a>
</g>
</g>
<!-- Node24&#45;&gt;Node29 -->
<g id="edge47" class="edge">
<title>Node24&#45;&gt;Node29</title>
<path fill="none" stroke="#63b8ff" d="M526.12,-65.87C532.89,-58.67 542.85,-48.07 551.85,-38.49"/>
<polygon fill="#63b8ff" stroke="#63b8ff" points="554.39,-40.9 558.69,-31.22 549.29,-36.11 554.39,-40.9"/>
</g>
<!-- Node30 -->
<g id="node30" class="node">
<title>Node30</title>
<g id="a_node30"><a xlink:title=" ">
<polygon fill="#e0e0e0" stroke="#999999" points="769.5,-30 656.5,-30 656.5,0 769.5,0 769.5,-30"/>
<text text-anchor="start" x="664.5" y="-18" font-family="Helvetica,sans-Serif" font-size="10.00">boost/log/support/date</text>
<text text-anchor="middle" x="713" y="-7" font-family="Helvetica,sans-Serif" font-size="10.00">_time.hpp</text>
</a>
</g>
</g>
<!-- Node24&#45;&gt;Node30 -->
<g id="edge48" class="edge">
<title>Node24&#45;&gt;Node30</title>
<path fill="none" stroke="#63b8ff" d="M547.62,-65.62C575.81,-57.16 619.04,-44.19 654.23,-33.63"/>
<polygon fill="#63b8ff" stroke="#63b8ff" points="654.85,-37.1 663.42,-30.87 652.83,-30.4 654.85,-37.1"/>
</g>
<!-- Node31 -->
<g id="node31" class="node">
<title>Node31</title>
<g id="a_node31"><a xlink:title=" ">
<polygon fill="#e0e0e0" stroke="#999999" points="908.5,-30 787.5,-30 787.5,0 908.5,0 908.5,-30"/>
<text text-anchor="start" x="795.5" y="-18" font-family="Helvetica,sans-Serif" font-size="10.00">boost/log/utility/setup</text>
<text text-anchor="middle" x="848" y="-7" font-family="Helvetica,sans-Serif" font-size="10.00">/common_attributes.hpp</text>
</a>
</g>
</g>
<!-- Node24&#45;&gt;Node31 -->
<g id="edge49" class="edge">
<title>Node24&#45;&gt;Node31</title>
<path fill="none" stroke="#63b8ff" d="M570.37,-65.98C620.57,-57.71 698.76,-44.57 776.37,-30.27"/>
<polygon fill="#63b8ff" stroke="#63b8ff" points="776.63,-33.78 785.83,-28.52 775.36,-26.9 776.63,-33.78"/>
</g>
</g>
</svg>
