<?xml version="1.0" encoding="UTF-8" standalone="no"?>
<!DOCTYPE svg PUBLIC "-//W3C//DTD SVG 1.1//EN"
 "http://www.w3.org/Graphics/SVG/1.1/DTD/svg11.dtd">
<!-- Generated by graphviz version 7.0.5 (20221223.1930)
 -->
<!-- Title: UioAxiDmaIf.cpp Pages: 1 -->
<svg width="1705pt" height="368pt"
 viewBox="0.00 0.00 1704.65 368.00" xmlns="http://www.w3.org/2000/svg" xmlns:xlink="http://www.w3.org/1999/xlink">
<g id="graph0" class="graph" transform="scale(1 1) rotate(0) translate(4 364)">
<title>UioAxiDmaIf.cpp</title>
<!-- Node1 -->
<g id="node1" class="node">
<title>Node1</title>
<g id="a_node1"><a xlink:title=" ">
<polygon fill="#999999" stroke="#666666" points="1000.15,-360 911.15,-360 911.15,-341 1000.15,-341 1000.15,-360"/>
<text text-anchor="middle" x="955.65" y="-348" font-family="Helvetica,sans-Serif" font-size="10.00">UioAxiDmaIf.cpp</text>
</a>
</g>
</g>
<!-- Node2 -->
<g id="node2" class="node">
<title>Node2</title>
<g id="a_node2"><a xlink:href="_uio_axi_dma_if_8hpp.html" target="_top" xlink:title=" ">
<polygon fill="white" stroke="#666666" points="727.65,-305 603.65,-305 603.65,-286 727.65,-286 727.65,-305"/>
<text text-anchor="middle" x="665.65" y="-293" font-family="Helvetica,sans-Serif" font-size="10.00">udmaio/UioAxiDmaIf.hpp</text>
</a>
</g>
</g>
<!-- Node1&#45;&gt;Node2 -->
<g id="edge1" class="edge">
<title>Node1&#45;&gt;Node2</title>
<path fill="none" stroke="#63b8ff" d="M910.65,-341.28C860.94,-332.19 780.65,-317.52 725.63,-307.46"/>
<polygon fill="#63b8ff" stroke="#63b8ff" points="726.58,-304.08 716.12,-305.72 725.33,-310.96 726.58,-304.08"/>
</g>
<!-- Node27 -->
<g id="node27" class="node">
<title>Node27</title>
<g id="a_node27"><a xlink:title=" ">
<polygon fill="#e0e0e0" stroke="#999999" points="711.15,-24.5 652.15,-24.5 652.15,-5.5 711.15,-5.5 711.15,-24.5"/>
<text text-anchor="middle" x="681.65" y="-12.5" font-family="Helvetica,sans-Serif" font-size="10.00">stdexcept</text>
</a>
</g>
</g>
<!-- Node1&#45;&gt;Node27 -->
<g id="edge49" class="edge">
<title>Node1&#45;&gt;Node27</title>
<path fill="none" stroke="#63b8ff" d="M955.65,-340.54C955.65,-322.03 955.65,-278.25 955.65,-241.5 955.65,-241.5 955.65,-241.5 955.65,-129.5 955.65,-100.04 958.75,-85.47 936.65,-66 863.29,-1.37 814.16,-55.01 719.65,-30 717.91,-29.54 716.14,-29.03 714.36,-28.49"/>
<polygon fill="#63b8ff" stroke="#63b8ff" points="715.56,-25.2 704.96,-25.34 713.33,-31.84 715.56,-25.2"/>
</g>
<!-- Node30 -->
<g id="node30" class="node">
<title>Node30</title>
<g id="a_node30"><a xlink:title=" ">
<polygon fill="#e0e0e0" stroke="#999999" points="1013.15,-305 984.15,-305 984.15,-286 1013.15,-286 1013.15,-305"/>
<text text-anchor="middle" x="998.65" y="-293" font-family="Helvetica,sans-Serif" font-size="10.00">ios</text>
</a>
</g>
</g>
<!-- Node1&#45;&gt;Node30 -->
<g id="edge48" class="edge">
<title>Node1&#45;&gt;Node30</title>
<path fill="none" stroke="#63b8ff" d="M962.75,-340.75C968.57,-333.58 976.98,-323.2 984.21,-314.3"/>
<polygon fill="#63b8ff" stroke="#63b8ff" points="986.86,-316.59 990.44,-306.62 981.42,-312.18 986.86,-316.59"/>
</g>
<!-- Node3 -->
<g id="node3" class="node">
<title>Node3</title>
<g id="a_node3"><a xlink:href="_reg_accessor_8hpp.html" target="_top" xlink:title=" ">
<polygon fill="white" stroke="#666666" points="650.15,-250 557.15,-250 557.15,-231 650.15,-231 650.15,-250"/>
<text text-anchor="middle" x="603.65" y="-238" font-family="Helvetica,sans-Serif" font-size="10.00">RegAccessor.hpp</text>
</a>
</g>
</g>
<!-- Node2&#45;&gt;Node3 -->
<g id="edge2" class="edge">
<title>Node2&#45;&gt;Node3</title>
<path fill="none" stroke="#63b8ff" d="M655.13,-285.51C646.26,-277.93 633.34,-266.88 622.66,-257.75"/>
<polygon fill="#63b8ff" stroke="#63b8ff" points="625.04,-255.18 615.16,-251.34 620.49,-260.5 625.04,-255.18"/>
</g>
<!-- Node5 -->
<g id="node5" class="node">
<title>Node5</title>
<g id="a_node5"><a xlink:href="_uio_if_8hpp.html" target="_top" xlink:title=" ">
<polygon fill="white" stroke="#666666" points="573.65,-195 483.65,-195 483.65,-176 573.65,-176 573.65,-195"/>
<text text-anchor="middle" x="528.65" y="-183" font-family="Helvetica,sans-Serif" font-size="10.00">udmaio/UioIf.hpp</text>
</a>
</g>
</g>
<!-- Node2&#45;&gt;Node5 -->
<g id="edge45" class="edge">
<title>Node2&#45;&gt;Node5</title>
<path fill="none" stroke="#63b8ff" d="M613.02,-285.55C590.15,-279.17 564.75,-268.34 547.65,-250 536.59,-238.14 531.95,-220.11 530.01,-206.28"/>
<polygon fill="#63b8ff" stroke="#63b8ff" points="533.52,-206.17 529.04,-196.57 526.56,-206.87 533.52,-206.17"/>
</g>
<!-- Node29 -->
<g id="node29" class="node">
<title>Node29</title>
<g id="a_node29"><a xlink:href="_axi_dma_8hpp.html" target="_top" xlink:title=" ">
<polygon fill="white" stroke="#666666" points="784.65,-250 668.65,-250 668.65,-231 784.65,-231 784.65,-250"/>
<text text-anchor="middle" x="726.65" y="-238" font-family="Helvetica,sans-Serif" font-size="10.00">udmaio/rdl/AxiDma.hpp</text>
</a>
</g>
</g>
<!-- Node2&#45;&gt;Node29 -->
<g id="edge46" class="edge">
<title>Node2&#45;&gt;Node29</title>
<path fill="none" stroke="#63b8ff" d="M676,-285.51C684.73,-277.93 697.44,-266.88 707.95,-257.75"/>
<polygon fill="#63b8ff" stroke="#63b8ff" points="710.06,-260.55 715.31,-251.35 705.47,-255.27 710.06,-260.55"/>
</g>
<!-- Node4 -->
<g id="node4" class="node">
<title>Node4</title>
<g id="a_node4"><a xlink:title=" ">
<polygon fill="#e0e0e0" stroke="#999999" points="693.65,-195 647.65,-195 647.65,-176 693.65,-176 693.65,-195"/>
<text text-anchor="middle" x="670.65" y="-183" font-family="Helvetica,sans-Serif" font-size="10.00">cstdint</text>
</a>
</g>
</g>
<!-- Node3&#45;&gt;Node4 -->
<g id="edge3" class="edge">
<title>Node3&#45;&gt;Node4</title>
<path fill="none" stroke="#63b8ff" d="M615.01,-230.51C624.7,-222.85 638.85,-211.66 650.45,-202.47"/>
<polygon fill="#63b8ff" stroke="#63b8ff" points="652.59,-205.25 658.26,-196.3 648.25,-199.76 652.59,-205.25"/>
</g>
<!-- Node3&#45;&gt;Node5 -->
<g id="edge4" class="edge">
<title>Node3&#45;&gt;Node5</title>
<path fill="none" stroke="#63b8ff" d="M590.93,-230.51C579.87,-222.7 563.61,-211.21 550.48,-201.93"/>
<polygon fill="#63b8ff" stroke="#63b8ff" points="552.61,-199.14 542.42,-196.23 548.57,-204.86 552.61,-199.14"/>
</g>
<!-- Node6 -->
<g id="node6" class="node">
<title>Node6</title>
<g id="a_node6"><a xlink:title=" ">
<polygon fill="#e0e0e0" stroke="#999999" points="859.65,-85 799.65,-85 799.65,-66 859.65,-66 859.65,-85"/>
<text text-anchor="middle" x="829.65" y="-73" font-family="Helvetica,sans-Serif" font-size="10.00">filesystem</text>
</a>
</g>
</g>
<!-- Node5&#45;&gt;Node6 -->
<g id="edge5" class="edge">
<title>Node5&#45;&gt;Node6</title>
<path fill="none" stroke="#63b8ff" d="M554.68,-175.6C580.58,-166.7 621.42,-152.59 656.65,-140 704.77,-122.81 760.18,-102.35 795.06,-89.39"/>
<polygon fill="#63b8ff" stroke="#63b8ff" points="796.06,-92.76 804.21,-85.99 793.62,-86.2 796.06,-92.76"/>
</g>
<!-- Node7 -->
<g id="node7" class="node">
<title>Node7</title>
<g id="a_node7"><a xlink:title=" ">
<polygon fill="#e0e0e0" stroke="#999999" points="927.65,-85 877.65,-85 877.65,-66 927.65,-66 927.65,-85"/>
<text text-anchor="middle" x="902.65" y="-73" font-family="Helvetica,sans-Serif" font-size="10.00">fstream</text>
</a>
</g>
</g>
<!-- Node5&#45;&gt;Node7 -->
<g id="edge6" class="edge">
<title>Node5&#45;&gt;Node7</title>
<path fill="none" stroke="#63b8ff" d="M564.38,-175.57C598.67,-166.88 651.86,-153.11 697.65,-140 757.07,-122.98 825.57,-101.35 866.43,-88.24"/>
<polygon fill="#63b8ff" stroke="#63b8ff" points="867.3,-91.63 875.75,-85.24 865.15,-84.97 867.3,-91.63"/>
</g>
<!-- Node8 -->
<g id="node8" class="node">
<title>Node8</title>
<g id="a_node8"><a xlink:title=" ">
<polygon fill="#e0e0e0" stroke="#999999" points="479.65,-24.5 425.65,-24.5 425.65,-5.5 479.65,-5.5 479.65,-24.5"/>
<text text-anchor="middle" x="452.65" y="-12.5" font-family="Helvetica,sans-Serif" font-size="10.00">iostream</text>
</a>
</g>
</g>
<!-- Node5&#45;&gt;Node8 -->
<g id="edge7" class="edge">
<title>Node5&#45;&gt;Node8</title>
<path fill="none" stroke="#63b8ff" d="M483.18,-183.91C380.94,-181.98 136.06,-173.85 61.65,-140 29.31,-125.29 17.68,-117.64 3.65,-85 0.31,-77.24 -1.98,-72.29 3.65,-66 30.84,-35.61 310.22,-21.6 414.06,-17.41"/>
<polygon fill="#63b8ff" stroke="#63b8ff" points="413.89,-20.92 423.75,-17.03 413.62,-13.92 413.89,-20.92"/>
</g>
<!-- Node9 -->
<g id="node9" class="node">
<title>Node9</title>
<g id="a_node9"><a xlink:title=" ">
<polygon fill="#e0e0e0" stroke="#999999" points="549.15,-24.5 498.15,-24.5 498.15,-5.5 549.15,-5.5 549.15,-24.5"/>
<text text-anchor="middle" x="523.65" y="-12.5" font-family="Helvetica,sans-Serif" font-size="10.00">memory</text>
</a>
</g>
</g>
<!-- Node5&#45;&gt;Node9 -->
<g id="edge8" class="edge">
<title>Node5&#45;&gt;Node9</title>
<path fill="none" stroke="#63b8ff" d="M483.44,-181.58C346.33,-171.9 -51.5,-137.36 14.65,-66 50.56,-27.26 437.2,-41.95 488.65,-30 490.28,-29.62 491.94,-29.18 493.6,-28.69"/>
<polygon fill="#63b8ff" stroke="#63b8ff" points="494.65,-32.03 502.94,-25.43 492.34,-25.42 494.65,-32.03"/>
</g>
<!-- Node10 -->
<g id="node10" class="node">
<title>Node10</title>
<g id="a_node10"><a xlink:title=" ">
<polygon fill="#e0e0e0" stroke="#999999" points="770.15,-24.5 729.15,-24.5 729.15,-5.5 770.15,-5.5 770.15,-24.5"/>
<text text-anchor="middle" x="749.65" y="-12.5" font-family="Helvetica,sans-Serif" font-size="10.00">string</text>
</a>
</g>
</g>
<!-- Node5&#45;&gt;Node10 -->
<g id="edge9" class="edge">
<title>Node5&#45;&gt;Node10</title>
<path fill="none" stroke="#63b8ff" d="M573.82,-180.51C670.65,-170.91 892.94,-142.9 936.65,-85 966.65,-45.26 925.05,-81.28 778.65,-30 778.15,-29.82 777.64,-29.64 777.14,-29.46"/>
<polygon fill="#63b8ff" stroke="#63b8ff" points="778.52,-26.24 767.94,-25.54 775.77,-32.68 778.52,-26.24"/>
</g>
<!-- Node11 -->
<g id="node11" class="node">
<title>Node11</title>
<g id="a_node11"><a xlink:title=" ">
<polygon fill="#e0e0e0" stroke="#999999" points="161.15,-85 24.15,-85 24.15,-66 161.15,-66 161.15,-85"/>
<text text-anchor="middle" x="92.65" y="-73" font-family="Helvetica,sans-Serif" font-size="10.00">boost/core/noncopyable.hpp</text>
</a>
</g>
</g>
<!-- Node5&#45;&gt;Node11 -->
<g id="edge10" class="edge">
<title>Node5&#45;&gt;Node11</title>
<path fill="none" stroke="#63b8ff" d="M483.33,-176.23C439.46,-167.97 371.19,-154.46 312.65,-140 248.74,-124.22 175.47,-102.29 131.68,-88.76"/>
<polygon fill="#63b8ff" stroke="#63b8ff" points="132.97,-85.5 122.38,-85.88 130.9,-92.18 132.97,-85.5"/>
</g>
<!-- Node12 -->
<g id="node12" class="node">
<title>Node12</title>
<g id="a_node12"><a xlink:title=" ">
<polygon fill="#e0e0e0" stroke="#999999" points="222.15,-85 179.15,-85 179.15,-66 222.15,-66 222.15,-85"/>
<text text-anchor="middle" x="200.65" y="-73" font-family="Helvetica,sans-Serif" font-size="10.00">fcntl.h</text>
</a>
</g>
</g>
<!-- Node5&#45;&gt;Node12 -->
<g id="edge11" class="edge">
<title>Node5&#45;&gt;Node12</title>
<path fill="none" stroke="#63b8ff" d="M492,-175.52C458.96,-167.17 409.19,-153.94 366.65,-140 319.23,-124.46 265.48,-103.21 232.32,-89.67"/>
<polygon fill="#63b8ff" stroke="#63b8ff" points="233.88,-86.53 223.3,-85.97 231.22,-93 233.88,-86.53"/>
</g>
<!-- Node13 -->
<g id="node13" class="node">
<title>Node13</title>
<g id="a_node13"><a xlink:title=" ">
<polygon fill="#e0e0e0" stroke="#999999" points="309.15,-85 240.15,-85 240.15,-66 309.15,-66 309.15,-85"/>
<text text-anchor="middle" x="274.65" y="-73" font-family="Helvetica,sans-Serif" font-size="10.00">sys/mman.h</text>
</a>
</g>
</g>
<!-- Node5&#45;&gt;Node13 -->
<g id="edge12" class="edge">
<title>Node5&#45;&gt;Node13</title>
<path fill="none" stroke="#63b8ff" d="M504.02,-175.58C480.42,-166.91 443.86,-153.15 412.65,-140 374.24,-123.82 330.67,-103.42 302.94,-90.17"/>
<polygon fill="#63b8ff" stroke="#63b8ff" points="304.68,-87.13 294.15,-85.96 301.65,-93.44 304.68,-87.13"/>
</g>
<!-- Node14 -->
<g id="node14" class="node">
<title>Node14</title>
<g id="a_node14"><a xlink:title=" ">
<polygon fill="#e0e0e0" stroke="#999999" points="386.15,-85 327.15,-85 327.15,-66 386.15,-66 386.15,-85"/>
<text text-anchor="middle" x="356.65" y="-73" font-family="Helvetica,sans-Serif" font-size="10.00">sys/stat.h</text>
</a>
</g>
</g>
<!-- Node5&#45;&gt;Node14 -->
<g id="edge13" class="edge">
<title>Node5&#45;&gt;Node14</title>
<path fill="none" stroke="#63b8ff" d="M509.38,-175.62C491.63,-167.18 464.77,-153.77 442.65,-140 418.94,-125.24 393.39,-105.9 376.36,-92.45"/>
<polygon fill="#63b8ff" stroke="#63b8ff" points="378.57,-89.74 368.57,-86.24 374.21,-95.21 378.57,-89.74"/>
</g>
<!-- Node15 -->
<g id="node15" class="node">
<title>Node15</title>
<g id="a_node15"><a xlink:title=" ">
<polygon fill="#e0e0e0" stroke="#999999" points="469.15,-85 404.15,-85 404.15,-66 469.15,-66 469.15,-85"/>
<text text-anchor="middle" x="436.65" y="-73" font-family="Helvetica,sans-Serif" font-size="10.00">sys/types.h</text>
</a>
</g>
</g>
<!-- Node5&#45;&gt;Node15 -->
<g id="edge14" class="edge">
<title>Node5&#45;&gt;Node15</title>
<path fill="none" stroke="#63b8ff" d="M505.82,-175.53C489.92,-168.19 469.37,-156.35 456.65,-140 446.86,-127.42 441.81,-109.96 439.24,-96.54"/>
<polygon fill="#63b8ff" stroke="#63b8ff" points="442.7,-96.02 437.69,-86.68 435.79,-97.11 442.7,-96.02"/>
</g>
<!-- Node16 -->
<g id="node16" class="node">
<title>Node16</title>
<g id="a_node16"><a xlink:title=" ">
<polygon fill="#e0e0e0" stroke="#999999" points="781.65,-85 731.65,-85 731.65,-66 781.65,-66 781.65,-85"/>
<text text-anchor="middle" x="756.65" y="-73" font-family="Helvetica,sans-Serif" font-size="10.00">unistd.h</text>
</a>
</g>
</g>
<!-- Node5&#45;&gt;Node16 -->
<g id="edge15" class="edge">
<title>Node5&#45;&gt;Node16</title>
<path fill="none" stroke="#63b8ff" d="M547.31,-175.66C586.97,-156.87 679.93,-112.84 727.49,-90.31"/>
<polygon fill="#63b8ff" stroke="#63b8ff" points="728.83,-93.55 736.37,-86.11 725.83,-87.23 728.83,-93.55"/>
</g>
<!-- Node17 -->
<g id="node17" class="node">
<title>Node17</title>
<g id="a_node17"><a xlink:href="_hw_accessor_8hpp.html" target="_top" xlink:title=" ">
<polygon fill="white" stroke="#666666" points="591.15,-140 466.15,-140 466.15,-121 591.15,-121 591.15,-140"/>
<text text-anchor="middle" x="528.65" y="-128" font-family="Helvetica,sans-Serif" font-size="10.00">udmaio/HwAccessor.hpp</text>
</a>
</g>
</g>
<!-- Node5&#45;&gt;Node17 -->
<g id="edge16" class="edge">
<title>Node5&#45;&gt;Node17</title>
<path fill="none" stroke="#63b8ff" d="M528.65,-175.75C528.65,-169.27 528.65,-160.16 528.65,-151.9"/>
<polygon fill="#63b8ff" stroke="#63b8ff" points="532.15,-151.96 528.65,-141.96 525.15,-151.96 532.15,-151.96"/>
</g>
<!-- Node18 -->
<g id="node18" class="node">
<title>Node18</title>
<g id="a_node18"><a xlink:href="_logging_8hpp.html" target="_top" xlink:title=" ">
<polygon fill="white" stroke="#666666" points="1148.65,-85 1044.65,-85 1044.65,-66 1148.65,-66 1148.65,-85"/>
<text text-anchor="middle" x="1096.65" y="-73" font-family="Helvetica,sans-Serif" font-size="10.00">udmaio/Logging.hpp</text>
</a>
</g>
</g>
<!-- Node5&#45;&gt;Node18 -->
<g id="edge43" class="edge">
<title>Node5&#45;&gt;Node18</title>
<path fill="none" stroke="#63b8ff" d="M573.99,-180.97C664.51,-173.69 864.71,-156.29 931.65,-140 981.22,-127.94 1035.98,-104.77 1068.29,-90"/>
<polygon fill="#63b8ff" stroke="#63b8ff" points="1069.37,-93.36 1076.97,-85.98 1066.43,-87.01 1069.37,-93.36"/>
</g>
<!-- Node26 -->
<g id="node26" class="node">
<title>Node26</title>
<g id="a_node26"><a xlink:href="_uio_config_8hpp.html" target="_top" xlink:title=" ">
<polygon fill="white" stroke="#666666" points="675.15,-85 564.15,-85 564.15,-66 675.15,-66 675.15,-85"/>
<text text-anchor="middle" x="619.65" y="-73" font-family="Helvetica,sans-Serif" font-size="10.00">udmaio/UioConfig.hpp</text>
</a>
</g>
</g>
<!-- Node5&#45;&gt;Node26 -->
<g id="edge44" class="edge">
<title>Node5&#45;&gt;Node26</title>
<path fill="none" stroke="#63b8ff" d="M550.83,-175.61C566.55,-168.25 587.02,-156.34 599.65,-140 609.4,-127.39 614.45,-109.93 617.03,-96.52"/>
<polygon fill="#63b8ff" stroke="#63b8ff" points="620.48,-97.1 618.59,-86.67 613.57,-96 620.48,-97.1"/>
</g>
<!-- Node17&#45;&gt;Node6 -->
<g id="edge17" class="edge">
<title>Node17&#45;&gt;Node6</title>
<path fill="none" stroke="#63b8ff" d="M586.03,-120.54C636.71,-112.45 712.89,-99.85 788.32,-85.38"/>
<polygon fill="#63b8ff" stroke="#63b8ff" points="788.8,-88.85 797.96,-83.52 787.48,-81.98 788.8,-88.85"/>
</g>
<!-- Node17&#45;&gt;Node7 -->
<g id="edge18" class="edge">
<title>Node17&#45;&gt;Node7</title>
<path fill="none" stroke="#63b8ff" d="M591.34,-123.48C657.42,-116.64 764.71,-104.15 866.38,-85.23"/>
<polygon fill="#63b8ff" stroke="#63b8ff" points="866.81,-88.71 875.98,-83.42 865.51,-81.83 866.81,-88.71"/>
</g>
<!-- Node17&#45;&gt;Node8 -->
<g id="edge19" class="edge">
<title>Node17&#45;&gt;Node8</title>
<path fill="none" stroke="#63b8ff" d="M522.69,-120.59C510.25,-102.03 481.36,-58.87 464.83,-34.19"/>
<polygon fill="#63b8ff" stroke="#63b8ff" points="467.9,-32.48 459.43,-26.12 462.08,-36.38 467.9,-32.48"/>
</g>
<!-- Node17&#45;&gt;Node9 -->
<g id="edge20" class="edge">
<title>Node17&#45;&gt;Node9</title>
<path fill="none" stroke="#63b8ff" d="M528.26,-120.59C527.46,-102.53 525.64,-61.17 524.54,-36.21"/>
<polygon fill="#63b8ff" stroke="#63b8ff" points="528.04,-36.21 524.11,-26.38 521.05,-36.52 528.04,-36.21"/>
</g>
<!-- Node17&#45;&gt;Node10 -->
<g id="edge21" class="edge">
<title>Node17&#45;&gt;Node10</title>
<path fill="none" stroke="#63b8ff" d="M586.08,-120.53C616.64,-113.96 653.94,-102.96 683.65,-85 705.53,-71.78 725,-49.45 737.02,-33.78"/>
<polygon fill="#63b8ff" stroke="#63b8ff" points="739.77,-35.95 742.9,-25.82 734.14,-31.79 739.77,-35.95"/>
</g>
<!-- Node17&#45;&gt;Node11 -->
<g id="edge22" class="edge">
<title>Node17&#45;&gt;Node11</title>
<path fill="none" stroke="#63b8ff" d="M465.72,-121.85C388.38,-112.45 257.07,-96.49 172.65,-86.23"/>
<polygon fill="#63b8ff" stroke="#63b8ff" points="173.17,-82.76 162.82,-85.03 172.32,-89.71 173.17,-82.76"/>
</g>
<!-- Node17&#45;&gt;Node12 -->
<g id="edge23" class="edge">
<title>Node17&#45;&gt;Node12</title>
<path fill="none" stroke="#63b8ff" d="M465.73,-122.48C407.67,-115.46 318.9,-103.39 233.7,-85.44"/>
<polygon fill="#63b8ff" stroke="#63b8ff" points="234.51,-82.04 224,-83.36 233.05,-88.88 234.51,-82.04"/>
</g>
<!-- Node17&#45;&gt;Node13 -->
<g id="edge24" class="edge">
<title>Node17&#45;&gt;Node13</title>
<path fill="none" stroke="#63b8ff" d="M485.56,-120.51C439.67,-110.93 367.31,-95.83 320.41,-86.05"/>
<polygon fill="#63b8ff" stroke="#63b8ff" points="321.35,-82.67 310.84,-84.05 319.92,-89.52 321.35,-82.67"/>
</g>
<!-- Node17&#45;&gt;Node14 -->
<g id="edge25" class="edge">
<title>Node17&#45;&gt;Node14</title>
<path fill="none" stroke="#63b8ff" d="M499.47,-120.51C471.09,-111.76 427.77,-98.42 396.28,-88.71"/>
<polygon fill="#63b8ff" stroke="#63b8ff" points="397.72,-85.49 387.13,-85.89 395.65,-92.18 397.72,-85.49"/>
</g>
<!-- Node17&#45;&gt;Node15 -->
<g id="edge26" class="edge">
<title>Node17&#45;&gt;Node15</title>
<path fill="none" stroke="#63b8ff" d="M513.04,-120.51C498.95,-112.39 477.96,-100.3 461.55,-90.85"/>
<polygon fill="#63b8ff" stroke="#63b8ff" points="463.75,-88.07 453.34,-86.11 460.25,-94.14 463.75,-88.07"/>
</g>
<!-- Node17&#45;&gt;Node16 -->
<g id="edge27" class="edge">
<title>Node17&#45;&gt;Node16</title>
<path fill="none" stroke="#63b8ff" d="M567.33,-120.51C610.06,-110.57 678.36,-94.7 720.19,-84.98"/>
<polygon fill="#63b8ff" stroke="#63b8ff" points="720.82,-88.42 729.77,-82.75 719.23,-81.6 720.82,-88.42"/>
</g>
<!-- Node17&#45;&gt;Node18 -->
<g id="edge28" class="edge">
<title>Node17&#45;&gt;Node18</title>
<path fill="none" stroke="#63b8ff" d="M591.61,-123.63C700.68,-113.45 923.6,-92.65 1033.09,-82.43"/>
<polygon fill="#63b8ff" stroke="#63b8ff" points="1033.14,-85.94 1042.78,-81.53 1032.49,-78.97 1033.14,-85.94"/>
</g>
<!-- Node17&#45;&gt;Node26 -->
<g id="edge37" class="edge">
<title>Node17&#45;&gt;Node26</title>
<path fill="none" stroke="#63b8ff" d="M544.09,-120.51C557.9,-112.47 578.39,-100.53 594.56,-91.11"/>
<polygon fill="#63b8ff" stroke="#63b8ff" points="596.25,-94.18 603.13,-86.12 592.73,-88.13 596.25,-94.18"/>
</g>
<!-- Node18&#45;&gt;Node10 -->
<g id="edge29" class="edge">
<title>Node18&#45;&gt;Node10</title>
<path fill="none" stroke="#63b8ff" d="M1044.47,-69.18C967.44,-61 827.2,-44.72 778.65,-30 777.85,-29.76 777.04,-29.49 776.23,-29.21"/>
<polygon fill="#63b8ff" stroke="#63b8ff" points="777.83,-26.09 767.25,-25.49 775.15,-32.56 777.83,-26.09"/>
</g>
<!-- Node19 -->
<g id="node19" class="node">
<title>Node19</title>
<g id="a_node19"><a xlink:title=" ">
<polygon fill="#e0e0e0" stroke="#999999" points="1696.65,-24.5 1600.65,-24.5 1600.65,-5.5 1696.65,-5.5 1696.65,-24.5"/>
<text text-anchor="middle" x="1648.65" y="-12.5" font-family="Helvetica,sans-Serif" font-size="10.00">boost/log/core.hpp</text>
</a>
</g>
</g>
<!-- Node18&#45;&gt;Node19 -->
<g id="edge30" class="edge">
<title>Node18&#45;&gt;Node19</title>
<path fill="none" stroke="#63b8ff" d="M1149,-72.4C1239.69,-68.18 1431.65,-56.68 1591.65,-30 1595.94,-29.28 1600.38,-28.42 1604.8,-27.47"/>
<polygon fill="#63b8ff" stroke="#63b8ff" points="1605.22,-30.97 1614.19,-25.33 1603.67,-24.14 1605.22,-30.97"/>
</g>
<!-- Node20 -->
<g id="node20" class="node">
<title>Node20</title>
<g id="a_node20"><a xlink:title=" ">
<polygon fill="#e0e0e0" stroke="#999999" points="917.15,-24.5 788.15,-24.5 788.15,-5.5 917.15,-5.5 917.15,-24.5"/>
<text text-anchor="middle" x="852.65" y="-12.5" font-family="Helvetica,sans-Serif" font-size="10.00">boost/log/expressions.hpp</text>
</a>
</g>
</g>
<!-- Node18&#45;&gt;Node20 -->
<g id="edge31" class="edge">
<title>Node18&#45;&gt;Node20</title>
<path fill="none" stroke="#63b8ff" d="M1059.33,-65.55C1016.9,-55.38 947.52,-38.74 900.98,-27.59"/>
<polygon fill="#63b8ff" stroke="#63b8ff" points="901.98,-24.23 891.44,-25.3 900.35,-31.04 901.98,-24.23"/>
</g>
<!-- Node21 -->
<g id="node21" class="node">
<title>Node21</title>
<g id="a_node21"><a xlink:title=" ">
<polygon fill="#e0e0e0" stroke="#999999" points="1036.15,-24.5 935.15,-24.5 935.15,-5.5 1036.15,-5.5 1036.15,-24.5"/>
<text text-anchor="middle" x="985.65" y="-12.5" font-family="Helvetica,sans-Serif" font-size="10.00">boost/log/trivial.hpp</text>
</a>
</g>
</g>
<!-- Node18&#45;&gt;Node21 -->
<g id="edge32" class="edge">
<title>Node18&#45;&gt;Node21</title>
<path fill="none" stroke="#63b8ff" d="M1079.79,-65.62C1062.02,-56.25 1033.77,-41.36 1012.85,-30.33"/>
<polygon fill="#63b8ff" stroke="#63b8ff" points="1014.48,-27.24 1004.01,-25.67 1011.22,-33.43 1014.48,-27.24"/>
</g>
<!-- Node22 -->
<g id="node22" class="node">
<title>Node22</title>
<g id="a_node22"><a xlink:title=" ">
<polygon fill="#e0e0e0" stroke="#999999" points="1163.15,-30 1054.15,-30 1054.15,0 1163.15,0 1163.15,-30"/>
<text text-anchor="start" x="1062.15" y="-18" font-family="Helvetica,sans-Serif" font-size="10.00">boost/log/utility/setup</text>
<text text-anchor="middle" x="1108.65" y="-7" font-family="Helvetica,sans-Serif" font-size="10.00">/console.hpp</text>
</a>
</g>
</g>
<!-- Node18&#45;&gt;Node22 -->
<g id="edge33" class="edge">
<title>Node18&#45;&gt;Node22</title>
<path fill="none" stroke="#63b8ff" d="M1098.42,-65.87C1099.76,-59.33 1101.68,-49.99 1103.49,-41.15"/>
<polygon fill="#63b8ff" stroke="#63b8ff" points="1106.87,-42.1 1105.45,-31.6 1100.01,-40.69 1106.87,-42.1"/>
</g>
<!-- Node23 -->
<g id="node23" class="node">
<title>Node23</title>
<g id="a_node23"><a xlink:title=" ">
<polygon fill="#e0e0e0" stroke="#999999" points="1443.15,-30 1312.15,-30 1312.15,0 1443.15,0 1443.15,-30"/>
<text text-anchor="start" x="1320.15" y="-18" font-family="Helvetica,sans-Serif" font-size="10.00">boost/log/sources/severity</text>
<text text-anchor="middle" x="1377.65" y="-7" font-family="Helvetica,sans-Serif" font-size="10.00">_channel_logger.hpp</text>
</a>
</g>
</g>
<!-- Node18&#45;&gt;Node23 -->
<g id="edge34" class="edge">
<title>Node18&#45;&gt;Node23</title>
<path fill="none" stroke="#63b8ff" d="M1139.63,-65.55C1182.32,-56.67 1248.69,-42.85 1300.52,-32.06"/>
<polygon fill="#63b8ff" stroke="#63b8ff" points="1301.12,-35.51 1310.2,-30.04 1299.69,-28.65 1301.12,-35.51"/>
</g>
<!-- Node24 -->
<g id="node24" class="node">
<title>Node24</title>
<g id="a_node24"><a xlink:title=" ">
<polygon fill="#e0e0e0" stroke="#999999" points="1294.15,-30 1181.15,-30 1181.15,0 1294.15,0 1294.15,-30"/>
<text text-anchor="start" x="1189.15" y="-18" font-family="Helvetica,sans-Serif" font-size="10.00">boost/log/support/date</text>
<text text-anchor="middle" x="1237.65" y="-7" font-family="Helvetica,sans-Serif" font-size="10.00">_time.hpp</text>
</a>
</g>
</g>
<!-- Node18&#45;&gt;Node24 -->
<g id="edge35" class="edge">
<title>Node18&#45;&gt;Node24</title>
<path fill="none" stroke="#63b8ff" d="M1118.06,-65.62C1137.75,-57.45 1167.57,-45.08 1192.5,-34.73"/>
<polygon fill="#63b8ff" stroke="#63b8ff" points="1193.55,-38.08 1201.45,-31.02 1190.87,-31.62 1193.55,-38.08"/>
</g>
<!-- Node25 -->
<g id="node25" class="node">
<title>Node25</title>
<g id="a_node25"><a xlink:title=" ">
<polygon fill="#e0e0e0" stroke="#999999" points="1582.15,-30 1461.15,-30 1461.15,0 1582.15,0 1582.15,-30"/>
<text text-anchor="start" x="1469.15" y="-18" font-family="Helvetica,sans-Serif" font-size="10.00">boost/log/utility/setup</text>
<text text-anchor="middle" x="1521.65" y="-7" font-family="Helvetica,sans-Serif" font-size="10.00">/common_attributes.hpp</text>
</a>
</g>
</g>
<!-- Node18&#45;&gt;Node25 -->
<g id="edge36" class="edge">
<title>Node18&#45;&gt;Node25</title>
<path fill="none" stroke="#63b8ff" d="M1149.01,-69.21C1216.34,-62.13 1337.13,-48.5 1449.54,-30.44"/>
<polygon fill="#63b8ff" stroke="#63b8ff" points="1449.94,-33.92 1459.25,-28.86 1448.82,-27.01 1449.94,-33.92"/>
</g>
<!-- Node26&#45;&gt;Node8 -->
<g id="edge38" class="edge">
<title>Node26&#45;&gt;Node8</title>
<path fill="none" stroke="#63b8ff" d="M592.18,-65.55C565.59,-56.8 524.2,-42.94 488.65,-30 487.68,-29.65 486.71,-29.29 485.72,-28.92"/>
<polygon fill="#63b8ff" stroke="#63b8ff" points="487.07,-25.69 476.48,-25.42 484.59,-32.24 487.07,-25.69"/>
</g>
<!-- Node26&#45;&gt;Node9 -->
<g id="edge39" class="edge">
<title>Node26&#45;&gt;Node9</title>
<path fill="none" stroke="#63b8ff" d="M605.07,-65.62C589.99,-56.42 566.16,-41.91 548.17,-30.94"/>
<polygon fill="#63b8ff" stroke="#63b8ff" points="550.02,-27.97 539.66,-25.76 546.38,-33.95 550.02,-27.97"/>
</g>
<!-- Node26&#45;&gt;Node10 -->
<g id="edge41" class="edge">
<title>Node26&#45;&gt;Node10</title>
<path fill="none" stroke="#63b8ff" d="M640,-65.57C660.24,-56.66 692.16,-42.53 719.65,-30 719.87,-29.9 720.09,-29.8 720.32,-29.69"/>
<polygon fill="#63b8ff" stroke="#63b8ff" points="721.64,-32.94 729.25,-25.57 718.71,-26.58 721.64,-32.94"/>
</g>
<!-- Node26&#45;&gt;Node27 -->
<g id="edge40" class="edge">
<title>Node26&#45;&gt;Node27</title>
<path fill="none" stroke="#63b8ff" d="M629.07,-65.62C638.26,-56.94 652.49,-43.52 663.82,-32.82"/>
<polygon fill="#63b8ff" stroke="#63b8ff" points="666.17,-35.42 671.04,-26.01 661.37,-30.32 666.17,-35.42"/>
</g>
<!-- Node28 -->
<g id="node28" class="node">
<title>Node28</title>
<g id="a_node28"><a xlink:title=" ">
<polygon fill="#e0e0e0" stroke="#999999" points="633.65,-24.5 567.65,-24.5 567.65,-5.5 633.65,-5.5 633.65,-24.5"/>
<text text-anchor="middle" x="600.65" y="-12.5" font-family="Helvetica,sans-Serif" font-size="10.00">string_view</text>
</a>
</g>
</g>
<!-- Node26&#45;&gt;Node28 -->
<g id="edge42" class="edge">
<title>Node26&#45;&gt;Node28</title>
<path fill="none" stroke="#63b8ff" d="M616.85,-65.87C614.26,-57.92 610.34,-45.83 607,-35.55"/>
<polygon fill="#63b8ff" stroke="#63b8ff" points="610.35,-34.54 603.93,-26.11 603.69,-36.7 610.35,-34.54"/>
</g>
<!-- Node29&#45;&gt;Node4 -->
<g id="edge47" class="edge">
<title>Node29&#45;&gt;Node4</title>
<path fill="none" stroke="#63b8ff" d="M717.15,-230.51C709.22,-223 697.7,-212.1 688.11,-203.03"/>
<polygon fill="#63b8ff" stroke="#63b8ff" points="690.78,-200.73 681.11,-196.4 685.96,-205.81 690.78,-200.73"/>
</g>
</g>
</svg>
