<?xml version="1.0" encoding="UTF-8" standalone="no"?>
<!DOCTYPE svg PUBLIC "-//W3C//DTD SVG 1.1//EN"
 "http://www.w3.org/Graphics/SVG/1.1/DTD/svg11.dtd">
<!-- Generated by graphviz version 7.0.5 (20221223.1930)
 -->
<!-- Title: UioAxiVdmaIf.hpp Pages: 1 -->
<svg width="1700pt" height="313pt"
 viewBox="0.00 0.00 1700.16 313.00" xmlns="http://www.w3.org/2000/svg" xmlns:xlink="http://www.w3.org/1999/xlink">
<g id="graph0" class="graph" transform="scale(1 1) rotate(0) translate(4 309)">
<title>UioAxiVdmaIf.hpp</title>
<!-- Node1 -->
<g id="node1" class="node">
<title>Node1</title>
<g id="a_node1"><a xlink:title=" ">
<polygon fill="#999999" stroke="#666666" points="771.16,-305 676.16,-305 676.16,-286 771.16,-286 771.16,-305"/>
<text text-anchor="middle" x="723.66" y="-293" font-family="Helvetica,sans-Serif" font-size="10.00">UioAxiVdmaIf.hpp</text>
</a>
</g>
</g>
<!-- Node2 -->
<g id="node2" class="node">
<title>Node2</title>
<g id="a_node2"><a xlink:href="_reg_accessor_8hpp.html" target="_top" xlink:title=" ">
<polygon fill="white" stroke="#666666" points="716.66,-250 588.66,-250 588.66,-231 716.66,-231 716.66,-250"/>
<text text-anchor="middle" x="652.66" y="-238" font-family="Helvetica,sans-Serif" font-size="10.00">udmaio/RegAccessor.hpp</text>
</a>
</g>
</g>
<!-- Node1&#45;&gt;Node2 -->
<g id="edge1" class="edge">
<title>Node1&#45;&gt;Node2</title>
<path fill="none" stroke="#63b8ff" d="M711.61,-285.51C701.25,-277.77 686.05,-266.43 673.69,-257.2"/>
<polygon fill="#63b8ff" stroke="#63b8ff" points="675.84,-254.44 665.73,-251.26 671.65,-260.05 675.84,-254.44"/>
</g>
<!-- Node4 -->
<g id="node4" class="node">
<title>Node4</title>
<g id="a_node4"><a xlink:href="_uio_if_8hpp.html" target="_top" xlink:title=" ">
<polygon fill="white" stroke="#666666" points="585.66,-195 495.66,-195 495.66,-176 585.66,-176 585.66,-195"/>
<text text-anchor="middle" x="540.66" y="-183" font-family="Helvetica,sans-Serif" font-size="10.00">udmaio/UioIf.hpp</text>
</a>
</g>
</g>
<!-- Node1&#45;&gt;Node4 -->
<g id="edge44" class="edge">
<title>Node1&#45;&gt;Node4</title>
<path fill="none" stroke="#63b8ff" d="M675.93,-288.52C645.8,-282.76 607.46,-271.57 579.66,-250 564.96,-238.6 554.47,-219.98 548.1,-205.84"/>
<polygon fill="#63b8ff" stroke="#63b8ff" points="551.36,-204.57 544.29,-196.68 544.9,-207.26 551.36,-204.57"/>
</g>
<!-- Node28 -->
<g id="node28" class="node">
<title>Node28</title>
<g id="a_node28"><a xlink:href="_frame_format_8hpp.html" target="_top" xlink:title=" ">
<polygon fill="white" stroke="#666666" points="1010.66,-250 882.66,-250 882.66,-231 1010.66,-231 1010.66,-250"/>
<text text-anchor="middle" x="946.66" y="-238" font-family="Helvetica,sans-Serif" font-size="10.00">udmaio/FrameFormat.hpp</text>
</a>
</g>
</g>
<!-- Node1&#45;&gt;Node28 -->
<g id="edge45" class="edge">
<title>Node1&#45;&gt;Node28</title>
<path fill="none" stroke="#63b8ff" d="M761.48,-285.51C799.08,-276.57 856.9,-262.83 897.92,-253.08"/>
<polygon fill="#63b8ff" stroke="#63b8ff" points="898.62,-256.51 907.54,-250.8 897,-249.7 898.62,-256.51"/>
</g>
<!-- Node30 -->
<g id="node30" class="node">
<title>Node30</title>
<g id="a_node30"><a xlink:href="_axi_vdma_8hpp.html" target="_top" xlink:title=" ">
<polygon fill="white" stroke="#666666" points="856.66,-250 734.66,-250 734.66,-231 856.66,-231 856.66,-250"/>
<text text-anchor="middle" x="795.66" y="-238" font-family="Helvetica,sans-Serif" font-size="10.00">udmaio/rdl/AxiVdma.hpp</text>
</a>
</g>
</g>
<!-- Node1&#45;&gt;Node30 -->
<g id="edge50" class="edge">
<title>Node1&#45;&gt;Node30</title>
<path fill="none" stroke="#63b8ff" d="M735.87,-285.51C746.48,-277.7 762.09,-266.21 774.7,-256.93"/>
<polygon fill="#63b8ff" stroke="#63b8ff" points="776.42,-260 782.4,-251.26 772.27,-254.36 776.42,-260"/>
</g>
<!-- Node3 -->
<g id="node3" class="node">
<title>Node3</title>
<g id="a_node3"><a xlink:title=" ">
<polygon fill="#e0e0e0" stroke="#999999" points="818.66,-195 772.66,-195 772.66,-176 818.66,-176 818.66,-195"/>
<text text-anchor="middle" x="795.66" y="-183" font-family="Helvetica,sans-Serif" font-size="10.00">cstdint</text>
</a>
</g>
</g>
<!-- Node2&#45;&gt;Node3 -->
<g id="edge2" class="edge">
<title>Node2&#45;&gt;Node3</title>
<path fill="none" stroke="#63b8ff" d="M676.91,-230.51C700.2,-221.88 735.59,-208.76 761.68,-199.09"/>
<polygon fill="#63b8ff" stroke="#63b8ff" points="762.65,-202.47 770.81,-195.71 760.22,-195.9 762.65,-202.47"/>
</g>
<!-- Node2&#45;&gt;Node4 -->
<g id="edge3" class="edge">
<title>Node2&#45;&gt;Node4</title>
<path fill="none" stroke="#63b8ff" d="M633.66,-230.51C616.09,-222.2 589.74,-209.73 569.57,-200.18"/>
<polygon fill="#63b8ff" stroke="#63b8ff" points="571.28,-197.12 560.74,-196.01 568.28,-203.45 571.28,-197.12"/>
</g>
<!-- Node5 -->
<g id="node5" class="node">
<title>Node5</title>
<g id="a_node5"><a xlink:title=" ">
<polygon fill="#e0e0e0" stroke="#999999" points="859.66,-85 799.66,-85 799.66,-66 859.66,-66 859.66,-85"/>
<text text-anchor="middle" x="829.66" y="-73" font-family="Helvetica,sans-Serif" font-size="10.00">filesystem</text>
</a>
</g>
</g>
<!-- Node4&#45;&gt;Node5 -->
<g id="edge4" class="edge">
<title>Node4&#45;&gt;Node5</title>
<path fill="none" stroke="#63b8ff" d="M565.68,-175.6C590.56,-166.71 629.82,-152.59 663.66,-140 709.64,-122.89 762.55,-102.53 796.04,-89.57"/>
<polygon fill="#63b8ff" stroke="#63b8ff" points="797.14,-92.89 805.2,-86.01 794.61,-86.37 797.14,-92.89"/>
</g>
<!-- Node6 -->
<g id="node6" class="node">
<title>Node6</title>
<g id="a_node6"><a xlink:title=" ">
<polygon fill="#e0e0e0" stroke="#999999" points="927.66,-85 877.66,-85 877.66,-66 927.66,-66 927.66,-85"/>
<text text-anchor="middle" x="902.66" y="-73" font-family="Helvetica,sans-Serif" font-size="10.00">fstream</text>
</a>
</g>
</g>
<!-- Node4&#45;&gt;Node6 -->
<g id="edge5" class="edge">
<title>Node4&#45;&gt;Node6</title>
<path fill="none" stroke="#63b8ff" d="M575.12,-175.55C608.19,-166.84 659.49,-153.07 703.66,-140 760.91,-123.06 826.82,-101.64 866.58,-88.52"/>
<polygon fill="#63b8ff" stroke="#63b8ff" points="867.49,-91.91 875.88,-85.44 865.29,-85.26 867.49,-91.91"/>
</g>
<!-- Node7 -->
<g id="node7" class="node">
<title>Node7</title>
<g id="a_node7"><a xlink:title=" ">
<polygon fill="#e0e0e0" stroke="#999999" points="474.66,-24.5 420.66,-24.5 420.66,-5.5 474.66,-5.5 474.66,-24.5"/>
<text text-anchor="middle" x="447.66" y="-12.5" font-family="Helvetica,sans-Serif" font-size="10.00">iostream</text>
</a>
</g>
</g>
<!-- Node4&#45;&gt;Node7 -->
<g id="edge6" class="edge">
<title>Node4&#45;&gt;Node7</title>
<path fill="none" stroke="#63b8ff" d="M495.3,-183.98C391.42,-182.2 139.27,-174.36 62.66,-140 29.95,-125.33 17.95,-117.87 3.66,-85 0.29,-77.26 -1.97,-72.3 3.66,-66 30.47,-35.99 305.6,-21.78 408.82,-17.47"/>
<polygon fill="#63b8ff" stroke="#63b8ff" points="408.89,-20.97 418.73,-17.07 408.6,-13.98 408.89,-20.97"/>
</g>
<!-- Node8 -->
<g id="node8" class="node">
<title>Node8</title>
<g id="a_node8"><a xlink:title=" ">
<polygon fill="#e0e0e0" stroke="#999999" points="544.16,-24.5 493.16,-24.5 493.16,-5.5 544.16,-5.5 544.16,-24.5"/>
<text text-anchor="middle" x="518.66" y="-12.5" font-family="Helvetica,sans-Serif" font-size="10.00">memory</text>
</a>
</g>
</g>
<!-- Node4&#45;&gt;Node8 -->
<g id="edge7" class="edge">
<title>Node4&#45;&gt;Node8</title>
<path fill="none" stroke="#63b8ff" d="M495.39,-181.78C356.04,-172.61 -53.09,-139.14 14.66,-66 50.17,-27.66 432.75,-41.84 483.66,-30 485.29,-29.62 486.95,-29.18 488.61,-28.68"/>
<polygon fill="#63b8ff" stroke="#63b8ff" points="489.66,-32.02 497.94,-25.42 487.35,-25.42 489.66,-32.02"/>
</g>
<!-- Node9 -->
<g id="node9" class="node">
<title>Node9</title>
<g id="a_node9"><a xlink:title=" ">
<polygon fill="#e0e0e0" stroke="#999999" points="765.16,-24.5 724.16,-24.5 724.16,-5.5 765.16,-5.5 765.16,-24.5"/>
<text text-anchor="middle" x="744.66" y="-12.5" font-family="Helvetica,sans-Serif" font-size="10.00">string</text>
</a>
</g>
</g>
<!-- Node4&#45;&gt;Node9 -->
<g id="edge8" class="edge">
<title>Node4&#45;&gt;Node9</title>
<path fill="none" stroke="#63b8ff" d="M585.94,-180.14C680.68,-169.96 894.53,-141.13 936.66,-85 967.18,-44.32 929.18,-82.52 774.66,-30 774.01,-29.78 773.36,-29.55 772.7,-29.31"/>
<polygon fill="#63b8ff" stroke="#63b8ff" points="774.14,-26.12 763.56,-25.53 771.46,-32.58 774.14,-26.12"/>
</g>
<!-- Node10 -->
<g id="node10" class="node">
<title>Node10</title>
<g id="a_node10"><a xlink:title=" ">
<polygon fill="#e0e0e0" stroke="#999999" points="161.16,-85 24.16,-85 24.16,-66 161.16,-66 161.16,-85"/>
<text text-anchor="middle" x="92.66" y="-73" font-family="Helvetica,sans-Serif" font-size="10.00">boost/core/noncopyable.hpp</text>
</a>
</g>
</g>
<!-- Node4&#45;&gt;Node10 -->
<g id="edge9" class="edge">
<title>Node4&#45;&gt;Node10</title>
<path fill="none" stroke="#63b8ff" d="M495.41,-176.88C449.22,-168.82 375.58,-155.19 312.66,-140 248.49,-124.51 175.01,-102.4 131.29,-88.77"/>
<polygon fill="#63b8ff" stroke="#63b8ff" points="132.61,-85.52 122.02,-85.87 130.52,-92.2 132.61,-85.52"/>
</g>
<!-- Node11 -->
<g id="node11" class="node">
<title>Node11</title>
<g id="a_node11"><a xlink:title=" ">
<polygon fill="#e0e0e0" stroke="#999999" points="222.16,-85 179.16,-85 179.16,-66 222.16,-66 222.16,-85"/>
<text text-anchor="middle" x="200.66" y="-73" font-family="Helvetica,sans-Serif" font-size="10.00">fcntl.h</text>
</a>
</g>
</g>
<!-- Node4&#45;&gt;Node11 -->
<g id="edge10" class="edge">
<title>Node4&#45;&gt;Node11</title>
<path fill="none" stroke="#63b8ff" d="M500.2,-175.55C464.69,-167.36 411.82,-154.36 366.66,-140 318.97,-124.84 265.09,-103.4 231.99,-89.73"/>
<polygon fill="#63b8ff" stroke="#63b8ff" points="233.58,-86.6 223,-85.99 230.89,-93.06 233.58,-86.6"/>
</g>
<!-- Node12 -->
<g id="node12" class="node">
<title>Node12</title>
<g id="a_node12"><a xlink:title=" ">
<polygon fill="#e0e0e0" stroke="#999999" points="309.16,-85 240.16,-85 240.16,-66 309.16,-66 309.16,-85"/>
<text text-anchor="middle" x="274.66" y="-73" font-family="Helvetica,sans-Serif" font-size="10.00">sys/mman.h</text>
</a>
</g>
</g>
<!-- Node4&#45;&gt;Node12 -->
<g id="edge11" class="edge">
<title>Node4&#45;&gt;Node12</title>
<path fill="none" stroke="#63b8ff" d="M512.4,-175.55C486.27,-167.06 446.48,-153.63 412.66,-140 374,-124.43 330.48,-103.89 302.84,-90.44"/>
<polygon fill="#63b8ff" stroke="#63b8ff" points="304.6,-87.41 294.07,-86.16 301.52,-93.69 304.6,-87.41"/>
</g>
<!-- Node13 -->
<g id="node13" class="node">
<title>Node13</title>
<g id="a_node13"><a xlink:title=" ">
<polygon fill="#e0e0e0" stroke="#999999" points="386.16,-85 327.16,-85 327.16,-66 386.16,-66 386.16,-85"/>
<text text-anchor="middle" x="356.66" y="-73" font-family="Helvetica,sans-Serif" font-size="10.00">sys/stat.h</text>
</a>
</g>
</g>
<!-- Node4&#45;&gt;Node13 -->
<g id="edge12" class="edge">
<title>Node4&#45;&gt;Node13</title>
<path fill="none" stroke="#63b8ff" d="M518.06,-175.65C497.98,-167.43 468.11,-154.34 443.66,-140 419.16,-125.64 393.11,-105.97 375.97,-92.34"/>
<polygon fill="#63b8ff" stroke="#63b8ff" points="378.59,-89.96 368.61,-86.41 374.2,-95.41 378.59,-89.96"/>
</g>
<!-- Node14 -->
<g id="node14" class="node">
<title>Node14</title>
<g id="a_node14"><a xlink:title=" ">
<polygon fill="#e0e0e0" stroke="#999999" points="469.16,-85 404.16,-85 404.16,-66 469.16,-66 469.16,-85"/>
<text text-anchor="middle" x="436.66" y="-73" font-family="Helvetica,sans-Serif" font-size="10.00">sys/types.h</text>
</a>
</g>
</g>
<!-- Node4&#45;&gt;Node14 -->
<g id="edge13" class="edge">
<title>Node4&#45;&gt;Node14</title>
<path fill="none" stroke="#63b8ff" d="M513.28,-175.56C495.49,-168.48 473.01,-156.92 458.66,-140 448.14,-127.6 442.55,-109.89 439.65,-96.32"/>
<polygon fill="#63b8ff" stroke="#63b8ff" points="443.15,-96 437.93,-86.78 436.26,-97.24 443.15,-96"/>
</g>
<!-- Node15 -->
<g id="node15" class="node">
<title>Node15</title>
<g id="a_node15"><a xlink:title=" ">
<polygon fill="#e0e0e0" stroke="#999999" points="781.66,-85 731.66,-85 731.66,-66 781.66,-66 781.66,-85"/>
<text text-anchor="middle" x="756.66" y="-73" font-family="Helvetica,sans-Serif" font-size="10.00">unistd.h</text>
</a>
</g>
</g>
<!-- Node4&#45;&gt;Node15 -->
<g id="edge14" class="edge">
<title>Node4&#45;&gt;Node15</title>
<path fill="none" stroke="#63b8ff" d="M558.33,-175.66C595.75,-156.95 683.23,-113.21 728.46,-90.6"/>
<polygon fill="#63b8ff" stroke="#63b8ff" points="730,-93.74 737.38,-86.14 726.87,-87.48 730,-93.74"/>
</g>
<!-- Node16 -->
<g id="node16" class="node">
<title>Node16</title>
<g id="a_node16"><a xlink:href="_hw_accessor_8hpp.html" target="_top" xlink:title=" ">
<polygon fill="white" stroke="#666666" points="593.16,-140 468.16,-140 468.16,-121 593.16,-121 593.16,-140"/>
<text text-anchor="middle" x="530.66" y="-128" font-family="Helvetica,sans-Serif" font-size="10.00">udmaio/HwAccessor.hpp</text>
</a>
</g>
</g>
<!-- Node4&#45;&gt;Node16 -->
<g id="edge15" class="edge">
<title>Node4&#45;&gt;Node16</title>
<path fill="none" stroke="#63b8ff" d="M539,-175.75C537.77,-169.19 536.02,-159.95 534.45,-151.6"/>
<polygon fill="#63b8ff" stroke="#63b8ff" points="537.92,-151.11 532.62,-141.93 531.04,-152.4 537.92,-151.11"/>
</g>
<!-- Node17 -->
<g id="node17" class="node">
<title>Node17</title>
<g id="a_node17"><a xlink:href="_logging_8hpp.html" target="_top" xlink:title=" ">
<polygon fill="white" stroke="#666666" points="1136.66,-85 1032.66,-85 1032.66,-66 1136.66,-66 1136.66,-85"/>
<text text-anchor="middle" x="1084.66" y="-73" font-family="Helvetica,sans-Serif" font-size="10.00">udmaio/Logging.hpp</text>
</a>
</g>
</g>
<!-- Node4&#45;&gt;Node17 -->
<g id="edge42" class="edge">
<title>Node4&#45;&gt;Node17</title>
<path fill="none" stroke="#63b8ff" d="M586.12,-184.02C661.52,-182.22 816.62,-174.25 942.66,-140 985.22,-128.43 1031.27,-105.78 1059.03,-90.89"/>
<polygon fill="#63b8ff" stroke="#63b8ff" points="1060.64,-94 1067.74,-86.14 1057.29,-87.86 1060.64,-94"/>
</g>
<!-- Node25 -->
<g id="node25" class="node">
<title>Node25</title>
<g id="a_node25"><a xlink:href="_uio_config_8hpp.html" target="_top" xlink:title=" ">
<polygon fill="white" stroke="#666666" points="675.16,-85 564.16,-85 564.16,-66 675.16,-66 675.16,-85"/>
<text text-anchor="middle" x="619.66" y="-73" font-family="Helvetica,sans-Serif" font-size="10.00">udmaio/UioConfig.hpp</text>
</a>
</g>
</g>
<!-- Node4&#45;&gt;Node25 -->
<g id="edge43" class="edge">
<title>Node4&#45;&gt;Node25</title>
<path fill="none" stroke="#63b8ff" d="M558.71,-175.61C572.41,-167.97 590.72,-155.7 601.66,-140 610.59,-127.17 615.11,-109.99 617.39,-96.73"/>
<polygon fill="#63b8ff" stroke="#63b8ff" points="620.83,-97.38 618.75,-86.99 613.9,-96.41 620.83,-97.38"/>
</g>
<!-- Node16&#45;&gt;Node5 -->
<g id="edge16" class="edge">
<title>Node16&#45;&gt;Node5</title>
<path fill="none" stroke="#63b8ff" d="M587.6,-120.51C637.89,-112.4 713.48,-99.8 788.4,-85.37"/>
<polygon fill="#63b8ff" stroke="#63b8ff" points="788.81,-88.85 797.96,-83.51 787.48,-81.98 788.81,-88.85"/>
</g>
<!-- Node16&#45;&gt;Node6 -->
<g id="edge17" class="edge">
<title>Node16&#45;&gt;Node6</title>
<path fill="none" stroke="#63b8ff" d="M593.6,-123.38C659.28,-116.52 765.43,-104.05 866.17,-85.27"/>
<polygon fill="#63b8ff" stroke="#63b8ff" points="866.81,-88.71 875.99,-83.42 865.51,-81.84 866.81,-88.71"/>
</g>
<!-- Node16&#45;&gt;Node7 -->
<g id="edge18" class="edge">
<title>Node16&#45;&gt;Node7</title>
<path fill="none" stroke="#63b8ff" d="M524.14,-120.59C510.51,-101.95 478.72,-58.49 460.71,-33.86"/>
<polygon fill="#63b8ff" stroke="#63b8ff" points="463.76,-32.09 455.03,-26.09 458.11,-36.22 463.76,-32.09"/>
</g>
<!-- Node16&#45;&gt;Node8 -->
<g id="edge19" class="edge">
<title>Node16&#45;&gt;Node8</title>
<path fill="none" stroke="#63b8ff" d="M529.71,-120.59C527.8,-102.53 523.43,-61.17 520.79,-36.21"/>
<polygon fill="#63b8ff" stroke="#63b8ff" points="524.28,-35.95 519.75,-26.37 517.32,-36.68 524.28,-35.95"/>
</g>
<!-- Node16&#45;&gt;Node9 -->
<g id="edge20" class="edge">
<title>Node16&#45;&gt;Node9</title>
<path fill="none" stroke="#63b8ff" d="M589.1,-120.54C619.07,-114.02 655.15,-103.07 683.66,-85 704.48,-71.8 722.35,-49.46 733.27,-33.79"/>
<polygon fill="#63b8ff" stroke="#63b8ff" points="735.92,-36.13 738.56,-25.87 730.1,-32.24 735.92,-36.13"/>
</g>
<!-- Node16&#45;&gt;Node10 -->
<g id="edge21" class="edge">
<title>Node16&#45;&gt;Node10</title>
<path fill="none" stroke="#63b8ff" d="M467.9,-121.91C390.22,-112.51 257.81,-96.48 172.84,-86.2"/>
<polygon fill="#63b8ff" stroke="#63b8ff" points="173.28,-82.73 162.93,-85 172.44,-89.68 173.28,-82.73"/>
</g>
<!-- Node16&#45;&gt;Node11 -->
<g id="edge22" class="edge">
<title>Node16&#45;&gt;Node11</title>
<path fill="none" stroke="#63b8ff" d="M467.89,-122.58C409.4,-115.59 319.6,-103.5 233.55,-85.4"/>
<polygon fill="#63b8ff" stroke="#63b8ff" points="234.52,-82.03 224.01,-83.37 233.06,-88.88 234.52,-82.03"/>
</g>
<!-- Node16&#45;&gt;Node12 -->
<g id="edge23" class="edge">
<title>Node16&#45;&gt;Node12</title>
<path fill="none" stroke="#63b8ff" d="M487.23,-120.51C440.97,-110.93 368.04,-95.83 320.78,-86.05"/>
<polygon fill="#63b8ff" stroke="#63b8ff" points="321.63,-82.65 311.12,-84.05 320.21,-89.5 321.63,-82.65"/>
</g>
<!-- Node16&#45;&gt;Node13 -->
<g id="edge24" class="edge">
<title>Node16&#45;&gt;Node13</title>
<path fill="none" stroke="#63b8ff" d="M501.14,-120.51C472.43,-111.76 428.61,-98.42 396.75,-88.71"/>
<polygon fill="#63b8ff" stroke="#63b8ff" points="398.06,-85.45 387.47,-85.89 396.02,-92.15 398.06,-85.45"/>
</g>
<!-- Node16&#45;&gt;Node14 -->
<g id="edge25" class="edge">
<title>Node16&#45;&gt;Node14</title>
<path fill="none" stroke="#63b8ff" d="M514.71,-120.51C500.31,-112.39 478.87,-100.3 462.1,-90.85"/>
<polygon fill="#63b8ff" stroke="#63b8ff" points="464.11,-87.96 453.68,-86.1 460.68,-94.06 464.11,-87.96"/>
</g>
<!-- Node16&#45;&gt;Node15 -->
<g id="edge26" class="edge">
<title>Node16&#45;&gt;Node15</title>
<path fill="none" stroke="#63b8ff" d="M568.99,-120.51C611.35,-110.57 679.05,-94.7 720.51,-84.98"/>
<polygon fill="#63b8ff" stroke="#63b8ff" points="721.06,-88.44 730,-82.75 719.46,-81.63 721.06,-88.44"/>
</g>
<!-- Node16&#45;&gt;Node17 -->
<g id="edge27" class="edge">
<title>Node16&#45;&gt;Node17</title>
<path fill="none" stroke="#63b8ff" d="M593.4,-123.5C699.72,-113.33 914.15,-92.81 1021.06,-82.58"/>
<polygon fill="#63b8ff" stroke="#63b8ff" points="1021.17,-86.09 1030.8,-81.65 1020.51,-79.12 1021.17,-86.09"/>
</g>
<!-- Node16&#45;&gt;Node25 -->
<g id="edge36" class="edge">
<title>Node16&#45;&gt;Node25</title>
<path fill="none" stroke="#63b8ff" d="M545.75,-120.51C559.26,-112.47 579.31,-100.53 595.12,-91.11"/>
<polygon fill="#63b8ff" stroke="#63b8ff" points="596.68,-94.26 603.48,-86.13 593.1,-88.24 596.68,-94.26"/>
</g>
<!-- Node17&#45;&gt;Node9 -->
<g id="edge28" class="edge">
<title>Node17&#45;&gt;Node9</title>
<path fill="none" stroke="#63b8ff" d="M1032.23,-67.38C947.06,-55.76 786.85,-33.63 774.66,-30 773.69,-29.71 772.72,-29.4 771.74,-29.06"/>
<polygon fill="#63b8ff" stroke="#63b8ff" points="773.43,-25.97 762.85,-25.46 770.8,-32.46 773.43,-25.97"/>
</g>
<!-- Node18 -->
<g id="node18" class="node">
<title>Node18</title>
<g id="a_node18"><a xlink:title=" ">
<polygon fill="#e0e0e0" stroke="#999999" points="1149.66,-24.5 1053.66,-24.5 1053.66,-5.5 1149.66,-5.5 1149.66,-24.5"/>
<text text-anchor="middle" x="1101.66" y="-12.5" font-family="Helvetica,sans-Serif" font-size="10.00">boost/log/core.hpp</text>
</a>
</g>
</g>
<!-- Node17&#45;&gt;Node18 -->
<g id="edge29" class="edge">
<title>Node17&#45;&gt;Node18</title>
<path fill="none" stroke="#63b8ff" d="M1087.16,-65.87C1089.47,-57.92 1092.99,-45.83 1095.97,-35.55"/>
<polygon fill="#63b8ff" stroke="#63b8ff" points="1099.28,-36.7 1098.71,-26.12 1092.56,-34.75 1099.28,-36.7"/>
</g>
<!-- Node19 -->
<g id="node19" class="node">
<title>Node19</title>
<g id="a_node19"><a xlink:title=" ">
<polygon fill="#e0e0e0" stroke="#999999" points="1297.16,-24.5 1168.16,-24.5 1168.16,-5.5 1297.16,-5.5 1297.16,-24.5"/>
<text text-anchor="middle" x="1232.66" y="-12.5" font-family="Helvetica,sans-Serif" font-size="10.00">boost/log/expressions.hpp</text>
</a>
</g>
</g>
<!-- Node17&#45;&gt;Node19 -->
<g id="edge30" class="edge">
<title>Node17&#45;&gt;Node19</title>
<path fill="none" stroke="#63b8ff" d="M1107.13,-65.62C1131.69,-55.91 1171.28,-40.26 1199.42,-29.14"/>
<polygon fill="#63b8ff" stroke="#63b8ff" points="1200.55,-32.46 1208.56,-25.52 1197.97,-25.95 1200.55,-32.46"/>
</g>
<!-- Node20 -->
<g id="node20" class="node">
<title>Node20</title>
<g id="a_node20"><a xlink:title=" ">
<polygon fill="#e0e0e0" stroke="#999999" points="1416.16,-24.5 1315.16,-24.5 1315.16,-5.5 1416.16,-5.5 1416.16,-24.5"/>
<text text-anchor="middle" x="1365.66" y="-12.5" font-family="Helvetica,sans-Serif" font-size="10.00">boost/log/trivial.hpp</text>
</a>
</g>
</g>
<!-- Node17&#45;&gt;Node20 -->
<g id="edge31" class="edge">
<title>Node17&#45;&gt;Node20</title>
<path fill="none" stroke="#63b8ff" d="M1131.96,-65.52C1176.97,-56.85 1246.56,-43.15 1306.66,-30 1310.25,-29.21 1313.97,-28.38 1317.71,-27.53"/>
<polygon fill="#63b8ff" stroke="#63b8ff" points="1318.45,-30.95 1327.4,-25.28 1316.87,-24.13 1318.45,-30.95"/>
</g>
<!-- Node21 -->
<g id="node21" class="node">
<title>Node21</title>
<g id="a_node21"><a xlink:title=" ">
<polygon fill="#e0e0e0" stroke="#999999" points="1543.16,-30 1434.16,-30 1434.16,0 1543.16,0 1543.16,-30"/>
<text text-anchor="start" x="1442.16" y="-18" font-family="Helvetica,sans-Serif" font-size="10.00">boost/log/utility/setup</text>
<text text-anchor="middle" x="1488.66" y="-7" font-family="Helvetica,sans-Serif" font-size="10.00">/console.hpp</text>
</a>
</g>
</g>
<!-- Node17&#45;&gt;Node21 -->
<g id="edge32" class="edge">
<title>Node17&#45;&gt;Node21</title>
<path fill="none" stroke="#63b8ff" d="M1136.87,-69.15C1201.67,-62.18 1315.79,-48.85 1422.45,-30.48"/>
<polygon fill="#63b8ff" stroke="#63b8ff" points="1423,-33.93 1432.25,-28.77 1421.79,-27.04 1423,-33.93"/>
</g>
<!-- Node22 -->
<g id="node22" class="node">
<title>Node22</title>
<g id="a_node22"><a xlink:title=" ">
<polygon fill="#e0e0e0" stroke="#999999" points="1692.16,-30 1561.16,-30 1561.16,0 1692.16,0 1692.16,-30"/>
<text text-anchor="start" x="1569.16" y="-18" font-family="Helvetica,sans-Serif" font-size="10.00">boost/log/sources/severity</text>
<text text-anchor="middle" x="1626.66" y="-7" font-family="Helvetica,sans-Serif" font-size="10.00">_channel_logger.hpp</text>
</a>
</g>
</g>
<!-- Node17&#45;&gt;Node22 -->
<g id="edge33" class="edge">
<title>Node17&#45;&gt;Node22</title>
<path fill="none" stroke="#63b8ff" d="M1137.13,-71.1C1221.85,-65.25 1394.23,-51.93 1549.77,-30.33"/>
<polygon fill="#63b8ff" stroke="#63b8ff" points="1550.03,-33.83 1559.44,-28.97 1549.05,-26.89 1550.03,-33.83"/>
</g>
<!-- Node23 -->
<g id="node23" class="node">
<title>Node23</title>
<g id="a_node23"><a xlink:title=" ">
<polygon fill="#e0e0e0" stroke="#999999" points="896.16,-30 783.16,-30 783.16,0 896.16,0 896.16,-30"/>
<text text-anchor="start" x="791.16" y="-18" font-family="Helvetica,sans-Serif" font-size="10.00">boost/log/support/date</text>
<text text-anchor="middle" x="839.66" y="-7" font-family="Helvetica,sans-Serif" font-size="10.00">_time.hpp</text>
</a>
</g>
</g>
<!-- Node17&#45;&gt;Node23 -->
<g id="edge34" class="edge">
<title>Node17&#45;&gt;Node23</title>
<path fill="none" stroke="#63b8ff" d="M1047.18,-65.55C1010.11,-56.7 952.53,-42.95 907.43,-32.18"/>
<polygon fill="#63b8ff" stroke="#63b8ff" points="908.26,-28.78 897.72,-29.86 906.63,-35.59 908.26,-28.78"/>
</g>
<!-- Node24 -->
<g id="node24" class="node">
<title>Node24</title>
<g id="a_node24"><a xlink:title=" ">
<polygon fill="#e0e0e0" stroke="#999999" points="1035.16,-30 914.16,-30 914.16,0 1035.16,0 1035.16,-30"/>
<text text-anchor="start" x="922.16" y="-18" font-family="Helvetica,sans-Serif" font-size="10.00">boost/log/utility/setup</text>
<text text-anchor="middle" x="974.66" y="-7" font-family="Helvetica,sans-Serif" font-size="10.00">/common_attributes.hpp</text>
</a>
</g>
</g>
<!-- Node17&#45;&gt;Node24 -->
<g id="edge35" class="edge">
<title>Node17&#45;&gt;Node24</title>
<path fill="none" stroke="#63b8ff" d="M1067.95,-65.62C1053.07,-57.7 1030.78,-45.85 1011.71,-35.71"/>
<polygon fill="#63b8ff" stroke="#63b8ff" points="1013.62,-32.76 1003.14,-31.15 1010.33,-38.94 1013.62,-32.76"/>
</g>
<!-- Node25&#45;&gt;Node7 -->
<g id="edge37" class="edge">
<title>Node25&#45;&gt;Node7</title>
<path fill="none" stroke="#63b8ff" d="M590.85,-65.58C563.21,-56.9 520.38,-43.14 483.66,-30 482.69,-29.65 481.71,-29.3 480.72,-28.94"/>
<polygon fill="#63b8ff" stroke="#63b8ff" points="482.06,-25.7 471.47,-25.46 479.6,-32.26 482.06,-25.7"/>
</g>
<!-- Node25&#45;&gt;Node8 -->
<g id="edge38" class="edge">
<title>Node25&#45;&gt;Node8</title>
<path fill="none" stroke="#63b8ff" d="M604.32,-65.62C588.3,-56.34 562.91,-41.63 543.93,-30.64"/>
<polygon fill="#63b8ff" stroke="#63b8ff" points="545.86,-27.71 535.45,-25.73 542.35,-33.77 545.86,-27.71"/>
</g>
<!-- Node25&#45;&gt;Node9 -->
<g id="edge40" class="edge">
<title>Node25&#45;&gt;Node9</title>
<path fill="none" stroke="#63b8ff" d="M638.64,-65.62C659.01,-56.08 691.64,-40.81 715.32,-29.73"/>
<polygon fill="#63b8ff" stroke="#63b8ff" points="716.55,-33.02 724.12,-25.61 713.58,-26.68 716.55,-33.02"/>
</g>
<!-- Node26 -->
<g id="node26" class="node">
<title>Node26</title>
<g id="a_node26"><a xlink:title=" ">
<polygon fill="#e0e0e0" stroke="#999999" points="621.16,-24.5 562.16,-24.5 562.16,-5.5 621.16,-5.5 621.16,-24.5"/>
<text text-anchor="middle" x="591.66" y="-12.5" font-family="Helvetica,sans-Serif" font-size="10.00">stdexcept</text>
</a>
</g>
</g>
<!-- Node25&#45;&gt;Node26 -->
<g id="edge39" class="edge">
<title>Node25&#45;&gt;Node26</title>
<path fill="none" stroke="#63b8ff" d="M615.52,-65.87C611.64,-57.75 605.68,-45.31 600.69,-34.89"/>
<polygon fill="#63b8ff" stroke="#63b8ff" points="603.93,-33.54 596.46,-26.03 597.62,-36.56 603.93,-33.54"/>
</g>
<!-- Node27 -->
<g id="node27" class="node">
<title>Node27</title>
<g id="a_node27"><a xlink:title=" ">
<polygon fill="#e0e0e0" stroke="#999999" points="705.66,-24.5 639.66,-24.5 639.66,-5.5 705.66,-5.5 705.66,-24.5"/>
<text text-anchor="middle" x="672.66" y="-12.5" font-family="Helvetica,sans-Serif" font-size="10.00">string_view</text>
</a>
</g>
</g>
<!-- Node25&#45;&gt;Node27 -->
<g id="edge41" class="edge">
<title>Node25&#45;&gt;Node27</title>
<path fill="none" stroke="#63b8ff" d="M627.48,-65.87C635.3,-57.23 647.56,-43.7 657.33,-32.92"/>
<polygon fill="#63b8ff" stroke="#63b8ff" points="659.67,-35.55 663.79,-25.79 654.48,-30.85 659.67,-35.55"/>
</g>
<!-- Node28&#45;&gt;Node3 -->
<g id="edge47" class="edge">
<title>Node28&#45;&gt;Node3</title>
<path fill="none" stroke="#63b8ff" d="M921.04,-230.51C895.9,-221.68 857.39,-208.17 829.69,-198.44"/>
<polygon fill="#63b8ff" stroke="#63b8ff" points="830.94,-195.17 820.34,-195.16 828.62,-201.78 830.94,-195.17"/>
</g>
<!-- Node28&#45;&gt;Node9 -->
<g id="edge48" class="edge">
<title>Node28&#45;&gt;Node9</title>
<path fill="none" stroke="#63b8ff" d="M956.26,-230.69C964.53,-222.41 975.86,-209.18 980.66,-195 994.8,-153.19 1002.2,-111.92 954.66,-66 895.97,-9.32 852.17,-55.43 774.66,-30 773.86,-29.74 773.05,-29.46 772.24,-29.17"/>
<polygon fill="#63b8ff" stroke="#63b8ff" points="773.8,-26.02 763.22,-25.44 771.13,-32.49 773.8,-26.02"/>
</g>
<!-- Node28&#45;&gt;Node17 -->
<g id="edge49" class="edge">
<title>Node28&#45;&gt;Node17</title>
<path fill="none" stroke="#63b8ff" d="M966.9,-230.5C982.5,-222.8 1003.83,-210.51 1018.66,-195 1047.04,-165.3 1067.39,-121.05 1077.47,-95.87"/>
<polygon fill="#63b8ff" stroke="#63b8ff" points="1080.71,-97.19 1081.04,-86.6 1074.18,-94.67 1080.71,-97.19"/>
</g>
<!-- Node29 -->
<g id="node29" class="node">
<title>Node29</title>
<g id="a_node29"><a xlink:title=" ">
<polygon fill="#e0e0e0" stroke="#999999" points="971.16,-195 922.16,-195 922.16,-176 971.16,-176 971.16,-195"/>
<text text-anchor="middle" x="946.66" y="-183" font-family="Helvetica,sans-Serif" font-size="10.00">cstddef</text>
</a>
</g>
</g>
<!-- Node28&#45;&gt;Node29 -->
<g id="edge46" class="edge">
<title>Node28&#45;&gt;Node29</title>
<path fill="none" stroke="#63b8ff" d="M946.66,-230.75C946.66,-224.27 946.66,-215.16 946.66,-206.9"/>
<polygon fill="#63b8ff" stroke="#63b8ff" points="950.16,-206.96 946.66,-196.96 943.16,-206.96 950.16,-206.96"/>
</g>
<!-- Node30&#45;&gt;Node3 -->
<g id="edge51" class="edge">
<title>Node30&#45;&gt;Node3</title>
<path fill="none" stroke="#63b8ff" d="M795.66,-230.75C795.66,-224.27 795.66,-215.16 795.66,-206.9"/>
<polygon fill="#63b8ff" stroke="#63b8ff" points="799.16,-206.96 795.66,-196.96 792.16,-206.96 799.16,-206.96"/>
</g>
</g>
</svg>
