<?xml version="1.0" encoding="UTF-8" standalone="no"?>
<!DOCTYPE svg PUBLIC "-//W3C//DTD SVG 1.1//EN"
 "http://www.w3.org/Graphics/SVG/1.1/DTD/svg11.dtd">
<!-- Generated by graphviz version 7.0.5 (20221223.1930)
 -->
<!-- Title: UioIfBase.hpp Pages: 1 -->
<svg width="374pt" height="302pt"
 viewBox="0.00 0.00 373.50 302.00" xmlns="http://www.w3.org/2000/svg" xmlns:xlink="http://www.w3.org/1999/xlink">
<g id="graph0" class="graph" transform="scale(1 1) rotate(0) translate(4 298)">
<title>UioIfBase.hpp</title>
<!-- Node1 -->
<g id="node1" class="node">
<title>Node1</title>
<g id="a_node1"><a xlink:title=" ">
<polygon fill="#999999" stroke="#666666" points="205.5,-294 127.5,-294 127.5,-275 205.5,-275 205.5,-294"/>
<text text-anchor="middle" x="166.5" y="-282" font-family="Helvetica,sans-Serif" font-size="10.00">UioIfBase.hpp</text>
</a>
</g>
</g>
<!-- Node2 -->
<g id="node2" class="node">
<title>Node2</title>
<g id="a_node2"><a xlink:href="_reg_accessor_8hpp.html" target="_top" xlink:title=" ">
<polygon fill="white" stroke="#666666" points="110,-239 17,-239 17,-220 110,-220 110,-239"/>
<text text-anchor="middle" x="63.5" y="-227" font-family="Helvetica,sans-Serif" font-size="10.00">RegAccessor.hpp</text>
</a>
</g>
</g>
<!-- Node1&#45;&gt;Node2 -->
<g id="edge1" class="edge">
<title>Node1&#45;&gt;Node2</title>
<path fill="none" stroke="#63b8ff" d="M138.84,-269.27C120.33,-259.74 96.56,-247.51 80.71,-239.36"/>
<polygon fill="#63b8ff" stroke="#63b8ff" points="137.19,-272.35 147.68,-273.82 140.39,-266.13 137.19,-272.35"/>
</g>
<!-- Node9 -->
<g id="node9" class="node">
<title>Node9</title>
<g id="a_node9"><a xlink:href="_uio_if_8hpp.html" target="_top" xlink:title=" ">
<polygon fill="white" stroke="#666666" points="194.5,-239 138.5,-239 138.5,-220 194.5,-220 194.5,-239"/>
<text text-anchor="middle" x="166.5" y="-227" font-family="Helvetica,sans-Serif" font-size="10.00">UioIf.hpp</text>
</a>
</g>
</g>
<!-- Node1&#45;&gt;Node9 -->
<g id="edge8" class="edge">
<title>Node1&#45;&gt;Node9</title>
<path fill="none" stroke="#63b8ff" d="M166.5,-263.35C166.5,-255.1 166.5,-245.97 166.5,-239.44"/>
<polygon fill="#63b8ff" stroke="#63b8ff" points="163,-263.23 166.5,-273.23 170,-263.23 163,-263.23"/>
</g>
<!-- Node13 -->
<g id="node13" class="node">
<title>Node13</title>
<g id="a_node13"><a xlink:href="_uio_if_base_8cpp.html" target="_top" xlink:title=" ">
<polygon fill="white" stroke="#666666" points="290.5,-239 212.5,-239 212.5,-220 290.5,-220 290.5,-239"/>
<text text-anchor="middle" x="251.5" y="-227" font-family="Helvetica,sans-Serif" font-size="10.00">UioIfBase.cpp</text>
</a>
</g>
</g>
<!-- Node1&#45;&gt;Node13 -->
<g id="edge14" class="edge">
<title>Node1&#45;&gt;Node13</title>
<path fill="none" stroke="#63b8ff" d="M190.62,-268.46C205.69,-259.06 224.59,-247.28 237.29,-239.36"/>
<polygon fill="#63b8ff" stroke="#63b8ff" points="188.84,-265.45 182.2,-273.71 192.54,-271.39 188.84,-265.45"/>
</g>
<!-- Node3 -->
<g id="node3" class="node">
<title>Node3</title>
<g id="a_node3"><a xlink:href="_uio_axi_dma_if_8hpp.html" target="_top" xlink:title=" ">
<polygon fill="white" stroke="#666666" points="89,-184 0,-184 0,-165 89,-165 89,-184"/>
<text text-anchor="middle" x="44.5" y="-172" font-family="Helvetica,sans-Serif" font-size="10.00">UioAxiDmaIf.hpp</text>
</a>
</g>
</g>
<!-- Node2&#45;&gt;Node3 -->
<g id="edge2" class="edge">
<title>Node2&#45;&gt;Node3</title>
<path fill="none" stroke="#63b8ff" d="M56.48,-208.93C53.47,-200.53 50.1,-191.13 47.71,-184.44"/>
<polygon fill="#63b8ff" stroke="#63b8ff" points="53.18,-210.09 59.85,-218.32 59.77,-207.73 53.18,-210.09"/>
</g>
<!-- Node4 -->
<g id="node4" class="node">
<title>Node4</title>
<g id="a_node4"><a xlink:href="_data_handler_abstract_8hpp.html" target="_top" xlink:title=" ">
<polygon fill="white" stroke="#666666" points="239,-129 114,-129 114,-110 239,-110 239,-129"/>
<text text-anchor="middle" x="176.5" y="-117" font-family="Helvetica,sans-Serif" font-size="10.00">DataHandlerAbstract.hpp</text>
</a>
</g>
</g>
<!-- Node3&#45;&gt;Node4 -->
<g id="edge3" class="edge">
<title>Node3&#45;&gt;Node4</title>
<path fill="none" stroke="#63b8ff" d="M77.32,-160.32C101.37,-150.67 133.38,-137.82 154.44,-129.36"/>
<polygon fill="#63b8ff" stroke="#63b8ff" points="76.27,-156.97 68.3,-163.95 78.88,-163.47 76.27,-156.97"/>
</g>
<!-- Node8 -->
<g id="node8" class="node">
<title>Node8</title>
<g id="a_node8"><a xlink:href="_uio_axi_dma_if_8cpp.html" target="_top" xlink:title=" ">
<polygon fill="white" stroke="#666666" points="89,-129 0,-129 0,-110 89,-110 89,-129"/>
<text text-anchor="middle" x="44.5" y="-117" font-family="Helvetica,sans-Serif" font-size="10.00">UioAxiDmaIf.cpp</text>
</a>
</g>
</g>
<!-- Node3&#45;&gt;Node8 -->
<g id="edge7" class="edge">
<title>Node3&#45;&gt;Node8</title>
<path fill="none" stroke="#63b8ff" d="M44.5,-153.35C44.5,-145.1 44.5,-135.97 44.5,-129.44"/>
<polygon fill="#63b8ff" stroke="#63b8ff" points="41,-153.23 44.5,-163.23 48,-153.23 41,-153.23"/>
</g>
<!-- Node5 -->
<g id="node5" class="node">
<title>Node5</title>
<g id="a_node5"><a xlink:href="_data_handler_abstract_8cpp.html" target="_top" xlink:title=" ">
<polygon fill="white" stroke="#666666" points="171,-74 46,-74 46,-55 171,-55 171,-74"/>
<text text-anchor="middle" x="108.5" y="-62" font-family="Helvetica,sans-Serif" font-size="10.00">DataHandlerAbstract.cpp</text>
</a>
</g>
</g>
<!-- Node4&#45;&gt;Node5 -->
<g id="edge4" class="edge">
<title>Node4&#45;&gt;Node5</title>
<path fill="none" stroke="#63b8ff" d="M156.15,-102.64C144.28,-93.39 129.74,-82.05 119.86,-74.36"/>
<polygon fill="#63b8ff" stroke="#63b8ff" points="153.73,-105.19 163.77,-108.58 158.04,-99.67 153.73,-105.19"/>
</g>
<!-- Node6 -->
<g id="node6" class="node">
<title>Node6</title>
<g id="a_node6"><a xlink:href="_data_handler_sync_8hpp.html" target="_top" xlink:title=" ">
<polygon fill="white" stroke="#666666" points="299.5,-74 189.5,-74 189.5,-55 299.5,-55 299.5,-74"/>
<text text-anchor="middle" x="244.5" y="-62" font-family="Helvetica,sans-Serif" font-size="10.00">DataHandlerSync.hpp</text>
</a>
</g>
</g>
<!-- Node4&#45;&gt;Node6 -->
<g id="edge5" class="edge">
<title>Node4&#45;&gt;Node6</title>
<path fill="none" stroke="#63b8ff" d="M196.85,-102.64C208.72,-93.39 223.26,-82.05 233.14,-74.36"/>
<polygon fill="#63b8ff" stroke="#63b8ff" points="194.96,-99.67 189.23,-108.58 199.27,-105.19 194.96,-99.67"/>
</g>
<!-- Node7 -->
<g id="node7" class="node">
<title>Node7</title>
<g id="a_node7"><a xlink:href="_data_handler_sync_8cpp.html" target="_top" xlink:title=" ">
<polygon fill="white" stroke="#666666" points="299.5,-19 189.5,-19 189.5,0 299.5,0 299.5,-19"/>
<text text-anchor="middle" x="244.5" y="-7" font-family="Helvetica,sans-Serif" font-size="10.00">DataHandlerSync.cpp</text>
</a>
</g>
</g>
<!-- Node6&#45;&gt;Node7 -->
<g id="edge6" class="edge">
<title>Node6&#45;&gt;Node7</title>
<path fill="none" stroke="#63b8ff" d="M244.5,-43.35C244.5,-35.1 244.5,-25.97 244.5,-19.44"/>
<polygon fill="#63b8ff" stroke="#63b8ff" points="241,-43.23 244.5,-53.23 248,-43.23 241,-43.23"/>
</g>
<!-- Node9&#45;&gt;Node3 -->
<g id="edge10" class="edge">
<title>Node9&#45;&gt;Node3</title>
<path fill="none" stroke="#63b8ff" d="M135.26,-214.93C113.14,-205.32 84.09,-192.7 64.89,-184.36"/>
<polygon fill="#63b8ff" stroke="#63b8ff" points="133.85,-218.13 144.42,-218.91 136.64,-211.71 133.85,-218.13"/>
</g>
<!-- Node10 -->
<g id="node10" class="node">
<title>Node10</title>
<g id="a_node10"><a xlink:href="_fpga_mem_buffer_over_axi_8hpp.html" target="_top" xlink:title=" ">
<polygon fill="white" stroke="#666666" points="245.5,-184 107.5,-184 107.5,-165 245.5,-165 245.5,-184"/>
<text text-anchor="middle" x="176.5" y="-172" font-family="Helvetica,sans-Serif" font-size="10.00">FpgaMemBufferOverAxi.hpp</text>
</a>
</g>
</g>
<!-- Node9&#45;&gt;Node10 -->
<g id="edge9" class="edge">
<title>Node9&#45;&gt;Node10</title>
<path fill="none" stroke="#63b8ff" d="M170.25,-208.64C171.82,-200.31 173.57,-191.05 174.81,-184.44"/>
<polygon fill="#63b8ff" stroke="#63b8ff" points="166.85,-207.79 168.43,-218.26 173.73,-209.08 166.85,-207.79"/>
</g>
<!-- Node11 -->
<g id="node11" class="node">
<title>Node11</title>
<g id="a_node11"><a xlink:href="_uio_mem_sgdma_8hpp.html" target="_top" xlink:title=" ">
<polygon fill="white" stroke="#666666" points="365.5,-184 263.5,-184 263.5,-165 365.5,-165 365.5,-184"/>
<text text-anchor="middle" x="314.5" y="-172" font-family="Helvetica,sans-Serif" font-size="10.00">UioMemSgdma.hpp</text>
</a>
</g>
</g>
<!-- Node9&#45;&gt;Node11 -->
<g id="edge11" class="edge">
<title>Node9&#45;&gt;Node11</title>
<path fill="none" stroke="#63b8ff" d="M202.21,-215.71C229.29,-206.01 265.83,-192.93 289.76,-184.36"/>
<polygon fill="#63b8ff" stroke="#63b8ff" points="201.27,-212.33 193.03,-219 203.63,-218.92 201.27,-212.33"/>
</g>
<!-- Node11&#45;&gt;Node4 -->
<g id="edge12" class="edge">
<title>Node11&#45;&gt;Node4</title>
<path fill="none" stroke="#63b8ff" d="M280.53,-160.45C255.34,-150.78 221.68,-137.85 199.56,-129.36"/>
<polygon fill="#63b8ff" stroke="#63b8ff" points="279.09,-163.65 289.68,-163.97 281.6,-157.11 279.09,-163.65"/>
</g>
<!-- Node12 -->
<g id="node12" class="node">
<title>Node12</title>
<g id="a_node12"><a xlink:href="_uio_mem_sgdma_8cpp.html" target="_top" xlink:title=" ">
<polygon fill="white" stroke="#666666" points="365.5,-129 263.5,-129 263.5,-110 365.5,-110 365.5,-129"/>
<text text-anchor="middle" x="314.5" y="-117" font-family="Helvetica,sans-Serif" font-size="10.00">UioMemSgdma.cpp</text>
</a>
</g>
</g>
<!-- Node11&#45;&gt;Node12 -->
<g id="edge13" class="edge">
<title>Node11&#45;&gt;Node12</title>
<path fill="none" stroke="#63b8ff" d="M314.5,-153.35C314.5,-145.1 314.5,-135.97 314.5,-129.44"/>
<polygon fill="#63b8ff" stroke="#63b8ff" points="311,-153.23 314.5,-163.23 318,-153.23 311,-153.23"/>
</g>
</g>
</svg>
