<?xml version="1.0" encoding="UTF-8" standalone="no"?>
<!DOCTYPE svg PUBLIC "-//W3C//DTD SVG 1.1//EN"
 "http://www.w3.org/Graphics/SVG/1.1/DTD/svg11.dtd">
<!-- Generated by graphviz version 7.0.5 (20221223.1930)
 -->
<!-- Title: UioConfig.cpp Pages: 1 -->
<svg width="507pt" height="137pt"
 viewBox="0.00 0.00 507.00 137.00" xmlns="http://www.w3.org/2000/svg" xmlns:xlink="http://www.w3.org/1999/xlink">
<g id="graph0" class="graph" transform="scale(1 1) rotate(0) translate(4 133)">
<title>UioConfig.cpp</title>
<!-- Node1 -->
<g id="node1" class="node">
<title>Node1</title>
<g id="a_node1"><a xlink:title=" ">
<polygon fill="#999999" stroke="#666666" points="386.5,-129 309.5,-129 309.5,-110 386.5,-110 386.5,-129"/>
<text text-anchor="middle" x="348" y="-117" font-family="Helvetica,sans-Serif" font-size="10.00">UioConfig.cpp</text>
</a>
</g>
</g>
<!-- Node2 -->
<g id="node2" class="node">
<title>Node2</title>
<g id="a_node2"><a xlink:href="_uio_config_8hpp.html" target="_top" xlink:title=" ">
<polygon fill="white" stroke="#666666" points="226.5,-74 115.5,-74 115.5,-55 226.5,-55 226.5,-74"/>
<text text-anchor="middle" x="171" y="-62" font-family="Helvetica,sans-Serif" font-size="10.00">udmaio/UioConfig.hpp</text>
</a>
</g>
</g>
<!-- Node1&#45;&gt;Node2 -->
<g id="edge1" class="edge">
<title>Node1&#45;&gt;Node2</title>
<path fill="none" stroke="#63b8ff" d="M317.97,-109.51C288.77,-100.76 244.19,-87.42 211.79,-77.71"/>
<polygon fill="#63b8ff" stroke="#63b8ff" points="212.91,-74.4 202.33,-74.88 210.9,-81.1 212.91,-74.4"/>
</g>
<!-- Node8 -->
<g id="node8" class="node">
<title>Node8</title>
<g id="a_node8"><a xlink:title=" ">
<polygon fill="#e0e0e0" stroke="#999999" points="305,-74 245,-74 245,-55 305,-55 305,-74"/>
<text text-anchor="middle" x="275" y="-62" font-family="Helvetica,sans-Serif" font-size="10.00">filesystem</text>
</a>
</g>
</g>
<!-- Node1&#45;&gt;Node8 -->
<g id="edge7" class="edge">
<title>Node1&#45;&gt;Node8</title>
<path fill="none" stroke="#63b8ff" d="M335.62,-109.51C324.85,-101.7 309.03,-90.21 296.25,-80.93"/>
<polygon fill="#63b8ff" stroke="#63b8ff" points="298.57,-78.29 288.43,-75.25 294.46,-83.95 298.57,-78.29"/>
</g>
<!-- Node9 -->
<g id="node9" class="node">
<title>Node9</title>
<g id="a_node9"><a xlink:title=" ">
<polygon fill="#e0e0e0" stroke="#999999" points="373,-74 323,-74 323,-55 373,-55 373,-74"/>
<text text-anchor="middle" x="348" y="-62" font-family="Helvetica,sans-Serif" font-size="10.00">fstream</text>
</a>
</g>
</g>
<!-- Node1&#45;&gt;Node9 -->
<g id="edge8" class="edge">
<title>Node1&#45;&gt;Node9</title>
<path fill="none" stroke="#63b8ff" d="M348,-109.75C348,-103.27 348,-94.16 348,-85.9"/>
<polygon fill="#63b8ff" stroke="#63b8ff" points="351.5,-85.96 348,-75.96 344.5,-85.96 351.5,-85.96"/>
</g>
<!-- Node10 -->
<g id="node10" class="node">
<title>Node10</title>
<g id="a_node10"><a xlink:title=" ">
<polygon fill="#e0e0e0" stroke="#999999" points="431,-74 391,-74 391,-55 431,-55 431,-74"/>
<text text-anchor="middle" x="411" y="-62" font-family="Helvetica,sans-Serif" font-size="10.00">regex</text>
</a>
</g>
</g>
<!-- Node1&#45;&gt;Node10 -->
<g id="edge9" class="edge">
<title>Node1&#45;&gt;Node10</title>
<path fill="none" stroke="#63b8ff" d="M358.69,-109.51C367.7,-101.93 380.83,-90.88 391.68,-81.75"/>
<polygon fill="#63b8ff" stroke="#63b8ff" points="393.91,-84.45 399.31,-75.33 389.41,-79.09 393.91,-84.45"/>
</g>
<!-- Node11 -->
<g id="node11" class="node">
<title>Node11</title>
<g id="a_node11"><a xlink:title=" ">
<polygon fill="#e0e0e0" stroke="#999999" points="499,-74 449,-74 449,-55 499,-55 499,-74"/>
<text text-anchor="middle" x="474" y="-62" font-family="Helvetica,sans-Serif" font-size="10.00">unistd.h</text>
</a>
</g>
</g>
<!-- Node1&#45;&gt;Node11 -->
<g id="edge10" class="edge">
<title>Node1&#45;&gt;Node11</title>
<path fill="none" stroke="#63b8ff" d="M369.37,-109.51C389.41,-101.08 419.6,-88.38 442.41,-78.79"/>
<polygon fill="#63b8ff" stroke="#63b8ff" points="443.69,-82.05 451.55,-74.94 440.97,-75.6 443.69,-82.05"/>
</g>
<!-- Node3 -->
<g id="node3" class="node">
<title>Node3</title>
<g id="a_node3"><a xlink:title=" ">
<polygon fill="#e0e0e0" stroke="#999999" points="54,-19 0,-19 0,0 54,0 54,-19"/>
<text text-anchor="middle" x="27" y="-7" font-family="Helvetica,sans-Serif" font-size="10.00">iostream</text>
</a>
</g>
</g>
<!-- Node2&#45;&gt;Node3 -->
<g id="edge2" class="edge">
<title>Node2&#45;&gt;Node3</title>
<path fill="none" stroke="#63b8ff" d="M146.57,-54.51C123.26,-45.93 87.91,-32.92 61.69,-23.27"/>
<polygon fill="#63b8ff" stroke="#63b8ff" points="63.08,-20.05 52.49,-19.88 60.66,-26.62 63.08,-20.05"/>
</g>
<!-- Node4 -->
<g id="node4" class="node">
<title>Node4</title>
<g id="a_node4"><a xlink:title=" ">
<polygon fill="#e0e0e0" stroke="#999999" points="123.5,-19 72.5,-19 72.5,0 123.5,0 123.5,-19"/>
<text text-anchor="middle" x="98" y="-7" font-family="Helvetica,sans-Serif" font-size="10.00">memory</text>
</a>
</g>
</g>
<!-- Node2&#45;&gt;Node4 -->
<g id="edge3" class="edge">
<title>Node2&#45;&gt;Node4</title>
<path fill="none" stroke="#63b8ff" d="M158.62,-54.51C147.85,-46.7 132.03,-35.21 119.25,-25.93"/>
<polygon fill="#63b8ff" stroke="#63b8ff" points="121.57,-23.29 111.43,-20.25 117.46,-28.95 121.57,-23.29"/>
</g>
<!-- Node5 -->
<g id="node5" class="node">
<title>Node5</title>
<g id="a_node5"><a xlink:title=" ">
<polygon fill="#e0e0e0" stroke="#999999" points="200.5,-19 141.5,-19 141.5,0 200.5,0 200.5,-19"/>
<text text-anchor="middle" x="171" y="-7" font-family="Helvetica,sans-Serif" font-size="10.00">stdexcept</text>
</a>
</g>
</g>
<!-- Node2&#45;&gt;Node5 -->
<g id="edge4" class="edge">
<title>Node2&#45;&gt;Node5</title>
<path fill="none" stroke="#63b8ff" d="M171,-54.75C171,-48.27 171,-39.16 171,-30.9"/>
<polygon fill="#63b8ff" stroke="#63b8ff" points="174.5,-30.96 171,-20.96 167.5,-30.96 174.5,-30.96"/>
</g>
<!-- Node6 -->
<g id="node6" class="node">
<title>Node6</title>
<g id="a_node6"><a xlink:title=" ">
<polygon fill="#e0e0e0" stroke="#999999" points="259.5,-19 218.5,-19 218.5,0 259.5,0 259.5,-19"/>
<text text-anchor="middle" x="239" y="-7" font-family="Helvetica,sans-Serif" font-size="10.00">string</text>
</a>
</g>
</g>
<!-- Node2&#45;&gt;Node6 -->
<g id="edge5" class="edge">
<title>Node2&#45;&gt;Node6</title>
<path fill="none" stroke="#63b8ff" d="M182.54,-54.51C192.46,-46.77 207.01,-35.43 218.86,-26.2"/>
<polygon fill="#63b8ff" stroke="#63b8ff" points="220.71,-29.2 226.44,-20.29 216.4,-23.68 220.71,-29.2"/>
</g>
<!-- Node7 -->
<g id="node7" class="node">
<title>Node7</title>
<g id="a_node7"><a xlink:title=" ">
<polygon fill="#e0e0e0" stroke="#999999" points="344,-19 278,-19 278,0 344,0 344,-19"/>
<text text-anchor="middle" x="311" y="-7" font-family="Helvetica,sans-Serif" font-size="10.00">string_view</text>
</a>
</g>
</g>
<!-- Node2&#45;&gt;Node7 -->
<g id="edge6" class="edge">
<title>Node2&#45;&gt;Node7</title>
<path fill="none" stroke="#63b8ff" d="M194.75,-54.51C217.31,-45.97 251.47,-33.03 276.94,-23.4"/>
<polygon fill="#63b8ff" stroke="#63b8ff" points="278.07,-26.71 286.19,-19.89 275.59,-20.16 278.07,-26.71"/>
</g>
</g>
</svg>
