<?xml version="1.0" encoding="UTF-8" standalone="no"?>
<!DOCTYPE svg PUBLIC "-//W3C//DTD SVG 1.1//EN"
 "http://www.w3.org/Graphics/SVG/1.1/DTD/svg11.dtd">
<!-- Generated by graphviz version 7.0.5 (20221223.1930)
 -->
<!-- Title: UioAxiDmaIf.cpp Pages: 1 -->
<svg width="1885pt" height="313pt"
 viewBox="0.00 0.00 1885.00 313.00" xmlns="http://www.w3.org/2000/svg" xmlns:xlink="http://www.w3.org/1999/xlink">
<g id="graph0" class="graph" transform="scale(1 1) rotate(0) translate(4 309)">
<title>UioAxiDmaIf.cpp</title>
<!-- Node1 -->
<g id="node1" class="node">
<title>Node1</title>
<g id="a_node1"><a xlink:title=" ">
<polygon fill="#999999" stroke="#666666" points="1704,-305 1615,-305 1615,-286 1704,-286 1704,-305"/>
<text text-anchor="middle" x="1659.5" y="-293" font-family="Helvetica,sans-Serif" font-size="10.00">UioAxiDmaIf.cpp</text>
</a>
</g>
</g>
<!-- Node2 -->
<g id="node2" class="node">
<title>Node2</title>
<g id="a_node2"><a xlink:href="_uio_axi_dma_if_8hpp.html" target="_top" xlink:title=" ">
<polygon fill="white" stroke="#666666" points="1025.5,-250 901.5,-250 901.5,-231 1025.5,-231 1025.5,-250"/>
<text text-anchor="middle" x="963.5" y="-238" font-family="Helvetica,sans-Serif" font-size="10.00">udmaio/UioAxiDmaIf.hpp</text>
</a>
</g>
</g>
<!-- Node1&#45;&gt;Node2 -->
<g id="edge1" class="edge">
<title>Node1&#45;&gt;Node2</title>
<path fill="none" stroke="#63b8ff" d="M1614.64,-291.08C1497.48,-282.16 1181.45,-258.1 1037.16,-247.11"/>
<polygon fill="#63b8ff" stroke="#63b8ff" points="1037.57,-243.63 1027.33,-246.36 1037.03,-250.61 1037.57,-243.63"/>
</g>
<!-- Node13 -->
<g id="node13" class="node">
<title>Node13</title>
<g id="a_node13"><a xlink:title=" ">
<polygon fill="#e0e0e0" stroke="#999999" points="1598.5,-79.5 1480.5,-79.5 1480.5,-60.5 1598.5,-60.5 1598.5,-79.5"/>
<text text-anchor="middle" x="1539.5" y="-67.5" font-family="Helvetica,sans-Serif" font-size="10.00">boost/log/core/core.hpp</text>
</a>
</g>
</g>
<!-- Node1&#45;&gt;Node13 -->
<g id="edge34" class="edge">
<title>Node1&#45;&gt;Node13</title>
<path fill="none" stroke="#63b8ff" d="M1654.8,-285.74C1637.14,-252.85 1574.56,-136.3 1549.75,-90.09"/>
<polygon fill="#63b8ff" stroke="#63b8ff" points="1552.83,-88.43 1545.02,-81.28 1546.66,-91.74 1552.83,-88.43"/>
</g>
<!-- Node16 -->
<g id="node16" class="node">
<title>Node16</title>
<g id="a_node16"><a xlink:title=" ">
<polygon fill="#e0e0e0" stroke="#999999" points="1758,-79.5 1617,-79.5 1617,-60.5 1758,-60.5 1758,-79.5"/>
<text text-anchor="middle" x="1687.5" y="-67.5" font-family="Helvetica,sans-Serif" font-size="10.00">boost/log/sources/logger.hpp</text>
</a>
</g>
</g>
<!-- Node1&#45;&gt;Node16 -->
<g id="edge35" class="edge">
<title>Node1&#45;&gt;Node16</title>
<path fill="none" stroke="#63b8ff" d="M1660.6,-285.74C1664.68,-253.13 1679.07,-138.27 1684.96,-91.28"/>
<polygon fill="#63b8ff" stroke="#63b8ff" points="1688.42,-91.8 1686.19,-81.45 1681.48,-90.93 1688.42,-91.8"/>
</g>
<!-- Node17 -->
<g id="node17" class="node">
<title>Node17</title>
<g id="a_node17"><a xlink:title=" ">
<polygon fill="#e0e0e0" stroke="#999999" points="1877,-79.5 1776,-79.5 1776,-60.5 1877,-60.5 1877,-79.5"/>
<text text-anchor="middle" x="1826.5" y="-67.5" font-family="Helvetica,sans-Serif" font-size="10.00">boost/log/trivial.hpp</text>
</a>
</g>
</g>
<!-- Node1&#45;&gt;Node17 -->
<g id="edge36" class="edge">
<title>Node1&#45;&gt;Node17</title>
<path fill="none" stroke="#63b8ff" d="M1666.05,-285.74C1690.83,-252.57 1779.18,-134.32 1813.11,-88.93"/>
<polygon fill="#63b8ff" stroke="#63b8ff" points="1815.73,-91.26 1818.91,-81.16 1810.12,-87.07 1815.73,-91.26"/>
</g>
<!-- Node29 -->
<g id="node29" class="node">
<title>Node29</title>
<g id="a_node29"><a xlink:title=" ">
<polygon fill="#e0e0e0" stroke="#999999" points="1755,-250 1726,-250 1726,-231 1755,-231 1755,-250"/>
<text text-anchor="middle" x="1740.5" y="-238" font-family="Helvetica,sans-Serif" font-size="10.00">ios</text>
</a>
</g>
</g>
<!-- Node1&#45;&gt;Node29 -->
<g id="edge33" class="edge">
<title>Node1&#45;&gt;Node29</title>
<path fill="none" stroke="#63b8ff" d="M1673.24,-285.51C1685.3,-277.62 1703.09,-265.98 1717.34,-256.65"/>
<polygon fill="#63b8ff" stroke="#63b8ff" points="1719.24,-259.59 1725.7,-251.19 1715.41,-253.73 1719.24,-259.59"/>
</g>
<!-- Node3 -->
<g id="node3" class="node">
<title>Node3</title>
<g id="a_node3"><a xlink:href="_axi_dma_8hpp.html" target="_top" xlink:title=" ">
<polygon fill="white" stroke="#666666" points="851.5,-195 783.5,-195 783.5,-176 851.5,-176 851.5,-195"/>
<text text-anchor="middle" x="817.5" y="-183" font-family="Helvetica,sans-Serif" font-size="10.00">AxiDma.hpp</text>
</a>
</g>
</g>
<!-- Node2&#45;&gt;Node3 -->
<g id="edge2" class="edge">
<title>Node2&#45;&gt;Node3</title>
<path fill="none" stroke="#63b8ff" d="M938.73,-230.51C915.1,-221.93 879.26,-208.92 852.67,-199.27"/>
<polygon fill="#63b8ff" stroke="#63b8ff" points="853.92,-196 843.32,-195.87 851.53,-202.58 853.92,-196"/>
</g>
<!-- Node5 -->
<g id="node5" class="node">
<title>Node5</title>
<g id="a_node5"><a xlink:href="_reg_accessor_8hpp.html" target="_top" xlink:title=" ">
<polygon fill="white" stroke="#666666" points="963,-195 870,-195 870,-176 963,-176 963,-195"/>
<text text-anchor="middle" x="916.5" y="-183" font-family="Helvetica,sans-Serif" font-size="10.00">RegAccessor.hpp</text>
</a>
</g>
</g>
<!-- Node2&#45;&gt;Node5 -->
<g id="edge4" class="edge">
<title>Node2&#45;&gt;Node5</title>
<path fill="none" stroke="#63b8ff" d="M955.74,-230.75C949.31,-223.5 939.99,-212.98 932.04,-204.02"/>
<polygon fill="#63b8ff" stroke="#63b8ff" points="934.69,-201.73 925.43,-196.57 929.45,-206.38 934.69,-201.73"/>
</g>
<!-- Node28 -->
<g id="node28" class="node">
<title>Node28</title>
<g id="a_node28"><a xlink:href="_uio_if_8hpp.html" target="_top" xlink:title=" ">
<polygon fill="white" stroke="#666666" points="1037.5,-195 981.5,-195 981.5,-176 1037.5,-176 1037.5,-195"/>
<text text-anchor="middle" x="1009.5" y="-183" font-family="Helvetica,sans-Serif" font-size="10.00">UioIf.hpp</text>
</a>
</g>
</g>
<!-- Node2&#45;&gt;Node28 -->
<g id="edge31" class="edge">
<title>Node2&#45;&gt;Node28</title>
<path fill="none" stroke="#63b8ff" d="M971.1,-230.75C977.38,-223.5 986.51,-212.98 994.3,-204.02"/>
<polygon fill="#63b8ff" stroke="#63b8ff" points="996.84,-206.43 1000.75,-196.59 991.55,-201.84 996.84,-206.43"/>
</g>
<!-- Node4 -->
<g id="node4" class="node">
<title>Node4</title>
<g id="a_node4"><a xlink:title=" ">
<polygon fill="#e0e0e0" stroke="#999999" points="841.5,-140 795.5,-140 795.5,-121 841.5,-121 841.5,-140"/>
<text text-anchor="middle" x="818.5" y="-128" font-family="Helvetica,sans-Serif" font-size="10.00">cstdint</text>
</a>
</g>
</g>
<!-- Node3&#45;&gt;Node4 -->
<g id="edge3" class="edge">
<title>Node3&#45;&gt;Node4</title>
<path fill="none" stroke="#63b8ff" d="M817.67,-175.75C817.79,-169.27 817.96,-160.16 818.12,-151.9"/>
<polygon fill="#63b8ff" stroke="#63b8ff" points="821.61,-152.02 818.3,-141.96 814.61,-151.89 821.61,-152.02"/>
</g>
<!-- Node5&#45;&gt;Node4 -->
<g id="edge5" class="edge">
<title>Node5&#45;&gt;Node4</title>
<path fill="none" stroke="#63b8ff" d="M899.88,-175.51C884.72,-167.31 862.08,-155.07 844.53,-145.58"/>
<polygon fill="#63b8ff" stroke="#63b8ff" points="846.67,-142.76 836.21,-141.08 843.34,-148.91 846.67,-142.76"/>
</g>
<!-- Node6 -->
<g id="node6" class="node">
<title>Node6</title>
<g id="a_node6"><a xlink:href="_uio_if_base_8hpp.html" target="_top" xlink:title=" ">
<polygon fill="white" stroke="#666666" points="973,-140 860,-140 860,-121 973,-121 973,-140"/>
<text text-anchor="middle" x="916.5" y="-128" font-family="Helvetica,sans-Serif" font-size="10.00">udmaio/UioIfBase.hpp</text>
</a>
</g>
</g>
<!-- Node5&#45;&gt;Node6 -->
<g id="edge6" class="edge">
<title>Node5&#45;&gt;Node6</title>
<path fill="none" stroke="#63b8ff" d="M916.5,-175.75C916.5,-169.27 916.5,-160.16 916.5,-151.9"/>
<polygon fill="#63b8ff" stroke="#63b8ff" points="920,-151.96 916.5,-141.96 913,-151.96 920,-151.96"/>
</g>
<!-- Node7 -->
<g id="node7" class="node">
<title>Node7</title>
<g id="a_node7"><a xlink:title=" ">
<polygon fill="#e0e0e0" stroke="#999999" points="847.5,-79.5 787.5,-79.5 787.5,-60.5 847.5,-60.5 847.5,-79.5"/>
<text text-anchor="middle" x="817.5" y="-67.5" font-family="Helvetica,sans-Serif" font-size="10.00">filesystem</text>
</a>
</g>
</g>
<!-- Node6&#45;&gt;Node7 -->
<g id="edge7" class="edge">
<title>Node6&#45;&gt;Node7</title>
<path fill="none" stroke="#63b8ff" d="M901.46,-120.62C885.84,-111.38 861.11,-96.77 842.53,-85.79"/>
<polygon fill="#63b8ff" stroke="#63b8ff" points="844.37,-82.81 833.98,-80.74 840.81,-88.84 844.37,-82.81"/>
</g>
<!-- Node8 -->
<g id="node8" class="node">
<title>Node8</title>
<g id="a_node8"><a xlink:title=" ">
<polygon fill="#e0e0e0" stroke="#999999" points="915.5,-79.5 865.5,-79.5 865.5,-60.5 915.5,-60.5 915.5,-79.5"/>
<text text-anchor="middle" x="890.5" y="-67.5" font-family="Helvetica,sans-Serif" font-size="10.00">fstream</text>
</a>
</g>
</g>
<!-- Node6&#45;&gt;Node8 -->
<g id="edge8" class="edge">
<title>Node6&#45;&gt;Node8</title>
<path fill="none" stroke="#63b8ff" d="M912.66,-120.87C909.05,-112.75 903.53,-100.31 898.89,-89.89"/>
<polygon fill="#63b8ff" stroke="#63b8ff" points="902.23,-88.77 894.97,-81.05 895.83,-91.61 902.23,-88.77"/>
</g>
<!-- Node9 -->
<g id="node9" class="node">
<title>Node9</title>
<g id="a_node9"><a xlink:title=" ">
<polygon fill="#e0e0e0" stroke="#999999" points="921.5,-19 867.5,-19 867.5,0 921.5,0 921.5,-19"/>
<text text-anchor="middle" x="894.5" y="-7" font-family="Helvetica,sans-Serif" font-size="10.00">iostream</text>
</a>
</g>
</g>
<!-- Node6&#45;&gt;Node9 -->
<g id="edge9" class="edge">
<title>Node6&#45;&gt;Node9</title>
<path fill="none" stroke="#63b8ff" d="M919.7,-120.57C924.3,-106.36 931.5,-77.89 924.5,-55 921.51,-45.23 915.58,-35.66 909.77,-27.91"/>
<polygon fill="#63b8ff" stroke="#63b8ff" points="912.68,-25.95 903.66,-20.38 907.24,-30.35 912.68,-25.95"/>
</g>
<!-- Node10 -->
<g id="node10" class="node">
<title>Node10</title>
<g id="a_node10"><a xlink:title=" ">
<polygon fill="#e0e0e0" stroke="#999999" points="1127,-19 1076,-19 1076,0 1127,0 1127,-19"/>
<text text-anchor="middle" x="1101.5" y="-7" font-family="Helvetica,sans-Serif" font-size="10.00">memory</text>
</a>
</g>
</g>
<!-- Node6&#45;&gt;Node10 -->
<g id="edge10" class="edge">
<title>Node6&#45;&gt;Node10</title>
<path fill="none" stroke="#63b8ff" d="M973.1,-122.2C1018.37,-115.14 1076.78,-102.86 1092.5,-85 1105.53,-70.19 1106.3,-46.84 1104.75,-30.23"/>
<polygon fill="#63b8ff" stroke="#63b8ff" points="1108.25,-30.05 1103.47,-20.6 1101.31,-30.97 1108.25,-30.05"/>
</g>
<!-- Node11 -->
<g id="node11" class="node">
<title>Node11</title>
<g id="a_node11"><a xlink:title=" ">
<polygon fill="#e0e0e0" stroke="#999999" points="1211.5,-19 1145.5,-19 1145.5,0 1211.5,0 1211.5,-19"/>
<text text-anchor="middle" x="1178.5" y="-7" font-family="Helvetica,sans-Serif" font-size="10.00">string_view</text>
</a>
</g>
</g>
<!-- Node6&#45;&gt;Node11 -->
<g id="edge11" class="edge">
<title>Node6&#45;&gt;Node11</title>
<path fill="none" stroke="#63b8ff" d="M973.21,-125.7C1014.03,-120.87 1069.14,-109.9 1111.5,-85 1135.1,-71.13 1155,-46.17 1166.83,-28.99"/>
<polygon fill="#63b8ff" stroke="#63b8ff" points="1169.7,-31 1172.28,-20.73 1163.85,-27.14 1169.7,-31"/>
</g>
<!-- Node12 -->
<g id="node12" class="node">
<title>Node12</title>
<g id="a_node12"><a xlink:title=" ">
<polygon fill="#e0e0e0" stroke="#999999" points="1315,-79.5 1178,-79.5 1178,-60.5 1315,-60.5 1315,-79.5"/>
<text text-anchor="middle" x="1246.5" y="-67.5" font-family="Helvetica,sans-Serif" font-size="10.00">boost/core/noncopyable.hpp</text>
</a>
</g>
</g>
<!-- Node6&#45;&gt;Node12 -->
<g id="edge12" class="edge">
<title>Node6&#45;&gt;Node12</title>
<path fill="none" stroke="#63b8ff" d="M966.98,-120.55C1025.49,-110.18 1121.9,-93.09 1184.8,-81.94"/>
<polygon fill="#63b8ff" stroke="#63b8ff" points="1185.03,-85.45 1194.27,-80.26 1183.81,-78.56 1185.03,-85.45"/>
</g>
<!-- Node6&#45;&gt;Node13 -->
<g id="edge13" class="edge">
<title>Node6&#45;&gt;Node13</title>
<path fill="none" stroke="#63b8ff" d="M973.48,-127.25C1074.32,-122.74 1290.63,-110.77 1471.5,-85 1477.17,-84.19 1483.08,-83.2 1488.95,-82.12"/>
<polygon fill="#63b8ff" stroke="#63b8ff" points="1489.45,-85.59 1498.6,-80.26 1488.12,-78.72 1489.45,-85.59"/>
</g>
<!-- Node14 -->
<g id="node14" class="node">
<title>Node14</title>
<g id="a_node14"><a xlink:title=" ">
<polygon fill="#e0e0e0" stroke="#999999" points="1462,-79.5 1333,-79.5 1333,-60.5 1462,-60.5 1462,-79.5"/>
<text text-anchor="middle" x="1397.5" y="-67.5" font-family="Helvetica,sans-Serif" font-size="10.00">boost/log/expressions.hpp</text>
</a>
</g>
</g>
<!-- Node6&#45;&gt;Node14 -->
<g id="edge14" class="edge">
<title>Node6&#45;&gt;Node14</title>
<path fill="none" stroke="#63b8ff" d="M973.45,-124.75C1052.48,-117.83 1199.78,-103.73 1324.5,-85 1330.48,-84.1 1336.72,-83.06 1342.92,-81.97"/>
<polygon fill="#63b8ff" stroke="#63b8ff" points="1343.28,-85.46 1352.49,-80.22 1342.02,-78.57 1343.28,-85.46"/>
</g>
<!-- Node15 -->
<g id="node15" class="node">
<title>Node15</title>
<g id="a_node15"><a xlink:title=" ">
<polygon fill="#e0e0e0" stroke="#999999" points="101,-85 0,-85 0,-55 101,-55 101,-85"/>
<text text-anchor="start" x="8" y="-73" font-family="Helvetica,sans-Serif" font-size="10.00">boost/log/keywords</text>
<text text-anchor="middle" x="50.5" y="-62" font-family="Helvetica,sans-Serif" font-size="10.00">/severity.hpp</text>
</a>
</g>
</g>
<!-- Node6&#45;&gt;Node15 -->
<g id="edge15" class="edge">
<title>Node6&#45;&gt;Node15</title>
<path fill="none" stroke="#63b8ff" d="M859.65,-121.89C856.56,-121.56 853.49,-121.26 850.5,-121 525.75,-92.25 437.93,-130.38 112.42,-85.24"/>
<polygon fill="#63b8ff" stroke="#63b8ff" points="113.12,-81.8 102.73,-83.88 112.15,-88.73 113.12,-81.8"/>
</g>
<!-- Node6&#45;&gt;Node16 -->
<g id="edge16" class="edge">
<title>Node6&#45;&gt;Node16</title>
<path fill="none" stroke="#63b8ff" d="M973.12,-127.94C1091.35,-124.23 1372.94,-112.99 1607.5,-85 1614.93,-84.11 1622.72,-82.99 1630.4,-81.77"/>
<polygon fill="#63b8ff" stroke="#63b8ff" points="1630.73,-85.27 1640.02,-80.18 1629.58,-78.36 1630.73,-85.27"/>
</g>
<!-- Node6&#45;&gt;Node17 -->
<g id="edge17" class="edge">
<title>Node6&#45;&gt;Node17</title>
<path fill="none" stroke="#63b8ff" d="M973.36,-130.06C1110.63,-130.64 1470.77,-127.61 1767.5,-85 1772.38,-84.3 1777.45,-83.39 1782.47,-82.36"/>
<polygon fill="#63b8ff" stroke="#63b8ff" points="1782.82,-85.87 1791.84,-80.31 1781.32,-79.03 1782.82,-85.87"/>
</g>
<!-- Node18 -->
<g id="node18" class="node">
<title>Node18</title>
<g id="a_node18"><a xlink:title=" ">
<polygon fill="#e0e0e0" stroke="#999999" points="162,-79.5 119,-79.5 119,-60.5 162,-60.5 162,-79.5"/>
<text text-anchor="middle" x="140.5" y="-67.5" font-family="Helvetica,sans-Serif" font-size="10.00">fcntl.h</text>
</a>
</g>
</g>
<!-- Node6&#45;&gt;Node18 -->
<g id="edge18" class="edge">
<title>Node6&#45;&gt;Node18</title>
<path fill="none" stroke="#63b8ff" d="M859.65,-121.9C856.56,-121.58 853.49,-121.27 850.5,-121 699.8,-107.33 317.31,-121.67 170.5,-85 169.33,-84.71 168.15,-84.37 166.97,-83.99"/>
<polygon fill="#63b8ff" stroke="#63b8ff" points="168.58,-80.87 157.99,-80.44 166,-87.38 168.58,-80.87"/>
</g>
<!-- Node19 -->
<g id="node19" class="node">
<title>Node19</title>
<g id="a_node19"><a xlink:title=" ">
<polygon fill="#e0e0e0" stroke="#999999" points="249,-79.5 180,-79.5 180,-60.5 249,-60.5 249,-79.5"/>
<text text-anchor="middle" x="214.5" y="-67.5" font-family="Helvetica,sans-Serif" font-size="10.00">sys/mman.h</text>
</a>
</g>
</g>
<!-- Node6&#45;&gt;Node19 -->
<g id="edge19" class="edge">
<title>Node6&#45;&gt;Node19</title>
<path fill="none" stroke="#63b8ff" d="M859.65,-121.93C856.55,-121.6 853.49,-121.28 850.5,-121 587.63,-96.12 516.9,-134.27 257.5,-85 254.83,-84.49 252.1,-83.87 249.37,-83.16"/>
<polygon fill="#63b8ff" stroke="#63b8ff" points="250.36,-79.81 239.78,-80.37 248.4,-86.53 250.36,-79.81"/>
</g>
<!-- Node20 -->
<g id="node20" class="node">
<title>Node20</title>
<g id="a_node20"><a xlink:title=" ">
<polygon fill="#e0e0e0" stroke="#999999" points="326,-79.5 267,-79.5 267,-60.5 326,-60.5 326,-79.5"/>
<text text-anchor="middle" x="296.5" y="-67.5" font-family="Helvetica,sans-Serif" font-size="10.00">sys/stat.h</text>
</a>
</g>
</g>
<!-- Node6&#45;&gt;Node20 -->
<g id="edge20" class="edge">
<title>Node6&#45;&gt;Node20</title>
<path fill="none" stroke="#63b8ff" d="M859.64,-121.96C856.55,-121.62 853.49,-121.3 850.5,-121 621.73,-98.31 559.28,-133.22 334.5,-85 332.47,-84.57 330.41,-84.05 328.35,-83.47"/>
<polygon fill="#63b8ff" stroke="#63b8ff" points="329.52,-80.17 318.93,-80.4 327.36,-86.82 329.52,-80.17"/>
</g>
<!-- Node21 -->
<g id="node21" class="node">
<title>Node21</title>
<g id="a_node21"><a xlink:title=" ">
<polygon fill="#e0e0e0" stroke="#999999" points="409,-79.5 344,-79.5 344,-60.5 409,-60.5 409,-79.5"/>
<text text-anchor="middle" x="376.5" y="-67.5" font-family="Helvetica,sans-Serif" font-size="10.00">sys/types.h</text>
</a>
</g>
</g>
<!-- Node6&#45;&gt;Node21 -->
<g id="edge21" class="edge">
<title>Node6&#45;&gt;Node21</title>
<path fill="none" stroke="#63b8ff" d="M859.64,-122.01C856.55,-121.66 853.49,-121.32 850.5,-121 658.91,-100.69 607.23,-123.74 418.5,-85 416.05,-84.5 413.55,-83.9 411.05,-83.23"/>
<polygon fill="#63b8ff" stroke="#63b8ff" points="412.25,-79.94 401.67,-80.43 410.25,-86.65 412.25,-79.94"/>
</g>
<!-- Node22 -->
<g id="node22" class="node">
<title>Node22</title>
<g id="a_node22"><a xlink:title=" ">
<polygon fill="#e0e0e0" stroke="#999999" points="477.5,-79.5 427.5,-79.5 427.5,-60.5 477.5,-60.5 477.5,-79.5"/>
<text text-anchor="middle" x="452.5" y="-67.5" font-family="Helvetica,sans-Serif" font-size="10.00">unistd.h</text>
</a>
</g>
</g>
<!-- Node6&#45;&gt;Node22 -->
<g id="edge22" class="edge">
<title>Node6&#45;&gt;Node22</title>
<path fill="none" stroke="#63b8ff" d="M859.63,-122.07C856.54,-121.7 853.48,-121.34 850.5,-121 688.98,-102.62 644.23,-124.37 486.5,-85 485.11,-84.65 483.7,-84.26 482.28,-83.83"/>
<polygon fill="#63b8ff" stroke="#63b8ff" points="483.61,-80.58 473.01,-80.51 481.25,-87.17 483.61,-80.58"/>
</g>
<!-- Node23 -->
<g id="node23" class="node">
<title>Node23</title>
<g id="a_node23"><a xlink:href="_uio_config_8hpp.html" target="_top" xlink:title=" ">
<polygon fill="white" stroke="#666666" points="1083,-79.5 972,-79.5 972,-60.5 1083,-60.5 1083,-79.5"/>
<text text-anchor="middle" x="1027.5" y="-67.5" font-family="Helvetica,sans-Serif" font-size="10.00">udmaio/UioConfig.hpp</text>
</a>
</g>
</g>
<!-- Node6&#45;&gt;Node23 -->
<g id="edge23" class="edge">
<title>Node6&#45;&gt;Node23</title>
<path fill="none" stroke="#63b8ff" d="M933.36,-120.62C951.12,-111.25 979.38,-96.36 1000.3,-85.33"/>
<polygon fill="#63b8ff" stroke="#63b8ff" points="1001.93,-88.43 1009.14,-80.67 998.67,-82.24 1001.93,-88.43"/>
</g>
<!-- Node26 -->
<g id="node26" class="node">
<title>Node26</title>
<g id="a_node26"><a xlink:title=" ">
<polygon fill="#e0e0e0" stroke="#999999" points="619.5,-85 495.5,-85 495.5,-55 619.5,-55 619.5,-85"/>
<text text-anchor="start" x="503.5" y="-73" font-family="Helvetica,sans-Serif" font-size="10.00">boost/log/sources/record</text>
<text text-anchor="middle" x="557.5" y="-62" font-family="Helvetica,sans-Serif" font-size="10.00">_ostream.hpp</text>
</a>
</g>
</g>
<!-- Node6&#45;&gt;Node26 -->
<g id="edge29" class="edge">
<title>Node6&#45;&gt;Node26</title>
<path fill="none" stroke="#63b8ff" d="M859.55,-121.41C803.82,-113.33 716.22,-100.22 631,-85.4"/>
<polygon fill="#63b8ff" stroke="#63b8ff" points="631.76,-81.98 621.3,-83.7 630.55,-88.87 631.76,-81.98"/>
</g>
<!-- Node27 -->
<g id="node27" class="node">
<title>Node27</title>
<g id="a_node27"><a xlink:title=" ">
<polygon fill="#e0e0e0" stroke="#999999" points="769,-85 638,-85 638,-55 769,-55 769,-85"/>
<text text-anchor="start" x="646" y="-73" font-family="Helvetica,sans-Serif" font-size="10.00">boost/log/sources/severity</text>
<text text-anchor="middle" x="703.5" y="-62" font-family="Helvetica,sans-Serif" font-size="10.00">_logger.hpp</text>
</a>
</g>
</g>
<!-- Node6&#45;&gt;Node27 -->
<g id="edge30" class="edge">
<title>Node6&#45;&gt;Node27</title>
<path fill="none" stroke="#63b8ff" d="M884.15,-120.62C853.09,-112.08 805.32,-98.96 766.7,-88.36"/>
<polygon fill="#63b8ff" stroke="#63b8ff" points="768.1,-85.11 757.53,-85.84 766.25,-91.86 768.1,-85.11"/>
</g>
<!-- Node23&#45;&gt;Node9 -->
<g id="edge24" class="edge">
<title>Node23&#45;&gt;Node9</title>
<path fill="none" stroke="#63b8ff" d="M1007.3,-60.12C985.52,-50.54 950.6,-35.18 925.38,-24.08"/>
<polygon fill="#63b8ff" stroke="#63b8ff" points="926.84,-20.9 916.28,-20.08 924.02,-27.31 926.84,-20.9"/>
</g>
<!-- Node23&#45;&gt;Node10 -->
<g id="edge25" class="edge">
<title>Node23&#45;&gt;Node10</title>
<path fill="none" stroke="#63b8ff" d="M1038.74,-60.12C1050.04,-51.18 1067.71,-37.22 1081.42,-26.37"/>
<polygon fill="#63b8ff" stroke="#63b8ff" points="1083.29,-29.35 1088.97,-20.41 1078.95,-23.86 1083.29,-29.35"/>
</g>
<!-- Node23&#45;&gt;Node11 -->
<g id="edge28" class="edge">
<title>Node23&#45;&gt;Node11</title>
<path fill="none" stroke="#63b8ff" d="M1050.43,-60.12C1075.6,-50.37 1116.23,-34.62 1144.98,-23.49"/>
<polygon fill="#63b8ff" stroke="#63b8ff" points="1145.88,-26.89 1153.94,-20.02 1143.35,-20.36 1145.88,-26.89"/>
</g>
<!-- Node24 -->
<g id="node24" class="node">
<title>Node24</title>
<g id="a_node24"><a xlink:title=" ">
<polygon fill="#e0e0e0" stroke="#999999" points="999,-19 940,-19 940,0 999,0 999,-19"/>
<text text-anchor="middle" x="969.5" y="-7" font-family="Helvetica,sans-Serif" font-size="10.00">stdexcept</text>
</a>
</g>
</g>
<!-- Node23&#45;&gt;Node24 -->
<g id="edge26" class="edge">
<title>Node23&#45;&gt;Node24</title>
<path fill="none" stroke="#63b8ff" d="M1018.94,-60.37C1010.29,-51.64 996.7,-37.93 985.95,-27.09"/>
<polygon fill="#63b8ff" stroke="#63b8ff" points="988.69,-24.88 979.16,-20.24 983.71,-29.81 988.69,-24.88"/>
</g>
<!-- Node25 -->
<g id="node25" class="node">
<title>Node25</title>
<g id="a_node25"><a xlink:title=" ">
<polygon fill="#e0e0e0" stroke="#999999" points="1058,-19 1017,-19 1017,0 1058,0 1058,-19"/>
<text text-anchor="middle" x="1037.5" y="-7" font-family="Helvetica,sans-Serif" font-size="10.00">string</text>
</a>
</g>
</g>
<!-- Node23&#45;&gt;Node25 -->
<g id="edge27" class="edge">
<title>Node23&#45;&gt;Node25</title>
<path fill="none" stroke="#63b8ff" d="M1028.98,-60.37C1030.32,-52.5 1032.36,-40.6 1034.1,-30.39"/>
<polygon fill="#63b8ff" stroke="#63b8ff" points="1037.53,-31.11 1035.76,-20.66 1030.63,-29.93 1037.53,-31.11"/>
</g>
<!-- Node28&#45;&gt;Node6 -->
<g id="edge32" class="edge">
<title>Node28&#45;&gt;Node6</title>
<path fill="none" stroke="#63b8ff" d="M993.72,-175.51C979.48,-167.39 958.26,-155.3 941.67,-145.85"/>
<polygon fill="#63b8ff" stroke="#63b8ff" points="943.78,-143.02 933.36,-141.11 940.31,-149.1 943.78,-143.02"/>
</g>
</g>
</svg>
