<?xml version="1.0" encoding="UTF-8" standalone="no"?>
<!DOCTYPE svg PUBLIC "-//W3C//DTD SVG 1.1//EN"
 "http://www.w3.org/Graphics/SVG/1.1/DTD/svg11.dtd">
<!-- Generated by graphviz version 7.0.5 (20221223.1930)
 -->
<!-- Title: UioConfig.hpp Pages: 1 -->
<!--zoomable 357 -->
<svg id="main" version="1.1" xmlns="http://www.w3.org/2000/svg" xmlns:xlink="http://www.w3.org/1999/xlink" xml:space="preserve" onload="init(evt)">
<style type="text/css"><![CDATA[
.edge:hover path { stroke: red; }
.edge:hover polygon { stroke: red; fill: red; }
]]></style>
<script type="text/javascript"><![CDATA[
var edges = document.getElementsByTagName('g');
if (edges && edges.length) {
  for (var i=0;i<edges.length;i++) {
    if (edges[i].id.substr(0,4)=='edge') {
      edges[i].setAttribute('class','edge');
    }
  }
}
]]></script>
        <defs>
                <circle id="rim" cx="0" cy="0" r="7"/>
                <circle id="rim2" cx="0" cy="0" r="3.5"/>
                <g id="zoomPlus">
                        <use xlink:href="#rim" fill="#404040">
                                <set attributeName="fill" to="#808080" begin="zoomplus.mouseover" end="zoomplus.mouseout"/>
                        </use>
                        <path d="M-4,0h8M0,-4v8" fill="none" stroke="white" stroke-width="1.5" pointer-events="none"/>
                </g>
                <g id="zoomMin">
                        <use xlink:href="#rim" fill="#404040">
                                <set attributeName="fill" to="#808080" begin="zoomminus.mouseover" end="zoomminus.mouseout"/>
                        </use>
                        <path d="M-4,0h8" fill="none" stroke="white" stroke-width="1.5" pointer-events="none"/>
                </g>
                <g id="dirArrow">
                        <path fill="none" stroke="white" stroke-width="1.5" d="M0,-3.0v7 M-2.5,-0.5L0,-3.0L2.5,-0.5"/>
                </g>
               <g id="resetDef">
                       <use xlink:href="#rim2" fill="#404040">
                               <set attributeName="fill" to="#808080" begin="reset.mouseover" end="reset.mouseout"/>
                       </use>
               </g>
        </defs>

<script type="text/javascript">
var viewWidth = 889;
var viewHeight = 357;
var sectionId = 'dynsection-1';
</script>
<script xlink:href="svgpan.js"/>
<svg id="graph" class="graph">
<g id="viewport">
<title>UioConfig.hpp</title>
<!-- Node1 -->
<g id="node1" class="node">
<title>Node1</title>
<g id="a_node1"><a xlink:title=" ">
<polygon fill="#999999" stroke="#666666" points="674.5,-349 597.5,-349 597.5,-330 674.5,-330 674.5,-349"/>
<text text-anchor="middle" x="636" y="-337" font-family="Helvetica,sans-Serif" font-size="10.00">UioConfig.hpp</text>
</a>
</g>
</g>
<!-- Node2 -->
<g id="node2" class="node">
<title>Node2</title>
<g id="a_node2"><a xlink:href="_dma_buffer_abstract_8hpp.html" target="_top" xlink:title=" ">
<polygon fill="white" stroke="#666666" points="454.5,-294 337.5,-294 337.5,-275 454.5,-275 454.5,-294"/>
<text text-anchor="middle" x="396" y="-282" font-family="Helvetica,sans-Serif" font-size="10.00">DmaBufferAbstract.hpp</text>
</a>
</g>
</g>
<!-- Node1&#45;&gt;Node2 -->
<g id="edge1" class="edge">
<title>Node1&#45;&gt;Node2</title>
<path fill="none" stroke="#63b8ff" d="M586.06,-327.47C541.67,-317.67 477.6,-303.52 436.37,-294.42"/>
<polygon fill="#63b8ff" stroke="#63b8ff" points="585.18,-330.86 595.7,-329.6 586.69,-324.03 585.18,-330.86"/>
</g>
<!-- Node14 -->
<g id="node14" class="node">
<title>Node14</title>
<g id="a_node14"><a xlink:href="_uio_config_8cpp.html" target="_top" xlink:title=" ">
<polygon fill="white" stroke="#666666" points="759.5,-294 682.5,-294 682.5,-275 759.5,-275 759.5,-294"/>
<text text-anchor="middle" x="721" y="-282" font-family="Helvetica,sans-Serif" font-size="10.00">UioConfig.cpp</text>
</a>
</g>
</g>
<!-- Node1&#45;&gt;Node14 -->
<g id="edge14" class="edge">
<title>Node1&#45;&gt;Node14</title>
<path fill="none" stroke="#63b8ff" d="M660.12,-323.46C675.19,-314.06 694.09,-302.28 706.79,-294.36"/>
<polygon fill="#63b8ff" stroke="#63b8ff" points="658.34,-320.45 651.7,-328.71 662.04,-326.39 658.34,-320.45"/>
</g>
<!-- Node15 -->
<g id="node15" class="node">
<title>Node15</title>
<g id="a_node15"><a xlink:href="_uio_if_8hpp.html" target="_top" xlink:title=" ">
<polygon fill="white" stroke="#666666" points="664,-294 608,-294 608,-275 664,-275 664,-294"/>
<text text-anchor="middle" x="636" y="-282" font-family="Helvetica,sans-Serif" font-size="10.00">UioIf.hpp</text>
</a>
</g>
</g>
<!-- Node1&#45;&gt;Node15 -->
<g id="edge15" class="edge">
<title>Node1&#45;&gt;Node15</title>
<path fill="none" stroke="#63b8ff" d="M636,-318.35C636,-310.1 636,-300.97 636,-294.44"/>
<polygon fill="#63b8ff" stroke="#63b8ff" points="632.5,-318.23 636,-328.23 639.5,-318.23 632.5,-318.23"/>
</g>
<!-- Node3 -->
<g id="node3" class="node">
<title>Node3</title>
<g id="a_node3"><a xlink:href="_dma_buffer_abstract_8cpp.html" target="_top" xlink:title=" ">
<polygon fill="white" stroke="#666666" points="285.5,-239 168.5,-239 168.5,-220 285.5,-220 285.5,-239"/>
<text text-anchor="middle" x="227" y="-227" font-family="Helvetica,sans-Serif" font-size="10.00">DmaBufferAbstract.cpp</text>
</a>
</g>
</g>
<!-- Node2&#45;&gt;Node3 -->
<g id="edge2" class="edge">
<title>Node2&#45;&gt;Node3</title>
<path fill="none" stroke="#63b8ff" d="M356.49,-271.11C325.55,-261.41 283.24,-248.14 255.53,-239.45"/>
<polygon fill="#63b8ff" stroke="#63b8ff" points="355.3,-274.4 365.89,-274.06 357.39,-267.72 355.3,-274.4"/>
</g>
<!-- Node4 -->
<g id="node4" class="node">
<title>Node4</title>
<g id="a_node4"><a xlink:href="_fpga_mem_buffer_over_axi_8hpp.html" target="_top" xlink:title=" ">
<polygon fill="white" stroke="#666666" points="657,-239 519,-239 519,-220 657,-220 657,-239"/>
<text text-anchor="middle" x="588" y="-227" font-family="Helvetica,sans-Serif" font-size="10.00">FpgaMemBufferOverAxi.hpp</text>
</a>
</g>
</g>
<!-- Node2&#45;&gt;Node4 -->
<g id="edge3" class="edge">
<title>Node2&#45;&gt;Node4</title>
<path fill="none" stroke="#63b8ff" d="M439.5,-271.49C474.77,-261.76 523.69,-248.25 555.59,-239.45"/>
<polygon fill="#63b8ff" stroke="#63b8ff" points="438.74,-268.07 430.03,-274.11 440.6,-274.82 438.74,-268.07"/>
</g>
<!-- Node5 -->
<g id="node5" class="node">
<title>Node5</title>
<g id="a_node5"><a xlink:href="_fpga_mem_buffer_over_xdma_8hpp.html" target="_top" xlink:title=" ">
<polygon fill="white" stroke="#666666" points="150,-239 0,-239 0,-220 150,-220 150,-239"/>
<text text-anchor="middle" x="75" y="-227" font-family="Helvetica,sans-Serif" font-size="10.00">FpgaMemBufferOverXdma.hpp</text>
</a>
</g>
</g>
<!-- Node2&#45;&gt;Node5 -->
<g id="edge4" class="edge">
<title>Node2&#45;&gt;Node5</title>
<path fill="none" stroke="#63b8ff" d="M330.44,-272.68C271.19,-262.89 184.99,-248.66 129.45,-239.49"/>
<polygon fill="#63b8ff" stroke="#63b8ff" points="329.62,-276.09 340.05,-274.26 330.76,-269.18 329.62,-276.09"/>
</g>
<!-- Node6 -->
<g id="node6" class="node">
<title>Node6</title>
<g id="a_node6"><a xlink:href="_u_dma_buf_8hpp.html" target="_top" xlink:title=" ">
<polygon fill="white" stroke="#666666" points="380.5,-239 303.5,-239 303.5,-220 380.5,-220 380.5,-239"/>
<text text-anchor="middle" x="342" y="-227" font-family="Helvetica,sans-Serif" font-size="10.00">UDmaBuf.hpp</text>
</a>
</g>
</g>
<!-- Node2&#45;&gt;Node6 -->
<g id="edge5" class="edge">
<title>Node2&#45;&gt;Node6</title>
<path fill="none" stroke="#63b8ff" d="M378.96,-266.78C369.74,-257.72 358.71,-246.9 351.11,-239.44"/>
<polygon fill="#63b8ff" stroke="#63b8ff" points="376.41,-269.18 386,-273.69 381.32,-264.19 376.41,-269.18"/>
</g>
<!-- Node12 -->
<g id="node12" class="node">
<title>Node12</title>
<g id="a_node12"><a xlink:href="_uio_mem_sgdma_8hpp.html" target="_top" xlink:title=" ">
<polygon fill="white" stroke="#666666" points="501,-239 399,-239 399,-220 501,-220 501,-239"/>
<text text-anchor="middle" x="450" y="-227" font-family="Helvetica,sans-Serif" font-size="10.00">UioMemSgdma.hpp</text>
</a>
</g>
</g>
<!-- Node2&#45;&gt;Node12 -->
<g id="edge11" class="edge">
<title>Node2&#45;&gt;Node12</title>
<path fill="none" stroke="#63b8ff" d="M413.04,-266.78C422.26,-257.72 433.29,-246.9 440.89,-239.44"/>
<polygon fill="#63b8ff" stroke="#63b8ff" points="410.68,-264.19 406,-273.69 415.59,-269.18 410.68,-264.19"/>
</g>
<!-- Node7 -->
<g id="node7" class="node">
<title>Node7</title>
<g id="a_node7"><a xlink:href="_data_handler_abstract_8hpp.html" target="_top" xlink:title=" ">
<polygon fill="white" stroke="#666666" points="511.5,-129 386.5,-129 386.5,-110 511.5,-110 511.5,-129"/>
<text text-anchor="middle" x="449" y="-117" font-family="Helvetica,sans-Serif" font-size="10.00">DataHandlerAbstract.hpp</text>
</a>
</g>
</g>
<!-- Node6&#45;&gt;Node7 -->
<g id="edge6" class="edge">
<title>Node6&#45;&gt;Node7</title>
<path fill="none" stroke="#63b8ff" d="M359.91,-211.98C368.77,-203.7 379.57,-193.44 389,-184 408.08,-164.9 429.63,-141.66 441,-129.27"/>
<polygon fill="#63b8ff" stroke="#63b8ff" points="357.56,-209.39 352.62,-218.76 362.33,-214.51 357.56,-209.39"/>
</g>
<!-- Node11 -->
<g id="node11" class="node">
<title>Node11</title>
<g id="a_node11"><a xlink:href="_u_dma_buf_8cpp.html" target="_top" xlink:title=" ">
<polygon fill="white" stroke="#666666" points="380.5,-184 303.5,-184 303.5,-165 380.5,-165 380.5,-184"/>
<text text-anchor="middle" x="342" y="-172" font-family="Helvetica,sans-Serif" font-size="10.00">UDmaBuf.cpp</text>
</a>
</g>
</g>
<!-- Node6&#45;&gt;Node11 -->
<g id="edge10" class="edge">
<title>Node6&#45;&gt;Node11</title>
<path fill="none" stroke="#63b8ff" d="M342,-208.35C342,-200.1 342,-190.97 342,-184.44"/>
<polygon fill="#63b8ff" stroke="#63b8ff" points="338.5,-208.23 342,-218.23 345.5,-208.23 338.5,-208.23"/>
</g>
<!-- Node8 -->
<g id="node8" class="node">
<title>Node8</title>
<g id="a_node8"><a xlink:href="_data_handler_abstract_8cpp.html" target="_top" xlink:title=" ">
<polygon fill="white" stroke="#666666" points="443.5,-74 318.5,-74 318.5,-55 443.5,-55 443.5,-74"/>
<text text-anchor="middle" x="381" y="-62" font-family="Helvetica,sans-Serif" font-size="10.00">DataHandlerAbstract.cpp</text>
</a>
</g>
</g>
<!-- Node7&#45;&gt;Node8 -->
<g id="edge7" class="edge">
<title>Node7&#45;&gt;Node8</title>
<path fill="none" stroke="#63b8ff" d="M428.65,-102.64C416.78,-93.39 402.24,-82.05 392.36,-74.36"/>
<polygon fill="#63b8ff" stroke="#63b8ff" points="426.23,-105.19 436.27,-108.58 430.54,-99.67 426.23,-105.19"/>
</g>
<!-- Node9 -->
<g id="node9" class="node">
<title>Node9</title>
<g id="a_node9"><a xlink:href="_data_handler_sync_8hpp.html" target="_top" xlink:title=" ">
<polygon fill="white" stroke="#666666" points="572,-74 462,-74 462,-55 572,-55 572,-74"/>
<text text-anchor="middle" x="517" y="-62" font-family="Helvetica,sans-Serif" font-size="10.00">DataHandlerSync.hpp</text>
</a>
</g>
</g>
<!-- Node7&#45;&gt;Node9 -->
<g id="edge8" class="edge">
<title>Node7&#45;&gt;Node9</title>
<path fill="none" stroke="#63b8ff" d="M469.35,-102.64C481.22,-93.39 495.76,-82.05 505.64,-74.36"/>
<polygon fill="#63b8ff" stroke="#63b8ff" points="467.46,-99.67 461.73,-108.58 471.77,-105.19 467.46,-99.67"/>
</g>
<!-- Node10 -->
<g id="node10" class="node">
<title>Node10</title>
<g id="a_node10"><a xlink:href="_data_handler_sync_8cpp.html" target="_top" xlink:title=" ">
<polygon fill="white" stroke="#666666" points="572,-19 462,-19 462,0 572,0 572,-19"/>
<text text-anchor="middle" x="517" y="-7" font-family="Helvetica,sans-Serif" font-size="10.00">DataHandlerSync.cpp</text>
</a>
</g>
</g>
<!-- Node9&#45;&gt;Node10 -->
<g id="edge9" class="edge">
<title>Node9&#45;&gt;Node10</title>
<path fill="none" stroke="#63b8ff" d="M517,-43.35C517,-35.1 517,-25.97 517,-19.44"/>
<polygon fill="#63b8ff" stroke="#63b8ff" points="513.5,-43.23 517,-53.23 520.5,-43.23 513.5,-43.23"/>
</g>
<!-- Node12&#45;&gt;Node7 -->
<g id="edge12" class="edge">
<title>Node12&#45;&gt;Node7</title>
<path fill="none" stroke="#63b8ff" d="M449.81,-208.24C449.59,-184.63 449.24,-146.65 449.08,-129.46"/>
<polygon fill="#63b8ff" stroke="#63b8ff" points="446.31,-208.18 449.9,-218.15 453.31,-208.12 446.31,-208.18"/>
</g>
<!-- Node13 -->
<g id="node13" class="node">
<title>Node13</title>
<g id="a_node13"><a xlink:href="_uio_mem_sgdma_8cpp.html" target="_top" xlink:title=" ">
<polygon fill="white" stroke="#666666" points="579,-184 477,-184 477,-165 579,-165 579,-184"/>
<text text-anchor="middle" x="528" y="-172" font-family="Helvetica,sans-Serif" font-size="10.00">UioMemSgdma.cpp</text>
</a>
</g>
</g>
<!-- Node12&#45;&gt;Node13 -->
<g id="edge13" class="edge">
<title>Node12&#45;&gt;Node13</title>
<path fill="none" stroke="#63b8ff" d="M472.53,-213.19C486.3,-203.84 503.41,-192.21 514.96,-184.36"/>
<polygon fill="#63b8ff" stroke="#63b8ff" points="470.79,-210.14 464.48,-218.66 474.72,-215.93 470.79,-210.14"/>
</g>
<!-- Node15&#45;&gt;Node4 -->
<g id="edge16" class="edge">
<title>Node15&#45;&gt;Node4</title>
<path fill="none" stroke="#63b8ff" d="M620.35,-266.22C612.25,-257.28 602.71,-246.74 596.1,-239.44"/>
<polygon fill="#63b8ff" stroke="#63b8ff" points="617.75,-268.56 627.06,-273.63 622.94,-263.86 617.75,-268.56"/>
</g>
<!-- Node15&#45;&gt;Node12 -->
<g id="edge23" class="edge">
<title>Node15&#45;&gt;Node12</title>
<path fill="none" stroke="#63b8ff" d="M596.71,-272.31C562.35,-262.51 513.09,-248.48 481.32,-239.42"/>
<polygon fill="#63b8ff" stroke="#63b8ff" points="595.72,-275.66 606.3,-275.04 597.64,-268.93 595.72,-275.66"/>
</g>
<!-- Node16 -->
<g id="node16" class="node">
<title>Node16</title>
<g id="a_node16"><a xlink:href="_reg_accessor_8hpp.html" target="_top" xlink:title=" ">
<polygon fill="white" stroke="#666666" points="806.5,-239 713.5,-239 713.5,-220 806.5,-220 806.5,-239"/>
<text text-anchor="middle" x="760" y="-227" font-family="Helvetica,sans-Serif" font-size="10.00">RegAccessor.hpp</text>
</a>
</g>
</g>
<!-- Node15&#45;&gt;Node16 -->
<g id="edge17" class="edge">
<title>Node15&#45;&gt;Node16</title>
<path fill="none" stroke="#63b8ff" d="M667.44,-270.06C689.97,-260.43 719.67,-247.74 739.28,-239.36"/>
<polygon fill="#63b8ff" stroke="#63b8ff" points="666.25,-266.77 658.43,-273.91 669,-273.2 666.25,-266.77"/>
</g>
<!-- Node17 -->
<g id="node17" class="node">
<title>Node17</title>
<g id="a_node17"><a xlink:href="_uio_axi_dma_if_8hpp.html" target="_top" xlink:title=" ">
<polygon fill="white" stroke="#666666" points="729.5,-184 640.5,-184 640.5,-165 729.5,-165 729.5,-184"/>
<text text-anchor="middle" x="685" y="-172" font-family="Helvetica,sans-Serif" font-size="10.00">UioAxiDmaIf.hpp</text>
</a>
</g>
</g>
<!-- Node15&#45;&gt;Node17 -->
<g id="edge21" class="edge">
<title>Node15&#45;&gt;Node17</title>
<path fill="none" stroke="#63b8ff" d="M649.89,-265.6C655.48,-257.76 661.62,-248.25 666,-239 674.76,-220.49 680.52,-197.02 683.22,-184.44"/>
<polygon fill="#63b8ff" stroke="#63b8ff" points="647.12,-263.45 643.96,-273.56 652.74,-267.63 647.12,-263.45"/>
</g>
<!-- Node19 -->
<g id="node19" class="node">
<title>Node19</title>
<g id="a_node19"><a xlink:href="_uio_if_8cpp.html" target="_top" xlink:title=" ">
<polygon fill="white" stroke="#666666" points="881,-239 825,-239 825,-220 881,-220 881,-239"/>
<text text-anchor="middle" x="853" y="-227" font-family="Helvetica,sans-Serif" font-size="10.00">UioIf.cpp</text>
</a>
</g>
</g>
<!-- Node15&#45;&gt;Node19 -->
<g id="edge22" class="edge">
<title>Node15&#45;&gt;Node19</title>
<path fill="none" stroke="#63b8ff" d="M675.28,-273.91C718.36,-263.38 786.44,-246.76 824.62,-237.43"/>
<polygon fill="#63b8ff" stroke="#63b8ff" points="674.72,-270.44 665.84,-276.21 676.38,-277.24 674.72,-270.44"/>
</g>
<!-- Node16&#45;&gt;Node17 -->
<g id="edge18" class="edge">
<title>Node16&#45;&gt;Node17</title>
<path fill="none" stroke="#63b8ff" d="M737.95,-212.92C724.78,-203.61 708.53,-192.13 697.53,-184.36"/>
<polygon fill="#63b8ff" stroke="#63b8ff" points="735.85,-215.72 746.04,-218.64 739.89,-210.01 735.85,-215.72"/>
</g>
<!-- Node17&#45;&gt;Node7 -->
<g id="edge19" class="edge">
<title>Node17&#45;&gt;Node7</title>
<path fill="none" stroke="#63b8ff" d="M633.76,-161.99C590.26,-152.22 528.72,-138.4 488.84,-129.45"/>
<polygon fill="#63b8ff" stroke="#63b8ff" points="632.97,-165.4 643.49,-164.18 634.5,-158.57 632.97,-165.4"/>
</g>
<!-- Node18 -->
<g id="node18" class="node">
<title>Node18</title>
<g id="a_node18"><a xlink:href="_uio_axi_dma_if_8cpp.html" target="_top" xlink:title=" ">
<polygon fill="white" stroke="#666666" points="729.5,-129 640.5,-129 640.5,-110 729.5,-110 729.5,-129"/>
<text text-anchor="middle" x="685" y="-117" font-family="Helvetica,sans-Serif" font-size="10.00">UioAxiDmaIf.cpp</text>
</a>
</g>
</g>
<!-- Node17&#45;&gt;Node18 -->
<g id="edge20" class="edge">
<title>Node17&#45;&gt;Node18</title>
<path fill="none" stroke="#63b8ff" d="M685,-153.35C685,-145.1 685,-135.97 685,-129.44"/>
<polygon fill="#63b8ff" stroke="#63b8ff" points="681.5,-153.23 685,-163.23 688.5,-153.23 681.5,-153.23"/>
</g>
</g>
</svg>
        <g id="navigator" transform="translate(0 0)" fill="#404254">
                <rect fill="#f2f5e9" fill-opacity="0.5" stroke="#606060" stroke-width=".5" x="0" y="0" width="60" height="60"/>
                <use id="zoomplus" xlink:href="#zoomPlus" x="17" y="9" onmousedown="handleZoom(evt,'in')"/>
                <use id="zoomminus" xlink:href="#zoomMin" x="42" y="9" onmousedown="handleZoom(evt,'out')"/>
                <use id="reset" xlink:href="#resetDef" x="30" y="36" onmousedown="handleReset()"/>
                <g id="arrowUp" xlink:href="#dirArrow" transform="translate(30 24)" onmousedown="handlePan(0,-1)">
                  <use xlink:href="#rim" fill="#404040">
                        <set attributeName="fill" to="#808080" begin="arrowUp.mouseover" end="arrowUp.mouseout"/>
                  </use>
                  <path fill="none" stroke="white" stroke-width="1.5" d="M0,-3.0v7 M-2.5,-0.5L0,-3.0L2.5,-0.5"/>
                </g>
                <g id="arrowRight" xlink:href="#dirArrow" transform="rotate(90) translate(36 -43)" onmousedown="handlePan(1,0)">
                  <use xlink:href="#rim" fill="#404040">
                        <set attributeName="fill" to="#808080" begin="arrowRight.mouseover" end="arrowRight.mouseout"/>
                  </use>
                  <path fill="none" stroke="white" stroke-width="1.5" d="M0,-3.0v7 M-2.5,-0.5L0,-3.0L2.5,-0.5"/>
                </g>
                <g id="arrowDown" xlink:href="#dirArrow" transform="rotate(180) translate(-30 -48)" onmousedown="handlePan(0,1)">
                  <use xlink:href="#rim" fill="#404040">
                        <set attributeName="fill" to="#808080" begin="arrowDown.mouseover" end="arrowDown.mouseout"/>
                  </use>
                  <path fill="none" stroke="white" stroke-width="1.5" d="M0,-3.0v7 M-2.5,-0.5L0,-3.0L2.5,-0.5"/>
                </g>
                <g id="arrowLeft" xlink:href="#dirArrow" transform="rotate(270) translate(-36 17)" onmousedown="handlePan(-1,0)">
                  <use xlink:href="#rim" fill="#404040">
                        <set attributeName="fill" to="#808080" begin="arrowLeft.mouseover" end="arrowLeft.mouseout"/>
                  </use>
                  <path fill="none" stroke="white" stroke-width="1.5" d="M0,-3.0v7 M-2.5,-0.5L0,-3.0L2.5,-0.5"/>
                </g>
        </g>
        <svg viewBox="0 0 15 15" width="100%" height="30px" preserveAspectRatio="xMaxYMin meet">
         <g id="arrow_out" transform="scale(0.3 0.3)">
          <a xlink:href="_uio_config_8hpp__dep__incl_org.svg" target="_base">
           <rect id="button" ry="5" rx="5" y="6" x="6" height="38" width="38"
                fill="#f2f5e9" fill-opacity="0.5" stroke="#606060" stroke-width="1.0"/>
           <path id="arrow"
             d="M 11.500037,31.436501 C 11.940474,20.09759 22.043105,11.32322 32.158766,21.979434 L 37.068811,17.246167 C 37.068811,17.246167 37.088388,32 37.088388,32 L 22.160133,31.978069 C 22.160133,31.978069 26.997745,27.140456 26.997745,27.140456 C 18.528582,18.264221 13.291696,25.230495 11.500037,31.436501 z"
             style="fill:#404040;"/>
          </a>
         </g>
        </svg>
</svg>
