<?xml version="1.0" encoding="UTF-8" standalone="no"?>
<!DOCTYPE svg PUBLIC "-//W3C//DTD SVG 1.1//EN"
 "http://www.w3.org/Graphics/SVG/1.1/DTD/svg11.dtd">
<!-- Generated by graphviz version 7.0.5 (20221223.1930)
 -->
<!-- Title: UioAxiDmaIf.hpp Pages: 1 -->
<!--zoomable 258 -->
<svg id="main" version="1.1" xmlns="http://www.w3.org/2000/svg" xmlns:xlink="http://www.w3.org/1999/xlink" xml:space="preserve" onload="init(evt)">
<style type="text/css"><![CDATA[
.edge:hover path { stroke: red; }
.edge:hover polygon { stroke: red; fill: red; }
]]></style>
<script type="text/javascript"><![CDATA[
var edges = document.getElementsByTagName('g');
if (edges && edges.length) {
  for (var i=0;i<edges.length;i++) {
    if (edges[i].id.substr(0,4)=='edge') {
      edges[i].setAttribute('class','edge');
    }
  }
}
]]></script>
        <defs>
                <circle id="rim" cx="0" cy="0" r="7"/>
                <circle id="rim2" cx="0" cy="0" r="3.5"/>
                <g id="zoomPlus">
                        <use xlink:href="#rim" fill="#404040">
                                <set attributeName="fill" to="#808080" begin="zoomplus.mouseover" end="zoomplus.mouseout"/>
                        </use>
                        <path d="M-4,0h8M0,-4v8" fill="none" stroke="white" stroke-width="1.5" pointer-events="none"/>
                </g>
                <g id="zoomMin">
                        <use xlink:href="#rim" fill="#404040">
                                <set attributeName="fill" to="#808080" begin="zoomminus.mouseover" end="zoomminus.mouseout"/>
                        </use>
                        <path d="M-4,0h8" fill="none" stroke="white" stroke-width="1.5" pointer-events="none"/>
                </g>
                <g id="dirArrow">
                        <path fill="none" stroke="white" stroke-width="1.5" d="M0,-3.0v7 M-2.5,-0.5L0,-3.0L2.5,-0.5"/>
                </g>
               <g id="resetDef">
                       <use xlink:href="#rim2" fill="#404040">
                               <set attributeName="fill" to="#808080" begin="reset.mouseover" end="reset.mouseout"/>
                       </use>
               </g>
        </defs>

<script type="text/javascript">
var viewWidth = 1885;
var viewHeight = 258;
var sectionId = 'dynsection-0';
</script>
<script xlink:href="svgpan.js"/>
<svg id="graph" class="graph">
<g id="viewport">
<title>UioAxiDmaIf.hpp</title>
<!-- Node1 -->
<g id="node1" class="node">
<title>Node1</title>
<g id="a_node1"><a xlink:title=" ">
<polygon fill="#999999" stroke="#666666" points="962.5,-250 873.5,-250 873.5,-231 962.5,-231 962.5,-250"/>
<text text-anchor="middle" x="918" y="-238" font-family="Helvetica,sans-Serif" font-size="10.00">UioAxiDmaIf.hpp</text>
</a>
</g>
</g>
<!-- Node2 -->
<g id="node2" class="node">
<title>Node2</title>
<g id="a_node2"><a xlink:href="_uio_if_8hpp.html" target="_top" xlink:title=" ">
<polygon fill="white" stroke="#666666" points="908,-140 852,-140 852,-121 908,-121 908,-140"/>
<text text-anchor="middle" x="880" y="-128" font-family="Helvetica,sans-Serif" font-size="10.00">UioIf.hpp</text>
</a>
</g>
</g>
<!-- Node1&#45;&gt;Node2 -->
<g id="edge1" class="edge">
<title>Node1&#45;&gt;Node2</title>
<path fill="none" stroke="#63b8ff" d="M896.23,-230.62C881.66,-223.39 863.62,-211.65 855,-195 847.27,-180.08 855.78,-162.2 864.91,-149.22"/>
<polygon fill="#63b8ff" stroke="#63b8ff" points="867.47,-151.62 870.82,-141.57 861.94,-147.34 867.47,-151.62"/>
</g>
<!-- Node24 -->
<g id="node24" class="node">
<title>Node24</title>
<g id="a_node24"><a xlink:href="_axi_dma_8hpp.html" target="_top" xlink:title=" ">
<polygon fill="white" stroke="#666666" points="1072,-195 990,-195 990,-176 1072,-176 1072,-195"/>
<text text-anchor="middle" x="1031" y="-183" font-family="Helvetica,sans-Serif" font-size="10.00">rdl/AxiDma.hpp</text>
</a>
</g>
</g>
<!-- Node1&#45;&gt;Node24 -->
<g id="edge26" class="edge">
<title>Node1&#45;&gt;Node24</title>
<path fill="none" stroke="#63b8ff" d="M937.17,-230.51C954.89,-222.2 981.48,-209.73 1001.83,-200.18"/>
<polygon fill="#63b8ff" stroke="#63b8ff" points="1003.18,-203.42 1010.74,-196 1000.2,-197.08 1003.18,-203.42"/>
</g>
<!-- Node26 -->
<g id="node26" class="node">
<title>Node26</title>
<g id="a_node26"><a xlink:href="_reg_accessor_8hpp.html" target="_top" xlink:title=" ">
<polygon fill="white" stroke="#666666" points="971.5,-195 864.5,-195 864.5,-176 971.5,-176 971.5,-195"/>
<text text-anchor="middle" x="918" y="-183" font-family="Helvetica,sans-Serif" font-size="10.00">rdl/RegAccessor.hpp</text>
</a>
</g>
</g>
<!-- Node1&#45;&gt;Node26 -->
<g id="edge28" class="edge">
<title>Node1&#45;&gt;Node26</title>
<path fill="none" stroke="#63b8ff" d="M918,-230.75C918,-224.27 918,-215.16 918,-206.9"/>
<polygon fill="#63b8ff" stroke="#63b8ff" points="921.5,-206.96 918,-196.96 914.5,-206.96 921.5,-206.96"/>
</g>
<!-- Node3 -->
<g id="node3" class="node">
<title>Node3</title>
<g id="a_node3"><a xlink:title=" ">
<polygon fill="#e0e0e0" stroke="#999999" points="60,-79.5 0,-79.5 0,-60.5 60,-60.5 60,-79.5"/>
<text text-anchor="middle" x="30" y="-67.5" font-family="Helvetica,sans-Serif" font-size="10.00">filesystem</text>
</a>
</g>
</g>
<!-- Node2&#45;&gt;Node3 -->
<g id="edge2" class="edge">
<title>Node2&#45;&gt;Node3</title>
<path fill="none" stroke="#63b8ff" d="M851.57,-129.04C726.37,-126.86 223.45,-116.26 69,-85 66.83,-84.56 64.62,-84.03 62.41,-83.42"/>
<polygon fill="#63b8ff" stroke="#63b8ff" points="63.58,-80.12 52.99,-80.45 61.47,-86.8 63.58,-80.12"/>
</g>
<!-- Node4 -->
<g id="node4" class="node">
<title>Node4</title>
<g id="a_node4"><a xlink:title=" ">
<polygon fill="#e0e0e0" stroke="#999999" points="128,-79.5 78,-79.5 78,-60.5 128,-60.5 128,-79.5"/>
<text text-anchor="middle" x="103" y="-67.5" font-family="Helvetica,sans-Serif" font-size="10.00">fstream</text>
</a>
</g>
</g>
<!-- Node2&#45;&gt;Node4 -->
<g id="edge3" class="edge">
<title>Node2&#45;&gt;Node4</title>
<path fill="none" stroke="#63b8ff" d="M851.79,-128.87C734.06,-126.07 281.57,-113.65 142,-85 139.83,-84.56 137.62,-84.02 135.41,-83.41"/>
<polygon fill="#63b8ff" stroke="#63b8ff" points="136.58,-80.11 125.99,-80.42 134.47,-86.78 136.58,-80.11"/>
</g>
<!-- Node5 -->
<g id="node5" class="node">
<title>Node5</title>
<g id="a_node5"><a xlink:title=" ">
<polygon fill="#e0e0e0" stroke="#999999" points="160,-19 106,-19 106,0 160,0 160,-19"/>
<text text-anchor="middle" x="133" y="-7" font-family="Helvetica,sans-Serif" font-size="10.00">iostream</text>
</a>
</g>
</g>
<!-- Node2&#45;&gt;Node5 -->
<g id="edge4" class="edge">
<title>Node2&#45;&gt;Node5</title>
<path fill="none" stroke="#63b8ff" d="M851.83,-128.95C730.54,-126.4 256.27,-114.59 197,-85 172.74,-72.89 153.93,-47.08 143.15,-29.27"/>
<polygon fill="#63b8ff" stroke="#63b8ff" points="146.26,-27.65 138.26,-20.71 140.19,-31.13 146.26,-27.65"/>
</g>
<!-- Node6 -->
<g id="node6" class="node">
<title>Node6</title>
<g id="a_node6"><a xlink:title=" ">
<polygon fill="#e0e0e0" stroke="#999999" points="229.5,-19 178.5,-19 178.5,0 229.5,0 229.5,-19"/>
<text text-anchor="middle" x="204" y="-7" font-family="Helvetica,sans-Serif" font-size="10.00">memory</text>
</a>
</g>
</g>
<!-- Node2&#45;&gt;Node6 -->
<g id="edge5" class="edge">
<title>Node2&#45;&gt;Node6</title>
<path fill="none" stroke="#63b8ff" d="M851.54,-129.69C730.17,-130.24 259.91,-129.46 213,-85 198.54,-71.3 198.14,-47.39 200.17,-30.35"/>
<polygon fill="#63b8ff" stroke="#63b8ff" points="203.56,-31.33 201.67,-20.9 196.64,-30.23 203.56,-31.33"/>
</g>
<!-- Node7 -->
<g id="node7" class="node">
<title>Node7</title>
<g id="a_node7"><a xlink:title=" ">
<polygon fill="#e0e0e0" stroke="#999999" points="450,-19 384,-19 384,0 450,0 450,-19"/>
<text text-anchor="middle" x="417" y="-7" font-family="Helvetica,sans-Serif" font-size="10.00">string_view</text>
</a>
</g>
</g>
<!-- Node2&#45;&gt;Node7 -->
<g id="edge6" class="edge">
<title>Node2&#45;&gt;Node7</title>
<path fill="none" stroke="#63b8ff" d="M851.7,-129.15C750.8,-127.62 412.92,-119.89 381,-85 365.56,-68.12 383.26,-43.41 398.84,-27.15"/>
<polygon fill="#63b8ff" stroke="#63b8ff" points="400.86,-30.07 405.53,-20.56 395.95,-25.08 400.86,-30.07"/>
</g>
<!-- Node8 -->
<g id="node8" class="node">
<title>Node8</title>
<g id="a_node8"><a xlink:title=" ">
<polygon fill="#e0e0e0" stroke="#999999" points="527.5,-79.5 390.5,-79.5 390.5,-60.5 527.5,-60.5 527.5,-79.5"/>
<text text-anchor="middle" x="459" y="-67.5" font-family="Helvetica,sans-Serif" font-size="10.00">boost/core/noncopyable.hpp</text>
</a>
</g>
</g>
<!-- Node2&#45;&gt;Node8 -->
<g id="edge7" class="edge">
<title>Node2&#45;&gt;Node8</title>
<path fill="none" stroke="#63b8ff" d="M851.92,-126.33C793.29,-119.59 653.61,-103.02 537,-85 530.73,-84.03 524.18,-82.96 517.67,-81.85"/>
<polygon fill="#63b8ff" stroke="#63b8ff" points="518.73,-78.48 508.28,-80.22 517.53,-85.38 518.73,-78.48"/>
</g>
<!-- Node9 -->
<g id="node9" class="node">
<title>Node9</title>
<g id="a_node9"><a xlink:title=" ">
<polygon fill="#e0e0e0" stroke="#999999" points="664,-79.5 546,-79.5 546,-60.5 664,-60.5 664,-79.5"/>
<text text-anchor="middle" x="605" y="-67.5" font-family="Helvetica,sans-Serif" font-size="10.00">boost/log/core/core.hpp</text>
</a>
</g>
</g>
<!-- Node2&#45;&gt;Node9 -->
<g id="edge8" class="edge">
<title>Node2&#45;&gt;Node9</title>
<path fill="none" stroke="#63b8ff" d="M851.61,-123.46C806.06,-113.77 715.95,-94.6 658.18,-82.31"/>
<polygon fill="#63b8ff" stroke="#63b8ff" points="659.07,-78.92 648.56,-80.27 657.61,-85.77 659.07,-78.92"/>
</g>
<!-- Node10 -->
<g id="node10" class="node">
<title>Node10</title>
<g id="a_node10"><a xlink:title=" ">
<polygon fill="#e0e0e0" stroke="#999999" points="811.5,-79.5 682.5,-79.5 682.5,-60.5 811.5,-60.5 811.5,-79.5"/>
<text text-anchor="middle" x="747" y="-67.5" font-family="Helvetica,sans-Serif" font-size="10.00">boost/log/expressions.hpp</text>
</a>
</g>
</g>
<!-- Node2&#45;&gt;Node10 -->
<g id="edge9" class="edge">
<title>Node2&#45;&gt;Node10</title>
<path fill="none" stroke="#63b8ff" d="M859.8,-120.62C838.02,-111.04 803.1,-95.68 777.88,-84.58"/>
<polygon fill="#63b8ff" stroke="#63b8ff" points="779.34,-81.4 768.78,-80.58 776.52,-87.81 779.34,-81.4"/>
</g>
<!-- Node11 -->
<g id="node11" class="node">
<title>Node11</title>
<g id="a_node11"><a xlink:title=" ">
<polygon fill="#e0e0e0" stroke="#999999" points="930.5,-85 829.5,-85 829.5,-55 930.5,-55 930.5,-85"/>
<text text-anchor="start" x="837.5" y="-73" font-family="Helvetica,sans-Serif" font-size="10.00">boost/log/keywords</text>
<text text-anchor="middle" x="880" y="-62" font-family="Helvetica,sans-Serif" font-size="10.00">/severity.hpp</text>
</a>
</g>
</g>
<!-- Node2&#45;&gt;Node11 -->
<g id="edge10" class="edge">
<title>Node2&#45;&gt;Node11</title>
<path fill="none" stroke="#63b8ff" d="M880,-120.87C880,-114.4 880,-105.2 880,-96.45"/>
<polygon fill="#63b8ff" stroke="#63b8ff" points="883.5,-96.63 880,-86.63 876.5,-96.63 883.5,-96.63"/>
</g>
<!-- Node12 -->
<g id="node12" class="node">
<title>Node12</title>
<g id="a_node12"><a xlink:title=" ">
<polygon fill="#e0e0e0" stroke="#999999" points="1089.5,-79.5 948.5,-79.5 948.5,-60.5 1089.5,-60.5 1089.5,-79.5"/>
<text text-anchor="middle" x="1019" y="-67.5" font-family="Helvetica,sans-Serif" font-size="10.00">boost/log/sources/logger.hpp</text>
</a>
</g>
</g>
<!-- Node2&#45;&gt;Node12 -->
<g id="edge11" class="edge">
<title>Node2&#45;&gt;Node12</title>
<path fill="none" stroke="#63b8ff" d="M901.11,-120.62C923.97,-110.99 960.7,-95.54 987.08,-84.43"/>
<polygon fill="#63b8ff" stroke="#63b8ff" points="988.44,-87.66 996.3,-80.56 985.72,-81.21 988.44,-87.66"/>
</g>
<!-- Node13 -->
<g id="node13" class="node">
<title>Node13</title>
<g id="a_node13"><a xlink:title=" ">
<polygon fill="#e0e0e0" stroke="#999999" points="1208.5,-79.5 1107.5,-79.5 1107.5,-60.5 1208.5,-60.5 1208.5,-79.5"/>
<text text-anchor="middle" x="1158" y="-67.5" font-family="Helvetica,sans-Serif" font-size="10.00">boost/log/trivial.hpp</text>
</a>
</g>
</g>
<!-- Node2&#45;&gt;Node13 -->
<g id="edge12" class="edge">
<title>Node2&#45;&gt;Node13</title>
<path fill="none" stroke="#63b8ff" d="M908.19,-123.89C958.72,-113.82 1062.81,-92.97 1099,-85 1102.55,-84.22 1106.21,-83.39 1109.89,-82.55"/>
<polygon fill="#63b8ff" stroke="#63b8ff" points="1110.48,-86.01 1119.43,-80.34 1108.9,-79.19 1110.48,-86.01"/>
</g>
<!-- Node14 -->
<g id="node14" class="node">
<title>Node14</title>
<g id="a_node14"><a xlink:title=" ">
<polygon fill="#e0e0e0" stroke="#999999" points="1269.5,-79.5 1226.5,-79.5 1226.5,-60.5 1269.5,-60.5 1269.5,-79.5"/>
<text text-anchor="middle" x="1248" y="-67.5" font-family="Helvetica,sans-Serif" font-size="10.00">fcntl.h</text>
</a>
</g>
</g>
<!-- Node2&#45;&gt;Node14 -->
<g id="edge13" class="edge">
<title>Node2&#45;&gt;Node14</title>
<path fill="none" stroke="#63b8ff" d="M908.17,-123.62C913.1,-122.68 918.19,-121.77 923,-121 1053.43,-100.18 1091.02,-121.38 1218,-85 1218.97,-84.72 1219.94,-84.42 1220.92,-84.09"/>
<polygon fill="#63b8ff" stroke="#63b8ff" points="1221.84,-87.49 1229.82,-80.52 1219.24,-81 1221.84,-87.49"/>
</g>
<!-- Node15 -->
<g id="node15" class="node">
<title>Node15</title>
<g id="a_node15"><a xlink:title=" ">
<polygon fill="#e0e0e0" stroke="#999999" points="1356.5,-79.5 1287.5,-79.5 1287.5,-60.5 1356.5,-60.5 1356.5,-79.5"/>
<text text-anchor="middle" x="1322" y="-67.5" font-family="Helvetica,sans-Serif" font-size="10.00">sys/mman.h</text>
</a>
</g>
</g>
<!-- Node2&#45;&gt;Node15 -->
<g id="edge14" class="edge">
<title>Node2&#45;&gt;Node15</title>
<path fill="none" stroke="#63b8ff" d="M908.15,-123.54C913.09,-122.61 918.18,-121.72 923,-121 1080.29,-97.55 1123.39,-117.8 1279,-85 1281.59,-84.45 1284.25,-83.81 1286.91,-83.1"/>
<polygon fill="#63b8ff" stroke="#63b8ff" points="1287.64,-86.53 1296.24,-80.34 1285.65,-79.82 1287.64,-86.53"/>
</g>
<!-- Node16 -->
<g id="node16" class="node">
<title>Node16</title>
<g id="a_node16"><a xlink:title=" ">
<polygon fill="#e0e0e0" stroke="#999999" points="1433.5,-79.5 1374.5,-79.5 1374.5,-60.5 1433.5,-60.5 1433.5,-79.5"/>
<text text-anchor="middle" x="1404" y="-67.5" font-family="Helvetica,sans-Serif" font-size="10.00">sys/stat.h</text>
</a>
</g>
</g>
<!-- Node2&#45;&gt;Node16 -->
<g id="edge15" class="edge">
<title>Node2&#45;&gt;Node16</title>
<path fill="none" stroke="#63b8ff" d="M908.14,-123.46C913.08,-122.54 918.18,-121.67 923,-121 1118.66,-93.8 1173.1,-127.54 1366,-85 1368.02,-84.55 1370.08,-84.02 1372.15,-83.44"/>
<polygon fill="#63b8ff" stroke="#63b8ff" points="1373.15,-86.79 1381.56,-80.36 1370.97,-80.14 1373.15,-86.79"/>
</g>
<!-- Node17 -->
<g id="node17" class="node">
<title>Node17</title>
<g id="a_node17"><a xlink:title=" ">
<polygon fill="#e0e0e0" stroke="#999999" points="1516.5,-79.5 1451.5,-79.5 1451.5,-60.5 1516.5,-60.5 1516.5,-79.5"/>
<text text-anchor="middle" x="1484" y="-67.5" font-family="Helvetica,sans-Serif" font-size="10.00">sys/types.h</text>
</a>
</g>
</g>
<!-- Node2&#45;&gt;Node17 -->
<g id="edge16" class="edge">
<title>Node2&#45;&gt;Node17</title>
<path fill="none" stroke="#63b8ff" d="M908.13,-123.41C913.07,-122.49 918.17,-121.64 923,-121 1152.64,-90.48 1215.91,-130.82 1443,-85 1445.46,-84.5 1447.97,-83.9 1450.48,-83.23"/>
<polygon fill="#63b8ff" stroke="#63b8ff" points="1451.31,-86.63 1459.86,-80.36 1449.27,-79.93 1451.31,-86.63"/>
</g>
<!-- Node18 -->
<g id="node18" class="node">
<title>Node18</title>
<g id="a_node18"><a xlink:title=" ">
<polygon fill="#e0e0e0" stroke="#999999" points="1585,-79.5 1535,-79.5 1535,-60.5 1585,-60.5 1585,-79.5"/>
<text text-anchor="middle" x="1560" y="-67.5" font-family="Helvetica,sans-Serif" font-size="10.00">unistd.h</text>
</a>
</g>
</g>
<!-- Node2&#45;&gt;Node18 -->
<g id="edge17" class="edge">
<title>Node2&#45;&gt;Node18</title>
<path fill="none" stroke="#63b8ff" d="M908.13,-123.37C913.07,-122.46 918.17,-121.62 923,-121 1189.3,-86.89 1264.3,-144.93 1526,-85 1527.59,-84.63 1529.21,-84.2 1530.83,-83.72"/>
<polygon fill="#63b8ff" stroke="#63b8ff" points="1531.63,-87.15 1539.88,-80.5 1529.28,-80.56 1531.63,-87.15"/>
</g>
<!-- Node19 -->
<g id="node19" class="node">
<title>Node19</title>
<g id="a_node19"><a xlink:href="_uio_config_8hpp.html" target="_top" xlink:title=" ">
<polygon fill="white" stroke="#666666" points="333.5,-79.5 222.5,-79.5 222.5,-60.5 333.5,-60.5 333.5,-79.5"/>
<text text-anchor="middle" x="278" y="-67.5" font-family="Helvetica,sans-Serif" font-size="10.00">udmaio/UioConfig.hpp</text>
</a>
</g>
</g>
<!-- Node2&#45;&gt;Node19 -->
<g id="edge18" class="edge">
<title>Node2&#45;&gt;Node19</title>
<path fill="none" stroke="#63b8ff" d="M851.61,-128.27C771.9,-124.56 539.34,-112.05 348,-85 342.02,-84.15 335.78,-83.12 329.59,-82.01"/>
<polygon fill="#63b8ff" stroke="#63b8ff" points="330.54,-78.63 320.07,-80.21 329.25,-85.5 330.54,-78.63"/>
</g>
<!-- Node22 -->
<g id="node22" class="node">
<title>Node22</title>
<g id="a_node22"><a xlink:title=" ">
<polygon fill="#e0e0e0" stroke="#999999" points="1727,-85 1603,-85 1603,-55 1727,-55 1727,-85"/>
<text text-anchor="start" x="1611" y="-73" font-family="Helvetica,sans-Serif" font-size="10.00">boost/log/sources/record</text>
<text text-anchor="middle" x="1665" y="-62" font-family="Helvetica,sans-Serif" font-size="10.00">_ostream.hpp</text>
</a>
</g>
</g>
<!-- Node2&#45;&gt;Node22 -->
<g id="edge24" class="edge">
<title>Node2&#45;&gt;Node22</title>
<path fill="none" stroke="#63b8ff" d="M908.13,-123.35C913.06,-122.44 918.17,-121.6 923,-121 1215.73,-84.4 1295.7,-121.06 1591.67,-85.16"/>
<polygon fill="#63b8ff" stroke="#63b8ff" points="1591.74,-88.67 1601.24,-83.98 1590.89,-81.73 1591.74,-88.67"/>
</g>
<!-- Node23 -->
<g id="node23" class="node">
<title>Node23</title>
<g id="a_node23"><a xlink:title=" ">
<polygon fill="#e0e0e0" stroke="#999999" points="1876.5,-85 1745.5,-85 1745.5,-55 1876.5,-55 1876.5,-85"/>
<text text-anchor="start" x="1753.5" y="-73" font-family="Helvetica,sans-Serif" font-size="10.00">boost/log/sources/severity</text>
<text text-anchor="middle" x="1811" y="-62" font-family="Helvetica,sans-Serif" font-size="10.00">_logger.hpp</text>
</a>
</g>
</g>
<!-- Node2&#45;&gt;Node23 -->
<g id="edge25" class="edge">
<title>Node2&#45;&gt;Node23</title>
<path fill="none" stroke="#63b8ff" d="M908.12,-123.31C913.06,-122.4 918.16,-121.58 923,-121 1278.42,-78.25 1374.71,-125.3 1733.98,-85.09"/>
<polygon fill="#63b8ff" stroke="#63b8ff" points="1734.18,-88.59 1743.73,-83.99 1733.39,-81.64 1734.18,-88.59"/>
</g>
<!-- Node19&#45;&gt;Node5 -->
<g id="edge19" class="edge">
<title>Node19&#45;&gt;Node5</title>
<path fill="none" stroke="#63b8ff" d="M255.98,-60.12C231.92,-50.41 193.13,-34.76 165.56,-23.64"/>
<polygon fill="#63b8ff" stroke="#63b8ff" points="167.22,-20.53 156.63,-20.03 164.6,-27.02 167.22,-20.53"/>
</g>
<!-- Node19&#45;&gt;Node6 -->
<g id="edge20" class="edge">
<title>Node19&#45;&gt;Node6</title>
<path fill="none" stroke="#63b8ff" d="M266.76,-60.12C255.46,-51.18 237.79,-37.22 224.08,-26.37"/>
<polygon fill="#63b8ff" stroke="#63b8ff" points="226.55,-23.86 216.53,-20.41 222.21,-29.35 226.55,-23.86"/>
</g>
<!-- Node19&#45;&gt;Node7 -->
<g id="edge23" class="edge">
<title>Node19&#45;&gt;Node7</title>
<path fill="none" stroke="#63b8ff" d="M299.11,-60.12C321.97,-50.49 358.7,-35.04 385.08,-23.93"/>
<polygon fill="#63b8ff" stroke="#63b8ff" points="386.44,-27.16 394.3,-20.06 383.72,-20.71 386.44,-27.16"/>
</g>
<!-- Node20 -->
<g id="node20" class="node">
<title>Node20</title>
<g id="a_node20"><a xlink:title=" ">
<polygon fill="#e0e0e0" stroke="#999999" points="365.5,-19 306.5,-19 306.5,0 365.5,0 365.5,-19"/>
<text text-anchor="middle" x="336" y="-7" font-family="Helvetica,sans-Serif" font-size="10.00">stdexcept</text>
</a>
</g>
</g>
<!-- Node19&#45;&gt;Node20 -->
<g id="edge21" class="edge">
<title>Node19&#45;&gt;Node20</title>
<path fill="none" stroke="#63b8ff" d="M286.56,-60.37C295.21,-51.64 308.8,-37.93 319.55,-27.09"/>
<polygon fill="#63b8ff" stroke="#63b8ff" points="321.79,-29.81 326.34,-20.24 316.81,-24.88 321.79,-29.81"/>
</g>
<!-- Node21 -->
<g id="node21" class="node">
<title>Node21</title>
<g id="a_node21"><a xlink:title=" ">
<polygon fill="#e0e0e0" stroke="#999999" points="288.5,-19 247.5,-19 247.5,0 288.5,0 288.5,-19"/>
<text text-anchor="middle" x="268" y="-7" font-family="Helvetica,sans-Serif" font-size="10.00">string</text>
</a>
</g>
</g>
<!-- Node19&#45;&gt;Node21 -->
<g id="edge22" class="edge">
<title>Node19&#45;&gt;Node21</title>
<path fill="none" stroke="#63b8ff" d="M276.52,-60.37C275.18,-52.5 273.14,-40.6 271.4,-30.39"/>
<polygon fill="#63b8ff" stroke="#63b8ff" points="274.87,-29.93 269.74,-20.66 267.97,-31.11 274.87,-29.93"/>
</g>
<!-- Node25 -->
<g id="node25" class="node">
<title>Node25</title>
<g id="a_node25"><a xlink:title=" ">
<polygon fill="#e0e0e0" stroke="#999999" points="978,-140 932,-140 932,-121 978,-121 978,-140"/>
<text text-anchor="middle" x="955" y="-128" font-family="Helvetica,sans-Serif" font-size="10.00">cstdint</text>
</a>
</g>
</g>
<!-- Node24&#45;&gt;Node25 -->
<g id="edge27" class="edge">
<title>Node24&#45;&gt;Node25</title>
<path fill="none" stroke="#63b8ff" d="M1018.11,-175.51C1006.9,-167.7 990.43,-156.21 977.12,-146.93"/>
<polygon fill="#63b8ff" stroke="#63b8ff" points="979.15,-144.07 968.94,-141.22 975.14,-149.81 979.15,-144.07"/>
</g>
<!-- Node26&#45;&gt;Node2 -->
<g id="edge30" class="edge">
<title>Node26&#45;&gt;Node2</title>
<path fill="none" stroke="#63b8ff" d="M911.73,-175.75C906.64,-168.66 899.3,-158.42 892.97,-149.59"/>
<polygon fill="#63b8ff" stroke="#63b8ff" points="895.96,-147.76 887.29,-141.67 890.28,-151.84 895.96,-147.76"/>
</g>
<!-- Node26&#45;&gt;Node25 -->
<g id="edge29" class="edge">
<title>Node26&#45;&gt;Node25</title>
<path fill="none" stroke="#63b8ff" d="M924.11,-175.75C929.01,-168.73 936.05,-158.64 942.17,-149.87"/>
<polygon fill="#63b8ff" stroke="#63b8ff" points="945.04,-151.89 947.89,-141.68 939.3,-147.88 945.04,-151.89"/>
</g>
</g>
</svg>
        <g id="navigator" transform="translate(0 0)" fill="#404254">
                <rect fill="#f2f5e9" fill-opacity="0.5" stroke="#606060" stroke-width=".5" x="0" y="0" width="60" height="60"/>
                <use id="zoomplus" xlink:href="#zoomPlus" x="17" y="9" onmousedown="handleZoom(evt,'in')"/>
                <use id="zoomminus" xlink:href="#zoomMin" x="42" y="9" onmousedown="handleZoom(evt,'out')"/>
                <use id="reset" xlink:href="#resetDef" x="30" y="36" onmousedown="handleReset()"/>
                <g id="arrowUp" xlink:href="#dirArrow" transform="translate(30 24)" onmousedown="handlePan(0,-1)">
                  <use xlink:href="#rim" fill="#404040">
                        <set attributeName="fill" to="#808080" begin="arrowUp.mouseover" end="arrowUp.mouseout"/>
                  </use>
                  <path fill="none" stroke="white" stroke-width="1.5" d="M0,-3.0v7 M-2.5,-0.5L0,-3.0L2.5,-0.5"/>
                </g>
                <g id="arrowRight" xlink:href="#dirArrow" transform="rotate(90) translate(36 -43)" onmousedown="handlePan(1,0)">
                  <use xlink:href="#rim" fill="#404040">
                        <set attributeName="fill" to="#808080" begin="arrowRight.mouseover" end="arrowRight.mouseout"/>
                  </use>
                  <path fill="none" stroke="white" stroke-width="1.5" d="M0,-3.0v7 M-2.5,-0.5L0,-3.0L2.5,-0.5"/>
                </g>
                <g id="arrowDown" xlink:href="#dirArrow" transform="rotate(180) translate(-30 -48)" onmousedown="handlePan(0,1)">
                  <use xlink:href="#rim" fill="#404040">
                        <set attributeName="fill" to="#808080" begin="arrowDown.mouseover" end="arrowDown.mouseout"/>
                  </use>
                  <path fill="none" stroke="white" stroke-width="1.5" d="M0,-3.0v7 M-2.5,-0.5L0,-3.0L2.5,-0.5"/>
                </g>
                <g id="arrowLeft" xlink:href="#dirArrow" transform="rotate(270) translate(-36 17)" onmousedown="handlePan(-1,0)">
                  <use xlink:href="#rim" fill="#404040">
                        <set attributeName="fill" to="#808080" begin="arrowLeft.mouseover" end="arrowLeft.mouseout"/>
                  </use>
                  <path fill="none" stroke="white" stroke-width="1.5" d="M0,-3.0v7 M-2.5,-0.5L0,-3.0L2.5,-0.5"/>
                </g>
        </g>
        <svg viewBox="0 0 15 15" width="100%" height="30px" preserveAspectRatio="xMaxYMin meet">
         <g id="arrow_out" transform="scale(0.3 0.3)">
          <a xlink:href="_uio_axi_dma_if_8hpp__incl_org.svg" target="_base">
           <rect id="button" ry="5" rx="5" y="6" x="6" height="38" width="38"
                fill="#f2f5e9" fill-opacity="0.5" stroke="#606060" stroke-width="1.0"/>
           <path id="arrow"
             d="M 11.500037,31.436501 C 11.940474,20.09759 22.043105,11.32322 32.158766,21.979434 L 37.068811,17.246167 C 37.068811,17.246167 37.088388,32 37.088388,32 L 22.160133,31.978069 C 22.160133,31.978069 26.997745,27.140456 26.997745,27.140456 C 18.528582,18.264221 13.291696,25.230495 11.500037,31.436501 z"
             style="fill:#404040;"/>
          </a>
         </g>
        </svg>
</svg>
