<?xml version="1.0" encoding="UTF-8" standalone="no"?>
<!DOCTYPE svg PUBLIC "-//W3C//DTD SVG 1.1//EN"
 "http://www.w3.org/Graphics/SVG/1.1/DTD/svg11.dtd">
<!-- Generated by graphviz version 7.0.5 (20221223.1930)
 -->
<!-- Title: UioConfig.cpp Pages: 1 -->
<!--zoomable 203 -->
<svg id="main" version="1.1" xmlns="http://www.w3.org/2000/svg" xmlns:xlink="http://www.w3.org/1999/xlink" xml:space="preserve" onload="init(evt)">
<style type="text/css"><![CDATA[
.edge:hover path { stroke: red; }
.edge:hover polygon { stroke: red; fill: red; }
]]></style>
<script type="text/javascript"><![CDATA[
var edges = document.getElementsByTagName('g');
if (edges && edges.length) {
  for (var i=0;i<edges.length;i++) {
    if (edges[i].id.substr(0,4)=='edge') {
      edges[i].setAttribute('class','edge');
    }
  }
}
]]></script>
        <defs>
                <circle id="rim" cx="0" cy="0" r="7"/>
                <circle id="rim2" cx="0" cy="0" r="3.5"/>
                <g id="zoomPlus">
                        <use xlink:href="#rim" fill="#404040">
                                <set attributeName="fill" to="#808080" begin="zoomplus.mouseover" end="zoomplus.mouseout"/>
                        </use>
                        <path d="M-4,0h8M0,-4v8" fill="none" stroke="white" stroke-width="1.5" pointer-events="none"/>
                </g>
                <g id="zoomMin">
                        <use xlink:href="#rim" fill="#404040">
                                <set attributeName="fill" to="#808080" begin="zoomminus.mouseover" end="zoomminus.mouseout"/>
                        </use>
                        <path d="M-4,0h8" fill="none" stroke="white" stroke-width="1.5" pointer-events="none"/>
                </g>
                <g id="dirArrow">
                        <path fill="none" stroke="white" stroke-width="1.5" d="M0,-3.0v7 M-2.5,-0.5L0,-3.0L2.5,-0.5"/>
                </g>
               <g id="resetDef">
                       <use xlink:href="#rim2" fill="#404040">
                               <set attributeName="fill" to="#808080" begin="reset.mouseover" end="reset.mouseout"/>
                       </use>
               </g>
        </defs>

<script type="text/javascript">
var viewWidth = 1279;
var viewHeight = 203;
var sectionId = 'dynsection-0';
</script>
<script xlink:href="svgpan.js"/>
<svg id="graph" class="graph">
<g id="viewport">
<title>UioConfig.cpp</title>
<!-- Node1 -->
<g id="node1" class="node">
<title>Node1</title>
<g id="a_node1"><a xlink:title=" ">
<polygon fill="#999999" stroke="#666666" points="514,-195 437,-195 437,-176 514,-176 514,-195"/>
<text text-anchor="middle" x="475.5" y="-183" font-family="Helvetica,sans-Serif" font-size="10.00">UioConfig.cpp</text>
</a>
</g>
</g>
<!-- Node2 -->
<g id="node2" class="node">
<title>Node2</title>
<g id="a_node2"><a xlink:href="_uio_config_8hpp.html" target="_top" xlink:title=" ">
<polygon fill="white" stroke="#666666" points="184,-85 73,-85 73,-66 184,-66 184,-85"/>
<text text-anchor="middle" x="128.5" y="-73" font-family="Helvetica,sans-Serif" font-size="10.00">udmaio/UioConfig.hpp</text>
</a>
</g>
</g>
<!-- Node1&#45;&gt;Node2 -->
<g id="edge1" class="edge">
<title>Node1&#45;&gt;Node2</title>
<path fill="none" stroke="#63b8ff" d="M446.81,-175.57C384.85,-156.29 238.44,-110.72 167.87,-88.75"/>
<polygon fill="#63b8ff" stroke="#63b8ff" points="169.26,-85.52 158.67,-85.89 167.18,-92.2 169.26,-85.52"/>
</g>
<!-- Node8 -->
<g id="node8" class="node">
<title>Node8</title>
<g id="a_node8"><a xlink:title=" ">
<polygon fill="#e0e0e0" stroke="#999999" points="262.5,-85 202.5,-85 202.5,-66 262.5,-66 262.5,-85"/>
<text text-anchor="middle" x="232.5" y="-73" font-family="Helvetica,sans-Serif" font-size="10.00">filesystem</text>
</a>
</g>
</g>
<!-- Node1&#45;&gt;Node8 -->
<g id="edge7" class="edge">
<title>Node1&#45;&gt;Node8</title>
<path fill="none" stroke="#63b8ff" d="M455.61,-175.66C413.16,-156.79 313.43,-112.47 262.94,-90.03"/>
<polygon fill="#63b8ff" stroke="#63b8ff" points="264.6,-86.94 254.04,-86.07 261.76,-93.33 264.6,-86.94"/>
</g>
<!-- Node9 -->
<g id="node9" class="node">
<title>Node9</title>
<g id="a_node9"><a xlink:title=" ">
<polygon fill="#e0e0e0" stroke="#999999" points="330.5,-85 280.5,-85 280.5,-66 330.5,-66 330.5,-85"/>
<text text-anchor="middle" x="305.5" y="-73" font-family="Helvetica,sans-Serif" font-size="10.00">fstream</text>
</a>
</g>
</g>
<!-- Node1&#45;&gt;Node9 -->
<g id="edge8" class="edge">
<title>Node1&#45;&gt;Node9</title>
<path fill="none" stroke="#63b8ff" d="M461.59,-175.66C432.57,-157.23 365.32,-114.5 329.29,-91.62"/>
<polygon fill="#63b8ff" stroke="#63b8ff" points="331.2,-88.68 320.88,-86.27 327.45,-94.59 331.2,-88.68"/>
</g>
<!-- Node10 -->
<g id="node10" class="node">
<title>Node10</title>
<g id="a_node10"><a xlink:title=" ">
<polygon fill="#e0e0e0" stroke="#999999" points="697.5,-140 657.5,-140 657.5,-121 697.5,-121 697.5,-140"/>
<text text-anchor="middle" x="677.5" y="-128" font-family="Helvetica,sans-Serif" font-size="10.00">regex</text>
</a>
</g>
</g>
<!-- Node1&#45;&gt;Node10 -->
<g id="edge9" class="edge">
<title>Node1&#45;&gt;Node10</title>
<path fill="none" stroke="#63b8ff" d="M509.77,-175.51C547.96,-165.49 609.19,-149.42 646.15,-139.72"/>
<polygon fill="#63b8ff" stroke="#63b8ff" points="646.99,-143.12 655.78,-137.2 645.22,-136.35 646.99,-143.12"/>
</g>
<!-- Node11 -->
<g id="node11" class="node">
<title>Node11</title>
<g id="a_node11"><a xlink:title=" ">
<polygon fill="#e0e0e0" stroke="#999999" points="1166.5,-85 1116.5,-85 1116.5,-66 1166.5,-66 1166.5,-85"/>
<text text-anchor="middle" x="1141.5" y="-73" font-family="Helvetica,sans-Serif" font-size="10.00">unistd.h</text>
</a>
</g>
</g>
<!-- Node1&#45;&gt;Node11 -->
<g id="edge10" class="edge">
<title>Node1&#45;&gt;Node11</title>
<path fill="none" stroke="#63b8ff" d="M507.07,-175.51C534.73,-167.3 575.82,-154.3 610.5,-140 627.96,-132.8 630.31,-126.05 648.5,-121 842.1,-67.22 903.33,-116.1 1105.07,-85.08"/>
<polygon fill="#63b8ff" stroke="#63b8ff" points="1105.53,-88.55 1114.85,-83.52 1104.43,-81.64 1105.53,-88.55"/>
</g>
<!-- Node12 -->
<g id="node12" class="node">
<title>Node12</title>
<g id="a_node12"><a xlink:href="_hw_accessor_8hpp.html" target="_top" xlink:title=" ">
<polygon fill="white" stroke="#666666" points="601,-140 476,-140 476,-121 601,-121 601,-140"/>
<text text-anchor="middle" x="538.5" y="-128" font-family="Helvetica,sans-Serif" font-size="10.00">udmaio/HwAccessor.hpp</text>
</a>
</g>
</g>
<!-- Node1&#45;&gt;Node12 -->
<g id="edge11" class="edge">
<title>Node1&#45;&gt;Node12</title>
<path fill="none" stroke="#63b8ff" d="M486.19,-175.51C495.2,-167.93 508.33,-156.88 519.18,-147.75"/>
<polygon fill="#63b8ff" stroke="#63b8ff" points="521.41,-150.45 526.81,-141.33 516.91,-145.09 521.41,-150.45"/>
</g>
<!-- Node3 -->
<g id="node3" class="node">
<title>Node3</title>
<g id="a_node3"><a xlink:title=" ">
<polygon fill="#e0e0e0" stroke="#999999" points="215.5,-24.5 161.5,-24.5 161.5,-5.5 215.5,-5.5 215.5,-24.5"/>
<text text-anchor="middle" x="188.5" y="-12.5" font-family="Helvetica,sans-Serif" font-size="10.00">iostream</text>
</a>
</g>
</g>
<!-- Node2&#45;&gt;Node3 -->
<g id="edge2" class="edge">
<title>Node2&#45;&gt;Node3</title>
<path fill="none" stroke="#63b8ff" d="M137.61,-65.62C146.51,-56.94 160.28,-43.52 171.25,-32.82"/>
<polygon fill="#63b8ff" stroke="#63b8ff" points="173.5,-35.51 178.22,-26.03 168.61,-30.5 173.5,-35.51"/>
</g>
<!-- Node4 -->
<g id="node4" class="node">
<title>Node4</title>
<g id="a_node4"><a xlink:title=" ">
<polygon fill="#e0e0e0" stroke="#999999" points="285,-24.5 234,-24.5 234,-5.5 285,-5.5 285,-24.5"/>
<text text-anchor="middle" x="259.5" y="-12.5" font-family="Helvetica,sans-Serif" font-size="10.00">memory</text>
</a>
</g>
</g>
<!-- Node2&#45;&gt;Node4 -->
<g id="edge3" class="edge">
<title>Node2&#45;&gt;Node4</title>
<path fill="none" stroke="#63b8ff" d="M148.4,-65.62C169.84,-56.04 204.24,-40.68 229.09,-29.58"/>
<polygon fill="#63b8ff" stroke="#63b8ff" points="230.33,-32.86 238.03,-25.59 227.48,-26.47 230.33,-32.86"/>
</g>
<!-- Node5 -->
<g id="node5" class="node">
<title>Node5</title>
<g id="a_node5"><a xlink:title=" ">
<polygon fill="#e0e0e0" stroke="#999999" points="59,-24.5 0,-24.5 0,-5.5 59,-5.5 59,-24.5"/>
<text text-anchor="middle" x="29.5" y="-12.5" font-family="Helvetica,sans-Serif" font-size="10.00">stdexcept</text>
</a>
</g>
</g>
<!-- Node2&#45;&gt;Node5 -->
<g id="edge4" class="edge">
<title>Node2&#45;&gt;Node5</title>
<path fill="none" stroke="#63b8ff" d="M113.46,-65.62C97.84,-56.38 73.11,-41.77 54.53,-30.79"/>
<polygon fill="#63b8ff" stroke="#63b8ff" points="56.37,-27.81 45.98,-25.74 52.81,-33.84 56.37,-27.81"/>
</g>
<!-- Node6 -->
<g id="node6" class="node">
<title>Node6</title>
<g id="a_node6"><a xlink:title=" ">
<polygon fill="#e0e0e0" stroke="#999999" points="344,-24.5 303,-24.5 303,-5.5 344,-5.5 344,-24.5"/>
<text text-anchor="middle" x="323.5" y="-12.5" font-family="Helvetica,sans-Serif" font-size="10.00">string</text>
</a>
</g>
</g>
<!-- Node2&#45;&gt;Node6 -->
<g id="edge5" class="edge">
<title>Node2&#45;&gt;Node6</title>
<path fill="none" stroke="#63b8ff" d="M169.46,-65.54C203.22,-57.66 252.11,-45.11 293.5,-30 294.12,-29.77 294.75,-29.54 295.39,-29.29"/>
<polygon fill="#63b8ff" stroke="#63b8ff" points="296.39,-32.67 304.24,-25.55 293.66,-26.22 296.39,-32.67"/>
</g>
<!-- Node7 -->
<g id="node7" class="node">
<title>Node7</title>
<g id="a_node7"><a xlink:title=" ">
<polygon fill="#e0e0e0" stroke="#999999" points="143.5,-24.5 77.5,-24.5 77.5,-5.5 143.5,-5.5 143.5,-24.5"/>
<text text-anchor="middle" x="110.5" y="-12.5" font-family="Helvetica,sans-Serif" font-size="10.00">string_view</text>
</a>
</g>
</g>
<!-- Node2&#45;&gt;Node7 -->
<g id="edge6" class="edge">
<title>Node2&#45;&gt;Node7</title>
<path fill="none" stroke="#63b8ff" d="M125.84,-65.87C123.4,-57.92 119.68,-45.83 116.52,-35.55"/>
<polygon fill="#63b8ff" stroke="#63b8ff" points="119.9,-34.64 113.61,-26.11 113.21,-36.7 119.9,-34.64"/>
</g>
<!-- Node12&#45;&gt;Node2 -->
<g id="edge33" class="edge">
<title>Node12&#45;&gt;Node2</title>
<path fill="none" stroke="#63b8ff" d="M475.54,-121.41C408.81,-112.83 300,-98.82 195.56,-85.27"/>
<polygon fill="#63b8ff" stroke="#63b8ff" points="196.04,-81.8 185.67,-83.98 195.14,-88.74 196.04,-81.8"/>
</g>
<!-- Node12&#45;&gt;Node3 -->
<g id="edge15" class="edge">
<title>Node12&#45;&gt;Node3</title>
<path fill="none" stroke="#63b8ff" d="M536.01,-120.79C531.49,-106.69 520.48,-79.11 500.5,-66 397.07,1.86 344.35,-60.64 224.5,-30 222.88,-29.58 221.23,-29.12 219.57,-28.61"/>
<polygon fill="#63b8ff" stroke="#63b8ff" points="220.81,-25.34 210.21,-25.36 218.51,-31.95 220.81,-25.34"/>
</g>
<!-- Node12&#45;&gt;Node4 -->
<g id="edge16" class="edge">
<title>Node12&#45;&gt;Node4</title>
<path fill="none" stroke="#63b8ff" d="M540.83,-120.79C543.89,-107.18 547.37,-80.88 533.5,-66 496.73,-26.55 345.48,-44.37 293.5,-30 292.15,-29.63 290.78,-29.21 289.41,-28.77"/>
<polygon fill="#63b8ff" stroke="#63b8ff" points="291.01,-25.63 280.42,-25.49 288.61,-32.21 291.01,-25.63"/>
</g>
<!-- Node12&#45;&gt;Node6 -->
<g id="edge17" class="edge">
<title>Node12&#45;&gt;Node6</title>
<path fill="none" stroke="#63b8ff" d="M549.33,-120.54C563.78,-107.52 585.97,-83.05 571.5,-66 539.58,-28.4 399.52,-44.87 352.5,-30 351.85,-29.79 351.2,-29.58 350.54,-29.35"/>
<polygon fill="#63b8ff" stroke="#63b8ff" points="352.01,-26.17 341.43,-25.57 349.32,-32.63 352.01,-26.17"/>
</g>
<!-- Node12&#45;&gt;Node8 -->
<g id="edge13" class="edge">
<title>Node12&#45;&gt;Node8</title>
<path fill="none" stroke="#63b8ff" d="M479.49,-120.52C427.83,-112.47 350.47,-99.95 273.98,-85.4"/>
<polygon fill="#63b8ff" stroke="#63b8ff" points="274.67,-81.97 264.19,-83.52 273.35,-88.84 274.67,-81.97"/>
</g>
<!-- Node12&#45;&gt;Node9 -->
<g id="edge14" class="edge">
<title>Node12&#45;&gt;Node9</title>
<path fill="none" stroke="#63b8ff" d="M496.89,-120.51C458.94,-112.24 401.04,-99.46 341.81,-85.5"/>
<polygon fill="#63b8ff" stroke="#63b8ff" points="342.74,-82.13 332.21,-83.23 341.13,-88.94 342.74,-82.13"/>
</g>
<!-- Node12&#45;&gt;Node11 -->
<g id="edge23" class="edge">
<title>Node12&#45;&gt;Node11</title>
<path fill="none" stroke="#63b8ff" d="M601.1,-122.39C605.97,-121.9 610.81,-121.43 615.5,-121 830.21,-101.3 889.07,-119.1 1105.26,-85.07"/>
<polygon fill="#63b8ff" stroke="#63b8ff" points="1105.53,-88.57 1114.85,-83.54 1104.43,-81.66 1105.53,-88.57"/>
</g>
<!-- Node13 -->
<g id="node13" class="node">
<title>Node13</title>
<g id="a_node13"><a xlink:title=" ">
<polygon fill="#e0e0e0" stroke="#999999" points="795,-85 746,-85 746,-66 795,-66 795,-85"/>
<text text-anchor="middle" x="770.5" y="-73" font-family="Helvetica,sans-Serif" font-size="10.00">cstddef</text>
</a>
</g>
</g>
<!-- Node12&#45;&gt;Node13 -->
<g id="edge12" class="edge">
<title>Node12&#45;&gt;Node13</title>
<path fill="none" stroke="#63b8ff" d="M579.52,-120.58C617.26,-112.31 675.06,-99.47 734.52,-85.43"/>
<polygon fill="#63b8ff" stroke="#63b8ff" points="735.24,-88.85 744.16,-83.14 733.62,-82.04 735.24,-88.85"/>
</g>
<!-- Node14 -->
<g id="node14" class="node">
<title>Node14</title>
<g id="a_node14"><a xlink:title=" ">
<polygon fill="#e0e0e0" stroke="#999999" points="950,-85 813,-85 813,-66 950,-66 950,-85"/>
<text text-anchor="middle" x="881.5" y="-73" font-family="Helvetica,sans-Serif" font-size="10.00">boost/core/noncopyable.hpp</text>
</a>
</g>
</g>
<!-- Node12&#45;&gt;Node14 -->
<g id="edge18" class="edge">
<title>Node12&#45;&gt;Node14</title>
<path fill="none" stroke="#63b8ff" d="M596.69,-120.51C656.28,-111.3 748.91,-96.99 812.24,-87.2"/>
<polygon fill="#63b8ff" stroke="#63b8ff" points="812.47,-90.71 821.82,-85.72 811.4,-83.79 812.47,-90.71"/>
</g>
<!-- Node15 -->
<g id="node15" class="node">
<title>Node15</title>
<g id="a_node15"><a xlink:title=" ">
<polygon fill="#e0e0e0" stroke="#999999" points="1011,-85 968,-85 968,-66 1011,-66 1011,-85"/>
<text text-anchor="middle" x="989.5" y="-73" font-family="Helvetica,sans-Serif" font-size="10.00">fcntl.h</text>
</a>
</g>
</g>
<!-- Node12&#45;&gt;Node15 -->
<g id="edge19" class="edge">
<title>Node12&#45;&gt;Node15</title>
<path fill="none" stroke="#63b8ff" d="M601.11,-122.56C605.98,-122.03 610.82,-121.5 615.5,-121 764.76,-104.95 806.6,-113.63 956.66,-85.27"/>
<polygon fill="#63b8ff" stroke="#63b8ff" points="957,-88.76 966.16,-83.44 955.68,-81.89 957,-88.76"/>
</g>
<!-- Node16 -->
<g id="node16" class="node">
<title>Node16</title>
<g id="a_node16"><a xlink:title=" ">
<polygon fill="#e0e0e0" stroke="#999999" points="1098,-85 1029,-85 1029,-66 1098,-66 1098,-85"/>
<text text-anchor="middle" x="1063.5" y="-73" font-family="Helvetica,sans-Serif" font-size="10.00">sys/mman.h</text>
</a>
</g>
</g>
<!-- Node12&#45;&gt;Node16 -->
<g id="edge20" class="edge">
<title>Node12&#45;&gt;Node16</title>
<path fill="none" stroke="#63b8ff" d="M601.1,-122.48C605.97,-121.96 610.82,-121.47 615.5,-121 791.63,-103.45 839.65,-110.26 1017.48,-85.3"/>
<polygon fill="#63b8ff" stroke="#63b8ff" points="1017.91,-88.77 1027.32,-83.9 1016.93,-81.84 1017.91,-88.77"/>
</g>
<!-- Node17 -->
<g id="node17" class="node">
<title>Node17</title>
<g id="a_node17"><a xlink:title=" ">
<polygon fill="#e0e0e0" stroke="#999999" points="408,-85 349,-85 349,-66 408,-66 408,-85"/>
<text text-anchor="middle" x="378.5" y="-73" font-family="Helvetica,sans-Serif" font-size="10.00">sys/stat.h</text>
</a>
</g>
</g>
<!-- Node12&#45;&gt;Node17 -->
<g id="edge21" class="edge">
<title>Node12&#45;&gt;Node17</title>
<path fill="none" stroke="#63b8ff" d="M511.36,-120.51C485.19,-111.84 445.36,-98.65 416.14,-88.97"/>
<polygon fill="#63b8ff" stroke="#63b8ff" points="417.54,-85.74 406.94,-85.92 415.34,-92.39 417.54,-85.74"/>
</g>
<!-- Node18 -->
<g id="node18" class="node">
<title>Node18</title>
<g id="a_node18"><a xlink:title=" ">
<polygon fill="#e0e0e0" stroke="#999999" points="491,-85 426,-85 426,-66 491,-66 491,-85"/>
<text text-anchor="middle" x="458.5" y="-73" font-family="Helvetica,sans-Serif" font-size="10.00">sys/types.h</text>
</a>
</g>
</g>
<!-- Node12&#45;&gt;Node18 -->
<g id="edge22" class="edge">
<title>Node12&#45;&gt;Node18</title>
<path fill="none" stroke="#63b8ff" d="M524.93,-120.51C513.02,-112.62 495.45,-100.98 481.37,-91.65"/>
<polygon fill="#63b8ff" stroke="#63b8ff" points="483.4,-88.8 473.13,-86.19 479.54,-94.63 483.4,-88.8"/>
</g>
<!-- Node19 -->
<g id="node19" class="node">
<title>Node19</title>
<g id="a_node19"><a xlink:href="_logging_8hpp.html" target="_top" xlink:title=" ">
<polygon fill="white" stroke="#666666" points="727.5,-85 623.5,-85 623.5,-66 727.5,-66 727.5,-85"/>
<text text-anchor="middle" x="675.5" y="-73" font-family="Helvetica,sans-Serif" font-size="10.00">udmaio/Logging.hpp</text>
</a>
</g>
</g>
<!-- Node12&#45;&gt;Node19 -->
<g id="edge24" class="edge">
<title>Node12&#45;&gt;Node19</title>
<path fill="none" stroke="#63b8ff" d="M561.74,-120.51C583.82,-111.97 617.25,-99.03 642.17,-89.4"/>
<polygon fill="#63b8ff" stroke="#63b8ff" points="643.13,-92.78 651.19,-85.9 640.6,-86.25 643.13,-92.78"/>
</g>
<!-- Node19&#45;&gt;Node6 -->
<g id="edge25" class="edge">
<title>Node19&#45;&gt;Node6</title>
<path fill="none" stroke="#63b8ff" d="M623.34,-67.75C535.26,-56.28 365.3,-33.87 352.5,-30 351.7,-29.76 350.89,-29.5 350.08,-29.22"/>
<polygon fill="#63b8ff" stroke="#63b8ff" points="351.68,-26.09 341.1,-25.5 349,-32.56 351.68,-26.09"/>
</g>
<!-- Node20 -->
<g id="node20" class="node">
<title>Node20</title>
<g id="a_node20"><a xlink:title=" ">
<polygon fill="#e0e0e0" stroke="#999999" points="1004.5,-24.5 908.5,-24.5 908.5,-5.5 1004.5,-5.5 1004.5,-24.5"/>
<text text-anchor="middle" x="956.5" y="-12.5" font-family="Helvetica,sans-Serif" font-size="10.00">boost/log/core.hpp</text>
</a>
</g>
</g>
<!-- Node19&#45;&gt;Node20 -->
<g id="edge26" class="edge">
<title>Node19&#45;&gt;Node20</title>
<path fill="none" stroke="#63b8ff" d="M723.7,-65.57C769.15,-57 839.12,-43.41 899.5,-30 902.87,-29.25 906.35,-28.46 909.85,-27.64"/>
<polygon fill="#63b8ff" stroke="#63b8ff" points="910.59,-31.06 919.51,-25.33 908.97,-24.25 910.59,-31.06"/>
</g>
<!-- Node21 -->
<g id="node21" class="node">
<title>Node21</title>
<g id="a_node21"><a xlink:title=" ">
<polygon fill="#e0e0e0" stroke="#999999" points="1152,-24.5 1023,-24.5 1023,-5.5 1152,-5.5 1152,-24.5"/>
<text text-anchor="middle" x="1087.5" y="-12.5" font-family="Helvetica,sans-Serif" font-size="10.00">boost/log/expressions.hpp</text>
</a>
</g>
</g>
<!-- Node19&#45;&gt;Node21 -->
<g id="edge27" class="edge">
<title>Node19&#45;&gt;Node21</title>
<path fill="none" stroke="#63b8ff" d="M727.93,-67.29C731.17,-66.85 734.38,-66.42 737.5,-66 860.11,-49.6 891.34,-49.51 1013.5,-30 1019.39,-29.06 1025.53,-28.01 1031.65,-26.92"/>
<polygon fill="#63b8ff" stroke="#63b8ff" points="1031.87,-30.44 1041.08,-25.2 1030.61,-23.55 1031.87,-30.44"/>
</g>
<!-- Node22 -->
<g id="node22" class="node">
<title>Node22</title>
<g id="a_node22"><a xlink:title=" ">
<polygon fill="#e0e0e0" stroke="#999999" points="1271,-24.5 1170,-24.5 1170,-5.5 1271,-5.5 1271,-24.5"/>
<text text-anchor="middle" x="1220.5" y="-12.5" font-family="Helvetica,sans-Serif" font-size="10.00">boost/log/trivial.hpp</text>
</a>
</g>
</g>
<!-- Node19&#45;&gt;Node22 -->
<g id="edge28" class="edge">
<title>Node19&#45;&gt;Node22</title>
<path fill="none" stroke="#63b8ff" d="M727.91,-67.12C731.15,-66.73 734.37,-66.35 737.5,-66 925.47,-45.15 974.76,-59.91 1161.5,-30 1166.12,-29.26 1170.91,-28.36 1175.68,-27.36"/>
<polygon fill="#63b8ff" stroke="#63b8ff" points="1176.18,-30.84 1185.19,-25.26 1174.67,-24 1176.18,-30.84"/>
</g>
<!-- Node23 -->
<g id="node23" class="node">
<title>Node23</title>
<g id="a_node23"><a xlink:title=" ">
<polygon fill="#e0e0e0" stroke="#999999" points="471,-30 362,-30 362,0 471,0 471,-30"/>
<text text-anchor="start" x="370" y="-18" font-family="Helvetica,sans-Serif" font-size="10.00">boost/log/utility/setup</text>
<text text-anchor="middle" x="416.5" y="-7" font-family="Helvetica,sans-Serif" font-size="10.00">/console.hpp</text>
</a>
</g>
</g>
<!-- Node19&#45;&gt;Node23 -->
<g id="edge29" class="edge">
<title>Node19&#45;&gt;Node23</title>
<path fill="none" stroke="#63b8ff" d="M635.88,-65.55C595.13,-56.35 530.94,-41.85 482.5,-30.91"/>
<polygon fill="#63b8ff" stroke="#63b8ff" points="483.49,-27.54 472.96,-28.75 481.94,-34.37 483.49,-27.54"/>
</g>
<!-- Node24 -->
<g id="node24" class="node">
<title>Node24</title>
<g id="a_node24"><a xlink:title=" ">
<polygon fill="#e0e0e0" stroke="#999999" points="620,-30 489,-30 489,0 620,0 620,-30"/>
<text text-anchor="start" x="497" y="-18" font-family="Helvetica,sans-Serif" font-size="10.00">boost/log/sources/severity</text>
<text text-anchor="middle" x="554.5" y="-7" font-family="Helvetica,sans-Serif" font-size="10.00">_channel_logger.hpp</text>
</a>
</g>
</g>
<!-- Node19&#45;&gt;Node24 -->
<g id="edge30" class="edge">
<title>Node19&#45;&gt;Node24</title>
<path fill="none" stroke="#63b8ff" d="M657.12,-65.62C640.61,-57.63 615.78,-45.63 594.68,-35.43"/>
<polygon fill="#63b8ff" stroke="#63b8ff" points="596.26,-32.3 585.73,-31.1 593.21,-38.6 596.26,-32.3"/>
</g>
<!-- Node25 -->
<g id="node25" class="node">
<title>Node25</title>
<g id="a_node25"><a xlink:title=" ">
<polygon fill="#e0e0e0" stroke="#999999" points="751,-30 638,-30 638,0 751,0 751,-30"/>
<text text-anchor="start" x="646" y="-18" font-family="Helvetica,sans-Serif" font-size="10.00">boost/log/support/date</text>
<text text-anchor="middle" x="694.5" y="-7" font-family="Helvetica,sans-Serif" font-size="10.00">_time.hpp</text>
</a>
</g>
</g>
<!-- Node19&#45;&gt;Node25 -->
<g id="edge31" class="edge">
<title>Node19&#45;&gt;Node25</title>
<path fill="none" stroke="#63b8ff" d="M678.3,-65.87C680.45,-59.25 683.53,-49.78 686.43,-40.86"/>
<polygon fill="#63b8ff" stroke="#63b8ff" points="689.69,-42.15 689.45,-31.55 683.03,-39.98 689.69,-42.15"/>
</g>
<!-- Node26 -->
<g id="node26" class="node">
<title>Node26</title>
<g id="a_node26"><a xlink:title=" ">
<polygon fill="#e0e0e0" stroke="#999999" points="890,-30 769,-30 769,0 890,0 890,-30"/>
<text text-anchor="start" x="777" y="-18" font-family="Helvetica,sans-Serif" font-size="10.00">boost/log/utility/setup</text>
<text text-anchor="middle" x="829.5" y="-7" font-family="Helvetica,sans-Serif" font-size="10.00">/common_attributes.hpp</text>
</a>
</g>
</g>
<!-- Node19&#45;&gt;Node26 -->
<g id="edge32" class="edge">
<title>Node19&#45;&gt;Node26</title>
<path fill="none" stroke="#63b8ff" d="M698.89,-65.62C720.58,-57.38 753.54,-44.86 780.92,-34.45"/>
<polygon fill="#63b8ff" stroke="#63b8ff" points="781.97,-37.8 790.07,-30.98 779.48,-31.26 781.97,-37.8"/>
</g>
</g>
</svg>
        <g id="navigator" transform="translate(0 0)" fill="#404254">
                <rect fill="#f2f5e9" fill-opacity="0.5" stroke="#606060" stroke-width=".5" x="0" y="0" width="60" height="60"/>
                <use id="zoomplus" xlink:href="#zoomPlus" x="17" y="9" onmousedown="handleZoom(evt,'in')"/>
                <use id="zoomminus" xlink:href="#zoomMin" x="42" y="9" onmousedown="handleZoom(evt,'out')"/>
                <use id="reset" xlink:href="#resetDef" x="30" y="36" onmousedown="handleReset()"/>
                <g id="arrowUp" xlink:href="#dirArrow" transform="translate(30 24)" onmousedown="handlePan(0,-1)">
                  <use xlink:href="#rim" fill="#404040">
                        <set attributeName="fill" to="#808080" begin="arrowUp.mouseover" end="arrowUp.mouseout"/>
                  </use>
                  <path fill="none" stroke="white" stroke-width="1.5" d="M0,-3.0v7 M-2.5,-0.5L0,-3.0L2.5,-0.5"/>
                </g>
                <g id="arrowRight" xlink:href="#dirArrow" transform="rotate(90) translate(36 -43)" onmousedown="handlePan(1,0)">
                  <use xlink:href="#rim" fill="#404040">
                        <set attributeName="fill" to="#808080" begin="arrowRight.mouseover" end="arrowRight.mouseout"/>
                  </use>
                  <path fill="none" stroke="white" stroke-width="1.5" d="M0,-3.0v7 M-2.5,-0.5L0,-3.0L2.5,-0.5"/>
                </g>
                <g id="arrowDown" xlink:href="#dirArrow" transform="rotate(180) translate(-30 -48)" onmousedown="handlePan(0,1)">
                  <use xlink:href="#rim" fill="#404040">
                        <set attributeName="fill" to="#808080" begin="arrowDown.mouseover" end="arrowDown.mouseout"/>
                  </use>
                  <path fill="none" stroke="white" stroke-width="1.5" d="M0,-3.0v7 M-2.5,-0.5L0,-3.0L2.5,-0.5"/>
                </g>
                <g id="arrowLeft" xlink:href="#dirArrow" transform="rotate(270) translate(-36 17)" onmousedown="handlePan(-1,0)">
                  <use xlink:href="#rim" fill="#404040">
                        <set attributeName="fill" to="#808080" begin="arrowLeft.mouseover" end="arrowLeft.mouseout"/>
                  </use>
                  <path fill="none" stroke="white" stroke-width="1.5" d="M0,-3.0v7 M-2.5,-0.5L0,-3.0L2.5,-0.5"/>
                </g>
        </g>
        <svg viewBox="0 0 15 15" width="100%" height="30px" preserveAspectRatio="xMaxYMin meet">
         <g id="arrow_out" transform="scale(0.3 0.3)">
          <a xlink:href="_uio_config_8cpp__incl_org.svg" target="_base">
           <rect id="button" ry="5" rx="5" y="6" x="6" height="38" width="38"
                fill="#f2f5e9" fill-opacity="0.5" stroke="#606060" stroke-width="1.0"/>
           <path id="arrow"
             d="M 11.500037,31.436501 C 11.940474,20.09759 22.043105,11.32322 32.158766,21.979434 L 37.068811,17.246167 C 37.068811,17.246167 37.088388,32 37.088388,32 L 22.160133,31.978069 C 22.160133,31.978069 26.997745,27.140456 26.997745,27.140456 C 18.528582,18.264221 13.291696,25.230495 11.500037,31.436501 z"
             style="fill:#404040;"/>
          </a>
         </g>
        </svg>
</svg>
