<?xml version="1.0" encoding="UTF-8" standalone="no"?>
<!DOCTYPE svg PUBLIC "-//W3C//DTD SVG 1.1//EN"
 "http://www.w3.org/Graphics/SVG/1.1/DTD/svg11.dtd">
<!-- Generated by graphviz version 7.0.5 (20221223.1930)
 -->
<!-- Title: UioMemSgdma.cpp Pages: 1 -->
<svg width="1309pt" height="313pt"
 viewBox="0.00 0.00 1309.00 313.00" xmlns="http://www.w3.org/2000/svg" xmlns:xlink="http://www.w3.org/1999/xlink">
<g id="graph0" class="graph" transform="scale(1 1) rotate(0) translate(4 309)">
<title>UioMemSgdma.cpp</title>
<!-- Node1 -->
<g id="node1" class="node">
<title>Node1</title>
<g id="a_node1"><a xlink:title=" ">
<polygon fill="#999999" stroke="#666666" points="1150.5,-305 1048.5,-305 1048.5,-286 1150.5,-286 1150.5,-305"/>
<text text-anchor="middle" x="1099.5" y="-293" font-family="Helvetica,sans-Serif" font-size="10.00">UioMemSgdma.cpp</text>
</a>
</g>
</g>
<!-- Node2 -->
<g id="node2" class="node">
<title>Node2</title>
<g id="a_node2"><a xlink:href="_uio_mem_sgdma_8hpp.html" target="_top" xlink:title=" ">
<polygon fill="white" stroke="#666666" points="1115,-250 978,-250 978,-231 1115,-231 1115,-250"/>
<text text-anchor="middle" x="1046.5" y="-238" font-family="Helvetica,sans-Serif" font-size="10.00">udmaio/UioMemSgdma.hpp</text>
</a>
</g>
</g>
<!-- Node1&#45;&gt;Node2 -->
<g id="edge1" class="edge">
<title>Node1&#45;&gt;Node2</title>
<path fill="none" stroke="#63b8ff" d="M1090.75,-285.75C1083.35,-278.35 1072.54,-267.54 1063.45,-258.45"/>
<polygon fill="#63b8ff" stroke="#63b8ff" points="1066.06,-256.11 1056.51,-251.51 1061.11,-261.06 1066.06,-256.11"/>
</g>
<!-- Node30 -->
<g id="node30" class="node">
<title>Node30</title>
<g id="a_node30"><a xlink:title=" ">
<polygon fill="#e0e0e0" stroke="#999999" points="1174,-250 1133,-250 1133,-231 1174,-231 1174,-250"/>
<text text-anchor="middle" x="1153.5" y="-238" font-family="Helvetica,sans-Serif" font-size="10.00">bitset</text>
</a>
</g>
</g>
<!-- Node1&#45;&gt;Node30 -->
<g id="edge36" class="edge">
<title>Node1&#45;&gt;Node30</title>
<path fill="none" stroke="#63b8ff" d="M1108.42,-285.75C1115.95,-278.35 1126.97,-267.54 1136.23,-258.45"/>
<polygon fill="#63b8ff" stroke="#63b8ff" points="1138.62,-261 1143.31,-251.5 1133.72,-256.01 1138.62,-261"/>
</g>
<!-- Node3 -->
<g id="node3" class="node">
<title>Node3</title>
<g id="a_node3"><a xlink:href="_dma_buffer_abstract_8hpp.html" target="_top" xlink:title=" ">
<polygon fill="white" stroke="#666666" points="1167,-195 1050,-195 1050,-176 1167,-176 1167,-195"/>
<text text-anchor="middle" x="1108.5" y="-183" font-family="Helvetica,sans-Serif" font-size="10.00">DmaBufferAbstract.hpp</text>
</a>
</g>
</g>
<!-- Node2&#45;&gt;Node3 -->
<g id="edge2" class="edge">
<title>Node2&#45;&gt;Node3</title>
<path fill="none" stroke="#63b8ff" d="M1057.02,-230.51C1065.89,-222.93 1078.81,-211.88 1089.49,-202.75"/>
<polygon fill="#63b8ff" stroke="#63b8ff" points="1091.66,-205.5 1096.99,-196.34 1087.11,-200.18 1091.66,-205.5"/>
</g>
<!-- Node13 -->
<g id="node13" class="node">
<title>Node13</title>
<g id="a_node13"><a xlink:href="_reg_accessor_8hpp.html" target="_top" xlink:title=" ">
<polygon fill="white" stroke="#666666" points="1032,-195 939,-195 939,-176 1032,-176 1032,-195"/>
<text text-anchor="middle" x="985.5" y="-183" font-family="Helvetica,sans-Serif" font-size="10.00">RegAccessor.hpp</text>
</a>
</g>
</g>
<!-- Node2&#45;&gt;Node13 -->
<g id="edge12" class="edge">
<title>Node2&#45;&gt;Node13</title>
<path fill="none" stroke="#63b8ff" d="M1036.15,-230.51C1027.42,-222.93 1014.71,-211.88 1004.2,-202.75"/>
<polygon fill="#63b8ff" stroke="#63b8ff" points="1006.68,-200.27 996.84,-196.35 1002.09,-205.55 1006.68,-200.27"/>
</g>
<!-- Node4 -->
<g id="node4" class="node">
<title>Node4</title>
<g id="a_node4"><a xlink:title=" ">
<polygon fill="#e0e0e0" stroke="#999999" points="1026.5,-140 980.5,-140 980.5,-121 1026.5,-121 1026.5,-140"/>
<text text-anchor="middle" x="1003.5" y="-128" font-family="Helvetica,sans-Serif" font-size="10.00">cstdint</text>
</a>
</g>
</g>
<!-- Node3&#45;&gt;Node4 -->
<g id="edge3" class="edge">
<title>Node3&#45;&gt;Node4</title>
<path fill="none" stroke="#63b8ff" d="M1090.69,-175.51C1074.37,-167.27 1049.97,-154.96 1031.13,-145.45"/>
<polygon fill="#63b8ff" stroke="#63b8ff" points="1032.9,-142.42 1022.4,-141.04 1029.75,-148.67 1032.9,-142.42"/>
</g>
<!-- Node5 -->
<g id="node5" class="node">
<title>Node5</title>
<g id="a_node5"><a xlink:title=" ">
<polygon fill="#e0e0e0" stroke="#999999" points="1200.5,-140 1156.5,-140 1156.5,-121 1200.5,-121 1200.5,-140"/>
<text text-anchor="middle" x="1178.5" y="-128" font-family="Helvetica,sans-Serif" font-size="10.00">vector</text>
</a>
</g>
</g>
<!-- Node3&#45;&gt;Node5 -->
<g id="edge4" class="edge">
<title>Node3&#45;&gt;Node5</title>
<path fill="none" stroke="#63b8ff" d="M1120.37,-175.51C1130.59,-167.77 1145.57,-156.43 1157.76,-147.2"/>
<polygon fill="#63b8ff" stroke="#63b8ff" points="1159.73,-150.1 1165.59,-141.27 1155.51,-144.52 1159.73,-150.1"/>
</g>
<!-- Node6 -->
<g id="node6" class="node">
<title>Node6</title>
<g id="a_node6"><a xlink:title=" ">
<polygon fill="#e0e0e0" stroke="#999999" points="1301,-85 1164,-85 1164,-66 1301,-66 1301,-85"/>
<text text-anchor="middle" x="1232.5" y="-73" font-family="Helvetica,sans-Serif" font-size="10.00">boost/core/noncopyable.hpp</text>
</a>
</g>
</g>
<!-- Node3&#45;&gt;Node6 -->
<g id="edge5" class="edge">
<title>Node3&#45;&gt;Node6</title>
<path fill="none" stroke="#63b8ff" d="M1112.08,-175.68C1117.84,-162.39 1130.29,-137.07 1147.5,-121 1161.78,-107.66 1180.82,-97.21 1197.26,-89.79"/>
<polygon fill="#63b8ff" stroke="#63b8ff" points="1198.41,-93.11 1206.22,-85.95 1195.65,-86.67 1198.41,-93.11"/>
</g>
<!-- Node7 -->
<g id="node7" class="node">
<title>Node7</title>
<g id="a_node7"><a xlink:href="_uio_config_8hpp.html" target="_top" xlink:title=" ">
<polygon fill="white" stroke="#666666" points="1146,-85 1035,-85 1035,-66 1146,-66 1146,-85"/>
<text text-anchor="middle" x="1090.5" y="-73" font-family="Helvetica,sans-Serif" font-size="10.00">udmaio/UioConfig.hpp</text>
</a>
</g>
</g>
<!-- Node3&#45;&gt;Node7 -->
<g id="edge6" class="edge">
<title>Node3&#45;&gt;Node7</title>
<path fill="none" stroke="#63b8ff" d="M1107.03,-175.66C1104.17,-158.5 1097.79,-120.26 1093.85,-96.6"/>
<polygon fill="#63b8ff" stroke="#63b8ff" points="1097.34,-96.24 1092.24,-86.95 1090.43,-97.39 1097.34,-96.24"/>
</g>
<!-- Node8 -->
<g id="node8" class="node">
<title>Node8</title>
<g id="a_node8"><a xlink:title=" ">
<polygon fill="#e0e0e0" stroke="#999999" points="1109.5,-24.5 1055.5,-24.5 1055.5,-5.5 1109.5,-5.5 1109.5,-24.5"/>
<text text-anchor="middle" x="1082.5" y="-12.5" font-family="Helvetica,sans-Serif" font-size="10.00">iostream</text>
</a>
</g>
</g>
<!-- Node7&#45;&gt;Node8 -->
<g id="edge7" class="edge">
<title>Node7&#45;&gt;Node8</title>
<path fill="none" stroke="#63b8ff" d="M1089.32,-65.87C1088.24,-58 1086.62,-46.1 1085.22,-35.89"/>
<polygon fill="#63b8ff" stroke="#63b8ff" points="1088.71,-35.6 1083.89,-26.17 1081.78,-36.55 1088.71,-35.6"/>
</g>
<!-- Node9 -->
<g id="node9" class="node">
<title>Node9</title>
<g id="a_node9"><a xlink:title=" ">
<polygon fill="#e0e0e0" stroke="#999999" points="1037,-24.5 986,-24.5 986,-5.5 1037,-5.5 1037,-24.5"/>
<text text-anchor="middle" x="1011.5" y="-12.5" font-family="Helvetica,sans-Serif" font-size="10.00">memory</text>
</a>
</g>
</g>
<!-- Node7&#45;&gt;Node9 -->
<g id="edge8" class="edge">
<title>Node7&#45;&gt;Node9</title>
<path fill="none" stroke="#63b8ff" d="M1078.5,-65.62C1066.32,-56.6 1047.21,-42.45 1032.52,-31.56"/>
<polygon fill="#63b8ff" stroke="#63b8ff" points="1034.95,-29.01 1024.83,-25.87 1030.78,-34.63 1034.95,-29.01"/>
</g>
<!-- Node10 -->
<g id="node10" class="node">
<title>Node10</title>
<g id="a_node10"><a xlink:title=" ">
<polygon fill="#e0e0e0" stroke="#999999" points="1187,-24.5 1128,-24.5 1128,-5.5 1187,-5.5 1187,-24.5"/>
<text text-anchor="middle" x="1157.5" y="-12.5" font-family="Helvetica,sans-Serif" font-size="10.00">stdexcept</text>
</a>
</g>
</g>
<!-- Node7&#45;&gt;Node10 -->
<g id="edge9" class="edge">
<title>Node7&#45;&gt;Node10</title>
<path fill="none" stroke="#63b8ff" d="M1100.68,-65.62C1110.71,-56.85 1126.29,-43.25 1138.6,-32.5"/>
<polygon fill="#63b8ff" stroke="#63b8ff" points="1140.86,-35.18 1146.09,-25.96 1136.25,-29.9 1140.86,-35.18"/>
</g>
<!-- Node11 -->
<g id="node11" class="node">
<title>Node11</title>
<g id="a_node11"><a xlink:title=" ">
<polygon fill="#e0e0e0" stroke="#999999" points="968,-24.5 927,-24.5 927,-5.5 968,-5.5 968,-24.5"/>
<text text-anchor="middle" x="947.5" y="-12.5" font-family="Helvetica,sans-Serif" font-size="10.00">string</text>
</a>
</g>
</g>
<!-- Node7&#45;&gt;Node11 -->
<g id="edge10" class="edge">
<title>Node7&#45;&gt;Node11</title>
<path fill="none" stroke="#63b8ff" d="M1066.52,-65.55C1043.52,-56.85 1007.91,-43.07 977.5,-30 977.15,-29.85 976.8,-29.7 976.45,-29.55"/>
<polygon fill="#63b8ff" stroke="#63b8ff" points="978.08,-26.44 967.52,-25.54 975.21,-32.83 978.08,-26.44"/>
</g>
<!-- Node12 -->
<g id="node12" class="node">
<title>Node12</title>
<g id="a_node12"><a xlink:title=" ">
<polygon fill="#e0e0e0" stroke="#999999" points="1271.5,-24.5 1205.5,-24.5 1205.5,-5.5 1271.5,-5.5 1271.5,-24.5"/>
<text text-anchor="middle" x="1238.5" y="-12.5" font-family="Helvetica,sans-Serif" font-size="10.00">string_view</text>
</a>
</g>
</g>
<!-- Node7&#45;&gt;Node12 -->
<g id="edge11" class="edge">
<title>Node7&#45;&gt;Node12</title>
<path fill="none" stroke="#63b8ff" d="M1112.98,-65.62C1137.54,-55.91 1177.12,-40.26 1205.27,-29.14"/>
<polygon fill="#63b8ff" stroke="#63b8ff" points="1206.39,-32.46 1214.4,-25.52 1203.82,-25.95 1206.39,-32.46"/>
</g>
<!-- Node13&#45;&gt;Node4 -->
<g id="edge13" class="edge">
<title>Node13&#45;&gt;Node4</title>
<path fill="none" stroke="#63b8ff" d="M988.47,-175.75C990.73,-169.11 993.91,-159.73 996.77,-151.31"/>
<polygon fill="#63b8ff" stroke="#63b8ff" points="1000.07,-152.47 999.98,-141.88 993.45,-150.22 1000.07,-152.47"/>
</g>
<!-- Node14 -->
<g id="node14" class="node">
<title>Node14</title>
<g id="a_node14"><a xlink:href="_uio_if_8hpp.html" target="_top" xlink:title=" ">
<polygon fill="white" stroke="#666666" points="848.5,-140 758.5,-140 758.5,-121 848.5,-121 848.5,-140"/>
<text text-anchor="middle" x="803.5" y="-128" font-family="Helvetica,sans-Serif" font-size="10.00">udmaio/UioIf.hpp</text>
</a>
</g>
</g>
<!-- Node13&#45;&gt;Node14 -->
<g id="edge14" class="edge">
<title>Node13&#45;&gt;Node14</title>
<path fill="none" stroke="#63b8ff" d="M954.63,-175.51C924.47,-166.73 878.36,-153.3 845,-143.59"/>
<polygon fill="#63b8ff" stroke="#63b8ff" points="846.25,-140.31 835.67,-140.87 844.3,-147.03 846.25,-140.31"/>
</g>
<!-- Node14&#45;&gt;Node6 -->
<g id="edge20" class="edge">
<title>Node14&#45;&gt;Node6</title>
<path fill="none" stroke="#63b8ff" d="M848.6,-123.93C920.7,-115.02 1062.92,-97.45 1152.55,-86.38"/>
<polygon fill="#63b8ff" stroke="#63b8ff" points="1152.76,-89.88 1162.25,-85.18 1151.9,-82.93 1152.76,-89.88"/>
</g>
<!-- Node14&#45;&gt;Node7 -->
<g id="edge35" class="edge">
<title>Node14&#45;&gt;Node7</title>
<path fill="none" stroke="#63b8ff" d="M848.98,-121.1C898.11,-112.03 976.63,-97.53 1030.73,-87.54"/>
<polygon fill="#63b8ff" stroke="#63b8ff" points="1031.19,-91.01 1040.39,-85.75 1029.92,-84.13 1031.19,-91.01"/>
</g>
<!-- Node14&#45;&gt;Node8 -->
<g id="edge17" class="edge">
<title>Node14&#45;&gt;Node8</title>
<path fill="none" stroke="#63b8ff" d="M849,-123.56C887.27,-117.4 942.75,-105.67 987.5,-85 1016.97,-71.39 1046.53,-48.01 1064.67,-32.29"/>
<polygon fill="#63b8ff" stroke="#63b8ff" points="1066.77,-35.11 1071.93,-25.86 1062.12,-29.87 1066.77,-35.11"/>
</g>
<!-- Node14&#45;&gt;Node9 -->
<g id="edge18" class="edge">
<title>Node14&#45;&gt;Node9</title>
<path fill="none" stroke="#63b8ff" d="M806.34,-120.63C811.24,-106.8 822.61,-80.21 841.5,-66 891.46,-28.4 918.24,-49.95 977.5,-30 978.48,-29.67 979.47,-29.33 980.47,-28.97"/>
<polygon fill="#63b8ff" stroke="#63b8ff" points="981.66,-32.26 989.76,-25.42 979.16,-25.72 981.66,-32.26"/>
</g>
<!-- Node14&#45;&gt;Node11 -->
<g id="edge19" class="edge">
<title>Node14&#45;&gt;Node11</title>
<path fill="none" stroke="#63b8ff" d="M801.4,-120.62C798.79,-107.25 796.08,-81.84 808.5,-66 839.99,-25.86 870.08,-48.82 917.5,-30 917.98,-29.81 918.46,-29.61 918.95,-29.42"/>
<polygon fill="#63b8ff" stroke="#63b8ff" points="920.09,-32.74 927.86,-25.54 917.29,-26.32 920.09,-32.74"/>
</g>
<!-- Node15 -->
<g id="node15" class="node">
<title>Node15</title>
<g id="a_node15"><a xlink:title=" ">
<polygon fill="#e0e0e0" stroke="#999999" points="910.5,-85 850.5,-85 850.5,-66 910.5,-66 910.5,-85"/>
<text text-anchor="middle" x="880.5" y="-73" font-family="Helvetica,sans-Serif" font-size="10.00">filesystem</text>
</a>
</g>
</g>
<!-- Node14&#45;&gt;Node15 -->
<g id="edge15" class="edge">
<title>Node14&#45;&gt;Node15</title>
<path fill="none" stroke="#63b8ff" d="M816.56,-120.51C828.02,-112.62 844.93,-100.98 858.48,-91.65"/>
<polygon fill="#63b8ff" stroke="#63b8ff" points="860.13,-94.77 866.38,-86.22 856.16,-89 860.13,-94.77"/>
</g>
<!-- Node16 -->
<g id="node16" class="node">
<title>Node16</title>
<g id="a_node16"><a xlink:title=" ">
<polygon fill="#e0e0e0" stroke="#999999" points="978.5,-85 928.5,-85 928.5,-66 978.5,-66 978.5,-85"/>
<text text-anchor="middle" x="953.5" y="-73" font-family="Helvetica,sans-Serif" font-size="10.00">fstream</text>
</a>
</g>
</g>
<!-- Node14&#45;&gt;Node16 -->
<g id="edge16" class="edge">
<title>Node14&#45;&gt;Node16</title>
<path fill="none" stroke="#63b8ff" d="M828.95,-120.51C853.26,-111.92 890.16,-98.88 917.49,-89.22"/>
<polygon fill="#63b8ff" stroke="#63b8ff" points="918.49,-92.58 926.75,-85.95 916.16,-85.98 918.49,-92.58"/>
</g>
<!-- Node17 -->
<g id="node17" class="node">
<title>Node17</title>
<g id="a_node17"><a xlink:title=" ">
<polygon fill="#e0e0e0" stroke="#999999" points="319,-85 276,-85 276,-66 319,-66 319,-85"/>
<text text-anchor="middle" x="297.5" y="-73" font-family="Helvetica,sans-Serif" font-size="10.00">fcntl.h</text>
</a>
</g>
</g>
<!-- Node14&#45;&gt;Node17 -->
<g id="edge21" class="edge">
<title>Node14&#45;&gt;Node17</title>
<path fill="none" stroke="#63b8ff" d="M758.16,-128.02C674.99,-124.71 492.39,-114.69 330.47,-85.25"/>
<polygon fill="#63b8ff" stroke="#63b8ff" points="331.3,-81.84 320.83,-83.46 330.03,-88.73 331.3,-81.84"/>
</g>
<!-- Node18 -->
<g id="node18" class="node">
<title>Node18</title>
<g id="a_node18"><a xlink:title=" ">
<polygon fill="#e0e0e0" stroke="#999999" points="406,-85 337,-85 337,-66 406,-66 406,-85"/>
<text text-anchor="middle" x="371.5" y="-73" font-family="Helvetica,sans-Serif" font-size="10.00">sys/mman.h</text>
</a>
</g>
</g>
<!-- Node14&#45;&gt;Node18 -->
<g id="edge22" class="edge">
<title>Node14&#45;&gt;Node18</title>
<path fill="none" stroke="#63b8ff" d="M758.12,-125.52C687.43,-119.05 546.53,-105.1 417.45,-85.35"/>
<polygon fill="#63b8ff" stroke="#63b8ff" points="418.1,-81.91 407.69,-83.84 417.03,-88.83 418.1,-81.91"/>
</g>
<!-- Node19 -->
<g id="node19" class="node">
<title>Node19</title>
<g id="a_node19"><a xlink:title=" ">
<polygon fill="#e0e0e0" stroke="#999999" points="483,-85 424,-85 424,-66 483,-66 483,-85"/>
<text text-anchor="middle" x="453.5" y="-73" font-family="Helvetica,sans-Serif" font-size="10.00">sys/stat.h</text>
</a>
</g>
</g>
<!-- Node14&#45;&gt;Node19 -->
<g id="edge23" class="edge">
<title>Node14&#45;&gt;Node19</title>
<path fill="none" stroke="#63b8ff" d="M758.11,-124.16C699.42,-117 593.81,-103.29 494.47,-85.43"/>
<polygon fill="#63b8ff" stroke="#63b8ff" points="495.28,-82.02 484.81,-83.67 494.03,-88.91 495.28,-82.02"/>
</g>
<!-- Node20 -->
<g id="node20" class="node">
<title>Node20</title>
<g id="a_node20"><a xlink:title=" ">
<polygon fill="#e0e0e0" stroke="#999999" points="566,-85 501,-85 501,-66 566,-66 566,-85"/>
<text text-anchor="middle" x="533.5" y="-73" font-family="Helvetica,sans-Serif" font-size="10.00">sys/types.h</text>
</a>
</g>
</g>
<!-- Node14&#45;&gt;Node20 -->
<g id="edge24" class="edge">
<title>Node14&#45;&gt;Node20</title>
<path fill="none" stroke="#63b8ff" d="M758.06,-120.73C714.37,-112.27 646.16,-99.01 577.14,-85.31"/>
<polygon fill="#63b8ff" stroke="#63b8ff" points="578.03,-81.92 567.54,-83.41 576.67,-88.79 578.03,-81.92"/>
</g>
<!-- Node21 -->
<g id="node21" class="node">
<title>Node21</title>
<g id="a_node21"><a xlink:title=" ">
<polygon fill="#e0e0e0" stroke="#999999" points="634.5,-85 584.5,-85 584.5,-66 634.5,-66 634.5,-85"/>
<text text-anchor="middle" x="609.5" y="-73" font-family="Helvetica,sans-Serif" font-size="10.00">unistd.h</text>
</a>
</g>
</g>
<!-- Node14&#45;&gt;Node21 -->
<g id="edge25" class="edge">
<title>Node14&#45;&gt;Node21</title>
<path fill="none" stroke="#63b8ff" d="M770.59,-120.51C735.96,-111.05 681.61,-96.2 645.76,-86.41"/>
<polygon fill="#63b8ff" stroke="#63b8ff" points="646.86,-83.08 636.29,-83.82 645.01,-89.83 646.86,-83.08"/>
</g>
<!-- Node22 -->
<g id="node22" class="node">
<title>Node22</title>
<g id="a_node22"><a xlink:href="_logging_8hpp.html" target="_top" xlink:title=" ">
<polygon fill="white" stroke="#666666" points="756.5,-85 652.5,-85 652.5,-66 756.5,-66 756.5,-85"/>
<text text-anchor="middle" x="704.5" y="-73" font-family="Helvetica,sans-Serif" font-size="10.00">udmaio/Logging.hpp</text>
</a>
</g>
</g>
<!-- Node14&#45;&gt;Node22 -->
<g id="edge26" class="edge">
<title>Node14&#45;&gt;Node22</title>
<path fill="none" stroke="#63b8ff" d="M786.71,-120.51C771.4,-112.31 748.53,-100.07 730.8,-90.58"/>
<polygon fill="#63b8ff" stroke="#63b8ff" points="732.85,-87.71 722.38,-86.07 729.54,-93.88 732.85,-87.71"/>
</g>
<!-- Node22&#45;&gt;Node11 -->
<g id="edge27" class="edge">
<title>Node22&#45;&gt;Node11</title>
<path fill="none" stroke="#63b8ff" d="M756.6,-67.06C800.27,-60.02 863.91,-47.84 917.5,-30 918.15,-29.78 918.8,-29.56 919.45,-29.32"/>
<polygon fill="#63b8ff" stroke="#63b8ff" points="920.69,-32.6 928.61,-25.56 918.03,-26.13 920.69,-32.6"/>
</g>
<!-- Node23 -->
<g id="node23" class="node">
<title>Node23</title>
<g id="a_node23"><a xlink:title=" ">
<polygon fill="#e0e0e0" stroke="#999999" points="235.5,-24.5 139.5,-24.5 139.5,-5.5 235.5,-5.5 235.5,-24.5"/>
<text text-anchor="middle" x="187.5" y="-12.5" font-family="Helvetica,sans-Serif" font-size="10.00">boost/log/core.hpp</text>
</a>
</g>
</g>
<!-- Node22&#45;&gt;Node23 -->
<g id="edge28" class="edge">
<title>Node22&#45;&gt;Node23</title>
<path fill="none" stroke="#63b8ff" d="M652.28,-67.05C649.31,-66.68 646.37,-66.33 643.5,-66 466.61,-45.71 420.12,-59.32 244.5,-30 240.21,-29.28 235.77,-28.42 231.35,-27.47"/>
<polygon fill="#63b8ff" stroke="#63b8ff" points="232.48,-24.14 221.96,-25.33 230.93,-30.97 232.48,-24.14"/>
</g>
<!-- Node24 -->
<g id="node24" class="node">
<title>Node24</title>
<g id="a_node24"><a xlink:title=" ">
<polygon fill="#e0e0e0" stroke="#999999" points="383,-24.5 254,-24.5 254,-5.5 383,-5.5 383,-24.5"/>
<text text-anchor="middle" x="318.5" y="-12.5" font-family="Helvetica,sans-Serif" font-size="10.00">boost/log/expressions.hpp</text>
</a>
</g>
</g>
<!-- Node22&#45;&gt;Node24 -->
<g id="edge29" class="edge">
<title>Node22&#45;&gt;Node24</title>
<path fill="none" stroke="#63b8ff" d="M652.07,-67.19C569.67,-55.67 416.61,-34.19 391.5,-30 385.92,-29.07 380.1,-28.04 374.3,-26.99"/>
<polygon fill="#63b8ff" stroke="#63b8ff" points="375.18,-23.59 364.71,-25.21 373.9,-30.47 375.18,-23.59"/>
</g>
<!-- Node25 -->
<g id="node25" class="node">
<title>Node25</title>
<g id="a_node25"><a xlink:title=" ">
<polygon fill="#e0e0e0" stroke="#999999" points="502,-24.5 401,-24.5 401,-5.5 502,-5.5 502,-24.5"/>
<text text-anchor="middle" x="451.5" y="-12.5" font-family="Helvetica,sans-Serif" font-size="10.00">boost/log/trivial.hpp</text>
</a>
</g>
</g>
<!-- Node22&#45;&gt;Node25 -->
<g id="edge30" class="edge">
<title>Node22&#45;&gt;Node25</title>
<path fill="none" stroke="#63b8ff" d="M665.09,-65.55C625.88,-56.63 564.01,-42.48 510.5,-30 507.12,-29.21 503.64,-28.4 500.13,-27.57"/>
<polygon fill="#63b8ff" stroke="#63b8ff" points="500.95,-24.17 490.42,-25.28 499.35,-30.98 500.95,-24.17"/>
</g>
<!-- Node26 -->
<g id="node26" class="node">
<title>Node26</title>
<g id="a_node26"><a xlink:title=" ">
<polygon fill="#e0e0e0" stroke="#999999" points="629,-30 520,-30 520,0 629,0 629,-30"/>
<text text-anchor="start" x="528" y="-18" font-family="Helvetica,sans-Serif" font-size="10.00">boost/log/utility/setup</text>
<text text-anchor="middle" x="574.5" y="-7" font-family="Helvetica,sans-Serif" font-size="10.00">/console.hpp</text>
</a>
</g>
</g>
<!-- Node22&#45;&gt;Node26 -->
<g id="edge31" class="edge">
<title>Node22&#45;&gt;Node26</title>
<path fill="none" stroke="#63b8ff" d="M684.76,-65.62C666.85,-57.56 639.85,-45.41 617.05,-35.15"/>
<polygon fill="#63b8ff" stroke="#63b8ff" points="618.52,-31.97 607.97,-31.06 615.65,-38.36 618.52,-31.97"/>
</g>
<!-- Node27 -->
<g id="node27" class="node">
<title>Node27</title>
<g id="a_node27"><a xlink:title=" ">
<polygon fill="#e0e0e0" stroke="#999999" points="778,-30 647,-30 647,0 778,0 778,-30"/>
<text text-anchor="start" x="655" y="-18" font-family="Helvetica,sans-Serif" font-size="10.00">boost/log/sources/severity</text>
<text text-anchor="middle" x="712.5" y="-7" font-family="Helvetica,sans-Serif" font-size="10.00">_channel_logger.hpp</text>
</a>
</g>
</g>
<!-- Node22&#45;&gt;Node27 -->
<g id="edge32" class="edge">
<title>Node22&#45;&gt;Node27</title>
<path fill="none" stroke="#63b8ff" d="M705.68,-65.87C706.56,-59.4 707.82,-50.2 709.02,-41.45"/>
<polygon fill="#63b8ff" stroke="#63b8ff" points="712.48,-42 710.36,-31.61 705.54,-41.05 712.48,-42"/>
</g>
<!-- Node28 -->
<g id="node28" class="node">
<title>Node28</title>
<g id="a_node28"><a xlink:title=" ">
<polygon fill="#e0e0e0" stroke="#999999" points="909,-30 796,-30 796,0 909,0 909,-30"/>
<text text-anchor="start" x="804" y="-18" font-family="Helvetica,sans-Serif" font-size="10.00">boost/log/support/date</text>
<text text-anchor="middle" x="852.5" y="-7" font-family="Helvetica,sans-Serif" font-size="10.00">_time.hpp</text>
</a>
</g>
</g>
<!-- Node22&#45;&gt;Node28 -->
<g id="edge33" class="edge">
<title>Node22&#45;&gt;Node28</title>
<path fill="none" stroke="#63b8ff" d="M726.98,-65.62C747.73,-57.41 779.22,-44.97 805.46,-34.59"/>
<polygon fill="#63b8ff" stroke="#63b8ff" points="806.55,-37.93 814.56,-31 803.98,-31.42 806.55,-37.93"/>
</g>
<!-- Node29 -->
<g id="node29" class="node">
<title>Node29</title>
<g id="a_node29"><a xlink:title=" ">
<polygon fill="#e0e0e0" stroke="#999999" points="121,-30 0,-30 0,0 121,0 121,-30"/>
<text text-anchor="start" x="8" y="-18" font-family="Helvetica,sans-Serif" font-size="10.00">boost/log/utility/setup</text>
<text text-anchor="middle" x="60.5" y="-7" font-family="Helvetica,sans-Serif" font-size="10.00">/common_attributes.hpp</text>
</a>
</g>
</g>
<!-- Node22&#45;&gt;Node29 -->
<g id="edge34" class="edge">
<title>Node22&#45;&gt;Node29</title>
<path fill="none" stroke="#63b8ff" d="M652.29,-66.98C649.32,-66.63 646.37,-66.3 643.5,-66 419.84,-42.6 358.97,-59.9 132.39,-30.12"/>
<polygon fill="#63b8ff" stroke="#63b8ff" points="133,-26.67 122.63,-28.82 132.08,-33.61 133,-26.67"/>
</g>
</g>
</svg>
