<?xml version="1.0" encoding="UTF-8" standalone="no"?>
<!DOCTYPE svg PUBLIC "-//W3C//DTD SVG 1.1//EN"
 "http://www.w3.org/Graphics/SVG/1.1/DTD/svg11.dtd">
<!-- Generated by graphviz version 7.0.5 (20221223.1930)
 -->
<!-- Title: UioConfig.hpp Pages: 1 -->
<svg width="712pt" height="302pt"
 viewBox="0.00 0.00 711.50 302.00" xmlns="http://www.w3.org/2000/svg" xmlns:xlink="http://www.w3.org/1999/xlink">
<g id="graph0" class="graph" transform="scale(1 1) rotate(0) translate(4 298)">
<title>UioConfig.hpp</title>
<!-- Node1 -->
<g id="node1" class="node">
<title>Node1</title>
<g id="a_node1"><a xlink:title=" ">
<polygon fill="#999999" stroke="#666666" points="509,-294 432,-294 432,-275 509,-275 509,-294"/>
<text text-anchor="middle" x="470.5" y="-282" font-family="Helvetica,sans-Serif" font-size="10.00">UioConfig.hpp</text>
</a>
</g>
</g>
<!-- Node2 -->
<g id="node2" class="node">
<title>Node2</title>
<g id="a_node2"><a xlink:href="_dma_buffer_abstract_8hpp.html" target="_top" xlink:title=" ">
<polygon fill="white" stroke="#666666" points="391,-239 274,-239 274,-220 391,-220 391,-239"/>
<text text-anchor="middle" x="332.5" y="-227" font-family="Helvetica,sans-Serif" font-size="10.00">DmaBufferAbstract.hpp</text>
</a>
</g>
</g>
<!-- Node1&#45;&gt;Node2 -->
<g id="edge1" class="edge">
<title>Node1&#45;&gt;Node2</title>
<path fill="none" stroke="#63b8ff" d="M436.53,-270.45C411.34,-260.78 377.68,-247.85 355.56,-239.36"/>
<polygon fill="#63b8ff" stroke="#63b8ff" points="435.09,-273.65 445.68,-273.97 437.6,-267.11 435.09,-273.65"/>
</g>
<!-- Node13 -->
<g id="node13" class="node">
<title>Node13</title>
<g id="a_node13"><a xlink:href="_uio_config_8cpp.html" target="_top" xlink:title=" ">
<polygon fill="white" stroke="#666666" points="594,-239 517,-239 517,-220 594,-220 594,-239"/>
<text text-anchor="middle" x="555.5" y="-227" font-family="Helvetica,sans-Serif" font-size="10.00">UioConfig.cpp</text>
</a>
</g>
</g>
<!-- Node1&#45;&gt;Node13 -->
<g id="edge13" class="edge">
<title>Node1&#45;&gt;Node13</title>
<path fill="none" stroke="#63b8ff" d="M494.62,-268.46C509.69,-259.06 528.59,-247.28 541.29,-239.36"/>
<polygon fill="#63b8ff" stroke="#63b8ff" points="492.84,-265.45 486.2,-273.71 496.54,-271.39 492.84,-265.45"/>
</g>
<!-- Node14 -->
<g id="node14" class="node">
<title>Node14</title>
<g id="a_node14"><a xlink:href="_uio_if_8hpp.html" target="_top" xlink:title=" ">
<polygon fill="white" stroke="#666666" points="498.5,-239 442.5,-239 442.5,-220 498.5,-220 498.5,-239"/>
<text text-anchor="middle" x="470.5" y="-227" font-family="Helvetica,sans-Serif" font-size="10.00">UioIf.hpp</text>
</a>
</g>
</g>
<!-- Node1&#45;&gt;Node14 -->
<g id="edge14" class="edge">
<title>Node1&#45;&gt;Node14</title>
<path fill="none" stroke="#63b8ff" d="M470.5,-263.35C470.5,-255.1 470.5,-245.97 470.5,-239.44"/>
<polygon fill="#63b8ff" stroke="#63b8ff" points="467,-263.23 470.5,-273.23 474,-263.23 467,-263.23"/>
</g>
<!-- Node3 -->
<g id="node3" class="node">
<title>Node3</title>
<g id="a_node3"><a xlink:href="_fpga_mem_buffer_over_axi_8hpp.html" target="_top" xlink:title=" ">
<polygon fill="white" stroke="#666666" points="401.5,-184 263.5,-184 263.5,-165 401.5,-165 401.5,-184"/>
<text text-anchor="middle" x="332.5" y="-172" font-family="Helvetica,sans-Serif" font-size="10.00">FpgaMemBufferOverAxi.hpp</text>
</a>
</g>
</g>
<!-- Node2&#45;&gt;Node3 -->
<g id="edge2" class="edge">
<title>Node2&#45;&gt;Node3</title>
<path fill="none" stroke="#63b8ff" d="M332.5,-208.35C332.5,-200.1 332.5,-190.97 332.5,-184.44"/>
<polygon fill="#63b8ff" stroke="#63b8ff" points="329,-208.23 332.5,-218.23 336,-208.23 329,-208.23"/>
</g>
<!-- Node4 -->
<g id="node4" class="node">
<title>Node4</title>
<g id="a_node4"><a xlink:href="_fpga_mem_buffer_over_xdma_8hpp.html" target="_top" xlink:title=" ">
<polygon fill="white" stroke="#666666" points="245.5,-184 95.5,-184 95.5,-165 245.5,-165 245.5,-184"/>
<text text-anchor="middle" x="170.5" y="-172" font-family="Helvetica,sans-Serif" font-size="10.00">FpgaMemBufferOverXdma.hpp</text>
</a>
</g>
</g>
<!-- Node2&#45;&gt;Node4 -->
<g id="edge3" class="edge">
<title>Node2&#45;&gt;Node4</title>
<path fill="none" stroke="#63b8ff" d="M294.24,-215.98C264.61,-206.29 224.29,-193.1 197.85,-184.45"/>
<polygon fill="#63b8ff" stroke="#63b8ff" points="292.99,-219.26 303.58,-219.04 295.16,-212.6 292.99,-219.26"/>
</g>
<!-- Node5 -->
<g id="node5" class="node">
<title>Node5</title>
<g id="a_node5"><a xlink:href="_u_dma_buf_8hpp.html" target="_top" xlink:title=" ">
<polygon fill="white" stroke="#666666" points="77,-184 0,-184 0,-165 77,-165 77,-184"/>
<text text-anchor="middle" x="38.5" y="-172" font-family="Helvetica,sans-Serif" font-size="10.00">UDmaBuf.hpp</text>
</a>
</g>
</g>
<!-- Node2&#45;&gt;Node5 -->
<g id="edge4" class="edge">
<title>Node2&#45;&gt;Node5</title>
<path fill="none" stroke="#63b8ff" d="M271.34,-217.48C212.98,-206.95 126.83,-191.42 77.33,-182.5"/>
<polygon fill="#63b8ff" stroke="#63b8ff" points="270.68,-220.91 281.14,-219.24 271.92,-214.02 270.68,-220.91"/>
</g>
<!-- Node11 -->
<g id="node11" class="node">
<title>Node11</title>
<g id="a_node11"><a xlink:href="_uio_mem_sgdma_8hpp.html" target="_top" xlink:title=" ">
<polygon fill="white" stroke="#666666" points="521.5,-184 419.5,-184 419.5,-165 521.5,-165 521.5,-184"/>
<text text-anchor="middle" x="470.5" y="-172" font-family="Helvetica,sans-Serif" font-size="10.00">UioMemSgdma.hpp</text>
</a>
</g>
</g>
<!-- Node2&#45;&gt;Node11 -->
<g id="edge10" class="edge">
<title>Node2&#45;&gt;Node11</title>
<path fill="none" stroke="#63b8ff" d="M366.47,-215.45C391.66,-205.78 425.32,-192.85 447.44,-184.36"/>
<polygon fill="#63b8ff" stroke="#63b8ff" points="365.4,-212.11 357.32,-218.97 367.91,-218.65 365.4,-212.11"/>
</g>
<!-- Node6 -->
<g id="node6" class="node">
<title>Node6</title>
<g id="a_node6"><a xlink:href="_data_handler_abstract_8hpp.html" target="_top" xlink:title=" ">
<polygon fill="white" stroke="#666666" points="401,-129 276,-129 276,-110 401,-110 401,-129"/>
<text text-anchor="middle" x="338.5" y="-117" font-family="Helvetica,sans-Serif" font-size="10.00">DataHandlerAbstract.hpp</text>
</a>
</g>
</g>
<!-- Node5&#45;&gt;Node6 -->
<g id="edge5" class="edge">
<title>Node5&#45;&gt;Node6</title>
<path fill="none" stroke="#63b8ff" d="M88.39,-164.67C163.77,-151.34 239.31,-138 287.82,-129.44"/>
<polygon fill="#63b8ff" stroke="#63b8ff" points="88,-161.18 78.76,-166.37 89.22,-168.07 88,-161.18"/>
</g>
<!-- Node10 -->
<g id="node10" class="node">
<title>Node10</title>
<g id="a_node10"><a xlink:href="_u_dma_buf_8cpp.html" target="_top" xlink:title=" ">
<polygon fill="white" stroke="#666666" points="77,-129 0,-129 0,-110 77,-110 77,-129"/>
<text text-anchor="middle" x="38.5" y="-117" font-family="Helvetica,sans-Serif" font-size="10.00">UDmaBuf.cpp</text>
</a>
</g>
</g>
<!-- Node5&#45;&gt;Node10 -->
<g id="edge9" class="edge">
<title>Node5&#45;&gt;Node10</title>
<path fill="none" stroke="#63b8ff" d="M38.5,-153.35C38.5,-145.1 38.5,-135.97 38.5,-129.44"/>
<polygon fill="#63b8ff" stroke="#63b8ff" points="35,-153.23 38.5,-163.23 42,-153.23 35,-153.23"/>
</g>
<!-- Node7 -->
<g id="node7" class="node">
<title>Node7</title>
<g id="a_node7"><a xlink:href="_data_handler_abstract_8cpp.html" target="_top" xlink:title=" ">
<polygon fill="white" stroke="#666666" points="333,-74 208,-74 208,-55 333,-55 333,-74"/>
<text text-anchor="middle" x="270.5" y="-62" font-family="Helvetica,sans-Serif" font-size="10.00">DataHandlerAbstract.cpp</text>
</a>
</g>
</g>
<!-- Node6&#45;&gt;Node7 -->
<g id="edge6" class="edge">
<title>Node6&#45;&gt;Node7</title>
<path fill="none" stroke="#63b8ff" d="M318.15,-102.64C306.28,-93.39 291.74,-82.05 281.86,-74.36"/>
<polygon fill="#63b8ff" stroke="#63b8ff" points="315.73,-105.19 325.77,-108.58 320.04,-99.67 315.73,-105.19"/>
</g>
<!-- Node8 -->
<g id="node8" class="node">
<title>Node8</title>
<g id="a_node8"><a xlink:href="_data_handler_sync_8hpp.html" target="_top" xlink:title=" ">
<polygon fill="white" stroke="#666666" points="461.5,-74 351.5,-74 351.5,-55 461.5,-55 461.5,-74"/>
<text text-anchor="middle" x="406.5" y="-62" font-family="Helvetica,sans-Serif" font-size="10.00">DataHandlerSync.hpp</text>
</a>
</g>
</g>
<!-- Node6&#45;&gt;Node8 -->
<g id="edge7" class="edge">
<title>Node6&#45;&gt;Node8</title>
<path fill="none" stroke="#63b8ff" d="M358.85,-102.64C370.72,-93.39 385.26,-82.05 395.14,-74.36"/>
<polygon fill="#63b8ff" stroke="#63b8ff" points="356.96,-99.67 351.23,-108.58 361.27,-105.19 356.96,-99.67"/>
</g>
<!-- Node9 -->
<g id="node9" class="node">
<title>Node9</title>
<g id="a_node9"><a xlink:href="_data_handler_sync_8cpp.html" target="_top" xlink:title=" ">
<polygon fill="white" stroke="#666666" points="461.5,-19 351.5,-19 351.5,0 461.5,0 461.5,-19"/>
<text text-anchor="middle" x="406.5" y="-7" font-family="Helvetica,sans-Serif" font-size="10.00">DataHandlerSync.cpp</text>
</a>
</g>
</g>
<!-- Node8&#45;&gt;Node9 -->
<g id="edge8" class="edge">
<title>Node8&#45;&gt;Node9</title>
<path fill="none" stroke="#63b8ff" d="M406.5,-43.35C406.5,-35.1 406.5,-25.97 406.5,-19.44"/>
<polygon fill="#63b8ff" stroke="#63b8ff" points="403,-43.23 406.5,-53.23 410,-43.23 403,-43.23"/>
</g>
<!-- Node11&#45;&gt;Node6 -->
<g id="edge11" class="edge">
<title>Node11&#45;&gt;Node6</title>
<path fill="none" stroke="#63b8ff" d="M437.68,-160.32C413.63,-150.67 381.62,-137.82 360.56,-129.36"/>
<polygon fill="#63b8ff" stroke="#63b8ff" points="436.12,-163.47 446.7,-163.95 438.73,-156.97 436.12,-163.47"/>
</g>
<!-- Node12 -->
<g id="node12" class="node">
<title>Node12</title>
<g id="a_node12"><a xlink:href="_uio_mem_sgdma_8cpp.html" target="_top" xlink:title=" ">
<polygon fill="white" stroke="#666666" points="521.5,-129 419.5,-129 419.5,-110 521.5,-110 521.5,-129"/>
<text text-anchor="middle" x="470.5" y="-117" font-family="Helvetica,sans-Serif" font-size="10.00">UioMemSgdma.cpp</text>
</a>
</g>
</g>
<!-- Node11&#45;&gt;Node12 -->
<g id="edge12" class="edge">
<title>Node11&#45;&gt;Node12</title>
<path fill="none" stroke="#63b8ff" d="M470.5,-153.35C470.5,-145.1 470.5,-135.97 470.5,-129.44"/>
<polygon fill="#63b8ff" stroke="#63b8ff" points="467,-153.23 470.5,-163.23 474,-153.23 467,-153.23"/>
</g>
<!-- Node14&#45;&gt;Node3 -->
<g id="edge15" class="edge">
<title>Node14&#45;&gt;Node3</title>
<path fill="none" stroke="#63b8ff" d="M436.53,-215.45C411.34,-205.78 377.68,-192.85 355.56,-184.36"/>
<polygon fill="#63b8ff" stroke="#63b8ff" points="435.09,-218.65 445.68,-218.97 437.6,-212.11 435.09,-218.65"/>
</g>
<!-- Node14&#45;&gt;Node11 -->
<g id="edge20" class="edge">
<title>Node14&#45;&gt;Node11</title>
<path fill="none" stroke="#63b8ff" d="M470.5,-208.35C470.5,-200.1 470.5,-190.97 470.5,-184.44"/>
<polygon fill="#63b8ff" stroke="#63b8ff" points="467,-208.23 470.5,-218.23 474,-208.23 467,-208.23"/>
</g>
<!-- Node15 -->
<g id="node15" class="node">
<title>Node15</title>
<g id="a_node15"><a xlink:href="_uio_axi_dma_if_8hpp.html" target="_top" xlink:title=" ">
<polygon fill="white" stroke="#666666" points="629,-184 540,-184 540,-165 629,-165 629,-184"/>
<text text-anchor="middle" x="584.5" y="-172" font-family="Helvetica,sans-Serif" font-size="10.00">UioAxiDmaIf.hpp</text>
</a>
</g>
</g>
<!-- Node14&#45;&gt;Node15 -->
<g id="edge16" class="edge">
<title>Node14&#45;&gt;Node15</title>
<path fill="none" stroke="#63b8ff" d="M500.26,-214.67C520.86,-205.09 547.67,-192.62 565.45,-184.36"/>
<polygon fill="#63b8ff" stroke="#63b8ff" points="498.8,-211.48 491.21,-218.87 501.75,-217.83 498.8,-211.48"/>
</g>
<!-- Node17 -->
<g id="node17" class="node">
<title>Node17</title>
<g id="a_node17"><a xlink:href="_uio_if_8cpp.html" target="_top" xlink:title=" ">
<polygon fill="white" stroke="#666666" points="703.5,-184 647.5,-184 647.5,-165 703.5,-165 703.5,-184"/>
<text text-anchor="middle" x="675.5" y="-172" font-family="Helvetica,sans-Serif" font-size="10.00">UioIf.cpp</text>
</a>
</g>
</g>
<!-- Node14&#45;&gt;Node17 -->
<g id="edge19" class="edge">
<title>Node14&#45;&gt;Node17</title>
<path fill="none" stroke="#63b8ff" d="M509.55,-218.4C549.73,-208.02 611.35,-192.09 647.11,-182.84"/>
<polygon fill="#63b8ff" stroke="#63b8ff" points="508.85,-214.97 500.04,-220.86 510.6,-221.75 508.85,-214.97"/>
</g>
<!-- Node15&#45;&gt;Node6 -->
<g id="edge17" class="edge">
<title>Node15&#45;&gt;Node6</title>
<path fill="none" stroke="#63b8ff" d="M531.67,-162.12C486.3,-152.34 421.78,-138.44 380.02,-129.45"/>
<polygon fill="#63b8ff" stroke="#63b8ff" points="530.78,-165.51 541.29,-164.19 532.25,-158.66 530.78,-165.51"/>
</g>
<!-- Node16 -->
<g id="node16" class="node">
<title>Node16</title>
<g id="a_node16"><a xlink:href="_uio_axi_dma_if_8cpp.html" target="_top" xlink:title=" ">
<polygon fill="white" stroke="#666666" points="629,-129 540,-129 540,-110 629,-110 629,-129"/>
<text text-anchor="middle" x="584.5" y="-117" font-family="Helvetica,sans-Serif" font-size="10.00">UioAxiDmaIf.cpp</text>
</a>
</g>
</g>
<!-- Node15&#45;&gt;Node16 -->
<g id="edge18" class="edge">
<title>Node15&#45;&gt;Node16</title>
<path fill="none" stroke="#63b8ff" d="M584.5,-153.35C584.5,-145.1 584.5,-135.97 584.5,-129.44"/>
<polygon fill="#63b8ff" stroke="#63b8ff" points="581,-153.23 584.5,-163.23 588,-153.23 581,-153.23"/>
</g>
</g>
</svg>
