<?xml version="1.0" encoding="UTF-8" standalone="no"?>
<!DOCTYPE svg PUBLIC "-//W3C//DTD SVG 1.1//EN"
 "http://www.w3.org/Graphics/SVG/1.1/DTD/svg11.dtd">
<!-- Generated by graphviz version 7.0.5 (20221223.1930)
 -->
<!-- Title: UioAxiDmaIf.cpp Pages: 1 -->
<svg width="1719pt" height="368pt"
 viewBox="0.00 0.00 1719.00 368.00" xmlns="http://www.w3.org/2000/svg" xmlns:xlink="http://www.w3.org/1999/xlink">
<g id="graph0" class="graph" transform="scale(1 1) rotate(0) translate(4 364)">
<title>UioAxiDmaIf.cpp</title>
<!-- Node1 -->
<g id="node1" class="node">
<title>Node1</title>
<g id="a_node1"><a xlink:title=" ">
<polygon fill="#999999" stroke="#666666" points="1091,-360 1002,-360 1002,-341 1091,-341 1091,-360"/>
<text text-anchor="middle" x="1046.5" y="-348" font-family="Helvetica,sans-Serif" font-size="10.00">UioAxiDmaIf.cpp</text>
</a>
</g>
</g>
<!-- Node2 -->
<g id="node2" class="node">
<title>Node2</title>
<g id="a_node2"><a xlink:href="_uio_axi_dma_if_8hpp.html" target="_top" xlink:title=" ">
<polygon fill="white" stroke="#666666" points="795.5,-305 671.5,-305 671.5,-286 795.5,-286 795.5,-305"/>
<text text-anchor="middle" x="733.5" y="-293" font-family="Helvetica,sans-Serif" font-size="10.00">udmaio/UioAxiDmaIf.hpp</text>
</a>
</g>
</g>
<!-- Node1&#45;&gt;Node2 -->
<g id="edge1" class="edge">
<title>Node1&#45;&gt;Node2</title>
<path fill="none" stroke="#63b8ff" d="M1001.65,-341.91C948.19,-332.85 858.44,-317.66 797.64,-307.36"/>
<polygon fill="#63b8ff" stroke="#63b8ff" points="798.58,-303.97 788.13,-305.75 797.41,-310.87 798.58,-303.97"/>
</g>
<!-- Node3 -->
<g id="node3" class="node">
<title>Node3</title>
<g id="a_node3"><a xlink:title=" ">
<polygon fill="#e0e0e0" stroke="#999999" points="965.5,-195 919.5,-195 919.5,-176 965.5,-176 965.5,-195"/>
<text text-anchor="middle" x="942.5" y="-183" font-family="Helvetica,sans-Serif" font-size="10.00">cstdint</text>
</a>
</g>
</g>
<!-- Node1&#45;&gt;Node3 -->
<g id="edge51" class="edge">
<title>Node1&#45;&gt;Node3</title>
<path fill="none" stroke="#63b8ff" d="M1040.91,-340.74C1024.54,-315.09 976.5,-239.78 954.16,-204.78"/>
<polygon fill="#63b8ff" stroke="#63b8ff" points="957.26,-203.13 948.93,-196.58 951.36,-206.9 957.26,-203.13"/>
</g>
<!-- Node28 -->
<g id="node28" class="node">
<title>Node28</title>
<g id="a_node28"><a xlink:title=" ">
<polygon fill="#e0e0e0" stroke="#999999" points="704,-24.5 645,-24.5 645,-5.5 704,-5.5 704,-24.5"/>
<text text-anchor="middle" x="674.5" y="-12.5" font-family="Helvetica,sans-Serif" font-size="10.00">stdexcept</text>
</a>
</g>
</g>
<!-- Node1&#45;&gt;Node28 -->
<g id="edge53" class="edge">
<title>Node1&#45;&gt;Node28</title>
<path fill="none" stroke="#63b8ff" d="M1046.5,-340.54C1046.5,-322.03 1046.5,-278.25 1046.5,-241.5 1046.5,-241.5 1046.5,-241.5 1046.5,-129.5 1046.5,-91.58 1022.97,-83.83 989.5,-66 888.1,-11.98 846.41,-51.29 733.5,-30 727.55,-28.88 721.3,-27.55 715.18,-26.18"/>
<polygon fill="#63b8ff" stroke="#63b8ff" points="716.41,-22.87 705.87,-24.01 714.82,-29.69 716.41,-22.87"/>
</g>
<!-- Node31 -->
<g id="node31" class="node">
<title>Node31</title>
<g id="a_node31"><a xlink:title=" ">
<polygon fill="#e0e0e0" stroke="#999999" points="1142,-305 1113,-305 1113,-286 1142,-286 1142,-305"/>
<text text-anchor="middle" x="1127.5" y="-293" font-family="Helvetica,sans-Serif" font-size="10.00">ios</text>
</a>
</g>
</g>
<!-- Node1&#45;&gt;Node31 -->
<g id="edge52" class="edge">
<title>Node1&#45;&gt;Node31</title>
<path fill="none" stroke="#63b8ff" d="M1060.24,-340.51C1072.3,-332.62 1090.09,-320.98 1104.34,-311.65"/>
<polygon fill="#63b8ff" stroke="#63b8ff" points="1106.24,-314.59 1112.7,-306.19 1102.41,-308.73 1106.24,-314.59"/>
</g>
<!-- Node32 -->
<g id="node32" class="node">
<title>Node32</title>
<g id="a_node32"><a xlink:href="_frame_format_8hpp.html" target="_top" xlink:title=" ">
<polygon fill="white" stroke="#666666" points="1202.5,-250 1074.5,-250 1074.5,-231 1202.5,-231 1202.5,-250"/>
<text text-anchor="middle" x="1138.5" y="-238" font-family="Helvetica,sans-Serif" font-size="10.00">udmaio/FrameFormat.hpp</text>
</a>
</g>
</g>
<!-- Node1&#45;&gt;Node32 -->
<g id="edge54" class="edge">
<title>Node1&#45;&gt;Node32</title>
<path fill="none" stroke="#63b8ff" d="M1054.03,-340.66C1069.19,-322.86 1103.65,-282.41 1123.56,-259.04"/>
<polygon fill="#63b8ff" stroke="#63b8ff" points="1126.07,-261.49 1129.89,-251.61 1120.74,-256.96 1126.07,-261.49"/>
</g>
<!-- Node2&#45;&gt;Node3 -->
<g id="edge2" class="edge">
<title>Node2&#45;&gt;Node3</title>
<path fill="none" stroke="#63b8ff" d="M795.7,-286.74C843.77,-279.53 905.12,-267.3 923.5,-250 935.31,-238.89 939.87,-220.78 941.59,-206.74"/>
<polygon fill="#63b8ff" stroke="#63b8ff" points="945.08,-207.05 942.38,-196.81 938.1,-206.5 945.08,-207.05"/>
</g>
<!-- Node4 -->
<g id="node4" class="node">
<title>Node4</title>
<g id="a_node4"><a xlink:title=" ">
<polygon fill="#e0e0e0" stroke="#999999" points="630.5,-250 592.5,-250 592.5,-231 630.5,-231 630.5,-250"/>
<text text-anchor="middle" x="611.5" y="-238" font-family="Helvetica,sans-Serif" font-size="10.00">tuple</text>
</a>
</g>
</g>
<!-- Node2&#45;&gt;Node4 -->
<g id="edge3" class="edge">
<title>Node2&#45;&gt;Node4</title>
<path fill="none" stroke="#63b8ff" d="M712.8,-285.51C693.15,-276.97 663.38,-264.04 641.2,-254.4"/>
<polygon fill="#63b8ff" stroke="#63b8ff" points="642.64,-251.21 632.07,-250.44 639.85,-257.63 642.64,-251.21"/>
</g>
<!-- Node5 -->
<g id="node5" class="node">
<title>Node5</title>
<g id="a_node5"><a xlink:title=" ">
<polygon fill="#e0e0e0" stroke="#999999" points="65,-85 0,-85 0,-66 65,-66 65,-85"/>
<text text-anchor="middle" x="32.5" y="-73" font-family="Helvetica,sans-Serif" font-size="10.00">sys/types.h</text>
</a>
</g>
</g>
<!-- Node2&#45;&gt;Node5 -->
<g id="edge4" class="edge">
<title>Node2&#45;&gt;Node5</title>
<path fill="none" stroke="#63b8ff" d="M671.27,-287.93C521.68,-270.99 147.55,-221.34 55.5,-140 43,-128.95 37.29,-110.56 34.68,-96.41"/>
<polygon fill="#63b8ff" stroke="#63b8ff" points="38.19,-96.25 33.31,-86.85 31.27,-97.25 38.19,-96.25"/>
</g>
<!-- Node6 -->
<g id="node6" class="node">
<title>Node6</title>
<g id="a_node6"><a xlink:href="_reg_accessor_8hpp.html" target="_top" xlink:title=" ">
<polygon fill="white" stroke="#666666" points="780,-250 687,-250 687,-231 780,-231 780,-250"/>
<text text-anchor="middle" x="733.5" y="-238" font-family="Helvetica,sans-Serif" font-size="10.00">RegAccessor.hpp</text>
</a>
</g>
</g>
<!-- Node2&#45;&gt;Node6 -->
<g id="edge5" class="edge">
<title>Node2&#45;&gt;Node6</title>
<path fill="none" stroke="#63b8ff" d="M733.5,-285.75C733.5,-279.27 733.5,-270.16 733.5,-261.9"/>
<polygon fill="#63b8ff" stroke="#63b8ff" points="737,-261.96 733.5,-251.96 730,-261.96 737,-261.96"/>
</g>
<!-- Node7 -->
<g id="node7" class="node">
<title>Node7</title>
<g id="a_node7"><a xlink:href="_uio_if_8hpp.html" target="_top" xlink:title=" ">
<polygon fill="white" stroke="#666666" points="688.5,-195 598.5,-195 598.5,-176 688.5,-176 688.5,-195"/>
<text text-anchor="middle" x="643.5" y="-183" font-family="Helvetica,sans-Serif" font-size="10.00">udmaio/UioIf.hpp</text>
</a>
</g>
</g>
<!-- Node2&#45;&gt;Node7 -->
<g id="edge48" class="edge">
<title>Node2&#45;&gt;Node7</title>
<path fill="none" stroke="#63b8ff" d="M719.27,-285.61C707.07,-277.46 689.59,-264.49 677.5,-250 666.35,-236.63 657.27,-219.03 651.31,-205.74"/>
<polygon fill="#63b8ff" stroke="#63b8ff" points="654.63,-204.62 647.49,-196.79 648.19,-207.36 654.63,-204.62"/>
</g>
<!-- Node30 -->
<g id="node30" class="node">
<title>Node30</title>
<g id="a_node30"><a xlink:href="_axi_dma_8hpp.html" target="_top" xlink:title=" ">
<polygon fill="white" stroke="#666666" points="914.5,-250 798.5,-250 798.5,-231 914.5,-231 914.5,-250"/>
<text text-anchor="middle" x="856.5" y="-238" font-family="Helvetica,sans-Serif" font-size="10.00">udmaio/rdl/AxiDma.hpp</text>
</a>
</g>
</g>
<!-- Node2&#45;&gt;Node30 -->
<g id="edge49" class="edge">
<title>Node2&#45;&gt;Node30</title>
<path fill="none" stroke="#63b8ff" d="M754.37,-285.51C773.92,-277.08 803.4,-264.38 825.67,-254.79"/>
<polygon fill="#63b8ff" stroke="#63b8ff" points="826.75,-258.13 834.55,-250.96 823.98,-251.7 826.75,-258.13"/>
</g>
<!-- Node6&#45;&gt;Node3 -->
<g id="edge6" class="edge">
<title>Node6&#45;&gt;Node3</title>
<path fill="none" stroke="#63b8ff" d="M768.95,-230.51C807.79,-220.66 869.67,-204.97 908.09,-195.23"/>
<polygon fill="#63b8ff" stroke="#63b8ff" points="908.91,-198.63 917.74,-192.78 907.19,-191.84 908.91,-198.63"/>
</g>
<!-- Node6&#45;&gt;Node7 -->
<g id="edge7" class="edge">
<title>Node6&#45;&gt;Node7</title>
<path fill="none" stroke="#63b8ff" d="M718.23,-230.51C704.57,-222.47 684.3,-210.53 668.32,-201.11"/>
<polygon fill="#63b8ff" stroke="#63b8ff" points="670.24,-198.18 659.85,-196.13 666.69,-204.22 670.24,-198.18"/>
</g>
<!-- Node7&#45;&gt;Node5 -->
<g id="edge17" class="edge">
<title>Node7&#45;&gt;Node5</title>
<path fill="none" stroke="#63b8ff" d="M598.44,-183.08C472.73,-178.83 124.44,-164.91 79.5,-140 61.72,-130.14 48.77,-110.41 41.02,-95.55"/>
<polygon fill="#63b8ff" stroke="#63b8ff" points="44.27,-94.22 36.77,-86.74 37.96,-97.26 44.27,-94.22"/>
</g>
<!-- Node8 -->
<g id="node8" class="node">
<title>Node8</title>
<g id="a_node8"><a xlink:title=" ">
<polygon fill="#e0e0e0" stroke="#999999" points="355.5,-85 295.5,-85 295.5,-66 355.5,-66 355.5,-85"/>
<text text-anchor="middle" x="325.5" y="-73" font-family="Helvetica,sans-Serif" font-size="10.00">filesystem</text>
</a>
</g>
</g>
<!-- Node7&#45;&gt;Node8 -->
<g id="edge8" class="edge">
<title>Node7&#45;&gt;Node8</title>
<path fill="none" stroke="#63b8ff" d="M598.08,-178.39C556.21,-171.86 492.84,-159.71 440.5,-140 406.78,-127.3 370.88,-106.09 348.34,-91.71"/>
<polygon fill="#63b8ff" stroke="#63b8ff" points="350.26,-88.79 339.96,-86.28 346.45,-94.66 350.26,-88.79"/>
</g>
<!-- Node9 -->
<g id="node9" class="node">
<title>Node9</title>
<g id="a_node9"><a xlink:title=" ">
<polygon fill="#e0e0e0" stroke="#999999" points="277.5,-85 227.5,-85 227.5,-66 277.5,-66 277.5,-85"/>
<text text-anchor="middle" x="252.5" y="-73" font-family="Helvetica,sans-Serif" font-size="10.00">fstream</text>
</a>
</g>
</g>
<!-- Node7&#45;&gt;Node9 -->
<g id="edge9" class="edge">
<title>Node7&#45;&gt;Node9</title>
<path fill="none" stroke="#63b8ff" d="M598.31,-179.54C548.39,-173.33 466,-160.88 397.5,-140 354.84,-127 308,-104.97 279.42,-90.57"/>
<polygon fill="#63b8ff" stroke="#63b8ff" points="281.26,-87.58 270.76,-86.16 278.08,-93.82 281.26,-87.58"/>
</g>
<!-- Node10 -->
<g id="node10" class="node">
<title>Node10</title>
<g id="a_node10"><a xlink:title=" ">
<polygon fill="#e0e0e0" stroke="#999999" points="451.5,-24.5 397.5,-24.5 397.5,-5.5 451.5,-5.5 451.5,-24.5"/>
<text text-anchor="middle" x="424.5" y="-12.5" font-family="Helvetica,sans-Serif" font-size="10.00">iostream</text>
</a>
</g>
</g>
<!-- Node7&#45;&gt;Node10 -->
<g id="edge10" class="edge">
<title>Node7&#45;&gt;Node10</title>
<path fill="none" stroke="#63b8ff" d="M598.16,-183.04C485.91,-178.3 200.57,-159.05 150.5,-85 145.77,-78 145,-72.4 150.5,-66 185.22,-25.6 335.97,-43.5 387.5,-30 389.12,-29.58 390.77,-29.11 392.42,-28.6"/>
<polygon fill="#63b8ff" stroke="#63b8ff" points="393.46,-31.95 401.79,-25.41 391.2,-25.32 393.46,-31.95"/>
</g>
<!-- Node11 -->
<g id="node11" class="node">
<title>Node11</title>
<g id="a_node11"><a xlink:title=" ">
<polygon fill="#e0e0e0" stroke="#999999" points="379,-24.5 328,-24.5 328,-5.5 379,-5.5 379,-24.5"/>
<text text-anchor="middle" x="353.5" y="-12.5" font-family="Helvetica,sans-Serif" font-size="10.00">memory</text>
</a>
</g>
</g>
<!-- Node7&#45;&gt;Node11 -->
<g id="edge11" class="edge">
<title>Node7&#45;&gt;Node11</title>
<path fill="none" stroke="#63b8ff" d="M598.14,-183.68C499.84,-181.31 270.37,-172.37 200.5,-140 168.56,-125.2 157.26,-117.4 143.5,-85 140.2,-77.23 138.27,-72.63 143.5,-66 164.65,-39.22 262.01,-25.24 316.42,-19.4"/>
<polygon fill="#63b8ff" stroke="#63b8ff" points="316.57,-22.9 326.16,-18.4 315.85,-15.94 316.57,-22.9"/>
</g>
<!-- Node12 -->
<g id="node12" class="node">
<title>Node12</title>
<g id="a_node12"><a xlink:title=" ">
<polygon fill="#e0e0e0" stroke="#999999" points="784,-24.5 743,-24.5 743,-5.5 784,-5.5 784,-24.5"/>
<text text-anchor="middle" x="763.5" y="-12.5" font-family="Helvetica,sans-Serif" font-size="10.00">string</text>
</a>
</g>
</g>
<!-- Node7&#45;&gt;Node12 -->
<g id="edge12" class="edge">
<title>Node7&#45;&gt;Node12</title>
<path fill="none" stroke="#63b8ff" d="M688.86,-178.29C774.24,-165.57 953.49,-133.58 989.5,-85 994.53,-78.22 994.9,-72.49 989.5,-66 932.81,2.05 877.87,-56.95 793.5,-30 792.7,-29.74 791.89,-29.47 791.08,-29.19"/>
<polygon fill="#63b8ff" stroke="#63b8ff" points="792.63,-26.04 782.05,-25.49 789.98,-32.52 792.63,-26.04"/>
</g>
<!-- Node13 -->
<g id="node13" class="node">
<title>Node13</title>
<g id="a_node13"><a xlink:title=" ">
<polygon fill="#e0e0e0" stroke="#999999" points="755,-85 618,-85 618,-66 755,-66 755,-85"/>
<text text-anchor="middle" x="686.5" y="-73" font-family="Helvetica,sans-Serif" font-size="10.00">boost/core/noncopyable.hpp</text>
</a>
</g>
</g>
<!-- Node7&#45;&gt;Node13 -->
<g id="edge13" class="edge">
<title>Node7&#45;&gt;Node13</title>
<path fill="none" stroke="#63b8ff" d="M647.02,-175.66C653.92,-158.34 669.36,-119.55 678.76,-95.95"/>
<polygon fill="#63b8ff" stroke="#63b8ff" points="681.93,-97.45 682.37,-86.87 675.42,-94.86 681.93,-97.45"/>
</g>
<!-- Node14 -->
<g id="node14" class="node">
<title>Node14</title>
<g id="a_node14"><a xlink:title=" ">
<polygon fill="#e0e0e0" stroke="#999999" points="816,-85 773,-85 773,-66 816,-66 816,-85"/>
<text text-anchor="middle" x="794.5" y="-73" font-family="Helvetica,sans-Serif" font-size="10.00">fcntl.h</text>
</a>
</g>
</g>
<!-- Node7&#45;&gt;Node14 -->
<g id="edge14" class="edge">
<title>Node7&#45;&gt;Node14</title>
<path fill="none" stroke="#63b8ff" d="M655.86,-175.66C681.52,-157.31 740.86,-114.87 772.95,-91.91"/>
<polygon fill="#63b8ff" stroke="#63b8ff" points="774.64,-95.01 780.74,-86.34 770.57,-89.31 774.64,-95.01"/>
</g>
<!-- Node15 -->
<g id="node15" class="node">
<title>Node15</title>
<g id="a_node15"><a xlink:title=" ">
<polygon fill="#e0e0e0" stroke="#999999" points="903,-85 834,-85 834,-66 903,-66 903,-85"/>
<text text-anchor="middle" x="868.5" y="-73" font-family="Helvetica,sans-Serif" font-size="10.00">sys/mman.h</text>
</a>
</g>
</g>
<!-- Node7&#45;&gt;Node15 -->
<g id="edge15" class="edge">
<title>Node7&#45;&gt;Node15</title>
<path fill="none" stroke="#63b8ff" d="M661.91,-175.66C701.06,-156.87 792.79,-112.84 839.73,-90.31"/>
<polygon fill="#63b8ff" stroke="#63b8ff" points="840.97,-93.6 848.47,-86.12 837.94,-87.29 840.97,-93.6"/>
</g>
<!-- Node16 -->
<g id="node16" class="node">
<title>Node16</title>
<g id="a_node16"><a xlink:title=" ">
<polygon fill="#e0e0e0" stroke="#999999" points="980,-85 921,-85 921,-66 980,-66 980,-85"/>
<text text-anchor="middle" x="950.5" y="-73" font-family="Helvetica,sans-Serif" font-size="10.00">sys/stat.h</text>
</a>
</g>
</g>
<!-- Node7&#45;&gt;Node16 -->
<g id="edge16" class="edge">
<title>Node7&#45;&gt;Node16</title>
<path fill="none" stroke="#63b8ff" d="M668.81,-175.65C694.44,-166.68 735.24,-152.4 770.5,-140 820.5,-122.42 878.29,-102.02 914.62,-89.18"/>
<polygon fill="#63b8ff" stroke="#63b8ff" points="915.48,-92.59 923.74,-85.96 913.15,-85.99 915.48,-92.59"/>
</g>
<!-- Node17 -->
<g id="node17" class="node">
<title>Node17</title>
<g id="a_node17"><a xlink:title=" ">
<polygon fill="#e0e0e0" stroke="#999999" points="209.5,-85 159.5,-85 159.5,-66 209.5,-66 209.5,-85"/>
<text text-anchor="middle" x="184.5" y="-73" font-family="Helvetica,sans-Serif" font-size="10.00">unistd.h</text>
</a>
</g>
</g>
<!-- Node7&#45;&gt;Node17 -->
<g id="edge18" class="edge">
<title>Node7&#45;&gt;Node17</title>
<path fill="none" stroke="#63b8ff" d="M598.01,-181.01C538.82,-175.72 432.56,-163.69 344.5,-140 297,-127.22 244.44,-104.63 212.96,-90.12"/>
<polygon fill="#63b8ff" stroke="#63b8ff" points="214.66,-87.05 204.12,-85.99 211.7,-93.39 214.66,-87.05"/>
</g>
<!-- Node18 -->
<g id="node18" class="node">
<title>Node18</title>
<g id="a_node18"><a xlink:href="_hw_accessor_8hpp.html" target="_top" xlink:title=" ">
<polygon fill="white" stroke="#666666" points="575,-140 450,-140 450,-121 575,-121 575,-140"/>
<text text-anchor="middle" x="512.5" y="-128" font-family="Helvetica,sans-Serif" font-size="10.00">udmaio/HwAccessor.hpp</text>
</a>
</g>
</g>
<!-- Node7&#45;&gt;Node18 -->
<g id="edge19" class="edge">
<title>Node7&#45;&gt;Node18</title>
<path fill="none" stroke="#63b8ff" d="M621.28,-175.51C600.36,-167.04 568.77,-154.27 545.02,-144.66"/>
<polygon fill="#63b8ff" stroke="#63b8ff" points="546.38,-141.43 535.8,-140.93 543.75,-147.92 546.38,-141.43"/>
</g>
<!-- Node19 -->
<g id="node19" class="node">
<title>Node19</title>
<g id="a_node19"><a xlink:href="_logging_8hpp.html" target="_top" xlink:title=" ">
<polygon fill="white" stroke="#666666" points="1254.5,-85 1150.5,-85 1150.5,-66 1254.5,-66 1254.5,-85"/>
<text text-anchor="middle" x="1202.5" y="-73" font-family="Helvetica,sans-Serif" font-size="10.00">udmaio/Logging.hpp</text>
</a>
</g>
</g>
<!-- Node7&#45;&gt;Node19 -->
<g id="edge46" class="edge">
<title>Node7&#45;&gt;Node19</title>
<path fill="none" stroke="#63b8ff" d="M688.98,-182.43C760.69,-178.43 904.08,-167.48 1022.5,-140 1076.09,-127.56 1135.88,-104.55 1171.29,-89.91"/>
<polygon fill="#63b8ff" stroke="#63b8ff" points="1172.62,-93.15 1180.49,-86.06 1169.92,-86.69 1172.62,-93.15"/>
</g>
<!-- Node27 -->
<g id="node27" class="node">
<title>Node27</title>
<g id="a_node27"><a xlink:href="_uio_config_8hpp.html" target="_top" xlink:title=" ">
<polygon fill="white" stroke="#666666" points="561,-85 450,-85 450,-66 561,-66 561,-85"/>
<text text-anchor="middle" x="505.5" y="-73" font-family="Helvetica,sans-Serif" font-size="10.00">udmaio/UioConfig.hpp</text>
</a>
</g>
</g>
<!-- Node7&#45;&gt;Node27 -->
<g id="edge47" class="edge">
<title>Node7&#45;&gt;Node27</title>
<path fill="none" stroke="#63b8ff" d="M636.8,-175.93C626.37,-162.96 605.2,-138.06 583.5,-121 568.46,-109.18 549.92,-98.47 534.69,-90.52"/>
<polygon fill="#63b8ff" stroke="#63b8ff" points="536.61,-87.57 526.11,-86.16 533.44,-93.81 536.61,-87.57"/>
</g>
<!-- Node18&#45;&gt;Node5 -->
<g id="edge29" class="edge">
<title>Node18&#45;&gt;Node5</title>
<path fill="none" stroke="#63b8ff" d="M449.75,-122.57C351.21,-111.69 162.6,-90.87 76.87,-81.4"/>
<polygon fill="#63b8ff" stroke="#63b8ff" points="77.31,-77.93 66.98,-80.31 76.54,-84.88 77.31,-77.93"/>
</g>
<!-- Node18&#45;&gt;Node8 -->
<g id="edge20" class="edge">
<title>Node18&#45;&gt;Node8</title>
<path fill="none" stroke="#63b8ff" d="M480.78,-120.51C449.28,-111.58 400.85,-97.86 366.46,-88.11"/>
<polygon fill="#63b8ff" stroke="#63b8ff" points="367.86,-84.87 357.28,-85.51 365.95,-91.6 367.86,-84.87"/>
</g>
<!-- Node18&#45;&gt;Node9 -->
<g id="edge21" class="edge">
<title>Node18&#45;&gt;Node9</title>
<path fill="none" stroke="#63b8ff" d="M463.42,-120.58C419.96,-112.51 354.54,-99.96 288.71,-85.4"/>
<polygon fill="#63b8ff" stroke="#63b8ff" points="289.72,-82.04 279.19,-83.28 288.19,-88.88 289.72,-82.04"/>
</g>
<!-- Node18&#45;&gt;Node10 -->
<g id="edge22" class="edge">
<title>Node18&#45;&gt;Node10</title>
<path fill="none" stroke="#63b8ff" d="M488.59,-120.51C472.61,-113.29 452.41,-101.59 440.5,-85 430.3,-70.78 426.49,-51.05 425.13,-36.33"/>
<polygon fill="#63b8ff" stroke="#63b8ff" points="428.63,-36.23 424.54,-26.45 421.64,-36.64 428.63,-36.23"/>
</g>
<!-- Node18&#45;&gt;Node11 -->
<g id="edge23" class="edge">
<title>Node18&#45;&gt;Node11</title>
<path fill="none" stroke="#63b8ff" d="M491.69,-120.52C473.91,-112.41 448.02,-99.54 427.5,-85 405.66,-69.53 383.6,-48.03 369.32,-33.16"/>
<polygon fill="#63b8ff" stroke="#63b8ff" points="371.95,-30.85 362.55,-25.97 366.86,-35.65 371.95,-30.85"/>
</g>
<!-- Node18&#45;&gt;Node12 -->
<g id="edge24" class="edge">
<title>Node18&#45;&gt;Node12</title>
<path fill="none" stroke="#63b8ff" d="M523.71,-120.6C541.03,-107.21 575.72,-81.76 608.5,-66 630.53,-55.41 693.53,-36.31 732.09,-25.03"/>
<polygon fill="#63b8ff" stroke="#63b8ff" points="732.65,-28.51 741.28,-22.36 730.7,-21.79 732.65,-28.51"/>
</g>
<!-- Node18&#45;&gt;Node13 -->
<g id="edge25" class="edge">
<title>Node18&#45;&gt;Node13</title>
<path fill="none" stroke="#63b8ff" d="M542.02,-120.51C570.73,-111.76 614.55,-98.42 646.41,-88.71"/>
<polygon fill="#63b8ff" stroke="#63b8ff" points="647.14,-92.15 655.68,-85.89 645.1,-85.45 647.14,-92.15"/>
</g>
<!-- Node18&#45;&gt;Node14 -->
<g id="edge26" class="edge">
<title>Node18&#45;&gt;Node14</title>
<path fill="none" stroke="#63b8ff" d="M572.14,-120.51C620.7,-112.84 691.22,-100.87 761.7,-85.23"/>
<polygon fill="#63b8ff" stroke="#63b8ff" points="762.08,-88.73 771.07,-83.12 760.55,-81.9 762.08,-88.73"/>
</g>
<!-- Node18&#45;&gt;Node15 -->
<g id="edge27" class="edge">
<title>Node18&#45;&gt;Node15</title>
<path fill="none" stroke="#63b8ff" d="M575.31,-121.58C636.14,-113.69 731.27,-100.74 822.67,-85.41"/>
<polygon fill="#63b8ff" stroke="#63b8ff" points="823.03,-88.9 832.3,-83.78 821.86,-82 823.03,-88.9"/>
</g>
<!-- Node18&#45;&gt;Node16 -->
<g id="edge28" class="edge">
<title>Node18&#45;&gt;Node16</title>
<path fill="none" stroke="#63b8ff" d="M575.49,-124.63C652.23,-118.23 786,-105.53 909.53,-85.34"/>
<polygon fill="#63b8ff" stroke="#63b8ff" points="909.9,-88.83 919.2,-83.74 908.76,-81.92 909.9,-88.83"/>
</g>
<!-- Node18&#45;&gt;Node17 -->
<g id="edge30" class="edge">
<title>Node18&#45;&gt;Node17</title>
<path fill="none" stroke="#63b8ff" d="M449.69,-121.75C392.46,-114.29 305.41,-101.95 220.8,-85.3"/>
<polygon fill="#63b8ff" stroke="#63b8ff" points="221.67,-81.9 211.18,-83.38 220.3,-88.76 221.67,-81.9"/>
</g>
<!-- Node18&#45;&gt;Node19 -->
<g id="edge31" class="edge">
<title>Node18&#45;&gt;Node19</title>
<path fill="none" stroke="#63b8ff" d="M575.26,-124.68C706.18,-114.62 1007.19,-91.5 1138.87,-81.39"/>
<polygon fill="#63b8ff" stroke="#63b8ff" points="1139.11,-84.88 1148.81,-80.62 1138.57,-77.9 1139.11,-84.88"/>
</g>
<!-- Node18&#45;&gt;Node27 -->
<g id="edge40" class="edge">
<title>Node18&#45;&gt;Node27</title>
<path fill="none" stroke="#63b8ff" d="M511.34,-120.75C510.48,-114.19 509.26,-104.95 508.16,-96.6"/>
<polygon fill="#63b8ff" stroke="#63b8ff" points="511.66,-96.4 506.88,-86.94 504.72,-97.31 511.66,-96.4"/>
</g>
<!-- Node19&#45;&gt;Node12 -->
<g id="edge32" class="edge">
<title>Node19&#45;&gt;Node12</title>
<path fill="none" stroke="#63b8ff" d="M1150.28,-67.66C1145.62,-67.08 1140.98,-66.52 1136.5,-66 984.25,-48.21 941.2,-70.97 793.5,-30 792.51,-29.72 791.51,-29.42 790.5,-29.09"/>
<polygon fill="#63b8ff" stroke="#63b8ff" points="791.93,-25.89 781.35,-25.43 789.33,-32.39 791.93,-25.89"/>
</g>
<!-- Node20 -->
<g id="node20" class="node">
<title>Node20</title>
<g id="a_node20"><a xlink:title=" ">
<polygon fill="#e0e0e0" stroke="#999999" points="1444.5,-24.5 1348.5,-24.5 1348.5,-5.5 1444.5,-5.5 1444.5,-24.5"/>
<text text-anchor="middle" x="1396.5" y="-12.5" font-family="Helvetica,sans-Serif" font-size="10.00">boost/log/core.hpp</text>
</a>
</g>
</g>
<!-- Node19&#45;&gt;Node20 -->
<g id="edge33" class="edge">
<title>Node19&#45;&gt;Node20</title>
<path fill="none" stroke="#63b8ff" d="M1231.96,-65.62C1265.01,-55.65 1318.81,-39.43 1355.85,-28.26"/>
<polygon fill="#63b8ff" stroke="#63b8ff" points="1356.75,-31.64 1365.31,-25.41 1354.72,-24.94 1356.75,-31.64"/>
</g>
<!-- Node21 -->
<g id="node21" class="node">
<title>Node21</title>
<g id="a_node21"><a xlink:title=" ">
<polygon fill="#e0e0e0" stroke="#999999" points="1592,-24.5 1463,-24.5 1463,-5.5 1592,-5.5 1592,-24.5"/>
<text text-anchor="middle" x="1527.5" y="-12.5" font-family="Helvetica,sans-Serif" font-size="10.00">boost/log/expressions.hpp</text>
</a>
</g>
</g>
<!-- Node19&#45;&gt;Node21 -->
<g id="edge34" class="edge">
<title>Node19&#45;&gt;Node21</title>
<path fill="none" stroke="#63b8ff" d="M1253.97,-65.55C1304.73,-56.69 1384.5,-42.64 1453.5,-30 1458.69,-29.05 1464.09,-28.05 1469.49,-27.04"/>
<polygon fill="#63b8ff" stroke="#63b8ff" points="1469.87,-30.53 1479.05,-25.25 1468.58,-23.65 1469.87,-30.53"/>
</g>
<!-- Node22 -->
<g id="node22" class="node">
<title>Node22</title>
<g id="a_node22"><a xlink:title=" ">
<polygon fill="#e0e0e0" stroke="#999999" points="1711,-24.5 1610,-24.5 1610,-5.5 1711,-5.5 1711,-24.5"/>
<text text-anchor="middle" x="1660.5" y="-12.5" font-family="Helvetica,sans-Serif" font-size="10.00">boost/log/trivial.hpp</text>
</a>
</g>
</g>
<!-- Node19&#45;&gt;Node22 -->
<g id="edge35" class="edge">
<title>Node19&#45;&gt;Node22</title>
<path fill="none" stroke="#63b8ff" d="M1254.75,-70.72C1331.26,-64.71 1478.06,-51.45 1601.5,-30 1605.81,-29.25 1610.28,-28.38 1614.73,-27.44"/>
<polygon fill="#63b8ff" stroke="#63b8ff" points="1615.22,-30.91 1624.23,-25.33 1613.71,-24.08 1615.22,-30.91"/>
</g>
<!-- Node23 -->
<g id="node23" class="node">
<title>Node23</title>
<g id="a_node23"><a xlink:title=" ">
<polygon fill="#e0e0e0" stroke="#999999" points="911,-30 802,-30 802,0 911,0 911,-30"/>
<text text-anchor="start" x="810" y="-18" font-family="Helvetica,sans-Serif" font-size="10.00">boost/log/utility/setup</text>
<text text-anchor="middle" x="856.5" y="-7" font-family="Helvetica,sans-Serif" font-size="10.00">/console.hpp</text>
</a>
</g>
</g>
<!-- Node19&#45;&gt;Node23 -->
<g id="edge36" class="edge">
<title>Node19&#45;&gt;Node23</title>
<path fill="none" stroke="#63b8ff" d="M1150.11,-67.17C1095.75,-59.36 1008.02,-46.17 922.5,-30.3"/>
<polygon fill="#63b8ff" stroke="#63b8ff" points="923.23,-26.88 912.76,-28.48 921.94,-33.76 923.23,-26.88"/>
</g>
<!-- Node24 -->
<g id="node24" class="node">
<title>Node24</title>
<g id="a_node24"><a xlink:title=" ">
<polygon fill="#e0e0e0" stroke="#999999" points="1060,-30 929,-30 929,0 1060,0 1060,-30"/>
<text text-anchor="start" x="937" y="-18" font-family="Helvetica,sans-Serif" font-size="10.00">boost/log/sources/severity</text>
<text text-anchor="middle" x="994.5" y="-7" font-family="Helvetica,sans-Serif" font-size="10.00">_channel_logger.hpp</text>
</a>
</g>
</g>
<!-- Node19&#45;&gt;Node24 -->
<g id="edge37" class="edge">
<title>Node19&#45;&gt;Node24</title>
<path fill="none" stroke="#63b8ff" d="M1170.91,-65.62C1140.71,-57.12 1094.33,-44.08 1056.7,-33.49"/>
<polygon fill="#63b8ff" stroke="#63b8ff" points="1057.87,-30.19 1047.3,-30.85 1055.98,-36.93 1057.87,-30.19"/>
</g>
<!-- Node25 -->
<g id="node25" class="node">
<title>Node25</title>
<g id="a_node25"><a xlink:title=" ">
<polygon fill="#e0e0e0" stroke="#999999" points="1191,-30 1078,-30 1078,0 1191,0 1191,-30"/>
<text text-anchor="start" x="1086" y="-18" font-family="Helvetica,sans-Serif" font-size="10.00">boost/log/support/date</text>
<text text-anchor="middle" x="1134.5" y="-7" font-family="Helvetica,sans-Serif" font-size="10.00">_time.hpp</text>
</a>
</g>
</g>
<!-- Node19&#45;&gt;Node25 -->
<g id="edge38" class="edge">
<title>Node19&#45;&gt;Node25</title>
<path fill="none" stroke="#63b8ff" d="M1192.17,-65.62C1183.61,-58.25 1171.08,-47.47 1159.88,-37.83"/>
<polygon fill="#63b8ff" stroke="#63b8ff" points="1162.3,-35.3 1152.43,-31.43 1157.73,-40.6 1162.3,-35.3"/>
</g>
<!-- Node26 -->
<g id="node26" class="node">
<title>Node26</title>
<g id="a_node26"><a xlink:title=" ">
<polygon fill="#e0e0e0" stroke="#999999" points="1330,-30 1209,-30 1209,0 1330,0 1330,-30"/>
<text text-anchor="start" x="1217" y="-18" font-family="Helvetica,sans-Serif" font-size="10.00">boost/log/utility/setup</text>
<text text-anchor="middle" x="1269.5" y="-7" font-family="Helvetica,sans-Serif" font-size="10.00">/common_attributes.hpp</text>
</a>
</g>
</g>
<!-- Node19&#45;&gt;Node26 -->
<g id="edge39" class="edge">
<title>Node19&#45;&gt;Node26</title>
<path fill="none" stroke="#63b8ff" d="M1212.68,-65.62C1221.11,-58.25 1233.46,-47.47 1244.5,-37.83"/>
<polygon fill="#63b8ff" stroke="#63b8ff" points="1246.59,-40.65 1251.82,-31.44 1241.99,-35.38 1246.59,-40.65"/>
</g>
<!-- Node27&#45;&gt;Node10 -->
<g id="edge41" class="edge">
<title>Node27&#45;&gt;Node10</title>
<path fill="none" stroke="#63b8ff" d="M493.2,-65.62C480.71,-56.6 461.12,-42.45 446.05,-31.56"/>
<polygon fill="#63b8ff" stroke="#63b8ff" points="448.3,-28.87 438.14,-25.85 444.2,-34.55 448.3,-28.87"/>
</g>
<!-- Node27&#45;&gt;Node11 -->
<g id="edge42" class="edge">
<title>Node27&#45;&gt;Node11</title>
<path fill="none" stroke="#63b8ff" d="M481.7,-65.58C458.03,-56.68 420.69,-42.56 388.5,-30 387.72,-29.7 386.94,-29.39 386.14,-29.08"/>
<polygon fill="#63b8ff" stroke="#63b8ff" points="387.69,-25.93 377.1,-25.5 385.11,-32.43 387.69,-25.93"/>
</g>
<!-- Node27&#45;&gt;Node12 -->
<g id="edge44" class="edge">
<title>Node27&#45;&gt;Node12</title>
<path fill="none" stroke="#63b8ff" d="M550.89,-65.51C592.94,-56.99 657.16,-43.53 712.5,-30 718.74,-28.47 725.39,-26.73 731.74,-25.01"/>
<polygon fill="#63b8ff" stroke="#63b8ff" points="732.56,-28.42 741.27,-22.39 730.7,-21.67 732.56,-28.42"/>
</g>
<!-- Node27&#45;&gt;Node28 -->
<g id="edge43" class="edge">
<title>Node27&#45;&gt;Node28</title>
<path fill="none" stroke="#63b8ff" d="M531.17,-65.62C559.58,-55.78 605.62,-39.84 637.83,-28.69"/>
<polygon fill="#63b8ff" stroke="#63b8ff" points="638.86,-32.04 647.16,-25.46 636.57,-25.43 638.86,-32.04"/>
</g>
<!-- Node29 -->
<g id="node29" class="node">
<title>Node29</title>
<g id="a_node29"><a xlink:title=" ">
<polygon fill="#e0e0e0" stroke="#999999" points="538.5,-24.5 472.5,-24.5 472.5,-5.5 538.5,-5.5 538.5,-24.5"/>
<text text-anchor="middle" x="505.5" y="-12.5" font-family="Helvetica,sans-Serif" font-size="10.00">string_view</text>
</a>
</g>
</g>
<!-- Node27&#45;&gt;Node29 -->
<g id="edge45" class="edge">
<title>Node27&#45;&gt;Node29</title>
<path fill="none" stroke="#63b8ff" d="M505.5,-65.87C505.5,-58 505.5,-46.1 505.5,-35.89"/>
<polygon fill="#63b8ff" stroke="#63b8ff" points="509,-36.18 505.5,-26.18 502,-36.18 509,-36.18"/>
</g>
<!-- Node30&#45;&gt;Node3 -->
<g id="edge50" class="edge">
<title>Node30&#45;&gt;Node3</title>
<path fill="none" stroke="#63b8ff" d="M871.09,-230.51C884.02,-222.54 903.14,-210.75 918.35,-201.38"/>
<polygon fill="#63b8ff" stroke="#63b8ff" points="920.16,-204.38 926.84,-196.15 916.49,-198.42 920.16,-204.38"/>
</g>
<!-- Node32&#45;&gt;Node3 -->
<g id="edge56" class="edge">
<title>Node32&#45;&gt;Node3</title>
<path fill="none" stroke="#63b8ff" d="M1105.25,-230.51C1069.48,-220.84 1012.87,-205.53 976.72,-195.75"/>
<polygon fill="#63b8ff" stroke="#63b8ff" points="977.78,-192.42 967.22,-193.18 975.96,-199.17 977.78,-192.42"/>
</g>
<!-- Node32&#45;&gt;Node12 -->
<g id="edge57" class="edge">
<title>Node32&#45;&gt;Node12</title>
<path fill="none" stroke="#63b8ff" d="M1137.52,-230.84C1133.74,-201.98 1117.4,-108.47 1060.5,-66 964.54,5.62 908.4,-63.7 793.5,-30 792.53,-29.72 791.56,-29.41 790.59,-29.08"/>
<polygon fill="#63b8ff" stroke="#63b8ff" points="792.27,-25.98 781.69,-25.48 789.65,-32.47 792.27,-25.98"/>
</g>
<!-- Node33 -->
<g id="node33" class="node">
<title>Node33</title>
<g id="a_node33"><a xlink:title=" ">
<polygon fill="#e0e0e0" stroke="#999999" points="1200,-195 1151,-195 1151,-176 1200,-176 1200,-195"/>
<text text-anchor="middle" x="1175.5" y="-183" font-family="Helvetica,sans-Serif" font-size="10.00">cstddef</text>
</a>
</g>
</g>
<!-- Node32&#45;&gt;Node33 -->
<g id="edge55" class="edge">
<title>Node32&#45;&gt;Node33</title>
<path fill="none" stroke="#63b8ff" d="M1144.61,-230.75C1149.51,-223.73 1156.55,-213.64 1162.67,-204.87"/>
<polygon fill="#63b8ff" stroke="#63b8ff" points="1165.54,-206.89 1168.39,-196.68 1159.8,-202.88 1165.54,-206.89"/>
</g>
<!-- Node34 -->
<g id="node34" class="node">
<title>Node34</title>
<g id="a_node34"><a xlink:title=" ">
<polygon fill="#e0e0e0" stroke="#999999" points="1301,-195 1218,-195 1218,-176 1301,-176 1301,-195"/>
<text text-anchor="middle" x="1259.5" y="-183" font-family="Helvetica,sans-Serif" font-size="10.00">unordered_map</text>
</a>
</g>
</g>
<!-- Node32&#45;&gt;Node34 -->
<g id="edge58" class="edge">
<title>Node32&#45;&gt;Node34</title>
<path fill="none" stroke="#63b8ff" d="M1159.03,-230.51C1178.18,-222.12 1207,-209.5 1228.87,-199.92"/>
<polygon fill="#63b8ff" stroke="#63b8ff" points="1230.14,-203.18 1237.89,-195.97 1227.33,-196.77 1230.14,-203.18"/>
</g>
</g>
</svg>
