<?xml version="1.0" encoding="UTF-8" standalone="no"?>
<!DOCTYPE svg PUBLIC "-//W3C//DTD SVG 1.1//EN"
 "http://www.w3.org/Graphics/SVG/1.1/DTD/svg11.dtd">
<!-- Generated by graphviz version 7.0.5 (20221223.1930)
 -->
<!-- Title: UioAxiVdmaIf.cpp Pages: 1 -->
<!--zoomable 368 -->
<svg id="main" version="1.1" xmlns="http://www.w3.org/2000/svg" xmlns:xlink="http://www.w3.org/1999/xlink" xml:space="preserve" onload="init(evt)">
<style type="text/css"><![CDATA[
.edge:hover path { stroke: red; }
.edge:hover polygon { stroke: red; fill: red; }
]]></style>
<script type="text/javascript"><![CDATA[
var edges = document.getElementsByTagName('g');
if (edges && edges.length) {
  for (var i=0;i<edges.length;i++) {
    if (edges[i].id.substr(0,4)=='edge') {
      edges[i].setAttribute('class','edge');
    }
  }
}
]]></script>
        <defs>
                <circle id="rim" cx="0" cy="0" r="7"/>
                <circle id="rim2" cx="0" cy="0" r="3.5"/>
                <g id="zoomPlus">
                        <use xlink:href="#rim" fill="#404040">
                                <set attributeName="fill" to="#808080" begin="zoomplus.mouseover" end="zoomplus.mouseout"/>
                        </use>
                        <path d="M-4,0h8M0,-4v8" fill="none" stroke="white" stroke-width="1.5" pointer-events="none"/>
                </g>
                <g id="zoomMin">
                        <use xlink:href="#rim" fill="#404040">
                                <set attributeName="fill" to="#808080" begin="zoomminus.mouseover" end="zoomminus.mouseout"/>
                        </use>
                        <path d="M-4,0h8" fill="none" stroke="white" stroke-width="1.5" pointer-events="none"/>
                </g>
                <g id="dirArrow">
                        <path fill="none" stroke="white" stroke-width="1.5" d="M0,-3.0v7 M-2.5,-0.5L0,-3.0L2.5,-0.5"/>
                </g>
               <g id="resetDef">
                       <use xlink:href="#rim2" fill="#404040">
                               <set attributeName="fill" to="#808080" begin="reset.mouseover" end="reset.mouseout"/>
                       </use>
               </g>
        </defs>

<script type="text/javascript">
var viewWidth = 1701;
var viewHeight = 368;
var sectionId = 'dynsection-0';
</script>
<script xlink:href="svgpan.js"/>
<svg id="graph" class="graph">
<g id="viewport">
<title>UioAxiVdmaIf.cpp</title>
<!-- Node1 -->
<g id="node1" class="node">
<title>Node1</title>
<g id="a_node1"><a xlink:title=" ">
<polygon fill="#999999" stroke="#666666" points="1361.49,-360 1266.49,-360 1266.49,-341 1361.49,-341 1361.49,-360"/>
<text text-anchor="middle" x="1313.99" y="-348" font-family="Helvetica,sans-Serif" font-size="10.00">UioAxiVdmaIf.cpp</text>
</a>
</g>
</g>
<!-- Node2 -->
<g id="node2" class="node">
<title>Node2</title>
<g id="a_node2"><a xlink:href="_uio_axi_vdma_if_8hpp.html" target="_top" xlink:title=" ">
<polygon fill="white" stroke="#666666" points="999.49,-305 870.49,-305 870.49,-286 999.49,-286 999.49,-305"/>
<text text-anchor="middle" x="934.99" y="-293" font-family="Helvetica,sans-Serif" font-size="10.00">udmaio/UioAxiVdmaIf.hpp</text>
</a>
</g>
</g>
<!-- Node1&#45;&gt;Node2 -->
<g id="edge1" class="edge">
<title>Node1&#45;&gt;Node2</title>
<path fill="none" stroke="#63b8ff" d="M1266.38,-342.84C1201.95,-333.83 1086.33,-317.66 1010.12,-307.01"/>
<polygon fill="#63b8ff" stroke="#63b8ff" points="1011.06,-303.6 1000.68,-305.68 1010.09,-310.54 1011.06,-303.6"/>
</g>
<!-- Node20 -->
<g id="node20" class="node">
<title>Node20</title>
<g id="a_node20"><a xlink:href="_logging_8hpp.html" target="_top" xlink:title=" ">
<polygon fill="white" stroke="#666666" points="1285.99,-85 1181.99,-85 1181.99,-66 1285.99,-66 1285.99,-85"/>
<text text-anchor="middle" x="1233.99" y="-73" font-family="Helvetica,sans-Serif" font-size="10.00">udmaio/Logging.hpp</text>
</a>
</g>
</g>
<!-- Node1&#45;&gt;Node20 -->
<g id="edge58" class="edge">
<title>Node1&#45;&gt;Node20</title>
<path fill="none" stroke="#63b8ff" d="M1308.26,-340.67C1297.2,-322.74 1273.99,-280.49 1273.99,-241.5 1273.99,-241.5 1273.99,-241.5 1273.99,-184.5 1273.99,-151.45 1257.32,-116.05 1245.5,-95.12"/>
<polygon fill="#63b8ff" stroke="#63b8ff" points="1248.59,-93.47 1240.5,-86.64 1242.56,-97.03 1248.59,-93.47"/>
</g>
<!-- Node23 -->
<g id="node23" class="node">
<title>Node23</title>
<g id="a_node23"><a xlink:title=" ">
<polygon fill="#e0e0e0" stroke="#999999" points="1693.49,-24.5 1592.49,-24.5 1592.49,-5.5 1693.49,-5.5 1693.49,-24.5"/>
<text text-anchor="middle" x="1642.99" y="-12.5" font-family="Helvetica,sans-Serif" font-size="10.00">boost/log/trivial.hpp</text>
</a>
</g>
</g>
<!-- Node1&#45;&gt;Node23 -->
<g id="edge57" class="edge">
<title>Node1&#45;&gt;Node23</title>
<path fill="none" stroke="#63b8ff" d="M1313.99,-340.54C1313.99,-322.03 1313.99,-278.25 1313.99,-241.5 1313.99,-241.5 1313.99,-241.5 1313.99,-129.5 1313.99,-100.21 1502.76,-50.17 1594.33,-27.62"/>
<polygon fill="#63b8ff" stroke="#63b8ff" points="1594.9,-31.08 1603.78,-25.31 1593.24,-24.28 1594.9,-31.08"/>
</g>
<!-- Node34 -->
<g id="node34" class="node">
<title>Node34</title>
<g id="a_node34"><a xlink:title=" ">
<polygon fill="#e0e0e0" stroke="#999999" points="1459.99,-305 1341.99,-305 1341.99,-286 1459.99,-286 1459.99,-305"/>
<text text-anchor="middle" x="1400.99" y="-293" font-family="Helvetica,sans-Serif" font-size="10.00">boost/log/core/core.hpp</text>
</a>
</g>
</g>
<!-- Node1&#45;&gt;Node34 -->
<g id="edge55" class="edge">
<title>Node1&#45;&gt;Node34</title>
<path fill="none" stroke="#63b8ff" d="M1328.75,-340.51C1341.96,-332.47 1361.55,-320.53 1377.01,-311.11"/>
<polygon fill="#63b8ff" stroke="#63b8ff" points="1378.44,-314.34 1385.16,-306.15 1374.8,-308.36 1378.44,-314.34"/>
</g>
<!-- Node35 -->
<g id="node35" class="node">
<title>Node35</title>
<g id="a_node35"><a xlink:title=" ">
<polygon fill="#e0e0e0" stroke="#999999" points="1619.49,-305 1478.49,-305 1478.49,-286 1619.49,-286 1619.49,-305"/>
<text text-anchor="middle" x="1548.99" y="-293" font-family="Helvetica,sans-Serif" font-size="10.00">boost/log/sources/logger.hpp</text>
</a>
</g>
</g>
<!-- Node1&#45;&gt;Node35 -->
<g id="edge56" class="edge">
<title>Node1&#45;&gt;Node35</title>
<path fill="none" stroke="#63b8ff" d="M1353.86,-340.51C1393.65,-331.54 1454.94,-317.71 1498.19,-307.96"/>
<polygon fill="#63b8ff" stroke="#63b8ff" points="1498.87,-311.39 1507.85,-305.78 1497.33,-304.57 1498.87,-311.39"/>
</g>
<!-- Node3 -->
<g id="node3" class="node">
<title>Node3</title>
<g id="a_node3"><a xlink:href="_reg_accessor_8hpp.html" target="_top" xlink:title=" ">
<polygon fill="white" stroke="#666666" points="855.99,-250 727.99,-250 727.99,-231 855.99,-231 855.99,-250"/>
<text text-anchor="middle" x="791.99" y="-238" font-family="Helvetica,sans-Serif" font-size="10.00">udmaio/RegAccessor.hpp</text>
</a>
</g>
</g>
<!-- Node2&#45;&gt;Node3 -->
<g id="edge2" class="edge">
<title>Node2&#45;&gt;Node3</title>
<path fill="none" stroke="#63b8ff" d="M910.74,-285.51C887.59,-276.93 852.48,-263.92 826.44,-254.27"/>
<polygon fill="#63b8ff" stroke="#63b8ff" points="827.91,-251.08 817.31,-250.88 825.47,-257.64 827.91,-251.08"/>
</g>
<!-- Node5 -->
<g id="node5" class="node">
<title>Node5</title>
<g id="a_node5"><a xlink:href="_uio_if_8hpp.html" target="_top" xlink:title=" ">
<polygon fill="white" stroke="#666666" points="706.99,-195 616.99,-195 616.99,-176 706.99,-176 706.99,-195"/>
<text text-anchor="middle" x="661.99" y="-183" font-family="Helvetica,sans-Serif" font-size="10.00">udmaio/UioIf.hpp</text>
</a>
</g>
</g>
<!-- Node2&#45;&gt;Node5 -->
<g id="edge47" class="edge">
<title>Node2&#45;&gt;Node5</title>
<path fill="none" stroke="#63b8ff" d="M870.29,-291.76C825.29,-287.42 765.31,-276.6 718.99,-250 699.77,-238.96 683.54,-219.12 673.37,-204.55"/>
<polygon fill="#63b8ff" stroke="#63b8ff" points="676.37,-202.73 667.93,-196.33 670.53,-206.6 676.37,-202.73"/>
</g>
<!-- Node31 -->
<g id="node31" class="node">
<title>Node31</title>
<g id="a_node31"><a xlink:href="_frame_format_8hpp.html" target="_top" xlink:title=" ">
<polygon fill="white" stroke="#666666" points="1141.99,-250 1013.99,-250 1013.99,-231 1141.99,-231 1141.99,-250"/>
<text text-anchor="middle" x="1077.99" y="-238" font-family="Helvetica,sans-Serif" font-size="10.00">udmaio/FrameFormat.hpp</text>
</a>
</g>
</g>
<!-- Node2&#45;&gt;Node31 -->
<g id="edge48" class="edge">
<title>Node2&#45;&gt;Node31</title>
<path fill="none" stroke="#63b8ff" d="M959.25,-285.51C982.4,-276.93 1017.51,-263.92 1043.55,-254.27"/>
<polygon fill="#63b8ff" stroke="#63b8ff" points="1044.52,-257.64 1052.68,-250.88 1042.08,-251.08 1044.52,-257.64"/>
</g>
<!-- Node33 -->
<g id="node33" class="node">
<title>Node33</title>
<g id="a_node33"><a xlink:href="_axi_vdma_8hpp.html" target="_top" xlink:title=" ">
<polygon fill="white" stroke="#666666" points="995.99,-250 873.99,-250 873.99,-231 995.99,-231 995.99,-250"/>
<text text-anchor="middle" x="934.99" y="-238" font-family="Helvetica,sans-Serif" font-size="10.00">udmaio/rdl/AxiVdma.hpp</text>
</a>
</g>
</g>
<!-- Node2&#45;&gt;Node33 -->
<g id="edge53" class="edge">
<title>Node2&#45;&gt;Node33</title>
<path fill="none" stroke="#63b8ff" d="M934.99,-285.75C934.99,-279.27 934.99,-270.16 934.99,-261.9"/>
<polygon fill="#63b8ff" stroke="#63b8ff" points="938.49,-261.96 934.99,-251.96 931.49,-261.96 938.49,-261.96"/>
</g>
<!-- Node4 -->
<g id="node4" class="node">
<title>Node4</title>
<g id="a_node4"><a xlink:title=" ">
<polygon fill="#e0e0e0" stroke="#999999" points="957.99,-195 911.99,-195 911.99,-176 957.99,-176 957.99,-195"/>
<text text-anchor="middle" x="934.99" y="-183" font-family="Helvetica,sans-Serif" font-size="10.00">cstdint</text>
</a>
</g>
</g>
<!-- Node3&#45;&gt;Node4 -->
<g id="edge3" class="edge">
<title>Node3&#45;&gt;Node4</title>
<path fill="none" stroke="#63b8ff" d="M816.25,-230.51C839.54,-221.88 874.93,-208.76 901.02,-199.09"/>
<polygon fill="#63b8ff" stroke="#63b8ff" points="901.99,-202.47 910.15,-195.71 899.56,-195.9 901.99,-202.47"/>
</g>
<!-- Node3&#45;&gt;Node5 -->
<g id="edge4" class="edge">
<title>Node3&#45;&gt;Node5</title>
<path fill="none" stroke="#63b8ff" d="M769.94,-230.51C749.18,-222.04 717.84,-209.27 694.26,-199.66"/>
<polygon fill="#63b8ff" stroke="#63b8ff" points="695.7,-196.46 685.12,-195.93 693.06,-202.95 695.7,-196.46"/>
</g>
<!-- Node6 -->
<g id="node6" class="node">
<title>Node6</title>
<g id="a_node6"><a xlink:title=" ">
<polygon fill="#e0e0e0" stroke="#999999" points="757.99,-85 697.99,-85 697.99,-66 757.99,-66 757.99,-85"/>
<text text-anchor="middle" x="727.99" y="-73" font-family="Helvetica,sans-Serif" font-size="10.00">filesystem</text>
</a>
</g>
</g>
<!-- Node5&#45;&gt;Node6 -->
<g id="edge5" class="edge">
<title>Node5&#45;&gt;Node6</title>
<path fill="none" stroke="#63b8ff" d="M667.4,-175.66C678.13,-158.1 702.34,-118.48 716.7,-94.98"/>
<polygon fill="#63b8ff" stroke="#63b8ff" points="719.5,-97.11 721.73,-86.75 713.53,-93.46 719.5,-97.11"/>
</g>
<!-- Node7 -->
<g id="node7" class="node">
<title>Node7</title>
<g id="a_node7"><a xlink:title=" ">
<polygon fill="#e0e0e0" stroke="#999999" points="825.99,-85 775.99,-85 775.99,-66 825.99,-66 825.99,-85"/>
<text text-anchor="middle" x="800.99" y="-73" font-family="Helvetica,sans-Serif" font-size="10.00">fstream</text>
</a>
</g>
</g>
<!-- Node5&#45;&gt;Node7 -->
<g id="edge6" class="edge">
<title>Node5&#45;&gt;Node7</title>
<path fill="none" stroke="#63b8ff" d="M673.37,-175.66C696.79,-157.47 750.67,-115.6 780.39,-92.51"/>
<polygon fill="#63b8ff" stroke="#63b8ff" points="782.52,-95.29 788.27,-86.39 778.22,-89.76 782.52,-95.29"/>
</g>
<!-- Node8 -->
<g id="node8" class="node">
<title>Node8</title>
<g id="a_node8"><a xlink:title=" ">
<polygon fill="#e0e0e0" stroke="#999999" points="358.99,-24.5 304.99,-24.5 304.99,-5.5 358.99,-5.5 358.99,-24.5"/>
<text text-anchor="middle" x="331.99" y="-12.5" font-family="Helvetica,sans-Serif" font-size="10.00">iostream</text>
</a>
</g>
</g>
<!-- Node5&#45;&gt;Node8 -->
<g id="edge7" class="edge">
<title>Node5&#45;&gt;Node8</title>
<path fill="none" stroke="#63b8ff" d="M616.53,-183.67C529.8,-181.36 335.13,-172.65 174.99,-140 96.77,-124.05 51.02,-149.52 3.99,-85 -0.98,-78.18 -1.51,-72.41 3.99,-66 40.9,-23.04 214.66,-16.58 293.24,-15.89"/>
<polygon fill="#63b8ff" stroke="#63b8ff" points="293.06,-19.39 303.04,-15.83 293.02,-12.39 293.06,-19.39"/>
</g>
<!-- Node9 -->
<g id="node9" class="node">
<title>Node9</title>
<g id="a_node9"><a xlink:title=" ">
<polygon fill="#e0e0e0" stroke="#999999" points="589.49,-24.5 538.49,-24.5 538.49,-5.5 589.49,-5.5 589.49,-24.5"/>
<text text-anchor="middle" x="563.99" y="-12.5" font-family="Helvetica,sans-Serif" font-size="10.00">memory</text>
</a>
</g>
</g>
<!-- Node5&#45;&gt;Node9 -->
<g id="edge8" class="edge">
<title>Node5&#45;&gt;Node9</title>
<path fill="none" stroke="#63b8ff" d="M707.39,-183.27C815.52,-178.84 1073.32,-158.53 990.99,-66 984.51,-58.72 704.08,-30.01 601.27,-19.7"/>
<polygon fill="#63b8ff" stroke="#63b8ff" points="601.72,-16.23 591.43,-18.72 601.03,-23.2 601.72,-16.23"/>
</g>
<!-- Node10 -->
<g id="node10" class="node">
<title>Node10</title>
<g id="a_node10"><a xlink:title=" ">
<polygon fill="#e0e0e0" stroke="#999999" points="766.49,-24.5 725.49,-24.5 725.49,-5.5 766.49,-5.5 766.49,-24.5"/>
<text text-anchor="middle" x="745.99" y="-12.5" font-family="Helvetica,sans-Serif" font-size="10.00">string</text>
</a>
</g>
</g>
<!-- Node5&#45;&gt;Node10 -->
<g id="edge9" class="edge">
<title>Node5&#45;&gt;Node10</title>
<path fill="none" stroke="#63b8ff" d="M707.49,-184.61C774.83,-183.47 904.17,-176.19 1006.99,-140 1051.21,-124.44 1074.06,-125.89 1096.99,-85 1101.13,-77.63 1102.62,-72.29 1096.99,-66 1048.99,-12.33 844.18,-49.94 774.99,-30 774.19,-29.77 773.38,-29.51 772.57,-29.24"/>
<polygon fill="#63b8ff" stroke="#63b8ff" points="774.16,-26.11 763.58,-25.57 771.51,-32.59 774.16,-26.11"/>
</g>
<!-- Node11 -->
<g id="node11" class="node">
<title>Node11</title>
<g id="a_node11"><a xlink:title=" ">
<polygon fill="#e0e0e0" stroke="#999999" points="981.49,-85 844.49,-85 844.49,-66 981.49,-66 981.49,-85"/>
<text text-anchor="middle" x="912.99" y="-73" font-family="Helvetica,sans-Serif" font-size="10.00">boost/core/noncopyable.hpp</text>
</a>
</g>
</g>
<!-- Node5&#45;&gt;Node11 -->
<g id="edge10" class="edge">
<title>Node5&#45;&gt;Node11</title>
<path fill="none" stroke="#63b8ff" d="M682.54,-175.66C726.48,-156.75 829.83,-112.29 881.88,-89.89"/>
<polygon fill="#63b8ff" stroke="#63b8ff" points="882.98,-93.23 890.78,-86.06 880.21,-86.8 882.98,-93.23"/>
</g>
<!-- Node12 -->
<g id="node12" class="node">
<title>Node12</title>
<g id="a_node12"><a xlink:title=" ">
<polygon fill="#e0e0e0" stroke="#999999" points="56.49,-85 13.49,-85 13.49,-66 56.49,-66 56.49,-85"/>
<text text-anchor="middle" x="34.99" y="-73" font-family="Helvetica,sans-Serif" font-size="10.00">fcntl.h</text>
</a>
</g>
</g>
<!-- Node5&#45;&gt;Node12 -->
<g id="edge11" class="edge">
<title>Node5&#45;&gt;Node12</title>
<path fill="none" stroke="#63b8ff" d="M616.59,-182.23C540.4,-177.83 382.26,-166.18 250.99,-140 184.63,-126.76 109.24,-102.39 67.38,-87.99"/>
<polygon fill="#63b8ff" stroke="#63b8ff" points="68.77,-84.77 58.18,-84.8 66.48,-91.38 68.77,-84.77"/>
</g>
<!-- Node13 -->
<g id="node13" class="node">
<title>Node13</title>
<g id="a_node13"><a xlink:title=" ">
<polygon fill="#e0e0e0" stroke="#999999" points="143.49,-85 74.49,-85 74.49,-66 143.49,-66 143.49,-85"/>
<text text-anchor="middle" x="108.99" y="-73" font-family="Helvetica,sans-Serif" font-size="10.00">sys/mman.h</text>
</a>
</g>
</g>
<!-- Node5&#45;&gt;Node13 -->
<g id="edge12" class="edge">
<title>Node5&#45;&gt;Node13</title>
<path fill="none" stroke="#63b8ff" d="M616.65,-180.67C551.91,-174.71 429.47,-161.6 326.99,-140 262.2,-126.34 188.57,-103.26 145.6,-89.01"/>
<polygon fill="#63b8ff" stroke="#63b8ff" points="146.87,-85.75 136.28,-85.9 144.65,-92.39 146.87,-85.75"/>
</g>
<!-- Node14 -->
<g id="node14" class="node">
<title>Node14</title>
<g id="a_node14"><a xlink:title=" ">
<polygon fill="#e0e0e0" stroke="#999999" points="220.49,-85 161.49,-85 161.49,-66 220.49,-66 220.49,-85"/>
<text text-anchor="middle" x="190.99" y="-73" font-family="Helvetica,sans-Serif" font-size="10.00">sys/stat.h</text>
</a>
</g>
</g>
<!-- Node5&#45;&gt;Node14 -->
<g id="edge13" class="edge">
<title>Node5&#45;&gt;Node14</title>
<path fill="none" stroke="#63b8ff" d="M616.68,-178.58C564.16,-171.32 475.21,-157.74 399.99,-140 338.63,-125.53 268.82,-103.07 227.42,-89.1"/>
<polygon fill="#63b8ff" stroke="#63b8ff" points="228.8,-85.88 218.21,-85.98 226.55,-92.51 228.8,-85.88"/>
</g>
<!-- Node15 -->
<g id="node15" class="node">
<title>Node15</title>
<g id="a_node15"><a xlink:title=" ">
<polygon fill="#e0e0e0" stroke="#999999" points="303.49,-85 238.49,-85 238.49,-66 303.49,-66 303.49,-85"/>
<text text-anchor="middle" x="270.99" y="-73" font-family="Helvetica,sans-Serif" font-size="10.00">sys/types.h</text>
</a>
</g>
</g>
<!-- Node5&#45;&gt;Node15 -->
<g id="edge14" class="edge">
<title>Node5&#45;&gt;Node15</title>
<path fill="none" stroke="#63b8ff" d="M616.56,-175.85C575.6,-167.73 513.87,-154.64 460.99,-140 405.93,-124.75 343.29,-102.92 305.48,-89.24"/>
<polygon fill="#63b8ff" stroke="#63b8ff" points="307.05,-86.09 296.46,-85.96 304.66,-92.67 307.05,-86.09"/>
</g>
<!-- Node16 -->
<g id="node16" class="node">
<title>Node16</title>
<g id="a_node16"><a xlink:title=" ">
<polygon fill="#e0e0e0" stroke="#999999" points="679.99,-85 629.99,-85 629.99,-66 679.99,-66 679.99,-85"/>
<text text-anchor="middle" x="654.99" y="-73" font-family="Helvetica,sans-Serif" font-size="10.00">unistd.h</text>
</a>
</g>
</g>
<!-- Node5&#45;&gt;Node16 -->
<g id="edge15" class="edge">
<title>Node5&#45;&gt;Node16</title>
<path fill="none" stroke="#63b8ff" d="M661.42,-175.66C660.31,-158.57 657.85,-120.61 656.32,-96.92"/>
<polygon fill="#63b8ff" stroke="#63b8ff" points="659.81,-96.72 655.67,-86.97 652.83,-97.18 659.81,-96.72"/>
</g>
<!-- Node17 -->
<g id="node17" class="node">
<title>Node17</title>
<g id="a_node17"><a xlink:href="_hw_accessor_8hpp.html" target="_top" xlink:title=" ">
<polygon fill="white" stroke="#666666" points="626.49,-140 501.49,-140 501.49,-121 626.49,-121 626.49,-140"/>
<text text-anchor="middle" x="563.99" y="-128" font-family="Helvetica,sans-Serif" font-size="10.00">udmaio/HwAccessor.hpp</text>
</a>
</g>
</g>
<!-- Node5&#45;&gt;Node17 -->
<g id="edge16" class="edge">
<title>Node5&#45;&gt;Node17</title>
<path fill="none" stroke="#63b8ff" d="M645.37,-175.51C630.21,-167.31 607.58,-155.07 590.03,-145.58"/>
<polygon fill="#63b8ff" stroke="#63b8ff" points="592.17,-142.76 581.71,-141.08 588.84,-148.91 592.17,-142.76"/>
</g>
<!-- Node5&#45;&gt;Node20 -->
<g id="edge45" class="edge">
<title>Node5&#45;&gt;Node20</title>
<path fill="none" stroke="#63b8ff" d="M707.12,-182.79C808.65,-178.54 1052.27,-165.89 1129.99,-140 1161.93,-129.36 1194.35,-107.42 1214.31,-92.33"/>
<polygon fill="#63b8ff" stroke="#63b8ff" points="1216.34,-95.18 1222.1,-86.29 1212.05,-89.65 1216.34,-95.18"/>
</g>
<!-- Node28 -->
<g id="node28" class="node">
<title>Node28</title>
<g id="a_node28"><a xlink:href="_uio_config_8hpp.html" target="_top" xlink:title=" ">
<polygon fill="white" stroke="#666666" points="471.49,-85 360.49,-85 360.49,-66 471.49,-66 471.49,-85"/>
<text text-anchor="middle" x="415.99" y="-73" font-family="Helvetica,sans-Serif" font-size="10.00">udmaio/UioConfig.hpp</text>
</a>
</g>
</g>
<!-- Node5&#45;&gt;Node28 -->
<g id="edge46" class="edge">
<title>Node5&#45;&gt;Node28</title>
<path fill="none" stroke="#63b8ff" d="M616.74,-178.22C581.31,-172.01 531.58,-160.41 491.99,-140 468.71,-127.99 446.22,-107.78 431.83,-93.39"/>
<polygon fill="#63b8ff" stroke="#63b8ff" points="434.51,-91.13 425.03,-86.39 429.48,-96 434.51,-91.13"/>
</g>
<!-- Node17&#45;&gt;Node6 -->
<g id="edge19" class="edge">
<title>Node17&#45;&gt;Node6</title>
<path fill="none" stroke="#63b8ff" d="M591.82,-120.51C618.64,-111.84 659.46,-98.65 689.41,-88.97"/>
<polygon fill="#63b8ff" stroke="#63b8ff" points="690.43,-92.32 698.87,-85.91 688.28,-85.66 690.43,-92.32"/>
</g>
<!-- Node17&#45;&gt;Node7 -->
<g id="edge20" class="edge">
<title>Node17&#45;&gt;Node7</title>
<path fill="none" stroke="#63b8ff" d="M606.46,-120.57C645.25,-112.32 704.48,-99.53 764.88,-85.44"/>
<polygon fill="#63b8ff" stroke="#63b8ff" points="765.35,-88.93 774.29,-83.24 763.76,-82.11 765.35,-88.93"/>
</g>
<!-- Node17&#45;&gt;Node8 -->
<g id="edge21" class="edge">
<title>Node17&#45;&gt;Node8</title>
<path fill="none" stroke="#63b8ff" d="M501.19,-123.61C446.39,-117.21 372.41,-105.11 350.99,-85 337.69,-72.51 333.4,-51.64 332.16,-36.11"/>
<polygon fill="#63b8ff" stroke="#63b8ff" points="335.66,-36 331.76,-26.15 328.66,-36.28 335.66,-36"/>
</g>
<!-- Node17&#45;&gt;Node9 -->
<g id="edge22" class="edge">
<title>Node17&#45;&gt;Node9</title>
<path fill="none" stroke="#63b8ff" d="M563.99,-120.59C563.99,-102.53 563.99,-61.17 563.99,-36.21"/>
<polygon fill="#63b8ff" stroke="#63b8ff" points="567.49,-36.38 563.99,-26.38 560.49,-36.38 567.49,-36.38"/>
</g>
<!-- Node17&#45;&gt;Node10 -->
<g id="edge23" class="edge">
<title>Node17&#45;&gt;Node10</title>
<path fill="none" stroke="#63b8ff" d="M569.99,-120.52C579.41,-107.02 598.89,-81.44 620.99,-66 649.7,-45.94 687.62,-32.24 714.14,-24.32"/>
<polygon fill="#63b8ff" stroke="#63b8ff" points="714.99,-27.71 723.64,-21.6 713.06,-20.98 714.99,-27.71"/>
</g>
<!-- Node17&#45;&gt;Node11 -->
<g id="edge24" class="edge">
<title>Node17&#45;&gt;Node11</title>
<path fill="none" stroke="#63b8ff" d="M623.2,-120.51C683.83,-111.3 778.08,-96.99 842.52,-87.2"/>
<polygon fill="#63b8ff" stroke="#63b8ff" points="842.94,-90.68 852.3,-85.72 841.88,-83.76 842.94,-90.68"/>
</g>
<!-- Node17&#45;&gt;Node12 -->
<g id="edge25" class="edge">
<title>Node17&#45;&gt;Node12</title>
<path fill="none" stroke="#63b8ff" d="M501.25,-127.67C408.31,-124.13 228.54,-114.12 67.88,-85.22"/>
<polygon fill="#63b8ff" stroke="#63b8ff" points="68.79,-81.83 58.33,-83.47 67.53,-88.72 68.79,-81.83"/>
</g>
<!-- Node17&#45;&gt;Node13 -->
<g id="edge26" class="edge">
<title>Node17&#45;&gt;Node13</title>
<path fill="none" stroke="#63b8ff" d="M501.3,-124.45C422.64,-117.73 283.38,-104.57 154.89,-85.33"/>
<polygon fill="#63b8ff" stroke="#63b8ff" points="155.59,-81.89 145.18,-83.85 154.54,-88.81 155.59,-81.89"/>
</g>
<!-- Node17&#45;&gt;Node14 -->
<g id="edge27" class="edge">
<title>Node17&#45;&gt;Node14</title>
<path fill="none" stroke="#63b8ff" d="M501.07,-122.82C435.99,-115.53 331.21,-102.74 231.95,-85.4"/>
<polygon fill="#63b8ff" stroke="#63b8ff" points="232.76,-81.99 222.31,-83.69 231.54,-88.88 232.76,-81.99"/>
</g>
<!-- Node17&#45;&gt;Node15 -->
<g id="edge28" class="edge">
<title>Node17&#45;&gt;Node15</title>
<path fill="none" stroke="#63b8ff" d="M514.29,-120.51C458.32,-110.38 368.21,-94.09 314.79,-84.42"/>
<polygon fill="#63b8ff" stroke="#63b8ff" points="315.6,-81.01 305.14,-82.68 314.35,-87.9 315.6,-81.01"/>
</g>
<!-- Node17&#45;&gt;Node16 -->
<g id="edge29" class="edge">
<title>Node17&#45;&gt;Node16</title>
<path fill="none" stroke="#63b8ff" d="M579.43,-120.51C593.24,-112.47 613.74,-100.53 629.9,-91.11"/>
<polygon fill="#63b8ff" stroke="#63b8ff" points="631.6,-94.18 638.48,-86.12 628.08,-88.13 631.6,-94.18"/>
</g>
<!-- Node18 -->
<g id="node18" class="node">
<title>Node18</title>
<g id="a_node18"><a xlink:title=" ">
<polygon fill="#e0e0e0" stroke="#999999" points="1087.49,-85 1038.49,-85 1038.49,-66 1087.49,-66 1087.49,-85"/>
<text text-anchor="middle" x="1062.99" y="-73" font-family="Helvetica,sans-Serif" font-size="10.00">cstddef</text>
</a>
</g>
</g>
<!-- Node17&#45;&gt;Node18 -->
<g id="edge17" class="edge">
<title>Node17&#45;&gt;Node18</title>
<path fill="none" stroke="#63b8ff" d="M626.97,-123.21C710.29,-114.82 861.73,-99.37 990.99,-85 1002.6,-83.71 1015.25,-82.24 1026.66,-80.89"/>
<polygon fill="#63b8ff" stroke="#63b8ff" points="1027,-84.37 1036.51,-79.71 1026.17,-77.42 1027,-84.37"/>
</g>
<!-- Node19 -->
<g id="node19" class="node">
<title>Node19</title>
<g id="a_node19"><a xlink:title=" ">
<polygon fill="#e0e0e0" stroke="#999999" points="535.99,-85 489.99,-85 489.99,-66 535.99,-66 535.99,-85"/>
<text text-anchor="middle" x="512.99" y="-73" font-family="Helvetica,sans-Serif" font-size="10.00">cstring</text>
</a>
</g>
</g>
<!-- Node17&#45;&gt;Node19 -->
<g id="edge18" class="edge">
<title>Node17&#45;&gt;Node19</title>
<path fill="none" stroke="#63b8ff" d="M555.57,-120.75C548.53,-113.43 538.27,-102.76 529.58,-93.74"/>
<polygon fill="#63b8ff" stroke="#63b8ff" points="532.1,-91.31 522.65,-86.53 527.06,-96.17 532.1,-91.31"/>
</g>
<!-- Node17&#45;&gt;Node20 -->
<g id="edge30" class="edge">
<title>Node17&#45;&gt;Node20</title>
<path fill="none" stroke="#63b8ff" d="M626.73,-124.54C754.3,-114.45 1042.71,-91.63 1170.73,-81.5"/>
<polygon fill="#63b8ff" stroke="#63b8ff" points="1170.67,-85.02 1180.37,-80.74 1170.12,-78.04 1170.67,-85.02"/>
</g>
<!-- Node17&#45;&gt;Node28 -->
<g id="edge39" class="edge">
<title>Node17&#45;&gt;Node28</title>
<path fill="none" stroke="#63b8ff" d="M538.89,-120.51C514.82,-111.89 478.27,-98.8 451.28,-89.14"/>
<polygon fill="#63b8ff" stroke="#63b8ff" points="452.75,-85.94 442.16,-85.87 450.39,-92.53 452.75,-85.94"/>
</g>
<!-- Node20&#45;&gt;Node10 -->
<g id="edge31" class="edge">
<title>Node20&#45;&gt;Node10</title>
<path fill="none" stroke="#63b8ff" d="M1181.78,-67.6C1177.12,-67.03 1172.47,-66.49 1167.99,-66 993.65,-46.79 944.01,-76.88 774.99,-30 774.17,-29.77 773.33,-29.52 772.5,-29.25"/>
<polygon fill="#63b8ff" stroke="#63b8ff" points="773.84,-26.01 763.25,-25.48 771.2,-32.49 773.84,-26.01"/>
</g>
<!-- Node21 -->
<g id="node21" class="node">
<title>Node21</title>
<g id="a_node21"><a xlink:title=" ">
<polygon fill="#e0e0e0" stroke="#999999" points="1150.99,-24.5 1054.99,-24.5 1054.99,-5.5 1150.99,-5.5 1150.99,-24.5"/>
<text text-anchor="middle" x="1102.99" y="-12.5" font-family="Helvetica,sans-Serif" font-size="10.00">boost/log/core.hpp</text>
</a>
</g>
</g>
<!-- Node20&#45;&gt;Node21 -->
<g id="edge32" class="edge">
<title>Node20&#45;&gt;Node21</title>
<path fill="none" stroke="#63b8ff" d="M1214.1,-65.62C1192.65,-56.04 1158.25,-40.68 1133.41,-29.58"/>
<polygon fill="#63b8ff" stroke="#63b8ff" points="1135.02,-26.47 1124.46,-25.59 1132.16,-32.86 1135.02,-26.47"/>
</g>
<!-- Node22 -->
<g id="node22" class="node">
<title>Node22</title>
<g id="a_node22"><a xlink:title=" ">
<polygon fill="#e0e0e0" stroke="#999999" points="1298.49,-24.5 1169.49,-24.5 1169.49,-5.5 1298.49,-5.5 1298.49,-24.5"/>
<text text-anchor="middle" x="1233.99" y="-12.5" font-family="Helvetica,sans-Serif" font-size="10.00">boost/log/expressions.hpp</text>
</a>
</g>
</g>
<!-- Node20&#45;&gt;Node22 -->
<g id="edge33" class="edge">
<title>Node20&#45;&gt;Node22</title>
<path fill="none" stroke="#63b8ff" d="M1233.99,-65.87C1233.99,-58 1233.99,-46.1 1233.99,-35.89"/>
<polygon fill="#63b8ff" stroke="#63b8ff" points="1237.49,-36.18 1233.99,-26.18 1230.49,-36.18 1237.49,-36.18"/>
</g>
<!-- Node20&#45;&gt;Node23 -->
<g id="edge34" class="edge">
<title>Node20&#45;&gt;Node23</title>
<path fill="none" stroke="#63b8ff" d="M1286.23,-67.76C1290.89,-67.17 1295.53,-66.57 1299.99,-66 1426.2,-49.87 1458.81,-52.72 1583.99,-30 1588.12,-29.25 1592.39,-28.4 1596.66,-27.49"/>
<polygon fill="#63b8ff" stroke="#63b8ff" points="1597.4,-30.91 1606.39,-25.31 1595.87,-24.08 1597.4,-30.91"/>
</g>
<!-- Node24 -->
<g id="node24" class="node">
<title>Node24</title>
<g id="a_node24"><a xlink:title=" ">
<polygon fill="#e0e0e0" stroke="#999999" points="1425.49,-30 1316.49,-30 1316.49,0 1425.49,0 1425.49,-30"/>
<text text-anchor="start" x="1324.49" y="-18" font-family="Helvetica,sans-Serif" font-size="10.00">boost/log/utility/setup</text>
<text text-anchor="middle" x="1370.99" y="-7" font-family="Helvetica,sans-Serif" font-size="10.00">/console.hpp</text>
</a>
</g>
</g>
<!-- Node20&#45;&gt;Node24 -->
<g id="edge35" class="edge">
<title>Node20&#45;&gt;Node24</title>
<path fill="none" stroke="#63b8ff" d="M1254.8,-65.62C1273.84,-57.48 1302.64,-45.19 1326.8,-34.87"/>
<polygon fill="#63b8ff" stroke="#63b8ff" points="1327.96,-38.18 1335.79,-31.03 1325.22,-31.74 1327.96,-38.18"/>
</g>
<!-- Node25 -->
<g id="node25" class="node">
<title>Node25</title>
<g id="a_node25"><a xlink:title=" ">
<polygon fill="#e0e0e0" stroke="#999999" points="1574.49,-30 1443.49,-30 1443.49,0 1574.49,0 1574.49,-30"/>
<text text-anchor="start" x="1451.49" y="-18" font-family="Helvetica,sans-Serif" font-size="10.00">boost/log/sources/severity</text>
<text text-anchor="middle" x="1508.99" y="-7" font-family="Helvetica,sans-Serif" font-size="10.00">_channel_logger.hpp</text>
</a>
</g>
</g>
<!-- Node20&#45;&gt;Node25 -->
<g id="edge36" class="edge">
<title>Node20&#45;&gt;Node25</title>
<path fill="none" stroke="#63b8ff" d="M1276.06,-65.55C1317.4,-56.76 1381.44,-43.14 1431.91,-32.4"/>
<polygon fill="#63b8ff" stroke="#63b8ff" points="1432.59,-35.83 1441.64,-30.33 1431.13,-28.99 1432.59,-35.83"/>
</g>
<!-- Node26 -->
<g id="node26" class="node">
<title>Node26</title>
<g id="a_node26"><a xlink:title=" ">
<polygon fill="#e0e0e0" stroke="#999999" points="897.49,-30 784.49,-30 784.49,0 897.49,0 897.49,-30"/>
<text text-anchor="start" x="792.49" y="-18" font-family="Helvetica,sans-Serif" font-size="10.00">boost/log/support/date</text>
<text text-anchor="middle" x="840.99" y="-7" font-family="Helvetica,sans-Serif" font-size="10.00">_time.hpp</text>
</a>
</g>
</g>
<!-- Node20&#45;&gt;Node26 -->
<g id="edge37" class="edge">
<title>Node20&#45;&gt;Node26</title>
<path fill="none" stroke="#63b8ff" d="M1181.63,-67.59C1103.15,-57.2 959.6,-38.08 909.04,-30.17"/>
<polygon fill="#63b8ff" stroke="#63b8ff" points="909.75,-26.74 899.32,-28.58 908.62,-33.65 909.75,-26.74"/>
</g>
<!-- Node27 -->
<g id="node27" class="node">
<title>Node27</title>
<g id="a_node27"><a xlink:title=" ">
<polygon fill="#e0e0e0" stroke="#999999" points="1036.49,-30 915.49,-30 915.49,0 1036.49,0 1036.49,-30"/>
<text text-anchor="start" x="923.49" y="-18" font-family="Helvetica,sans-Serif" font-size="10.00">boost/log/utility/setup</text>
<text text-anchor="middle" x="975.99" y="-7" font-family="Helvetica,sans-Serif" font-size="10.00">/common_attributes.hpp</text>
</a>
</g>
</g>
<!-- Node20&#45;&gt;Node27 -->
<g id="edge38" class="edge">
<title>Node20&#45;&gt;Node27</title>
<path fill="none" stroke="#63b8ff" d="M1194.53,-65.55C1155.59,-56.72 1095.16,-43.02 1047.71,-32.26"/>
<polygon fill="#63b8ff" stroke="#63b8ff" points="1048.57,-28.87 1038.04,-30.07 1047.02,-35.69 1048.57,-28.87"/>
</g>
<!-- Node28&#45;&gt;Node8 -->
<g id="edge40" class="edge">
<title>Node28&#45;&gt;Node8</title>
<path fill="none" stroke="#63b8ff" d="M403.24,-65.62C390.16,-56.51 369.58,-42.18 353.9,-31.25"/>
<polygon fill="#63b8ff" stroke="#63b8ff" points="356.32,-28.68 346.11,-25.83 352.32,-34.42 356.32,-28.68"/>
</g>
<!-- Node28&#45;&gt;Node9 -->
<g id="edge41" class="edge">
<title>Node28&#45;&gt;Node9</title>
<path fill="none" stroke="#63b8ff" d="M438.95,-65.5C461.79,-56.54 497.84,-42.37 528.99,-30 529.77,-29.69 530.56,-29.38 531.35,-29.07"/>
<polygon fill="#63b8ff" stroke="#63b8ff" points="532.38,-32.42 540.38,-25.47 529.79,-25.92 532.38,-32.42"/>
</g>
<!-- Node28&#45;&gt;Node10 -->
<g id="edge43" class="edge">
<title>Node28&#45;&gt;Node10</title>
<path fill="none" stroke="#63b8ff" d="M466.47,-65.55C535.25,-53.36 656.4,-31.88 713.93,-21.68"/>
<polygon fill="#63b8ff" stroke="#63b8ff" points="714.47,-25.14 723.71,-19.95 713.25,-18.25 714.47,-25.14"/>
</g>
<!-- Node29 -->
<g id="node29" class="node">
<title>Node29</title>
<g id="a_node29"><a xlink:title=" ">
<polygon fill="#e0e0e0" stroke="#999999" points="520.49,-24.5 461.49,-24.5 461.49,-5.5 520.49,-5.5 520.49,-24.5"/>
<text text-anchor="middle" x="490.99" y="-12.5" font-family="Helvetica,sans-Serif" font-size="10.00">stdexcept</text>
</a>
</g>
</g>
<!-- Node28&#45;&gt;Node29 -->
<g id="edge42" class="edge">
<title>Node28&#45;&gt;Node29</title>
<path fill="none" stroke="#63b8ff" d="M427.39,-65.62C438.84,-56.68 456.74,-42.72 470.64,-31.87"/>
<polygon fill="#63b8ff" stroke="#63b8ff" points="472.57,-34.81 478.3,-25.9 468.27,-29.29 472.57,-34.81"/>
</g>
<!-- Node30 -->
<g id="node30" class="node">
<title>Node30</title>
<g id="a_node30"><a xlink:title=" ">
<polygon fill="#e0e0e0" stroke="#999999" points="442.99,-24.5 376.99,-24.5 376.99,-5.5 442.99,-5.5 442.99,-24.5"/>
<text text-anchor="middle" x="409.99" y="-12.5" font-family="Helvetica,sans-Serif" font-size="10.00">string_view</text>
</a>
</g>
</g>
<!-- Node28&#45;&gt;Node30 -->
<g id="edge44" class="edge">
<title>Node28&#45;&gt;Node30</title>
<path fill="none" stroke="#63b8ff" d="M415.11,-65.87C414.3,-58 413.08,-46.1 412.03,-35.89"/>
<polygon fill="#63b8ff" stroke="#63b8ff" points="415.54,-35.76 411.04,-26.17 408.58,-36.48 415.54,-35.76"/>
</g>
<!-- Node31&#45;&gt;Node4 -->
<g id="edge50" class="edge">
<title>Node31&#45;&gt;Node4</title>
<path fill="none" stroke="#63b8ff" d="M1053.74,-230.51C1030.45,-221.88 995.06,-208.76 968.97,-199.09"/>
<polygon fill="#63b8ff" stroke="#63b8ff" points="970.43,-195.9 959.84,-195.71 968,-202.47 970.43,-195.9"/>
</g>
<!-- Node31&#45;&gt;Node10 -->
<g id="edge51" class="edge">
<title>Node31&#45;&gt;Node10</title>
<path fill="none" stroke="#63b8ff" d="M1096.91,-230.57C1110.26,-223.13 1127.12,-211.13 1134.99,-195 1153.29,-157.51 1187.79,-134.59 1111.99,-66 1056.15,-15.46 847.42,-50.68 774.99,-30 774.17,-29.76 773.34,-29.51 772.5,-29.23"/>
<polygon fill="#63b8ff" stroke="#63b8ff" points="773.85,-26 763.27,-25.44 771.19,-32.47 773.85,-26"/>
</g>
<!-- Node31&#45;&gt;Node18 -->
<g id="edge49" class="edge">
<title>Node31&#45;&gt;Node18</title>
<path fill="none" stroke="#63b8ff" d="M1064.8,-230.68C1054.23,-222.76 1040.19,-210.07 1033.99,-195 1020.1,-161.18 1038.14,-119.07 1051.36,-95.25"/>
<polygon fill="#63b8ff" stroke="#63b8ff" points="1054.32,-97.11 1056.36,-86.71 1048.28,-93.57 1054.32,-97.11"/>
</g>
<!-- Node32 -->
<g id="node32" class="node">
<title>Node32</title>
<g id="a_node32"><a xlink:title=" ">
<polygon fill="#e0e0e0" stroke="#999999" points="1125.49,-195 1042.49,-195 1042.49,-176 1125.49,-176 1125.49,-195"/>
<text text-anchor="middle" x="1083.99" y="-183" font-family="Helvetica,sans-Serif" font-size="10.00">unordered_map</text>
</a>
</g>
</g>
<!-- Node31&#45;&gt;Node32 -->
<g id="edge52" class="edge">
<title>Node31&#45;&gt;Node32</title>
<path fill="none" stroke="#63b8ff" d="M1078.99,-230.75C1079.73,-224.19 1080.77,-214.95 1081.72,-206.6"/>
<polygon fill="#63b8ff" stroke="#63b8ff" points="1085.17,-207.28 1082.81,-196.95 1078.21,-206.49 1085.17,-207.28"/>
</g>
<!-- Node33&#45;&gt;Node4 -->
<g id="edge54" class="edge">
<title>Node33&#45;&gt;Node4</title>
<path fill="none" stroke="#63b8ff" d="M934.99,-230.75C934.99,-224.27 934.99,-215.16 934.99,-206.9"/>
<polygon fill="#63b8ff" stroke="#63b8ff" points="938.49,-206.96 934.99,-196.96 931.49,-206.96 938.49,-206.96"/>
</g>
</g>
</svg>
        <g id="navigator" transform="translate(0 0)" fill="#404254">
                <rect fill="#f2f5e9" fill-opacity="0.5" stroke="#606060" stroke-width=".5" x="0" y="0" width="60" height="60"/>
                <use id="zoomplus" xlink:href="#zoomPlus" x="17" y="9" onmousedown="handleZoom(evt,'in')"/>
                <use id="zoomminus" xlink:href="#zoomMin" x="42" y="9" onmousedown="handleZoom(evt,'out')"/>
                <use id="reset" xlink:href="#resetDef" x="30" y="36" onmousedown="handleReset()"/>
                <g id="arrowUp" xlink:href="#dirArrow" transform="translate(30 24)" onmousedown="handlePan(0,-1)">
                  <use xlink:href="#rim" fill="#404040">
                        <set attributeName="fill" to="#808080" begin="arrowUp.mouseover" end="arrowUp.mouseout"/>
                  </use>
                  <path fill="none" stroke="white" stroke-width="1.5" d="M0,-3.0v7 M-2.5,-0.5L0,-3.0L2.5,-0.5"/>
                </g>
                <g id="arrowRight" xlink:href="#dirArrow" transform="rotate(90) translate(36 -43)" onmousedown="handlePan(1,0)">
                  <use xlink:href="#rim" fill="#404040">
                        <set attributeName="fill" to="#808080" begin="arrowRight.mouseover" end="arrowRight.mouseout"/>
                  </use>
                  <path fill="none" stroke="white" stroke-width="1.5" d="M0,-3.0v7 M-2.5,-0.5L0,-3.0L2.5,-0.5"/>
                </g>
                <g id="arrowDown" xlink:href="#dirArrow" transform="rotate(180) translate(-30 -48)" onmousedown="handlePan(0,1)">
                  <use xlink:href="#rim" fill="#404040">
                        <set attributeName="fill" to="#808080" begin="arrowDown.mouseover" end="arrowDown.mouseout"/>
                  </use>
                  <path fill="none" stroke="white" stroke-width="1.5" d="M0,-3.0v7 M-2.5,-0.5L0,-3.0L2.5,-0.5"/>
                </g>
                <g id="arrowLeft" xlink:href="#dirArrow" transform="rotate(270) translate(-36 17)" onmousedown="handlePan(-1,0)">
                  <use xlink:href="#rim" fill="#404040">
                        <set attributeName="fill" to="#808080" begin="arrowLeft.mouseover" end="arrowLeft.mouseout"/>
                  </use>
                  <path fill="none" stroke="white" stroke-width="1.5" d="M0,-3.0v7 M-2.5,-0.5L0,-3.0L2.5,-0.5"/>
                </g>
        </g>
        <svg viewBox="0 0 15 15" width="100%" height="30px" preserveAspectRatio="xMaxYMin meet">
         <g id="arrow_out" transform="scale(0.3 0.3)">
          <a xlink:href="_uio_axi_vdma_if_8cpp__incl_org.svg" target="_base">
           <rect id="button" ry="5" rx="5" y="6" x="6" height="38" width="38"
                fill="#f2f5e9" fill-opacity="0.5" stroke="#606060" stroke-width="1.0"/>
           <path id="arrow"
             d="M 11.500037,31.436501 C 11.940474,20.09759 22.043105,11.32322 32.158766,21.979434 L 37.068811,17.246167 C 37.068811,17.246167 37.088388,32 37.088388,32 L 22.160133,31.978069 C 22.160133,31.978069 26.997745,27.140456 26.997745,27.140456 C 18.528582,18.264221 13.291696,25.230495 11.500037,31.436501 z"
             style="fill:#404040;"/>
          </a>
         </g>
        </svg>
</svg>
