<?xml version="1.0" encoding="UTF-8" standalone="no"?>
<!DOCTYPE svg PUBLIC "-//W3C//DTD SVG 1.1//EN"
 "http://www.w3.org/Graphics/SVG/1.1/DTD/svg11.dtd">
<!-- Generated by graphviz version 7.0.5 (20221223.1930)
 -->
<!-- Title: UioIf.hpp Pages: 1 -->
<!--zoomable 148 -->
<svg id="main" version="1.1" xmlns="http://www.w3.org/2000/svg" xmlns:xlink="http://www.w3.org/1999/xlink" xml:space="preserve" onload="init(evt)">
<style type="text/css"><![CDATA[
.edge:hover path { stroke: red; }
.edge:hover polygon { stroke: red; fill: red; }
]]></style>
<script type="text/javascript"><![CDATA[
var edges = document.getElementsByTagName('g');
if (edges && edges.length) {
  for (var i=0;i<edges.length;i++) {
    if (edges[i].id.substr(0,4)=='edge') {
      edges[i].setAttribute('class','edge');
    }
  }
}
]]></script>
        <defs>
                <circle id="rim" cx="0" cy="0" r="7"/>
                <circle id="rim2" cx="0" cy="0" r="3.5"/>
                <g id="zoomPlus">
                        <use xlink:href="#rim" fill="#404040">
                                <set attributeName="fill" to="#808080" begin="zoomplus.mouseover" end="zoomplus.mouseout"/>
                        </use>
                        <path d="M-4,0h8M0,-4v8" fill="none" stroke="white" stroke-width="1.5" pointer-events="none"/>
                </g>
                <g id="zoomMin">
                        <use xlink:href="#rim" fill="#404040">
                                <set attributeName="fill" to="#808080" begin="zoomminus.mouseover" end="zoomminus.mouseout"/>
                        </use>
                        <path d="M-4,0h8" fill="none" stroke="white" stroke-width="1.5" pointer-events="none"/>
                </g>
                <g id="dirArrow">
                        <path fill="none" stroke="white" stroke-width="1.5" d="M0,-3.0v7 M-2.5,-0.5L0,-3.0L2.5,-0.5"/>
                </g>
               <g id="resetDef">
                       <use xlink:href="#rim2" fill="#404040">
                               <set attributeName="fill" to="#808080" begin="reset.mouseover" end="reset.mouseout"/>
                       </use>
               </g>
        </defs>

<script type="text/javascript">
var viewWidth = 1878;
var viewHeight = 148;
var sectionId = 'dynsection-0';
</script>
<script xlink:href="svgpan.js"/>
<svg id="graph" class="graph">
<g id="viewport">
<title>UioIf.hpp</title>
<!-- Node1 -->
<g id="node1" class="node">
<title>Node1</title>
<g id="a_node1"><a xlink:title=" ">
<polygon fill="#999999" stroke="#666666" points="979,-140 923,-140 923,-121 979,-121 979,-140"/>
<text text-anchor="middle" x="951" y="-128" font-family="Helvetica,sans-Serif" font-size="10.00">UioIf.hpp</text>
</a>
</g>
</g>
<!-- Node2 -->
<g id="node2" class="node">
<title>Node2</title>
<g id="a_node2"><a xlink:title=" ">
<polygon fill="#e0e0e0" stroke="#999999" points="60,-79.5 0,-79.5 0,-60.5 60,-60.5 60,-79.5"/>
<text text-anchor="middle" x="30" y="-67.5" font-family="Helvetica,sans-Serif" font-size="10.00">filesystem</text>
</a>
</g>
</g>
<!-- Node1&#45;&gt;Node2 -->
<g id="edge1" class="edge">
<title>Node1&#45;&gt;Node2</title>
<path fill="none" stroke="#63b8ff" d="M922.77,-129.19C791.29,-127.57 238.13,-118.85 69,-85 66.69,-84.54 64.32,-83.96 61.96,-83.31"/>
<polygon fill="#63b8ff" stroke="#63b8ff" points="63.17,-80.02 52.58,-80.32 61.04,-86.69 63.17,-80.02"/>
</g>
<!-- Node3 -->
<g id="node3" class="node">
<title>Node3</title>
<g id="a_node3"><a xlink:title=" ">
<polygon fill="#e0e0e0" stroke="#999999" points="128,-79.5 78,-79.5 78,-60.5 128,-60.5 128,-79.5"/>
<text text-anchor="middle" x="103" y="-67.5" font-family="Helvetica,sans-Serif" font-size="10.00">fstream</text>
</a>
</g>
</g>
<!-- Node1&#45;&gt;Node3 -->
<g id="edge2" class="edge">
<title>Node1&#45;&gt;Node3</title>
<path fill="none" stroke="#63b8ff" d="M922.64,-129.04C797.75,-126.84 296.06,-116.2 142,-85 139.83,-84.56 137.62,-84.03 135.41,-83.42"/>
<polygon fill="#63b8ff" stroke="#63b8ff" points="136.58,-80.12 125.99,-80.44 134.47,-86.8 136.58,-80.12"/>
</g>
<!-- Node4 -->
<g id="node4" class="node">
<title>Node4</title>
<g id="a_node4"><a xlink:title=" ">
<polygon fill="#e0e0e0" stroke="#999999" points="829,-19 775,-19 775,0 829,0 829,-19"/>
<text text-anchor="middle" x="802" y="-7" font-family="Helvetica,sans-Serif" font-size="10.00">iostream</text>
</a>
</g>
</g>
<!-- Node1&#45;&gt;Node4 -->
<g id="edge3" class="edge">
<title>Node1&#45;&gt;Node4</title>
<path fill="none" stroke="#63b8ff" d="M922.61,-128.95C785.92,-126.18 201.17,-112.72 175,-85 165.85,-75.31 165.91,-64.76 175,-55 215.12,-11.93 633.01,-9.85 763.38,-10.26"/>
<polygon fill="#63b8ff" stroke="#63b8ff" points="763.2,-13.76 773.21,-10.3 763.23,-6.76 763.2,-13.76"/>
</g>
<!-- Node5 -->
<g id="node5" class="node">
<title>Node5</title>
<g id="a_node5"><a xlink:title=" ">
<polygon fill="#e0e0e0" stroke="#999999" points="235.5,-79.5 184.5,-79.5 184.5,-60.5 235.5,-60.5 235.5,-79.5"/>
<text text-anchor="middle" x="210" y="-67.5" font-family="Helvetica,sans-Serif" font-size="10.00">memory</text>
</a>
</g>
</g>
<!-- Node1&#45;&gt;Node5 -->
<g id="edge4" class="edge">
<title>Node1&#45;&gt;Node5</title>
<path fill="none" stroke="#63b8ff" d="M922.78,-128.95C808.08,-126.54 376.57,-115.58 244,-85 242.41,-84.63 240.79,-84.2 239.17,-83.71"/>
<polygon fill="#63b8ff" stroke="#63b8ff" points="240.72,-80.55 230.13,-80.49 238.37,-87.14 240.72,-80.55"/>
</g>
<!-- Node6 -->
<g id="node6" class="node">
<title>Node6</title>
<g id="a_node6"><a xlink:title=" ">
<polygon fill="#e0e0e0" stroke="#999999" points="390.5,-79.5 253.5,-79.5 253.5,-60.5 390.5,-60.5 390.5,-79.5"/>
<text text-anchor="middle" x="322" y="-67.5" font-family="Helvetica,sans-Serif" font-size="10.00">boost/core/noncopyable.hpp</text>
</a>
</g>
</g>
<!-- Node1&#45;&gt;Node6 -->
<g id="edge5" class="edge">
<title>Node1&#45;&gt;Node6</title>
<path fill="none" stroke="#63b8ff" d="M922.51,-128.18C840.87,-124.17 599.15,-110.85 400,-85 393.19,-84.12 386.07,-83.04 379.01,-81.89"/>
<polygon fill="#63b8ff" stroke="#63b8ff" points="379.6,-78.44 369.16,-80.22 378.43,-85.34 379.6,-78.44"/>
</g>
<!-- Node7 -->
<g id="node7" class="node">
<title>Node7</title>
<g id="a_node7"><a xlink:title=" ">
<polygon fill="#e0e0e0" stroke="#999999" points="527,-79.5 409,-79.5 409,-60.5 527,-60.5 527,-79.5"/>
<text text-anchor="middle" x="468" y="-67.5" font-family="Helvetica,sans-Serif" font-size="10.00">boost/log/core/core.hpp</text>
</a>
</g>
</g>
<!-- Node1&#45;&gt;Node7 -->
<g id="edge6" class="edge">
<title>Node1&#45;&gt;Node7</title>
<path fill="none" stroke="#63b8ff" d="M922.7,-127.41C855.4,-122.24 680.62,-107.59 536,-85 530.48,-84.14 524.74,-83.13 519.03,-82.06"/>
<polygon fill="#63b8ff" stroke="#63b8ff" points="520.13,-78.71 509.64,-80.22 518.78,-85.58 520.13,-78.71"/>
</g>
<!-- Node8 -->
<g id="node8" class="node">
<title>Node8</title>
<g id="a_node8"><a xlink:title=" ">
<polygon fill="#e0e0e0" stroke="#999999" points="674.5,-79.5 545.5,-79.5 545.5,-60.5 674.5,-60.5 674.5,-79.5"/>
<text text-anchor="middle" x="610" y="-67.5" font-family="Helvetica,sans-Serif" font-size="10.00">boost/log/expressions.hpp</text>
</a>
</g>
</g>
<!-- Node1&#45;&gt;Node8 -->
<g id="edge7" class="edge">
<title>Node1&#45;&gt;Node8</title>
<path fill="none" stroke="#63b8ff" d="M922.79,-125.05C873.9,-117.29 770.28,-100.61 683,-85 677.8,-84.07 672.39,-83.08 666.97,-82.07"/>
<polygon fill="#63b8ff" stroke="#63b8ff" points="667.88,-78.68 657.41,-80.27 666.59,-85.56 667.88,-78.68"/>
</g>
<!-- Node9 -->
<g id="node9" class="node">
<title>Node9</title>
<g id="a_node9"><a xlink:title=" ">
<polygon fill="#e0e0e0" stroke="#999999" points="793.5,-85 692.5,-85 692.5,-55 793.5,-55 793.5,-85"/>
<text text-anchor="start" x="700.5" y="-73" font-family="Helvetica,sans-Serif" font-size="10.00">boost/log/keywords</text>
<text text-anchor="middle" x="743" y="-62" font-family="Helvetica,sans-Serif" font-size="10.00">/severity.hpp</text>
</a>
</g>
</g>
<!-- Node1&#45;&gt;Node9 -->
<g id="edge8" class="edge">
<title>Node1&#45;&gt;Node9</title>
<path fill="none" stroke="#63b8ff" d="M922.51,-121.49C892.37,-113.01 843.87,-99.37 804.88,-88.4"/>
<polygon fill="#63b8ff" stroke="#63b8ff" points="805.93,-85.06 795.36,-85.72 804.03,-91.8 805.93,-85.06"/>
</g>
<!-- Node10 -->
<g id="node10" class="node">
<title>Node10</title>
<g id="a_node10"><a xlink:title=" ">
<polygon fill="#e0e0e0" stroke="#999999" points="952.5,-79.5 811.5,-79.5 811.5,-60.5 952.5,-60.5 952.5,-79.5"/>
<text text-anchor="middle" x="882" y="-67.5" font-family="Helvetica,sans-Serif" font-size="10.00">boost/log/sources/logger.hpp</text>
</a>
</g>
</g>
<!-- Node1&#45;&gt;Node10 -->
<g id="edge9" class="edge">
<title>Node1&#45;&gt;Node10</title>
<path fill="none" stroke="#63b8ff" d="M940.52,-120.62C930.08,-111.77 913.83,-97.98 901.09,-87.19"/>
<polygon fill="#63b8ff" stroke="#63b8ff" points="903.62,-84.74 893.73,-80.95 899.1,-90.08 903.62,-84.74"/>
</g>
<!-- Node11 -->
<g id="node11" class="node">
<title>Node11</title>
<g id="a_node11"><a xlink:title=" ">
<polygon fill="#e0e0e0" stroke="#999999" points="1071.5,-79.5 970.5,-79.5 970.5,-60.5 1071.5,-60.5 1071.5,-79.5"/>
<text text-anchor="middle" x="1021" y="-67.5" font-family="Helvetica,sans-Serif" font-size="10.00">boost/log/trivial.hpp</text>
</a>
</g>
</g>
<!-- Node1&#45;&gt;Node11 -->
<g id="edge10" class="edge">
<title>Node1&#45;&gt;Node11</title>
<path fill="none" stroke="#63b8ff" d="M961.63,-120.62C972.22,-111.77 988.71,-97.98 1001.63,-87.19"/>
<polygon fill="#63b8ff" stroke="#63b8ff" points="1003.68,-90.04 1009.11,-80.94 999.19,-84.67 1003.68,-90.04"/>
</g>
<!-- Node12 -->
<g id="node12" class="node">
<title>Node12</title>
<g id="a_node12"><a xlink:title=" ">
<polygon fill="#e0e0e0" stroke="#999999" points="1132.5,-79.5 1089.5,-79.5 1089.5,-60.5 1132.5,-60.5 1132.5,-79.5"/>
<text text-anchor="middle" x="1111" y="-67.5" font-family="Helvetica,sans-Serif" font-size="10.00">fcntl.h</text>
</a>
</g>
</g>
<!-- Node1&#45;&gt;Node12 -->
<g id="edge11" class="edge">
<title>Node1&#45;&gt;Node12</title>
<path fill="none" stroke="#63b8ff" d="M979.46,-120.52C1005.78,-112.01 1045.87,-98.56 1080,-85 1080.62,-84.75 1081.24,-84.5 1081.87,-84.25"/>
<polygon fill="#63b8ff" stroke="#63b8ff" points="1082.89,-87.62 1090.71,-80.46 1080.14,-81.18 1082.89,-87.62"/>
</g>
<!-- Node13 -->
<g id="node13" class="node">
<title>Node13</title>
<g id="a_node13"><a xlink:title=" ">
<polygon fill="#e0e0e0" stroke="#999999" points="1219.5,-79.5 1150.5,-79.5 1150.5,-60.5 1219.5,-60.5 1219.5,-79.5"/>
<text text-anchor="middle" x="1185" y="-67.5" font-family="Helvetica,sans-Serif" font-size="10.00">sys/mman.h</text>
</a>
</g>
</g>
<!-- Node1&#45;&gt;Node13 -->
<g id="edge12" class="edge">
<title>Node1&#45;&gt;Node13</title>
<path fill="none" stroke="#63b8ff" d="M979.18,-123.62C1016.43,-115.68 1084.01,-100.72 1141,-85 1143,-84.45 1145.04,-83.87 1147.11,-83.26"/>
<polygon fill="#63b8ff" stroke="#63b8ff" points="1148.11,-86.62 1156.66,-80.36 1146.07,-79.92 1148.11,-86.62"/>
</g>
<!-- Node14 -->
<g id="node14" class="node">
<title>Node14</title>
<g id="a_node14"><a xlink:title=" ">
<polygon fill="#e0e0e0" stroke="#999999" points="1296.5,-79.5 1237.5,-79.5 1237.5,-60.5 1296.5,-60.5 1296.5,-79.5"/>
<text text-anchor="middle" x="1267" y="-67.5" font-family="Helvetica,sans-Serif" font-size="10.00">sys/stat.h</text>
</a>
</g>
</g>
<!-- Node1&#45;&gt;Node14 -->
<g id="edge13" class="edge">
<title>Node1&#45;&gt;Node14</title>
<path fill="none" stroke="#63b8ff" d="M979.27,-126.71C1029.78,-121.34 1138.61,-108.01 1228,-85 1229.87,-84.52 1231.77,-83.99 1233.69,-83.42"/>
<polygon fill="#63b8ff" stroke="#63b8ff" points="1234.68,-86.77 1243.1,-80.33 1232.51,-80.12 1234.68,-86.77"/>
</g>
<!-- Node15 -->
<g id="node15" class="node">
<title>Node15</title>
<g id="a_node15"><a xlink:title=" ">
<polygon fill="#e0e0e0" stroke="#999999" points="1379.5,-79.5 1314.5,-79.5 1314.5,-60.5 1379.5,-60.5 1379.5,-79.5"/>
<text text-anchor="middle" x="1347" y="-67.5" font-family="Helvetica,sans-Serif" font-size="10.00">sys/types.h</text>
</a>
</g>
</g>
<!-- Node1&#45;&gt;Node15 -->
<g id="edge14" class="edge">
<title>Node1&#45;&gt;Node15</title>
<path fill="none" stroke="#63b8ff" d="M979.32,-127.84C1039.78,-123.87 1185.7,-112.1 1305,-85 1307.28,-84.48 1309.62,-83.89 1311.96,-83.24"/>
<polygon fill="#63b8ff" stroke="#63b8ff" points="1312.79,-86.65 1321.35,-80.4 1310.77,-79.95 1312.79,-86.65"/>
</g>
<!-- Node16 -->
<g id="node16" class="node">
<title>Node16</title>
<g id="a_node16"><a xlink:title=" ">
<polygon fill="#e0e0e0" stroke="#999999" points="1448,-79.5 1398,-79.5 1398,-60.5 1448,-60.5 1448,-79.5"/>
<text text-anchor="middle" x="1423" y="-67.5" font-family="Helvetica,sans-Serif" font-size="10.00">unistd.h</text>
</a>
</g>
</g>
<!-- Node1&#45;&gt;Node16 -->
<g id="edge15" class="edge">
<title>Node1&#45;&gt;Node16</title>
<path fill="none" stroke="#63b8ff" d="M979.32,-129.33C1049.59,-128.33 1237.11,-122.08 1388,-85 1389.59,-84.61 1391.2,-84.16 1392.82,-83.67"/>
<polygon fill="#63b8ff" stroke="#63b8ff" points="1393.62,-87.1 1401.9,-80.48 1391.3,-80.49 1393.62,-87.1"/>
</g>
<!-- Node17 -->
<g id="node17" class="node">
<title>Node17</title>
<g id="a_node17"><a xlink:href="_uio_config_8hpp.html" target="_top" xlink:title=" ">
<polygon fill="white" stroke="#666666" points="1577.5,-79.5 1466.5,-79.5 1466.5,-60.5 1577.5,-60.5 1577.5,-79.5"/>
<text text-anchor="middle" x="1522" y="-67.5" font-family="Helvetica,sans-Serif" font-size="10.00">udmaio/UioConfig.hpp</text>
</a>
</g>
</g>
<!-- Node1&#45;&gt;Node17 -->
<g id="edge16" class="edge">
<title>Node1&#45;&gt;Node17</title>
<path fill="none" stroke="#63b8ff" d="M979.4,-128.24C1056.54,-124.56 1276.28,-112.3 1457,-85 1462.29,-84.2 1467.79,-83.23 1473.25,-82.18"/>
<polygon fill="#63b8ff" stroke="#63b8ff" points="1473.75,-85.65 1482.85,-80.24 1472.36,-78.79 1473.75,-85.65"/>
</g>
<!-- Node20 -->
<g id="node20" class="node">
<title>Node20</title>
<g id="a_node20"><a xlink:title=" ">
<polygon fill="#e0e0e0" stroke="#999999" points="1720,-85 1596,-85 1596,-55 1720,-55 1720,-85"/>
<text text-anchor="start" x="1604" y="-73" font-family="Helvetica,sans-Serif" font-size="10.00">boost/log/sources/record</text>
<text text-anchor="middle" x="1658" y="-62" font-family="Helvetica,sans-Serif" font-size="10.00">_ostream.hpp</text>
</a>
</g>
</g>
<!-- Node1&#45;&gt;Node20 -->
<g id="edge20" class="edge">
<title>Node1&#45;&gt;Node20</title>
<path fill="none" stroke="#63b8ff" d="M979.34,-128.78C1067.47,-126.27 1344.72,-116.37 1584.35,-85.23"/>
<polygon fill="#63b8ff" stroke="#63b8ff" points="1584.78,-88.71 1594.23,-83.93 1583.86,-81.77 1584.78,-88.71"/>
</g>
<!-- Node21 -->
<g id="node21" class="node">
<title>Node21</title>
<g id="a_node21"><a xlink:title=" ">
<polygon fill="#e0e0e0" stroke="#999999" points="1869.5,-85 1738.5,-85 1738.5,-55 1869.5,-55 1869.5,-85"/>
<text text-anchor="start" x="1746.5" y="-73" font-family="Helvetica,sans-Serif" font-size="10.00">boost/log/sources/severity</text>
<text text-anchor="middle" x="1804" y="-62" font-family="Helvetica,sans-Serif" font-size="10.00">_logger.hpp</text>
</a>
</g>
</g>
<!-- Node1&#45;&gt;Node21 -->
<g id="edge21" class="edge">
<title>Node1&#45;&gt;Node21</title>
<path fill="none" stroke="#63b8ff" d="M979.38,-129.18C1079.95,-127.77 1428.9,-120.57 1727.19,-85.1"/>
<polygon fill="#63b8ff" stroke="#63b8ff" points="1727.21,-88.62 1736.72,-83.95 1726.37,-81.67 1727.21,-88.62"/>
</g>
<!-- Node17&#45;&gt;Node4 -->
<g id="edge17" class="edge">
<title>Node17&#45;&gt;Node4</title>
<path fill="none" stroke="#63b8ff" d="M1484.7,-60C1475.68,-58.09 1466.03,-56.27 1457,-55 1224.64,-22.26 942.38,-13.4 840.77,-11.18"/>
<polygon fill="#63b8ff" stroke="#63b8ff" points="840.87,-7.69 830.8,-10.98 840.73,-14.68 840.87,-7.69"/>
</g>
<!-- Node18 -->
<g id="node18" class="node">
<title>Node18</title>
<g id="a_node18"><a xlink:title=" ">
<polygon fill="#e0e0e0" stroke="#999999" points="1517.5,-19 1458.5,-19 1458.5,0 1517.5,0 1517.5,-19"/>
<text text-anchor="middle" x="1488" y="-7" font-family="Helvetica,sans-Serif" font-size="10.00">stdexcept</text>
</a>
</g>
</g>
<!-- Node17&#45;&gt;Node18 -->
<g id="edge18" class="edge">
<title>Node17&#45;&gt;Node18</title>
<path fill="none" stroke="#63b8ff" d="M1516.98,-60.37C1512.21,-52.16 1504.88,-39.54 1498.78,-29.05"/>
<polygon fill="#63b8ff" stroke="#63b8ff" points="1501.85,-27.36 1493.8,-20.48 1495.8,-30.88 1501.85,-27.36"/>
</g>
<!-- Node19 -->
<g id="node19" class="node">
<title>Node19</title>
<g id="a_node19"><a xlink:title=" ">
<polygon fill="#e0e0e0" stroke="#999999" points="1576.5,-19 1535.5,-19 1535.5,0 1576.5,0 1576.5,-19"/>
<text text-anchor="middle" x="1556" y="-7" font-family="Helvetica,sans-Serif" font-size="10.00">string</text>
</a>
</g>
</g>
<!-- Node17&#45;&gt;Node19 -->
<g id="edge19" class="edge">
<title>Node17&#45;&gt;Node19</title>
<path fill="none" stroke="#63b8ff" d="M1527.02,-60.37C1531.79,-52.16 1539.12,-39.54 1545.22,-29.05"/>
<polygon fill="#63b8ff" stroke="#63b8ff" points="1548.2,-30.88 1550.2,-20.48 1542.15,-27.36 1548.2,-30.88"/>
</g>
</g>
</svg>
        <g id="navigator" transform="translate(0 0)" fill="#404254">
                <rect fill="#f2f5e9" fill-opacity="0.5" stroke="#606060" stroke-width=".5" x="0" y="0" width="60" height="60"/>
                <use id="zoomplus" xlink:href="#zoomPlus" x="17" y="9" onmousedown="handleZoom(evt,'in')"/>
                <use id="zoomminus" xlink:href="#zoomMin" x="42" y="9" onmousedown="handleZoom(evt,'out')"/>
                <use id="reset" xlink:href="#resetDef" x="30" y="36" onmousedown="handleReset()"/>
                <g id="arrowUp" xlink:href="#dirArrow" transform="translate(30 24)" onmousedown="handlePan(0,-1)">
                  <use xlink:href="#rim" fill="#404040">
                        <set attributeName="fill" to="#808080" begin="arrowUp.mouseover" end="arrowUp.mouseout"/>
                  </use>
                  <path fill="none" stroke="white" stroke-width="1.5" d="M0,-3.0v7 M-2.5,-0.5L0,-3.0L2.5,-0.5"/>
                </g>
                <g id="arrowRight" xlink:href="#dirArrow" transform="rotate(90) translate(36 -43)" onmousedown="handlePan(1,0)">
                  <use xlink:href="#rim" fill="#404040">
                        <set attributeName="fill" to="#808080" begin="arrowRight.mouseover" end="arrowRight.mouseout"/>
                  </use>
                  <path fill="none" stroke="white" stroke-width="1.5" d="M0,-3.0v7 M-2.5,-0.5L0,-3.0L2.5,-0.5"/>
                </g>
                <g id="arrowDown" xlink:href="#dirArrow" transform="rotate(180) translate(-30 -48)" onmousedown="handlePan(0,1)">
                  <use xlink:href="#rim" fill="#404040">
                        <set attributeName="fill" to="#808080" begin="arrowDown.mouseover" end="arrowDown.mouseout"/>
                  </use>
                  <path fill="none" stroke="white" stroke-width="1.5" d="M0,-3.0v7 M-2.5,-0.5L0,-3.0L2.5,-0.5"/>
                </g>
                <g id="arrowLeft" xlink:href="#dirArrow" transform="rotate(270) translate(-36 17)" onmousedown="handlePan(-1,0)">
                  <use xlink:href="#rim" fill="#404040">
                        <set attributeName="fill" to="#808080" begin="arrowLeft.mouseover" end="arrowLeft.mouseout"/>
                  </use>
                  <path fill="none" stroke="white" stroke-width="1.5" d="M0,-3.0v7 M-2.5,-0.5L0,-3.0L2.5,-0.5"/>
                </g>
        </g>
        <svg viewBox="0 0 15 15" width="100%" height="30px" preserveAspectRatio="xMaxYMin meet">
         <g id="arrow_out" transform="scale(0.3 0.3)">
          <a xlink:href="_uio_if_8hpp__incl_org.svg" target="_base">
           <rect id="button" ry="5" rx="5" y="6" x="6" height="38" width="38"
                fill="#f2f5e9" fill-opacity="0.5" stroke="#606060" stroke-width="1.0"/>
           <path id="arrow"
             d="M 11.500037,31.436501 C 11.940474,20.09759 22.043105,11.32322 32.158766,21.979434 L 37.068811,17.246167 C 37.068811,17.246167 37.088388,32 37.088388,32 L 22.160133,31.978069 C 22.160133,31.978069 26.997745,27.140456 26.997745,27.140456 C 18.528582,18.264221 13.291696,25.230495 11.500037,31.436501 z"
             style="fill:#404040;"/>
          </a>
         </g>
        </svg>
</svg>
