<?xml version="1.0" encoding="UTF-8" standalone="no"?>
<!DOCTYPE svg PUBLIC "-//W3C//DTD SVG 1.1//EN"
 "http://www.w3.org/Graphics/SVG/1.1/DTD/svg11.dtd">
<!-- Generated by graphviz version 7.0.5 (20221223.1930)
 -->
<!-- Title: UioAxiDmaIf.cpp Pages: 1 -->
<svg width="1884pt" height="368pt"
 viewBox="0.00 0.00 1883.50 368.00" xmlns="http://www.w3.org/2000/svg" xmlns:xlink="http://www.w3.org/1999/xlink">
<g id="graph0" class="graph" transform="scale(1 1) rotate(0) translate(4 364)">
<title>UioAxiDmaIf.cpp</title>
<!-- Node1 -->
<g id="node1" class="node">
<title>Node1</title>
<g id="a_node1"><a xlink:title=" ">
<polygon fill="#999999" stroke="#666666" points="1414.5,-360 1325.5,-360 1325.5,-341 1414.5,-341 1414.5,-360"/>
<text text-anchor="middle" x="1370" y="-348" font-family="Helvetica,sans-Serif" font-size="10.00">UioAxiDmaIf.cpp</text>
</a>
</g>
</g>
<!-- Node2 -->
<g id="node2" class="node">
<title>Node2</title>
<g id="a_node2"><a xlink:href="_uio_axi_dma_if_8hpp.html" target="_top" xlink:title=" ">
<polygon fill="white" stroke="#666666" points="800,-305 676,-305 676,-286 800,-286 800,-305"/>
<text text-anchor="middle" x="738" y="-293" font-family="Helvetica,sans-Serif" font-size="10.00">udmaio/UioAxiDmaIf.hpp</text>
</a>
</g>
</g>
<!-- Node1&#45;&gt;Node2 -->
<g id="edge1" class="edge">
<title>Node1&#45;&gt;Node2</title>
<path fill="none" stroke="#63b8ff" d="M1325.12,-346.08C1231.9,-338.92 1010.56,-321.64 825,-305 820.62,-304.61 816.11,-304.19 811.57,-303.77"/>
<polygon fill="#63b8ff" stroke="#63b8ff" points="812.04,-300.3 801.75,-302.84 811.38,-307.27 812.04,-300.3"/>
</g>
<!-- Node14 -->
<g id="node14" class="node">
<title>Node14</title>
<g id="a_node14"><a xlink:title=" ">
<polygon fill="#e0e0e0" stroke="#999999" points="118,-79.5 0,-79.5 0,-60.5 118,-60.5 118,-79.5"/>
<text text-anchor="middle" x="59" y="-67.5" font-family="Helvetica,sans-Serif" font-size="10.00">boost/log/core/core.hpp</text>
</a>
</g>
</g>
<!-- Node1&#45;&gt;Node14 -->
<g id="edge34" class="edge">
<title>Node1&#45;&gt;Node14</title>
<path fill="none" stroke="#63b8ff" d="M1325.18,-349.86C1197.17,-349.7 839,-340.4 839,-241.5 839,-241.5 839,-241.5 839,-184.5 839,-104.62 205.77,-98.26 127,-85 121.85,-84.13 116.49,-83.16 111.15,-82.14"/>
<polygon fill="#63b8ff" stroke="#63b8ff" points="112.24,-78.78 101.75,-80.29 110.89,-85.65 112.24,-78.78"/>
</g>
<!-- Node17 -->
<g id="node17" class="node">
<title>Node17</title>
<g id="a_node17"><a xlink:title=" ">
<polygon fill="#e0e0e0" stroke="#999999" points="1756.5,-79.5 1615.5,-79.5 1615.5,-60.5 1756.5,-60.5 1756.5,-79.5"/>
<text text-anchor="middle" x="1686" y="-67.5" font-family="Helvetica,sans-Serif" font-size="10.00">boost/log/sources/logger.hpp</text>
</a>
</g>
</g>
<!-- Node1&#45;&gt;Node17 -->
<g id="edge35" class="edge">
<title>Node1&#45;&gt;Node17</title>
<path fill="none" stroke="#63b8ff" d="M1370,-340.54C1370,-322.03 1370,-278.25 1370,-241.5 1370,-241.5 1370,-241.5 1370,-184.5 1370,-70.26 1494.43,-104.49 1607,-85 1612.69,-84.02 1618.6,-82.98 1624.52,-81.94"/>
<polygon fill="#63b8ff" stroke="#63b8ff" points="1625.13,-85.39 1634.37,-80.21 1623.91,-78.5 1625.13,-85.39"/>
</g>
<!-- Node18 -->
<g id="node18" class="node">
<title>Node18</title>
<g id="a_node18"><a xlink:title=" ">
<polygon fill="#e0e0e0" stroke="#999999" points="1875.5,-79.5 1774.5,-79.5 1774.5,-60.5 1875.5,-60.5 1875.5,-79.5"/>
<text text-anchor="middle" x="1825" y="-67.5" font-family="Helvetica,sans-Serif" font-size="10.00">boost/log/trivial.hpp</text>
</a>
</g>
</g>
<!-- Node1&#45;&gt;Node18 -->
<g id="edge36" class="edge">
<title>Node1&#45;&gt;Node18</title>
<path fill="none" stroke="#63b8ff" d="M1375.44,-340.63C1385.95,-322.63 1408,-280.26 1408,-241.5 1408,-241.5 1408,-241.5 1408,-184.5 1408,-175.02 1667.88,-109.77 1777.32,-82.72"/>
<polygon fill="#63b8ff" stroke="#63b8ff" points="1778.02,-86.15 1786.89,-80.35 1776.34,-79.35 1778.02,-86.15"/>
</g>
<!-- Node29 -->
<g id="node29" class="node">
<title>Node29</title>
<g id="a_node29"><a xlink:title=" ">
<polygon fill="#e0e0e0" stroke="#999999" points="1465.5,-305 1436.5,-305 1436.5,-286 1465.5,-286 1465.5,-305"/>
<text text-anchor="middle" x="1451" y="-293" font-family="Helvetica,sans-Serif" font-size="10.00">ios</text>
</a>
</g>
</g>
<!-- Node1&#45;&gt;Node29 -->
<g id="edge33" class="edge">
<title>Node1&#45;&gt;Node29</title>
<path fill="none" stroke="#63b8ff" d="M1383.74,-340.51C1395.8,-332.62 1413.59,-320.98 1427.84,-311.65"/>
<polygon fill="#63b8ff" stroke="#63b8ff" points="1429.74,-314.59 1436.2,-306.19 1425.91,-308.73 1429.74,-314.59"/>
</g>
<!-- Node3 -->
<g id="node3" class="node">
<title>Node3</title>
<g id="a_node3"><a xlink:href="_axi_dma_8hpp.html" target="_top" xlink:title=" ">
<polygon fill="white" stroke="#666666" points="661,-250 593,-250 593,-231 661,-231 661,-250"/>
<text text-anchor="middle" x="627" y="-238" font-family="Helvetica,sans-Serif" font-size="10.00">AxiDma.hpp</text>
</a>
</g>
</g>
<!-- Node2&#45;&gt;Node3 -->
<g id="edge2" class="edge">
<title>Node2&#45;&gt;Node3</title>
<path fill="none" stroke="#63b8ff" d="M719.17,-285.51C701.84,-277.24 675.89,-264.84 655.93,-255.31"/>
<polygon fill="#63b8ff" stroke="#63b8ff" points="657.45,-252.16 646.92,-251.01 654.43,-258.48 657.45,-252.16"/>
</g>
<!-- Node5 -->
<g id="node5" class="node">
<title>Node5</title>
<g id="a_node5"><a xlink:href="_reg_accessor_8hpp.html" target="_top" xlink:title=" ">
<polygon fill="white" stroke="#666666" points="772.5,-250 679.5,-250 679.5,-231 772.5,-231 772.5,-250"/>
<text text-anchor="middle" x="726" y="-238" font-family="Helvetica,sans-Serif" font-size="10.00">RegAccessor.hpp</text>
</a>
</g>
</g>
<!-- Node2&#45;&gt;Node5 -->
<g id="edge4" class="edge">
<title>Node2&#45;&gt;Node5</title>
<path fill="none" stroke="#63b8ff" d="M736.02,-285.75C734.53,-279.19 732.44,-269.95 730.55,-261.6"/>
<polygon fill="#63b8ff" stroke="#63b8ff" points="733.98,-260.9 728.36,-251.92 727.15,-262.44 733.98,-260.9"/>
</g>
<!-- Node6 -->
<g id="node6" class="node">
<title>Node6</title>
<g id="a_node6"><a xlink:href="_uio_if_8hpp.html" target="_top" xlink:title=" ">
<polygon fill="white" stroke="#666666" points="811,-195 721,-195 721,-176 811,-176 811,-195"/>
<text text-anchor="middle" x="766" y="-183" font-family="Helvetica,sans-Serif" font-size="10.00">udmaio/UioIf.hpp</text>
</a>
</g>
</g>
<!-- Node2&#45;&gt;Node6 -->
<g id="edge32" class="edge">
<title>Node2&#45;&gt;Node6</title>
<path fill="none" stroke="#63b8ff" d="M750.91,-285.61C761.24,-277.65 774.96,-264.94 781,-250 786.84,-235.54 782.06,-218.27 776.4,-205.39"/>
<polygon fill="#63b8ff" stroke="#63b8ff" points="779.69,-204.14 772.11,-196.74 773.42,-207.26 779.69,-204.14"/>
</g>
<!-- Node4 -->
<g id="node4" class="node">
<title>Node4</title>
<g id="a_node4"><a xlink:title=" ">
<polygon fill="#e0e0e0" stroke="#999999" points="677,-195 631,-195 631,-176 677,-176 677,-195"/>
<text text-anchor="middle" x="654" y="-183" font-family="Helvetica,sans-Serif" font-size="10.00">cstdint</text>
</a>
</g>
</g>
<!-- Node3&#45;&gt;Node4 -->
<g id="edge3" class="edge">
<title>Node3&#45;&gt;Node4</title>
<path fill="none" stroke="#63b8ff" d="M631.46,-230.75C634.95,-223.88 639.95,-214.08 644.35,-205.45"/>
<polygon fill="#63b8ff" stroke="#63b8ff" points="647.34,-207.29 648.76,-196.79 641.1,-204.11 647.34,-207.29"/>
</g>
<!-- Node5&#45;&gt;Node4 -->
<g id="edge5" class="edge">
<title>Node5&#45;&gt;Node4</title>
<path fill="none" stroke="#63b8ff" d="M713.79,-230.51C703.17,-222.7 687.56,-211.21 674.96,-201.93"/>
<polygon fill="#63b8ff" stroke="#63b8ff" points="677.38,-199.36 667.25,-196.26 673.23,-205 677.38,-199.36"/>
</g>
<!-- Node5&#45;&gt;Node6 -->
<g id="edge6" class="edge">
<title>Node5&#45;&gt;Node6</title>
<path fill="none" stroke="#63b8ff" d="M732.61,-230.75C737.96,-223.66 745.68,-213.42 752.35,-204.59"/>
<polygon fill="#63b8ff" stroke="#63b8ff" points="755.11,-206.74 758.34,-196.65 749.52,-202.52 755.11,-206.74"/>
</g>
<!-- Node7 -->
<g id="node7" class="node">
<title>Node7</title>
<g id="a_node7"><a xlink:href="_uio_if_base_8hpp.html" target="_top" xlink:title=" ">
<polygon fill="white" stroke="#666666" points="980.5,-140 867.5,-140 867.5,-121 980.5,-121 980.5,-140"/>
<text text-anchor="middle" x="924" y="-128" font-family="Helvetica,sans-Serif" font-size="10.00">udmaio/UioIfBase.hpp</text>
</a>
</g>
</g>
<!-- Node6&#45;&gt;Node7 -->
<g id="edge7" class="edge">
<title>Node6&#45;&gt;Node7</title>
<path fill="none" stroke="#63b8ff" d="M792.8,-175.51C818.53,-166.88 857.63,-153.76 886.45,-144.1"/>
<polygon fill="#63b8ff" stroke="#63b8ff" points="887.53,-147.43 895.9,-140.93 885.3,-140.79 887.53,-147.43"/>
</g>
<!-- Node8 -->
<g id="node8" class="node">
<title>Node8</title>
<g id="a_node8"><a xlink:title=" ">
<polygon fill="#e0e0e0" stroke="#999999" points="196,-79.5 136,-79.5 136,-60.5 196,-60.5 196,-79.5"/>
<text text-anchor="middle" x="166" y="-67.5" font-family="Helvetica,sans-Serif" font-size="10.00">filesystem</text>
</a>
</g>
</g>
<!-- Node7&#45;&gt;Node8 -->
<g id="edge8" class="edge">
<title>Node7&#45;&gt;Node8</title>
<path fill="none" stroke="#63b8ff" d="M867.07,-122.36C862.31,-121.86 857.58,-121.4 853,-121 565.65,-95.84 487.69,-142.33 205,-85 202.83,-84.56 200.62,-84.02 198.41,-83.42"/>
<polygon fill="#63b8ff" stroke="#63b8ff" points="199.58,-80.12 188.99,-80.44 197.47,-86.79 199.58,-80.12"/>
</g>
<!-- Node9 -->
<g id="node9" class="node">
<title>Node9</title>
<g id="a_node9"><a xlink:title=" ">
<polygon fill="#e0e0e0" stroke="#999999" points="264,-79.5 214,-79.5 214,-60.5 264,-60.5 264,-79.5"/>
<text text-anchor="middle" x="239" y="-67.5" font-family="Helvetica,sans-Serif" font-size="10.00">fstream</text>
</a>
</g>
</g>
<!-- Node7&#45;&gt;Node9 -->
<g id="edge9" class="edge">
<title>Node7&#45;&gt;Node9</title>
<path fill="none" stroke="#63b8ff" d="M867.06,-122.4C862.31,-121.89 857.57,-121.42 853,-121 598,-97.77 528.77,-136.77 278,-85 275.83,-84.55 273.62,-84.01 271.42,-83.4"/>
<polygon fill="#63b8ff" stroke="#63b8ff" points="272.59,-80.1 262,-80.42 270.47,-86.78 272.59,-80.1"/>
</g>
<!-- Node10 -->
<g id="node10" class="node">
<title>Node10</title>
<g id="a_node10"><a xlink:title=" ">
<polygon fill="#e0e0e0" stroke="#999999" points="291,-19 237,-19 237,0 291,0 291,-19"/>
<text text-anchor="middle" x="264" y="-7" font-family="Helvetica,sans-Serif" font-size="10.00">iostream</text>
</a>
</g>
</g>
<!-- Node7&#45;&gt;Node10 -->
<g id="edge10" class="edge">
<title>Node7&#45;&gt;Node10</title>
<path fill="none" stroke="#63b8ff" d="M867.06,-122.43C862.31,-121.92 857.57,-121.43 853,-121 737.24,-110.09 435.52,-135.95 331,-85 306.02,-72.82 286.13,-46.83 274.7,-29.01"/>
<polygon fill="#63b8ff" stroke="#63b8ff" points="277.82,-27.41 269.63,-20.69 271.84,-31.05 277.82,-27.41"/>
</g>
<!-- Node11 -->
<g id="node11" class="node">
<title>Node11</title>
<g id="a_node11"><a xlink:title=" ">
<polygon fill="#e0e0e0" stroke="#999999" points="360.5,-19 309.5,-19 309.5,0 360.5,0 360.5,-19"/>
<text text-anchor="middle" x="335" y="-7" font-family="Helvetica,sans-Serif" font-size="10.00">memory</text>
</a>
</g>
</g>
<!-- Node7&#45;&gt;Node11 -->
<g id="edge11" class="edge">
<title>Node7&#45;&gt;Node11</title>
<path fill="none" stroke="#63b8ff" d="M867.06,-122.44C862.31,-121.92 857.57,-121.44 853,-121 797.11,-115.66 390.9,-122.36 349,-85 334.05,-71.67 331.93,-47.87 332.66,-30.75"/>
<polygon fill="#63b8ff" stroke="#63b8ff" points="336.14,-31.25 333.47,-20.99 329.16,-30.67 336.14,-31.25"/>
</g>
<!-- Node12 -->
<g id="node12" class="node">
<title>Node12</title>
<g id="a_node12"><a xlink:title=" ">
<polygon fill="#e0e0e0" stroke="#999999" points="581,-19 515,-19 515,0 581,0 581,-19"/>
<text text-anchor="middle" x="548" y="-7" font-family="Helvetica,sans-Serif" font-size="10.00">string_view</text>
</a>
</g>
</g>
<!-- Node7&#45;&gt;Node12 -->
<g id="edge12" class="edge">
<title>Node7&#45;&gt;Node12</title>
<path fill="none" stroke="#63b8ff" d="M867.04,-122.62C862.29,-122.06 857.56,-121.52 853,-121 778.38,-112.54 567.19,-140.86 517,-85 502.15,-68.47 517.6,-43.82 531.51,-27.46"/>
<polygon fill="#63b8ff" stroke="#63b8ff" points="533.74,-30.21 537.86,-20.45 528.55,-25.52 533.74,-30.21"/>
</g>
<!-- Node13 -->
<g id="node13" class="node">
<title>Node13</title>
<g id="a_node13"><a xlink:title=" ">
<polygon fill="#e0e0e0" stroke="#999999" points="663.5,-79.5 526.5,-79.5 526.5,-60.5 663.5,-60.5 663.5,-79.5"/>
<text text-anchor="middle" x="595" y="-67.5" font-family="Helvetica,sans-Serif" font-size="10.00">boost/core/noncopyable.hpp</text>
</a>
</g>
</g>
<!-- Node7&#45;&gt;Node13 -->
<g id="edge13" class="edge">
<title>Node7&#45;&gt;Node13</title>
<path fill="none" stroke="#63b8ff" d="M872.83,-120.54C821.9,-111.61 741.53,-97.46 672,-85 666.68,-84.05 661.15,-83.05 655.61,-82.05"/>
<polygon fill="#63b8ff" stroke="#63b8ff" points="656.24,-78.61 645.77,-80.27 654.99,-85.49 656.24,-78.61"/>
</g>
<!-- Node7&#45;&gt;Node14 -->
<g id="edge14" class="edge">
<title>Node7&#45;&gt;Node14</title>
<path fill="none" stroke="#63b8ff" d="M867.07,-122.33C862.31,-121.84 857.58,-121.39 853,-121 531.09,-93.78 447.49,-125.69 127,-85 120.95,-84.23 114.63,-83.22 108.39,-82.09"/>
<polygon fill="#63b8ff" stroke="#63b8ff" points="109.27,-78.7 98.79,-80.24 107.95,-85.57 109.27,-78.7"/>
</g>
<!-- Node15 -->
<g id="node15" class="node">
<title>Node15</title>
<g id="a_node15"><a xlink:title=" ">
<polygon fill="#e0e0e0" stroke="#999999" points="810.5,-79.5 681.5,-79.5 681.5,-60.5 810.5,-60.5 810.5,-79.5"/>
<text text-anchor="middle" x="746" y="-67.5" font-family="Helvetica,sans-Serif" font-size="10.00">boost/log/expressions.hpp</text>
</a>
</g>
</g>
<!-- Node7&#45;&gt;Node15 -->
<g id="edge15" class="edge">
<title>Node7&#45;&gt;Node15</title>
<path fill="none" stroke="#63b8ff" d="M896.97,-120.62C866.91,-110.74 818.13,-94.71 784.18,-83.55"/>
<polygon fill="#63b8ff" stroke="#63b8ff" points="785.32,-80.24 774.73,-80.44 783.13,-86.89 785.32,-80.24"/>
</g>
<!-- Node16 -->
<g id="node16" class="node">
<title>Node16</title>
<g id="a_node16"><a xlink:title=" ">
<polygon fill="#e0e0e0" stroke="#999999" points="929.5,-85 828.5,-85 828.5,-55 929.5,-55 929.5,-85"/>
<text text-anchor="start" x="836.5" y="-73" font-family="Helvetica,sans-Serif" font-size="10.00">boost/log/keywords</text>
<text text-anchor="middle" x="879" y="-62" font-family="Helvetica,sans-Serif" font-size="10.00">/severity.hpp</text>
</a>
</g>
</g>
<!-- Node7&#45;&gt;Node16 -->
<g id="edge16" class="edge">
<title>Node7&#45;&gt;Node16</title>
<path fill="none" stroke="#63b8ff" d="M917.36,-120.87C911.93,-113.81 904,-103.5 896.75,-94.08"/>
<polygon fill="#63b8ff" stroke="#63b8ff" points="899.65,-92.11 890.78,-86.31 894.1,-96.37 899.65,-92.11"/>
</g>
<!-- Node7&#45;&gt;Node17 -->
<g id="edge17" class="edge">
<title>Node7&#45;&gt;Node17</title>
<path fill="none" stroke="#63b8ff" d="M980.86,-127.92C1098.25,-124.18 1375.78,-112.93 1607,-85 1614.25,-84.12 1621.85,-83.02 1629.35,-81.82"/>
<polygon fill="#63b8ff" stroke="#63b8ff" points="1629.82,-85.29 1639.1,-80.18 1628.66,-78.38 1629.82,-85.29"/>
</g>
<!-- Node7&#45;&gt;Node18 -->
<g id="edge18" class="edge">
<title>Node7&#45;&gt;Node18</title>
<path fill="none" stroke="#63b8ff" d="M980.76,-130.01C1116.96,-130.48 1472.77,-127.19 1766,-85 1770.88,-84.3 1775.95,-83.38 1780.97,-82.36"/>
<polygon fill="#63b8ff" stroke="#63b8ff" points="1781.32,-85.87 1790.34,-80.3 1779.82,-79.03 1781.32,-85.87"/>
</g>
<!-- Node19 -->
<g id="node19" class="node">
<title>Node19</title>
<g id="a_node19"><a xlink:title=" ">
<polygon fill="#e0e0e0" stroke="#999999" points="990.5,-79.5 947.5,-79.5 947.5,-60.5 990.5,-60.5 990.5,-79.5"/>
<text text-anchor="middle" x="969" y="-67.5" font-family="Helvetica,sans-Serif" font-size="10.00">fcntl.h</text>
</a>
</g>
</g>
<!-- Node7&#45;&gt;Node19 -->
<g id="edge19" class="edge">
<title>Node7&#45;&gt;Node19</title>
<path fill="none" stroke="#63b8ff" d="M930.64,-120.87C937.15,-112.4 947.28,-99.24 955.49,-88.57"/>
<polygon fill="#63b8ff" stroke="#63b8ff" points="958.09,-90.93 961.41,-80.87 952.54,-86.66 958.09,-90.93"/>
</g>
<!-- Node20 -->
<g id="node20" class="node">
<title>Node20</title>
<g id="a_node20"><a xlink:title=" ">
<polygon fill="#e0e0e0" stroke="#999999" points="1077.5,-79.5 1008.5,-79.5 1008.5,-60.5 1077.5,-60.5 1077.5,-79.5"/>
<text text-anchor="middle" x="1043" y="-67.5" font-family="Helvetica,sans-Serif" font-size="10.00">sys/mman.h</text>
</a>
</g>
</g>
<!-- Node7&#45;&gt;Node20 -->
<g id="edge20" class="edge">
<title>Node7&#45;&gt;Node20</title>
<path fill="none" stroke="#63b8ff" d="M942.07,-120.62C961.29,-111.17 991.97,-96.09 1014.46,-85.03"/>
<polygon fill="#63b8ff" stroke="#63b8ff" points="1015.97,-88.19 1023.4,-80.64 1012.88,-81.91 1015.97,-88.19"/>
</g>
<!-- Node21 -->
<g id="node21" class="node">
<title>Node21</title>
<g id="a_node21"><a xlink:title=" ">
<polygon fill="#e0e0e0" stroke="#999999" points="1154.5,-79.5 1095.5,-79.5 1095.5,-60.5 1154.5,-60.5 1154.5,-79.5"/>
<text text-anchor="middle" x="1125" y="-67.5" font-family="Helvetica,sans-Serif" font-size="10.00">sys/stat.h</text>
</a>
</g>
</g>
<!-- Node7&#45;&gt;Node21 -->
<g id="edge21" class="edge">
<title>Node7&#45;&gt;Node21</title>
<path fill="none" stroke="#63b8ff" d="M960.2,-120.58C993.4,-112.16 1043.84,-98.81 1087,-85 1088.36,-84.57 1089.74,-84.11 1091.13,-83.65"/>
<polygon fill="#63b8ff" stroke="#63b8ff" points="1092.09,-87.02 1100.37,-80.41 1089.78,-80.41 1092.09,-87.02"/>
</g>
<!-- Node22 -->
<g id="node22" class="node">
<title>Node22</title>
<g id="a_node22"><a xlink:title=" ">
<polygon fill="#e0e0e0" stroke="#999999" points="1237.5,-79.5 1172.5,-79.5 1172.5,-60.5 1237.5,-60.5 1237.5,-79.5"/>
<text text-anchor="middle" x="1205" y="-67.5" font-family="Helvetica,sans-Serif" font-size="10.00">sys/types.h</text>
</a>
</g>
</g>
<!-- Node7&#45;&gt;Node22 -->
<g id="edge22" class="edge">
<title>Node7&#45;&gt;Node22</title>
<path fill="none" stroke="#63b8ff" d="M980.76,-121.37C1029.72,-113.78 1102.1,-101.21 1164,-85 1165.99,-84.48 1168.02,-83.91 1170.06,-83.31"/>
<polygon fill="#63b8ff" stroke="#63b8ff" points="1170.97,-86.69 1179.45,-80.34 1168.86,-80.02 1170.97,-86.69"/>
</g>
<!-- Node23 -->
<g id="node23" class="node">
<title>Node23</title>
<g id="a_node23"><a xlink:title=" ">
<polygon fill="#e0e0e0" stroke="#999999" points="1306,-79.5 1256,-79.5 1256,-60.5 1306,-60.5 1306,-79.5"/>
<text text-anchor="middle" x="1281" y="-67.5" font-family="Helvetica,sans-Serif" font-size="10.00">unistd.h</text>
</a>
</g>
</g>
<!-- Node7&#45;&gt;Node23 -->
<g id="edge23" class="edge">
<title>Node7&#45;&gt;Node23</title>
<path fill="none" stroke="#63b8ff" d="M980.88,-126.04C1046.09,-121.07 1155.74,-109.65 1247,-85 1248.39,-84.63 1249.79,-84.21 1251.2,-83.76"/>
<polygon fill="#63b8ff" stroke="#63b8ff" points="1252.26,-87.1 1260.45,-80.38 1249.86,-80.52 1252.26,-87.1"/>
</g>
<!-- Node24 -->
<g id="node24" class="node">
<title>Node24</title>
<g id="a_node24"><a xlink:href="_uio_config_8hpp.html" target="_top" xlink:title=" ">
<polygon fill="white" stroke="#666666" points="469.5,-79.5 358.5,-79.5 358.5,-60.5 469.5,-60.5 469.5,-79.5"/>
<text text-anchor="middle" x="414" y="-67.5" font-family="Helvetica,sans-Serif" font-size="10.00">udmaio/UioConfig.hpp</text>
</a>
</g>
</g>
<!-- Node7&#45;&gt;Node24 -->
<g id="edge24" class="edge">
<title>Node7&#45;&gt;Node24</title>
<path fill="none" stroke="#63b8ff" d="M867.05,-122.57C862.3,-122.03 857.57,-121.5 853,-121 689.19,-103.21 646.99,-109.19 484,-85 478.32,-84.16 472.41,-83.16 466.53,-82.1"/>
<polygon fill="#63b8ff" stroke="#63b8ff" points="467.3,-78.68 456.82,-80.26 466,-85.56 467.3,-78.68"/>
</g>
<!-- Node27 -->
<g id="node27" class="node">
<title>Node27</title>
<g id="a_node27"><a xlink:title=" ">
<polygon fill="#e0e0e0" stroke="#999999" points="1448,-85 1324,-85 1324,-55 1448,-55 1448,-85"/>
<text text-anchor="start" x="1332" y="-73" font-family="Helvetica,sans-Serif" font-size="10.00">boost/log/sources/record</text>
<text text-anchor="middle" x="1386" y="-62" font-family="Helvetica,sans-Serif" font-size="10.00">_ostream.hpp</text>
</a>
</g>
</g>
<!-- Node7&#45;&gt;Node27 -->
<g id="edge30" class="edge">
<title>Node7&#45;&gt;Node27</title>
<path fill="none" stroke="#63b8ff" d="M980.85,-124.49C1054.89,-117.65 1188.56,-104.18 1312.52,-85.3"/>
<polygon fill="#63b8ff" stroke="#63b8ff" points="1312.87,-88.79 1322.22,-83.81 1311.8,-81.87 1312.87,-88.79"/>
</g>
<!-- Node28 -->
<g id="node28" class="node">
<title>Node28</title>
<g id="a_node28"><a xlink:title=" ">
<polygon fill="#e0e0e0" stroke="#999999" points="1597.5,-85 1466.5,-85 1466.5,-55 1597.5,-55 1597.5,-85"/>
<text text-anchor="start" x="1474.5" y="-73" font-family="Helvetica,sans-Serif" font-size="10.00">boost/log/sources/severity</text>
<text text-anchor="middle" x="1532" y="-62" font-family="Helvetica,sans-Serif" font-size="10.00">_logger.hpp</text>
</a>
</g>
</g>
<!-- Node7&#45;&gt;Node28 -->
<g id="edge31" class="edge">
<title>Node7&#45;&gt;Node28</title>
<path fill="none" stroke="#63b8ff" d="M980.61,-126.66C1076.19,-121.46 1275.82,-108.81 1454.98,-85.17"/>
<polygon fill="#63b8ff" stroke="#63b8ff" points="1455.26,-88.66 1464.71,-83.87 1454.34,-81.73 1455.26,-88.66"/>
</g>
<!-- Node24&#45;&gt;Node10 -->
<g id="edge25" class="edge">
<title>Node24&#45;&gt;Node10</title>
<path fill="none" stroke="#63b8ff" d="M391.22,-60.12C366.33,-50.41 326.21,-34.76 297.68,-23.64"/>
<polygon fill="#63b8ff" stroke="#63b8ff" points="298.99,-20.39 288.41,-20.02 296.45,-26.91 298.99,-20.39"/>
</g>
<!-- Node24&#45;&gt;Node11 -->
<g id="edge26" class="edge">
<title>Node24&#45;&gt;Node11</title>
<path fill="none" stroke="#63b8ff" d="M402,-60.12C389.82,-51.1 370.71,-36.95 356.02,-26.06"/>
<polygon fill="#63b8ff" stroke="#63b8ff" points="358.45,-23.51 348.33,-20.37 354.28,-29.13 358.45,-23.51"/>
</g>
<!-- Node24&#45;&gt;Node12 -->
<g id="edge29" class="edge">
<title>Node24&#45;&gt;Node12</title>
<path fill="none" stroke="#63b8ff" d="M434.35,-60.12C456.39,-50.49 491.79,-35.04 517.23,-23.93"/>
<polygon fill="#63b8ff" stroke="#63b8ff" points="518.31,-27.28 526.07,-20.07 515.5,-20.87 518.31,-27.28"/>
</g>
<!-- Node25 -->
<g id="node25" class="node">
<title>Node25</title>
<g id="a_node25"><a xlink:title=" ">
<polygon fill="#e0e0e0" stroke="#999999" points="437.5,-19 378.5,-19 378.5,0 437.5,0 437.5,-19"/>
<text text-anchor="middle" x="408" y="-7" font-family="Helvetica,sans-Serif" font-size="10.00">stdexcept</text>
</a>
</g>
</g>
<!-- Node24&#45;&gt;Node25 -->
<g id="edge27" class="edge">
<title>Node24&#45;&gt;Node25</title>
<path fill="none" stroke="#63b8ff" d="M413.11,-60.37C412.31,-52.5 411.09,-40.6 410.04,-30.39"/>
<polygon fill="#63b8ff" stroke="#63b8ff" points="413.55,-30.26 409.04,-20.67 406.58,-30.98 413.55,-30.26"/>
</g>
<!-- Node26 -->
<g id="node26" class="node">
<title>Node26</title>
<g id="a_node26"><a xlink:title=" ">
<polygon fill="#e0e0e0" stroke="#999999" points="496.5,-19 455.5,-19 455.5,0 496.5,0 496.5,-19"/>
<text text-anchor="middle" x="476" y="-7" font-family="Helvetica,sans-Serif" font-size="10.00">string</text>
</a>
</g>
</g>
<!-- Node24&#45;&gt;Node26 -->
<g id="edge28" class="edge">
<title>Node24&#45;&gt;Node26</title>
<path fill="none" stroke="#63b8ff" d="M423.42,-60.12C432.61,-51.44 446.84,-38.02 458.17,-27.32"/>
<polygon fill="#63b8ff" stroke="#63b8ff" points="460.52,-29.92 465.39,-20.51 455.72,-24.82 460.52,-29.92"/>
</g>
</g>
</svg>
