<?xml version="1.0" encoding="UTF-8" standalone="no"?>
<!DOCTYPE svg PUBLIC "-//W3C//DTD SVG 1.1//EN"
 "http://www.w3.org/Graphics/SVG/1.1/DTD/svg11.dtd">
<!-- Generated by graphviz version 7.0.5 (20221223.1930)
 -->
<!-- Title: UioAxiVdmaIf.cpp Pages: 1 -->
<!--zoomable 368 -->
<svg id="main" version="1.1" xmlns="http://www.w3.org/2000/svg" xmlns:xlink="http://www.w3.org/1999/xlink" xml:space="preserve" onload="init(evt)">
<style type="text/css"><![CDATA[
.edge:hover path { stroke: red; }
.edge:hover polygon { stroke: red; fill: red; }
]]></style>
<script type="text/javascript"><![CDATA[
var edges = document.getElementsByTagName('g');
if (edges && edges.length) {
  for (var i=0;i<edges.length;i++) {
    if (edges[i].id.substr(0,4)=='edge') {
      edges[i].setAttribute('class','edge');
    }
  }
}
]]></script>
        <defs>
                <circle id="rim" cx="0" cy="0" r="7"/>
                <circle id="rim2" cx="0" cy="0" r="3.5"/>
                <g id="zoomPlus">
                        <use xlink:href="#rim" fill="#404040">
                                <set attributeName="fill" to="#808080" begin="zoomplus.mouseover" end="zoomplus.mouseout"/>
                        </use>
                        <path d="M-4,0h8M0,-4v8" fill="none" stroke="white" stroke-width="1.5" pointer-events="none"/>
                </g>
                <g id="zoomMin">
                        <use xlink:href="#rim" fill="#404040">
                                <set attributeName="fill" to="#808080" begin="zoomminus.mouseover" end="zoomminus.mouseout"/>
                        </use>
                        <path d="M-4,0h8" fill="none" stroke="white" stroke-width="1.5" pointer-events="none"/>
                </g>
                <g id="dirArrow">
                        <path fill="none" stroke="white" stroke-width="1.5" d="M0,-3.0v7 M-2.5,-0.5L0,-3.0L2.5,-0.5"/>
                </g>
               <g id="resetDef">
                       <use xlink:href="#rim2" fill="#404040">
                               <set attributeName="fill" to="#808080" begin="reset.mouseover" end="reset.mouseout"/>
                       </use>
               </g>
        </defs>

<script type="text/javascript">
var viewWidth = 1571;
var viewHeight = 368;
var sectionId = 'dynsection-0';
</script>
<script xlink:href="svgpan.js"/>
<svg id="graph" class="graph">
<g id="viewport">
<title>UioAxiVdmaIf.cpp</title>
<!-- Node1 -->
<g id="node1" class="node">
<title>Node1</title>
<g id="a_node1"><a xlink:title=" ">
<polygon fill="#999999" stroke="#666666" points="1253.38,-360 1158.38,-360 1158.38,-341 1253.38,-341 1253.38,-360"/>
<text text-anchor="middle" x="1205.88" y="-348" font-family="Helvetica,sans-Serif" font-size="10.00">UioAxiVdmaIf.cpp</text>
</a>
</g>
</g>
<!-- Node2 -->
<g id="node2" class="node">
<title>Node2</title>
<g id="a_node2"><a xlink:href="_uio_axi_vdma_if_8hpp.html" target="_top" xlink:title=" ">
<polygon fill="white" stroke="#666666" points="981.38,-305 852.38,-305 852.38,-286 981.38,-286 981.38,-305"/>
<text text-anchor="middle" x="916.88" y="-293" font-family="Helvetica,sans-Serif" font-size="10.00">udmaio/UioAxiVdmaIf.hpp</text>
</a>
</g>
</g>
<!-- Node1&#45;&gt;Node2 -->
<g id="edge1" class="edge">
<title>Node1&#45;&gt;Node2</title>
<path fill="none" stroke="#63b8ff" d="M1158.16,-340.75C1108.46,-331.64 1030.51,-317.34 976.73,-307.48"/>
<polygon fill="#63b8ff" stroke="#63b8ff" points="977.59,-304.08 967.13,-305.72 976.33,-310.96 977.59,-304.08"/>
</g>
<!-- Node18 -->
<g id="node18" class="node">
<title>Node18</title>
<g id="a_node18"><a xlink:href="_logging_8hpp.html" target="_top" xlink:title=" ">
<polygon fill="white" stroke="#666666" points="1155.88,-85 1051.88,-85 1051.88,-66 1155.88,-66 1155.88,-85"/>
<text text-anchor="middle" x="1103.88" y="-73" font-family="Helvetica,sans-Serif" font-size="10.00">udmaio/Logging.hpp</text>
</a>
</g>
</g>
<!-- Node1&#45;&gt;Node18 -->
<g id="edge56" class="edge">
<title>Node1&#45;&gt;Node18</title>
<path fill="none" stroke="#63b8ff" d="M1200.43,-340.63C1189.93,-322.63 1167.88,-280.26 1167.88,-241.5 1167.88,-241.5 1167.88,-241.5 1167.88,-184.5 1167.88,-148.02 1140.52,-113.08 1121.58,-93.26"/>
<polygon fill="#63b8ff" stroke="#63b8ff" points="1124.21,-90.94 1114.67,-86.33 1119.26,-95.88 1124.21,-90.94"/>
</g>
<!-- Node21 -->
<g id="node21" class="node">
<title>Node21</title>
<g id="a_node21"><a xlink:title=" ">
<polygon fill="#e0e0e0" stroke="#999999" points="1563.38,-24.5 1462.38,-24.5 1462.38,-5.5 1563.38,-5.5 1563.38,-24.5"/>
<text text-anchor="middle" x="1512.88" y="-12.5" font-family="Helvetica,sans-Serif" font-size="10.00">boost/log/trivial.hpp</text>
</a>
</g>
</g>
<!-- Node1&#45;&gt;Node21 -->
<g id="edge55" class="edge">
<title>Node1&#45;&gt;Node21</title>
<path fill="none" stroke="#63b8ff" d="M1205.88,-340.54C1205.88,-322.03 1205.88,-278.25 1205.88,-241.5 1205.88,-241.5 1205.88,-241.5 1205.88,-129.5 1205.88,-101.93 1382.25,-50.95 1467.63,-27.88"/>
<polygon fill="#63b8ff" stroke="#63b8ff" points="1468.34,-31.32 1477.09,-25.34 1466.53,-24.56 1468.34,-31.32"/>
</g>
<!-- Node32 -->
<g id="node32" class="node">
<title>Node32</title>
<g id="a_node32"><a xlink:title=" ">
<polygon fill="#e0e0e0" stroke="#999999" points="1351.88,-305 1233.88,-305 1233.88,-286 1351.88,-286 1351.88,-305"/>
<text text-anchor="middle" x="1292.88" y="-293" font-family="Helvetica,sans-Serif" font-size="10.00">boost/log/core/core.hpp</text>
</a>
</g>
</g>
<!-- Node1&#45;&gt;Node32 -->
<g id="edge53" class="edge">
<title>Node1&#45;&gt;Node32</title>
<path fill="none" stroke="#63b8ff" d="M1220.64,-340.51C1233.84,-332.47 1253.44,-320.53 1268.89,-311.11"/>
<polygon fill="#63b8ff" stroke="#63b8ff" points="1270.33,-314.34 1277.05,-306.15 1266.69,-308.36 1270.33,-314.34"/>
</g>
<!-- Node33 -->
<g id="node33" class="node">
<title>Node33</title>
<g id="a_node33"><a xlink:title=" ">
<polygon fill="#e0e0e0" stroke="#999999" points="1511.38,-305 1370.38,-305 1370.38,-286 1511.38,-286 1511.38,-305"/>
<text text-anchor="middle" x="1440.88" y="-293" font-family="Helvetica,sans-Serif" font-size="10.00">boost/log/sources/logger.hpp</text>
</a>
</g>
</g>
<!-- Node1&#45;&gt;Node33 -->
<g id="edge54" class="edge">
<title>Node1&#45;&gt;Node33</title>
<path fill="none" stroke="#63b8ff" d="M1245.74,-340.51C1285.53,-331.54 1346.82,-317.71 1390.08,-307.96"/>
<polygon fill="#63b8ff" stroke="#63b8ff" points="1390.75,-311.39 1399.74,-305.78 1389.21,-304.57 1390.75,-311.39"/>
</g>
<!-- Node3 -->
<g id="node3" class="node">
<title>Node3</title>
<g id="a_node3"><a xlink:href="_reg_accessor_8hpp.html" target="_top" xlink:title=" ">
<polygon fill="white" stroke="#666666" points="837.88,-250 709.88,-250 709.88,-231 837.88,-231 837.88,-250"/>
<text text-anchor="middle" x="773.88" y="-238" font-family="Helvetica,sans-Serif" font-size="10.00">udmaio/RegAccessor.hpp</text>
</a>
</g>
</g>
<!-- Node2&#45;&gt;Node3 -->
<g id="edge2" class="edge">
<title>Node2&#45;&gt;Node3</title>
<path fill="none" stroke="#63b8ff" d="M892.62,-285.51C869.47,-276.93 834.37,-263.92 808.32,-254.27"/>
<polygon fill="#63b8ff" stroke="#63b8ff" points="809.79,-251.08 799.2,-250.88 807.36,-257.64 809.79,-251.08"/>
</g>
<!-- Node5 -->
<g id="node5" class="node">
<title>Node5</title>
<g id="a_node5"><a xlink:href="_uio_if_8hpp.html" target="_top" xlink:title=" ">
<polygon fill="white" stroke="#666666" points="706.88,-195 616.88,-195 616.88,-176 706.88,-176 706.88,-195"/>
<text text-anchor="middle" x="661.88" y="-183" font-family="Helvetica,sans-Serif" font-size="10.00">udmaio/UioIf.hpp</text>
</a>
</g>
</g>
<!-- Node2&#45;&gt;Node5 -->
<g id="edge45" class="edge">
<title>Node2&#45;&gt;Node5</title>
<path fill="none" stroke="#63b8ff" d="M852.03,-286.89C797.57,-279.47 724.9,-266.85 700.88,-250 685.5,-239.21 675.02,-220.24 668.83,-205.83"/>
<polygon fill="#63b8ff" stroke="#63b8ff" points="672.24,-204.94 665.33,-196.91 665.72,-207.5 672.24,-204.94"/>
</g>
<!-- Node29 -->
<g id="node29" class="node">
<title>Node29</title>
<g id="a_node29"><a xlink:href="_frame_format_8hpp.html" target="_top" xlink:title=" ">
<polygon fill="white" stroke="#666666" points="1123.88,-250 995.88,-250 995.88,-231 1123.88,-231 1123.88,-250"/>
<text text-anchor="middle" x="1059.88" y="-238" font-family="Helvetica,sans-Serif" font-size="10.00">udmaio/FrameFormat.hpp</text>
</a>
</g>
</g>
<!-- Node2&#45;&gt;Node29 -->
<g id="edge46" class="edge">
<title>Node2&#45;&gt;Node29</title>
<path fill="none" stroke="#63b8ff" d="M941.14,-285.51C964.29,-276.93 999.39,-263.92 1025.43,-254.27"/>
<polygon fill="#63b8ff" stroke="#63b8ff" points="1026.4,-257.64 1034.56,-250.88 1023.97,-251.08 1026.4,-257.64"/>
</g>
<!-- Node31 -->
<g id="node31" class="node">
<title>Node31</title>
<g id="a_node31"><a xlink:href="_axi_vdma_8hpp.html" target="_top" xlink:title=" ">
<polygon fill="white" stroke="#666666" points="977.88,-250 855.88,-250 855.88,-231 977.88,-231 977.88,-250"/>
<text text-anchor="middle" x="916.88" y="-238" font-family="Helvetica,sans-Serif" font-size="10.00">udmaio/rdl/AxiVdma.hpp</text>
</a>
</g>
</g>
<!-- Node2&#45;&gt;Node31 -->
<g id="edge51" class="edge">
<title>Node2&#45;&gt;Node31</title>
<path fill="none" stroke="#63b8ff" d="M916.88,-285.75C916.88,-279.27 916.88,-270.16 916.88,-261.9"/>
<polygon fill="#63b8ff" stroke="#63b8ff" points="920.38,-261.96 916.88,-251.96 913.38,-261.96 920.38,-261.96"/>
</g>
<!-- Node4 -->
<g id="node4" class="node">
<title>Node4</title>
<g id="a_node4"><a xlink:title=" ">
<polygon fill="#e0e0e0" stroke="#999999" points="939.88,-195 893.88,-195 893.88,-176 939.88,-176 939.88,-195"/>
<text text-anchor="middle" x="916.88" y="-183" font-family="Helvetica,sans-Serif" font-size="10.00">cstdint</text>
</a>
</g>
</g>
<!-- Node3&#45;&gt;Node4 -->
<g id="edge3" class="edge">
<title>Node3&#45;&gt;Node4</title>
<path fill="none" stroke="#63b8ff" d="M798.14,-230.51C821.43,-221.88 856.82,-208.76 882.9,-199.09"/>
<polygon fill="#63b8ff" stroke="#63b8ff" points="883.87,-202.47 892.03,-195.71 881.44,-195.9 883.87,-202.47"/>
</g>
<!-- Node3&#45;&gt;Node5 -->
<g id="edge4" class="edge">
<title>Node3&#45;&gt;Node5</title>
<path fill="none" stroke="#63b8ff" d="M754.88,-230.51C737.32,-222.2 710.96,-209.73 690.79,-200.18"/>
<polygon fill="#63b8ff" stroke="#63b8ff" points="692.5,-197.12 681.97,-196.01 689.51,-203.45 692.5,-197.12"/>
</g>
<!-- Node6 -->
<g id="node6" class="node">
<title>Node6</title>
<g id="a_node6"><a xlink:title=" ">
<polygon fill="#e0e0e0" stroke="#999999" points="74.88,-85 14.88,-85 14.88,-66 74.88,-66 74.88,-85"/>
<text text-anchor="middle" x="44.88" y="-73" font-family="Helvetica,sans-Serif" font-size="10.00">filesystem</text>
</a>
</g>
</g>
<!-- Node5&#45;&gt;Node6 -->
<g id="edge5" class="edge">
<title>Node5&#45;&gt;Node6</title>
<path fill="none" stroke="#63b8ff" d="M616.44,-183.38C536.54,-180.63 366.05,-171.28 225.88,-140 171.54,-127.87 110.97,-104.5 75.49,-89.74"/>
<polygon fill="#63b8ff" stroke="#63b8ff" points="77.29,-86.7 66.71,-86.05 74.57,-93.15 77.29,-86.7"/>
</g>
<!-- Node7 -->
<g id="node7" class="node">
<title>Node7</title>
<g id="a_node7"><a xlink:title=" ">
<polygon fill="#e0e0e0" stroke="#999999" points="142.88,-85 92.88,-85 92.88,-66 142.88,-66 142.88,-85"/>
<text text-anchor="middle" x="117.88" y="-73" font-family="Helvetica,sans-Serif" font-size="10.00">fstream</text>
</a>
</g>
</g>
<!-- Node5&#45;&gt;Node7 -->
<g id="edge6" class="edge">
<title>Node5&#45;&gt;Node7</title>
<path fill="none" stroke="#63b8ff" d="M616.42,-182.36C546.19,-178.3 407.43,-167.31 292.88,-140 240.68,-127.55 182.58,-104.54 148.19,-89.9"/>
<polygon fill="#63b8ff" stroke="#63b8ff" points="149.85,-86.81 139.28,-86.07 147.08,-93.24 149.85,-86.81"/>
</g>
<!-- Node8 -->
<g id="node8" class="node">
<title>Node8</title>
<g id="a_node8"><a xlink:title=" ">
<polygon fill="#e0e0e0" stroke="#999999" points="165.88,-24.5 111.88,-24.5 111.88,-5.5 165.88,-5.5 165.88,-24.5"/>
<text text-anchor="middle" x="138.88" y="-12.5" font-family="Helvetica,sans-Serif" font-size="10.00">iostream</text>
</a>
</g>
</g>
<!-- Node5&#45;&gt;Node8 -->
<g id="edge7" class="edge">
<title>Node5&#45;&gt;Node8</title>
<path fill="none" stroke="#63b8ff" d="M616.69,-184.45C527.63,-183.49 323.56,-177.03 156.88,-140 87.15,-124.51 46.84,-143.51 5.88,-85 -20.37,-47.5 52.32,-28.95 100.33,-21.02"/>
<polygon fill="#63b8ff" stroke="#63b8ff" points="100.79,-24.49 110.14,-19.5 99.72,-17.57 100.79,-24.49"/>
</g>
<!-- Node9 -->
<g id="node9" class="node">
<title>Node9</title>
<g id="a_node9"><a xlink:title=" ">
<polygon fill="#e0e0e0" stroke="#999999" points="396.38,-24.5 345.38,-24.5 345.38,-5.5 396.38,-5.5 396.38,-24.5"/>
<text text-anchor="middle" x="370.88" y="-12.5" font-family="Helvetica,sans-Serif" font-size="10.00">memory</text>
</a>
</g>
</g>
<!-- Node5&#45;&gt;Node9 -->
<g id="edge8" class="edge">
<title>Node5&#45;&gt;Node9</title>
<path fill="none" stroke="#63b8ff" d="M616.63,-176.89C538.91,-162.72 385.7,-129.66 357.88,-85 348.43,-69.83 354.07,-49.4 360.61,-34.72"/>
<polygon fill="#63b8ff" stroke="#63b8ff" points="363.56,-36.65 364.88,-26.14 357.29,-33.53 363.56,-36.65"/>
</g>
<!-- Node10 -->
<g id="node10" class="node">
<title>Node10</title>
<g id="a_node10"><a xlink:title=" ">
<polygon fill="#e0e0e0" stroke="#999999" points="636.38,-24.5 595.38,-24.5 595.38,-5.5 636.38,-5.5 636.38,-24.5"/>
<text text-anchor="middle" x="615.88" y="-12.5" font-family="Helvetica,sans-Serif" font-size="10.00">string</text>
</a>
</g>
</g>
<!-- Node5&#45;&gt;Node10 -->
<g id="edge9" class="edge">
<title>Node5&#45;&gt;Node10</title>
<path fill="none" stroke="#63b8ff" d="M707.17,-175.54C800.9,-156 1004.42,-107.97 966.88,-66 918.88,-12.33 714.07,-49.94 644.88,-30 644.07,-29.77 643.26,-29.51 642.45,-29.24"/>
<polygon fill="#63b8ff" stroke="#63b8ff" points="644.04,-26.11 633.46,-25.57 641.39,-32.59 644.04,-26.11"/>
</g>
<!-- Node11 -->
<g id="node11" class="node">
<title>Node11</title>
<g id="a_node11"><a xlink:title=" ">
<polygon fill="#e0e0e0" stroke="#999999" points="504.38,-85 367.38,-85 367.38,-66 504.38,-66 504.38,-85"/>
<text text-anchor="middle" x="435.88" y="-73" font-family="Helvetica,sans-Serif" font-size="10.00">boost/core/noncopyable.hpp</text>
</a>
</g>
</g>
<!-- Node5&#45;&gt;Node11 -->
<g id="edge10" class="edge">
<title>Node5&#45;&gt;Node11</title>
<path fill="none" stroke="#63b8ff" d="M616.63,-179.21C581.69,-173.57 533.16,-162.24 495.88,-140 476.41,-128.38 459.21,-108.68 448.28,-94.29"/>
<polygon fill="#63b8ff" stroke="#63b8ff" points="451.37,-92.59 442.65,-86.57 445.71,-96.72 451.37,-92.59"/>
</g>
<!-- Node12 -->
<g id="node12" class="node">
<title>Node12</title>
<g id="a_node12"><a xlink:title=" ">
<polygon fill="#e0e0e0" stroke="#999999" points="642.38,-85 599.38,-85 599.38,-66 642.38,-66 642.38,-85"/>
<text text-anchor="middle" x="620.88" y="-73" font-family="Helvetica,sans-Serif" font-size="10.00">fcntl.h</text>
</a>
</g>
</g>
<!-- Node5&#45;&gt;Node12 -->
<g id="edge11" class="edge">
<title>Node5&#45;&gt;Node12</title>
<path fill="none" stroke="#63b8ff" d="M658.85,-175.84C654.55,-163.58 646.35,-140.49 638.88,-121 635.71,-112.73 632.07,-103.66 628.9,-95.88"/>
<polygon fill="#63b8ff" stroke="#63b8ff" points="632.18,-94.65 625.14,-86.73 625.7,-97.31 632.18,-94.65"/>
</g>
<!-- Node13 -->
<g id="node13" class="node">
<title>Node13</title>
<g id="a_node13"><a xlink:title=" ">
<polygon fill="#e0e0e0" stroke="#999999" points="729.38,-85 660.38,-85 660.38,-66 729.38,-66 729.38,-85"/>
<text text-anchor="middle" x="694.88" y="-73" font-family="Helvetica,sans-Serif" font-size="10.00">sys/mman.h</text>
</a>
</g>
</g>
<!-- Node5&#45;&gt;Node13 -->
<g id="edge12" class="edge">
<title>Node5&#45;&gt;Node13</title>
<path fill="none" stroke="#63b8ff" d="M664.58,-175.66C669.85,-158.42 681.62,-119.9 688.84,-96.27"/>
<polygon fill="#63b8ff" stroke="#63b8ff" points="692.12,-97.49 691.7,-86.91 685.43,-95.45 692.12,-97.49"/>
</g>
<!-- Node14 -->
<g id="node14" class="node">
<title>Node14</title>
<g id="a_node14"><a xlink:title=" ">
<polygon fill="#e0e0e0" stroke="#999999" points="806.38,-85 747.38,-85 747.38,-66 806.38,-66 806.38,-85"/>
<text text-anchor="middle" x="776.88" y="-73" font-family="Helvetica,sans-Serif" font-size="10.00">sys/stat.h</text>
</a>
</g>
</g>
<!-- Node5&#45;&gt;Node14 -->
<g id="edge13" class="edge">
<title>Node5&#45;&gt;Node14</title>
<path fill="none" stroke="#63b8ff" d="M671.29,-175.66C690.5,-157.62 734.47,-116.32 759.19,-93.12"/>
<polygon fill="#63b8ff" stroke="#63b8ff" points="761.34,-95.89 766.23,-86.5 756.55,-90.79 761.34,-95.89"/>
</g>
<!-- Node15 -->
<g id="node15" class="node">
<title>Node15</title>
<g id="a_node15"><a xlink:title=" ">
<polygon fill="#e0e0e0" stroke="#999999" points="889.38,-85 824.38,-85 824.38,-66 889.38,-66 889.38,-85"/>
<text text-anchor="middle" x="856.88" y="-73" font-family="Helvetica,sans-Serif" font-size="10.00">sys/types.h</text>
</a>
</g>
</g>
<!-- Node5&#45;&gt;Node15 -->
<g id="edge14" class="edge">
<title>Node5&#45;&gt;Node15</title>
<path fill="none" stroke="#63b8ff" d="M677.84,-175.66C711.4,-157.07 789.59,-113.77 830.64,-91.03"/>
<polygon fill="#63b8ff" stroke="#63b8ff" points="832.32,-94.1 839.38,-86.19 828.93,-87.98 832.32,-94.1"/>
</g>
<!-- Node16 -->
<g id="node16" class="node">
<title>Node16</title>
<g id="a_node16"><a xlink:title=" ">
<polygon fill="#e0e0e0" stroke="#999999" points="957.88,-85 907.88,-85 907.88,-66 957.88,-66 957.88,-85"/>
<text text-anchor="middle" x="932.88" y="-73" font-family="Helvetica,sans-Serif" font-size="10.00">unistd.h</text>
</a>
</g>
</g>
<!-- Node5&#45;&gt;Node16 -->
<g id="edge15" class="edge">
<title>Node5&#45;&gt;Node16</title>
<path fill="none" stroke="#63b8ff" d="M684.2,-175.65C706.8,-166.67 742.78,-152.39 773.88,-140 817.48,-122.63 867.78,-102.53 899.93,-89.68"/>
<polygon fill="#63b8ff" stroke="#63b8ff" points="901.11,-92.98 909.1,-86.01 898.51,-86.48 901.11,-92.98"/>
</g>
<!-- Node17 -->
<g id="node17" class="node">
<title>Node17</title>
<g id="a_node17"><a xlink:href="_hw_accessor_8hpp.html" target="_top" xlink:title=" ">
<polygon fill="white" stroke="#666666" points="630.38,-140 505.38,-140 505.38,-121 630.38,-121 630.38,-140"/>
<text text-anchor="middle" x="567.88" y="-128" font-family="Helvetica,sans-Serif" font-size="10.00">udmaio/HwAccessor.hpp</text>
</a>
</g>
</g>
<!-- Node5&#45;&gt;Node17 -->
<g id="edge16" class="edge">
<title>Node5&#45;&gt;Node17</title>
<path fill="none" stroke="#63b8ff" d="M645.93,-175.51C631.53,-167.39 610.09,-155.3 593.32,-145.85"/>
<polygon fill="#63b8ff" stroke="#63b8ff" points="595.34,-142.96 584.91,-141.1 591.9,-149.06 595.34,-142.96"/>
</g>
<!-- Node5&#45;&gt;Node18 -->
<g id="edge43" class="edge">
<title>Node5&#45;&gt;Node18</title>
<path fill="none" stroke="#63b8ff" d="M707.17,-181.65C766.64,-177.03 873.8,-165.7 961.88,-140 1003.99,-127.71 1049.83,-105.45 1077.72,-90.82"/>
<polygon fill="#63b8ff" stroke="#63b8ff" points="1079.3,-93.94 1086.48,-86.15 1076.01,-87.76 1079.3,-93.94"/>
</g>
<!-- Node26 -->
<g id="node26" class="node">
<title>Node26</title>
<g id="a_node26"><a xlink:href="_uio_config_8hpp.html" target="_top" xlink:title=" ">
<polygon fill="white" stroke="#666666" points="310.38,-85 199.38,-85 199.38,-66 310.38,-66 310.38,-85"/>
<text text-anchor="middle" x="254.88" y="-73" font-family="Helvetica,sans-Serif" font-size="10.00">udmaio/UioConfig.hpp</text>
</a>
</g>
</g>
<!-- Node5&#45;&gt;Node26 -->
<g id="edge44" class="edge">
<title>Node5&#45;&gt;Node26</title>
<path fill="none" stroke="#63b8ff" d="M616.69,-181.87C537.16,-176.7 375.81,-163.61 324.88,-140 302.17,-129.47 281.66,-108.94 268.8,-94.06"/>
<polygon fill="#63b8ff" stroke="#63b8ff" points="271.55,-91.9 262.47,-86.43 266.16,-96.36 271.55,-91.9"/>
</g>
<!-- Node17&#45;&gt;Node6 -->
<g id="edge17" class="edge">
<title>Node17&#45;&gt;Node6</title>
<path fill="none" stroke="#63b8ff" d="M504.93,-126.19C414.46,-120.88 242.3,-108.76 86.25,-85.18"/>
<polygon fill="#63b8ff" stroke="#63b8ff" points="86.96,-81.74 76.54,-83.69 85.89,-88.66 86.96,-81.74"/>
</g>
<!-- Node17&#45;&gt;Node7 -->
<g id="edge18" class="edge">
<title>Node17&#45;&gt;Node7</title>
<path fill="none" stroke="#63b8ff" d="M504.93,-124.79C424.04,-118.25 279.43,-104.93 156.88,-85 155.89,-84.84 154.89,-84.67 153.88,-84.49"/>
<polygon fill="#63b8ff" stroke="#63b8ff" points="154.95,-81.13 144.47,-82.67 153.62,-88.01 154.95,-81.13"/>
</g>
<!-- Node17&#45;&gt;Node8 -->
<g id="edge19" class="edge">
<title>Node17&#45;&gt;Node8</title>
<path fill="none" stroke="#63b8ff" d="M505.19,-128.08C411.93,-124.99 242.03,-115.26 189.88,-85 169.99,-73.46 155.54,-50.75 147.21,-34.53"/>
<polygon fill="#63b8ff" stroke="#63b8ff" points="150.56,-33.43 143.07,-25.93 144.25,-36.46 150.56,-33.43"/>
</g>
<!-- Node17&#45;&gt;Node9 -->
<g id="edge20" class="edge">
<title>Node17&#45;&gt;Node9</title>
<path fill="none" stroke="#63b8ff" d="M562.54,-120.84C553.77,-107.3 535.06,-81.1 512.88,-66 480.7,-44.09 437.88,-30.75 407.71,-23.42"/>
<polygon fill="#63b8ff" stroke="#63b8ff" points="408.82,-20.08 398.29,-21.24 407.24,-26.91 408.82,-20.08"/>
</g>
<!-- Node17&#45;&gt;Node10 -->
<g id="edge21" class="edge">
<title>Node17&#45;&gt;Node10</title>
<path fill="none" stroke="#63b8ff" d="M570.47,-120.72C574.24,-108.32 581.67,-85.08 589.88,-66 594.44,-55.39 600.33,-43.94 605.34,-34.68"/>
<polygon fill="#63b8ff" stroke="#63b8ff" points="608.37,-36.43 610.15,-25.99 602.24,-33.04 608.37,-36.43"/>
</g>
<!-- Node17&#45;&gt;Node11 -->
<g id="edge22" class="edge">
<title>Node17&#45;&gt;Node11</title>
<path fill="none" stroke="#63b8ff" d="M545.49,-120.51C524.31,-112.01 492.29,-99.15 468.32,-89.53"/>
<polygon fill="#63b8ff" stroke="#63b8ff" points="469.93,-86.4 459.35,-85.92 467.32,-92.9 469.93,-86.4"/>
</g>
<!-- Node17&#45;&gt;Node12 -->
<g id="edge23" class="edge">
<title>Node17&#45;&gt;Node12</title>
<path fill="none" stroke="#63b8ff" d="M576.63,-120.75C584.03,-113.35 594.84,-102.54 603.92,-93.45"/>
<polygon fill="#63b8ff" stroke="#63b8ff" points="606.27,-96.06 610.87,-86.51 601.32,-91.11 606.27,-96.06"/>
</g>
<!-- Node17&#45;&gt;Node13 -->
<g id="edge24" class="edge">
<title>Node17&#45;&gt;Node13</title>
<path fill="none" stroke="#63b8ff" d="M589.42,-120.51C609.61,-112.08 640.05,-99.38 663.04,-89.79"/>
<polygon fill="#63b8ff" stroke="#63b8ff" points="664.38,-93.02 672.26,-85.94 661.68,-86.56 664.38,-93.02"/>
</g>
<!-- Node17&#45;&gt;Node14 -->
<g id="edge25" class="edge">
<title>Node17&#45;&gt;Node14</title>
<path fill="none" stroke="#63b8ff" d="M603.33,-120.51C640.11,-111.18 697.55,-96.62 736.17,-86.82"/>
<polygon fill="#63b8ff" stroke="#63b8ff" points="736.72,-90.3 745.55,-84.44 735,-83.51 736.72,-90.3"/>
</g>
<!-- Node17&#45;&gt;Node15 -->
<g id="edge26" class="edge">
<title>Node17&#45;&gt;Node15</title>
<path fill="none" stroke="#63b8ff" d="M619.5,-120.53C667.07,-112.19 739.93,-99.23 813.07,-85.31"/>
<polygon fill="#63b8ff" stroke="#63b8ff" points="813.68,-88.76 822.85,-83.44 812.37,-81.88 813.68,-88.76"/>
</g>
<!-- Node17&#45;&gt;Node16 -->
<g id="edge27" class="edge">
<title>Node17&#45;&gt;Node16</title>
<path fill="none" stroke="#63b8ff" d="M630.75,-123.16C695.17,-116.18 798.4,-103.7 896.67,-85.23"/>
<polygon fill="#63b8ff" stroke="#63b8ff" points="897.04,-88.72 906.21,-83.41 895.73,-81.85 897.04,-88.72"/>
</g>
<!-- Node17&#45;&gt;Node18 -->
<g id="edge28" class="edge">
<title>Node17&#45;&gt;Node18</title>
<path fill="none" stroke="#63b8ff" d="M630.68,-123.29C733.53,-113.12 936.77,-93.02 1040.2,-82.8"/>
<polygon fill="#63b8ff" stroke="#63b8ff" points="1040.28,-86.31 1049.89,-81.84 1039.6,-79.34 1040.28,-86.31"/>
</g>
<!-- Node17&#45;&gt;Node26 -->
<g id="edge37" class="edge">
<title>Node17&#45;&gt;Node26</title>
<path fill="none" stroke="#63b8ff" d="M514.78,-120.51C460.74,-111.36 376.93,-97.17 319.16,-87.39"/>
<polygon fill="#63b8ff" stroke="#63b8ff" points="319.91,-83.96 309.47,-85.74 318.74,-90.86 319.91,-83.96"/>
</g>
<!-- Node18&#45;&gt;Node10 -->
<g id="edge29" class="edge">
<title>Node18&#45;&gt;Node10</title>
<path fill="none" stroke="#63b8ff" d="M1051.66,-67.6C1047,-67.03 1042.36,-66.49 1037.88,-66 863.54,-46.79 813.9,-76.88 644.88,-30 644.05,-29.77 643.22,-29.52 642.38,-29.25"/>
<polygon fill="#63b8ff" stroke="#63b8ff" points="643.72,-26.01 633.14,-25.48 641.08,-32.49 643.72,-26.01"/>
</g>
<!-- Node19 -->
<g id="node19" class="node">
<title>Node19</title>
<g id="a_node19"><a xlink:title=" ">
<polygon fill="#e0e0e0" stroke="#999999" points="1020.88,-24.5 924.88,-24.5 924.88,-5.5 1020.88,-5.5 1020.88,-24.5"/>
<text text-anchor="middle" x="972.88" y="-12.5" font-family="Helvetica,sans-Serif" font-size="10.00">boost/log/core.hpp</text>
</a>
</g>
</g>
<!-- Node18&#45;&gt;Node19 -->
<g id="edge30" class="edge">
<title>Node18&#45;&gt;Node19</title>
<path fill="none" stroke="#63b8ff" d="M1083.98,-65.62C1062.53,-56.04 1028.14,-40.68 1003.29,-29.58"/>
<polygon fill="#63b8ff" stroke="#63b8ff" points="1004.9,-26.47 994.34,-25.59 1002.05,-32.86 1004.9,-26.47"/>
</g>
<!-- Node20 -->
<g id="node20" class="node">
<title>Node20</title>
<g id="a_node20"><a xlink:title=" ">
<polygon fill="#e0e0e0" stroke="#999999" points="1168.38,-24.5 1039.38,-24.5 1039.38,-5.5 1168.38,-5.5 1168.38,-24.5"/>
<text text-anchor="middle" x="1103.88" y="-12.5" font-family="Helvetica,sans-Serif" font-size="10.00">boost/log/expressions.hpp</text>
</a>
</g>
</g>
<!-- Node18&#45;&gt;Node20 -->
<g id="edge31" class="edge">
<title>Node18&#45;&gt;Node20</title>
<path fill="none" stroke="#63b8ff" d="M1103.88,-65.87C1103.88,-58 1103.88,-46.1 1103.88,-35.89"/>
<polygon fill="#63b8ff" stroke="#63b8ff" points="1107.38,-36.18 1103.88,-26.18 1100.38,-36.18 1107.38,-36.18"/>
</g>
<!-- Node18&#45;&gt;Node21 -->
<g id="edge32" class="edge">
<title>Node18&#45;&gt;Node21</title>
<path fill="none" stroke="#63b8ff" d="M1156.33,-69.59C1225.01,-62.76 1349.02,-49.05 1453.88,-30 1458.01,-29.25 1462.28,-28.39 1466.55,-27.48"/>
<polygon fill="#63b8ff" stroke="#63b8ff" points="1467.28,-30.91 1476.28,-25.31 1465.75,-24.08 1467.28,-30.91"/>
</g>
<!-- Node22 -->
<g id="node22" class="node">
<title>Node22</title>
<g id="a_node22"><a xlink:title=" ">
<polygon fill="#e0e0e0" stroke="#999999" points="1295.38,-30 1186.38,-30 1186.38,0 1295.38,0 1295.38,-30"/>
<text text-anchor="start" x="1194.38" y="-18" font-family="Helvetica,sans-Serif" font-size="10.00">boost/log/utility/setup</text>
<text text-anchor="middle" x="1240.88" y="-7" font-family="Helvetica,sans-Serif" font-size="10.00">/console.hpp</text>
</a>
</g>
</g>
<!-- Node18&#45;&gt;Node22 -->
<g id="edge33" class="edge">
<title>Node18&#45;&gt;Node22</title>
<path fill="none" stroke="#63b8ff" d="M1124.69,-65.62C1143.73,-57.48 1172.53,-45.19 1196.69,-34.87"/>
<polygon fill="#63b8ff" stroke="#63b8ff" points="1197.85,-38.18 1205.67,-31.03 1195.1,-31.74 1197.85,-38.18"/>
</g>
<!-- Node23 -->
<g id="node23" class="node">
<title>Node23</title>
<g id="a_node23"><a xlink:title=" ">
<polygon fill="#e0e0e0" stroke="#999999" points="1444.38,-30 1313.38,-30 1313.38,0 1444.38,0 1444.38,-30"/>
<text text-anchor="start" x="1321.38" y="-18" font-family="Helvetica,sans-Serif" font-size="10.00">boost/log/sources/severity</text>
<text text-anchor="middle" x="1378.88" y="-7" font-family="Helvetica,sans-Serif" font-size="10.00">_channel_logger.hpp</text>
</a>
</g>
</g>
<!-- Node18&#45;&gt;Node23 -->
<g id="edge34" class="edge">
<title>Node18&#45;&gt;Node23</title>
<path fill="none" stroke="#63b8ff" d="M1145.95,-65.55C1187.28,-56.76 1251.32,-43.14 1301.8,-32.4"/>
<polygon fill="#63b8ff" stroke="#63b8ff" points="1302.47,-35.83 1311.52,-30.33 1301.01,-28.99 1302.47,-35.83"/>
</g>
<!-- Node24 -->
<g id="node24" class="node">
<title>Node24</title>
<g id="a_node24"><a xlink:title=" ">
<polygon fill="#e0e0e0" stroke="#999999" points="767.38,-30 654.38,-30 654.38,0 767.38,0 767.38,-30"/>
<text text-anchor="start" x="662.38" y="-18" font-family="Helvetica,sans-Serif" font-size="10.00">boost/log/support/date</text>
<text text-anchor="middle" x="710.88" y="-7" font-family="Helvetica,sans-Serif" font-size="10.00">_time.hpp</text>
</a>
</g>
</g>
<!-- Node18&#45;&gt;Node24 -->
<g id="edge35" class="edge">
<title>Node18&#45;&gt;Node24</title>
<path fill="none" stroke="#63b8ff" d="M1051.69,-67.65C973.06,-57.29 828.73,-38.14 778.61,-30.29"/>
<polygon fill="#63b8ff" stroke="#63b8ff" points="779.48,-26.89 769.04,-28.72 778.34,-33.8 779.48,-26.89"/>
</g>
<!-- Node25 -->
<g id="node25" class="node">
<title>Node25</title>
<g id="a_node25"><a xlink:title=" ">
<polygon fill="#e0e0e0" stroke="#999999" points="906.38,-30 785.38,-30 785.38,0 906.38,0 906.38,-30"/>
<text text-anchor="start" x="793.38" y="-18" font-family="Helvetica,sans-Serif" font-size="10.00">boost/log/utility/setup</text>
<text text-anchor="middle" x="845.88" y="-7" font-family="Helvetica,sans-Serif" font-size="10.00">/common_attributes.hpp</text>
</a>
</g>
</g>
<!-- Node18&#45;&gt;Node25 -->
<g id="edge36" class="edge">
<title>Node18&#45;&gt;Node25</title>
<path fill="none" stroke="#63b8ff" d="M1064.41,-65.55C1025.47,-56.72 965.05,-43.02 917.6,-32.26"/>
<polygon fill="#63b8ff" stroke="#63b8ff" points="918.45,-28.87 907.93,-30.07 916.91,-35.69 918.45,-28.87"/>
</g>
<!-- Node26&#45;&gt;Node8 -->
<g id="edge38" class="edge">
<title>Node26&#45;&gt;Node8</title>
<path fill="none" stroke="#63b8ff" d="M237.26,-65.62C218.52,-56.17 188.63,-41.09 166.7,-30.03"/>
<polygon fill="#63b8ff" stroke="#63b8ff" points="168.52,-27.03 158.01,-25.65 165.37,-33.28 168.52,-27.03"/>
</g>
<!-- Node26&#45;&gt;Node9 -->
<g id="edge39" class="edge">
<title>Node26&#45;&gt;Node9</title>
<path fill="none" stroke="#63b8ff" d="M272.5,-65.62C291.23,-56.17 321.13,-41.09 343.06,-30.03"/>
<polygon fill="#63b8ff" stroke="#63b8ff" points="344.39,-33.28 351.74,-25.65 341.24,-27.03 344.39,-33.28"/>
</g>
<!-- Node26&#45;&gt;Node10 -->
<g id="edge41" class="edge">
<title>Node26&#45;&gt;Node10</title>
<path fill="none" stroke="#63b8ff" d="M310.1,-65.55C386.57,-53.16 522.25,-31.17 583.86,-21.19"/>
<polygon fill="#63b8ff" stroke="#63b8ff" points="584.35,-24.66 593.66,-19.6 583.23,-17.75 584.35,-24.66"/>
</g>
<!-- Node27 -->
<g id="node27" class="node">
<title>Node27</title>
<g id="a_node27"><a xlink:title=" ">
<polygon fill="#e0e0e0" stroke="#999999" points="327.38,-24.5 268.38,-24.5 268.38,-5.5 327.38,-5.5 327.38,-24.5"/>
<text text-anchor="middle" x="297.88" y="-12.5" font-family="Helvetica,sans-Serif" font-size="10.00">stdexcept</text>
</a>
</g>
</g>
<!-- Node26&#45;&gt;Node27 -->
<g id="edge40" class="edge">
<title>Node26&#45;&gt;Node27</title>
<path fill="none" stroke="#63b8ff" d="M261.22,-65.87C267.38,-57.49 276.92,-44.51 284.73,-33.89"/>
<polygon fill="#63b8ff" stroke="#63b8ff" points="287.51,-36.02 290.61,-25.89 281.87,-31.87 287.51,-36.02"/>
</g>
<!-- Node28 -->
<g id="node28" class="node">
<title>Node28</title>
<g id="a_node28"><a xlink:title=" ">
<polygon fill="#e0e0e0" stroke="#999999" points="249.88,-24.5 183.88,-24.5 183.88,-5.5 249.88,-5.5 249.88,-24.5"/>
<text text-anchor="middle" x="216.88" y="-12.5" font-family="Helvetica,sans-Serif" font-size="10.00">string_view</text>
</a>
</g>
</g>
<!-- Node26&#45;&gt;Node28 -->
<g id="edge42" class="edge">
<title>Node26&#45;&gt;Node28</title>
<path fill="none" stroke="#63b8ff" d="M249.27,-65.87C243.88,-57.57 235.57,-44.78 228.72,-34.22"/>
<polygon fill="#63b8ff" stroke="#63b8ff" points="231.72,-32.42 223.33,-25.94 225.85,-36.23 231.72,-32.42"/>
</g>
<!-- Node29&#45;&gt;Node4 -->
<g id="edge48" class="edge">
<title>Node29&#45;&gt;Node4</title>
<path fill="none" stroke="#63b8ff" d="M1035.62,-230.51C1012.33,-221.88 976.94,-208.76 950.85,-199.09"/>
<polygon fill="#63b8ff" stroke="#63b8ff" points="952.32,-195.9 941.72,-195.71 949.88,-202.47 952.32,-195.9"/>
</g>
<!-- Node29&#45;&gt;Node10 -->
<g id="edge49" class="edge">
<title>Node29&#45;&gt;Node10</title>
<path fill="none" stroke="#63b8ff" d="M1058.99,-230.78C1055.53,-201.74 1040.15,-107.72 982.88,-66 921.83,-21.52 717.52,-50.72 644.88,-30 644.05,-29.76 643.22,-29.51 642.39,-29.23"/>
<polygon fill="#63b8ff" stroke="#63b8ff" points="643.73,-26 633.15,-25.44 641.07,-32.47 643.73,-26"/>
</g>
<!-- Node29&#45;&gt;Node18 -->
<g id="edge50" class="edge">
<title>Node29&#45;&gt;Node18</title>
<path fill="none" stroke="#63b8ff" d="M1062.24,-230.74C1069.08,-205.42 1088.97,-131.72 1098.57,-96.16"/>
<polygon fill="#63b8ff" stroke="#63b8ff" points="1101.88,-97.33 1101.11,-86.77 1095.12,-95.51 1101.88,-97.33"/>
</g>
<!-- Node30 -->
<g id="node30" class="node">
<title>Node30</title>
<g id="a_node30"><a xlink:title=" ">
<polygon fill="#e0e0e0" stroke="#999999" points="1139.38,-195 1090.38,-195 1090.38,-176 1139.38,-176 1139.38,-195"/>
<text text-anchor="middle" x="1114.88" y="-183" font-family="Helvetica,sans-Serif" font-size="10.00">cstddef</text>
</a>
</g>
</g>
<!-- Node29&#45;&gt;Node30 -->
<g id="edge47" class="edge">
<title>Node29&#45;&gt;Node30</title>
<path fill="none" stroke="#63b8ff" d="M1068.96,-230.75C1076.72,-223.27 1088.09,-212.32 1097.58,-203.17"/>
<polygon fill="#63b8ff" stroke="#63b8ff" points="1099.74,-205.95 1104.51,-196.49 1094.88,-200.91 1099.74,-205.95"/>
</g>
<!-- Node31&#45;&gt;Node4 -->
<g id="edge52" class="edge">
<title>Node31&#45;&gt;Node4</title>
<path fill="none" stroke="#63b8ff" d="M916.88,-230.75C916.88,-224.27 916.88,-215.16 916.88,-206.9"/>
<polygon fill="#63b8ff" stroke="#63b8ff" points="920.38,-206.96 916.88,-196.96 913.38,-206.96 920.38,-206.96"/>
</g>
</g>
</svg>
        <g id="navigator" transform="translate(0 0)" fill="#404254">
                <rect fill="#f2f5e9" fill-opacity="0.5" stroke="#606060" stroke-width=".5" x="0" y="0" width="60" height="60"/>
                <use id="zoomplus" xlink:href="#zoomPlus" x="17" y="9" onmousedown="handleZoom(evt,'in')"/>
                <use id="zoomminus" xlink:href="#zoomMin" x="42" y="9" onmousedown="handleZoom(evt,'out')"/>
                <use id="reset" xlink:href="#resetDef" x="30" y="36" onmousedown="handleReset()"/>
                <g id="arrowUp" xlink:href="#dirArrow" transform="translate(30 24)" onmousedown="handlePan(0,-1)">
                  <use xlink:href="#rim" fill="#404040">
                        <set attributeName="fill" to="#808080" begin="arrowUp.mouseover" end="arrowUp.mouseout"/>
                  </use>
                  <path fill="none" stroke="white" stroke-width="1.5" d="M0,-3.0v7 M-2.5,-0.5L0,-3.0L2.5,-0.5"/>
                </g>
                <g id="arrowRight" xlink:href="#dirArrow" transform="rotate(90) translate(36 -43)" onmousedown="handlePan(1,0)">
                  <use xlink:href="#rim" fill="#404040">
                        <set attributeName="fill" to="#808080" begin="arrowRight.mouseover" end="arrowRight.mouseout"/>
                  </use>
                  <path fill="none" stroke="white" stroke-width="1.5" d="M0,-3.0v7 M-2.5,-0.5L0,-3.0L2.5,-0.5"/>
                </g>
                <g id="arrowDown" xlink:href="#dirArrow" transform="rotate(180) translate(-30 -48)" onmousedown="handlePan(0,1)">
                  <use xlink:href="#rim" fill="#404040">
                        <set attributeName="fill" to="#808080" begin="arrowDown.mouseover" end="arrowDown.mouseout"/>
                  </use>
                  <path fill="none" stroke="white" stroke-width="1.5" d="M0,-3.0v7 M-2.5,-0.5L0,-3.0L2.5,-0.5"/>
                </g>
                <g id="arrowLeft" xlink:href="#dirArrow" transform="rotate(270) translate(-36 17)" onmousedown="handlePan(-1,0)">
                  <use xlink:href="#rim" fill="#404040">
                        <set attributeName="fill" to="#808080" begin="arrowLeft.mouseover" end="arrowLeft.mouseout"/>
                  </use>
                  <path fill="none" stroke="white" stroke-width="1.5" d="M0,-3.0v7 M-2.5,-0.5L0,-3.0L2.5,-0.5"/>
                </g>
        </g>
        <svg viewBox="0 0 15 15" width="100%" height="30px" preserveAspectRatio="xMaxYMin meet">
         <g id="arrow_out" transform="scale(0.3 0.3)">
          <a xlink:href="_uio_axi_vdma_if_8cpp__incl_org.svg" target="_base">
           <rect id="button" ry="5" rx="5" y="6" x="6" height="38" width="38"
                fill="#f2f5e9" fill-opacity="0.5" stroke="#606060" stroke-width="1.0"/>
           <path id="arrow"
             d="M 11.500037,31.436501 C 11.940474,20.09759 22.043105,11.32322 32.158766,21.979434 L 37.068811,17.246167 C 37.068811,17.246167 37.088388,32 37.088388,32 L 22.160133,31.978069 C 22.160133,31.978069 26.997745,27.140456 26.997745,27.140456 C 18.528582,18.264221 13.291696,25.230495 11.500037,31.436501 z"
             style="fill:#404040;"/>
          </a>
         </g>
        </svg>
</svg>
