<?xml version="1.0" encoding="UTF-8" standalone="no"?>
<!DOCTYPE svg PUBLIC "-//W3C//DTD SVG 1.1//EN"
 "http://www.w3.org/Graphics/SVG/1.1/DTD/svg11.dtd">
<!-- Generated by graphviz version 7.0.5 (20221223.1930)
 -->
<!-- Title: UioAxiDmaIf.cpp Pages: 1 -->
<svg width="1839pt" height="368pt"
 viewBox="0.00 0.00 1839.00 368.00" xmlns="http://www.w3.org/2000/svg" xmlns:xlink="http://www.w3.org/1999/xlink">
<g id="graph0" class="graph" transform="scale(1 1) rotate(0) translate(4 364)">
<title>UioAxiDmaIf.cpp</title>
<!-- Node1 -->
<g id="node1" class="node">
<title>Node1</title>
<g id="a_node1"><a xlink:title=" ">
<polygon fill="#999999" stroke="#666666" points="1007,-360 918,-360 918,-341 1007,-341 1007,-360"/>
<text text-anchor="middle" x="962.5" y="-348" font-family="Helvetica,sans-Serif" font-size="10.00">UioAxiDmaIf.cpp</text>
</a>
</g>
</g>
<!-- Node2 -->
<g id="node2" class="node">
<title>Node2</title>
<g id="a_node2"><a xlink:href="_uio_axi_dma_if_8hpp.html" target="_top" xlink:title=" ">
<polygon fill="white" stroke="#666666" points="712.5,-305 588.5,-305 588.5,-286 712.5,-286 712.5,-305"/>
<text text-anchor="middle" x="650.5" y="-293" font-family="Helvetica,sans-Serif" font-size="10.00">udmaio/UioAxiDmaIf.hpp</text>
</a>
</g>
</g>
<!-- Node1&#45;&gt;Node2 -->
<g id="edge1" class="edge">
<title>Node1&#45;&gt;Node2</title>
<path fill="none" stroke="#63b8ff" d="M917.8,-341.91C864.61,-332.87 775.41,-317.72 714.81,-307.42"/>
<polygon fill="#63b8ff" stroke="#63b8ff" points="715.41,-303.98 704.96,-305.75 714.24,-310.88 715.41,-303.98"/>
</g>
<!-- Node3 -->
<g id="node3" class="node">
<title>Node3</title>
<g id="a_node3"><a xlink:title=" ">
<polygon fill="#e0e0e0" stroke="#999999" points="882.5,-195 836.5,-195 836.5,-176 882.5,-176 882.5,-195"/>
<text text-anchor="middle" x="859.5" y="-183" font-family="Helvetica,sans-Serif" font-size="10.00">cstdint</text>
</a>
</g>
</g>
<!-- Node1&#45;&gt;Node3 -->
<g id="edge53" class="edge">
<title>Node1&#45;&gt;Node3</title>
<path fill="none" stroke="#63b8ff" d="M956.96,-340.74C940.75,-315.09 893.17,-239.78 871.05,-204.78"/>
<polygon fill="#63b8ff" stroke="#63b8ff" points="874.17,-203.17 865.87,-196.59 868.26,-206.91 874.17,-203.17"/>
</g>
<!-- Node30 -->
<g id="node30" class="node">
<title>Node30</title>
<g id="a_node30"><a xlink:title=" ">
<polygon fill="#e0e0e0" stroke="#999999" points="842,-24.5 783,-24.5 783,-5.5 842,-5.5 842,-24.5"/>
<text text-anchor="middle" x="812.5" y="-12.5" font-family="Helvetica,sans-Serif" font-size="10.00">stdexcept</text>
</a>
</g>
</g>
<!-- Node1&#45;&gt;Node30 -->
<g id="edge55" class="edge">
<title>Node1&#45;&gt;Node30</title>
<path fill="none" stroke="#63b8ff" d="M1007.44,-342.8C1090.69,-329.11 1260.5,-294.67 1260.5,-241.5 1260.5,-241.5 1260.5,-241.5 1260.5,-184.5 1260.5,-103.32 1195.63,-99.1 1121.5,-66 1012.17,-17.18 971.14,-57.05 854.5,-30 852.22,-29.47 849.89,-28.87 847.55,-28.22"/>
<polygon fill="#63b8ff" stroke="#63b8ff" points="848.74,-24.93 838.16,-25.37 846.71,-31.62 848.74,-24.93"/>
</g>
<!-- Node33 -->
<g id="node33" class="node">
<title>Node33</title>
<g id="a_node33"><a xlink:title=" ">
<polygon fill="#e0e0e0" stroke="#999999" points="1020,-305 991,-305 991,-286 1020,-286 1020,-305"/>
<text text-anchor="middle" x="1005.5" y="-293" font-family="Helvetica,sans-Serif" font-size="10.00">ios</text>
</a>
</g>
</g>
<!-- Node1&#45;&gt;Node33 -->
<g id="edge54" class="edge">
<title>Node1&#45;&gt;Node33</title>
<path fill="none" stroke="#63b8ff" d="M969.6,-340.75C975.42,-333.58 983.83,-323.2 991.06,-314.3"/>
<polygon fill="#63b8ff" stroke="#63b8ff" points="993.71,-316.59 997.29,-306.62 988.27,-312.18 993.71,-316.59"/>
</g>
<!-- Node34 -->
<g id="node34" class="node">
<title>Node34</title>
<g id="a_node34"><a xlink:href="_frame_format_8hpp.html" target="_top" xlink:title=" ">
<polygon fill="white" stroke="#666666" points="1053.5,-250 925.5,-250 925.5,-231 1053.5,-231 1053.5,-250"/>
<text text-anchor="middle" x="989.5" y="-238" font-family="Helvetica,sans-Serif" font-size="10.00">udmaio/FrameFormat.hpp</text>
</a>
</g>
</g>
<!-- Node1&#45;&gt;Node34 -->
<g id="edge56" class="edge">
<title>Node1&#45;&gt;Node34</title>
<path fill="none" stroke="#63b8ff" d="M964.71,-340.66C969,-323.5 978.56,-285.26 984.48,-261.6"/>
<polygon fill="#63b8ff" stroke="#63b8ff" points="987.86,-262.48 986.89,-251.93 981.07,-260.78 987.86,-262.48"/>
</g>
<!-- Node2&#45;&gt;Node3 -->
<g id="edge2" class="edge">
<title>Node2&#45;&gt;Node3</title>
<path fill="none" stroke="#63b8ff" d="M712.7,-286.74C760.77,-279.53 822.12,-267.3 840.5,-250 852.31,-238.89 856.87,-220.78 858.59,-206.74"/>
<polygon fill="#63b8ff" stroke="#63b8ff" points="862.08,-207.05 859.38,-196.81 855.1,-206.5 862.08,-207.05"/>
</g>
<!-- Node4 -->
<g id="node4" class="node">
<title>Node4</title>
<g id="a_node4"><a xlink:title=" ">
<polygon fill="#e0e0e0" stroke="#999999" points="547.5,-250 509.5,-250 509.5,-231 547.5,-231 547.5,-250"/>
<text text-anchor="middle" x="528.5" y="-238" font-family="Helvetica,sans-Serif" font-size="10.00">tuple</text>
</a>
</g>
</g>
<!-- Node2&#45;&gt;Node4 -->
<g id="edge3" class="edge">
<title>Node2&#45;&gt;Node4</title>
<path fill="none" stroke="#63b8ff" d="M629.8,-285.51C610.15,-276.97 580.38,-264.04 558.2,-254.4"/>
<polygon fill="#63b8ff" stroke="#63b8ff" points="559.64,-251.21 549.07,-250.44 556.85,-257.63 559.64,-251.21"/>
</g>
<!-- Node5 -->
<g id="node5" class="node">
<title>Node5</title>
<g id="a_node5"><a xlink:title=" ">
<polygon fill="#e0e0e0" stroke="#999999" points="65,-85 0,-85 0,-66 65,-66 65,-85"/>
<text text-anchor="middle" x="32.5" y="-73" font-family="Helvetica,sans-Serif" font-size="10.00">sys/types.h</text>
</a>
</g>
</g>
<!-- Node2&#45;&gt;Node5 -->
<g id="edge4" class="edge">
<title>Node2&#45;&gt;Node5</title>
<path fill="none" stroke="#63b8ff" d="M588.1,-285.76C451.99,-265.54 134.26,-211.72 55.5,-140 43.16,-128.76 37.43,-110.4 34.78,-96.3"/>
<polygon fill="#63b8ff" stroke="#63b8ff" points="38.3,-96.17 33.37,-86.79 31.37,-97.2 38.3,-96.17"/>
</g>
<!-- Node6 -->
<g id="node6" class="node">
<title>Node6</title>
<g id="a_node6"><a xlink:href="_reg_accessor_8hpp.html" target="_top" xlink:title=" ">
<polygon fill="white" stroke="#666666" points="697,-250 604,-250 604,-231 697,-231 697,-250"/>
<text text-anchor="middle" x="650.5" y="-238" font-family="Helvetica,sans-Serif" font-size="10.00">RegAccessor.hpp</text>
</a>
</g>
</g>
<!-- Node2&#45;&gt;Node6 -->
<g id="edge5" class="edge">
<title>Node2&#45;&gt;Node6</title>
<path fill="none" stroke="#63b8ff" d="M650.5,-285.75C650.5,-279.27 650.5,-270.16 650.5,-261.9"/>
<polygon fill="#63b8ff" stroke="#63b8ff" points="654,-261.96 650.5,-251.96 647,-261.96 654,-261.96"/>
</g>
<!-- Node7 -->
<g id="node7" class="node">
<title>Node7</title>
<g id="a_node7"><a xlink:href="_uio_if_8hpp.html" target="_top" xlink:title=" ">
<polygon fill="white" stroke="#666666" points="620.5,-195 530.5,-195 530.5,-176 620.5,-176 620.5,-195"/>
<text text-anchor="middle" x="575.5" y="-183" font-family="Helvetica,sans-Serif" font-size="10.00">udmaio/UioIf.hpp</text>
</a>
</g>
</g>
<!-- Node2&#45;&gt;Node7 -->
<g id="edge50" class="edge">
<title>Node2&#45;&gt;Node7</title>
<path fill="none" stroke="#63b8ff" d="M634.51,-285.55C621.91,-277.72 604.8,-265.22 594.5,-250 585.7,-237 580.88,-219.83 578.3,-206.62"/>
<polygon fill="#63b8ff" stroke="#63b8ff" points="581.79,-206.22 576.71,-196.92 574.88,-207.36 581.79,-206.22"/>
</g>
<!-- Node32 -->
<g id="node32" class="node">
<title>Node32</title>
<g id="a_node32"><a xlink:href="_axi_dma_8hpp.html" target="_top" xlink:title=" ">
<polygon fill="white" stroke="#666666" points="831.5,-250 715.5,-250 715.5,-231 831.5,-231 831.5,-250"/>
<text text-anchor="middle" x="773.5" y="-238" font-family="Helvetica,sans-Serif" font-size="10.00">udmaio/rdl/AxiDma.hpp</text>
</a>
</g>
</g>
<!-- Node2&#45;&gt;Node32 -->
<g id="edge51" class="edge">
<title>Node2&#45;&gt;Node32</title>
<path fill="none" stroke="#63b8ff" d="M671.37,-285.51C690.92,-277.08 720.4,-264.38 742.67,-254.79"/>
<polygon fill="#63b8ff" stroke="#63b8ff" points="743.75,-258.13 751.55,-250.96 740.98,-251.7 743.75,-258.13"/>
</g>
<!-- Node6&#45;&gt;Node3 -->
<g id="edge6" class="edge">
<title>Node6&#45;&gt;Node3</title>
<path fill="none" stroke="#63b8ff" d="M685.95,-230.51C724.79,-220.66 786.67,-204.97 825.09,-195.23"/>
<polygon fill="#63b8ff" stroke="#63b8ff" points="825.91,-198.63 834.74,-192.78 824.19,-191.84 825.91,-198.63"/>
</g>
<!-- Node6&#45;&gt;Node7 -->
<g id="edge7" class="edge">
<title>Node6&#45;&gt;Node7</title>
<path fill="none" stroke="#63b8ff" d="M637.78,-230.51C626.72,-222.7 610.46,-211.21 597.33,-201.93"/>
<polygon fill="#63b8ff" stroke="#63b8ff" points="599.46,-199.14 589.27,-196.23 595.42,-204.86 599.46,-199.14"/>
</g>
<!-- Node7&#45;&gt;Node5 -->
<g id="edge17" class="edge">
<title>Node7&#45;&gt;Node5</title>
<path fill="none" stroke="#63b8ff" d="M530.36,-185.09C423.07,-185.77 156.02,-182.96 79.5,-140 61.77,-130.05 48.82,-110.33 41.05,-95.5"/>
<polygon fill="#63b8ff" stroke="#63b8ff" points="44.3,-94.18 36.79,-86.71 38,-97.23 44.3,-94.18"/>
</g>
<!-- Node8 -->
<g id="node8" class="node">
<title>Node8</title>
<g id="a_node8"><a xlink:title=" ">
<polygon fill="#e0e0e0" stroke="#999999" points="452.5,-85 392.5,-85 392.5,-66 452.5,-66 452.5,-85"/>
<text text-anchor="middle" x="422.5" y="-73" font-family="Helvetica,sans-Serif" font-size="10.00">filesystem</text>
</a>
</g>
</g>
<!-- Node7&#45;&gt;Node8 -->
<g id="edge8" class="edge">
<title>Node7&#45;&gt;Node8</title>
<path fill="none" stroke="#63b8ff" d="M560.01,-175.61C545.21,-166.95 522.42,-153.2 503.5,-140 481.57,-124.7 457.61,-105.59 441.47,-92.35"/>
<polygon fill="#63b8ff" stroke="#63b8ff" points="444.06,-89.95 434.12,-86.28 439.6,-95.35 444.06,-89.95"/>
</g>
<!-- Node9 -->
<g id="node9" class="node">
<title>Node9</title>
<g id="a_node9"><a xlink:title=" ">
<polygon fill="#e0e0e0" stroke="#999999" points="828.5,-85 778.5,-85 778.5,-66 828.5,-66 828.5,-85"/>
<text text-anchor="middle" x="803.5" y="-73" font-family="Helvetica,sans-Serif" font-size="10.00">fstream</text>
</a>
</g>
</g>
<!-- Node7&#45;&gt;Node9 -->
<g id="edge9" class="edge">
<title>Node7&#45;&gt;Node9</title>
<path fill="none" stroke="#63b8ff" d="M594.16,-175.66C633.82,-156.87 726.78,-112.84 774.34,-90.31"/>
<polygon fill="#63b8ff" stroke="#63b8ff" points="775.68,-93.55 783.22,-86.11 772.68,-87.23 775.68,-93.55"/>
</g>
<!-- Node10 -->
<g id="node10" class="node">
<title>Node10</title>
<g id="a_node10"><a xlink:title=" ">
<polygon fill="#e0e0e0" stroke="#999999" points="609.5,-24.5 555.5,-24.5 555.5,-5.5 609.5,-5.5 609.5,-24.5"/>
<text text-anchor="middle" x="582.5" y="-12.5" font-family="Helvetica,sans-Serif" font-size="10.00">iostream</text>
</a>
</g>
</g>
<!-- Node7&#45;&gt;Node10 -->
<g id="edge10" class="edge">
<title>Node7&#45;&gt;Node10</title>
<path fill="none" stroke="#63b8ff" d="M530.21,-179.74C410.25,-166.27 97.08,-124.97 150.5,-66 177.79,-35.88 474.32,-36.11 514.5,-30 524.07,-28.55 534.33,-26.62 543.91,-24.67"/>
<polygon fill="#63b8ff" stroke="#63b8ff" points="544.61,-28.1 553.67,-22.62 543.17,-21.25 544.61,-28.1"/>
</g>
<!-- Node11 -->
<g id="node11" class="node">
<title>Node11</title>
<g id="a_node11"><a xlink:title=" ">
<polygon fill="#e0e0e0" stroke="#999999" points="506,-24.5 455,-24.5 455,-5.5 506,-5.5 506,-24.5"/>
<text text-anchor="middle" x="480.5" y="-12.5" font-family="Helvetica,sans-Serif" font-size="10.00">memory</text>
</a>
</g>
</g>
<!-- Node7&#45;&gt;Node11 -->
<g id="edge11" class="edge">
<title>Node7&#45;&gt;Node11</title>
<path fill="none" stroke="#63b8ff" d="M530.28,-182.48C444.18,-178.08 260.13,-165.89 202.5,-140 168.9,-124.91 155.61,-118.6 140.5,-85 137.04,-77.3 134.98,-72.39 140.5,-66 179.31,-21.07 363.29,-15.78 443.25,-15.65"/>
<polygon fill="#63b8ff" stroke="#63b8ff" points="443.19,-19.15 453.19,-15.66 443.2,-12.15 443.19,-19.15"/>
</g>
<!-- Node12 -->
<g id="node12" class="node">
<title>Node12</title>
<g id="a_node12"><a xlink:title=" ">
<polygon fill="#e0e0e0" stroke="#999999" points="904,-24.5 863,-24.5 863,-5.5 904,-5.5 904,-24.5"/>
<text text-anchor="middle" x="883.5" y="-12.5" font-family="Helvetica,sans-Serif" font-size="10.00">string</text>
</a>
</g>
</g>
<!-- Node7&#45;&gt;Node12 -->
<g id="edge12" class="edge">
<title>Node7&#45;&gt;Node12</title>
<path fill="none" stroke="#63b8ff" d="M620.84,-183.39C740.1,-179.4 1057.73,-161.67 1121.5,-85 1126.9,-78.51 1126.94,-72.46 1121.5,-66 1061.08,5.77 1003.02,-58.08 913.5,-30 912.7,-29.75 911.89,-29.48 911.08,-29.2"/>
<polygon fill="#63b8ff" stroke="#63b8ff" points="912.62,-26.05 902.04,-25.52 909.98,-32.53 912.62,-26.05"/>
</g>
<!-- Node13 -->
<g id="node13" class="node">
<title>Node13</title>
<g id="a_node13"><a xlink:title=" ">
<polygon fill="#e0e0e0" stroke="#999999" points="984,-85 847,-85 847,-66 984,-66 984,-85"/>
<text text-anchor="middle" x="915.5" y="-73" font-family="Helvetica,sans-Serif" font-size="10.00">boost/core/noncopyable.hpp</text>
</a>
</g>
</g>
<!-- Node7&#45;&gt;Node13 -->
<g id="edge13" class="edge">
<title>Node7&#45;&gt;Node13</title>
<path fill="none" stroke="#63b8ff" d="M603.61,-175.57C664.2,-156.33 807.19,-110.9 876.49,-88.89"/>
<polygon fill="#63b8ff" stroke="#63b8ff" points="877.44,-92.26 885.91,-85.9 875.32,-85.59 877.44,-92.26"/>
</g>
<!-- Node14 -->
<g id="node14" class="node">
<title>Node14</title>
<g id="a_node14"><a xlink:title=" ">
<polygon fill="#e0e0e0" stroke="#999999" points="1045,-85 1002,-85 1002,-66 1045,-66 1045,-85"/>
<text text-anchor="middle" x="1023.5" y="-73" font-family="Helvetica,sans-Serif" font-size="10.00">fcntl.h</text>
</a>
</g>
</g>
<!-- Node7&#45;&gt;Node14 -->
<g id="edge14" class="edge">
<title>Node7&#45;&gt;Node14</title>
<path fill="none" stroke="#63b8ff" d="M615.7,-175.53C688.55,-159.14 847.44,-122.8 990.84,-85.62"/>
<polygon fill="#63b8ff" stroke="#63b8ff" points="991.31,-89.11 1000.11,-83.21 989.55,-82.34 991.31,-89.11"/>
</g>
<!-- Node15 -->
<g id="node15" class="node">
<title>Node15</title>
<g id="a_node15"><a xlink:title=" ">
<polygon fill="#e0e0e0" stroke="#999999" points="229,-85 160,-85 160,-66 229,-66 229,-85"/>
<text text-anchor="middle" x="194.5" y="-73" font-family="Helvetica,sans-Serif" font-size="10.00">sys/mman.h</text>
</a>
</g>
</g>
<!-- Node7&#45;&gt;Node15 -->
<g id="edge15" class="edge">
<title>Node7&#45;&gt;Node15</title>
<path fill="none" stroke="#63b8ff" d="M530.48,-175.53C490.95,-167.33 432.03,-154.33 381.5,-140 327.54,-124.69 266.19,-103.02 228.92,-89.37"/>
<polygon fill="#63b8ff" stroke="#63b8ff" points="230.18,-86.1 219.59,-85.93 227.76,-92.67 230.18,-86.1"/>
</g>
<!-- Node16 -->
<g id="node16" class="node">
<title>Node16</title>
<g id="a_node16"><a xlink:title=" ">
<polygon fill="#e0e0e0" stroke="#999999" points="306,-85 247,-85 247,-66 306,-66 306,-85"/>
<text text-anchor="middle" x="276.5" y="-73" font-family="Helvetica,sans-Serif" font-size="10.00">sys/stat.h</text>
</a>
</g>
</g>
<!-- Node7&#45;&gt;Node16 -->
<g id="edge16" class="edge">
<title>Node7&#45;&gt;Node16</title>
<path fill="none" stroke="#63b8ff" d="M544,-175.53C514.86,-167.04 470.44,-153.6 432.5,-140 388.42,-124.2 338.45,-103.33 307.21,-89.9"/>
<polygon fill="#63b8ff" stroke="#63b8ff" points="308.93,-86.84 298.37,-86.09 306.16,-93.26 308.93,-86.84"/>
</g>
<!-- Node17 -->
<g id="node17" class="node">
<title>Node17</title>
<g id="a_node17"><a xlink:title=" ">
<polygon fill="#e0e0e0" stroke="#999999" points="374.5,-85 324.5,-85 324.5,-66 374.5,-66 374.5,-85"/>
<text text-anchor="middle" x="349.5" y="-73" font-family="Helvetica,sans-Serif" font-size="10.00">unistd.h</text>
</a>
</g>
</g>
<!-- Node7&#45;&gt;Node17 -->
<g id="edge18" class="edge">
<title>Node7&#45;&gt;Node17</title>
<path fill="none" stroke="#63b8ff" d="M554.46,-175.63C533.92,-166.88 501.86,-152.96 474.5,-140 440.24,-123.77 401.4,-103.78 376.23,-90.62"/>
<polygon fill="#63b8ff" stroke="#63b8ff" points="378.16,-87.68 367.68,-86.13 374.91,-93.87 378.16,-87.68"/>
</g>
<!-- Node18 -->
<g id="node18" class="node">
<title>Node18</title>
<g id="a_node18"><a xlink:href="_hw_accessor_8hpp.html" target="_top" xlink:title=" ">
<polygon fill="white" stroke="#666666" points="638,-140 513,-140 513,-121 638,-121 638,-140"/>
<text text-anchor="middle" x="575.5" y="-128" font-family="Helvetica,sans-Serif" font-size="10.00">udmaio/HwAccessor.hpp</text>
</a>
</g>
</g>
<!-- Node7&#45;&gt;Node18 -->
<g id="edge19" class="edge">
<title>Node7&#45;&gt;Node18</title>
<path fill="none" stroke="#63b8ff" d="M575.5,-175.75C575.5,-169.27 575.5,-160.16 575.5,-151.9"/>
<polygon fill="#63b8ff" stroke="#63b8ff" points="579,-151.96 575.5,-141.96 572,-151.96 579,-151.96"/>
</g>
<!-- Node21 -->
<g id="node21" class="node">
<title>Node21</title>
<g id="a_node21"><a xlink:href="_logging_8hpp.html" target="_top" xlink:title=" ">
<polygon fill="white" stroke="#666666" points="1348.5,-85 1244.5,-85 1244.5,-66 1348.5,-66 1348.5,-85"/>
<text text-anchor="middle" x="1296.5" y="-73" font-family="Helvetica,sans-Serif" font-size="10.00">udmaio/Logging.hpp</text>
</a>
</g>
</g>
<!-- Node7&#45;&gt;Node21 -->
<g id="edge48" class="edge">
<title>Node7&#45;&gt;Node21</title>
<path fill="none" stroke="#63b8ff" d="M620.81,-183.16C739.75,-179.3 1058.65,-166.7 1160.5,-140 1201.71,-129.2 1245.74,-106.3 1272.19,-91.16"/>
<polygon fill="#63b8ff" stroke="#63b8ff" points="1273.89,-94.22 1280.76,-86.15 1270.36,-88.17 1273.89,-94.22"/>
</g>
<!-- Node29 -->
<g id="node29" class="node">
<title>Node29</title>
<g id="a_node29"><a xlink:href="_uio_config_8hpp.html" target="_top" xlink:title=" ">
<polygon fill="white" stroke="#666666" points="722,-85 611,-85 611,-66 722,-66 722,-85"/>
<text text-anchor="middle" x="666.5" y="-73" font-family="Helvetica,sans-Serif" font-size="10.00">udmaio/UioConfig.hpp</text>
</a>
</g>
</g>
<!-- Node7&#45;&gt;Node29 -->
<g id="edge49" class="edge">
<title>Node7&#45;&gt;Node29</title>
<path fill="none" stroke="#63b8ff" d="M597.68,-175.61C613.4,-168.25 633.87,-156.34 646.5,-140 656.25,-127.39 661.3,-109.93 663.88,-96.52"/>
<polygon fill="#63b8ff" stroke="#63b8ff" points="667.33,-97.1 665.44,-86.67 660.42,-96 667.33,-97.1"/>
</g>
<!-- Node18&#45;&gt;Node5 -->
<g id="edge31" class="edge">
<title>Node18&#45;&gt;Node5</title>
<path fill="none" stroke="#63b8ff" d="M512.68,-123.37C401.46,-112.51 172.61,-90.18 76.51,-80.8"/>
<polygon fill="#63b8ff" stroke="#63b8ff" points="77,-77.33 66.71,-79.84 76.32,-84.29 77,-77.33"/>
</g>
<!-- Node18&#45;&gt;Node8 -->
<g id="edge22" class="edge">
<title>Node18&#45;&gt;Node8</title>
<path fill="none" stroke="#63b8ff" d="M549.55,-120.51C524.63,-111.88 486.77,-98.76 458.86,-89.1"/>
<polygon fill="#63b8ff" stroke="#63b8ff" points="460.35,-85.91 449.76,-85.94 458.06,-92.52 460.35,-85.91"/>
</g>
<!-- Node18&#45;&gt;Node9 -->
<g id="edge23" class="edge">
<title>Node18&#45;&gt;Node9</title>
<path fill="none" stroke="#63b8ff" d="M614.18,-120.51C656.91,-110.57 725.21,-94.7 767.04,-84.98"/>
<polygon fill="#63b8ff" stroke="#63b8ff" points="767.67,-88.42 776.62,-82.75 766.08,-81.6 767.67,-88.42"/>
</g>
<!-- Node18&#45;&gt;Node10 -->
<g id="edge24" class="edge">
<title>Node18&#45;&gt;Node10</title>
<path fill="none" stroke="#63b8ff" d="M576.05,-120.59C577.16,-102.53 579.71,-61.17 581.25,-36.21"/>
<polygon fill="#63b8ff" stroke="#63b8ff" points="584.74,-36.57 581.86,-26.38 577.75,-36.14 584.74,-36.57"/>
</g>
<!-- Node18&#45;&gt;Node11 -->
<g id="edge25" class="edge">
<title>Node18&#45;&gt;Node11</title>
<path fill="none" stroke="#63b8ff" d="M550.14,-120.52C533.43,-113.36 512.35,-101.73 499.5,-85 488.61,-70.82 483.96,-50.79 481.98,-35.96"/>
<polygon fill="#63b8ff" stroke="#63b8ff" points="485.46,-35.65 480.98,-26.05 478.5,-36.35 485.46,-35.65"/>
</g>
<!-- Node18&#45;&gt;Node12 -->
<g id="edge26" class="edge">
<title>Node18&#45;&gt;Node12</title>
<path fill="none" stroke="#63b8ff" d="M614.3,-120.57C646.27,-112.7 692.52,-100.15 731.5,-85 749.1,-78.16 752.4,-74.02 769.5,-66 773.57,-64.09 820.41,-43.59 852.77,-29.43"/>
<polygon fill="#63b8ff" stroke="#63b8ff" points="853.95,-32.73 861.71,-25.52 851.15,-26.32 853.95,-32.73"/>
</g>
<!-- Node18&#45;&gt;Node13 -->
<g id="edge27" class="edge">
<title>Node18&#45;&gt;Node13</title>
<path fill="none" stroke="#63b8ff" d="M633.18,-120.51C692.12,-111.32 783.69,-97.05 846.45,-87.26"/>
<polygon fill="#63b8ff" stroke="#63b8ff" points="846.99,-90.72 856.33,-85.72 845.91,-83.81 846.99,-90.72"/>
</g>
<!-- Node18&#45;&gt;Node14 -->
<g id="edge28" class="edge">
<title>Node18&#45;&gt;Node14</title>
<path fill="none" stroke="#63b8ff" d="M638.31,-126.15C718.28,-121.15 860.77,-109.76 990.72,-85.25"/>
<polygon fill="#63b8ff" stroke="#63b8ff" points="991,-88.76 1000.16,-83.44 989.68,-81.89 991,-88.76"/>
</g>
<!-- Node18&#45;&gt;Node15 -->
<g id="edge29" class="edge">
<title>Node18&#45;&gt;Node15</title>
<path fill="none" stroke="#63b8ff" d="M512.72,-122.46C447.17,-114.83 341.14,-101.72 240.49,-85.41"/>
<polygon fill="#63b8ff" stroke="#63b8ff" points="241.13,-81.96 230.69,-83.8 240,-88.87 241.13,-81.96"/>
</g>
<!-- Node18&#45;&gt;Node16 -->
<g id="edge30" class="edge">
<title>Node18&#45;&gt;Node16</title>
<path fill="none" stroke="#63b8ff" d="M518.56,-120.51C468.27,-112.4 392.67,-99.8 317.38,-85.29"/>
<polygon fill="#63b8ff" stroke="#63b8ff" points="318.25,-81.89 307.77,-83.42 316.92,-88.76 318.25,-81.89"/>
</g>
<!-- Node18&#45;&gt;Node17 -->
<g id="edge32" class="edge">
<title>Node18&#45;&gt;Node17</title>
<path fill="none" stroke="#63b8ff" d="M536.11,-120.58C499.61,-112.27 443.54,-99.38 385.9,-85.55"/>
<polygon fill="#63b8ff" stroke="#63b8ff" points="386.75,-82.15 376.21,-83.22 385.11,-88.96 386.75,-82.15"/>
</g>
<!-- Node19 -->
<g id="node19" class="node">
<title>Node19</title>
<g id="a_node19"><a xlink:title=" ">
<polygon fill="#e0e0e0" stroke="#999999" points="1112,-85 1063,-85 1063,-66 1112,-66 1112,-85"/>
<text text-anchor="middle" x="1087.5" y="-73" font-family="Helvetica,sans-Serif" font-size="10.00">cstddef</text>
</a>
</g>
</g>
<!-- Node18&#45;&gt;Node19 -->
<g id="edge20" class="edge">
<title>Node18&#45;&gt;Node19</title>
<path fill="none" stroke="#63b8ff" d="M638.31,-126.86C728.09,-122.38 898.38,-111.28 1051.72,-85.23"/>
<polygon fill="#63b8ff" stroke="#63b8ff" points="1051.98,-88.74 1061.23,-83.59 1050.78,-81.84 1051.98,-88.74"/>
</g>
<!-- Node20 -->
<g id="node20" class="node">
<title>Node20</title>
<g id="a_node20"><a xlink:title=" ">
<polygon fill="#e0e0e0" stroke="#999999" points="554.5,-85 508.5,-85 508.5,-66 554.5,-66 554.5,-85"/>
<text text-anchor="middle" x="531.5" y="-73" font-family="Helvetica,sans-Serif" font-size="10.00">cstring</text>
</a>
</g>
</g>
<!-- Node18&#45;&gt;Node20 -->
<g id="edge21" class="edge">
<title>Node18&#45;&gt;Node20</title>
<path fill="none" stroke="#63b8ff" d="M568.23,-120.75C562.22,-113.5 553.49,-102.98 546.04,-94.02"/>
<polygon fill="#63b8ff" stroke="#63b8ff" points="548.97,-92.07 539.89,-86.61 543.58,-96.54 548.97,-92.07"/>
</g>
<!-- Node18&#45;&gt;Node21 -->
<g id="edge33" class="edge">
<title>Node18&#45;&gt;Node21</title>
<path fill="none" stroke="#63b8ff" d="M638.22,-124.89C774.52,-114.87 1096.42,-91.21 1233.22,-81.15"/>
<polygon fill="#63b8ff" stroke="#63b8ff" points="1233.08,-84.67 1242.8,-80.45 1232.57,-77.69 1233.08,-84.67"/>
</g>
<!-- Node18&#45;&gt;Node29 -->
<g id="edge42" class="edge">
<title>Node18&#45;&gt;Node29</title>
<path fill="none" stroke="#63b8ff" d="M590.94,-120.51C604.75,-112.47 625.25,-100.53 641.41,-91.11"/>
<polygon fill="#63b8ff" stroke="#63b8ff" points="643.1,-94.18 649.98,-86.12 639.58,-88.13 643.1,-94.18"/>
</g>
<!-- Node21&#45;&gt;Node12 -->
<g id="edge34" class="edge">
<title>Node21&#45;&gt;Node12</title>
<path fill="none" stroke="#63b8ff" d="M1244.27,-67.7C1239.61,-67.12 1234.97,-66.54 1230.5,-66 1089.74,-48.94 1049.97,-68.48 913.5,-30 912.53,-29.73 911.56,-29.43 910.58,-29.1"/>
<polygon fill="#63b8ff" stroke="#63b8ff" points="912.26,-26 901.67,-25.54 909.66,-32.5 912.26,-26"/>
</g>
<!-- Node22 -->
<g id="node22" class="node">
<title>Node22</title>
<g id="a_node22"><a xlink:title=" ">
<polygon fill="#e0e0e0" stroke="#999999" points="1018.5,-24.5 922.5,-24.5 922.5,-5.5 1018.5,-5.5 1018.5,-24.5"/>
<text text-anchor="middle" x="970.5" y="-12.5" font-family="Helvetica,sans-Serif" font-size="10.00">boost/log/core.hpp</text>
</a>
</g>
</g>
<!-- Node21&#45;&gt;Node22 -->
<g id="edge35" class="edge">
<title>Node21&#45;&gt;Node22</title>
<path fill="none" stroke="#63b8ff" d="M1244.17,-66.96C1190,-58.88 1103.03,-45.16 1028.5,-30 1024.73,-29.23 1020.84,-28.39 1016.93,-27.52"/>
<polygon fill="#63b8ff" stroke="#63b8ff" points="1018,-24.17 1007.47,-25.34 1016.42,-31 1018,-24.17"/>
</g>
<!-- Node23 -->
<g id="node23" class="node">
<title>Node23</title>
<g id="a_node23"><a xlink:title=" ">
<polygon fill="#e0e0e0" stroke="#999999" points="1166,-24.5 1037,-24.5 1037,-5.5 1166,-5.5 1166,-24.5"/>
<text text-anchor="middle" x="1101.5" y="-12.5" font-family="Helvetica,sans-Serif" font-size="10.00">boost/log/expressions.hpp</text>
</a>
</g>
</g>
<!-- Node21&#45;&gt;Node23 -->
<g id="edge36" class="edge">
<title>Node21&#45;&gt;Node23</title>
<path fill="none" stroke="#63b8ff" d="M1266.88,-65.62C1233.67,-55.65 1179.59,-39.43 1142.36,-28.26"/>
<polygon fill="#63b8ff" stroke="#63b8ff" points="1143.43,-24.92 1132.84,-25.4 1141.42,-31.63 1143.43,-24.92"/>
</g>
<!-- Node24 -->
<g id="node24" class="node">
<title>Node24</title>
<g id="a_node24"><a xlink:title=" ">
<polygon fill="#e0e0e0" stroke="#999999" points="1285,-24.5 1184,-24.5 1184,-5.5 1285,-5.5 1285,-24.5"/>
<text text-anchor="middle" x="1234.5" y="-12.5" font-family="Helvetica,sans-Serif" font-size="10.00">boost/log/trivial.hpp</text>
</a>
</g>
</g>
<!-- Node21&#45;&gt;Node24 -->
<g id="edge37" class="edge">
<title>Node21&#45;&gt;Node24</title>
<path fill="none" stroke="#63b8ff" d="M1287.08,-65.62C1277.89,-56.94 1263.66,-43.52 1252.33,-32.82"/>
<polygon fill="#63b8ff" stroke="#63b8ff" points="1254.78,-30.32 1245.11,-26.01 1249.98,-35.42 1254.78,-30.32"/>
</g>
<!-- Node25 -->
<g id="node25" class="node">
<title>Node25</title>
<g id="a_node25"><a xlink:title=" ">
<polygon fill="#e0e0e0" stroke="#999999" points="1412,-30 1303,-30 1303,0 1412,0 1412,-30"/>
<text text-anchor="start" x="1311" y="-18" font-family="Helvetica,sans-Serif" font-size="10.00">boost/log/utility/setup</text>
<text text-anchor="middle" x="1357.5" y="-7" font-family="Helvetica,sans-Serif" font-size="10.00">/console.hpp</text>
</a>
</g>
</g>
<!-- Node21&#45;&gt;Node25 -->
<g id="edge38" class="edge">
<title>Node21&#45;&gt;Node25</title>
<path fill="none" stroke="#63b8ff" d="M1305.76,-65.62C1313.29,-58.4 1324.24,-47.89 1334.14,-38.41"/>
<polygon fill="#63b8ff" stroke="#63b8ff" points="1336.56,-40.93 1341.35,-31.49 1331.71,-35.88 1336.56,-40.93"/>
</g>
<!-- Node26 -->
<g id="node26" class="node">
<title>Node26</title>
<g id="a_node26"><a xlink:title=" ">
<polygon fill="#e0e0e0" stroke="#999999" points="1561,-30 1430,-30 1430,0 1561,0 1561,-30"/>
<text text-anchor="start" x="1438" y="-18" font-family="Helvetica,sans-Serif" font-size="10.00">boost/log/sources/severity</text>
<text text-anchor="middle" x="1495.5" y="-7" font-family="Helvetica,sans-Serif" font-size="10.00">_channel_logger.hpp</text>
</a>
</g>
</g>
<!-- Node21&#45;&gt;Node26 -->
<g id="edge39" class="edge">
<title>Node21&#45;&gt;Node26</title>
<path fill="none" stroke="#63b8ff" d="M1326.72,-65.62C1355.5,-57.16 1399.61,-44.19 1435.52,-33.63"/>
<polygon fill="#63b8ff" stroke="#63b8ff" points="1436.32,-37.04 1444.93,-30.87 1434.35,-30.33 1436.32,-37.04"/>
</g>
<!-- Node27 -->
<g id="node27" class="node">
<title>Node27</title>
<g id="a_node27"><a xlink:title=" ">
<polygon fill="#e0e0e0" stroke="#999999" points="1692,-30 1579,-30 1579,0 1692,0 1692,-30"/>
<text text-anchor="start" x="1587" y="-18" font-family="Helvetica,sans-Serif" font-size="10.00">boost/log/support/date</text>
<text text-anchor="middle" x="1635.5" y="-7" font-family="Helvetica,sans-Serif" font-size="10.00">_time.hpp</text>
</a>
</g>
</g>
<!-- Node21&#45;&gt;Node27 -->
<g id="edge40" class="edge">
<title>Node21&#45;&gt;Node27</title>
<path fill="none" stroke="#63b8ff" d="M1348.91,-66.8C1401.73,-58.86 1485.86,-45.72 1567.57,-30.5"/>
<polygon fill="#63b8ff" stroke="#63b8ff" points="1568.14,-33.95 1577.33,-28.67 1566.85,-27.07 1568.14,-33.95"/>
</g>
<!-- Node28 -->
<g id="node28" class="node">
<title>Node28</title>
<g id="a_node28"><a xlink:title=" ">
<polygon fill="#e0e0e0" stroke="#999999" points="1831,-30 1710,-30 1710,0 1831,0 1831,-30"/>
<text text-anchor="start" x="1718" y="-18" font-family="Helvetica,sans-Serif" font-size="10.00">boost/log/utility/setup</text>
<text text-anchor="middle" x="1770.5" y="-7" font-family="Helvetica,sans-Serif" font-size="10.00">/common_attributes.hpp</text>
</a>
</g>
</g>
<!-- Node21&#45;&gt;Node28 -->
<g id="edge41" class="edge">
<title>Node21&#45;&gt;Node28</title>
<path fill="none" stroke="#63b8ff" d="M1348.81,-70.28C1424.05,-63.88 1567.41,-50.42 1698.57,-30.37"/>
<polygon fill="#63b8ff" stroke="#63b8ff" points="1698.76,-33.89 1708.11,-28.9 1697.69,-26.97 1698.76,-33.89"/>
</g>
<!-- Node29&#45;&gt;Node10 -->
<g id="edge43" class="edge">
<title>Node29&#45;&gt;Node10</title>
<path fill="none" stroke="#63b8ff" d="M653.74,-65.62C640.67,-56.51 620.09,-42.18 604.4,-31.25"/>
<polygon fill="#63b8ff" stroke="#63b8ff" points="606.83,-28.68 596.62,-25.83 602.83,-34.42 606.83,-28.68"/>
</g>
<!-- Node29&#45;&gt;Node11 -->
<g id="edge44" class="edge">
<title>Node29&#45;&gt;Node11</title>
<path fill="none" stroke="#63b8ff" d="M638.25,-65.62C605.88,-55.43 552.73,-38.72 517.19,-27.54"/>
<polygon fill="#63b8ff" stroke="#63b8ff" points="518.35,-24.23 507.76,-24.57 516.25,-30.91 518.35,-24.23"/>
</g>
<!-- Node29&#45;&gt;Node12 -->
<g id="edge46" class="edge">
<title>Node29&#45;&gt;Node12</title>
<path fill="none" stroke="#63b8ff" d="M713.91,-65.5C751.67,-57.76 805.63,-45.42 851.5,-30 852.3,-29.73 853.1,-29.45 853.91,-29.16"/>
<polygon fill="#63b8ff" stroke="#63b8ff" points="855.01,-32.49 863.02,-25.56 852.43,-25.98 855.01,-32.49"/>
</g>
<!-- Node29&#45;&gt;Node30 -->
<g id="edge45" class="edge">
<title>Node29&#45;&gt;Node30</title>
<path fill="none" stroke="#63b8ff" d="M688.67,-65.62C712.9,-55.91 751.95,-40.26 779.72,-29.14"/>
<polygon fill="#63b8ff" stroke="#63b8ff" points="780.73,-32.5 788.71,-25.53 778.13,-26 780.73,-32.5"/>
</g>
<!-- Node31 -->
<g id="node31" class="node">
<title>Node31</title>
<g id="a_node31"><a xlink:title=" ">
<polygon fill="#e0e0e0" stroke="#999999" points="699.5,-24.5 633.5,-24.5 633.5,-5.5 699.5,-5.5 699.5,-24.5"/>
<text text-anchor="middle" x="666.5" y="-12.5" font-family="Helvetica,sans-Serif" font-size="10.00">string_view</text>
</a>
</g>
</g>
<!-- Node29&#45;&gt;Node31 -->
<g id="edge47" class="edge">
<title>Node29&#45;&gt;Node31</title>
<path fill="none" stroke="#63b8ff" d="M666.5,-65.87C666.5,-58 666.5,-46.1 666.5,-35.89"/>
<polygon fill="#63b8ff" stroke="#63b8ff" points="670,-36.18 666.5,-26.18 663,-36.18 670,-36.18"/>
</g>
<!-- Node32&#45;&gt;Node3 -->
<g id="edge52" class="edge">
<title>Node32&#45;&gt;Node3</title>
<path fill="none" stroke="#63b8ff" d="M788.09,-230.51C801.02,-222.54 820.14,-210.75 835.35,-201.38"/>
<polygon fill="#63b8ff" stroke="#63b8ff" points="837.16,-204.38 843.84,-196.15 833.49,-198.42 837.16,-204.38"/>
</g>
<!-- Node34&#45;&gt;Node3 -->
<g id="edge58" class="edge">
<title>Node34&#45;&gt;Node3</title>
<path fill="none" stroke="#63b8ff" d="M967.45,-230.51C946.69,-222.04 915.34,-209.27 891.77,-199.66"/>
<polygon fill="#63b8ff" stroke="#63b8ff" points="893.21,-196.46 882.63,-195.93 890.57,-202.95 893.21,-196.46"/>
</g>
<!-- Node34&#45;&gt;Node12 -->
<g id="edge59" class="edge">
<title>Node34&#45;&gt;Node12</title>
<path fill="none" stroke="#63b8ff" d="M986.72,-230.61C983.23,-217.67 978.79,-193.31 988.5,-176 990.87,-171.77 1135.13,-89.23 1137.5,-85 1141.63,-77.64 1142.98,-72.43 1137.5,-66 1104.8,-27.63 961.69,-44.8 913.5,-30 912.7,-29.75 911.89,-29.49 911.07,-29.21"/>
<polygon fill="#63b8ff" stroke="#63b8ff" points="912.61,-26.06 902.03,-25.55 909.99,-32.55 912.61,-26.06"/>
</g>
<!-- Node34&#45;&gt;Node19 -->
<g id="edge57" class="edge">
<title>Node34&#45;&gt;Node19</title>
<path fill="none" stroke="#63b8ff" d="M1036.26,-230.55C1056.21,-224.17 1077.6,-213.33 1089.5,-195 1108.96,-165.05 1101.11,-121.23 1094.04,-96.12"/>
<polygon fill="#63b8ff" stroke="#63b8ff" points="1097.48,-95.42 1091.2,-86.89 1090.79,-97.47 1097.48,-95.42"/>
</g>
<!-- Node35 -->
<g id="node35" class="node">
<title>Node35</title>
<g id="a_node35"><a xlink:title=" ">
<polygon fill="#e0e0e0" stroke="#999999" points="1080,-195 997,-195 997,-176 1080,-176 1080,-195"/>
<text text-anchor="middle" x="1038.5" y="-183" font-family="Helvetica,sans-Serif" font-size="10.00">unordered_map</text>
</a>
</g>
</g>
<!-- Node34&#45;&gt;Node35 -->
<g id="edge60" class="edge">
<title>Node34&#45;&gt;Node35</title>
<path fill="none" stroke="#63b8ff" d="M997.59,-230.75C1004.36,-223.43 1014.22,-212.76 1022.56,-203.74"/>
<polygon fill="#63b8ff" stroke="#63b8ff" points="1024.99,-206.27 1029.21,-196.55 1019.85,-201.52 1024.99,-206.27"/>
</g>
</g>
</svg>
