<?xml version="1.0" encoding="UTF-8" standalone="no"?>
<!DOCTYPE svg PUBLIC "-//W3C//DTD SVG 1.1//EN"
 "http://www.w3.org/Graphics/SVG/1.1/DTD/svg11.dtd">
<!-- Generated by graphviz version 7.0.5 (20221223.1930)
 -->
<!-- Title: UioConfig.cpp Pages: 1 -->
<svg width="1280pt" height="203pt"
 viewBox="0.00 0.00 1279.50 203.00" xmlns="http://www.w3.org/2000/svg" xmlns:xlink="http://www.w3.org/1999/xlink">
<g id="graph0" class="graph" transform="scale(1 1) rotate(0) translate(4 199)">
<title>UioConfig.cpp</title>
<!-- Node1 -->
<g id="node1" class="node">
<title>Node1</title>
<g id="a_node1"><a xlink:title=" ">
<polygon fill="#999999" stroke="#666666" points="589.5,-195 512.5,-195 512.5,-176 589.5,-176 589.5,-195"/>
<text text-anchor="middle" x="551" y="-183" font-family="Helvetica,sans-Serif" font-size="10.00">UioConfig.cpp</text>
</a>
</g>
</g>
<!-- Node2 -->
<g id="node2" class="node">
<title>Node2</title>
<g id="a_node2"><a xlink:href="_uio_config_8hpp.html" target="_top" xlink:title=" ">
<polygon fill="white" stroke="#666666" points="276.5,-85 165.5,-85 165.5,-66 276.5,-66 276.5,-85"/>
<text text-anchor="middle" x="221" y="-73" font-family="Helvetica,sans-Serif" font-size="10.00">udmaio/UioConfig.hpp</text>
</a>
</g>
</g>
<!-- Node1&#45;&gt;Node2 -->
<g id="edge1" class="edge">
<title>Node1&#45;&gt;Node2</title>
<path fill="none" stroke="#63b8ff" d="M523.71,-175.57C464.91,-156.33 326.13,-110.9 258.86,-88.89"/>
<polygon fill="#63b8ff" stroke="#63b8ff" points="260.35,-85.7 249.76,-85.91 258.17,-92.35 260.35,-85.7"/>
</g>
<!-- Node8 -->
<g id="node8" class="node">
<title>Node8</title>
<g id="a_node8"><a xlink:title=" ">
<polygon fill="#e0e0e0" stroke="#999999" points="109,-85 49,-85 49,-66 109,-66 109,-85"/>
<text text-anchor="middle" x="79" y="-73" font-family="Helvetica,sans-Serif" font-size="10.00">filesystem</text>
</a>
</g>
</g>
<!-- Node1&#45;&gt;Node8 -->
<g id="edge7" class="edge">
<title>Node1&#45;&gt;Node8</title>
<path fill="none" stroke="#63b8ff" d="M512.37,-175.66C424.63,-155.58 210.91,-106.68 120.49,-85.99"/>
<polygon fill="#63b8ff" stroke="#63b8ff" points="121.34,-82.6 110.81,-83.78 119.78,-89.42 121.34,-82.6"/>
</g>
<!-- Node9 -->
<g id="node9" class="node">
<title>Node9</title>
<g id="a_node9"><a xlink:title=" ">
<polygon fill="#e0e0e0" stroke="#999999" points="1007,-85 957,-85 957,-66 1007,-66 1007,-85"/>
<text text-anchor="middle" x="982" y="-73" font-family="Helvetica,sans-Serif" font-size="10.00">fstream</text>
</a>
</g>
</g>
<!-- Node1&#45;&gt;Node9 -->
<g id="edge8" class="edge">
<title>Node1&#45;&gt;Node9</title>
<path fill="none" stroke="#63b8ff" d="M557.6,-175.66C568.83,-161.38 593.17,-133.53 621,-121 751.06,-62.42 801.6,-108.42 945.82,-85.08"/>
<polygon fill="#63b8ff" stroke="#63b8ff" points="946.07,-88.59 955.34,-83.45 944.89,-81.69 946.07,-88.59"/>
</g>
<!-- Node10 -->
<g id="node10" class="node">
<title>Node10</title>
<g id="a_node10"><a xlink:title=" ">
<polygon fill="#e0e0e0" stroke="#999999" points="703,-140 663,-140 663,-121 703,-121 703,-140"/>
<text text-anchor="middle" x="683" y="-128" font-family="Helvetica,sans-Serif" font-size="10.00">regex</text>
</a>
</g>
</g>
<!-- Node1&#45;&gt;Node10 -->
<g id="edge9" class="edge">
<title>Node1&#45;&gt;Node10</title>
<path fill="none" stroke="#63b8ff" d="M573.39,-175.51C595.08,-166.8 628.14,-153.53 652.28,-143.84"/>
<polygon fill="#63b8ff" stroke="#63b8ff" points="653.29,-147.2 661.26,-140.23 650.68,-140.71 653.29,-147.2"/>
</g>
<!-- Node11 -->
<g id="node11" class="node">
<title>Node11</title>
<g id="a_node11"><a xlink:title=" ">
<polygon fill="#e0e0e0" stroke="#999999" points="1075,-85 1025,-85 1025,-66 1075,-66 1075,-85"/>
<text text-anchor="middle" x="1050" y="-73" font-family="Helvetica,sans-Serif" font-size="10.00">unistd.h</text>
</a>
</g>
</g>
<!-- Node1&#45;&gt;Node11 -->
<g id="edge10" class="edge">
<title>Node1&#45;&gt;Node11</title>
<path fill="none" stroke="#63b8ff" d="M564.5,-175.7C590.17,-159.05 644.35,-124.26 654,-121 803.74,-70.41 854.43,-110.78 1013.68,-85.1"/>
<polygon fill="#63b8ff" stroke="#63b8ff" points="1014.06,-88.59 1023.34,-83.48 1012.9,-81.68 1014.06,-88.59"/>
</g>
<!-- Node12 -->
<g id="node12" class="node">
<title>Node12</title>
<g id="a_node12"><a xlink:href="_hw_accessor_8hpp.html" target="_top" xlink:title=" ">
<polygon fill="white" stroke="#666666" points="568.5,-140 443.5,-140 443.5,-121 568.5,-121 568.5,-140"/>
<text text-anchor="middle" x="506" y="-128" font-family="Helvetica,sans-Serif" font-size="10.00">udmaio/HwAccessor.hpp</text>
</a>
</g>
</g>
<!-- Node1&#45;&gt;Node12 -->
<g id="edge11" class="edge">
<title>Node1&#45;&gt;Node12</title>
<path fill="none" stroke="#63b8ff" d="M543.57,-175.75C537.42,-168.5 528.49,-157.98 520.87,-149.02"/>
<polygon fill="#63b8ff" stroke="#63b8ff" points="523.71,-146.95 514.57,-141.6 518.38,-151.48 523.71,-146.95"/>
</g>
<!-- Node3 -->
<g id="node3" class="node">
<title>Node3</title>
<g id="a_node3"><a xlink:title=" ">
<polygon fill="#e0e0e0" stroke="#999999" points="54,-24.5 0,-24.5 0,-5.5 54,-5.5 54,-24.5"/>
<text text-anchor="middle" x="27" y="-12.5" font-family="Helvetica,sans-Serif" font-size="10.00">iostream</text>
</a>
</g>
</g>
<!-- Node2&#45;&gt;Node3 -->
<g id="edge2" class="edge">
<title>Node2&#45;&gt;Node3</title>
<path fill="none" stroke="#63b8ff" d="M185.56,-65.56C153.34,-57.19 104.62,-43.92 63,-30 61.86,-29.62 60.69,-29.22 59.52,-28.81"/>
<polygon fill="#63b8ff" stroke="#63b8ff" points="60.98,-25.61 50.38,-25.45 58.56,-32.19 60.98,-25.61"/>
</g>
<!-- Node4 -->
<g id="node4" class="node">
<title>Node4</title>
<g id="a_node4"><a xlink:title=" ">
<polygon fill="#e0e0e0" stroke="#999999" points="285.5,-24.5 234.5,-24.5 234.5,-5.5 285.5,-5.5 285.5,-24.5"/>
<text text-anchor="middle" x="260" y="-12.5" font-family="Helvetica,sans-Serif" font-size="10.00">memory</text>
</a>
</g>
</g>
<!-- Node2&#45;&gt;Node4 -->
<g id="edge3" class="edge">
<title>Node2&#45;&gt;Node4</title>
<path fill="none" stroke="#63b8ff" d="M226.75,-65.87C232.28,-57.57 240.82,-44.78 247.85,-34.22"/>
<polygon fill="#63b8ff" stroke="#63b8ff" points="250.75,-36.19 253.38,-25.93 244.92,-32.31 250.75,-36.19"/>
</g>
<!-- Node5 -->
<g id="node5" class="node">
<title>Node5</title>
<g id="a_node5"><a xlink:title=" ">
<polygon fill="#e0e0e0" stroke="#999999" points="131.5,-24.5 72.5,-24.5 72.5,-5.5 131.5,-5.5 131.5,-24.5"/>
<text text-anchor="middle" x="102" y="-12.5" font-family="Helvetica,sans-Serif" font-size="10.00">stdexcept</text>
</a>
</g>
</g>
<!-- Node2&#45;&gt;Node5 -->
<g id="edge4" class="edge">
<title>Node2&#45;&gt;Node5</title>
<path fill="none" stroke="#63b8ff" d="M202.93,-65.62C183.71,-56.17 153.03,-41.09 130.54,-30.03"/>
<polygon fill="#63b8ff" stroke="#63b8ff" points="132.12,-26.91 121.6,-25.64 129.03,-33.19 132.12,-26.91"/>
</g>
<!-- Node6 -->
<g id="node6" class="node">
<title>Node6</title>
<g id="a_node6"><a xlink:title=" ">
<polygon fill="#e0e0e0" stroke="#999999" points="344.5,-24.5 303.5,-24.5 303.5,-5.5 344.5,-5.5 344.5,-24.5"/>
<text text-anchor="middle" x="324" y="-12.5" font-family="Helvetica,sans-Serif" font-size="10.00">string</text>
</a>
</g>
</g>
<!-- Node2&#45;&gt;Node6 -->
<g id="edge5" class="edge">
<title>Node2&#45;&gt;Node6</title>
<path fill="none" stroke="#63b8ff" d="M236.64,-65.62C252.98,-56.34 278.87,-41.63 298.23,-30.64"/>
<polygon fill="#63b8ff" stroke="#63b8ff" points="299.93,-33.7 306.89,-25.72 296.47,-27.61 299.93,-33.7"/>
</g>
<!-- Node7 -->
<g id="node7" class="node">
<title>Node7</title>
<g id="a_node7"><a xlink:title=" ">
<polygon fill="#e0e0e0" stroke="#999999" points="216,-24.5 150,-24.5 150,-5.5 216,-5.5 216,-24.5"/>
<text text-anchor="middle" x="183" y="-12.5" font-family="Helvetica,sans-Serif" font-size="10.00">string_view</text>
</a>
</g>
</g>
<!-- Node2&#45;&gt;Node7 -->
<g id="edge6" class="edge">
<title>Node2&#45;&gt;Node7</title>
<path fill="none" stroke="#63b8ff" d="M215.39,-65.87C210,-57.57 201.69,-44.78 194.84,-34.22"/>
<polygon fill="#63b8ff" stroke="#63b8ff" points="197.84,-32.42 189.45,-25.94 191.97,-36.23 197.84,-32.42"/>
</g>
<!-- Node12&#45;&gt;Node2 -->
<g id="edge32" class="edge">
<title>Node12&#45;&gt;Node2</title>
<path fill="none" stroke="#63b8ff" d="M457.65,-120.51C408.68,-111.4 332.85,-97.3 280.28,-87.52"/>
<polygon fill="#63b8ff" stroke="#63b8ff" points="281.07,-84.11 270.6,-85.72 279.79,-90.99 281.07,-84.11"/>
</g>
<!-- Node12&#45;&gt;Node3 -->
<g id="edge14" class="edge">
<title>Node12&#45;&gt;Node3</title>
<path fill="none" stroke="#63b8ff" d="M443.2,-128.35C371.99,-125.5 253.16,-116 156,-85 150.56,-83.27 89.16,-49.95 53.07,-30.25"/>
<polygon fill="#63b8ff" stroke="#63b8ff" points="54.98,-27.31 44.52,-25.59 51.62,-33.45 54.98,-27.31"/>
</g>
<!-- Node12&#45;&gt;Node4 -->
<g id="edge15" class="edge">
<title>Node12&#45;&gt;Node4</title>
<path fill="none" stroke="#63b8ff" d="M485.19,-120.57C464.88,-111.77 433.15,-97.82 406,-85 388.93,-76.94 385.01,-74.19 368,-66 341.72,-53.35 311.59,-39.45 289.84,-29.52"/>
<polygon fill="#63b8ff" stroke="#63b8ff" points="291.52,-26.44 280.97,-25.48 288.62,-32.81 291.52,-26.44"/>
</g>
<!-- Node12&#45;&gt;Node6 -->
<g id="edge16" class="edge">
<title>Node12&#45;&gt;Node6</title>
<path fill="none" stroke="#63b8ff" d="M491.72,-120.59C460.49,-101.12 385.86,-54.57 347.56,-30.69"/>
<polygon fill="#63b8ff" stroke="#63b8ff" points="349.84,-27.99 339.5,-25.67 346.13,-33.93 349.84,-27.99"/>
</g>
<!-- Node12&#45;&gt;Node8 -->
<g id="edge12" class="edge">
<title>Node12&#45;&gt;Node8</title>
<path fill="none" stroke="#63b8ff" d="M443.11,-123.66C367.07,-116.25 235.3,-102.35 123,-85 122.16,-84.87 121.32,-84.74 120.47,-84.6"/>
<polygon fill="#63b8ff" stroke="#63b8ff" points="121.19,-81.17 110.74,-82.91 119.99,-88.07 121.19,-81.17"/>
</g>
<!-- Node12&#45;&gt;Node9 -->
<g id="edge13" class="edge">
<title>Node12&#45;&gt;Node9</title>
<path fill="none" stroke="#63b8ff" d="M568.61,-122.53C573.48,-122 578.32,-121.49 583,-121 741.48,-104.44 785.43,-112.46 945.61,-85.17"/>
<polygon fill="#63b8ff" stroke="#63b8ff" points="946.09,-88.64 955.35,-83.49 944.9,-81.74 946.09,-88.64"/>
</g>
<!-- Node12&#45;&gt;Node11 -->
<g id="edge22" class="edge">
<title>Node12&#45;&gt;Node11</title>
<path fill="none" stroke="#63b8ff" d="M568.87,-124.58C688.08,-115.16 940.94,-94.79 1013.47,-84.97"/>
<polygon fill="#63b8ff" stroke="#63b8ff" points="1013.98,-88.43 1023.35,-83.48 1012.94,-81.51 1013.98,-88.43"/>
</g>
<!-- Node13 -->
<g id="node13" class="node">
<title>Node13</title>
<g id="a_node13"><a xlink:title=" ">
<polygon fill="#e0e0e0" stroke="#999999" points="713.5,-85 576.5,-85 576.5,-66 713.5,-66 713.5,-85"/>
<text text-anchor="middle" x="645" y="-73" font-family="Helvetica,sans-Serif" font-size="10.00">boost/core/noncopyable.hpp</text>
</a>
</g>
</g>
<!-- Node12&#45;&gt;Node13 -->
<g id="edge17" class="edge">
<title>Node12&#45;&gt;Node13</title>
<path fill="none" stroke="#63b8ff" d="M529.58,-120.51C551.98,-111.97 585.9,-99.03 611.18,-89.4"/>
<polygon fill="#63b8ff" stroke="#63b8ff" points="612.26,-92.73 620.35,-85.9 609.76,-86.19 612.26,-92.73"/>
</g>
<!-- Node14 -->
<g id="node14" class="node">
<title>Node14</title>
<g id="a_node14"><a xlink:title=" ">
<polygon fill="#e0e0e0" stroke="#999999" points="774.5,-85 731.5,-85 731.5,-66 774.5,-66 774.5,-85"/>
<text text-anchor="middle" x="753" y="-73" font-family="Helvetica,sans-Serif" font-size="10.00">fcntl.h</text>
</a>
</g>
</g>
<!-- Node12&#45;&gt;Node14 -->
<g id="edge18" class="edge">
<title>Node12&#45;&gt;Node14</title>
<path fill="none" stroke="#63b8ff" d="M554.92,-120.54C596.56,-112.67 658.18,-100.47 719.97,-85.61"/>
<polygon fill="#63b8ff" stroke="#63b8ff" points="720.73,-89.03 729.62,-83.27 719.08,-82.23 720.73,-89.03"/>
</g>
<!-- Node15 -->
<g id="node15" class="node">
<title>Node15</title>
<g id="a_node15"><a xlink:title=" ">
<polygon fill="#e0e0e0" stroke="#999999" points="861.5,-85 792.5,-85 792.5,-66 861.5,-66 861.5,-85"/>
<text text-anchor="middle" x="827" y="-73" font-family="Helvetica,sans-Serif" font-size="10.00">sys/mman.h</text>
</a>
</g>
</g>
<!-- Node12&#45;&gt;Node15 -->
<g id="edge19" class="edge">
<title>Node12&#45;&gt;Node15</title>
<path fill="none" stroke="#63b8ff" d="M566.03,-120.54C619.87,-112.35 701.34,-99.61 781.05,-85.48"/>
<polygon fill="#63b8ff" stroke="#63b8ff" points="781.57,-88.94 790.8,-83.74 780.34,-82.05 781.57,-88.94"/>
</g>
<!-- Node16 -->
<g id="node16" class="node">
<title>Node16</title>
<g id="a_node16"><a xlink:title=" ">
<polygon fill="#e0e0e0" stroke="#999999" points="938.5,-85 879.5,-85 879.5,-66 938.5,-66 938.5,-85"/>
<text text-anchor="middle" x="909" y="-73" font-family="Helvetica,sans-Serif" font-size="10.00">sys/stat.h</text>
</a>
</g>
</g>
<!-- Node12&#45;&gt;Node16 -->
<g id="edge20" class="edge">
<title>Node12&#45;&gt;Node16</title>
<path fill="none" stroke="#63b8ff" d="M568.72,-122.2C657.67,-111.79 814.85,-93.21 868.01,-85.25"/>
<polygon fill="#63b8ff" stroke="#63b8ff" points="868.37,-88.73 877.69,-83.7 867.26,-81.82 868.37,-88.73"/>
</g>
<!-- Node17 -->
<g id="node17" class="node">
<title>Node17</title>
<g id="a_node17"><a xlink:title=" ">
<polygon fill="#e0e0e0" stroke="#999999" points="359.5,-85 294.5,-85 294.5,-66 359.5,-66 359.5,-85"/>
<text text-anchor="middle" x="327" y="-73" font-family="Helvetica,sans-Serif" font-size="10.00">sys/types.h</text>
</a>
</g>
</g>
<!-- Node12&#45;&gt;Node17 -->
<g id="edge21" class="edge">
<title>Node12&#45;&gt;Node17</title>
<path fill="none" stroke="#63b8ff" d="M475.64,-120.51C446.1,-111.76 401.02,-98.42 368.25,-88.71"/>
<polygon fill="#63b8ff" stroke="#63b8ff" points="369.25,-85.36 358.67,-85.88 367.26,-92.07 369.25,-85.36"/>
</g>
<!-- Node18 -->
<g id="node18" class="node">
<title>Node18</title>
<g id="a_node18"><a xlink:href="_logging_8hpp.html" target="_top" xlink:title=" ">
<polygon fill="white" stroke="#666666" points="558,-85 454,-85 454,-66 558,-66 558,-85"/>
<text text-anchor="middle" x="506" y="-73" font-family="Helvetica,sans-Serif" font-size="10.00">udmaio/Logging.hpp</text>
</a>
</g>
</g>
<!-- Node12&#45;&gt;Node18 -->
<g id="edge23" class="edge">
<title>Node12&#45;&gt;Node18</title>
<path fill="none" stroke="#63b8ff" d="M506,-120.75C506,-114.27 506,-105.16 506,-96.9"/>
<polygon fill="#63b8ff" stroke="#63b8ff" points="509.5,-96.96 506,-86.96 502.5,-96.96 509.5,-96.96"/>
</g>
<!-- Node18&#45;&gt;Node6 -->
<g id="edge24" class="edge">
<title>Node18&#45;&gt;Node6</title>
<path fill="none" stroke="#63b8ff" d="M468.95,-65.58C437.61,-57.59 391.74,-44.87 353,-30 352.52,-29.81 352.03,-29.62 351.54,-29.43"/>
<polygon fill="#63b8ff" stroke="#63b8ff" points="353.22,-26.35 342.66,-25.53 350.41,-32.75 353.22,-26.35"/>
</g>
<!-- Node19 -->
<g id="node19" class="node">
<title>Node19</title>
<g id="a_node19"><a xlink:title=" ">
<polygon fill="#e0e0e0" stroke="#999999" points="1005,-24.5 909,-24.5 909,-5.5 1005,-5.5 1005,-24.5"/>
<text text-anchor="middle" x="957" y="-12.5" font-family="Helvetica,sans-Serif" font-size="10.00">boost/log/core.hpp</text>
</a>
</g>
</g>
<!-- Node18&#45;&gt;Node19 -->
<g id="edge25" class="edge">
<title>Node18&#45;&gt;Node19</title>
<path fill="none" stroke="#63b8ff" d="M558.23,-67.11C561.2,-66.73 564.13,-66.35 567,-66 714.74,-47.73 753.39,-55.81 900,-30 904.11,-29.28 908.35,-28.43 912.6,-27.51"/>
<polygon fill="#63b8ff" stroke="#63b8ff" points="913.26,-30.95 922.23,-25.3 911.7,-24.13 913.26,-30.95"/>
</g>
<!-- Node20 -->
<g id="node20" class="node">
<title>Node20</title>
<g id="a_node20"><a xlink:title=" ">
<polygon fill="#e0e0e0" stroke="#999999" points="1152.5,-24.5 1023.5,-24.5 1023.5,-5.5 1152.5,-5.5 1152.5,-24.5"/>
<text text-anchor="middle" x="1088" y="-12.5" font-family="Helvetica,sans-Serif" font-size="10.00">boost/log/expressions.hpp</text>
</a>
</g>
</g>
<!-- Node18&#45;&gt;Node20 -->
<g id="edge26" class="edge">
<title>Node18&#45;&gt;Node20</title>
<path fill="none" stroke="#63b8ff" d="M558.22,-67.02C561.19,-66.66 564.13,-66.32 567,-66 765.12,-44.24 816.47,-56.56 1014,-30 1020.39,-29.14 1027.07,-28.09 1033.68,-26.96"/>
<polygon fill="#63b8ff" stroke="#63b8ff" points="1033.97,-30.46 1043.2,-25.26 1032.74,-23.57 1033.97,-30.46"/>
</g>
<!-- Node21 -->
<g id="node21" class="node">
<title>Node21</title>
<g id="a_node21"><a xlink:title=" ">
<polygon fill="#e0e0e0" stroke="#999999" points="1271.5,-24.5 1170.5,-24.5 1170.5,-5.5 1271.5,-5.5 1271.5,-24.5"/>
<text text-anchor="middle" x="1221" y="-12.5" font-family="Helvetica,sans-Serif" font-size="10.00">boost/log/trivial.hpp</text>
</a>
</g>
</g>
<!-- Node18&#45;&gt;Node21 -->
<g id="edge27" class="edge">
<title>Node18&#45;&gt;Node21</title>
<path fill="none" stroke="#63b8ff" d="M558.21,-66.95C561.18,-66.61 564.13,-66.29 567,-66 830.62,-39.7 899.92,-68.73 1162,-30 1166.88,-29.28 1171.94,-28.35 1176.97,-27.32"/>
<polygon fill="#63b8ff" stroke="#63b8ff" points="1177.32,-30.83 1186.33,-25.26 1175.81,-23.99 1177.32,-30.83"/>
</g>
<!-- Node22 -->
<g id="node22" class="node">
<title>Node22</title>
<g id="a_node22"><a xlink:title=" ">
<polygon fill="#e0e0e0" stroke="#999999" points="471.5,-30 362.5,-30 362.5,0 471.5,0 471.5,-30"/>
<text text-anchor="start" x="370.5" y="-18" font-family="Helvetica,sans-Serif" font-size="10.00">boost/log/utility/setup</text>
<text text-anchor="middle" x="417" y="-7" font-family="Helvetica,sans-Serif" font-size="10.00">/console.hpp</text>
</a>
</g>
</g>
<!-- Node18&#45;&gt;Node22 -->
<g id="edge28" class="edge">
<title>Node18&#45;&gt;Node22</title>
<path fill="none" stroke="#63b8ff" d="M492.48,-65.62C480.83,-57.96 463.56,-46.61 448.48,-36.69"/>
<polygon fill="#63b8ff" stroke="#63b8ff" points="450.51,-33.84 440.23,-31.27 446.67,-39.69 450.51,-33.84"/>
</g>
<!-- Node23 -->
<g id="node23" class="node">
<title>Node23</title>
<g id="a_node23"><a xlink:title=" ">
<polygon fill="#e0e0e0" stroke="#999999" points="620.5,-30 489.5,-30 489.5,0 620.5,0 620.5,-30"/>
<text text-anchor="start" x="497.5" y="-18" font-family="Helvetica,sans-Serif" font-size="10.00">boost/log/sources/severity</text>
<text text-anchor="middle" x="555" y="-7" font-family="Helvetica,sans-Serif" font-size="10.00">_channel_logger.hpp</text>
</a>
</g>
</g>
<!-- Node18&#45;&gt;Node23 -->
<g id="edge29" class="edge">
<title>Node18&#45;&gt;Node23</title>
<path fill="none" stroke="#63b8ff" d="M513.23,-65.87C519.2,-58.74 527.96,-48.28 535.91,-38.79"/>
<polygon fill="#63b8ff" stroke="#63b8ff" points="538.47,-41.19 542.21,-31.27 533.1,-36.69 538.47,-41.19"/>
</g>
<!-- Node24 -->
<g id="node24" class="node">
<title>Node24</title>
<g id="a_node24"><a xlink:title=" ">
<polygon fill="#e0e0e0" stroke="#999999" points="751.5,-30 638.5,-30 638.5,0 751.5,0 751.5,-30"/>
<text text-anchor="start" x="646.5" y="-18" font-family="Helvetica,sans-Serif" font-size="10.00">boost/log/support/date</text>
<text text-anchor="middle" x="695" y="-7" font-family="Helvetica,sans-Serif" font-size="10.00">_time.hpp</text>
</a>
</g>
</g>
<!-- Node18&#45;&gt;Node24 -->
<g id="edge30" class="edge">
<title>Node18&#45;&gt;Node24</title>
<path fill="none" stroke="#63b8ff" d="M534.71,-65.62C561.91,-57.19 603.57,-44.3 637.6,-33.77"/>
<polygon fill="#63b8ff" stroke="#63b8ff" points="638.39,-37.19 646.9,-30.89 636.32,-30.5 638.39,-37.19"/>
</g>
<!-- Node25 -->
<g id="node25" class="node">
<title>Node25</title>
<g id="a_node25"><a xlink:title=" ">
<polygon fill="#e0e0e0" stroke="#999999" points="890.5,-30 769.5,-30 769.5,0 890.5,0 890.5,-30"/>
<text text-anchor="start" x="777.5" y="-18" font-family="Helvetica,sans-Serif" font-size="10.00">boost/log/utility/setup</text>
<text text-anchor="middle" x="830" y="-7" font-family="Helvetica,sans-Serif" font-size="10.00">/common_attributes.hpp</text>
</a>
</g>
</g>
<!-- Node18&#45;&gt;Node25 -->
<g id="edge31" class="edge">
<title>Node18&#45;&gt;Node25</title>
<path fill="none" stroke="#63b8ff" d="M558.33,-65.8C607.51,-57.52 683.47,-44.5 758.07,-30.53"/>
<polygon fill="#63b8ff" stroke="#63b8ff" points="758.4,-34.03 767.58,-28.74 757.1,-27.15 758.4,-34.03"/>
</g>
</g>
</svg>
