<?xml version="1.0" encoding="UTF-8" standalone="no"?>
<!DOCTYPE svg PUBLIC "-//W3C//DTD SVG 1.1//EN"
 "http://www.w3.org/Graphics/SVG/1.1/DTD/svg11.dtd">
<!-- Generated by graphviz version 7.0.5 (20221223.1930)
 -->
<!-- Title: udmaio::DataHandlerSync Pages: 1 -->
<!--zoomable 283 -->
<svg id="main" version="1.1" xmlns="http://www.w3.org/2000/svg" xmlns:xlink="http://www.w3.org/1999/xlink" xml:space="preserve" onload="init(evt)">
<style type="text/css"><![CDATA[
.edge:hover path { stroke: red; }
.edge:hover polygon { stroke: red; fill: red; }
]]></style>
<script type="text/javascript"><![CDATA[
var edges = document.getElementsByTagName('g');
if (edges && edges.length) {
  for (var i=0;i<edges.length;i++) {
    if (edges[i].id.substr(0,4)=='edge') {
      edges[i].setAttribute('class','edge');
    }
  }
}
]]></script>
        <defs>
                <circle id="rim" cx="0" cy="0" r="7"/>
                <circle id="rim2" cx="0" cy="0" r="3.5"/>
                <g id="zoomPlus">
                        <use xlink:href="#rim" fill="#404040">
                                <set attributeName="fill" to="#808080" begin="zoomplus.mouseover" end="zoomplus.mouseout"/>
                        </use>
                        <path d="M-4,0h8M0,-4v8" fill="none" stroke="white" stroke-width="1.5" pointer-events="none"/>
                </g>
                <g id="zoomMin">
                        <use xlink:href="#rim" fill="#404040">
                                <set attributeName="fill" to="#808080" begin="zoomminus.mouseover" end="zoomminus.mouseout"/>
                        </use>
                        <path d="M-4,0h8" fill="none" stroke="white" stroke-width="1.5" pointer-events="none"/>
                </g>
                <g id="dirArrow">
                        <path fill="none" stroke="white" stroke-width="1.5" d="M0,-3.0v7 M-2.5,-0.5L0,-3.0L2.5,-0.5"/>
                </g>
               <g id="resetDef">
                       <use xlink:href="#rim2" fill="#404040">
                               <set attributeName="fill" to="#808080" begin="reset.mouseover" end="reset.mouseout"/>
                       </use>
               </g>
        </defs>

<script type="text/javascript">
var viewWidth = 1962;
var viewHeight = 283;
var sectionId = 'dynsection-1';
</script>
<script xlink:href="svgpan.js"/>
<svg id="graph" class="graph">
<g id="viewport">
<title>udmaio::DataHandlerSync</title>
<!-- Node1 -->
<g id="node1" class="node">
<title>Node1</title>
<g id="a_node1"><a xlink:title="Synchronous data handler with blocking read interface.">
<polygon fill="#999999" stroke="#666666" points="1954,-45 1826,-45 1826,-26 1954,-26 1954,-45"/>
<text text-anchor="middle" x="1890" y="-33" font-family="Helvetica,sans-Serif" font-size="10.00">udmaio::DataHandlerSync</text>
</a>
</g>
</g>
<!-- Node2 -->
<g id="node2" class="node">
<title>Node2</title>
<g id="a_node2"><a xlink:href="classudmaio_1_1_data_handler_abstract.html" target="_top" xlink:title="Base class to implement a DMA data reception handler.">
<polygon fill="white" stroke="#666666" points="1789,-127 1646,-127 1646,-108 1789,-108 1789,-127"/>
<text text-anchor="middle" x="1717.5" y="-115" font-family="Helvetica,sans-Serif" font-size="10.00">udmaio::DataHandlerAbstract</text>
</a>
</g>
</g>
<!-- Node2&#45;&gt;Node1 -->
<g id="edge1" class="edge">
<title>Node2&#45;&gt;Node1</title>
<path fill="none" stroke="#63b8ff" d="M1749.05,-102.81C1783.51,-86.23 1838.62,-59.73 1868.36,-45.43"/>
<polygon fill="#63b8ff" stroke="#63b8ff" points="1747.93,-99.46 1740.43,-106.95 1750.96,-105.77 1747.93,-99.46"/>
</g>
<!-- Node3 -->
<g id="node3" class="node">
<title>Node3</title>
<g id="a_node3"><a xlink:href="structudmaio_1_1_logger.html" target="_top" xlink:title=" ">
<polygon fill="white" stroke="#666666" points="284.5,-109 201.5,-109 201.5,-90 284.5,-90 284.5,-109"/>
<text text-anchor="middle" x="243" y="-97" font-family="Helvetica,sans-Serif" font-size="10.00">udmaio::Logger</text>
</a>
</g>
</g>
<!-- Node3&#45;&gt;Node2 -->
<g id="edge2" class="edge">
<title>Node3&#45;&gt;Node2</title>
<path fill="none" stroke="#63b8ff" d="M296.21,-99.5C334.16,-99.5 386.76,-99.5 433,-99.5 433,-99.5 433,-99.5 1522,-99.5 1563.03,-99.5 1608.73,-103.52 1645.51,-107.76"/>
<polygon fill="#63b8ff" stroke="#63b8ff" points="296.44,-96 286.44,-99.5 296.44,-103 296.44,-96"/>
</g>
<!-- Node8 -->
<g id="node8" class="node">
<title>Node8</title>
<g id="a_node8"><a xlink:href="classudmaio_1_1_hw_accessor.html" target="_top" xlink:title="Base class for hardware access.">
<polygon fill="white" stroke="#666666" points="488.5,-164 379.5,-164 379.5,-145 488.5,-145 488.5,-164"/>
<text text-anchor="middle" x="434" y="-152" font-family="Helvetica,sans-Serif" font-size="10.00">udmaio::HwAccessor</text>
</a>
</g>
</g>
<!-- Node3&#45;&gt;Node8 -->
<g id="edge9" class="edge">
<title>Node3&#45;&gt;Node8</title>
<path fill="none" stroke="#63b8ff" d="M289.15,-112.64C322.78,-122.43 368.01,-135.59 398.71,-144.52"/>
<polygon fill="#63b8ff" stroke="#63b8ff" points="290.26,-109.32 279.68,-109.88 288.3,-116.04 290.26,-109.32"/>
</g>
<!-- Node14 -->
<g id="node14" class="node">
<title>Node14</title>
<g id="a_node14"><a xlink:href="classudmaio_1_1_concurrent_queue.html" target="_top" xlink:title=" ">
<polygon fill="white" stroke="#666666" points="498,-50.5 370,-50.5 370,-20.5 498,-20.5 498,-50.5"/>
<text text-anchor="start" x="378" y="-38.5" font-family="Helvetica,sans-Serif" font-size="10.00">udmaio::ConcurrentQueue</text>
<text text-anchor="middle" x="434" y="-27.5" font-family="Helvetica,sans-Serif" font-size="10.00">&lt; std::vector&lt; uint8_t &gt; &gt;</text>
</a>
</g>
</g>
<!-- Node3&#45;&gt;Node14 -->
<g id="edge20" class="edge">
<title>Node3&#45;&gt;Node14</title>
<path fill="none" stroke="#63b8ff" d="M284.14,-85.91C314.41,-75.66 355.98,-61.58 387.49,-50.91"/>
<polygon fill="#63b8ff" stroke="#63b8ff" points="283.31,-82.49 274.96,-89.01 285.56,-89.12 283.31,-82.49"/>
</g>
<!-- Node4 -->
<g id="node4" class="node">
<title>Node4</title>
<g id="a_node4"><a xlink:title=" ">
<polygon fill="white" stroke="#666666" points="292.5,-223 193.5,-223 193.5,-204 292.5,-204 292.5,-223"/>
<text text-anchor="middle" x="243" y="-211" font-family="Helvetica,sans-Serif" font-size="10.00">boost::noncopyable</text>
</a>
</g>
</g>
<!-- Node4&#45;&gt;Node2 -->
<g id="edge3" class="edge">
<title>Node4&#45;&gt;Node2</title>
<path fill="none" stroke="#8b1a1a" d="M271.67,-228.46C307.72,-246.52 373.22,-274.5 433,-274.5 433,-274.5 433,-274.5 1522,-274.5 1616.17,-274.5 1690.44,-161.69 1710.89,-127.32"/>
<polygon fill="#8b1a1a" stroke="#8b1a1a" points="273.73,-225.58 263.23,-224.13 270.53,-231.81 273.73,-225.58"/>
</g>
<!-- Node6 -->
<g id="node6" class="node">
<title>Node6</title>
<g id="a_node6"><a xlink:href="classudmaio_1_1_uio_if.html" target="_top" xlink:title="Base class for UIO interfaces.">
<polygon fill="white" stroke="#666666" points="953.5,-164 879.5,-164 879.5,-145 953.5,-145 953.5,-164"/>
<text text-anchor="middle" x="916.5" y="-152" font-family="Helvetica,sans-Serif" font-size="10.00">udmaio::UioIf</text>
</a>
</g>
</g>
<!-- Node4&#45;&gt;Node6 -->
<g id="edge6" class="edge">
<title>Node4&#45;&gt;Node6</title>
<path fill="none" stroke="#8b1a1a" d="M304.07,-210C409.15,-203.73 633.15,-189.71 822,-173.5 839.36,-172.01 843.87,-172.71 861,-169.5 868.14,-168.16 875.7,-166.34 882.85,-164.43"/>
<polygon fill="#8b1a1a" stroke="#8b1a1a" points="304.04,-206.5 294.27,-210.58 304.46,-213.48 304.04,-206.5"/>
</g>
<!-- Node4&#45;&gt;Node8 -->
<g id="edge10" class="edge">
<title>Node4&#45;&gt;Node8</title>
<path fill="none" stroke="#8b1a1a" d="M272.79,-198.51C286.25,-191.96 302.66,-184.63 318,-179.5 337.57,-172.96 359.6,-167.69 379.1,-163.71"/>
<polygon fill="#8b1a1a" stroke="#8b1a1a" points="271.45,-195.26 264.06,-202.86 274.57,-201.53 271.45,-195.26"/>
</g>
<!-- Node13 -->
<g id="node13" class="node">
<title>Node13</title>
<g id="a_node13"><a xlink:href="classudmaio_1_1_dma_buffer_abstract.html" target="_top" xlink:title="Base class for DMA data buffer.">
<polygon fill="white" stroke="#666666" points="651,-244 516,-244 516,-225 651,-225 651,-244"/>
<text text-anchor="middle" x="583.5" y="-232" font-family="Helvetica,sans-Serif" font-size="10.00">udmaio::DmaBufferAbstract</text>
</a>
</g>
</g>
<!-- Node4&#45;&gt;Node13 -->
<g id="edge18" class="edge">
<title>Node4&#45;&gt;Node13</title>
<path fill="none" stroke="#8b1a1a" d="M304.29,-217.24C363.63,-220.92 454.04,-226.53 515.57,-230.35"/>
<polygon fill="#8b1a1a" stroke="#8b1a1a" points="304.57,-213.75 294.37,-216.62 304.13,-220.74 304.57,-213.75"/>
</g>
<!-- Node5 -->
<g id="node5" class="node">
<title>Node5</title>
<g id="a_node5"><a xlink:href="classudmaio_1_1_uio_axi_dma_if.html" target="_top" xlink:title="Interface to AXI DMA Core.">
<polygon fill="white" stroke="#666666" points="1135,-71 1028,-71 1028,-52 1135,-52 1135,-71"/>
<text text-anchor="middle" x="1081.5" y="-59" font-family="Helvetica,sans-Serif" font-size="10.00">udmaio::UioAxiDmaIf</text>
</a>
</g>
</g>
<!-- Node5&#45;&gt;Node2 -->
<g id="edge4" class="edge">
<title>Node5&#45;&gt;Node2</title>
<path fill="none" stroke="#9a32cd" stroke-dasharray="5,2" d="M1146.88,-57.79C1249.75,-53.31 1457.02,-50.28 1628,-85.5 1651.36,-90.31 1676.86,-100.04 1694.46,-107.52"/>
<polygon fill="#9a32cd" stroke="#9a32cd" points="1146.8,-54.29 1136.97,-58.24 1147.12,-61.28 1146.8,-54.29"/>
<text text-anchor="middle" x="1417.5" y="-63.5" font-family="Helvetica,sans-Serif" font-size="10.00"> _dma</text>
</g>
<!-- Node6&#45;&gt;Node5 -->
<g id="edge5" class="edge">
<title>Node6&#45;&gt;Node5</title>
<path fill="none" stroke="#63b8ff" d="M944.61,-139.03C978.31,-119.8 1034.83,-87.56 1063.18,-71.38"/>
<polygon fill="#63b8ff" stroke="#63b8ff" points="943.21,-135.8 936.26,-143.8 946.68,-141.88 943.21,-135.8"/>
</g>
<!-- Node10 -->
<g id="node10" class="node">
<title>Node10</title>
<g id="a_node10"><a xlink:href="classudmaio_1_1_uio_mem_sgdma.html" target="_top" xlink:title="Interface to AXI DMA scatter&#45;gather buffers &amp; descriptors Uses a UioIf to access DMA descriptor memor...">
<polygon fill="white" stroke="#666666" points="1581,-147 1461,-147 1461,-128 1581,-128 1581,-147"/>
<text text-anchor="middle" x="1521" y="-135" font-family="Helvetica,sans-Serif" font-size="10.00">udmaio::UioMemSgdma</text>
</a>
</g>
</g>
<!-- Node6&#45;&gt;Node10 -->
<g id="edge13" class="edge">
<title>Node6&#45;&gt;Node10</title>
<path fill="none" stroke="#63b8ff" d="M965.09,-153.16C1073.99,-150.08 1341.09,-142.55 1460.56,-139.18"/>
<polygon fill="#63b8ff" stroke="#63b8ff" points="965.24,-149.65 955.35,-153.43 965.44,-156.65 965.24,-149.65"/>
</g>
<!-- Node12 -->
<g id="node12" class="node">
<title>Node12</title>
<g id="a_node12"><a xlink:href="classudmaio_1_1_reg_accessor_base.html" target="_top" xlink:title="Base class implementing register access. Only used by subclasses, not used directly.">
<polygon fill="white" stroke="#666666" points="1160,-194 1003,-194 1003,-175 1160,-175 1160,-194"/>
<text text-anchor="middle" x="1081.5" y="-182" font-family="Helvetica,sans-Serif" font-size="10.00">udmaio::RegAccessorBase&lt; C &gt;</text>
</a>
</g>
</g>
<!-- Node6&#45;&gt;Node12 -->
<g id="edge16" class="edge">
<title>Node6&#45;&gt;Node12</title>
<path fill="none" stroke="#9a32cd" stroke-dasharray="5,2" d="M964.92,-163.23C984.19,-166.77 1006.57,-170.89 1026.46,-174.55"/>
<polygon fill="#9a32cd" stroke="#9a32cd" points="965.63,-159.8 955.16,-161.43 964.36,-166.68 965.63,-159.8"/>
<text text-anchor="middle" x="978.5" y="-169.5" font-family="Helvetica,sans-Serif" font-size="10.00"> _if</text>
</g>
<!-- Node7 -->
<g id="node7" class="node">
<title>Node7</title>
<g id="a_node7"><a xlink:title=" ">
<polygon fill="white" stroke="#666666" points="822,-164 669,-164 669,-145 822,-145 822,-164"/>
<text text-anchor="middle" x="745.5" y="-152" font-family="Helvetica,sans-Serif" font-size="10.00">std::shared_ptr&lt; HwAccessor &gt;</text>
</a>
</g>
</g>
<!-- Node7&#45;&gt;Node6 -->
<g id="edge7" class="edge">
<title>Node7&#45;&gt;Node6</title>
<path fill="none" stroke="#9a32cd" stroke-dasharray="5,2" d="M833.32,-154.5C849.53,-154.5 865.63,-154.5 879.22,-154.5"/>
<polygon fill="#9a32cd" stroke="#9a32cd" points="833.62,-151 823.62,-154.5 833.62,-158 833.62,-151"/>
<text text-anchor="middle" x="850.5" y="-157.5" font-family="Helvetica,sans-Serif" font-size="10.00"> _hw</text>
</g>
<!-- Node8&#45;&gt;Node7 -->
<g id="edge8" class="edge">
<title>Node8&#45;&gt;Node7</title>
<path fill="none" stroke="#9a32cd" stroke-dasharray="5,2" d="M500.37,-154.5C549.54,-154.5 617.04,-154.5 668.6,-154.5"/>
<polygon fill="#9a32cd" stroke="#9a32cd" points="500.42,-151 490.42,-154.5 500.42,-158 500.42,-151"/>
<text text-anchor="middle" x="583.5" y="-157.5" font-family="Helvetica,sans-Serif" font-size="10.00"> ptr</text>
</g>
<!-- Node9 -->
<g id="node9" class="node">
<title>Node9</title>
<g id="a_node9"><a xlink:href="structaxi__dma_1_1block__template.html" target="_top" xlink:title="Template class for the axi_dma block, containing accessors for all its registers.">
<polygon fill="white" stroke="#666666" points="954,-71 879,-71 879,-52 954,-52 954,-71"/>
<text text-anchor="middle" x="916.5" y="-59" font-family="Helvetica,sans-Serif" font-size="10.00">AxiDmaBlock</text>
</a>
</g>
</g>
<!-- Node9&#45;&gt;Node5 -->
<g id="edge11" class="edge">
<title>Node9&#45;&gt;Node5</title>
<path fill="none" stroke="#8b1a1a" d="M965.84,-61.5C985.26,-61.5 1007.72,-61.5 1027.59,-61.5"/>
<polygon fill="#8b1a1a" stroke="#8b1a1a" points="966,-58 956,-61.5 966,-65 966,-58"/>
</g>
<!-- Node10&#45;&gt;Node2 -->
<g id="edge12" class="edge">
<title>Node10&#45;&gt;Node2</title>
<path fill="none" stroke="#9a32cd" stroke-dasharray="5,2" d="M1592.6,-130.24C1609.93,-128.46 1628.49,-126.55 1645.83,-124.77"/>
<polygon fill="#9a32cd" stroke="#9a32cd" points="1592.51,-126.73 1582.92,-131.24 1593.22,-133.69 1592.51,-126.73"/>
<text text-anchor="middle" x="1613.5" y="-131.5" font-family="Helvetica,sans-Serif" font-size="10.00"> _desc</text>
</g>
<!-- Node11 -->
<g id="node11" class="node">
<title>Node11</title>
<g id="a_node11"><a xlink:href="classudmaio_1_1_reg_accessor_array.html" target="_top" xlink:title=" ">
<polygon fill="white" stroke="#666666" points="1374,-207 1230,-207 1230,-166 1374,-166 1374,-207"/>
<text text-anchor="start" x="1238" y="-195" font-family="Helvetica,sans-Serif" font-size="10.00">udmaio::RegAccessorArray</text>
<text text-anchor="start" x="1238" y="-184" font-family="Helvetica,sans-Serif" font-size="10.00">&lt; S2mmDesc, 0, 1024, DESC</text>
<text text-anchor="middle" x="1302" y="-173" font-family="Helvetica,sans-Serif" font-size="10.00">_ADDR_STEP &gt;</text>
</a>
</g>
</g>
<!-- Node11&#45;&gt;Node10 -->
<g id="edge14" class="edge">
<title>Node11&#45;&gt;Node10</title>
<path fill="none" stroke="#9a32cd" stroke-dasharray="5,2" d="M1385.51,-167.87C1416.21,-160.94 1449.86,-153.34 1475.82,-147.48"/>
<polygon fill="#9a32cd" stroke="#9a32cd" points="1384.81,-164.44 1375.83,-170.05 1386.36,-171.27 1384.81,-164.44"/>
<text text-anchor="middle" x="1417.5" y="-168.5" font-family="Helvetica,sans-Serif" font-size="10.00"> descriptors</text>
</g>
<!-- Node12&#45;&gt;Node11 -->
<g id="edge15" class="edge">
<title>Node12&#45;&gt;Node11</title>
<path fill="none" stroke="#63b8ff" d="M1171.97,-185.32C1191.17,-185.49 1211.22,-185.68 1229.63,-185.85"/>
<polygon fill="#63b8ff" stroke="#63b8ff" points="1172,-181.82 1161.97,-185.23 1171.94,-188.82 1172,-181.82"/>
</g>
<!-- Node13&#45;&gt;Node2 -->
<g id="edge17" class="edge">
<title>Node13&#45;&gt;Node2</title>
<path fill="none" stroke="#9a32cd" stroke-dasharray="5,2" d="M662.79,-234.95C715.54,-235.22 786.71,-235.5 849.5,-235.5 849.5,-235.5 849.5,-235.5 1522,-235.5 1605.34,-235.5 1683.43,-155.34 1708.31,-127.16"/>
<polygon fill="#9a32cd" stroke="#9a32cd" points="663.01,-231.45 652.99,-234.9 662.98,-238.45 663.01,-231.45"/>
<text text-anchor="middle" x="1081.5" y="-238.5" font-family="Helvetica,sans-Serif" font-size="10.00"> _mem</text>
</g>
<!-- Node14&#45;&gt;Node1 -->
<g id="edge19" class="edge">
<title>Node14&#45;&gt;Node1</title>
<path fill="none" stroke="#9a32cd" stroke-dasharray="5,2" d="M509.75,-30.98C572.41,-27.58 664.26,-23.5 744.5,-23.5 744.5,-23.5 744.5,-23.5 1718.5,-23.5 1753.96,-23.5 1793.47,-26.11 1825.52,-28.9"/>
<polygon fill="#9a32cd" stroke="#9a32cd" points="509.7,-27.48 499.91,-31.52 510.09,-34.46 509.7,-27.48"/>
<text text-anchor="middle" x="1195" y="-26.5" font-family="Helvetica,sans-Serif" font-size="10.00"> _queue</text>
</g>
<!-- Node15 -->
<g id="node15" class="node">
<title>Node15</title>
<g id="a_node15"><a xlink:title=" ">
<polygon fill="white" stroke="#666666" points="300,-67.5 186,-67.5 186,-37.5 300,-37.5 300,-67.5"/>
<text text-anchor="start" x="194" y="-55.5" font-family="Helvetica,sans-Serif" font-size="10.00">std::queue&lt; std::vector</text>
<text text-anchor="middle" x="243" y="-44.5" font-family="Helvetica,sans-Serif" font-size="10.00">&lt; uint8_t &gt; &gt;</text>
</a>
</g>
</g>
<!-- Node15&#45;&gt;Node14 -->
<g id="edge21" class="edge">
<title>Node15&#45;&gt;Node14</title>
<path fill="none" stroke="#9a32cd" stroke-dasharray="5,2" d="M311.66,-46.41C330.52,-44.72 350.95,-42.88 369.56,-41.21"/>
<polygon fill="#9a32cd" stroke="#9a32cd" points="311.6,-42.91 301.96,-47.29 312.23,-49.88 311.6,-42.91"/>
<text text-anchor="middle" x="335" y="-49.5" font-family="Helvetica,sans-Serif" font-size="10.00"> _queue</text>
</g>
<!-- Node16 -->
<g id="node16" class="node">
<title>Node16</title>
<g id="a_node16"><a xlink:title=" ">
<polygon fill="white" stroke="#666666" points="107,-62 0,-62 0,-43 107,-43 107,-62"/>
<text text-anchor="middle" x="53.5" y="-50" font-family="Helvetica,sans-Serif" font-size="10.00">std::vector&lt; uint8_t &gt;</text>
</a>
</g>
</g>
<!-- Node16&#45;&gt;Node15 -->
<g id="edge22" class="edge">
<title>Node16&#45;&gt;Node15</title>
<path fill="none" stroke="#9a32cd" stroke-dasharray="5,2" d="M118.71,-52.5C140.48,-52.5 164.63,-52.5 185.74,-52.5"/>
<polygon fill="#9a32cd" stroke="#9a32cd" points="118.74,-49 108.74,-52.5 118.74,-56 118.74,-49"/>
<text text-anchor="middle" x="146.5" y="-55.5" font-family="Helvetica,sans-Serif" font-size="10.00"> elements</text>
</g>
<!-- Node17 -->
<g id="node17" class="node">
<title>Node17</title>
<g id="a_node17"><a xlink:title=" ">
<polygon fill="white" stroke="#666666" points="273.5,-19 212.5,-19 212.5,0 273.5,0 273.5,-19"/>
<text text-anchor="middle" x="243" y="-7" font-family="Helvetica,sans-Serif" font-size="10.00">std::mutex</text>
</a>
</g>
</g>
<!-- Node17&#45;&gt;Node14 -->
<g id="edge23" class="edge">
<title>Node17&#45;&gt;Node14</title>
<path fill="none" stroke="#9a32cd" stroke-dasharray="5,2" d="M285.08,-15.15C309.76,-18.55 341.68,-22.94 369.55,-26.77"/>
<polygon fill="#9a32cd" stroke="#9a32cd" points="285.83,-11.72 275.45,-13.83 284.88,-18.66 285.83,-11.72"/>
<text text-anchor="middle" x="335" y="-27.5" font-family="Helvetica,sans-Serif" font-size="10.00"> _mutex</text>
</g>
</g>
</svg>
        <g id="navigator" transform="translate(0 0)" fill="#404254">
                <rect fill="#f2f5e9" fill-opacity="0.5" stroke="#606060" stroke-width=".5" x="0" y="0" width="60" height="60"/>
                <use id="zoomplus" xlink:href="#zoomPlus" x="17" y="9" onmousedown="handleZoom(evt,'in')"/>
                <use id="zoomminus" xlink:href="#zoomMin" x="42" y="9" onmousedown="handleZoom(evt,'out')"/>
                <use id="reset" xlink:href="#resetDef" x="30" y="36" onmousedown="handleReset()"/>
                <g id="arrowUp" xlink:href="#dirArrow" transform="translate(30 24)" onmousedown="handlePan(0,-1)">
                  <use xlink:href="#rim" fill="#404040">
                        <set attributeName="fill" to="#808080" begin="arrowUp.mouseover" end="arrowUp.mouseout"/>
                  </use>
                  <path fill="none" stroke="white" stroke-width="1.5" d="M0,-3.0v7 M-2.5,-0.5L0,-3.0L2.5,-0.5"/>
                </g>
                <g id="arrowRight" xlink:href="#dirArrow" transform="rotate(90) translate(36 -43)" onmousedown="handlePan(1,0)">
                  <use xlink:href="#rim" fill="#404040">
                        <set attributeName="fill" to="#808080" begin="arrowRight.mouseover" end="arrowRight.mouseout"/>
                  </use>
                  <path fill="none" stroke="white" stroke-width="1.5" d="M0,-3.0v7 M-2.5,-0.5L0,-3.0L2.5,-0.5"/>
                </g>
                <g id="arrowDown" xlink:href="#dirArrow" transform="rotate(180) translate(-30 -48)" onmousedown="handlePan(0,1)">
                  <use xlink:href="#rim" fill="#404040">
                        <set attributeName="fill" to="#808080" begin="arrowDown.mouseover" end="arrowDown.mouseout"/>
                  </use>
                  <path fill="none" stroke="white" stroke-width="1.5" d="M0,-3.0v7 M-2.5,-0.5L0,-3.0L2.5,-0.5"/>
                </g>
                <g id="arrowLeft" xlink:href="#dirArrow" transform="rotate(270) translate(-36 17)" onmousedown="handlePan(-1,0)">
                  <use xlink:href="#rim" fill="#404040">
                        <set attributeName="fill" to="#808080" begin="arrowLeft.mouseover" end="arrowLeft.mouseout"/>
                  </use>
                  <path fill="none" stroke="white" stroke-width="1.5" d="M0,-3.0v7 M-2.5,-0.5L0,-3.0L2.5,-0.5"/>
                </g>
        </g>
        <svg viewBox="0 0 15 15" width="100%" height="30px" preserveAspectRatio="xMaxYMin meet">
         <g id="arrow_out" transform="scale(0.3 0.3)">
          <a xlink:href="classudmaio_1_1_data_handler_sync__coll__graph_org.svg" target="_base">
           <rect id="button" ry="5" rx="5" y="6" x="6" height="38" width="38"
                fill="#f2f5e9" fill-opacity="0.5" stroke="#606060" stroke-width="1.0"/>
           <path id="arrow"
             d="M 11.500037,31.436501 C 11.940474,20.09759 22.043105,11.32322 32.158766,21.979434 L 37.068811,17.246167 C 37.068811,17.246167 37.088388,32 37.088388,32 L 22.160133,31.978069 C 22.160133,31.978069 26.997745,27.140456 26.997745,27.140456 C 18.528582,18.264221 13.291696,25.230495 11.500037,31.436501 z"
             style="fill:#404040;"/>
          </a>
         </g>
        </svg>
</svg>
