<?xml version="1.0" encoding="UTF-8" standalone="no"?>
<!DOCTYPE svg PUBLIC "-//W3C//DTD SVG 1.1//EN"
 "http://www.w3.org/Graphics/SVG/1.1/DTD/svg11.dtd">
<!-- Generated by graphviz version 7.0.5 (20221223.1930)
 -->
<!-- Title: udmaio::DataHandlerAbstract Pages: 1 -->
<!--zoomable 161 -->
<svg id="main" version="1.1" xmlns="http://www.w3.org/2000/svg" xmlns:xlink="http://www.w3.org/1999/xlink" xml:space="preserve" onload="init(evt)">
<style type="text/css"><![CDATA[
.edge:hover path { stroke: red; }
.edge:hover polygon { stroke: red; fill: red; }
]]></style>
<script type="text/javascript"><![CDATA[
var edges = document.getElementsByTagName('g');
if (edges && edges.length) {
  for (var i=0;i<edges.length;i++) {
    if (edges[i].id.substr(0,4)=='edge') {
      edges[i].setAttribute('class','edge');
    }
  }
}
]]></script>
        <defs>
                <circle id="rim" cx="0" cy="0" r="7"/>
                <circle id="rim2" cx="0" cy="0" r="3.5"/>
                <g id="zoomPlus">
                        <use xlink:href="#rim" fill="#404040">
                                <set attributeName="fill" to="#808080" begin="zoomplus.mouseover" end="zoomplus.mouseout"/>
                        </use>
                        <path d="M-4,0h8M0,-4v8" fill="none" stroke="white" stroke-width="1.5" pointer-events="none"/>
                </g>
                <g id="zoomMin">
                        <use xlink:href="#rim" fill="#404040">
                                <set attributeName="fill" to="#808080" begin="zoomminus.mouseover" end="zoomminus.mouseout"/>
                        </use>
                        <path d="M-4,0h8" fill="none" stroke="white" stroke-width="1.5" pointer-events="none"/>
                </g>
                <g id="dirArrow">
                        <path fill="none" stroke="white" stroke-width="1.5" d="M0,-3.0v7 M-2.5,-0.5L0,-3.0L2.5,-0.5"/>
                </g>
               <g id="resetDef">
                       <use xlink:href="#rim2" fill="#404040">
                               <set attributeName="fill" to="#808080" begin="reset.mouseover" end="reset.mouseout"/>
                       </use>
               </g>
        </defs>

<script type="text/javascript">
var viewWidth = 945;
var viewHeight = 161;
var sectionId = 'dynsection-1';
</script>
<script xlink:href="svgpan.js"/>
<svg id="graph" class="graph">
<g id="viewport">
<title>udmaio::DataHandlerAbstract</title>
<!-- Node1 -->
<g id="node1" class="node">
<title>Node1</title>
<g id="a_node1"><a xlink:title="Base class to implement a DMA data reception handler.">
<polygon fill="#999999" stroke="#666666" points="937,-96 794,-96 794,-77 937,-77 937,-96"/>
<text text-anchor="middle" x="865.5" y="-84" font-family="Helvetica,sans-Serif" font-size="10.00">udmaio::DataHandlerAbstract</text>
</a>
</g>
</g>
<!-- Node2 -->
<g id="node2" class="node">
<title>Node2</title>
<g id="a_node2"><a xlink:title=" ">
<polygon fill="white" stroke="#666666" points="276,-109 177,-109 177,-90 276,-90 276,-109"/>
<text text-anchor="middle" x="226.5" y="-97" font-family="Helvetica,sans-Serif" font-size="10.00">boost::noncopyable</text>
</a>
</g>
</g>
<!-- Node2&#45;&gt;Node1 -->
<g id="edge1" class="edge">
<title>Node2&#45;&gt;Node1</title>
<path fill="none" stroke="#8b1a1a" d="M287.74,-98.27C405.86,-95.86 667.36,-90.52 793.59,-87.95"/>
<polygon fill="#8b1a1a" stroke="#8b1a1a" points="287.87,-94.77 277.94,-98.47 288.01,-101.77 287.87,-94.77"/>
</g>
<!-- Node4 -->
<g id="node4" class="node">
<title>Node4</title>
<g id="a_node4"><a xlink:href="classudmaio_1_1_uio_if.html" target="_top" xlink:title="Base class for UIO interfaces.">
<polygon fill="white" stroke="#666666" points="438,-58 364,-58 364,-39 438,-39 438,-58"/>
<text text-anchor="middle" x="401" y="-46" font-family="Helvetica,sans-Serif" font-size="10.00">udmaio::UioIf</text>
</a>
</g>
</g>
<!-- Node2&#45;&gt;Node4 -->
<g id="edge4" class="edge">
<title>Node2&#45;&gt;Node4</title>
<path fill="none" stroke="#8b1a1a" d="M272,-86.34C301.46,-77.63 339.49,-66.39 366.42,-58.43"/>
<polygon fill="#8b1a1a" stroke="#8b1a1a" points="271.22,-82.92 262.62,-89.12 273.2,-89.64 271.22,-82.92"/>
</g>
<!-- Node9 -->
<g id="node9" class="node">
<title>Node9</title>
<g id="a_node9"><a xlink:href="classudmaio_1_1_dma_buffer_abstract.html" target="_top" xlink:title="Base class for DMA data buffer.">
<polygon fill="white" stroke="#666666" points="591,-153 456,-153 456,-134 591,-134 591,-153"/>
<text text-anchor="middle" x="523.5" y="-141" font-family="Helvetica,sans-Serif" font-size="10.00">udmaio::DmaBufferAbstract</text>
</a>
</g>
</g>
<!-- Node2&#45;&gt;Node9 -->
<g id="edge11" class="edge">
<title>Node2&#45;&gt;Node9</title>
<path fill="none" stroke="#8b1a1a" d="M287.68,-110.77C293.19,-111.73 298.7,-112.65 304,-113.5 354.85,-121.64 412.58,-129.51 455.93,-135.14"/>
<polygon fill="#8b1a1a" stroke="#8b1a1a" points="288.36,-107.34 277.91,-109.05 287.15,-114.23 288.36,-107.34"/>
</g>
<!-- Node3 -->
<g id="node3" class="node">
<title>Node3</title>
<g id="a_node3"><a xlink:href="classudmaio_1_1_uio_axi_dma_if.html" target="_top" xlink:title="Interface to AXI DMA Core.">
<polygon fill="white" stroke="#666666" points="722.5,-34 615.5,-34 615.5,-15 722.5,-15 722.5,-34"/>
<text text-anchor="middle" x="669" y="-22" font-family="Helvetica,sans-Serif" font-size="10.00">udmaio::UioAxiDmaIf</text>
</a>
</g>
</g>
<!-- Node3&#45;&gt;Node1 -->
<g id="edge2" class="edge">
<title>Node3&#45;&gt;Node1</title>
<path fill="none" stroke="#9a32cd" stroke-dasharray="5,2" d="M714.98,-37.71C733.87,-43.36 756.05,-50.11 776,-56.5 796.09,-62.93 818.59,-70.57 835.88,-76.53"/>
<polygon fill="#9a32cd" stroke="#9a32cd" points="716.02,-34.37 705.43,-34.87 714.02,-41.08 716.02,-34.37"/>
<text text-anchor="middle" x="761.5" y="-59.5" font-family="Helvetica,sans-Serif" font-size="10.00"> _dma</text>
</g>
<!-- Node4&#45;&gt;Node3 -->
<g id="edge3" class="edge">
<title>Node4&#45;&gt;Node3</title>
<path fill="none" stroke="#63b8ff" d="M449.71,-44.2C496.23,-40 566.83,-33.63 615.06,-29.28"/>
<polygon fill="#63b8ff" stroke="#63b8ff" points="449.58,-40.69 439.94,-45.08 450.21,-47.66 449.58,-40.69"/>
</g>
<!-- Node8 -->
<g id="node8" class="node">
<title>Node8</title>
<g id="a_node8"><a xlink:href="classudmaio_1_1_uio_mem_sgdma.html" target="_top" xlink:title="Interface to AXI DMA scatter&#45;gather buffers &amp; descriptors Uses a UioIf to access DMA descriptor memor...">
<polygon fill="white" stroke="#666666" points="729,-71 609,-71 609,-52 729,-52 729,-71"/>
<text text-anchor="middle" x="669" y="-59" font-family="Helvetica,sans-Serif" font-size="10.00">udmaio::UioMemSgdma</text>
</a>
</g>
</g>
<!-- Node4&#45;&gt;Node8 -->
<g id="edge9" class="edge">
<title>Node4&#45;&gt;Node8</title>
<path fill="none" stroke="#63b8ff" d="M449.8,-50.84C494.27,-53.01 560.71,-56.26 608.58,-58.6"/>
<polygon fill="#63b8ff" stroke="#63b8ff" points="450.1,-47.35 439.94,-50.35 449.76,-54.34 450.1,-47.35"/>
</g>
<!-- Node5 -->
<g id="node5" class="node">
<title>Node5</title>
<g id="a_node5"><a xlink:title=" ">
<polygon fill="white" stroke="#666666" points="286,-67.5 167,-67.5 167,-37.5 286,-37.5 286,-67.5"/>
<text text-anchor="start" x="175" y="-55.5" font-family="Helvetica,sans-Serif" font-size="10.00">std::unique_ptr&lt; udmaio</text>
<text text-anchor="middle" x="226.5" y="-44.5" font-family="Helvetica,sans-Serif" font-size="10.00">::UioConfigBase &gt;</text>
</a>
</g>
</g>
<!-- Node5&#45;&gt;Node4 -->
<g id="edge5" class="edge">
<title>Node5&#45;&gt;Node4</title>
<path fill="none" stroke="#9a32cd" stroke-dasharray="5,2" d="M297.76,-49.67C299.86,-49.61 301.95,-49.55 304,-49.5 323.66,-49.01 345.59,-48.76 363.53,-48.63"/>
<polygon fill="#9a32cd" stroke="#9a32cd" points="297.78,-46.16 287.9,-49.97 298,-53.16 297.78,-46.16"/>
<text text-anchor="middle" x="325" y="-52.5" font-family="Helvetica,sans-Serif" font-size="10.00"> _link_cfg</text>
</g>
<!-- Node6 -->
<g id="node6" class="node">
<title>Node6</title>
<g id="a_node6"><a xlink:href="classudmaio_1_1_uio_config_base.html" target="_top" xlink:title="Base class for UioDeviceInfo configuration.">
<polygon fill="white" stroke="#666666" points="117,-62 0,-62 0,-43 117,-43 117,-62"/>
<text text-anchor="middle" x="58.5" y="-50" font-family="Helvetica,sans-Serif" font-size="10.00">udmaio::UioConfigBase</text>
</a>
</g>
</g>
<!-- Node6&#45;&gt;Node5 -->
<g id="edge6" class="edge">
<title>Node6&#45;&gt;Node5</title>
<path fill="none" stroke="#9a32cd" stroke-dasharray="5,2" d="M128.55,-52.5C141.19,-52.5 154.29,-52.5 166.6,-52.5"/>
<polygon fill="#9a32cd" stroke="#9a32cd" points="128.61,-49 118.61,-52.5 128.61,-56 128.61,-49"/>
<text text-anchor="middle" x="142" y="-55.5" font-family="Helvetica,sans-Serif" font-size="10.00"> ptr</text>
</g>
<!-- Node7 -->
<g id="node7" class="node">
<title>Node7</title>
<g id="a_node7"><a xlink:href="structudmaio_1_1_uio_region.html" target="_top" xlink:title="General&#45;purpose struct to define a memory area.">
<polygon fill="white" stroke="#666666" points="275.5,-19 177.5,-19 177.5,0 275.5,0 275.5,-19"/>
<text text-anchor="middle" x="226.5" y="-7" font-family="Helvetica,sans-Serif" font-size="10.00">udmaio::UioRegion</text>
</a>
</g>
</g>
<!-- Node7&#45;&gt;Node4 -->
<g id="edge7" class="edge">
<title>Node7&#45;&gt;Node4</title>
<path fill="none" stroke="#9a32cd" stroke-dasharray="5,2" d="M286.93,-21.48C305.85,-25.45 326.84,-30 346,-34.5 351.75,-35.85 357.83,-37.35 363.75,-38.86"/>
<polygon fill="#9a32cd" stroke="#9a32cd" points="287.74,-18.08 277.24,-19.47 286.31,-24.93 287.74,-18.08"/>
<text text-anchor="middle" x="325" y="-37.5" font-family="Helvetica,sans-Serif" font-size="10.00"> _region</text>
</g>
<!-- Node8&#45;&gt;Node1 -->
<g id="edge8" class="edge">
<title>Node8&#45;&gt;Node1</title>
<path fill="none" stroke="#9a32cd" stroke-dasharray="5,2" d="M740.64,-70.04C752.45,-71.5 764.57,-73.02 776,-74.5 781.69,-75.23 787.58,-76.01 793.5,-76.79"/>
<polygon fill="#9a32cd" stroke="#9a32cd" points="741.3,-66.59 730.95,-68.84 740.44,-73.54 741.3,-66.59"/>
<text text-anchor="middle" x="761.5" y="-77.5" font-family="Helvetica,sans-Serif" font-size="10.00"> _desc</text>
</g>
<!-- Node9&#45;&gt;Node1 -->
<g id="edge10" class="edge">
<title>Node9&#45;&gt;Node1</title>
<path fill="none" stroke="#9a32cd" stroke-dasharray="5,2" d="M602.84,-137.76C652.77,-133.21 718.61,-125.58 776,-113.5 796.59,-109.17 819.28,-102.2 836.53,-96.43"/>
<polygon fill="#9a32cd" stroke="#9a32cd" points="602.64,-134.26 592.99,-138.63 603.26,-141.23 602.64,-134.26"/>
<text text-anchor="middle" x="669" y="-140.5" font-family="Helvetica,sans-Serif" font-size="10.00"> _mem</text>
</g>
</g>
</svg>
        <g id="navigator" transform="translate(0 0)" fill="#404254">
                <rect fill="#f2f5e9" fill-opacity="0.5" stroke="#606060" stroke-width=".5" x="0" y="0" width="60" height="60"/>
                <use id="zoomplus" xlink:href="#zoomPlus" x="17" y="9" onmousedown="handleZoom(evt,'in')"/>
                <use id="zoomminus" xlink:href="#zoomMin" x="42" y="9" onmousedown="handleZoom(evt,'out')"/>
                <use id="reset" xlink:href="#resetDef" x="30" y="36" onmousedown="handleReset()"/>
                <g id="arrowUp" xlink:href="#dirArrow" transform="translate(30 24)" onmousedown="handlePan(0,-1)">
                  <use xlink:href="#rim" fill="#404040">
                        <set attributeName="fill" to="#808080" begin="arrowUp.mouseover" end="arrowUp.mouseout"/>
                  </use>
                  <path fill="none" stroke="white" stroke-width="1.5" d="M0,-3.0v7 M-2.5,-0.5L0,-3.0L2.5,-0.5"/>
                </g>
                <g id="arrowRight" xlink:href="#dirArrow" transform="rotate(90) translate(36 -43)" onmousedown="handlePan(1,0)">
                  <use xlink:href="#rim" fill="#404040">
                        <set attributeName="fill" to="#808080" begin="arrowRight.mouseover" end="arrowRight.mouseout"/>
                  </use>
                  <path fill="none" stroke="white" stroke-width="1.5" d="M0,-3.0v7 M-2.5,-0.5L0,-3.0L2.5,-0.5"/>
                </g>
                <g id="arrowDown" xlink:href="#dirArrow" transform="rotate(180) translate(-30 -48)" onmousedown="handlePan(0,1)">
                  <use xlink:href="#rim" fill="#404040">
                        <set attributeName="fill" to="#808080" begin="arrowDown.mouseover" end="arrowDown.mouseout"/>
                  </use>
                  <path fill="none" stroke="white" stroke-width="1.5" d="M0,-3.0v7 M-2.5,-0.5L0,-3.0L2.5,-0.5"/>
                </g>
                <g id="arrowLeft" xlink:href="#dirArrow" transform="rotate(270) translate(-36 17)" onmousedown="handlePan(-1,0)">
                  <use xlink:href="#rim" fill="#404040">
                        <set attributeName="fill" to="#808080" begin="arrowLeft.mouseover" end="arrowLeft.mouseout"/>
                  </use>
                  <path fill="none" stroke="white" stroke-width="1.5" d="M0,-3.0v7 M-2.5,-0.5L0,-3.0L2.5,-0.5"/>
                </g>
        </g>
        <svg viewBox="0 0 15 15" width="100%" height="30px" preserveAspectRatio="xMaxYMin meet">
         <g id="arrow_out" transform="scale(0.3 0.3)">
          <a xlink:href="classudmaio_1_1_data_handler_abstract__coll__graph_org.svg" target="_base">
           <rect id="button" ry="5" rx="5" y="6" x="6" height="38" width="38"
                fill="#f2f5e9" fill-opacity="0.5" stroke="#606060" stroke-width="1.0"/>
           <path id="arrow"
             d="M 11.500037,31.436501 C 11.940474,20.09759 22.043105,11.32322 32.158766,21.979434 L 37.068811,17.246167 C 37.068811,17.246167 37.088388,32 37.088388,32 L 22.160133,31.978069 C 22.160133,31.978069 26.997745,27.140456 26.997745,27.140456 C 18.528582,18.264221 13.291696,25.230495 11.500037,31.436501 z"
             style="fill:#404040;"/>
          </a>
         </g>
        </svg>
</svg>
