<?xml version="1.0" encoding="UTF-8" standalone="no"?>
<!DOCTYPE svg PUBLIC "-//W3C//DTD SVG 1.1//EN"
 "http://www.w3.org/Graphics/SVG/1.1/DTD/svg11.dtd">
<!-- Generated by graphviz version 7.0.5 (20221223.1930)
 -->
<!-- Title: udmaio::RegAccessorBase&lt; C &gt; Pages: 1 -->
<svg width="252pt" height="281pt"
 viewBox="0.00 0.00 252.00 281.00" xmlns="http://www.w3.org/2000/svg" xmlns:xlink="http://www.w3.org/1999/xlink">
<g id="graph0" class="graph" transform="scale(1 1) rotate(0) translate(4 277)">
<title>udmaio::RegAccessorBase&lt; C &gt;</title>
<!-- Node1 -->
<g id="node1" class="node">
<title>Node1</title>
<g id="a_node1"><a xlink:title="Base class implementing register access. Only used by subclasses, not used directly.">
<polygon fill="#999999" stroke="#666666" points="157,-19 0,-19 0,0 157,0 157,-19"/>
<text text-anchor="middle" x="78.5" y="-7" font-family="Helvetica,sans-Serif" font-size="10.00">udmaio::RegAccessorBase&lt; C &gt;</text>
</a>
</g>
</g>
<!-- Node2 -->
<g id="node2" class="node">
<title>Node2</title>
<g id="a_node2"><a xlink:href="classudmaio_1_1_uio_if.html" target="_top" xlink:title="Base class for UIO interfaces.">
<polygon fill="white" stroke="#666666" points="115.5,-85 41.5,-85 41.5,-66 115.5,-66 115.5,-85"/>
<text text-anchor="middle" x="78.5" y="-73" font-family="Helvetica,sans-Serif" font-size="10.00">udmaio::UioIf</text>
</a>
</g>
</g>
<!-- Node2&#45;&gt;Node1 -->
<g id="edge1" class="edge">
<title>Node2&#45;&gt;Node1</title>
<path fill="none" stroke="#9a32cd" stroke-dasharray="5,2" d="M78.5,-54.18C78.5,-42.44 78.5,-28.27 78.5,-19.32"/>
<polygon fill="#9a32cd" stroke="#9a32cd" points="75,-54.09 78.5,-64.09 82,-54.09 75,-54.09"/>
<text text-anchor="middle" x="85" y="-40" font-family="Helvetica,sans-Serif" font-size="10.00"> _if</text>
</g>
<!-- Node3 -->
<g id="node3" class="node">
<title>Node3</title>
<g id="a_node3"><a xlink:title=" ">
<polygon fill="white" stroke="#666666" points="112,-273 13,-273 13,-254 112,-254 112,-273"/>
<text text-anchor="middle" x="62.5" y="-261" font-family="Helvetica,sans-Serif" font-size="10.00">boost::noncopyable</text>
</a>
</g>
</g>
<!-- Node3&#45;&gt;Node2 -->
<g id="edge2" class="edge">
<title>Node3&#45;&gt;Node2</title>
<path fill="none" stroke="#8b1a1a" d="M64.26,-242.07C67.72,-201.79 75.31,-113.61 77.74,-85.38"/>
<polygon fill="#8b1a1a" stroke="#8b1a1a" points="60.77,-241.76 63.4,-252.02 67.75,-242.36 60.77,-241.76"/>
</g>
<!-- Node5 -->
<g id="node5" class="node">
<title>Node5</title>
<g id="a_node5"><a xlink:href="classudmaio_1_1_hw_accessor.html" target="_top" xlink:title="Base class for hardware access.">
<polygon fill="white" stroke="#666666" points="222,-217 113,-217 113,-198 222,-198 222,-217"/>
<text text-anchor="middle" x="167.5" y="-205" font-family="Helvetica,sans-Serif" font-size="10.00">udmaio::HwAccessor</text>
</a>
</g>
</g>
<!-- Node3&#45;&gt;Node5 -->
<g id="edge6" class="edge">
<title>Node3&#45;&gt;Node5</title>
<path fill="none" stroke="#8b1a1a" d="M90.01,-248.35C109.04,-238.57 133.79,-225.84 150.14,-217.43"/>
<polygon fill="#8b1a1a" stroke="#8b1a1a" points="88.48,-245.2 81.18,-252.89 91.68,-251.43 88.48,-245.2"/>
</g>
<!-- Node4 -->
<g id="node4" class="node">
<title>Node4</title>
<g id="a_node4"><a xlink:title=" ">
<polygon fill="white" stroke="#666666" points="244,-151 91,-151 91,-132 244,-132 244,-151"/>
<text text-anchor="middle" x="167.5" y="-139" font-family="Helvetica,sans-Serif" font-size="10.00">std::shared_ptr&lt; HwAccessor &gt;</text>
</a>
</g>
</g>
<!-- Node4&#45;&gt;Node2 -->
<g id="edge3" class="edge">
<title>Node4&#45;&gt;Node2</title>
<path fill="none" stroke="#9a32cd" stroke-dasharray="5,2" d="M145.79,-124.89C128.51,-112.46 104.94,-95.51 90.77,-85.32"/>
<polygon fill="#9a32cd" stroke="#9a32cd" points="143.73,-127.72 153.9,-130.72 147.82,-122.04 143.73,-127.72"/>
<text text-anchor="middle" x="139" y="-106" font-family="Helvetica,sans-Serif" font-size="10.00"> _hw</text>
</g>
<!-- Node5&#45;&gt;Node4 -->
<g id="edge4" class="edge">
<title>Node5&#45;&gt;Node4</title>
<path fill="none" stroke="#9a32cd" stroke-dasharray="5,2" d="M167.5,-186.18C167.5,-174.44 167.5,-160.27 167.5,-151.32"/>
<polygon fill="#9a32cd" stroke="#9a32cd" points="164,-186.09 167.5,-196.09 171,-186.09 164,-186.09"/>
<text text-anchor="middle" x="174.5" y="-172" font-family="Helvetica,sans-Serif" font-size="10.00"> ptr</text>
</g>
<!-- Node6 -->
<g id="node6" class="node">
<title>Node6</title>
<g id="a_node6"><a xlink:href="structudmaio_1_1_logger.html" target="_top" xlink:title=" ">
<polygon fill="white" stroke="#666666" points="213,-273 130,-273 130,-254 213,-254 213,-273"/>
<text text-anchor="middle" x="171.5" y="-261" font-family="Helvetica,sans-Serif" font-size="10.00">udmaio::Logger</text>
</a>
</g>
</g>
<!-- Node6&#45;&gt;Node5 -->
<g id="edge5" class="edge">
<title>Node6&#45;&gt;Node5</title>
<path fill="none" stroke="#63b8ff" d="M169.99,-242.11C169.35,-233.52 168.65,-223.97 168.15,-217.25"/>
<polygon fill="#63b8ff" stroke="#63b8ff" points="166.5,-242.36 170.73,-252.07 173.48,-241.84 166.5,-242.36"/>
</g>
</g>
</svg>
