<?xml version="1.0" encoding="UTF-8" standalone="no"?>
<!DOCTYPE svg PUBLIC "-//W3C//DTD SVG 1.1//EN"
 "http://www.w3.org/Graphics/SVG/1.1/DTD/svg11.dtd">
<!-- Generated by graphviz version 7.0.5 (20221223.1930)
 -->
<!-- Title: udmaio::FpgaMemBufferOverAxi Pages: 1 -->
<svg width="306pt" height="290pt"
 viewBox="0.00 0.00 306.00 290.00" xmlns="http://www.w3.org/2000/svg" xmlns:xlink="http://www.w3.org/1999/xlink">
<g id="graph0" class="graph" transform="scale(1 1) rotate(0) translate(4 286)">
<title>udmaio::FpgaMemBufferOverAxi</title>
<!-- Node1 -->
<g id="node1" class="node">
<title>Node1</title>
<g id="a_node1"><a xlink:title="DMA data buffer accessed over AXI/UIO, described w/ explicit address &amp; size.">
<polygon fill="#999999" stroke="#666666" points="166.5,-19 10.5,-19 10.5,0 166.5,0 166.5,-19"/>
<text text-anchor="middle" x="88.5" y="-7" font-family="Helvetica,sans-Serif" font-size="10.00">udmaio::FpgaMemBufferOverAxi</text>
</a>
</g>
</g>
<!-- Node2 -->
<g id="node2" class="node">
<title>Node2</title>
<g id="a_node2"><a xlink:href="classudmaio_1_1_dma_buffer_abstract.html" target="_top" xlink:title="Base class for DMA data buffer.">
<polygon fill="white" stroke="#666666" points="135,-189 0,-189 0,-170 135,-170 135,-189"/>
<text text-anchor="middle" x="67.5" y="-177" font-family="Helvetica,sans-Serif" font-size="10.00">udmaio::DmaBufferAbstract</text>
</a>
</g>
</g>
<!-- Node2&#45;&gt;Node1 -->
<g id="edge1" class="edge">
<title>Node2&#45;&gt;Node1</title>
<path fill="none" stroke="#63b8ff" d="M69.96,-158.85C74.53,-122.3 84.16,-45.21 87.41,-19.25"/>
<polygon fill="#63b8ff" stroke="#63b8ff" points="66.53,-158.08 68.76,-168.44 73.47,-158.95 66.53,-158.08"/>
</g>
<!-- Node3 -->
<g id="node3" class="node">
<title>Node3</title>
<g id="a_node3"><a xlink:title=" ">
<polygon fill="white" stroke="#666666" points="189,-282 90,-282 90,-263 189,-263 189,-282"/>
<text text-anchor="middle" x="139.5" y="-270" font-family="Helvetica,sans-Serif" font-size="10.00">boost::noncopyable</text>
</a>
</g>
</g>
<!-- Node3&#45;&gt;Node2 -->
<g id="edge2" class="edge">
<title>Node3&#45;&gt;Node2</title>
<path fill="none" stroke="#8b1a1a" d="M125.48,-253.78C110.16,-234.42 86.24,-204.18 74.49,-189.33"/>
<polygon fill="#8b1a1a" stroke="#8b1a1a" points="122.71,-255.92 131.66,-261.59 128.2,-251.57 122.71,-255.92"/>
</g>
<!-- Node4 -->
<g id="node4" class="node">
<title>Node4</title>
<g id="a_node4"><a xlink:href="classudmaio_1_1_uio_if.html" target="_top" xlink:title="Base class for UIO interfaces.">
<polygon fill="white" stroke="#666666" points="187.5,-75 113.5,-75 113.5,-56 187.5,-56 187.5,-75"/>
<text text-anchor="middle" x="150.5" y="-63" font-family="Helvetica,sans-Serif" font-size="10.00">udmaio::UioIf</text>
</a>
</g>
</g>
<!-- Node3&#45;&gt;Node4 -->
<g id="edge4" class="edge">
<title>Node3&#45;&gt;Node4</title>
<path fill="none" stroke="#8b1a1a" d="M140.58,-251.34C142.93,-207.56 148.42,-105.26 150.04,-75.05"/>
<polygon fill="#8b1a1a" stroke="#8b1a1a" points="137.09,-251.01 140.05,-261.18 144.08,-251.38 137.09,-251.01"/>
</g>
<!-- Node6 -->
<g id="node6" class="node">
<title>Node6</title>
<g id="a_node6"><a xlink:href="classudmaio_1_1_hw_accessor.html" target="_top" xlink:title="Base class for hardware access.">
<polygon fill="white" stroke="#666666" points="293,-226 184,-226 184,-207 293,-207 293,-226"/>
<text text-anchor="middle" x="238.5" y="-214" font-family="Helvetica,sans-Serif" font-size="10.00">udmaio::HwAccessor</text>
</a>
</g>
</g>
<!-- Node3&#45;&gt;Node6 -->
<g id="edge8" class="edge">
<title>Node3&#45;&gt;Node6</title>
<path fill="none" stroke="#8b1a1a" d="M165.94,-257.08C183.81,-247.33 206.86,-234.76 222.13,-226.43"/>
<polygon fill="#8b1a1a" stroke="#8b1a1a" points="164.28,-254 157.18,-261.86 167.63,-260.14 164.28,-254"/>
</g>
<!-- Node4&#45;&gt;Node1 -->
<g id="edge3" class="edge">
<title>Node4&#45;&gt;Node1</title>
<path fill="none" stroke="#63b8ff" d="M131.81,-48.22C120.88,-38.7 107.51,-27.06 98.55,-19.25"/>
<polygon fill="#63b8ff" stroke="#63b8ff" points="129.28,-50.66 139.12,-54.59 133.88,-45.38 129.28,-50.66"/>
</g>
<!-- Node5 -->
<g id="node5" class="node">
<title>Node5</title>
<g id="a_node5"><a xlink:title=" ">
<polygon fill="white" stroke="#666666" points="298,-152 179,-152 179,-122 298,-122 298,-152"/>
<text text-anchor="start" x="187" y="-140" font-family="Helvetica,sans-Serif" font-size="10.00">std::unique_ptr&lt; udmaio</text>
<text text-anchor="middle" x="238.5" y="-129" font-family="Helvetica,sans-Serif" font-size="10.00">::HwAccessor &gt;</text>
</a>
</g>
</g>
<!-- Node5&#45;&gt;Node4 -->
<g id="edge5" class="edge">
<title>Node5&#45;&gt;Node4</title>
<path fill="none" stroke="#9a32cd" stroke-dasharray="5,2" d="M211.46,-114.64C194.76,-101.45 174.21,-85.22 161.74,-75.38"/>
<polygon fill="#9a32cd" stroke="#9a32cd" points="209.06,-117.21 219.08,-120.66 213.4,-111.72 209.06,-117.21"/>
<text text-anchor="middle" x="208" y="-96" font-family="Helvetica,sans-Serif" font-size="10.00"> _hw</text>
</g>
<!-- Node6&#45;&gt;Node5 -->
<g id="edge6" class="edge">
<title>Node6&#45;&gt;Node5</title>
<path fill="none" stroke="#9a32cd" stroke-dasharray="5,2" d="M238.5,-195.17C238.5,-181.69 238.5,-164.33 238.5,-152.3"/>
<polygon fill="#9a32cd" stroke="#9a32cd" points="235,-195.1 238.5,-205.1 242,-195.1 235,-195.1"/>
<text text-anchor="middle" x="245.5" y="-177" font-family="Helvetica,sans-Serif" font-size="10.00"> ptr</text>
</g>
<!-- Node7 -->
<g id="node7" class="node">
<title>Node7</title>
<g id="a_node7"><a xlink:href="structudmaio_1_1_logger.html" target="_top" xlink:title=" ">
<polygon fill="white" stroke="#666666" points="290,-282 207,-282 207,-263 290,-263 290,-282"/>
<text text-anchor="middle" x="248.5" y="-270" font-family="Helvetica,sans-Serif" font-size="10.00">udmaio::Logger</text>
</a>
</g>
</g>
<!-- Node7&#45;&gt;Node6 -->
<g id="edge7" class="edge">
<title>Node7&#45;&gt;Node6</title>
<path fill="none" stroke="#63b8ff" d="M244.78,-251.41C243.17,-242.74 241.38,-233.05 240.12,-226.25"/>
<polygon fill="#63b8ff" stroke="#63b8ff" points="241.31,-251.9 246.57,-261.09 248.19,-250.62 241.31,-251.9"/>
</g>
</g>
</svg>
