<?xml version="1.0" encoding="UTF-8" standalone="no"?>
<!DOCTYPE svg PUBLIC "-//W3C//DTD SVG 1.1//EN"
 "http://www.w3.org/Graphics/SVG/1.1/DTD/svg11.dtd">
<!-- Generated by graphviz version 7.0.5 (20221223.1930)
 -->
<!-- Title: udmaio::RegAccessorBase&lt; C &gt; Pages: 1 -->
<svg width="335pt" height="146pt"
 viewBox="0.00 0.00 335.00 145.50" xmlns="http://www.w3.org/2000/svg" xmlns:xlink="http://www.w3.org/1999/xlink">
<g id="graph0" class="graph" transform="scale(1 1) rotate(0) translate(4 141.5)">
<title>udmaio::RegAccessorBase&lt; C &gt;</title>
<!-- Node1 -->
<g id="node1" class="node">
<title>Node1</title>
<g id="a_node1"><a xlink:title="Base class implementing register access. Only used by subclasses, not used directly.">
<polygon fill="#999999" stroke="#666666" points="157,-72.5 0,-72.5 0,-53.5 157,-53.5 157,-72.5"/>
<text text-anchor="middle" x="78.5" y="-60.5" font-family="Helvetica,sans-Serif" font-size="10.00">udmaio::RegAccessorBase&lt; C &gt;</text>
</a>
</g>
</g>
<!-- Node2 -->
<g id="node2" class="node">
<title>Node2</title>
<g id="a_node2"><a xlink:href="classudmaio_1_1_reg_accessor_array.html" target="_top" xlink:title="Accessor for register array.">
<polygon fill="white" stroke="#666666" points="327,-137.5 193,-137.5 193,-96.5 327,-96.5 327,-137.5"/>
<text text-anchor="start" x="201" y="-125.5" font-family="Helvetica,sans-Serif" font-size="10.00">udmaio::RegAccessorArray</text>
<text text-anchor="start" x="201" y="-114.5" font-family="Helvetica,sans-Serif" font-size="10.00">&lt; C, offset, arr_size,</text>
<text text-anchor="middle" x="260" y="-103.5" font-family="Helvetica,sans-Serif" font-size="10.00"> arr_stride &gt;</text>
</a>
</g>
</g>
<!-- Node1&#45;&gt;Node2 -->
<g id="edge1" class="edge">
<title>Node1&#45;&gt;Node2</title>
<path fill="none" stroke="#63b8ff" d="M123.21,-76.15C144.12,-82.44 169.61,-90.11 192.82,-97.09"/>
<polygon fill="#63b8ff" stroke="#63b8ff" points="124.46,-72.87 113.87,-73.34 122.44,-79.57 124.46,-72.87"/>
</g>
<!-- Node3 -->
<g id="node3" class="node">
<title>Node3</title>
<g id="a_node3"><a xlink:href="classudmaio_1_1_reg_accessor_array_3_01_c_00_01offset_00_010_00_010_01_4.html" target="_top" xlink:title="Accessor for single register.">
<polygon fill="white" stroke="#666666" points="327,-78 193,-78 193,-48 327,-48 327,-78"/>
<text text-anchor="start" x="201" y="-66" font-family="Helvetica,sans-Serif" font-size="10.00">udmaio::RegAccessorArray</text>
<text text-anchor="middle" x="260" y="-55" font-family="Helvetica,sans-Serif" font-size="10.00">&lt; C, offset, 0, 0 &gt;</text>
</a>
</g>
</g>
<!-- Node1&#45;&gt;Node3 -->
<g id="edge2" class="edge">
<title>Node1&#45;&gt;Node3</title>
<path fill="none" stroke="#63b8ff" d="M168.78,-63C176.82,-63 184.86,-63 192.64,-63"/>
<polygon fill="#63b8ff" stroke="#63b8ff" points="168.96,-59.5 158.96,-63 168.96,-66.5 168.96,-59.5"/>
</g>
<!-- Node4 -->
<g id="node4" class="node">
<title>Node4</title>
<g id="a_node4"><a xlink:href="classudmaio_1_1_reg_accessor_array_element.html" target="_top" xlink:title="Accessor for register array element. Returned by RegAccessorArray&lt;C&gt;::operator[].">
<polygon fill="white" stroke="#666666" points="327,-30 193,-30 193,0 327,0 327,-30"/>
<text text-anchor="start" x="201" y="-18" font-family="Helvetica,sans-Serif" font-size="10.00">udmaio::RegAccessorArray</text>
<text text-anchor="middle" x="260" y="-7" font-family="Helvetica,sans-Serif" font-size="10.00">Element&lt; C &gt;</text>
</a>
</g>
</g>
<!-- Node1&#45;&gt;Node4 -->
<g id="edge3" class="edge">
<title>Node1&#45;&gt;Node4</title>
<path fill="none" stroke="#63b8ff" d="M127.75,-50.1C150.42,-44.04 177.61,-36.76 201.35,-30.42"/>
<polygon fill="#63b8ff" stroke="#63b8ff" points="126.91,-46.7 118.15,-52.66 128.72,-53.46 126.91,-46.7"/>
</g>
</g>
</svg>
