<?xml version="1.0" encoding="UTF-8" standalone="no"?>
<!DOCTYPE svg PUBLIC "-//W3C//DTD SVG 1.1//EN"
 "http://www.w3.org/Graphics/SVG/1.1/DTD/svg11.dtd">
<!-- Generated by graphviz version 7.0.5 (20221223.1930)
 -->
<!-- Title: udmaio::DataHandlerSync Pages: 1 -->
<svg width="1622pt" height="471pt"
 viewBox="0.00 0.00 1622.00 470.50" xmlns="http://www.w3.org/2000/svg" xmlns:xlink="http://www.w3.org/1999/xlink">
<g id="graph0" class="graph" transform="scale(1 1) rotate(0) translate(4 466.5)">
<title>udmaio::DataHandlerSync</title>
<!-- Node1 -->
<g id="node1" class="node">
<title>Node1</title>
<g id="a_node1"><a xlink:title="Synchronous data handler with blocking read interface.">
<polygon fill="#999999" stroke="#666666" points="1614,-102 1486,-102 1486,-83 1614,-83 1614,-102"/>
<text text-anchor="middle" x="1550" y="-90" font-family="Helvetica,sans-Serif" font-size="10.00">udmaio::DataHandlerSync</text>
</a>
</g>
</g>
<!-- Node2 -->
<g id="node2" class="node">
<title>Node2</title>
<g id="a_node2"><a xlink:href="classudmaio_1_1_data_handler_abstract.html" target="_top" xlink:title="Base class to implement a DMA data reception handler.">
<polygon fill="white" stroke="#666666" points="1416,-190 1273,-190 1273,-171 1416,-171 1416,-190"/>
<text text-anchor="middle" x="1344.5" y="-178" font-family="Helvetica,sans-Serif" font-size="10.00">udmaio::DataHandlerAbstract</text>
</a>
</g>
</g>
<!-- Node2&#45;&gt;Node1 -->
<g id="edge1" class="edge">
<title>Node2&#45;&gt;Node1</title>
<path fill="none" stroke="#63b8ff" d="M1378.86,-166.07C1420.39,-148.12 1490.22,-117.92 1526.14,-102.39"/>
<polygon fill="#63b8ff" stroke="#63b8ff" points="1377.63,-162.79 1369.84,-169.98 1380.41,-169.22 1377.63,-162.79"/>
</g>
<!-- Node3 -->
<g id="node3" class="node">
<title>Node3</title>
<g id="a_node3"><a xlink:href="structudmaio_1_1_logger.html" target="_top" xlink:title=" ">
<polygon fill="white" stroke="#666666" points="91,-437 8,-437 8,-418 91,-418 91,-437"/>
<text text-anchor="middle" x="49.5" y="-425" font-family="Helvetica,sans-Serif" font-size="10.00">udmaio::Logger</text>
</a>
</g>
</g>
<!-- Node3&#45;&gt;Node2 -->
<g id="edge2" class="edge">
<title>Node3&#45;&gt;Node2</title>
<path fill="none" stroke="#63b8ff" d="M85.37,-441.35C113.12,-451.13 153.19,-462.5 189.5,-462.5 189.5,-462.5 189.5,-462.5 1144,-462.5 1280.43,-462.5 1331.93,-239.79 1341.71,-190.21"/>
<polygon fill="#63b8ff" stroke="#63b8ff" points="86.66,-438.1 76.06,-437.96 84.26,-444.67 86.66,-438.1"/>
</g>
<!-- Node8 -->
<g id="node8" class="node">
<title>Node8</title>
<g id="a_node8"><a xlink:href="classudmaio_1_1_hw_accessor.html" target="_top" xlink:title="Base class for hardware access.">
<polygon fill="white" stroke="#666666" points="245,-273 136,-273 136,-254 245,-254 245,-273"/>
<text text-anchor="middle" x="190.5" y="-261" font-family="Helvetica,sans-Serif" font-size="10.00">udmaio::HwAccessor</text>
</a>
</g>
</g>
<!-- Node3&#45;&gt;Node8 -->
<g id="edge9" class="edge">
<title>Node3&#45;&gt;Node8</title>
<path fill="none" stroke="#63b8ff" d="M66.14,-409.04C95.6,-374.29 158.39,-300.21 181.09,-273.42"/>
<polygon fill="#63b8ff" stroke="#63b8ff" points="63.55,-406.69 59.76,-416.58 68.89,-411.21 63.55,-406.69"/>
</g>
<!-- Node4 -->
<g id="node4" class="node">
<title>Node4</title>
<g id="a_node4"><a xlink:title=" ">
<polygon fill="white" stroke="#666666" points="99,-248 0,-248 0,-229 99,-229 99,-248"/>
<text text-anchor="middle" x="49.5" y="-236" font-family="Helvetica,sans-Serif" font-size="10.00">boost::noncopyable</text>
</a>
</g>
</g>
<!-- Node4&#45;&gt;Node2 -->
<g id="edge3" class="edge">
<title>Node4&#45;&gt;Node2</title>
<path fill="none" stroke="#8b1a1a" d="M58.84,-218.17C76.55,-178.7 121.9,-95.5 189.5,-95.5 189.5,-95.5 189.5,-95.5 1144,-95.5 1220.05,-95.5 1300.3,-148.42 1330.77,-170.75"/>
<polygon fill="#8b1a1a" stroke="#8b1a1a" points="55.66,-216.71 54.92,-227.28 62.09,-219.48 55.66,-216.71"/>
</g>
<!-- Node6 -->
<g id="node6" class="node">
<title>Node6</title>
<g id="a_node6"><a xlink:href="classudmaio_1_1_uio_if.html" target="_top" xlink:title="Base class for UIO interfaces.">
<polygon fill="white" stroke="#666666" points="579.5,-235 505.5,-235 505.5,-216 579.5,-216 579.5,-235"/>
<text text-anchor="middle" x="542.5" y="-223" font-family="Helvetica,sans-Serif" font-size="10.00">udmaio::UioIf</text>
</a>
</g>
</g>
<!-- Node4&#45;&gt;Node6 -->
<g id="edge6" class="edge">
<title>Node4&#45;&gt;Node6</title>
<path fill="none" stroke="#8b1a1a" d="M110.83,-236.9C214.02,-234.17 421.39,-228.68 505.16,-226.46"/>
<polygon fill="#8b1a1a" stroke="#8b1a1a" points="110.79,-233.4 100.89,-237.17 110.98,-240.4 110.79,-233.4"/>
</g>
<!-- Node4&#45;&gt;Node8 -->
<g id="edge10" class="edge">
<title>Node4&#45;&gt;Node8</title>
<path fill="none" stroke="#8b1a1a" d="M110.2,-249.24C118.75,-250.78 127.51,-252.35 135.93,-253.87"/>
<polygon fill="#8b1a1a" stroke="#8b1a1a" points="111.07,-245.84 100.61,-247.51 109.83,-252.73 111.07,-245.84"/>
</g>
<!-- Node17 -->
<g id="node17" class="node">
<title>Node17</title>
<g id="a_node17"><a xlink:href="classudmaio_1_1_dma_buffer_abstract.html" target="_top" xlink:title="Base class for DMA data buffer.">
<polygon fill="white" stroke="#666666" points="775,-391 640,-391 640,-372 775,-372 775,-391"/>
<text text-anchor="middle" x="707.5" y="-379" font-family="Helvetica,sans-Serif" font-size="10.00">udmaio::DmaBufferAbstract</text>
</a>
</g>
</g>
<!-- Node4&#45;&gt;Node17 -->
<g id="edge23" class="edge">
<title>Node4&#45;&gt;Node17</title>
<path fill="none" stroke="#8b1a1a" d="M70.2,-255.59C95.85,-276.02 142.92,-307.5 189.5,-307.5 189.5,-307.5 189.5,-307.5 543.5,-307.5 604.72,-307.5 668.25,-351.32 694.27,-371.52"/>
<polygon fill="#8b1a1a" stroke="#8b1a1a" points="72.58,-253.01 62.63,-249.35 68.12,-258.41 72.58,-253.01"/>
</g>
<!-- Node5 -->
<g id="node5" class="node">
<title>Node5</title>
<g id="a_node5"><a xlink:href="classudmaio_1_1_uio_axi_dma_if.html" target="_top" xlink:title="Interface to AXI DMA Core.">
<polygon fill="white" stroke="#666666" points="761,-143 654,-143 654,-124 761,-124 761,-143"/>
<text text-anchor="middle" x="707.5" y="-131" font-family="Helvetica,sans-Serif" font-size="10.00">udmaio::UioAxiDmaIf</text>
</a>
</g>
</g>
<!-- Node5&#45;&gt;Node2 -->
<g id="edge4" class="edge">
<title>Node5&#45;&gt;Node2</title>
<path fill="none" stroke="#9a32cd" stroke-dasharray="5,2" d="M772.4,-138.23C891.86,-147.07 1148.18,-166.04 1272.7,-175.26"/>
<polygon fill="#9a32cd" stroke="#9a32cd" points="773.02,-134.77 762.79,-137.52 772.5,-141.75 773.02,-134.77"/>
<text text-anchor="middle" x="1031.5" y="-162.5" font-family="Helvetica,sans-Serif" font-size="10.00"> _dma</text>
</g>
<!-- Node6&#45;&gt;Node5 -->
<g id="edge5" class="edge">
<title>Node6&#45;&gt;Node5</title>
<path fill="none" stroke="#63b8ff" d="M556.69,-206.59C566.66,-193.6 581.43,-176.89 598,-166.5 614.93,-155.88 635.49,-148.5 654.14,-143.45"/>
<polygon fill="#63b8ff" stroke="#63b8ff" points="554.04,-204.28 550.94,-214.42 559.68,-208.43 554.04,-204.28"/>
</g>
<!-- Node10 -->
<g id="node10" class="node">
<title>Node10</title>
<g id="a_node10"><a xlink:href="classudmaio_1_1_uio_mem_sgdma.html" target="_top" xlink:title="Interface to AXI DMA scatter&#45;gather buffers &amp; descriptors Uses a UioIf to access DMA descriptor memor...">
<polygon fill="white" stroke="#666666" points="1203,-268 1083,-268 1083,-249 1203,-249 1203,-268"/>
<text text-anchor="middle" x="1143" y="-256" font-family="Helvetica,sans-Serif" font-size="10.00">udmaio::UioMemSgdma</text>
</a>
</g>
</g>
<!-- Node6&#45;&gt;Node10 -->
<g id="edge13" class="edge">
<title>Node6&#45;&gt;Node10</title>
<path fill="none" stroke="#63b8ff" d="M590.6,-213.26C671.18,-194.19 840.31,-162.37 980,-190.5 1035.62,-201.7 1095.93,-232.52 1124.76,-248.54"/>
<polygon fill="#63b8ff" stroke="#63b8ff" points="590.2,-209.75 581.3,-215.5 591.85,-216.56 590.2,-209.75"/>
</g>
<!-- Node12 -->
<g id="node12" class="node">
<title>Node12</title>
<g id="a_node12"><a xlink:href="classudmaio_1_1_reg_accessor_base.html" target="_top" xlink:title="Base class implementing register access. Only used by subclasses, not used directly.">
<polygon fill="white" stroke="#666666" points="786,-286 629,-286 629,-267 786,-267 786,-286"/>
<text text-anchor="middle" x="707.5" y="-274" font-family="Helvetica,sans-Serif" font-size="10.00">udmaio::RegAccessorBase&lt; C &gt;</text>
</a>
</g>
</g>
<!-- Node6&#45;&gt;Node12 -->
<g id="edge16" class="edge">
<title>Node6&#45;&gt;Node12</title>
<path fill="none" stroke="#9a32cd" stroke-dasharray="5,2" d="M586.29,-238.89C614.02,-247.56 649.54,-258.68 674.77,-266.57"/>
<polygon fill="#9a32cd" stroke="#9a32cd" points="587.35,-235.55 576.76,-235.91 585.26,-242.23 587.35,-235.55"/>
<text text-anchor="middle" x="604.5" y="-248.5" font-family="Helvetica,sans-Serif" font-size="10.00"> _if</text>
</g>
<!-- Node14 -->
<g id="node14" class="node">
<title>Node14</title>
<g id="a_node14"><a xlink:href="classudmaio_1_1_reg_accessor_base.html" target="_top" xlink:title="Base class implementing register access. Only used by subclasses, not used directly.">
<polygon fill="white" stroke="#666666" points="786,-235 629,-235 629,-216 786,-216 786,-235"/>
<text text-anchor="middle" x="707.5" y="-223" font-family="Helvetica,sans-Serif" font-size="10.00">udmaio::RegAccessorBase&lt; C &gt;</text>
</a>
</g>
</g>
<!-- Node6&#45;&gt;Node14 -->
<g id="edge19" class="edge">
<title>Node6&#45;&gt;Node14</title>
<path fill="none" stroke="#9a32cd" stroke-dasharray="5,2" d="M591.06,-225.5C602.88,-225.5 615.86,-225.5 628.71,-225.5"/>
<polygon fill="#9a32cd" stroke="#9a32cd" points="591.19,-222 581.19,-225.5 591.19,-229 591.19,-222"/>
<text text-anchor="middle" x="604.5" y="-228.5" font-family="Helvetica,sans-Serif" font-size="10.00"> _if</text>
</g>
<!-- Node7 -->
<g id="node7" class="node">
<title>Node7</title>
<g id="a_node7"><a xlink:title=" ">
<polygon fill="white" stroke="#666666" points="448,-273 295,-273 295,-254 448,-254 448,-273"/>
<text text-anchor="middle" x="371.5" y="-261" font-family="Helvetica,sans-Serif" font-size="10.00">std::shared_ptr&lt; HwAccessor &gt;</text>
</a>
</g>
</g>
<!-- Node7&#45;&gt;Node6 -->
<g id="edge7" class="edge">
<title>Node7&#45;&gt;Node6</title>
<path fill="none" stroke="#9a32cd" stroke-dasharray="5,2" d="M430.11,-251.15C448.33,-247.18 468.52,-242.72 487,-238.5 492.88,-237.16 499.11,-235.7 505.17,-234.27"/>
<polygon fill="#9a32cd" stroke="#9a32cd" points="429.57,-247.68 420.54,-253.22 431.06,-254.52 429.57,-247.68"/>
<text text-anchor="middle" x="476.5" y="-245.5" font-family="Helvetica,sans-Serif" font-size="10.00"> _hw</text>
</g>
<!-- Node8&#45;&gt;Node7 -->
<g id="edge8" class="edge">
<title>Node8&#45;&gt;Node7</title>
<path fill="none" stroke="#9a32cd" stroke-dasharray="5,2" d="M256.39,-263.5C268.82,-263.5 281.93,-263.5 294.66,-263.5"/>
<polygon fill="#9a32cd" stroke="#9a32cd" points="256.72,-260 246.72,-263.5 256.72,-267 256.72,-260"/>
<text text-anchor="middle" x="270" y="-266.5" font-family="Helvetica,sans-Serif" font-size="10.00"> ptr</text>
</g>
<!-- Node9 -->
<g id="node9" class="node">
<title>Node9</title>
<g id="a_node9"><a xlink:href="structaxi__dma_1_1block__template.html" target="_top" xlink:title="Template class for the axi_dma block, containing accessors for all its registers.">
<polygon fill="white" stroke="#666666" points="580,-143 505,-143 505,-124 580,-124 580,-143"/>
<text text-anchor="middle" x="542.5" y="-131" font-family="Helvetica,sans-Serif" font-size="10.00">AxiDmaBlock</text>
</a>
</g>
</g>
<!-- Node9&#45;&gt;Node5 -->
<g id="edge11" class="edge">
<title>Node9&#45;&gt;Node5</title>
<path fill="none" stroke="#8b1a1a" d="M591.84,-133.5C611.26,-133.5 633.72,-133.5 653.59,-133.5"/>
<polygon fill="#8b1a1a" stroke="#8b1a1a" points="592,-130 582,-133.5 592,-137 592,-130"/>
</g>
<!-- Node10&#45;&gt;Node2 -->
<g id="edge12" class="edge">
<title>Node10&#45;&gt;Node2</title>
<path fill="none" stroke="#9a32cd" stroke-dasharray="5,2" d="M1179.84,-244.49C1219.7,-228.9 1283.08,-204.12 1318.12,-190.42"/>
<polygon fill="#9a32cd" stroke="#9a32cd" points="1178.72,-241.17 1170.68,-248.07 1181.26,-247.69 1178.72,-241.17"/>
<text text-anchor="middle" x="1238" y="-228.5" font-family="Helvetica,sans-Serif" font-size="10.00"> _desc</text>
</g>
<!-- Node11 -->
<g id="node11" class="node">
<title>Node11</title>
<g id="a_node11"><a xlink:href="classudmaio_1_1_reg_accessor_array.html" target="_top" xlink:title=" ">
<polygon fill="white" stroke="#666666" points="980,-311 836,-311 836,-270 980,-270 980,-311"/>
<text text-anchor="start" x="844" y="-299" font-family="Helvetica,sans-Serif" font-size="10.00">udmaio::RegAccessorArray</text>
<text text-anchor="start" x="844" y="-288" font-family="Helvetica,sans-Serif" font-size="10.00">&lt; S2mmDesc, 0, 1024, DESC</text>
<text text-anchor="middle" x="908" y="-277" font-family="Helvetica,sans-Serif" font-size="10.00">_ADDR_STEP &gt;</text>
</a>
</g>
</g>
<!-- Node11&#45;&gt;Node10 -->
<g id="edge14" class="edge">
<title>Node11&#45;&gt;Node10</title>
<path fill="none" stroke="#9a32cd" stroke-dasharray="5,2" d="M991.83,-279.12C1021.87,-275 1055.18,-270.42 1082.78,-266.63"/>
<polygon fill="#9a32cd" stroke="#9a32cd" points="991.42,-275.65 981.99,-280.48 992.37,-282.58 991.42,-275.65"/>
<text text-anchor="middle" x="1031.5" y="-279.5" font-family="Helvetica,sans-Serif" font-size="10.00"> descriptors</text>
</g>
<!-- Node12&#45;&gt;Node11 -->
<g id="edge15" class="edge">
<title>Node12&#45;&gt;Node11</title>
<path fill="none" stroke="#63b8ff" d="M797.56,-282.78C810.37,-283.68 823.41,-284.6 835.81,-285.48"/>
<polygon fill="#63b8ff" stroke="#63b8ff" points="798.11,-279.31 787.89,-282.1 797.62,-286.29 798.11,-279.31"/>
</g>
<!-- Node13 -->
<g id="node13" class="node">
<title>Node13</title>
<g id="a_node13"><a xlink:href="classudmaio_1_1_reg_accessor_array.html" target="_top" xlink:title=" ">
<polygon fill="white" stroke="#666666" points="979,-251.5 837,-251.5 837,-199.5 979,-199.5 979,-251.5"/>
<text text-anchor="start" x="845" y="-239.5" font-family="Helvetica,sans-Serif" font-size="10.00">udmaio::RegAccessorArray</text>
<text text-anchor="start" x="845" y="-228.5" font-family="Helvetica,sans-Serif" font-size="10.00">&lt; S2mmDescStatus, offsetof</text>
<text text-anchor="start" x="845" y="-217.5" font-family="Helvetica,sans-Serif" font-size="10.00">(S2mmDesc, status), 1024,</text>
<text text-anchor="middle" x="908" y="-206.5" font-family="Helvetica,sans-Serif" font-size="10.00"> DESC_ADDR_STEP &gt;</text>
</a>
</g>
</g>
<!-- Node13&#45;&gt;Node10 -->
<g id="edge17" class="edge">
<title>Node13&#45;&gt;Node10</title>
<path fill="none" stroke="#9a32cd" stroke-dasharray="5,2" d="M990.23,-237.01C1020.6,-241.31 1054.49,-246.11 1082.54,-250.08"/>
<polygon fill="#9a32cd" stroke="#9a32cd" points="991.11,-233.6 980.72,-235.66 990.13,-240.53 991.11,-233.6"/>
<text text-anchor="middle" x="1031.5" y="-249.5" font-family="Helvetica,sans-Serif" font-size="10.00"> desc_statuses</text>
</g>
<!-- Node14&#45;&gt;Node13 -->
<g id="edge18" class="edge">
<title>Node14&#45;&gt;Node13</title>
<path fill="none" stroke="#63b8ff" d="M797.78,-225.5C810.85,-225.5 824.15,-225.5 836.77,-225.5"/>
<polygon fill="#63b8ff" stroke="#63b8ff" points="797.9,-222 787.9,-225.5 797.9,-229 797.9,-222"/>
</g>
<!-- Node15 -->
<g id="node15" class="node">
<title>Node15</title>
<g id="a_node15"><a xlink:title=" ">
<polygon fill="white" stroke="#666666" points="964.5,-348 851.5,-348 851.5,-329 964.5,-329 964.5,-348"/>
<text text-anchor="middle" x="908" y="-336" font-family="Helvetica,sans-Serif" font-size="10.00">std::vector&lt; uint64_t &gt;</text>
</a>
</g>
</g>
<!-- Node15&#45;&gt;Node10 -->
<g id="edge20" class="edge">
<title>Node15&#45;&gt;Node10</title>
<path fill="none" stroke="#9a32cd" stroke-dasharray="5,2" d="M961.57,-325.68C967.8,-324.01 974.06,-322.26 980,-320.5 1018.27,-309.14 1027.74,-305.82 1065,-291.5 1083.74,-284.3 1104.65,-275.27 1119.94,-268.48"/>
<polygon fill="#9a32cd" stroke="#9a32cd" points="960.7,-322.29 951.92,-328.21 962.48,-329.06 960.7,-322.29"/>
<text text-anchor="middle" x="1031.5" y="-317.5" font-family="Helvetica,sans-Serif" font-size="10.00"> _buf_addrs</text>
</g>
<!-- Node16 -->
<g id="node16" class="node">
<title>Node16</title>
<g id="a_node16"><a xlink:title=" ">
<polygon fill="white" stroke="#666666" points="968,-396.5 848,-396.5 848,-366.5 968,-366.5 968,-396.5"/>
<text text-anchor="start" x="856" y="-384.5" font-family="Helvetica,sans-Serif" font-size="10.00">std::shared_ptr&lt; udmaio</text>
<text text-anchor="middle" x="908" y="-373.5" font-family="Helvetica,sans-Serif" font-size="10.00">::DmaBufferAbstract &gt;</text>
</a>
</g>
</g>
<!-- Node16&#45;&gt;Node10 -->
<g id="edge21" class="edge">
<title>Node16&#45;&gt;Node10</title>
<path fill="none" stroke="#9a32cd" stroke-dasharray="5,2" d="M979.09,-365C1006.97,-356.72 1038.63,-345.07 1065,-329.5 1093.65,-312.58 1120.69,-283.57 1133.78,-268.4"/>
<polygon fill="#9a32cd" stroke="#9a32cd" points="978.3,-361.59 969.66,-367.71 980.23,-368.31 978.3,-361.59"/>
<text text-anchor="middle" x="1031.5" y="-361.5" font-family="Helvetica,sans-Serif" font-size="10.00"> _mem</text>
</g>
<!-- Node17&#45;&gt;Node2 -->
<g id="edge24" class="edge">
<title>Node17&#45;&gt;Node2</title>
<path fill="none" stroke="#9a32cd" stroke-dasharray="5,2" d="M758.6,-393.89C813.36,-405.59 903.51,-419.42 980,-405.5 1141.37,-376.13 1295.03,-229.79 1334.02,-190.32"/>
<polygon fill="#9a32cd" stroke="#9a32cd" points="759.46,-390.5 748.94,-391.76 757.96,-397.33 759.46,-390.5"/>
<text text-anchor="middle" x="1031.5" y="-403.5" font-family="Helvetica,sans-Serif" font-size="10.00"> _mem</text>
</g>
<!-- Node17&#45;&gt;Node16 -->
<g id="edge22" class="edge">
<title>Node17&#45;&gt;Node16</title>
<path fill="none" stroke="#9a32cd" stroke-dasharray="5,2" d="M786.86,-381.5C807.11,-381.5 828.58,-381.5 847.69,-381.5"/>
<polygon fill="#9a32cd" stroke="#9a32cd" points="786.94,-378 776.94,-381.5 786.94,-385 786.94,-378"/>
<text text-anchor="middle" x="811" y="-384.5" font-family="Helvetica,sans-Serif" font-size="10.00"> ptr</text>
</g>
<!-- Node18 -->
<g id="node18" class="node">
<title>Node18</title>
<g id="a_node18"><a xlink:href="classudmaio_1_1_concurrent_queue.html" target="_top" xlink:title=" ">
<polygon fill="white" stroke="#666666" points="1408.5,-67.5 1280.5,-67.5 1280.5,-37.5 1408.5,-37.5 1408.5,-67.5"/>
<text text-anchor="start" x="1288.5" y="-55.5" font-family="Helvetica,sans-Serif" font-size="10.00">udmaio::ConcurrentQueue</text>
<text text-anchor="middle" x="1344.5" y="-44.5" font-family="Helvetica,sans-Serif" font-size="10.00">&lt; std::vector&lt; uint8_t &gt; &gt;</text>
</a>
</g>
</g>
<!-- Node18&#45;&gt;Node1 -->
<g id="edge25" class="edge">
<title>Node18&#45;&gt;Node1</title>
<path fill="none" stroke="#9a32cd" stroke-dasharray="5,2" d="M1419.78,-67.1C1445.9,-72.24 1474.63,-77.88 1498.35,-82.54"/>
<polygon fill="#9a32cd" stroke="#9a32cd" points="1420.75,-63.72 1410.26,-65.23 1419.4,-70.59 1420.75,-63.72"/>
<text text-anchor="middle" x="1451" y="-78.5" font-family="Helvetica,sans-Serif" font-size="10.00"> _queue</text>
</g>
<!-- Node19 -->
<g id="node19" class="node">
<title>Node19</title>
<g id="a_node19"><a xlink:title=" ">
<polygon fill="white" stroke="#666666" points="1200,-67.5 1086,-67.5 1086,-37.5 1200,-37.5 1200,-67.5"/>
<text text-anchor="start" x="1094" y="-55.5" font-family="Helvetica,sans-Serif" font-size="10.00">std::queue&lt; std::vector</text>
<text text-anchor="middle" x="1143" y="-44.5" font-family="Helvetica,sans-Serif" font-size="10.00">&lt; uint8_t &gt; &gt;</text>
</a>
</g>
</g>
<!-- Node19&#45;&gt;Node18 -->
<g id="edge26" class="edge">
<title>Node19&#45;&gt;Node18</title>
<path fill="none" stroke="#9a32cd" stroke-dasharray="5,2" d="M1211.72,-52.5C1233.89,-52.5 1258.42,-52.5 1280.25,-52.5"/>
<polygon fill="#9a32cd" stroke="#9a32cd" points="1211.88,-49 1201.88,-52.5 1211.88,-56 1211.88,-49"/>
<text text-anchor="middle" x="1238" y="-55.5" font-family="Helvetica,sans-Serif" font-size="10.00"> _queue</text>
</g>
<!-- Node20 -->
<g id="node20" class="node">
<title>Node20</title>
<g id="a_node20"><a xlink:title=" ">
<polygon fill="white" stroke="#666666" points="961.5,-62 854.5,-62 854.5,-43 961.5,-43 961.5,-62"/>
<text text-anchor="middle" x="908" y="-50" font-family="Helvetica,sans-Serif" font-size="10.00">std::vector&lt; uint8_t &gt;</text>
</a>
</g>
</g>
<!-- Node20&#45;&gt;Node19 -->
<g id="edge27" class="edge">
<title>Node20&#45;&gt;Node19</title>
<path fill="none" stroke="#9a32cd" stroke-dasharray="5,2" d="M973.02,-52.5C1008.3,-52.5 1051.7,-52.5 1085.68,-52.5"/>
<polygon fill="#9a32cd" stroke="#9a32cd" points="973.38,-49 963.38,-52.5 973.38,-56 973.38,-49"/>
<text text-anchor="middle" x="1031.5" y="-55.5" font-family="Helvetica,sans-Serif" font-size="10.00"> elements</text>
</g>
<!-- Node21 -->
<g id="node21" class="node">
<title>Node21</title>
<g id="a_node21"><a xlink:title=" ">
<polygon fill="white" stroke="#666666" points="1173.5,-19 1112.5,-19 1112.5,0 1173.5,0 1173.5,-19"/>
<text text-anchor="middle" x="1143" y="-7" font-family="Helvetica,sans-Serif" font-size="10.00">std::mutex</text>
</a>
</g>
</g>
<!-- Node21&#45;&gt;Node18 -->
<g id="edge28" class="edge">
<title>Node21&#45;&gt;Node18</title>
<path fill="none" stroke="#9a32cd" stroke-dasharray="5,2" d="M1185.03,-18.34C1212.51,-24.27 1249.22,-32.18 1280.38,-38.9"/>
<polygon fill="#9a32cd" stroke="#9a32cd" points="1185.86,-14.94 1175.35,-16.26 1184.38,-21.78 1185.86,-14.94"/>
<text text-anchor="middle" x="1238" y="-34.5" font-family="Helvetica,sans-Serif" font-size="10.00"> _mutex</text>
</g>
</g>
</svg>
