<?xml version="1.0" encoding="UTF-8" standalone="no"?>
<!DOCTYPE svg PUBLIC "-//W3C//DTD SVG 1.1//EN"
 "http://www.w3.org/Graphics/SVG/1.1/DTD/svg11.dtd">
<!-- Generated by graphviz version 7.0.5 (20221223.1930)
 -->
<!-- Title: udmaio::RegAccessorBase&lt; C &gt; Pages: 1 -->
<svg width="345pt" height="205pt"
 viewBox="0.00 0.00 345.00 204.50" xmlns="http://www.w3.org/2000/svg" xmlns:xlink="http://www.w3.org/1999/xlink">
<g id="graph0" class="graph" transform="scale(1 1) rotate(0) translate(4 200.5)">
<title>udmaio::RegAccessorBase&lt; C &gt;</title>
<!-- Node1 -->
<g id="node1" class="node">
<title>Node1</title>
<g id="a_node1"><a xlink:title="Base class implementing register access. Only used by subclasses, not used directly.">
<polygon fill="#999999" stroke="#666666" points="157,-99.5 0,-99.5 0,-80.5 157,-80.5 157,-99.5"/>
<text text-anchor="middle" x="78.5" y="-87.5" font-family="Helvetica,sans-Serif" font-size="10.00">udmaio::RegAccessorBase&lt; C &gt;</text>
</a>
</g>
</g>
<!-- Node2 -->
<g id="node2" class="node">
<title>Node2</title>
<g id="a_node2"><a xlink:href="classudmaio_1_1_reg_accessor_array.html" target="_top" xlink:title=" ">
<polygon fill="white" stroke="#666666" points="337,-196.5 193,-196.5 193,-155.5 337,-155.5 337,-196.5"/>
<text text-anchor="start" x="201" y="-184.5" font-family="Helvetica,sans-Serif" font-size="10.00">udmaio::RegAccessorArray</text>
<text text-anchor="start" x="201" y="-173.5" font-family="Helvetica,sans-Serif" font-size="10.00">&lt; S2mmDesc, 0, 1024, DESC</text>
<text text-anchor="middle" x="265" y="-162.5" font-family="Helvetica,sans-Serif" font-size="10.00">_ADDR_STEP &gt;</text>
</a>
</g>
</g>
<!-- Node1&#45;&gt;Node2 -->
<g id="edge1" class="edge">
<title>Node1&#45;&gt;Node2</title>
<path fill="none" stroke="#63b8ff" d="M108.17,-105.18C130.94,-117.04 163.71,-133.69 193,-147 198.94,-149.7 205.21,-152.43 211.46,-155.08"/>
<polygon fill="#63b8ff" stroke="#63b8ff" points="109.98,-102.17 99.5,-100.63 106.74,-108.37 109.98,-102.17"/>
</g>
<!-- Node3 -->
<g id="node3" class="node">
<title>Node3</title>
<g id="a_node3"><a xlink:href="classudmaio_1_1_reg_accessor_array.html" target="_top" xlink:title="Accessor for register array.">
<polygon fill="white" stroke="#666666" points="332,-137.5 198,-137.5 198,-96.5 332,-96.5 332,-137.5"/>
<text text-anchor="start" x="206" y="-125.5" font-family="Helvetica,sans-Serif" font-size="10.00">udmaio::RegAccessorArray</text>
<text text-anchor="start" x="206" y="-114.5" font-family="Helvetica,sans-Serif" font-size="10.00">&lt; C, offset, arr_size,</text>
<text text-anchor="middle" x="265" y="-103.5" font-family="Helvetica,sans-Serif" font-size="10.00"> arr_stride &gt;</text>
</a>
</g>
</g>
<!-- Node1&#45;&gt;Node3 -->
<g id="edge2" class="edge">
<title>Node1&#45;&gt;Node3</title>
<path fill="none" stroke="#63b8ff" d="M158.91,-101.62C171.82,-103.51 185.08,-105.45 197.64,-107.29"/>
<polygon fill="#63b8ff" stroke="#63b8ff" points="159.58,-98.18 149.17,-100.2 158.56,-105.11 159.58,-98.18"/>
</g>
<!-- Node4 -->
<g id="node4" class="node">
<title>Node4</title>
<g id="a_node4"><a xlink:href="classudmaio_1_1_reg_accessor_array_3_01_c_00_01offset_00_010_00_010_01_4.html" target="_top" xlink:title="Accessor for single register.">
<polygon fill="white" stroke="#666666" points="332,-78 198,-78 198,-48 332,-48 332,-78"/>
<text text-anchor="start" x="206" y="-66" font-family="Helvetica,sans-Serif" font-size="10.00">udmaio::RegAccessorArray</text>
<text text-anchor="middle" x="265" y="-55" font-family="Helvetica,sans-Serif" font-size="10.00">&lt; C, offset, 0, 0 &gt;</text>
</a>
</g>
</g>
<!-- Node1&#45;&gt;Node4 -->
<g id="edge3" class="edge">
<title>Node1&#45;&gt;Node4</title>
<path fill="none" stroke="#63b8ff" d="M158.91,-78.38C171.82,-76.49 185.08,-74.55 197.64,-72.71"/>
<polygon fill="#63b8ff" stroke="#63b8ff" points="158.56,-74.89 149.17,-79.8 159.58,-81.82 158.56,-74.89"/>
</g>
<!-- Node5 -->
<g id="node5" class="node">
<title>Node5</title>
<g id="a_node5"><a xlink:href="classudmaio_1_1_reg_accessor_array_element.html" target="_top" xlink:title="Accessor for register array element. Returned by RegAccessorArray&lt;C&gt;::operator[].">
<polygon fill="white" stroke="#666666" points="332,-30 198,-30 198,0 332,0 332,-30"/>
<text text-anchor="start" x="206" y="-18" font-family="Helvetica,sans-Serif" font-size="10.00">udmaio::RegAccessorArray</text>
<text text-anchor="middle" x="265" y="-7" font-family="Helvetica,sans-Serif" font-size="10.00">Element&lt; C &gt;</text>
</a>
</g>
</g>
<!-- Node1&#45;&gt;Node5 -->
<g id="edge4" class="edge">
<title>Node1&#45;&gt;Node5</title>
<path fill="none" stroke="#63b8ff" d="M110.09,-75.29C132.74,-64.64 164.49,-50.2 193,-39 200.51,-36.05 208.55,-33.12 216.41,-30.38"/>
<polygon fill="#63b8ff" stroke="#63b8ff" points="108.66,-72.09 101.12,-79.54 111.66,-78.42 108.66,-72.09"/>
</g>
</g>
</svg>
