<?xml version="1.0" encoding="UTF-8" standalone="no"?>
<!DOCTYPE svg PUBLIC "-//W3C//DTD SVG 1.1//EN"
 "http://www.w3.org/Graphics/SVG/1.1/DTD/svg11.dtd">
<!-- Generated by graphviz version 7.0.5 (20221223.1930)
 -->
<!-- Title: udmaio::UioConfigXdma Pages: 1 -->
<svg width="219pt" height="160pt"
 viewBox="0.00 0.00 219.00 160.00" xmlns="http://www.w3.org/2000/svg" xmlns:xlink="http://www.w3.org/1999/xlink">
<g id="graph0" class="graph" transform="scale(1 1) rotate(0) translate(4 156)">
<title>udmaio::UioConfigXdma</title>
<!-- Node1 -->
<g id="node1" class="node">
<title>Node1</title>
<g id="a_node1"><a xlink:title="Creates UioDeviceInfo from UioDeviceLocation (XDMA version)">
<polygon fill="#999999" stroke="#666666" points="152.5,-19 32.5,-19 32.5,0 152.5,0 152.5,-19"/>
<text text-anchor="middle" x="92.5" y="-7" font-family="Helvetica,sans-Serif" font-size="10.00">udmaio::UioConfigXdma</text>
</a>
</g>
</g>
<!-- Node2 -->
<g id="node2" class="node">
<title>Node2</title>
<g id="a_node2"><a xlink:href="classudmaio_1_1_uio_config_base.html" target="_top" xlink:title="Base class for UioDeviceInfo configuration.">
<polygon fill="white" stroke="#666666" points="117,-85 0,-85 0,-66 117,-66 117,-85"/>
<text text-anchor="middle" x="58.5" y="-73" font-family="Helvetica,sans-Serif" font-size="10.00">udmaio::UioConfigBase</text>
</a>
</g>
</g>
<!-- Node2&#45;&gt;Node1 -->
<g id="edge1" class="edge">
<title>Node2&#45;&gt;Node1</title>
<path fill="none" stroke="#63b8ff" d="M68.51,-55.66C74.89,-43.66 82.86,-28.65 87.81,-19.32"/>
<polygon fill="#63b8ff" stroke="#63b8ff" points="65.54,-53.79 63.94,-64.26 71.72,-57.08 65.54,-53.79"/>
</g>
<!-- Node3 -->
<g id="node3" class="node">
<title>Node3</title>
<g id="a_node3"><a xlink:title=" ">
<polygon fill="white" stroke="#666666" points="194,-85 135,-85 135,-66 194,-66 194,-85"/>
<text text-anchor="middle" x="164.5" y="-73" font-family="Helvetica,sans-Serif" font-size="10.00">std::string</text>
</a>
</g>
</g>
<!-- Node3&#45;&gt;Node1 -->
<g id="edge2" class="edge">
<title>Node3&#45;&gt;Node1</title>
<path fill="none" stroke="#9a32cd" stroke-dasharray="5,2" d="M146.15,-58.19C132.25,-45.83 113.67,-29.32 102.43,-19.32"/>
<polygon fill="#9a32cd" stroke="#9a32cd" points="143.56,-60.57 153.36,-64.6 148.21,-55.34 143.56,-60.57"/>
<text text-anchor="middle" x="160" y="-40" font-family="Helvetica,sans-Serif" font-size="10.00"> _xdma_path</text>
</g>
<!-- Node4 -->
<g id="node4" class="node">
<title>Node4</title>
<g id="a_node4"><a xlink:title=" ">
<polygon fill="white" stroke="#666666" points="211,-152 118,-152 118,-122 211,-122 211,-152"/>
<text text-anchor="start" x="126" y="-140" font-family="Helvetica,sans-Serif" font-size="10.00">std::basic_string&lt;</text>
<text text-anchor="middle" x="164.5" y="-129" font-family="Helvetica,sans-Serif" font-size="10.00"> Char &gt;</text>
</a>
</g>
</g>
<!-- Node4&#45;&gt;Node3 -->
<g id="edge3" class="edge">
<title>Node4&#45;&gt;Node3</title>
<path fill="none" stroke="#63b8ff" d="M164.5,-110.13C164.5,-101.29 164.5,-91.99 164.5,-85.42"/>
<polygon fill="#63b8ff" stroke="#63b8ff" points="161,-110.08 164.5,-120.08 168,-110.08 161,-110.08"/>
</g>
</g>
</svg>
