<?xml version="1.0" encoding="UTF-8" standalone="no"?>
<!DOCTYPE svg PUBLIC "-//W3C//DTD SVG 1.1//EN"
 "http://www.w3.org/Graphics/SVG/1.1/DTD/svg11.dtd">
<!-- Generated by graphviz version 7.0.5 (20221223.1930)
 -->
<!-- Title: udmaio::UioAxiDmaIf Pages: 1 -->
<svg width="233pt" height="205pt"
 viewBox="0.00 0.00 233.00 205.00" xmlns="http://www.w3.org/2000/svg" xmlns:xlink="http://www.w3.org/1999/xlink">
<g id="graph0" class="graph" transform="scale(1 1) rotate(0) translate(4 201)">
<title>udmaio::UioAxiDmaIf</title>
<!-- Node1 -->
<g id="node1" class="node">
<title>Node1</title>
<g id="a_node1"><a xlink:title="Interface to AXI DMA Core.">
<polygon fill="#999999" stroke="#666666" points="201,-19 94,-19 94,0 201,0 201,-19"/>
<text text-anchor="middle" x="147.5" y="-7" font-family="Helvetica,sans-Serif" font-size="10.00">udmaio::UioAxiDmaIf</text>
</a>
</g>
</g>
<!-- Node2 -->
<g id="node2" class="node">
<title>Node2</title>
<g id="a_node2"><a xlink:href="classudmaio_1_1_uio_if.html" target="_top" xlink:title="UIO Interface implementing bus access.">
<polygon fill="white" stroke="#666666" points="131.5,-75 83.5,-75 83.5,-56 131.5,-56 131.5,-75"/>
<text text-anchor="middle" x="107.5" y="-63" font-family="Helvetica,sans-Serif" font-size="10.00">UioIf32</text>
</a>
</g>
</g>
<!-- Node2&#45;&gt;Node1 -->
<g id="edge1" class="edge">
<title>Node2&#45;&gt;Node1</title>
<path fill="none" stroke="#63b8ff" d="M120.85,-46.48C127.64,-37.32 135.58,-26.59 141.02,-19.25"/>
<polygon fill="#63b8ff" stroke="#63b8ff" points="118.15,-44.25 115.01,-54.37 123.77,-48.41 118.15,-44.25"/>
</g>
<!-- Node3 -->
<g id="node3" class="node">
<title>Node3</title>
<g id="a_node3"><a xlink:href="classudmaio_1_1_uio_if_base.html" target="_top" xlink:title="Base class for UIO interfaces.">
<polygon fill="white" stroke="#666666" points="155.5,-131 59.5,-131 59.5,-112 155.5,-112 155.5,-131"/>
<text text-anchor="middle" x="107.5" y="-119" font-family="Helvetica,sans-Serif" font-size="10.00">udmaio::UioIfBase</text>
</a>
</g>
</g>
<!-- Node3&#45;&gt;Node2 -->
<g id="edge2" class="edge">
<title>Node3&#45;&gt;Node2</title>
<path fill="none" stroke="#63b8ff" d="M107.5,-100.11C107.5,-91.52 107.5,-81.97 107.5,-75.25"/>
<polygon fill="#63b8ff" stroke="#63b8ff" points="104,-100.07 107.5,-110.07 111,-100.07 104,-100.07"/>
</g>
<!-- Node4 -->
<g id="node4" class="node">
<title>Node4</title>
<g id="a_node4"><a xlink:title=" ">
<polygon fill="white" stroke="#666666" points="99,-197 0,-197 0,-178 99,-178 99,-197"/>
<text text-anchor="middle" x="49.5" y="-185" font-family="Helvetica,sans-Serif" font-size="10.00">boost::noncopyable</text>
</a>
</g>
</g>
<!-- Node4&#45;&gt;Node3 -->
<g id="edge3" class="edge">
<title>Node4&#45;&gt;Node3</title>
<path fill="none" stroke="#8b1a1a" d="M65.25,-169.12C76.33,-156.89 90.7,-141.04 99.5,-131.32"/>
<polygon fill="#8b1a1a" stroke="#8b1a1a" points="62.7,-166.72 58.58,-176.48 67.89,-171.42 62.7,-166.72"/>
</g>
<!-- Node5 -->
<g id="node5" class="node">
<title>Node5</title>
<g id="a_node5"><a xlink:href="structudmaio_1_1_uio_region.html" target="_top" xlink:title="General&#45;purpose struct to define a memory area.">
<polygon fill="white" stroke="#666666" points="215.5,-197 117.5,-197 117.5,-178 215.5,-178 215.5,-197"/>
<text text-anchor="middle" x="166.5" y="-185" font-family="Helvetica,sans-Serif" font-size="10.00">udmaio::UioRegion</text>
</a>
</g>
</g>
<!-- Node5&#45;&gt;Node3 -->
<g id="edge4" class="edge">
<title>Node5&#45;&gt;Node3</title>
<path fill="none" stroke="#9a32cd" stroke-dasharray="5,2" d="M150.81,-169.48C139.49,-157.2 124.67,-141.13 115.63,-131.32"/>
<polygon fill="#9a32cd" stroke="#9a32cd" points="147.92,-171.51 157.27,-176.49 153.07,-166.76 147.92,-171.51"/>
<text text-anchor="middle" x="158.5" y="-152" font-family="Helvetica,sans-Serif" font-size="10.00"> _region</text>
</g>
<!-- Node6 -->
<g id="node6" class="node">
<title>Node6</title>
<g id="a_node6"><a xlink:href="structaxi__dma_1_1block__template.html" target="_top" xlink:title="Template class for the axi_dma block, containing accessors for all its registers.">
<polygon fill="white" stroke="#666666" points="225,-75 150,-75 150,-56 225,-56 225,-75"/>
<text text-anchor="middle" x="187.5" y="-63" font-family="Helvetica,sans-Serif" font-size="10.00">AxiDmaBlock</text>
</a>
</g>
</g>
<!-- Node6&#45;&gt;Node1 -->
<g id="edge5" class="edge">
<title>Node6&#45;&gt;Node1</title>
<path fill="none" stroke="#8b1a1a" d="M174.15,-46.48C167.36,-37.32 159.42,-26.59 153.98,-19.25"/>
<polygon fill="#8b1a1a" stroke="#8b1a1a" points="171.23,-48.41 179.99,-54.37 176.85,-44.25 171.23,-48.41"/>
</g>
</g>
</svg>
