<?xml version="1.0" encoding="UTF-8" standalone="no"?>
<!DOCTYPE svg PUBLIC "-//W3C//DTD SVG 1.1//EN"
 "http://www.w3.org/Graphics/SVG/1.1/DTD/svg11.dtd">
<!-- Generated by graphviz version 7.0.5 (20221223.1930)
 -->
<!-- Title: udmaio::UDmaBuf Pages: 1 -->
<svg width="260pt" height="149pt"
 viewBox="0.00 0.00 259.50 149.00" xmlns="http://www.w3.org/2000/svg" xmlns:xlink="http://www.w3.org/1999/xlink">
<g id="graph0" class="graph" transform="scale(1 1) rotate(0) translate(4 145)">
<title>udmaio::UDmaBuf</title>
<!-- Node1 -->
<g id="node1" class="node">
<title>Node1</title>
<g id="a_node1"><a xlink:title="DMA data buffer accessed over AXI/UIO, implemented w/ udmabuf (see https://github....">
<polygon fill="#999999" stroke="#666666" points="182,-19 87,-19 87,0 182,0 182,-19"/>
<text text-anchor="middle" x="134.5" y="-7" font-family="Helvetica,sans-Serif" font-size="10.00">udmaio::UDmaBuf</text>
</a>
</g>
</g>
<!-- Node2 -->
<g id="node2" class="node">
<title>Node2</title>
<g id="a_node2"><a xlink:href="classudmaio_1_1_dma_buffer_abstract.html" target="_top" xlink:title="Base class for DMA data buffer.">
<polygon fill="white" stroke="#666666" points="135,-85 0,-85 0,-66 135,-66 135,-85"/>
<text text-anchor="middle" x="67.5" y="-73" font-family="Helvetica,sans-Serif" font-size="10.00">udmaio::DmaBufferAbstract</text>
</a>
</g>
</g>
<!-- Node2&#45;&gt;Node1 -->
<g id="edge1" class="edge">
<title>Node2&#45;&gt;Node1</title>
<path fill="none" stroke="#63b8ff" d="M84.95,-57.83C97.84,-45.52 114.9,-29.23 125.26,-19.32"/>
<polygon fill="#63b8ff" stroke="#63b8ff" points="82.72,-55.12 77.91,-64.56 87.56,-60.18 82.72,-55.12"/>
</g>
<!-- Node3 -->
<g id="node3" class="node">
<title>Node3</title>
<g id="a_node3"><a xlink:title=" ">
<polygon fill="white" stroke="#666666" points="117,-141 18,-141 18,-122 117,-122 117,-141"/>
<text text-anchor="middle" x="67.5" y="-129" font-family="Helvetica,sans-Serif" font-size="10.00">boost::noncopyable</text>
</a>
</g>
</g>
<!-- Node3&#45;&gt;Node2 -->
<g id="edge2" class="edge">
<title>Node3&#45;&gt;Node2</title>
<path fill="none" stroke="#8b1a1a" d="M67.5,-110.11C67.5,-101.52 67.5,-91.97 67.5,-85.25"/>
<polygon fill="#8b1a1a" stroke="#8b1a1a" points="64,-110.07 67.5,-120.07 71,-110.07 64,-110.07"/>
</g>
<!-- Node4 -->
<g id="node4" class="node">
<title>Node4</title>
<g id="a_node4"><a xlink:href="structudmaio_1_1_uio_region.html" target="_top" xlink:title="General&#45;purpose struct to define a memory area.">
<polygon fill="white" stroke="#666666" points="251.5,-85 153.5,-85 153.5,-66 251.5,-66 251.5,-85"/>
<text text-anchor="middle" x="202.5" y="-73" font-family="Helvetica,sans-Serif" font-size="10.00">udmaio::UioRegion</text>
</a>
</g>
</g>
<!-- Node4&#45;&gt;Node1 -->
<g id="edge3" class="edge">
<title>Node4&#45;&gt;Node1</title>
<path fill="none" stroke="#9a32cd" stroke-dasharray="5,2" d="M184.79,-57.83C171.7,-45.52 154.4,-29.23 143.87,-19.32"/>
<polygon fill="#9a32cd" stroke="#9a32cd" points="182.26,-60.26 191.94,-64.56 187.06,-55.16 182.26,-60.26"/>
<text text-anchor="middle" x="186.5" y="-40" font-family="Helvetica,sans-Serif" font-size="10.00"> _phys</text>
</g>
</g>
</svg>
