<?xml version="1.0" encoding="UTF-8" standalone="no"?>
<!DOCTYPE svg PUBLIC "-//W3C//DTD SVG 1.1//EN"
 "http://www.w3.org/Graphics/SVG/1.1/DTD/svg11.dtd">
<!-- Generated by graphviz version 7.0.5 (20221223.1930)
 -->
<!-- Title: udmaio::RegAccessorArray&lt; C, offset, arr_size, arr_stride &gt; Pages: 1 -->
<svg width="325pt" height="237pt"
 viewBox="0.00 0.00 324.50 237.00" xmlns="http://www.w3.org/2000/svg" xmlns:xlink="http://www.w3.org/1999/xlink">
<g id="graph0" class="graph" transform="scale(1 1) rotate(0) translate(4 233)">
<title>udmaio::RegAccessorArray&lt; C, offset, arr_size, arr_stride &gt;</title>
<!-- Node1 -->
<g id="node1" class="node">
<title>Node1</title>
<g id="a_node1"><a xlink:title="Accessor for register array.">
<polygon fill="#999999" stroke="#666666" points="217.5,-41 83.5,-41 83.5,0 217.5,0 217.5,-41"/>
<text text-anchor="start" x="91.5" y="-29" font-family="Helvetica,sans-Serif" font-size="10.00">udmaio::RegAccessorArray</text>
<text text-anchor="start" x="91.5" y="-18" font-family="Helvetica,sans-Serif" font-size="10.00">&lt; C, offset, arr_size,</text>
<text text-anchor="middle" x="150.5" y="-7" font-family="Helvetica,sans-Serif" font-size="10.00"> arr_stride &gt;</text>
</a>
</g>
</g>
<!-- Node2 -->
<g id="node2" class="node">
<title>Node2</title>
<g id="a_node2"><a xlink:href="classudmaio_1_1_reg_accessor_base.html" target="_top" xlink:title="Base class implementing register access. Only used by subclasses, not used directly.">
<polygon fill="white" stroke="#666666" points="229,-97 72,-97 72,-78 229,-78 229,-97"/>
<text text-anchor="middle" x="150.5" y="-85" font-family="Helvetica,sans-Serif" font-size="10.00">udmaio::RegAccessorBase&lt; C &gt;</text>
</a>
</g>
</g>
<!-- Node2&#45;&gt;Node1 -->
<g id="edge1" class="edge">
<title>Node2&#45;&gt;Node1</title>
<path fill="none" stroke="#63b8ff" d="M150.5,-66.49C150.5,-58.49 150.5,-49.29 150.5,-41.31"/>
<polygon fill="#63b8ff" stroke="#63b8ff" points="147,-66.22 150.5,-76.22 154,-66.22 147,-66.22"/>
</g>
<!-- Node3 -->
<g id="node3" class="node">
<title>Node3</title>
<g id="a_node3"><a xlink:href="classudmaio_1_1_uio_if.html" target="_top" xlink:title="Base class for UIO interfaces.">
<polygon fill="white" stroke="#666666" points="187.5,-163 113.5,-163 113.5,-144 187.5,-144 187.5,-163"/>
<text text-anchor="middle" x="150.5" y="-151" font-family="Helvetica,sans-Serif" font-size="10.00">udmaio::UioIf</text>
</a>
</g>
</g>
<!-- Node3&#45;&gt;Node2 -->
<g id="edge2" class="edge">
<title>Node3&#45;&gt;Node2</title>
<path fill="none" stroke="#9a32cd" stroke-dasharray="5,2" d="M150.5,-132.18C150.5,-120.44 150.5,-106.27 150.5,-97.32"/>
<polygon fill="#9a32cd" stroke="#9a32cd" points="147,-132.09 150.5,-142.09 154,-132.09 147,-132.09"/>
<text text-anchor="middle" x="157" y="-118" font-family="Helvetica,sans-Serif" font-size="10.00"> _if</text>
</g>
<!-- Node4 -->
<g id="node4" class="node">
<title>Node4</title>
<g id="a_node4"><a xlink:href="structudmaio_1_1_logger.html" target="_top" xlink:title=" ">
<polygon fill="white" stroke="#666666" points="83,-229 0,-229 0,-210 83,-210 83,-229"/>
<text text-anchor="middle" x="41.5" y="-217" font-family="Helvetica,sans-Serif" font-size="10.00">udmaio::Logger</text>
</a>
</g>
</g>
<!-- Node4&#45;&gt;Node3 -->
<g id="edge3" class="edge">
<title>Node4&#45;&gt;Node3</title>
<path fill="none" stroke="#63b8ff" d="M66.32,-203.92C87.63,-191.42 117.63,-173.8 135.47,-163.32"/>
<polygon fill="#63b8ff" stroke="#63b8ff" points="64.81,-200.75 57.96,-208.83 68.36,-206.79 64.81,-200.75"/>
</g>
<!-- Node5 -->
<g id="node5" class="node">
<title>Node5</title>
<g id="a_node5"><a xlink:title=" ">
<polygon fill="white" stroke="#666666" points="200,-229 101,-229 101,-210 200,-210 200,-229"/>
<text text-anchor="middle" x="150.5" y="-217" font-family="Helvetica,sans-Serif" font-size="10.00">boost::noncopyable</text>
</a>
</g>
</g>
<!-- Node5&#45;&gt;Node3 -->
<g id="edge4" class="edge">
<title>Node5&#45;&gt;Node3</title>
<path fill="none" stroke="#8b1a1a" d="M150.5,-198.18C150.5,-186.44 150.5,-172.27 150.5,-163.32"/>
<polygon fill="#8b1a1a" stroke="#8b1a1a" points="147,-198.09 150.5,-208.09 154,-198.09 147,-198.09"/>
</g>
<!-- Node6 -->
<g id="node6" class="node">
<title>Node6</title>
<g id="a_node6"><a xlink:href="structudmaio_1_1_uio_region.html" target="_top" xlink:title="General&#45;purpose struct to define a memory area.">
<polygon fill="white" stroke="#666666" points="316.5,-229 218.5,-229 218.5,-210 316.5,-210 316.5,-229"/>
<text text-anchor="middle" x="267.5" y="-217" font-family="Helvetica,sans-Serif" font-size="10.00">udmaio::UioRegion</text>
</a>
</g>
</g>
<!-- Node6&#45;&gt;Node3 -->
<g id="edge5" class="edge">
<title>Node6&#45;&gt;Node3</title>
<path fill="none" stroke="#9a32cd" stroke-dasharray="5,2" d="M241.17,-204.09C218.28,-191.58 185.86,-173.84 166.63,-163.32"/>
<polygon fill="#9a32cd" stroke="#9a32cd" points="239.45,-207.15 249.9,-208.87 242.81,-201.01 239.45,-207.15"/>
<text text-anchor="middle" x="232.5" y="-184" font-family="Helvetica,sans-Serif" font-size="10.00"> _region</text>
</g>
</g>
</svg>
