<?xml version="1.0" encoding="UTF-8" standalone="no"?>
<!DOCTYPE svg PUBLIC "-//W3C//DTD SVG 1.1//EN"
 "http://www.w3.org/Graphics/SVG/1.1/DTD/svg11.dtd">
<!-- Generated by graphviz version 7.0.5 (20221223.1930)
 -->
<!-- Title: udmaio::RegAccessorBase&lt; C &gt; Pages: 1 -->
<svg width="224pt" height="159pt"
 viewBox="0.00 0.00 223.50 159.00" xmlns="http://www.w3.org/2000/svg" xmlns:xlink="http://www.w3.org/1999/xlink">
<g id="graph0" class="graph" transform="scale(1 1) rotate(0) translate(4 155)">
<title>udmaio::RegAccessorBase&lt; C &gt;</title>
<!-- Node1 -->
<g id="node1" class="node">
<title>Node1</title>
<g id="a_node1"><a xlink:title="Base class implementing register access. Only used by subclasses, not used directly.">
<polygon fill="#999999" stroke="#666666" points="186,-19 29,-19 29,0 186,0 186,-19"/>
<text text-anchor="middle" x="107.5" y="-7" font-family="Helvetica,sans-Serif" font-size="10.00">udmaio::RegAccessorBase&lt; C &gt;</text>
</a>
</g>
</g>
<!-- Node2 -->
<g id="node2" class="node">
<title>Node2</title>
<g id="a_node2"><a xlink:href="classudmaio_1_1_uio_if_base.html" target="_top" xlink:title="Base class for UIO interfaces.">
<polygon fill="white" stroke="#666666" points="155.5,-85 59.5,-85 59.5,-66 155.5,-66 155.5,-85"/>
<text text-anchor="middle" x="107.5" y="-73" font-family="Helvetica,sans-Serif" font-size="10.00">udmaio::UioIfBase</text>
</a>
</g>
</g>
<!-- Node2&#45;&gt;Node1 -->
<g id="edge1" class="edge">
<title>Node2&#45;&gt;Node1</title>
<path fill="none" stroke="#9a32cd" stroke-dasharray="5,2" d="M107.5,-54.18C107.5,-42.44 107.5,-28.27 107.5,-19.32"/>
<polygon fill="#9a32cd" stroke="#9a32cd" points="104,-54.09 107.5,-64.09 111,-54.09 104,-54.09"/>
<text text-anchor="middle" x="114" y="-40" font-family="Helvetica,sans-Serif" font-size="10.00"> _if</text>
</g>
<!-- Node3 -->
<g id="node3" class="node">
<title>Node3</title>
<g id="a_node3"><a xlink:title=" ">
<polygon fill="white" stroke="#666666" points="99,-151 0,-151 0,-132 99,-132 99,-151"/>
<text text-anchor="middle" x="49.5" y="-139" font-family="Helvetica,sans-Serif" font-size="10.00">boost::noncopyable</text>
</a>
</g>
</g>
<!-- Node3&#45;&gt;Node2 -->
<g id="edge2" class="edge">
<title>Node3&#45;&gt;Node2</title>
<path fill="none" stroke="#8b1a1a" d="M65.25,-123.12C76.33,-110.89 90.7,-95.04 99.5,-85.32"/>
<polygon fill="#8b1a1a" stroke="#8b1a1a" points="62.7,-120.72 58.58,-130.48 67.89,-125.42 62.7,-120.72"/>
</g>
<!-- Node4 -->
<g id="node4" class="node">
<title>Node4</title>
<g id="a_node4"><a xlink:href="structudmaio_1_1_uio_region.html" target="_top" xlink:title="General&#45;purpose struct to define a memory area.">
<polygon fill="white" stroke="#666666" points="215.5,-151 117.5,-151 117.5,-132 215.5,-132 215.5,-151"/>
<text text-anchor="middle" x="166.5" y="-139" font-family="Helvetica,sans-Serif" font-size="10.00">udmaio::UioRegion</text>
</a>
</g>
</g>
<!-- Node4&#45;&gt;Node2 -->
<g id="edge3" class="edge">
<title>Node4&#45;&gt;Node2</title>
<path fill="none" stroke="#9a32cd" stroke-dasharray="5,2" d="M150.81,-123.48C139.49,-111.2 124.67,-95.13 115.63,-85.32"/>
<polygon fill="#9a32cd" stroke="#9a32cd" points="147.92,-125.51 157.27,-130.49 153.07,-120.76 147.92,-125.51"/>
<text text-anchor="middle" x="157.5" y="-106" font-family="Helvetica,sans-Serif" font-size="10.00"> _region</text>
</g>
</g>
</svg>
