<?xml version="1.0" encoding="UTF-8" standalone="no"?>
<!DOCTYPE svg PUBLIC "-//W3C//DTD SVG 1.1//EN"
 "http://www.w3.org/Graphics/SVG/1.1/DTD/svg11.dtd">
<!-- Generated by graphviz version 7.0.5 (20221223.1930)
 -->
<!-- Title: udmaio::UioMemSgdma Pages: 1 -->
<svg width="243pt" height="425pt"
 viewBox="0.00 0.00 243.00 425.00" xmlns="http://www.w3.org/2000/svg" xmlns:xlink="http://www.w3.org/1999/xlink">
<g id="graph0" class="graph" transform="scale(1 1) rotate(0) translate(4 421)">
<title>udmaio::UioMemSgdma</title>
<!-- Node1 -->
<g id="node1" class="node">
<title>Node1</title>
<g id="a_node1"><a xlink:title="Interface to AXI DMA scatter&#45;gather buffers &amp; descriptors Uses a UioIf to access DMA descriptor memor...">
<polygon fill="#999999" stroke="#666666" points="125.5,-19 5.5,-19 5.5,0 125.5,0 125.5,-19"/>
<text text-anchor="middle" x="65.5" y="-7" font-family="Helvetica,sans-Serif" font-size="10.00">udmaio::UioMemSgdma</text>
</a>
</g>
</g>
<!-- Node2 -->
<g id="node2" class="node">
<title>Node2</title>
<g id="a_node2"><a xlink:href="classudmaio_1_1_uio_if.html" target="_top" xlink:title="Base class for UIO interfaces.">
<polygon fill="white" stroke="#666666" points="102.5,-229 28.5,-229 28.5,-210 102.5,-210 102.5,-229"/>
<text text-anchor="middle" x="65.5" y="-217" font-family="Helvetica,sans-Serif" font-size="10.00">udmaio::UioIf</text>
</a>
</g>
</g>
<!-- Node2&#45;&gt;Node1 -->
<g id="edge1" class="edge">
<title>Node2&#45;&gt;Node1</title>
<path fill="none" stroke="#63b8ff" d="M65.5,-198.33C65.5,-154.07 65.5,-49.89 65.5,-19.17"/>
<polygon fill="#63b8ff" stroke="#63b8ff" points="62,-198.05 65.5,-208.05 69,-198.05 62,-198.05"/>
</g>
<!-- Node8 -->
<g id="node8" class="node">
<title>Node8</title>
<g id="a_node8"><a xlink:href="classudmaio_1_1_reg_accessor_base.html" target="_top" xlink:title="Base class implementing register access. Only used by subclasses, not used directly.">
<polygon fill="white" stroke="#666666" points="235,-163 78,-163 78,-144 235,-144 235,-163"/>
<text text-anchor="middle" x="156.5" y="-151" font-family="Helvetica,sans-Serif" font-size="10.00">udmaio::RegAccessorBase&lt; C &gt;</text>
</a>
</g>
</g>
<!-- Node2&#45;&gt;Node8 -->
<g id="edge9" class="edge">
<title>Node2&#45;&gt;Node8</title>
<path fill="none" stroke="#9a32cd" stroke-dasharray="5,2" d="M87.2,-203.24C104.92,-190.78 129.33,-173.61 143.95,-163.32"/>
<polygon fill="#9a32cd" stroke="#9a32cd" points="85.56,-200.11 79.39,-208.73 89.58,-205.84 85.56,-200.11"/>
<text text-anchor="middle" x="123" y="-184" font-family="Helvetica,sans-Serif" font-size="10.00"> _if</text>
</g>
<!-- Node3 -->
<g id="node3" class="node">
<title>Node3</title>
<g id="a_node3"><a xlink:title=" ">
<polygon fill="white" stroke="#666666" points="99,-417 0,-417 0,-398 99,-398 99,-417"/>
<text text-anchor="middle" x="49.5" y="-405" font-family="Helvetica,sans-Serif" font-size="10.00">boost::noncopyable</text>
</a>
</g>
</g>
<!-- Node3&#45;&gt;Node2 -->
<g id="edge2" class="edge">
<title>Node3&#45;&gt;Node2</title>
<path fill="none" stroke="#8b1a1a" d="M51.26,-386.07C54.72,-345.79 62.31,-257.61 64.74,-229.38"/>
<polygon fill="#8b1a1a" stroke="#8b1a1a" points="47.77,-385.76 50.4,-396.02 54.75,-386.36 47.77,-385.76"/>
</g>
<!-- Node5 -->
<g id="node5" class="node">
<title>Node5</title>
<g id="a_node5"><a xlink:href="classudmaio_1_1_hw_accessor.html" target="_top" xlink:title="Base class for hardware access.">
<polygon fill="white" stroke="#666666" points="209,-361 100,-361 100,-342 209,-342 209,-361"/>
<text text-anchor="middle" x="154.5" y="-349" font-family="Helvetica,sans-Serif" font-size="10.00">udmaio::HwAccessor</text>
</a>
</g>
</g>
<!-- Node3&#45;&gt;Node5 -->
<g id="edge6" class="edge">
<title>Node3&#45;&gt;Node5</title>
<path fill="none" stroke="#8b1a1a" d="M77.01,-392.35C96.04,-382.57 120.79,-369.84 137.14,-361.43"/>
<polygon fill="#8b1a1a" stroke="#8b1a1a" points="75.48,-389.2 68.18,-396.89 78.68,-395.43 75.48,-389.2"/>
</g>
<!-- Node4 -->
<g id="node4" class="node">
<title>Node4</title>
<g id="a_node4"><a xlink:title=" ">
<polygon fill="white" stroke="#666666" points="231,-295 78,-295 78,-276 231,-276 231,-295"/>
<text text-anchor="middle" x="154.5" y="-283" font-family="Helvetica,sans-Serif" font-size="10.00">std::shared_ptr&lt; HwAccessor &gt;</text>
</a>
</g>
</g>
<!-- Node4&#45;&gt;Node2 -->
<g id="edge3" class="edge">
<title>Node4&#45;&gt;Node2</title>
<path fill="none" stroke="#9a32cd" stroke-dasharray="5,2" d="M132.79,-268.89C115.51,-256.46 91.94,-239.51 77.77,-229.32"/>
<polygon fill="#9a32cd" stroke="#9a32cd" points="130.73,-271.72 140.9,-274.72 134.82,-266.04 130.73,-271.72"/>
<text text-anchor="middle" x="126" y="-250" font-family="Helvetica,sans-Serif" font-size="10.00"> _hw</text>
</g>
<!-- Node5&#45;&gt;Node4 -->
<g id="edge4" class="edge">
<title>Node5&#45;&gt;Node4</title>
<path fill="none" stroke="#9a32cd" stroke-dasharray="5,2" d="M154.5,-330.18C154.5,-318.44 154.5,-304.27 154.5,-295.32"/>
<polygon fill="#9a32cd" stroke="#9a32cd" points="151,-330.09 154.5,-340.09 158,-330.09 151,-330.09"/>
<text text-anchor="middle" x="161.5" y="-316" font-family="Helvetica,sans-Serif" font-size="10.00"> ptr</text>
</g>
<!-- Node6 -->
<g id="node6" class="node">
<title>Node6</title>
<g id="a_node6"><a xlink:href="structudmaio_1_1_logger.html" target="_top" xlink:title=" ">
<polygon fill="white" stroke="#666666" points="200,-417 117,-417 117,-398 200,-398 200,-417"/>
<text text-anchor="middle" x="158.5" y="-405" font-family="Helvetica,sans-Serif" font-size="10.00">udmaio::Logger</text>
</a>
</g>
</g>
<!-- Node6&#45;&gt;Node5 -->
<g id="edge5" class="edge">
<title>Node6&#45;&gt;Node5</title>
<path fill="none" stroke="#63b8ff" d="M156.99,-386.11C156.35,-377.52 155.65,-367.97 155.15,-361.25"/>
<polygon fill="#63b8ff" stroke="#63b8ff" points="153.5,-386.36 157.73,-396.07 160.48,-385.84 153.5,-386.36"/>
</g>
<!-- Node7 -->
<g id="node7" class="node">
<title>Node7</title>
<g id="a_node7"><a xlink:href="classudmaio_1_1_reg_accessor_array.html" target="_top" xlink:title=" ">
<polygon fill="white" stroke="#666666" points="224.5,-107 80.5,-107 80.5,-66 224.5,-66 224.5,-107"/>
<text text-anchor="start" x="88.5" y="-95" font-family="Helvetica,sans-Serif" font-size="10.00">udmaio::RegAccessorArray</text>
<text text-anchor="start" x="88.5" y="-84" font-family="Helvetica,sans-Serif" font-size="10.00">&lt; S2mmDesc, 0, 1024, DESC</text>
<text text-anchor="middle" x="152.5" y="-73" font-family="Helvetica,sans-Serif" font-size="10.00">_ADDR_STEP &gt;</text>
</a>
</g>
</g>
<!-- Node7&#45;&gt;Node1 -->
<g id="edge7" class="edge">
<title>Node7&#45;&gt;Node1</title>
<path fill="none" stroke="#9a32cd" stroke-dasharray="5,2" d="M121.06,-58.4C105.08,-44.62 86.73,-28.8 75.63,-19.24"/>
<polygon fill="#9a32cd" stroke="#9a32cd" points="118.64,-60.93 128.5,-64.81 123.21,-55.63 118.64,-60.93"/>
<text text-anchor="middle" x="135" y="-40" font-family="Helvetica,sans-Serif" font-size="10.00"> descriptors</text>
</g>
<!-- Node8&#45;&gt;Node7 -->
<g id="edge8" class="edge">
<title>Node8&#45;&gt;Node7</title>
<path fill="none" stroke="#63b8ff" d="M155.27,-132.49C154.78,-124.49 154.21,-115.29 153.72,-107.31"/>
<polygon fill="#63b8ff" stroke="#63b8ff" points="151.76,-132.46 155.87,-142.22 158.75,-132.03 151.76,-132.46"/>
</g>
</g>
</svg>
