<?xml version="1.0" encoding="UTF-8" standalone="no"?>
<!DOCTYPE svg PUBLIC "-//W3C//DTD SVG 1.1//EN"
 "http://www.w3.org/Graphics/SVG/1.1/DTD/svg11.dtd">
<!-- Generated by graphviz version 7.0.5 (20221223.1930)
 -->
<!-- Title: udmaio::HwAccessorXdma&lt; max_access_width_t &gt; Pages: 1 -->
<svg width="275pt" height="227pt"
 viewBox="0.00 0.00 274.50 227.00" xmlns="http://www.w3.org/2000/svg" xmlns:xlink="http://www.w3.org/1999/xlink">
<g id="graph0" class="graph" transform="scale(1 1) rotate(0) translate(4 223)">
<title>udmaio::HwAccessorXdma&lt; max_access_width_t &gt;</title>
<!-- Node1 -->
<g id="node1" class="node">
<title>Node1</title>
<g id="a_node1"><a xlink:title=" ">
<polygon fill="#999999" stroke="#666666" points="223.5,-30 89.5,-30 89.5,0 223.5,0 223.5,-30"/>
<text text-anchor="start" x="97.5" y="-18" font-family="Helvetica,sans-Serif" font-size="10.00">udmaio::HwAccessorXdma</text>
<text text-anchor="middle" x="156.5" y="-7" font-family="Helvetica,sans-Serif" font-size="10.00">&lt; max_access_width_t &gt;</text>
</a>
</g>
</g>
<!-- Node2 -->
<g id="node2" class="node">
<title>Node2</title>
<g id="a_node2"><a xlink:href="classudmaio_1_1_hw_accessor_mmap.html" target="_top" xlink:title=" ">
<polygon fill="white" stroke="#666666" points="224.5,-97 88.5,-97 88.5,-67 224.5,-67 224.5,-97"/>
<text text-anchor="start" x="96.5" y="-85" font-family="Helvetica,sans-Serif" font-size="10.00">udmaio::HwAccessorMmap</text>
<text text-anchor="middle" x="156.5" y="-74" font-family="Helvetica,sans-Serif" font-size="10.00">&lt; max_access_width_t &gt;</text>
</a>
</g>
</g>
<!-- Node2&#45;&gt;Node1 -->
<g id="edge1" class="edge">
<title>Node2&#45;&gt;Node1</title>
<path fill="none" stroke="#63b8ff" d="M156.5,-55.28C156.5,-46.81 156.5,-37.7 156.5,-30.39"/>
<polygon fill="#63b8ff" stroke="#63b8ff" points="153,-55.06 156.5,-65.06 160,-55.06 153,-55.06"/>
</g>
<!-- Node3 -->
<g id="node3" class="node">
<title>Node3</title>
<g id="a_node3"><a xlink:href="classudmaio_1_1_hw_accessor.html" target="_top" xlink:title="Base class for hardware access.">
<polygon fill="white" stroke="#666666" points="150,-163 41,-163 41,-144 150,-144 150,-163"/>
<text text-anchor="middle" x="95.5" y="-151" font-family="Helvetica,sans-Serif" font-size="10.00">udmaio::HwAccessor</text>
</a>
</g>
</g>
<!-- Node3&#45;&gt;Node2 -->
<g id="edge2" class="edge">
<title>Node3&#45;&gt;Node2</title>
<path fill="none" stroke="#63b8ff" d="M110.65,-135.24C120.91,-123.54 134.31,-108.28 143.97,-97.27"/>
<polygon fill="#63b8ff" stroke="#63b8ff" points="108.19,-132.74 104.22,-142.56 113.45,-137.35 108.19,-132.74"/>
</g>
<!-- Node4 -->
<g id="node4" class="node">
<title>Node4</title>
<g id="a_node4"><a xlink:href="structudmaio_1_1_logger.html" target="_top" xlink:title=" ">
<polygon fill="white" stroke="#666666" points="83,-219 0,-219 0,-200 83,-200 83,-219"/>
<text text-anchor="middle" x="41.5" y="-207" font-family="Helvetica,sans-Serif" font-size="10.00">udmaio::Logger</text>
</a>
</g>
</g>
<!-- Node4&#45;&gt;Node3 -->
<g id="edge3" class="edge">
<title>Node4&#45;&gt;Node3</title>
<path fill="none" stroke="#63b8ff" d="M58.36,-191.64C67.76,-182.24 79.1,-170.9 86.75,-163.25"/>
<polygon fill="#63b8ff" stroke="#63b8ff" points="56.08,-188.97 51.49,-198.51 61.03,-193.92 56.08,-188.97"/>
</g>
<!-- Node5 -->
<g id="node5" class="node">
<title>Node5</title>
<g id="a_node5"><a xlink:title=" ">
<polygon fill="white" stroke="#666666" points="200,-219 101,-219 101,-200 200,-200 200,-219"/>
<text text-anchor="middle" x="150.5" y="-207" font-family="Helvetica,sans-Serif" font-size="10.00">boost::noncopyable</text>
</a>
</g>
</g>
<!-- Node5&#45;&gt;Node3 -->
<g id="edge4" class="edge">
<title>Node5&#45;&gt;Node3</title>
<path fill="none" stroke="#8b1a1a" d="M133.33,-191.64C123.75,-182.24 112.21,-170.9 104.41,-163.25"/>
<polygon fill="#8b1a1a" stroke="#8b1a1a" points="130.75,-194.01 140.34,-198.52 135.65,-189.02 130.75,-194.01"/>
</g>
<!-- Node6 -->
<g id="node6" class="node">
<title>Node6</title>
<g id="a_node6"><a xlink:href="structudmaio_1_1_uio_region.html" target="_top" xlink:title="General&#45;purpose struct to define a memory area.">
<polygon fill="white" stroke="#666666" points="266.5,-163 168.5,-163 168.5,-144 266.5,-144 266.5,-163"/>
<text text-anchor="middle" x="217.5" y="-151" font-family="Helvetica,sans-Serif" font-size="10.00">udmaio::UioRegion</text>
</a>
</g>
</g>
<!-- Node6&#45;&gt;Node2 -->
<g id="edge5" class="edge">
<title>Node6&#45;&gt;Node2</title>
<path fill="none" stroke="#9a32cd" stroke-dasharray="5,2" d="M202.35,-135.24C192.09,-123.54 178.69,-108.28 169.03,-97.27"/>
<polygon fill="#9a32cd" stroke="#9a32cd" points="199.55,-137.35 208.78,-142.56 204.81,-132.74 199.55,-137.35"/>
<text text-anchor="middle" x="208.5" y="-118" font-family="Helvetica,sans-Serif" font-size="10.00"> _region</text>
</g>
</g>
</svg>
