<?xml version="1.0" encoding="UTF-8" standalone="no"?>
<!DOCTYPE svg PUBLIC "-//W3C//DTD SVG 1.1//EN"
 "http://www.w3.org/Graphics/SVG/1.1/DTD/svg11.dtd">
<!-- Generated by graphviz version 7.0.5 (20221223.1930)
 -->
<!-- Title: udmaio::UioMemSgdma Pages: 1 -->
<svg width="328pt" height="303pt"
 viewBox="0.00 0.00 328.00 303.00" xmlns="http://www.w3.org/2000/svg" xmlns:xlink="http://www.w3.org/1999/xlink">
<g id="graph0" class="graph" transform="scale(1 1) rotate(0) translate(4 299)">
<title>udmaio::UioMemSgdma</title>
<!-- Node1 -->
<g id="node1" class="node">
<title>Node1</title>
<g id="a_node1"><a xlink:title="Interface to AXI DMA scatter&#45;gather buffers &amp; descriptors Uses a UioIf to access DMA descriptor memor...">
<polygon fill="#999999" stroke="#666666" points="210.5,-19 90.5,-19 90.5,0 210.5,0 210.5,-19"/>
<text text-anchor="middle" x="150.5" y="-7" font-family="Helvetica,sans-Serif" font-size="10.00">udmaio::UioMemSgdma</text>
</a>
</g>
</g>
<!-- Node2 -->
<g id="node2" class="node">
<title>Node2</title>
<g id="a_node2"><a xlink:href="classudmaio_1_1_uio_if.html" target="_top" xlink:title="Base class for UIO interfaces.">
<polygon fill="white" stroke="#666666" points="187.5,-229 113.5,-229 113.5,-210 187.5,-210 187.5,-229"/>
<text text-anchor="middle" x="150.5" y="-217" font-family="Helvetica,sans-Serif" font-size="10.00">udmaio::UioIf</text>
</a>
</g>
</g>
<!-- Node2&#45;&gt;Node1 -->
<g id="edge1" class="edge">
<title>Node2&#45;&gt;Node1</title>
<path fill="none" stroke="#63b8ff" d="M150.5,-198.33C150.5,-154.07 150.5,-49.89 150.5,-19.17"/>
<polygon fill="#63b8ff" stroke="#63b8ff" points="147,-198.05 150.5,-208.05 154,-198.05 147,-198.05"/>
</g>
<!-- Node7 -->
<g id="node7" class="node">
<title>Node7</title>
<g id="a_node7"><a xlink:href="classudmaio_1_1_reg_accessor_base.html" target="_top" xlink:title="Base class implementing register access. Only used by subclasses, not used directly.">
<polygon fill="white" stroke="#666666" points="320,-163 163,-163 163,-144 320,-144 320,-163"/>
<text text-anchor="middle" x="241.5" y="-151" font-family="Helvetica,sans-Serif" font-size="10.00">udmaio::RegAccessorBase&lt; C &gt;</text>
</a>
</g>
</g>
<!-- Node2&#45;&gt;Node7 -->
<g id="edge7" class="edge">
<title>Node2&#45;&gt;Node7</title>
<path fill="none" stroke="#9a32cd" stroke-dasharray="5,2" d="M172.2,-203.24C189.92,-190.78 214.33,-173.61 228.95,-163.32"/>
<polygon fill="#9a32cd" stroke="#9a32cd" points="170.56,-200.11 164.39,-208.73 174.58,-205.84 170.56,-200.11"/>
<text text-anchor="middle" x="208" y="-184" font-family="Helvetica,sans-Serif" font-size="10.00"> _if</text>
</g>
<!-- Node3 -->
<g id="node3" class="node">
<title>Node3</title>
<g id="a_node3"><a xlink:href="structudmaio_1_1_logger.html" target="_top" xlink:title=" ">
<polygon fill="white" stroke="#666666" points="83,-295 0,-295 0,-276 83,-276 83,-295"/>
<text text-anchor="middle" x="41.5" y="-283" font-family="Helvetica,sans-Serif" font-size="10.00">udmaio::Logger</text>
</a>
</g>
</g>
<!-- Node3&#45;&gt;Node2 -->
<g id="edge2" class="edge">
<title>Node3&#45;&gt;Node2</title>
<path fill="none" stroke="#63b8ff" d="M66.32,-269.92C87.63,-257.42 117.63,-239.8 135.47,-229.32"/>
<polygon fill="#63b8ff" stroke="#63b8ff" points="64.81,-266.75 57.96,-274.83 68.36,-272.79 64.81,-266.75"/>
</g>
<!-- Node4 -->
<g id="node4" class="node">
<title>Node4</title>
<g id="a_node4"><a xlink:title=" ">
<polygon fill="white" stroke="#666666" points="200,-295 101,-295 101,-276 200,-276 200,-295"/>
<text text-anchor="middle" x="150.5" y="-283" font-family="Helvetica,sans-Serif" font-size="10.00">boost::noncopyable</text>
</a>
</g>
</g>
<!-- Node4&#45;&gt;Node2 -->
<g id="edge3" class="edge">
<title>Node4&#45;&gt;Node2</title>
<path fill="none" stroke="#8b1a1a" d="M150.5,-264.18C150.5,-252.44 150.5,-238.27 150.5,-229.32"/>
<polygon fill="#8b1a1a" stroke="#8b1a1a" points="147,-264.09 150.5,-274.09 154,-264.09 147,-264.09"/>
</g>
<!-- Node5 -->
<g id="node5" class="node">
<title>Node5</title>
<g id="a_node5"><a xlink:href="structudmaio_1_1_uio_region.html" target="_top" xlink:title="General&#45;purpose struct to define a memory area.">
<polygon fill="white" stroke="#666666" points="316.5,-295 218.5,-295 218.5,-276 316.5,-276 316.5,-295"/>
<text text-anchor="middle" x="267.5" y="-283" font-family="Helvetica,sans-Serif" font-size="10.00">udmaio::UioRegion</text>
</a>
</g>
</g>
<!-- Node5&#45;&gt;Node2 -->
<g id="edge4" class="edge">
<title>Node5&#45;&gt;Node2</title>
<path fill="none" stroke="#9a32cd" stroke-dasharray="5,2" d="M241.17,-270.09C218.28,-257.58 185.86,-239.84 166.63,-229.32"/>
<polygon fill="#9a32cd" stroke="#9a32cd" points="239.45,-273.15 249.9,-274.87 242.81,-267.01 239.45,-273.15"/>
<text text-anchor="middle" x="232.5" y="-250" font-family="Helvetica,sans-Serif" font-size="10.00"> _region</text>
</g>
<!-- Node6 -->
<g id="node6" class="node">
<title>Node6</title>
<g id="a_node6"><a xlink:href="classudmaio_1_1_reg_accessor_array.html" target="_top" xlink:title=" ">
<polygon fill="white" stroke="#666666" points="309.5,-107 165.5,-107 165.5,-66 309.5,-66 309.5,-107"/>
<text text-anchor="start" x="173.5" y="-95" font-family="Helvetica,sans-Serif" font-size="10.00">udmaio::RegAccessorArray</text>
<text text-anchor="start" x="173.5" y="-84" font-family="Helvetica,sans-Serif" font-size="10.00">&lt; S2mmDesc, 0, 1024, DESC</text>
<text text-anchor="middle" x="237.5" y="-73" font-family="Helvetica,sans-Serif" font-size="10.00">_ADDR_STEP &gt;</text>
</a>
</g>
</g>
<!-- Node6&#45;&gt;Node1 -->
<g id="edge5" class="edge">
<title>Node6&#45;&gt;Node1</title>
<path fill="none" stroke="#9a32cd" stroke-dasharray="5,2" d="M206.06,-58.4C190.08,-44.62 171.73,-28.8 160.63,-19.24"/>
<polygon fill="#9a32cd" stroke="#9a32cd" points="203.64,-60.93 213.5,-64.81 208.21,-55.63 203.64,-60.93"/>
<text text-anchor="middle" x="220" y="-40" font-family="Helvetica,sans-Serif" font-size="10.00"> descriptors</text>
</g>
<!-- Node7&#45;&gt;Node6 -->
<g id="edge6" class="edge">
<title>Node7&#45;&gt;Node6</title>
<path fill="none" stroke="#63b8ff" d="M240.27,-132.49C239.78,-124.49 239.21,-115.29 238.72,-107.31"/>
<polygon fill="#63b8ff" stroke="#63b8ff" points="236.76,-132.46 240.87,-142.22 243.75,-132.03 236.76,-132.46"/>
</g>
</g>
</svg>
