<?xml version="1.0" encoding="UTF-8" standalone="no"?>
<!DOCTYPE svg PUBLIC "-//W3C//DTD SVG 1.1//EN"
 "http://www.w3.org/Graphics/SVG/1.1/DTD/svg11.dtd">
<!-- Generated by graphviz version 7.0.5 (20221223.1930)
 -->
<!-- Title: udmaio::UioIf Pages: 1 -->
<svg width="428pt" height="137pt"
 viewBox="0.00 0.00 428.00 137.00" xmlns="http://www.w3.org/2000/svg" xmlns:xlink="http://www.w3.org/1999/xlink">
<g id="graph0" class="graph" transform="scale(1 1) rotate(0) translate(4 133)">
<title>udmaio::UioIf</title>
<!-- Node1 -->
<g id="node1" class="node">
<title>Node1</title>
<g id="a_node1"><a xlink:title="Base class for UIO interfaces.">
<polygon fill="#999999" stroke="#666666" points="265,-74 191,-74 191,-55 265,-55 265,-74"/>
<text text-anchor="middle" x="228" y="-62" font-family="Helvetica,sans-Serif" font-size="10.00">udmaio::UioIf</text>
</a>
</g>
</g>
<!-- Node3 -->
<g id="node3" class="node">
<title>Node3</title>
<g id="a_node3"><a xlink:href="classudmaio_1_1_fpga_mem_buffer_over_axi.html" target="_top" xlink:title="DMA data buffer accessed over AXI/UIO, described w/ explicit address &amp; size.">
<polygon fill="white" stroke="#666666" points="156,-19 0,-19 0,0 156,0 156,-19"/>
<text text-anchor="middle" x="78" y="-7" font-family="Helvetica,sans-Serif" font-size="10.00">udmaio::FpgaMemBufferOverAxi</text>
</a>
</g>
</g>
<!-- Node1&#45;&gt;Node3 -->
<g id="edge2" class="edge">
<title>Node1&#45;&gt;Node3</title>
<path fill="none" stroke="#63b8ff" d="M191.85,-50.73C164.48,-41.06 127.59,-28.02 103.32,-19.45"/>
<polygon fill="#63b8ff" stroke="#63b8ff" points="190.53,-53.97 201.13,-54.01 192.86,-47.37 190.53,-53.97"/>
</g>
<!-- Node4 -->
<g id="node4" class="node">
<title>Node4</title>
<g id="a_node4"><a xlink:href="classudmaio_1_1_uio_axi_dma_if.html" target="_top" xlink:title="Interface to AXI DMA Core.">
<polygon fill="white" stroke="#666666" points="281.5,-19 174.5,-19 174.5,0 281.5,0 281.5,-19"/>
<text text-anchor="middle" x="228" y="-7" font-family="Helvetica,sans-Serif" font-size="10.00">udmaio::UioAxiDmaIf</text>
</a>
</g>
</g>
<!-- Node1&#45;&gt;Node4 -->
<g id="edge3" class="edge">
<title>Node1&#45;&gt;Node4</title>
<path fill="none" stroke="#63b8ff" d="M228,-43.35C228,-35.1 228,-25.97 228,-19.44"/>
<polygon fill="#63b8ff" stroke="#63b8ff" points="224.5,-43.23 228,-53.23 231.5,-43.23 224.5,-43.23"/>
</g>
<!-- Node5 -->
<g id="node5" class="node">
<title>Node5</title>
<g id="a_node5"><a xlink:href="classudmaio_1_1_uio_mem_sgdma.html" target="_top" xlink:title="Interface to AXI DMA scatter&#45;gather buffers &amp; descriptors Uses a UioIf to access DMA descriptor memor...">
<polygon fill="white" stroke="#666666" points="420,-19 300,-19 300,0 420,0 420,-19"/>
<text text-anchor="middle" x="360" y="-7" font-family="Helvetica,sans-Serif" font-size="10.00">udmaio::UioMemSgdma</text>
</a>
</g>
</g>
<!-- Node1&#45;&gt;Node5 -->
<g id="edge4" class="edge">
<title>Node1&#45;&gt;Node5</title>
<path fill="none" stroke="#63b8ff" d="M260.82,-50.32C284.87,-40.67 316.88,-27.82 337.94,-19.36"/>
<polygon fill="#63b8ff" stroke="#63b8ff" points="259.77,-46.97 251.8,-53.95 262.38,-53.47 259.77,-46.97"/>
</g>
<!-- Node2 -->
<g id="node2" class="node">
<title>Node2</title>
<g id="a_node2"><a xlink:title=" ">
<polygon fill="white" stroke="#666666" points="277.5,-129 178.5,-129 178.5,-110 277.5,-110 277.5,-129"/>
<text text-anchor="middle" x="228" y="-117" font-family="Helvetica,sans-Serif" font-size="10.00">boost::noncopyable</text>
</a>
</g>
</g>
<!-- Node2&#45;&gt;Node1 -->
<g id="edge1" class="edge">
<title>Node2&#45;&gt;Node1</title>
<path fill="none" stroke="#8b1a1a" d="M228,-98.35C228,-90.1 228,-80.97 228,-74.44"/>
<polygon fill="#8b1a1a" stroke="#8b1a1a" points="224.5,-98.23 228,-108.23 231.5,-98.23 224.5,-98.23"/>
</g>
</g>
</svg>
