<?xml version="1.0" encoding="UTF-8" standalone="no"?>
<!DOCTYPE svg PUBLIC "-//W3C//DTD SVG 1.1//EN"
 "http://www.w3.org/Graphics/SVG/1.1/DTD/svg11.dtd">
<!-- Generated by graphviz version 7.0.5 (20221223.1930)
 -->
<!-- Title: udmaio::UioDeviceLocation Pages: 1 -->
<svg width="332pt" height="192pt"
 viewBox="0.00 0.00 331.50 192.00" xmlns="http://www.w3.org/2000/svg" xmlns:xlink="http://www.w3.org/1999/xlink">
<g id="graph0" class="graph" transform="scale(1 1) rotate(0) translate(4 188)">
<title>udmaio::UioDeviceLocation</title>
<!-- Node1 -->
<g id="node1" class="node">
<title>Node1</title>
<g id="a_node1"><a xlink:title="Holds information where a device can be found over both UIO and XDMA.">
<polygon fill="#999999" stroke="#666666" points="245,-19 110,-19 110,0 245,0 245,-19"/>
<text text-anchor="middle" x="177.5" y="-7" font-family="Helvetica,sans-Serif" font-size="10.00">udmaio::UioDeviceLocation</text>
</a>
</g>
</g>
<!-- Node2 -->
<g id="node2" class="node">
<title>Node2</title>
<g id="a_node2"><a xlink:title=" ">
<polygon fill="white" stroke="#666666" points="122,-107 3,-107 3,-77 122,-77 122,-107"/>
<text text-anchor="start" x="11" y="-95" font-family="Helvetica,sans-Serif" font-size="10.00">std::unique_ptr&lt; udmaio</text>
<text text-anchor="middle" x="62.5" y="-84" font-family="Helvetica,sans-Serif" font-size="10.00">::UioConfigBase &gt;</text>
</a>
</g>
</g>
<!-- Node2&#45;&gt;Node1 -->
<g id="edge1" class="edge">
<title>Node2&#45;&gt;Node1</title>
<path fill="none" stroke="#9a32cd" stroke-dasharray="5,2" d="M88.23,-69.46C100.93,-59.19 116.68,-46.99 131.5,-37 140.98,-30.61 152.06,-24.19 160.98,-19.27"/>
<polygon fill="#9a32cd" stroke="#9a32cd" points="86.27,-66.54 80.74,-75.58 90.7,-71.96 86.27,-66.54"/>
<text text-anchor="middle" x="152.5" y="-45.5" font-family="Helvetica,sans-Serif" font-size="10.00"> _link_cfg</text>
</g>
<!-- Node3 -->
<g id="node3" class="node">
<title>Node3</title>
<g id="a_node3"><a xlink:href="classudmaio_1_1_uio_config_base.html" target="_top" xlink:title="Base class for UioDeviceInfo configuration.">
<polygon fill="white" stroke="#666666" points="117,-178.5 0,-178.5 0,-159.5 117,-159.5 117,-178.5"/>
<text text-anchor="middle" x="58.5" y="-166.5" font-family="Helvetica,sans-Serif" font-size="10.00">udmaio::UioConfigBase</text>
</a>
</g>
</g>
<!-- Node3&#45;&gt;Node2 -->
<g id="edge2" class="edge">
<title>Node3&#45;&gt;Node2</title>
<path fill="none" stroke="#9a32cd" stroke-dasharray="5,2" d="M59.58,-147.75C60.26,-134.95 61.13,-118.72 61.74,-107.27"/>
<polygon fill="#9a32cd" stroke="#9a32cd" points="56.09,-147.42 59.06,-157.59 63.08,-147.79 56.09,-147.42"/>
<text text-anchor="middle" x="68.5" y="-128" font-family="Helvetica,sans-Serif" font-size="10.00"> ptr</text>
</g>
<!-- Node4 -->
<g id="node4" class="node">
<title>Node4</title>
<g id="a_node4"><a xlink:title=" ">
<polygon fill="white" stroke="#666666" points="207,-101.5 148,-101.5 148,-82.5 207,-82.5 207,-101.5"/>
<text text-anchor="middle" x="177.5" y="-89.5" font-family="Helvetica,sans-Serif" font-size="10.00">std::string</text>
</a>
</g>
</g>
<!-- Node4&#45;&gt;Node1 -->
<g id="edge3" class="edge">
<title>Node4&#45;&gt;Node1</title>
<path fill="none" stroke="#9a32cd" stroke-dasharray="5,2" d="M177.5,-70.85C177.5,-54.25 177.5,-31.5 177.5,-19.22"/>
<polygon fill="#9a32cd" stroke="#9a32cd" points="174,-70.56 177.5,-80.56 181,-70.56 174,-70.56"/>
<text text-anchor="middle" x="209.5" y="-51" font-family="Helvetica,sans-Serif" font-size="10.00"> uio_name</text>
<text text-anchor="middle" x="209.5" y="-40" font-family="Helvetica,sans-Serif" font-size="10.00">xdma_evt_dev</text>
</g>
<!-- Node5 -->
<g id="node5" class="node">
<title>Node5</title>
<g id="a_node5"><a xlink:title=" ">
<polygon fill="white" stroke="#666666" points="228,-184 135,-184 135,-154 228,-154 228,-184"/>
<text text-anchor="start" x="143" y="-172" font-family="Helvetica,sans-Serif" font-size="10.00">std::basic_string&lt;</text>
<text text-anchor="middle" x="181.5" y="-161" font-family="Helvetica,sans-Serif" font-size="10.00"> Char &gt;</text>
</a>
</g>
</g>
<!-- Node5&#45;&gt;Node4 -->
<g id="edge4" class="edge">
<title>Node5&#45;&gt;Node4</title>
<path fill="none" stroke="#63b8ff" d="M180.12,-142.06C179.37,-128.04 178.49,-111.63 177.97,-101.79"/>
<polygon fill="#63b8ff" stroke="#63b8ff" points="176.62,-142.23 180.65,-152.03 183.61,-141.86 176.62,-142.23"/>
</g>
<!-- Node6 -->
<g id="node6" class="node">
<title>Node6</title>
<g id="a_node6"><a xlink:href="structudmaio_1_1_uio_region.html" target="_top" xlink:title="General&#45;purpose struct to define a memory area.">
<polygon fill="white" stroke="#666666" points="323.5,-101.5 225.5,-101.5 225.5,-82.5 323.5,-82.5 323.5,-101.5"/>
<text text-anchor="middle" x="274.5" y="-89.5" font-family="Helvetica,sans-Serif" font-size="10.00">udmaio::UioRegion</text>
</a>
</g>
</g>
<!-- Node6&#45;&gt;Node1 -->
<g id="edge5" class="edge">
<title>Node6&#45;&gt;Node1</title>
<path fill="none" stroke="#9a32cd" stroke-dasharray="5,2" d="M267.93,-71.46C263.24,-60.09 255.91,-46.22 245.5,-37 236.58,-29.1 225.05,-23.43 214.02,-19.42"/>
<polygon fill="#9a32cd" stroke="#9a32cd" points="264.6,-72.53 271.36,-80.69 271.16,-70.1 264.6,-72.53"/>
<text text-anchor="middle" x="290.5" y="-45.5" font-family="Helvetica,sans-Serif" font-size="10.00"> xdma_region</text>
</g>
</g>
</svg>
