<?xml version="1.0" encoding="UTF-8" standalone="no"?>
<!DOCTYPE svg PUBLIC "-//W3C//DTD SVG 1.1//EN"
 "http://www.w3.org/Graphics/SVG/1.1/DTD/svg11.dtd">
<!-- Generated by graphviz version 7.0.5 (20221223.1930)
 -->
<!-- Title: Graphical Class Hierarchy Pages: 1 -->
<svg width="682pt" height="236pt"
 viewBox="0.00 0.00 682.00 235.50" xmlns="http://www.w3.org/2000/svg" xmlns:xlink="http://www.w3.org/1999/xlink">
<g id="graph0" class="graph" transform="scale(1 1) rotate(0) translate(4 231.5)">
<title>Graphical Class Hierarchy</title>
<!-- Node0 -->
<g id="node1" class="node">
<title>Node0</title>
<g id="a_node1"><a xlink:href="structaxi__dma_1_1block__template.html" target="_top" xlink:title="Template class for the axi_dma block, containing accessors for all its registers.">
<polygon fill="white" stroke="#666666" points="467.5,-227.5 328.5,-227.5 328.5,-197.5 467.5,-197.5 467.5,-227.5"/>
<text text-anchor="start" x="336.5" y="-215.5" font-family="Helvetica,sans-Serif" font-size="10.00">axi_dma::block_template</text>
<text text-anchor="middle" x="398" y="-204.5" font-family="Helvetica,sans-Serif" font-size="10.00">&lt; R_array_acc, R_acc_arg &gt;</text>
</a>
</g>
</g>
<!-- Node1 -->
<g id="node2" class="node">
<title>Node1</title>
<g id="a_node2"><a xlink:href="classudmaio_1_1_uio_axi_dma_if.html" target="_top" xlink:title="Interface to AXI DMA Core.">
<polygon fill="white" stroke="#666666" points="649.5,-216 542.5,-216 542.5,-197 649.5,-197 649.5,-216"/>
<text text-anchor="middle" x="596" y="-204" font-family="Helvetica,sans-Serif" font-size="10.00">udmaio::UioAxiDmaIf</text>
</a>
</g>
</g>
<!-- Node0&#45;&gt;Node1 -->
<g id="edge1" class="edge">
<title>Node0&#45;&gt;Node1</title>
<path fill="none" stroke="#8b1a1a" d="M479.13,-210.05C500.34,-209.4 522.71,-208.71 542.08,-208.12"/>
<polygon fill="#8b1a1a" stroke="#8b1a1a" points="479.23,-206.54 469.34,-210.35 479.44,-213.54 479.23,-206.54"/>
</g>
<!-- Node7 -->
<g id="node3" class="node">
<title>Node7</title>
<g id="a_node3"><a xlink:title=" ">
<polygon fill="#e0e0e0" stroke="#999999" points="99,-93 0,-93 0,-74 99,-74 99,-93"/>
<text text-anchor="middle" x="49.5" y="-81" font-family="Helvetica,sans-Serif" font-size="10.00">boost::noncopyable</text>
</a>
</g>
</g>
<!-- Node8 -->
<g id="node4" class="node">
<title>Node8</title>
<g id="a_node4"><a xlink:href="classudmaio_1_1_data_handler_abstract.html" target="_top" xlink:title="Base class to implement a DMA data reception handler.">
<polygon fill="white" stroke="#666666" points="278,-38 135,-38 135,-19 278,-19 278,-38"/>
<text text-anchor="middle" x="206.5" y="-26" font-family="Helvetica,sans-Serif" font-size="10.00">udmaio::DataHandlerAbstract</text>
</a>
</g>
</g>
<!-- Node7&#45;&gt;Node8 -->
<g id="edge2" class="edge">
<title>Node7&#45;&gt;Node8</title>
<path fill="none" stroke="#8b1a1a" d="M89.34,-69.72C116.72,-60 152.75,-47.22 177.38,-38.48"/>
<polygon fill="#8b1a1a" stroke="#8b1a1a" points="88.25,-66.39 80,-73.03 90.59,-72.99 88.25,-66.39"/>
</g>
<!-- Node4 -->
<g id="node6" class="node">
<title>Node4</title>
<g id="a_node6"><a xlink:href="classudmaio_1_1_dma_buffer_abstract.html" target="_top" xlink:title="Base class for DMA data buffer.">
<polygon fill="white" stroke="#666666" points="274,-93 139,-93 139,-74 274,-74 274,-93"/>
<text text-anchor="middle" x="206.5" y="-81" font-family="Helvetica,sans-Serif" font-size="10.00">udmaio::DmaBufferAbstract</text>
</a>
</g>
</g>
<!-- Node7&#45;&gt;Node4 -->
<g id="edge4" class="edge">
<title>Node7&#45;&gt;Node4</title>
<path fill="none" stroke="#8b1a1a" d="M110.54,-83.5C119.73,-83.5 129.27,-83.5 138.6,-83.5"/>
<polygon fill="#8b1a1a" stroke="#8b1a1a" points="110.63,-80 100.63,-83.5 110.63,-87 110.63,-80"/>
</g>
<!-- Node10 -->
<g id="node10" class="node">
<title>Node10</title>
<g id="a_node10"><a xlink:href="classudmaio_1_1_uio_if_base.html" target="_top" xlink:title="Base class for UIO interfaces.">
<polygon fill="white" stroke="#666666" points="254.5,-152 158.5,-152 158.5,-133 254.5,-133 254.5,-152"/>
<text text-anchor="middle" x="206.5" y="-140" font-family="Helvetica,sans-Serif" font-size="10.00">udmaio::UioIfBase</text>
</a>
</g>
</g>
<!-- Node7&#45;&gt;Node10 -->
<g id="edge8" class="edge">
<title>Node7&#45;&gt;Node10</title>
<path fill="none" stroke="#8b1a1a" d="M87.15,-97.45C115.55,-108.26 154.18,-122.97 179.47,-132.59"/>
<polygon fill="#8b1a1a" stroke="#8b1a1a" points="88.45,-94.2 77.86,-93.91 85.96,-100.74 88.45,-94.2"/>
</g>
<!-- Node9 -->
<g id="node5" class="node">
<title>Node9</title>
<g id="a_node5"><a xlink:href="classudmaio_1_1_data_handler_sync.html" target="_top" xlink:title="Synchronous data handler with blocking read interface.">
<polygon fill="white" stroke="#666666" points="462,-19 334,-19 334,0 462,0 462,-19"/>
<text text-anchor="middle" x="398" y="-7" font-family="Helvetica,sans-Serif" font-size="10.00">udmaio::DataHandlerSync</text>
</a>
</g>
</g>
<!-- Node8&#45;&gt;Node9 -->
<g id="edge3" class="edge">
<title>Node8&#45;&gt;Node9</title>
<path fill="none" stroke="#63b8ff" d="M289.55,-20.27C304.35,-18.79 319.57,-17.26 333.74,-15.84"/>
<polygon fill="#63b8ff" stroke="#63b8ff" points="289.44,-16.77 279.84,-21.25 290.14,-23.73 289.44,-16.77"/>
</g>
<!-- Node3 -->
<g id="node7" class="node">
<title>Node3</title>
<g id="a_node7"><a xlink:href="classudmaio_1_1_fpga_mem_buffer_over_axi.html" target="_top" xlink:title="DMA data buffer accessed over AXI/UIO, described w/ explicit address &amp; size.">
<polygon fill="white" stroke="#666666" points="674,-134 518,-134 518,-115 674,-115 674,-134"/>
<text text-anchor="middle" x="596" y="-122" font-family="Helvetica,sans-Serif" font-size="10.00">udmaio::FpgaMemBufferOverAxi</text>
</a>
</g>
</g>
<!-- Node4&#45;&gt;Node3 -->
<g id="edge5" class="edge">
<title>Node4&#45;&gt;Node3</title>
<path fill="none" stroke="#63b8ff" d="M268.56,-95.46C283.39,-98.07 299.23,-100.61 314,-102.5 382.56,-111.28 461.01,-117.07 517.56,-120.49"/>
<polygon fill="#63b8ff" stroke="#63b8ff" points="269.41,-92.05 258.95,-93.73 268.17,-98.94 269.41,-92.05"/>
</g>
<!-- Node5 -->
<g id="node8" class="node">
<title>Node5</title>
<g id="a_node8"><a xlink:href="classudmaio_1_1_fpga_mem_buffer_over_xdma.html" target="_top" xlink:title="DMA data buffer accessed over XDMA using the xdma c2h0 stream channel.">
<polygon fill="white" stroke="#666666" points="482,-93 314,-93 314,-74 482,-74 482,-93"/>
<text text-anchor="middle" x="398" y="-81" font-family="Helvetica,sans-Serif" font-size="10.00">udmaio::FpgaMemBufferOverXdma</text>
</a>
</g>
</g>
<!-- Node4&#45;&gt;Node5 -->
<g id="edge6" class="edge">
<title>Node4&#45;&gt;Node5</title>
<path fill="none" stroke="#63b8ff" d="M285.77,-83.5C294.93,-83.5 304.3,-83.5 313.53,-83.5"/>
<polygon fill="#63b8ff" stroke="#63b8ff" points="285.82,-80 275.82,-83.5 285.82,-87 285.82,-80"/>
</g>
<!-- Node6 -->
<g id="node9" class="node">
<title>Node6</title>
<g id="a_node9"><a xlink:href="classudmaio_1_1_u_dma_buf.html" target="_top" xlink:title="DMA data buffer accessed over AXI/UIO, implemented w/ udmabuf (see https://github....">
<polygon fill="white" stroke="#666666" points="445.5,-56 350.5,-56 350.5,-37 445.5,-37 445.5,-56"/>
<text text-anchor="middle" x="398" y="-44" font-family="Helvetica,sans-Serif" font-size="10.00">udmaio::UDmaBuf</text>
</a>
</g>
</g>
<!-- Node4&#45;&gt;Node6 -->
<g id="edge7" class="edge">
<title>Node4&#45;&gt;Node6</title>
<path fill="none" stroke="#63b8ff" d="M269.31,-71.43C295.65,-66.29 325.87,-60.39 350.3,-55.62"/>
<polygon fill="#63b8ff" stroke="#63b8ff" points="268.91,-67.94 259.77,-73.29 270.25,-74.81 268.91,-67.94"/>
</g>
<!-- Node2 -->
<g id="node11" class="node">
<title>Node2</title>
<g id="a_node11"><a xlink:href="classudmaio_1_1_uio_if.html" target="_top" xlink:title="UIO Interface implementing bus access.">
<polygon fill="white" stroke="#666666" points="447,-179.5 349,-179.5 349,-149.5 447,-149.5 447,-179.5"/>
<text text-anchor="start" x="357" y="-167.5" font-family="Helvetica,sans-Serif" font-size="10.00">udmaio::UioIf&lt; bus</text>
<text text-anchor="middle" x="398" y="-156.5" font-family="Helvetica,sans-Serif" font-size="10.00">_type_t &gt;</text>
</a>
</g>
</g>
<!-- Node10&#45;&gt;Node2 -->
<g id="edge9" class="edge">
<title>Node10&#45;&gt;Node2</title>
<path fill="none" stroke="#63b8ff" d="M266.25,-149.32C292.7,-152.39 323.54,-155.97 348.63,-158.88"/>
<polygon fill="#63b8ff" stroke="#63b8ff" points="266.67,-145.85 256.33,-148.17 265.86,-152.8 266.67,-145.85"/>
</g>
<!-- Node2&#45;&gt;Node1 -->
<g id="edge11" class="edge">
<title>Node2&#45;&gt;Node1</title>
<path fill="none" stroke="#63b8ff" d="M458.63,-177.28C487.47,-183.46 521.57,-190.76 548.46,-196.53"/>
<polygon fill="#63b8ff" stroke="#63b8ff" points="459.44,-173.87 448.93,-175.2 457.97,-180.72 459.44,-173.87"/>
</g>
<!-- Node2&#45;&gt;Node3 -->
<g id="edge10" class="edge">
<title>Node2&#45;&gt;Node3</title>
<path fill="none" stroke="#63b8ff" d="M458.7,-152.32C486.69,-146.61 519.61,-139.89 546.09,-134.48"/>
<polygon fill="#63b8ff" stroke="#63b8ff" points="458.03,-148.88 448.93,-154.31 459.43,-155.74 458.03,-148.88"/>
</g>
<!-- Node11 -->
<g id="node12" class="node">
<title>Node11</title>
<g id="a_node12"><a xlink:href="classudmaio_1_1_uio_mem_sgdma.html" target="_top" xlink:title="Interface to AXI DMA scatter&#45;gather buffers &amp; descriptors Uses a UioIf to access DMA descriptor memor...">
<polygon fill="white" stroke="#666666" points="656,-174 536,-174 536,-155 656,-155 656,-174"/>
<text text-anchor="middle" x="596" y="-162" font-family="Helvetica,sans-Serif" font-size="10.00">udmaio::UioMemSgdma</text>
</a>
</g>
</g>
<!-- Node2&#45;&gt;Node11 -->
<g id="edge12" class="edge">
<title>Node2&#45;&gt;Node11</title>
<path fill="none" stroke="#63b8ff" d="M458.72,-164.5C483.09,-164.5 511.21,-164.5 535.56,-164.5"/>
<polygon fill="#63b8ff" stroke="#63b8ff" points="458.96,-161 448.96,-164.5 458.96,-168 458.96,-161"/>
</g>
</g>
</svg>
