<?xml version="1.0" encoding="UTF-8" standalone="no"?>
<!DOCTYPE svg PUBLIC "-//W3C//DTD SVG 1.1//EN"
 "http://www.w3.org/Graphics/SVG/1.1/DTD/svg11.dtd">
<!-- Generated by graphviz version 7.0.5 (20221223.1930)
 -->
<!-- Title: Graphical Class Hierarchy Pages: 1 -->
<svg width="660pt" height="400pt"
 viewBox="0.00 0.00 660.00 400.00" xmlns="http://www.w3.org/2000/svg" xmlns:xlink="http://www.w3.org/1999/xlink">
<g id="graph0" class="graph" transform="scale(1 1) rotate(0) translate(4 396)">
<title>Graphical Class Hierarchy</title>
<!-- Node0 -->
<g id="node1" class="node">
<title>Node0</title>
<g id="a_node1"><a xlink:href="structaxi__dma_1_1block__template.html" target="_top" xlink:title="Template class for the axi_dma block, containing accessors for all its registers.">
<polygon fill="white" stroke="#666666" points="276,-392 137,-392 137,-362 276,-362 276,-392"/>
<text text-anchor="start" x="145" y="-380" font-family="Helvetica,sans-Serif" font-size="10.00">axi_dma::block_template</text>
<text text-anchor="middle" x="206.5" y="-369" font-family="Helvetica,sans-Serif" font-size="10.00">&lt; R_array_acc, R_acc_arg &gt;</text>
</a>
</g>
</g>
<!-- Node1 -->
<g id="node2" class="node">
<title>Node1</title>
<g id="a_node2"><a xlink:href="classudmaio_1_1_uio_axi_dma_if.html" target="_top" xlink:title="Interface to AXI DMA Core.">
<polygon fill="white" stroke="#666666" points="451.5,-381.5 344.5,-381.5 344.5,-362.5 451.5,-362.5 451.5,-381.5"/>
<text text-anchor="middle" x="398" y="-369.5" font-family="Helvetica,sans-Serif" font-size="10.00">udmaio::UioAxiDmaIf</text>
</a>
</g>
</g>
<!-- Node0&#45;&gt;Node1 -->
<g id="edge1" class="edge">
<title>Node0&#45;&gt;Node1</title>
<path fill="none" stroke="#8b1a1a" d="M287.85,-374.88C306.88,-374.38 326.7,-373.85 344.15,-373.39"/>
<polygon fill="#8b1a1a" stroke="#8b1a1a" points="287.87,-371.38 277.96,-375.14 288.05,-378.38 287.87,-371.38"/>
</g>
<!-- Node19 -->
<g id="node3" class="node">
<title>Node19</title>
<g id="a_node3"><a xlink:href="structaxi__vdma_1_1block__template.html" target="_top" xlink:title="Template class for the axi_vdma block, containing accessors for all its registers.">
<polygon fill="white" stroke="#666666" points="276,-344 137,-344 137,-314 276,-314 276,-344"/>
<text text-anchor="start" x="145" y="-332" font-family="Helvetica,sans-Serif" font-size="10.00">axi_vdma::block_template</text>
<text text-anchor="middle" x="206.5" y="-321" font-family="Helvetica,sans-Serif" font-size="10.00">&lt; R_array_acc, R_acc_arg &gt;</text>
</a>
</g>
</g>
<!-- Node18 -->
<g id="node4" class="node">
<title>Node18</title>
<g id="a_node4"><a xlink:href="classudmaio_1_1_uio_axi_vdma_if.html" target="_top" xlink:title="Interface to AXI VDMA Core.">
<polygon fill="white" stroke="#666666" points="454.5,-338.5 341.5,-338.5 341.5,-319.5 454.5,-319.5 454.5,-338.5"/>
<text text-anchor="middle" x="398" y="-326.5" font-family="Helvetica,sans-Serif" font-size="10.00">udmaio::UioAxiVdmaIf</text>
</a>
</g>
</g>
<!-- Node19&#45;&gt;Node18 -->
<g id="edge2" class="edge">
<title>Node19&#45;&gt;Node18</title>
<path fill="none" stroke="#8b1a1a" d="M287.82,-329C305.77,-329 324.43,-329 341.14,-329"/>
<polygon fill="#8b1a1a" stroke="#8b1a1a" points="287.96,-325.5 277.96,-329 287.96,-332.5 287.96,-325.5"/>
</g>
<!-- Node7 -->
<g id="node5" class="node">
<title>Node7</title>
<g id="a_node5"><a xlink:href="structudmaio_1_1_logger.html" target="_top" xlink:title=" ">
<polygon fill="white" stroke="#666666" points="91,-131.5 8,-131.5 8,-112.5 91,-112.5 91,-131.5"/>
<text text-anchor="middle" x="49.5" y="-119.5" font-family="Helvetica,sans-Serif" font-size="10.00">udmaio::Logger</text>
</a>
</g>
</g>
<!-- Node8 -->
<g id="node6" class="node">
<title>Node8</title>
<g id="a_node6"><a xlink:href="classudmaio_1_1_data_handler_abstract.html" target="_top" xlink:title="Base class to implement a DMA data reception handler.">
<polygon fill="white" stroke="#666666" points="278,-190.5 135,-190.5 135,-171.5 278,-171.5 278,-190.5"/>
<text text-anchor="middle" x="206.5" y="-178.5" font-family="Helvetica,sans-Serif" font-size="10.00">udmaio::DataHandlerAbstract</text>
</a>
</g>
</g>
<!-- Node7&#45;&gt;Node8 -->
<g id="edge3" class="edge">
<title>Node7&#45;&gt;Node8</title>
<path fill="none" stroke="#63b8ff" d="M84.97,-136.25C100.24,-142.46 118.46,-149.74 135,-156 148.6,-161.15 163.8,-166.57 176.59,-171.05"/>
<polygon fill="#63b8ff" stroke="#63b8ff" points="86.42,-133.06 75.84,-132.51 83.77,-139.54 86.42,-133.06"/>
</g>
<!-- Node17 -->
<g id="node8" class="node">
<title>Node17</title>
<g id="a_node8"><a xlink:href="classudmaio_1_1_frame_format.html" target="_top" xlink:title=" ">
<polygon fill="white" stroke="#666666" points="262,-74.5 151,-74.5 151,-55.5 262,-55.5 262,-74.5"/>
<text text-anchor="middle" x="206.5" y="-62.5" font-family="Helvetica,sans-Serif" font-size="10.00">udmaio::FrameFormat</text>
</a>
</g>
</g>
<!-- Node7&#45;&gt;Node17 -->
<g id="edge5" class="edge">
<title>Node7&#45;&gt;Node17</title>
<path fill="none" stroke="#63b8ff" d="M80.58,-107.07C96.5,-99.52 116.54,-90.59 135,-84 144.31,-80.68 154.49,-77.61 164.15,-74.96"/>
<polygon fill="#63b8ff" stroke="#63b8ff" points="79.13,-103.88 71.64,-111.37 82.17,-110.18 79.13,-103.88"/>
</g>
<!-- Node11 -->
<g id="node9" class="node">
<title>Node11</title>
<g id="a_node9"><a xlink:href="classudmaio_1_1_hw_accessor.html" target="_top" xlink:title="Base class for hardware access.">
<polygon fill="white" stroke="#666666" points="261,-111.5 152,-111.5 152,-92.5 261,-92.5 261,-111.5"/>
<text text-anchor="middle" x="206.5" y="-99.5" font-family="Helvetica,sans-Serif" font-size="10.00">udmaio::HwAccessor</text>
</a>
</g>
</g>
<!-- Node7&#45;&gt;Node11 -->
<g id="edge6" class="edge">
<title>Node7&#45;&gt;Node11</title>
<path fill="none" stroke="#63b8ff" d="M102.42,-115.3C118.25,-113.26 135.68,-111.01 151.64,-108.95"/>
<polygon fill="#63b8ff" stroke="#63b8ff" points="102.2,-111.8 92.73,-116.55 103.09,-118.74 102.2,-111.8"/>
</g>
<!-- Node6 -->
<g id="node15" class="node">
<title>Node6</title>
<g id="a_node15"><a xlink:href="classudmaio_1_1_u_dma_buf.html" target="_top" xlink:title="DMA data buffer accessed over AXI/UIO, implemented w/ udmabuf (see https://github....">
<polygon fill="white" stroke="#666666" points="445.5,-153.5 350.5,-153.5 350.5,-134.5 445.5,-134.5 445.5,-153.5"/>
<text text-anchor="middle" x="398" y="-141.5" font-family="Helvetica,sans-Serif" font-size="10.00">udmaio::UDmaBuf</text>
</a>
</g>
</g>
<!-- Node7&#45;&gt;Node6 -->
<g id="edge12" class="edge">
<title>Node7&#45;&gt;Node6</title>
<path fill="none" stroke="#63b8ff" d="M102.41,-125.3C169.52,-129.56 285.44,-136.92 350.04,-141.02"/>
<polygon fill="#63b8ff" stroke="#63b8ff" points="102.98,-121.83 92.78,-124.68 102.54,-128.81 102.98,-121.83"/>
</g>
<!-- Node9 -->
<g id="node7" class="node">
<title>Node9</title>
<g id="a_node7"><a xlink:href="classudmaio_1_1_data_handler_sync.html" target="_top" xlink:title="Synchronous data handler with blocking read interface.">
<polygon fill="white" stroke="#666666" points="462,-190.5 334,-190.5 334,-171.5 462,-171.5 462,-190.5"/>
<text text-anchor="middle" x="398" y="-178.5" font-family="Helvetica,sans-Serif" font-size="10.00">udmaio::DataHandlerSync</text>
</a>
</g>
</g>
<!-- Node8&#45;&gt;Node9 -->
<g id="edge4" class="edge">
<title>Node8&#45;&gt;Node9</title>
<path fill="none" stroke="#63b8ff" d="M289.55,-181C304.35,-181 319.57,-181 333.74,-181"/>
<polygon fill="#63b8ff" stroke="#63b8ff" points="289.85,-177.5 279.85,-181 289.85,-184.5 289.85,-177.5"/>
</g>
<!-- Node12 -->
<g id="node10" class="node">
<title>Node12</title>
<g id="a_node10"><a xlink:href="classudmaio_1_1_hw_accessor_mmap.html" target="_top" xlink:title=" ">
<polygon fill="white" stroke="#666666" points="466,-30 330,-30 330,0 466,0 466,-30"/>
<text text-anchor="start" x="338" y="-18" font-family="Helvetica,sans-Serif" font-size="10.00">udmaio::HwAccessorMmap</text>
<text text-anchor="middle" x="398" y="-7" font-family="Helvetica,sans-Serif" font-size="10.00">&lt; uint64_t &gt;</text>
</a>
</g>
</g>
<!-- Node11&#45;&gt;Node12 -->
<g id="edge7" class="edge">
<title>Node11&#45;&gt;Node12</title>
<path fill="none" stroke="#63b8ff" d="M271.79,-87.58C273.93,-86.48 276.01,-85.28 278,-84 299.52,-70.11 292.7,-53.22 314,-39 318.87,-35.75 324.17,-32.94 329.68,-30.5"/>
<polygon fill="#63b8ff" stroke="#63b8ff" points="270.52,-84.32 262.79,-91.56 273.35,-90.72 270.52,-84.32"/>
</g>
<!-- Node14 -->
<g id="node12" class="node">
<title>Node14</title>
<g id="a_node12"><a xlink:href="classudmaio_1_1_hw_accessor_mmap.html" target="_top" xlink:title=" ">
<polygon fill="white" stroke="#666666" points="466,-116 330,-116 330,-86 466,-86 466,-116"/>
<text text-anchor="start" x="338" y="-104" font-family="Helvetica,sans-Serif" font-size="10.00">udmaio::HwAccessorMmap</text>
<text text-anchor="middle" x="398" y="-93" font-family="Helvetica,sans-Serif" font-size="10.00">&lt; max_access_width_t &gt;</text>
</a>
</g>
</g>
<!-- Node11&#45;&gt;Node14 -->
<g id="edge9" class="edge">
<title>Node11&#45;&gt;Node14</title>
<path fill="none" stroke="#63b8ff" d="M272.77,-101.66C291.11,-101.56 311.09,-101.45 329.55,-101.36"/>
<polygon fill="#63b8ff" stroke="#63b8ff" points="272.79,-98.16 262.81,-101.71 272.83,-105.16 272.79,-98.16"/>
</g>
<!-- Node16 -->
<g id="node14" class="node">
<title>Node16</title>
<g id="a_node14"><a xlink:href="classudmaio_1_1_hw_accessor_mock.html" target="_top" xlink:title=" ">
<polygon fill="white" stroke="#666666" points="464.5,-67.5 331.5,-67.5 331.5,-48.5 464.5,-48.5 464.5,-67.5"/>
<text text-anchor="middle" x="398" y="-55.5" font-family="Helvetica,sans-Serif" font-size="10.00">udmaio::HwAccessorMock</text>
</a>
</g>
</g>
<!-- Node11&#45;&gt;Node16 -->
<g id="edge11" class="edge">
<title>Node11&#45;&gt;Node16</title>
<path fill="none" stroke="#63b8ff" d="M260.61,-89.47C277.66,-85.47 296.62,-81.03 314,-77 326.82,-74.03 340.75,-70.83 353.48,-67.91"/>
<polygon fill="#63b8ff" stroke="#63b8ff" points="260.13,-85.99 251.2,-91.68 261.74,-92.8 260.13,-85.99"/>
</g>
<!-- Node13 -->
<g id="node11" class="node">
<title>Node13</title>
<g id="a_node11"><a xlink:href="classudmaio_1_1_hw_accessor_axi.html" target="_top" xlink:title=" ">
<polygon fill="white" stroke="#666666" points="646,-24.5 524,-24.5 524,-5.5 646,-5.5 646,-24.5"/>
<text text-anchor="middle" x="585" y="-12.5" font-family="Helvetica,sans-Serif" font-size="10.00">udmaio::HwAccessorAxi</text>
</a>
</g>
</g>
<!-- Node12&#45;&gt;Node13 -->
<g id="edge8" class="edge">
<title>Node12&#45;&gt;Node13</title>
<path fill="none" stroke="#63b8ff" d="M477.48,-15C492.97,-15 509.01,-15 523.79,-15"/>
<polygon fill="#63b8ff" stroke="#63b8ff" points="477.83,-11.5 467.83,-15 477.83,-18.5 477.83,-11.5"/>
</g>
<!-- Node15 -->
<g id="node13" class="node">
<title>Node15</title>
<g id="a_node13"><a xlink:href="classudmaio_1_1_hw_accessor_xdma.html" target="_top" xlink:title=" ">
<polygon fill="white" stroke="#666666" points="652,-116 518,-116 518,-86 652,-86 652,-116"/>
<text text-anchor="start" x="526" y="-104" font-family="Helvetica,sans-Serif" font-size="10.00">udmaio::HwAccessorXdma</text>
<text text-anchor="middle" x="585" y="-93" font-family="Helvetica,sans-Serif" font-size="10.00">&lt; max_access_width_t &gt;</text>
</a>
</g>
</g>
<!-- Node14&#45;&gt;Node15 -->
<g id="edge10" class="edge">
<title>Node14&#45;&gt;Node15</title>
<path fill="none" stroke="#63b8ff" d="M477.44,-101C490.83,-101 504.63,-101 517.67,-101"/>
<polygon fill="#63b8ff" stroke="#63b8ff" points="477.83,-97.5 467.83,-101 477.83,-104.5 477.83,-97.5"/>
</g>
<!-- Node10 -->
<g id="node16" class="node">
<title>Node10</title>
<g id="a_node16"><a xlink:title=" ">
<polygon fill="#e0e0e0" stroke="#999999" points="99,-208.5 0,-208.5 0,-189.5 99,-189.5 99,-208.5"/>
<text text-anchor="middle" x="49.5" y="-196.5" font-family="Helvetica,sans-Serif" font-size="10.00">boost::noncopyable</text>
</a>
</g>
</g>
<!-- Node10&#45;&gt;Node8 -->
<g id="edge13" class="edge">
<title>Node10&#45;&gt;Node8</title>
<path fill="none" stroke="#8b1a1a" d="M110.48,-192.03C118.39,-191.12 126.56,-190.17 134.63,-189.23"/>
<polygon fill="#8b1a1a" stroke="#8b1a1a" points="110.15,-188.55 100.62,-193.18 110.96,-195.5 110.15,-188.55"/>
</g>
<!-- Node10&#45;&gt;Node11 -->
<g id="edge18" class="edge">
<title>Node10&#45;&gt;Node11</title>
<path fill="none" stroke="#8b1a1a" d="M75.84,-183.14C108.11,-162.95 162.91,-128.65 189.74,-111.86"/>
<polygon fill="#8b1a1a" stroke="#8b1a1a" points="74.12,-180.09 67.5,-188.36 77.83,-186.02 74.12,-180.09"/>
</g>
<!-- Node4 -->
<g id="node17" class="node">
<title>Node4</title>
<g id="a_node17"><a xlink:href="classudmaio_1_1_dma_buffer_abstract.html" target="_top" xlink:title="Base class for DMA data buffer.">
<polygon fill="white" stroke="#666666" points="274,-227.5 139,-227.5 139,-208.5 274,-208.5 274,-227.5"/>
<text text-anchor="middle" x="206.5" y="-215.5" font-family="Helvetica,sans-Serif" font-size="10.00">udmaio::DmaBufferAbstract</text>
</a>
</g>
</g>
<!-- Node10&#45;&gt;Node4 -->
<g id="edge14" class="edge">
<title>Node10&#45;&gt;Node4</title>
<path fill="none" stroke="#8b1a1a" d="M110.54,-206.36C119.73,-207.49 129.27,-208.66 138.6,-209.8"/>
<polygon fill="#8b1a1a" stroke="#8b1a1a" points="110.97,-202.89 100.62,-205.14 110.12,-209.83 110.97,-202.89"/>
</g>
<!-- Node2 -->
<g id="node20" class="node">
<title>Node2</title>
<g id="a_node20"><a xlink:href="classudmaio_1_1_uio_if.html" target="_top" xlink:title="Base class for UIO interfaces.">
<polygon fill="white" stroke="#666666" points="243.5,-295.5 169.5,-295.5 169.5,-276.5 243.5,-276.5 243.5,-295.5"/>
<text text-anchor="middle" x="206.5" y="-283.5" font-family="Helvetica,sans-Serif" font-size="10.00">udmaio::UioIf</text>
</a>
</g>
</g>
<!-- Node10&#45;&gt;Node2 -->
<g id="edge19" class="edge">
<title>Node10&#45;&gt;Node2</title>
<path fill="none" stroke="#8b1a1a" d="M78.26,-214.58C110.05,-232.43 161.19,-261.13 187.93,-276.14"/>
<polygon fill="#8b1a1a" stroke="#8b1a1a" points="80.03,-211.56 69.6,-209.72 76.61,-217.67 80.03,-211.56"/>
</g>
<!-- Node4&#45;&gt;Node6 -->
<g id="edge17" class="edge">
<title>Node4&#45;&gt;Node6</title>
<path fill="none" stroke="#63b8ff" d="M270.67,-203.79C273.19,-202.62 275.65,-201.36 278,-200 297.86,-188.51 294,-174.24 314,-163 324.95,-156.84 337.78,-152.68 350.04,-149.87"/>
<polygon fill="#63b8ff" stroke="#63b8ff" points="269.38,-200.53 261.4,-207.5 271.98,-207.03 269.38,-200.53"/>
</g>
<!-- Node3 -->
<g id="node18" class="node">
<title>Node3</title>
<g id="a_node18"><a xlink:href="classudmaio_1_1_fpga_mem_buffer_over_axi.html" target="_top" xlink:title="DMA data buffer accessed over AXI/UIO, described w/ explicit address &amp; size.">
<polygon fill="white" stroke="#666666" points="476,-264.5 320,-264.5 320,-245.5 476,-245.5 476,-264.5"/>
<text text-anchor="middle" x="398" y="-252.5" font-family="Helvetica,sans-Serif" font-size="10.00">udmaio::FpgaMemBufferOverAxi</text>
</a>
</g>
</g>
<!-- Node4&#45;&gt;Node3 -->
<g id="edge15" class="edge">
<title>Node4&#45;&gt;Node3</title>
<path fill="none" stroke="#63b8ff" d="M269.42,-230.09C294.23,-234.93 322.48,-240.45 346.08,-245.06"/>
<polygon fill="#63b8ff" stroke="#63b8ff" points="270.25,-226.69 259.77,-228.21 268.91,-233.56 270.25,-226.69"/>
</g>
<!-- Node5 -->
<g id="node19" class="node">
<title>Node5</title>
<g id="a_node19"><a xlink:href="classudmaio_1_1_fpga_mem_buffer_over_xdma.html" target="_top" xlink:title="DMA data buffer accessed over XDMA using the xdma c2h0 stream channel.">
<polygon fill="white" stroke="#666666" points="482,-227.5 314,-227.5 314,-208.5 482,-208.5 482,-227.5"/>
<text text-anchor="middle" x="398" y="-215.5" font-family="Helvetica,sans-Serif" font-size="10.00">udmaio::FpgaMemBufferOverXdma</text>
</a>
</g>
</g>
<!-- Node4&#45;&gt;Node5 -->
<g id="edge16" class="edge">
<title>Node4&#45;&gt;Node5</title>
<path fill="none" stroke="#63b8ff" d="M285.77,-218C294.93,-218 304.3,-218 313.53,-218"/>
<polygon fill="#63b8ff" stroke="#63b8ff" points="285.82,-214.5 275.82,-218 285.82,-221.5 285.82,-214.5"/>
</g>
<!-- Node2&#45;&gt;Node1 -->
<g id="edge21" class="edge">
<title>Node2&#45;&gt;Node1</title>
<path fill="none" stroke="#63b8ff" d="M254.71,-294.42C262.85,-297.05 270.95,-300.5 278,-305 299,-318.42 293.12,-334.39 314,-348 323.3,-354.06 334.16,-358.62 344.9,-362.05"/>
<polygon fill="#63b8ff" stroke="#63b8ff" points="255.71,-291.06 245.13,-291.72 253.81,-297.8 255.71,-291.06"/>
</g>
<!-- Node2&#45;&gt;Node18 -->
<g id="edge22" class="edge">
<title>Node2&#45;&gt;Node18</title>
<path fill="none" stroke="#63b8ff" d="M254.99,-297.33C273.4,-301.68 294.67,-306.64 314,-311 325.79,-313.66 338.55,-316.47 350.44,-319.05"/>
<polygon fill="#63b8ff" stroke="#63b8ff" points="255.95,-293.96 245.41,-295.06 254.34,-300.77 255.95,-293.96"/>
</g>
<!-- Node2&#45;&gt;Node3 -->
<g id="edge20" class="edge">
<title>Node2&#45;&gt;Node3</title>
<path fill="none" stroke="#63b8ff" d="M254.8,-278.26C279.4,-274.24 309.74,-269.28 336.07,-264.97"/>
<polygon fill="#63b8ff" stroke="#63b8ff" points="254.39,-274.78 245.08,-279.85 255.52,-281.69 254.39,-274.78"/>
</g>
<!-- Node20 -->
<g id="node21" class="node">
<title>Node20</title>
<g id="a_node21"><a xlink:href="classudmaio_1_1_uio_mem_sgdma.html" target="_top" xlink:title="Interface to AXI DMA scatter&#45;gather buffers &amp; descriptors Uses a UioIf to access DMA descriptor memor...">
<polygon fill="white" stroke="#666666" points="458,-301.5 338,-301.5 338,-282.5 458,-282.5 458,-301.5"/>
<text text-anchor="middle" x="398" y="-289.5" font-family="Helvetica,sans-Serif" font-size="10.00">udmaio::UioMemSgdma</text>
</a>
</g>
</g>
<!-- Node2&#45;&gt;Node20 -->
<g id="edge23" class="edge">
<title>Node2&#45;&gt;Node20</title>
<path fill="none" stroke="#63b8ff" d="M254.99,-287.5C280.02,-288.3 310.96,-289.28 337.57,-290.12"/>
<polygon fill="#63b8ff" stroke="#63b8ff" points="255.21,-284.01 245.1,-287.19 254.99,-291.01 255.21,-284.01"/>
</g>
</g>
</svg>
