<?xml version="1.0" encoding="UTF-8" standalone="no"?>
<!DOCTYPE svg PUBLIC "-//W3C//DTD SVG 1.1//EN"
 "http://www.w3.org/Graphics/SVG/1.1/DTD/svg11.dtd">
<!-- Generated by graphviz version 7.0.5 (20221223.1930)
 -->
<!-- Title: udmaio::UioDeviceLocation Pages: 1 -->
<svg width="201pt" height="171pt"
 viewBox="0.00 0.00 200.50 171.00" xmlns="http://www.w3.org/2000/svg" xmlns:xlink="http://www.w3.org/1999/xlink">
<g id="graph0" class="graph" transform="scale(1 1) rotate(0) translate(4 167)">
<title>udmaio::UioDeviceLocation</title>
<!-- Node1 -->
<g id="node1" class="node">
<title>Node1</title>
<g id="a_node1"><a xlink:title="Holds information where a device can be found over both UIO and XDMA.">
<polygon fill="#999999" stroke="#666666" points="162,-19 27,-19 27,0 162,0 162,-19"/>
<text text-anchor="middle" x="94.5" y="-7" font-family="Helvetica,sans-Serif" font-size="10.00">udmaio::UioDeviceLocation</text>
</a>
</g>
</g>
<!-- Node2 -->
<g id="node2" class="node">
<title>Node2</title>
<g id="a_node2"><a xlink:title=" ">
<polygon fill="white" stroke="#666666" points="76,-96 17,-96 17,-77 76,-77 76,-96"/>
<text text-anchor="middle" x="46.5" y="-84" font-family="Helvetica,sans-Serif" font-size="10.00">std::string</text>
</a>
</g>
</g>
<!-- Node2&#45;&gt;Node1 -->
<g id="edge1" class="edge">
<title>Node2&#45;&gt;Node1</title>
<path fill="none" stroke="#9a32cd" stroke-dasharray="5,2" d="M47.82,-65.22C49.21,-55.99 51.98,-45.31 57.5,-37 62.31,-29.76 69.82,-23.85 76.81,-19.46"/>
<polygon fill="#9a32cd" stroke="#9a32cd" points="44.35,-64.72 46.82,-75.03 51.31,-65.43 44.35,-64.72"/>
<text text-anchor="middle" x="89.5" y="-51" font-family="Helvetica,sans-Serif" font-size="10.00"> uio_name</text>
<text text-anchor="middle" x="89.5" y="-40" font-family="Helvetica,sans-Serif" font-size="10.00">xdma_evt_dev</text>
</g>
<!-- Node3 -->
<g id="node3" class="node">
<title>Node3</title>
<g id="a_node3"><a xlink:title=" ">
<polygon fill="white" stroke="#666666" points="93,-163 0,-163 0,-133 93,-133 93,-163"/>
<text text-anchor="start" x="8" y="-151" font-family="Helvetica,sans-Serif" font-size="10.00">std::basic_string&lt;</text>
<text text-anchor="middle" x="46.5" y="-140" font-family="Helvetica,sans-Serif" font-size="10.00"> Char &gt;</text>
</a>
</g>
</g>
<!-- Node3&#45;&gt;Node2 -->
<g id="edge2" class="edge">
<title>Node3&#45;&gt;Node2</title>
<path fill="none" stroke="#63b8ff" d="M46.5,-121.13C46.5,-112.29 46.5,-102.99 46.5,-96.42"/>
<polygon fill="#63b8ff" stroke="#63b8ff" points="43,-121.08 46.5,-131.08 50,-121.08 43,-121.08"/>
</g>
<!-- Node4 -->
<g id="node4" class="node">
<title>Node4</title>
<g id="a_node4"><a xlink:href="structudmaio_1_1_uio_region.html" target="_top" xlink:title="General&#45;purpose struct to define a memory area.">
<polygon fill="white" stroke="#666666" points="192.5,-96 94.5,-96 94.5,-77 192.5,-77 192.5,-96"/>
<text text-anchor="middle" x="143.5" y="-84" font-family="Helvetica,sans-Serif" font-size="10.00">udmaio::UioRegion</text>
</a>
</g>
</g>
<!-- Node4&#45;&gt;Node1 -->
<g id="edge3" class="edge">
<title>Node4&#45;&gt;Node1</title>
<path fill="none" stroke="#9a32cd" stroke-dasharray="5,2" d="M136.68,-66.24C132.93,-56.97 127.76,-45.95 121.5,-37 116.91,-30.43 110.56,-24.11 105.17,-19.28"/>
<polygon fill="#9a32cd" stroke="#9a32cd" points="133.31,-67.22 140.11,-75.34 139.86,-64.75 133.31,-67.22"/>
<text text-anchor="middle" x="161.5" y="-45.5" font-family="Helvetica,sans-Serif" font-size="10.00"> xdma_region</text>
</g>
</g>
</svg>
