<?xml version="1.0" encoding="UTF-8" standalone="no"?>
<!DOCTYPE svg PUBLIC "-//W3C//DTD SVG 1.1//EN"
 "http://www.w3.org/Graphics/SVG/1.1/DTD/svg11.dtd">
<!-- Generated by graphviz version 7.0.5 (20221223.1930)
 -->
<!-- Title: udmaio::Logger Pages: 1 -->
<!--zoomable 161 -->
<svg id="main" version="1.1" xmlns="http://www.w3.org/2000/svg" xmlns:xlink="http://www.w3.org/1999/xlink" xml:space="preserve" onload="init(evt)">
<style type="text/css"><![CDATA[
.edge:hover path { stroke: red; }
.edge:hover polygon { stroke: red; fill: red; }
]]></style>
<script type="text/javascript"><![CDATA[
var edges = document.getElementsByTagName('g');
if (edges && edges.length) {
  for (var i=0;i<edges.length;i++) {
    if (edges[i].id.substr(0,4)=='edge') {
      edges[i].setAttribute('class','edge');
    }
  }
}
]]></script>
        <defs>
                <circle id="rim" cx="0" cy="0" r="7"/>
                <circle id="rim2" cx="0" cy="0" r="3.5"/>
                <g id="zoomPlus">
                        <use xlink:href="#rim" fill="#404040">
                                <set attributeName="fill" to="#808080" begin="zoomplus.mouseover" end="zoomplus.mouseout"/>
                        </use>
                        <path d="M-4,0h8M0,-4v8" fill="none" stroke="white" stroke-width="1.5" pointer-events="none"/>
                </g>
                <g id="zoomMin">
                        <use xlink:href="#rim" fill="#404040">
                                <set attributeName="fill" to="#808080" begin="zoomminus.mouseover" end="zoomminus.mouseout"/>
                        </use>
                        <path d="M-4,0h8" fill="none" stroke="white" stroke-width="1.5" pointer-events="none"/>
                </g>
                <g id="dirArrow">
                        <path fill="none" stroke="white" stroke-width="1.5" d="M0,-3.0v7 M-2.5,-0.5L0,-3.0L2.5,-0.5"/>
                </g>
               <g id="resetDef">
                       <use xlink:href="#rim2" fill="#404040">
                               <set attributeName="fill" to="#808080" begin="reset.mouseover" end="reset.mouseout"/>
                       </use>
               </g>
        </defs>

<script type="text/javascript">
var viewWidth = 612;
var viewHeight = 161;
var sectionId = 'dynsection-0';
</script>
<script xlink:href="svgpan.js"/>
<svg id="graph" class="graph">
<g id="viewport">
<title>udmaio::Logger</title>
<!-- Node1 -->
<g id="node1" class="node">
<title>Node1</title>
<g id="a_node1"><a xlink:title=" ">
<polygon fill="#999999" stroke="#666666" points="83,-84 0,-84 0,-65 83,-65 83,-84"/>
<text text-anchor="middle" x="41.5" y="-72" font-family="Helvetica,sans-Serif" font-size="10.00">udmaio::Logger</text>
</a>
</g>
</g>
<!-- Node2 -->
<g id="node2" class="node">
<title>Node2</title>
<g id="a_node2"><a xlink:href="classudmaio_1_1_data_handler_abstract.html" target="_top" xlink:title="Base class to implement a DMA data reception handler.">
<polygon fill="white" stroke="#666666" points="262,-148 119,-148 119,-129 262,-129 262,-148"/>
<text text-anchor="middle" x="190.5" y="-136" font-family="Helvetica,sans-Serif" font-size="10.00">udmaio::DataHandlerAbstract</text>
</a>
</g>
</g>
<!-- Node1&#45;&gt;Node2 -->
<g id="edge1" class="edge">
<title>Node1&#45;&gt;Node2</title>
<path fill="none" stroke="#63b8ff" d="M71.24,-89.69C85.44,-96.96 102.94,-105.57 119,-112.5 132.42,-118.29 147.59,-123.99 160.41,-128.57"/>
<polygon fill="#63b8ff" stroke="#63b8ff" points="72.93,-86.63 62.44,-85.14 69.71,-92.84 72.93,-86.63"/>
</g>
<!-- Node4 -->
<g id="node4" class="node">
<title>Node4</title>
<g id="a_node4"><a xlink:href="classudmaio_1_1_frame_format.html" target="_top" xlink:title=" ">
<polygon fill="white" stroke="#666666" points="246,-103 135,-103 135,-84 246,-84 246,-103"/>
<text text-anchor="middle" x="190.5" y="-91" font-family="Helvetica,sans-Serif" font-size="10.00">udmaio::FrameFormat</text>
</a>
</g>
</g>
<!-- Node1&#45;&gt;Node4 -->
<g id="edge3" class="edge">
<title>Node1&#45;&gt;Node4</title>
<path fill="none" stroke="#63b8ff" d="M94.59,-81.23C107.61,-82.92 121.61,-84.73 134.76,-86.42"/>
<polygon fill="#63b8ff" stroke="#63b8ff" points="95.31,-77.8 84.95,-79.99 94.42,-84.74 95.31,-77.8"/>
</g>
<!-- Node5 -->
<g id="node5" class="node">
<title>Node5</title>
<g id="a_node5"><a xlink:href="classudmaio_1_1_hw_accessor.html" target="_top" xlink:title="Base class for hardware access.">
<polygon fill="white" stroke="#666666" points="245,-66 136,-66 136,-47 245,-47 245,-66"/>
<text text-anchor="middle" x="190.5" y="-54" font-family="Helvetica,sans-Serif" font-size="10.00">udmaio::HwAccessor</text>
</a>
</g>
</g>
<!-- Node1&#45;&gt;Node5 -->
<g id="edge4" class="edge">
<title>Node1&#45;&gt;Node5</title>
<path fill="none" stroke="#63b8ff" d="M94.77,-68.1C108.01,-66.48 122.26,-64.73 135.57,-63.1"/>
<polygon fill="#63b8ff" stroke="#63b8ff" points="94.45,-64.61 84.95,-69.3 95.3,-71.56 94.45,-64.61"/>
</g>
<!-- Node11 -->
<g id="node11" class="node">
<title>Node11</title>
<g id="a_node11"><a xlink:href="classudmaio_1_1_u_dma_buf.html" target="_top" xlink:title="DMA data buffer accessed over AXI/UIO, implemented w/ udmabuf (see https://github....">
<polygon fill="white" stroke="#666666" points="238,-29 143,-29 143,-10 238,-10 238,-29"/>
<text text-anchor="middle" x="190.5" y="-17" font-family="Helvetica,sans-Serif" font-size="10.00">udmaio::UDmaBuf</text>
</a>
</g>
</g>
<!-- Node1&#45;&gt;Node11 -->
<g id="edge10" class="edge">
<title>Node1&#45;&gt;Node11</title>
<path fill="none" stroke="#63b8ff" d="M70.42,-59.33C84.66,-52.02 102.44,-43.55 119,-37.5 127.19,-34.51 136.08,-31.82 144.71,-29.49"/>
<polygon fill="#63b8ff" stroke="#63b8ff" points="68.87,-56.19 61.64,-63.93 72.12,-62.39 68.87,-56.19"/>
</g>
<!-- Node3 -->
<g id="node3" class="node">
<title>Node3</title>
<g id="a_node3"><a xlink:href="classudmaio_1_1_data_handler_sync.html" target="_top" xlink:title="Synchronous data handler with blocking read interface.">
<polygon fill="white" stroke="#666666" points="430,-153 302,-153 302,-134 430,-134 430,-153"/>
<text text-anchor="middle" x="366" y="-141" font-family="Helvetica,sans-Serif" font-size="10.00">udmaio::DataHandlerSync</text>
</a>
</g>
</g>
<!-- Node2&#45;&gt;Node3 -->
<g id="edge2" class="edge">
<title>Node2&#45;&gt;Node3</title>
<path fill="none" stroke="#63b8ff" d="M273.71,-140.87C283.1,-141.14 292.56,-141.41 301.65,-141.67"/>
<polygon fill="#63b8ff" stroke="#63b8ff" points="273.93,-137.37 263.83,-140.58 273.73,-144.37 273.93,-137.37"/>
</g>
<!-- Node6 -->
<g id="node6" class="node">
<title>Node6</title>
<g id="a_node6"><a xlink:href="classudmaio_1_1_hw_accessor_mmap.html" target="_top" xlink:title=" ">
<polygon fill="white" stroke="#666666" points="434,-115.5 298,-115.5 298,-85.5 434,-85.5 434,-115.5"/>
<text text-anchor="start" x="306" y="-103.5" font-family="Helvetica,sans-Serif" font-size="10.00">udmaio::HwAccessorMmap</text>
<text text-anchor="middle" x="366" y="-92.5" font-family="Helvetica,sans-Serif" font-size="10.00">&lt; uint64_t &gt;</text>
</a>
</g>
</g>
<!-- Node5&#45;&gt;Node6 -->
<g id="edge5" class="edge">
<title>Node5&#45;&gt;Node6</title>
<path fill="none" stroke="#63b8ff" d="M241.92,-69.29C261.33,-74.21 283.7,-79.88 304,-85.03"/>
<polygon fill="#63b8ff" stroke="#63b8ff" points="242.89,-65.92 232.34,-66.86 241.17,-72.71 242.89,-65.92"/>
</g>
<!-- Node8 -->
<g id="node8" class="node">
<title>Node8</title>
<g id="a_node8"><a xlink:href="classudmaio_1_1_hw_accessor_mmap.html" target="_top" xlink:title=" ">
<polygon fill="white" stroke="#666666" points="434,-67.5 298,-67.5 298,-37.5 434,-37.5 434,-67.5"/>
<text text-anchor="start" x="306" y="-55.5" font-family="Helvetica,sans-Serif" font-size="10.00">udmaio::HwAccessorMmap</text>
<text text-anchor="middle" x="366" y="-44.5" font-family="Helvetica,sans-Serif" font-size="10.00">&lt; max_access_width_t &gt;</text>
</a>
</g>
</g>
<!-- Node5&#45;&gt;Node8 -->
<g id="edge7" class="edge">
<title>Node5&#45;&gt;Node8</title>
<path fill="none" stroke="#63b8ff" d="M256.92,-54.99C270.23,-54.68 284.25,-54.36 297.62,-54.05"/>
<polygon fill="#63b8ff" stroke="#63b8ff" points="256.88,-51.49 246.96,-55.22 257.04,-58.49 256.88,-51.49"/>
</g>
<!-- Node10 -->
<g id="node10" class="node">
<title>Node10</title>
<g id="a_node10"><a xlink:href="classudmaio_1_1_hw_accessor_mock.html" target="_top" xlink:title=" ">
<polygon fill="white" stroke="#666666" points="432.5,-19 299.5,-19 299.5,0 432.5,0 432.5,-19"/>
<text text-anchor="middle" x="366" y="-7" font-family="Helvetica,sans-Serif" font-size="10.00">udmaio::HwAccessorMock</text>
</a>
</g>
</g>
<!-- Node5&#45;&gt;Node10 -->
<g id="edge9" class="edge">
<title>Node5&#45;&gt;Node10</title>
<path fill="none" stroke="#63b8ff" d="M239.36,-43.62C246.94,-41.57 254.68,-39.48 262,-37.5 284,-31.54 308.64,-24.85 328.3,-19.5"/>
<polygon fill="#63b8ff" stroke="#63b8ff" points="238.66,-40.18 229.92,-46.16 240.49,-46.94 238.66,-40.18"/>
</g>
<!-- Node7 -->
<g id="node7" class="node">
<title>Node7</title>
<g id="a_node7"><a xlink:href="classudmaio_1_1_hw_accessor_axi.html" target="_top" xlink:title=" ">
<polygon fill="white" stroke="#666666" points="598,-110 476,-110 476,-91 598,-91 598,-110"/>
<text text-anchor="middle" x="537" y="-98" font-family="Helvetica,sans-Serif" font-size="10.00">udmaio::HwAccessorAxi</text>
</a>
</g>
</g>
<!-- Node6&#45;&gt;Node7 -->
<g id="edge6" class="edge">
<title>Node6&#45;&gt;Node7</title>
<path fill="none" stroke="#63b8ff" d="M445.56,-100.5C455.63,-100.5 465.81,-100.5 475.52,-100.5"/>
<polygon fill="#63b8ff" stroke="#63b8ff" points="445.79,-97 435.79,-100.5 445.79,-104 445.79,-97"/>
</g>
<!-- Node9 -->
<g id="node9" class="node">
<title>Node9</title>
<g id="a_node9"><a xlink:href="classudmaio_1_1_hw_accessor_xdma.html" target="_top" xlink:title=" ">
<polygon fill="white" stroke="#666666" points="604,-67.5 470,-67.5 470,-37.5 604,-37.5 604,-67.5"/>
<text text-anchor="start" x="478" y="-55.5" font-family="Helvetica,sans-Serif" font-size="10.00">udmaio::HwAccessorXdma</text>
<text text-anchor="middle" x="537" y="-44.5" font-family="Helvetica,sans-Serif" font-size="10.00">&lt; max_access_width_t &gt;</text>
</a>
</g>
</g>
<!-- Node8&#45;&gt;Node9 -->
<g id="edge8" class="edge">
<title>Node8&#45;&gt;Node9</title>
<path fill="none" stroke="#63b8ff" d="M445.53,-52.5C453.55,-52.5 461.64,-52.5 469.5,-52.5"/>
<polygon fill="#63b8ff" stroke="#63b8ff" points="445.79,-49 435.79,-52.5 445.79,-56 445.79,-49"/>
</g>
</g>
</svg>
        <g id="navigator" transform="translate(0 0)" fill="#404254">
                <rect fill="#f2f5e9" fill-opacity="0.5" stroke="#606060" stroke-width=".5" x="0" y="0" width="60" height="60"/>
                <use id="zoomplus" xlink:href="#zoomPlus" x="17" y="9" onmousedown="handleZoom(evt,'in')"/>
                <use id="zoomminus" xlink:href="#zoomMin" x="42" y="9" onmousedown="handleZoom(evt,'out')"/>
                <use id="reset" xlink:href="#resetDef" x="30" y="36" onmousedown="handleReset()"/>
                <g id="arrowUp" xlink:href="#dirArrow" transform="translate(30 24)" onmousedown="handlePan(0,-1)">
                  <use xlink:href="#rim" fill="#404040">
                        <set attributeName="fill" to="#808080" begin="arrowUp.mouseover" end="arrowUp.mouseout"/>
                  </use>
                  <path fill="none" stroke="white" stroke-width="1.5" d="M0,-3.0v7 M-2.5,-0.5L0,-3.0L2.5,-0.5"/>
                </g>
                <g id="arrowRight" xlink:href="#dirArrow" transform="rotate(90) translate(36 -43)" onmousedown="handlePan(1,0)">
                  <use xlink:href="#rim" fill="#404040">
                        <set attributeName="fill" to="#808080" begin="arrowRight.mouseover" end="arrowRight.mouseout"/>
                  </use>
                  <path fill="none" stroke="white" stroke-width="1.5" d="M0,-3.0v7 M-2.5,-0.5L0,-3.0L2.5,-0.5"/>
                </g>
                <g id="arrowDown" xlink:href="#dirArrow" transform="rotate(180) translate(-30 -48)" onmousedown="handlePan(0,1)">
                  <use xlink:href="#rim" fill="#404040">
                        <set attributeName="fill" to="#808080" begin="arrowDown.mouseover" end="arrowDown.mouseout"/>
                  </use>
                  <path fill="none" stroke="white" stroke-width="1.5" d="M0,-3.0v7 M-2.5,-0.5L0,-3.0L2.5,-0.5"/>
                </g>
                <g id="arrowLeft" xlink:href="#dirArrow" transform="rotate(270) translate(-36 17)" onmousedown="handlePan(-1,0)">
                  <use xlink:href="#rim" fill="#404040">
                        <set attributeName="fill" to="#808080" begin="arrowLeft.mouseover" end="arrowLeft.mouseout"/>
                  </use>
                  <path fill="none" stroke="white" stroke-width="1.5" d="M0,-3.0v7 M-2.5,-0.5L0,-3.0L2.5,-0.5"/>
                </g>
        </g>
        <svg viewBox="0 0 15 15" width="100%" height="30px" preserveAspectRatio="xMaxYMin meet">
         <g id="arrow_out" transform="scale(0.3 0.3)">
          <a xlink:href="structudmaio_1_1_logger__inherit__graph_org.svg" target="_base">
           <rect id="button" ry="5" rx="5" y="6" x="6" height="38" width="38"
                fill="#f2f5e9" fill-opacity="0.5" stroke="#606060" stroke-width="1.0"/>
           <path id="arrow"
             d="M 11.500037,31.436501 C 11.940474,20.09759 22.043105,11.32322 32.158766,21.979434 L 37.068811,17.246167 C 37.068811,17.246167 37.088388,32 37.088388,32 L 22.160133,31.978069 C 22.160133,31.978069 26.997745,27.140456 26.997745,27.140456 C 18.528582,18.264221 13.291696,25.230495 11.500037,31.436501 z"
             style="fill:#404040;"/>
          </a>
         </g>
        </svg>
</svg>
