<?xml version="1.0" encoding="UTF-8" standalone="no"?>
<!DOCTYPE svg PUBLIC "-//W3C//DTD SVG 1.1//EN"
 "http://www.w3.org/Graphics/SVG/1.1/DTD/svg11.dtd">
<!-- Generated by graphviz version 7.0.5 (20221223.1930)
 -->
<!-- Title: udmaio::Logger Pages: 1 -->
<svg width="620pt" height="217pt"
 viewBox="0.00 0.00 620.00 216.50" xmlns="http://www.w3.org/2000/svg" xmlns:xlink="http://www.w3.org/1999/xlink">
<g id="graph0" class="graph" transform="scale(1 1) rotate(0) translate(4 212.5)">
<title>udmaio::Logger</title>
<!-- Node1 -->
<g id="node1" class="node">
<title>Node1</title>
<g id="a_node1"><a xlink:title=" ">
<polygon fill="#999999" stroke="#666666" points="83,-123 0,-123 0,-104 83,-104 83,-123"/>
<text text-anchor="middle" x="41.5" y="-111" font-family="Helvetica,sans-Serif" font-size="10.00">udmaio::Logger</text>
</a>
</g>
</g>
<!-- Node2 -->
<g id="node2" class="node">
<title>Node2</title>
<g id="a_node2"><a xlink:href="classudmaio_1_1_concurrent_queue.html" target="_top" xlink:title=" ">
<polygon fill="white" stroke="#666666" points="258.5,-208.5 130.5,-208.5 130.5,-178.5 258.5,-178.5 258.5,-208.5"/>
<text text-anchor="start" x="138.5" y="-196.5" font-family="Helvetica,sans-Serif" font-size="10.00">udmaio::ConcurrentQueue</text>
<text text-anchor="middle" x="194.5" y="-185.5" font-family="Helvetica,sans-Serif" font-size="10.00">&lt; std::vector&lt; uint8_t &gt; &gt;</text>
</a>
</g>
</g>
<!-- Node1&#45;&gt;Node2 -->
<g id="edge1" class="edge">
<title>Node1&#45;&gt;Node2</title>
<path fill="none" stroke="#63b8ff" d="M62.4,-130.84C77.19,-143.01 98.31,-158.95 119,-169.5 125.17,-172.65 131.84,-175.5 138.57,-178.04"/>
<polygon fill="#63b8ff" stroke="#63b8ff" points="64.72,-128.22 54.82,-124.45 60.21,-133.57 64.72,-128.22"/>
</g>
<!-- Node3 -->
<g id="node3" class="node">
<title>Node3</title>
<g id="a_node3"><a xlink:href="classudmaio_1_1_concurrent_queue.html" target="_top" xlink:title="Helper class to implement a blocking FIFO between threads.">
<polygon fill="white" stroke="#666666" points="270,-160 119,-160 119,-141 270,-141 270,-160"/>
<text text-anchor="middle" x="194.5" y="-148" font-family="Helvetica,sans-Serif" font-size="10.00">udmaio::ConcurrentQueue&lt; T &gt;</text>
</a>
</g>
</g>
<!-- Node1&#45;&gt;Node3 -->
<g id="edge2" class="edge">
<title>Node1&#45;&gt;Node3</title>
<path fill="none" stroke="#63b8ff" d="M93.28,-126.16C101.86,-128.29 110.68,-130.46 119,-132.5 129.73,-135.13 141.33,-137.94 152.11,-140.55"/>
<polygon fill="#63b8ff" stroke="#63b8ff" points="94.21,-122.79 83.66,-123.77 92.52,-129.58 94.21,-122.79"/>
</g>
<!-- Node4 -->
<g id="node4" class="node">
<title>Node4</title>
<g id="a_node4"><a xlink:href="classudmaio_1_1_data_handler_abstract.html" target="_top" xlink:title="Base class to implement a DMA data reception handler.">
<polygon fill="white" stroke="#666666" points="266,-123 123,-123 123,-104 266,-104 266,-123"/>
<text text-anchor="middle" x="194.5" y="-111" font-family="Helvetica,sans-Serif" font-size="10.00">udmaio::DataHandlerAbstract</text>
</a>
</g>
</g>
<!-- Node1&#45;&gt;Node4 -->
<g id="edge3" class="edge">
<title>Node1&#45;&gt;Node4</title>
<path fill="none" stroke="#63b8ff" d="M94.84,-113.5C103.81,-113.5 113.27,-113.5 122.64,-113.5"/>
<polygon fill="#63b8ff" stroke="#63b8ff" points="94.88,-110 84.88,-113.5 94.88,-117 94.88,-110"/>
</g>
<!-- Node6 -->
<g id="node6" class="node">
<title>Node6</title>
<g id="a_node6"><a xlink:href="classudmaio_1_1_hw_accessor.html" target="_top" xlink:title="Base class for hardware access.">
<polygon fill="white" stroke="#666666" points="249,-86 140,-86 140,-67 249,-67 249,-86"/>
<text text-anchor="middle" x="194.5" y="-74" font-family="Helvetica,sans-Serif" font-size="10.00">udmaio::HwAccessor</text>
</a>
</g>
</g>
<!-- Node1&#45;&gt;Node6 -->
<g id="edge5" class="edge">
<title>Node1&#45;&gt;Node6</title>
<path fill="none" stroke="#63b8ff" d="M93.98,-100.88C113.23,-96.17 134.8,-90.88 152.92,-86.44"/>
<polygon fill="#63b8ff" stroke="#63b8ff" points="93.31,-97.45 84.44,-103.22 94.98,-104.24 93.31,-97.45"/>
</g>
<!-- Node12 -->
<g id="node12" class="node">
<title>Node12</title>
<g id="a_node12"><a xlink:href="classudmaio_1_1_u_dma_buf.html" target="_top" xlink:title="DMA data buffer accessed over AXI/UIO, implemented w/ udmabuf (see https://github....">
<polygon fill="white" stroke="#666666" points="242,-49 147,-49 147,-30 242,-30 242,-49"/>
<text text-anchor="middle" x="194.5" y="-37" font-family="Helvetica,sans-Serif" font-size="10.00">udmaio::UDmaBuf</text>
</a>
</g>
</g>
<!-- Node1&#45;&gt;Node12 -->
<g id="edge11" class="edge">
<title>Node1&#45;&gt;Node12</title>
<path fill="none" stroke="#63b8ff" d="M61.66,-96.12C76.36,-83.66 97.69,-67.39 119,-57.5 127.69,-53.47 137.39,-50.28 146.83,-47.78"/>
<polygon fill="#63b8ff" stroke="#63b8ff" points="59.4,-93.45 54.16,-102.66 64,-98.72 59.4,-93.45"/>
</g>
<!-- Node5 -->
<g id="node5" class="node">
<title>Node5</title>
<g id="a_node5"><a xlink:href="classudmaio_1_1_data_handler_sync.html" target="_top" xlink:title="Synchronous data handler with blocking read interface.">
<polygon fill="white" stroke="#666666" points="438,-153 310,-153 310,-134 438,-134 438,-153"/>
<text text-anchor="middle" x="374" y="-141" font-family="Helvetica,sans-Serif" font-size="10.00">udmaio::DataHandlerSync</text>
</a>
</g>
</g>
<!-- Node4&#45;&gt;Node5 -->
<g id="edge4" class="edge">
<title>Node4&#45;&gt;Node5</title>
<path fill="none" stroke="#63b8ff" d="M265.52,-125.33C281.51,-128.04 298.36,-130.89 313.85,-133.5"/>
<polygon fill="#63b8ff" stroke="#63b8ff" points="266.54,-121.96 256.1,-123.74 265.37,-128.86 266.54,-121.96"/>
</g>
<!-- Node7 -->
<g id="node7" class="node">
<title>Node7</title>
<g id="a_node7"><a xlink:href="classudmaio_1_1_hw_accessor_mmap.html" target="_top" xlink:title=" ">
<polygon fill="white" stroke="#666666" points="442,-115.5 306,-115.5 306,-85.5 442,-85.5 442,-115.5"/>
<text text-anchor="start" x="314" y="-103.5" font-family="Helvetica,sans-Serif" font-size="10.00">udmaio::HwAccessorMmap</text>
<text text-anchor="middle" x="374" y="-92.5" font-family="Helvetica,sans-Serif" font-size="10.00">&lt; uint64_t &gt;</text>
</a>
</g>
</g>
<!-- Node6&#45;&gt;Node7 -->
<g id="edge6" class="edge">
<title>Node6&#45;&gt;Node7</title>
<path fill="none" stroke="#63b8ff" d="M260.3,-85.26C275.05,-87.26 290.76,-89.38 305.62,-91.39"/>
<polygon fill="#63b8ff" stroke="#63b8ff" points="261.12,-81.84 250.74,-83.97 260.18,-88.78 261.12,-81.84"/>
</g>
<!-- Node9 -->
<g id="node9" class="node">
<title>Node9</title>
<g id="a_node9"><a xlink:href="classudmaio_1_1_hw_accessor_mmap.html" target="_top" xlink:title=" ">
<polygon fill="white" stroke="#666666" points="442,-67.5 306,-67.5 306,-37.5 442,-37.5 442,-67.5"/>
<text text-anchor="start" x="314" y="-55.5" font-family="Helvetica,sans-Serif" font-size="10.00">udmaio::HwAccessorMmap</text>
<text text-anchor="middle" x="374" y="-44.5" font-family="Helvetica,sans-Serif" font-size="10.00">&lt; max_access_width_t &gt;</text>
</a>
</g>
</g>
<!-- Node6&#45;&gt;Node9 -->
<g id="edge8" class="edge">
<title>Node6&#45;&gt;Node9</title>
<path fill="none" stroke="#63b8ff" d="M260.3,-67.74C275.05,-65.74 290.76,-63.62 305.62,-61.61"/>
<polygon fill="#63b8ff" stroke="#63b8ff" points="260.18,-64.22 250.74,-69.03 261.12,-71.16 260.18,-64.22"/>
</g>
<!-- Node11 -->
<g id="node11" class="node">
<title>Node11</title>
<g id="a_node11"><a xlink:href="classudmaio_1_1_hw_accessor_mock.html" target="_top" xlink:title=" ">
<polygon fill="white" stroke="#666666" points="440.5,-19 307.5,-19 307.5,0 440.5,0 440.5,-19"/>
<text text-anchor="middle" x="374" y="-7" font-family="Helvetica,sans-Serif" font-size="10.00">udmaio::HwAccessorMock</text>
</a>
</g>
</g>
<!-- Node6&#45;&gt;Node11 -->
<g id="edge10" class="edge">
<title>Node6&#45;&gt;Node11</title>
<path fill="none" stroke="#63b8ff" d="M257.5,-62.9C261.81,-61.29 266.02,-59.49 270,-57.5 288.37,-48.31 287.75,-37.94 306,-28.5 312.98,-24.89 320.74,-21.89 328.42,-19.42"/>
<polygon fill="#63b8ff" stroke="#63b8ff" points="256.44,-59.57 248.09,-66.08 258.68,-66.2 256.44,-59.57"/>
</g>
<!-- Node8 -->
<g id="node8" class="node">
<title>Node8</title>
<g id="a_node8"><a xlink:href="classudmaio_1_1_hw_accessor_axi.html" target="_top" xlink:title=" ">
<polygon fill="white" stroke="#666666" points="606,-110 484,-110 484,-91 606,-91 606,-110"/>
<text text-anchor="middle" x="545" y="-98" font-family="Helvetica,sans-Serif" font-size="10.00">udmaio::HwAccessorAxi</text>
</a>
</g>
</g>
<!-- Node7&#45;&gt;Node8 -->
<g id="edge7" class="edge">
<title>Node7&#45;&gt;Node8</title>
<path fill="none" stroke="#63b8ff" d="M453.56,-100.5C463.63,-100.5 473.81,-100.5 483.52,-100.5"/>
<polygon fill="#63b8ff" stroke="#63b8ff" points="453.79,-97 443.79,-100.5 453.79,-104 453.79,-97"/>
</g>
<!-- Node10 -->
<g id="node10" class="node">
<title>Node10</title>
<g id="a_node10"><a xlink:href="classudmaio_1_1_hw_accessor_xdma.html" target="_top" xlink:title=" ">
<polygon fill="white" stroke="#666666" points="612,-67.5 478,-67.5 478,-37.5 612,-37.5 612,-67.5"/>
<text text-anchor="start" x="486" y="-55.5" font-family="Helvetica,sans-Serif" font-size="10.00">udmaio::HwAccessorXdma</text>
<text text-anchor="middle" x="545" y="-44.5" font-family="Helvetica,sans-Serif" font-size="10.00">&lt; max_access_width_t &gt;</text>
</a>
</g>
</g>
<!-- Node9&#45;&gt;Node10 -->
<g id="edge9" class="edge">
<title>Node9&#45;&gt;Node10</title>
<path fill="none" stroke="#63b8ff" d="M453.53,-52.5C461.55,-52.5 469.64,-52.5 477.5,-52.5"/>
<polygon fill="#63b8ff" stroke="#63b8ff" points="453.79,-49 443.79,-52.5 453.79,-56 453.79,-49"/>
</g>
</g>
</svg>
