<?xml version="1.0" encoding="UTF-8" standalone="no"?>
<!DOCTYPE svg PUBLIC "-//W3C//DTD SVG 1.1//EN"
 "http://www.w3.org/Graphics/SVG/1.1/DTD/svg11.dtd">
<!-- Generated by graphviz version 7.0.5 (20221223.1930)
 -->
<!-- Title: DataHandlerAbstract.hpp Pages: 1 -->
<!--zoomable 324 -->
<svg id="main" version="1.1" xmlns="http://www.w3.org/2000/svg" xmlns:xlink="http://www.w3.org/1999/xlink" xml:space="preserve" onload="init(evt)">
<style type="text/css"><![CDATA[
.edge:hover path { stroke: red; }
.edge:hover polygon { stroke: red; fill: red; }
]]></style>
<script type="text/javascript"><![CDATA[
var edges = document.getElementsByTagName('g');
if (edges && edges.length) {
  for (var i=0;i<edges.length;i++) {
    if (edges[i].id.substr(0,4)=='edge') {
      edges[i].setAttribute('class','edge');
    }
  }
}
]]></script>
        <defs>
                <circle id="rim" cx="0" cy="0" r="7"/>
                <circle id="rim2" cx="0" cy="0" r="3.5"/>
                <g id="zoomPlus">
                        <use xlink:href="#rim" fill="#404040">
                                <set attributeName="fill" to="#808080" begin="zoomplus.mouseover" end="zoomplus.mouseout"/>
                        </use>
                        <path d="M-4,0h8M0,-4v8" fill="none" stroke="white" stroke-width="1.5" pointer-events="none"/>
                </g>
                <g id="zoomMin">
                        <use xlink:href="#rim" fill="#404040">
                                <set attributeName="fill" to="#808080" begin="zoomminus.mouseover" end="zoomminus.mouseout"/>
                        </use>
                        <path d="M-4,0h8" fill="none" stroke="white" stroke-width="1.5" pointer-events="none"/>
                </g>
                <g id="dirArrow">
                        <path fill="none" stroke="white" stroke-width="1.5" d="M0,-3.0v7 M-2.5,-0.5L0,-3.0L2.5,-0.5"/>
                </g>
               <g id="resetDef">
                       <use xlink:href="#rim2" fill="#404040">
                               <set attributeName="fill" to="#808080" begin="reset.mouseover" end="reset.mouseout"/>
                       </use>
               </g>
        </defs>

<script type="text/javascript">
var viewWidth = 1884;
var viewHeight = 324;
var sectionId = 'dynsection-0';
</script>
<script xlink:href="svgpan.js"/>
<svg id="graph" class="graph">
<g id="viewport">
<title>DataHandlerAbstract.hpp</title>
<!-- Node1 -->
<g id="node1" class="node">
<title>Node1</title>
<g id="a_node1"><a xlink:title=" ">
<polygon fill="#999999" stroke="#666666" points="643,-316 518,-316 518,-297 643,-297 643,-316"/>
<text text-anchor="middle" x="580.5" y="-304" font-family="Helvetica,sans-Serif" font-size="10.00">DataHandlerAbstract.hpp</text>
</a>
</g>
</g>
<!-- Node2 -->
<g id="node2" class="node">
<title>Node2</title>
<g id="a_node2"><a xlink:title=" ">
<polygon fill="#e0e0e0" stroke="#999999" points="559.5,-140 515.5,-140 515.5,-121 559.5,-121 559.5,-140"/>
<text text-anchor="middle" x="537.5" y="-128" font-family="Helvetica,sans-Serif" font-size="10.00">vector</text>
</a>
</g>
</g>
<!-- Node1&#45;&gt;Node2 -->
<g id="edge1" class="edge">
<title>Node1&#45;&gt;Node2</title>
<path fill="none" stroke="#63b8ff" d="M575.68,-296.55C571.14,-287.74 564.44,-273.79 560.5,-261 548.87,-223.29 542.46,-177.48 539.52,-151.69"/>
<polygon fill="#63b8ff" stroke="#63b8ff" points="543.03,-151.55 538.49,-141.98 536.07,-152.29 543.03,-151.55"/>
</g>
<!-- Node3 -->
<g id="node3" class="node">
<title>Node3</title>
<g id="a_node3"><a xlink:title=" ">
<polygon fill="#e0e0e0" stroke="#999999" points="877.5,-255.5 797.5,-255.5 797.5,-236.5 877.5,-236.5 877.5,-255.5"/>
<text text-anchor="middle" x="837.5" y="-243.5" font-family="Helvetica,sans-Serif" font-size="10.00">boost/asio.hpp</text>
</a>
</g>
</g>
<!-- Node1&#45;&gt;Node3 -->
<g id="edge2" class="edge">
<title>Node1&#45;&gt;Node3</title>
<path fill="none" stroke="#63b8ff" d="M626.56,-296.58C668.84,-288.16 733.14,-274.81 788.5,-261 791.07,-260.36 793.71,-259.68 796.37,-258.97"/>
<polygon fill="#63b8ff" stroke="#63b8ff" points="797.09,-262.4 805.81,-256.38 795.24,-255.65 797.09,-262.4"/>
</g>
<!-- Node4 -->
<g id="node4" class="node">
<title>Node4</title>
<g id="a_node4"><a xlink:title=" ">
<polygon fill="#e0e0e0" stroke="#999999" points="256,-79.5 119,-79.5 119,-60.5 256,-60.5 256,-79.5"/>
<text text-anchor="middle" x="187.5" y="-67.5" font-family="Helvetica,sans-Serif" font-size="10.00">boost/core/noncopyable.hpp</text>
</a>
</g>
</g>
<!-- Node1&#45;&gt;Node4 -->
<g id="edge3" class="edge">
<title>Node1&#45;&gt;Node4</title>
<path fill="none" stroke="#63b8ff" d="M529.08,-296.53C497.19,-289.65 456.04,-278.34 422.5,-261 329.7,-213.01 239.09,-124.72 203.4,-87.86"/>
<polygon fill="#63b8ff" stroke="#63b8ff" points="206.04,-85.55 196.59,-80.75 200.98,-90.39 206.04,-85.55"/>
</g>
<!-- Node5 -->
<g id="node5" class="node">
<title>Node5</title>
<g id="a_node5"><a xlink:title=" ">
<polygon fill="#e0e0e0" stroke="#999999" points="101,-79.5 0,-79.5 0,-60.5 101,-60.5 101,-79.5"/>
<text text-anchor="middle" x="50.5" y="-67.5" font-family="Helvetica,sans-Serif" font-size="10.00">boost/log/trivial.hpp</text>
</a>
</g>
</g>
<!-- Node1&#45;&gt;Node5 -->
<g id="edge4" class="edge">
<title>Node1&#45;&gt;Node5</title>
<path fill="none" stroke="#63b8ff" d="M517.69,-297.57C475.37,-290.92 418.85,-279.48 371.5,-261 249.87,-213.53 120.73,-122.99 71.34,-86.66"/>
<polygon fill="#63b8ff" stroke="#63b8ff" points="73.63,-84 63.51,-80.85 69.46,-89.62 73.63,-84"/>
</g>
<!-- Node6 -->
<g id="node6" class="node">
<title>Node6</title>
<g id="a_node6"><a xlink:href="_u_dma_buf_8hpp.html" target="_top" xlink:title=" ">
<polygon fill="white" stroke="#666666" points="509,-255.5 432,-255.5 432,-236.5 509,-236.5 509,-255.5"/>
<text text-anchor="middle" x="470.5" y="-243.5" font-family="Helvetica,sans-Serif" font-size="10.00">UDmaBuf.hpp</text>
</a>
</g>
</g>
<!-- Node1&#45;&gt;Node6 -->
<g id="edge5" class="edge">
<title>Node1&#45;&gt;Node6</title>
<path fill="none" stroke="#63b8ff" d="M563.79,-296.62C546.19,-287.25 518.19,-272.36 497.45,-261.33"/>
<polygon fill="#63b8ff" stroke="#63b8ff" points="499.17,-258.28 488.7,-256.68 495.89,-264.46 499.17,-258.28"/>
</g>
<!-- Node17 -->
<g id="node17" class="node">
<title>Node17</title>
<g id="a_node17"><a xlink:href="_uio_axi_dma_if_8hpp.html" target="_top" xlink:title=" ">
<polygon fill="white" stroke="#666666" points="779,-255.5 690,-255.5 690,-236.5 779,-236.5 779,-255.5"/>
<text text-anchor="middle" x="734.5" y="-243.5" font-family="Helvetica,sans-Serif" font-size="10.00">UioAxiDmaIf.hpp</text>
</a>
</g>
</g>
<!-- Node1&#45;&gt;Node17 -->
<g id="edge19" class="edge">
<title>Node1&#45;&gt;Node17</title>
<path fill="none" stroke="#63b8ff" d="M603.89,-296.62C629.56,-286.87 671,-271.12 700.31,-259.99"/>
<polygon fill="#63b8ff" stroke="#63b8ff" points="701.37,-263.33 709.48,-256.51 698.88,-256.79 701.37,-263.33"/>
</g>
<!-- Node33 -->
<g id="node33" class="node">
<title>Node33</title>
<g id="a_node33"><a xlink:href="_uio_mem_sgdma_8hpp.html" target="_top" xlink:title=" ">
<polygon fill="white" stroke="#666666" points="671.5,-255.5 569.5,-255.5 569.5,-236.5 671.5,-236.5 671.5,-255.5"/>
<text text-anchor="middle" x="620.5" y="-243.5" font-family="Helvetica,sans-Serif" font-size="10.00">UioMemSgdma.hpp</text>
</a>
</g>
</g>
<!-- Node1&#45;&gt;Node33 -->
<g id="edge46" class="edge">
<title>Node1&#45;&gt;Node33</title>
<path fill="none" stroke="#63b8ff" d="M586.4,-296.87C592.13,-288.49 601.01,-275.51 608.26,-264.89"/>
<polygon fill="#63b8ff" stroke="#63b8ff" points="610.96,-267.15 613.72,-256.92 605.19,-263.2 610.96,-267.15"/>
</g>
<!-- Node34 -->
<g id="node34" class="node">
<title>Node34</title>
<g id="a_node34"><a xlink:title=" ">
<polygon fill="#e0e0e0" stroke="#999999" points="1015.5,-261 895.5,-261 895.5,-231 1015.5,-231 1015.5,-261"/>
<text text-anchor="start" x="903.5" y="-249" font-family="Helvetica,sans-Serif" font-size="10.00">boost/asio/posix/stream</text>
<text text-anchor="middle" x="955.5" y="-238" font-family="Helvetica,sans-Serif" font-size="10.00">_descriptor.hpp</text>
</a>
</g>
</g>
<!-- Node1&#45;&gt;Node34 -->
<g id="edge49" class="edge">
<title>Node1&#45;&gt;Node34</title>
<path fill="none" stroke="#63b8ff" d="M643.37,-297.4C702.86,-289.5 794.93,-276.67 884.18,-261.34"/>
<polygon fill="#63b8ff" stroke="#63b8ff" points="884.58,-264.83 893.84,-259.67 883.38,-257.93 884.58,-264.83"/>
</g>
<!-- Node6&#45;&gt;Node5 -->
<g id="edge8" class="edge">
<title>Node6&#45;&gt;Node5</title>
<path fill="none" stroke="#63b8ff" d="M448.8,-236.01C379.67,-207.37 164.3,-118.14 82.48,-84.25"/>
<polygon fill="#63b8ff" stroke="#63b8ff" points="84.04,-81.11 73.47,-80.51 81.36,-87.58 84.04,-81.11"/>
</g>
<!-- Node7 -->
<g id="node7" class="node">
<title>Node7</title>
<g id="a_node7"><a xlink:title=" ">
<polygon fill="#e0e0e0" stroke="#999999" points="551.5,-79.5 433.5,-79.5 433.5,-60.5 551.5,-60.5 551.5,-79.5"/>
<text text-anchor="middle" x="492.5" y="-67.5" font-family="Helvetica,sans-Serif" font-size="10.00">boost/log/core/core.hpp</text>
</a>
</g>
</g>
<!-- Node6&#45;&gt;Node7 -->
<g id="edge6" class="edge">
<title>Node6&#45;&gt;Node7</title>
<path fill="none" stroke="#63b8ff" d="M471.62,-236.13C475.02,-209.25 485.26,-128.23 490.02,-90.6"/>
<polygon fill="#63b8ff" stroke="#63b8ff" points="493.44,-91.51 491.22,-81.15 486.49,-90.63 493.44,-91.51"/>
</g>
<!-- Node8 -->
<g id="node8" class="node">
<title>Node8</title>
<g id="a_node8"><a xlink:title=" ">
<polygon fill="#e0e0e0" stroke="#999999" points="415,-79.5 274,-79.5 274,-60.5 415,-60.5 415,-79.5"/>
<text text-anchor="middle" x="344.5" y="-67.5" font-family="Helvetica,sans-Serif" font-size="10.00">boost/log/sources/logger.hpp</text>
</a>
</g>
</g>
<!-- Node6&#45;&gt;Node8 -->
<g id="edge7" class="edge">
<title>Node6&#45;&gt;Node8</title>
<path fill="none" stroke="#63b8ff" d="M464.08,-236.13C444.28,-208.79 383.89,-125.4 357.3,-88.68"/>
<polygon fill="#63b8ff" stroke="#63b8ff" points="360.35,-86.92 351.65,-80.87 354.68,-91.02 360.35,-86.92"/>
</g>
<!-- Node9 -->
<g id="node9" class="node">
<title>Node9</title>
<g id="a_node9"><a xlink:href="_dma_buffer_abstract_8hpp.html" target="_top" xlink:title=" ">
<polygon fill="white" stroke="#666666" points="683,-195 566,-195 566,-176 683,-176 683,-195"/>
<text text-anchor="middle" x="624.5" y="-183" font-family="Helvetica,sans-Serif" font-size="10.00">DmaBufferAbstract.hpp</text>
</a>
</g>
</g>
<!-- Node6&#45;&gt;Node9 -->
<g id="edge9" class="edge">
<title>Node6&#45;&gt;Node9</title>
<path fill="none" stroke="#63b8ff" d="M493.89,-236.12C519.56,-226.37 561,-210.62 590.31,-199.49"/>
<polygon fill="#63b8ff" stroke="#63b8ff" points="591.37,-202.83 599.48,-196.01 588.88,-196.29 591.37,-202.83"/>
</g>
<!-- Node9&#45;&gt;Node2 -->
<g id="edge11" class="edge">
<title>Node9&#45;&gt;Node2</title>
<path fill="none" stroke="#63b8ff" d="M609.74,-175.51C596.54,-167.47 576.94,-155.53 561.49,-146.11"/>
<polygon fill="#63b8ff" stroke="#63b8ff" points="563.69,-143.36 553.33,-141.15 560.05,-149.34 563.69,-143.36"/>
</g>
<!-- Node9&#45;&gt;Node4 -->
<g id="edge12" class="edge">
<title>Node9&#45;&gt;Node4</title>
<path fill="none" stroke="#63b8ff" d="M619.66,-175.7C611.3,-161.46 592.71,-133.7 568.5,-121 448.01,-57.81 399.05,-105.18 264.5,-85 258.22,-84.06 251.66,-82.99 245.14,-81.88"/>
<polygon fill="#63b8ff" stroke="#63b8ff" points="246.19,-78.51 235.74,-80.24 244.99,-85.41 246.19,-78.51"/>
</g>
<!-- Node10 -->
<g id="node10" class="node">
<title>Node10</title>
<g id="a_node10"><a xlink:title=" ">
<polygon fill="#e0e0e0" stroke="#999999" points="1005.5,-140 959.5,-140 959.5,-121 1005.5,-121 1005.5,-140"/>
<text text-anchor="middle" x="982.5" y="-128" font-family="Helvetica,sans-Serif" font-size="10.00">cstdint</text>
</a>
</g>
</g>
<!-- Node9&#45;&gt;Node10 -->
<g id="edge10" class="edge">
<title>Node9&#45;&gt;Node10</title>
<path fill="none" stroke="#63b8ff" d="M683.3,-177.36C758.24,-168.12 884.77,-152 948.1,-140.21"/>
<polygon fill="#63b8ff" stroke="#63b8ff" points="948.53,-143.69 957.67,-138.35 947.19,-136.82 948.53,-143.69"/>
</g>
<!-- Node11 -->
<g id="node11" class="node">
<title>Node11</title>
<g id="a_node11"><a xlink:href="_uio_config_8hpp.html" target="_top" xlink:title=" ">
<polygon fill="white" stroke="#666666" points="681,-79.5 570,-79.5 570,-60.5 681,-60.5 681,-79.5"/>
<text text-anchor="middle" x="625.5" y="-67.5" font-family="Helvetica,sans-Serif" font-size="10.00">udmaio/UioConfig.hpp</text>
</a>
</g>
</g>
<!-- Node9&#45;&gt;Node11 -->
<g id="edge13" class="edge">
<title>Node9&#45;&gt;Node11</title>
<path fill="none" stroke="#63b8ff" d="M624.58,-175.59C624.74,-157.53 625.1,-116.17 625.32,-91.21"/>
<polygon fill="#63b8ff" stroke="#63b8ff" points="628.82,-91.41 625.41,-81.38 621.82,-91.35 628.82,-91.41"/>
</g>
<!-- Node12 -->
<g id="node12" class="node">
<title>Node12</title>
<g id="a_node12"><a xlink:title=" ">
<polygon fill="#e0e0e0" stroke="#999999" points="1236.5,-19 1182.5,-19 1182.5,0 1236.5,0 1236.5,-19"/>
<text text-anchor="middle" x="1209.5" y="-7" font-family="Helvetica,sans-Serif" font-size="10.00">iostream</text>
</a>
</g>
</g>
<!-- Node11&#45;&gt;Node12 -->
<g id="edge14" class="edge">
<title>Node11&#45;&gt;Node12</title>
<path fill="none" stroke="#63b8ff" d="M663.16,-60.04C672.08,-58.16 681.6,-56.34 690.5,-55 868.81,-28.26 1084.17,-16.18 1170.72,-12.14"/>
<polygon fill="#63b8ff" stroke="#63b8ff" points="1170.72,-15.65 1180.55,-11.7 1170.4,-8.66 1170.72,-15.65"/>
</g>
<!-- Node13 -->
<g id="node13" class="node">
<title>Node13</title>
<g id="a_node13"><a xlink:title=" ">
<polygon fill="#e0e0e0" stroke="#999999" points="1408,-19 1357,-19 1357,0 1408,0 1408,-19"/>
<text text-anchor="middle" x="1382.5" y="-7" font-family="Helvetica,sans-Serif" font-size="10.00">memory</text>
</a>
</g>
</g>
<!-- Node11&#45;&gt;Node13 -->
<g id="edge15" class="edge">
<title>Node11&#45;&gt;Node13</title>
<path fill="none" stroke="#63b8ff" d="M662.45,-60.05C671.58,-58.12 681.35,-56.27 690.5,-55 706.85,-52.73 1203.26,-21.68 1345.03,-12.83"/>
<polygon fill="#63b8ff" stroke="#63b8ff" points="1345.23,-16.33 1354.99,-12.21 1344.79,-9.34 1345.23,-16.33"/>
</g>
<!-- Node14 -->
<g id="node14" class="node">
<title>Node14</title>
<g id="a_node14"><a xlink:title=" ">
<polygon fill="#e0e0e0" stroke="#999999" points="689,-19 630,-19 630,0 689,0 689,-19"/>
<text text-anchor="middle" x="659.5" y="-7" font-family="Helvetica,sans-Serif" font-size="10.00">stdexcept</text>
</a>
</g>
</g>
<!-- Node11&#45;&gt;Node14 -->
<g id="edge16" class="edge">
<title>Node11&#45;&gt;Node14</title>
<path fill="none" stroke="#63b8ff" d="M630.52,-60.37C635.29,-52.16 642.62,-39.54 648.72,-29.05"/>
<polygon fill="#63b8ff" stroke="#63b8ff" points="651.7,-30.88 653.7,-20.48 645.65,-27.36 651.7,-30.88"/>
</g>
<!-- Node15 -->
<g id="node15" class="node">
<title>Node15</title>
<g id="a_node15"><a xlink:title=" ">
<polygon fill="#e0e0e0" stroke="#999999" points="612,-19 571,-19 571,0 612,0 612,-19"/>
<text text-anchor="middle" x="591.5" y="-7" font-family="Helvetica,sans-Serif" font-size="10.00">string</text>
</a>
</g>
</g>
<!-- Node11&#45;&gt;Node15 -->
<g id="edge17" class="edge">
<title>Node11&#45;&gt;Node15</title>
<path fill="none" stroke="#63b8ff" d="M620.48,-60.37C615.71,-52.16 608.38,-39.54 602.28,-29.05"/>
<polygon fill="#63b8ff" stroke="#63b8ff" points="605.35,-27.36 597.3,-20.48 599.3,-30.88 605.35,-27.36"/>
</g>
<!-- Node16 -->
<g id="node16" class="node">
<title>Node16</title>
<g id="a_node16"><a xlink:title=" ">
<polygon fill="#e0e0e0" stroke="#999999" points="959.5,-19 893.5,-19 893.5,0 959.5,0 959.5,-19"/>
<text text-anchor="middle" x="926.5" y="-7" font-family="Helvetica,sans-Serif" font-size="10.00">string_view</text>
</a>
</g>
</g>
<!-- Node11&#45;&gt;Node16 -->
<g id="edge18" class="edge">
<title>Node11&#45;&gt;Node16</title>
<path fill="none" stroke="#63b8ff" d="M666.38,-60.03C674.37,-58.32 682.69,-56.58 690.5,-55 757.14,-41.54 834.63,-27.18 882.12,-18.52"/>
<polygon fill="#63b8ff" stroke="#63b8ff" points="882.53,-22 891.74,-16.77 881.27,-15.11 882.53,-22"/>
</g>
<!-- Node18 -->
<g id="node18" class="node">
<title>Node18</title>
<g id="a_node18"><a xlink:href="_axi_dma_8hpp.html" target="_top" xlink:title=" ">
<polygon fill="white" stroke="#666666" points="1016.5,-195 948.5,-195 948.5,-176 1016.5,-176 1016.5,-195"/>
<text text-anchor="middle" x="982.5" y="-183" font-family="Helvetica,sans-Serif" font-size="10.00">AxiDma.hpp</text>
</a>
</g>
</g>
<!-- Node17&#45;&gt;Node18 -->
<g id="edge20" class="edge">
<title>Node17&#45;&gt;Node18</title>
<path fill="none" stroke="#63b8ff" d="M768.45,-236.04C775.09,-234.33 782.01,-232.59 788.5,-231 839.22,-218.61 897.64,-205.35 937.01,-196.55"/>
<polygon fill="#63b8ff" stroke="#63b8ff" points="937.61,-200.01 946.61,-194.42 936.09,-193.17 937.61,-200.01"/>
</g>
<!-- Node19 -->
<g id="node19" class="node">
<title>Node19</title>
<g id="a_node19"><a xlink:href="_reg_accessor_8hpp.html" target="_top" xlink:title=" ">
<polygon fill="white" stroke="#666666" points="930,-195 837,-195 837,-176 930,-176 930,-195"/>
<text text-anchor="middle" x="883.5" y="-183" font-family="Helvetica,sans-Serif" font-size="10.00">RegAccessor.hpp</text>
</a>
</g>
</g>
<!-- Node17&#45;&gt;Node19 -->
<g id="edge22" class="edge">
<title>Node17&#45;&gt;Node19</title>
<path fill="none" stroke="#63b8ff" d="M757.13,-236.12C781.85,-226.41 821.71,-210.76 850.04,-199.64"/>
<polygon fill="#63b8ff" stroke="#63b8ff" points="851.22,-202.93 859.25,-196.02 848.66,-196.42 851.22,-202.93"/>
</g>
<!-- Node32 -->
<g id="node32" class="node">
<title>Node32</title>
<g id="a_node32"><a xlink:href="_uio_if_8hpp.html" target="_top" xlink:title=" ">
<polygon fill="white" stroke="#666666" points="762.5,-195 706.5,-195 706.5,-176 762.5,-176 762.5,-195"/>
<text text-anchor="middle" x="734.5" y="-183" font-family="Helvetica,sans-Serif" font-size="10.00">UioIf.hpp</text>
</a>
</g>
</g>
<!-- Node17&#45;&gt;Node32 -->
<g id="edge44" class="edge">
<title>Node17&#45;&gt;Node32</title>
<path fill="none" stroke="#63b8ff" d="M734.5,-236.37C734.5,-228.5 734.5,-216.6 734.5,-206.39"/>
<polygon fill="#63b8ff" stroke="#63b8ff" points="738,-206.68 734.5,-196.68 731,-206.68 738,-206.68"/>
</g>
<!-- Node18&#45;&gt;Node10 -->
<g id="edge21" class="edge">
<title>Node18&#45;&gt;Node10</title>
<path fill="none" stroke="#63b8ff" d="M982.5,-175.75C982.5,-169.27 982.5,-160.16 982.5,-151.9"/>
<polygon fill="#63b8ff" stroke="#63b8ff" points="986,-151.96 982.5,-141.96 979,-151.96 986,-151.96"/>
</g>
<!-- Node19&#45;&gt;Node10 -->
<g id="edge23" class="edge">
<title>Node19&#45;&gt;Node10</title>
<path fill="none" stroke="#63b8ff" d="M900.29,-175.51C915.6,-167.31 938.47,-155.07 956.2,-145.58"/>
<polygon fill="#63b8ff" stroke="#63b8ff" points="957.46,-148.88 964.62,-141.07 954.15,-142.71 957.46,-148.88"/>
</g>
<!-- Node20 -->
<g id="node20" class="node">
<title>Node20</title>
<g id="a_node20"><a xlink:href="_uio_if_base_8hpp.html" target="_top" xlink:title=" ">
<polygon fill="white" stroke="#666666" points="941,-140 828,-140 828,-121 941,-121 941,-140"/>
<text text-anchor="middle" x="884.5" y="-128" font-family="Helvetica,sans-Serif" font-size="10.00">udmaio/UioIfBase.hpp</text>
</a>
</g>
</g>
<!-- Node19&#45;&gt;Node20 -->
<g id="edge24" class="edge">
<title>Node19&#45;&gt;Node20</title>
<path fill="none" stroke="#63b8ff" d="M883.67,-175.75C883.79,-169.27 883.96,-160.16 884.12,-151.9"/>
<polygon fill="#63b8ff" stroke="#63b8ff" points="887.61,-152.02 884.3,-141.96 880.61,-151.89 887.61,-152.02"/>
</g>
<!-- Node20&#45;&gt;Node4 -->
<g id="edge30" class="edge">
<title>Node20&#45;&gt;Node4</title>
<path fill="none" stroke="#63b8ff" d="M827.88,-127.49C718.59,-123.15 471.13,-111.12 264.5,-85 257.68,-84.14 250.55,-83.07 243.5,-81.91"/>
<polygon fill="#63b8ff" stroke="#63b8ff" points="244.1,-78.46 233.65,-80.22 242.92,-85.36 244.1,-78.46"/>
</g>
<!-- Node20&#45;&gt;Node5 -->
<g id="edge35" class="edge">
<title>Node20&#45;&gt;Node5</title>
<path fill="none" stroke="#63b8ff" d="M827.61,-127.53C673.13,-121.98 248.19,-105.28 109.5,-85 104.62,-84.29 99.55,-83.37 94.53,-82.34"/>
<polygon fill="#63b8ff" stroke="#63b8ff" points="95.69,-79.01 85.17,-80.28 94.18,-85.84 95.69,-79.01"/>
</g>
<!-- Node20&#45;&gt;Node7 -->
<g id="edge31" class="edge">
<title>Node20&#45;&gt;Node7</title>
<path fill="none" stroke="#63b8ff" d="M827.55,-122.84C762.71,-114.99 653.68,-100.97 560.5,-85 555.35,-84.12 550,-83.13 544.65,-82.1"/>
<polygon fill="#63b8ff" stroke="#63b8ff" points="545.74,-78.75 535.26,-80.25 544.39,-85.62 545.74,-78.75"/>
</g>
<!-- Node20&#45;&gt;Node8 -->
<g id="edge34" class="edge">
<title>Node20&#45;&gt;Node8</title>
<path fill="none" stroke="#63b8ff" d="M827.68,-125.42C740.65,-118.84 569.2,-104.63 424.5,-85 417.71,-84.08 410.6,-83 403.56,-81.86"/>
<polygon fill="#63b8ff" stroke="#63b8ff" points="404.14,-78.41 393.7,-80.22 402.99,-85.31 404.14,-78.41"/>
</g>
<!-- Node20&#45;&gt;Node11 -->
<g id="edge41" class="edge">
<title>Node20&#45;&gt;Node11</title>
<path fill="none" stroke="#63b8ff" d="M844.88,-120.55C799.66,-110.34 725.58,-93.6 676.18,-82.45"/>
<polygon fill="#63b8ff" stroke="#63b8ff" points="677.12,-79.07 666.59,-80.28 675.57,-85.9 677.12,-79.07"/>
</g>
<!-- Node20&#45;&gt;Node12 -->
<g id="edge27" class="edge">
<title>Node20&#45;&gt;Node12</title>
<path fill="none" stroke="#63b8ff" d="M941.36,-122C944.45,-121.65 947.51,-121.31 950.5,-121 999.73,-115.84 1360.95,-121.39 1394.5,-85 1439.34,-36.38 1314.25,-18.84 1247.86,-13.06"/>
<polygon fill="#63b8ff" stroke="#63b8ff" points="1248.35,-9.59 1238.1,-12.27 1247.78,-16.57 1248.35,-9.59"/>
</g>
<!-- Node20&#45;&gt;Node13 -->
<g id="edge28" class="edge">
<title>Node20&#45;&gt;Node13</title>
<path fill="none" stroke="#63b8ff" d="M941.36,-121.99C944.45,-121.64 947.51,-121.31 950.5,-121 1001.72,-115.71 1377.53,-122.8 1412.5,-85 1427.52,-68.76 1412.41,-44.05 1398.74,-27.59"/>
<polygon fill="#63b8ff" stroke="#63b8ff" points="1401.75,-25.71 1392.5,-20.54 1396.5,-30.35 1401.75,-25.71"/>
</g>
<!-- Node20&#45;&gt;Node16 -->
<g id="edge29" class="edge">
<title>Node20&#45;&gt;Node16</title>
<path fill="none" stroke="#63b8ff" d="M932.38,-120.52C981.71,-110.78 1052.51,-95.26 1060.5,-85 1088.34,-49.25 1019.89,-28.1 970.91,-17.94"/>
<polygon fill="#63b8ff" stroke="#63b8ff" points="971.85,-14.56 961.36,-16.06 970.49,-21.43 971.85,-14.56"/>
</g>
<!-- Node21 -->
<g id="node21" class="node">
<title>Node21</title>
<g id="a_node21"><a xlink:title=" ">
<polygon fill="#e0e0e0" stroke="#999999" points="1317.5,-79.5 1257.5,-79.5 1257.5,-60.5 1317.5,-60.5 1317.5,-79.5"/>
<text text-anchor="middle" x="1287.5" y="-67.5" font-family="Helvetica,sans-Serif" font-size="10.00">filesystem</text>
</a>
</g>
</g>
<!-- Node20&#45;&gt;Node21 -->
<g id="edge25" class="edge">
<title>Node20&#45;&gt;Node21</title>
<path fill="none" stroke="#63b8ff" d="M941.38,-122.15C944.46,-121.76 947.52,-121.37 950.5,-121 1082.88,-104.48 1118.68,-115.73 1248.5,-85 1250.51,-84.52 1252.57,-83.98 1254.62,-83.38"/>
<polygon fill="#63b8ff" stroke="#63b8ff" points="1255.61,-86.74 1264.05,-80.34 1253.45,-80.08 1255.61,-86.74"/>
</g>
<!-- Node22 -->
<g id="node22" class="node">
<title>Node22</title>
<g id="a_node22"><a xlink:title=" ">
<polygon fill="#e0e0e0" stroke="#999999" points="1385.5,-79.5 1335.5,-79.5 1335.5,-60.5 1385.5,-60.5 1385.5,-79.5"/>
<text text-anchor="middle" x="1360.5" y="-67.5" font-family="Helvetica,sans-Serif" font-size="10.00">fstream</text>
</a>
</g>
</g>
<!-- Node20&#45;&gt;Node22 -->
<g id="edge26" class="edge">
<title>Node20&#45;&gt;Node22</title>
<path fill="none" stroke="#63b8ff" d="M941.37,-122.06C944.46,-121.69 947.51,-121.34 950.5,-121 1117.33,-102.28 1163.56,-125.4 1326.5,-85 1328.09,-84.61 1329.7,-84.15 1331.31,-83.65"/>
<polygon fill="#63b8ff" stroke="#63b8ff" points="1332.14,-87.07 1340.35,-80.38 1329.75,-80.49 1332.14,-87.07"/>
</g>
<!-- Node23 -->
<g id="node23" class="node">
<title>Node23</title>
<g id="a_node23"><a xlink:title=" ">
<polygon fill="#e0e0e0" stroke="#999999" points="1609,-79.5 1480,-79.5 1480,-60.5 1609,-60.5 1609,-79.5"/>
<text text-anchor="middle" x="1544.5" y="-67.5" font-family="Helvetica,sans-Serif" font-size="10.00">boost/log/expressions.hpp</text>
</a>
</g>
</g>
<!-- Node20&#45;&gt;Node23 -->
<g id="edge32" class="edge">
<title>Node20&#45;&gt;Node23</title>
<path fill="none" stroke="#63b8ff" d="M941.36,-121.96C944.45,-121.62 947.51,-121.3 950.5,-121 1178.83,-98.34 1237.77,-113.06 1465.5,-85 1472.66,-84.12 1480.16,-83.02 1487.56,-81.83"/>
<polygon fill="#63b8ff" stroke="#63b8ff" points="1487.9,-85.32 1497.18,-80.22 1486.74,-78.42 1487.9,-85.32"/>
</g>
<!-- Node24 -->
<g id="node24" class="node">
<title>Node24</title>
<g id="a_node24"><a xlink:title=" ">
<polygon fill="#e0e0e0" stroke="#999999" points="1728,-85 1627,-85 1627,-55 1728,-55 1728,-85"/>
<text text-anchor="start" x="1635" y="-73" font-family="Helvetica,sans-Serif" font-size="10.00">boost/log/keywords</text>
<text text-anchor="middle" x="1677.5" y="-62" font-family="Helvetica,sans-Serif" font-size="10.00">/severity.hpp</text>
</a>
</g>
</g>
<!-- Node20&#45;&gt;Node24 -->
<g id="edge33" class="edge">
<title>Node20&#45;&gt;Node24</title>
<path fill="none" stroke="#63b8ff" d="M941.35,-121.91C944.44,-121.58 947.51,-121.27 950.5,-121 1242.98,-94.32 1322.3,-126.68 1615.78,-85.22"/>
<polygon fill="#63b8ff" stroke="#63b8ff" points="1615.86,-88.74 1625.26,-83.86 1614.87,-81.82 1615.86,-88.74"/>
</g>
<!-- Node25 -->
<g id="node25" class="node">
<title>Node25</title>
<g id="a_node25"><a xlink:title=" ">
<polygon fill="#e0e0e0" stroke="#999999" points="1789,-79.5 1746,-79.5 1746,-60.5 1789,-60.5 1789,-79.5"/>
<text text-anchor="middle" x="1767.5" y="-67.5" font-family="Helvetica,sans-Serif" font-size="10.00">fcntl.h</text>
</a>
</g>
</g>
<!-- Node20&#45;&gt;Node25 -->
<g id="edge36" class="edge">
<title>Node20&#45;&gt;Node25</title>
<path fill="none" stroke="#63b8ff" d="M941.35,-121.88C944.44,-121.56 947.51,-121.26 950.5,-121 1124.91,-105.81 1567.49,-126.81 1737.5,-85 1738.67,-84.71 1739.85,-84.38 1741.04,-84"/>
<polygon fill="#63b8ff" stroke="#63b8ff" points="1741.99,-87.39 1750.01,-80.46 1739.42,-80.88 1741.99,-87.39"/>
</g>
<!-- Node26 -->
<g id="node26" class="node">
<title>Node26</title>
<g id="a_node26"><a xlink:title=" ">
<polygon fill="#e0e0e0" stroke="#999999" points="1876,-79.5 1807,-79.5 1807,-60.5 1876,-60.5 1876,-79.5"/>
<text text-anchor="middle" x="1841.5" y="-67.5" font-family="Helvetica,sans-Serif" font-size="10.00">sys/mman.h</text>
</a>
</g>
</g>
<!-- Node20&#45;&gt;Node26 -->
<g id="edge37" class="edge">
<title>Node20&#45;&gt;Node26</title>
<path fill="none" stroke="#63b8ff" d="M941.35,-121.86C944.44,-121.55 947.51,-121.26 950.5,-121 1326.36,-88.88 1427.27,-152.01 1798.5,-85 1801.34,-84.49 1804.25,-83.83 1807.15,-83.09"/>
<polygon fill="#63b8ff" stroke="#63b8ff" points="1808.07,-86.47 1816.69,-80.3 1806.11,-79.75 1808.07,-86.47"/>
</g>
<!-- Node27 -->
<g id="node27" class="node">
<title>Node27</title>
<g id="a_node27"><a xlink:title=" ">
<polygon fill="#e0e0e0" stroke="#999999" points="758,-79.5 699,-79.5 699,-60.5 758,-60.5 758,-79.5"/>
<text text-anchor="middle" x="728.5" y="-67.5" font-family="Helvetica,sans-Serif" font-size="10.00">sys/stat.h</text>
</a>
</g>
</g>
<!-- Node20&#45;&gt;Node27 -->
<g id="edge38" class="edge">
<title>Node20&#45;&gt;Node27</title>
<path fill="none" stroke="#63b8ff" d="M860.81,-120.62C834.81,-110.87 792.83,-95.12 763.14,-83.99"/>
<polygon fill="#63b8ff" stroke="#63b8ff" points="764.43,-80.73 753.83,-80.5 761.97,-87.29 764.43,-80.73"/>
</g>
<!-- Node28 -->
<g id="node28" class="node">
<title>Node28</title>
<g id="a_node28"><a xlink:title=" ">
<polygon fill="#e0e0e0" stroke="#999999" points="841,-79.5 776,-79.5 776,-60.5 841,-60.5 841,-79.5"/>
<text text-anchor="middle" x="808.5" y="-67.5" font-family="Helvetica,sans-Serif" font-size="10.00">sys/types.h</text>
</a>
</g>
</g>
<!-- Node20&#45;&gt;Node28 -->
<g id="edge39" class="edge">
<title>Node20&#45;&gt;Node28</title>
<path fill="none" stroke="#63b8ff" d="M872.96,-120.62C861.35,-111.68 843.21,-97.72 829.12,-86.87"/>
<polygon fill="#63b8ff" stroke="#63b8ff" points="831.41,-84.22 821.35,-80.89 827.14,-89.76 831.41,-84.22"/>
</g>
<!-- Node29 -->
<g id="node29" class="node">
<title>Node29</title>
<g id="a_node29"><a xlink:title=" ">
<polygon fill="#e0e0e0" stroke="#999999" points="909.5,-79.5 859.5,-79.5 859.5,-60.5 909.5,-60.5 909.5,-79.5"/>
<text text-anchor="middle" x="884.5" y="-67.5" font-family="Helvetica,sans-Serif" font-size="10.00">unistd.h</text>
</a>
</g>
</g>
<!-- Node20&#45;&gt;Node29 -->
<g id="edge40" class="edge">
<title>Node20&#45;&gt;Node29</title>
<path fill="none" stroke="#63b8ff" d="M884.5,-120.87C884.5,-113 884.5,-101.1 884.5,-90.89"/>
<polygon fill="#63b8ff" stroke="#63b8ff" points="888,-91.18 884.5,-81.18 881,-91.18 888,-91.18"/>
</g>
<!-- Node30 -->
<g id="node30" class="node">
<title>Node30</title>
<g id="a_node30"><a xlink:title=" ">
<polygon fill="#e0e0e0" stroke="#999999" points="1051.5,-85 927.5,-85 927.5,-55 1051.5,-55 1051.5,-85"/>
<text text-anchor="start" x="935.5" y="-73" font-family="Helvetica,sans-Serif" font-size="10.00">boost/log/sources/record</text>
<text text-anchor="middle" x="989.5" y="-62" font-family="Helvetica,sans-Serif" font-size="10.00">_ostream.hpp</text>
</a>
</g>
</g>
<!-- Node20&#45;&gt;Node30 -->
<g id="edge42" class="edge">
<title>Node20&#45;&gt;Node30</title>
<path fill="none" stroke="#63b8ff" d="M900.45,-120.62C914.52,-112.78 935.54,-101.06 953.62,-90.99"/>
<polygon fill="#63b8ff" stroke="#63b8ff" points="955.23,-94.1 962.26,-86.18 951.82,-87.99 955.23,-94.1"/>
</g>
<!-- Node31 -->
<g id="node31" class="node">
<title>Node31</title>
<g id="a_node31"><a xlink:title=" ">
<polygon fill="#e0e0e0" stroke="#999999" points="1239,-85 1108,-85 1108,-55 1239,-55 1239,-85"/>
<text text-anchor="start" x="1116" y="-73" font-family="Helvetica,sans-Serif" font-size="10.00">boost/log/sources/severity</text>
<text text-anchor="middle" x="1173.5" y="-62" font-family="Helvetica,sans-Serif" font-size="10.00">_logger.hpp</text>
</a>
</g>
</g>
<!-- Node20&#45;&gt;Node31 -->
<g id="edge43" class="edge">
<title>Node20&#45;&gt;Node31</title>
<path fill="none" stroke="#63b8ff" d="M928.71,-120.55C973.21,-111.54 1042.77,-97.46 1096.38,-86.61"/>
<polygon fill="#63b8ff" stroke="#63b8ff" points="1096.98,-90.06 1106.08,-84.65 1095.59,-83.2 1096.98,-90.06"/>
</g>
<!-- Node32&#45;&gt;Node20 -->
<g id="edge45" class="edge">
<title>Node32&#45;&gt;Node20</title>
<path fill="none" stroke="#63b8ff" d="M759.95,-175.51C784.26,-166.92 821.16,-153.88 848.49,-144.22"/>
<polygon fill="#63b8ff" stroke="#63b8ff" points="849.49,-147.58 857.75,-140.95 847.16,-140.98 849.49,-147.58"/>
</g>
<!-- Node33&#45;&gt;Node9 -->
<g id="edge47" class="edge">
<title>Node33&#45;&gt;Node9</title>
<path fill="none" stroke="#63b8ff" d="M621.09,-236.37C621.63,-228.5 622.44,-216.6 623.14,-206.39"/>
<polygon fill="#63b8ff" stroke="#63b8ff" points="626.61,-206.89 623.8,-196.68 619.63,-206.42 626.61,-206.89"/>
</g>
<!-- Node33&#45;&gt;Node32 -->
<g id="edge48" class="edge">
<title>Node33&#45;&gt;Node32</title>
<path fill="none" stroke="#63b8ff" d="M637.81,-236.12C656.14,-226.71 685.34,-211.72 706.86,-200.68"/>
<polygon fill="#63b8ff" stroke="#63b8ff" points="708.38,-203.84 715.68,-196.16 705.18,-197.61 708.38,-203.84"/>
</g>
</g>
</svg>
        <g id="navigator" transform="translate(0 0)" fill="#404254">
                <rect fill="#f2f5e9" fill-opacity="0.5" stroke="#606060" stroke-width=".5" x="0" y="0" width="60" height="60"/>
                <use id="zoomplus" xlink:href="#zoomPlus" x="17" y="9" onmousedown="handleZoom(evt,'in')"/>
                <use id="zoomminus" xlink:href="#zoomMin" x="42" y="9" onmousedown="handleZoom(evt,'out')"/>
                <use id="reset" xlink:href="#resetDef" x="30" y="36" onmousedown="handleReset()"/>
                <g id="arrowUp" xlink:href="#dirArrow" transform="translate(30 24)" onmousedown="handlePan(0,-1)">
                  <use xlink:href="#rim" fill="#404040">
                        <set attributeName="fill" to="#808080" begin="arrowUp.mouseover" end="arrowUp.mouseout"/>
                  </use>
                  <path fill="none" stroke="white" stroke-width="1.5" d="M0,-3.0v7 M-2.5,-0.5L0,-3.0L2.5,-0.5"/>
                </g>
                <g id="arrowRight" xlink:href="#dirArrow" transform="rotate(90) translate(36 -43)" onmousedown="handlePan(1,0)">
                  <use xlink:href="#rim" fill="#404040">
                        <set attributeName="fill" to="#808080" begin="arrowRight.mouseover" end="arrowRight.mouseout"/>
                  </use>
                  <path fill="none" stroke="white" stroke-width="1.5" d="M0,-3.0v7 M-2.5,-0.5L0,-3.0L2.5,-0.5"/>
                </g>
                <g id="arrowDown" xlink:href="#dirArrow" transform="rotate(180) translate(-30 -48)" onmousedown="handlePan(0,1)">
                  <use xlink:href="#rim" fill="#404040">
                        <set attributeName="fill" to="#808080" begin="arrowDown.mouseover" end="arrowDown.mouseout"/>
                  </use>
                  <path fill="none" stroke="white" stroke-width="1.5" d="M0,-3.0v7 M-2.5,-0.5L0,-3.0L2.5,-0.5"/>
                </g>
                <g id="arrowLeft" xlink:href="#dirArrow" transform="rotate(270) translate(-36 17)" onmousedown="handlePan(-1,0)">
                  <use xlink:href="#rim" fill="#404040">
                        <set attributeName="fill" to="#808080" begin="arrowLeft.mouseover" end="arrowLeft.mouseout"/>
                  </use>
                  <path fill="none" stroke="white" stroke-width="1.5" d="M0,-3.0v7 M-2.5,-0.5L0,-3.0L2.5,-0.5"/>
                </g>
        </g>
        <svg viewBox="0 0 15 15" width="100%" height="30px" preserveAspectRatio="xMaxYMin meet">
         <g id="arrow_out" transform="scale(0.3 0.3)">
          <a xlink:href="_data_handler_abstract_8hpp__incl_org.svg" target="_base">
           <rect id="button" ry="5" rx="5" y="6" x="6" height="38" width="38"
                fill="#f2f5e9" fill-opacity="0.5" stroke="#606060" stroke-width="1.0"/>
           <path id="arrow"
             d="M 11.500037,31.436501 C 11.940474,20.09759 22.043105,11.32322 32.158766,21.979434 L 37.068811,17.246167 C 37.068811,17.246167 37.088388,32 37.088388,32 L 22.160133,31.978069 C 22.160133,31.978069 26.997745,27.140456 26.997745,27.140456 C 18.528582,18.264221 13.291696,25.230495 11.500037,31.436501 z"
             style="fill:#404040;"/>
          </a>
         </g>
        </svg>
</svg>
