<?xml version="1.0" encoding="UTF-8" standalone="no"?>
<!DOCTYPE svg PUBLIC "-//W3C//DTD SVG 1.1//EN"
 "http://www.w3.org/Graphics/SVG/1.1/DTD/svg11.dtd">
<!-- Generated by graphviz version 7.0.5 (20221223.1930)
 -->
<!-- Title: DataHandlerAbstract.hpp Pages: 1 -->
<!--zoomable 324 -->
<svg id="main" version="1.1" xmlns="http://www.w3.org/2000/svg" xmlns:xlink="http://www.w3.org/1999/xlink" xml:space="preserve" onload="init(evt)">
<style type="text/css"><![CDATA[
.edge:hover path { stroke: red; }
.edge:hover polygon { stroke: red; fill: red; }
]]></style>
<script type="text/javascript"><![CDATA[
var edges = document.getElementsByTagName('g');
if (edges && edges.length) {
  for (var i=0;i<edges.length;i++) {
    if (edges[i].id.substr(0,4)=='edge') {
      edges[i].setAttribute('class','edge');
    }
  }
}
]]></script>
        <defs>
                <circle id="rim" cx="0" cy="0" r="7"/>
                <circle id="rim2" cx="0" cy="0" r="3.5"/>
                <g id="zoomPlus">
                        <use xlink:href="#rim" fill="#404040">
                                <set attributeName="fill" to="#808080" begin="zoomplus.mouseover" end="zoomplus.mouseout"/>
                        </use>
                        <path d="M-4,0h8M0,-4v8" fill="none" stroke="white" stroke-width="1.5" pointer-events="none"/>
                </g>
                <g id="zoomMin">
                        <use xlink:href="#rim" fill="#404040">
                                <set attributeName="fill" to="#808080" begin="zoomminus.mouseover" end="zoomminus.mouseout"/>
                        </use>
                        <path d="M-4,0h8" fill="none" stroke="white" stroke-width="1.5" pointer-events="none"/>
                </g>
                <g id="dirArrow">
                        <path fill="none" stroke="white" stroke-width="1.5" d="M0,-3.0v7 M-2.5,-0.5L0,-3.0L2.5,-0.5"/>
                </g>
               <g id="resetDef">
                       <use xlink:href="#rim2" fill="#404040">
                               <set attributeName="fill" to="#808080" begin="reset.mouseover" end="reset.mouseout"/>
                       </use>
               </g>
        </defs>

<script type="text/javascript">
var viewWidth = 2013;
var viewHeight = 324;
var sectionId = 'dynsection-0';
</script>
<script xlink:href="svgpan.js"/>
<svg id="graph" class="graph">
<g id="viewport">
<title>DataHandlerAbstract.hpp</title>
<!-- Node1 -->
<g id="node1" class="node">
<title>Node1</title>
<g id="a_node1"><a xlink:title=" ">
<polygon fill="#999999" stroke="#666666" points="425.5,-316 300.5,-316 300.5,-297 425.5,-297 425.5,-316"/>
<text text-anchor="middle" x="363" y="-304" font-family="Helvetica,sans-Serif" font-size="10.00">DataHandlerAbstract.hpp</text>
</a>
</g>
</g>
<!-- Node2 -->
<g id="node2" class="node">
<title>Node2</title>
<g id="a_node2"><a xlink:title=" ">
<polygon fill="#e0e0e0" stroke="#999999" points="44,-79.5 0,-79.5 0,-60.5 44,-60.5 44,-79.5"/>
<text text-anchor="middle" x="22" y="-67.5" font-family="Helvetica,sans-Serif" font-size="10.00">vector</text>
</a>
</g>
</g>
<!-- Node1&#45;&gt;Node2 -->
<g id="edge1" class="edge">
<title>Node1&#45;&gt;Node2</title>
<path fill="none" stroke="#63b8ff" d="M340.15,-296.62C320.22,-288.49 290.85,-275.52 267,-261 175.91,-205.55 79.08,-122.13 39.94,-87.24"/>
<polygon fill="#63b8ff" stroke="#63b8ff" points="42.58,-84.91 32.8,-80.84 37.91,-90.12 42.58,-84.91"/>
</g>
<!-- Node3 -->
<g id="node3" class="node">
<title>Node3</title>
<g id="a_node3"><a xlink:title=" ">
<polygon fill="#e0e0e0" stroke="#999999" points="653,-255.5 573,-255.5 573,-236.5 653,-236.5 653,-255.5"/>
<text text-anchor="middle" x="613" y="-243.5" font-family="Helvetica,sans-Serif" font-size="10.00">boost/asio.hpp</text>
</a>
</g>
</g>
<!-- Node1&#45;&gt;Node3 -->
<g id="edge2" class="edge">
<title>Node1&#45;&gt;Node3</title>
<path fill="none" stroke="#63b8ff" d="M407.1,-296.54C447.94,-288.05 510.3,-274.6 564,-261 566.57,-260.35 569.21,-259.66 571.86,-258.95"/>
<polygon fill="#63b8ff" stroke="#63b8ff" points="572.58,-262.38 581.3,-256.35 570.73,-255.63 572.58,-262.38"/>
</g>
<!-- Node4 -->
<g id="node4" class="node">
<title>Node4</title>
<g id="a_node4"><a xlink:title=" ">
<polygon fill="#e0e0e0" stroke="#999999" points="318.5,-79.5 181.5,-79.5 181.5,-60.5 318.5,-60.5 318.5,-79.5"/>
<text text-anchor="middle" x="250" y="-67.5" font-family="Helvetica,sans-Serif" font-size="10.00">boost/core/noncopyable.hpp</text>
</a>
</g>
</g>
<!-- Node1&#45;&gt;Node4 -->
<g id="edge3" class="edge">
<title>Node1&#45;&gt;Node4</title>
<path fill="none" stroke="#63b8ff" d="M355.31,-296.68C340.04,-278.72 305.65,-236.14 286,-195 269.38,-160.2 258.84,-116.18 253.72,-91.05"/>
<polygon fill="#63b8ff" stroke="#63b8ff" points="257.16,-90.4 251.81,-81.26 250.29,-91.74 257.16,-90.4"/>
</g>
<!-- Node5 -->
<g id="node5" class="node">
<title>Node5</title>
<g id="a_node5"><a xlink:title=" ">
<polygon fill="#e0e0e0" stroke="#999999" points="163.5,-79.5 62.5,-79.5 62.5,-60.5 163.5,-60.5 163.5,-79.5"/>
<text text-anchor="middle" x="113" y="-67.5" font-family="Helvetica,sans-Serif" font-size="10.00">boost/log/trivial.hpp</text>
</a>
</g>
</g>
<!-- Node1&#45;&gt;Node5 -->
<g id="edge4" class="edge">
<title>Node1&#45;&gt;Node5</title>
<path fill="none" stroke="#63b8ff" d="M350.41,-296.77C338.2,-288.12 319.31,-274.28 304,-261 235.21,-201.33 160.58,-122.53 128.78,-88.2"/>
<polygon fill="#63b8ff" stroke="#63b8ff" points="131.37,-85.85 122.01,-80.87 126.22,-90.59 131.37,-85.85"/>
</g>
<!-- Node6 -->
<g id="node6" class="node">
<title>Node6</title>
<g id="a_node6"><a xlink:href="_u_dma_buf_8hpp.html" target="_top" xlink:title=" ">
<polygon fill="white" stroke="#666666" points="372.5,-195 295.5,-195 295.5,-176 372.5,-176 372.5,-195"/>
<text text-anchor="middle" x="334" y="-183" font-family="Helvetica,sans-Serif" font-size="10.00">UDmaBuf.hpp</text>
</a>
</g>
</g>
<!-- Node1&#45;&gt;Node6 -->
<g id="edge5" class="edge">
<title>Node1&#45;&gt;Node6</title>
<path fill="none" stroke="#63b8ff" d="M360.82,-296.56C356.18,-277.51 345.22,-232.56 338.84,-206.37"/>
<polygon fill="#63b8ff" stroke="#63b8ff" points="342.25,-205.58 336.48,-196.7 335.45,-207.24 342.25,-205.58"/>
</g>
<!-- Node17 -->
<g id="node17" class="node">
<title>Node17</title>
<g id="a_node17"><a xlink:href="_uio_axi_dma_if_8hpp.html" target="_top" xlink:title=" ">
<polygon fill="white" stroke="#666666" points="554.5,-255.5 465.5,-255.5 465.5,-236.5 554.5,-236.5 554.5,-255.5"/>
<text text-anchor="middle" x="510" y="-243.5" font-family="Helvetica,sans-Serif" font-size="10.00">UioAxiDmaIf.hpp</text>
</a>
</g>
</g>
<!-- Node1&#45;&gt;Node17 -->
<g id="edge19" class="edge">
<title>Node1&#45;&gt;Node17</title>
<path fill="none" stroke="#63b8ff" d="M385.33,-296.62C409.72,-286.91 449.04,-271.26 476.99,-260.14"/>
<polygon fill="#63b8ff" stroke="#63b8ff" points="478.06,-263.48 486.06,-256.53 475.47,-256.97 478.06,-263.48"/>
</g>
<!-- Node32 -->
<g id="node32" class="node">
<title>Node32</title>
<g id="a_node32"><a xlink:href="_uio_mem_sgdma_8hpp.html" target="_top" xlink:title=" ">
<polygon fill="white" stroke="#666666" points="493,-195 391,-195 391,-176 493,-176 493,-195"/>
<text text-anchor="middle" x="442" y="-183" font-family="Helvetica,sans-Serif" font-size="10.00">UioMemSgdma.hpp</text>
</a>
</g>
</g>
<!-- Node1&#45;&gt;Node32 -->
<g id="edge45" class="edge">
<title>Node1&#45;&gt;Node32</title>
<path fill="none" stroke="#63b8ff" d="M368.94,-296.56C381.87,-277.08 412.79,-230.5 429.97,-204.62"/>
<polygon fill="#63b8ff" stroke="#63b8ff" points="432.76,-206.75 435.37,-196.49 426.92,-202.88 432.76,-206.75"/>
</g>
<!-- Node33 -->
<g id="node33" class="node">
<title>Node33</title>
<g id="a_node33"><a xlink:title=" ">
<polygon fill="#e0e0e0" stroke="#999999" points="791,-261 671,-261 671,-231 791,-231 791,-261"/>
<text text-anchor="start" x="679" y="-249" font-family="Helvetica,sans-Serif" font-size="10.00">boost/asio/posix/stream</text>
<text text-anchor="middle" x="731" y="-238" font-family="Helvetica,sans-Serif" font-size="10.00">_descriptor.hpp</text>
</a>
</g>
</g>
<!-- Node1&#45;&gt;Node33 -->
<g id="edge48" class="edge">
<title>Node1&#45;&gt;Node33</title>
<path fill="none" stroke="#63b8ff" d="M425.86,-297.12C483.99,-289.15 573.04,-276.39 659.72,-261.34"/>
<polygon fill="#63b8ff" stroke="#63b8ff" points="660.09,-264.83 669.33,-259.66 658.88,-257.94 660.09,-264.83"/>
</g>
<!-- Node6&#45;&gt;Node5 -->
<g id="edge8" class="edge">
<title>Node6&#45;&gt;Node5</title>
<path fill="none" stroke="#63b8ff" d="M316.66,-175.59C278.41,-155.95 186.56,-108.78 140.43,-85.08"/>
<polygon fill="#63b8ff" stroke="#63b8ff" points="142.1,-82.01 131.61,-80.56 138.9,-88.24 142.1,-82.01"/>
</g>
<!-- Node7 -->
<g id="node7" class="node">
<title>Node7</title>
<g id="a_node7"><a xlink:title=" ">
<polygon fill="#e0e0e0" stroke="#999999" points="649,-79.5 531,-79.5 531,-60.5 649,-60.5 649,-79.5"/>
<text text-anchor="middle" x="590" y="-67.5" font-family="Helvetica,sans-Serif" font-size="10.00">boost/log/core/core.hpp</text>
</a>
</g>
</g>
<!-- Node6&#45;&gt;Node7 -->
<g id="edge6" class="edge">
<title>Node6&#45;&gt;Node7</title>
<path fill="none" stroke="#63b8ff" d="M352.9,-175.5C371.7,-166.54 401.37,-152.37 427,-140 444.36,-131.62 448.38,-128.83 466,-121 496.12,-107.61 530.97,-93.69 556.04,-83.95"/>
<polygon fill="#63b8ff" stroke="#63b8ff" points="557.01,-87.33 565.07,-80.46 554.48,-80.8 557.01,-87.33"/>
</g>
<!-- Node8 -->
<g id="node8" class="node">
<title>Node8</title>
<g id="a_node8"><a xlink:title=" ">
<polygon fill="#e0e0e0" stroke="#999999" points="808.5,-79.5 667.5,-79.5 667.5,-60.5 808.5,-60.5 808.5,-79.5"/>
<text text-anchor="middle" x="738" y="-67.5" font-family="Helvetica,sans-Serif" font-size="10.00">boost/log/sources/logger.hpp</text>
</a>
</g>
</g>
<!-- Node6&#45;&gt;Node8 -->
<g id="edge7" class="edge">
<title>Node6&#45;&gt;Node8</title>
<path fill="none" stroke="#63b8ff" d="M372.73,-177.34C425.94,-167.37 518.85,-149.47 552,-140 607.52,-124.14 670.1,-99.46 706.67,-84.31"/>
<polygon fill="#63b8ff" stroke="#63b8ff" points="707.88,-87.6 715.76,-80.52 705.18,-81.14 707.88,-87.6"/>
</g>
<!-- Node9 -->
<g id="node9" class="node">
<title>Node9</title>
<g id="a_node9"><a xlink:href="_dma_buffer_abstract_8hpp.html" target="_top" xlink:title=" ">
<polygon fill="white" stroke="#666666" points="418.5,-140 301.5,-140 301.5,-121 418.5,-121 418.5,-140"/>
<text text-anchor="middle" x="360" y="-128" font-family="Helvetica,sans-Serif" font-size="10.00">DmaBufferAbstract.hpp</text>
</a>
</g>
</g>
<!-- Node6&#45;&gt;Node9 -->
<g id="edge9" class="edge">
<title>Node6&#45;&gt;Node9</title>
<path fill="none" stroke="#63b8ff" d="M338.29,-175.75C341.62,-168.96 346.36,-159.3 350.56,-150.73"/>
<polygon fill="#63b8ff" stroke="#63b8ff" points="353.68,-152.32 354.95,-141.8 347.4,-149.24 353.68,-152.32"/>
</g>
<!-- Node9&#45;&gt;Node2 -->
<g id="edge11" class="edge">
<title>Node9&#45;&gt;Node2</title>
<path fill="none" stroke="#63b8ff" d="M301.25,-125.89C238.69,-120.92 137.27,-109.6 53,-85 52.01,-84.71 51.01,-84.39 50,-84.06"/>
<polygon fill="#63b8ff" stroke="#63b8ff" points="51.37,-80.84 40.79,-80.43 48.81,-87.35 51.37,-80.84"/>
</g>
<!-- Node9&#45;&gt;Node4 -->
<g id="edge12" class="edge">
<title>Node9&#45;&gt;Node4</title>
<path fill="none" stroke="#63b8ff" d="M343.29,-120.62C325.69,-111.25 297.69,-96.36 276.95,-85.33"/>
<polygon fill="#63b8ff" stroke="#63b8ff" points="278.67,-82.28 268.2,-80.68 275.39,-88.46 278.67,-82.28"/>
</g>
<!-- Node10 -->
<g id="node10" class="node">
<title>Node10</title>
<g id="a_node10"><a xlink:title=" ">
<polygon fill="#e0e0e0" stroke="#999999" points="383,-79.5 337,-79.5 337,-60.5 383,-60.5 383,-79.5"/>
<text text-anchor="middle" x="360" y="-67.5" font-family="Helvetica,sans-Serif" font-size="10.00">cstdint</text>
</a>
</g>
</g>
<!-- Node9&#45;&gt;Node10 -->
<g id="edge10" class="edge">
<title>Node9&#45;&gt;Node10</title>
<path fill="none" stroke="#63b8ff" d="M360,-120.87C360,-113 360,-101.1 360,-90.89"/>
<polygon fill="#63b8ff" stroke="#63b8ff" points="363.5,-91.18 360,-81.18 356.5,-91.18 363.5,-91.18"/>
</g>
<!-- Node11 -->
<g id="node11" class="node">
<title>Node11</title>
<g id="a_node11"><a xlink:href="_uio_config_8hpp.html" target="_top" xlink:title=" ">
<polygon fill="white" stroke="#666666" points="512.5,-79.5 401.5,-79.5 401.5,-60.5 512.5,-60.5 512.5,-79.5"/>
<text text-anchor="middle" x="457" y="-67.5" font-family="Helvetica,sans-Serif" font-size="10.00">udmaio/UioConfig.hpp</text>
</a>
</g>
</g>
<!-- Node9&#45;&gt;Node11 -->
<g id="edge13" class="edge">
<title>Node9&#45;&gt;Node11</title>
<path fill="none" stroke="#63b8ff" d="M374.73,-120.62C390.04,-111.38 414.27,-96.77 432.47,-85.79"/>
<polygon fill="#63b8ff" stroke="#63b8ff" points="434.08,-88.91 440.83,-80.75 430.46,-82.92 434.08,-88.91"/>
</g>
<!-- Node12 -->
<g id="node12" class="node">
<title>Node12</title>
<g id="a_node12"><a xlink:title=" ">
<polygon fill="#e0e0e0" stroke="#999999" points="745,-19 691,-19 691,0 745,0 745,-19"/>
<text text-anchor="middle" x="718" y="-7" font-family="Helvetica,sans-Serif" font-size="10.00">iostream</text>
</a>
</g>
</g>
<!-- Node11&#45;&gt;Node12 -->
<g id="edge14" class="edge">
<title>Node11&#45;&gt;Node12</title>
<path fill="none" stroke="#63b8ff" d="M496.92,-60.05C546.63,-48.91 630.94,-30.01 679.82,-19.06"/>
<polygon fill="#63b8ff" stroke="#63b8ff" points="680.39,-22.52 689.38,-16.91 678.86,-15.69 680.39,-22.52"/>
</g>
<!-- Node13 -->
<g id="node13" class="node">
<title>Node13</title>
<g id="a_node13"><a xlink:title=" ">
<polygon fill="#e0e0e0" stroke="#999999" points="1122.5,-19 1071.5,-19 1071.5,0 1122.5,0 1122.5,-19"/>
<text text-anchor="middle" x="1097" y="-7" font-family="Helvetica,sans-Serif" font-size="10.00">memory</text>
</a>
</g>
</g>
<!-- Node11&#45;&gt;Node13 -->
<g id="edge15" class="edge">
<title>Node11&#45;&gt;Node13</title>
<path fill="none" stroke="#63b8ff" d="M494.31,-60.06C503.33,-58.15 512.98,-56.31 522,-55 723.5,-25.64 967.73,-14.84 1059.63,-11.65"/>
<polygon fill="#63b8ff" stroke="#63b8ff" points="1059.68,-15.15 1069.56,-11.31 1059.45,-8.15 1059.68,-15.15"/>
</g>
<!-- Node14 -->
<g id="node14" class="node">
<title>Node14</title>
<g id="a_node14"><a xlink:title=" ">
<polygon fill="#e0e0e0" stroke="#999999" points="520.5,-19 461.5,-19 461.5,0 520.5,0 520.5,-19"/>
<text text-anchor="middle" x="491" y="-7" font-family="Helvetica,sans-Serif" font-size="10.00">stdexcept</text>
</a>
</g>
</g>
<!-- Node11&#45;&gt;Node14 -->
<g id="edge16" class="edge">
<title>Node11&#45;&gt;Node14</title>
<path fill="none" stroke="#63b8ff" d="M462.02,-60.37C466.79,-52.16 474.12,-39.54 480.22,-29.05"/>
<polygon fill="#63b8ff" stroke="#63b8ff" points="483.2,-30.88 485.2,-20.48 477.15,-27.36 483.2,-30.88"/>
</g>
<!-- Node15 -->
<g id="node15" class="node">
<title>Node15</title>
<g id="a_node15"><a xlink:title=" ">
<polygon fill="#e0e0e0" stroke="#999999" points="443.5,-19 402.5,-19 402.5,0 443.5,0 443.5,-19"/>
<text text-anchor="middle" x="423" y="-7" font-family="Helvetica,sans-Serif" font-size="10.00">string</text>
</a>
</g>
</g>
<!-- Node11&#45;&gt;Node15 -->
<g id="edge17" class="edge">
<title>Node11&#45;&gt;Node15</title>
<path fill="none" stroke="#63b8ff" d="M451.98,-60.37C447.21,-52.16 439.88,-39.54 433.78,-29.05"/>
<polygon fill="#63b8ff" stroke="#63b8ff" points="436.85,-27.36 428.8,-20.48 430.8,-30.88 436.85,-27.36"/>
</g>
<!-- Node16 -->
<g id="node16" class="node">
<title>Node16</title>
<g id="a_node16"><a xlink:title=" ">
<polygon fill="#e0e0e0" stroke="#999999" points="1487,-19 1421,-19 1421,0 1487,0 1487,-19"/>
<text text-anchor="middle" x="1454" y="-7" font-family="Helvetica,sans-Serif" font-size="10.00">string_view</text>
</a>
</g>
</g>
<!-- Node11&#45;&gt;Node16 -->
<g id="edge18" class="edge">
<title>Node11&#45;&gt;Node16</title>
<path fill="none" stroke="#63b8ff" d="M493.6,-60.02C502.82,-58.06 512.73,-56.21 522,-55 696.92,-32.14 1248.81,-15.97 1409.62,-11.65"/>
<polygon fill="#63b8ff" stroke="#63b8ff" points="1409.53,-15.15 1419.43,-11.39 1409.34,-8.16 1409.53,-15.15"/>
</g>
<!-- Node18 -->
<g id="node18" class="node">
<title>Node18</title>
<g id="a_node18"><a xlink:href="_axi_dma_8hpp.html" target="_top" xlink:title=" ">
<polygon fill="white" stroke="#666666" points="543,-140 475,-140 475,-121 543,-121 543,-140"/>
<text text-anchor="middle" x="509" y="-128" font-family="Helvetica,sans-Serif" font-size="10.00">AxiDma.hpp</text>
</a>
</g>
</g>
<!-- Node17&#45;&gt;Node18 -->
<g id="edge20" class="edge">
<title>Node17&#45;&gt;Node18</title>
<path fill="none" stroke="#63b8ff" d="M509.92,-236.09C509.76,-218.03 509.4,-176.67 509.18,-151.71"/>
<polygon fill="#63b8ff" stroke="#63b8ff" points="512.68,-151.85 509.09,-141.88 505.68,-151.91 512.68,-151.85"/>
</g>
<!-- Node19 -->
<g id="node19" class="node">
<title>Node19</title>
<g id="a_node19"><a xlink:href="_reg_accessor_8hpp.html" target="_top" xlink:title=" ">
<polygon fill="white" stroke="#666666" points="655.5,-195 562.5,-195 562.5,-176 655.5,-176 655.5,-195"/>
<text text-anchor="middle" x="609" y="-183" font-family="Helvetica,sans-Serif" font-size="10.00">RegAccessor.hpp</text>
</a>
</g>
</g>
<!-- Node17&#45;&gt;Node19 -->
<g id="edge22" class="edge">
<title>Node17&#45;&gt;Node19</title>
<path fill="none" stroke="#63b8ff" d="M525.04,-236.12C540.66,-226.88 565.39,-212.27 583.97,-201.29"/>
<polygon fill="#63b8ff" stroke="#63b8ff" points="585.69,-204.34 592.52,-196.24 582.13,-198.31 585.69,-204.34"/>
</g>
<!-- Node20 -->
<g id="node20" class="node">
<title>Node20</title>
<g id="a_node20"><a xlink:href="_uio_if_8hpp.html" target="_top" xlink:title=" ">
<polygon fill="white" stroke="#666666" points="1088,-140 998,-140 998,-121 1088,-121 1088,-140"/>
<text text-anchor="middle" x="1043" y="-128" font-family="Helvetica,sans-Serif" font-size="10.00">udmaio/UioIf.hpp</text>
</a>
</g>
</g>
<!-- Node17&#45;&gt;Node20 -->
<g id="edge44" class="edge">
<title>Node17&#45;&gt;Node20</title>
<path fill="none" stroke="#63b8ff" d="M543.64,-236.01C550.37,-234.29 557.4,-232.54 564,-231 715.94,-195.55 896.47,-159.74 986.32,-142.34"/>
<polygon fill="#63b8ff" stroke="#63b8ff" points="986.96,-145.78 996.11,-140.45 985.63,-138.91 986.96,-145.78"/>
</g>
<!-- Node18&#45;&gt;Node10 -->
<g id="edge21" class="edge">
<title>Node18&#45;&gt;Node10</title>
<path fill="none" stroke="#63b8ff" d="M484.66,-120.64C460.9,-111.9 423.79,-97.99 392,-85 391.39,-84.75 390.77,-84.49 390.14,-84.24"/>
<polygon fill="#63b8ff" stroke="#63b8ff" points="391.87,-81.17 381.3,-80.48 389.14,-87.61 391.87,-81.17"/>
</g>
<!-- Node19&#45;&gt;Node10 -->
<g id="edge23" class="edge">
<title>Node19&#45;&gt;Node10</title>
<path fill="none" stroke="#63b8ff" d="M603.59,-175.53C594.67,-161.56 575.51,-134.79 552,-121 489.12,-84.13 461.26,-107.71 392,-85 391.04,-84.69 390.07,-84.35 389.1,-84.01"/>
<polygon fill="#63b8ff" stroke="#63b8ff" points="390.71,-80.88 380.13,-80.46 388.14,-87.39 390.71,-80.88"/>
</g>
<!-- Node19&#45;&gt;Node20 -->
<g id="edge24" class="edge">
<title>Node19&#45;&gt;Node20</title>
<path fill="none" stroke="#63b8ff" d="M655.86,-178.78C736.2,-168.97 899.92,-148.97 986.47,-138.4"/>
<polygon fill="#63b8ff" stroke="#63b8ff" points="986.64,-141.91 996.14,-137.22 985.79,-134.96 986.64,-141.91"/>
</g>
<!-- Node20&#45;&gt;Node4 -->
<g id="edge30" class="edge">
<title>Node20&#45;&gt;Node4</title>
<path fill="none" stroke="#63b8ff" d="M997.66,-128.49C884.37,-125.58 579.9,-115.34 328,-85 320.83,-84.14 313.33,-83.04 305.93,-81.84"/>
<polygon fill="#63b8ff" stroke="#63b8ff" points="306.76,-78.43 296.32,-80.21 305.59,-85.33 306.76,-78.43"/>
</g>
<!-- Node20&#45;&gt;Node5 -->
<g id="edge35" class="edge">
<title>Node20&#45;&gt;Node5</title>
<path fill="none" stroke="#63b8ff" d="M997.85,-130.08C868.48,-131.11 485.64,-129.84 172,-85 167.12,-84.3 162.05,-83.39 157.03,-82.37"/>
<polygon fill="#63b8ff" stroke="#63b8ff" points="158.18,-79.04 147.66,-80.31 156.68,-85.88 158.18,-79.04"/>
</g>
<!-- Node20&#45;&gt;Node7 -->
<g id="edge31" class="edge">
<title>Node20&#45;&gt;Node7</title>
<path fill="none" stroke="#63b8ff" d="M997.61,-125.5C925.58,-118.86 780.79,-104.38 659,-85 653.48,-84.12 647.74,-83.11 642.02,-82.04"/>
<polygon fill="#63b8ff" stroke="#63b8ff" points="643.09,-78.69 632.61,-80.23 641.77,-85.56 643.09,-78.69"/>
</g>
<!-- Node20&#45;&gt;Node8 -->
<g id="edge34" class="edge">
<title>Node20&#45;&gt;Node8</title>
<path fill="none" stroke="#63b8ff" d="M997.67,-120.81C944.07,-110.53 854.77,-93.4 796.13,-82.15"/>
<polygon fill="#63b8ff" stroke="#63b8ff" points="796.8,-78.71 786.32,-80.27 795.48,-85.59 796.8,-78.71"/>
</g>
<!-- Node20&#45;&gt;Node11 -->
<g id="edge41" class="edge">
<title>Node20&#45;&gt;Node11</title>
<path fill="none" stroke="#63b8ff" d="M997.83,-127.57C907.18,-123.28 696.85,-111.19 522,-85 516.71,-84.21 511.21,-83.24 505.75,-82.2"/>
<polygon fill="#63b8ff" stroke="#63b8ff" points="506.64,-78.81 496.14,-80.26 505.25,-85.67 506.64,-78.81"/>
</g>
<!-- Node20&#45;&gt;Node12 -->
<g id="edge27" class="edge">
<title>Node20&#45;&gt;Node12</title>
<path fill="none" stroke="#63b8ff" d="M997.63,-124.08C958.83,-118.2 902.25,-106.59 857,-85 837.26,-75.58 836.79,-66.19 818,-55 797.3,-42.67 772.56,-31.63 752.88,-23.64"/>
<polygon fill="#63b8ff" stroke="#63b8ff" points="754.22,-20.41 743.63,-19.97 751.63,-26.91 754.22,-20.41"/>
</g>
<!-- Node20&#45;&gt;Node13 -->
<g id="edge28" class="edge">
<title>Node20&#45;&gt;Node13</title>
<path fill="none" stroke="#63b8ff" d="M1088.22,-129.91C1165.62,-129.53 1318.42,-123.76 1352,-85 1413.01,-14.57 1218.91,-8.91 1134.36,-9.65"/>
<polygon fill="#63b8ff" stroke="#63b8ff" points="1134.42,-6.15 1124.47,-9.77 1134.51,-13.15 1134.42,-6.15"/>
</g>
<!-- Node20&#45;&gt;Node16 -->
<g id="edge29" class="edge">
<title>Node20&#45;&gt;Node16</title>
<path fill="none" stroke="#63b8ff" d="M1088.1,-129.82C1227.04,-130.35 1641.66,-128.25 1682,-85 1736.82,-26.23 1579.38,-13.73 1498.58,-11.14"/>
<polygon fill="#63b8ff" stroke="#63b8ff" points="1498.85,-7.64 1488.76,-10.86 1498.66,-14.64 1498.85,-7.64"/>
</g>
<!-- Node21 -->
<g id="node21" class="node">
<title>Node21</title>
<g id="a_node21"><a xlink:title=" ">
<polygon fill="#e0e0e0" stroke="#999999" points="1789,-79.5 1729,-79.5 1729,-60.5 1789,-60.5 1789,-79.5"/>
<text text-anchor="middle" x="1759" y="-67.5" font-family="Helvetica,sans-Serif" font-size="10.00">filesystem</text>
</a>
</g>
</g>
<!-- Node20&#45;&gt;Node21 -->
<g id="edge25" class="edge">
<title>Node20&#45;&gt;Node21</title>
<path fill="none" stroke="#63b8ff" d="M1088.3,-130.25C1197.29,-131.25 1482.36,-129.04 1715,-85 1717.83,-84.47 1720.72,-83.81 1723.62,-83.07"/>
<polygon fill="#63b8ff" stroke="#63b8ff" points="1724.5,-86.45 1733.15,-80.33 1722.57,-79.73 1724.5,-86.45"/>
</g>
<!-- Node22 -->
<g id="node22" class="node">
<title>Node22</title>
<g id="a_node22"><a xlink:title=" ">
<polygon fill="#e0e0e0" stroke="#999999" points="1857,-79.5 1807,-79.5 1807,-60.5 1857,-60.5 1857,-79.5"/>
<text text-anchor="middle" x="1832" y="-67.5" font-family="Helvetica,sans-Serif" font-size="10.00">fstream</text>
</a>
</g>
</g>
<!-- Node20&#45;&gt;Node22 -->
<g id="edge26" class="edge">
<title>Node20&#45;&gt;Node22</title>
<path fill="none" stroke="#63b8ff" d="M1088.46,-128.79C1230.04,-126.26 1661.76,-116.15 1798,-85 1799.59,-84.64 1801.21,-84.2 1802.83,-83.72"/>
<polygon fill="#63b8ff" stroke="#63b8ff" points="1803.63,-87.15 1811.88,-80.5 1801.28,-80.56 1803.63,-87.15"/>
</g>
<!-- Node23 -->
<g id="node23" class="node">
<title>Node23</title>
<g id="a_node23"><a xlink:title=" ">
<polygon fill="#e0e0e0" stroke="#999999" points="2004.5,-79.5 1875.5,-79.5 1875.5,-60.5 2004.5,-60.5 2004.5,-79.5"/>
<text text-anchor="middle" x="1940" y="-67.5" font-family="Helvetica,sans-Serif" font-size="10.00">boost/log/expressions.hpp</text>
</a>
</g>
</g>
<!-- Node20&#45;&gt;Node23 -->
<g id="edge32" class="edge">
<title>Node20&#45;&gt;Node23</title>
<path fill="none" stroke="#63b8ff" d="M1088.24,-129.16C1212.75,-127.78 1570.88,-120.73 1866,-85 1872.73,-84.18 1879.78,-83.12 1886.73,-81.95"/>
<polygon fill="#63b8ff" stroke="#63b8ff" points="1887.16,-85.43 1896.4,-80.23 1885.94,-78.54 1887.16,-85.43"/>
</g>
<!-- Node24 -->
<g id="node24" class="node">
<title>Node24</title>
<g id="a_node24"><a xlink:title=" ">
<polygon fill="#e0e0e0" stroke="#999999" points="966.5,-85 865.5,-85 865.5,-55 966.5,-55 966.5,-85"/>
<text text-anchor="start" x="873.5" y="-73" font-family="Helvetica,sans-Serif" font-size="10.00">boost/log/keywords</text>
<text text-anchor="middle" x="916" y="-62" font-family="Helvetica,sans-Serif" font-size="10.00">/severity.hpp</text>
</a>
</g>
</g>
<!-- Node20&#45;&gt;Node24 -->
<g id="edge33" class="edge">
<title>Node20&#45;&gt;Node24</title>
<path fill="none" stroke="#63b8ff" d="M1023.71,-120.62C1006.22,-112.56 979.84,-100.41 957.57,-90.15"/>
<polygon fill="#63b8ff" stroke="#63b8ff" points="959.27,-87.08 948.72,-86.07 956.34,-93.44 959.27,-87.08"/>
</g>
<!-- Node25 -->
<g id="node25" class="node">
<title>Node25</title>
<g id="a_node25"><a xlink:title=" ">
<polygon fill="#e0e0e0" stroke="#999999" points="1027.5,-79.5 984.5,-79.5 984.5,-60.5 1027.5,-60.5 1027.5,-79.5"/>
<text text-anchor="middle" x="1006" y="-67.5" font-family="Helvetica,sans-Serif" font-size="10.00">fcntl.h</text>
</a>
</g>
</g>
<!-- Node20&#45;&gt;Node25 -->
<g id="edge36" class="edge">
<title>Node20&#45;&gt;Node25</title>
<path fill="none" stroke="#63b8ff" d="M1037.54,-120.87C1032.29,-112.57 1024.2,-99.78 1017.53,-89.22"/>
<polygon fill="#63b8ff" stroke="#63b8ff" points="1020.59,-87.53 1012.29,-80.95 1014.68,-91.27 1020.59,-87.53"/>
</g>
<!-- Node26 -->
<g id="node26" class="node">
<title>Node26</title>
<g id="a_node26"><a xlink:title=" ">
<polygon fill="#e0e0e0" stroke="#999999" points="1114.5,-79.5 1045.5,-79.5 1045.5,-60.5 1114.5,-60.5 1114.5,-79.5"/>
<text text-anchor="middle" x="1080" y="-67.5" font-family="Helvetica,sans-Serif" font-size="10.00">sys/mman.h</text>
</a>
</g>
</g>
<!-- Node20&#45;&gt;Node26 -->
<g id="edge37" class="edge">
<title>Node20&#45;&gt;Node26</title>
<path fill="none" stroke="#63b8ff" d="M1048.46,-120.87C1053.71,-112.57 1061.8,-99.78 1068.47,-89.22"/>
<polygon fill="#63b8ff" stroke="#63b8ff" points="1071.32,-91.27 1073.71,-80.95 1065.41,-87.53 1071.32,-91.27"/>
</g>
<!-- Node27 -->
<g id="node27" class="node">
<title>Node27</title>
<g id="a_node27"><a xlink:title=" ">
<polygon fill="#e0e0e0" stroke="#999999" points="1191.5,-79.5 1132.5,-79.5 1132.5,-60.5 1191.5,-60.5 1191.5,-79.5"/>
<text text-anchor="middle" x="1162" y="-67.5" font-family="Helvetica,sans-Serif" font-size="10.00">sys/stat.h</text>
</a>
</g>
</g>
<!-- Node20&#45;&gt;Node27 -->
<g id="edge38" class="edge">
<title>Node20&#45;&gt;Node27</title>
<path fill="none" stroke="#63b8ff" d="M1061.07,-120.62C1080.29,-111.17 1110.97,-96.09 1133.46,-85.03"/>
<polygon fill="#63b8ff" stroke="#63b8ff" points="1134.97,-88.19 1142.4,-80.64 1131.88,-81.91 1134.97,-88.19"/>
</g>
<!-- Node28 -->
<g id="node28" class="node">
<title>Node28</title>
<g id="a_node28"><a xlink:title=" ">
<polygon fill="#e0e0e0" stroke="#999999" points="1274.5,-79.5 1209.5,-79.5 1209.5,-60.5 1274.5,-60.5 1274.5,-79.5"/>
<text text-anchor="middle" x="1242" y="-67.5" font-family="Helvetica,sans-Serif" font-size="10.00">sys/types.h</text>
</a>
</g>
</g>
<!-- Node20&#45;&gt;Node28 -->
<g id="edge39" class="edge">
<title>Node20&#45;&gt;Node28</title>
<path fill="none" stroke="#63b8ff" d="M1076.75,-120.57C1108.85,-111.94 1158.42,-98.26 1201,-85 1202.57,-84.51 1204.17,-84 1205.79,-83.48"/>
<polygon fill="#63b8ff" stroke="#63b8ff" points="1206.65,-86.89 1215.04,-80.43 1204.45,-80.24 1206.65,-86.89"/>
</g>
<!-- Node29 -->
<g id="node29" class="node">
<title>Node29</title>
<g id="a_node29"><a xlink:title=" ">
<polygon fill="#e0e0e0" stroke="#999999" points="1343,-79.5 1293,-79.5 1293,-60.5 1343,-60.5 1343,-79.5"/>
<text text-anchor="middle" x="1318" y="-67.5" font-family="Helvetica,sans-Serif" font-size="10.00">unistd.h</text>
</a>
</g>
</g>
<!-- Node20&#45;&gt;Node29 -->
<g id="edge40" class="edge">
<title>Node20&#45;&gt;Node29</title>
<path fill="none" stroke="#63b8ff" d="M1088.07,-124.03C1136.99,-117.44 1217.07,-104.73 1284,-85 1285.16,-84.66 1286.34,-84.29 1287.53,-83.9"/>
<polygon fill="#63b8ff" stroke="#63b8ff" points="1288.52,-87.26 1296.69,-80.52 1286.1,-80.69 1288.52,-87.26"/>
</g>
<!-- Node30 -->
<g id="node30" class="node">
<title>Node30</title>
<g id="a_node30"><a xlink:title=" ">
<polygon fill="#e0e0e0" stroke="#999999" points="1523,-85 1399,-85 1399,-55 1523,-55 1523,-85"/>
<text text-anchor="start" x="1407" y="-73" font-family="Helvetica,sans-Serif" font-size="10.00">boost/log/sources/record</text>
<text text-anchor="middle" x="1461" y="-62" font-family="Helvetica,sans-Serif" font-size="10.00">_ostream.hpp</text>
</a>
</g>
</g>
<!-- Node20&#45;&gt;Node30 -->
<g id="edge42" class="edge">
<title>Node20&#45;&gt;Node30</title>
<path fill="none" stroke="#63b8ff" d="M1088.47,-124.36C1154.1,-116.76 1279.12,-101.63 1385,-85 1385.84,-84.87 1386.69,-84.73 1387.55,-84.6"/>
<polygon fill="#63b8ff" stroke="#63b8ff" points="1388.04,-88.06 1397.34,-82.98 1386.9,-81.16 1388.04,-88.06"/>
</g>
<!-- Node31 -->
<g id="node31" class="node">
<title>Node31</title>
<g id="a_node31"><a xlink:title=" ">
<polygon fill="#e0e0e0" stroke="#999999" points="1672.5,-85 1541.5,-85 1541.5,-55 1672.5,-55 1672.5,-85"/>
<text text-anchor="start" x="1549.5" y="-73" font-family="Helvetica,sans-Serif" font-size="10.00">boost/log/sources/severity</text>
<text text-anchor="middle" x="1607" y="-62" font-family="Helvetica,sans-Serif" font-size="10.00">_logger.hpp</text>
</a>
</g>
</g>
<!-- Node20&#45;&gt;Node31 -->
<g id="edge43" class="edge">
<title>Node20&#45;&gt;Node31</title>
<path fill="none" stroke="#63b8ff" d="M1088.33,-126.8C1172.96,-121.45 1360.95,-108.12 1529.85,-85.2"/>
<polygon fill="#63b8ff" stroke="#63b8ff" points="1530.28,-88.68 1539.71,-83.85 1529.32,-81.74 1530.28,-88.68"/>
</g>
<!-- Node32&#45;&gt;Node9 -->
<g id="edge46" class="edge">
<title>Node32&#45;&gt;Node9</title>
<path fill="none" stroke="#63b8ff" d="M428.09,-175.51C415.76,-167.54 397.53,-155.75 383.03,-146.38"/>
<polygon fill="#63b8ff" stroke="#63b8ff" points="385.27,-143.67 374.98,-141.18 381.47,-149.55 385.27,-143.67"/>
</g>
<!-- Node32&#45;&gt;Node20 -->
<g id="edge47" class="edge">
<title>Node32&#45;&gt;Node20</title>
<path fill="none" stroke="#63b8ff" d="M493.24,-179.98C605.05,-170.12 870.19,-146.74 986.58,-136.48"/>
<polygon fill="#63b8ff" stroke="#63b8ff" points="986.53,-139.99 996.19,-135.63 985.92,-133.02 986.53,-139.99"/>
</g>
</g>
</svg>
        <g id="navigator" transform="translate(0 0)" fill="#404254">
                <rect fill="#f2f5e9" fill-opacity="0.5" stroke="#606060" stroke-width=".5" x="0" y="0" width="60" height="60"/>
                <use id="zoomplus" xlink:href="#zoomPlus" x="17" y="9" onmousedown="handleZoom(evt,'in')"/>
                <use id="zoomminus" xlink:href="#zoomMin" x="42" y="9" onmousedown="handleZoom(evt,'out')"/>
                <use id="reset" xlink:href="#resetDef" x="30" y="36" onmousedown="handleReset()"/>
                <g id="arrowUp" xlink:href="#dirArrow" transform="translate(30 24)" onmousedown="handlePan(0,-1)">
                  <use xlink:href="#rim" fill="#404040">
                        <set attributeName="fill" to="#808080" begin="arrowUp.mouseover" end="arrowUp.mouseout"/>
                  </use>
                  <path fill="none" stroke="white" stroke-width="1.5" d="M0,-3.0v7 M-2.5,-0.5L0,-3.0L2.5,-0.5"/>
                </g>
                <g id="arrowRight" xlink:href="#dirArrow" transform="rotate(90) translate(36 -43)" onmousedown="handlePan(1,0)">
                  <use xlink:href="#rim" fill="#404040">
                        <set attributeName="fill" to="#808080" begin="arrowRight.mouseover" end="arrowRight.mouseout"/>
                  </use>
                  <path fill="none" stroke="white" stroke-width="1.5" d="M0,-3.0v7 M-2.5,-0.5L0,-3.0L2.5,-0.5"/>
                </g>
                <g id="arrowDown" xlink:href="#dirArrow" transform="rotate(180) translate(-30 -48)" onmousedown="handlePan(0,1)">
                  <use xlink:href="#rim" fill="#404040">
                        <set attributeName="fill" to="#808080" begin="arrowDown.mouseover" end="arrowDown.mouseout"/>
                  </use>
                  <path fill="none" stroke="white" stroke-width="1.5" d="M0,-3.0v7 M-2.5,-0.5L0,-3.0L2.5,-0.5"/>
                </g>
                <g id="arrowLeft" xlink:href="#dirArrow" transform="rotate(270) translate(-36 17)" onmousedown="handlePan(-1,0)">
                  <use xlink:href="#rim" fill="#404040">
                        <set attributeName="fill" to="#808080" begin="arrowLeft.mouseover" end="arrowLeft.mouseout"/>
                  </use>
                  <path fill="none" stroke="white" stroke-width="1.5" d="M0,-3.0v7 M-2.5,-0.5L0,-3.0L2.5,-0.5"/>
                </g>
        </g>
        <svg viewBox="0 0 15 15" width="100%" height="30px" preserveAspectRatio="xMaxYMin meet">
         <g id="arrow_out" transform="scale(0.3 0.3)">
          <a xlink:href="_data_handler_abstract_8hpp__incl_org.svg" target="_base">
           <rect id="button" ry="5" rx="5" y="6" x="6" height="38" width="38"
                fill="#f2f5e9" fill-opacity="0.5" stroke="#606060" stroke-width="1.0"/>
           <path id="arrow"
             d="M 11.500037,31.436501 C 11.940474,20.09759 22.043105,11.32322 32.158766,21.979434 L 37.068811,17.246167 C 37.068811,17.246167 37.088388,32 37.088388,32 L 22.160133,31.978069 C 22.160133,31.978069 26.997745,27.140456 26.997745,27.140456 C 18.528582,18.264221 13.291696,25.230495 11.500037,31.436501 z"
             style="fill:#404040;"/>
          </a>
         </g>
        </svg>
</svg>
