<?xml version="1.0" encoding="UTF-8" standalone="no"?>
<!DOCTYPE svg PUBLIC "-//W3C//DTD SVG 1.1//EN"
 "http://www.w3.org/Graphics/SVG/1.1/DTD/svg11.dtd">
<!-- Generated by graphviz version 7.0.5 (20221223.1930)
 -->
<!-- Title: DataHandlerPrint.hpp Pages: 1 -->
<!--zoomable 324 -->
<svg id="main" version="1.1" xmlns="http://www.w3.org/2000/svg" xmlns:xlink="http://www.w3.org/1999/xlink" xml:space="preserve" onload="init(evt)">
<style type="text/css"><![CDATA[
.edge:hover path { stroke: red; }
.edge:hover polygon { stroke: red; fill: red; }
]]></style>
<script type="text/javascript"><![CDATA[
var edges = document.getElementsByTagName('g');
if (edges && edges.length) {
  for (var i=0;i<edges.length;i++) {
    if (edges[i].id.substr(0,4)=='edge') {
      edges[i].setAttribute('class','edge');
    }
  }
}
]]></script>
        <defs>
                <circle id="rim" cx="0" cy="0" r="7"/>
                <circle id="rim2" cx="0" cy="0" r="3.5"/>
                <g id="zoomPlus">
                        <use xlink:href="#rim" fill="#404040">
                                <set attributeName="fill" to="#808080" begin="zoomplus.mouseover" end="zoomplus.mouseout"/>
                        </use>
                        <path d="M-4,0h8M0,-4v8" fill="none" stroke="white" stroke-width="1.5" pointer-events="none"/>
                </g>
                <g id="zoomMin">
                        <use xlink:href="#rim" fill="#404040">
                                <set attributeName="fill" to="#808080" begin="zoomminus.mouseover" end="zoomminus.mouseout"/>
                        </use>
                        <path d="M-4,0h8" fill="none" stroke="white" stroke-width="1.5" pointer-events="none"/>
                </g>
                <g id="dirArrow">
                        <path fill="none" stroke="white" stroke-width="1.5" d="M0,-3.0v7 M-2.5,-0.5L0,-3.0L2.5,-0.5"/>
                </g>
               <g id="resetDef">
                       <use xlink:href="#rim2" fill="#404040">
                               <set attributeName="fill" to="#808080" begin="reset.mouseover" end="reset.mouseout"/>
                       </use>
               </g>
        </defs>

<script type="text/javascript">
var viewWidth = 2094;
var viewHeight = 324;
var sectionId = 'dynsection-0';
</script>
<script xlink:href="svgpan.js"/>
<svg id="graph" class="graph">
<g id="viewport">
<title>DataHandlerPrint.hpp</title>
<!-- Node1 -->
<g id="node1" class="node">
<title>Node1</title>
<g id="a_node1"><a xlink:title=" ">
<polygon fill="#999999" stroke="#666666" points="166.5,-316 57.5,-316 57.5,-297 166.5,-297 166.5,-316"/>
<text text-anchor="middle" x="112" y="-304" font-family="Helvetica,sans-Serif" font-size="10.00">DataHandlerPrint.hpp</text>
</a>
</g>
</g>
<!-- Node2 -->
<g id="node2" class="node">
<title>Node2</title>
<g id="a_node2"><a xlink:title=" ">
<polygon fill="#e0e0e0" stroke="#999999" points="50,-261 0,-261 0,-242 50,-242 50,-261"/>
<text text-anchor="middle" x="25" y="-249" font-family="Helvetica,sans-Serif" font-size="10.00">optional</text>
</a>
</g>
</g>
<!-- Node1&#45;&gt;Node2 -->
<g id="edge1" class="edge">
<title>Node1&#45;&gt;Node2</title>
<path fill="none" stroke="#63b8ff" d="M97.24,-296.51C84.04,-288.47 64.44,-276.53 48.99,-267.11"/>
<polygon fill="#63b8ff" stroke="#63b8ff" points="51.19,-264.36 40.83,-262.15 47.55,-270.34 51.19,-264.36"/>
</g>
<!-- Node3 -->
<g id="node3" class="node">
<title>Node3</title>
<g id="a_node3"><a xlink:title=" ">
<polygon fill="#e0e0e0" stroke="#999999" points="107.5,-261 68.5,-261 68.5,-242 107.5,-242 107.5,-261"/>
<text text-anchor="middle" x="88" y="-249" font-family="Helvetica,sans-Serif" font-size="10.00">utility</text>
</a>
</g>
</g>
<!-- Node1&#45;&gt;Node3 -->
<g id="edge2" class="edge">
<title>Node1&#45;&gt;Node3</title>
<path fill="none" stroke="#63b8ff" d="M108.04,-296.75C104.96,-289.96 100.59,-280.3 96.71,-271.73"/>
<polygon fill="#63b8ff" stroke="#63b8ff" points="99.99,-270.49 92.67,-262.82 93.61,-273.37 99.99,-270.49"/>
</g>
<!-- Node4 -->
<g id="node4" class="node">
<title>Node4</title>
<g id="a_node4"><a xlink:href="_axi_traffic_gen_lfsr_8hpp.html" target="_top" xlink:title=" ">
<polygon fill="white" stroke="#666666" points="168,-140 58,-140 58,-121 168,-121 168,-140"/>
<text text-anchor="middle" x="113" y="-128" font-family="Helvetica,sans-Serif" font-size="10.00">AxiTrafficGenLfsr.hpp</text>
</a>
</g>
</g>
<!-- Node1&#45;&gt;Node4 -->
<g id="edge3" class="edge">
<title>Node1&#45;&gt;Node4</title>
<path fill="none" stroke="#63b8ff" d="M113.03,-296.65C114.02,-287.68 115.44,-273.4 116,-261 117.73,-222.35 115.78,-177.17 114.32,-151.69"/>
<polygon fill="#63b8ff" stroke="#63b8ff" points="117.82,-151.57 113.71,-141.81 110.83,-152 117.82,-151.57"/>
</g>
<!-- Node6 -->
<g id="node6" class="node">
<title>Node6</title>
<g id="a_node6"><a xlink:href="_data_handler_abstract_8hpp.html" target="_top" xlink:title=" ">
<polygon fill="white" stroke="#666666" points="450,-261 290,-261 290,-242 450,-242 450,-261"/>
<text text-anchor="middle" x="370" y="-249" font-family="Helvetica,sans-Serif" font-size="10.00">udmaio/DataHandlerAbstract.hpp</text>
</a>
</g>
</g>
<!-- Node1&#45;&gt;Node6 -->
<g id="edge5" class="edge">
<title>Node1&#45;&gt;Node6</title>
<path fill="none" stroke="#63b8ff" d="M155.77,-296.51C199.82,-287.46 267.88,-273.48 315.43,-263.71"/>
<polygon fill="#63b8ff" stroke="#63b8ff" points="315.88,-267.19 324.97,-261.75 314.47,-260.33 315.88,-267.19"/>
</g>
<!-- Node5 -->
<g id="node5" class="node">
<title>Node5</title>
<g id="a_node5"><a xlink:title=" ">
<polygon fill="#e0e0e0" stroke="#999999" points="136,-79.5 90,-79.5 90,-60.5 136,-60.5 136,-79.5"/>
<text text-anchor="middle" x="113" y="-67.5" font-family="Helvetica,sans-Serif" font-size="10.00">cstdint</text>
</a>
</g>
</g>
<!-- Node4&#45;&gt;Node5 -->
<g id="edge4" class="edge">
<title>Node4&#45;&gt;Node5</title>
<path fill="none" stroke="#63b8ff" d="M113,-120.87C113,-113 113,-101.1 113,-90.89"/>
<polygon fill="#63b8ff" stroke="#63b8ff" points="116.5,-91.18 113,-81.18 109.5,-91.18 116.5,-91.18"/>
</g>
<!-- Node7 -->
<g id="node7" class="node">
<title>Node7</title>
<g id="a_node7"><a xlink:title=" ">
<polygon fill="#e0e0e0" stroke="#999999" points="198,-79.5 154,-79.5 154,-60.5 198,-60.5 198,-79.5"/>
<text text-anchor="middle" x="176" y="-67.5" font-family="Helvetica,sans-Serif" font-size="10.00">vector</text>
</a>
</g>
</g>
<!-- Node6&#45;&gt;Node7 -->
<g id="edge6" class="edge">
<title>Node6&#45;&gt;Node7</title>
<path fill="none" stroke="#63b8ff" d="M289.55,-243.1C262.8,-236.9 234.81,-225.78 215,-206 183.72,-174.77 177.18,-120.12 176.03,-90.85"/>
<polygon fill="#63b8ff" stroke="#63b8ff" points="179.54,-91.12 175.84,-81.19 172.54,-91.26 179.54,-91.12"/>
</g>
<!-- Node8 -->
<g id="node8" class="node">
<title>Node8</title>
<g id="a_node8"><a xlink:title=" ">
<polygon fill="#e0e0e0" stroke="#999999" points="304,-200.5 224,-200.5 224,-181.5 304,-181.5 304,-200.5"/>
<text text-anchor="middle" x="264" y="-188.5" font-family="Helvetica,sans-Serif" font-size="10.00">boost/asio.hpp</text>
</a>
</g>
</g>
<!-- Node6&#45;&gt;Node8 -->
<g id="edge7" class="edge">
<title>Node6&#45;&gt;Node8</title>
<path fill="none" stroke="#63b8ff" d="M353.9,-241.62C337.01,-232.29 310.2,-217.5 290.25,-206.49"/>
<polygon fill="#63b8ff" stroke="#63b8ff" points="292.02,-203.47 281.58,-201.7 288.64,-209.6 292.02,-203.47"/>
</g>
<!-- Node9 -->
<g id="node9" class="node">
<title>Node9</title>
<g id="a_node9"><a xlink:title=" ">
<polygon fill="#e0e0e0" stroke="#999999" points="353.5,-79.5 216.5,-79.5 216.5,-60.5 353.5,-60.5 353.5,-79.5"/>
<text text-anchor="middle" x="285" y="-67.5" font-family="Helvetica,sans-Serif" font-size="10.00">boost/core/noncopyable.hpp</text>
</a>
</g>
</g>
<!-- Node6&#45;&gt;Node9 -->
<g id="edge8" class="edge">
<title>Node6&#45;&gt;Node9</title>
<path fill="none" stroke="#63b8ff" d="M365.9,-241.84C352.92,-214.43 312.49,-129.05 294.18,-90.38"/>
<polygon fill="#63b8ff" stroke="#63b8ff" points="297.35,-88.9 289.91,-81.36 291.02,-91.9 297.35,-88.9"/>
</g>
<!-- Node10 -->
<g id="node10" class="node">
<title>Node10</title>
<g id="a_node10"><a xlink:title=" ">
<polygon fill="#e0e0e0" stroke="#999999" points="472.5,-79.5 371.5,-79.5 371.5,-60.5 472.5,-60.5 472.5,-79.5"/>
<text text-anchor="middle" x="422" y="-67.5" font-family="Helvetica,sans-Serif" font-size="10.00">boost/log/trivial.hpp</text>
</a>
</g>
</g>
<!-- Node6&#45;&gt;Node10 -->
<g id="edge9" class="edge">
<title>Node6&#45;&gt;Node10</title>
<path fill="none" stroke="#63b8ff" d="M369.99,-241.69C370.24,-220.27 372.55,-164.1 389,-121 393.36,-109.56 400.69,-98.07 407.33,-89"/>
<polygon fill="#63b8ff" stroke="#63b8ff" points="410.09,-91.16 413.42,-81.1 404.54,-86.88 410.09,-91.16"/>
</g>
<!-- Node11 -->
<g id="node11" class="node">
<title>Node11</title>
<g id="a_node11"><a xlink:href="_u_dma_buf_8hpp.html" target="_top" xlink:title=" ">
<polygon fill="white" stroke="#666666" points="495.5,-200.5 418.5,-200.5 418.5,-181.5 495.5,-181.5 495.5,-200.5"/>
<text text-anchor="middle" x="457" y="-188.5" font-family="Helvetica,sans-Serif" font-size="10.00">UDmaBuf.hpp</text>
</a>
</g>
</g>
<!-- Node6&#45;&gt;Node11 -->
<g id="edge10" class="edge">
<title>Node6&#45;&gt;Node11</title>
<path fill="none" stroke="#63b8ff" d="M383.21,-241.62C396.75,-232.51 418.07,-218.18 434.32,-207.25"/>
<polygon fill="#63b8ff" stroke="#63b8ff" points="436.06,-210.3 442.41,-201.81 432.15,-204.49 436.06,-210.3"/>
</g>
<!-- Node19 -->
<g id="node19" class="node">
<title>Node19</title>
<g id="a_node19"><a xlink:href="_uio_axi_dma_if_8hpp.html" target="_top" xlink:title=" ">
<polygon fill="white" stroke="#666666" points="723.5,-200.5 634.5,-200.5 634.5,-181.5 723.5,-181.5 723.5,-200.5"/>
<text text-anchor="middle" x="679" y="-188.5" font-family="Helvetica,sans-Serif" font-size="10.00">UioAxiDmaIf.hpp</text>
</a>
</g>
</g>
<!-- Node6&#45;&gt;Node19 -->
<g id="edge22" class="edge">
<title>Node6&#45;&gt;Node19</title>
<path fill="none" stroke="#63b8ff" d="M429.52,-241.51C481.37,-233.35 558.46,-220.41 625,-206 628.35,-205.28 631.8,-204.48 635.26,-203.66"/>
<polygon fill="#63b8ff" stroke="#63b8ff" points="635.92,-207.1 644.79,-201.3 634.24,-200.3 635.92,-207.1"/>
</g>
<!-- Node33 -->
<g id="node33" class="node">
<title>Node33</title>
<g id="a_node33"><a xlink:href="_uio_mem_sgdma_8hpp.html" target="_top" xlink:title=" ">
<polygon fill="white" stroke="#666666" points="616,-200.5 514,-200.5 514,-181.5 616,-181.5 616,-200.5"/>
<text text-anchor="middle" x="565" y="-188.5" font-family="Helvetica,sans-Serif" font-size="10.00">UioMemSgdma.hpp</text>
</a>
</g>
</g>
<!-- Node6&#45;&gt;Node33 -->
<g id="edge42" class="edge">
<title>Node6&#45;&gt;Node33</title>
<path fill="none" stroke="#63b8ff" d="M399.62,-241.62C432.83,-231.65 486.91,-215.43 524.14,-204.26"/>
<polygon fill="#63b8ff" stroke="#63b8ff" points="525.08,-207.63 533.66,-201.4 523.07,-200.92 525.08,-207.63"/>
</g>
<!-- Node34 -->
<g id="node34" class="node">
<title>Node34</title>
<g id="a_node34"><a xlink:title=" ">
<polygon fill="#e0e0e0" stroke="#999999" points="862,-206 742,-206 742,-176 862,-176 862,-206"/>
<text text-anchor="start" x="750" y="-194" font-family="Helvetica,sans-Serif" font-size="10.00">boost/asio/posix/stream</text>
<text text-anchor="middle" x="802" y="-183" font-family="Helvetica,sans-Serif" font-size="10.00">_descriptor.hpp</text>
</a>
</g>
</g>
<!-- Node6&#45;&gt;Node34 -->
<g id="edge45" class="edge">
<title>Node6&#45;&gt;Node34</title>
<path fill="none" stroke="#63b8ff" d="M450.28,-242.48C521.41,-234.96 628.33,-222.64 730.67,-206.3"/>
<polygon fill="#63b8ff" stroke="#63b8ff" points="731.03,-209.78 740.35,-204.74 729.92,-202.87 731.03,-209.78"/>
</g>
<!-- Node11&#45;&gt;Node10 -->
<g id="edge13" class="edge">
<title>Node11&#45;&gt;Node10</title>
<path fill="none" stroke="#63b8ff" d="M477.81,-181.14C503.11,-169.03 540.62,-145.95 525,-121 513.7,-102.95 493.81,-91.25 474.5,-83.74"/>
<polygon fill="#63b8ff" stroke="#63b8ff" points="475.92,-80.53 465.32,-80.5 473.59,-87.13 475.92,-80.53"/>
</g>
<!-- Node12 -->
<g id="node12" class="node">
<title>Node12</title>
<g id="a_node12"><a xlink:title=" ">
<polygon fill="#e0e0e0" stroke="#999999" points="738,-79.5 620,-79.5 620,-60.5 738,-60.5 738,-79.5"/>
<text text-anchor="middle" x="679" y="-67.5" font-family="Helvetica,sans-Serif" font-size="10.00">boost/log/core/core.hpp</text>
</a>
</g>
</g>
<!-- Node11&#45;&gt;Node12 -->
<g id="edge11" class="edge">
<title>Node11&#45;&gt;Node12</title>
<path fill="none" stroke="#63b8ff" d="M473.69,-181.06C511.95,-160.55 606.26,-109.99 652.53,-85.19"/>
<polygon fill="#63b8ff" stroke="#63b8ff" points="653.93,-88.41 661.09,-80.6 650.62,-82.24 653.93,-88.41"/>
</g>
<!-- Node13 -->
<g id="node13" class="node">
<title>Node13</title>
<g id="a_node13"><a xlink:title=" ">
<polygon fill="#e0e0e0" stroke="#999999" points="897.5,-79.5 756.5,-79.5 756.5,-60.5 897.5,-60.5 897.5,-79.5"/>
<text text-anchor="middle" x="827" y="-67.5" font-family="Helvetica,sans-Serif" font-size="10.00">boost/log/sources/logger.hpp</text>
</a>
</g>
</g>
<!-- Node11&#45;&gt;Node13 -->
<g id="edge12" class="edge">
<title>Node11&#45;&gt;Node13</title>
<path fill="none" stroke="#63b8ff" d="M484.81,-181.06C550.11,-160.05 713.37,-107.54 788.3,-83.45"/>
<polygon fill="#63b8ff" stroke="#63b8ff" points="789.23,-86.82 797.68,-80.43 787.09,-80.16 789.23,-86.82"/>
</g>
<!-- Node14 -->
<g id="node14" class="node">
<title>Node14</title>
<g id="a_node14"><a xlink:href="_dma_buffer_abstract_8hpp.html" target="_top" xlink:title=" ">
<polygon fill="white" stroke="#666666" points="515.5,-140 398.5,-140 398.5,-121 515.5,-121 515.5,-140"/>
<text text-anchor="middle" x="457" y="-128" font-family="Helvetica,sans-Serif" font-size="10.00">DmaBufferAbstract.hpp</text>
</a>
</g>
</g>
<!-- Node11&#45;&gt;Node14 -->
<g id="edge14" class="edge">
<title>Node11&#45;&gt;Node14</title>
<path fill="none" stroke="#63b8ff" d="M457,-181.37C457,-173.5 457,-161.6 457,-151.39"/>
<polygon fill="#63b8ff" stroke="#63b8ff" points="460.5,-151.68 457,-141.68 453.5,-151.68 460.5,-151.68"/>
</g>
<!-- Node14&#45;&gt;Node5 -->
<g id="edge15" class="edge">
<title>Node14&#45;&gt;Node5</title>
<path fill="none" stroke="#63b8ff" d="M398.23,-125.88C334.76,-120.87 231.18,-109.51 145,-85 143.83,-84.67 142.65,-84.3 141.47,-83.91"/>
<polygon fill="#63b8ff" stroke="#63b8ff" points="142.96,-80.74 132.37,-80.41 140.45,-87.27 142.96,-80.74"/>
</g>
<!-- Node14&#45;&gt;Node7 -->
<g id="edge16" class="edge">
<title>Node14&#45;&gt;Node7</title>
<path fill="none" stroke="#63b8ff" d="M398.18,-123.21C346.89,-116.75 270.91,-104.78 207,-85 206.04,-84.7 205.07,-84.38 204.09,-84.04"/>
<polygon fill="#63b8ff" stroke="#63b8ff" points="205.73,-80.93 195.14,-80.48 203.14,-87.43 205.73,-80.93"/>
</g>
<!-- Node14&#45;&gt;Node9 -->
<g id="edge17" class="edge">
<title>Node14&#45;&gt;Node9</title>
<path fill="none" stroke="#63b8ff" d="M430.88,-120.62C401.83,-110.74 354.7,-94.71 321.9,-83.55"/>
<polygon fill="#63b8ff" stroke="#63b8ff" points="323.4,-80.36 312.8,-80.46 321.14,-86.99 323.4,-80.36"/>
</g>
<!-- Node15 -->
<g id="node15" class="node">
<title>Node15</title>
<g id="a_node15"><a xlink:href="_uio_config_8hpp.html" target="_top" xlink:title=" ">
<polygon fill="white" stroke="#666666" points="601.5,-79.5 490.5,-79.5 490.5,-60.5 601.5,-60.5 601.5,-79.5"/>
<text text-anchor="middle" x="546" y="-67.5" font-family="Helvetica,sans-Serif" font-size="10.00">udmaio/UioConfig.hpp</text>
</a>
</g>
</g>
<!-- Node14&#45;&gt;Node15 -->
<g id="edge18" class="edge">
<title>Node14&#45;&gt;Node15</title>
<path fill="none" stroke="#63b8ff" d="M470.52,-120.62C484.37,-111.51 506.18,-97.18 522.8,-86.25"/>
<polygon fill="#63b8ff" stroke="#63b8ff" points="524.66,-89.22 531.09,-80.8 520.81,-83.37 524.66,-89.22"/>
</g>
<!-- Node16 -->
<g id="node16" class="node">
<title>Node16</title>
<g id="a_node16"><a xlink:title=" ">
<polygon fill="#e0e0e0" stroke="#999999" points="830,-19 776,-19 776,0 830,0 830,-19"/>
<text text-anchor="middle" x="803" y="-7" font-family="Helvetica,sans-Serif" font-size="10.00">iostream</text>
</a>
</g>
</g>
<!-- Node15&#45;&gt;Node16 -->
<g id="edge19" class="edge">
<title>Node15&#45;&gt;Node16</title>
<path fill="none" stroke="#63b8ff" d="M585.31,-60.05C633.9,-48.99 716.04,-30.29 764.33,-19.3"/>
<polygon fill="#63b8ff" stroke="#63b8ff" points="765.09,-22.72 774.07,-17.09 763.54,-15.89 765.09,-22.72"/>
</g>
<!-- Node17 -->
<g id="node17" class="node">
<title>Node17</title>
<g id="a_node17"><a xlink:title=" ">
<polygon fill="#e0e0e0" stroke="#999999" points="541.5,-19 482.5,-19 482.5,0 541.5,0 541.5,-19"/>
<text text-anchor="middle" x="512" y="-7" font-family="Helvetica,sans-Serif" font-size="10.00">stdexcept</text>
</a>
</g>
</g>
<!-- Node15&#45;&gt;Node17 -->
<g id="edge20" class="edge">
<title>Node15&#45;&gt;Node17</title>
<path fill="none" stroke="#63b8ff" d="M540.98,-60.37C536.21,-52.16 528.88,-39.54 522.78,-29.05"/>
<polygon fill="#63b8ff" stroke="#63b8ff" points="525.85,-27.36 517.8,-20.48 519.8,-30.88 525.85,-27.36"/>
</g>
<!-- Node18 -->
<g id="node18" class="node">
<title>Node18</title>
<g id="a_node18"><a xlink:title=" ">
<polygon fill="#e0e0e0" stroke="#999999" points="600.5,-19 559.5,-19 559.5,0 600.5,0 600.5,-19"/>
<text text-anchor="middle" x="580" y="-7" font-family="Helvetica,sans-Serif" font-size="10.00">string</text>
</a>
</g>
</g>
<!-- Node15&#45;&gt;Node18 -->
<g id="edge21" class="edge">
<title>Node15&#45;&gt;Node18</title>
<path fill="none" stroke="#63b8ff" d="M551.02,-60.37C555.79,-52.16 563.12,-39.54 569.22,-29.05"/>
<polygon fill="#63b8ff" stroke="#63b8ff" points="572.2,-30.88 574.2,-20.48 566.15,-27.36 572.2,-30.88"/>
</g>
<!-- Node20 -->
<g id="node20" class="node">
<title>Node20</title>
<g id="a_node20"><a xlink:href="_uio_if_8hpp.html" target="_top" xlink:title=" ">
<polygon fill="white" stroke="#666666" points="1119,-140 1063,-140 1063,-121 1119,-121 1119,-140"/>
<text text-anchor="middle" x="1091" y="-128" font-family="Helvetica,sans-Serif" font-size="10.00">UioIf.hpp</text>
</a>
</g>
</g>
<!-- Node19&#45;&gt;Node20 -->
<g id="edge23" class="edge">
<title>Node19&#45;&gt;Node20</title>
<path fill="none" stroke="#63b8ff" d="M710.82,-181.02C718.07,-179.18 725.77,-177.38 733,-176 847.91,-154.06 985.72,-140.45 1051.84,-134.69"/>
<polygon fill="#63b8ff" stroke="#63b8ff" points="1051.78,-138.21 1061.45,-133.87 1051.19,-131.23 1051.78,-138.21"/>
</g>
<!-- Node20&#45;&gt;Node9 -->
<g id="edge28" class="edge">
<title>Node20&#45;&gt;Node9</title>
<path fill="none" stroke="#63b8ff" d="M1062.74,-128.98C965.19,-126.94 633.59,-117.86 362,-85 355.01,-84.15 347.69,-83.08 340.46,-81.9"/>
<polygon fill="#63b8ff" stroke="#63b8ff" points="341.18,-78.47 330.74,-80.23 340,-85.37 341.18,-78.47"/>
</g>
<!-- Node20&#45;&gt;Node10 -->
<g id="edge33" class="edge">
<title>Node20&#45;&gt;Node10</title>
<path fill="none" stroke="#63b8ff" d="M1062.6,-129C975.38,-127.13 703.92,-118.79 482,-85 477.3,-84.28 472.43,-83.4 467.58,-82.42"/>
<polygon fill="#63b8ff" stroke="#63b8ff" points="468.4,-79.01 457.88,-80.32 466.92,-85.85 468.4,-79.01"/>
</g>
<!-- Node20&#45;&gt;Node12 -->
<g id="edge29" class="edge">
<title>Node20&#45;&gt;Node12</title>
<path fill="none" stroke="#63b8ff" d="M1062.89,-126.54C1004.19,-120.21 864.4,-104.33 748,-85 742.77,-84.13 737.34,-83.16 731.92,-82.13"/>
<polygon fill="#63b8ff" stroke="#63b8ff" points="732.84,-78.75 722.36,-80.28 731.51,-85.62 732.84,-78.75"/>
</g>
<!-- Node20&#45;&gt;Node13 -->
<g id="edge32" class="edge">
<title>Node20&#45;&gt;Node13</title>
<path fill="none" stroke="#63b8ff" d="M1062.75,-123.24C1018.82,-113.51 933.48,-94.59 878.42,-82.4"/>
<polygon fill="#63b8ff" stroke="#63b8ff" points="879.5,-79.05 868.98,-80.3 877.98,-85.88 879.5,-79.05"/>
</g>
<!-- Node20&#45;&gt;Node15 -->
<g id="edge39" class="edge">
<title>Node20&#45;&gt;Node15</title>
<path fill="none" stroke="#63b8ff" d="M1062.72,-128.06C988.38,-124.03 781.41,-111.15 611,-85 605.78,-84.2 600.36,-83.24 594.96,-82.2"/>
<polygon fill="#63b8ff" stroke="#63b8ff" points="595.99,-78.84 585.49,-80.28 594.6,-85.7 595.99,-78.84"/>
</g>
<!-- Node20&#45;&gt;Node16 -->
<g id="edge26" class="edge">
<title>Node20&#45;&gt;Node16</title>
<path fill="none" stroke="#63b8ff" d="M1062.63,-124.14C1032.29,-117.67 983.39,-105.09 945,-85 925.93,-75.02 925.5,-65.99 907,-55 885.78,-42.38 860.32,-31.43 839.9,-23.54"/>
<polygon fill="#63b8ff" stroke="#63b8ff" points="841.14,-20.27 830.55,-20.02 838.68,-26.82 841.14,-20.27"/>
</g>
<!-- Node21 -->
<g id="node21" class="node">
<title>Node21</title>
<g id="a_node21"><a xlink:title=" ">
<polygon fill="#e0e0e0" stroke="#999999" points="1014,-79.5 954,-79.5 954,-60.5 1014,-60.5 1014,-79.5"/>
<text text-anchor="middle" x="984" y="-67.5" font-family="Helvetica,sans-Serif" font-size="10.00">filesystem</text>
</a>
</g>
</g>
<!-- Node20&#45;&gt;Node21 -->
<g id="edge24" class="edge">
<title>Node20&#45;&gt;Node21</title>
<path fill="none" stroke="#63b8ff" d="M1074.75,-120.62C1057.7,-111.29 1030.64,-96.5 1010.49,-85.49"/>
<polygon fill="#63b8ff" stroke="#63b8ff" points="1012.19,-82.42 1001.73,-80.69 1008.83,-88.56 1012.19,-82.42"/>
</g>
<!-- Node22 -->
<g id="node22" class="node">
<title>Node22</title>
<g id="a_node22"><a xlink:title=" ">
<polygon fill="#e0e0e0" stroke="#999999" points="1082,-79.5 1032,-79.5 1032,-60.5 1082,-60.5 1082,-79.5"/>
<text text-anchor="middle" x="1057" y="-67.5" font-family="Helvetica,sans-Serif" font-size="10.00">fstream</text>
</a>
</g>
</g>
<!-- Node20&#45;&gt;Node22 -->
<g id="edge25" class="edge">
<title>Node20&#45;&gt;Node22</title>
<path fill="none" stroke="#63b8ff" d="M1085.98,-120.87C1081.21,-112.66 1073.88,-100.04 1067.78,-89.55"/>
<polygon fill="#63b8ff" stroke="#63b8ff" points="1070.85,-87.86 1062.8,-80.98 1064.8,-91.38 1070.85,-87.86"/>
</g>
<!-- Node23 -->
<g id="node23" class="node">
<title>Node23</title>
<g id="a_node23"><a xlink:title=" ">
<polygon fill="#e0e0e0" stroke="#999999" points="1151.5,-79.5 1100.5,-79.5 1100.5,-60.5 1151.5,-60.5 1151.5,-79.5"/>
<text text-anchor="middle" x="1126" y="-67.5" font-family="Helvetica,sans-Serif" font-size="10.00">memory</text>
</a>
</g>
</g>
<!-- Node20&#45;&gt;Node23 -->
<g id="edge27" class="edge">
<title>Node20&#45;&gt;Node23</title>
<path fill="none" stroke="#63b8ff" d="M1096.16,-120.87C1101.13,-112.57 1108.78,-99.78 1115.1,-89.22"/>
<polygon fill="#63b8ff" stroke="#63b8ff" points="1117.91,-91.34 1120.04,-80.97 1111.9,-87.75 1117.91,-91.34"/>
</g>
<!-- Node24 -->
<g id="node24" class="node">
<title>Node24</title>
<g id="a_node24"><a xlink:title=" ">
<polygon fill="#e0e0e0" stroke="#999999" points="1298.5,-79.5 1169.5,-79.5 1169.5,-60.5 1298.5,-60.5 1298.5,-79.5"/>
<text text-anchor="middle" x="1234" y="-67.5" font-family="Helvetica,sans-Serif" font-size="10.00">boost/log/expressions.hpp</text>
</a>
</g>
</g>
<!-- Node20&#45;&gt;Node24 -->
<g id="edge30" class="edge">
<title>Node20&#45;&gt;Node24</title>
<path fill="none" stroke="#63b8ff" d="M1112.72,-120.62C1136.34,-110.95 1174.36,-95.4 1201.53,-84.28"/>
<polygon fill="#63b8ff" stroke="#63b8ff" points="1202.75,-87.57 1210.68,-80.54 1200.1,-81.09 1202.75,-87.57"/>
</g>
<!-- Node25 -->
<g id="node25" class="node">
<title>Node25</title>
<g id="a_node25"><a xlink:title=" ">
<polygon fill="#e0e0e0" stroke="#999999" points="1417.5,-85 1316.5,-85 1316.5,-55 1417.5,-55 1417.5,-85"/>
<text text-anchor="start" x="1324.5" y="-73" font-family="Helvetica,sans-Serif" font-size="10.00">boost/log/keywords</text>
<text text-anchor="middle" x="1367" y="-62" font-family="Helvetica,sans-Serif" font-size="10.00">/severity.hpp</text>
</a>
</g>
</g>
<!-- Node20&#45;&gt;Node25 -->
<g id="edge31" class="edge">
<title>Node20&#45;&gt;Node25</title>
<path fill="none" stroke="#63b8ff" d="M1119.49,-123.95C1159,-116.18 1232.92,-101.44 1305.08,-85.61"/>
<polygon fill="#63b8ff" stroke="#63b8ff" points="1305.68,-89.06 1314.7,-83.49 1304.18,-82.23 1305.68,-89.06"/>
</g>
<!-- Node26 -->
<g id="node26" class="node">
<title>Node26</title>
<g id="a_node26"><a xlink:title=" ">
<polygon fill="#e0e0e0" stroke="#999999" points="1478.5,-79.5 1435.5,-79.5 1435.5,-60.5 1478.5,-60.5 1478.5,-79.5"/>
<text text-anchor="middle" x="1457" y="-67.5" font-family="Helvetica,sans-Serif" font-size="10.00">fcntl.h</text>
</a>
</g>
</g>
<!-- Node20&#45;&gt;Node26 -->
<g id="edge34" class="edge">
<title>Node20&#45;&gt;Node26</title>
<path fill="none" stroke="#63b8ff" d="M1119.48,-128.64C1178.15,-126.24 1316.29,-117.33 1427,-85 1427.97,-84.72 1428.94,-84.41 1429.92,-84.08"/>
<polygon fill="#63b8ff" stroke="#63b8ff" points="1430.85,-87.48 1438.81,-80.49 1428.23,-80.98 1430.85,-87.48"/>
</g>
<!-- Node27 -->
<g id="node27" class="node">
<title>Node27</title>
<g id="a_node27"><a xlink:title=" ">
<polygon fill="#e0e0e0" stroke="#999999" points="1565.5,-79.5 1496.5,-79.5 1496.5,-60.5 1565.5,-60.5 1565.5,-79.5"/>
<text text-anchor="middle" x="1531" y="-67.5" font-family="Helvetica,sans-Serif" font-size="10.00">sys/mman.h</text>
</a>
</g>
</g>
<!-- Node20&#45;&gt;Node27 -->
<g id="edge35" class="edge">
<title>Node20&#45;&gt;Node27</title>
<path fill="none" stroke="#63b8ff" d="M1119.23,-128.3C1184.72,-125.11 1351.75,-114.5 1488,-85 1490.59,-84.44 1493.24,-83.78 1495.9,-83.07"/>
<polygon fill="#63b8ff" stroke="#63b8ff" points="1496.64,-86.5 1505.23,-80.3 1494.64,-79.79 1496.64,-86.5"/>
</g>
<!-- Node28 -->
<g id="node28" class="node">
<title>Node28</title>
<g id="a_node28"><a xlink:title=" ">
<polygon fill="#e0e0e0" stroke="#999999" points="1642.5,-79.5 1583.5,-79.5 1583.5,-60.5 1642.5,-60.5 1642.5,-79.5"/>
<text text-anchor="middle" x="1613" y="-67.5" font-family="Helvetica,sans-Serif" font-size="10.00">sys/stat.h</text>
</a>
</g>
</g>
<!-- Node20&#45;&gt;Node28 -->
<g id="edge36" class="edge">
<title>Node20&#45;&gt;Node28</title>
<path fill="none" stroke="#63b8ff" d="M1119.5,-129.46C1194.86,-128.8 1405.25,-123.38 1575,-85 1576.89,-84.57 1578.81,-84.08 1580.73,-83.53"/>
<polygon fill="#63b8ff" stroke="#63b8ff" points="1581.73,-86.89 1590.15,-80.46 1579.56,-80.23 1581.73,-86.89"/>
</g>
<!-- Node29 -->
<g id="node29" class="node">
<title>Node29</title>
<g id="a_node29"><a xlink:title=" ">
<polygon fill="#e0e0e0" stroke="#999999" points="1725.5,-79.5 1660.5,-79.5 1660.5,-60.5 1725.5,-60.5 1725.5,-79.5"/>
<text text-anchor="middle" x="1693" y="-67.5" font-family="Helvetica,sans-Serif" font-size="10.00">sys/types.h</text>
</a>
</g>
</g>
<!-- Node20&#45;&gt;Node29 -->
<g id="edge37" class="edge">
<title>Node20&#45;&gt;Node29</title>
<path fill="none" stroke="#63b8ff" d="M1119.37,-129.73C1202.29,-129.89 1451.09,-126.59 1652,-85 1654.45,-84.49 1656.96,-83.88 1659.47,-83.2"/>
<polygon fill="#63b8ff" stroke="#63b8ff" points="1660.31,-86.6 1668.85,-80.32 1658.26,-79.91 1660.31,-86.6"/>
</g>
<!-- Node30 -->
<g id="node30" class="node">
<title>Node30</title>
<g id="a_node30"><a xlink:title=" ">
<polygon fill="#e0e0e0" stroke="#999999" points="1794,-79.5 1744,-79.5 1744,-60.5 1794,-60.5 1794,-79.5"/>
<text text-anchor="middle" x="1769" y="-67.5" font-family="Helvetica,sans-Serif" font-size="10.00">unistd.h</text>
</a>
</g>
</g>
<!-- Node20&#45;&gt;Node30 -->
<g id="edge38" class="edge">
<title>Node20&#45;&gt;Node30</title>
<path fill="none" stroke="#63b8ff" d="M1119.24,-128.75C1227.4,-125.7 1615.23,-113.02 1735,-85 1736.59,-84.63 1738.21,-84.19 1739.82,-83.7"/>
<polygon fill="#63b8ff" stroke="#63b8ff" points="1740.63,-87.13 1748.87,-80.47 1738.27,-80.54 1740.63,-87.13"/>
</g>
<!-- Node31 -->
<g id="node31" class="node">
<title>Node31</title>
<g id="a_node31"><a xlink:title=" ">
<polygon fill="#e0e0e0" stroke="#999999" points="1936,-85 1812,-85 1812,-55 1936,-55 1936,-85"/>
<text text-anchor="start" x="1820" y="-73" font-family="Helvetica,sans-Serif" font-size="10.00">boost/log/sources/record</text>
<text text-anchor="middle" x="1874" y="-62" font-family="Helvetica,sans-Serif" font-size="10.00">_ostream.hpp</text>
</a>
</g>
</g>
<!-- Node20&#45;&gt;Node31 -->
<g id="edge40" class="edge">
<title>Node20&#45;&gt;Node31</title>
<path fill="none" stroke="#63b8ff" d="M1119.28,-129.07C1214.14,-127.36 1529.81,-119.4 1800.51,-85.2"/>
<polygon fill="#63b8ff" stroke="#63b8ff" points="1800.76,-88.69 1810.24,-83.95 1799.87,-81.75 1800.76,-88.69"/>
</g>
<!-- Node32 -->
<g id="node32" class="node">
<title>Node32</title>
<g id="a_node32"><a xlink:title=" ">
<polygon fill="#e0e0e0" stroke="#999999" points="2085.5,-85 1954.5,-85 1954.5,-55 2085.5,-55 2085.5,-85"/>
<text text-anchor="start" x="1962.5" y="-73" font-family="Helvetica,sans-Serif" font-size="10.00">boost/log/sources/severity</text>
<text text-anchor="middle" x="2020" y="-62" font-family="Helvetica,sans-Serif" font-size="10.00">_logger.hpp</text>
</a>
</g>
</g>
<!-- Node20&#45;&gt;Node32 -->
<g id="edge41" class="edge">
<title>Node20&#45;&gt;Node32</title>
<path fill="none" stroke="#63b8ff" d="M1119.5,-129.38C1226.38,-128.66 1613.67,-123.45 1943.03,-85.11"/>
<polygon fill="#63b8ff" stroke="#63b8ff" points="1943.2,-88.61 1952.72,-83.96 1942.38,-81.66 1943.2,-88.61"/>
</g>
<!-- Node33&#45;&gt;Node14 -->
<g id="edge43" class="edge">
<title>Node33&#45;&gt;Node14</title>
<path fill="none" stroke="#63b8ff" d="M548.6,-181.12C531.31,-171.75 503.82,-156.86 483.46,-145.83"/>
<polygon fill="#63b8ff" stroke="#63b8ff" points="485.35,-142.87 474.89,-141.19 482.01,-149.03 485.35,-142.87"/>
</g>
<!-- Node33&#45;&gt;Node20 -->
<g id="edge44" class="edge">
<title>Node33&#45;&gt;Node20</title>
<path fill="none" stroke="#63b8ff" d="M600.33,-181.07C608.7,-179.18 617.63,-177.35 626,-176 782.42,-150.68 970.95,-138.09 1051.45,-133.54"/>
<polygon fill="#63b8ff" stroke="#63b8ff" points="1051.23,-137.06 1061.02,-133.01 1050.84,-130.07 1051.23,-137.06"/>
</g>
</g>
</svg>
        <g id="navigator" transform="translate(0 0)" fill="#404254">
                <rect fill="#f2f5e9" fill-opacity="0.5" stroke="#606060" stroke-width=".5" x="0" y="0" width="60" height="60"/>
                <use id="zoomplus" xlink:href="#zoomPlus" x="17" y="9" onmousedown="handleZoom(evt,'in')"/>
                <use id="zoomminus" xlink:href="#zoomMin" x="42" y="9" onmousedown="handleZoom(evt,'out')"/>
                <use id="reset" xlink:href="#resetDef" x="30" y="36" onmousedown="handleReset()"/>
                <g id="arrowUp" xlink:href="#dirArrow" transform="translate(30 24)" onmousedown="handlePan(0,-1)">
                  <use xlink:href="#rim" fill="#404040">
                        <set attributeName="fill" to="#808080" begin="arrowUp.mouseover" end="arrowUp.mouseout"/>
                  </use>
                  <path fill="none" stroke="white" stroke-width="1.5" d="M0,-3.0v7 M-2.5,-0.5L0,-3.0L2.5,-0.5"/>
                </g>
                <g id="arrowRight" xlink:href="#dirArrow" transform="rotate(90) translate(36 -43)" onmousedown="handlePan(1,0)">
                  <use xlink:href="#rim" fill="#404040">
                        <set attributeName="fill" to="#808080" begin="arrowRight.mouseover" end="arrowRight.mouseout"/>
                  </use>
                  <path fill="none" stroke="white" stroke-width="1.5" d="M0,-3.0v7 M-2.5,-0.5L0,-3.0L2.5,-0.5"/>
                </g>
                <g id="arrowDown" xlink:href="#dirArrow" transform="rotate(180) translate(-30 -48)" onmousedown="handlePan(0,1)">
                  <use xlink:href="#rim" fill="#404040">
                        <set attributeName="fill" to="#808080" begin="arrowDown.mouseover" end="arrowDown.mouseout"/>
                  </use>
                  <path fill="none" stroke="white" stroke-width="1.5" d="M0,-3.0v7 M-2.5,-0.5L0,-3.0L2.5,-0.5"/>
                </g>
                <g id="arrowLeft" xlink:href="#dirArrow" transform="rotate(270) translate(-36 17)" onmousedown="handlePan(-1,0)">
                  <use xlink:href="#rim" fill="#404040">
                        <set attributeName="fill" to="#808080" begin="arrowLeft.mouseover" end="arrowLeft.mouseout"/>
                  </use>
                  <path fill="none" stroke="white" stroke-width="1.5" d="M0,-3.0v7 M-2.5,-0.5L0,-3.0L2.5,-0.5"/>
                </g>
        </g>
        <svg viewBox="0 0 15 15" width="100%" height="30px" preserveAspectRatio="xMaxYMin meet">
         <g id="arrow_out" transform="scale(0.3 0.3)">
          <a xlink:href="_data_handler_print_8hpp__incl_org.svg" target="_base">
           <rect id="button" ry="5" rx="5" y="6" x="6" height="38" width="38"
                fill="#f2f5e9" fill-opacity="0.5" stroke="#606060" stroke-width="1.0"/>
           <path id="arrow"
             d="M 11.500037,31.436501 C 11.940474,20.09759 22.043105,11.32322 32.158766,21.979434 L 37.068811,17.246167 C 37.068811,17.246167 37.088388,32 37.088388,32 L 22.160133,31.978069 C 22.160133,31.978069 26.997745,27.140456 26.997745,27.140456 C 18.528582,18.264221 13.291696,25.230495 11.500037,31.436501 z"
             style="fill:#404040;"/>
          </a>
         </g>
        </svg>
</svg>
