<?xml version="1.0" encoding="UTF-8" standalone="no"?>
<!DOCTYPE svg PUBLIC "-//W3C//DTD SVG 1.1//EN"
 "http://www.w3.org/Graphics/SVG/1.1/DTD/svg11.dtd">
<!-- Generated by graphviz version 7.0.5 (20221223.1930)
 -->
<!-- Title: DataHandlerPrint.hpp Pages: 1 -->
<!--zoomable 379 -->
<svg id="main" version="1.1" xmlns="http://www.w3.org/2000/svg" xmlns:xlink="http://www.w3.org/1999/xlink" xml:space="preserve" onload="init(evt)">
<style type="text/css"><![CDATA[
.edge:hover path { stroke: red; }
.edge:hover polygon { stroke: red; fill: red; }
]]></style>
<script type="text/javascript"><![CDATA[
var edges = document.getElementsByTagName('g');
if (edges && edges.length) {
  for (var i=0;i<edges.length;i++) {
    if (edges[i].id.substr(0,4)=='edge') {
      edges[i].setAttribute('class','edge');
    }
  }
}
]]></script>
        <defs>
                <circle id="rim" cx="0" cy="0" r="7"/>
                <circle id="rim2" cx="0" cy="0" r="3.5"/>
                <g id="zoomPlus">
                        <use xlink:href="#rim" fill="#404040">
                                <set attributeName="fill" to="#808080" begin="zoomplus.mouseover" end="zoomplus.mouseout"/>
                        </use>
                        <path d="M-4,0h8M0,-4v8" fill="none" stroke="white" stroke-width="1.5" pointer-events="none"/>
                </g>
                <g id="zoomMin">
                        <use xlink:href="#rim" fill="#404040">
                                <set attributeName="fill" to="#808080" begin="zoomminus.mouseover" end="zoomminus.mouseout"/>
                        </use>
                        <path d="M-4,0h8" fill="none" stroke="white" stroke-width="1.5" pointer-events="none"/>
                </g>
                <g id="dirArrow">
                        <path fill="none" stroke="white" stroke-width="1.5" d="M0,-3.0v7 M-2.5,-0.5L0,-3.0L2.5,-0.5"/>
                </g>
               <g id="resetDef">
                       <use xlink:href="#rim2" fill="#404040">
                               <set attributeName="fill" to="#808080" begin="reset.mouseover" end="reset.mouseout"/>
                       </use>
               </g>
        </defs>

<script type="text/javascript">
var viewWidth = 1892;
var viewHeight = 379;
var sectionId = 'dynsection-0';
</script>
<script xlink:href="svgpan.js"/>
<svg id="graph" class="graph">
<g id="viewport">
<title>DataHandlerPrint.hpp</title>
<!-- Node1 -->
<g id="node1" class="node">
<title>Node1</title>
<g id="a_node1"><a xlink:title=" ">
<polygon fill="#999999" stroke="#666666" points="1052,-371 943,-371 943,-352 1052,-352 1052,-371"/>
<text text-anchor="middle" x="997.5" y="-359" font-family="Helvetica,sans-Serif" font-size="10.00">DataHandlerPrint.hpp</text>
</a>
</g>
</g>
<!-- Node2 -->
<g id="node2" class="node">
<title>Node2</title>
<g id="a_node2"><a xlink:title=" ">
<polygon fill="#e0e0e0" stroke="#999999" points="900.5,-316 850.5,-316 850.5,-297 900.5,-297 900.5,-316"/>
<text text-anchor="middle" x="875.5" y="-304" font-family="Helvetica,sans-Serif" font-size="10.00">optional</text>
</a>
</g>
</g>
<!-- Node1&#45;&gt;Node2 -->
<g id="edge1" class="edge">
<title>Node1&#45;&gt;Node2</title>
<path fill="none" stroke="#63b8ff" d="M976.8,-351.51C957.5,-343.12 928.44,-330.5 906.39,-320.92"/>
<polygon fill="#63b8ff" stroke="#63b8ff" points="907.84,-317.74 897.28,-316.96 905.06,-324.16 907.84,-317.74"/>
</g>
<!-- Node3 -->
<g id="node3" class="node">
<title>Node3</title>
<g id="a_node3"><a xlink:title=" ">
<polygon fill="#e0e0e0" stroke="#999999" points="958,-316 919,-316 919,-297 958,-297 958,-316"/>
<text text-anchor="middle" x="938.5" y="-304" font-family="Helvetica,sans-Serif" font-size="10.00">utility</text>
</a>
</g>
</g>
<!-- Node1&#45;&gt;Node3 -->
<g id="edge2" class="edge">
<title>Node1&#45;&gt;Node3</title>
<path fill="none" stroke="#63b8ff" d="M987.49,-351.51C979.13,-344 967,-333.1 956.9,-324.03"/>
<polygon fill="#63b8ff" stroke="#63b8ff" points="959.26,-321.45 949.49,-317.37 954.59,-326.66 959.26,-321.45"/>
</g>
<!-- Node4 -->
<g id="node4" class="node">
<title>Node4</title>
<g id="a_node4"><a xlink:href="_axi_traffic_gen_lfsr_8hpp.html" target="_top" xlink:title=" ">
<polygon fill="white" stroke="#666666" points="1376.5,-195 1266.5,-195 1266.5,-176 1376.5,-176 1376.5,-195"/>
<text text-anchor="middle" x="1321.5" y="-183" font-family="Helvetica,sans-Serif" font-size="10.00">AxiTrafficGenLfsr.hpp</text>
</a>
</g>
</g>
<!-- Node1&#45;&gt;Node4 -->
<g id="edge3" class="edge">
<title>Node1&#45;&gt;Node4</title>
<path fill="none" stroke="#63b8ff" d="M1052.35,-355.25C1152.71,-344.39 1359.56,-315.77 1402.5,-261 1410.73,-250.51 1409.29,-242.48 1402.5,-231 1394.09,-216.78 1379.33,-206.79 1364.7,-199.94"/>
<polygon fill="#63b8ff" stroke="#63b8ff" points="1366.13,-196.75 1355.55,-196.08 1363.4,-203.2 1366.13,-196.75"/>
</g>
<!-- Node6 -->
<g id="node6" class="node">
<title>Node6</title>
<g id="a_node6"><a xlink:href="_data_handler_abstract_8hpp.html" target="_top" xlink:title=" ">
<polygon fill="white" stroke="#666666" points="1136.5,-316 976.5,-316 976.5,-297 1136.5,-297 1136.5,-316"/>
<text text-anchor="middle" x="1056.5" y="-304" font-family="Helvetica,sans-Serif" font-size="10.00">udmaio/DataHandlerAbstract.hpp</text>
</a>
</g>
</g>
<!-- Node1&#45;&gt;Node6 -->
<g id="edge5" class="edge">
<title>Node1&#45;&gt;Node6</title>
<path fill="none" stroke="#63b8ff" d="M1007.51,-351.51C1015.87,-344 1028,-333.1 1038.1,-324.03"/>
<polygon fill="#63b8ff" stroke="#63b8ff" points="1040.41,-326.66 1045.51,-317.37 1035.74,-321.45 1040.41,-326.66"/>
</g>
<!-- Node5 -->
<g id="node5" class="node">
<title>Node5</title>
<g id="a_node5"><a xlink:title=" ">
<polygon fill="#e0e0e0" stroke="#999999" points="1268.5,-140 1222.5,-140 1222.5,-121 1268.5,-121 1268.5,-140"/>
<text text-anchor="middle" x="1245.5" y="-128" font-family="Helvetica,sans-Serif" font-size="10.00">cstdint</text>
</a>
</g>
</g>
<!-- Node4&#45;&gt;Node5 -->
<g id="edge4" class="edge">
<title>Node4&#45;&gt;Node5</title>
<path fill="none" stroke="#63b8ff" d="M1308.61,-175.51C1297.4,-167.7 1280.93,-156.21 1267.62,-146.93"/>
<polygon fill="#63b8ff" stroke="#63b8ff" points="1269.65,-144.07 1259.44,-141.22 1265.64,-149.81 1269.65,-144.07"/>
</g>
<!-- Node7 -->
<g id="node7" class="node">
<title>Node7</title>
<g id="a_node7"><a xlink:title=" ">
<polygon fill="#e0e0e0" stroke="#999999" points="1562.5,-140 1518.5,-140 1518.5,-121 1562.5,-121 1562.5,-140"/>
<text text-anchor="middle" x="1540.5" y="-128" font-family="Helvetica,sans-Serif" font-size="10.00">vector</text>
</a>
</g>
</g>
<!-- Node6&#45;&gt;Node7 -->
<g id="edge6" class="edge">
<title>Node6&#45;&gt;Node7</title>
<path fill="none" stroke="#63b8ff" d="M1136.7,-303.72C1208.06,-300.15 1314.46,-289.9 1402.5,-261 1459.96,-242.14 1483.59,-242.12 1521.5,-195 1531.45,-182.63 1536.19,-165.16 1538.45,-151.67"/>
<polygon fill="#63b8ff" stroke="#63b8ff" points="1541.92,-152.13 1539.75,-141.76 1534.98,-151.22 1541.92,-152.13"/>
</g>
<!-- Node8 -->
<g id="node8" class="node">
<title>Node8</title>
<g id="a_node8"><a xlink:title=" ">
<polygon fill="#e0e0e0" stroke="#999999" points="585.5,-255.5 505.5,-255.5 505.5,-236.5 585.5,-236.5 585.5,-255.5"/>
<text text-anchor="middle" x="545.5" y="-243.5" font-family="Helvetica,sans-Serif" font-size="10.00">boost/asio.hpp</text>
</a>
</g>
</g>
<!-- Node6&#45;&gt;Node8 -->
<g id="edge7" class="edge">
<title>Node6&#45;&gt;Node8</title>
<path fill="none" stroke="#63b8ff" d="M976.23,-297.86C845.15,-285.37 599.14,-261.88 594.5,-261 591.28,-260.39 587.97,-259.66 584.66,-258.87"/>
<polygon fill="#63b8ff" stroke="#63b8ff" points="585.56,-255.49 575,-256.34 583.79,-262.26 585.56,-255.49"/>
</g>
<!-- Node9 -->
<g id="node9" class="node">
<title>Node9</title>
<g id="a_node9"><a xlink:title=" ">
<polygon fill="#e0e0e0" stroke="#999999" points="1747,-79.5 1610,-79.5 1610,-60.5 1747,-60.5 1747,-79.5"/>
<text text-anchor="middle" x="1678.5" y="-67.5" font-family="Helvetica,sans-Serif" font-size="10.00">boost/core/noncopyable.hpp</text>
</a>
</g>
</g>
<!-- Node6&#45;&gt;Node9 -->
<g id="edge8" class="edge">
<title>Node6&#45;&gt;Node9</title>
<path fill="none" stroke="#63b8ff" d="M1040.2,-296.65C1027.71,-288.96 1011.19,-276.6 1002.5,-261 984,-227.82 970.12,-205.94 993.5,-176 1052.9,-99.92 1528.68,-94.77 1600.5,-85 1607.22,-84.09 1614.24,-83.01 1621.2,-81.86"/>
<polygon fill="#63b8ff" stroke="#63b8ff" points="1621.65,-85.33 1630.92,-80.2 1620.47,-78.43 1621.65,-85.33"/>
</g>
<!-- Node10 -->
<g id="node10" class="node">
<title>Node10</title>
<g id="a_node10"><a xlink:title=" ">
<polygon fill="#e0e0e0" stroke="#999999" points="101,-79.5 0,-79.5 0,-60.5 101,-60.5 101,-79.5"/>
<text text-anchor="middle" x="50.5" y="-67.5" font-family="Helvetica,sans-Serif" font-size="10.00">boost/log/trivial.hpp</text>
</a>
</g>
</g>
<!-- Node6&#45;&gt;Node10 -->
<g id="edge9" class="edge">
<title>Node6&#45;&gt;Node10</title>
<path fill="none" stroke="#63b8ff" d="M976.04,-297.83C972.82,-297.54 969.63,-297.27 966.5,-297 757.76,-279.15 700.05,-310.59 496.5,-261 362.8,-228.43 338.08,-193.99 211.5,-140 166.26,-120.7 113.93,-98.25 81.52,-84.33"/>
<polygon fill="#63b8ff" stroke="#63b8ff" points="83.29,-81.28 72.72,-80.55 80.53,-87.71 83.29,-81.28"/>
</g>
<!-- Node11 -->
<g id="node11" class="node">
<title>Node11</title>
<g id="a_node11"><a xlink:href="_u_dma_buf_8hpp.html" target="_top" xlink:title=" ">
<polygon fill="white" stroke="#666666" points="681,-255.5 604,-255.5 604,-236.5 681,-236.5 681,-255.5"/>
<text text-anchor="middle" x="642.5" y="-243.5" font-family="Helvetica,sans-Serif" font-size="10.00">UDmaBuf.hpp</text>
</a>
</g>
</g>
<!-- Node6&#45;&gt;Node11 -->
<g id="edge10" class="edge">
<title>Node6&#45;&gt;Node11</title>
<path fill="none" stroke="#63b8ff" d="M993.17,-296.55C910.55,-284.88 767.66,-264.69 692.31,-254.04"/>
<polygon fill="#63b8ff" stroke="#63b8ff" points="693.15,-250.62 682.76,-252.69 692.17,-257.55 693.15,-250.62"/>
</g>
<!-- Node21 -->
<g id="node21" class="node">
<title>Node21</title>
<g id="a_node21"><a xlink:href="_uio_axi_dma_if_8hpp.html" target="_top" xlink:title=" ">
<polygon fill="white" stroke="#666666" points="1101,-255.5 1012,-255.5 1012,-236.5 1101,-236.5 1101,-255.5"/>
<text text-anchor="middle" x="1056.5" y="-243.5" font-family="Helvetica,sans-Serif" font-size="10.00">UioAxiDmaIf.hpp</text>
</a>
</g>
</g>
<!-- Node6&#45;&gt;Node21 -->
<g id="edge24" class="edge">
<title>Node6&#45;&gt;Node21</title>
<path fill="none" stroke="#63b8ff" d="M1056.5,-296.87C1056.5,-289 1056.5,-277.1 1056.5,-266.89"/>
<polygon fill="#63b8ff" stroke="#63b8ff" points="1060,-267.18 1056.5,-257.18 1053,-267.18 1060,-267.18"/>
</g>
<!-- Node36 -->
<g id="node36" class="node">
<title>Node36</title>
<g id="a_node36"><a xlink:href="_uio_mem_sgdma_8hpp.html" target="_top" xlink:title=" ">
<polygon fill="white" stroke="#666666" points="1255.5,-255.5 1153.5,-255.5 1153.5,-236.5 1255.5,-236.5 1255.5,-255.5"/>
<text text-anchor="middle" x="1204.5" y="-243.5" font-family="Helvetica,sans-Serif" font-size="10.00">UioMemSgdma.hpp</text>
</a>
</g>
</g>
<!-- Node6&#45;&gt;Node36 -->
<g id="edge50" class="edge">
<title>Node6&#45;&gt;Node36</title>
<path fill="none" stroke="#63b8ff" d="M1078.98,-296.62C1103.54,-286.91 1143.12,-271.26 1171.27,-260.14"/>
<polygon fill="#63b8ff" stroke="#63b8ff" points="1172.39,-263.46 1180.4,-256.52 1169.82,-256.95 1172.39,-263.46"/>
</g>
<!-- Node37 -->
<g id="node37" class="node">
<title>Node37</title>
<g id="a_node37"><a xlink:title=" ">
<polygon fill="#e0e0e0" stroke="#999999" points="1393.5,-261 1273.5,-261 1273.5,-231 1393.5,-231 1393.5,-261"/>
<text text-anchor="start" x="1281.5" y="-249" font-family="Helvetica,sans-Serif" font-size="10.00">boost/asio/posix/stream</text>
<text text-anchor="middle" x="1333.5" y="-238" font-family="Helvetica,sans-Serif" font-size="10.00">_descriptor.hpp</text>
</a>
</g>
</g>
<!-- Node6&#45;&gt;Node37 -->
<g id="edge53" class="edge">
<title>Node6&#45;&gt;Node37</title>
<path fill="none" stroke="#63b8ff" d="M1098.87,-296.55C1142.22,-287.4 1210.35,-273.01 1262.06,-262.09"/>
<polygon fill="#63b8ff" stroke="#63b8ff" points="1262.61,-265.55 1271.67,-260.06 1261.17,-258.7 1262.61,-265.55"/>
</g>
<!-- Node11&#45;&gt;Node10 -->
<g id="edge13" class="edge">
<title>Node11&#45;&gt;Node10</title>
<path fill="none" stroke="#63b8ff" d="M612.06,-236.01C606.24,-234.33 600.18,-232.59 594.5,-231 535.12,-214.37 519.8,-211.93 460.5,-195 323.73,-155.96 162.46,-106.04 89.65,-83.29"/>
<polygon fill="#63b8ff" stroke="#63b8ff" points="90.78,-79.97 80.19,-80.33 88.69,-86.65 90.78,-79.97"/>
</g>
<!-- Node12 -->
<g id="node12" class="node">
<title>Node12</title>
<g id="a_node12"><a xlink:title=" ">
<polygon fill="#e0e0e0" stroke="#999999" points="396.5,-79.5 278.5,-79.5 278.5,-60.5 396.5,-60.5 396.5,-79.5"/>
<text text-anchor="middle" x="337.5" y="-67.5" font-family="Helvetica,sans-Serif" font-size="10.00">boost/log/core/core.hpp</text>
</a>
</g>
</g>
<!-- Node11&#45;&gt;Node12 -->
<g id="edge11" class="edge">
<title>Node11&#45;&gt;Node12</title>
<path fill="none" stroke="#63b8ff" d="M626.96,-236.13C577.6,-207.97 424.1,-120.4 362.98,-85.54"/>
<polygon fill="#63b8ff" stroke="#63b8ff" points="364.75,-82.52 354.33,-80.6 361.28,-88.6 364.75,-82.52"/>
</g>
<!-- Node13 -->
<g id="node13" class="node">
<title>Node13</title>
<g id="a_node13"><a xlink:title=" ">
<polygon fill="#e0e0e0" stroke="#999999" points="260,-79.5 119,-79.5 119,-60.5 260,-60.5 260,-79.5"/>
<text text-anchor="middle" x="189.5" y="-67.5" font-family="Helvetica,sans-Serif" font-size="10.00">boost/log/sources/logger.hpp</text>
</a>
</g>
</g>
<!-- Node11&#45;&gt;Node13 -->
<g id="edge12" class="edge">
<title>Node11&#45;&gt;Node13</title>
<path fill="none" stroke="#63b8ff" d="M619.1,-236.01C544.38,-207.31 311.29,-117.78 223.45,-84.04"/>
<polygon fill="#63b8ff" stroke="#63b8ff" points="224.76,-80.8 214.17,-80.48 222.25,-87.33 224.76,-80.8"/>
</g>
<!-- Node14 -->
<g id="node14" class="node">
<title>Node14</title>
<g id="a_node14"><a xlink:href="_dma_buffer_abstract_8hpp.html" target="_top" xlink:title=" ">
<polygon fill="white" stroke="#666666" points="1512,-195 1395,-195 1395,-176 1512,-176 1512,-195"/>
<text text-anchor="middle" x="1453.5" y="-183" font-family="Helvetica,sans-Serif" font-size="10.00">DmaBufferAbstract.hpp</text>
</a>
</g>
</g>
<!-- Node11&#45;&gt;Node14 -->
<g id="edge14" class="edge">
<title>Node11&#45;&gt;Node14</title>
<path fill="none" stroke="#63b8ff" d="M681.24,-243.18C790.01,-237.89 1107.69,-221.3 1383.12,-195.17"/>
<polygon fill="#63b8ff" stroke="#63b8ff" points="1383.42,-198.66 1393.04,-194.22 1382.76,-191.69 1383.42,-198.66"/>
</g>
<!-- Node14&#45;&gt;Node5 -->
<g id="edge15" class="edge">
<title>Node14&#45;&gt;Node5</title>
<path fill="none" stroke="#63b8ff" d="M1418.22,-175.51C1379.67,-165.69 1318.32,-150.05 1280.06,-140.31"/>
<polygon fill="#63b8ff" stroke="#63b8ff" points="1281,-136.93 1270.44,-137.86 1279.27,-143.72 1281,-136.93"/>
</g>
<!-- Node14&#45;&gt;Node7 -->
<g id="edge16" class="edge">
<title>Node14&#45;&gt;Node7</title>
<path fill="none" stroke="#63b8ff" d="M1468.26,-175.51C1481.46,-167.47 1501.06,-155.53 1516.51,-146.11"/>
<polygon fill="#63b8ff" stroke="#63b8ff" points="1517.95,-149.34 1524.67,-141.15 1514.31,-143.36 1517.95,-149.34"/>
</g>
<!-- Node14&#45;&gt;Node9 -->
<g id="edge17" class="edge">
<title>Node14&#45;&gt;Node9</title>
<path fill="none" stroke="#63b8ff" d="M1454.13,-175.68C1455.6,-161.92 1460.47,-135.43 1476.5,-121 1487.4,-111.19 1565.68,-93.72 1621.52,-82.25"/>
<polygon fill="#63b8ff" stroke="#63b8ff" points="1622.13,-85.69 1631.23,-80.27 1620.73,-78.84 1622.13,-85.69"/>
</g>
<!-- Node15 -->
<g id="node15" class="node">
<title>Node15</title>
<g id="a_node15"><a xlink:href="_uio_config_8hpp.html" target="_top" xlink:title=" ">
<polygon fill="white" stroke="#666666" points="1876,-79.5 1765,-79.5 1765,-60.5 1876,-60.5 1876,-79.5"/>
<text text-anchor="middle" x="1820.5" y="-67.5" font-family="Helvetica,sans-Serif" font-size="10.00">udmaio/UioConfig.hpp</text>
</a>
</g>
</g>
<!-- Node14&#45;&gt;Node15 -->
<g id="edge18" class="edge">
<title>Node14&#45;&gt;Node15</title>
<path fill="none" stroke="#63b8ff" d="M1458.38,-175.77C1466.79,-161.64 1485.46,-134.02 1509.5,-121 1607.05,-68.16 1647.36,-104.87 1756.5,-85 1761.09,-84.16 1765.86,-83.24 1770.63,-82.27"/>
<polygon fill="#63b8ff" stroke="#63b8ff" points="1771.12,-85.74 1780.19,-80.26 1769.68,-78.89 1771.12,-85.74"/>
</g>
<!-- Node16 -->
<g id="node16" class="node">
<title>Node16</title>
<g id="a_node16"><a xlink:title=" ">
<polygon fill="#e0e0e0" stroke="#999999" points="953.5,-19 899.5,-19 899.5,0 953.5,0 953.5,-19"/>
<text text-anchor="middle" x="926.5" y="-7" font-family="Helvetica,sans-Serif" font-size="10.00">iostream</text>
</a>
</g>
</g>
<!-- Node15&#45;&gt;Node16 -->
<g id="edge19" class="edge">
<title>Node15&#45;&gt;Node16</title>
<path fill="none" stroke="#63b8ff" d="M1784.47,-60.05C1775.39,-58.09 1765.63,-56.24 1756.5,-55 1453.72,-14.04 1084.03,-10.39 965.22,-10.36"/>
<polygon fill="#63b8ff" stroke="#63b8ff" points="965.39,-6.86 955.39,-10.36 965.39,-13.86 965.39,-6.86"/>
</g>
<!-- Node17 -->
<g id="node17" class="node">
<title>Node17</title>
<g id="a_node17"><a xlink:title=" ">
<polygon fill="#e0e0e0" stroke="#999999" points="1474,-19 1423,-19 1423,0 1474,0 1474,-19"/>
<text text-anchor="middle" x="1448.5" y="-7" font-family="Helvetica,sans-Serif" font-size="10.00">memory</text>
</a>
</g>
</g>
<!-- Node15&#45;&gt;Node17 -->
<g id="edge20" class="edge">
<title>Node15&#45;&gt;Node17</title>
<path fill="none" stroke="#63b8ff" d="M1781.67,-60.04C1773.38,-58.26 1764.67,-56.48 1756.5,-55 1659.02,-37.32 1543.17,-22.14 1485.27,-14.94"/>
<polygon fill="#63b8ff" stroke="#63b8ff" points="1486.01,-11.51 1475.66,-13.76 1485.15,-18.46 1486.01,-11.51"/>
</g>
<!-- Node18 -->
<g id="node18" class="node">
<title>Node18</title>
<g id="a_node18"><a xlink:title=" ">
<polygon fill="#e0e0e0" stroke="#999999" points="1884,-19 1825,-19 1825,0 1884,0 1884,-19"/>
<text text-anchor="middle" x="1854.5" y="-7" font-family="Helvetica,sans-Serif" font-size="10.00">stdexcept</text>
</a>
</g>
</g>
<!-- Node15&#45;&gt;Node18 -->
<g id="edge21" class="edge">
<title>Node15&#45;&gt;Node18</title>
<path fill="none" stroke="#63b8ff" d="M1825.52,-60.37C1830.29,-52.16 1837.62,-39.54 1843.72,-29.05"/>
<polygon fill="#63b8ff" stroke="#63b8ff" points="1846.7,-30.88 1848.7,-20.48 1840.65,-27.36 1846.7,-30.88"/>
</g>
<!-- Node19 -->
<g id="node19" class="node">
<title>Node19</title>
<g id="a_node19"><a xlink:title=" ">
<polygon fill="#e0e0e0" stroke="#999999" points="1807,-19 1766,-19 1766,0 1807,0 1807,-19"/>
<text text-anchor="middle" x="1786.5" y="-7" font-family="Helvetica,sans-Serif" font-size="10.00">string</text>
</a>
</g>
</g>
<!-- Node15&#45;&gt;Node19 -->
<g id="edge22" class="edge">
<title>Node15&#45;&gt;Node19</title>
<path fill="none" stroke="#63b8ff" d="M1815.48,-60.37C1810.71,-52.16 1803.38,-39.54 1797.28,-29.05"/>
<polygon fill="#63b8ff" stroke="#63b8ff" points="1800.35,-27.36 1792.3,-20.48 1794.3,-30.88 1800.35,-27.36"/>
</g>
<!-- Node20 -->
<g id="node20" class="node">
<title>Node20</title>
<g id="a_node20"><a xlink:title=" ">
<polygon fill="#e0e0e0" stroke="#999999" points="1644.5,-19 1578.5,-19 1578.5,0 1644.5,0 1644.5,-19"/>
<text text-anchor="middle" x="1611.5" y="-7" font-family="Helvetica,sans-Serif" font-size="10.00">string_view</text>
</a>
</g>
</g>
<!-- Node15&#45;&gt;Node20 -->
<g id="edge23" class="edge">
<title>Node15&#45;&gt;Node20</title>
<path fill="none" stroke="#63b8ff" d="M1788.76,-60.12C1752.93,-50.09 1694.44,-33.72 1654.53,-22.54"/>
<polygon fill="#63b8ff" stroke="#63b8ff" points="1655.57,-19.2 1645,-19.88 1653.69,-25.94 1655.57,-19.2"/>
</g>
<!-- Node22 -->
<g id="node22" class="node">
<title>Node22</title>
<g id="a_node22"><a xlink:href="_uio_if_8hpp.html" target="_top" xlink:title=" ">
<polygon fill="white" stroke="#666666" points="964.5,-140 908.5,-140 908.5,-121 964.5,-121 964.5,-140"/>
<text text-anchor="middle" x="936.5" y="-128" font-family="Helvetica,sans-Serif" font-size="10.00">UioIf.hpp</text>
</a>
</g>
</g>
<!-- Node21&#45;&gt;Node22 -->
<g id="edge25" class="edge">
<title>Node21&#45;&gt;Node22</title>
<path fill="none" stroke="#63b8ff" d="M1044.4,-236.35C1031.34,-226.8 1010.18,-210.69 993.5,-195 977.87,-180.29 961.68,-161.9 950.57,-148.7"/>
<polygon fill="#63b8ff" stroke="#63b8ff" points="953.5,-146.76 944.42,-141.3 948.12,-151.23 953.5,-146.76"/>
</g>
<!-- Node34 -->
<g id="node34" class="node">
<title>Node34</title>
<g id="a_node34"><a xlink:href="_axi_dma_8hpp.html" target="_top" xlink:title=" ">
<polygon fill="white" stroke="#666666" points="1210.5,-195 1128.5,-195 1128.5,-176 1210.5,-176 1210.5,-195"/>
<text text-anchor="middle" x="1169.5" y="-183" font-family="Helvetica,sans-Serif" font-size="10.00">rdl/AxiDma.hpp</text>
</a>
</g>
</g>
<!-- Node21&#45;&gt;Node34 -->
<g id="edge45" class="edge">
<title>Node21&#45;&gt;Node34</title>
<path fill="none" stroke="#63b8ff" d="M1073.66,-236.12C1091.83,-226.71 1120.78,-211.72 1142.11,-200.68"/>
<polygon fill="#63b8ff" stroke="#63b8ff" points="1143.56,-203.87 1150.83,-196.16 1140.34,-197.65 1143.56,-203.87"/>
</g>
<!-- Node35 -->
<g id="node35" class="node">
<title>Node35</title>
<g id="a_node35"><a xlink:href="_reg_accessor_8hpp.html" target="_top" xlink:title=" ">
<polygon fill="white" stroke="#666666" points="1110,-195 1003,-195 1003,-176 1110,-176 1110,-195"/>
<text text-anchor="middle" x="1056.5" y="-183" font-family="Helvetica,sans-Serif" font-size="10.00">rdl/RegAccessor.hpp</text>
</a>
</g>
</g>
<!-- Node21&#45;&gt;Node35 -->
<g id="edge47" class="edge">
<title>Node21&#45;&gt;Node35</title>
<path fill="none" stroke="#63b8ff" d="M1056.5,-236.37C1056.5,-228.5 1056.5,-216.6 1056.5,-206.39"/>
<polygon fill="#63b8ff" stroke="#63b8ff" points="1060,-206.68 1056.5,-196.68 1053,-206.68 1060,-206.68"/>
</g>
<!-- Node22&#45;&gt;Node9 -->
<g id="edge31" class="edge">
<title>Node22&#45;&gt;Node9</title>
<path fill="none" stroke="#63b8ff" d="M964.88,-123.19C969.41,-122.34 974.07,-121.57 978.5,-121 1253.12,-85.45 1325.51,-117.52 1600.5,-85 1607.67,-84.15 1615.17,-83.06 1622.58,-81.87"/>
<polygon fill="#63b8ff" stroke="#63b8ff" points="1622.91,-85.36 1632.19,-80.25 1621.74,-78.46 1622.91,-85.36"/>
</g>
<!-- Node22&#45;&gt;Node10 -->
<g id="edge36" class="edge">
<title>Node22&#45;&gt;Node10</title>
<path fill="none" stroke="#63b8ff" d="M908.12,-129.81C802.18,-130.57 420.09,-129.84 109.5,-85 104.62,-84.3 99.55,-83.38 94.53,-82.36"/>
<polygon fill="#63b8ff" stroke="#63b8ff" points="95.68,-79.03 85.16,-80.3 94.18,-85.86 95.68,-79.03"/>
</g>
<!-- Node22&#45;&gt;Node12 -->
<g id="edge32" class="edge">
<title>Node22&#45;&gt;Node12</title>
<path fill="none" stroke="#63b8ff" d="M908.16,-128.15C829.11,-124.17 599.57,-111.05 410.5,-85 404.19,-84.13 397.61,-83.08 391.08,-81.94"/>
<polygon fill="#63b8ff" stroke="#63b8ff" points="392.18,-78.58 381.71,-80.24 390.93,-85.47 392.18,-78.58"/>
</g>
<!-- Node22&#45;&gt;Node13 -->
<g id="edge35" class="edge">
<title>Node22&#45;&gt;Node13</title>
<path fill="none" stroke="#63b8ff" d="M908.12,-128.69C815.8,-125.82 515.79,-114.68 269.5,-85 262.25,-84.13 254.66,-83.03 247.16,-81.84"/>
<polygon fill="#63b8ff" stroke="#63b8ff" points="247.84,-78.41 237.4,-80.23 246.7,-85.32 247.84,-78.41"/>
</g>
<!-- Node22&#45;&gt;Node15 -->
<g id="edge42" class="edge">
<title>Node22&#45;&gt;Node15</title>
<path fill="none" stroke="#63b8ff" d="M964.74,-128.58C1090.27,-124.39 1598.45,-106.43 1756.5,-85 1762.06,-84.25 1767.86,-83.26 1773.59,-82.16"/>
<polygon fill="#63b8ff" stroke="#63b8ff" points="1773.88,-85.68 1782.98,-80.25 1772.48,-78.82 1773.88,-85.68"/>
</g>
<!-- Node22&#45;&gt;Node16 -->
<g id="edge28" class="edge">
<title>Node22&#45;&gt;Node16</title>
<path fill="none" stroke="#63b8ff" d="M908.2,-129.12C808.08,-127.48 474.99,-119.46 443.5,-85 434.51,-75.16 434.51,-64.85 443.5,-55 473.24,-22.39 778.18,-13.35 887.65,-11.14"/>
<polygon fill="#63b8ff" stroke="#63b8ff" points="887.66,-14.64 897.59,-10.95 887.53,-7.64 887.66,-14.64"/>
</g>
<!-- Node22&#45;&gt;Node17 -->
<g id="edge29" class="edge">
<title>Node22&#45;&gt;Node17</title>
<path fill="none" stroke="#63b8ff" d="M964.89,-123.31C969.43,-122.45 974.08,-121.64 978.5,-121 1066.82,-108.13 1298.26,-124.07 1378.5,-85 1404.11,-72.53 1425.12,-46.41 1437.24,-28.66"/>
<polygon fill="#63b8ff" stroke="#63b8ff" points="1439.95,-30.9 1442.48,-20.61 1434.09,-27.08 1439.95,-30.9"/>
</g>
<!-- Node22&#45;&gt;Node20 -->
<g id="edge30" class="edge">
<title>Node22&#45;&gt;Node20</title>
<path fill="none" stroke="#63b8ff" d="M964.89,-123.29C969.43,-122.43 974.08,-121.63 978.5,-121 1169.24,-93.85 1228.91,-149.39 1410.5,-85 1432.81,-77.09 1433.06,-65.02 1454.5,-55 1490.89,-37.99 1535.13,-26.17 1567.36,-19.01"/>
<polygon fill="#63b8ff" stroke="#63b8ff" points="1567.71,-22.52 1576.75,-16.99 1566.24,-15.67 1567.71,-22.52"/>
</g>
<!-- Node23 -->
<g id="node23" class="node">
<title>Node23</title>
<g id="a_node23"><a xlink:title=" ">
<polygon fill="#e0e0e0" stroke="#999999" points="1523.5,-79.5 1463.5,-79.5 1463.5,-60.5 1523.5,-60.5 1523.5,-79.5"/>
<text text-anchor="middle" x="1493.5" y="-67.5" font-family="Helvetica,sans-Serif" font-size="10.00">filesystem</text>
</a>
</g>
</g>
<!-- Node22&#45;&gt;Node23 -->
<g id="edge26" class="edge">
<title>Node22&#45;&gt;Node23</title>
<path fill="none" stroke="#63b8ff" d="M964.89,-123.26C969.42,-122.41 974.08,-121.61 978.5,-121 1186.45,-92.12 1243.42,-125.1 1449.5,-85 1452.32,-84.45 1455.22,-83.78 1458.11,-83.03"/>
<polygon fill="#63b8ff" stroke="#63b8ff" points="1459,-86.42 1467.64,-80.29 1457.06,-79.69 1459,-86.42"/>
</g>
<!-- Node24 -->
<g id="node24" class="node">
<title>Node24</title>
<g id="a_node24"><a xlink:title=" ">
<polygon fill="#e0e0e0" stroke="#999999" points="1591.5,-79.5 1541.5,-79.5 1541.5,-60.5 1591.5,-60.5 1591.5,-79.5"/>
<text text-anchor="middle" x="1566.5" y="-67.5" font-family="Helvetica,sans-Serif" font-size="10.00">fstream</text>
</a>
</g>
</g>
<!-- Node22&#45;&gt;Node24 -->
<g id="edge27" class="edge">
<title>Node22&#45;&gt;Node24</title>
<path fill="none" stroke="#63b8ff" d="M964.88,-123.22C969.42,-122.37 974.08,-121.59 978.5,-121 1223.09,-88.45 1292.13,-140.71 1532.5,-85 1534.09,-84.63 1535.71,-84.19 1537.33,-83.71"/>
<polygon fill="#63b8ff" stroke="#63b8ff" points="1538.13,-87.14 1546.37,-80.48 1535.78,-80.55 1538.13,-87.14"/>
</g>
<!-- Node25 -->
<g id="node25" class="node">
<title>Node25</title>
<g id="a_node25"><a xlink:title=" ">
<polygon fill="#e0e0e0" stroke="#999999" points="582,-79.5 453,-79.5 453,-60.5 582,-60.5 582,-79.5"/>
<text text-anchor="middle" x="517.5" y="-67.5" font-family="Helvetica,sans-Serif" font-size="10.00">boost/log/expressions.hpp</text>
</a>
</g>
</g>
<!-- Node22&#45;&gt;Node25 -->
<g id="edge33" class="edge">
<title>Node22&#45;&gt;Node25</title>
<path fill="none" stroke="#63b8ff" d="M908.16,-126.45C848.98,-119.96 708.01,-103.81 590.5,-85 584.83,-84.09 578.93,-83.08 573.04,-82.02"/>
<polygon fill="#63b8ff" stroke="#63b8ff" points="573.77,-78.6 563.31,-80.23 572.51,-85.48 573.77,-78.6"/>
</g>
<!-- Node26 -->
<g id="node26" class="node">
<title>Node26</title>
<g id="a_node26"><a xlink:title=" ">
<polygon fill="#e0e0e0" stroke="#999999" points="701,-85 600,-85 600,-55 701,-55 701,-85"/>
<text text-anchor="start" x="608" y="-73" font-family="Helvetica,sans-Serif" font-size="10.00">boost/log/keywords</text>
<text text-anchor="middle" x="650.5" y="-62" font-family="Helvetica,sans-Serif" font-size="10.00">/severity.hpp</text>
</a>
</g>
</g>
<!-- Node22&#45;&gt;Node26 -->
<g id="edge34" class="edge">
<title>Node22&#45;&gt;Node26</title>
<path fill="none" stroke="#63b8ff" d="M908.11,-124.31C867.08,-116.72 788.55,-101.9 712.52,-85.61"/>
<polygon fill="#63b8ff" stroke="#63b8ff" points="713.31,-82.2 702.8,-83.51 711.84,-89.04 713.31,-82.2"/>
</g>
<!-- Node27 -->
<g id="node27" class="node">
<title>Node27</title>
<g id="a_node27"><a xlink:title=" ">
<polygon fill="#e0e0e0" stroke="#999999" points="762,-79.5 719,-79.5 719,-60.5 762,-60.5 762,-79.5"/>
<text text-anchor="middle" x="740.5" y="-67.5" font-family="Helvetica,sans-Serif" font-size="10.00">fcntl.h</text>
</a>
</g>
</g>
<!-- Node22&#45;&gt;Node27 -->
<g id="edge37" class="edge">
<title>Node22&#45;&gt;Node27</title>
<path fill="none" stroke="#63b8ff" d="M908.13,-123.49C874.71,-116.04 817.74,-102.2 770.5,-85 769.88,-84.77 769.25,-84.54 768.61,-84.29"/>
<polygon fill="#63b8ff" stroke="#63b8ff" points="770.34,-81.22 759.76,-80.55 767.61,-87.67 770.34,-81.22"/>
</g>
<!-- Node28 -->
<g id="node28" class="node">
<title>Node28</title>
<g id="a_node28"><a xlink:title=" ">
<polygon fill="#e0e0e0" stroke="#999999" points="849,-79.5 780,-79.5 780,-60.5 849,-60.5 849,-79.5"/>
<text text-anchor="middle" x="814.5" y="-67.5" font-family="Helvetica,sans-Serif" font-size="10.00">sys/mman.h</text>
</a>
</g>
</g>
<!-- Node22&#45;&gt;Node28 -->
<g id="edge38" class="edge">
<title>Node22&#45;&gt;Node28</title>
<path fill="none" stroke="#63b8ff" d="M917.97,-120.62C898.18,-111.12 866.53,-95.95 843.45,-84.88"/>
<polygon fill="#63b8ff" stroke="#63b8ff" points="845.1,-81.79 834.57,-80.62 842.07,-88.1 845.1,-81.79"/>
</g>
<!-- Node29 -->
<g id="node29" class="node">
<title>Node29</title>
<g id="a_node29"><a xlink:title=" ">
<polygon fill="#e0e0e0" stroke="#999999" points="926,-79.5 867,-79.5 867,-60.5 926,-60.5 926,-79.5"/>
<text text-anchor="middle" x="896.5" y="-67.5" font-family="Helvetica,sans-Serif" font-size="10.00">sys/stat.h</text>
</a>
</g>
</g>
<!-- Node22&#45;&gt;Node29 -->
<g id="edge39" class="edge">
<title>Node22&#45;&gt;Node29</title>
<path fill="none" stroke="#63b8ff" d="M930.6,-120.87C924.87,-112.49 915.99,-99.51 908.74,-88.89"/>
<polygon fill="#63b8ff" stroke="#63b8ff" points="911.81,-87.2 903.28,-80.92 906.04,-91.15 911.81,-87.2"/>
</g>
<!-- Node30 -->
<g id="node30" class="node">
<title>Node30</title>
<g id="a_node30"><a xlink:title=" ">
<polygon fill="#e0e0e0" stroke="#999999" points="1009,-79.5 944,-79.5 944,-60.5 1009,-60.5 1009,-79.5"/>
<text text-anchor="middle" x="976.5" y="-67.5" font-family="Helvetica,sans-Serif" font-size="10.00">sys/types.h</text>
</a>
</g>
</g>
<!-- Node22&#45;&gt;Node30 -->
<g id="edge40" class="edge">
<title>Node22&#45;&gt;Node30</title>
<path fill="none" stroke="#63b8ff" d="M942.4,-120.87C948.13,-112.49 957.01,-99.51 964.26,-88.89"/>
<polygon fill="#63b8ff" stroke="#63b8ff" points="966.96,-91.15 969.72,-80.92 961.19,-87.2 966.96,-91.15"/>
</g>
<!-- Node31 -->
<g id="node31" class="node">
<title>Node31</title>
<g id="a_node31"><a xlink:title=" ">
<polygon fill="#e0e0e0" stroke="#999999" points="1077.5,-79.5 1027.5,-79.5 1027.5,-60.5 1077.5,-60.5 1077.5,-79.5"/>
<text text-anchor="middle" x="1052.5" y="-67.5" font-family="Helvetica,sans-Serif" font-size="10.00">unistd.h</text>
</a>
</g>
</g>
<!-- Node22&#45;&gt;Node31 -->
<g id="edge41" class="edge">
<title>Node22&#45;&gt;Node31</title>
<path fill="none" stroke="#63b8ff" d="M954.12,-120.62C972.85,-111.17 1002.75,-96.09 1024.68,-85.03"/>
<polygon fill="#63b8ff" stroke="#63b8ff" points="1026.01,-88.28 1033.36,-80.65 1022.86,-82.03 1026.01,-88.28"/>
</g>
<!-- Node32 -->
<g id="node32" class="node">
<title>Node32</title>
<g id="a_node32"><a xlink:title=" ">
<polygon fill="#e0e0e0" stroke="#999999" points="1219.5,-85 1095.5,-85 1095.5,-55 1219.5,-55 1219.5,-85"/>
<text text-anchor="start" x="1103.5" y="-73" font-family="Helvetica,sans-Serif" font-size="10.00">boost/log/sources/record</text>
<text text-anchor="middle" x="1157.5" y="-62" font-family="Helvetica,sans-Serif" font-size="10.00">_ostream.hpp</text>
</a>
</g>
</g>
<!-- Node22&#45;&gt;Node32 -->
<g id="edge43" class="edge">
<title>Node22&#45;&gt;Node32</title>
<path fill="none" stroke="#63b8ff" d="M964.94,-121.97C996.83,-113.53 1049.61,-99.56 1091.86,-88.38"/>
<polygon fill="#63b8ff" stroke="#63b8ff" points="1092.67,-91.78 1101.45,-85.84 1090.88,-85.01 1092.67,-91.78"/>
</g>
<!-- Node33 -->
<g id="node33" class="node">
<title>Node33</title>
<g id="a_node33"><a xlink:title=" ">
<polygon fill="#e0e0e0" stroke="#999999" points="1369,-85 1238,-85 1238,-55 1369,-55 1369,-85"/>
<text text-anchor="start" x="1246" y="-73" font-family="Helvetica,sans-Serif" font-size="10.00">boost/log/sources/severity</text>
<text text-anchor="middle" x="1303.5" y="-62" font-family="Helvetica,sans-Serif" font-size="10.00">_logger.hpp</text>
</a>
</g>
</g>
<!-- Node22&#45;&gt;Node33 -->
<g id="edge44" class="edge">
<title>Node22&#45;&gt;Node33</title>
<path fill="none" stroke="#63b8ff" d="M964.93,-123.52C969.46,-122.63 974.1,-121.76 978.5,-121 1085.55,-102.48 1115.81,-103.23 1226.36,-85.3"/>
<polygon fill="#63b8ff" stroke="#63b8ff" points="1226.88,-88.76 1236.18,-83.69 1225.75,-81.86 1226.88,-88.76"/>
</g>
<!-- Node34&#45;&gt;Node5 -->
<g id="edge46" class="edge">
<title>Node34&#45;&gt;Node5</title>
<path fill="none" stroke="#63b8ff" d="M1182.39,-175.51C1193.6,-167.7 1210.07,-156.21 1223.38,-146.93"/>
<polygon fill="#63b8ff" stroke="#63b8ff" points="1225.36,-149.81 1231.56,-141.22 1221.35,-144.07 1225.36,-149.81"/>
</g>
<!-- Node35&#45;&gt;Node5 -->
<g id="edge48" class="edge">
<title>Node35&#45;&gt;Node5</title>
<path fill="none" stroke="#63b8ff" d="M1088.56,-175.51C1122.62,-165.96 1176.28,-150.91 1211.18,-141.12"/>
<polygon fill="#63b8ff" stroke="#63b8ff" points="1212.1,-144.5 1220.78,-138.43 1210.21,-137.76 1212.1,-144.5"/>
</g>
<!-- Node35&#45;&gt;Node22 -->
<g id="edge49" class="edge">
<title>Node35&#45;&gt;Node22</title>
<path fill="none" stroke="#63b8ff" d="M1036.14,-175.51C1017.15,-167.12 988.57,-154.5 966.88,-144.92"/>
<polygon fill="#63b8ff" stroke="#63b8ff" points="968.5,-141.81 957.94,-140.97 965.67,-148.21 968.5,-141.81"/>
</g>
<!-- Node36&#45;&gt;Node14 -->
<g id="edge51" class="edge">
<title>Node36&#45;&gt;Node14</title>
<path fill="none" stroke="#63b8ff" d="M1242.59,-236.05C1285.98,-225.86 1356.99,-209.17 1404.47,-198.02"/>
<polygon fill="#63b8ff" stroke="#63b8ff" points="1405.01,-201.49 1413.94,-195.79 1403.41,-194.67 1405.01,-201.49"/>
</g>
<!-- Node36&#45;&gt;Node22 -->
<g id="edge52" class="edge">
<title>Node36&#45;&gt;Node22</title>
<path fill="none" stroke="#63b8ff" d="M1210.58,-236.23C1219.69,-221.9 1234.32,-193.33 1219.5,-176 1188.64,-139.91 1046.36,-132.9 976.05,-131.67"/>
<polygon fill="#63b8ff" stroke="#63b8ff" points="976.17,-128.17 966.12,-131.53 976.07,-135.17 976.17,-128.17"/>
</g>
</g>
</svg>
        <g id="navigator" transform="translate(0 0)" fill="#404254">
                <rect fill="#f2f5e9" fill-opacity="0.5" stroke="#606060" stroke-width=".5" x="0" y="0" width="60" height="60"/>
                <use id="zoomplus" xlink:href="#zoomPlus" x="17" y="9" onmousedown="handleZoom(evt,'in')"/>
                <use id="zoomminus" xlink:href="#zoomMin" x="42" y="9" onmousedown="handleZoom(evt,'out')"/>
                <use id="reset" xlink:href="#resetDef" x="30" y="36" onmousedown="handleReset()"/>
                <g id="arrowUp" xlink:href="#dirArrow" transform="translate(30 24)" onmousedown="handlePan(0,-1)">
                  <use xlink:href="#rim" fill="#404040">
                        <set attributeName="fill" to="#808080" begin="arrowUp.mouseover" end="arrowUp.mouseout"/>
                  </use>
                  <path fill="none" stroke="white" stroke-width="1.5" d="M0,-3.0v7 M-2.5,-0.5L0,-3.0L2.5,-0.5"/>
                </g>
                <g id="arrowRight" xlink:href="#dirArrow" transform="rotate(90) translate(36 -43)" onmousedown="handlePan(1,0)">
                  <use xlink:href="#rim" fill="#404040">
                        <set attributeName="fill" to="#808080" begin="arrowRight.mouseover" end="arrowRight.mouseout"/>
                  </use>
                  <path fill="none" stroke="white" stroke-width="1.5" d="M0,-3.0v7 M-2.5,-0.5L0,-3.0L2.5,-0.5"/>
                </g>
                <g id="arrowDown" xlink:href="#dirArrow" transform="rotate(180) translate(-30 -48)" onmousedown="handlePan(0,1)">
                  <use xlink:href="#rim" fill="#404040">
                        <set attributeName="fill" to="#808080" begin="arrowDown.mouseover" end="arrowDown.mouseout"/>
                  </use>
                  <path fill="none" stroke="white" stroke-width="1.5" d="M0,-3.0v7 M-2.5,-0.5L0,-3.0L2.5,-0.5"/>
                </g>
                <g id="arrowLeft" xlink:href="#dirArrow" transform="rotate(270) translate(-36 17)" onmousedown="handlePan(-1,0)">
                  <use xlink:href="#rim" fill="#404040">
                        <set attributeName="fill" to="#808080" begin="arrowLeft.mouseover" end="arrowLeft.mouseout"/>
                  </use>
                  <path fill="none" stroke="white" stroke-width="1.5" d="M0,-3.0v7 M-2.5,-0.5L0,-3.0L2.5,-0.5"/>
                </g>
        </g>
        <svg viewBox="0 0 15 15" width="100%" height="30px" preserveAspectRatio="xMaxYMin meet">
         <g id="arrow_out" transform="scale(0.3 0.3)">
          <a xlink:href="_data_handler_print_8hpp__incl_org.svg" target="_base">
           <rect id="button" ry="5" rx="5" y="6" x="6" height="38" width="38"
                fill="#f2f5e9" fill-opacity="0.5" stroke="#606060" stroke-width="1.0"/>
           <path id="arrow"
             d="M 11.500037,31.436501 C 11.940474,20.09759 22.043105,11.32322 32.158766,21.979434 L 37.068811,17.246167 C 37.068811,17.246167 37.088388,32 37.088388,32 L 22.160133,31.978069 C 22.160133,31.978069 26.997745,27.140456 26.997745,27.140456 C 18.528582,18.264221 13.291696,25.230495 11.500037,31.436501 z"
             style="fill:#404040;"/>
          </a>
         </g>
        </svg>
</svg>
