<?xml version="1.0" encoding="UTF-8" standalone="no"?>
<!DOCTYPE svg PUBLIC "-//W3C//DTD SVG 1.1//EN"
 "http://www.w3.org/Graphics/SVG/1.1/DTD/svg11.dtd">
<!-- Generated by graphviz version 7.0.5 (20221223.1930)
 -->
<!-- Title: DataHandlerPrint.cpp Pages: 1 -->
<!--zoomable 434 -->
<svg id="main" version="1.1" xmlns="http://www.w3.org/2000/svg" xmlns:xlink="http://www.w3.org/1999/xlink" xml:space="preserve" onload="init(evt)">
<style type="text/css"><![CDATA[
.edge:hover path { stroke: red; }
.edge:hover polygon { stroke: red; fill: red; }
]]></style>
<script type="text/javascript"><![CDATA[
var edges = document.getElementsByTagName('g');
if (edges && edges.length) {
  for (var i=0;i<edges.length;i++) {
    if (edges[i].id.substr(0,4)=='edge') {
      edges[i].setAttribute('class','edge');
    }
  }
}
]]></script>
        <defs>
                <circle id="rim" cx="0" cy="0" r="7"/>
                <circle id="rim2" cx="0" cy="0" r="3.5"/>
                <g id="zoomPlus">
                        <use xlink:href="#rim" fill="#404040">
                                <set attributeName="fill" to="#808080" begin="zoomplus.mouseover" end="zoomplus.mouseout"/>
                        </use>
                        <path d="M-4,0h8M0,-4v8" fill="none" stroke="white" stroke-width="1.5" pointer-events="none"/>
                </g>
                <g id="zoomMin">
                        <use xlink:href="#rim" fill="#404040">
                                <set attributeName="fill" to="#808080" begin="zoomminus.mouseover" end="zoomminus.mouseout"/>
                        </use>
                        <path d="M-4,0h8" fill="none" stroke="white" stroke-width="1.5" pointer-events="none"/>
                </g>
                <g id="dirArrow">
                        <path fill="none" stroke="white" stroke-width="1.5" d="M0,-3.0v7 M-2.5,-0.5L0,-3.0L2.5,-0.5"/>
                </g>
               <g id="resetDef">
                       <use xlink:href="#rim2" fill="#404040">
                               <set attributeName="fill" to="#808080" begin="reset.mouseover" end="reset.mouseout"/>
                       </use>
               </g>
        </defs>

<script type="text/javascript">
var viewWidth = 1553;
var viewHeight = 434;
var sectionId = 'dynsection-0';
</script>
<script xlink:href="svgpan.js"/>
<svg id="graph" class="graph">
<g id="viewport">
<title>DataHandlerPrint.cpp</title>
<!-- Node1 -->
<g id="node1" class="node">
<title>Node1</title>
<g id="a_node1"><a xlink:title=" ">
<polygon fill="#999999" stroke="#666666" points="1527,-426 1418,-426 1418,-407 1527,-407 1527,-426"/>
<text text-anchor="middle" x="1472.5" y="-414" font-family="Helvetica,sans-Serif" font-size="10.00">DataHandlerPrint.cpp</text>
</a>
</g>
</g>
<!-- Node2 -->
<g id="node2" class="node">
<title>Node2</title>
<g id="a_node2"><a xlink:href="_data_handler_print_8hpp.html" target="_top" xlink:title=" ">
<polygon fill="white" stroke="#666666" points="870,-371 761,-371 761,-352 870,-352 870,-371"/>
<text text-anchor="middle" x="815.5" y="-359" font-family="Helvetica,sans-Serif" font-size="10.00">DataHandlerPrint.hpp</text>
</a>
</g>
</g>
<!-- Node1&#45;&gt;Node2 -->
<g id="edge1" class="edge">
<title>Node1&#45;&gt;Node2</title>
<path fill="none" stroke="#63b8ff" d="M1417.61,-411.07C1297.42,-401.38 1011.32,-378.3 881.54,-367.83"/>
<polygon fill="#63b8ff" stroke="#63b8ff" points="881.99,-364.35 871.74,-367.04 881.42,-371.33 881.99,-364.35"/>
</g>
<!-- Node23 -->
<g id="node23" class="node">
<title>Node23</title>
<g id="a_node23"><a xlink:title=" ">
<polygon fill="#e0e0e0" stroke="#999999" points="1499.5,-24.5 1445.5,-24.5 1445.5,-5.5 1499.5,-5.5 1499.5,-24.5"/>
<text text-anchor="middle" x="1472.5" y="-12.5" font-family="Helvetica,sans-Serif" font-size="10.00">iostream</text>
</a>
</g>
</g>
<!-- Node1&#45;&gt;Node23 -->
<g id="edge56" class="edge">
<title>Node1&#45;&gt;Node23</title>
<path fill="none" stroke="#63b8ff" d="M1472.5,-406.54C1472.5,-388.03 1472.5,-344.25 1472.5,-307.5 1472.5,-307.5 1472.5,-307.5 1472.5,-129.5 1472.5,-96.89 1472.5,-59 1472.5,-36.29"/>
<polygon fill="#63b8ff" stroke="#63b8ff" points="1476,-36.34 1472.5,-26.34 1469,-36.34 1476,-36.34"/>
</g>
<!-- Node40 -->
<g id="node40" class="node">
<title>Node40</title>
<g id="a_node40"><a xlink:title=" ">
<polygon fill="#e0e0e0" stroke="#999999" points="1544.5,-371 1500.5,-371 1500.5,-352 1544.5,-352 1544.5,-371"/>
<text text-anchor="middle" x="1522.5" y="-359" font-family="Helvetica,sans-Serif" font-size="10.00">thread</text>
</a>
</g>
</g>
<!-- Node1&#45;&gt;Node40 -->
<g id="edge57" class="edge">
<title>Node1&#45;&gt;Node40</title>
<path fill="none" stroke="#63b8ff" d="M1480.76,-406.75C1487.66,-399.43 1497.72,-388.76 1506.24,-379.74"/>
<polygon fill="#63b8ff" stroke="#63b8ff" points="1508.71,-382.22 1513.03,-372.54 1503.62,-377.42 1508.71,-382.22"/>
</g>
<!-- Node3 -->
<g id="node3" class="node">
<title>Node3</title>
<g id="a_node3"><a xlink:title=" ">
<polygon fill="#e0e0e0" stroke="#999999" points="963.5,-316 913.5,-316 913.5,-297 963.5,-297 963.5,-316"/>
<text text-anchor="middle" x="938.5" y="-304" font-family="Helvetica,sans-Serif" font-size="10.00">optional</text>
</a>
</g>
</g>
<!-- Node2&#45;&gt;Node3 -->
<g id="edge2" class="edge">
<title>Node2&#45;&gt;Node3</title>
<path fill="none" stroke="#63b8ff" d="M836.37,-351.51C855.92,-343.08 885.4,-330.38 907.67,-320.79"/>
<polygon fill="#63b8ff" stroke="#63b8ff" points="908.75,-324.13 916.55,-316.96 905.98,-317.7 908.75,-324.13"/>
</g>
<!-- Node4 -->
<g id="node4" class="node">
<title>Node4</title>
<g id="a_node4"><a xlink:title=" ">
<polygon fill="#e0e0e0" stroke="#999999" points="382,-316 343,-316 343,-297 382,-297 382,-316"/>
<text text-anchor="middle" x="362.5" y="-304" font-family="Helvetica,sans-Serif" font-size="10.00">utility</text>
</a>
</g>
</g>
<!-- Node2&#45;&gt;Node4 -->
<g id="edge3" class="edge">
<title>Node2&#45;&gt;Node4</title>
<path fill="none" stroke="#63b8ff" d="M760.59,-357.11C680.2,-351.61 525.97,-338.94 396.5,-316 395.48,-315.82 394.44,-315.62 393.4,-315.42"/>
<polygon fill="#63b8ff" stroke="#63b8ff" points="394.18,-312.01 383.65,-313.24 392.65,-318.84 394.18,-312.01"/>
</g>
<!-- Node5 -->
<g id="node5" class="node">
<title>Node5</title>
<g id="a_node5"><a xlink:href="_axi_traffic_gen_lfsr_8hpp.html" target="_top" xlink:title=" ">
<polygon fill="white" stroke="#666666" points="624.5,-195 514.5,-195 514.5,-176 624.5,-176 624.5,-195"/>
<text text-anchor="middle" x="569.5" y="-183" font-family="Helvetica,sans-Serif" font-size="10.00">AxiTrafficGenLfsr.hpp</text>
</a>
</g>
</g>
<!-- Node2&#45;&gt;Node5 -->
<g id="edge4" class="edge">
<title>Node2&#45;&gt;Node5</title>
<path fill="none" stroke="#63b8ff" d="M784.3,-351.59C741.31,-338.01 663.4,-308.57 612.5,-261 595.99,-245.58 583.98,-222.36 576.91,-205.96"/>
<polygon fill="#63b8ff" stroke="#63b8ff" points="580.21,-204.78 573.22,-196.82 573.72,-207.41 580.21,-204.78"/>
</g>
<!-- Node7 -->
<g id="node7" class="node">
<title>Node7</title>
<g id="a_node7"><a xlink:href="_data_handler_abstract_8hpp.html" target="_top" xlink:title=" ">
<polygon fill="white" stroke="#666666" points="895.5,-316 735.5,-316 735.5,-297 895.5,-297 895.5,-316"/>
<text text-anchor="middle" x="815.5" y="-304" font-family="Helvetica,sans-Serif" font-size="10.00">udmaio/DataHandlerAbstract.hpp</text>
</a>
</g>
</g>
<!-- Node2&#45;&gt;Node7 -->
<g id="edge6" class="edge">
<title>Node2&#45;&gt;Node7</title>
<path fill="none" stroke="#63b8ff" d="M815.5,-351.75C815.5,-345.27 815.5,-336.16 815.5,-327.9"/>
<polygon fill="#63b8ff" stroke="#63b8ff" points="819,-327.96 815.5,-317.96 812,-327.96 819,-327.96"/>
</g>
<!-- Node6 -->
<g id="node6" class="node">
<title>Node6</title>
<g id="a_node6"><a xlink:title=" ">
<polygon fill="#e0e0e0" stroke="#999999" points="748.5,-140 702.5,-140 702.5,-121 748.5,-121 748.5,-140"/>
<text text-anchor="middle" x="725.5" y="-128" font-family="Helvetica,sans-Serif" font-size="10.00">cstdint</text>
</a>
</g>
</g>
<!-- Node5&#45;&gt;Node6 -->
<g id="edge5" class="edge">
<title>Node5&#45;&gt;Node6</title>
<path fill="none" stroke="#63b8ff" d="M595.96,-175.51C622.29,-166.57 662.78,-152.81 691.48,-143.06"/>
<polygon fill="#63b8ff" stroke="#63b8ff" points="692.45,-146.43 700.79,-139.9 690.2,-139.8 692.45,-146.43"/>
</g>
<!-- Node8 -->
<g id="node8" class="node">
<title>Node8</title>
<g id="a_node8"><a xlink:title=" ">
<polygon fill="#e0e0e0" stroke="#999999" points="1083,-24.5 1042,-24.5 1042,-5.5 1083,-5.5 1083,-24.5"/>
<text text-anchor="middle" x="1062.5" y="-12.5" font-family="Helvetica,sans-Serif" font-size="10.00">string</text>
</a>
</g>
</g>
<!-- Node7&#45;&gt;Node8 -->
<g id="edge7" class="edge">
<title>Node7&#45;&gt;Node8</title>
<path fill="none" stroke="#63b8ff" d="M895.91,-296.94C1004.56,-285.25 1185.5,-265.23 1191.5,-261 1221.72,-239.71 1228.5,-223.47 1228.5,-186.5 1228.5,-186.5 1228.5,-186.5 1228.5,-129.5 1228.5,-100.04 1229.94,-87.21 1209.5,-66 1179.1,-34.45 1128.04,-22.81 1094.82,-18.51"/>
<polygon fill="#63b8ff" stroke="#63b8ff" points="1095.28,-15.04 1084.96,-17.41 1094.51,-22 1095.28,-15.04"/>
</g>
<!-- Node9 -->
<g id="node9" class="node">
<title>Node9</title>
<g id="a_node9"><a xlink:title=" ">
<polygon fill="#e0e0e0" stroke="#999999" points="1186.5,-140 1142.5,-140 1142.5,-121 1186.5,-121 1186.5,-140"/>
<text text-anchor="middle" x="1164.5" y="-128" font-family="Helvetica,sans-Serif" font-size="10.00">vector</text>
</a>
</g>
</g>
<!-- Node7&#45;&gt;Node9 -->
<g id="edge8" class="edge">
<title>Node7&#45;&gt;Node9</title>
<path fill="none" stroke="#63b8ff" d="M895.86,-296.78C999.45,-285.35 1166.95,-266.15 1171.5,-261 1198.36,-230.57 1183.92,-178.79 1173.03,-150.81"/>
<polygon fill="#63b8ff" stroke="#63b8ff" points="1176.36,-149.7 1169.29,-141.81 1169.89,-152.39 1176.36,-149.7"/>
</g>
<!-- Node10 -->
<g id="node10" class="node">
<title>Node10</title>
<g id="a_node10"><a xlink:title=" ">
<polygon fill="#e0e0e0" stroke="#999999" points="701.5,-255.5 621.5,-255.5 621.5,-236.5 701.5,-236.5 701.5,-255.5"/>
<text text-anchor="middle" x="661.5" y="-243.5" font-family="Helvetica,sans-Serif" font-size="10.00">boost/asio.hpp</text>
</a>
</g>
</g>
<!-- Node7&#45;&gt;Node10 -->
<g id="edge9" class="edge">
<title>Node7&#45;&gt;Node10</title>
<path fill="none" stroke="#63b8ff" d="M792.11,-296.62C766.44,-286.87 725,-271.12 695.69,-259.99"/>
<polygon fill="#63b8ff" stroke="#63b8ff" points="697.12,-256.79 686.52,-256.51 694.63,-263.33 697.12,-256.79"/>
</g>
<!-- Node11 -->
<g id="node11" class="node">
<title>Node11</title>
<g id="a_node11"><a xlink:title=" ">
<polygon fill="#e0e0e0" stroke="#999999" points="639,-85 502,-85 502,-66 639,-66 639,-85"/>
<text text-anchor="middle" x="570.5" y="-73" font-family="Helvetica,sans-Serif" font-size="10.00">boost/core/noncopyable.hpp</text>
</a>
</g>
</g>
<!-- Node7&#45;&gt;Node11 -->
<g id="edge10" class="edge">
<title>Node7&#45;&gt;Node11</title>
<path fill="none" stroke="#63b8ff" d="M735.14,-304.13C658.98,-297.82 549.84,-274.45 505.5,-195 485.14,-158.53 524.53,-115.48 550.41,-92.64"/>
<polygon fill="#63b8ff" stroke="#63b8ff" points="552.37,-95.56 557.73,-86.42 547.84,-90.23 552.37,-95.56"/>
</g>
<!-- Node12 -->
<g id="node12" class="node">
<title>Node12</title>
<g id="a_node12"><a xlink:href="_logging_8hpp.html" target="_top" xlink:title=" ">
<polygon fill="white" stroke="#666666" points="484,-85 415,-85 415,-66 484,-66 484,-85"/>
<text text-anchor="middle" x="449.5" y="-73" font-family="Helvetica,sans-Serif" font-size="10.00">Logging.hpp</text>
</a>
</g>
</g>
<!-- Node7&#45;&gt;Node12 -->
<g id="edge11" class="edge">
<title>Node7&#45;&gt;Node12</title>
<path fill="none" stroke="#63b8ff" d="M735.24,-300.89C662.99,-295.33 563.4,-283.74 531.5,-261 476.11,-221.51 457.58,-135.87 451.85,-96.74"/>
<polygon fill="#63b8ff" stroke="#63b8ff" points="455.33,-96.35 450.56,-86.89 448.39,-97.26 455.33,-96.35"/>
</g>
<!-- Node20 -->
<g id="node20" class="node">
<title>Node20</title>
<g id="a_node20"><a xlink:href="_u_dma_buf_8hpp.html" target="_top" xlink:title=" ">
<polygon fill="white" stroke="#666666" points="904,-255.5 827,-255.5 827,-236.5 904,-236.5 904,-255.5"/>
<text text-anchor="middle" x="865.5" y="-243.5" font-family="Helvetica,sans-Serif" font-size="10.00">UDmaBuf.hpp</text>
</a>
</g>
</g>
<!-- Node7&#45;&gt;Node20 -->
<g id="edge20" class="edge">
<title>Node7&#45;&gt;Node20</title>
<path fill="none" stroke="#63b8ff" d="M822.88,-296.87C830.19,-288.31 841.59,-274.97 850.76,-264.24"/>
<polygon fill="#63b8ff" stroke="#63b8ff" points="853.27,-266.69 857.11,-256.82 847.95,-262.15 853.27,-266.69"/>
</g>
<!-- Node27 -->
<g id="node27" class="node">
<title>Node27</title>
<g id="a_node27"><a xlink:href="_uio_axi_dma_if_8hpp.html" target="_top" xlink:title=" ">
<polygon fill="white" stroke="#666666" points="809,-255.5 720,-255.5 720,-236.5 809,-236.5 809,-255.5"/>
<text text-anchor="middle" x="764.5" y="-243.5" font-family="Helvetica,sans-Serif" font-size="10.00">UioAxiDmaIf.hpp</text>
</a>
</g>
</g>
<!-- Node7&#45;&gt;Node27 -->
<g id="edge32" class="edge">
<title>Node7&#45;&gt;Node27</title>
<path fill="none" stroke="#63b8ff" d="M807.97,-296.87C800.52,-288.31 788.89,-274.97 779.53,-264.24"/>
<polygon fill="#63b8ff" stroke="#63b8ff" points="782.26,-262.05 773.05,-256.81 776.98,-266.65 782.26,-262.05"/>
</g>
<!-- Node38 -->
<g id="node38" class="node">
<title>Node38</title>
<g id="a_node38"><a xlink:href="_uio_mem_sgdma_8hpp.html" target="_top" xlink:title=" ">
<polygon fill="white" stroke="#666666" points="1024.5,-255.5 922.5,-255.5 922.5,-236.5 1024.5,-236.5 1024.5,-255.5"/>
<text text-anchor="middle" x="973.5" y="-243.5" font-family="Helvetica,sans-Serif" font-size="10.00">UioMemSgdma.hpp</text>
</a>
</g>
</g>
<!-- Node7&#45;&gt;Node38 -->
<g id="edge52" class="edge">
<title>Node7&#45;&gt;Node38</title>
<path fill="none" stroke="#63b8ff" d="M839.5,-296.62C865.95,-286.82 908.72,-270.98 938.82,-259.84"/>
<polygon fill="#63b8ff" stroke="#63b8ff" points="939.7,-263.25 947.86,-256.49 937.26,-256.68 939.7,-263.25"/>
</g>
<!-- Node39 -->
<g id="node39" class="node">
<title>Node39</title>
<g id="a_node39"><a xlink:title=" ">
<polygon fill="#e0e0e0" stroke="#999999" points="1162.5,-261 1042.5,-261 1042.5,-231 1162.5,-231 1162.5,-261"/>
<text text-anchor="start" x="1050.5" y="-249" font-family="Helvetica,sans-Serif" font-size="10.00">boost/asio/posix/stream</text>
<text text-anchor="middle" x="1102.5" y="-238" font-family="Helvetica,sans-Serif" font-size="10.00">_descriptor.hpp</text>
</a>
</g>
</g>
<!-- Node7&#45;&gt;Node39 -->
<g id="edge55" class="edge">
<title>Node7&#45;&gt;Node39</title>
<path fill="none" stroke="#63b8ff" d="M859.4,-296.55C904.99,-287.26 977.05,-272.57 1030.9,-261.59"/>
<polygon fill="#63b8ff" stroke="#63b8ff" points="1031.52,-265.04 1040.62,-259.61 1030.12,-258.18 1031.52,-265.04"/>
</g>
<!-- Node12&#45;&gt;Node8 -->
<g id="edge12" class="edge">
<title>Node12&#45;&gt;Node8</title>
<path fill="none" stroke="#63b8ff" d="M484.18,-67.3C486.99,-66.82 489.79,-66.38 492.5,-66 680.22,-39.58 728.71,-47.11 917.5,-30 956.46,-26.47 1001.28,-22.09 1030.65,-19.18"/>
<polygon fill="#63b8ff" stroke="#63b8ff" points="1030.75,-22.69 1040.35,-18.22 1030.05,-15.73 1030.75,-22.69"/>
</g>
<!-- Node13 -->
<g id="node13" class="node">
<title>Node13</title>
<g id="a_node13"><a xlink:title=" ">
<polygon fill="#e0e0e0" stroke="#999999" points="366.5,-24.5 270.5,-24.5 270.5,-5.5 366.5,-5.5 366.5,-24.5"/>
<text text-anchor="middle" x="318.5" y="-12.5" font-family="Helvetica,sans-Serif" font-size="10.00">boost/log/core.hpp</text>
</a>
</g>
</g>
<!-- Node12&#45;&gt;Node13 -->
<g id="edge13" class="edge">
<title>Node12&#45;&gt;Node13</title>
<path fill="none" stroke="#63b8ff" d="M429.6,-65.62C408.16,-56.04 373.76,-40.68 348.91,-29.58"/>
<polygon fill="#63b8ff" stroke="#63b8ff" points="350.52,-26.47 339.97,-25.59 347.67,-32.86 350.52,-26.47"/>
</g>
<!-- Node14 -->
<g id="node14" class="node">
<title>Node14</title>
<g id="a_node14"><a xlink:title=" ">
<polygon fill="#e0e0e0" stroke="#999999" points="514,-24.5 385,-24.5 385,-5.5 514,-5.5 514,-24.5"/>
<text text-anchor="middle" x="449.5" y="-12.5" font-family="Helvetica,sans-Serif" font-size="10.00">boost/log/expressions.hpp</text>
</a>
</g>
</g>
<!-- Node12&#45;&gt;Node14 -->
<g id="edge14" class="edge">
<title>Node12&#45;&gt;Node14</title>
<path fill="none" stroke="#63b8ff" d="M449.5,-65.87C449.5,-58 449.5,-46.1 449.5,-35.89"/>
<polygon fill="#63b8ff" stroke="#63b8ff" points="453,-36.18 449.5,-26.18 446,-36.18 453,-36.18"/>
</g>
<!-- Node15 -->
<g id="node15" class="node">
<title>Node15</title>
<g id="a_node15"><a xlink:title=" ">
<polygon fill="#e0e0e0" stroke="#999999" points="633,-24.5 532,-24.5 532,-5.5 633,-5.5 633,-24.5"/>
<text text-anchor="middle" x="582.5" y="-12.5" font-family="Helvetica,sans-Serif" font-size="10.00">boost/log/trivial.hpp</text>
</a>
</g>
</g>
<!-- Node12&#45;&gt;Node15 -->
<g id="edge15" class="edge">
<title>Node12&#45;&gt;Node15</title>
<path fill="none" stroke="#63b8ff" d="M469.7,-65.62C491.48,-56.04 526.4,-40.68 551.62,-29.58"/>
<polygon fill="#63b8ff" stroke="#63b8ff" points="552.98,-32.81 560.72,-25.58 550.16,-26.4 552.98,-32.81"/>
</g>
<!-- Node16 -->
<g id="node16" class="node">
<title>Node16</title>
<g id="a_node16"><a xlink:title=" ">
<polygon fill="#e0e0e0" stroke="#999999" points="760,-30 651,-30 651,0 760,0 760,-30"/>
<text text-anchor="start" x="659" y="-18" font-family="Helvetica,sans-Serif" font-size="10.00">boost/log/utility/setup</text>
<text text-anchor="middle" x="705.5" y="-7" font-family="Helvetica,sans-Serif" font-size="10.00">/console.hpp</text>
</a>
</g>
</g>
<!-- Node12&#45;&gt;Node16 -->
<g id="edge16" class="edge">
<title>Node12&#45;&gt;Node16</title>
<path fill="none" stroke="#63b8ff" d="M484.29,-66.55C524.07,-57.46 590.09,-42.37 639.67,-31.04"/>
<polygon fill="#63b8ff" stroke="#63b8ff" points="640.17,-34.52 649.14,-28.88 638.61,-27.69 640.17,-34.52"/>
</g>
<!-- Node17 -->
<g id="node17" class="node">
<title>Node17</title>
<g id="a_node17"><a xlink:title=" ">
<polygon fill="#e0e0e0" stroke="#999999" points="909,-30 778,-30 778,0 909,0 909,-30"/>
<text text-anchor="start" x="786" y="-18" font-family="Helvetica,sans-Serif" font-size="10.00">boost/log/sources/severity</text>
<text text-anchor="middle" x="843.5" y="-7" font-family="Helvetica,sans-Serif" font-size="10.00">_channel_logger.hpp</text>
</a>
</g>
</g>
<!-- Node12&#45;&gt;Node17 -->
<g id="edge17" class="edge">
<title>Node12&#45;&gt;Node17</title>
<path fill="none" stroke="#63b8ff" d="M484.2,-67.44C487,-66.93 489.8,-66.44 492.5,-66 611,-46.58 644.38,-49.18 766.39,-30.27"/>
<polygon fill="#63b8ff" stroke="#63b8ff" points="766.85,-33.74 776.19,-28.73 765.77,-26.82 766.85,-33.74"/>
</g>
<!-- Node18 -->
<g id="node18" class="node">
<title>Node18</title>
<g id="a_node18"><a xlink:title=" ">
<polygon fill="#e0e0e0" stroke="#999999" points="113,-30 0,-30 0,0 113,0 113,-30"/>
<text text-anchor="start" x="8" y="-18" font-family="Helvetica,sans-Serif" font-size="10.00">boost/log/support/date</text>
<text text-anchor="middle" x="56.5" y="-7" font-family="Helvetica,sans-Serif" font-size="10.00">_time.hpp</text>
</a>
</g>
</g>
<!-- Node12&#45;&gt;Node18 -->
<g id="edge18" class="edge">
<title>Node12&#45;&gt;Node18</title>
<path fill="none" stroke="#63b8ff" d="M414.89,-70.7C356.86,-64.13 236.03,-49.62 124.3,-30.41"/>
<polygon fill="#63b8ff" stroke="#63b8ff" points="125.11,-27 114.66,-28.73 123.91,-33.9 125.11,-27"/>
</g>
<!-- Node19 -->
<g id="node19" class="node">
<title>Node19</title>
<g id="a_node19"><a xlink:title=" ">
<polygon fill="#e0e0e0" stroke="#999999" points="252,-30 131,-30 131,0 252,0 252,-30"/>
<text text-anchor="start" x="139" y="-18" font-family="Helvetica,sans-Serif" font-size="10.00">boost/log/utility/setup</text>
<text text-anchor="middle" x="191.5" y="-7" font-family="Helvetica,sans-Serif" font-size="10.00">/common_attributes.hpp</text>
</a>
</g>
</g>
<!-- Node12&#45;&gt;Node19 -->
<g id="edge19" class="edge">
<title>Node12&#45;&gt;Node19</title>
<path fill="none" stroke="#63b8ff" d="M414.7,-66.61C376.09,-57.85 312.7,-43.48 263.33,-32.29"/>
<polygon fill="#63b8ff" stroke="#63b8ff" points="264.38,-28.94 253.86,-30.14 262.84,-35.76 264.38,-28.94"/>
</g>
<!-- Node20&#45;&gt;Node12 -->
<g id="edge31" class="edge">
<title>Node20&#45;&gt;Node12</title>
<path fill="none" stroke="#63b8ff" d="M862.52,-236.19C857.51,-222.3 846.37,-194.95 830.5,-176 804.42,-144.86 795.07,-136.46 757.5,-121 650.91,-77.14 612.1,-102.86 495.37,-85.32"/>
<polygon fill="#63b8ff" stroke="#63b8ff" points="496.12,-81.89 485.7,-83.78 495.02,-88.81 496.12,-81.89"/>
</g>
<!-- Node21 -->
<g id="node21" class="node">
<title>Node21</title>
<g id="a_node21"><a xlink:href="_dma_buffer_abstract_8hpp.html" target="_top" xlink:title=" ">
<polygon fill="white" stroke="#666666" points="1034,-195 917,-195 917,-176 1034,-176 1034,-195"/>
<text text-anchor="middle" x="975.5" y="-183" font-family="Helvetica,sans-Serif" font-size="10.00">DmaBufferAbstract.hpp</text>
</a>
</g>
</g>
<!-- Node20&#45;&gt;Node21 -->
<g id="edge21" class="edge">
<title>Node20&#45;&gt;Node21</title>
<path fill="none" stroke="#63b8ff" d="M882.21,-236.12C899.81,-226.75 927.81,-211.86 948.55,-200.83"/>
<polygon fill="#63b8ff" stroke="#63b8ff" points="950.11,-203.96 957.3,-196.18 946.83,-197.78 950.11,-203.96"/>
</g>
<!-- Node21&#45;&gt;Node6 -->
<g id="edge22" class="edge">
<title>Node21&#45;&gt;Node6</title>
<path fill="none" stroke="#63b8ff" d="M933.09,-175.51C884.37,-165.18 805.34,-148.43 760.15,-138.85"/>
<polygon fill="#63b8ff" stroke="#63b8ff" points="760.88,-135.42 750.37,-136.77 759.43,-142.27 760.88,-135.42"/>
</g>
<!-- Node21&#45;&gt;Node9 -->
<g id="edge23" class="edge">
<title>Node21&#45;&gt;Node9</title>
<path fill="none" stroke="#63b8ff" d="M1007.56,-175.51C1041.91,-165.88 1096.18,-150.66 1131.05,-140.88"/>
<polygon fill="#63b8ff" stroke="#63b8ff" points="1131.93,-144.27 1140.62,-138.2 1130.04,-137.53 1131.93,-144.27"/>
</g>
<!-- Node21&#45;&gt;Node11 -->
<g id="edge24" class="edge">
<title>Node21&#45;&gt;Node11</title>
<path fill="none" stroke="#63b8ff" d="M968.5,-175.74C956.61,-161.56 930.97,-133.87 902.5,-121 880.01,-110.83 741.39,-94.59 650.52,-84.79"/>
<polygon fill="#63b8ff" stroke="#63b8ff" points="650.96,-81.32 640.64,-83.73 650.21,-88.28 650.96,-81.32"/>
</g>
<!-- Node22 -->
<g id="node22" class="node">
<title>Node22</title>
<g id="a_node22"><a xlink:href="_uio_config_8hpp.html" target="_top" xlink:title=" ">
<polygon fill="white" stroke="#666666" points="1406,-85 1295,-85 1295,-66 1406,-66 1406,-85"/>
<text text-anchor="middle" x="1350.5" y="-73" font-family="Helvetica,sans-Serif" font-size="10.00">udmaio/UioConfig.hpp</text>
</a>
</g>
</g>
<!-- Node21&#45;&gt;Node22 -->
<g id="edge25" class="edge">
<title>Node21&#45;&gt;Node22</title>
<path fill="none" stroke="#63b8ff" d="M994.56,-175.54C1023.85,-162.06 1081.98,-136.5 1133.5,-121 1182.86,-106.15 1240.01,-94.65 1283.27,-87.07"/>
<polygon fill="#63b8ff" stroke="#63b8ff" points="1283.77,-90.53 1293.03,-85.39 1282.58,-83.64 1283.77,-90.53"/>
</g>
<!-- Node22&#45;&gt;Node8 -->
<g id="edge29" class="edge">
<title>Node22&#45;&gt;Node8</title>
<path fill="none" stroke="#63b8ff" d="M1306.45,-65.55C1247.97,-53.67 1146.11,-32.98 1094.47,-22.49"/>
<polygon fill="#63b8ff" stroke="#63b8ff" points="1095.34,-19.1 1084.85,-20.54 1093.95,-25.96 1095.34,-19.1"/>
</g>
<!-- Node22&#45;&gt;Node23 -->
<g id="edge26" class="edge">
<title>Node22&#45;&gt;Node23</title>
<path fill="none" stroke="#63b8ff" d="M1369.03,-65.62C1388.82,-56.12 1420.47,-40.95 1443.55,-29.88"/>
<polygon fill="#63b8ff" stroke="#63b8ff" points="1444.93,-33.1 1452.43,-25.62 1441.9,-26.79 1444.93,-33.1"/>
</g>
<!-- Node24 -->
<g id="node24" class="node">
<title>Node24</title>
<g id="a_node24"><a xlink:title=" ">
<polygon fill="#e0e0e0" stroke="#999999" points="1266,-24.5 1215,-24.5 1215,-5.5 1266,-5.5 1266,-24.5"/>
<text text-anchor="middle" x="1240.5" y="-12.5" font-family="Helvetica,sans-Serif" font-size="10.00">memory</text>
</a>
</g>
</g>
<!-- Node22&#45;&gt;Node24 -->
<g id="edge27" class="edge">
<title>Node22&#45;&gt;Node24</title>
<path fill="none" stroke="#63b8ff" d="M1333.79,-65.62C1316.19,-56.25 1288.19,-41.36 1267.45,-30.33"/>
<polygon fill="#63b8ff" stroke="#63b8ff" points="1269.17,-27.28 1258.7,-25.68 1265.89,-33.46 1269.17,-27.28"/>
</g>
<!-- Node25 -->
<g id="node25" class="node">
<title>Node25</title>
<g id="a_node25"><a xlink:title=" ">
<polygon fill="#e0e0e0" stroke="#999999" points="1343,-24.5 1284,-24.5 1284,-5.5 1343,-5.5 1343,-24.5"/>
<text text-anchor="middle" x="1313.5" y="-12.5" font-family="Helvetica,sans-Serif" font-size="10.00">stdexcept</text>
</a>
</g>
</g>
<!-- Node22&#45;&gt;Node25 -->
<g id="edge28" class="edge">
<title>Node22&#45;&gt;Node25</title>
<path fill="none" stroke="#63b8ff" d="M1345.04,-65.87C1339.79,-57.57 1331.7,-44.78 1325.03,-34.22"/>
<polygon fill="#63b8ff" stroke="#63b8ff" points="1328.09,-32.53 1319.79,-25.95 1322.18,-36.27 1328.09,-32.53"/>
</g>
<!-- Node26 -->
<g id="node26" class="node">
<title>Node26</title>
<g id="a_node26"><a xlink:title=" ">
<polygon fill="#e0e0e0" stroke="#999999" points="1427.5,-24.5 1361.5,-24.5 1361.5,-5.5 1427.5,-5.5 1427.5,-24.5"/>
<text text-anchor="middle" x="1394.5" y="-12.5" font-family="Helvetica,sans-Serif" font-size="10.00">string_view</text>
</a>
</g>
</g>
<!-- Node22&#45;&gt;Node26 -->
<g id="edge30" class="edge">
<title>Node22&#45;&gt;Node26</title>
<path fill="none" stroke="#63b8ff" d="M1356.99,-65.87C1363.36,-57.4 1373.26,-44.24 1381.29,-33.57"/>
<polygon fill="#63b8ff" stroke="#63b8ff" points="1383.86,-35.97 1387.07,-25.88 1378.26,-31.76 1383.86,-35.97"/>
</g>
<!-- Node28 -->
<g id="node28" class="node">
<title>Node28</title>
<g id="a_node28"><a xlink:href="_axi_dma_8hpp.html" target="_top" xlink:title=" ">
<polygon fill="white" stroke="#666666" points="710.5,-195 642.5,-195 642.5,-176 710.5,-176 710.5,-195"/>
<text text-anchor="middle" x="676.5" y="-183" font-family="Helvetica,sans-Serif" font-size="10.00">AxiDma.hpp</text>
</a>
</g>
</g>
<!-- Node27&#45;&gt;Node28 -->
<g id="edge33" class="edge">
<title>Node27&#45;&gt;Node28</title>
<path fill="none" stroke="#63b8ff" d="M751.13,-236.12C737.44,-227.01 715.88,-212.68 699.44,-201.75"/>
<polygon fill="#63b8ff" stroke="#63b8ff" points="701.52,-198.93 691.25,-196.31 697.64,-204.76 701.52,-198.93"/>
</g>
<!-- Node29 -->
<g id="node29" class="node">
<title>Node29</title>
<g id="a_node29"><a xlink:href="_reg_accessor_8hpp.html" target="_top" xlink:title=" ">
<polygon fill="white" stroke="#666666" points="822,-195 729,-195 729,-176 822,-176 822,-195"/>
<text text-anchor="middle" x="775.5" y="-183" font-family="Helvetica,sans-Serif" font-size="10.00">RegAccessor.hpp</text>
</a>
</g>
</g>
<!-- Node27&#45;&gt;Node29 -->
<g id="edge35" class="edge">
<title>Node27&#45;&gt;Node29</title>
<path fill="none" stroke="#63b8ff" d="M766.12,-236.37C767.6,-228.5 769.84,-216.6 771.76,-206.39"/>
<polygon fill="#63b8ff" stroke="#63b8ff" points="775.18,-207.13 773.59,-196.65 768.3,-205.84 775.18,-207.13"/>
</g>
<!-- Node30 -->
<g id="node30" class="node">
<title>Node30</title>
<g id="a_node30"><a xlink:href="_uio_if_8hpp.html" target="_top" xlink:title=" ">
<polygon fill="white" stroke="#666666" points="1044.5,-140 954.5,-140 954.5,-121 1044.5,-121 1044.5,-140"/>
<text text-anchor="middle" x="999.5" y="-128" font-family="Helvetica,sans-Serif" font-size="10.00">udmaio/UioIf.hpp</text>
</a>
</g>
</g>
<!-- Node27&#45;&gt;Node30 -->
<g id="edge51" class="edge">
<title>Node27&#45;&gt;Node30</title>
<path fill="none" stroke="#63b8ff" d="M782.94,-236.09C823.78,-216.37 922.1,-168.88 970.96,-145.29"/>
<polygon fill="#63b8ff" stroke="#63b8ff" points="972.3,-148.52 979.78,-141.02 969.26,-142.22 972.3,-148.52"/>
</g>
<!-- Node28&#45;&gt;Node6 -->
<g id="edge34" class="edge">
<title>Node28&#45;&gt;Node6</title>
<path fill="none" stroke="#63b8ff" d="M684.59,-175.75C691.36,-168.43 701.22,-157.76 709.56,-148.74"/>
<polygon fill="#63b8ff" stroke="#63b8ff" points="711.99,-151.27 716.21,-141.55 706.85,-146.52 711.99,-151.27"/>
</g>
<!-- Node29&#45;&gt;Node6 -->
<g id="edge36" class="edge">
<title>Node29&#45;&gt;Node6</title>
<path fill="none" stroke="#63b8ff" d="M767.24,-175.75C760.34,-168.43 750.28,-157.76 741.76,-148.74"/>
<polygon fill="#63b8ff" stroke="#63b8ff" points="744.38,-146.42 734.97,-141.54 739.29,-151.22 744.38,-146.42"/>
</g>
<!-- Node29&#45;&gt;Node30 -->
<g id="edge37" class="edge">
<title>Node29&#45;&gt;Node30</title>
<path fill="none" stroke="#63b8ff" d="M813.5,-175.51C851.26,-166.57 909.35,-152.83 950.55,-143.08"/>
<polygon fill="#63b8ff" stroke="#63b8ff" points="951.29,-146.5 960.22,-140.79 949.68,-139.69 951.29,-146.5"/>
</g>
<!-- Node30&#45;&gt;Node8 -->
<g id="edge42" class="edge">
<title>Node30&#45;&gt;Node8</title>
<path fill="none" stroke="#63b8ff" d="M954.08,-122.95C949.5,-122.29 944.91,-121.63 940.5,-121 826.16,-104.66 610.4,-152.89 686.5,-66 697.84,-53.05 941.59,-27.89 1030.45,-19.11"/>
<polygon fill="#63b8ff" stroke="#63b8ff" points="1030.57,-22.62 1040.18,-18.16 1029.89,-15.65 1030.57,-22.62"/>
</g>
<!-- Node30&#45;&gt;Node11 -->
<g id="edge43" class="edge">
<title>Node30&#45;&gt;Node11</title>
<path fill="none" stroke="#63b8ff" d="M954.1,-122.85C949.51,-122.21 944.91,-121.58 940.5,-121 840.75,-107.82 725.65,-94.23 650.66,-85.59"/>
<polygon fill="#63b8ff" stroke="#63b8ff" points="651.27,-82.14 640.94,-84.48 650.47,-89.09 651.27,-82.14"/>
</g>
<!-- Node30&#45;&gt;Node12 -->
<g id="edge49" class="edge">
<title>Node30&#45;&gt;Node12</title>
<path fill="none" stroke="#63b8ff" d="M954.21,-125.53C842.02,-115.7 556.34,-90.67 495.48,-84.85"/>
<polygon fill="#63b8ff" stroke="#63b8ff" points="495.99,-81.38 485.68,-83.84 495.27,-88.35 495.99,-81.38"/>
</g>
<!-- Node30&#45;&gt;Node22 -->
<g id="edge50" class="edge">
<title>Node30&#45;&gt;Node22</title>
<path fill="none" stroke="#63b8ff" d="M1044.67,-122.68C1105.18,-113.54 1213.04,-97.26 1283.16,-86.67"/>
<polygon fill="#63b8ff" stroke="#63b8ff" points="1283.64,-90.14 1293.01,-85.18 1282.6,-83.21 1283.64,-90.14"/>
</g>
<!-- Node30&#45;&gt;Node23 -->
<g id="edge40" class="edge">
<title>Node30&#45;&gt;Node23</title>
<path fill="none" stroke="#63b8ff" d="M1044.78,-126.59C1145.83,-119.82 1383.4,-102.27 1415.5,-85 1436.63,-73.64 1453,-50.89 1462.67,-34.62"/>
<polygon fill="#63b8ff" stroke="#63b8ff" points="1465.7,-36.36 1467.53,-25.93 1459.6,-32.94 1465.7,-36.36"/>
</g>
<!-- Node30&#45;&gt;Node24 -->
<g id="edge41" class="edge">
<title>Node30&#45;&gt;Node24</title>
<path fill="none" stroke="#63b8ff" d="M1044.96,-122.11C1102.8,-112.37 1196.77,-95.26 1209.5,-85 1224.66,-72.77 1232.66,-51.54 1236.71,-35.86"/>
<polygon fill="#63b8ff" stroke="#63b8ff" points="1240.1,-36.74 1238.84,-26.22 1233.26,-35.22 1240.1,-36.74"/>
</g>
<!-- Node31 -->
<g id="node31" class="node">
<title>Node31</title>
<g id="a_node31"><a xlink:title=" ">
<polygon fill="#e0e0e0" stroke="#999999" points="755.5,-85 695.5,-85 695.5,-66 755.5,-66 755.5,-85"/>
<text text-anchor="middle" x="725.5" y="-73" font-family="Helvetica,sans-Serif" font-size="10.00">filesystem</text>
</a>
</g>
</g>
<!-- Node30&#45;&gt;Node31 -->
<g id="edge38" class="edge">
<title>Node30&#45;&gt;Node31</title>
<path fill="none" stroke="#63b8ff" d="M954.38,-121.34C909.33,-113.1 837.83,-99.8 766.67,-85.4"/>
<polygon fill="#63b8ff" stroke="#63b8ff" points="767.7,-82.03 757.2,-83.47 766.3,-88.89 767.7,-82.03"/>
</g>
<!-- Node32 -->
<g id="node32" class="node">
<title>Node32</title>
<g id="a_node32"><a xlink:title=" ">
<polygon fill="#e0e0e0" stroke="#999999" points="823.5,-85 773.5,-85 773.5,-66 823.5,-66 823.5,-85"/>
<text text-anchor="middle" x="798.5" y="-73" font-family="Helvetica,sans-Serif" font-size="10.00">fstream</text>
</a>
</g>
</g>
<!-- Node30&#45;&gt;Node32 -->
<g id="edge39" class="edge">
<title>Node30&#45;&gt;Node32</title>
<path fill="none" stroke="#63b8ff" d="M965.4,-120.51C929.06,-110.93 871.76,-95.82 834.65,-86.03"/>
<polygon fill="#63b8ff" stroke="#63b8ff" points="835.86,-82.73 825.3,-83.57 834.07,-89.5 835.86,-82.73"/>
</g>
<!-- Node33 -->
<g id="node33" class="node">
<title>Node33</title>
<g id="a_node33"><a xlink:title=" ">
<polygon fill="#e0e0e0" stroke="#999999" points="885,-85 842,-85 842,-66 885,-66 885,-85"/>
<text text-anchor="middle" x="863.5" y="-73" font-family="Helvetica,sans-Serif" font-size="10.00">fcntl.h</text>
</a>
</g>
</g>
<!-- Node30&#45;&gt;Node33 -->
<g id="edge44" class="edge">
<title>Node30&#45;&gt;Node33</title>
<path fill="none" stroke="#63b8ff" d="M976.43,-120.51C954.35,-111.9 920.83,-98.84 896.04,-89.18"/>
<polygon fill="#63b8ff" stroke="#63b8ff" points="897.33,-85.93 886.74,-85.56 894.79,-92.45 897.33,-85.93"/>
</g>
<!-- Node34 -->
<g id="node34" class="node">
<title>Node34</title>
<g id="a_node34"><a xlink:title=" ">
<polygon fill="#e0e0e0" stroke="#999999" points="972,-85 903,-85 903,-66 972,-66 972,-85"/>
<text text-anchor="middle" x="937.5" y="-73" font-family="Helvetica,sans-Serif" font-size="10.00">sys/mman.h</text>
</a>
</g>
</g>
<!-- Node30&#45;&gt;Node34 -->
<g id="edge45" class="edge">
<title>Node30&#45;&gt;Node34</title>
<path fill="none" stroke="#63b8ff" d="M988.98,-120.51C980.11,-112.93 967.19,-101.88 956.51,-92.75"/>
<polygon fill="#63b8ff" stroke="#63b8ff" points="958.89,-90.18 949.01,-86.34 954.34,-95.5 958.89,-90.18"/>
</g>
<!-- Node35 -->
<g id="node35" class="node">
<title>Node35</title>
<g id="a_node35"><a xlink:title=" ">
<polygon fill="#e0e0e0" stroke="#999999" points="1049,-85 990,-85 990,-66 1049,-66 1049,-85"/>
<text text-anchor="middle" x="1019.5" y="-73" font-family="Helvetica,sans-Serif" font-size="10.00">sys/stat.h</text>
</a>
</g>
</g>
<!-- Node30&#45;&gt;Node35 -->
<g id="edge46" class="edge">
<title>Node30&#45;&gt;Node35</title>
<path fill="none" stroke="#63b8ff" d="M1002.8,-120.75C1005.33,-114.04 1008.93,-104.52 1012.13,-96.02"/>
<polygon fill="#63b8ff" stroke="#63b8ff" points="1015.34,-97.45 1015.59,-86.86 1008.79,-94.98 1015.34,-97.45"/>
</g>
<!-- Node36 -->
<g id="node36" class="node">
<title>Node36</title>
<g id="a_node36"><a xlink:title=" ">
<polygon fill="#e0e0e0" stroke="#999999" points="1132,-85 1067,-85 1067,-66 1132,-66 1132,-85"/>
<text text-anchor="middle" x="1099.5" y="-73" font-family="Helvetica,sans-Serif" font-size="10.00">sys/types.h</text>
</a>
</g>
</g>
<!-- Node30&#45;&gt;Node36 -->
<g id="edge47" class="edge">
<title>Node30&#45;&gt;Node36</title>
<path fill="none" stroke="#63b8ff" d="M1016.46,-120.51C1031.86,-112.35 1054.81,-100.19 1072.69,-90.71"/>
<polygon fill="#63b8ff" stroke="#63b8ff" points="1074.25,-93.84 1081.45,-86.07 1070.97,-87.66 1074.25,-93.84"/>
</g>
<!-- Node37 -->
<g id="node37" class="node">
<title>Node37</title>
<g id="a_node37"><a xlink:title=" ">
<polygon fill="#e0e0e0" stroke="#999999" points="1200.5,-85 1150.5,-85 1150.5,-66 1200.5,-66 1200.5,-85"/>
<text text-anchor="middle" x="1175.5" y="-73" font-family="Helvetica,sans-Serif" font-size="10.00">unistd.h</text>
</a>
</g>
</g>
<!-- Node30&#45;&gt;Node37 -->
<g id="edge48" class="edge">
<title>Node30&#45;&gt;Node37</title>
<path fill="none" stroke="#63b8ff" d="M1029.36,-120.51C1059.71,-111.37 1106.77,-97.2 1139.25,-87.42"/>
<polygon fill="#63b8ff" stroke="#63b8ff" points="1140.06,-90.83 1148.63,-84.59 1138.04,-84.12 1140.06,-90.83"/>
</g>
<!-- Node38&#45;&gt;Node21 -->
<g id="edge53" class="edge">
<title>Node38&#45;&gt;Node21</title>
<path fill="none" stroke="#63b8ff" d="M973.8,-236.37C974.06,-228.5 974.47,-216.6 974.82,-206.39"/>
<polygon fill="#63b8ff" stroke="#63b8ff" points="978.31,-206.79 975.15,-196.68 971.31,-206.55 978.31,-206.79"/>
</g>
<!-- Node38&#45;&gt;Node30 -->
<g id="edge54" class="edge">
<title>Node38&#45;&gt;Node30</title>
<path fill="none" stroke="#63b8ff" d="M995.3,-236.14C1011.86,-228.11 1033.45,-214.52 1043.5,-195 1052.34,-177.82 1037.29,-159.86 1022.44,-147.44"/>
<polygon fill="#63b8ff" stroke="#63b8ff" points="1024.69,-144.76 1014.64,-141.41 1020.41,-150.29 1024.69,-144.76"/>
</g>
</g>
</svg>
        <g id="navigator" transform="translate(0 0)" fill="#404254">
                <rect fill="#f2f5e9" fill-opacity="0.5" stroke="#606060" stroke-width=".5" x="0" y="0" width="60" height="60"/>
                <use id="zoomplus" xlink:href="#zoomPlus" x="17" y="9" onmousedown="handleZoom(evt,'in')"/>
                <use id="zoomminus" xlink:href="#zoomMin" x="42" y="9" onmousedown="handleZoom(evt,'out')"/>
                <use id="reset" xlink:href="#resetDef" x="30" y="36" onmousedown="handleReset()"/>
                <g id="arrowUp" xlink:href="#dirArrow" transform="translate(30 24)" onmousedown="handlePan(0,-1)">
                  <use xlink:href="#rim" fill="#404040">
                        <set attributeName="fill" to="#808080" begin="arrowUp.mouseover" end="arrowUp.mouseout"/>
                  </use>
                  <path fill="none" stroke="white" stroke-width="1.5" d="M0,-3.0v7 M-2.5,-0.5L0,-3.0L2.5,-0.5"/>
                </g>
                <g id="arrowRight" xlink:href="#dirArrow" transform="rotate(90) translate(36 -43)" onmousedown="handlePan(1,0)">
                  <use xlink:href="#rim" fill="#404040">
                        <set attributeName="fill" to="#808080" begin="arrowRight.mouseover" end="arrowRight.mouseout"/>
                  </use>
                  <path fill="none" stroke="white" stroke-width="1.5" d="M0,-3.0v7 M-2.5,-0.5L0,-3.0L2.5,-0.5"/>
                </g>
                <g id="arrowDown" xlink:href="#dirArrow" transform="rotate(180) translate(-30 -48)" onmousedown="handlePan(0,1)">
                  <use xlink:href="#rim" fill="#404040">
                        <set attributeName="fill" to="#808080" begin="arrowDown.mouseover" end="arrowDown.mouseout"/>
                  </use>
                  <path fill="none" stroke="white" stroke-width="1.5" d="M0,-3.0v7 M-2.5,-0.5L0,-3.0L2.5,-0.5"/>
                </g>
                <g id="arrowLeft" xlink:href="#dirArrow" transform="rotate(270) translate(-36 17)" onmousedown="handlePan(-1,0)">
                  <use xlink:href="#rim" fill="#404040">
                        <set attributeName="fill" to="#808080" begin="arrowLeft.mouseover" end="arrowLeft.mouseout"/>
                  </use>
                  <path fill="none" stroke="white" stroke-width="1.5" d="M0,-3.0v7 M-2.5,-0.5L0,-3.0L2.5,-0.5"/>
                </g>
        </g>
        <svg viewBox="0 0 15 15" width="100%" height="30px" preserveAspectRatio="xMaxYMin meet">
         <g id="arrow_out" transform="scale(0.3 0.3)">
          <a xlink:href="_data_handler_print_8cpp__incl_org.svg" target="_base">
           <rect id="button" ry="5" rx="5" y="6" x="6" height="38" width="38"
                fill="#f2f5e9" fill-opacity="0.5" stroke="#606060" stroke-width="1.0"/>
           <path id="arrow"
             d="M 11.500037,31.436501 C 11.940474,20.09759 22.043105,11.32322 32.158766,21.979434 L 37.068811,17.246167 C 37.068811,17.246167 37.088388,32 37.088388,32 L 22.160133,31.978069 C 22.160133,31.978069 26.997745,27.140456 26.997745,27.140456 C 18.528582,18.264221 13.291696,25.230495 11.500037,31.436501 z"
             style="fill:#404040;"/>
          </a>
         </g>
        </svg>
</svg>
