<?xml version="1.0" encoding="UTF-8" standalone="no"?>
<!DOCTYPE svg PUBLIC "-//W3C//DTD SVG 1.1//EN"
 "http://www.w3.org/Graphics/SVG/1.1/DTD/svg11.dtd">
<!-- Generated by graphviz version 7.0.5 (20221223.1930)
 -->
<!-- Title: DataHandlerPrint.hpp Pages: 1 -->
<svg width="1797pt" height="434pt"
 viewBox="0.00 0.00 1796.50 434.00" xmlns="http://www.w3.org/2000/svg" xmlns:xlink="http://www.w3.org/1999/xlink">
<g id="graph0" class="graph" transform="scale(1 1) rotate(0) translate(4 430)">
<title>DataHandlerPrint.hpp</title>
<!-- Node1 -->
<g id="node1" class="node">
<title>Node1</title>
<g id="a_node1"><a xlink:title=" ">
<polygon fill="#999999" stroke="#666666" points="671.5,-426 562.5,-426 562.5,-407 671.5,-407 671.5,-426"/>
<text text-anchor="middle" x="617" y="-414" font-family="Helvetica,sans-Serif" font-size="10.00">DataHandlerPrint.hpp</text>
</a>
</g>
</g>
<!-- Node2 -->
<g id="node2" class="node">
<title>Node2</title>
<g id="a_node2"><a xlink:title=" ">
<polygon fill="#e0e0e0" stroke="#999999" points="533,-371 483,-371 483,-352 533,-352 533,-371"/>
<text text-anchor="middle" x="508" y="-359" font-family="Helvetica,sans-Serif" font-size="10.00">optional</text>
</a>
</g>
</g>
<!-- Node1&#45;&gt;Node2 -->
<g id="edge1" class="edge">
<title>Node1&#45;&gt;Node2</title>
<path fill="none" stroke="#63b8ff" d="M598.51,-406.51C581.5,-398.24 556.01,-385.84 536.41,-376.31"/>
<polygon fill="#63b8ff" stroke="#63b8ff" points="538.1,-373.25 527.58,-372.02 535.04,-379.54 538.1,-373.25"/>
</g>
<!-- Node3 -->
<g id="node3" class="node">
<title>Node3</title>
<g id="a_node3"><a xlink:title=" ">
<polygon fill="#e0e0e0" stroke="#999999" points="590.5,-371 551.5,-371 551.5,-352 590.5,-352 590.5,-371"/>
<text text-anchor="middle" x="571" y="-359" font-family="Helvetica,sans-Serif" font-size="10.00">utility</text>
</a>
</g>
</g>
<!-- Node1&#45;&gt;Node3 -->
<g id="edge2" class="edge">
<title>Node1&#45;&gt;Node3</title>
<path fill="none" stroke="#63b8ff" d="M609.4,-406.75C603.12,-399.5 593.99,-388.98 586.2,-380.02"/>
<polygon fill="#63b8ff" stroke="#63b8ff" points="588.95,-377.84 579.75,-372.59 583.66,-382.43 588.95,-377.84"/>
</g>
<!-- Node4 -->
<g id="node4" class="node">
<title>Node4</title>
<g id="a_node4"><a xlink:href="_axi_traffic_gen_lfsr_8hpp.html" target="_top" xlink:title=" ">
<polygon fill="white" stroke="#666666" points="719,-371 609,-371 609,-352 719,-352 719,-371"/>
<text text-anchor="middle" x="664" y="-359" font-family="Helvetica,sans-Serif" font-size="10.00">AxiTrafficGenLfsr.hpp</text>
</a>
</g>
</g>
<!-- Node1&#45;&gt;Node4 -->
<g id="edge3" class="edge">
<title>Node1&#45;&gt;Node4</title>
<path fill="none" stroke="#63b8ff" d="M624.76,-406.75C631.19,-399.5 640.51,-388.98 648.46,-380.02"/>
<polygon fill="#63b8ff" stroke="#63b8ff" points="651.05,-382.38 655.07,-372.57 645.81,-377.73 651.05,-382.38"/>
</g>
<!-- Node6 -->
<g id="node6" class="node">
<title>Node6</title>
<g id="a_node6"><a xlink:href="_data_handler_abstract_8hpp.html" target="_top" xlink:title=" ">
<polygon fill="white" stroke="#666666" points="1084,-371 924,-371 924,-352 1084,-352 1084,-371"/>
<text text-anchor="middle" x="1004" y="-359" font-family="Helvetica,sans-Serif" font-size="10.00">udmaio/DataHandlerAbstract.hpp</text>
</a>
</g>
</g>
<!-- Node1&#45;&gt;Node6 -->
<g id="edge5" class="edge">
<title>Node1&#45;&gt;Node6</title>
<path fill="none" stroke="#63b8ff" d="M671.63,-408.02C738.31,-398.89 851.51,-383.38 927.01,-373.04"/>
<polygon fill="#63b8ff" stroke="#63b8ff" points="927.4,-376.52 936.83,-371.7 926.45,-369.59 927.4,-376.52"/>
</g>
<!-- Node5 -->
<g id="node5" class="node">
<title>Node5</title>
<g id="a_node5"><a xlink:title=" ">
<polygon fill="#e0e0e0" stroke="#999999" points="622,-195 576,-195 576,-176 622,-176 622,-195"/>
<text text-anchor="middle" x="599" y="-183" font-family="Helvetica,sans-Serif" font-size="10.00">cstdint</text>
</a>
</g>
</g>
<!-- Node4&#45;&gt;Node5 -->
<g id="edge4" class="edge">
<title>Node4&#45;&gt;Node5</title>
<path fill="none" stroke="#63b8ff" d="M633.11,-351.6C614.92,-344.77 592.99,-333.49 580,-316 557.21,-285.32 555.28,-267.38 567,-231 570.16,-221.19 576.37,-211.72 582.49,-204.05"/>
<polygon fill="#63b8ff" stroke="#63b8ff" points="585.07,-206.42 588.96,-196.57 579.77,-201.84 585.07,-206.42"/>
</g>
<!-- Node7 -->
<g id="node7" class="node">
<title>Node7</title>
<g id="a_node7"><a xlink:title=" ">
<polygon fill="#e0e0e0" stroke="#999999" points="861.5,-24.5 820.5,-24.5 820.5,-5.5 861.5,-5.5 861.5,-24.5"/>
<text text-anchor="middle" x="841" y="-12.5" font-family="Helvetica,sans-Serif" font-size="10.00">string</text>
</a>
</g>
</g>
<!-- Node6&#45;&gt;Node7 -->
<g id="edge6" class="edge">
<title>Node6&#45;&gt;Node7</title>
<path fill="none" stroke="#63b8ff" d="M1014.01,-351.75C1033.79,-333.44 1076,-288.83 1076,-241.5 1076,-241.5 1076,-241.5 1076,-129.5 1076,-99.91 1078.08,-85.7 1056,-66 993.17,-9.95 949.91,-56.52 870,-30 869.35,-29.79 868.7,-29.56 868.05,-29.32"/>
<polygon fill="#63b8ff" stroke="#63b8ff" points="869.53,-26.15 858.96,-25.49 866.81,-32.6 869.53,-26.15"/>
</g>
<!-- Node8 -->
<g id="node8" class="node">
<title>Node8</title>
<g id="a_node8"><a xlink:title=" ">
<polygon fill="#e0e0e0" stroke="#999999" points="934,-195 890,-195 890,-176 934,-176 934,-195"/>
<text text-anchor="middle" x="912" y="-183" font-family="Helvetica,sans-Serif" font-size="10.00">vector</text>
</a>
</g>
</g>
<!-- Node6&#45;&gt;Node8 -->
<g id="edge7" class="edge">
<title>Node6&#45;&gt;Node8</title>
<path fill="none" stroke="#63b8ff" d="M973.12,-351.64C955.4,-344.86 934.46,-333.62 923,-316 901.23,-282.52 904.3,-233.44 908.27,-206.33"/>
<polygon fill="#63b8ff" stroke="#63b8ff" points="911.68,-207.19 909.88,-196.75 904.78,-206.03 911.68,-207.19"/>
</g>
<!-- Node9 -->
<g id="node9" class="node">
<title>Node9</title>
<g id="a_node9"><a xlink:title=" ">
<polygon fill="#e0e0e0" stroke="#999999" points="1184,-310.5 1104,-310.5 1104,-291.5 1184,-291.5 1184,-310.5"/>
<text text-anchor="middle" x="1144" y="-298.5" font-family="Helvetica,sans-Serif" font-size="10.00">boost/asio.hpp</text>
</a>
</g>
</g>
<!-- Node6&#45;&gt;Node9 -->
<g id="edge8" class="edge">
<title>Node6&#45;&gt;Node9</title>
<path fill="none" stroke="#63b8ff" d="M1025.26,-351.62C1048.39,-341.95 1085.61,-326.4 1112.21,-315.28"/>
<polygon fill="#63b8ff" stroke="#63b8ff" points="1113.26,-318.64 1121.14,-311.55 1110.56,-312.18 1113.26,-318.64"/>
</g>
<!-- Node10 -->
<g id="node10" class="node">
<title>Node10</title>
<g id="a_node10"><a xlink:title=" ">
<polygon fill="#e0e0e0" stroke="#999999" points="1047.5,-85 910.5,-85 910.5,-66 1047.5,-66 1047.5,-85"/>
<text text-anchor="middle" x="979" y="-73" font-family="Helvetica,sans-Serif" font-size="10.00">boost/core/noncopyable.hpp</text>
</a>
</g>
</g>
<!-- Node6&#45;&gt;Node10 -->
<g id="edge9" class="edge">
<title>Node6&#45;&gt;Node10</title>
<path fill="none" stroke="#63b8ff" d="M1008.31,-351.79C1017.46,-332.45 1038,-284.26 1038,-241.5 1038,-241.5 1038,-241.5 1038,-184.5 1038,-148.9 1013.01,-113.89 995.56,-93.79"/>
<polygon fill="#63b8ff" stroke="#63b8ff" points="998.29,-91.59 988.98,-86.53 993.1,-96.29 998.29,-91.59"/>
</g>
<!-- Node11 -->
<g id="node11" class="node">
<title>Node11</title>
<g id="a_node11"><a xlink:href="_logging_8hpp.html" target="_top" xlink:title=" ">
<polygon fill="white" stroke="#666666" points="1215.5,-85 1146.5,-85 1146.5,-66 1215.5,-66 1215.5,-85"/>
<text text-anchor="middle" x="1181" y="-73" font-family="Helvetica,sans-Serif" font-size="10.00">Logging.hpp</text>
</a>
</g>
</g>
<!-- Node6&#45;&gt;Node11 -->
<g id="edge10" class="edge">
<title>Node6&#45;&gt;Node11</title>
<path fill="none" stroke="#63b8ff" d="M1084.44,-359.58C1169.31,-356.91 1295.61,-347.55 1331,-316 1356.5,-293.26 1350,-275.67 1350,-241.5 1350,-241.5 1350,-241.5 1350,-184.5 1350,-125.75 1276.58,-97.52 1226.52,-85.11"/>
<polygon fill="#63b8ff" stroke="#63b8ff" points="1227.62,-81.77 1217.08,-82.9 1226.02,-88.59 1227.62,-81.77"/>
</g>
<!-- Node19 -->
<g id="node19" class="node">
<title>Node19</title>
<g id="a_node19"><a xlink:href="_u_dma_buf_8hpp.html" target="_top" xlink:title=" ">
<polygon fill="white" stroke="#666666" points="1009.5,-310.5 932.5,-310.5 932.5,-291.5 1009.5,-291.5 1009.5,-310.5"/>
<text text-anchor="middle" x="971" y="-298.5" font-family="Helvetica,sans-Serif" font-size="10.00">UDmaBuf.hpp</text>
</a>
</g>
</g>
<!-- Node6&#45;&gt;Node19 -->
<g id="edge19" class="edge">
<title>Node6&#45;&gt;Node19</title>
<path fill="none" stroke="#63b8ff" d="M999.13,-351.87C994.5,-343.66 987.38,-331.04 981.47,-320.55"/>
<polygon fill="#63b8ff" stroke="#63b8ff" points="984.59,-318.98 976.63,-311.99 978.5,-322.41 984.59,-318.98"/>
</g>
<!-- Node26 -->
<g id="node26" class="node">
<title>Node26</title>
<g id="a_node26"><a xlink:href="_uio_axi_dma_if_8hpp.html" target="_top" xlink:title=" ">
<polygon fill="white" stroke="#666666" points="678.5,-310.5 589.5,-310.5 589.5,-291.5 678.5,-291.5 678.5,-310.5"/>
<text text-anchor="middle" x="634" y="-298.5" font-family="Helvetica,sans-Serif" font-size="10.00">UioAxiDmaIf.hpp</text>
</a>
</g>
</g>
<!-- Node6&#45;&gt;Node26 -->
<g id="edge32" class="edge">
<title>Node6&#45;&gt;Node26</title>
<path fill="none" stroke="#63b8ff" d="M947.4,-351.55C877.6,-340.52 759.68,-321.87 690.1,-310.87"/>
<polygon fill="#63b8ff" stroke="#63b8ff" points="690.87,-307.45 680.45,-309.34 689.78,-314.36 690.87,-307.45"/>
</g>
<!-- Node39 -->
<g id="node39" class="node">
<title>Node39</title>
<g id="a_node39"><a xlink:href="_uio_mem_sgdma_8hpp.html" target="_top" xlink:title=" ">
<polygon fill="white" stroke="#666666" points="482,-310.5 380,-310.5 380,-291.5 482,-291.5 482,-310.5"/>
<text text-anchor="middle" x="431" y="-298.5" font-family="Helvetica,sans-Serif" font-size="10.00">UioMemSgdma.hpp</text>
</a>
</g>
</g>
<!-- Node6&#45;&gt;Node39 -->
<g id="edge67" class="edge">
<title>Node6&#45;&gt;Node39</title>
<path fill="none" stroke="#63b8ff" d="M923.72,-352.3C808.39,-340.53 598.2,-319.07 493.6,-308.39"/>
<polygon fill="#63b8ff" stroke="#63b8ff" points="494.1,-304.92 483.79,-307.39 493.39,-311.89 494.1,-304.92"/>
</g>
<!-- Node41 -->
<g id="node41" class="node">
<title>Node41</title>
<g id="a_node41"><a xlink:title=" ">
<polygon fill="#e0e0e0" stroke="#999999" points="1322,-316 1202,-316 1202,-286 1322,-286 1322,-316"/>
<text text-anchor="start" x="1210" y="-304" font-family="Helvetica,sans-Serif" font-size="10.00">boost/asio/posix/stream</text>
<text text-anchor="middle" x="1262" y="-293" font-family="Helvetica,sans-Serif" font-size="10.00">_descriptor.hpp</text>
</a>
</g>
</g>
<!-- Node6&#45;&gt;Node41 -->
<g id="edge72" class="edge">
<title>Node6&#45;&gt;Node41</title>
<path fill="none" stroke="#63b8ff" d="M1043.47,-351.55C1082.54,-342.69 1143.24,-328.93 1190.76,-318.15"/>
<polygon fill="#63b8ff" stroke="#63b8ff" points="1191.46,-321.58 1200.44,-315.96 1189.92,-314.76 1191.46,-321.58"/>
</g>
<!-- Node11&#45;&gt;Node7 -->
<g id="edge11" class="edge">
<title>Node11&#45;&gt;Node7</title>
<path fill="none" stroke="#63b8ff" d="M1146.18,-70.88C1076.27,-63.39 921.13,-45.59 870,-30 869.2,-29.76 868.39,-29.49 867.58,-29.21"/>
<polygon fill="#63b8ff" stroke="#63b8ff" points="869.18,-26.09 858.61,-25.48 866.5,-32.55 869.18,-26.09"/>
</g>
<!-- Node12 -->
<g id="node12" class="node">
<title>Node12</title>
<g id="a_node12"><a xlink:title=" ">
<polygon fill="#e0e0e0" stroke="#999999" points="1395,-24.5 1299,-24.5 1299,-5.5 1395,-5.5 1395,-24.5"/>
<text text-anchor="middle" x="1347" y="-12.5" font-family="Helvetica,sans-Serif" font-size="10.00">boost/log/core.hpp</text>
</a>
</g>
</g>
<!-- Node11&#45;&gt;Node12 -->
<g id="edge12" class="edge">
<title>Node11&#45;&gt;Node12</title>
<path fill="none" stroke="#63b8ff" d="M1206.21,-65.62C1234.12,-55.78 1279.34,-39.84 1310.98,-28.69"/>
<polygon fill="#63b8ff" stroke="#63b8ff" points="1311.86,-32.1 1320.12,-25.47 1309.53,-25.49 1311.86,-32.1"/>
</g>
<!-- Node13 -->
<g id="node13" class="node">
<title>Node13</title>
<g id="a_node13"><a xlink:title=" ">
<polygon fill="#e0e0e0" stroke="#999999" points="1542.5,-24.5 1413.5,-24.5 1413.5,-5.5 1542.5,-5.5 1542.5,-24.5"/>
<text text-anchor="middle" x="1478" y="-12.5" font-family="Helvetica,sans-Serif" font-size="10.00">boost/log/expressions.hpp</text>
</a>
</g>
</g>
<!-- Node11&#45;&gt;Node13 -->
<g id="edge13" class="edge">
<title>Node11&#45;&gt;Node13</title>
<path fill="none" stroke="#63b8ff" d="M1215.94,-67.62C1266.51,-57.66 1360.64,-39.12 1421.25,-27.18"/>
<polygon fill="#63b8ff" stroke="#63b8ff" points="1421.91,-30.62 1431.04,-25.25 1420.55,-23.75 1421.91,-30.62"/>
</g>
<!-- Node14 -->
<g id="node14" class="node">
<title>Node14</title>
<g id="a_node14"><a xlink:title=" ">
<polygon fill="#e0e0e0" stroke="#999999" points="1661.5,-24.5 1560.5,-24.5 1560.5,-5.5 1661.5,-5.5 1661.5,-24.5"/>
<text text-anchor="middle" x="1611" y="-12.5" font-family="Helvetica,sans-Serif" font-size="10.00">boost/log/trivial.hpp</text>
</a>
</g>
</g>
<!-- Node11&#45;&gt;Node14 -->
<g id="edge14" class="edge">
<title>Node11&#45;&gt;Node14</title>
<path fill="none" stroke="#63b8ff" d="M1215.98,-71.64C1282,-65.95 1429.37,-51.83 1552,-30 1556.31,-29.23 1560.77,-28.35 1565.23,-27.4"/>
<polygon fill="#63b8ff" stroke="#63b8ff" points="1565.72,-30.87 1574.72,-25.28 1564.2,-24.04 1565.72,-30.87"/>
</g>
<!-- Node15 -->
<g id="node15" class="node">
<title>Node15</title>
<g id="a_node15"><a xlink:title=" ">
<polygon fill="#e0e0e0" stroke="#999999" points="1788.5,-30 1679.5,-30 1679.5,0 1788.5,0 1788.5,-30"/>
<text text-anchor="start" x="1687.5" y="-18" font-family="Helvetica,sans-Serif" font-size="10.00">boost/log/utility/setup</text>
<text text-anchor="middle" x="1734" y="-7" font-family="Helvetica,sans-Serif" font-size="10.00">/console.hpp</text>
</a>
</g>
</g>
<!-- Node11&#45;&gt;Node15 -->
<g id="edge15" class="edge">
<title>Node11&#45;&gt;Node15</title>
<path fill="none" stroke="#63b8ff" d="M1215.94,-72.87C1294.85,-68.85 1493.01,-56.92 1667.89,-30.36"/>
<polygon fill="#63b8ff" stroke="#63b8ff" points="1668.26,-33.85 1677.61,-28.86 1667.19,-26.93 1668.26,-33.85"/>
</g>
<!-- Node16 -->
<g id="node16" class="node">
<title>Node16</title>
<g id="a_node16"><a xlink:title=" ">
<polygon fill="#e0e0e0" stroke="#999999" points="1010.5,-30 879.5,-30 879.5,0 1010.5,0 1010.5,-30"/>
<text text-anchor="start" x="887.5" y="-18" font-family="Helvetica,sans-Serif" font-size="10.00">boost/log/sources/severity</text>
<text text-anchor="middle" x="945" y="-7" font-family="Helvetica,sans-Serif" font-size="10.00">_channel_logger.hpp</text>
</a>
</g>
</g>
<!-- Node11&#45;&gt;Node16 -->
<g id="edge16" class="edge">
<title>Node11&#45;&gt;Node16</title>
<path fill="none" stroke="#63b8ff" d="M1146.18,-65.87C1111.62,-57.3 1057.69,-43.93 1014.37,-33.19"/>
<polygon fill="#63b8ff" stroke="#63b8ff" points="1015.33,-29.83 1004.78,-30.82 1013.65,-36.62 1015.33,-29.83"/>
</g>
<!-- Node17 -->
<g id="node17" class="node">
<title>Node17</title>
<g id="a_node17"><a xlink:title=" ">
<polygon fill="#e0e0e0" stroke="#999999" points="1141.5,-30 1028.5,-30 1028.5,0 1141.5,0 1141.5,-30"/>
<text text-anchor="start" x="1036.5" y="-18" font-family="Helvetica,sans-Serif" font-size="10.00">boost/log/support/date</text>
<text text-anchor="middle" x="1085" y="-7" font-family="Helvetica,sans-Serif" font-size="10.00">_time.hpp</text>
</a>
</g>
</g>
<!-- Node11&#45;&gt;Node17 -->
<g id="edge17" class="edge">
<title>Node11&#45;&gt;Node17</title>
<path fill="none" stroke="#63b8ff" d="M1166.42,-65.62C1153.74,-57.89 1134.87,-46.39 1118.49,-36.41"/>
<polygon fill="#63b8ff" stroke="#63b8ff" points="1120.35,-33.44 1109.99,-31.23 1116.71,-39.42 1120.35,-33.44"/>
</g>
<!-- Node18 -->
<g id="node18" class="node">
<title>Node18</title>
<g id="a_node18"><a xlink:title=" ">
<polygon fill="#e0e0e0" stroke="#999999" points="1280.5,-30 1159.5,-30 1159.5,0 1280.5,0 1280.5,-30"/>
<text text-anchor="start" x="1167.5" y="-18" font-family="Helvetica,sans-Serif" font-size="10.00">boost/log/utility/setup</text>
<text text-anchor="middle" x="1220" y="-7" font-family="Helvetica,sans-Serif" font-size="10.00">/common_attributes.hpp</text>
</a>
</g>
</g>
<!-- Node11&#45;&gt;Node18 -->
<g id="edge18" class="edge">
<title>Node11&#45;&gt;Node18</title>
<path fill="none" stroke="#63b8ff" d="M1186.75,-65.87C1191.36,-58.96 1198.05,-48.93 1204.22,-39.67"/>
<polygon fill="#63b8ff" stroke="#63b8ff" points="1207.12,-41.64 1209.75,-31.37 1201.29,-37.75 1207.12,-41.64"/>
</g>
<!-- Node19&#45;&gt;Node11 -->
<g id="edge30" class="edge">
<title>Node19&#45;&gt;Node11</title>
<path fill="none" stroke="#63b8ff" d="M977.16,-291.2C986.68,-277.78 1005.79,-251.59 1024,-231 1071.07,-177.79 1132.51,-120.44 1162.67,-92.98"/>
<polygon fill="#63b8ff" stroke="#63b8ff" points="1164.79,-95.78 1169.85,-86.48 1160.09,-90.6 1164.79,-95.78"/>
</g>
<!-- Node20 -->
<g id="node20" class="node">
<title>Node20</title>
<g id="a_node20"><a xlink:href="_dma_buffer_abstract_8hpp.html" target="_top" xlink:title=" ">
<polygon fill="white" stroke="#666666" points="883.5,-250 766.5,-250 766.5,-231 883.5,-231 883.5,-250"/>
<text text-anchor="middle" x="825" y="-238" font-family="Helvetica,sans-Serif" font-size="10.00">DmaBufferAbstract.hpp</text>
</a>
</g>
</g>
<!-- Node19&#45;&gt;Node20 -->
<g id="edge20" class="edge">
<title>Node19&#45;&gt;Node20</title>
<path fill="none" stroke="#63b8ff" d="M948.83,-291.12C924.6,-281.41 885.55,-265.76 857.78,-254.64"/>
<polygon fill="#63b8ff" stroke="#63b8ff" points="859.37,-251.5 848.79,-251.03 856.77,-258 859.37,-251.5"/>
</g>
<!-- Node21 -->
<g id="node21" class="node">
<title>Node21</title>
<g id="a_node21"><a xlink:href="_uio_config_8hpp.html" target="_top" xlink:title=" ">
<polygon fill="white" stroke="#666666" points="815.5,-85 704.5,-85 704.5,-66 815.5,-66 815.5,-85"/>
<text text-anchor="middle" x="760" y="-73" font-family="Helvetica,sans-Serif" font-size="10.00">udmaio/UioConfig.hpp</text>
</a>
</g>
</g>
<!-- Node19&#45;&gt;Node21 -->
<g id="edge31" class="edge">
<title>Node19&#45;&gt;Node21</title>
<path fill="none" stroke="#63b8ff" d="M971.36,-291.17C971.81,-269.33 970.15,-211.91 943,-176 908.46,-130.32 846.63,-103.08 804.49,-88.95"/>
<polygon fill="#63b8ff" stroke="#63b8ff" points="805.73,-85.67 795.14,-85.93 803.58,-92.33 805.73,-85.67"/>
</g>
<!-- Node20&#45;&gt;Node5 -->
<g id="edge21" class="edge">
<title>Node20&#45;&gt;Node5</title>
<path fill="none" stroke="#63b8ff" d="M786.66,-230.51C743.7,-220.43 674.68,-204.25 633.4,-194.57"/>
<polygon fill="#63b8ff" stroke="#63b8ff" points="634.29,-191.18 623.76,-192.31 632.7,-198 634.29,-191.18"/>
</g>
<!-- Node20&#45;&gt;Node8 -->
<g id="edge22" class="edge">
<title>Node20&#45;&gt;Node8</title>
<path fill="none" stroke="#63b8ff" d="M839.76,-230.51C852.96,-222.47 872.56,-210.53 888.01,-201.11"/>
<polygon fill="#63b8ff" stroke="#63b8ff" points="889.45,-204.34 896.17,-196.15 885.81,-198.36 889.45,-204.34"/>
</g>
<!-- Node20&#45;&gt;Node10 -->
<g id="edge23" class="edge">
<title>Node20&#45;&gt;Node10</title>
<path fill="none" stroke="#63b8ff" d="M832.46,-230.74C843.06,-218.36 863.16,-195.14 881,-176 908.67,-146.32 942.05,-112.92 961.84,-93.35"/>
<polygon fill="#63b8ff" stroke="#63b8ff" points="964.17,-95.97 968.83,-86.46 959.26,-90.98 964.17,-95.97"/>
</g>
<!-- Node20&#45;&gt;Node21 -->
<g id="edge24" class="edge">
<title>Node20&#45;&gt;Node21</title>
<path fill="none" stroke="#63b8ff" d="M821.51,-230.74C811.37,-205.31 781.76,-131.08 767.65,-95.69"/>
<polygon fill="#63b8ff" stroke="#63b8ff" points="771.03,-94.71 764.07,-86.71 764.53,-97.3 771.03,-94.71"/>
</g>
<!-- Node21&#45;&gt;Node7 -->
<g id="edge28" class="edge">
<title>Node21&#45;&gt;Node7</title>
<path fill="none" stroke="#63b8ff" d="M772.3,-65.62C784.79,-56.6 804.38,-42.45 819.45,-31.56"/>
<polygon fill="#63b8ff" stroke="#63b8ff" points="821.3,-34.55 827.36,-25.85 817.2,-28.87 821.3,-34.55"/>
</g>
<!-- Node22 -->
<g id="node22" class="node">
<title>Node22</title>
<g id="a_node22"><a xlink:title=" ">
<polygon fill="#e0e0e0" stroke="#999999" points="551,-24.5 497,-24.5 497,-5.5 551,-5.5 551,-24.5"/>
<text text-anchor="middle" x="524" y="-12.5" font-family="Helvetica,sans-Serif" font-size="10.00">iostream</text>
</a>
</g>
</g>
<!-- Node21&#45;&gt;Node22 -->
<g id="edge25" class="edge">
<title>Node21&#45;&gt;Node22</title>
<path fill="none" stroke="#63b8ff" d="M723.9,-65.55C680.19,-54.72 606.89,-36.55 562.24,-25.48"/>
<polygon fill="#63b8ff" stroke="#63b8ff" points="563.28,-22.13 552.74,-23.12 561.6,-28.93 563.28,-22.13"/>
</g>
<!-- Node23 -->
<g id="node23" class="node">
<title>Node23</title>
<g id="a_node23"><a xlink:title=" ">
<polygon fill="#e0e0e0" stroke="#999999" points="271.5,-24.5 220.5,-24.5 220.5,-5.5 271.5,-5.5 271.5,-24.5"/>
<text text-anchor="middle" x="246" y="-12.5" font-family="Helvetica,sans-Serif" font-size="10.00">memory</text>
</a>
</g>
</g>
<!-- Node21&#45;&gt;Node23 -->
<g id="edge26" class="edge">
<title>Node21&#45;&gt;Node23</title>
<path fill="none" stroke="#63b8ff" d="M704.34,-67.15C701.18,-66.76 698.05,-66.37 695,-66 542.37,-47.52 360.24,-28.03 283.27,-19.91"/>
<polygon fill="#63b8ff" stroke="#63b8ff" points="283.65,-16.43 273.34,-18.86 282.92,-23.39 283.65,-16.43"/>
</g>
<!-- Node24 -->
<g id="node24" class="node">
<title>Node24</title>
<g id="a_node24"><a xlink:title=" ">
<polygon fill="#e0e0e0" stroke="#999999" points="711.5,-24.5 652.5,-24.5 652.5,-5.5 711.5,-5.5 711.5,-24.5"/>
<text text-anchor="middle" x="682" y="-12.5" font-family="Helvetica,sans-Serif" font-size="10.00">stdexcept</text>
</a>
</g>
</g>
<!-- Node21&#45;&gt;Node24 -->
<g id="edge27" class="edge">
<title>Node21&#45;&gt;Node24</title>
<path fill="none" stroke="#63b8ff" d="M748.15,-65.62C736.24,-56.68 717.62,-42.72 703.17,-31.87"/>
<polygon fill="#63b8ff" stroke="#63b8ff" points="705.27,-29.08 695.17,-25.88 701.07,-34.68 705.27,-29.08"/>
</g>
<!-- Node25 -->
<g id="node25" class="node">
<title>Node25</title>
<g id="a_node25"><a xlink:title=" ">
<polygon fill="#e0e0e0" stroke="#999999" points="796,-24.5 730,-24.5 730,-5.5 796,-5.5 796,-24.5"/>
<text text-anchor="middle" x="763" y="-12.5" font-family="Helvetica,sans-Serif" font-size="10.00">string_view</text>
</a>
</g>
</g>
<!-- Node21&#45;&gt;Node25 -->
<g id="edge29" class="edge">
<title>Node21&#45;&gt;Node25</title>
<path fill="none" stroke="#63b8ff" d="M760.44,-65.87C760.85,-58 761.46,-46.1 761.98,-35.89"/>
<polygon fill="#63b8ff" stroke="#63b8ff" points="765.46,-36.35 762.48,-26.18 758.47,-35.99 765.46,-36.35"/>
</g>
<!-- Node27 -->
<g id="node27" class="node">
<title>Node27</title>
<g id="a_node27"><a xlink:title=" ">
<polygon fill="#e0e0e0" stroke="#999999" points="748,-250 710,-250 710,-231 748,-231 748,-250"/>
<text text-anchor="middle" x="729" y="-238" font-family="Helvetica,sans-Serif" font-size="10.00">tuple</text>
</a>
</g>
</g>
<!-- Node26&#45;&gt;Node27 -->
<g id="edge33" class="edge">
<title>Node26&#45;&gt;Node27</title>
<path fill="none" stroke="#63b8ff" d="M648.43,-291.12C663.35,-281.92 686.93,-267.41 704.73,-256.44"/>
<polygon fill="#63b8ff" stroke="#63b8ff" points="706.47,-259.49 713.15,-251.26 702.8,-253.53 706.47,-259.49"/>
</g>
<!-- Node28 -->
<g id="node28" class="node">
<title>Node28</title>
<g id="a_node28"><a xlink:href="_reg_accessor_8hpp.html" target="_top" xlink:title=" ">
<polygon fill="white" stroke="#666666" points="481.5,-250 388.5,-250 388.5,-231 481.5,-231 481.5,-250"/>
<text text-anchor="middle" x="435" y="-238" font-family="Helvetica,sans-Serif" font-size="10.00">RegAccessor.hpp</text>
</a>
</g>
</g>
<!-- Node26&#45;&gt;Node28 -->
<g id="edge34" class="edge">
<title>Node26&#45;&gt;Node28</title>
<path fill="none" stroke="#63b8ff" d="M603.78,-291.12C569.73,-281.11 514.21,-264.79 476.21,-253.62"/>
<polygon fill="#63b8ff" stroke="#63b8ff" points="477.54,-250.36 466.96,-250.9 475.57,-257.07 477.54,-250.36"/>
</g>
<!-- Node29 -->
<g id="node29" class="node">
<title>Node29</title>
<g id="a_node29"><a xlink:href="_uio_if_8hpp.html" target="_top" xlink:title=" ">
<polygon fill="white" stroke="#666666" points="522,-195 432,-195 432,-176 522,-176 522,-195"/>
<text text-anchor="middle" x="477" y="-183" font-family="Helvetica,sans-Serif" font-size="10.00">udmaio/UioIf.hpp</text>
</a>
</g>
</g>
<!-- Node26&#45;&gt;Node29 -->
<g id="edge64" class="edge">
<title>Node26&#45;&gt;Node29</title>
<path fill="none" stroke="#63b8ff" d="M621.68,-291.09C594.97,-271.78 531.45,-225.86 498.17,-201.8"/>
<polygon fill="#63b8ff" stroke="#63b8ff" points="500.64,-199.27 490.49,-196.25 496.54,-204.95 500.64,-199.27"/>
</g>
<!-- Node38 -->
<g id="node38" class="node">
<title>Node38</title>
<g id="a_node38"><a xlink:href="_axi_dma_8hpp.html" target="_top" xlink:title=" ">
<polygon fill="white" stroke="#666666" points="692,-250 576,-250 576,-231 692,-231 692,-250"/>
<text text-anchor="middle" x="634" y="-238" font-family="Helvetica,sans-Serif" font-size="10.00">udmaio/rdl/AxiDma.hpp</text>
</a>
</g>
</g>
<!-- Node26&#45;&gt;Node38 -->
<g id="edge65" class="edge">
<title>Node26&#45;&gt;Node38</title>
<path fill="none" stroke="#63b8ff" d="M634,-291.37C634,-283.5 634,-271.6 634,-261.39"/>
<polygon fill="#63b8ff" stroke="#63b8ff" points="637.5,-261.68 634,-251.68 630.5,-261.68 637.5,-261.68"/>
</g>
<!-- Node28&#45;&gt;Node5 -->
<g id="edge35" class="edge">
<title>Node28&#45;&gt;Node5</title>
<path fill="none" stroke="#63b8ff" d="M462.82,-230.51C490.94,-221.42 534.44,-207.36 564.69,-197.59"/>
<polygon fill="#63b8ff" stroke="#63b8ff" points="565.69,-200.94 574.13,-194.54 563.53,-194.28 565.69,-200.94"/>
</g>
<!-- Node28&#45;&gt;Node29 -->
<g id="edge36" class="edge">
<title>Node28&#45;&gt;Node29</title>
<path fill="none" stroke="#63b8ff" d="M441.94,-230.75C447.62,-223.58 455.84,-213.2 462.89,-204.3"/>
<polygon fill="#63b8ff" stroke="#63b8ff" points="465.51,-206.64 468.97,-196.63 460.02,-202.29 465.51,-206.64"/>
</g>
<!-- Node29&#45;&gt;Node7 -->
<g id="edge41" class="edge">
<title>Node29&#45;&gt;Node7</title>
<path fill="none" stroke="#63b8ff" d="M522.09,-175.53C615.98,-156.41 825.39,-111.24 845,-85 855.54,-70.89 852.68,-50.28 848.32,-35.26"/>
<polygon fill="#63b8ff" stroke="#63b8ff" points="851.73,-34.43 845.21,-26.08 845.1,-36.67 851.73,-34.43"/>
</g>
<!-- Node29&#45;&gt;Node10 -->
<g id="edge42" class="edge">
<title>Node29&#45;&gt;Node10</title>
<path fill="none" stroke="#63b8ff" d="M522.26,-179.28C578.76,-172.33 678.18,-158.72 762,-140 826,-125.7 898.89,-103.02 941.81,-88.99"/>
<polygon fill="#63b8ff" stroke="#63b8ff" points="942.72,-92.37 951.13,-85.92 940.53,-85.72 942.72,-92.37"/>
</g>
<!-- Node29&#45;&gt;Node11 -->
<g id="edge62" class="edge">
<title>Node29&#45;&gt;Node11</title>
<path fill="none" stroke="#63b8ff" d="M522.46,-179.05C587.12,-171.18 709.31,-155.81 813,-140 929.26,-122.28 1065.54,-97.79 1135.08,-85.02"/>
<polygon fill="#63b8ff" stroke="#63b8ff" points="1135.37,-88.52 1144.58,-83.27 1134.11,-81.64 1135.37,-88.52"/>
</g>
<!-- Node29&#45;&gt;Node21 -->
<g id="edge63" class="edge">
<title>Node29&#45;&gt;Node21</title>
<path fill="none" stroke="#63b8ff" d="M511.08,-175.55C540.96,-167.37 585.37,-154.37 623,-140 662.13,-125.05 705.79,-104.02 733.07,-90.33"/>
<polygon fill="#63b8ff" stroke="#63b8ff" points="734.33,-93.62 741.68,-85.98 731.17,-87.37 734.33,-93.62"/>
</g>
<!-- Node29&#45;&gt;Node22 -->
<g id="edge39" class="edge">
<title>Node29&#45;&gt;Node22</title>
<path fill="none" stroke="#63b8ff" d="M431.62,-184.94C311.17,-184.68 -1.03,-173.88 95,-66 120.75,-37.07 384.35,-22.27 485.12,-17.64"/>
<polygon fill="#63b8ff" stroke="#63b8ff" points="485.23,-21.13 495.06,-17.19 484.92,-14.14 485.23,-21.13"/>
</g>
<!-- Node29&#45;&gt;Node23 -->
<g id="edge40" class="edge">
<title>Node29&#45;&gt;Node23</title>
<path fill="none" stroke="#63b8ff" d="M431.64,-182.75C332.42,-178.47 103.11,-165.85 80,-140 58.08,-115.48 60.38,-92.4 80,-66 109.53,-26.26 169.64,-16.95 208.85,-15.37"/>
<polygon fill="#63b8ff" stroke="#63b8ff" points="208.86,-18.87 218.77,-15.13 208.69,-11.87 208.86,-18.87"/>
</g>
<!-- Node30 -->
<g id="node30" class="node">
<title>Node30</title>
<g id="a_node30"><a xlink:title=" ">
<polygon fill="#e0e0e0" stroke="#999999" points="164,-85 104,-85 104,-66 164,-66 164,-85"/>
<text text-anchor="middle" x="134" y="-73" font-family="Helvetica,sans-Serif" font-size="10.00">filesystem</text>
</a>
</g>
</g>
<!-- Node29&#45;&gt;Node30 -->
<g id="edge37" class="edge">
<title>Node29&#45;&gt;Node30</title>
<path fill="none" stroke="#63b8ff" d="M439.36,-175.55C405.13,-167.17 353.34,-153.89 309,-140 259.04,-124.35 202.25,-103.09 167.27,-89.57"/>
<polygon fill="#63b8ff" stroke="#63b8ff" points="168.71,-86.38 158.12,-86.03 166.18,-92.91 168.71,-86.38"/>
</g>
<!-- Node31 -->
<g id="node31" class="node">
<title>Node31</title>
<g id="a_node31"><a xlink:title=" ">
<polygon fill="#e0e0e0" stroke="#999999" points="232,-85 182,-85 182,-66 232,-66 232,-85"/>
<text text-anchor="middle" x="207" y="-73" font-family="Helvetica,sans-Serif" font-size="10.00">fstream</text>
</a>
</g>
</g>
<!-- Node29&#45;&gt;Node31 -->
<g id="edge38" class="edge">
<title>Node29&#45;&gt;Node31</title>
<path fill="none" stroke="#63b8ff" d="M452.5,-175.54C428.56,-166.73 391.15,-152.77 359,-140 316.87,-123.26 268.63,-102.9 238,-89.83"/>
<polygon fill="#63b8ff" stroke="#63b8ff" points="239.52,-86.67 228.95,-85.95 236.77,-93.1 239.52,-86.67"/>
</g>
<!-- Node32 -->
<g id="node32" class="node">
<title>Node32</title>
<g id="a_node32"><a xlink:title=" ">
<polygon fill="#e0e0e0" stroke="#999999" points="293.5,-85 250.5,-85 250.5,-66 293.5,-66 293.5,-85"/>
<text text-anchor="middle" x="272" y="-73" font-family="Helvetica,sans-Serif" font-size="10.00">fcntl.h</text>
</a>
</g>
</g>
<!-- Node29&#45;&gt;Node32 -->
<g id="edge43" class="edge">
<title>Node29&#45;&gt;Node32</title>
<path fill="none" stroke="#63b8ff" d="M460.22,-175.66C424.79,-156.99 342.04,-113.4 299.03,-90.74"/>
<polygon fill="#63b8ff" stroke="#63b8ff" points="300.83,-87.73 290.35,-86.17 297.56,-93.92 300.83,-87.73"/>
</g>
<!-- Node33 -->
<g id="node33" class="node">
<title>Node33</title>
<g id="a_node33"><a xlink:title=" ">
<polygon fill="#e0e0e0" stroke="#999999" points="380.5,-85 311.5,-85 311.5,-66 380.5,-66 380.5,-85"/>
<text text-anchor="middle" x="346" y="-73" font-family="Helvetica,sans-Serif" font-size="10.00">sys/mman.h</text>
</a>
</g>
</g>
<!-- Node29&#45;&gt;Node33 -->
<g id="edge44" class="edge">
<title>Node29&#45;&gt;Node33</title>
<path fill="none" stroke="#63b8ff" d="M466.28,-175.66C444.21,-157.47 393.42,-115.6 365.42,-92.51"/>
<polygon fill="#63b8ff" stroke="#63b8ff" points="367.98,-90.08 358.04,-86.42 363.53,-95.48 367.98,-90.08"/>
</g>
<!-- Node34 -->
<g id="node34" class="node">
<title>Node34</title>
<g id="a_node34"><a xlink:title=" ">
<polygon fill="#e0e0e0" stroke="#999999" points="457.5,-85 398.5,-85 398.5,-66 457.5,-66 457.5,-85"/>
<text text-anchor="middle" x="428" y="-73" font-family="Helvetica,sans-Serif" font-size="10.00">sys/stat.h</text>
</a>
</g>
</g>
<!-- Node29&#45;&gt;Node34 -->
<g id="edge45" class="edge">
<title>Node29&#45;&gt;Node34</title>
<path fill="none" stroke="#63b8ff" d="M465.53,-175.6C455.92,-167.45 442.73,-154.48 436,-140 429.68,-126.4 427.8,-109.48 427.44,-96.53"/>
<polygon fill="#63b8ff" stroke="#63b8ff" points="430.94,-96.69 427.46,-86.68 423.94,-96.67 430.94,-96.69"/>
</g>
<!-- Node35 -->
<g id="node35" class="node">
<title>Node35</title>
<g id="a_node35"><a xlink:title=" ">
<polygon fill="#e0e0e0" stroke="#999999" points="617.5,-85 552.5,-85 552.5,-66 617.5,-66 617.5,-85"/>
<text text-anchor="middle" x="585" y="-73" font-family="Helvetica,sans-Serif" font-size="10.00">sys/types.h</text>
</a>
</g>
</g>
<!-- Node29&#45;&gt;Node35 -->
<g id="edge46" class="edge">
<title>Node29&#45;&gt;Node35</title>
<path fill="none" stroke="#63b8ff" d="M522.31,-175.74C542.91,-169.36 565.63,-158.46 579,-140 587.96,-127.63 589.01,-110.16 588.07,-96.67"/>
<polygon fill="#63b8ff" stroke="#63b8ff" points="591.55,-96.3 586.92,-86.76 584.59,-97.1 591.55,-96.3"/>
</g>
<!-- Node36 -->
<g id="node36" class="node">
<title>Node36</title>
<g id="a_node36"><a xlink:title=" ">
<polygon fill="#e0e0e0" stroke="#999999" points="686,-85 636,-85 636,-66 686,-66 686,-85"/>
<text text-anchor="middle" x="661" y="-73" font-family="Helvetica,sans-Serif" font-size="10.00">unistd.h</text>
</a>
</g>
</g>
<!-- Node29&#45;&gt;Node36 -->
<g id="edge47" class="edge">
<title>Node29&#45;&gt;Node36</title>
<path fill="none" stroke="#63b8ff" d="M512.97,-175.53C537.83,-168.31 570.97,-156.62 597,-140 616.72,-127.41 635.24,-107.87 647.23,-93.79"/>
<polygon fill="#63b8ff" stroke="#63b8ff" points="649.79,-96.17 653.46,-86.23 644.39,-91.72 649.79,-96.17"/>
</g>
<!-- Node37 -->
<g id="node37" class="node">
<title>Node37</title>
<g id="a_node37"><a xlink:href="_hw_accessor_8hpp.html" target="_top" xlink:title=" ">
<polygon fill="white" stroke="#666666" points="570.5,-140 445.5,-140 445.5,-121 570.5,-121 570.5,-140"/>
<text text-anchor="middle" x="508" y="-128" font-family="Helvetica,sans-Serif" font-size="10.00">udmaio/HwAccessor.hpp</text>
</a>
</g>
</g>
<!-- Node29&#45;&gt;Node37 -->
<g id="edge48" class="edge">
<title>Node29&#45;&gt;Node37</title>
<path fill="none" stroke="#63b8ff" d="M482.12,-175.75C486.18,-168.81 491.99,-158.86 497.09,-150.16"/>
<polygon fill="#63b8ff" stroke="#63b8ff" points="499.98,-152.15 502.01,-141.75 493.94,-148.61 499.98,-152.15"/>
</g>
<!-- Node37&#45;&gt;Node7 -->
<g id="edge53" class="edge">
<title>Node37&#45;&gt;Node7</title>
<path fill="none" stroke="#63b8ff" d="M570.69,-128.75C652.03,-126.46 787.82,-117.68 824,-85 837.58,-72.73 841.13,-51.51 841.72,-35.84"/>
<polygon fill="#63b8ff" stroke="#63b8ff" points="845.22,-36.23 841.69,-26.24 838.22,-36.25 845.22,-36.23"/>
</g>
<!-- Node37&#45;&gt;Node10 -->
<g id="edge54" class="edge">
<title>Node37&#45;&gt;Node10</title>
<path fill="none" stroke="#63b8ff" d="M570.55,-122.46C655.1,-112.95 805.96,-95.97 898.77,-85.53"/>
<polygon fill="#63b8ff" stroke="#63b8ff" points="899.02,-89.02 908.57,-84.43 898.24,-82.07 899.02,-89.02"/>
</g>
<!-- Node37&#45;&gt;Node11 -->
<g id="edge60" class="edge">
<title>Node37&#45;&gt;Node11</title>
<path fill="none" stroke="#63b8ff" d="M570.71,-124.56C704.79,-114 1016.71,-89.44 1134.68,-80.15"/>
<polygon fill="#63b8ff" stroke="#63b8ff" points="1134.93,-83.64 1144.63,-79.36 1134.38,-76.66 1134.93,-83.64"/>
</g>
<!-- Node37&#45;&gt;Node21 -->
<g id="edge61" class="edge">
<title>Node37&#45;&gt;Node21</title>
<path fill="none" stroke="#63b8ff" d="M550.75,-120.51C593.69,-111.48 659.98,-97.54 706.41,-87.77"/>
<polygon fill="#63b8ff" stroke="#63b8ff" points="706.92,-91.24 715.98,-85.76 705.48,-84.39 706.92,-91.24"/>
</g>
<!-- Node37&#45;&gt;Node22 -->
<g id="edge51" class="edge">
<title>Node37&#45;&gt;Node22</title>
<path fill="none" stroke="#63b8ff" d="M509.26,-120.59C511.8,-102.53 517.63,-61.17 521.15,-36.21"/>
<polygon fill="#63b8ff" stroke="#63b8ff" points="524.61,-36.75 522.54,-26.36 517.68,-35.78 524.61,-36.75"/>
</g>
<!-- Node37&#45;&gt;Node23 -->
<g id="edge52" class="edge">
<title>Node37&#45;&gt;Node23</title>
<path fill="none" stroke="#63b8ff" d="M504.65,-120.54C498.95,-106.58 486,-79.83 466,-66 410.43,-27.58 329.87,-18.23 283.22,-16.22"/>
<polygon fill="#63b8ff" stroke="#63b8ff" points="283.47,-12.73 273.36,-15.9 283.24,-19.73 283.47,-12.73"/>
</g>
<!-- Node37&#45;&gt;Node30 -->
<g id="edge49" class="edge">
<title>Node37&#45;&gt;Node30</title>
<path fill="none" stroke="#63b8ff" d="M445.1,-122.71C380.03,-115.34 275.26,-102.49 175.39,-85.29"/>
<polygon fill="#63b8ff" stroke="#63b8ff" points="176.13,-81.86 165.68,-83.6 174.93,-88.76 176.13,-81.86"/>
</g>
<!-- Node37&#45;&gt;Node31 -->
<g id="edge50" class="edge">
<title>Node37&#45;&gt;Node31</title>
<path fill="none" stroke="#63b8ff" d="M445.43,-120.52C393.69,-112.76 318.08,-100.67 243.23,-85.33"/>
<polygon fill="#63b8ff" stroke="#63b8ff" points="244.18,-81.95 233.68,-83.35 242.76,-88.8 244.18,-81.95"/>
</g>
<!-- Node37&#45;&gt;Node32 -->
<g id="edge55" class="edge">
<title>Node37&#45;&gt;Node32</title>
<path fill="none" stroke="#63b8ff" d="M462.4,-120.51C422.98,-112.55 364.24,-100.23 304.98,-85.63"/>
<polygon fill="#63b8ff" stroke="#63b8ff" points="305.93,-82.26 295.38,-83.25 304.24,-89.06 305.93,-82.26"/>
</g>
<!-- Node37&#45;&gt;Node33 -->
<g id="edge56" class="edge">
<title>Node37&#45;&gt;Node33</title>
<path fill="none" stroke="#63b8ff" d="M480.52,-120.51C454.02,-111.84 413.7,-98.65 384.11,-88.97"/>
<polygon fill="#63b8ff" stroke="#63b8ff" points="385.38,-85.7 374.78,-85.92 383.2,-92.35 385.38,-85.7"/>
</g>
<!-- Node37&#45;&gt;Node34 -->
<g id="edge57" class="edge">
<title>Node37&#45;&gt;Node34</title>
<path fill="none" stroke="#63b8ff" d="M494.43,-120.51C482.52,-112.62 464.95,-100.98 450.87,-91.65"/>
<polygon fill="#63b8ff" stroke="#63b8ff" points="452.9,-88.8 442.63,-86.19 449.04,-94.63 452.9,-88.8"/>
</g>
<!-- Node37&#45;&gt;Node35 -->
<g id="edge58" class="edge">
<title>Node37&#45;&gt;Node35</title>
<path fill="none" stroke="#63b8ff" d="M521.06,-120.51C532.52,-112.62 549.43,-100.98 562.98,-91.65"/>
<polygon fill="#63b8ff" stroke="#63b8ff" points="564.63,-94.77 570.88,-86.22 560.66,-89 564.63,-94.77"/>
</g>
<!-- Node37&#45;&gt;Node36 -->
<g id="edge59" class="edge">
<title>Node37&#45;&gt;Node36</title>
<path fill="none" stroke="#63b8ff" d="M533.95,-120.51C559.02,-111.83 597.18,-98.61 625.14,-88.92"/>
<polygon fill="#63b8ff" stroke="#63b8ff" points="625.95,-92.35 634.25,-85.77 623.66,-85.73 625.95,-92.35"/>
</g>
<!-- Node38&#45;&gt;Node5 -->
<g id="edge66" class="edge">
<title>Node38&#45;&gt;Node5</title>
<path fill="none" stroke="#63b8ff" d="M628.22,-230.75C623.59,-223.73 616.93,-213.64 611.13,-204.87"/>
<polygon fill="#63b8ff" stroke="#63b8ff" points="614.17,-203.12 605.74,-196.71 608.33,-206.98 614.17,-203.12"/>
</g>
<!-- Node39&#45;&gt;Node20 -->
<g id="edge70" class="edge">
<title>Node39&#45;&gt;Node20</title>
<path fill="none" stroke="#63b8ff" d="M482.1,-292.41C551.76,-282.07 676.79,-263.51 755.09,-251.88"/>
<polygon fill="#63b8ff" stroke="#63b8ff" points="755.41,-255.37 764.79,-250.44 754.38,-248.45 755.41,-255.37"/>
</g>
<!-- Node39&#45;&gt;Node23 -->
<g id="edge69" class="edge">
<title>Node39&#45;&gt;Node23</title>
<path fill="none" stroke="#63b8ff" d="M379.87,-297.3C265.7,-289.88 0,-264.26 0,-186.5 0,-186.5 0,-186.5 0,-129.5 0,-38.57 140.28,-20.25 208.98,-16.73"/>
<polygon fill="#63b8ff" stroke="#63b8ff" points="208.78,-20.24 218.63,-16.32 208.49,-13.25 208.78,-20.24"/>
</g>
<!-- Node39&#45;&gt;Node28 -->
<g id="edge71" class="edge">
<title>Node39&#45;&gt;Node28</title>
<path fill="none" stroke="#63b8ff" d="M431.59,-291.37C432.13,-283.5 432.94,-271.6 433.64,-261.39"/>
<polygon fill="#63b8ff" stroke="#63b8ff" points="437.11,-261.89 434.3,-251.68 430.13,-261.42 437.11,-261.89"/>
</g>
<!-- Node40 -->
<g id="node40" class="node">
<title>Node40</title>
<g id="a_node40"><a xlink:title=" ">
<polygon fill="#e0e0e0" stroke="#999999" points="370.5,-250 321.5,-250 321.5,-231 370.5,-231 370.5,-250"/>
<text text-anchor="middle" x="346" y="-238" font-family="Helvetica,sans-Serif" font-size="10.00">cstddef</text>
</a>
</g>
</g>
<!-- Node39&#45;&gt;Node40 -->
<g id="edge68" class="edge">
<title>Node39&#45;&gt;Node40</title>
<path fill="none" stroke="#63b8ff" d="M418.09,-291.12C404.86,-282.01 384.03,-267.68 368.16,-256.75"/>
<polygon fill="#63b8ff" stroke="#63b8ff" points="370.5,-254.11 360.28,-251.33 366.53,-259.88 370.5,-254.11"/>
</g>
</g>
</svg>
