<?xml version="1.0" encoding="UTF-8" standalone="no"?>
<!DOCTYPE svg PUBLIC "-//W3C//DTD SVG 1.1//EN"
 "http://www.w3.org/Graphics/SVG/1.1/DTD/svg11.dtd">
<!-- Generated by graphviz version 7.0.5 (20221223.1930)
 -->
<!-- Title: DataHandlerPrint.cpp Pages: 1 -->
<svg width="1790pt" height="489pt"
 viewBox="0.00 0.00 1789.50 489.00" xmlns="http://www.w3.org/2000/svg" xmlns:xlink="http://www.w3.org/1999/xlink">
<g id="graph0" class="graph" transform="scale(1 1) rotate(0) translate(4 485)">
<title>DataHandlerPrint.cpp</title>
<!-- Node1 -->
<g id="node1" class="node">
<title>Node1</title>
<g id="a_node1"><a xlink:title=" ">
<polygon fill="#999999" stroke="#666666" points="1191.5,-481 1082.5,-481 1082.5,-462 1191.5,-462 1191.5,-481"/>
<text text-anchor="middle" x="1137" y="-469" font-family="Helvetica,sans-Serif" font-size="10.00">DataHandlerPrint.cpp</text>
</a>
</g>
</g>
<!-- Node2 -->
<g id="node2" class="node">
<title>Node2</title>
<g id="a_node2"><a xlink:href="_data_handler_print_8hpp.html" target="_top" xlink:title=" ">
<polygon fill="white" stroke="#666666" points="1015.5,-426 906.5,-426 906.5,-407 1015.5,-407 1015.5,-426"/>
<text text-anchor="middle" x="961" y="-414" font-family="Helvetica,sans-Serif" font-size="10.00">DataHandlerPrint.hpp</text>
</a>
</g>
</g>
<!-- Node1&#45;&gt;Node2 -->
<g id="edge1" class="edge">
<title>Node1&#45;&gt;Node2</title>
<path fill="none" stroke="#63b8ff" d="M1107.14,-461.51C1078.11,-452.76 1033.78,-439.42 1001.56,-429.71"/>
<polygon fill="#63b8ff" stroke="#63b8ff" points="1002.74,-426.41 992.16,-426.88 1000.72,-433.12 1002.74,-426.41"/>
</g>
<!-- Node23 -->
<g id="node23" class="node">
<title>Node23</title>
<g id="a_node23"><a xlink:title=" ">
<polygon fill="#e0e0e0" stroke="#999999" points="588,-24.5 534,-24.5 534,-5.5 588,-5.5 588,-24.5"/>
<text text-anchor="middle" x="561" y="-12.5" font-family="Helvetica,sans-Serif" font-size="10.00">iostream</text>
</a>
</g>
</g>
<!-- Node1&#45;&gt;Node23 -->
<g id="edge73" class="edge">
<title>Node1&#45;&gt;Node23</title>
<path fill="none" stroke="#63b8ff" d="M1137,-461.54C1137,-443.03 1137,-399.25 1137,-362.5 1137,-362.5 1137,-362.5 1137,-300 1137,-194.64 1176,-137.91 1099,-66 1080.73,-48.94 719.91,-25.63 599.63,-18.3"/>
<polygon fill="#63b8ff" stroke="#63b8ff" points="600.15,-14.82 589.95,-17.71 599.72,-21.81 600.15,-14.82"/>
</g>
<!-- Node42 -->
<g id="node42" class="node">
<title>Node42</title>
<g id="a_node42"><a xlink:title=" ">
<polygon fill="#e0e0e0" stroke="#999999" points="1209,-426 1165,-426 1165,-407 1209,-407 1209,-426"/>
<text text-anchor="middle" x="1187" y="-414" font-family="Helvetica,sans-Serif" font-size="10.00">thread</text>
</a>
</g>
</g>
<!-- Node1&#45;&gt;Node42 -->
<g id="edge74" class="edge">
<title>Node1&#45;&gt;Node42</title>
<path fill="none" stroke="#63b8ff" d="M1145.26,-461.75C1152.16,-454.43 1162.22,-443.76 1170.74,-434.74"/>
<polygon fill="#63b8ff" stroke="#63b8ff" points="1173.21,-437.22 1177.53,-427.54 1168.12,-432.42 1173.21,-437.22"/>
</g>
<!-- Node3 -->
<g id="node3" class="node">
<title>Node3</title>
<g id="a_node3"><a xlink:title=" ">
<polygon fill="#e0e0e0" stroke="#999999" points="923,-371 873,-371 873,-352 923,-352 923,-371"/>
<text text-anchor="middle" x="898" y="-359" font-family="Helvetica,sans-Serif" font-size="10.00">optional</text>
</a>
</g>
</g>
<!-- Node2&#45;&gt;Node3 -->
<g id="edge2" class="edge">
<title>Node2&#45;&gt;Node3</title>
<path fill="none" stroke="#63b8ff" d="M950.31,-406.51C941.3,-398.93 928.17,-387.88 917.32,-378.75"/>
<polygon fill="#63b8ff" stroke="#63b8ff" points="919.59,-376.09 909.69,-372.33 915.09,-381.45 919.59,-376.09"/>
</g>
<!-- Node4 -->
<g id="node4" class="node">
<title>Node4</title>
<g id="a_node4"><a xlink:title=" ">
<polygon fill="#e0e0e0" stroke="#999999" points="980.5,-371 941.5,-371 941.5,-352 980.5,-352 980.5,-371"/>
<text text-anchor="middle" x="961" y="-359" font-family="Helvetica,sans-Serif" font-size="10.00">utility</text>
</a>
</g>
</g>
<!-- Node2&#45;&gt;Node4 -->
<g id="edge3" class="edge">
<title>Node2&#45;&gt;Node4</title>
<path fill="none" stroke="#63b8ff" d="M961,-406.75C961,-400.27 961,-391.16 961,-382.9"/>
<polygon fill="#63b8ff" stroke="#63b8ff" points="964.5,-382.96 961,-372.96 957.5,-382.96 964.5,-382.96"/>
</g>
<!-- Node5 -->
<g id="node5" class="node">
<title>Node5</title>
<g id="a_node5"><a xlink:href="_axi_traffic_gen_lfsr_8hpp.html" target="_top" xlink:title=" ">
<polygon fill="white" stroke="#666666" points="1109,-371 999,-371 999,-352 1109,-352 1109,-371"/>
<text text-anchor="middle" x="1054" y="-359" font-family="Helvetica,sans-Serif" font-size="10.00">AxiTrafficGenLfsr.hpp</text>
</a>
</g>
</g>
<!-- Node2&#45;&gt;Node5 -->
<g id="edge4" class="edge">
<title>Node2&#45;&gt;Node5</title>
<path fill="none" stroke="#63b8ff" d="M976.78,-406.51C991.02,-398.39 1012.24,-386.3 1028.83,-376.85"/>
<polygon fill="#63b8ff" stroke="#63b8ff" points="1030.19,-380.1 1037.14,-372.11 1026.72,-374.02 1030.19,-380.1"/>
</g>
<!-- Node7 -->
<g id="node7" class="node">
<title>Node7</title>
<g id="a_node7"><a xlink:href="_data_handler_abstract_8hpp.html" target="_top" xlink:title=" ">
<polygon fill="white" stroke="#666666" points="581,-371 421,-371 421,-352 581,-352 581,-371"/>
<text text-anchor="middle" x="501" y="-359" font-family="Helvetica,sans-Serif" font-size="10.00">udmaio/DataHandlerAbstract.hpp</text>
</a>
</g>
</g>
<!-- Node2&#45;&gt;Node7 -->
<g id="edge6" class="edge">
<title>Node2&#45;&gt;Node7</title>
<path fill="none" stroke="#63b8ff" d="M906.43,-409.21C828.33,-400.21 683.79,-383.56 590.07,-372.76"/>
<polygon fill="#63b8ff" stroke="#63b8ff" points="590.73,-369.32 580.4,-371.65 589.93,-376.27 590.73,-369.32"/>
</g>
<!-- Node6 -->
<g id="node6" class="node">
<title>Node6</title>
<g id="a_node6"><a xlink:title=" ">
<polygon fill="#e0e0e0" stroke="#999999" points="779,-195 733,-195 733,-176 779,-176 779,-195"/>
<text text-anchor="middle" x="756" y="-183" font-family="Helvetica,sans-Serif" font-size="10.00">cstdint</text>
</a>
</g>
</g>
<!-- Node5&#45;&gt;Node6 -->
<g id="edge5" class="edge">
<title>Node5&#45;&gt;Node6</title>
<path fill="none" stroke="#63b8ff" d="M1038.81,-351.63C990.59,-323.47 840.61,-235.9 780.89,-201.04"/>
<polygon fill="#63b8ff" stroke="#63b8ff" points="782.86,-198.13 772.46,-196.11 779.33,-204.18 782.86,-198.13"/>
</g>
<!-- Node8 -->
<g id="node8" class="node">
<title>Node8</title>
<g id="a_node8"><a xlink:title=" ">
<polygon fill="#e0e0e0" stroke="#999999" points="854.5,-24.5 813.5,-24.5 813.5,-5.5 854.5,-5.5 854.5,-24.5"/>
<text text-anchor="middle" x="834" y="-12.5" font-family="Helvetica,sans-Serif" font-size="10.00">string</text>
</a>
</g>
</g>
<!-- Node7&#45;&gt;Node8 -->
<g id="edge7" class="edge">
<title>Node7&#45;&gt;Node8</title>
<path fill="none" stroke="#63b8ff" d="M581.17,-355.03C763.59,-341.5 1194,-303.07 1194,-241.5 1194,-241.5 1194,-241.5 1194,-129.5 1194,-84.11 1155.69,-83.97 1114,-66 1010.91,-21.57 971.58,-62.08 864,-30 863.04,-29.71 862.06,-29.4 861.09,-29.06"/>
<polygon fill="#63b8ff" stroke="#63b8ff" points="862.78,-25.97 852.2,-25.46 860.15,-32.46 862.78,-25.97"/>
</g>
<!-- Node9 -->
<g id="node9" class="node">
<title>Node9</title>
<g id="a_node9"><a xlink:title=" ">
<polygon fill="#e0e0e0" stroke="#999999" points="44,-195 0,-195 0,-176 44,-176 44,-195"/>
<text text-anchor="middle" x="22" y="-183" font-family="Helvetica,sans-Serif" font-size="10.00">vector</text>
</a>
</g>
</g>
<!-- Node7&#45;&gt;Node9 -->
<g id="edge8" class="edge">
<title>Node7&#45;&gt;Node9</title>
<path fill="none" stroke="#63b8ff" d="M420.9,-356.59C304.91,-350.26 101.03,-336.4 74,-316 38.96,-289.56 27.47,-235.68 23.75,-206.44"/>
<polygon fill="#63b8ff" stroke="#63b8ff" points="27.26,-206.33 22.72,-196.75 20.3,-207.07 27.26,-206.33"/>
</g>
<!-- Node10 -->
<g id="node10" class="node">
<title>Node10</title>
<g id="a_node10"><a xlink:title=" ">
<polygon fill="#e0e0e0" stroke="#999999" points="379,-310.5 299,-310.5 299,-291.5 379,-291.5 379,-310.5"/>
<text text-anchor="middle" x="339" y="-298.5" font-family="Helvetica,sans-Serif" font-size="10.00">boost/asio.hpp</text>
</a>
</g>
</g>
<!-- Node7&#45;&gt;Node10 -->
<g id="edge9" class="edge">
<title>Node7&#45;&gt;Node10</title>
<path fill="none" stroke="#63b8ff" d="M476.4,-351.62C449.28,-341.82 405.42,-325.98 374.56,-314.84"/>
<polygon fill="#63b8ff" stroke="#63b8ff" points="375.85,-311.59 365.26,-311.48 373.48,-318.17 375.85,-311.59"/>
</g>
<!-- Node11 -->
<g id="node11" class="node">
<title>Node11</title>
<g id="a_node11"><a xlink:title=" ">
<polygon fill="#e0e0e0" stroke="#999999" points="375.5,-85 238.5,-85 238.5,-66 375.5,-66 375.5,-85"/>
<text text-anchor="middle" x="307" y="-73" font-family="Helvetica,sans-Serif" font-size="10.00">boost/core/noncopyable.hpp</text>
</a>
</g>
</g>
<!-- Node7&#45;&gt;Node11 -->
<g id="edge10" class="edge">
<title>Node7&#45;&gt;Node11</title>
<path fill="none" stroke="#63b8ff" d="M508.28,-351.56C518.92,-337.34 536.38,-308.86 526,-286 485.24,-196.23 427.58,-210.83 359,-140 344.78,-125.32 330.17,-107.15 320.07,-94.02"/>
<polygon fill="#63b8ff" stroke="#63b8ff" points="323.05,-92.16 314.22,-86.3 317.48,-96.38 323.05,-92.16"/>
</g>
<!-- Node12 -->
<g id="node12" class="node">
<title>Node12</title>
<g id="a_node12"><a xlink:href="_logging_8hpp.html" target="_top" xlink:title=" ">
<polygon fill="white" stroke="#666666" points="1291.5,-85 1222.5,-85 1222.5,-66 1291.5,-66 1291.5,-85"/>
<text text-anchor="middle" x="1257" y="-73" font-family="Helvetica,sans-Serif" font-size="10.00">Logging.hpp</text>
</a>
</g>
</g>
<!-- Node7&#45;&gt;Node12 -->
<g id="edge11" class="edge">
<title>Node7&#45;&gt;Node12</title>
<path fill="none" stroke="#63b8ff" d="M553.65,-351.51C595.62,-343.77 655.66,-331.43 707,-316 906.34,-256.1 954.55,-232.53 1141,-140 1172.92,-124.16 1208.78,-104.18 1232.07,-90.91"/>
<polygon fill="#63b8ff" stroke="#63b8ff" points="1233.57,-94.08 1240.51,-86.07 1230.09,-88.01 1233.57,-94.08"/>
</g>
<!-- Node20 -->
<g id="node20" class="node">
<title>Node20</title>
<g id="a_node20"><a xlink:href="_u_dma_buf_8hpp.html" target="_top" xlink:title=" ">
<polygon fill="white" stroke="#666666" points="280.5,-310.5 203.5,-310.5 203.5,-291.5 280.5,-291.5 280.5,-310.5"/>
<text text-anchor="middle" x="242" y="-298.5" font-family="Helvetica,sans-Serif" font-size="10.00">UDmaBuf.hpp</text>
</a>
</g>
</g>
<!-- Node7&#45;&gt;Node20 -->
<g id="edge20" class="edge">
<title>Node7&#45;&gt;Node20</title>
<path fill="none" stroke="#63b8ff" d="M453.42,-351.54C410.5,-343.2 345.74,-329.98 290,-316 287.44,-315.36 284.82,-314.67 282.17,-313.96"/>
<polygon fill="#63b8ff" stroke="#63b8ff" points="283.38,-310.66 272.81,-311.35 281.5,-317.41 283.38,-310.66"/>
</g>
<!-- Node27 -->
<g id="node27" class="node">
<title>Node27</title>
<g id="a_node27"><a xlink:href="_uio_axi_dma_if_8hpp.html" target="_top" xlink:title=" ">
<polygon fill="white" stroke="#666666" points="697.5,-310.5 608.5,-310.5 608.5,-291.5 697.5,-291.5 697.5,-310.5"/>
<text text-anchor="middle" x="653" y="-298.5" font-family="Helvetica,sans-Serif" font-size="10.00">UioAxiDmaIf.hpp</text>
</a>
</g>
</g>
<!-- Node7&#45;&gt;Node27 -->
<g id="edge33" class="edge">
<title>Node7&#45;&gt;Node27</title>
<path fill="none" stroke="#63b8ff" d="M524.09,-351.62C549.42,-341.87 590.32,-326.12 619.25,-314.99"/>
<polygon fill="#63b8ff" stroke="#63b8ff" points="620.21,-318.37 628.28,-311.51 617.69,-311.84 620.21,-318.37"/>
</g>
<!-- Node39 -->
<g id="node39" class="node">
<title>Node39</title>
<g id="a_node39"><a xlink:href="_uio_mem_sgdma_8hpp.html" target="_top" xlink:title=" ">
<polygon fill="white" stroke="#666666" points="185,-310.5 83,-310.5 83,-291.5 185,-291.5 185,-310.5"/>
<text text-anchor="middle" x="134" y="-298.5" font-family="Helvetica,sans-Serif" font-size="10.00">UioMemSgdma.hpp</text>
</a>
</g>
</g>
<!-- Node7&#45;&gt;Node39 -->
<g id="edge67" class="edge">
<title>Node7&#45;&gt;Node39</title>
<path fill="none" stroke="#63b8ff" d="M427.46,-351.51C365.3,-343.5 274.02,-330.79 195,-316 190.74,-315.2 186.32,-314.31 181.9,-313.38"/>
<polygon fill="#63b8ff" stroke="#63b8ff" points="182.99,-310.04 172.47,-311.32 181.5,-316.87 182.99,-310.04"/>
</g>
<!-- Node41 -->
<g id="node41" class="node">
<title>Node41</title>
<g id="a_node41"><a xlink:title=" ">
<polygon fill="#e0e0e0" stroke="#999999" points="517,-316 397,-316 397,-286 517,-286 517,-316"/>
<text text-anchor="start" x="405" y="-304" font-family="Helvetica,sans-Serif" font-size="10.00">boost/asio/posix/stream</text>
<text text-anchor="middle" x="457" y="-293" font-family="Helvetica,sans-Serif" font-size="10.00">_descriptor.hpp</text>
</a>
</g>
</g>
<!-- Node7&#45;&gt;Node41 -->
<g id="edge72" class="edge">
<title>Node7&#45;&gt;Node41</title>
<path fill="none" stroke="#63b8ff" d="M494.51,-351.87C489.2,-344.81 481.44,-334.5 474.36,-325.08"/>
<polygon fill="#63b8ff" stroke="#63b8ff" points="477.33,-323.21 468.53,-317.32 471.74,-327.42 477.33,-323.21"/>
</g>
<!-- Node12&#45;&gt;Node8 -->
<g id="edge12" class="edge">
<title>Node12&#45;&gt;Node8</title>
<path fill="none" stroke="#63b8ff" d="M1222.25,-68.17C1217.47,-67.39 1212.62,-66.64 1208,-66 1055.74,-44.85 1012.14,-71.07 864,-30 863.01,-29.72 862,-29.42 861,-29.09"/>
<polygon fill="#63b8ff" stroke="#63b8ff" points="862.43,-25.89 851.85,-25.43 859.83,-32.39 862.43,-25.89"/>
</g>
<!-- Node13 -->
<g id="node13" class="node">
<title>Node13</title>
<g id="a_node13"><a xlink:title=" ">
<polygon fill="#e0e0e0" stroke="#999999" points="1239,-24.5 1143,-24.5 1143,-5.5 1239,-5.5 1239,-24.5"/>
<text text-anchor="middle" x="1191" y="-12.5" font-family="Helvetica,sans-Serif" font-size="10.00">boost/log/core.hpp</text>
</a>
</g>
</g>
<!-- Node12&#45;&gt;Node13 -->
<g id="edge13" class="edge">
<title>Node12&#45;&gt;Node13</title>
<path fill="none" stroke="#63b8ff" d="M1246.98,-65.62C1237.09,-56.85 1221.74,-43.25 1209.62,-32.5"/>
<polygon fill="#63b8ff" stroke="#63b8ff" points="1212.06,-29.99 1202.25,-25.97 1207.41,-35.22 1212.06,-29.99"/>
</g>
<!-- Node14 -->
<g id="node14" class="node">
<title>Node14</title>
<g id="a_node14"><a xlink:title=" ">
<polygon fill="#e0e0e0" stroke="#999999" points="1386.5,-24.5 1257.5,-24.5 1257.5,-5.5 1386.5,-5.5 1386.5,-24.5"/>
<text text-anchor="middle" x="1322" y="-12.5" font-family="Helvetica,sans-Serif" font-size="10.00">boost/log/expressions.hpp</text>
</a>
</g>
</g>
<!-- Node12&#45;&gt;Node14 -->
<g id="edge14" class="edge">
<title>Node12&#45;&gt;Node14</title>
<path fill="none" stroke="#63b8ff" d="M1266.87,-65.62C1276.61,-56.85 1291.72,-43.25 1303.66,-32.5"/>
<polygon fill="#63b8ff" stroke="#63b8ff" points="1305.82,-35.27 1310.91,-25.98 1301.14,-30.07 1305.82,-35.27"/>
</g>
<!-- Node15 -->
<g id="node15" class="node">
<title>Node15</title>
<g id="a_node15"><a xlink:title=" ">
<polygon fill="#e0e0e0" stroke="#999999" points="1505.5,-24.5 1404.5,-24.5 1404.5,-5.5 1505.5,-5.5 1505.5,-24.5"/>
<text text-anchor="middle" x="1455" y="-12.5" font-family="Helvetica,sans-Serif" font-size="10.00">boost/log/trivial.hpp</text>
</a>
</g>
</g>
<!-- Node12&#45;&gt;Node15 -->
<g id="edge15" class="edge">
<title>Node12&#45;&gt;Node15</title>
<path fill="none" stroke="#63b8ff" d="M1287.07,-65.62C1320.94,-55.61 1376.19,-39.29 1414,-28.12"/>
<polygon fill="#63b8ff" stroke="#63b8ff" points="1414.6,-31.59 1423.19,-25.4 1412.61,-24.87 1414.6,-31.59"/>
</g>
<!-- Node16 -->
<g id="node16" class="node">
<title>Node16</title>
<g id="a_node16"><a xlink:title=" ">
<polygon fill="#e0e0e0" stroke="#999999" points="1632.5,-30 1523.5,-30 1523.5,0 1632.5,0 1632.5,-30"/>
<text text-anchor="start" x="1531.5" y="-18" font-family="Helvetica,sans-Serif" font-size="10.00">boost/log/utility/setup</text>
<text text-anchor="middle" x="1578" y="-7" font-family="Helvetica,sans-Serif" font-size="10.00">/console.hpp</text>
</a>
</g>
</g>
<!-- Node12&#45;&gt;Node16 -->
<g id="edge16" class="edge">
<title>Node12&#45;&gt;Node16</title>
<path fill="none" stroke="#63b8ff" d="M1291.73,-69.05C1339.29,-61.47 1427.58,-46.98 1511.98,-30.54"/>
<polygon fill="#63b8ff" stroke="#63b8ff" points="1512.43,-34.02 1521.57,-28.66 1511.09,-27.15 1512.43,-34.02"/>
</g>
<!-- Node17 -->
<g id="node17" class="node">
<title>Node17</title>
<g id="a_node17"><a xlink:title=" ">
<polygon fill="#e0e0e0" stroke="#999999" points="1781.5,-30 1650.5,-30 1650.5,0 1781.5,0 1781.5,-30"/>
<text text-anchor="start" x="1658.5" y="-18" font-family="Helvetica,sans-Serif" font-size="10.00">boost/log/sources/severity</text>
<text text-anchor="middle" x="1716" y="-7" font-family="Helvetica,sans-Serif" font-size="10.00">_channel_logger.hpp</text>
</a>
</g>
</g>
<!-- Node12&#45;&gt;Node17 -->
<g id="edge17" class="edge">
<title>Node12&#45;&gt;Node17</title>
<path fill="none" stroke="#63b8ff" d="M1291.88,-71.32C1357.74,-65.12 1505.1,-50.4 1639.01,-30.39"/>
<polygon fill="#63b8ff" stroke="#63b8ff" points="1639.41,-33.87 1648.78,-28.91 1638.37,-26.95 1639.41,-33.87"/>
</g>
<!-- Node18 -->
<g id="node18" class="node">
<title>Node18</title>
<g id="a_node18"><a xlink:title=" ">
<polygon fill="#e0e0e0" stroke="#999999" points="985.5,-30 872.5,-30 872.5,0 985.5,0 985.5,-30"/>
<text text-anchor="start" x="880.5" y="-18" font-family="Helvetica,sans-Serif" font-size="10.00">boost/log/support/date</text>
<text text-anchor="middle" x="929" y="-7" font-family="Helvetica,sans-Serif" font-size="10.00">_time.hpp</text>
</a>
</g>
</g>
<!-- Node12&#45;&gt;Node18 -->
<g id="edge18" class="edge">
<title>Node12&#45;&gt;Node18</title>
<path fill="none" stroke="#63b8ff" d="M1222.2,-68.44C1217.43,-67.62 1212.6,-66.79 1208,-66 1116.88,-50.4 1091.2,-48.12 997.05,-30.34"/>
<polygon fill="#63b8ff" stroke="#63b8ff" points="997.82,-26.93 987.34,-28.5 996.51,-33.8 997.82,-26.93"/>
</g>
<!-- Node19 -->
<g id="node19" class="node">
<title>Node19</title>
<g id="a_node19"><a xlink:title=" ">
<polygon fill="#e0e0e0" stroke="#999999" points="1124.5,-30 1003.5,-30 1003.5,0 1124.5,0 1124.5,-30"/>
<text text-anchor="start" x="1011.5" y="-18" font-family="Helvetica,sans-Serif" font-size="10.00">boost/log/utility/setup</text>
<text text-anchor="middle" x="1064" y="-7" font-family="Helvetica,sans-Serif" font-size="10.00">/common_attributes.hpp</text>
</a>
</g>
</g>
<!-- Node12&#45;&gt;Node19 -->
<g id="edge19" class="edge">
<title>Node12&#45;&gt;Node19</title>
<path fill="none" stroke="#63b8ff" d="M1227.69,-65.62C1199.9,-57.19 1157.37,-44.3 1122.62,-33.77"/>
<polygon fill="#63b8ff" stroke="#63b8ff" points="1123.67,-30.43 1113.09,-30.88 1121.64,-37.13 1123.67,-30.43"/>
</g>
<!-- Node20&#45;&gt;Node12 -->
<g id="edge31" class="edge">
<title>Node20&#45;&gt;Node12</title>
<path fill="none" stroke="#63b8ff" d="M268.92,-291.04C275.73,-289.08 283.08,-287.23 290,-286 523.78,-244.52 591.25,-301.6 823,-250 954.72,-220.67 980.9,-190.6 1106,-140 1147.79,-123.09 1195.73,-102.77 1226.18,-89.75"/>
<polygon fill="#63b8ff" stroke="#63b8ff" points="1227.35,-93.06 1235.17,-85.9 1224.6,-86.62 1227.35,-93.06"/>
</g>
<!-- Node21 -->
<g id="node21" class="node">
<title>Node21</title>
<g id="a_node21"><a xlink:href="_dma_buffer_abstract_8hpp.html" target="_top" xlink:title=" ">
<polygon fill="white" stroke="#666666" points="284.5,-250 167.5,-250 167.5,-231 284.5,-231 284.5,-250"/>
<text text-anchor="middle" x="226" y="-238" font-family="Helvetica,sans-Serif" font-size="10.00">DmaBufferAbstract.hpp</text>
</a>
</g>
</g>
<!-- Node20&#45;&gt;Node21 -->
<g id="edge21" class="edge">
<title>Node20&#45;&gt;Node21</title>
<path fill="none" stroke="#63b8ff" d="M239.64,-291.37C237.46,-283.42 234.16,-271.33 231.35,-261.05"/>
<polygon fill="#63b8ff" stroke="#63b8ff" points="234.78,-260.35 228.77,-251.63 228.03,-262.2 234.78,-260.35"/>
</g>
<!-- Node22 -->
<g id="node22" class="node">
<title>Node22</title>
<g id="a_node22"><a xlink:href="_uio_config_8hpp.html" target="_top" xlink:title=" ">
<polygon fill="white" stroke="#666666" points="220.5,-85 109.5,-85 109.5,-66 220.5,-66 220.5,-85"/>
<text text-anchor="middle" x="165" y="-73" font-family="Helvetica,sans-Serif" font-size="10.00">udmaio/UioConfig.hpp</text>
</a>
</g>
</g>
<!-- Node20&#45;&gt;Node22 -->
<g id="edge32" class="edge">
<title>Node20&#45;&gt;Node22</title>
<path fill="none" stroke="#63b8ff" d="M257.01,-291.06C275.36,-278.86 302.95,-255.68 294,-231 272.19,-170.86 215.61,-117.73 185.14,-92.33"/>
<polygon fill="#63b8ff" stroke="#63b8ff" points="187.72,-89.92 177.76,-86.32 183.3,-95.35 187.72,-89.92"/>
</g>
<!-- Node21&#45;&gt;Node6 -->
<g id="edge22" class="edge">
<title>Node21&#45;&gt;Node6</title>
<path fill="none" stroke="#63b8ff" d="M284.69,-237.5C376.15,-233.66 558.29,-223.19 721.47,-195.15"/>
<polygon fill="#63b8ff" stroke="#63b8ff" points="721.95,-198.62 731.19,-193.45 720.74,-191.72 721.95,-198.62"/>
</g>
<!-- Node21&#45;&gt;Node9 -->
<g id="edge23" class="edge">
<title>Node21&#45;&gt;Node9</title>
<path fill="none" stroke="#63b8ff" d="M191.39,-230.51C153.38,-220.63 92.76,-204.88 55.28,-195.15"/>
<polygon fill="#63b8ff" stroke="#63b8ff" points="56.47,-191.84 45.91,-192.71 54.71,-198.61 56.47,-191.84"/>
</g>
<!-- Node21&#45;&gt;Node11 -->
<g id="edge24" class="edge">
<title>Node21&#45;&gt;Node11</title>
<path fill="none" stroke="#63b8ff" d="M230.35,-230.74C243.05,-205.2 280.2,-130.43 297.69,-95.23"/>
<polygon fill="#63b8ff" stroke="#63b8ff" points="300.63,-97.18 301.95,-86.66 294.37,-94.06 300.63,-97.18"/>
</g>
<!-- Node21&#45;&gt;Node22 -->
<g id="edge25" class="edge">
<title>Node21&#45;&gt;Node22</title>
<path fill="none" stroke="#63b8ff" d="M222.72,-230.74C213.2,-205.31 185.42,-131.08 172.18,-95.69"/>
<polygon fill="#63b8ff" stroke="#63b8ff" points="175.61,-94.86 168.83,-86.72 169.05,-97.32 175.61,-94.86"/>
</g>
<!-- Node22&#45;&gt;Node8 -->
<g id="edge29" class="edge">
<title>Node22&#45;&gt;Node8</title>
<path fill="none" stroke="#63b8ff" d="M221,-67.01C224.04,-66.65 227.06,-66.31 230,-66 448.06,-42.73 711.4,-24.21 801.76,-18.13"/>
<polygon fill="#63b8ff" stroke="#63b8ff" points="801.85,-21.63 811.59,-17.47 801.38,-14.65 801.85,-21.63"/>
</g>
<!-- Node22&#45;&gt;Node23 -->
<g id="edge26" class="edge">
<title>Node22&#45;&gt;Node23</title>
<path fill="none" stroke="#63b8ff" d="M220.9,-66.24C302.52,-54.18 452.24,-32.07 522.58,-21.68"/>
<polygon fill="#63b8ff" stroke="#63b8ff" points="523.08,-25.14 532.46,-20.22 522.06,-18.21 523.08,-25.14"/>
</g>
<!-- Node24 -->
<g id="node24" class="node">
<title>Node24</title>
<g id="a_node24"><a xlink:title=" ">
<polygon fill="#e0e0e0" stroke="#999999" points="389.5,-24.5 338.5,-24.5 338.5,-5.5 389.5,-5.5 389.5,-24.5"/>
<text text-anchor="middle" x="364" y="-12.5" font-family="Helvetica,sans-Serif" font-size="10.00">memory</text>
</a>
</g>
</g>
<!-- Node22&#45;&gt;Node24 -->
<g id="edge27" class="edge">
<title>Node22&#45;&gt;Node24</title>
<path fill="none" stroke="#63b8ff" d="M195.22,-65.62C230.75,-55.17 289.67,-37.85 327.66,-26.68"/>
<polygon fill="#63b8ff" stroke="#63b8ff" points="328.19,-30.17 336.8,-24 326.22,-23.46 328.19,-30.17"/>
</g>
<!-- Node25 -->
<g id="node25" class="node">
<title>Node25</title>
<g id="a_node25"><a xlink:title=" ">
<polygon fill="#e0e0e0" stroke="#999999" points="154.5,-24.5 95.5,-24.5 95.5,-5.5 154.5,-5.5 154.5,-24.5"/>
<text text-anchor="middle" x="125" y="-12.5" font-family="Helvetica,sans-Serif" font-size="10.00">stdexcept</text>
</a>
</g>
</g>
<!-- Node22&#45;&gt;Node25 -->
<g id="edge28" class="edge">
<title>Node22&#45;&gt;Node25</title>
<path fill="none" stroke="#63b8ff" d="M159.1,-65.87C153.37,-57.49 144.49,-44.51 137.24,-33.89"/>
<polygon fill="#63b8ff" stroke="#63b8ff" points="140.31,-32.2 131.78,-25.92 134.54,-36.15 140.31,-32.2"/>
</g>
<!-- Node26 -->
<g id="node26" class="node">
<title>Node26</title>
<g id="a_node26"><a xlink:title=" ">
<polygon fill="#e0e0e0" stroke="#999999" points="239,-24.5 173,-24.5 173,-5.5 239,-5.5 239,-24.5"/>
<text text-anchor="middle" x="206" y="-12.5" font-family="Helvetica,sans-Serif" font-size="10.00">string_view</text>
</a>
</g>
</g>
<!-- Node22&#45;&gt;Node26 -->
<g id="edge30" class="edge">
<title>Node22&#45;&gt;Node26</title>
<path fill="none" stroke="#63b8ff" d="M171.05,-65.87C176.92,-57.49 186.02,-44.51 193.46,-33.89"/>
<polygon fill="#63b8ff" stroke="#63b8ff" points="196.18,-36.1 199.06,-25.91 190.45,-32.09 196.18,-36.1"/>
</g>
<!-- Node28 -->
<g id="node28" class="node">
<title>Node28</title>
<g id="a_node28"><a xlink:href="_reg_accessor_8hpp.html" target="_top" xlink:title=" ">
<polygon fill="white" stroke="#666666" points="641.5,-250 548.5,-250 548.5,-231 641.5,-231 641.5,-250"/>
<text text-anchor="middle" x="595" y="-238" font-family="Helvetica,sans-Serif" font-size="10.00">RegAccessor.hpp</text>
</a>
</g>
</g>
<!-- Node27&#45;&gt;Node28 -->
<g id="edge34" class="edge">
<title>Node27&#45;&gt;Node28</title>
<path fill="none" stroke="#63b8ff" d="M644.44,-291.37C635.79,-282.64 622.2,-268.93 611.45,-258.09"/>
<polygon fill="#63b8ff" stroke="#63b8ff" points="614.19,-255.88 604.66,-251.24 609.21,-260.81 614.19,-255.88"/>
</g>
<!-- Node29 -->
<g id="node29" class="node">
<title>Node29</title>
<g id="a_node29"><a xlink:href="_uio_if_8hpp.html" target="_top" xlink:title=" ">
<polygon fill="white" stroke="#666666" points="715,-195 625,-195 625,-176 715,-176 715,-195"/>
<text text-anchor="middle" x="670" y="-183" font-family="Helvetica,sans-Serif" font-size="10.00">udmaio/UioIf.hpp</text>
</a>
</g>
</g>
<!-- Node27&#45;&gt;Node29 -->
<g id="edge64" class="edge">
<title>Node27&#45;&gt;Node29</title>
<path fill="none" stroke="#63b8ff" d="M654.33,-291.09C657.04,-273.03 663.23,-231.67 666.97,-206.71"/>
<polygon fill="#63b8ff" stroke="#63b8ff" points="670.43,-207.27 668.45,-196.86 663.51,-206.23 670.43,-207.27"/>
</g>
<!-- Node38 -->
<g id="node38" class="node">
<title>Node38</title>
<g id="a_node38"><a xlink:href="_axi_dma_8hpp.html" target="_top" xlink:title=" ">
<polygon fill="white" stroke="#666666" points="814,-250 698,-250 698,-231 814,-231 814,-250"/>
<text text-anchor="middle" x="756" y="-238" font-family="Helvetica,sans-Serif" font-size="10.00">udmaio/rdl/AxiDma.hpp</text>
</a>
</g>
</g>
<!-- Node27&#45;&gt;Node38 -->
<g id="edge65" class="edge">
<title>Node27&#45;&gt;Node38</title>
<path fill="none" stroke="#63b8ff" d="M668.64,-291.12C684.98,-281.84 710.87,-267.13 730.23,-256.14"/>
<polygon fill="#63b8ff" stroke="#63b8ff" points="731.93,-259.2 738.89,-251.22 728.47,-253.11 731.93,-259.2"/>
</g>
<!-- Node28&#45;&gt;Node6 -->
<g id="edge35" class="edge">
<title>Node28&#45;&gt;Node6</title>
<path fill="none" stroke="#63b8ff" d="M622.31,-230.51C649.84,-221.45 692.38,-207.44 722.06,-197.67"/>
<polygon fill="#63b8ff" stroke="#63b8ff" points="722.9,-201.08 731.3,-194.63 720.71,-194.43 722.9,-201.08"/>
</g>
<!-- Node28&#45;&gt;Node29 -->
<g id="edge36" class="edge">
<title>Node28&#45;&gt;Node29</title>
<path fill="none" stroke="#63b8ff" d="M607.72,-230.51C618.78,-222.7 635.04,-211.21 648.17,-201.93"/>
<polygon fill="#63b8ff" stroke="#63b8ff" points="650.08,-204.86 656.23,-196.23 646.04,-199.14 650.08,-204.86"/>
</g>
<!-- Node29&#45;&gt;Node8 -->
<g id="edge41" class="edge">
<title>Node29&#45;&gt;Node8</title>
<path fill="none" stroke="#63b8ff" d="M715.33,-177.33C820.83,-160.18 1075.7,-115.91 1099,-85 1104.08,-78.26 1104.5,-72.41 1099,-66 1064.59,-25.91 914.56,-45.33 864,-30 863.04,-29.71 862.07,-29.39 861.09,-29.05"/>
<polygon fill="#63b8ff" stroke="#63b8ff" points="862.79,-25.96 852.2,-25.43 860.15,-32.45 862.79,-25.96"/>
</g>
<!-- Node29&#45;&gt;Node11 -->
<g id="edge42" class="edge">
<title>Node29&#45;&gt;Node11</title>
<path fill="none" stroke="#63b8ff" d="M624.54,-183.2C569.14,-180.24 473.59,-170.69 398,-140 369.99,-128.63 342.12,-107.33 324.75,-92.56"/>
<polygon fill="#63b8ff" stroke="#63b8ff" points="327.22,-90.06 317.38,-86.12 322.61,-95.34 327.22,-90.06"/>
</g>
<!-- Node29&#45;&gt;Node12 -->
<g id="edge62" class="edge">
<title>Node29&#45;&gt;Node12</title>
<path fill="none" stroke="#63b8ff" d="M715.35,-177.2C718.28,-176.78 721.18,-176.37 724,-176 871.13,-156.46 910.75,-170.5 1056,-140 1116.11,-127.38 1183.79,-104.01 1223.28,-89.42"/>
<polygon fill="#63b8ff" stroke="#63b8ff" points="1224.32,-92.77 1232.47,-85.99 1221.87,-86.21 1224.32,-92.77"/>
</g>
<!-- Node29&#45;&gt;Node22 -->
<g id="edge63" class="edge">
<title>Node29&#45;&gt;Node22</title>
<path fill="none" stroke="#63b8ff" d="M624.74,-180.52C563.79,-174.59 452.22,-161.75 359,-140 301.52,-126.59 236.71,-103.75 198.45,-89.43"/>
<polygon fill="#63b8ff" stroke="#63b8ff" points="199.93,-86.25 189.34,-85.99 197.46,-92.79 199.93,-86.25"/>
</g>
<!-- Node29&#45;&gt;Node23 -->
<g id="edge39" class="edge">
<title>Node29&#45;&gt;Node23</title>
<path fill="none" stroke="#63b8ff" d="M624.71,-177.82C574.38,-167.65 495.75,-142.94 462,-85 445.11,-56.01 488.11,-36.28 522.66,-25.58"/>
<polygon fill="#63b8ff" stroke="#63b8ff" points="523.43,-29 532.05,-22.84 521.47,-22.28 523.43,-29"/>
</g>
<!-- Node29&#45;&gt;Node24 -->
<g id="edge40" class="edge">
<title>Node29&#45;&gt;Node24</title>
<path fill="none" stroke="#63b8ff" d="M624.76,-180.2C586.56,-175.02 531.47,-163.83 489,-140 440.3,-112.68 397.46,-61.22 376.91,-33.97"/>
<polygon fill="#63b8ff" stroke="#63b8ff" points="379.81,-32.01 371.06,-26.04 374.17,-36.16 379.81,-32.01"/>
</g>
<!-- Node30 -->
<g id="node30" class="node">
<title>Node30</title>
<g id="a_node30"><a xlink:title=" ">
<polygon fill="#e0e0e0" stroke="#999999" points="873,-85 813,-85 813,-66 873,-66 873,-85"/>
<text text-anchor="middle" x="843" y="-73" font-family="Helvetica,sans-Serif" font-size="10.00">filesystem</text>
</a>
</g>
</g>
<!-- Node29&#45;&gt;Node30 -->
<g id="edge37" class="edge">
<title>Node29&#45;&gt;Node30</title>
<path fill="none" stroke="#63b8ff" d="M695.29,-175.65C716.16,-167.79 746.12,-155.21 770,-140 791.35,-126.4 812.86,-106.8 826.95,-92.98"/>
<polygon fill="#63b8ff" stroke="#63b8ff" points="829.03,-95.85 833.62,-86.3 824.08,-90.91 829.03,-95.85"/>
</g>
<!-- Node31 -->
<g id="node31" class="node">
<title>Node31</title>
<g id="a_node31"><a xlink:title=" ">
<polygon fill="#e0e0e0" stroke="#999999" points="941,-85 891,-85 891,-66 941,-66 941,-85"/>
<text text-anchor="middle" x="916" y="-73" font-family="Helvetica,sans-Serif" font-size="10.00">fstream</text>
</a>
</g>
</g>
<!-- Node29&#45;&gt;Node31 -->
<g id="edge38" class="edge">
<title>Node29&#45;&gt;Node31</title>
<path fill="none" stroke="#63b8ff" d="M699.24,-175.52C725.09,-167.28 763.6,-154.2 796,-140 829.85,-125.16 867.25,-104.68 891.15,-91.03"/>
<polygon fill="#63b8ff" stroke="#63b8ff" points="892.59,-94.24 899.51,-86.22 889.1,-88.18 892.59,-94.24"/>
</g>
<!-- Node32 -->
<g id="node32" class="node">
<title>Node32</title>
<g id="a_node32"><a xlink:title=" ">
<polygon fill="#e0e0e0" stroke="#999999" points="1002.5,-85 959.5,-85 959.5,-66 1002.5,-66 1002.5,-85"/>
<text text-anchor="middle" x="981" y="-73" font-family="Helvetica,sans-Serif" font-size="10.00">fcntl.h</text>
</a>
</g>
</g>
<!-- Node29&#45;&gt;Node32 -->
<g id="edge43" class="edge">
<title>Node29&#45;&gt;Node32</title>
<path fill="none" stroke="#63b8ff" d="M706.46,-175.55C738.73,-167.31 786.94,-154.25 828,-140 871.56,-124.89 920.56,-103.8 951.11,-90.15"/>
<polygon fill="#63b8ff" stroke="#63b8ff" points="952.42,-93.4 960.1,-86.1 949.55,-87.01 952.42,-93.4"/>
</g>
<!-- Node33 -->
<g id="node33" class="node">
<title>Node33</title>
<g id="a_node33"><a xlink:title=" ">
<polygon fill="#e0e0e0" stroke="#999999" points="1089.5,-85 1020.5,-85 1020.5,-66 1089.5,-66 1089.5,-85"/>
<text text-anchor="middle" x="1055" y="-73" font-family="Helvetica,sans-Serif" font-size="10.00">sys/mman.h</text>
</a>
</g>
</g>
<!-- Node29&#45;&gt;Node33 -->
<g id="edge44" class="edge">
<title>Node29&#45;&gt;Node33</title>
<path fill="none" stroke="#63b8ff" d="M714.85,-175.57C754.57,-167.35 814.01,-154.3 865,-140 919.86,-124.61 982.32,-102.91 1020.18,-89.28"/>
<polygon fill="#63b8ff" stroke="#63b8ff" points="1021.01,-92.71 1029.22,-86.01 1018.63,-86.12 1021.01,-92.71"/>
</g>
<!-- Node34 -->
<g id="node34" class="node">
<title>Node34</title>
<g id="a_node34"><a xlink:title=" ">
<polygon fill="#e0e0e0" stroke="#999999" points="529.5,-85 470.5,-85 470.5,-66 529.5,-66 529.5,-85"/>
<text text-anchor="middle" x="500" y="-73" font-family="Helvetica,sans-Serif" font-size="10.00">sys/stat.h</text>
</a>
</g>
</g>
<!-- Node29&#45;&gt;Node34 -->
<g id="edge45" class="edge">
<title>Node29&#45;&gt;Node34</title>
<path fill="none" stroke="#63b8ff" d="M653.32,-175.53C637.36,-166.81 612.72,-153.03 592,-140 567.32,-124.49 539.94,-105.32 521.51,-92.13"/>
<polygon fill="#63b8ff" stroke="#63b8ff" points="523.66,-89.36 513.5,-86.36 519.57,-95.04 523.66,-89.36"/>
</g>
<!-- Node35 -->
<g id="node35" class="node">
<title>Node35</title>
<g id="a_node35"><a xlink:title=" ">
<polygon fill="#e0e0e0" stroke="#999999" points="612.5,-85 547.5,-85 547.5,-66 612.5,-66 612.5,-85"/>
<text text-anchor="middle" x="580" y="-73" font-family="Helvetica,sans-Serif" font-size="10.00">sys/types.h</text>
</a>
</g>
</g>
<!-- Node29&#45;&gt;Node35 -->
<g id="edge46" class="edge">
<title>Node29&#45;&gt;Node35</title>
<path fill="none" stroke="#63b8ff" d="M652.8,-175.55C639.15,-167.72 620.36,-155.23 608,-140 597.42,-126.96 590.06,-109.31 585.55,-95.92"/>
<polygon fill="#63b8ff" stroke="#63b8ff" points="588.95,-95.05 582.65,-86.53 582.26,-97.12 588.95,-95.05"/>
</g>
<!-- Node36 -->
<g id="node36" class="node">
<title>Node36</title>
<g id="a_node36"><a xlink:title=" ">
<polygon fill="#e0e0e0" stroke="#999999" points="795,-85 745,-85 745,-66 795,-66 795,-85"/>
<text text-anchor="middle" x="770" y="-73" font-family="Helvetica,sans-Serif" font-size="10.00">unistd.h</text>
</a>
</g>
</g>
<!-- Node29&#45;&gt;Node36 -->
<g id="edge47" class="edge">
<title>Node29&#45;&gt;Node36</title>
<path fill="none" stroke="#63b8ff" d="M697.67,-175.52C715.28,-168.47 737.29,-156.97 751,-140 761.08,-127.53 765.81,-109.82 768.04,-96.27"/>
<polygon fill="#63b8ff" stroke="#63b8ff" points="771.45,-97.13 769.26,-86.77 764.51,-96.24 771.45,-97.13"/>
</g>
<!-- Node37 -->
<g id="node37" class="node">
<title>Node37</title>
<g id="a_node37"><a xlink:href="_hw_accessor_8hpp.html" target="_top" xlink:title=" ">
<polygon fill="white" stroke="#666666" points="741.5,-140 616.5,-140 616.5,-121 741.5,-121 741.5,-140"/>
<text text-anchor="middle" x="679" y="-128" font-family="Helvetica,sans-Serif" font-size="10.00">udmaio/HwAccessor.hpp</text>
</a>
</g>
</g>
<!-- Node29&#45;&gt;Node37 -->
<g id="edge48" class="edge">
<title>Node29&#45;&gt;Node37</title>
<path fill="none" stroke="#63b8ff" d="M671.49,-175.75C672.6,-169.19 674.17,-159.95 675.59,-151.6"/>
<polygon fill="#63b8ff" stroke="#63b8ff" points="679,-152.38 677.23,-141.93 672.1,-151.21 679,-152.38"/>
</g>
<!-- Node37&#45;&gt;Node8 -->
<g id="edge53" class="edge">
<title>Node37&#45;&gt;Node8</title>
<path fill="none" stroke="#63b8ff" d="M685.18,-120.77C694.83,-107.6 714.63,-82.44 736,-66 756.44,-50.28 782.58,-37.24 802.72,-28.42"/>
<polygon fill="#63b8ff" stroke="#63b8ff" points="803.98,-31.68 811.82,-24.55 801.25,-25.24 803.98,-31.68"/>
</g>
<!-- Node37&#45;&gt;Node11 -->
<g id="edge54" class="edge">
<title>Node37&#45;&gt;Node11</title>
<path fill="none" stroke="#63b8ff" d="M616.32,-120.57C551.39,-111.32 449.98,-96.87 381.13,-87.06"/>
<polygon fill="#63b8ff" stroke="#63b8ff" points="381.83,-83.63 371.44,-85.68 380.85,-90.56 381.83,-83.63"/>
</g>
<!-- Node37&#45;&gt;Node12 -->
<g id="edge60" class="edge">
<title>Node37&#45;&gt;Node12</title>
<path fill="none" stroke="#63b8ff" d="M741.96,-123.73C859.16,-112.98 1108.22,-90.14 1211.08,-80.71"/>
<polygon fill="#63b8ff" stroke="#63b8ff" points="1211.16,-84.22 1220.8,-79.82 1210.52,-77.25 1211.16,-84.22"/>
</g>
<!-- Node37&#45;&gt;Node22 -->
<g id="edge61" class="edge">
<title>Node37&#45;&gt;Node22</title>
<path fill="none" stroke="#63b8ff" d="M616.1,-123.89C531.4,-116.2 375.71,-101.57 231.87,-85.18"/>
<polygon fill="#63b8ff" stroke="#63b8ff" points="232.49,-81.73 222.16,-84.07 231.7,-88.68 232.49,-81.73"/>
</g>
<!-- Node37&#45;&gt;Node23 -->
<g id="edge51" class="edge">
<title>Node37&#45;&gt;Node23</title>
<path fill="none" stroke="#63b8ff" d="M677.7,-120.69C675.32,-107.4 669.17,-82.1 655,-66 640.03,-48.98 617.83,-36.8 598.77,-28.72"/>
<polygon fill="#63b8ff" stroke="#63b8ff" points="600.27,-25.55 589.68,-25.1 597.68,-32.05 600.27,-25.55"/>
</g>
<!-- Node37&#45;&gt;Node24 -->
<g id="edge52" class="edge">
<title>Node37&#45;&gt;Node24</title>
<path fill="none" stroke="#63b8ff" d="M673.92,-120.9C665.2,-106.95 645.98,-79.58 622,-66 551.1,-25.84 453.56,-17.38 401.06,-15.93"/>
<polygon fill="#63b8ff" stroke="#63b8ff" points="401.22,-12.44 391.15,-15.74 401.08,-19.44 401.22,-12.44"/>
</g>
<!-- Node37&#45;&gt;Node30 -->
<g id="edge49" class="edge">
<title>Node37&#45;&gt;Node30</title>
<path fill="none" stroke="#63b8ff" d="M706.82,-120.51C733.64,-111.84 774.46,-98.65 804.42,-88.97"/>
<polygon fill="#63b8ff" stroke="#63b8ff" points="805.44,-92.32 813.88,-85.91 803.29,-85.66 805.44,-92.32"/>
</g>
<!-- Node37&#45;&gt;Node31 -->
<g id="edge50" class="edge">
<title>Node37&#45;&gt;Node31</title>
<path fill="none" stroke="#63b8ff" d="M721.46,-120.57C760.26,-112.32 819.49,-99.53 879.88,-85.44"/>
<polygon fill="#63b8ff" stroke="#63b8ff" points="880.36,-88.93 889.3,-83.24 878.76,-82.11 880.36,-88.93"/>
</g>
<!-- Node37&#45;&gt;Node32 -->
<g id="edge55" class="edge">
<title>Node37&#45;&gt;Node32</title>
<path fill="none" stroke="#63b8ff" d="M741.78,-121.1C794.35,-113.63 871.55,-101.66 947.81,-85.27"/>
<polygon fill="#63b8ff" stroke="#63b8ff" points="948.55,-88.69 957.58,-83.15 947.06,-81.86 948.55,-88.69"/>
</g>
<!-- Node37&#45;&gt;Node33 -->
<g id="edge56" class="edge">
<title>Node37&#45;&gt;Node33</title>
<path fill="none" stroke="#63b8ff" d="M741.78,-122.29C806.43,-114.61 910.36,-101.51 1009.21,-85.38"/>
<polygon fill="#63b8ff" stroke="#63b8ff" points="1009.51,-88.88 1018.81,-83.8 1008.37,-81.97 1009.51,-88.88"/>
</g>
<!-- Node37&#45;&gt;Node34 -->
<g id="edge57" class="edge">
<title>Node37&#45;&gt;Node34</title>
<path fill="none" stroke="#63b8ff" d="M648.64,-120.51C619.01,-111.74 573.75,-98.34 540.95,-88.62"/>
<polygon fill="#63b8ff" stroke="#63b8ff" points="541.95,-85.27 531.37,-85.79 539.96,-91.98 541.95,-85.27"/>
</g>
<!-- Node37&#45;&gt;Node35 -->
<g id="edge58" class="edge">
<title>Node37&#45;&gt;Node35</title>
<path fill="none" stroke="#63b8ff" d="M662.21,-120.51C646.9,-112.31 624.03,-100.07 606.3,-90.58"/>
<polygon fill="#63b8ff" stroke="#63b8ff" points="608.35,-87.71 597.88,-86.07 605.04,-93.88 608.35,-87.71"/>
</g>
<!-- Node37&#45;&gt;Node36 -->
<g id="edge59" class="edge">
<title>Node37&#45;&gt;Node36</title>
<path fill="none" stroke="#63b8ff" d="M694.44,-120.51C708.25,-112.47 728.75,-100.53 744.91,-91.11"/>
<polygon fill="#63b8ff" stroke="#63b8ff" points="746.6,-94.18 753.48,-86.12 743.08,-88.13 746.6,-94.18"/>
</g>
<!-- Node38&#45;&gt;Node6 -->
<g id="edge66" class="edge">
<title>Node38&#45;&gt;Node6</title>
<path fill="none" stroke="#63b8ff" d="M756,-230.75C756,-224.27 756,-215.16 756,-206.9"/>
<polygon fill="#63b8ff" stroke="#63b8ff" points="759.5,-206.96 756,-196.96 752.5,-206.96 759.5,-206.96"/>
</g>
<!-- Node39&#45;&gt;Node21 -->
<g id="edge70" class="edge">
<title>Node39&#45;&gt;Node21</title>
<path fill="none" stroke="#63b8ff" d="M147.97,-291.12C162.43,-281.92 185.26,-267.41 202.5,-256.44"/>
<polygon fill="#63b8ff" stroke="#63b8ff" points="204.06,-259.6 210.62,-251.28 200.3,-253.69 204.06,-259.6"/>
</g>
<!-- Node39&#45;&gt;Node24 -->
<g id="edge69" class="edge">
<title>Node39&#45;&gt;Node24</title>
<path fill="none" stroke="#63b8ff" d="M124.46,-291.31C114.76,-281.97 99.9,-266.27 91,-250 76.86,-224.15 72,-215.96 72,-186.5 72,-186.5 72,-186.5 72,-129.5 72,-98.66 75.85,-85.19 100,-66 117.61,-52.01 258.5,-30.72 326.94,-21.07"/>
<polygon fill="#63b8ff" stroke="#63b8ff" points="327.14,-24.58 336.55,-19.73 326.17,-17.65 327.14,-24.58"/>
</g>
<!-- Node39&#45;&gt;Node28 -->
<g id="edge71" class="edge">
<title>Node39&#45;&gt;Node28</title>
<path fill="none" stroke="#63b8ff" d="M169.99,-291.02C178.18,-289.18 186.86,-287.38 195,-286 315.97,-265.46 459.21,-252.16 537.23,-245.83"/>
<polygon fill="#63b8ff" stroke="#63b8ff" points="537.06,-249.36 546.75,-245.07 536.5,-242.38 537.06,-249.36"/>
</g>
<!-- Node40 -->
<g id="node40" class="node">
<title>Node40</title>
<g id="a_node40"><a xlink:title=" ">
<polygon fill="#e0e0e0" stroke="#999999" points="149.5,-250 100.5,-250 100.5,-231 149.5,-231 149.5,-250"/>
<text text-anchor="middle" x="125" y="-238" font-family="Helvetica,sans-Serif" font-size="10.00">cstddef</text>
</a>
</g>
</g>
<!-- Node39&#45;&gt;Node40 -->
<g id="edge68" class="edge">
<title>Node39&#45;&gt;Node40</title>
<path fill="none" stroke="#63b8ff" d="M132.67,-291.37C131.46,-283.5 129.63,-271.6 128.06,-261.39"/>
<polygon fill="#63b8ff" stroke="#63b8ff" points="131.54,-261.01 126.56,-251.66 124.62,-262.08 131.54,-261.01"/>
</g>
</g>
</svg>
