<?xml version="1.0" encoding="UTF-8" standalone="no"?>
<!DOCTYPE svg PUBLIC "-//W3C//DTD SVG 1.1//EN"
 "http://www.w3.org/Graphics/SVG/1.1/DTD/svg11.dtd">
<!-- Generated by graphviz version 7.0.5 (20221223.1930)
 -->
<!-- Title: DataHandlerPrint.hpp Pages: 1 -->
<!--zoomable 379 -->
<svg id="main" version="1.1" xmlns="http://www.w3.org/2000/svg" xmlns:xlink="http://www.w3.org/1999/xlink" xml:space="preserve" onload="init(evt)">
<style type="text/css"><![CDATA[
.edge:hover path { stroke: red; }
.edge:hover polygon { stroke: red; fill: red; }
]]></style>
<script type="text/javascript"><![CDATA[
var edges = document.getElementsByTagName('g');
if (edges && edges.length) {
  for (var i=0;i<edges.length;i++) {
    if (edges[i].id.substr(0,4)=='edge') {
      edges[i].setAttribute('class','edge');
    }
  }
}
]]></script>
        <defs>
                <circle id="rim" cx="0" cy="0" r="7"/>
                <circle id="rim2" cx="0" cy="0" r="3.5"/>
                <g id="zoomPlus">
                        <use xlink:href="#rim" fill="#404040">
                                <set attributeName="fill" to="#808080" begin="zoomplus.mouseover" end="zoomplus.mouseout"/>
                        </use>
                        <path d="M-4,0h8M0,-4v8" fill="none" stroke="white" stroke-width="1.5" pointer-events="none"/>
                </g>
                <g id="zoomMin">
                        <use xlink:href="#rim" fill="#404040">
                                <set attributeName="fill" to="#808080" begin="zoomminus.mouseover" end="zoomminus.mouseout"/>
                        </use>
                        <path d="M-4,0h8" fill="none" stroke="white" stroke-width="1.5" pointer-events="none"/>
                </g>
                <g id="dirArrow">
                        <path fill="none" stroke="white" stroke-width="1.5" d="M0,-3.0v7 M-2.5,-0.5L0,-3.0L2.5,-0.5"/>
                </g>
               <g id="resetDef">
                       <use xlink:href="#rim2" fill="#404040">
                               <set attributeName="fill" to="#808080" begin="reset.mouseover" end="reset.mouseout"/>
                       </use>
               </g>
        </defs>

<script type="text/javascript">
var viewWidth = 1885;
var viewHeight = 379;
var sectionId = 'dynsection-0';
</script>
<script xlink:href="svgpan.js"/>
<svg id="graph" class="graph">
<g id="viewport">
<title>DataHandlerPrint.hpp</title>
<!-- Node1 -->
<g id="node1" class="node">
<title>Node1</title>
<g id="a_node1"><a xlink:title=" ">
<polygon fill="#999999" stroke="#666666" points="649,-371 540,-371 540,-352 649,-352 649,-371"/>
<text text-anchor="middle" x="594.5" y="-359" font-family="Helvetica,sans-Serif" font-size="10.00">DataHandlerPrint.hpp</text>
</a>
</g>
</g>
<!-- Node2 -->
<g id="node2" class="node">
<title>Node2</title>
<g id="a_node2"><a xlink:title=" ">
<polygon fill="#e0e0e0" stroke="#999999" points="497.5,-316 447.5,-316 447.5,-297 497.5,-297 497.5,-316"/>
<text text-anchor="middle" x="472.5" y="-304" font-family="Helvetica,sans-Serif" font-size="10.00">optional</text>
</a>
</g>
</g>
<!-- Node1&#45;&gt;Node2 -->
<g id="edge1" class="edge">
<title>Node1&#45;&gt;Node2</title>
<path fill="none" stroke="#63b8ff" d="M573.8,-351.51C554.5,-343.12 525.44,-330.5 503.39,-320.92"/>
<polygon fill="#63b8ff" stroke="#63b8ff" points="504.84,-317.74 494.28,-316.96 502.06,-324.16 504.84,-317.74"/>
</g>
<!-- Node3 -->
<g id="node3" class="node">
<title>Node3</title>
<g id="a_node3"><a xlink:title=" ">
<polygon fill="#e0e0e0" stroke="#999999" points="555,-316 516,-316 516,-297 555,-297 555,-316"/>
<text text-anchor="middle" x="535.5" y="-304" font-family="Helvetica,sans-Serif" font-size="10.00">utility</text>
</a>
</g>
</g>
<!-- Node1&#45;&gt;Node3 -->
<g id="edge2" class="edge">
<title>Node1&#45;&gt;Node3</title>
<path fill="none" stroke="#63b8ff" d="M584.49,-351.51C576.13,-344 564,-333.1 553.9,-324.03"/>
<polygon fill="#63b8ff" stroke="#63b8ff" points="556.26,-321.45 546.49,-317.37 551.59,-326.66 556.26,-321.45"/>
</g>
<!-- Node4 -->
<g id="node4" class="node">
<title>Node4</title>
<g id="a_node4"><a xlink:href="_axi_traffic_gen_lfsr_8hpp.html" target="_top" xlink:title=" ">
<polygon fill="white" stroke="#666666" points="1010.5,-316 900.5,-316 900.5,-297 1010.5,-297 1010.5,-316"/>
<text text-anchor="middle" x="955.5" y="-304" font-family="Helvetica,sans-Serif" font-size="10.00">AxiTrafficGenLfsr.hpp</text>
</a>
</g>
</g>
<!-- Node1&#45;&gt;Node4 -->
<g id="edge3" class="edge">
<title>Node1&#45;&gt;Node4</title>
<path fill="none" stroke="#63b8ff" d="M649.33,-352.45C713.6,-343.01 820.08,-327.38 889.01,-317.26"/>
<polygon fill="#63b8ff" stroke="#63b8ff" points="889.27,-320.76 898.66,-315.85 888.26,-313.83 889.27,-320.76"/>
</g>
<!-- Node6 -->
<g id="node6" class="node">
<title>Node6</title>
<g id="a_node6"><a xlink:href="_data_handler_abstract_8hpp.html" target="_top" xlink:title=" ">
<polygon fill="white" stroke="#666666" points="733.5,-316 573.5,-316 573.5,-297 733.5,-297 733.5,-316"/>
<text text-anchor="middle" x="653.5" y="-304" font-family="Helvetica,sans-Serif" font-size="10.00">udmaio/DataHandlerAbstract.hpp</text>
</a>
</g>
</g>
<!-- Node1&#45;&gt;Node6 -->
<g id="edge5" class="edge">
<title>Node1&#45;&gt;Node6</title>
<path fill="none" stroke="#63b8ff" d="M604.51,-351.51C612.87,-344 625,-333.1 635.1,-324.03"/>
<polygon fill="#63b8ff" stroke="#63b8ff" points="637.41,-326.66 642.51,-317.37 632.74,-321.45 637.41,-326.66"/>
</g>
<!-- Node5 -->
<g id="node5" class="node">
<title>Node5</title>
<g id="a_node5"><a xlink:title=" ">
<polygon fill="#e0e0e0" stroke="#999999" points="1007.5,-140 961.5,-140 961.5,-121 1007.5,-121 1007.5,-140"/>
<text text-anchor="middle" x="984.5" y="-128" font-family="Helvetica,sans-Serif" font-size="10.00">cstdint</text>
</a>
</g>
</g>
<!-- Node4&#45;&gt;Node5 -->
<g id="edge4" class="edge">
<title>Node4&#45;&gt;Node5</title>
<path fill="none" stroke="#63b8ff" d="M966.82,-296.68C987.6,-279.69 1031.19,-240.07 1047.5,-195 1050.37,-187.06 1051.38,-183.5 1047.5,-176 1040.76,-162.99 1028.28,-152.98 1016.2,-145.77"/>
<polygon fill="#63b8ff" stroke="#63b8ff" points="1018.06,-142.8 1007.6,-141.1 1014.72,-148.95 1018.06,-142.8"/>
</g>
<!-- Node7 -->
<g id="node7" class="node">
<title>Node7</title>
<g id="a_node7"><a xlink:title=" ">
<polygon fill="#e0e0e0" stroke="#999999" points="404.5,-140 360.5,-140 360.5,-121 404.5,-121 404.5,-140"/>
<text text-anchor="middle" x="382.5" y="-128" font-family="Helvetica,sans-Serif" font-size="10.00">vector</text>
</a>
</g>
</g>
<!-- Node6&#45;&gt;Node7 -->
<g id="edge6" class="edge">
<title>Node6&#45;&gt;Node7</title>
<path fill="none" stroke="#63b8ff" d="M575.38,-296.5C505.32,-287.68 411.71,-273.75 399.5,-261 371.34,-231.61 374.31,-179.76 378.6,-151.4"/>
<polygon fill="#63b8ff" stroke="#63b8ff" points="382.03,-152.14 380.3,-141.68 375.13,-150.93 382.03,-152.14"/>
</g>
<!-- Node8 -->
<g id="node8" class="node">
<title>Node8</title>
<g id="a_node8"><a xlink:title=" ">
<polygon fill="#e0e0e0" stroke="#999999" points="584.5,-255.5 504.5,-255.5 504.5,-236.5 584.5,-236.5 584.5,-255.5"/>
<text text-anchor="middle" x="544.5" y="-243.5" font-family="Helvetica,sans-Serif" font-size="10.00">boost/asio.hpp</text>
</a>
</g>
</g>
<!-- Node6&#45;&gt;Node8 -->
<g id="edge7" class="edge">
<title>Node6&#45;&gt;Node8</title>
<path fill="none" stroke="#63b8ff" d="M636.95,-296.62C619.5,-287.25 591.75,-272.36 571.21,-261.33"/>
<polygon fill="#63b8ff" stroke="#63b8ff" points="573.01,-258.33 562.54,-256.68 569.7,-264.5 573.01,-258.33"/>
</g>
<!-- Node9 -->
<g id="node9" class="node">
<title>Node9</title>
<g id="a_node9"><a xlink:title=" ">
<polygon fill="#e0e0e0" stroke="#999999" points="137,-79.5 0,-79.5 0,-60.5 137,-60.5 137,-79.5"/>
<text text-anchor="middle" x="68.5" y="-67.5" font-family="Helvetica,sans-Serif" font-size="10.00">boost/core/noncopyable.hpp</text>
</a>
</g>
</g>
<!-- Node6&#45;&gt;Node9 -->
<g id="edge8" class="edge">
<title>Node6&#45;&gt;Node9</title>
<path fill="none" stroke="#63b8ff" d="M577.24,-296.52C508.86,-287.86 413.98,-274.16 378.5,-261 259.15,-216.74 135.47,-124.31 88.34,-87.07"/>
<polygon fill="#63b8ff" stroke="#63b8ff" points="90.66,-84.44 80.66,-80.94 86.29,-89.91 90.66,-84.44"/>
</g>
<!-- Node10 -->
<g id="node10" class="node">
<title>Node10</title>
<g id="a_node10"><a xlink:title=" ">
<polygon fill="#e0e0e0" stroke="#999999" points="1877,-79.5 1776,-79.5 1776,-60.5 1877,-60.5 1877,-79.5"/>
<text text-anchor="middle" x="1826.5" y="-67.5" font-family="Helvetica,sans-Serif" font-size="10.00">boost/log/trivial.hpp</text>
</a>
</g>
</g>
<!-- Node6&#45;&gt;Node10 -->
<g id="edge9" class="edge">
<title>Node6&#45;&gt;Node10</title>
<path fill="none" stroke="#63b8ff" d="M725.14,-296.52C787.3,-288.39 879.61,-275.49 959.5,-261 1274.46,-203.87 1649.15,-114.35 1779.24,-82.62"/>
<polygon fill="#63b8ff" stroke="#63b8ff" points="1779.99,-86.04 1788.88,-80.27 1778.33,-79.24 1779.99,-86.04"/>
</g>
<!-- Node11 -->
<g id="node11" class="node">
<title>Node11</title>
<g id="a_node11"><a xlink:href="_u_dma_buf_8hpp.html" target="_top" xlink:title=" ">
<polygon fill="white" stroke="#666666" points="486,-255.5 409,-255.5 409,-236.5 486,-236.5 486,-255.5"/>
<text text-anchor="middle" x="447.5" y="-243.5" font-family="Helvetica,sans-Serif" font-size="10.00">UDmaBuf.hpp</text>
</a>
</g>
</g>
<!-- Node6&#45;&gt;Node11 -->
<g id="edge10" class="edge">
<title>Node6&#45;&gt;Node11</title>
<path fill="none" stroke="#63b8ff" d="M621.4,-296.55C589.46,-287.63 539.06,-273.49 495.5,-261 493.37,-260.39 491.19,-259.76 488.99,-259.13"/>
<polygon fill="#63b8ff" stroke="#63b8ff" points="489.99,-255.77 479.41,-256.35 488.04,-262.5 489.99,-255.77"/>
</g>
<!-- Node21 -->
<g id="node21" class="node">
<title>Node21</title>
<g id="a_node21"><a xlink:href="_uio_axi_dma_if_8hpp.html" target="_top" xlink:title=" ">
<polygon fill="white" stroke="#666666" points="950,-255.5 861,-255.5 861,-236.5 950,-236.5 950,-255.5"/>
<text text-anchor="middle" x="905.5" y="-243.5" font-family="Helvetica,sans-Serif" font-size="10.00">UioAxiDmaIf.hpp</text>
</a>
</g>
</g>
<!-- Node6&#45;&gt;Node21 -->
<g id="edge24" class="edge">
<title>Node6&#45;&gt;Node21</title>
<path fill="none" stroke="#63b8ff" d="M695.31,-296.52C735.45,-287.8 797.74,-274.01 851.5,-261 854.44,-260.29 857.47,-259.54 860.52,-258.78"/>
<polygon fill="#63b8ff" stroke="#63b8ff" points="861.25,-262.2 870.08,-256.35 859.53,-255.42 861.25,-262.2"/>
</g>
<!-- Node37 -->
<g id="node37" class="node">
<title>Node37</title>
<g id="a_node37"><a xlink:href="_uio_mem_sgdma_8hpp.html" target="_top" xlink:title=" ">
<polygon fill="white" stroke="#666666" points="704.5,-255.5 602.5,-255.5 602.5,-236.5 704.5,-236.5 704.5,-255.5"/>
<text text-anchor="middle" x="653.5" y="-243.5" font-family="Helvetica,sans-Serif" font-size="10.00">UioMemSgdma.hpp</text>
</a>
</g>
</g>
<!-- Node6&#45;&gt;Node37 -->
<g id="edge51" class="edge">
<title>Node6&#45;&gt;Node37</title>
<path fill="none" stroke="#63b8ff" d="M653.5,-296.87C653.5,-289 653.5,-277.1 653.5,-266.89"/>
<polygon fill="#63b8ff" stroke="#63b8ff" points="657,-267.18 653.5,-257.18 650,-267.18 657,-267.18"/>
</g>
<!-- Node38 -->
<g id="node38" class="node">
<title>Node38</title>
<g id="a_node38"><a xlink:title=" ">
<polygon fill="#e0e0e0" stroke="#999999" points="842.5,-261 722.5,-261 722.5,-231 842.5,-231 842.5,-261"/>
<text text-anchor="start" x="730.5" y="-249" font-family="Helvetica,sans-Serif" font-size="10.00">boost/asio/posix/stream</text>
<text text-anchor="middle" x="782.5" y="-238" font-family="Helvetica,sans-Serif" font-size="10.00">_descriptor.hpp</text>
</a>
</g>
</g>
<!-- Node6&#45;&gt;Node38 -->
<g id="edge54" class="edge">
<title>Node6&#45;&gt;Node38</title>
<path fill="none" stroke="#63b8ff" d="M673.09,-296.62C690.86,-288.56 717.65,-276.41 740.28,-266.15"/>
<polygon fill="#63b8ff" stroke="#63b8ff" points="741.62,-269.38 749.28,-262.06 738.73,-263.01 741.62,-269.38"/>
</g>
<!-- Node11&#45;&gt;Node10 -->
<g id="edge13" class="edge">
<title>Node11&#45;&gt;Node10</title>
<path fill="none" stroke="#63b8ff" d="M477.39,-236.01C483.37,-234.28 489.62,-232.54 495.5,-231 668.1,-185.78 713.82,-184.92 886.5,-140 916.04,-132.32 922.38,-125.93 952.5,-121 1310.32,-62.44 1408.4,-135.08 1767.5,-85 1772.44,-84.31 1777.58,-83.4 1782.67,-82.36"/>
<polygon fill="#63b8ff" stroke="#63b8ff" points="1783.14,-85.84 1792.15,-80.28 1781.64,-79.01 1783.14,-85.84"/>
</g>
<!-- Node12 -->
<g id="node12" class="node">
<title>Node12</title>
<g id="a_node12"><a xlink:title=" ">
<polygon fill="#e0e0e0" stroke="#999999" points="273.5,-79.5 155.5,-79.5 155.5,-60.5 273.5,-60.5 273.5,-79.5"/>
<text text-anchor="middle" x="214.5" y="-67.5" font-family="Helvetica,sans-Serif" font-size="10.00">boost/log/core/core.hpp</text>
</a>
</g>
</g>
<!-- Node11&#45;&gt;Node12 -->
<g id="edge11" class="edge">
<title>Node11&#45;&gt;Node12</title>
<path fill="none" stroke="#63b8ff" d="M435.63,-236.13C398.31,-208.27 283.07,-122.21 235.44,-86.64"/>
<polygon fill="#63b8ff" stroke="#63b8ff" points="237.67,-83.93 227.56,-80.76 233.48,-89.54 237.67,-83.93"/>
</g>
<!-- Node13 -->
<g id="node13" class="node">
<title>Node13</title>
<g id="a_node13"><a xlink:title=" ">
<polygon fill="#e0e0e0" stroke="#999999" points="433,-79.5 292,-79.5 292,-60.5 433,-60.5 433,-79.5"/>
<text text-anchor="middle" x="362.5" y="-67.5" font-family="Helvetica,sans-Serif" font-size="10.00">boost/log/sources/logger.hpp</text>
</a>
</g>
</g>
<!-- Node11&#45;&gt;Node13 -->
<g id="edge12" class="edge">
<title>Node11&#45;&gt;Node13</title>
<path fill="none" stroke="#63b8ff" d="M446.68,-236.28C444.39,-215.15 436.46,-160.06 413.5,-121 405.82,-107.94 393.85,-95.95 383.44,-86.99"/>
<polygon fill="#63b8ff" stroke="#63b8ff" points="385.96,-84.53 376.01,-80.91 381.52,-89.95 385.96,-84.53"/>
</g>
<!-- Node14 -->
<g id="node14" class="node">
<title>Node14</title>
<g id="a_node14"><a xlink:href="_dma_buffer_abstract_8hpp.html" target="_top" xlink:title=" ">
<polygon fill="white" stroke="#666666" points="578,-195 461,-195 461,-176 578,-176 578,-195"/>
<text text-anchor="middle" x="519.5" y="-183" font-family="Helvetica,sans-Serif" font-size="10.00">DmaBufferAbstract.hpp</text>
</a>
</g>
</g>
<!-- Node11&#45;&gt;Node14 -->
<g id="edge14" class="edge">
<title>Node11&#45;&gt;Node14</title>
<path fill="none" stroke="#63b8ff" d="M458.44,-236.12C469.32,-227.27 486.29,-213.48 499.58,-202.69"/>
<polygon fill="#63b8ff" stroke="#63b8ff" points="501.73,-205.45 507.29,-196.42 497.32,-200.01 501.73,-205.45"/>
</g>
<!-- Node14&#45;&gt;Node5 -->
<g id="edge15" class="edge">
<title>Node14&#45;&gt;Node5</title>
<path fill="none" stroke="#63b8ff" d="M578.39,-177.79C676.72,-166.58 871.29,-144.4 950.13,-135.42"/>
<polygon fill="#63b8ff" stroke="#63b8ff" points="950.28,-138.92 959.82,-134.31 949.49,-131.97 950.28,-138.92"/>
</g>
<!-- Node14&#45;&gt;Node7 -->
<g id="edge16" class="edge">
<title>Node14&#45;&gt;Node7</title>
<path fill="none" stroke="#63b8ff" d="M496.26,-175.51C474.05,-166.92 440.35,-153.88 415.38,-144.22"/>
<polygon fill="#63b8ff" stroke="#63b8ff" points="416.94,-141.07 406.35,-140.73 414.42,-147.6 416.94,-141.07"/>
</g>
<!-- Node14&#45;&gt;Node9 -->
<g id="edge17" class="edge">
<title>Node14&#45;&gt;Node9</title>
<path fill="none" stroke="#63b8ff" d="M508.21,-175.58C489.63,-161.44 450.96,-134.12 413.5,-121 300.49,-81.42 264.79,-103.58 146.5,-85 140.47,-84.05 134.18,-83.01 127.92,-81.94"/>
<polygon fill="#63b8ff" stroke="#63b8ff" points="128.65,-78.52 118.2,-80.25 127.45,-85.41 128.65,-78.52"/>
</g>
<!-- Node15 -->
<g id="node15" class="node">
<title>Node15</title>
<g id="a_node15"><a xlink:href="_uio_config_8hpp.html" target="_top" xlink:title=" ">
<polygon fill="white" stroke="#666666" points="562,-79.5 451,-79.5 451,-60.5 562,-60.5 562,-79.5"/>
<text text-anchor="middle" x="506.5" y="-67.5" font-family="Helvetica,sans-Serif" font-size="10.00">udmaio/UioConfig.hpp</text>
</a>
</g>
</g>
<!-- Node14&#45;&gt;Node15 -->
<g id="edge18" class="edge">
<title>Node14&#45;&gt;Node15</title>
<path fill="none" stroke="#63b8ff" d="M518.48,-175.59C516.41,-157.53 511.67,-116.17 508.81,-91.21"/>
<polygon fill="#63b8ff" stroke="#63b8ff" points="512.3,-90.91 507.69,-81.37 505.35,-91.7 512.3,-90.91"/>
</g>
<!-- Node16 -->
<g id="node16" class="node">
<title>Node16</title>
<g id="a_node16"><a xlink:title=" ">
<polygon fill="#e0e0e0" stroke="#999999" points="1300.5,-19 1246.5,-19 1246.5,0 1300.5,0 1300.5,-19"/>
<text text-anchor="middle" x="1273.5" y="-7" font-family="Helvetica,sans-Serif" font-size="10.00">iostream</text>
</a>
</g>
</g>
<!-- Node15&#45;&gt;Node16 -->
<g id="edge19" class="edge">
<title>Node15&#45;&gt;Node16</title>
<path fill="none" stroke="#63b8ff" d="M562.28,-60.79C577.86,-58.69 594.82,-56.58 610.5,-55 847.33,-31.14 1133.09,-16.83 1235.06,-12.18"/>
<polygon fill="#63b8ff" stroke="#63b8ff" points="1234.95,-15.69 1244.78,-11.74 1234.63,-8.7 1234.95,-15.69"/>
</g>
<!-- Node17 -->
<g id="node17" class="node">
<title>Node17</title>
<g id="a_node17"><a xlink:title=" ">
<polygon fill="#e0e0e0" stroke="#999999" points="611,-19 560,-19 560,0 611,0 611,-19"/>
<text text-anchor="middle" x="585.5" y="-7" font-family="Helvetica,sans-Serif" font-size="10.00">memory</text>
</a>
</g>
</g>
<!-- Node15&#45;&gt;Node17 -->
<g id="edge20" class="edge">
<title>Node15&#45;&gt;Node17</title>
<path fill="none" stroke="#63b8ff" d="M518.5,-60.12C530.68,-51.1 549.79,-36.95 564.48,-26.06"/>
<polygon fill="#63b8ff" stroke="#63b8ff" points="566.22,-29.13 572.17,-20.37 562.05,-23.51 566.22,-29.13"/>
</g>
<!-- Node18 -->
<g id="node18" class="node">
<title>Node18</title>
<g id="a_node18"><a xlink:title=" ">
<polygon fill="#e0e0e0" stroke="#999999" points="473,-19 414,-19 414,0 473,0 473,-19"/>
<text text-anchor="middle" x="443.5" y="-7" font-family="Helvetica,sans-Serif" font-size="10.00">stdexcept</text>
</a>
</g>
</g>
<!-- Node15&#45;&gt;Node18 -->
<g id="edge21" class="edge">
<title>Node15&#45;&gt;Node18</title>
<path fill="none" stroke="#63b8ff" d="M496.93,-60.12C487.5,-51.35 472.85,-37.75 461.27,-27"/>
<polygon fill="#63b8ff" stroke="#63b8ff" points="463.98,-24.74 454.27,-20.5 459.21,-29.87 463.98,-24.74"/>
</g>
<!-- Node19 -->
<g id="node19" class="node">
<title>Node19</title>
<g id="a_node19"><a xlink:title=" ">
<polygon fill="#e0e0e0" stroke="#999999" points="532,-19 491,-19 491,0 532,0 532,-19"/>
<text text-anchor="middle" x="511.5" y="-7" font-family="Helvetica,sans-Serif" font-size="10.00">string</text>
</a>
</g>
</g>
<!-- Node15&#45;&gt;Node19 -->
<g id="edge22" class="edge">
<title>Node15&#45;&gt;Node19</title>
<path fill="none" stroke="#63b8ff" d="M507.24,-60.37C507.91,-52.5 508.93,-40.6 509.8,-30.39"/>
<polygon fill="#63b8ff" stroke="#63b8ff" points="513.27,-30.94 510.63,-20.68 506.29,-30.34 513.27,-30.94"/>
</g>
<!-- Node20 -->
<g id="node20" class="node">
<title>Node20</title>
<g id="a_node20"><a xlink:title=" ">
<polygon fill="#e0e0e0" stroke="#999999" points="1015.5,-19 949.5,-19 949.5,0 1015.5,0 1015.5,-19"/>
<text text-anchor="middle" x="982.5" y="-7" font-family="Helvetica,sans-Serif" font-size="10.00">string_view</text>
</a>
</g>
</g>
<!-- Node15&#45;&gt;Node20 -->
<g id="edge23" class="edge">
<title>Node15&#45;&gt;Node20</title>
<path fill="none" stroke="#63b8ff" d="M562.34,-61.33C577.92,-59.23 594.87,-56.99 610.5,-55 728.53,-40 867.81,-23.71 937.72,-15.64"/>
<polygon fill="#63b8ff" stroke="#63b8ff" points="938.1,-19.12 947.63,-14.5 937.29,-12.17 938.1,-19.12"/>
</g>
<!-- Node22 -->
<g id="node22" class="node">
<title>Node22</title>
<g id="a_node22"><a xlink:href="_axi_dma_8hpp.html" target="_top" xlink:title=" ">
<polygon fill="white" stroke="#666666" points="1038.5,-195 970.5,-195 970.5,-176 1038.5,-176 1038.5,-195"/>
<text text-anchor="middle" x="1004.5" y="-183" font-family="Helvetica,sans-Serif" font-size="10.00">AxiDma.hpp</text>
</a>
</g>
</g>
<!-- Node21&#45;&gt;Node22 -->
<g id="edge25" class="edge">
<title>Node21&#45;&gt;Node22</title>
<path fill="none" stroke="#63b8ff" d="M920.54,-236.12C936.16,-226.88 960.89,-212.27 979.47,-201.29"/>
<polygon fill="#63b8ff" stroke="#63b8ff" points="981.19,-204.34 988.02,-196.24 977.63,-198.31 981.19,-204.34"/>
</g>
<!-- Node23 -->
<g id="node23" class="node">
<title>Node23</title>
<g id="a_node23"><a xlink:href="_reg_accessor_8hpp.html" target="_top" xlink:title=" ">
<polygon fill="white" stroke="#666666" points="952,-195 859,-195 859,-176 952,-176 952,-195"/>
<text text-anchor="middle" x="905.5" y="-183" font-family="Helvetica,sans-Serif" font-size="10.00">RegAccessor.hpp</text>
</a>
</g>
</g>
<!-- Node21&#45;&gt;Node23 -->
<g id="edge27" class="edge">
<title>Node21&#45;&gt;Node23</title>
<path fill="none" stroke="#63b8ff" d="M905.5,-236.37C905.5,-228.5 905.5,-216.6 905.5,-206.39"/>
<polygon fill="#63b8ff" stroke="#63b8ff" points="909,-206.68 905.5,-196.68 902,-206.68 909,-206.68"/>
</g>
<!-- Node36 -->
<g id="node36" class="node">
<title>Node36</title>
<g id="a_node36"><a xlink:href="_uio_if_8hpp.html" target="_top" xlink:title=" ">
<polygon fill="white" stroke="#666666" points="840.5,-195 784.5,-195 784.5,-176 840.5,-176 840.5,-195"/>
<text text-anchor="middle" x="812.5" y="-183" font-family="Helvetica,sans-Serif" font-size="10.00">UioIf.hpp</text>
</a>
</g>
</g>
<!-- Node21&#45;&gt;Node36 -->
<g id="edge49" class="edge">
<title>Node21&#45;&gt;Node36</title>
<path fill="none" stroke="#63b8ff" d="M891.38,-236.12C876.76,-226.92 853.68,-212.41 836.26,-201.44"/>
<polygon fill="#63b8ff" stroke="#63b8ff" points="838.37,-198.64 828.04,-196.27 834.64,-204.56 838.37,-198.64"/>
</g>
<!-- Node22&#45;&gt;Node5 -->
<g id="edge26" class="edge">
<title>Node22&#45;&gt;Node5</title>
<path fill="none" stroke="#63b8ff" d="M1001.2,-175.75C998.67,-169.04 995.07,-159.52 991.87,-151.02"/>
<polygon fill="#63b8ff" stroke="#63b8ff" points="995.21,-149.98 988.41,-141.86 988.66,-152.45 995.21,-149.98"/>
</g>
<!-- Node23&#45;&gt;Node5 -->
<g id="edge28" class="edge">
<title>Node23&#45;&gt;Node5</title>
<path fill="none" stroke="#63b8ff" d="M918.9,-175.51C930.66,-167.62 948.01,-155.98 961.91,-146.65"/>
<polygon fill="#63b8ff" stroke="#63b8ff" points="963.69,-149.68 970.04,-141.2 959.79,-143.87 963.69,-149.68"/>
</g>
<!-- Node24 -->
<g id="node24" class="node">
<title>Node24</title>
<g id="a_node24"><a xlink:href="_uio_if_base_8hpp.html" target="_top" xlink:title=" ">
<polygon fill="white" stroke="#666666" points="877,-140 764,-140 764,-121 877,-121 877,-140"/>
<text text-anchor="middle" x="820.5" y="-128" font-family="Helvetica,sans-Serif" font-size="10.00">udmaio/UioIfBase.hpp</text>
</a>
</g>
</g>
<!-- Node23&#45;&gt;Node24 -->
<g id="edge29" class="edge">
<title>Node23&#45;&gt;Node24</title>
<path fill="none" stroke="#63b8ff" d="M891.08,-175.51C878.3,-167.54 859.4,-155.75 844.37,-146.38"/>
<polygon fill="#63b8ff" stroke="#63b8ff" points="846.33,-143.48 835.99,-141.16 842.62,-149.42 846.33,-143.48"/>
</g>
<!-- Node24&#45;&gt;Node9 -->
<g id="edge35" class="edge">
<title>Node24&#45;&gt;Node9</title>
<path fill="none" stroke="#63b8ff" d="M763.94,-127.9C647.83,-124.14 374.35,-112.88 146.5,-85 139.34,-84.12 131.83,-83.02 124.43,-81.81"/>
<polygon fill="#63b8ff" stroke="#63b8ff" points="125.27,-78.41 114.82,-80.18 124.09,-85.31 125.27,-78.41"/>
</g>
<!-- Node24&#45;&gt;Node10 -->
<g id="edge40" class="edge">
<title>Node24&#45;&gt;Node10</title>
<path fill="none" stroke="#63b8ff" d="M877.43,-122.29C882.18,-121.81 886.92,-121.37 891.5,-121 1279.91,-89.82 1381.49,-138.23 1767.5,-85 1772.44,-84.32 1777.58,-83.41 1782.67,-82.38"/>
<polygon fill="#63b8ff" stroke="#63b8ff" points="1783.14,-85.86 1792.16,-80.3 1781.64,-79.02 1783.14,-85.86"/>
</g>
<!-- Node24&#45;&gt;Node12 -->
<g id="edge36" class="edge">
<title>Node24&#45;&gt;Node12</title>
<path fill="none" stroke="#63b8ff" d="M763.7,-127.06C665.3,-122.32 456.9,-110.07 282.5,-85 276.83,-84.18 270.92,-83.19 265.06,-82.11"/>
<polygon fill="#63b8ff" stroke="#63b8ff" points="265.88,-78.7 255.4,-80.24 264.55,-85.58 265.88,-78.7"/>
</g>
<!-- Node24&#45;&gt;Node13 -->
<g id="edge39" class="edge">
<title>Node24&#45;&gt;Node13</title>
<path fill="none" stroke="#63b8ff" d="M763.54,-123.86C689.26,-116.27 555.38,-101.76 441.5,-85 435.06,-84.05 428.33,-82.98 421.64,-81.87"/>
<polygon fill="#63b8ff" stroke="#63b8ff" points="422.41,-78.45 411.96,-80.22 421.23,-85.35 422.41,-78.45"/>
</g>
<!-- Node24&#45;&gt;Node15 -->
<g id="edge46" class="edge">
<title>Node24&#45;&gt;Node15</title>
<path fill="none" stroke="#63b8ff" d="M769.98,-120.55C720.61,-111.73 643.32,-97.78 576.5,-85 571.64,-84.07 566.6,-83.09 561.55,-82.1"/>
<polygon fill="#63b8ff" stroke="#63b8ff" points="562.51,-78.72 552.02,-80.22 561.16,-85.59 562.51,-78.72"/>
</g>
<!-- Node24&#45;&gt;Node16 -->
<g id="edge32" class="edge">
<title>Node24&#45;&gt;Node16</title>
<path fill="none" stroke="#63b8ff" d="M877.44,-122.4C882.19,-121.89 886.93,-121.42 891.5,-121 954.81,-115.22 1418.99,-131.34 1462.5,-85 1508.83,-35.66 1379.5,-18.43 1311.83,-12.89"/>
<polygon fill="#63b8ff" stroke="#63b8ff" points="1312.5,-9.43 1302.26,-12.16 1311.96,-16.41 1312.5,-9.43"/>
</g>
<!-- Node24&#45;&gt;Node17 -->
<g id="edge33" class="edge">
<title>Node24&#45;&gt;Node17</title>
<path fill="none" stroke="#63b8ff" d="M763.7,-123.82C709.46,-117.3 632.79,-104.87 610.5,-85 595.08,-71.26 589.15,-47.71 586.89,-30.76"/>
<polygon fill="#63b8ff" stroke="#63b8ff" points="590.38,-30.48 585.92,-20.87 583.41,-31.16 590.38,-30.48"/>
</g>
<!-- Node24&#45;&gt;Node20 -->
<g id="edge34" class="edge">
<title>Node24&#45;&gt;Node20</title>
<path fill="none" stroke="#63b8ff" d="M877.45,-122.55C882.2,-122.01 886.93,-121.49 891.5,-121 934.44,-116.43 1249.41,-116.92 1278.5,-85 1287.48,-75.14 1287.2,-65.1 1278.5,-55 1246.6,-17.94 1101.65,-11.32 1027.1,-10.41"/>
<polygon fill="#63b8ff" stroke="#63b8ff" points="1027.31,-6.91 1017.28,-10.33 1027.24,-13.91 1027.31,-6.91"/>
</g>
<!-- Node25 -->
<g id="node25" class="node">
<title>Node25</title>
<g id="a_node25"><a xlink:title=" ">
<polygon fill="#e0e0e0" stroke="#999999" points="1385.5,-79.5 1325.5,-79.5 1325.5,-60.5 1385.5,-60.5 1385.5,-79.5"/>
<text text-anchor="middle" x="1355.5" y="-67.5" font-family="Helvetica,sans-Serif" font-size="10.00">filesystem</text>
</a>
</g>
</g>
<!-- Node24&#45;&gt;Node25 -->
<g id="edge30" class="edge">
<title>Node24&#45;&gt;Node25</title>
<path fill="none" stroke="#63b8ff" d="M877.45,-122.51C882.2,-121.98 886.93,-121.47 891.5,-121 1077.87,-101.86 1127.76,-121.63 1311.5,-85 1314.15,-84.47 1316.87,-83.84 1319.59,-83.14"/>
<polygon fill="#63b8ff" stroke="#63b8ff" points="1320.52,-86.51 1329.17,-80.39 1318.59,-79.78 1320.52,-86.51"/>
</g>
<!-- Node26 -->
<g id="node26" class="node">
<title>Node26</title>
<g id="a_node26"><a xlink:title=" ">
<polygon fill="#e0e0e0" stroke="#999999" points="1453.5,-79.5 1403.5,-79.5 1403.5,-60.5 1453.5,-60.5 1453.5,-79.5"/>
<text text-anchor="middle" x="1428.5" y="-67.5" font-family="Helvetica,sans-Serif" font-size="10.00">fstream</text>
</a>
</g>
</g>
<!-- Node24&#45;&gt;Node26 -->
<g id="edge31" class="edge">
<title>Node24&#45;&gt;Node26</title>
<path fill="none" stroke="#63b8ff" d="M877.44,-122.44C882.19,-121.93 886.93,-121.44 891.5,-121 1114.61,-99.67 1176.33,-136.32 1394.5,-85 1396.09,-84.63 1397.71,-84.19 1399.32,-83.7"/>
<polygon fill="#63b8ff" stroke="#63b8ff" points="1400.13,-87.13 1408.37,-80.46 1397.77,-80.53 1400.13,-87.13"/>
</g>
<!-- Node27 -->
<g id="node27" class="node">
<title>Node27</title>
<g id="a_node27"><a xlink:title=" ">
<polygon fill="#e0e0e0" stroke="#999999" points="1639,-79.5 1510,-79.5 1510,-60.5 1639,-60.5 1639,-79.5"/>
<text text-anchor="middle" x="1574.5" y="-67.5" font-family="Helvetica,sans-Serif" font-size="10.00">boost/log/expressions.hpp</text>
</a>
</g>
</g>
<!-- Node24&#45;&gt;Node27 -->
<g id="edge37" class="edge">
<title>Node24&#45;&gt;Node27</title>
<path fill="none" stroke="#63b8ff" d="M877.43,-122.38C882.19,-121.88 886.92,-121.41 891.5,-121 1159.35,-97.01 1228.43,-116.52 1495.5,-85 1502.76,-84.14 1510.36,-83.05 1517.86,-81.85"/>
<polygon fill="#63b8ff" stroke="#63b8ff" points="1518.32,-85.32 1527.61,-80.22 1517.17,-78.42 1518.32,-85.32"/>
</g>
<!-- Node28 -->
<g id="node28" class="node">
<title>Node28</title>
<g id="a_node28"><a xlink:title=" ">
<polygon fill="#e0e0e0" stroke="#999999" points="1758,-85 1657,-85 1657,-55 1758,-55 1758,-85"/>
<text text-anchor="start" x="1665" y="-73" font-family="Helvetica,sans-Serif" font-size="10.00">boost/log/keywords</text>
<text text-anchor="middle" x="1707.5" y="-62" font-family="Helvetica,sans-Serif" font-size="10.00">/severity.hpp</text>
</a>
</g>
</g>
<!-- Node24&#45;&gt;Node28 -->
<g id="edge38" class="edge">
<title>Node24&#45;&gt;Node28</title>
<path fill="none" stroke="#63b8ff" d="M877.43,-122.32C882.19,-121.83 886.92,-121.38 891.5,-121 1223.55,-93.26 1313.07,-131.25 1645.84,-85.2"/>
<polygon fill="#63b8ff" stroke="#63b8ff" points="1645.85,-88.73 1655.27,-83.88 1644.88,-81.8 1645.85,-88.73"/>
</g>
<!-- Node29 -->
<g id="node29" class="node">
<title>Node29</title>
<g id="a_node29"><a xlink:title=" ">
<polygon fill="#e0e0e0" stroke="#999999" points="662,-79.5 619,-79.5 619,-60.5 662,-60.5 662,-79.5"/>
<text text-anchor="middle" x="640.5" y="-67.5" font-family="Helvetica,sans-Serif" font-size="10.00">fcntl.h</text>
</a>
</g>
</g>
<!-- Node24&#45;&gt;Node29 -->
<g id="edge41" class="edge">
<title>Node24&#45;&gt;Node29</title>
<path fill="none" stroke="#63b8ff" d="M785.74,-120.54C755.27,-112.35 709.95,-99.35 671.5,-85 670.88,-84.77 670.25,-84.53 669.62,-84.28"/>
<polygon fill="#63b8ff" stroke="#63b8ff" points="671.32,-81.2 660.75,-80.58 668.63,-87.66 671.32,-81.2"/>
</g>
<!-- Node30 -->
<g id="node30" class="node">
<title>Node30</title>
<g id="a_node30"><a xlink:title=" ">
<polygon fill="#e0e0e0" stroke="#999999" points="749,-79.5 680,-79.5 680,-60.5 749,-60.5 749,-79.5"/>
<text text-anchor="middle" x="714.5" y="-67.5" font-family="Helvetica,sans-Serif" font-size="10.00">sys/mman.h</text>
</a>
</g>
</g>
<!-- Node24&#45;&gt;Node30 -->
<g id="edge42" class="edge">
<title>Node24&#45;&gt;Node30</title>
<path fill="none" stroke="#63b8ff" d="M804.4,-120.62C787.51,-111.29 760.7,-96.5 740.75,-85.49"/>
<polygon fill="#63b8ff" stroke="#63b8ff" points="742.52,-82.47 732.08,-80.7 739.14,-88.6 742.52,-82.47"/>
</g>
<!-- Node31 -->
<g id="node31" class="node">
<title>Node31</title>
<g id="a_node31"><a xlink:title=" ">
<polygon fill="#e0e0e0" stroke="#999999" points="826,-79.5 767,-79.5 767,-60.5 826,-60.5 826,-79.5"/>
<text text-anchor="middle" x="796.5" y="-67.5" font-family="Helvetica,sans-Serif" font-size="10.00">sys/stat.h</text>
</a>
</g>
</g>
<!-- Node24&#45;&gt;Node31 -->
<g id="edge43" class="edge">
<title>Node24&#45;&gt;Node31</title>
<path fill="none" stroke="#63b8ff" d="M816.96,-120.87C813.66,-112.83 808.63,-100.57 804.38,-90.22"/>
<polygon fill="#63b8ff" stroke="#63b8ff" points="807.66,-88.99 800.63,-81.07 801.19,-91.65 807.66,-88.99"/>
</g>
<!-- Node32 -->
<g id="node32" class="node">
<title>Node32</title>
<g id="a_node32"><a xlink:title=" ">
<polygon fill="#e0e0e0" stroke="#999999" points="909,-79.5 844,-79.5 844,-60.5 909,-60.5 909,-79.5"/>
<text text-anchor="middle" x="876.5" y="-67.5" font-family="Helvetica,sans-Serif" font-size="10.00">sys/types.h</text>
</a>
</g>
</g>
<!-- Node24&#45;&gt;Node32 -->
<g id="edge44" class="edge">
<title>Node24&#45;&gt;Node32</title>
<path fill="none" stroke="#63b8ff" d="M828.76,-120.87C837.03,-112.23 849.98,-98.7 860.31,-87.92"/>
<polygon fill="#63b8ff" stroke="#63b8ff" points="862.77,-90.4 867.16,-80.76 857.71,-85.56 862.77,-90.4"/>
</g>
<!-- Node33 -->
<g id="node33" class="node">
<title>Node33</title>
<g id="a_node33"><a xlink:title=" ">
<polygon fill="#e0e0e0" stroke="#999999" points="977.5,-79.5 927.5,-79.5 927.5,-60.5 977.5,-60.5 977.5,-79.5"/>
<text text-anchor="middle" x="952.5" y="-67.5" font-family="Helvetica,sans-Serif" font-size="10.00">unistd.h</text>
</a>
</g>
</g>
<!-- Node24&#45;&gt;Node33 -->
<g id="edge45" class="edge">
<title>Node24&#45;&gt;Node33</title>
<path fill="none" stroke="#63b8ff" d="M840.55,-120.62C862.16,-111.04 896.82,-95.68 921.86,-84.58"/>
<polygon fill="#63b8ff" stroke="#63b8ff" points="923.16,-87.83 930.88,-80.58 920.32,-81.43 923.16,-87.83"/>
</g>
<!-- Node34 -->
<g id="node34" class="node">
<title>Node34</title>
<g id="a_node34"><a xlink:title=" ">
<polygon fill="#e0e0e0" stroke="#999999" points="1119.5,-85 995.5,-85 995.5,-55 1119.5,-55 1119.5,-85"/>
<text text-anchor="start" x="1003.5" y="-73" font-family="Helvetica,sans-Serif" font-size="10.00">boost/log/sources/record</text>
<text text-anchor="middle" x="1057.5" y="-62" font-family="Helvetica,sans-Serif" font-size="10.00">_ostream.hpp</text>
</a>
</g>
</g>
<!-- Node24&#45;&gt;Node34 -->
<g id="edge47" class="edge">
<title>Node24&#45;&gt;Node34</title>
<path fill="none" stroke="#63b8ff" d="M856.75,-120.55C891.58,-111.95 945.12,-98.74 988.15,-88.12"/>
<polygon fill="#63b8ff" stroke="#63b8ff" points="988.79,-91.56 997.66,-85.77 987.12,-84.77 988.79,-91.56"/>
</g>
<!-- Node35 -->
<g id="node35" class="node">
<title>Node35</title>
<g id="a_node35"><a xlink:title=" ">
<polygon fill="#e0e0e0" stroke="#999999" points="1269,-85 1138,-85 1138,-55 1269,-55 1269,-85"/>
<text text-anchor="start" x="1146" y="-73" font-family="Helvetica,sans-Serif" font-size="10.00">boost/log/sources/severity</text>
<text text-anchor="middle" x="1203.5" y="-62" font-family="Helvetica,sans-Serif" font-size="10.00">_logger.hpp</text>
</a>
</g>
</g>
<!-- Node24&#45;&gt;Node35 -->
<g id="edge48" class="edge">
<title>Node24&#45;&gt;Node35</title>
<path fill="none" stroke="#63b8ff" d="M877.37,-121.99C936.85,-113.99 1033.19,-100.57 1126.34,-85.31"/>
<polygon fill="#63b8ff" stroke="#63b8ff" points="1126.89,-88.77 1136.18,-83.69 1125.75,-81.86 1126.89,-88.77"/>
</g>
<!-- Node36&#45;&gt;Node24 -->
<g id="edge50" class="edge">
<title>Node36&#45;&gt;Node24</title>
<path fill="none" stroke="#63b8ff" d="M813.82,-175.75C814.81,-169.19 816.21,-159.95 817.47,-151.6"/>
<polygon fill="#63b8ff" stroke="#63b8ff" points="820.89,-152.35 818.92,-141.94 813.97,-151.3 820.89,-152.35"/>
</g>
<!-- Node37&#45;&gt;Node14 -->
<g id="edge52" class="edge">
<title>Node37&#45;&gt;Node14</title>
<path fill="none" stroke="#63b8ff" d="M633.15,-236.12C611.11,-226.49 575.71,-211.04 550.27,-199.93"/>
<polygon fill="#63b8ff" stroke="#63b8ff" points="552,-196.87 541.43,-196.07 549.19,-203.28 552,-196.87"/>
</g>
<!-- Node37&#45;&gt;Node36 -->
<g id="edge53" class="edge">
<title>Node37&#45;&gt;Node36</title>
<path fill="none" stroke="#63b8ff" d="M677.65,-236.12C704.26,-226.32 747.31,-210.48 777.6,-199.34"/>
<polygon fill="#63b8ff" stroke="#63b8ff" points="778.53,-202.73 786.7,-195.99 776.11,-196.16 778.53,-202.73"/>
</g>
</g>
</svg>
        <g id="navigator" transform="translate(0 0)" fill="#404254">
                <rect fill="#f2f5e9" fill-opacity="0.5" stroke="#606060" stroke-width=".5" x="0" y="0" width="60" height="60"/>
                <use id="zoomplus" xlink:href="#zoomPlus" x="17" y="9" onmousedown="handleZoom(evt,'in')"/>
                <use id="zoomminus" xlink:href="#zoomMin" x="42" y="9" onmousedown="handleZoom(evt,'out')"/>
                <use id="reset" xlink:href="#resetDef" x="30" y="36" onmousedown="handleReset()"/>
                <g id="arrowUp" xlink:href="#dirArrow" transform="translate(30 24)" onmousedown="handlePan(0,-1)">
                  <use xlink:href="#rim" fill="#404040">
                        <set attributeName="fill" to="#808080" begin="arrowUp.mouseover" end="arrowUp.mouseout"/>
                  </use>
                  <path fill="none" stroke="white" stroke-width="1.5" d="M0,-3.0v7 M-2.5,-0.5L0,-3.0L2.5,-0.5"/>
                </g>
                <g id="arrowRight" xlink:href="#dirArrow" transform="rotate(90) translate(36 -43)" onmousedown="handlePan(1,0)">
                  <use xlink:href="#rim" fill="#404040">
                        <set attributeName="fill" to="#808080" begin="arrowRight.mouseover" end="arrowRight.mouseout"/>
                  </use>
                  <path fill="none" stroke="white" stroke-width="1.5" d="M0,-3.0v7 M-2.5,-0.5L0,-3.0L2.5,-0.5"/>
                </g>
                <g id="arrowDown" xlink:href="#dirArrow" transform="rotate(180) translate(-30 -48)" onmousedown="handlePan(0,1)">
                  <use xlink:href="#rim" fill="#404040">
                        <set attributeName="fill" to="#808080" begin="arrowDown.mouseover" end="arrowDown.mouseout"/>
                  </use>
                  <path fill="none" stroke="white" stroke-width="1.5" d="M0,-3.0v7 M-2.5,-0.5L0,-3.0L2.5,-0.5"/>
                </g>
                <g id="arrowLeft" xlink:href="#dirArrow" transform="rotate(270) translate(-36 17)" onmousedown="handlePan(-1,0)">
                  <use xlink:href="#rim" fill="#404040">
                        <set attributeName="fill" to="#808080" begin="arrowLeft.mouseover" end="arrowLeft.mouseout"/>
                  </use>
                  <path fill="none" stroke="white" stroke-width="1.5" d="M0,-3.0v7 M-2.5,-0.5L0,-3.0L2.5,-0.5"/>
                </g>
        </g>
        <svg viewBox="0 0 15 15" width="100%" height="30px" preserveAspectRatio="xMaxYMin meet">
         <g id="arrow_out" transform="scale(0.3 0.3)">
          <a xlink:href="_data_handler_print_8hpp__incl_org.svg" target="_base">
           <rect id="button" ry="5" rx="5" y="6" x="6" height="38" width="38"
                fill="#f2f5e9" fill-opacity="0.5" stroke="#606060" stroke-width="1.0"/>
           <path id="arrow"
             d="M 11.500037,31.436501 C 11.940474,20.09759 22.043105,11.32322 32.158766,21.979434 L 37.068811,17.246167 C 37.068811,17.246167 37.088388,32 37.088388,32 L 22.160133,31.978069 C 22.160133,31.978069 26.997745,27.140456 26.997745,27.140456 C 18.528582,18.264221 13.291696,25.230495 11.500037,31.436501 z"
             style="fill:#404040;"/>
          </a>
         </g>
        </svg>
</svg>
