<?xml version="1.0" encoding="UTF-8" standalone="no"?>
<!DOCTYPE svg PUBLIC "-//W3C//DTD SVG 1.1//EN"
 "http://www.w3.org/Graphics/SVG/1.1/DTD/svg11.dtd">
<!-- Generated by graphviz version 7.0.5 (20221223.1930)
 -->
<!-- Title: DataHandlerPrint.hpp Pages: 1 -->
<svg width="1678pt" height="379pt"
 viewBox="0.00 0.00 1678.00 379.00" xmlns="http://www.w3.org/2000/svg" xmlns:xlink="http://www.w3.org/1999/xlink">
<g id="graph0" class="graph" transform="scale(1 1) rotate(0) translate(4 375)">
<title>DataHandlerPrint.hpp</title>
<!-- Node1 -->
<g id="node1" class="node">
<title>Node1</title>
<g id="a_node1"><a xlink:title=" ">
<polygon fill="#999999" stroke="#666666" points="493,-371 384,-371 384,-352 493,-352 493,-371"/>
<text text-anchor="middle" x="438.5" y="-359" font-family="Helvetica,sans-Serif" font-size="10.00">DataHandlerPrint.hpp</text>
</a>
</g>
</g>
<!-- Node2 -->
<g id="node2" class="node">
<title>Node2</title>
<g id="a_node2"><a xlink:title=" ">
<polygon fill="#e0e0e0" stroke="#999999" points="376.5,-316 326.5,-316 326.5,-297 376.5,-297 376.5,-316"/>
<text text-anchor="middle" x="351.5" y="-304" font-family="Helvetica,sans-Serif" font-size="10.00">optional</text>
</a>
</g>
</g>
<!-- Node1&#45;&gt;Node2 -->
<g id="edge1" class="edge">
<title>Node1&#45;&gt;Node2</title>
<path fill="none" stroke="#63b8ff" d="M423.74,-351.51C410.54,-343.47 390.94,-331.53 375.49,-322.11"/>
<polygon fill="#63b8ff" stroke="#63b8ff" points="377.69,-319.36 367.33,-317.15 374.05,-325.34 377.69,-319.36"/>
</g>
<!-- Node3 -->
<g id="node3" class="node">
<title>Node3</title>
<g id="a_node3"><a xlink:title=" ">
<polygon fill="#e0e0e0" stroke="#999999" points="434,-316 395,-316 395,-297 434,-297 434,-316"/>
<text text-anchor="middle" x="414.5" y="-304" font-family="Helvetica,sans-Serif" font-size="10.00">utility</text>
</a>
</g>
</g>
<!-- Node1&#45;&gt;Node3 -->
<g id="edge2" class="edge">
<title>Node1&#45;&gt;Node3</title>
<path fill="none" stroke="#63b8ff" d="M434.54,-351.75C431.46,-344.96 427.09,-335.3 423.21,-326.73"/>
<polygon fill="#63b8ff" stroke="#63b8ff" points="426.49,-325.49 419.17,-317.82 420.11,-328.37 426.49,-325.49"/>
</g>
<!-- Node4 -->
<g id="node4" class="node">
<title>Node4</title>
<g id="a_node4"><a xlink:href="_axi_traffic_gen_lfsr_8hpp.html" target="_top" xlink:title=" ">
<polygon fill="white" stroke="#666666" points="688.5,-195 578.5,-195 578.5,-176 688.5,-176 688.5,-195"/>
<text text-anchor="middle" x="633.5" y="-183" font-family="Helvetica,sans-Serif" font-size="10.00">AxiTrafficGenLfsr.hpp</text>
</a>
</g>
</g>
<!-- Node1&#45;&gt;Node4 -->
<g id="edge3" class="edge">
<title>Node1&#45;&gt;Node4</title>
<path fill="none" stroke="#63b8ff" d="M438.74,-351.83C439.88,-328.7 446.21,-265.05 481.5,-231 495.08,-217.89 537.82,-206.05 574.53,-197.88"/>
<polygon fill="#63b8ff" stroke="#63b8ff" points="575.17,-201.32 584.21,-195.78 573.69,-194.48 575.17,-201.32"/>
</g>
<!-- Node6 -->
<g id="node6" class="node">
<title>Node6</title>
<g id="a_node6"><a xlink:href="_data_handler_abstract_8hpp.html" target="_top" xlink:title=" ">
<polygon fill="white" stroke="#666666" points="842.5,-316 682.5,-316 682.5,-297 842.5,-297 842.5,-316"/>
<text text-anchor="middle" x="762.5" y="-304" font-family="Helvetica,sans-Serif" font-size="10.00">udmaio/DataHandlerAbstract.hpp</text>
</a>
</g>
</g>
<!-- Node1&#45;&gt;Node6 -->
<g id="edge5" class="edge">
<title>Node1&#45;&gt;Node6</title>
<path fill="none" stroke="#63b8ff" d="M493.46,-351.51C549.52,-342.34 636.53,-328.11 696.33,-318.32"/>
<polygon fill="#63b8ff" stroke="#63b8ff" points="696.74,-321.8 706.05,-316.73 695.61,-314.9 696.74,-321.8"/>
</g>
<!-- Node5 -->
<g id="node5" class="node">
<title>Node5</title>
<g id="a_node5"><a xlink:title=" ">
<polygon fill="#e0e0e0" stroke="#999999" points="602.5,-140 556.5,-140 556.5,-121 602.5,-121 602.5,-140"/>
<text text-anchor="middle" x="579.5" y="-128" font-family="Helvetica,sans-Serif" font-size="10.00">cstdint</text>
</a>
</g>
</g>
<!-- Node4&#45;&gt;Node5 -->
<g id="edge4" class="edge">
<title>Node4&#45;&gt;Node5</title>
<path fill="none" stroke="#63b8ff" d="M624.58,-175.75C617.05,-168.35 606.03,-157.54 596.77,-148.45"/>
<polygon fill="#63b8ff" stroke="#63b8ff" points="599.28,-146.01 589.69,-141.5 594.38,-151 599.28,-146.01"/>
</g>
<!-- Node7 -->
<g id="node7" class="node">
<title>Node7</title>
<g id="a_node7"><a xlink:title=" ">
<polygon fill="#e0e0e0" stroke="#999999" points="743,-24.5 702,-24.5 702,-5.5 743,-5.5 743,-24.5"/>
<text text-anchor="middle" x="722.5" y="-12.5" font-family="Helvetica,sans-Serif" font-size="10.00">string</text>
</a>
</g>
</g>
<!-- Node6&#45;&gt;Node7 -->
<g id="edge6" class="edge">
<title>Node6&#45;&gt;Node7</title>
<path fill="none" stroke="#63b8ff" d="M820.21,-296.52C845.65,-290.14 874.47,-279.31 895.5,-261 923.38,-236.72 932.5,-223.47 932.5,-186.5 932.5,-186.5 932.5,-186.5 932.5,-129.5 932.5,-100.04 935.05,-86.08 913.5,-66 859.85,-16.02 821.91,-53.64 752.5,-30 751.85,-29.78 751.2,-29.55 750.55,-29.31"/>
<polygon fill="#63b8ff" stroke="#63b8ff" points="751.98,-26.12 741.4,-25.52 749.3,-32.58 751.98,-26.12"/>
</g>
<!-- Node8 -->
<g id="node8" class="node">
<title>Node8</title>
<g id="a_node8"><a xlink:title=" ">
<polygon fill="#e0e0e0" stroke="#999999" points="744.5,-140 700.5,-140 700.5,-121 744.5,-121 744.5,-140"/>
<text text-anchor="middle" x="722.5" y="-128" font-family="Helvetica,sans-Serif" font-size="10.00">vector</text>
</a>
</g>
</g>
<!-- Node6&#45;&gt;Node8 -->
<g id="edge7" class="edge">
<title>Node6&#45;&gt;Node8</title>
<path fill="none" stroke="#63b8ff" d="M756.21,-296.78C750.33,-288.15 741.82,-274.32 737.5,-261 725.38,-223.61 722.8,-177.36 722.39,-151.47"/>
<polygon fill="#63b8ff" stroke="#63b8ff" points="725.9,-151.73 722.35,-141.75 718.9,-151.76 725.9,-151.73"/>
</g>
<!-- Node9 -->
<g id="node9" class="node">
<title>Node9</title>
<g id="a_node9"><a xlink:title=" ">
<polygon fill="#e0e0e0" stroke="#999999" points="570.5,-255.5 490.5,-255.5 490.5,-236.5 570.5,-236.5 570.5,-255.5"/>
<text text-anchor="middle" x="530.5" y="-243.5" font-family="Helvetica,sans-Serif" font-size="10.00">boost/asio.hpp</text>
</a>
</g>
</g>
<!-- Node6&#45;&gt;Node9 -->
<g id="edge8" class="edge">
<title>Node6&#45;&gt;Node9</title>
<path fill="none" stroke="#63b8ff" d="M723.83,-296.57C686.71,-287.88 629.13,-274.12 579.5,-261 577.1,-260.37 574.64,-259.7 572.16,-259.03"/>
<polygon fill="#63b8ff" stroke="#63b8ff" points="573.32,-255.72 562.75,-256.41 571.45,-262.46 573.32,-255.72"/>
</g>
<!-- Node10 -->
<g id="node10" class="node">
<title>Node10</title>
<g id="a_node10"><a xlink:title=" ">
<polygon fill="#e0e0e0" stroke="#999999" points="904,-85 767,-85 767,-66 904,-66 904,-85"/>
<text text-anchor="middle" x="835.5" y="-73" font-family="Helvetica,sans-Serif" font-size="10.00">boost/core/noncopyable.hpp</text>
</a>
</g>
</g>
<!-- Node6&#45;&gt;Node10 -->
<g id="edge9" class="edge">
<title>Node6&#45;&gt;Node10</title>
<path fill="none" stroke="#63b8ff" d="M820.76,-296.51C841.59,-290.18 862.98,-279.39 875.5,-261 911.11,-208.71 870.28,-130.38 848.03,-95"/>
<polygon fill="#63b8ff" stroke="#63b8ff" points="851.05,-93.22 842.66,-86.75 845.18,-97.04 851.05,-93.22"/>
</g>
<!-- Node11 -->
<g id="node11" class="node">
<title>Node11</title>
<g id="a_node11"><a xlink:href="_logging_8hpp.html" target="_top" xlink:title=" ">
<polygon fill="white" stroke="#666666" points="1101,-85 1032,-85 1032,-66 1101,-66 1101,-85"/>
<text text-anchor="middle" x="1066.5" y="-73" font-family="Helvetica,sans-Serif" font-size="10.00">Logging.hpp</text>
</a>
</g>
</g>
<!-- Node6&#45;&gt;Node11 -->
<g id="edge10" class="edge">
<title>Node6&#45;&gt;Node11</title>
<path fill="none" stroke="#63b8ff" d="M842.79,-303.6C917.11,-300.02 1020.14,-289.83 1047.5,-261 1090.32,-215.88 1079.34,-133.81 1071.37,-96.24"/>
<polygon fill="#63b8ff" stroke="#63b8ff" points="1074.85,-95.76 1069.2,-86.79 1068.03,-97.32 1074.85,-95.76"/>
</g>
<!-- Node19 -->
<g id="node19" class="node">
<title>Node19</title>
<g id="a_node19"><a xlink:href="_u_dma_buf_8hpp.html" target="_top" xlink:title=" ">
<polygon fill="white" stroke="#666666" points="1038,-255.5 961,-255.5 961,-236.5 1038,-236.5 1038,-255.5"/>
<text text-anchor="middle" x="999.5" y="-243.5" font-family="Helvetica,sans-Serif" font-size="10.00">UDmaBuf.hpp</text>
</a>
</g>
</g>
<!-- Node6&#45;&gt;Node19 -->
<g id="edge19" class="edge">
<title>Node6&#45;&gt;Node19</title>
<path fill="none" stroke="#63b8ff" d="M800.62,-296.53C837.87,-287.7 896.16,-273.73 946.5,-261 949.24,-260.31 952.07,-259.58 954.91,-258.85"/>
<polygon fill="#63b8ff" stroke="#63b8ff" points="955.62,-262.28 964.42,-256.37 953.86,-255.51 955.62,-262.28"/>
</g>
<!-- Node26 -->
<g id="node26" class="node">
<title>Node26</title>
<g id="a_node26"><a xlink:href="_uio_axi_dma_if_8hpp.html" target="_top" xlink:title=" ">
<polygon fill="white" stroke="#666666" points="434,-255.5 345,-255.5 345,-236.5 434,-236.5 434,-255.5"/>
<text text-anchor="middle" x="389.5" y="-243.5" font-family="Helvetica,sans-Serif" font-size="10.00">UioAxiDmaIf.hpp</text>
</a>
</g>
</g>
<!-- Node6&#45;&gt;Node26 -->
<g id="edge31" class="edge">
<title>Node6&#45;&gt;Node26</title>
<path fill="none" stroke="#63b8ff" d="M705.44,-296.55C634.88,-285.48 515.54,-266.77 445.48,-255.78"/>
<polygon fill="#63b8ff" stroke="#63b8ff" points="446.17,-252.35 435.75,-254.25 445.09,-259.26 446.17,-252.35"/>
</g>
<!-- Node37 -->
<g id="node37" class="node">
<title>Node37</title>
<g id="a_node37"><a xlink:href="_uio_mem_sgdma_8hpp.html" target="_top" xlink:title=" ">
<polygon fill="white" stroke="#666666" points="690.5,-255.5 588.5,-255.5 588.5,-236.5 690.5,-236.5 690.5,-255.5"/>
<text text-anchor="middle" x="639.5" y="-243.5" font-family="Helvetica,sans-Serif" font-size="10.00">UioMemSgdma.hpp</text>
</a>
</g>
</g>
<!-- Node6&#45;&gt;Node37 -->
<g id="edge51" class="edge">
<title>Node6&#45;&gt;Node37</title>
<path fill="none" stroke="#63b8ff" d="M743.82,-296.62C723.86,-287.12 691.96,-271.95 668.68,-260.88"/>
<polygon fill="#63b8ff" stroke="#63b8ff" points="670.26,-257.75 659.72,-256.62 667.25,-264.07 670.26,-257.75"/>
</g>
<!-- Node38 -->
<g id="node38" class="node">
<title>Node38</title>
<g id="a_node38"><a xlink:title=" ">
<polygon fill="#e0e0e0" stroke="#999999" points="866.5,-261 746.5,-261 746.5,-231 866.5,-231 866.5,-261"/>
<text text-anchor="start" x="754.5" y="-249" font-family="Helvetica,sans-Serif" font-size="10.00">boost/asio/posix/stream</text>
<text text-anchor="middle" x="806.5" y="-238" font-family="Helvetica,sans-Serif" font-size="10.00">_descriptor.hpp</text>
</a>
</g>
</g>
<!-- Node6&#45;&gt;Node38 -->
<g id="edge54" class="edge">
<title>Node6&#45;&gt;Node38</title>
<path fill="none" stroke="#63b8ff" d="M768.99,-296.87C774.3,-289.81 782.06,-279.5 789.14,-270.08"/>
<polygon fill="#63b8ff" stroke="#63b8ff" points="791.76,-272.42 794.97,-262.32 786.17,-268.21 791.76,-272.42"/>
</g>
<!-- Node11&#45;&gt;Node7 -->
<g id="edge11" class="edge">
<title>Node11&#45;&gt;Node7</title>
<path fill="none" stroke="#63b8ff" d="M1031.87,-72.93C973.25,-69.55 851.2,-59.31 752.5,-30 751.54,-29.71 750.56,-29.4 749.59,-29.07"/>
<polygon fill="#63b8ff" stroke="#63b8ff" points="751.28,-25.98 740.69,-25.46 748.65,-32.46 751.28,-25.98"/>
</g>
<!-- Node12 -->
<g id="node12" class="node">
<title>Node12</title>
<g id="a_node12"><a xlink:title=" ">
<polygon fill="#e0e0e0" stroke="#999999" points="1403.5,-24.5 1307.5,-24.5 1307.5,-5.5 1403.5,-5.5 1403.5,-24.5"/>
<text text-anchor="middle" x="1355.5" y="-12.5" font-family="Helvetica,sans-Serif" font-size="10.00">boost/log/core.hpp</text>
</a>
</g>
</g>
<!-- Node11&#45;&gt;Node12 -->
<g id="edge12" class="edge">
<title>Node11&#45;&gt;Node12</title>
<path fill="none" stroke="#63b8ff" d="M1101.2,-68.42C1146.66,-60.32 1228.78,-45.24 1298.5,-30 1302.03,-29.23 1305.68,-28.4 1309.35,-27.55"/>
<polygon fill="#63b8ff" stroke="#63b8ff" points="1309.9,-31.01 1318.82,-25.3 1308.28,-24.2 1309.9,-31.01"/>
</g>
<!-- Node13 -->
<g id="node13" class="node">
<title>Node13</title>
<g id="a_node13"><a xlink:title=" ">
<polygon fill="#e0e0e0" stroke="#999999" points="1551,-24.5 1422,-24.5 1422,-5.5 1551,-5.5 1551,-24.5"/>
<text text-anchor="middle" x="1486.5" y="-12.5" font-family="Helvetica,sans-Serif" font-size="10.00">boost/log/expressions.hpp</text>
</a>
</g>
</g>
<!-- Node11&#45;&gt;Node13 -->
<g id="edge13" class="edge">
<title>Node11&#45;&gt;Node13</title>
<path fill="none" stroke="#63b8ff" d="M1101.47,-70.69C1164.02,-63.73 1299.15,-48 1412.5,-30 1418.39,-29.06 1424.53,-28.02 1430.65,-26.93"/>
<polygon fill="#63b8ff" stroke="#63b8ff" points="1430.87,-30.45 1440.08,-25.21 1429.62,-23.56 1430.87,-30.45"/>
</g>
<!-- Node14 -->
<g id="node14" class="node">
<title>Node14</title>
<g id="a_node14"><a xlink:title=" ">
<polygon fill="#e0e0e0" stroke="#999999" points="1670,-24.5 1569,-24.5 1569,-5.5 1670,-5.5 1670,-24.5"/>
<text text-anchor="middle" x="1619.5" y="-12.5" font-family="Helvetica,sans-Serif" font-size="10.00">boost/log/trivial.hpp</text>
</a>
</g>
</g>
<!-- Node11&#45;&gt;Node14 -->
<g id="edge14" class="edge">
<title>Node11&#45;&gt;Node14</title>
<path fill="none" stroke="#63b8ff" d="M1101.45,-73.07C1182.56,-69.39 1389.67,-57.82 1560.5,-30 1565.06,-29.26 1569.79,-28.36 1574.5,-27.38"/>
<polygon fill="#63b8ff" stroke="#63b8ff" points="1574.86,-30.88 1583.87,-25.31 1573.35,-24.05 1574.86,-30.88"/>
</g>
<!-- Node15 -->
<g id="node15" class="node">
<title>Node15</title>
<g id="a_node15"><a xlink:title=" ">
<polygon fill="#e0e0e0" stroke="#999999" points="870,-30 761,-30 761,0 870,0 870,-30"/>
<text text-anchor="start" x="769" y="-18" font-family="Helvetica,sans-Serif" font-size="10.00">boost/log/utility/setup</text>
<text text-anchor="middle" x="815.5" y="-7" font-family="Helvetica,sans-Serif" font-size="10.00">/console.hpp</text>
</a>
</g>
</g>
<!-- Node11&#45;&gt;Node15 -->
<g id="edge15" class="edge">
<title>Node11&#45;&gt;Node15</title>
<path fill="none" stroke="#63b8ff" d="M1031.6,-66.37C992.86,-57.34 929.46,-42.56 881.32,-31.34"/>
<polygon fill="#63b8ff" stroke="#63b8ff" points="882.38,-27.99 871.84,-29.13 880.79,-34.81 882.38,-27.99"/>
</g>
<!-- Node16 -->
<g id="node16" class="node">
<title>Node16</title>
<g id="a_node16"><a xlink:title=" ">
<polygon fill="#e0e0e0" stroke="#999999" points="1019,-30 888,-30 888,0 1019,0 1019,-30"/>
<text text-anchor="start" x="896" y="-18" font-family="Helvetica,sans-Serif" font-size="10.00">boost/log/sources/severity</text>
<text text-anchor="middle" x="953.5" y="-7" font-family="Helvetica,sans-Serif" font-size="10.00">_channel_logger.hpp</text>
</a>
</g>
</g>
<!-- Node11&#45;&gt;Node16 -->
<g id="edge16" class="edge">
<title>Node11&#45;&gt;Node16</title>
<path fill="none" stroke="#63b8ff" d="M1049.34,-65.62C1034.06,-57.7 1011.15,-45.85 991.57,-35.71"/>
<polygon fill="#63b8ff" stroke="#63b8ff" points="993.23,-32.62 982.74,-31.14 990.01,-38.84 993.23,-32.62"/>
</g>
<!-- Node17 -->
<g id="node17" class="node">
<title>Node17</title>
<g id="a_node17"><a xlink:title=" ">
<polygon fill="#e0e0e0" stroke="#999999" points="1150,-30 1037,-30 1037,0 1150,0 1150,-30"/>
<text text-anchor="start" x="1045" y="-18" font-family="Helvetica,sans-Serif" font-size="10.00">boost/log/support/date</text>
<text text-anchor="middle" x="1093.5" y="-7" font-family="Helvetica,sans-Serif" font-size="10.00">_time.hpp</text>
</a>
</g>
</g>
<!-- Node11&#45;&gt;Node17 -->
<g id="edge17" class="edge">
<title>Node11&#45;&gt;Node17</title>
<path fill="none" stroke="#63b8ff" d="M1070.48,-65.87C1073.57,-59.18 1078.01,-49.57 1082.16,-40.56"/>
<polygon fill="#63b8ff" stroke="#63b8ff" points="1085.34,-42.04 1086.35,-31.49 1078.98,-39.1 1085.34,-42.04"/>
</g>
<!-- Node18 -->
<g id="node18" class="node">
<title>Node18</title>
<g id="a_node18"><a xlink:title=" ">
<polygon fill="#e0e0e0" stroke="#999999" points="1289,-30 1168,-30 1168,0 1289,0 1289,-30"/>
<text text-anchor="start" x="1176" y="-18" font-family="Helvetica,sans-Serif" font-size="10.00">boost/log/utility/setup</text>
<text text-anchor="middle" x="1228.5" y="-7" font-family="Helvetica,sans-Serif" font-size="10.00">/common_attributes.hpp</text>
</a>
</g>
</g>
<!-- Node11&#45;&gt;Node18 -->
<g id="edge18" class="edge">
<title>Node11&#45;&gt;Node18</title>
<path fill="none" stroke="#63b8ff" d="M1091.1,-65.62C1114.02,-57.34 1148.9,-44.75 1177.78,-34.32"/>
<polygon fill="#63b8ff" stroke="#63b8ff" points="1178.87,-37.64 1187.09,-30.95 1176.5,-31.06 1178.87,-37.64"/>
</g>
<!-- Node19&#45;&gt;Node11 -->
<g id="edge30" class="edge">
<title>Node19&#45;&gt;Node11</title>
<path fill="none" stroke="#63b8ff" d="M1002.91,-236.41C1013.26,-210.39 1044.44,-131.97 1058.94,-95.51"/>
<polygon fill="#63b8ff" stroke="#63b8ff" points="1062.01,-97.26 1062.45,-86.68 1055.51,-94.68 1062.01,-97.26"/>
</g>
<!-- Node20 -->
<g id="node20" class="node">
<title>Node20</title>
<g id="a_node20"><a xlink:href="_dma_buffer_abstract_8hpp.html" target="_top" xlink:title=" ">
<polygon fill="white" stroke="#666666" points="864,-195 747,-195 747,-176 864,-176 864,-195"/>
<text text-anchor="middle" x="805.5" y="-183" font-family="Helvetica,sans-Serif" font-size="10.00">DmaBufferAbstract.hpp</text>
</a>
</g>
</g>
<!-- Node19&#45;&gt;Node20 -->
<g id="edge20" class="edge">
<title>Node19&#45;&gt;Node20</title>
<path fill="none" stroke="#63b8ff" d="M970.04,-236.12C936.99,-226.15 883.19,-209.93 846.15,-198.76"/>
<polygon fill="#63b8ff" stroke="#63b8ff" points="847.28,-195.44 836.69,-195.91 845.25,-202.14 847.28,-195.44"/>
</g>
<!-- Node20&#45;&gt;Node5 -->
<g id="edge21" class="edge">
<title>Node20&#45;&gt;Node5</title>
<path fill="none" stroke="#63b8ff" d="M767.16,-175.51C724.2,-165.43 655.18,-149.25 613.9,-139.57"/>
<polygon fill="#63b8ff" stroke="#63b8ff" points="614.79,-136.18 604.26,-137.31 613.2,-143 614.79,-136.18"/>
</g>
<!-- Node20&#45;&gt;Node8 -->
<g id="edge22" class="edge">
<title>Node20&#45;&gt;Node8</title>
<path fill="none" stroke="#63b8ff" d="M791.42,-175.51C778.94,-167.54 760.48,-155.75 745.81,-146.38"/>
<polygon fill="#63b8ff" stroke="#63b8ff" points="747.96,-143.6 737.65,-141.17 744.19,-149.5 747.96,-143.6"/>
</g>
<!-- Node20&#45;&gt;Node10 -->
<g id="edge23" class="edge">
<title>Node20&#45;&gt;Node10</title>
<path fill="none" stroke="#63b8ff" d="M807.96,-175.66C812.75,-158.42 823.44,-119.9 830.01,-96.27"/>
<polygon fill="#63b8ff" stroke="#63b8ff" points="833.3,-97.49 832.61,-86.92 826.56,-95.62 833.3,-97.49"/>
</g>
<!-- Node21 -->
<g id="node21" class="node">
<title>Node21</title>
<g id="a_node21"><a xlink:href="_uio_config_8hpp.html" target="_top" xlink:title=" ">
<polygon fill="white" stroke="#666666" points="710,-85 599,-85 599,-66 710,-66 710,-85"/>
<text text-anchor="middle" x="654.5" y="-73" font-family="Helvetica,sans-Serif" font-size="10.00">udmaio/UioConfig.hpp</text>
</a>
</g>
</g>
<!-- Node20&#45;&gt;Node21 -->
<g id="edge24" class="edge">
<title>Node20&#45;&gt;Node21</title>
<path fill="none" stroke="#63b8ff" d="M800.14,-175.6C791.69,-162.21 774.09,-136.77 753.5,-121 735.74,-107.4 713.17,-96.84 694.06,-89.43"/>
<polygon fill="#63b8ff" stroke="#63b8ff" points="695.28,-86.16 684.69,-85.96 692.85,-92.72 695.28,-86.16"/>
</g>
<!-- Node21&#45;&gt;Node7 -->
<g id="edge28" class="edge">
<title>Node21&#45;&gt;Node7</title>
<path fill="none" stroke="#63b8ff" d="M664.83,-65.62C675.11,-56.77 691.13,-42.98 703.68,-32.19"/>
<polygon fill="#63b8ff" stroke="#63b8ff" points="705.63,-35.13 710.93,-25.96 701.06,-29.82 705.63,-35.13"/>
</g>
<!-- Node22 -->
<g id="node22" class="node">
<title>Node22</title>
<g id="a_node22"><a xlink:title=" ">
<polygon fill="#e0e0e0" stroke="#999999" points="423.5,-24.5 369.5,-24.5 369.5,-5.5 423.5,-5.5 423.5,-24.5"/>
<text text-anchor="middle" x="396.5" y="-12.5" font-family="Helvetica,sans-Serif" font-size="10.00">iostream</text>
</a>
</g>
</g>
<!-- Node21&#45;&gt;Node22 -->
<g id="edge25" class="edge">
<title>Node21&#45;&gt;Node22</title>
<path fill="none" stroke="#63b8ff" d="M611.63,-65.54C570.48,-56.83 506.62,-43.05 451.5,-30 446.15,-28.73 440.52,-27.35 434.98,-25.97"/>
<polygon fill="#63b8ff" stroke="#63b8ff" points="435.89,-22.59 425.34,-23.53 434.18,-29.38 435.89,-22.59"/>
</g>
<!-- Node23 -->
<g id="node23" class="node">
<title>Node23</title>
<g id="a_node23"><a xlink:title=" ">
<polygon fill="#e0e0e0" stroke="#999999" points="512,-24.5 461,-24.5 461,-5.5 512,-5.5 512,-24.5"/>
<text text-anchor="middle" x="486.5" y="-12.5" font-family="Helvetica,sans-Serif" font-size="10.00">memory</text>
</a>
</g>
</g>
<!-- Node21&#45;&gt;Node23 -->
<g id="edge26" class="edge">
<title>Node21&#45;&gt;Node23</title>
<path fill="none" stroke="#63b8ff" d="M628.98,-65.62C600.74,-55.78 554.98,-39.84 522.96,-28.69"/>
<polygon fill="#63b8ff" stroke="#63b8ff" points="524.28,-25.45 513.69,-25.47 521.98,-32.06 524.28,-25.45"/>
</g>
<!-- Node24 -->
<g id="node24" class="node">
<title>Node24</title>
<g id="a_node24"><a xlink:title=" ">
<polygon fill="#e0e0e0" stroke="#999999" points="684,-24.5 625,-24.5 625,-5.5 684,-5.5 684,-24.5"/>
<text text-anchor="middle" x="654.5" y="-12.5" font-family="Helvetica,sans-Serif" font-size="10.00">stdexcept</text>
</a>
</g>
</g>
<!-- Node21&#45;&gt;Node24 -->
<g id="edge27" class="edge">
<title>Node21&#45;&gt;Node24</title>
<path fill="none" stroke="#63b8ff" d="M654.5,-65.87C654.5,-58 654.5,-46.1 654.5,-35.89"/>
<polygon fill="#63b8ff" stroke="#63b8ff" points="658,-36.18 654.5,-26.18 651,-36.18 658,-36.18"/>
</g>
<!-- Node25 -->
<g id="node25" class="node">
<title>Node25</title>
<g id="a_node25"><a xlink:title=" ">
<polygon fill="#e0e0e0" stroke="#999999" points="606.5,-24.5 540.5,-24.5 540.5,-5.5 606.5,-5.5 606.5,-24.5"/>
<text text-anchor="middle" x="573.5" y="-12.5" font-family="Helvetica,sans-Serif" font-size="10.00">string_view</text>
</a>
</g>
</g>
<!-- Node21&#45;&gt;Node25 -->
<g id="edge29" class="edge">
<title>Node21&#45;&gt;Node25</title>
<path fill="none" stroke="#63b8ff" d="M642.2,-65.62C629.71,-56.6 610.12,-42.45 595.05,-31.56"/>
<polygon fill="#63b8ff" stroke="#63b8ff" points="597.3,-28.87 587.14,-25.85 593.2,-34.55 597.3,-28.87"/>
</g>
<!-- Node27 -->
<g id="node27" class="node">
<title>Node27</title>
<g id="a_node27"><a xlink:href="_axi_dma_8hpp.html" target="_top" xlink:title=" ">
<polygon fill="white" stroke="#666666" points="560.5,-195 492.5,-195 492.5,-176 560.5,-176 560.5,-195"/>
<text text-anchor="middle" x="526.5" y="-183" font-family="Helvetica,sans-Serif" font-size="10.00">AxiDma.hpp</text>
</a>
</g>
</g>
<!-- Node26&#45;&gt;Node27 -->
<g id="edge32" class="edge">
<title>Node26&#45;&gt;Node27</title>
<path fill="none" stroke="#63b8ff" d="M410.31,-236.12C432.84,-226.49 469.04,-211.04 495.04,-199.93"/>
<polygon fill="#63b8ff" stroke="#63b8ff" points="496.28,-203.21 504.1,-196.06 493.53,-196.77 496.28,-203.21"/>
</g>
<!-- Node28 -->
<g id="node28" class="node">
<title>Node28</title>
<g id="a_node28"><a xlink:href="_reg_accessor_8hpp.html" target="_top" xlink:title=" ">
<polygon fill="white" stroke="#666666" points="474,-195 381,-195 381,-176 474,-176 474,-195"/>
<text text-anchor="middle" x="427.5" y="-183" font-family="Helvetica,sans-Serif" font-size="10.00">RegAccessor.hpp</text>
</a>
</g>
</g>
<!-- Node26&#45;&gt;Node28 -->
<g id="edge34" class="edge">
<title>Node26&#45;&gt;Node28</title>
<path fill="none" stroke="#63b8ff" d="M395.11,-236.37C400.5,-228.07 408.81,-215.28 415.66,-204.72"/>
<polygon fill="#63b8ff" stroke="#63b8ff" points="418.53,-206.73 421.05,-196.44 412.66,-202.92 418.53,-206.73"/>
</g>
<!-- Node29 -->
<g id="node29" class="node">
<title>Node29</title>
<g id="a_node29"><a xlink:href="_uio_if_8hpp.html" target="_top" xlink:title=" ">
<polygon fill="white" stroke="#666666" points="469.5,-140 379.5,-140 379.5,-121 469.5,-121 469.5,-140"/>
<text text-anchor="middle" x="424.5" y="-128" font-family="Helvetica,sans-Serif" font-size="10.00">udmaio/UioIf.hpp</text>
</a>
</g>
</g>
<!-- Node26&#45;&gt;Node29 -->
<g id="edge50" class="edge">
<title>Node26&#45;&gt;Node29</title>
<path fill="none" stroke="#63b8ff" d="M383.47,-236.16C375.09,-222.68 361.98,-196.42 371.5,-176 377.08,-164.03 387.63,-154.14 397.86,-146.75"/>
<polygon fill="#63b8ff" stroke="#63b8ff" points="399.73,-149.71 406.14,-141.27 395.87,-143.87 399.73,-149.71"/>
</g>
<!-- Node27&#45;&gt;Node5 -->
<g id="edge33" class="edge">
<title>Node27&#45;&gt;Node5</title>
<path fill="none" stroke="#63b8ff" d="M535.25,-175.75C542.65,-168.35 553.46,-157.54 562.55,-148.45"/>
<polygon fill="#63b8ff" stroke="#63b8ff" points="564.89,-151.06 569.49,-141.51 559.94,-146.11 564.89,-151.06"/>
</g>
<!-- Node28&#45;&gt;Node5 -->
<g id="edge35" class="edge">
<title>Node28&#45;&gt;Node5</title>
<path fill="none" stroke="#63b8ff" d="M453.28,-175.51C478.6,-166.68 517.36,-153.17 545.24,-143.44"/>
<polygon fill="#63b8ff" stroke="#63b8ff" points="546.37,-146.76 554.66,-140.16 544.06,-140.15 546.37,-146.76"/>
</g>
<!-- Node28&#45;&gt;Node29 -->
<g id="edge36" class="edge">
<title>Node28&#45;&gt;Node29</title>
<path fill="none" stroke="#63b8ff" d="M427,-175.75C426.64,-169.27 426.12,-160.16 425.65,-151.9"/>
<polygon fill="#63b8ff" stroke="#63b8ff" points="429.15,-151.74 425.09,-141.95 422.16,-152.13 429.15,-151.74"/>
</g>
<!-- Node29&#45;&gt;Node7 -->
<g id="edge41" class="edge">
<title>Node29&#45;&gt;Node7</title>
<path fill="none" stroke="#63b8ff" d="M469.93,-125.8C548.52,-118.95 703.05,-103.3 719.5,-85 731.27,-71.91 730.53,-51.15 727.75,-35.82"/>
<polygon fill="#63b8ff" stroke="#63b8ff" points="731.25,-35.39 725.63,-26.41 724.42,-36.94 731.25,-35.39"/>
</g>
<!-- Node29&#45;&gt;Node10 -->
<g id="edge42" class="edge">
<title>Node29&#45;&gt;Node10</title>
<path fill="none" stroke="#63b8ff" d="M469.66,-123.68C538.41,-114.81 670.32,-97.8 755.54,-86.81"/>
<polygon fill="#63b8ff" stroke="#63b8ff" points="755.75,-90.31 765.22,-85.56 754.85,-83.37 755.75,-90.31"/>
</g>
<!-- Node29&#45;&gt;Node11 -->
<g id="edge48" class="edge">
<title>Node29&#45;&gt;Node11</title>
<path fill="none" stroke="#63b8ff" d="M469.9,-125.75C587.65,-116.03 901.91,-90.09 1020.41,-80.3"/>
<polygon fill="#63b8ff" stroke="#63b8ff" points="1020.4,-83.82 1030.08,-79.51 1019.82,-76.84 1020.4,-83.82"/>
</g>
<!-- Node29&#45;&gt;Node21 -->
<g id="edge49" class="edge">
<title>Node29&#45;&gt;Node21</title>
<path fill="none" stroke="#63b8ff" d="M463.52,-120.51C502.38,-111.55 562.19,-97.77 604.51,-88.02"/>
<polygon fill="#63b8ff" stroke="#63b8ff" points="605.24,-91.44 614.2,-85.79 603.67,-84.62 605.24,-91.44"/>
</g>
<!-- Node29&#45;&gt;Node22 -->
<g id="edge39" class="edge">
<title>Node29&#45;&gt;Node22</title>
<path fill="none" stroke="#63b8ff" d="M421.44,-120.71C418.4,-111.79 413.74,-97.55 410.5,-85 406.25,-68.51 402.47,-49.53 399.92,-35.65"/>
<polygon fill="#63b8ff" stroke="#63b8ff" points="403.41,-35.28 398.21,-26.05 396.52,-36.51 403.41,-35.28"/>
</g>
<!-- Node29&#45;&gt;Node23 -->
<g id="edge40" class="edge">
<title>Node29&#45;&gt;Node23</title>
<path fill="none" stroke="#63b8ff" d="M425.9,-120.84C428.21,-108.18 433.56,-84.17 443.5,-66 450.18,-53.8 460.2,-41.91 468.89,-32.8"/>
<polygon fill="#63b8ff" stroke="#63b8ff" points="471.32,-35.32 475.9,-25.76 466.36,-30.38 471.32,-35.32"/>
</g>
<!-- Node30 -->
<g id="node30" class="node">
<title>Node30</title>
<g id="a_node30"><a xlink:title=" ">
<polygon fill="#e0e0e0" stroke="#999999" points="512.5,-85 452.5,-85 452.5,-66 512.5,-66 512.5,-85"/>
<text text-anchor="middle" x="482.5" y="-73" font-family="Helvetica,sans-Serif" font-size="10.00">filesystem</text>
</a>
</g>
</g>
<!-- Node29&#45;&gt;Node30 -->
<g id="edge37" class="edge">
<title>Node29&#45;&gt;Node30</title>
<path fill="none" stroke="#63b8ff" d="M434.34,-120.51C442.55,-113 454.48,-102.1 464.41,-93.03"/>
<polygon fill="#63b8ff" stroke="#63b8ff" points="466.67,-95.71 471.69,-86.38 461.95,-90.54 466.67,-95.71"/>
</g>
<!-- Node31 -->
<g id="node31" class="node">
<title>Node31</title>
<g id="a_node31"><a xlink:title=" ">
<polygon fill="#e0e0e0" stroke="#999999" points="580.5,-85 530.5,-85 530.5,-66 580.5,-66 580.5,-85"/>
<text text-anchor="middle" x="555.5" y="-73" font-family="Helvetica,sans-Serif" font-size="10.00">fstream</text>
</a>
</g>
</g>
<!-- Node29&#45;&gt;Node31 -->
<g id="edge38" class="edge">
<title>Node29&#45;&gt;Node31</title>
<path fill="none" stroke="#63b8ff" d="M446.72,-120.51C467.64,-112.04 499.23,-99.27 522.98,-89.66"/>
<polygon fill="#63b8ff" stroke="#63b8ff" points="524.25,-92.92 532.2,-85.93 521.62,-86.43 524.25,-92.92"/>
</g>
<!-- Node32 -->
<g id="node32" class="node">
<title>Node32</title>
<g id="a_node32"><a xlink:title=" ">
<polygon fill="#e0e0e0" stroke="#999999" points="43,-85 0,-85 0,-66 43,-66 43,-85"/>
<text text-anchor="middle" x="21.5" y="-73" font-family="Helvetica,sans-Serif" font-size="10.00">fcntl.h</text>
</a>
</g>
</g>
<!-- Node29&#45;&gt;Node32 -->
<g id="edge43" class="edge">
<title>Node29&#45;&gt;Node32</title>
<path fill="none" stroke="#63b8ff" d="M379.07,-126.4C310.53,-121.21 176.52,-109.11 54.38,-85.31"/>
<polygon fill="#63b8ff" stroke="#63b8ff" points="55.33,-81.93 44.84,-83.42 53.97,-88.8 55.33,-81.93"/>
</g>
<!-- Node33 -->
<g id="node33" class="node">
<title>Node33</title>
<g id="a_node33"><a xlink:title=" ">
<polygon fill="#e0e0e0" stroke="#999999" points="130,-85 61,-85 61,-66 130,-66 130,-85"/>
<text text-anchor="middle" x="95.5" y="-73" font-family="Helvetica,sans-Serif" font-size="10.00">sys/mman.h</text>
</a>
</g>
</g>
<!-- Node29&#45;&gt;Node33 -->
<g id="edge44" class="edge">
<title>Node29&#45;&gt;Node33</title>
<path fill="none" stroke="#63b8ff" d="M379.33,-123.05C325.14,-115.19 231.27,-101.16 141.43,-85.46"/>
<polygon fill="#63b8ff" stroke="#63b8ff" points="142.16,-82.04 131.7,-83.75 140.94,-88.93 142.16,-82.04"/>
</g>
<!-- Node34 -->
<g id="node34" class="node">
<title>Node34</title>
<g id="a_node34"><a xlink:title=" ">
<polygon fill="#e0e0e0" stroke="#999999" points="207,-85 148,-85 148,-66 207,-66 207,-85"/>
<text text-anchor="middle" x="177.5" y="-73" font-family="Helvetica,sans-Serif" font-size="10.00">sys/stat.h</text>
</a>
</g>
</g>
<!-- Node29&#45;&gt;Node34 -->
<g id="edge45" class="edge">
<title>Node29&#45;&gt;Node34</title>
<path fill="none" stroke="#63b8ff" d="M381.64,-120.51C341.77,-112.11 280.4,-99.12 218.51,-85.64"/>
<polygon fill="#63b8ff" stroke="#63b8ff" points="219.36,-82.24 208.84,-83.53 217.87,-89.08 219.36,-82.24"/>
</g>
<!-- Node35 -->
<g id="node35" class="node">
<title>Node35</title>
<g id="a_node35"><a xlink:title=" ">
<polygon fill="#e0e0e0" stroke="#999999" points="290,-85 225,-85 225,-66 290,-66 290,-85"/>
<text text-anchor="middle" x="257.5" y="-73" font-family="Helvetica,sans-Serif" font-size="10.00">sys/types.h</text>
</a>
</g>
</g>
<!-- Node29&#45;&gt;Node35 -->
<g id="edge46" class="edge">
<title>Node29&#45;&gt;Node35</title>
<path fill="none" stroke="#63b8ff" d="M396.17,-120.51C368.74,-111.8 326.92,-98.53 296.38,-88.84"/>
<polygon fill="#63b8ff" stroke="#63b8ff" points="297.72,-85.59 287.13,-85.9 295.6,-92.27 297.72,-85.59"/>
</g>
<!-- Node36 -->
<g id="node36" class="node">
<title>Node36</title>
<g id="a_node36"><a xlink:title=" ">
<polygon fill="#e0e0e0" stroke="#999999" points="358.5,-85 308.5,-85 308.5,-66 358.5,-66 358.5,-85"/>
<text text-anchor="middle" x="333.5" y="-73" font-family="Helvetica,sans-Serif" font-size="10.00">unistd.h</text>
</a>
</g>
</g>
<!-- Node29&#45;&gt;Node36 -->
<g id="edge47" class="edge">
<title>Node29&#45;&gt;Node36</title>
<path fill="none" stroke="#63b8ff" d="M409.06,-120.51C395.25,-112.47 374.75,-100.53 358.59,-91.11"/>
<polygon fill="#63b8ff" stroke="#63b8ff" points="360.42,-88.13 350.02,-86.12 356.9,-94.18 360.42,-88.13"/>
</g>
<!-- Node37&#45;&gt;Node20 -->
<g id="edge52" class="edge">
<title>Node37&#45;&gt;Node20</title>
<path fill="none" stroke="#63b8ff" d="M664.71,-236.12C692.62,-226.28 737.84,-210.34 769.48,-199.19"/>
<polygon fill="#63b8ff" stroke="#63b8ff" points="770.36,-202.6 778.62,-195.97 768.03,-195.99 770.36,-202.6"/>
</g>
<!-- Node37&#45;&gt;Node28 -->
<g id="edge53" class="edge">
<title>Node37&#45;&gt;Node28</title>
<path fill="none" stroke="#63b8ff" d="M607.3,-236.12C570.88,-226.06 511.38,-209.65 470.88,-198.47"/>
<polygon fill="#63b8ff" stroke="#63b8ff" points="472.03,-195.16 461.46,-195.87 470.17,-201.91 472.03,-195.16"/>
</g>
</g>
</svg>
