<?xml version="1.0" encoding="UTF-8" standalone="no"?>
<!DOCTYPE svg PUBLIC "-//W3C//DTD SVG 1.1//EN"
 "http://www.w3.org/Graphics/SVG/1.1/DTD/svg11.dtd">
<!-- Generated by graphviz version 7.0.5 (20221223.1930)
 -->
<!-- Title: DataHandlerAbstract.hpp Pages: 1 -->
<!--zoomable 379 -->
<svg id="main" version="1.1" xmlns="http://www.w3.org/2000/svg" xmlns:xlink="http://www.w3.org/1999/xlink" xml:space="preserve" onload="init(evt)">
<style type="text/css"><![CDATA[
.edge:hover path { stroke: red; }
.edge:hover polygon { stroke: red; fill: red; }
]]></style>
<script type="text/javascript"><![CDATA[
var edges = document.getElementsByTagName('g');
if (edges && edges.length) {
  for (var i=0;i<edges.length;i++) {
    if (edges[i].id.substr(0,4)=='edge') {
      edges[i].setAttribute('class','edge');
    }
  }
}
]]></script>
        <defs>
                <circle id="rim" cx="0" cy="0" r="7"/>
                <circle id="rim2" cx="0" cy="0" r="3.5"/>
                <g id="zoomPlus">
                        <use xlink:href="#rim" fill="#404040">
                                <set attributeName="fill" to="#808080" begin="zoomplus.mouseover" end="zoomplus.mouseout"/>
                        </use>
                        <path d="M-4,0h8M0,-4v8" fill="none" stroke="white" stroke-width="1.5" pointer-events="none"/>
                </g>
                <g id="zoomMin">
                        <use xlink:href="#rim" fill="#404040">
                                <set attributeName="fill" to="#808080" begin="zoomminus.mouseover" end="zoomminus.mouseout"/>
                        </use>
                        <path d="M-4,0h8" fill="none" stroke="white" stroke-width="1.5" pointer-events="none"/>
                </g>
                <g id="dirArrow">
                        <path fill="none" stroke="white" stroke-width="1.5" d="M0,-3.0v7 M-2.5,-0.5L0,-3.0L2.5,-0.5"/>
                </g>
               <g id="resetDef">
                       <use xlink:href="#rim2" fill="#404040">
                               <set attributeName="fill" to="#808080" begin="reset.mouseover" end="reset.mouseout"/>
                       </use>
               </g>
        </defs>

<script type="text/javascript">
var viewWidth = 1885;
var viewHeight = 379;
var sectionId = 'dynsection-0';
</script>
<script xlink:href="svgpan.js"/>
<svg id="graph" class="graph">
<g id="viewport">
<title>DataHandlerAbstract.hpp</title>
<!-- Node1 -->
<g id="node1" class="node">
<title>Node1</title>
<g id="a_node1"><a xlink:title=" ">
<polygon fill="#999999" stroke="#666666" points="430,-371 305,-371 305,-352 430,-352 430,-371"/>
<text text-anchor="middle" x="367.5" y="-359" font-family="Helvetica,sans-Serif" font-size="10.00">DataHandlerAbstract.hpp</text>
</a>
</g>
</g>
<!-- Node2 -->
<g id="node2" class="node">
<title>Node2</title>
<g id="a_node2"><a xlink:title=" ">
<polygon fill="#e0e0e0" stroke="#999999" points="370.5,-140 326.5,-140 326.5,-121 370.5,-121 370.5,-140"/>
<text text-anchor="middle" x="348.5" y="-128" font-family="Helvetica,sans-Serif" font-size="10.00">vector</text>
</a>
</g>
</g>
<!-- Node1&#45;&gt;Node2 -->
<g id="edge1" class="edge">
<title>Node1&#45;&gt;Node2</title>
<path fill="none" stroke="#63b8ff" d="M366.65,-351.62C364.87,-332.87 360.65,-287.82 357.5,-250 354.63,-215.48 351.65,-175.26 349.94,-151.68"/>
<polygon fill="#63b8ff" stroke="#63b8ff" points="353.45,-151.66 349.24,-141.93 346.47,-152.16 353.45,-151.66"/>
</g>
<!-- Node3 -->
<g id="node3" class="node">
<title>Node3</title>
<g id="a_node3"><a xlink:title=" ">
<polygon fill="#e0e0e0" stroke="#999999" points="263.5,-310.5 183.5,-310.5 183.5,-291.5 263.5,-291.5 263.5,-310.5"/>
<text text-anchor="middle" x="223.5" y="-298.5" font-family="Helvetica,sans-Serif" font-size="10.00">boost/asio.hpp</text>
</a>
</g>
</g>
<!-- Node1&#45;&gt;Node3 -->
<g id="edge2" class="edge">
<title>Node1&#45;&gt;Node3</title>
<path fill="none" stroke="#63b8ff" d="M345.63,-351.62C321.84,-341.95 283.56,-326.4 256.2,-315.28"/>
<polygon fill="#63b8ff" stroke="#63b8ff" points="257.56,-312.06 246.98,-311.54 254.93,-318.54 257.56,-312.06"/>
</g>
<!-- Node4 -->
<g id="node4" class="node">
<title>Node4</title>
<g id="a_node4"><a xlink:title=" ">
<polygon fill="#e0e0e0" stroke="#999999" points="256,-79.5 119,-79.5 119,-60.5 256,-60.5 256,-79.5"/>
<text text-anchor="middle" x="187.5" y="-67.5" font-family="Helvetica,sans-Serif" font-size="10.00">boost/core/noncopyable.hpp</text>
</a>
</g>
</g>
<!-- Node1&#45;&gt;Node4 -->
<g id="edge3" class="edge">
<title>Node1&#45;&gt;Node4</title>
<path fill="none" stroke="#63b8ff" d="M356.61,-351.59C335.6,-333.33 291.5,-289.3 291.5,-241.5 291.5,-241.5 291.5,-241.5 291.5,-184.5 291.5,-139.12 245.74,-104 214.93,-85.5"/>
<polygon fill="#63b8ff" stroke="#63b8ff" points="216.87,-82.58 206.45,-80.63 213.38,-88.65 216.87,-82.58"/>
</g>
<!-- Node5 -->
<g id="node5" class="node">
<title>Node5</title>
<g id="a_node5"><a xlink:title=" ">
<polygon fill="#e0e0e0" stroke="#999999" points="101,-79.5 0,-79.5 0,-60.5 101,-60.5 101,-79.5"/>
<text text-anchor="middle" x="50.5" y="-67.5" font-family="Helvetica,sans-Serif" font-size="10.00">boost/log/trivial.hpp</text>
</a>
</g>
</g>
<!-- Node1&#45;&gt;Node5 -->
<g id="edge4" class="edge">
<title>Node1&#45;&gt;Node5</title>
<path fill="none" stroke="#63b8ff" d="M304.6,-358.7C226.52,-352.72 103.5,-329.35 103.5,-241.5 103.5,-241.5 103.5,-241.5 103.5,-184.5 103.5,-147.87 80.56,-110.31 64.86,-88.9"/>
<polygon fill="#63b8ff" stroke="#63b8ff" points="67.64,-86.78 58.79,-80.96 62.09,-91.03 67.64,-86.78"/>
</g>
<!-- Node6 -->
<g id="node6" class="node">
<title>Node6</title>
<g id="a_node6"><a xlink:href="_u_dma_buf_8hpp.html" target="_top" xlink:title=" ">
<polygon fill="white" stroke="#666666" points="444,-250 367,-250 367,-231 444,-231 444,-250"/>
<text text-anchor="middle" x="405.5" y="-238" font-family="Helvetica,sans-Serif" font-size="10.00">UDmaBuf.hpp</text>
</a>
</g>
</g>
<!-- Node1&#45;&gt;Node6 -->
<g id="edge5" class="edge">
<title>Node1&#45;&gt;Node6</title>
<path fill="none" stroke="#63b8ff" d="M370.36,-351.56C376.47,-332.42 390.92,-287.15 399.27,-261.02"/>
<polygon fill="#63b8ff" stroke="#63b8ff" points="402.55,-262.26 402.25,-251.67 395.88,-260.13 402.55,-262.26"/>
</g>
<!-- Node17 -->
<g id="node17" class="node">
<title>Node17</title>
<g id="a_node17"><a xlink:href="_uio_axi_dma_if_8hpp.html" target="_top" xlink:title=" ">
<polygon fill="white" stroke="#666666" points="736,-310.5 647,-310.5 647,-291.5 736,-291.5 736,-310.5"/>
<text text-anchor="middle" x="691.5" y="-298.5" font-family="Helvetica,sans-Serif" font-size="10.00">UioAxiDmaIf.hpp</text>
</a>
</g>
</g>
<!-- Node1&#45;&gt;Node17 -->
<g id="edge19" class="edge">
<title>Node1&#45;&gt;Node17</title>
<path fill="none" stroke="#63b8ff" d="M417.06,-351.55C475.97,-340.91 574.02,-323.21 635.59,-312.1"/>
<polygon fill="#63b8ff" stroke="#63b8ff" points="635.93,-315.59 645.15,-310.37 634.69,-308.7 635.93,-315.59"/>
</g>
<!-- Node33 -->
<g id="node33" class="node">
<title>Node33</title>
<g id="a_node33"><a xlink:href="_uio_mem_sgdma_8hpp.html" target="_top" xlink:title=" ">
<polygon fill="white" stroke="#666666" points="619.5,-250 517.5,-250 517.5,-231 619.5,-231 619.5,-250"/>
<text text-anchor="middle" x="568.5" y="-238" font-family="Helvetica,sans-Serif" font-size="10.00">UioMemSgdma.hpp</text>
</a>
</g>
</g>
<!-- Node1&#45;&gt;Node33 -->
<g id="edge46" class="edge">
<title>Node1&#45;&gt;Node33</title>
<path fill="none" stroke="#63b8ff" d="M382.61,-351.56C417.03,-331.18 501.57,-281.13 543.74,-256.16"/>
<polygon fill="#63b8ff" stroke="#63b8ff" points="545.37,-259.26 552.19,-251.16 541.8,-253.24 545.37,-259.26"/>
</g>
<!-- Node34 -->
<g id="node34" class="node">
<title>Node34</title>
<g id="a_node34"><a xlink:title=" ">
<polygon fill="#e0e0e0" stroke="#999999" points="874.5,-316 754.5,-316 754.5,-286 874.5,-286 874.5,-316"/>
<text text-anchor="start" x="762.5" y="-304" font-family="Helvetica,sans-Serif" font-size="10.00">boost/asio/posix/stream</text>
<text text-anchor="middle" x="814.5" y="-293" font-family="Helvetica,sans-Serif" font-size="10.00">_descriptor.hpp</text>
</a>
</g>
</g>
<!-- Node1&#45;&gt;Node34 -->
<g id="edge49" class="edge">
<title>Node1&#45;&gt;Node34</title>
<path fill="none" stroke="#63b8ff" d="M430.26,-354.72C503.08,-347.66 627.02,-334.53 743.13,-316.29"/>
<polygon fill="#63b8ff" stroke="#63b8ff" points="743.52,-319.77 752.85,-314.75 742.42,-312.86 743.52,-319.77"/>
</g>
<!-- Node6&#45;&gt;Node5 -->
<g id="edge8" class="edge">
<title>Node6&#45;&gt;Node5</title>
<path fill="none" stroke="#63b8ff" d="M386.91,-230.68C328.82,-203.1 150.33,-118.38 79.7,-84.86"/>
<polygon fill="#63b8ff" stroke="#63b8ff" points="81.23,-81.71 70.7,-80.59 78.23,-88.04 81.23,-81.71"/>
</g>
<!-- Node7 -->
<g id="node7" class="node">
<title>Node7</title>
<g id="a_node7"><a xlink:title=" ">
<polygon fill="#e0e0e0" stroke="#999999" points="392.5,-79.5 274.5,-79.5 274.5,-60.5 392.5,-60.5 392.5,-79.5"/>
<text text-anchor="middle" x="333.5" y="-67.5" font-family="Helvetica,sans-Serif" font-size="10.00">boost/log/core/core.hpp</text>
</a>
</g>
</g>
<!-- Node6&#45;&gt;Node7 -->
<g id="edge6" class="edge">
<title>Node6&#45;&gt;Node7</title>
<path fill="none" stroke="#63b8ff" d="M405.12,-230.64C403.93,-210.19 399.04,-158.55 379.5,-121 372.9,-108.31 362.23,-96.43 352.83,-87.43"/>
<polygon fill="#63b8ff" stroke="#63b8ff" points="355.26,-84.91 345.5,-80.78 350.55,-90.09 355.26,-84.91"/>
</g>
<!-- Node8 -->
<g id="node8" class="node">
<title>Node8</title>
<g id="a_node8"><a xlink:title=" ">
<polygon fill="#e0e0e0" stroke="#999999" points="552,-79.5 411,-79.5 411,-60.5 552,-60.5 552,-79.5"/>
<text text-anchor="middle" x="481.5" y="-67.5" font-family="Helvetica,sans-Serif" font-size="10.00">boost/log/sources/logger.hpp</text>
</a>
</g>
</g>
<!-- Node6&#45;&gt;Node8 -->
<g id="edge7" class="edge">
<title>Node6&#45;&gt;Node8</title>
<path fill="none" stroke="#63b8ff" d="M409.37,-230.91C421.11,-204.89 456.48,-126.47 472.92,-90.01"/>
<polygon fill="#63b8ff" stroke="#63b8ff" points="476,-91.71 476.92,-81.15 469.62,-88.83 476,-91.71"/>
</g>
<!-- Node9 -->
<g id="node9" class="node">
<title>Node9</title>
<g id="a_node9"><a xlink:href="_dma_buffer_abstract_8hpp.html" target="_top" xlink:title=" ">
<polygon fill="white" stroke="#666666" points="627,-195 510,-195 510,-176 627,-176 627,-195"/>
<text text-anchor="middle" x="568.5" y="-183" font-family="Helvetica,sans-Serif" font-size="10.00">DmaBufferAbstract.hpp</text>
</a>
</g>
</g>
<!-- Node6&#45;&gt;Node9 -->
<g id="edge9" class="edge">
<title>Node6&#45;&gt;Node9</title>
<path fill="none" stroke="#63b8ff" d="M433.15,-230.51C459.81,-221.84 500.38,-208.65 530.16,-198.97"/>
<polygon fill="#63b8ff" stroke="#63b8ff" points="531.12,-202.33 539.55,-195.91 528.95,-195.68 531.12,-202.33"/>
</g>
<!-- Node9&#45;&gt;Node2 -->
<g id="edge11" class="edge">
<title>Node9&#45;&gt;Node2</title>
<path fill="none" stroke="#63b8ff" d="M531.18,-175.51C489.34,-165.43 422.1,-149.23 381.92,-139.55"/>
<polygon fill="#63b8ff" stroke="#63b8ff" points="382.88,-136.18 372.34,-137.24 381.24,-142.99 382.88,-136.18"/>
</g>
<!-- Node9&#45;&gt;Node4 -->
<g id="edge12" class="edge">
<title>Node9&#45;&gt;Node4</title>
<path fill="none" stroke="#63b8ff" d="M543.61,-175.52C507.63,-162.68 438.88,-138.68 379.5,-121 330.98,-106.55 274.88,-92.21 235.9,-82.62"/>
<polygon fill="#63b8ff" stroke="#63b8ff" points="236.89,-79.26 226.35,-80.28 235.23,-86.06 236.89,-79.26"/>
</g>
<!-- Node10 -->
<g id="node10" class="node">
<title>Node10</title>
<g id="a_node10"><a xlink:title=" ">
<polygon fill="#e0e0e0" stroke="#999999" points="968.5,-140 922.5,-140 922.5,-121 968.5,-121 968.5,-140"/>
<text text-anchor="middle" x="945.5" y="-128" font-family="Helvetica,sans-Serif" font-size="10.00">cstdint</text>
</a>
</g>
</g>
<!-- Node9&#45;&gt;Node10 -->
<g id="edge10" class="edge">
<title>Node9&#45;&gt;Node10</title>
<path fill="none" stroke="#63b8ff" d="M627.48,-179.27C694.12,-172.84 805.97,-160.44 911.04,-140.25"/>
<polygon fill="#63b8ff" stroke="#63b8ff" points="911.53,-143.72 920.68,-138.37 910.19,-136.85 911.53,-143.72"/>
</g>
<!-- Node11 -->
<g id="node11" class="node">
<title>Node11</title>
<g id="a_node11"><a xlink:href="_uio_config_8hpp.html" target="_top" xlink:title=" ">
<polygon fill="white" stroke="#666666" points="681,-79.5 570,-79.5 570,-60.5 681,-60.5 681,-79.5"/>
<text text-anchor="middle" x="625.5" y="-67.5" font-family="Helvetica,sans-Serif" font-size="10.00">udmaio/UioConfig.hpp</text>
</a>
</g>
</g>
<!-- Node9&#45;&gt;Node11 -->
<g id="edge13" class="edge">
<title>Node9&#45;&gt;Node11</title>
<path fill="none" stroke="#63b8ff" d="M572.97,-175.59C582.21,-157.19 603.58,-114.64 616.03,-89.85"/>
<polygon fill="#63b8ff" stroke="#63b8ff" points="619.01,-91.72 620.37,-81.22 612.75,-88.58 619.01,-91.72"/>
</g>
<!-- Node12 -->
<g id="node12" class="node">
<title>Node12</title>
<g id="a_node12"><a xlink:title=" ">
<polygon fill="#e0e0e0" stroke="#999999" points="1308.5,-19 1254.5,-19 1254.5,0 1308.5,0 1308.5,-19"/>
<text text-anchor="middle" x="1281.5" y="-7" font-family="Helvetica,sans-Serif" font-size="10.00">iostream</text>
</a>
</g>
</g>
<!-- Node11&#45;&gt;Node12 -->
<g id="edge14" class="edge">
<title>Node11&#45;&gt;Node12</title>
<path fill="none" stroke="#63b8ff" d="M681.3,-60.93C696.88,-58.83 713.83,-56.68 729.5,-55 921.85,-34.32 1152.85,-18.66 1242.91,-12.9"/>
<polygon fill="#63b8ff" stroke="#63b8ff" points="1242.9,-16.41 1252.66,-12.28 1242.46,-9.42 1242.9,-16.41"/>
</g>
<!-- Node13 -->
<g id="node13" class="node">
<title>Node13</title>
<g id="a_node13"><a xlink:title=" ">
<polygon fill="#e0e0e0" stroke="#999999" points="730,-19 679,-19 679,0 730,0 730,-19"/>
<text text-anchor="middle" x="704.5" y="-7" font-family="Helvetica,sans-Serif" font-size="10.00">memory</text>
</a>
</g>
</g>
<!-- Node11&#45;&gt;Node13 -->
<g id="edge15" class="edge">
<title>Node11&#45;&gt;Node13</title>
<path fill="none" stroke="#63b8ff" d="M637.5,-60.12C649.68,-51.1 668.79,-36.95 683.48,-26.06"/>
<polygon fill="#63b8ff" stroke="#63b8ff" points="685.22,-29.13 691.17,-20.37 681.05,-23.51 685.22,-29.13"/>
</g>
<!-- Node14 -->
<g id="node14" class="node">
<title>Node14</title>
<g id="a_node14"><a xlink:title=" ">
<polygon fill="#e0e0e0" stroke="#999999" points="592,-19 533,-19 533,0 592,0 592,-19"/>
<text text-anchor="middle" x="562.5" y="-7" font-family="Helvetica,sans-Serif" font-size="10.00">stdexcept</text>
</a>
</g>
</g>
<!-- Node11&#45;&gt;Node14 -->
<g id="edge16" class="edge">
<title>Node11&#45;&gt;Node14</title>
<path fill="none" stroke="#63b8ff" d="M615.93,-60.12C606.5,-51.35 591.85,-37.75 580.27,-27"/>
<polygon fill="#63b8ff" stroke="#63b8ff" points="582.98,-24.74 573.27,-20.5 578.21,-29.87 582.98,-24.74"/>
</g>
<!-- Node15 -->
<g id="node15" class="node">
<title>Node15</title>
<g id="a_node15"><a xlink:title=" ">
<polygon fill="#e0e0e0" stroke="#999999" points="651,-19 610,-19 610,0 651,0 651,-19"/>
<text text-anchor="middle" x="630.5" y="-7" font-family="Helvetica,sans-Serif" font-size="10.00">string</text>
</a>
</g>
</g>
<!-- Node11&#45;&gt;Node15 -->
<g id="edge17" class="edge">
<title>Node11&#45;&gt;Node15</title>
<path fill="none" stroke="#63b8ff" d="M626.24,-60.37C626.91,-52.5 627.93,-40.6 628.8,-30.39"/>
<polygon fill="#63b8ff" stroke="#63b8ff" points="632.27,-30.94 629.63,-20.68 625.29,-30.34 632.27,-30.94"/>
</g>
<!-- Node16 -->
<g id="node16" class="node">
<title>Node16</title>
<g id="a_node16"><a xlink:title=" ">
<polygon fill="#e0e0e0" stroke="#999999" points="1060.5,-19 994.5,-19 994.5,0 1060.5,0 1060.5,-19"/>
<text text-anchor="middle" x="1027.5" y="-7" font-family="Helvetica,sans-Serif" font-size="10.00">string_view</text>
</a>
</g>
</g>
<!-- Node11&#45;&gt;Node16 -->
<g id="edge18" class="edge">
<title>Node11&#45;&gt;Node16</title>
<path fill="none" stroke="#63b8ff" d="M681.4,-60.87C761.98,-49.14 909.19,-27.72 982.92,-16.99"/>
<polygon fill="#63b8ff" stroke="#63b8ff" points="983.22,-20.48 992.61,-15.58 982.21,-13.55 983.22,-20.48"/>
</g>
<!-- Node18 -->
<g id="node18" class="node">
<title>Node18</title>
<g id="a_node18"><a xlink:href="_axi_dma_8hpp.html" target="_top" xlink:title=" ">
<polygon fill="white" stroke="#666666" points="959.5,-195 891.5,-195 891.5,-176 959.5,-176 959.5,-195"/>
<text text-anchor="middle" x="925.5" y="-183" font-family="Helvetica,sans-Serif" font-size="10.00">AxiDma.hpp</text>
</a>
</g>
</g>
<!-- Node17&#45;&gt;Node18 -->
<g id="edge20" class="edge">
<title>Node17&#45;&gt;Node18</title>
<path fill="none" stroke="#63b8ff" d="M719.49,-291.03C746.46,-281.99 788.12,-266.97 822.5,-250 851.67,-235.6 883.23,-215.39 903.62,-201.67"/>
<polygon fill="#63b8ff" stroke="#63b8ff" points="905.39,-204.7 911.69,-196.18 901.45,-198.91 905.39,-204.7"/>
</g>
<!-- Node19 -->
<g id="node19" class="node">
<title>Node19</title>
<g id="a_node19"><a xlink:href="_reg_accessor_8hpp.html" target="_top" xlink:title=" ">
<polygon fill="white" stroke="#666666" points="813,-250 720,-250 720,-231 813,-231 813,-250"/>
<text text-anchor="middle" x="766.5" y="-238" font-family="Helvetica,sans-Serif" font-size="10.00">RegAccessor.hpp</text>
</a>
</g>
</g>
<!-- Node17&#45;&gt;Node19 -->
<g id="edge22" class="edge">
<title>Node17&#45;&gt;Node19</title>
<path fill="none" stroke="#63b8ff" d="M702.89,-291.12C714.34,-282.18 732.25,-268.22 746.15,-257.37"/>
<polygon fill="#63b8ff" stroke="#63b8ff" points="748.08,-260.31 753.81,-251.4 743.77,-254.79 748.08,-260.31"/>
</g>
<!-- Node20 -->
<g id="node20" class="node">
<title>Node20</title>
<g id="a_node20"><a xlink:href="_uio_if_8hpp.html" target="_top" xlink:title=" ">
<polygon fill="white" stroke="#666666" points="774.5,-195 684.5,-195 684.5,-176 774.5,-176 774.5,-195"/>
<text text-anchor="middle" x="729.5" y="-183" font-family="Helvetica,sans-Serif" font-size="10.00">udmaio/UioIf.hpp</text>
</a>
</g>
</g>
<!-- Node17&#45;&gt;Node20 -->
<g id="edge45" class="edge">
<title>Node17&#45;&gt;Node20</title>
<path fill="none" stroke="#63b8ff" d="M693.69,-291.41C697.1,-278.28 704.07,-252.45 711.5,-231 714.4,-222.63 717.99,-213.55 721.2,-205.78"/>
<polygon fill="#63b8ff" stroke="#63b8ff" points="724.39,-207.23 725.06,-196.66 717.94,-204.51 724.39,-207.23"/>
</g>
<!-- Node18&#45;&gt;Node10 -->
<g id="edge21" class="edge">
<title>Node18&#45;&gt;Node10</title>
<path fill="none" stroke="#63b8ff" d="M928.8,-175.75C931.33,-169.04 934.93,-159.52 938.13,-151.02"/>
<polygon fill="#63b8ff" stroke="#63b8ff" points="941.34,-152.45 941.59,-141.86 934.79,-149.98 941.34,-152.45"/>
</g>
<!-- Node19&#45;&gt;Node10 -->
<g id="edge23" class="edge">
<title>Node19&#45;&gt;Node10</title>
<path fill="none" stroke="#63b8ff" d="M781.15,-230.66C811.83,-212.15 883.12,-169.13 920.93,-146.32"/>
<polygon fill="#63b8ff" stroke="#63b8ff" points="922.6,-149.4 929.35,-141.24 918.98,-143.41 922.6,-149.4"/>
</g>
<!-- Node19&#45;&gt;Node20 -->
<g id="edge24" class="edge">
<title>Node19&#45;&gt;Node20</title>
<path fill="none" stroke="#63b8ff" d="M760.39,-230.75C755.49,-223.73 748.45,-213.64 742.33,-204.87"/>
<polygon fill="#63b8ff" stroke="#63b8ff" points="745.2,-202.88 736.61,-196.68 739.46,-206.89 745.2,-202.88"/>
</g>
<!-- Node21 -->
<g id="node21" class="node">
<title>Node21</title>
<g id="a_node21"><a xlink:href="_uio_if_base_8hpp.html" target="_top" xlink:title=" ">
<polygon fill="white" stroke="#666666" points="904,-140 791,-140 791,-121 904,-121 904,-140"/>
<text text-anchor="middle" x="847.5" y="-128" font-family="Helvetica,sans-Serif" font-size="10.00">udmaio/UioIfBase.hpp</text>
</a>
</g>
</g>
<!-- Node20&#45;&gt;Node21 -->
<g id="edge25" class="edge">
<title>Node20&#45;&gt;Node21</title>
<path fill="none" stroke="#63b8ff" d="M749.52,-175.51C768.11,-167.16 796.04,-154.61 817.33,-145.05"/>
<polygon fill="#63b8ff" stroke="#63b8ff" points="818.71,-148.27 826.4,-140.98 815.84,-141.88 818.71,-148.27"/>
</g>
<!-- Node21&#45;&gt;Node4 -->
<g id="edge31" class="edge">
<title>Node21&#45;&gt;Node4</title>
<path fill="none" stroke="#63b8ff" d="M790.71,-127.07C686.37,-122.18 457.24,-109.47 265.5,-85 258.69,-84.13 251.56,-83.07 244.51,-81.92"/>
<polygon fill="#63b8ff" stroke="#63b8ff" points="245.1,-78.47 234.65,-80.25 243.93,-85.37 245.1,-78.47"/>
</g>
<!-- Node21&#45;&gt;Node5 -->
<g id="edge36" class="edge">
<title>Node21&#45;&gt;Node5</title>
<path fill="none" stroke="#63b8ff" d="M790.68,-129.41C666.44,-128.47 361.56,-122.22 109.5,-85 104.62,-84.28 99.56,-83.35 94.53,-82.32"/>
<polygon fill="#63b8ff" stroke="#63b8ff" points="95.69,-78.99 85.17,-80.26 94.18,-85.83 95.69,-78.99"/>
</g>
<!-- Node21&#45;&gt;Node7 -->
<g id="edge32" class="edge">
<title>Node21&#45;&gt;Node7</title>
<path fill="none" stroke="#63b8ff" d="M790.59,-125.72C705.58,-119.64 540.54,-106.19 401.5,-85 395.98,-84.16 390.23,-83.16 384.52,-82.1"/>
<polygon fill="#63b8ff" stroke="#63b8ff" points="385.62,-78.75 375.13,-80.27 384.28,-85.62 385.62,-78.75"/>
</g>
<!-- Node21&#45;&gt;Node8 -->
<g id="edge35" class="edge">
<title>Node21&#45;&gt;Node8</title>
<path fill="none" stroke="#63b8ff" d="M790.74,-120.99C733,-112.26 640.95,-98.13 561.5,-85 555.5,-84.01 549.25,-82.95 543.01,-81.89"/>
<polygon fill="#63b8ff" stroke="#63b8ff" points="543.77,-78.47 533.32,-80.21 542.58,-85.36 543.77,-78.47"/>
</g>
<!-- Node21&#45;&gt;Node11 -->
<g id="edge42" class="edge">
<title>Node21&#45;&gt;Node11</title>
<path fill="none" stroke="#63b8ff" d="M813.78,-120.62C775.56,-110.54 713.07,-94.08 670.66,-82.9"/>
<polygon fill="#63b8ff" stroke="#63b8ff" points="671.56,-79.52 661,-80.35 669.78,-86.29 671.56,-79.52"/>
</g>
<!-- Node21&#45;&gt;Node12 -->
<g id="edge28" class="edge">
<title>Node21&#45;&gt;Node12</title>
<path fill="none" stroke="#63b8ff" d="M904.36,-121.96C907.45,-121.62 910.51,-121.3 913.5,-121 971.13,-115.3 1393.99,-127.34 1433.5,-85 1470.28,-45.58 1376.29,-24.4 1320.07,-15.56"/>
<polygon fill="#63b8ff" stroke="#63b8ff" points="1320.61,-12.1 1310.2,-14.08 1319.57,-19.03 1320.61,-12.1"/>
</g>
<!-- Node21&#45;&gt;Node13 -->
<g id="edge29" class="edge">
<title>Node21&#45;&gt;Node13</title>
<path fill="none" stroke="#63b8ff" d="M796.04,-120.54C773.01,-114.14 747.12,-103.29 729.5,-85 715.17,-70.13 709.04,-46.79 706.43,-30.2"/>
<polygon fill="#63b8ff" stroke="#63b8ff" points="709.94,-30.07 705.23,-20.58 703,-30.94 709.94,-30.07"/>
</g>
<!-- Node21&#45;&gt;Node16 -->
<g id="edge30" class="edge">
<title>Node21&#45;&gt;Node16</title>
<path fill="none" stroke="#63b8ff" d="M904.37,-122.1C907.46,-121.72 910.52,-121.35 913.5,-121 988.08,-112.2 1199.31,-140.86 1249.5,-85 1301.69,-26.92 1150.62,-14.06 1071.9,-11.25"/>
<polygon fill="#63b8ff" stroke="#63b8ff" points="1072.46,-7.77 1062.36,-10.95 1072.24,-14.76 1072.46,-7.77"/>
</g>
<!-- Node22 -->
<g id="node22" class="node">
<title>Node22</title>
<g id="a_node22"><a xlink:title=" ">
<polygon fill="#e0e0e0" stroke="#999999" points="1356.5,-79.5 1296.5,-79.5 1296.5,-60.5 1356.5,-60.5 1356.5,-79.5"/>
<text text-anchor="middle" x="1326.5" y="-67.5" font-family="Helvetica,sans-Serif" font-size="10.00">filesystem</text>
</a>
</g>
</g>
<!-- Node21&#45;&gt;Node22 -->
<g id="edge26" class="edge">
<title>Node21&#45;&gt;Node22</title>
<path fill="none" stroke="#63b8ff" d="M904.37,-122.06C907.46,-121.69 910.52,-121.34 913.5,-121 1077.23,-102.47 1121.09,-118.16 1282.5,-85 1285.15,-84.46 1287.87,-83.81 1290.58,-83.1"/>
<polygon fill="#63b8ff" stroke="#63b8ff" points="1291.52,-86.48 1300.16,-80.34 1289.58,-79.75 1291.52,-86.48"/>
</g>
<!-- Node23 -->
<g id="node23" class="node">
<title>Node23</title>
<g id="a_node23"><a xlink:title=" ">
<polygon fill="#e0e0e0" stroke="#999999" points="1424.5,-79.5 1374.5,-79.5 1374.5,-60.5 1424.5,-60.5 1424.5,-79.5"/>
<text text-anchor="middle" x="1399.5" y="-67.5" font-family="Helvetica,sans-Serif" font-size="10.00">fstream</text>
</a>
</g>
</g>
<!-- Node21&#45;&gt;Node23 -->
<g id="edge27" class="edge">
<title>Node21&#45;&gt;Node23</title>
<path fill="none" stroke="#63b8ff" d="M904.36,-122C907.45,-121.65 910.51,-121.31 913.5,-121 1113.94,-100.12 1169.52,-131.93 1365.5,-85 1367.09,-84.62 1368.7,-84.17 1370.32,-83.68"/>
<polygon fill="#63b8ff" stroke="#63b8ff" points="1371.13,-87.11 1379.36,-80.43 1368.77,-80.52 1371.13,-87.11"/>
</g>
<!-- Node24 -->
<g id="node24" class="node">
<title>Node24</title>
<g id="a_node24"><a xlink:title=" ">
<polygon fill="#e0e0e0" stroke="#999999" points="1610,-79.5 1481,-79.5 1481,-60.5 1610,-60.5 1610,-79.5"/>
<text text-anchor="middle" x="1545.5" y="-67.5" font-family="Helvetica,sans-Serif" font-size="10.00">boost/log/expressions.hpp</text>
</a>
</g>
</g>
<!-- Node21&#45;&gt;Node24 -->
<g id="edge33" class="edge">
<title>Node21&#45;&gt;Node24</title>
<path fill="none" stroke="#63b8ff" d="M904.36,-121.95C907.45,-121.61 910.51,-121.29 913.5,-121 1158.65,-97.26 1221.98,-114.53 1466.5,-85 1473.75,-84.12 1481.35,-83.02 1488.85,-81.82"/>
<polygon fill="#63b8ff" stroke="#63b8ff" points="1489.32,-85.29 1498.6,-80.18 1488.16,-78.38 1489.32,-85.29"/>
</g>
<!-- Node25 -->
<g id="node25" class="node">
<title>Node25</title>
<g id="a_node25"><a xlink:title=" ">
<polygon fill="#e0e0e0" stroke="#999999" points="1729,-85 1628,-85 1628,-55 1729,-55 1729,-85"/>
<text text-anchor="start" x="1636" y="-73" font-family="Helvetica,sans-Serif" font-size="10.00">boost/log/keywords</text>
<text text-anchor="middle" x="1678.5" y="-62" font-family="Helvetica,sans-Serif" font-size="10.00">/severity.hpp</text>
</a>
</g>
</g>
<!-- Node21&#45;&gt;Node25 -->
<g id="edge34" class="edge">
<title>Node21&#45;&gt;Node25</title>
<path fill="none" stroke="#63b8ff" d="M904.35,-121.9C907.44,-121.57 910.51,-121.27 913.5,-121 1222.76,-93.24 1306.52,-128.61 1616.64,-85.23"/>
<polygon fill="#63b8ff" stroke="#63b8ff" points="1616.85,-88.74 1626.27,-83.87 1615.87,-81.81 1616.85,-88.74"/>
</g>
<!-- Node26 -->
<g id="node26" class="node">
<title>Node26</title>
<g id="a_node26"><a xlink:title=" ">
<polygon fill="#e0e0e0" stroke="#999999" points="1790,-79.5 1747,-79.5 1747,-60.5 1790,-60.5 1790,-79.5"/>
<text text-anchor="middle" x="1768.5" y="-67.5" font-family="Helvetica,sans-Serif" font-size="10.00">fcntl.h</text>
</a>
</g>
</g>
<!-- Node21&#45;&gt;Node26 -->
<g id="edge37" class="edge">
<title>Node21&#45;&gt;Node26</title>
<path fill="none" stroke="#63b8ff" d="M904.35,-121.87C907.44,-121.55 910.51,-121.26 913.5,-121 1096.33,-105.27 1560.26,-128.64 1738.5,-85 1739.67,-84.71 1740.85,-84.38 1742.04,-84.01"/>
<polygon fill="#63b8ff" stroke="#63b8ff" points="1742.99,-87.39 1751.01,-80.47 1740.43,-80.88 1742.99,-87.39"/>
</g>
<!-- Node27 -->
<g id="node27" class="node">
<title>Node27</title>
<g id="a_node27"><a xlink:title=" ">
<polygon fill="#e0e0e0" stroke="#999999" points="1877,-79.5 1808,-79.5 1808,-60.5 1877,-60.5 1877,-79.5"/>
<text text-anchor="middle" x="1842.5" y="-67.5" font-family="Helvetica,sans-Serif" font-size="10.00">sys/mman.h</text>
</a>
</g>
</g>
<!-- Node21&#45;&gt;Node27 -->
<g id="edge38" class="edge">
<title>Node21&#45;&gt;Node27</title>
<path fill="none" stroke="#63b8ff" d="M904.35,-121.86C907.44,-121.54 910.51,-121.25 913.5,-121 1306.2,-87.8 1411.6,-154.66 1799.5,-85 1802.34,-84.49 1805.25,-83.84 1808.15,-83.1"/>
<polygon fill="#63b8ff" stroke="#63b8ff" points="1809.07,-86.47 1817.69,-80.31 1807.11,-79.75 1809.07,-86.47"/>
</g>
<!-- Node28 -->
<g id="node28" class="node">
<title>Node28</title>
<g id="a_node28"><a xlink:title=" ">
<polygon fill="#e0e0e0" stroke="#999999" points="797,-79.5 738,-79.5 738,-60.5 797,-60.5 797,-79.5"/>
<text text-anchor="middle" x="767.5" y="-67.5" font-family="Helvetica,sans-Serif" font-size="10.00">sys/stat.h</text>
</a>
</g>
</g>
<!-- Node21&#45;&gt;Node28 -->
<g id="edge39" class="edge">
<title>Node21&#45;&gt;Node28</title>
<path fill="none" stroke="#63b8ff" d="M835.35,-120.62C823.02,-111.6 803.67,-97.45 788.78,-86.56"/>
<polygon fill="#63b8ff" stroke="#63b8ff" points="791.12,-83.94 780.99,-80.86 786.99,-89.59 791.12,-83.94"/>
</g>
<!-- Node29 -->
<g id="node29" class="node">
<title>Node29</title>
<g id="a_node29"><a xlink:title=" ">
<polygon fill="#e0e0e0" stroke="#999999" points="880,-79.5 815,-79.5 815,-60.5 880,-60.5 880,-79.5"/>
<text text-anchor="middle" x="847.5" y="-67.5" font-family="Helvetica,sans-Serif" font-size="10.00">sys/types.h</text>
</a>
</g>
</g>
<!-- Node21&#45;&gt;Node29 -->
<g id="edge40" class="edge">
<title>Node21&#45;&gt;Node29</title>
<path fill="none" stroke="#63b8ff" d="M847.5,-120.87C847.5,-113 847.5,-101.1 847.5,-90.89"/>
<polygon fill="#63b8ff" stroke="#63b8ff" points="851,-91.18 847.5,-81.18 844,-91.18 851,-91.18"/>
</g>
<!-- Node30 -->
<g id="node30" class="node">
<title>Node30</title>
<g id="a_node30"><a xlink:title=" ">
<polygon fill="#e0e0e0" stroke="#999999" points="948.5,-79.5 898.5,-79.5 898.5,-60.5 948.5,-60.5 948.5,-79.5"/>
<text text-anchor="middle" x="923.5" y="-67.5" font-family="Helvetica,sans-Serif" font-size="10.00">unistd.h</text>
</a>
</g>
</g>
<!-- Node21&#45;&gt;Node30 -->
<g id="edge41" class="edge">
<title>Node21&#45;&gt;Node30</title>
<path fill="none" stroke="#63b8ff" d="M859.04,-120.62C870.65,-111.68 888.79,-97.72 902.88,-86.87"/>
<polygon fill="#63b8ff" stroke="#63b8ff" points="904.86,-89.76 910.65,-80.89 900.59,-84.22 904.86,-89.76"/>
</g>
<!-- Node31 -->
<g id="node31" class="node">
<title>Node31</title>
<g id="a_node31"><a xlink:title=" ">
<polygon fill="#e0e0e0" stroke="#999999" points="1090.5,-85 966.5,-85 966.5,-55 1090.5,-55 1090.5,-85"/>
<text text-anchor="start" x="974.5" y="-73" font-family="Helvetica,sans-Serif" font-size="10.00">boost/log/sources/record</text>
<text text-anchor="middle" x="1028.5" y="-62" font-family="Helvetica,sans-Serif" font-size="10.00">_ostream.hpp</text>
</a>
</g>
</g>
<!-- Node21&#45;&gt;Node31 -->
<g id="edge43" class="edge">
<title>Node21&#45;&gt;Node31</title>
<path fill="none" stroke="#63b8ff" d="M874.99,-120.62C900.93,-112.23 940.59,-99.41 973.1,-88.9"/>
<polygon fill="#63b8ff" stroke="#63b8ff" points="973.94,-92.31 982.38,-85.91 971.79,-85.65 973.94,-92.31"/>
</g>
<!-- Node32 -->
<g id="node32" class="node">
<title>Node32</title>
<g id="a_node32"><a xlink:title=" ">
<polygon fill="#e0e0e0" stroke="#999999" points="1240,-85 1109,-85 1109,-55 1240,-55 1240,-85"/>
<text text-anchor="start" x="1117" y="-73" font-family="Helvetica,sans-Serif" font-size="10.00">boost/log/sources/severity</text>
<text text-anchor="middle" x="1174.5" y="-62" font-family="Helvetica,sans-Serif" font-size="10.00">_logger.hpp</text>
</a>
</g>
</g>
<!-- Node21&#45;&gt;Node32 -->
<g id="edge44" class="edge">
<title>Node21&#45;&gt;Node32</title>
<path fill="none" stroke="#63b8ff" d="M899.17,-120.53C947.74,-112.06 1022.77,-98.89 1097.62,-85.33"/>
<polygon fill="#63b8ff" stroke="#63b8ff" points="1097.95,-88.83 1107.17,-83.6 1096.7,-81.94 1097.95,-88.83"/>
</g>
<!-- Node33&#45;&gt;Node9 -->
<g id="edge47" class="edge">
<title>Node33&#45;&gt;Node9</title>
<path fill="none" stroke="#63b8ff" d="M568.5,-230.75C568.5,-224.27 568.5,-215.16 568.5,-206.9"/>
<polygon fill="#63b8ff" stroke="#63b8ff" points="572,-206.96 568.5,-196.96 565,-206.96 572,-206.96"/>
</g>
<!-- Node33&#45;&gt;Node20 -->
<g id="edge48" class="edge">
<title>Node33&#45;&gt;Node20</title>
<path fill="none" stroke="#63b8ff" d="M595.81,-230.51C622.14,-221.84 662.22,-208.65 691.63,-198.97"/>
<polygon fill="#63b8ff" stroke="#63b8ff" points="692.48,-202.37 700.89,-195.92 690.29,-195.72 692.48,-202.37"/>
</g>
</g>
</svg>
        <g id="navigator" transform="translate(0 0)" fill="#404254">
                <rect fill="#f2f5e9" fill-opacity="0.5" stroke="#606060" stroke-width=".5" x="0" y="0" width="60" height="60"/>
                <use id="zoomplus" xlink:href="#zoomPlus" x="17" y="9" onmousedown="handleZoom(evt,'in')"/>
                <use id="zoomminus" xlink:href="#zoomMin" x="42" y="9" onmousedown="handleZoom(evt,'out')"/>
                <use id="reset" xlink:href="#resetDef" x="30" y="36" onmousedown="handleReset()"/>
                <g id="arrowUp" xlink:href="#dirArrow" transform="translate(30 24)" onmousedown="handlePan(0,-1)">
                  <use xlink:href="#rim" fill="#404040">
                        <set attributeName="fill" to="#808080" begin="arrowUp.mouseover" end="arrowUp.mouseout"/>
                  </use>
                  <path fill="none" stroke="white" stroke-width="1.5" d="M0,-3.0v7 M-2.5,-0.5L0,-3.0L2.5,-0.5"/>
                </g>
                <g id="arrowRight" xlink:href="#dirArrow" transform="rotate(90) translate(36 -43)" onmousedown="handlePan(1,0)">
                  <use xlink:href="#rim" fill="#404040">
                        <set attributeName="fill" to="#808080" begin="arrowRight.mouseover" end="arrowRight.mouseout"/>
                  </use>
                  <path fill="none" stroke="white" stroke-width="1.5" d="M0,-3.0v7 M-2.5,-0.5L0,-3.0L2.5,-0.5"/>
                </g>
                <g id="arrowDown" xlink:href="#dirArrow" transform="rotate(180) translate(-30 -48)" onmousedown="handlePan(0,1)">
                  <use xlink:href="#rim" fill="#404040">
                        <set attributeName="fill" to="#808080" begin="arrowDown.mouseover" end="arrowDown.mouseout"/>
                  </use>
                  <path fill="none" stroke="white" stroke-width="1.5" d="M0,-3.0v7 M-2.5,-0.5L0,-3.0L2.5,-0.5"/>
                </g>
                <g id="arrowLeft" xlink:href="#dirArrow" transform="rotate(270) translate(-36 17)" onmousedown="handlePan(-1,0)">
                  <use xlink:href="#rim" fill="#404040">
                        <set attributeName="fill" to="#808080" begin="arrowLeft.mouseover" end="arrowLeft.mouseout"/>
                  </use>
                  <path fill="none" stroke="white" stroke-width="1.5" d="M0,-3.0v7 M-2.5,-0.5L0,-3.0L2.5,-0.5"/>
                </g>
        </g>
        <svg viewBox="0 0 15 15" width="100%" height="30px" preserveAspectRatio="xMaxYMin meet">
         <g id="arrow_out" transform="scale(0.3 0.3)">
          <a xlink:href="_data_handler_abstract_8hpp__incl_org.svg" target="_base">
           <rect id="button" ry="5" rx="5" y="6" x="6" height="38" width="38"
                fill="#f2f5e9" fill-opacity="0.5" stroke="#606060" stroke-width="1.0"/>
           <path id="arrow"
             d="M 11.500037,31.436501 C 11.940474,20.09759 22.043105,11.32322 32.158766,21.979434 L 37.068811,17.246167 C 37.068811,17.246167 37.088388,32 37.088388,32 L 22.160133,31.978069 C 22.160133,31.978069 26.997745,27.140456 26.997745,27.140456 C 18.528582,18.264221 13.291696,25.230495 11.500037,31.436501 z"
             style="fill:#404040;"/>
          </a>
         </g>
        </svg>
</svg>
