<?xml version="1.0" encoding="UTF-8" standalone="no"?>
<!DOCTYPE svg PUBLIC "-//W3C//DTD SVG 1.1//EN"
 "http://www.w3.org/Graphics/SVG/1.1/DTD/svg11.dtd">
<!-- Generated by graphviz version 7.0.5 (20221223.1930)
 -->
<!-- Title: DataHandlerPrint.hpp Pages: 1 -->
<!--zoomable 434 -->
<svg id="main" version="1.1" xmlns="http://www.w3.org/2000/svg" xmlns:xlink="http://www.w3.org/1999/xlink" xml:space="preserve" onload="init(evt)">
<style type="text/css"><![CDATA[
.edge:hover path { stroke: red; }
.edge:hover polygon { stroke: red; fill: red; }
]]></style>
<script type="text/javascript"><![CDATA[
var edges = document.getElementsByTagName('g');
if (edges && edges.length) {
  for (var i=0;i<edges.length;i++) {
    if (edges[i].id.substr(0,4)=='edge') {
      edges[i].setAttribute('class','edge');
    }
  }
}
]]></script>
        <defs>
                <circle id="rim" cx="0" cy="0" r="7"/>
                <circle id="rim2" cx="0" cy="0" r="3.5"/>
                <g id="zoomPlus">
                        <use xlink:href="#rim" fill="#404040">
                                <set attributeName="fill" to="#808080" begin="zoomplus.mouseover" end="zoomplus.mouseout"/>
                        </use>
                        <path d="M-4,0h8M0,-4v8" fill="none" stroke="white" stroke-width="1.5" pointer-events="none"/>
                </g>
                <g id="zoomMin">
                        <use xlink:href="#rim" fill="#404040">
                                <set attributeName="fill" to="#808080" begin="zoomminus.mouseover" end="zoomminus.mouseout"/>
                        </use>
                        <path d="M-4,0h8" fill="none" stroke="white" stroke-width="1.5" pointer-events="none"/>
                </g>
                <g id="dirArrow">
                        <path fill="none" stroke="white" stroke-width="1.5" d="M0,-3.0v7 M-2.5,-0.5L0,-3.0L2.5,-0.5"/>
                </g>
               <g id="resetDef">
                       <use xlink:href="#rim2" fill="#404040">
                               <set attributeName="fill" to="#808080" begin="reset.mouseover" end="reset.mouseout"/>
                       </use>
               </g>
        </defs>

<script type="text/javascript">
var viewWidth = 1602;
var viewHeight = 434;
var sectionId = 'dynsection-0';
</script>
<script xlink:href="svgpan.js"/>
<svg id="graph" class="graph">
<g id="viewport">
<title>DataHandlerPrint.hpp</title>
<!-- Node1 -->
<g id="node1" class="node">
<title>Node1</title>
<g id="a_node1"><a xlink:title=" ">
<polygon fill="#999999" stroke="#666666" points="566.05,-426 457.05,-426 457.05,-407 566.05,-407 566.05,-426"/>
<text text-anchor="middle" x="511.55" y="-414" font-family="Helvetica,sans-Serif" font-size="10.00">DataHandlerPrint.hpp</text>
</a>
</g>
</g>
<!-- Node2 -->
<g id="node2" class="node">
<title>Node2</title>
<g id="a_node2"><a xlink:title=" ">
<polygon fill="#e0e0e0" stroke="#999999" points="449.55,-371 399.55,-371 399.55,-352 449.55,-352 449.55,-371"/>
<text text-anchor="middle" x="424.55" y="-359" font-family="Helvetica,sans-Serif" font-size="10.00">optional</text>
</a>
</g>
</g>
<!-- Node1&#45;&gt;Node2 -->
<g id="edge1" class="edge">
<title>Node1&#45;&gt;Node2</title>
<path fill="none" stroke="#63b8ff" d="M496.79,-406.51C483.59,-398.47 463.99,-386.53 448.54,-377.11"/>
<polygon fill="#63b8ff" stroke="#63b8ff" points="450.75,-374.36 440.39,-372.15 447.11,-380.34 450.75,-374.36"/>
</g>
<!-- Node3 -->
<g id="node3" class="node">
<title>Node3</title>
<g id="a_node3"><a xlink:title=" ">
<polygon fill="#e0e0e0" stroke="#999999" points="507.05,-371 468.05,-371 468.05,-352 507.05,-352 507.05,-371"/>
<text text-anchor="middle" x="487.55" y="-359" font-family="Helvetica,sans-Serif" font-size="10.00">utility</text>
</a>
</g>
</g>
<!-- Node1&#45;&gt;Node3 -->
<g id="edge2" class="edge">
<title>Node1&#45;&gt;Node3</title>
<path fill="none" stroke="#63b8ff" d="M507.59,-406.75C504.52,-399.96 500.14,-390.3 496.26,-381.73"/>
<polygon fill="#63b8ff" stroke="#63b8ff" points="499.54,-380.49 492.23,-372.82 493.16,-383.37 499.54,-380.49"/>
</g>
<!-- Node4 -->
<g id="node4" class="node">
<title>Node4</title>
<g id="a_node4"><a xlink:href="_axi_traffic_gen_lfsr_8hpp.html" target="_top" xlink:title=" ">
<polygon fill="white" stroke="#666666" points="505.55,-250 395.55,-250 395.55,-231 505.55,-231 505.55,-250"/>
<text text-anchor="middle" x="450.55" y="-238" font-family="Helvetica,sans-Serif" font-size="10.00">AxiTrafficGenLfsr.hpp</text>
</a>
</g>
</g>
<!-- Node1&#45;&gt;Node4 -->
<g id="edge3" class="edge">
<title>Node1&#45;&gt;Node4</title>
<path fill="none" stroke="#63b8ff" d="M513.88,-406.69C516.77,-394.26 520.72,-370.97 515.55,-352 505.8,-316.2 481.18,-280.16 465.2,-259.38"/>
<polygon fill="#63b8ff" stroke="#63b8ff" points="468.04,-257.33 459.09,-251.66 462.55,-261.67 468.04,-257.33"/>
</g>
<!-- Node6 -->
<g id="node6" class="node">
<title>Node6</title>
<g id="a_node6"><a xlink:href="_data_handler_abstract_8hpp.html" target="_top" xlink:title=" ">
<polygon fill="white" stroke="#666666" points="1081.55,-371 921.55,-371 921.55,-352 1081.55,-352 1081.55,-371"/>
<text text-anchor="middle" x="1001.55" y="-359" font-family="Helvetica,sans-Serif" font-size="10.00">udmaio/DataHandlerAbstract.hpp</text>
</a>
</g>
</g>
<!-- Node1&#45;&gt;Node6 -->
<g id="edge5" class="edge">
<title>Node1&#45;&gt;Node6</title>
<path fill="none" stroke="#63b8ff" d="M566.34,-409.57C649.54,-400.58 808.74,-383.36 909.8,-372.42"/>
<polygon fill="#63b8ff" stroke="#63b8ff" points="910.15,-375.91 919.72,-371.35 909.4,-368.95 910.15,-375.91"/>
</g>
<!-- Node5 -->
<g id="node5" class="node">
<title>Node5</title>
<g id="a_node5"><a xlink:title=" ">
<polygon fill="#e0e0e0" stroke="#999999" points="620.55,-195 574.55,-195 574.55,-176 620.55,-176 620.55,-195"/>
<text text-anchor="middle" x="597.55" y="-183" font-family="Helvetica,sans-Serif" font-size="10.00">cstdint</text>
</a>
</g>
</g>
<!-- Node4&#45;&gt;Node5 -->
<g id="edge4" class="edge">
<title>Node4&#45;&gt;Node5</title>
<path fill="none" stroke="#63b8ff" d="M475.49,-230.51C499.82,-221.74 537.01,-208.33 563.95,-198.62"/>
<polygon fill="#63b8ff" stroke="#63b8ff" points="564.79,-202.03 573.01,-195.35 562.42,-195.45 564.79,-202.03"/>
</g>
<!-- Node7 -->
<g id="node7" class="node">
<title>Node7</title>
<g id="a_node7"><a xlink:title=" ">
<polygon fill="#e0e0e0" stroke="#999999" points="667.05,-24.5 626.05,-24.5 626.05,-5.5 667.05,-5.5 667.05,-24.5"/>
<text text-anchor="middle" x="646.55" y="-12.5" font-family="Helvetica,sans-Serif" font-size="10.00">string</text>
</a>
</g>
</g>
<!-- Node6&#45;&gt;Node7 -->
<g id="edge6" class="edge">
<title>Node6&#45;&gt;Node7</title>
<path fill="none" stroke="#63b8ff" d="M1004.08,-351.7C1014.88,-312.04 1053.05,-148.24 972.55,-66 926.2,-18.65 740.26,-48.24 676.55,-30 675.59,-29.72 674.61,-29.42 673.63,-29.09"/>
<polygon fill="#63b8ff" stroke="#63b8ff" points="675.32,-26 664.73,-25.52 672.71,-32.49 675.32,-26"/>
</g>
<!-- Node8 -->
<g id="node8" class="node">
<title>Node8</title>
<g id="a_node8"><a xlink:title=" ">
<polygon fill="#e0e0e0" stroke="#999999" points="925.55,-195 881.55,-195 881.55,-176 925.55,-176 925.55,-195"/>
<text text-anchor="middle" x="903.55" y="-183" font-family="Helvetica,sans-Serif" font-size="10.00">vector</text>
</a>
</g>
</g>
<!-- Node6&#45;&gt;Node8 -->
<g id="edge7" class="edge">
<title>Node6&#45;&gt;Node8</title>
<path fill="none" stroke="#63b8ff" d="M1081.79,-358.61C1153.54,-355.02 1251.04,-344.82 1275.55,-316 1284.19,-305.84 1283.67,-296.58 1275.55,-286 1233.89,-231.73 1021.04,-200.63 937.38,-190.35"/>
<polygon fill="#63b8ff" stroke="#63b8ff" points="937.86,-186.88 927.51,-189.16 937.02,-193.83 937.86,-186.88"/>
</g>
<!-- Node9 -->
<g id="node9" class="node">
<title>Node9</title>
<g id="a_node9"><a xlink:title=" ">
<polygon fill="#e0e0e0" stroke="#999999" points="1128.55,-310.5 1048.55,-310.5 1048.55,-291.5 1128.55,-291.5 1128.55,-310.5"/>
<text text-anchor="middle" x="1088.55" y="-298.5" font-family="Helvetica,sans-Serif" font-size="10.00">boost/asio.hpp</text>
</a>
</g>
</g>
<!-- Node6&#45;&gt;Node9 -->
<g id="edge8" class="edge">
<title>Node6&#45;&gt;Node9</title>
<path fill="none" stroke="#63b8ff" d="M1014.77,-351.62C1028.31,-342.51 1049.62,-328.18 1065.87,-317.25"/>
<polygon fill="#63b8ff" stroke="#63b8ff" points="1067.61,-320.3 1073.96,-311.81 1063.71,-314.49 1067.61,-320.3"/>
</g>
<!-- Node10 -->
<g id="node10" class="node">
<title>Node10</title>
<g id="a_node10"><a xlink:title=" ">
<polygon fill="#e0e0e0" stroke="#999999" points="963.05,-85 826.05,-85 826.05,-66 963.05,-66 963.05,-85"/>
<text text-anchor="middle" x="894.55" y="-73" font-family="Helvetica,sans-Serif" font-size="10.00">boost/core/noncopyable.hpp</text>
</a>
</g>
</g>
<!-- Node6&#45;&gt;Node10 -->
<g id="edge9" class="edge">
<title>Node6&#45;&gt;Node10</title>
<path fill="none" stroke="#63b8ff" d="M998.45,-351.63C989.1,-324.95 960.24,-243.16 934.55,-176 923.82,-147.93 910.72,-115.7 902.5,-95.72"/>
<polygon fill="#63b8ff" stroke="#63b8ff" points="905.81,-94.55 898.76,-86.64 899.34,-97.22 905.81,-94.55"/>
</g>
<!-- Node11 -->
<g id="node11" class="node">
<title>Node11</title>
<g id="a_node11"><a xlink:href="_logging_8hpp.html" target="_top" xlink:title=" ">
<polygon fill="white" stroke="#666666" points="1096.05,-85 1027.05,-85 1027.05,-66 1096.05,-66 1096.05,-85"/>
<text text-anchor="middle" x="1061.55" y="-73" font-family="Helvetica,sans-Serif" font-size="10.00">Logging.hpp</text>
</a>
</g>
</g>
<!-- Node6&#45;&gt;Node11 -->
<g id="edge10" class="edge">
<title>Node6&#45;&gt;Node11</title>
<path fill="none" stroke="#63b8ff" d="M1081.99,-356.19C1156.13,-350.82 1259.52,-339.33 1292.55,-316 1323.25,-294.32 1332.55,-279.08 1332.55,-241.5 1332.55,-241.5 1332.55,-241.5 1332.55,-184.5 1332.55,-136.59 1184.54,-100.51 1107.28,-84.94"/>
<polygon fill="#63b8ff" stroke="#63b8ff" points="1108.4,-81.59 1097.91,-83.08 1107.04,-88.46 1108.4,-81.59"/>
</g>
<!-- Node19 -->
<g id="node19" class="node">
<title>Node19</title>
<g id="a_node19"><a xlink:href="_u_dma_buf_8hpp.html" target="_top" xlink:title=" ">
<polygon fill="white" stroke="#666666" points="954.05,-310.5 877.05,-310.5 877.05,-291.5 954.05,-291.5 954.05,-310.5"/>
<text text-anchor="middle" x="915.55" y="-298.5" font-family="Helvetica,sans-Serif" font-size="10.00">UDmaBuf.hpp</text>
</a>
</g>
</g>
<!-- Node6&#45;&gt;Node19 -->
<g id="edge19" class="edge">
<title>Node6&#45;&gt;Node19</title>
<path fill="none" stroke="#63b8ff" d="M988.49,-351.62C975.11,-342.51 954.04,-328.18 937.98,-317.25"/>
<polygon fill="#63b8ff" stroke="#63b8ff" points="940.23,-314.55 929.99,-311.82 936.29,-320.34 940.23,-314.55"/>
</g>
<!-- Node26 -->
<g id="node26" class="node">
<title>Node26</title>
<g id="a_node26"><a xlink:href="_uio_axi_dma_if_8hpp.html" target="_top" xlink:title=" ">
<polygon fill="white" stroke="#666666" points="676.05,-310.5 587.05,-310.5 587.05,-291.5 676.05,-291.5 676.05,-310.5"/>
<text text-anchor="middle" x="631.55" y="-298.5" font-family="Helvetica,sans-Serif" font-size="10.00">UioAxiDmaIf.hpp</text>
</a>
</g>
</g>
<!-- Node6&#45;&gt;Node26 -->
<g id="edge31" class="edge">
<title>Node6&#45;&gt;Node26</title>
<path fill="none" stroke="#63b8ff" d="M944.96,-351.55C875.15,-340.52 757.23,-321.87 687.66,-310.87"/>
<polygon fill="#63b8ff" stroke="#63b8ff" points="688.42,-307.45 678,-309.34 687.33,-314.36 688.42,-307.45"/>
</g>
<!-- Node38 -->
<g id="node38" class="node">
<title>Node38</title>
<g id="a_node38"><a xlink:href="_uio_mem_sgdma_8hpp.html" target="_top" xlink:title=" ">
<polygon fill="white" stroke="#666666" points="858.55,-310.5 756.55,-310.5 756.55,-291.5 858.55,-291.5 858.55,-310.5"/>
<text text-anchor="middle" x="807.55" y="-298.5" font-family="Helvetica,sans-Serif" font-size="10.00">UioMemSgdma.hpp</text>
</a>
</g>
</g>
<!-- Node6&#45;&gt;Node38 -->
<g id="edge65" class="edge">
<title>Node6&#45;&gt;Node38</title>
<path fill="none" stroke="#63b8ff" d="M972.09,-351.62C939.04,-341.65 885.24,-325.43 848.21,-314.26"/>
<polygon fill="#63b8ff" stroke="#63b8ff" points="849.33,-310.94 838.74,-311.41 847.31,-317.64 849.33,-310.94"/>
</g>
<!-- Node39 -->
<g id="node39" class="node">
<title>Node39</title>
<g id="a_node39"><a xlink:title=" ">
<polygon fill="#e0e0e0" stroke="#999999" points="1266.55,-316 1146.55,-316 1146.55,-286 1266.55,-286 1266.55,-316"/>
<text text-anchor="start" x="1154.55" y="-304" font-family="Helvetica,sans-Serif" font-size="10.00">boost/asio/posix/stream</text>
<text text-anchor="middle" x="1206.55" y="-293" font-family="Helvetica,sans-Serif" font-size="10.00">_descriptor.hpp</text>
</a>
</g>
</g>
<!-- Node6&#45;&gt;Node39 -->
<g id="edge68" class="edge">
<title>Node6&#45;&gt;Node39</title>
<path fill="none" stroke="#63b8ff" d="M1032.69,-351.62C1062.46,-343.12 1108.17,-330.08 1145.25,-319.49"/>
<polygon fill="#63b8ff" stroke="#63b8ff" points="1145.84,-322.96 1154.5,-316.85 1143.92,-316.23 1145.84,-322.96"/>
</g>
<!-- Node11&#45;&gt;Node7 -->
<g id="edge11" class="edge">
<title>Node11&#45;&gt;Node7</title>
<path fill="none" stroke="#63b8ff" d="M1026.63,-68.97C1019.66,-67.93 1012.38,-66.89 1005.55,-66 859.7,-46.96 818.21,-69.63 676.55,-30 675.58,-29.73 674.61,-29.43 673.63,-29.11"/>
<polygon fill="#63b8ff" stroke="#63b8ff" points="675.31,-26.01 664.72,-25.56 672.72,-32.51 675.31,-26.01"/>
</g>
<!-- Node12 -->
<g id="node12" class="node">
<title>Node12</title>
<g id="a_node12"><a xlink:title=" ">
<polygon fill="#e0e0e0" stroke="#999999" points="1327.55,-24.5 1231.55,-24.5 1231.55,-5.5 1327.55,-5.5 1327.55,-24.5"/>
<text text-anchor="middle" x="1279.55" y="-12.5" font-family="Helvetica,sans-Serif" font-size="10.00">boost/log/core.hpp</text>
</a>
</g>
</g>
<!-- Node11&#45;&gt;Node12 -->
<g id="edge12" class="edge">
<title>Node11&#45;&gt;Node12</title>
<path fill="none" stroke="#63b8ff" d="M1094.66,-65.62C1132.2,-55.54 1193.56,-39.08 1235.21,-27.9"/>
<polygon fill="#63b8ff" stroke="#63b8ff" points="1235.92,-31.33 1244.67,-25.36 1234.1,-24.57 1235.92,-31.33"/>
</g>
<!-- Node13 -->
<g id="node13" class="node">
<title>Node13</title>
<g id="a_node13"><a xlink:title=" ">
<polygon fill="#e0e0e0" stroke="#999999" points="1475.05,-24.5 1346.05,-24.5 1346.05,-5.5 1475.05,-5.5 1475.05,-24.5"/>
<text text-anchor="middle" x="1410.55" y="-12.5" font-family="Helvetica,sans-Serif" font-size="10.00">boost/log/expressions.hpp</text>
</a>
</g>
</g>
<!-- Node11&#45;&gt;Node13 -->
<g id="edge13" class="edge">
<title>Node11&#45;&gt;Node13</title>
<path fill="none" stroke="#63b8ff" d="M1096.33,-69.18C1148.56,-61.11 1250.33,-45.13 1336.55,-30 1342.05,-29.04 1347.76,-28 1353.48,-26.96"/>
<polygon fill="#63b8ff" stroke="#63b8ff" points="1353.72,-30.47 1362.91,-25.2 1352.44,-23.59 1353.72,-30.47"/>
</g>
<!-- Node14 -->
<g id="node14" class="node">
<title>Node14</title>
<g id="a_node14"><a xlink:title=" ">
<polygon fill="#e0e0e0" stroke="#999999" points="1594.05,-24.5 1493.05,-24.5 1493.05,-5.5 1594.05,-5.5 1594.05,-24.5"/>
<text text-anchor="middle" x="1543.55" y="-12.5" font-family="Helvetica,sans-Serif" font-size="10.00">boost/log/trivial.hpp</text>
</a>
</g>
</g>
<!-- Node11&#45;&gt;Node14 -->
<g id="edge14" class="edge">
<title>Node11&#45;&gt;Node14</title>
<path fill="none" stroke="#63b8ff" d="M1096.3,-72.36C1168.84,-67.56 1341.52,-54.39 1484.55,-30 1488.92,-29.25 1493.45,-28.38 1497.97,-27.43"/>
<polygon fill="#63b8ff" stroke="#63b8ff" points="1498.59,-30.87 1507.6,-25.29 1497.08,-24.04 1498.59,-30.87"/>
</g>
<!-- Node15 -->
<g id="node15" class="node">
<title>Node15</title>
<g id="a_node15"><a xlink:title=" ">
<polygon fill="#e0e0e0" stroke="#999999" points="794.05,-30 685.05,-30 685.05,0 794.05,0 794.05,-30"/>
<text text-anchor="start" x="693.05" y="-18" font-family="Helvetica,sans-Serif" font-size="10.00">boost/log/utility/setup</text>
<text text-anchor="middle" x="739.55" y="-7" font-family="Helvetica,sans-Serif" font-size="10.00">/console.hpp</text>
</a>
</g>
</g>
<!-- Node11&#45;&gt;Node15 -->
<g id="edge15" class="edge">
<title>Node11&#45;&gt;Node15</title>
<path fill="none" stroke="#63b8ff" d="M1026.83,-69.01C979.28,-61.39 891,-46.86 805.55,-30.33"/>
<polygon fill="#63b8ff" stroke="#63b8ff" points="806.3,-26.92 795.82,-28.44 804.96,-33.79 806.3,-26.92"/>
</g>
<!-- Node16 -->
<g id="node16" class="node">
<title>Node16</title>
<g id="a_node16"><a xlink:title=" ">
<polygon fill="#e0e0e0" stroke="#999999" points="943.05,-30 812.05,-30 812.05,0 943.05,0 943.05,-30"/>
<text text-anchor="start" x="820.05" y="-18" font-family="Helvetica,sans-Serif" font-size="10.00">boost/log/sources/severity</text>
<text text-anchor="middle" x="877.55" y="-7" font-family="Helvetica,sans-Serif" font-size="10.00">_channel_logger.hpp</text>
</a>
</g>
</g>
<!-- Node11&#45;&gt;Node16 -->
<g id="edge16" class="edge">
<title>Node11&#45;&gt;Node16</title>
<path fill="none" stroke="#63b8ff" d="M1033.61,-65.62C1007.23,-57.23 966.92,-44.41 933.87,-33.9"/>
<polygon fill="#63b8ff" stroke="#63b8ff" points="935,-30.59 924.41,-30.9 932.88,-37.26 935,-30.59"/>
</g>
<!-- Node17 -->
<g id="node17" class="node">
<title>Node17</title>
<g id="a_node17"><a xlink:title=" ">
<polygon fill="#e0e0e0" stroke="#999999" points="1074.05,-30 961.05,-30 961.05,0 1074.05,0 1074.05,-30"/>
<text text-anchor="start" x="969.05" y="-18" font-family="Helvetica,sans-Serif" font-size="10.00">boost/log/support/date</text>
<text text-anchor="middle" x="1017.55" y="-7" font-family="Helvetica,sans-Serif" font-size="10.00">_time.hpp</text>
</a>
</g>
</g>
<!-- Node11&#45;&gt;Node17 -->
<g id="edge17" class="edge">
<title>Node11&#45;&gt;Node17</title>
<path fill="none" stroke="#63b8ff" d="M1055.06,-65.87C1049.75,-58.81 1042,-48.5 1034.91,-39.08"/>
<polygon fill="#63b8ff" stroke="#63b8ff" points="1037.89,-37.21 1029.08,-31.32 1032.29,-41.42 1037.89,-37.21"/>
</g>
<!-- Node18 -->
<g id="node18" class="node">
<title>Node18</title>
<g id="a_node18"><a xlink:title=" ">
<polygon fill="#e0e0e0" stroke="#999999" points="1213.05,-30 1092.05,-30 1092.05,0 1213.05,0 1213.05,-30"/>
<text text-anchor="start" x="1100.05" y="-18" font-family="Helvetica,sans-Serif" font-size="10.00">boost/log/utility/setup</text>
<text text-anchor="middle" x="1152.55" y="-7" font-family="Helvetica,sans-Serif" font-size="10.00">/common_attributes.hpp</text>
</a>
</g>
</g>
<!-- Node11&#45;&gt;Node18 -->
<g id="edge18" class="edge">
<title>Node11&#45;&gt;Node18</title>
<path fill="none" stroke="#63b8ff" d="M1075.37,-65.62C1087.4,-57.89 1105.28,-46.39 1120.8,-36.41"/>
<polygon fill="#63b8ff" stroke="#63b8ff" points="1122.3,-39.61 1128.82,-31.26 1118.51,-33.72 1122.3,-39.61"/>
</g>
<!-- Node19&#45;&gt;Node11 -->
<g id="edge30" class="edge">
<title>Node19&#45;&gt;Node11</title>
<path fill="none" stroke="#63b8ff" d="M921.28,-291.24C942.85,-258.21 1019.54,-140.82 1049.47,-95"/>
<polygon fill="#63b8ff" stroke="#63b8ff" points="1052.34,-97 1054.88,-86.71 1046.48,-93.17 1052.34,-97"/>
</g>
<!-- Node20 -->
<g id="node20" class="node">
<title>Node20</title>
<g id="a_node20"><a xlink:href="_dma_buffer_abstract_8hpp.html" target="_top" xlink:title=" ">
<polygon fill="white" stroke="#666666" points="887.05,-250 770.05,-250 770.05,-231 887.05,-231 887.05,-250"/>
<text text-anchor="middle" x="828.55" y="-238" font-family="Helvetica,sans-Serif" font-size="10.00">DmaBufferAbstract.hpp</text>
</a>
</g>
</g>
<!-- Node19&#45;&gt;Node20 -->
<g id="edge20" class="edge">
<title>Node19&#45;&gt;Node20</title>
<path fill="none" stroke="#63b8ff" d="M902.34,-291.12C888.8,-282.01 867.48,-267.68 851.24,-256.75"/>
<polygon fill="#63b8ff" stroke="#63b8ff" points="853.4,-253.99 843.15,-251.31 849.49,-259.8 853.4,-253.99"/>
</g>
<!-- Node20&#45;&gt;Node5 -->
<g id="edge21" class="edge">
<title>Node20&#45;&gt;Node5</title>
<path fill="none" stroke="#63b8ff" d="M789.37,-230.51C745.24,-220.39 674.23,-204.09 632.1,-194.43"/>
<polygon fill="#63b8ff" stroke="#63b8ff" points="633.04,-191.05 622.51,-192.23 631.47,-197.87 633.04,-191.05"/>
</g>
<!-- Node20&#45;&gt;Node8 -->
<g id="edge22" class="edge">
<title>Node20&#45;&gt;Node8</title>
<path fill="none" stroke="#63b8ff" d="M841.28,-230.51C852.33,-222.7 868.59,-211.21 881.72,-201.93"/>
<polygon fill="#63b8ff" stroke="#63b8ff" points="883.64,-204.86 889.78,-196.23 879.6,-199.14 883.64,-204.86"/>
</g>
<!-- Node20&#45;&gt;Node10 -->
<g id="edge23" class="edge">
<title>Node20&#45;&gt;Node10</title>
<path fill="none" stroke="#63b8ff" d="M832.1,-230.74C842.4,-205.31 872.45,-131.08 886.78,-95.69"/>
<polygon fill="#63b8ff" stroke="#63b8ff" points="889.91,-97.29 890.42,-86.71 883.42,-94.67 889.91,-97.29"/>
</g>
<!-- Node21 -->
<g id="node21" class="node">
<title>Node21</title>
<g id="a_node21"><a xlink:href="_uio_config_8hpp.html" target="_top" xlink:title=" ">
<polygon fill="white" stroke="#666666" points="501.05,-85 390.05,-85 390.05,-66 501.05,-66 501.05,-85"/>
<text text-anchor="middle" x="445.55" y="-73" font-family="Helvetica,sans-Serif" font-size="10.00">udmaio/UioConfig.hpp</text>
</a>
</g>
</g>
<!-- Node20&#45;&gt;Node21 -->
<g id="edge24" class="edge">
<title>Node20&#45;&gt;Node21</title>
<path fill="none" stroke="#63b8ff" d="M807.42,-230.5C743.59,-203.34 552.59,-122.05 476.92,-89.85"/>
<polygon fill="#63b8ff" stroke="#63b8ff" points="478.59,-86.76 468.02,-86.06 475.85,-93.2 478.59,-86.76"/>
</g>
<!-- Node21&#45;&gt;Node7 -->
<g id="edge28" class="edge">
<title>Node21&#45;&gt;Node7</title>
<path fill="none" stroke="#63b8ff" d="M476.08,-65.62C513.5,-54.72 576.62,-36.35 614.66,-25.28"/>
<polygon fill="#63b8ff" stroke="#63b8ff" points="615.52,-28.68 624.15,-22.52 613.57,-21.96 615.52,-28.68"/>
</g>
<!-- Node22 -->
<g id="node22" class="node">
<title>Node22</title>
<g id="a_node22"><a xlink:title=" ">
<polygon fill="#e0e0e0" stroke="#999999" points="390.55,-24.5 336.55,-24.5 336.55,-5.5 390.55,-5.5 390.55,-24.5"/>
<text text-anchor="middle" x="363.55" y="-12.5" font-family="Helvetica,sans-Serif" font-size="10.00">iostream</text>
</a>
</g>
</g>
<!-- Node21&#45;&gt;Node22 -->
<g id="edge25" class="edge">
<title>Node21&#45;&gt;Node22</title>
<path fill="none" stroke="#63b8ff" d="M433.1,-65.62C420.46,-56.6 400.62,-42.45 385.37,-31.56"/>
<polygon fill="#63b8ff" stroke="#63b8ff" points="387.53,-28.81 377.36,-25.85 383.46,-34.5 387.53,-28.81"/>
</g>
<!-- Node23 -->
<g id="node23" class="node">
<title>Node23</title>
<g id="a_node23"><a xlink:title=" ">
<polygon fill="#e0e0e0" stroke="#999999" points="318.05,-24.5 267.05,-24.5 267.05,-5.5 318.05,-5.5 318.05,-24.5"/>
<text text-anchor="middle" x="292.55" y="-12.5" font-family="Helvetica,sans-Serif" font-size="10.00">memory</text>
</a>
</g>
</g>
<!-- Node21&#45;&gt;Node23 -->
<g id="edge26" class="edge">
<title>Node21&#45;&gt;Node23</title>
<path fill="none" stroke="#63b8ff" d="M421.54,-65.6C397.66,-56.72 360,-42.61 327.55,-30 326.78,-29.7 325.99,-29.39 325.19,-29.08"/>
<polygon fill="#63b8ff" stroke="#63b8ff" points="326.74,-25.93 316.15,-25.51 324.17,-32.44 326.74,-25.93"/>
</g>
<!-- Node24 -->
<g id="node24" class="node">
<title>Node24</title>
<g id="a_node24"><a xlink:title=" ">
<polygon fill="#e0e0e0" stroke="#999999" points="472.05,-24.5 413.05,-24.5 413.05,-5.5 472.05,-5.5 472.05,-24.5"/>
<text text-anchor="middle" x="442.55" y="-12.5" font-family="Helvetica,sans-Serif" font-size="10.00">stdexcept</text>
</a>
</g>
</g>
<!-- Node21&#45;&gt;Node24 -->
<g id="edge27" class="edge">
<title>Node21&#45;&gt;Node24</title>
<path fill="none" stroke="#63b8ff" d="M445.11,-65.87C444.71,-58 444.1,-46.1 443.57,-35.89"/>
<polygon fill="#63b8ff" stroke="#63b8ff" points="447.08,-35.99 443.07,-26.18 440.09,-36.35 447.08,-35.99"/>
</g>
<!-- Node25 -->
<g id="node25" class="node">
<title>Node25</title>
<g id="a_node25"><a xlink:title=" ">
<polygon fill="#e0e0e0" stroke="#999999" points="556.55,-24.5 490.55,-24.5 490.55,-5.5 556.55,-5.5 556.55,-24.5"/>
<text text-anchor="middle" x="523.55" y="-12.5" font-family="Helvetica,sans-Serif" font-size="10.00">string_view</text>
</a>
</g>
</g>
<!-- Node21&#45;&gt;Node25 -->
<g id="edge29" class="edge">
<title>Node21&#45;&gt;Node25</title>
<path fill="none" stroke="#63b8ff" d="M457.4,-65.62C469.31,-56.68 487.93,-42.72 502.39,-31.87"/>
<polygon fill="#63b8ff" stroke="#63b8ff" points="504.48,-34.68 510.38,-25.88 500.28,-29.08 504.48,-34.68"/>
</g>
<!-- Node27 -->
<g id="node27" class="node">
<title>Node27</title>
<g id="a_node27"><a xlink:href="_reg_accessor_8hpp.html" target="_top" xlink:title=" ">
<polygon fill="white" stroke="#666666" points="617.05,-250 524.05,-250 524.05,-231 617.05,-231 617.05,-250"/>
<text text-anchor="middle" x="570.55" y="-238" font-family="Helvetica,sans-Serif" font-size="10.00">RegAccessor.hpp</text>
</a>
</g>
</g>
<!-- Node26&#45;&gt;Node27 -->
<g id="edge32" class="edge">
<title>Node26&#45;&gt;Node27</title>
<path fill="none" stroke="#63b8ff" d="M622.29,-291.12C613.24,-282.44 599.25,-269.02 588.09,-258.32"/>
<polygon fill="#63b8ff" stroke="#63b8ff" points="590.64,-255.91 581,-251.52 585.79,-260.96 590.64,-255.91"/>
</g>
<!-- Node28 -->
<g id="node28" class="node">
<title>Node28</title>
<g id="a_node28"><a xlink:href="_uio_if_8hpp.html" target="_top" xlink:title=" ">
<polygon fill="white" stroke="#666666" points="454.55,-195 364.55,-195 364.55,-176 454.55,-176 454.55,-195"/>
<text text-anchor="middle" x="409.55" y="-183" font-family="Helvetica,sans-Serif" font-size="10.00">udmaio/UioIf.hpp</text>
</a>
</g>
</g>
<!-- Node26&#45;&gt;Node28 -->
<g id="edge62" class="edge">
<title>Node26&#45;&gt;Node28</title>
<path fill="none" stroke="#63b8ff" d="M586.66,-297.44C522.97,-292.76 411.33,-280.35 386.55,-250 375.69,-236.7 384.79,-217.83 394.56,-204.12"/>
<polygon fill="#63b8ff" stroke="#63b8ff" points="397.19,-206.44 400.58,-196.4 391.67,-202.13 397.19,-206.44"/>
</g>
<!-- Node37 -->
<g id="node37" class="node">
<title>Node37</title>
<g id="a_node37"><a xlink:href="_axi_dma_8hpp.html" target="_top" xlink:title=" ">
<polygon fill="white" stroke="#666666" points="751.55,-250 635.55,-250 635.55,-231 751.55,-231 751.55,-250"/>
<text text-anchor="middle" x="693.55" y="-238" font-family="Helvetica,sans-Serif" font-size="10.00">udmaio/rdl/AxiDma.hpp</text>
</a>
</g>
</g>
<!-- Node26&#45;&gt;Node37 -->
<g id="edge63" class="edge">
<title>Node26&#45;&gt;Node37</title>
<path fill="none" stroke="#63b8ff" d="M640.97,-291.12C650.16,-282.44 664.39,-269.02 675.73,-258.32"/>
<polygon fill="#63b8ff" stroke="#63b8ff" points="678.08,-260.92 682.95,-251.51 673.27,-255.82 678.08,-260.92"/>
</g>
<!-- Node27&#45;&gt;Node5 -->
<g id="edge33" class="edge">
<title>Node27&#45;&gt;Node5</title>
<path fill="none" stroke="#63b8ff" d="M575.01,-230.75C578.51,-223.88 583.5,-214.08 587.9,-205.45"/>
<polygon fill="#63b8ff" stroke="#63b8ff" points="590.89,-207.29 592.31,-196.79 584.65,-204.11 590.89,-207.29"/>
</g>
<!-- Node27&#45;&gt;Node28 -->
<g id="edge34" class="edge">
<title>Node27&#45;&gt;Node28</title>
<path fill="none" stroke="#63b8ff" d="M543.24,-230.51C516.91,-221.84 476.84,-208.65 447.43,-198.97"/>
<polygon fill="#63b8ff" stroke="#63b8ff" points="448.76,-195.72 438.17,-195.92 446.57,-202.37 448.76,-195.72"/>
</g>
<!-- Node28&#45;&gt;Node7 -->
<g id="edge39" class="edge">
<title>Node28&#45;&gt;Node7</title>
<path fill="none" stroke="#63b8ff" d="M454.81,-179.22C544.56,-167.71 739.8,-137.11 778.55,-85 821.22,-27.62 775.51,-70.44 676.55,-30 676.07,-29.8 675.59,-29.61 675.11,-29.4"/>
<polygon fill="#63b8ff" stroke="#63b8ff" points="676.78,-26.31 666.22,-25.48 673.96,-32.72 676.78,-26.31"/>
</g>
<!-- Node28&#45;&gt;Node10 -->
<g id="edge40" class="edge">
<title>Node28&#45;&gt;Node10</title>
<path fill="none" stroke="#63b8ff" d="M454.71,-182.11C543.78,-176.95 738.88,-163.31 801.55,-140 830.31,-129.3 858.76,-107.86 876.47,-92.86"/>
<polygon fill="#63b8ff" stroke="#63b8ff" points="878.76,-95.51 884,-86.3 874.16,-90.23 878.76,-95.51"/>
</g>
<!-- Node28&#45;&gt;Node11 -->
<g id="edge60" class="edge">
<title>Node28&#45;&gt;Node11</title>
<path fill="none" stroke="#63b8ff" d="M454.99,-182.19C532.84,-177.69 696.53,-165.83 832.55,-140 901.12,-126.98 979.06,-103.44 1024.05,-88.97"/>
<polygon fill="#63b8ff" stroke="#63b8ff" points="1024.88,-92.38 1033.31,-85.96 1022.72,-85.72 1024.88,-92.38"/>
</g>
<!-- Node28&#45;&gt;Node21 -->
<g id="edge61" class="edge">
<title>Node28&#45;&gt;Node21</title>
<path fill="none" stroke="#63b8ff" d="M419.05,-175.65C427.25,-167.34 438.53,-154.11 443.55,-140 448.49,-126.13 448.82,-109.46 448.01,-96.68"/>
<polygon fill="#63b8ff" stroke="#63b8ff" points="451.52,-96.57 447.09,-86.95 444.55,-97.23 451.52,-96.57"/>
</g>
<!-- Node28&#45;&gt;Node22 -->
<g id="edge37" class="edge">
<title>Node28&#45;&gt;Node22</title>
<path fill="none" stroke="#63b8ff" d="M364.14,-180.63C268.06,-171.33 49.78,-144.01 10.55,-85 5.88,-77.97 4.93,-72.3 10.55,-66 57.62,-13.27 257.86,-46.63 326.55,-30 328.31,-29.58 330.09,-29.09 331.87,-28.56"/>
<polygon fill="#63b8ff" stroke="#63b8ff" points="332.91,-31.91 341.27,-25.4 330.68,-25.27 332.91,-31.91"/>
</g>
<!-- Node28&#45;&gt;Node23 -->
<g id="edge38" class="edge">
<title>Node28&#45;&gt;Node23</title>
<path fill="none" stroke="#63b8ff" d="M364.13,-182.19C282.4,-177.47 114.17,-164.97 61.55,-140 29.46,-124.77 17.58,-117.64 3.55,-85 0.22,-77.24 -1.89,-72.46 3.55,-66 35.33,-28.26 184.6,-19 255.28,-16.74"/>
<polygon fill="#63b8ff" stroke="#63b8ff" points="255.31,-20.24 265.2,-16.45 255.11,-13.24 255.31,-20.24"/>
</g>
<!-- Node29 -->
<g id="node29" class="node">
<title>Node29</title>
<g id="a_node29"><a xlink:title=" ">
<polygon fill="#e0e0e0" stroke="#999999" points="769.55,-85 709.55,-85 709.55,-66 769.55,-66 769.55,-85"/>
<text text-anchor="middle" x="739.55" y="-73" font-family="Helvetica,sans-Serif" font-size="10.00">filesystem</text>
</a>
</g>
</g>
<!-- Node28&#45;&gt;Node29 -->
<g id="edge35" class="edge">
<title>Node28&#45;&gt;Node29</title>
<path fill="none" stroke="#63b8ff" d="M439.2,-175.52C468.17,-166.68 513.49,-152.71 552.55,-140 605.23,-122.86 665.89,-102.07 703.48,-89.05"/>
<polygon fill="#63b8ff" stroke="#63b8ff" points="704.18,-92.52 712.48,-85.94 701.89,-85.9 704.18,-92.52"/>
</g>
<!-- Node30 -->
<g id="node30" class="node">
<title>Node30</title>
<g id="a_node30"><a xlink:title=" ">
<polygon fill="#e0e0e0" stroke="#999999" points="69.55,-85 19.55,-85 19.55,-66 69.55,-66 69.55,-85"/>
<text text-anchor="middle" x="44.55" y="-73" font-family="Helvetica,sans-Serif" font-size="10.00">fstream</text>
</a>
</g>
</g>
<!-- Node28&#45;&gt;Node30 -->
<g id="edge36" class="edge">
<title>Node28&#45;&gt;Node30</title>
<path fill="none" stroke="#63b8ff" d="M364.24,-177.69C320.47,-170.5 252.62,-157.75 195.55,-140 151.54,-126.31 102.72,-104.5 72.83,-90.34"/>
<polygon fill="#63b8ff" stroke="#63b8ff" points="74.62,-87.31 64.09,-86.15 71.59,-93.63 74.62,-87.31"/>
</g>
<!-- Node31 -->
<g id="node31" class="node">
<title>Node31</title>
<g id="a_node31"><a xlink:title=" ">
<polygon fill="#e0e0e0" stroke="#999999" points="131.05,-85 88.05,-85 88.05,-66 131.05,-66 131.05,-85"/>
<text text-anchor="middle" x="109.55" y="-73" font-family="Helvetica,sans-Serif" font-size="10.00">fcntl.h</text>
</a>
</g>
</g>
<!-- Node28&#45;&gt;Node31 -->
<g id="edge41" class="edge">
<title>Node28&#45;&gt;Node31</title>
<path fill="none" stroke="#63b8ff" d="M368.58,-175.58C334.81,-167.72 285.92,-155.17 244.55,-140 205.66,-125.73 162.66,-104.5 135.87,-90.58"/>
<polygon fill="#63b8ff" stroke="#63b8ff" points="137.6,-87.53 127.12,-85.98 134.35,-93.73 137.6,-87.53"/>
</g>
<!-- Node32 -->
<g id="node32" class="node">
<title>Node32</title>
<g id="a_node32"><a xlink:title=" ">
<polygon fill="#e0e0e0" stroke="#999999" points="218.05,-85 149.05,-85 149.05,-66 218.05,-66 218.05,-85"/>
<text text-anchor="middle" x="183.55" y="-73" font-family="Helvetica,sans-Serif" font-size="10.00">sys/mman.h</text>
</a>
</g>
</g>
<!-- Node28&#45;&gt;Node32 -->
<g id="edge42" class="edge">
<title>Node28&#45;&gt;Node32</title>
<path fill="none" stroke="#63b8ff" d="M376.86,-175.51C350.47,-167.69 312.73,-155.24 281.55,-140 253.33,-126.2 223.36,-105.83 204.1,-91.91"/>
<polygon fill="#63b8ff" stroke="#63b8ff" points="206.43,-89.28 196.3,-86.18 202.29,-94.92 206.43,-89.28"/>
</g>
<!-- Node33 -->
<g id="node33" class="node">
<title>Node33</title>
<g id="a_node33"><a xlink:title=" ">
<polygon fill="#e0e0e0" stroke="#999999" points="295.05,-85 236.05,-85 236.05,-66 295.05,-66 295.05,-85"/>
<text text-anchor="middle" x="265.55" y="-73" font-family="Helvetica,sans-Serif" font-size="10.00">sys/stat.h</text>
</a>
</g>
</g>
<!-- Node28&#45;&gt;Node33 -->
<g id="edge43" class="edge">
<title>Node28&#45;&gt;Node33</title>
<path fill="none" stroke="#63b8ff" d="M370.49,-175.53C347.99,-168.78 320.32,-157.6 300.55,-140 287.04,-127.97 277.66,-109.43 272.04,-95.48"/>
<polygon fill="#63b8ff" stroke="#63b8ff" points="275.48,-94.67 268.72,-86.51 268.91,-97.1 275.48,-94.67"/>
</g>
<!-- Node34 -->
<g id="node34" class="node">
<title>Node34</title>
<g id="a_node34"><a xlink:title=" ">
<polygon fill="#e0e0e0" stroke="#999999" points="623.05,-85 558.05,-85 558.05,-66 623.05,-66 623.05,-85"/>
<text text-anchor="middle" x="590.55" y="-73" font-family="Helvetica,sans-Serif" font-size="10.00">sys/types.h</text>
</a>
</g>
</g>
<!-- Node28&#45;&gt;Node34 -->
<g id="edge44" class="edge">
<title>Node28&#45;&gt;Node34</title>
<path fill="none" stroke="#63b8ff" d="M424.36,-175.66C455.39,-157.15 527.48,-114.13 565.71,-91.32"/>
<polygon fill="#63b8ff" stroke="#63b8ff" points="567.44,-94.37 574.24,-86.24 563.86,-88.35 567.44,-94.37"/>
</g>
<!-- Node35 -->
<g id="node35" class="node">
<title>Node35</title>
<g id="a_node35"><a xlink:title=" ">
<polygon fill="#e0e0e0" stroke="#999999" points="691.55,-85 641.55,-85 641.55,-66 691.55,-66 691.55,-85"/>
<text text-anchor="middle" x="666.55" y="-73" font-family="Helvetica,sans-Serif" font-size="10.00">unistd.h</text>
</a>
</g>
</g>
<!-- Node28&#45;&gt;Node35 -->
<g id="edge45" class="edge">
<title>Node28&#45;&gt;Node35</title>
<path fill="none" stroke="#63b8ff" d="M430.58,-175.66C475.58,-156.75 581.4,-112.29 634.7,-89.89"/>
<polygon fill="#63b8ff" stroke="#63b8ff" points="635.97,-93.15 643.84,-86.05 633.26,-86.69 635.97,-93.15"/>
</g>
<!-- Node36 -->
<g id="node36" class="node">
<title>Node36</title>
<g id="a_node36"><a xlink:href="_hw_accessor_8hpp.html" target="_top" xlink:title=" ">
<polygon fill="white" stroke="#666666" points="435.05,-140 310.05,-140 310.05,-121 435.05,-121 435.05,-140"/>
<text text-anchor="middle" x="372.55" y="-128" font-family="Helvetica,sans-Serif" font-size="10.00">udmaio/HwAccessor.hpp</text>
</a>
</g>
</g>
<!-- Node28&#45;&gt;Node36 -->
<g id="edge46" class="edge">
<title>Node28&#45;&gt;Node36</title>
<path fill="none" stroke="#63b8ff" d="M403.44,-175.75C398.55,-168.73 391.5,-158.64 385.38,-149.87"/>
<polygon fill="#63b8ff" stroke="#63b8ff" points="388.26,-147.88 379.66,-141.68 382.52,-151.89 388.26,-147.88"/>
</g>
<!-- Node36&#45;&gt;Node7 -->
<g id="edge51" class="edge">
<title>Node36&#45;&gt;Node7</title>
<path fill="none" stroke="#63b8ff" d="M404.89,-120.51C432.97,-112.35 474.52,-99.42 509.55,-85 520.51,-80.49 582.42,-48.92 619.16,-30.08"/>
<polygon fill="#63b8ff" stroke="#63b8ff" points="620.59,-33.28 627.88,-25.6 617.39,-27.05 620.59,-33.28"/>
</g>
<!-- Node36&#45;&gt;Node10 -->
<g id="edge52" class="edge">
<title>Node36&#45;&gt;Node10</title>
<path fill="none" stroke="#63b8ff" d="M435.52,-123.11C530.39,-113.47 709.96,-95.24 814.17,-84.66"/>
<polygon fill="#63b8ff" stroke="#63b8ff" points="814.46,-88.15 824.06,-83.66 813.75,-81.19 814.46,-88.15"/>
</g>
<!-- Node36&#45;&gt;Node11 -->
<g id="edge58" class="edge">
<title>Node36&#45;&gt;Node11</title>
<path fill="none" stroke="#63b8ff" d="M435.21,-125.29C544.4,-117.86 776.62,-101.62 972.55,-85 986.57,-83.81 1001.82,-82.4 1015.66,-81.07"/>
<polygon fill="#63b8ff" stroke="#63b8ff" points="1015.79,-84.57 1025.4,-80.13 1015.11,-77.61 1015.79,-84.57"/>
</g>
<!-- Node36&#45;&gt;Node21 -->
<g id="edge59" class="edge">
<title>Node36&#45;&gt;Node21</title>
<path fill="none" stroke="#63b8ff" d="M384.94,-120.51C395.7,-112.7 411.52,-101.21 424.31,-91.93"/>
<polygon fill="#63b8ff" stroke="#63b8ff" points="426.09,-94.95 432.13,-86.25 421.98,-89.29 426.09,-94.95"/>
</g>
<!-- Node36&#45;&gt;Node22 -->
<g id="edge49" class="edge">
<title>Node36&#45;&gt;Node22</title>
<path fill="none" stroke="#63b8ff" d="M371.85,-120.59C370.41,-102.53 367.13,-61.17 365.16,-36.21"/>
<polygon fill="#63b8ff" stroke="#63b8ff" points="368.66,-36.07 364.38,-26.37 361.68,-36.62 368.66,-36.07"/>
</g>
<!-- Node36&#45;&gt;Node23 -->
<g id="edge50" class="edge">
<title>Node36&#45;&gt;Node23</title>
<path fill="none" stroke="#63b8ff" d="M366.28,-120.59C353.19,-102.03 322.77,-58.87 305.37,-34.19"/>
<polygon fill="#63b8ff" stroke="#63b8ff" points="308.3,-32.26 299.67,-26.1 302.57,-36.29 308.3,-32.26"/>
</g>
<!-- Node36&#45;&gt;Node29 -->
<g id="edge47" class="edge">
<title>Node36&#45;&gt;Node29</title>
<path fill="none" stroke="#63b8ff" d="M435.36,-122.49C499.09,-115.03 600.83,-102.2 698.14,-85.3"/>
<polygon fill="#63b8ff" stroke="#63b8ff" points="698.63,-88.77 707.88,-83.59 697.42,-81.87 698.63,-88.77"/>
</g>
<!-- Node36&#45;&gt;Node30 -->
<g id="edge48" class="edge">
<title>Node36&#45;&gt;Node30</title>
<path fill="none" stroke="#63b8ff" d="M309.74,-121.75C252.52,-114.29 165.46,-101.95 80.85,-85.3"/>
<polygon fill="#63b8ff" stroke="#63b8ff" points="81.72,-81.9 71.23,-83.38 80.35,-88.76 81.72,-81.9"/>
</g>
<!-- Node36&#45;&gt;Node31 -->
<g id="edge53" class="edge">
<title>Node36&#45;&gt;Node31</title>
<path fill="none" stroke="#63b8ff" d="M318.59,-120.57C273.69,-112.83 207.86,-100.77 142.38,-85.52"/>
<polygon fill="#63b8ff" stroke="#63b8ff" points="143.46,-82.18 132.92,-83.29 141.85,-88.99 143.46,-82.18"/>
</g>
<!-- Node36&#45;&gt;Node32 -->
<g id="edge54" class="edge">
<title>Node36&#45;&gt;Node32</title>
<path fill="none" stroke="#63b8ff" d="M340.49,-120.51C309.04,-111.69 260.87,-98.18 226.2,-88.46"/>
<polygon fill="#63b8ff" stroke="#63b8ff" points="227.49,-85.19 216.91,-85.85 225.6,-91.93 227.49,-85.19"/>
</g>
<!-- Node36&#45;&gt;Node33 -->
<g id="edge55" class="edge">
<title>Node36&#45;&gt;Node33</title>
<path fill="none" stroke="#63b8ff" d="M354.4,-120.51C337.78,-112.27 312.91,-99.96 293.71,-90.45"/>
<polygon fill="#63b8ff" stroke="#63b8ff" points="295.31,-87.33 284.79,-86.03 292.2,-93.6 295.31,-87.33"/>
</g>
<!-- Node36&#45;&gt;Node34 -->
<g id="edge56" class="edge">
<title>Node36&#45;&gt;Node34</title>
<path fill="none" stroke="#63b8ff" d="M409.53,-120.51C447.43,-111.3 506.34,-96.97 546.6,-87.19"/>
<polygon fill="#63b8ff" stroke="#63b8ff" points="547.32,-90.61 556.21,-84.85 545.66,-83.81 547.32,-90.61"/>
</g>
<!-- Node36&#45;&gt;Node35 -->
<g id="edge57" class="edge">
<title>Node36&#45;&gt;Node35</title>
<path fill="none" stroke="#63b8ff" d="M432.69,-120.53C483.07,-112.71 557.1,-100.53 630.52,-85.3"/>
<polygon fill="#63b8ff" stroke="#63b8ff" points="630.8,-88.81 639.87,-83.34 629.36,-81.96 630.8,-88.81"/>
</g>
<!-- Node37&#45;&gt;Node5 -->
<g id="edge64" class="edge">
<title>Node37&#45;&gt;Node5</title>
<path fill="none" stroke="#63b8ff" d="M677.27,-230.51C662.56,-222.39 640.66,-210.3 623.54,-200.85"/>
<polygon fill="#63b8ff" stroke="#63b8ff" points="625.37,-197.86 614.92,-196.09 621.99,-203.99 625.37,-197.86"/>
</g>
<!-- Node38&#45;&gt;Node20 -->
<g id="edge66" class="edge">
<title>Node38&#45;&gt;Node20</title>
<path fill="none" stroke="#63b8ff" d="M810.65,-291.37C813.54,-283.33 817.94,-271.07 821.65,-260.72"/>
<polygon fill="#63b8ff" stroke="#63b8ff" points="824.85,-262.19 824.93,-251.59 818.26,-259.82 824.85,-262.19"/>
</g>
<!-- Node38&#45;&gt;Node27 -->
<g id="edge67" class="edge">
<title>Node38&#45;&gt;Node27</title>
<path fill="none" stroke="#63b8ff" d="M771.3,-291.05C730.18,-280.9 662.98,-264.31 617.79,-253.16"/>
<polygon fill="#63b8ff" stroke="#63b8ff" points="618.82,-249.81 608.27,-250.81 617.14,-256.6 618.82,-249.81"/>
</g>
</g>
</svg>
        <g id="navigator" transform="translate(0 0)" fill="#404254">
                <rect fill="#f2f5e9" fill-opacity="0.5" stroke="#606060" stroke-width=".5" x="0" y="0" width="60" height="60"/>
                <use id="zoomplus" xlink:href="#zoomPlus" x="17" y="9" onmousedown="handleZoom(evt,'in')"/>
                <use id="zoomminus" xlink:href="#zoomMin" x="42" y="9" onmousedown="handleZoom(evt,'out')"/>
                <use id="reset" xlink:href="#resetDef" x="30" y="36" onmousedown="handleReset()"/>
                <g id="arrowUp" xlink:href="#dirArrow" transform="translate(30 24)" onmousedown="handlePan(0,-1)">
                  <use xlink:href="#rim" fill="#404040">
                        <set attributeName="fill" to="#808080" begin="arrowUp.mouseover" end="arrowUp.mouseout"/>
                  </use>
                  <path fill="none" stroke="white" stroke-width="1.5" d="M0,-3.0v7 M-2.5,-0.5L0,-3.0L2.5,-0.5"/>
                </g>
                <g id="arrowRight" xlink:href="#dirArrow" transform="rotate(90) translate(36 -43)" onmousedown="handlePan(1,0)">
                  <use xlink:href="#rim" fill="#404040">
                        <set attributeName="fill" to="#808080" begin="arrowRight.mouseover" end="arrowRight.mouseout"/>
                  </use>
                  <path fill="none" stroke="white" stroke-width="1.5" d="M0,-3.0v7 M-2.5,-0.5L0,-3.0L2.5,-0.5"/>
                </g>
                <g id="arrowDown" xlink:href="#dirArrow" transform="rotate(180) translate(-30 -48)" onmousedown="handlePan(0,1)">
                  <use xlink:href="#rim" fill="#404040">
                        <set attributeName="fill" to="#808080" begin="arrowDown.mouseover" end="arrowDown.mouseout"/>
                  </use>
                  <path fill="none" stroke="white" stroke-width="1.5" d="M0,-3.0v7 M-2.5,-0.5L0,-3.0L2.5,-0.5"/>
                </g>
                <g id="arrowLeft" xlink:href="#dirArrow" transform="rotate(270) translate(-36 17)" onmousedown="handlePan(-1,0)">
                  <use xlink:href="#rim" fill="#404040">
                        <set attributeName="fill" to="#808080" begin="arrowLeft.mouseover" end="arrowLeft.mouseout"/>
                  </use>
                  <path fill="none" stroke="white" stroke-width="1.5" d="M0,-3.0v7 M-2.5,-0.5L0,-3.0L2.5,-0.5"/>
                </g>
        </g>
        <svg viewBox="0 0 15 15" width="100%" height="30px" preserveAspectRatio="xMaxYMin meet">
         <g id="arrow_out" transform="scale(0.3 0.3)">
          <a xlink:href="_data_handler_print_8hpp__incl_org.svg" target="_base">
           <rect id="button" ry="5" rx="5" y="6" x="6" height="38" width="38"
                fill="#f2f5e9" fill-opacity="0.5" stroke="#606060" stroke-width="1.0"/>
           <path id="arrow"
             d="M 11.500037,31.436501 C 11.940474,20.09759 22.043105,11.32322 32.158766,21.979434 L 37.068811,17.246167 C 37.068811,17.246167 37.088388,32 37.088388,32 L 22.160133,31.978069 C 22.160133,31.978069 26.997745,27.140456 26.997745,27.140456 C 18.528582,18.264221 13.291696,25.230495 11.500037,31.436501 z"
             style="fill:#404040;"/>
          </a>
         </g>
        </svg>
</svg>
