<?xml version="1.0" encoding="UTF-8" standalone="no"?>
<!DOCTYPE svg PUBLIC "-//W3C//DTD SVG 1.1//EN"
 "http://www.w3.org/Graphics/SVG/1.1/DTD/svg11.dtd">
<!-- Generated by graphviz version 7.0.5 (20221223.1930)
 -->
<!-- Title: DataHandlerPrint.hpp Pages: 1 -->
<svg width="1787pt" height="434pt"
 viewBox="0.00 0.00 1787.03 434.00" xmlns="http://www.w3.org/2000/svg" xmlns:xlink="http://www.w3.org/1999/xlink">
<g id="graph0" class="graph" transform="scale(1 1) rotate(0) translate(4 430)">
<title>DataHandlerPrint.hpp</title>
<!-- Node1 -->
<g id="node1" class="node">
<title>Node1</title>
<g id="a_node1"><a xlink:title=" ">
<polygon fill="#999999" stroke="#666666" points="435.03,-426 326.03,-426 326.03,-407 435.03,-407 435.03,-426"/>
<text text-anchor="middle" x="380.53" y="-414" font-family="Helvetica,sans-Serif" font-size="10.00">DataHandlerPrint.hpp</text>
</a>
</g>
</g>
<!-- Node2 -->
<g id="node2" class="node">
<title>Node2</title>
<g id="a_node2"><a xlink:title=" ">
<polygon fill="#e0e0e0" stroke="#999999" points="318.53,-371 268.53,-371 268.53,-352 318.53,-352 318.53,-371"/>
<text text-anchor="middle" x="293.53" y="-359" font-family="Helvetica,sans-Serif" font-size="10.00">optional</text>
</a>
</g>
</g>
<!-- Node1&#45;&gt;Node2 -->
<g id="edge1" class="edge">
<title>Node1&#45;&gt;Node2</title>
<path fill="none" stroke="#63b8ff" d="M365.77,-406.51C352.57,-398.47 332.97,-386.53 317.51,-377.11"/>
<polygon fill="#63b8ff" stroke="#63b8ff" points="319.72,-374.36 309.36,-372.15 316.08,-380.34 319.72,-374.36"/>
</g>
<!-- Node3 -->
<g id="node3" class="node">
<title>Node3</title>
<g id="a_node3"><a xlink:title=" ">
<polygon fill="#e0e0e0" stroke="#999999" points="376.03,-371 337.03,-371 337.03,-352 376.03,-352 376.03,-371"/>
<text text-anchor="middle" x="356.53" y="-359" font-family="Helvetica,sans-Serif" font-size="10.00">utility</text>
</a>
</g>
</g>
<!-- Node1&#45;&gt;Node3 -->
<g id="edge2" class="edge">
<title>Node1&#45;&gt;Node3</title>
<path fill="none" stroke="#63b8ff" d="M376.56,-406.75C373.49,-399.96 369.12,-390.3 365.24,-381.73"/>
<polygon fill="#63b8ff" stroke="#63b8ff" points="368.51,-380.49 361.2,-372.82 362.14,-383.37 368.51,-380.49"/>
</g>
<!-- Node4 -->
<g id="node4" class="node">
<title>Node4</title>
<g id="a_node4"><a xlink:href="_axi_traffic_gen_lfsr_8hpp.html" target="_top" xlink:title=" ">
<polygon fill="white" stroke="#666666" points="410.53,-250 300.53,-250 300.53,-231 410.53,-231 410.53,-250"/>
<text text-anchor="middle" x="355.53" y="-238" font-family="Helvetica,sans-Serif" font-size="10.00">AxiTrafficGenLfsr.hpp</text>
</a>
</g>
</g>
<!-- Node1&#45;&gt;Node4 -->
<g id="edge3" class="edge">
<title>Node1&#45;&gt;Node4</title>
<path fill="none" stroke="#63b8ff" d="M381.56,-406.65C382.55,-397.68 383.97,-383.4 384.53,-371 384.91,-362.56 385.61,-360.38 384.53,-352 380.33,-319.46 369.44,-282.82 362.27,-260.98"/>
<polygon fill="#63b8ff" stroke="#63b8ff" points="365.64,-260.02 359.12,-251.66 359.01,-262.26 365.64,-260.02"/>
</g>
<!-- Node6 -->
<g id="node6" class="node">
<title>Node6</title>
<g id="a_node6"><a xlink:href="_data_handler_abstract_8hpp.html" target="_top" xlink:title=" ">
<polygon fill="white" stroke="#666666" points="992.53,-371 832.53,-371 832.53,-352 992.53,-352 992.53,-371"/>
<text text-anchor="middle" x="912.53" y="-359" font-family="Helvetica,sans-Serif" font-size="10.00">udmaio/DataHandlerAbstract.hpp</text>
</a>
</g>
</g>
<!-- Node1&#45;&gt;Node6 -->
<g id="edge5" class="edge">
<title>Node1&#45;&gt;Node6</title>
<path fill="none" stroke="#63b8ff" d="M435.46,-410.03C526.57,-400.95 709.9,-382.69 820.88,-371.63"/>
<polygon fill="#63b8ff" stroke="#63b8ff" points="820.94,-375.14 830.54,-370.67 820.24,-368.18 820.94,-375.14"/>
</g>
<!-- Node5 -->
<g id="node5" class="node">
<title>Node5</title>
<g id="a_node5"><a xlink:title=" ">
<polygon fill="#e0e0e0" stroke="#999999" points="608.53,-195 562.53,-195 562.53,-176 608.53,-176 608.53,-195"/>
<text text-anchor="middle" x="585.53" y="-183" font-family="Helvetica,sans-Serif" font-size="10.00">cstdint</text>
</a>
</g>
</g>
<!-- Node4&#45;&gt;Node5 -->
<g id="edge4" class="edge">
<title>Node4&#45;&gt;Node5</title>
<path fill="none" stroke="#63b8ff" d="M394.54,-230.51C438.47,-220.39 509.18,-204.09 551.12,-194.43"/>
<polygon fill="#63b8ff" stroke="#63b8ff" points="551.71,-197.88 560.67,-192.23 550.14,-191.06 551.71,-197.88"/>
</g>
<!-- Node7 -->
<g id="node7" class="node">
<title>Node7</title>
<g id="a_node7"><a xlink:title=" ">
<polygon fill="#e0e0e0" stroke="#999999" points="852.03,-24.5 811.03,-24.5 811.03,-5.5 852.03,-5.5 852.03,-24.5"/>
<text text-anchor="middle" x="831.53" y="-12.5" font-family="Helvetica,sans-Serif" font-size="10.00">string</text>
</a>
</g>
</g>
<!-- Node6&#45;&gt;Node7 -->
<g id="edge6" class="edge">
<title>Node6&#45;&gt;Node7</title>
<path fill="none" stroke="#63b8ff" d="M992.81,-359.42C1068.8,-356.5 1175.09,-346.82 1201.53,-316 1210.21,-305.88 1206.21,-298.48 1201.53,-286 1155.96,-164.49 1120.49,-133.3 1009.53,-66 951.27,-30.67 924.68,-52.94 860.53,-30 860.03,-29.82 859.52,-29.64 859.02,-29.45"/>
<polygon fill="#63b8ff" stroke="#63b8ff" points="860.4,-26.23 849.83,-25.51 857.64,-32.66 860.4,-26.23"/>
</g>
<!-- Node8 -->
<g id="node8" class="node">
<title>Node8</title>
<g id="a_node8"><a xlink:title=" ">
<polygon fill="#e0e0e0" stroke="#999999" points="880.53,-195 836.53,-195 836.53,-176 880.53,-176 880.53,-195"/>
<text text-anchor="middle" x="858.53" y="-183" font-family="Helvetica,sans-Serif" font-size="10.00">vector</text>
</a>
</g>
</g>
<!-- Node6&#45;&gt;Node8 -->
<g id="edge7" class="edge">
<title>Node6&#45;&gt;Node8</title>
<path fill="none" stroke="#63b8ff" d="M879.87,-351.51C862.23,-344.8 841.98,-333.68 831.53,-316 824.74,-304.52 829.77,-299.22 831.53,-286 835.31,-257.64 844.89,-225.91 851.56,-206.07"/>
<polygon fill="#63b8ff" stroke="#63b8ff" points="854.8,-207.42 854.76,-196.82 848.18,-205.13 854.8,-207.42"/>
</g>
<!-- Node9 -->
<g id="node9" class="node">
<title>Node9</title>
<g id="a_node9"><a xlink:title=" ">
<polygon fill="#e0e0e0" stroke="#999999" points="1054.53,-310.5 974.53,-310.5 974.53,-291.5 1054.53,-291.5 1054.53,-310.5"/>
<text text-anchor="middle" x="1014.53" y="-298.5" font-family="Helvetica,sans-Serif" font-size="10.00">boost/asio.hpp</text>
</a>
</g>
</g>
<!-- Node6&#45;&gt;Node9 -->
<g id="edge8" class="edge">
<title>Node6&#45;&gt;Node9</title>
<path fill="none" stroke="#63b8ff" d="M928.02,-351.62C944.19,-342.34 969.83,-327.63 989,-316.64"/>
<polygon fill="#63b8ff" stroke="#63b8ff" points="990.64,-319.73 997.58,-311.72 987.16,-313.66 990.64,-319.73"/>
</g>
<!-- Node10 -->
<g id="node10" class="node">
<title>Node10</title>
<g id="a_node10"><a xlink:title=" ">
<polygon fill="#e0e0e0" stroke="#999999" points="1001.03,-85 864.03,-85 864.03,-66 1001.03,-66 1001.03,-85"/>
<text text-anchor="middle" x="932.53" y="-73" font-family="Helvetica,sans-Serif" font-size="10.00">boost/core/noncopyable.hpp</text>
</a>
</g>
</g>
<!-- Node6&#45;&gt;Node10 -->
<g id="edge9" class="edge">
<title>Node6&#45;&gt;Node10</title>
<path fill="none" stroke="#63b8ff" d="M916.83,-351.79C925.98,-332.45 946.53,-284.26 946.53,-241.5 946.53,-241.5 946.53,-241.5 946.53,-184.5 946.53,-153.67 940.85,-118.29 936.72,-96.67"/>
<polygon fill="#63b8ff" stroke="#63b8ff" points="940.16,-96.02 934.77,-86.89 933.3,-97.39 940.16,-96.02"/>
</g>
<!-- Node11 -->
<g id="node11" class="node">
<title>Node11</title>
<g id="a_node11"><a xlink:href="_logging_8hpp.html" target="_top" xlink:title=" ">
<polygon fill="white" stroke="#666666" points="1242.03,-85 1173.03,-85 1173.03,-66 1242.03,-66 1242.03,-85"/>
<text text-anchor="middle" x="1207.53" y="-73" font-family="Helvetica,sans-Serif" font-size="10.00">Logging.hpp</text>
</a>
</g>
</g>
<!-- Node6&#45;&gt;Node11 -->
<g id="edge10" class="edge">
<title>Node6&#45;&gt;Node11</title>
<path fill="none" stroke="#63b8ff" d="M992.9,-358.95C1076.16,-355.71 1198.97,-345.84 1234.53,-316 1261.17,-293.64 1258.53,-276.29 1258.53,-241.5 1258.53,-241.5 1258.53,-241.5 1258.53,-184.5 1258.53,-150.09 1237.09,-114.9 1222.02,-94.41"/>
<polygon fill="#63b8ff" stroke="#63b8ff" points="1224.85,-92.35 1215.97,-86.56 1219.3,-96.62 1224.85,-92.35"/>
</g>
<!-- Node19 -->
<g id="node19" class="node">
<title>Node19</title>
<g id="a_node19"><a xlink:href="_u_dma_buf_8hpp.html" target="_top" xlink:title=" ">
<polygon fill="white" stroke="#666666" points="918.03,-310.5 841.03,-310.5 841.03,-291.5 918.03,-291.5 918.03,-310.5"/>
<text text-anchor="middle" x="879.53" y="-298.5" font-family="Helvetica,sans-Serif" font-size="10.00">UDmaBuf.hpp</text>
</a>
</g>
</g>
<!-- Node6&#45;&gt;Node19 -->
<g id="edge19" class="edge">
<title>Node6&#45;&gt;Node19</title>
<path fill="none" stroke="#63b8ff" d="M907.66,-351.87C903.03,-343.66 895.91,-331.04 889.99,-320.55"/>
<polygon fill="#63b8ff" stroke="#63b8ff" points="893.12,-318.98 885.16,-311.99 887.02,-322.41 893.12,-318.98"/>
</g>
<!-- Node26 -->
<g id="node26" class="node">
<title>Node26</title>
<g id="a_node26"><a xlink:href="_uio_axi_dma_if_8hpp.html" target="_top" xlink:title=" ">
<polygon fill="white" stroke="#666666" points="617.03,-310.5 528.03,-310.5 528.03,-291.5 617.03,-291.5 617.03,-310.5"/>
<text text-anchor="middle" x="572.53" y="-298.5" font-family="Helvetica,sans-Serif" font-size="10.00">UioAxiDmaIf.hpp</text>
</a>
</g>
</g>
<!-- Node6&#45;&gt;Node26 -->
<g id="edge32" class="edge">
<title>Node6&#45;&gt;Node26</title>
<path fill="none" stroke="#63b8ff" d="M860.52,-351.55C797.87,-340.77 693.03,-322.73 628.62,-311.65"/>
<polygon fill="#63b8ff" stroke="#63b8ff" points="629.41,-308.24 618.96,-309.99 628.22,-315.13 629.41,-308.24"/>
</g>
<!-- Node38 -->
<g id="node38" class="node">
<title>Node38</title>
<g id="a_node38"><a xlink:href="_uio_mem_sgdma_8hpp.html" target="_top" xlink:title=" ">
<polygon fill="white" stroke="#666666" points="784.53,-310.5 682.53,-310.5 682.53,-291.5 784.53,-291.5 784.53,-310.5"/>
<text text-anchor="middle" x="733.53" y="-298.5" font-family="Helvetica,sans-Serif" font-size="10.00">UioMemSgdma.hpp</text>
</a>
</g>
</g>
<!-- Node6&#45;&gt;Node38 -->
<g id="edge66" class="edge">
<title>Node6&#45;&gt;Node38</title>
<path fill="none" stroke="#63b8ff" d="M885.34,-351.62C854.98,-341.69 805.63,-325.57 771.48,-314.4"/>
<polygon fill="#63b8ff" stroke="#63b8ff" points="773,-311.22 762.41,-311.44 770.83,-317.87 773,-311.22"/>
</g>
<!-- Node39 -->
<g id="node39" class="node">
<title>Node39</title>
<g id="a_node39"><a xlink:title=" ">
<polygon fill="#e0e0e0" stroke="#999999" points="1192.53,-316 1072.53,-316 1072.53,-286 1192.53,-286 1192.53,-316"/>
<text text-anchor="start" x="1080.53" y="-304" font-family="Helvetica,sans-Serif" font-size="10.00">boost/asio/posix/stream</text>
<text text-anchor="middle" x="1132.53" y="-293" font-family="Helvetica,sans-Serif" font-size="10.00">_descriptor.hpp</text>
</a>
</g>
</g>
<!-- Node6&#45;&gt;Node39 -->
<g id="edge69" class="edge">
<title>Node6&#45;&gt;Node39</title>
<path fill="none" stroke="#63b8ff" d="M945.94,-351.62C978.02,-343.08 1027.36,-329.96 1067.25,-319.36"/>
<polygon fill="#63b8ff" stroke="#63b8ff" points="1068,-322.78 1076.76,-316.83 1066.2,-316.02 1068,-322.78"/>
</g>
<!-- Node11&#45;&gt;Node7 -->
<g id="edge11" class="edge">
<title>Node11&#45;&gt;Node7</title>
<path fill="none" stroke="#63b8ff" d="M1172.76,-68.24C1167.99,-67.45 1163.14,-66.68 1158.53,-66 1026.54,-46.59 988.55,-67.51 860.53,-30 859.72,-29.76 858.91,-29.51 858.1,-29.23"/>
<polygon fill="#63b8ff" stroke="#63b8ff" points="859.69,-26.11 849.11,-25.54 857.04,-32.58 859.69,-26.11"/>
</g>
<!-- Node12 -->
<g id="node12" class="node">
<title>Node12</title>
<g id="a_node12"><a xlink:title=" ">
<polygon fill="#e0e0e0" stroke="#999999" points="1512.53,-24.5 1416.53,-24.5 1416.53,-5.5 1512.53,-5.5 1512.53,-24.5"/>
<text text-anchor="middle" x="1464.53" y="-12.5" font-family="Helvetica,sans-Serif" font-size="10.00">boost/log/core.hpp</text>
</a>
</g>
</g>
<!-- Node11&#45;&gt;Node12 -->
<g id="edge12" class="edge">
<title>Node11&#45;&gt;Node12</title>
<path fill="none" stroke="#63b8ff" d="M1242.26,-67.01C1282.2,-58.35 1349.69,-43.54 1407.53,-30 1410.84,-29.22 1414.26,-28.41 1417.71,-27.59"/>
<polygon fill="#63b8ff" stroke="#63b8ff" points="1418.31,-31.04 1427.21,-25.29 1416.66,-24.24 1418.31,-31.04"/>
</g>
<!-- Node13 -->
<g id="node13" class="node">
<title>Node13</title>
<g id="a_node13"><a xlink:title=" ">
<polygon fill="#e0e0e0" stroke="#999999" points="1660.03,-24.5 1531.03,-24.5 1531.03,-5.5 1660.03,-5.5 1660.03,-24.5"/>
<text text-anchor="middle" x="1595.53" y="-12.5" font-family="Helvetica,sans-Serif" font-size="10.00">boost/log/expressions.hpp</text>
</a>
</g>
</g>
<!-- Node11&#45;&gt;Node13 -->
<g id="edge13" class="edge">
<title>Node11&#45;&gt;Node13</title>
<path fill="none" stroke="#63b8ff" d="M1242.46,-70.09C1300.51,-62.63 1420.49,-46.71 1521.53,-30 1527.11,-29.08 1532.92,-28.07 1538.72,-27.02"/>
<polygon fill="#63b8ff" stroke="#63b8ff" points="1539.1,-30.51 1548.31,-25.27 1537.84,-23.63 1539.1,-30.51"/>
</g>
<!-- Node14 -->
<g id="node14" class="node">
<title>Node14</title>
<g id="a_node14"><a xlink:title=" ">
<polygon fill="#e0e0e0" stroke="#999999" points="1779.03,-24.5 1678.03,-24.5 1678.03,-5.5 1779.03,-5.5 1779.03,-24.5"/>
<text text-anchor="middle" x="1728.53" y="-12.5" font-family="Helvetica,sans-Serif" font-size="10.00">boost/log/trivial.hpp</text>
</a>
</g>
</g>
<!-- Node11&#45;&gt;Node14 -->
<g id="edge14" class="edge">
<title>Node11&#45;&gt;Node14</title>
<path fill="none" stroke="#63b8ff" d="M1242.51,-72.77C1319.91,-68.58 1511.34,-56.26 1669.53,-30 1674.08,-29.24 1678.81,-28.34 1683.52,-27.35"/>
<polygon fill="#63b8ff" stroke="#63b8ff" points="1683.89,-30.85 1692.89,-25.27 1682.37,-24.02 1683.89,-30.85"/>
</g>
<!-- Node15 -->
<g id="node15" class="node">
<title>Node15</title>
<g id="a_node15"><a xlink:title=" ">
<polygon fill="#e0e0e0" stroke="#999999" points="979.03,-30 870.03,-30 870.03,0 979.03,0 979.03,-30"/>
<text text-anchor="start" x="878.03" y="-18" font-family="Helvetica,sans-Serif" font-size="10.00">boost/log/utility/setup</text>
<text text-anchor="middle" x="924.53" y="-7" font-family="Helvetica,sans-Serif" font-size="10.00">/console.hpp</text>
</a>
</g>
</g>
<!-- Node11&#45;&gt;Node15 -->
<g id="edge15" class="edge">
<title>Node11&#45;&gt;Node15</title>
<path fill="none" stroke="#63b8ff" d="M1172.81,-67.69C1131.62,-59.57 1060.59,-45.41 990.69,-30.65"/>
<polygon fill="#63b8ff" stroke="#63b8ff" points="991.48,-27.24 980.97,-28.59 990.03,-34.09 991.48,-27.24"/>
</g>
<!-- Node16 -->
<g id="node16" class="node">
<title>Node16</title>
<g id="a_node16"><a xlink:title=" ">
<polygon fill="#e0e0e0" stroke="#999999" points="1128.03,-30 997.03,-30 997.03,0 1128.03,0 1128.03,-30"/>
<text text-anchor="start" x="1005.03" y="-18" font-family="Helvetica,sans-Serif" font-size="10.00">boost/log/sources/severity</text>
<text text-anchor="middle" x="1062.53" y="-7" font-family="Helvetica,sans-Serif" font-size="10.00">_channel_logger.hpp</text>
</a>
</g>
</g>
<!-- Node11&#45;&gt;Node16 -->
<g id="edge16" class="edge">
<title>Node11&#45;&gt;Node16</title>
<path fill="none" stroke="#63b8ff" d="M1185.5,-65.62C1165.26,-57.45 1134.6,-45.08 1108.95,-34.73"/>
<polygon fill="#63b8ff" stroke="#63b8ff" points="1110.3,-31.5 1099.72,-31.01 1107.68,-37.99 1110.3,-31.5"/>
</g>
<!-- Node17 -->
<g id="node17" class="node">
<title>Node17</title>
<g id="a_node17"><a xlink:title=" ">
<polygon fill="#e0e0e0" stroke="#999999" points="1259.03,-30 1146.03,-30 1146.03,0 1259.03,0 1259.03,-30"/>
<text text-anchor="start" x="1154.03" y="-18" font-family="Helvetica,sans-Serif" font-size="10.00">boost/log/support/date</text>
<text text-anchor="middle" x="1202.53" y="-7" font-family="Helvetica,sans-Serif" font-size="10.00">_time.hpp</text>
</a>
</g>
</g>
<!-- Node11&#45;&gt;Node17 -->
<g id="edge17" class="edge">
<title>Node11&#45;&gt;Node17</title>
<path fill="none" stroke="#63b8ff" d="M1206.79,-65.87C1206.24,-59.4 1205.45,-50.2 1204.7,-41.45"/>
<polygon fill="#63b8ff" stroke="#63b8ff" points="1208.2,-41.29 1203.86,-31.62 1201.23,-41.88 1208.2,-41.29"/>
</g>
<!-- Node18 -->
<g id="node18" class="node">
<title>Node18</title>
<g id="a_node18"><a xlink:title=" ">
<polygon fill="#e0e0e0" stroke="#999999" points="1398.03,-30 1277.03,-30 1277.03,0 1398.03,0 1398.03,-30"/>
<text text-anchor="start" x="1285.03" y="-18" font-family="Helvetica,sans-Serif" font-size="10.00">boost/log/utility/setup</text>
<text text-anchor="middle" x="1337.53" y="-7" font-family="Helvetica,sans-Serif" font-size="10.00">/common_attributes.hpp</text>
</a>
</g>
</g>
<!-- Node11&#45;&gt;Node18 -->
<g id="edge18" class="edge">
<title>Node11&#45;&gt;Node18</title>
<path fill="none" stroke="#63b8ff" d="M1227.27,-65.62C1245.18,-57.56 1272.18,-45.41 1294.98,-35.15"/>
<polygon fill="#63b8ff" stroke="#63b8ff" points="1296.38,-38.36 1304.06,-31.06 1293.5,-31.97 1296.38,-38.36"/>
</g>
<!-- Node19&#45;&gt;Node11 -->
<g id="edge30" class="edge">
<title>Node19&#45;&gt;Node11</title>
<path fill="none" stroke="#63b8ff" d="M892.38,-291.24C942.08,-257.38 1121.94,-134.82 1185.28,-91.66"/>
<polygon fill="#63b8ff" stroke="#63b8ff" points="1186.86,-94.82 1193.15,-86.3 1182.92,-89.03 1186.86,-94.82"/>
</g>
<!-- Node20 -->
<g id="node20" class="node">
<title>Node20</title>
<g id="a_node20"><a xlink:href="_dma_buffer_abstract_8hpp.html" target="_top" xlink:title=" ">
<polygon fill="white" stroke="#666666" points="829.03,-250 712.03,-250 712.03,-231 829.03,-231 829.03,-250"/>
<text text-anchor="middle" x="770.53" y="-238" font-family="Helvetica,sans-Serif" font-size="10.00">DmaBufferAbstract.hpp</text>
</a>
</g>
</g>
<!-- Node19&#45;&gt;Node20 -->
<g id="edge20" class="edge">
<title>Node19&#45;&gt;Node20</title>
<path fill="none" stroke="#63b8ff" d="M862.97,-291.12C845.53,-281.75 817.78,-266.86 797.23,-255.83"/>
<polygon fill="#63b8ff" stroke="#63b8ff" points="799.04,-252.83 788.57,-251.18 795.73,-259 799.04,-252.83"/>
</g>
<!-- Node21 -->
<g id="node21" class="node">
<title>Node21</title>
<g id="a_node21"><a xlink:href="_uio_config_8hpp.html" target="_top" xlink:title=" ">
<polygon fill="white" stroke="#666666" points="807.03,-85 696.03,-85 696.03,-66 807.03,-66 807.03,-85"/>
<text text-anchor="middle" x="751.53" y="-73" font-family="Helvetica,sans-Serif" font-size="10.00">udmaio/UioConfig.hpp</text>
</a>
</g>
</g>
<!-- Node19&#45;&gt;Node21 -->
<g id="edge31" class="edge">
<title>Node19&#45;&gt;Node21</title>
<path fill="none" stroke="#63b8ff" d="M883.2,-291.27C891.51,-270.13 909.5,-215.03 889.53,-176 867.85,-133.65 818.82,-105.2 785.44,-89.93"/>
<polygon fill="#63b8ff" stroke="#63b8ff" points="787.16,-86.86 776.59,-86.04 784.34,-93.27 787.16,-86.86"/>
</g>
<!-- Node20&#45;&gt;Node5 -->
<g id="edge21" class="edge">
<title>Node20&#45;&gt;Node5</title>
<path fill="none" stroke="#63b8ff" d="M739.14,-230.51C705.99,-221.01 653.86,-206.08 619.69,-196.29"/>
<polygon fill="#63b8ff" stroke="#63b8ff" points="620.88,-192.99 610.3,-193.6 618.95,-199.72 620.88,-192.99"/>
</g>
<!-- Node20&#45;&gt;Node8 -->
<g id="edge22" class="edge">
<title>Node20&#45;&gt;Node8</title>
<path fill="none" stroke="#63b8ff" d="M785.45,-230.51C798.81,-222.47 818.63,-210.53 834.26,-201.11"/>
<polygon fill="#63b8ff" stroke="#63b8ff" points="835.76,-204.3 842.52,-196.14 832.15,-198.3 835.76,-204.3"/>
</g>
<!-- Node20&#45;&gt;Node10 -->
<g id="edge23" class="edge">
<title>Node20&#45;&gt;Node10</title>
<path fill="none" stroke="#63b8ff" d="M778.05,-230.67C788.76,-218.21 809.13,-194.9 827.53,-176 856.98,-145.74 893.03,-112.32 914.31,-92.93"/>
<polygon fill="#63b8ff" stroke="#63b8ff" points="916.55,-95.63 921.6,-86.32 911.84,-90.44 916.55,-95.63"/>
</g>
<!-- Node20&#45;&gt;Node21 -->
<g id="edge24" class="edge">
<title>Node20&#45;&gt;Node21</title>
<path fill="none" stroke="#63b8ff" d="M769.51,-230.74C766.57,-205.53 758.04,-132.36 753.87,-96.62"/>
<polygon fill="#63b8ff" stroke="#63b8ff" points="757.36,-96.34 752.73,-86.81 750.41,-97.15 757.36,-96.34"/>
</g>
<!-- Node21&#45;&gt;Node7 -->
<g id="edge28" class="edge">
<title>Node21&#45;&gt;Node7</title>
<path fill="none" stroke="#63b8ff" d="M763.68,-65.62C776.01,-56.6 795.36,-42.45 810.24,-31.56"/>
<polygon fill="#63b8ff" stroke="#63b8ff" points="812.03,-34.59 818.04,-25.86 807.9,-28.94 812.03,-34.59"/>
</g>
<!-- Node22 -->
<g id="node22" class="node">
<title>Node22</title>
<g id="a_node22"><a xlink:title=" ">
<polygon fill="#e0e0e0" stroke="#999999" points="611.53,-24.5 557.53,-24.5 557.53,-5.5 611.53,-5.5 611.53,-24.5"/>
<text text-anchor="middle" x="584.53" y="-12.5" font-family="Helvetica,sans-Serif" font-size="10.00">iostream</text>
</a>
</g>
</g>
<!-- Node21&#45;&gt;Node22 -->
<g id="edge25" class="edge">
<title>Node21&#45;&gt;Node22</title>
<path fill="none" stroke="#63b8ff" d="M726.16,-65.62C698.09,-55.78 652.6,-39.84 620.77,-28.69"/>
<polygon fill="#63b8ff" stroke="#63b8ff" points="622.15,-25.47 611.56,-25.47 619.84,-32.08 622.15,-25.47"/>
</g>
<!-- Node23 -->
<g id="node23" class="node">
<title>Node23</title>
<g id="a_node23"><a xlink:title=" ">
<polygon fill="#e0e0e0" stroke="#999999" points="539.03,-24.5 488.03,-24.5 488.03,-5.5 539.03,-5.5 539.03,-24.5"/>
<text text-anchor="middle" x="513.53" y="-12.5" font-family="Helvetica,sans-Serif" font-size="10.00">memory</text>
</a>
</g>
</g>
<!-- Node21&#45;&gt;Node23 -->
<g id="edge26" class="edge">
<title>Node21&#45;&gt;Node23</title>
<path fill="none" stroke="#63b8ff" d="M699.61,-65.56C658.23,-57.86 599.05,-45.53 548.53,-30 547.19,-29.59 545.83,-29.15 544.47,-28.69"/>
<polygon fill="#63b8ff" stroke="#63b8ff" points="546.07,-25.55 535.47,-25.39 543.65,-32.12 546.07,-25.55"/>
</g>
<!-- Node24 -->
<g id="node24" class="node">
<title>Node24</title>
<g id="a_node24"><a xlink:title=" ">
<polygon fill="#e0e0e0" stroke="#999999" points="702.03,-24.5 643.03,-24.5 643.03,-5.5 702.03,-5.5 702.03,-24.5"/>
<text text-anchor="middle" x="672.53" y="-12.5" font-family="Helvetica,sans-Serif" font-size="10.00">stdexcept</text>
</a>
</g>
</g>
<!-- Node21&#45;&gt;Node24 -->
<g id="edge27" class="edge">
<title>Node21&#45;&gt;Node24</title>
<path fill="none" stroke="#63b8ff" d="M739.53,-65.62C727.35,-56.6 708.24,-42.45 693.54,-31.56"/>
<polygon fill="#63b8ff" stroke="#63b8ff" points="695.97,-29.01 685.85,-25.87 691.81,-34.63 695.97,-29.01"/>
</g>
<!-- Node25 -->
<g id="node25" class="node">
<title>Node25</title>
<g id="a_node25"><a xlink:title=" ">
<polygon fill="#e0e0e0" stroke="#999999" points="786.53,-24.5 720.53,-24.5 720.53,-5.5 786.53,-5.5 786.53,-24.5"/>
<text text-anchor="middle" x="753.53" y="-12.5" font-family="Helvetica,sans-Serif" font-size="10.00">string_view</text>
</a>
</g>
</g>
<!-- Node21&#45;&gt;Node25 -->
<g id="edge29" class="edge">
<title>Node21&#45;&gt;Node25</title>
<path fill="none" stroke="#63b8ff" d="M751.82,-65.87C752.09,-58 752.5,-46.1 752.85,-35.89"/>
<polygon fill="#63b8ff" stroke="#63b8ff" points="756.33,-36.29 753.18,-26.18 749.34,-36.05 756.33,-36.29"/>
</g>
<!-- Node27 -->
<g id="node27" class="node">
<title>Node27</title>
<g id="a_node27"><a xlink:href="_reg_accessor_8hpp.html" target="_top" xlink:title=" ">
<polygon fill="white" stroke="#666666" points="694.03,-250 601.03,-250 601.03,-231 694.03,-231 694.03,-250"/>
<text text-anchor="middle" x="647.53" y="-238" font-family="Helvetica,sans-Serif" font-size="10.00">RegAccessor.hpp</text>
</a>
</g>
</g>
<!-- Node26&#45;&gt;Node27 -->
<g id="edge33" class="edge">
<title>Node26&#45;&gt;Node27</title>
<path fill="none" stroke="#63b8ff" d="M583.92,-291.12C595.37,-282.18 613.28,-268.22 627.17,-257.37"/>
<polygon fill="#63b8ff" stroke="#63b8ff" points="629.1,-260.31 634.84,-251.4 624.8,-254.79 629.1,-260.31"/>
</g>
<!-- Node28 -->
<g id="node28" class="node">
<title>Node28</title>
<g id="a_node28"><a xlink:href="_uio_if_8hpp.html" target="_top" xlink:title=" ">
<polygon fill="white" stroke="#666666" points="482.53,-195 392.53,-195 392.53,-176 482.53,-176 482.53,-195"/>
<text text-anchor="middle" x="437.53" y="-183" font-family="Helvetica,sans-Serif" font-size="10.00">udmaio/UioIf.hpp</text>
</a>
</g>
</g>
<!-- Node26&#45;&gt;Node28 -->
<g id="edge63" class="edge">
<title>Node26&#45;&gt;Node28</title>
<path fill="none" stroke="#63b8ff" d="M530.7,-291.04C506.27,-283.79 476.61,-271.2 457.53,-250 446.75,-238.03 441.78,-220.28 439.49,-206.58"/>
<polygon fill="#63b8ff" stroke="#63b8ff" points="442.99,-206.4 438.24,-196.93 436.05,-207.3 442.99,-206.4"/>
</g>
<!-- Node37 -->
<g id="node37" class="node">
<title>Node37</title>
<g id="a_node37"><a xlink:href="_axi_dma_8hpp.html" target="_top" xlink:title=" ">
<polygon fill="white" stroke="#666666" points="582.53,-250 466.53,-250 466.53,-231 582.53,-231 582.53,-250"/>
<text text-anchor="middle" x="524.53" y="-238" font-family="Helvetica,sans-Serif" font-size="10.00">udmaio/rdl/AxiDma.hpp</text>
</a>
</g>
</g>
<!-- Node26&#45;&gt;Node37 -->
<g id="edge64" class="edge">
<title>Node26&#45;&gt;Node37</title>
<path fill="none" stroke="#63b8ff" d="M565.44,-291.37C558.5,-282.9 547.7,-269.74 538.94,-259.07"/>
<polygon fill="#63b8ff" stroke="#63b8ff" points="541.65,-256.85 532.6,-251.34 536.24,-261.29 541.65,-256.85"/>
</g>
<!-- Node27&#45;&gt;Node5 -->
<g id="edge34" class="edge">
<title>Node27&#45;&gt;Node5</title>
<path fill="none" stroke="#63b8ff" d="M637.01,-230.51C628.14,-222.93 615.22,-211.88 604.54,-202.75"/>
<polygon fill="#63b8ff" stroke="#63b8ff" points="606.91,-200.18 597.04,-196.34 602.37,-205.5 606.91,-200.18"/>
</g>
<!-- Node27&#45;&gt;Node28 -->
<g id="edge35" class="edge">
<title>Node27&#45;&gt;Node28</title>
<path fill="none" stroke="#63b8ff" d="M611.9,-230.51C576.65,-221.61 522.51,-207.95 483.92,-198.21"/>
<polygon fill="#63b8ff" stroke="#63b8ff" points="484.99,-194.87 474.44,-195.82 483.28,-201.66 484.99,-194.87"/>
</g>
<!-- Node28&#45;&gt;Node7 -->
<g id="edge40" class="edge">
<title>Node28&#45;&gt;Node7</title>
<path fill="none" stroke="#63b8ff" d="M482.72,-177.78C527.97,-170.51 599.34,-157.56 659.53,-140 681.95,-133.46 686.56,-128.95 708.53,-121 755.71,-103.93 781.8,-122.15 815.53,-85 827.54,-71.77 831.07,-51.33 831.88,-36.12"/>
<polygon fill="#63b8ff" stroke="#63b8ff" points="835.37,-36.42 832.02,-26.37 828.37,-36.32 835.37,-36.42"/>
</g>
<!-- Node28&#45;&gt;Node10 -->
<g id="edge41" class="edge">
<title>Node28&#45;&gt;Node10</title>
<path fill="none" stroke="#63b8ff" d="M482.9,-178.65C536.97,-171.32 629.88,-157.54 708.53,-140 774.4,-125.31 849.63,-102.77 893.99,-88.87"/>
<polygon fill="#63b8ff" stroke="#63b8ff" points="894.92,-92.24 903.41,-85.9 892.82,-85.57 894.92,-92.24"/>
</g>
<!-- Node28&#45;&gt;Node11 -->
<g id="edge61" class="edge">
<title>Node28&#45;&gt;Node11</title>
<path fill="none" stroke="#63b8ff" d="M483,-178.3C545.54,-169.75 661.58,-153.84 760.53,-140 907.02,-119.5 1080.45,-94.72 1161.49,-83.11"/>
<polygon fill="#63b8ff" stroke="#63b8ff" points="1161.86,-86.59 1171.26,-81.7 1160.86,-79.66 1161.86,-86.59"/>
</g>
<!-- Node28&#45;&gt;Node21 -->
<g id="edge62" class="edge">
<title>Node28&#45;&gt;Node21</title>
<path fill="none" stroke="#63b8ff" d="M482.7,-176.66C520.89,-169.33 576.7,-156.97 623.53,-140 660.67,-126.54 701.13,-105.25 726.41,-91.09"/>
<polygon fill="#63b8ff" stroke="#63b8ff" points="727.98,-94.22 734.95,-86.24 724.52,-88.13 727.98,-94.22"/>
</g>
<!-- Node28&#45;&gt;Node22 -->
<g id="edge38" class="edge">
<title>Node28&#45;&gt;Node22</title>
<path fill="none" stroke="#63b8ff" d="M392.08,-184.88C269.78,-184.5 -50.5,-173.52 49.53,-66 87.31,-25.38 493.35,-41.94 547.53,-30 549.42,-29.58 551.34,-29.09 553.27,-28.54"/>
<polygon fill="#63b8ff" stroke="#63b8ff" points="554.29,-31.89 562.67,-25.41 552.08,-25.25 554.29,-31.89"/>
</g>
<!-- Node28&#45;&gt;Node23 -->
<g id="edge39" class="edge">
<title>Node28&#45;&gt;Node23</title>
<path fill="none" stroke="#63b8ff" d="M392.16,-183.06C288.51,-179.32 41.32,-167.56 16.53,-140 -5.47,-115.55 -5.53,-90.39 16.53,-66 47.26,-32.02 365.93,-20.07 476.21,-16.93"/>
<polygon fill="#63b8ff" stroke="#63b8ff" points="476.3,-20.43 486.2,-16.66 476.11,-13.43 476.3,-20.43"/>
</g>
<!-- Node29 -->
<g id="node29" class="node">
<title>Node29</title>
<g id="a_node29"><a xlink:title=" ">
<polygon fill="#e0e0e0" stroke="#999999" points="434.53,-85 374.53,-85 374.53,-66 434.53,-66 434.53,-85"/>
<text text-anchor="middle" x="404.53" y="-73" font-family="Helvetica,sans-Serif" font-size="10.00">filesystem</text>
</a>
</g>
</g>
<!-- Node28&#45;&gt;Node29 -->
<g id="edge36" class="edge">
<title>Node28&#45;&gt;Node29</title>
<path fill="none" stroke="#63b8ff" d="M434.41,-175.68C431.28,-166.73 426.39,-152.46 422.53,-140 418,-125.39 413.3,-108.75 409.83,-96.17"/>
<polygon fill="#63b8ff" stroke="#63b8ff" points="413.24,-95.36 407.24,-86.63 406.49,-97.2 413.24,-95.36"/>
</g>
<!-- Node30 -->
<g id="node30" class="node">
<title>Node30</title>
<g id="a_node30"><a xlink:title=" ">
<polygon fill="#e0e0e0" stroke="#999999" points="502.53,-85 452.53,-85 452.53,-66 502.53,-66 502.53,-85"/>
<text text-anchor="middle" x="477.53" y="-73" font-family="Helvetica,sans-Serif" font-size="10.00">fstream</text>
</a>
</g>
</g>
<!-- Node28&#45;&gt;Node30 -->
<g id="edge37" class="edge">
<title>Node28&#45;&gt;Node30</title>
<path fill="none" stroke="#63b8ff" d="M439.48,-175.71C442.36,-163.3 448.2,-140.03 455.53,-121 458.82,-112.46 463.16,-103.35 467.12,-95.62"/>
<polygon fill="#63b8ff" stroke="#63b8ff" points="470.19,-97.3 471.77,-86.82 464,-94.03 470.19,-97.3"/>
</g>
<!-- Node31 -->
<g id="node31" class="node">
<title>Node31</title>
<g id="a_node31"><a xlink:title=" ">
<polygon fill="#e0e0e0" stroke="#999999" points="678.03,-85 635.03,-85 635.03,-66 678.03,-66 678.03,-85"/>
<text text-anchor="middle" x="656.53" y="-73" font-family="Helvetica,sans-Serif" font-size="10.00">fcntl.h</text>
</a>
</g>
</g>
<!-- Node28&#45;&gt;Node31 -->
<g id="edge42" class="edge">
<title>Node28&#45;&gt;Node31</title>
<path fill="none" stroke="#63b8ff" d="M482.92,-178.88C516.76,-173.1 563.05,-161.76 598.53,-140 617.37,-128.44 633.82,-109.01 644.34,-94.68"/>
<polygon fill="#63b8ff" stroke="#63b8ff" points="647.15,-96.77 650.03,-86.57 641.42,-92.75 647.15,-96.77"/>
</g>
<!-- Node32 -->
<g id="node32" class="node">
<title>Node32</title>
<g id="a_node32"><a xlink:title=" ">
<polygon fill="#e0e0e0" stroke="#999999" points="128.03,-85 59.03,-85 59.03,-66 128.03,-66 128.03,-85"/>
<text text-anchor="middle" x="93.53" y="-73" font-family="Helvetica,sans-Serif" font-size="10.00">sys/mman.h</text>
</a>
</g>
</g>
<!-- Node28&#45;&gt;Node32 -->
<g id="edge43" class="edge">
<title>Node28&#45;&gt;Node32</title>
<path fill="none" stroke="#63b8ff" d="M406.42,-175.55C376.03,-166.74 328.5,-152.78 287.53,-140 232.87,-122.95 169.94,-102.13 130.94,-89.09"/>
<polygon fill="#63b8ff" stroke="#63b8ff" points="132.15,-85.81 121.56,-85.95 129.93,-92.44 132.15,-85.81"/>
</g>
<!-- Node33 -->
<g id="node33" class="node">
<title>Node33</title>
<g id="a_node33"><a xlink:title=" ">
<polygon fill="#e0e0e0" stroke="#999999" points="205.03,-85 146.03,-85 146.03,-66 205.03,-66 205.03,-85"/>
<text text-anchor="middle" x="175.53" y="-73" font-family="Helvetica,sans-Serif" font-size="10.00">sys/stat.h</text>
</a>
</g>
</g>
<!-- Node28&#45;&gt;Node33 -->
<g id="edge44" class="edge">
<title>Node28&#45;&gt;Node33</title>
<path fill="none" stroke="#63b8ff" d="M416.09,-175.66C370.12,-156.72 261.89,-112.1 207.66,-89.75"/>
<polygon fill="#63b8ff" stroke="#63b8ff" points="209.24,-86.61 198.66,-86.04 206.57,-93.08 209.24,-86.61"/>
</g>
<!-- Node34 -->
<g id="node34" class="node">
<title>Node34</title>
<g id="a_node34"><a xlink:title=" ">
<polygon fill="#e0e0e0" stroke="#999999" points="288.03,-85 223.03,-85 223.03,-66 288.03,-66 288.03,-85"/>
<text text-anchor="middle" x="255.53" y="-73" font-family="Helvetica,sans-Serif" font-size="10.00">sys/types.h</text>
</a>
</g>
</g>
<!-- Node28&#45;&gt;Node34 -->
<g id="edge45" class="edge">
<title>Node28&#45;&gt;Node34</title>
<path fill="none" stroke="#63b8ff" d="M422.63,-175.66C391.44,-157.15 318.95,-114.13 280.5,-91.32"/>
<polygon fill="#63b8ff" stroke="#63b8ff" points="282.31,-88.33 271.93,-86.23 278.74,-94.35 282.31,-88.33"/>
</g>
<!-- Node35 -->
<g id="node35" class="node">
<title>Node35</title>
<g id="a_node35"><a xlink:title=" ">
<polygon fill="#e0e0e0" stroke="#999999" points="356.53,-85 306.53,-85 306.53,-66 356.53,-66 356.53,-85"/>
<text text-anchor="middle" x="331.53" y="-73" font-family="Helvetica,sans-Serif" font-size="10.00">unistd.h</text>
</a>
</g>
</g>
<!-- Node28&#45;&gt;Node35 -->
<g id="edge46" class="edge">
<title>Node28&#45;&gt;Node35</title>
<path fill="none" stroke="#63b8ff" d="M428.85,-175.66C411.23,-157.7 370.97,-116.69 348.14,-93.42"/>
<polygon fill="#63b8ff" stroke="#63b8ff" points="350.88,-91.23 341.38,-86.54 345.89,-96.13 350.88,-91.23"/>
</g>
<!-- Node36 -->
<g id="node36" class="node">
<title>Node36</title>
<g id="a_node36"><a xlink:href="_hw_accessor_8hpp.html" target="_top" xlink:title=" ">
<polygon fill="white" stroke="#666666" points="590.03,-140 465.03,-140 465.03,-121 590.03,-121 590.03,-140"/>
<text text-anchor="middle" x="527.53" y="-128" font-family="Helvetica,sans-Serif" font-size="10.00">udmaio/HwAccessor.hpp</text>
</a>
</g>
</g>
<!-- Node28&#45;&gt;Node36 -->
<g id="edge47" class="edge">
<title>Node28&#45;&gt;Node36</title>
<path fill="none" stroke="#63b8ff" d="M452.79,-175.51C466.45,-167.47 486.73,-155.53 502.71,-146.11"/>
<polygon fill="#63b8ff" stroke="#63b8ff" points="504.34,-149.22 511.18,-141.13 500.79,-143.18 504.34,-149.22"/>
</g>
<!-- Node36&#45;&gt;Node7 -->
<g id="edge52" class="edge">
<title>Node36&#45;&gt;Node7</title>
<path fill="none" stroke="#63b8ff" d="M538.24,-120.64C555.51,-106.82 591.05,-80.24 625.53,-66 696.91,-36.51 721.52,-52.07 795.53,-30 797.09,-29.53 798.69,-29.03 800.29,-28.5"/>
<polygon fill="#63b8ff" stroke="#63b8ff" points="801.13,-31.91 809.36,-25.24 798.77,-25.32 801.13,-31.91"/>
</g>
<!-- Node36&#45;&gt;Node10 -->
<g id="edge53" class="edge">
<title>Node36&#45;&gt;Node10</title>
<path fill="none" stroke="#63b8ff" d="M590.36,-121.28C660.99,-112.03 775.8,-97.01 852.72,-86.94"/>
<polygon fill="#63b8ff" stroke="#63b8ff" points="852.82,-90.46 862.28,-85.69 851.91,-83.52 852.82,-90.46"/>
</g>
<!-- Node36&#45;&gt;Node11 -->
<g id="edge59" class="edge">
<title>Node36&#45;&gt;Node11</title>
<path fill="none" stroke="#63b8ff" d="M590.28,-124.61C725.67,-114.06 1042.55,-89.36 1161.4,-80.09"/>
<polygon fill="#63b8ff" stroke="#63b8ff" points="1161.4,-83.61 1171.1,-79.34 1160.85,-76.63 1161.4,-83.61"/>
</g>
<!-- Node36&#45;&gt;Node21 -->
<g id="edge60" class="edge">
<title>Node36&#45;&gt;Node21</title>
<path fill="none" stroke="#63b8ff" d="M565.53,-120.51C603.29,-111.57 661.37,-97.83 702.57,-88.08"/>
<polygon fill="#63b8ff" stroke="#63b8ff" points="703.32,-91.5 712.24,-85.79 701.71,-84.69 703.32,-91.5"/>
</g>
<!-- Node36&#45;&gt;Node22 -->
<g id="edge50" class="edge">
<title>Node36&#45;&gt;Node22</title>
<path fill="none" stroke="#63b8ff" d="M532,-120.59C541.24,-102.19 562.61,-59.64 575.06,-34.85"/>
<polygon fill="#63b8ff" stroke="#63b8ff" points="578.04,-36.72 579.4,-26.22 571.78,-33.58 578.04,-36.72"/>
</g>
<!-- Node36&#45;&gt;Node23 -->
<g id="edge51" class="edge">
<title>Node36&#45;&gt;Node23</title>
<path fill="none" stroke="#63b8ff" d="M526.43,-120.59C524.2,-102.53 519.1,-61.17 516.02,-36.21"/>
<polygon fill="#63b8ff" stroke="#63b8ff" points="519.5,-35.86 514.81,-26.37 512.56,-36.72 519.5,-35.86"/>
</g>
<!-- Node36&#45;&gt;Node29 -->
<g id="edge48" class="edge">
<title>Node36&#45;&gt;Node29</title>
<path fill="none" stroke="#63b8ff" d="M506.66,-120.51C487.11,-112.08 457.63,-99.38 435.36,-89.79"/>
<polygon fill="#63b8ff" stroke="#63b8ff" points="437.04,-86.7 426.47,-85.96 434.27,-93.13 437.04,-86.7"/>
</g>
<!-- Node36&#45;&gt;Node30 -->
<g id="edge49" class="edge">
<title>Node36&#45;&gt;Node30</title>
<path fill="none" stroke="#63b8ff" d="M519.27,-120.75C512.36,-113.43 502.3,-102.76 493.79,-93.74"/>
<polygon fill="#63b8ff" stroke="#63b8ff" points="496.41,-91.42 487,-86.54 491.32,-96.22 496.41,-91.42"/>
</g>
<!-- Node36&#45;&gt;Node31 -->
<g id="edge54" class="edge">
<title>Node36&#45;&gt;Node31</title>
<path fill="none" stroke="#63b8ff" d="M549.41,-120.51C570.01,-112.04 601.11,-99.27 624.51,-89.66"/>
<polygon fill="#63b8ff" stroke="#63b8ff" points="625.65,-92.97 633.57,-85.93 622.99,-86.5 625.65,-92.97"/>
</g>
<!-- Node36&#45;&gt;Node32 -->
<g id="edge55" class="edge">
<title>Node36&#45;&gt;Node32</title>
<path fill="none" stroke="#63b8ff" d="M464.67,-123.94C389.59,-116.95 259.95,-103.75 139.47,-85.35"/>
<polygon fill="#63b8ff" stroke="#63b8ff" points="140.13,-81.91 129.71,-83.84 139.06,-88.83 140.13,-81.91"/>
</g>
<!-- Node36&#45;&gt;Node33 -->
<g id="edge56" class="edge">
<title>Node36&#45;&gt;Node33</title>
<path fill="none" stroke="#63b8ff" d="M464.74,-122.09C403.66,-114.55 308.02,-101.85 216.49,-85.43"/>
<polygon fill="#63b8ff" stroke="#63b8ff" points="217.31,-82.02 206.84,-83.68 216.06,-88.91 217.31,-82.02"/>
</g>
<!-- Node36&#45;&gt;Node34 -->
<g id="edge57" class="edge">
<title>Node36&#45;&gt;Node34</title>
<path fill="none" stroke="#63b8ff" d="M480.81,-120.58C436.68,-112.13 368.34,-98.98 299.18,-85.31"/>
<polygon fill="#63b8ff" stroke="#63b8ff" points="300.05,-81.92 289.57,-83.41 298.7,-88.78 300.05,-81.92"/>
</g>
<!-- Node36&#45;&gt;Node35 -->
<g id="edge58" class="edge">
<title>Node36&#45;&gt;Node35</title>
<path fill="none" stroke="#63b8ff" d="M494.28,-120.51C459.19,-111.02 404.07,-96.12 367.86,-86.32"/>
<polygon fill="#63b8ff" stroke="#63b8ff" points="368.85,-82.97 358.28,-83.73 367.02,-89.72 368.85,-82.97"/>
</g>
<!-- Node37&#45;&gt;Node5 -->
<g id="edge65" class="edge">
<title>Node37&#45;&gt;Node5</title>
<path fill="none" stroke="#63b8ff" d="M534.87,-230.51C543.6,-222.93 556.32,-211.88 566.82,-202.75"/>
<polygon fill="#63b8ff" stroke="#63b8ff" points="568.94,-205.55 574.19,-196.35 564.34,-200.27 568.94,-205.55"/>
</g>
<!-- Node38&#45;&gt;Node20 -->
<g id="edge67" class="edge">
<title>Node38&#45;&gt;Node20</title>
<path fill="none" stroke="#63b8ff" d="M738.99,-291.37C744.23,-283.07 752.33,-270.28 759,-259.72"/>
<polygon fill="#63b8ff" stroke="#63b8ff" points="761.85,-261.77 764.24,-251.45 755.93,-258.03 761.85,-261.77"/>
</g>
<!-- Node38&#45;&gt;Node27 -->
<g id="edge68" class="edge">
<title>Node38&#45;&gt;Node27</title>
<path fill="none" stroke="#63b8ff" d="M720.47,-291.12C707.08,-282.01 686.01,-267.68 669.95,-256.75"/>
<polygon fill="#63b8ff" stroke="#63b8ff" points="672.2,-254.05 661.96,-251.32 668.26,-259.84 672.2,-254.05"/>
</g>
</g>
</svg>
