<?xml version="1.0" encoding="UTF-8" standalone="no"?>
<!DOCTYPE svg PUBLIC "-//W3C//DTD SVG 1.1//EN"
 "http://www.w3.org/Graphics/SVG/1.1/DTD/svg11.dtd">
<!-- Generated by graphviz version 7.0.5 (20221223.1930)
 -->
<!-- Title: DataHandlerPrint.cpp Pages: 1 -->
<!--zoomable 434 -->
<svg id="main" version="1.1" xmlns="http://www.w3.org/2000/svg" xmlns:xlink="http://www.w3.org/1999/xlink" xml:space="preserve" onload="init(evt)">
<style type="text/css"><![CDATA[
.edge:hover path { stroke: red; }
.edge:hover polygon { stroke: red; fill: red; }
]]></style>
<script type="text/javascript"><![CDATA[
var edges = document.getElementsByTagName('g');
if (edges && edges.length) {
  for (var i=0;i<edges.length;i++) {
    if (edges[i].id.substr(0,4)=='edge') {
      edges[i].setAttribute('class','edge');
    }
  }
}
]]></script>
        <defs>
                <circle id="rim" cx="0" cy="0" r="7"/>
                <circle id="rim2" cx="0" cy="0" r="3.5"/>
                <g id="zoomPlus">
                        <use xlink:href="#rim" fill="#404040">
                                <set attributeName="fill" to="#808080" begin="zoomplus.mouseover" end="zoomplus.mouseout"/>
                        </use>
                        <path d="M-4,0h8M0,-4v8" fill="none" stroke="white" stroke-width="1.5" pointer-events="none"/>
                </g>
                <g id="zoomMin">
                        <use xlink:href="#rim" fill="#404040">
                                <set attributeName="fill" to="#808080" begin="zoomminus.mouseover" end="zoomminus.mouseout"/>
                        </use>
                        <path d="M-4,0h8" fill="none" stroke="white" stroke-width="1.5" pointer-events="none"/>
                </g>
                <g id="dirArrow">
                        <path fill="none" stroke="white" stroke-width="1.5" d="M0,-3.0v7 M-2.5,-0.5L0,-3.0L2.5,-0.5"/>
                </g>
               <g id="resetDef">
                       <use xlink:href="#rim2" fill="#404040">
                               <set attributeName="fill" to="#808080" begin="reset.mouseover" end="reset.mouseout"/>
                       </use>
               </g>
        </defs>

<script type="text/javascript">
var viewWidth = 1859;
var viewHeight = 434;
var sectionId = 'dynsection-0';
</script>
<script xlink:href="svgpan.js"/>
<svg id="graph" class="graph">
<g id="viewport">
<title>DataHandlerPrint.cpp</title>
<!-- Node1 -->
<g id="node1" class="node">
<title>Node1</title>
<g id="a_node1"><a xlink:title=" ">
<polygon fill="#999999" stroke="#666666" points="1833,-426 1724,-426 1724,-407 1833,-407 1833,-426"/>
<text text-anchor="middle" x="1778.5" y="-414" font-family="Helvetica,sans-Serif" font-size="10.00">DataHandlerPrint.cpp</text>
</a>
</g>
</g>
<!-- Node2 -->
<g id="node2" class="node">
<title>Node2</title>
<g id="a_node2"><a xlink:href="_data_handler_print_8hpp.html" target="_top" xlink:title=" ">
<polygon fill="white" stroke="#666666" points="1482,-371 1373,-371 1373,-352 1482,-352 1482,-371"/>
<text text-anchor="middle" x="1427.5" y="-359" font-family="Helvetica,sans-Serif" font-size="10.00">DataHandlerPrint.hpp</text>
</a>
</g>
</g>
<!-- Node1&#45;&gt;Node2 -->
<g id="edge1" class="edge">
<title>Node1&#45;&gt;Node2</title>
<path fill="none" stroke="#63b8ff" d="M1723.66,-407.22C1661.41,-397.82 1559.92,-382.5 1493.42,-372.45"/>
<polygon fill="#63b8ff" stroke="#63b8ff" points="1494.15,-369.03 1483.74,-370.99 1493.11,-375.95 1494.15,-369.03"/>
</g>
<!-- Node23 -->
<g id="node23" class="node">
<title>Node23</title>
<g id="a_node23"><a xlink:title=" ">
<polygon fill="#e0e0e0" stroke="#999999" points="1689.5,-24.5 1635.5,-24.5 1635.5,-5.5 1689.5,-5.5 1689.5,-24.5"/>
<text text-anchor="middle" x="1662.5" y="-12.5" font-family="Helvetica,sans-Serif" font-size="10.00">iostream</text>
</a>
</g>
</g>
<!-- Node1&#45;&gt;Node23 -->
<g id="edge57" class="edge">
<title>Node1&#45;&gt;Node23</title>
<path fill="none" stroke="#63b8ff" d="M1778.5,-406.54C1778.5,-388.03 1778.5,-344.25 1778.5,-307.5 1778.5,-307.5 1778.5,-307.5 1778.5,-129.5 1778.5,-100.04 1778.31,-88.67 1759.5,-66 1744.29,-47.67 1720.62,-35.29 1700.48,-27.43"/>
<polygon fill="#63b8ff" stroke="#63b8ff" points="1701.74,-24.16 1691.14,-24.04 1699.35,-30.74 1701.74,-24.16"/>
</g>
<!-- Node41 -->
<g id="node41" class="node">
<title>Node41</title>
<g id="a_node41"><a xlink:title=" ">
<polygon fill="#e0e0e0" stroke="#999999" points="1850.5,-371 1806.5,-371 1806.5,-352 1850.5,-352 1850.5,-371"/>
<text text-anchor="middle" x="1828.5" y="-359" font-family="Helvetica,sans-Serif" font-size="10.00">thread</text>
</a>
</g>
</g>
<!-- Node1&#45;&gt;Node41 -->
<g id="edge58" class="edge">
<title>Node1&#45;&gt;Node41</title>
<path fill="none" stroke="#63b8ff" d="M1786.76,-406.75C1793.66,-399.43 1803.72,-388.76 1812.24,-379.74"/>
<polygon fill="#63b8ff" stroke="#63b8ff" points="1814.71,-382.22 1819.03,-372.54 1809.62,-377.42 1814.71,-382.22"/>
</g>
<!-- Node3 -->
<g id="node3" class="node">
<title>Node3</title>
<g id="a_node3"><a xlink:title=" ">
<polygon fill="#e0e0e0" stroke="#999999" points="1505.5,-316 1455.5,-316 1455.5,-297 1505.5,-297 1505.5,-316"/>
<text text-anchor="middle" x="1480.5" y="-304" font-family="Helvetica,sans-Serif" font-size="10.00">optional</text>
</a>
</g>
</g>
<!-- Node2&#45;&gt;Node3 -->
<g id="edge2" class="edge">
<title>Node2&#45;&gt;Node3</title>
<path fill="none" stroke="#63b8ff" d="M1436.25,-351.75C1443.65,-344.35 1454.46,-333.54 1463.55,-324.45"/>
<polygon fill="#63b8ff" stroke="#63b8ff" points="1465.89,-327.06 1470.49,-317.51 1460.94,-322.11 1465.89,-327.06"/>
</g>
<!-- Node4 -->
<g id="node4" class="node">
<title>Node4</title>
<g id="a_node4"><a xlink:title=" ">
<polygon fill="#e0e0e0" stroke="#999999" points="890,-316 851,-316 851,-297 890,-297 890,-316"/>
<text text-anchor="middle" x="870.5" y="-304" font-family="Helvetica,sans-Serif" font-size="10.00">utility</text>
</a>
</g>
</g>
<!-- Node2&#45;&gt;Node4 -->
<g id="edge3" class="edge">
<title>Node2&#45;&gt;Node4</title>
<path fill="none" stroke="#63b8ff" d="M1372.67,-359.5C1278.18,-356.99 1078.59,-348.24 901.44,-315.95"/>
<polygon fill="#63b8ff" stroke="#63b8ff" points="902.3,-312.55 891.83,-314.16 901.02,-319.43 902.3,-312.55"/>
</g>
<!-- Node5 -->
<g id="node5" class="node">
<title>Node5</title>
<g id="a_node5"><a xlink:href="_axi_traffic_gen_lfsr_8hpp.html" target="_top" xlink:title=" ">
<polygon fill="white" stroke="#666666" points="1502.5,-195 1392.5,-195 1392.5,-176 1502.5,-176 1502.5,-195"/>
<text text-anchor="middle" x="1447.5" y="-183" font-family="Helvetica,sans-Serif" font-size="10.00">AxiTrafficGenLfsr.hpp</text>
</a>
</g>
</g>
<!-- Node2&#45;&gt;Node5 -->
<g id="edge4" class="edge">
<title>Node2&#45;&gt;Node5</title>
<path fill="none" stroke="#63b8ff" d="M1428.52,-351.63C1431.61,-324.75 1440.92,-243.73 1445.25,-206.1"/>
<polygon fill="#63b8ff" stroke="#63b8ff" points="1448.67,-206.98 1446.33,-196.65 1441.71,-206.18 1448.67,-206.98"/>
</g>
<!-- Node7 -->
<g id="node7" class="node">
<title>Node7</title>
<g id="a_node7"><a xlink:href="_data_handler_abstract_8hpp.html" target="_top" xlink:title=" ">
<polygon fill="white" stroke="#666666" points="1068.5,-316 908.5,-316 908.5,-297 1068.5,-297 1068.5,-316"/>
<text text-anchor="middle" x="988.5" y="-304" font-family="Helvetica,sans-Serif" font-size="10.00">udmaio/DataHandlerAbstract.hpp</text>
</a>
</g>
</g>
<!-- Node2&#45;&gt;Node7 -->
<g id="edge6" class="edge">
<title>Node2&#45;&gt;Node7</title>
<path fill="none" stroke="#63b8ff" d="M1372.79,-353.89C1297.92,-344.86 1162.78,-328.54 1074.36,-317.87"/>
<polygon fill="#63b8ff" stroke="#63b8ff" points="1074.86,-314.4 1064.51,-316.68 1074.02,-321.35 1074.86,-314.4"/>
</g>
<!-- Node6 -->
<g id="node6" class="node">
<title>Node6</title>
<g id="a_node6"><a xlink:title=" ">
<polygon fill="#e0e0e0" stroke="#999999" points="1365.5,-140 1319.5,-140 1319.5,-121 1365.5,-121 1365.5,-140"/>
<text text-anchor="middle" x="1342.5" y="-128" font-family="Helvetica,sans-Serif" font-size="10.00">cstdint</text>
</a>
</g>
</g>
<!-- Node5&#45;&gt;Node6 -->
<g id="edge5" class="edge">
<title>Node5&#45;&gt;Node6</title>
<path fill="none" stroke="#63b8ff" d="M1429.69,-175.51C1413.37,-167.27 1388.97,-154.96 1370.13,-145.45"/>
<polygon fill="#63b8ff" stroke="#63b8ff" points="1371.9,-142.42 1361.4,-141.04 1368.75,-148.67 1371.9,-142.42"/>
</g>
<!-- Node8 -->
<g id="node8" class="node">
<title>Node8</title>
<g id="a_node8"><a xlink:title=" ">
<polygon fill="#e0e0e0" stroke="#999999" points="968,-24.5 927,-24.5 927,-5.5 968,-5.5 968,-24.5"/>
<text text-anchor="middle" x="947.5" y="-12.5" font-family="Helvetica,sans-Serif" font-size="10.00">string</text>
</a>
</g>
</g>
<!-- Node7&#45;&gt;Node8 -->
<g id="edge7" class="edge">
<title>Node7&#45;&gt;Node8</title>
<path fill="none" stroke="#63b8ff" d="M922.52,-296.51C858.29,-287.18 768.59,-272.39 756.5,-261 731.62,-237.58 737.5,-220.67 737.5,-186.5 737.5,-186.5 737.5,-186.5 737.5,-129.5 737.5,-100.04 734.95,-86.08 756.5,-66 810.15,-16.02 848.09,-53.64 917.5,-30 918.15,-29.78 918.8,-29.55 919.45,-29.31"/>
<polygon fill="#63b8ff" stroke="#63b8ff" points="920.7,-32.58 928.6,-25.52 918.02,-26.12 920.7,-32.58"/>
</g>
<!-- Node9 -->
<g id="node9" class="node">
<title>Node9</title>
<g id="a_node9"><a xlink:title=" ">
<polygon fill="#e0e0e0" stroke="#999999" points="944.5,-140 900.5,-140 900.5,-121 944.5,-121 944.5,-140"/>
<text text-anchor="middle" x="922.5" y="-128" font-family="Helvetica,sans-Serif" font-size="10.00">vector</text>
</a>
</g>
</g>
<!-- Node7&#45;&gt;Node9 -->
<g id="edge8" class="edge">
<title>Node7&#45;&gt;Node9</title>
<path fill="none" stroke="#63b8ff" d="M968.55,-296.56C954.67,-289.17 937.16,-277.25 928.5,-261 909.95,-226.18 913.99,-178.32 918.38,-151.61"/>
<polygon fill="#63b8ff" stroke="#63b8ff" points="921.81,-152.3 920.19,-141.83 914.93,-151.03 921.81,-152.3"/>
</g>
<!-- Node10 -->
<g id="node10" class="node">
<title>Node10</title>
<g id="a_node10"><a xlink:title=" ">
<polygon fill="#e0e0e0" stroke="#999999" points="1137.5,-255.5 1057.5,-255.5 1057.5,-236.5 1137.5,-236.5 1137.5,-255.5"/>
<text text-anchor="middle" x="1097.5" y="-243.5" font-family="Helvetica,sans-Serif" font-size="10.00">boost/asio.hpp</text>
</a>
</g>
</g>
<!-- Node7&#45;&gt;Node10 -->
<g id="edge9" class="edge">
<title>Node7&#45;&gt;Node10</title>
<path fill="none" stroke="#63b8ff" d="M1005.05,-296.62C1022.5,-287.25 1050.25,-272.36 1070.79,-261.33"/>
<polygon fill="#63b8ff" stroke="#63b8ff" points="1072.3,-264.5 1079.46,-256.68 1068.99,-258.33 1072.3,-264.5"/>
</g>
<!-- Node11 -->
<g id="node11" class="node">
<title>Node11</title>
<g id="a_node11"><a xlink:title=" ">
<polygon fill="#e0e0e0" stroke="#999999" points="903,-85 766,-85 766,-66 903,-66 903,-85"/>
<text text-anchor="middle" x="834.5" y="-73" font-family="Helvetica,sans-Serif" font-size="10.00">boost/core/noncopyable.hpp</text>
</a>
</g>
</g>
<!-- Node7&#45;&gt;Node11 -->
<g id="edge10" class="edge">
<title>Node7&#45;&gt;Node11</title>
<path fill="none" stroke="#63b8ff" d="M966.23,-296.57C950.06,-289.12 928.62,-277.13 914.5,-261 870.47,-210.72 847.55,-132.47 838.8,-96.2"/>
<polygon fill="#63b8ff" stroke="#63b8ff" points="842.27,-95.67 836.62,-86.71 835.44,-97.24 842.27,-95.67"/>
</g>
<!-- Node12 -->
<g id="node12" class="node">
<title>Node12</title>
<g id="a_node12"><a xlink:href="_logging_8hpp.html" target="_top" xlink:title=" ">
<polygon fill="white" stroke="#666666" points="709,-85 640,-85 640,-66 709,-66 709,-85"/>
<text text-anchor="middle" x="674.5" y="-73" font-family="Helvetica,sans-Serif" font-size="10.00">Logging.hpp</text>
</a>
</g>
</g>
<!-- Node7&#45;&gt;Node12 -->
<g id="edge11" class="edge">
<title>Node7&#45;&gt;Node12</title>
<path fill="none" stroke="#63b8ff" d="M908.75,-296.51C835.8,-287.58 737.19,-273.47 723.5,-261 676.28,-217.98 672.39,-135.16 673.35,-96.85"/>
<polygon fill="#63b8ff" stroke="#63b8ff" points="676.84,-97.14 673.75,-87 669.84,-96.85 676.84,-97.14"/>
</g>
<!-- Node20 -->
<g id="node20" class="node">
<title>Node20</title>
<g id="a_node20"><a xlink:href="_u_dma_buf_8hpp.html" target="_top" xlink:title=" ">
<polygon fill="white" stroke="#666666" points="843,-255.5 766,-255.5 766,-236.5 843,-236.5 843,-255.5"/>
<text text-anchor="middle" x="804.5" y="-243.5" font-family="Helvetica,sans-Serif" font-size="10.00">UDmaBuf.hpp</text>
</a>
</g>
</g>
<!-- Node7&#45;&gt;Node20 -->
<g id="edge20" class="edge">
<title>Node7&#45;&gt;Node20</title>
<path fill="none" stroke="#63b8ff" d="M960.55,-296.62C929.35,-286.69 878.62,-270.57 843.51,-259.4"/>
<polygon fill="#63b8ff" stroke="#63b8ff" points="844.74,-256.12 834.15,-256.43 842.62,-262.79 844.74,-256.12"/>
</g>
<!-- Node27 -->
<g id="node27" class="node">
<title>Node27</title>
<g id="a_node27"><a xlink:href="_uio_axi_dma_if_8hpp.html" target="_top" xlink:title=" ">
<polygon fill="white" stroke="#666666" points="1383,-255.5 1294,-255.5 1294,-236.5 1383,-236.5 1383,-255.5"/>
<text text-anchor="middle" x="1338.5" y="-243.5" font-family="Helvetica,sans-Serif" font-size="10.00">UioAxiDmaIf.hpp</text>
</a>
</g>
</g>
<!-- Node7&#45;&gt;Node27 -->
<g id="edge32" class="edge">
<title>Node7&#45;&gt;Node27</title>
<path fill="none" stroke="#63b8ff" d="M1062.78,-296.52C1122.87,-288.73 1209.53,-276.31 1284.5,-261 1287.9,-260.31 1291.41,-259.53 1294.93,-258.71"/>
<polygon fill="#63b8ff" stroke="#63b8ff" points="1295.72,-262.12 1304.6,-256.35 1294.06,-255.32 1295.72,-262.12"/>
</g>
<!-- Node39 -->
<g id="node39" class="node">
<title>Node39</title>
<g id="a_node39"><a xlink:href="_uio_mem_sgdma_8hpp.html" target="_top" xlink:title=" ">
<polygon fill="white" stroke="#666666" points="1039.5,-255.5 937.5,-255.5 937.5,-236.5 1039.5,-236.5 1039.5,-255.5"/>
<text text-anchor="middle" x="988.5" y="-243.5" font-family="Helvetica,sans-Serif" font-size="10.00">UioMemSgdma.hpp</text>
</a>
</g>
</g>
<!-- Node7&#45;&gt;Node39 -->
<g id="edge53" class="edge">
<title>Node7&#45;&gt;Node39</title>
<path fill="none" stroke="#63b8ff" d="M988.5,-296.87C988.5,-289 988.5,-277.1 988.5,-266.89"/>
<polygon fill="#63b8ff" stroke="#63b8ff" points="992,-267.18 988.5,-257.18 985,-267.18 992,-267.18"/>
</g>
<!-- Node40 -->
<g id="node40" class="node">
<title>Node40</title>
<g id="a_node40"><a xlink:title=" ">
<polygon fill="#e0e0e0" stroke="#999999" points="1275.5,-261 1155.5,-261 1155.5,-231 1275.5,-231 1275.5,-261"/>
<text text-anchor="start" x="1163.5" y="-249" font-family="Helvetica,sans-Serif" font-size="10.00">boost/asio/posix/stream</text>
<text text-anchor="middle" x="1215.5" y="-238" font-family="Helvetica,sans-Serif" font-size="10.00">_descriptor.hpp</text>
</a>
</g>
</g>
<!-- Node7&#45;&gt;Node40 -->
<g id="edge56" class="edge">
<title>Node7&#45;&gt;Node40</title>
<path fill="none" stroke="#63b8ff" d="M1022.98,-296.62C1056.15,-288.07 1107.21,-274.91 1148.41,-264.29"/>
<polygon fill="#63b8ff" stroke="#63b8ff" points="1149.19,-267.7 1158,-261.82 1147.45,-260.92 1149.19,-267.7"/>
</g>
<!-- Node12&#45;&gt;Node8 -->
<g id="edge12" class="edge">
<title>Node12&#45;&gt;Node8</title>
<path fill="none" stroke="#63b8ff" d="M709.36,-68.36C774.19,-56.9 907.63,-33.15 917.5,-30 918.3,-29.74 919.11,-29.47 919.92,-29.19"/>
<polygon fill="#63b8ff" stroke="#63b8ff" points="921.02,-32.52 928.95,-25.49 918.37,-26.04 921.02,-32.52"/>
</g>
<!-- Node13 -->
<g id="node13" class="node">
<title>Node13</title>
<g id="a_node13"><a xlink:title=" ">
<polygon fill="#e0e0e0" stroke="#999999" points="366.5,-24.5 270.5,-24.5 270.5,-5.5 366.5,-5.5 366.5,-24.5"/>
<text text-anchor="middle" x="318.5" y="-12.5" font-family="Helvetica,sans-Serif" font-size="10.00">boost/log/core.hpp</text>
</a>
</g>
</g>
<!-- Node12&#45;&gt;Node13 -->
<g id="edge13" class="edge">
<title>Node12&#45;&gt;Node13</title>
<path fill="none" stroke="#63b8ff" d="M639.79,-70.4C583.87,-63.56 470.51,-48.7 375.5,-30 371.69,-29.25 367.74,-28.41 363.79,-27.53"/>
<polygon fill="#63b8ff" stroke="#63b8ff" points="364.75,-24.16 354.22,-25.3 363.17,-30.98 364.75,-24.16"/>
</g>
<!-- Node14 -->
<g id="node14" class="node">
<title>Node14</title>
<g id="a_node14"><a xlink:title=" ">
<polygon fill="#e0e0e0" stroke="#999999" points="514,-24.5 385,-24.5 385,-5.5 514,-5.5 514,-24.5"/>
<text text-anchor="middle" x="449.5" y="-12.5" font-family="Helvetica,sans-Serif" font-size="10.00">boost/log/expressions.hpp</text>
</a>
</g>
</g>
<!-- Node12&#45;&gt;Node14 -->
<g id="edge14" class="edge">
<title>Node12&#45;&gt;Node14</title>
<path fill="none" stroke="#63b8ff" d="M640.33,-65.62C601.51,-55.52 537.98,-39.01 494.99,-27.83"/>
<polygon fill="#63b8ff" stroke="#63b8ff" points="496.02,-24.48 485.46,-25.35 494.26,-31.25 496.02,-24.48"/>
</g>
<!-- Node15 -->
<g id="node15" class="node">
<title>Node15</title>
<g id="a_node15"><a xlink:title=" ">
<polygon fill="#e0e0e0" stroke="#999999" points="633,-24.5 532,-24.5 532,-5.5 633,-5.5 633,-24.5"/>
<text text-anchor="middle" x="582.5" y="-12.5" font-family="Helvetica,sans-Serif" font-size="10.00">boost/log/trivial.hpp</text>
</a>
</g>
</g>
<!-- Node12&#45;&gt;Node15 -->
<g id="edge15" class="edge">
<title>Node12&#45;&gt;Node15</title>
<path fill="none" stroke="#63b8ff" d="M660.53,-65.62C646.07,-56.42 623.24,-41.91 606,-30.94"/>
<polygon fill="#63b8ff" stroke="#63b8ff" points="608.2,-28.19 597.88,-25.78 604.44,-34.1 608.2,-28.19"/>
</g>
<!-- Node16 -->
<g id="node16" class="node">
<title>Node16</title>
<g id="a_node16"><a xlink:title=" ">
<polygon fill="#e0e0e0" stroke="#999999" points="760,-30 651,-30 651,0 760,0 760,-30"/>
<text text-anchor="start" x="659" y="-18" font-family="Helvetica,sans-Serif" font-size="10.00">boost/log/utility/setup</text>
<text text-anchor="middle" x="705.5" y="-7" font-family="Helvetica,sans-Serif" font-size="10.00">/console.hpp</text>
</a>
</g>
</g>
<!-- Node12&#45;&gt;Node16 -->
<g id="edge16" class="edge">
<title>Node12&#45;&gt;Node16</title>
<path fill="none" stroke="#63b8ff" d="M679.07,-65.87C682.66,-59.11 687.83,-49.35 692.64,-40.26"/>
<polygon fill="#63b8ff" stroke="#63b8ff" points="695.72,-41.93 697.31,-31.45 689.54,-38.65 695.72,-41.93"/>
</g>
<!-- Node17 -->
<g id="node17" class="node">
<title>Node17</title>
<g id="a_node17"><a xlink:title=" ">
<polygon fill="#e0e0e0" stroke="#999999" points="909,-30 778,-30 778,0 909,0 909,-30"/>
<text text-anchor="start" x="786" y="-18" font-family="Helvetica,sans-Serif" font-size="10.00">boost/log/sources/severity</text>
<text text-anchor="middle" x="843.5" y="-7" font-family="Helvetica,sans-Serif" font-size="10.00">_channel_logger.hpp</text>
</a>
</g>
</g>
<!-- Node12&#45;&gt;Node17 -->
<g id="edge17" class="edge">
<title>Node12&#45;&gt;Node17</title>
<path fill="none" stroke="#63b8ff" d="M700.17,-65.62C724.18,-57.3 760.78,-44.63 790.98,-34.18"/>
<polygon fill="#63b8ff" stroke="#63b8ff" points="792.05,-37.51 800.36,-30.93 789.76,-30.9 792.05,-37.51"/>
</g>
<!-- Node18 -->
<g id="node18" class="node">
<title>Node18</title>
<g id="a_node18"><a xlink:title=" ">
<polygon fill="#e0e0e0" stroke="#999999" points="113,-30 0,-30 0,0 113,0 113,-30"/>
<text text-anchor="start" x="8" y="-18" font-family="Helvetica,sans-Serif" font-size="10.00">boost/log/support/date</text>
<text text-anchor="middle" x="56.5" y="-7" font-family="Helvetica,sans-Serif" font-size="10.00">_time.hpp</text>
</a>
</g>
</g>
<!-- Node12&#45;&gt;Node18 -->
<g id="edge18" class="edge">
<title>Node12&#45;&gt;Node18</title>
<path fill="none" stroke="#63b8ff" d="M639.7,-73.29C553.83,-69.98 324.84,-59.08 124.81,-30.37"/>
<polygon fill="#63b8ff" stroke="#63b8ff" points="125.39,-26.92 114.99,-28.94 124.38,-33.84 125.39,-26.92"/>
</g>
<!-- Node19 -->
<g id="node19" class="node">
<title>Node19</title>
<g id="a_node19"><a xlink:title=" ">
<polygon fill="#e0e0e0" stroke="#999999" points="252,-30 131,-30 131,0 252,0 252,-30"/>
<text text-anchor="start" x="139" y="-18" font-family="Helvetica,sans-Serif" font-size="10.00">boost/log/utility/setup</text>
<text text-anchor="middle" x="191.5" y="-7" font-family="Helvetica,sans-Serif" font-size="10.00">/common_attributes.hpp</text>
</a>
</g>
</g>
<!-- Node12&#45;&gt;Node19 -->
<g id="edge19" class="edge">
<title>Node12&#45;&gt;Node19</title>
<path fill="none" stroke="#63b8ff" d="M639.55,-71.8C570.04,-66.21 409.29,-52.14 263.51,-30.21"/>
<polygon fill="#63b8ff" stroke="#63b8ff" points="264.06,-26.75 253.64,-28.7 263,-33.67 264.06,-26.75"/>
</g>
<!-- Node20&#45;&gt;Node12 -->
<g id="edge31" class="edge">
<title>Node20&#45;&gt;Node12</title>
<path fill="none" stroke="#63b8ff" d="M797.87,-236.41C777.54,-210.05 715.72,-129.93 688.09,-94.12"/>
<polygon fill="#63b8ff" stroke="#63b8ff" points="691.07,-92.25 682.19,-86.47 685.53,-96.53 691.07,-92.25"/>
</g>
<!-- Node21 -->
<g id="node21" class="node">
<title>Node21</title>
<g id="a_node21"><a xlink:href="_dma_buffer_abstract_8hpp.html" target="_top" xlink:title=" ">
<polygon fill="white" stroke="#666666" points="1055,-195 938,-195 938,-176 1055,-176 1055,-195"/>
<text text-anchor="middle" x="996.5" y="-183" font-family="Helvetica,sans-Serif" font-size="10.00">DmaBufferAbstract.hpp</text>
</a>
</g>
</g>
<!-- Node20&#45;&gt;Node21 -->
<g id="edge21" class="edge">
<title>Node20&#45;&gt;Node21</title>
<path fill="none" stroke="#63b8ff" d="M833.66,-236.12C866.36,-226.15 919.61,-209.93 956.26,-198.76"/>
<polygon fill="#63b8ff" stroke="#63b8ff" points="957.07,-202.17 965.62,-195.91 955.03,-195.48 957.07,-202.17"/>
</g>
<!-- Node21&#45;&gt;Node6 -->
<g id="edge22" class="edge">
<title>Node21&#45;&gt;Node6</title>
<path fill="none" stroke="#63b8ff" d="M1055.31,-178.28C1116.25,-171.36 1214.44,-158.9 1308.06,-140.28"/>
<polygon fill="#63b8ff" stroke="#63b8ff" points="1308.56,-143.75 1317.67,-138.34 1307.18,-136.89 1308.56,-143.75"/>
</g>
<!-- Node21&#45;&gt;Node9 -->
<g id="edge23" class="edge">
<title>Node21&#45;&gt;Node9</title>
<path fill="none" stroke="#63b8ff" d="M983.95,-175.51C973.04,-167.7 957,-156.21 944.04,-146.93"/>
<polygon fill="#63b8ff" stroke="#63b8ff" points="946.27,-144.22 936.1,-141.24 942.19,-149.91 946.27,-144.22"/>
</g>
<!-- Node21&#45;&gt;Node11 -->
<g id="edge24" class="edge">
<title>Node21&#45;&gt;Node11</title>
<path fill="none" stroke="#63b8ff" d="M992.78,-175.85C986.54,-162.33 972.75,-136.15 953.5,-121 934.37,-105.95 909.62,-95.6 887.65,-88.71"/>
<polygon fill="#63b8ff" stroke="#63b8ff" points="888.83,-85.4 878.24,-85.93 886.84,-92.12 888.83,-85.4"/>
</g>
<!-- Node22 -->
<g id="node22" class="node">
<title>Node22</title>
<g id="a_node22"><a xlink:href="_uio_config_8hpp.html" target="_top" xlink:title=" ">
<polygon fill="white" stroke="#666666" points="1071,-85 960,-85 960,-66 1071,-66 1071,-85"/>
<text text-anchor="middle" x="1015.5" y="-73" font-family="Helvetica,sans-Serif" font-size="10.00">udmaio/UioConfig.hpp</text>
</a>
</g>
</g>
<!-- Node21&#45;&gt;Node22 -->
<g id="edge25" class="edge">
<title>Node21&#45;&gt;Node22</title>
<path fill="none" stroke="#63b8ff" d="M998.05,-175.66C1001.07,-158.5 1007.8,-120.26 1011.96,-96.6"/>
<polygon fill="#63b8ff" stroke="#63b8ff" points="1015.38,-97.41 1013.66,-86.95 1008.48,-96.19 1015.38,-97.41"/>
</g>
<!-- Node22&#45;&gt;Node8 -->
<g id="edge29" class="edge">
<title>Node22&#45;&gt;Node8</title>
<path fill="none" stroke="#63b8ff" d="M1005.17,-65.62C994.89,-56.77 978.87,-42.98 966.32,-32.19"/>
<polygon fill="#63b8ff" stroke="#63b8ff" points="968.94,-29.82 959.07,-25.96 964.37,-35.13 968.94,-29.82"/>
</g>
<!-- Node22&#45;&gt;Node23 -->
<g id="edge26" class="edge">
<title>Node22&#45;&gt;Node23</title>
<path fill="none" stroke="#63b8ff" d="M1071.15,-67.06C1074.31,-66.69 1077.45,-66.33 1080.5,-66 1284.79,-43.88 1530.28,-25.45 1623.78,-18.73"/>
<polygon fill="#63b8ff" stroke="#63b8ff" points="1623.95,-22.23 1633.68,-18.02 1623.45,-15.24 1623.95,-22.23"/>
</g>
<!-- Node24 -->
<g id="node24" class="node">
<title>Node24</title>
<g id="a_node24"><a xlink:title=" ">
<polygon fill="#e0e0e0" stroke="#999999" points="1408,-24.5 1357,-24.5 1357,-5.5 1408,-5.5 1408,-24.5"/>
<text text-anchor="middle" x="1382.5" y="-12.5" font-family="Helvetica,sans-Serif" font-size="10.00">memory</text>
</a>
</g>
</g>
<!-- Node22&#45;&gt;Node24 -->
<g id="edge27" class="edge">
<title>Node22&#45;&gt;Node24</title>
<path fill="none" stroke="#63b8ff" d="M1071.24,-65.62C1147.13,-53.52 1280.88,-32.2 1345.5,-21.9"/>
<polygon fill="#63b8ff" stroke="#63b8ff" points="1345.92,-25.38 1355.24,-20.35 1344.81,-18.46 1345.92,-25.38"/>
</g>
<!-- Node25 -->
<g id="node25" class="node">
<title>Node25</title>
<g id="a_node25"><a xlink:title=" ">
<polygon fill="#e0e0e0" stroke="#999999" points="1045,-24.5 986,-24.5 986,-5.5 1045,-5.5 1045,-24.5"/>
<text text-anchor="middle" x="1015.5" y="-12.5" font-family="Helvetica,sans-Serif" font-size="10.00">stdexcept</text>
</a>
</g>
</g>
<!-- Node22&#45;&gt;Node25 -->
<g id="edge28" class="edge">
<title>Node22&#45;&gt;Node25</title>
<path fill="none" stroke="#63b8ff" d="M1015.5,-65.87C1015.5,-58 1015.5,-46.1 1015.5,-35.89"/>
<polygon fill="#63b8ff" stroke="#63b8ff" points="1019,-36.18 1015.5,-26.18 1012,-36.18 1019,-36.18"/>
</g>
<!-- Node26 -->
<g id="node26" class="node">
<title>Node26</title>
<g id="a_node26"><a xlink:title=" ">
<polygon fill="#e0e0e0" stroke="#999999" points="1129.5,-24.5 1063.5,-24.5 1063.5,-5.5 1129.5,-5.5 1129.5,-24.5"/>
<text text-anchor="middle" x="1096.5" y="-12.5" font-family="Helvetica,sans-Serif" font-size="10.00">string_view</text>
</a>
</g>
</g>
<!-- Node22&#45;&gt;Node26 -->
<g id="edge30" class="edge">
<title>Node22&#45;&gt;Node26</title>
<path fill="none" stroke="#63b8ff" d="M1027.8,-65.62C1040.29,-56.6 1059.88,-42.45 1074.95,-31.56"/>
<polygon fill="#63b8ff" stroke="#63b8ff" points="1076.8,-34.55 1082.86,-25.85 1072.7,-28.87 1076.8,-34.55"/>
</g>
<!-- Node28 -->
<g id="node28" class="node">
<title>Node28</title>
<g id="a_node28"><a xlink:href="_axi_dma_8hpp.html" target="_top" xlink:title=" ">
<polygon fill="white" stroke="#666666" points="1374.5,-195 1306.5,-195 1306.5,-176 1374.5,-176 1374.5,-195"/>
<text text-anchor="middle" x="1340.5" y="-183" font-family="Helvetica,sans-Serif" font-size="10.00">AxiDma.hpp</text>
</a>
</g>
</g>
<!-- Node27&#45;&gt;Node28 -->
<g id="edge33" class="edge">
<title>Node27&#45;&gt;Node28</title>
<path fill="none" stroke="#63b8ff" d="M1338.8,-236.37C1339.06,-228.5 1339.47,-216.6 1339.82,-206.39"/>
<polygon fill="#63b8ff" stroke="#63b8ff" points="1343.31,-206.79 1340.15,-196.68 1336.31,-206.55 1343.31,-206.79"/>
</g>
<!-- Node29 -->
<g id="node29" class="node">
<title>Node29</title>
<g id="a_node29"><a xlink:href="_reg_accessor_8hpp.html" target="_top" xlink:title=" ">
<polygon fill="white" stroke="#666666" points="1250,-195 1157,-195 1157,-176 1250,-176 1250,-195"/>
<text text-anchor="middle" x="1203.5" y="-183" font-family="Helvetica,sans-Serif" font-size="10.00">RegAccessor.hpp</text>
</a>
</g>
</g>
<!-- Node27&#45;&gt;Node29 -->
<g id="edge35" class="edge">
<title>Node27&#45;&gt;Node29</title>
<path fill="none" stroke="#63b8ff" d="M1318,-236.12C1295.79,-226.49 1260.13,-211.04 1234.5,-199.93"/>
<polygon fill="#63b8ff" stroke="#63b8ff" points="1236.15,-196.83 1225.59,-196.07 1233.37,-203.26 1236.15,-196.83"/>
</g>
<!-- Node30 -->
<g id="node30" class="node">
<title>Node30</title>
<g id="a_node30"><a xlink:href="_uio_if_8hpp.html" target="_top" xlink:title=" ">
<polygon fill="white" stroke="#666666" points="1301.5,-140 1211.5,-140 1211.5,-121 1301.5,-121 1301.5,-140"/>
<text text-anchor="middle" x="1256.5" y="-128" font-family="Helvetica,sans-Serif" font-size="10.00">udmaio/UioIf.hpp</text>
</a>
</g>
</g>
<!-- Node27&#45;&gt;Node30 -->
<g id="edge52" class="edge">
<title>Node27&#45;&gt;Node30</title>
<path fill="none" stroke="#63b8ff" d="M1330.62,-236.03C1322.12,-226.21 1308.35,-209.88 1297.5,-195 1286.75,-180.26 1275.58,-162.79 1267.62,-149.91"/>
<polygon fill="#63b8ff" stroke="#63b8ff" points="1270.76,-148.34 1262.56,-141.63 1264.78,-151.99 1270.76,-148.34"/>
</g>
<!-- Node28&#45;&gt;Node6 -->
<g id="edge34" class="edge">
<title>Node28&#45;&gt;Node6</title>
<path fill="none" stroke="#63b8ff" d="M1340.83,-175.75C1341.07,-169.27 1341.42,-160.16 1341.73,-151.9"/>
<polygon fill="#63b8ff" stroke="#63b8ff" points="1345.23,-152.08 1342.11,-141.95 1338.23,-151.82 1345.23,-152.08"/>
</g>
<!-- Node29&#45;&gt;Node6 -->
<g id="edge36" class="edge">
<title>Node29&#45;&gt;Node6</title>
<path fill="none" stroke="#63b8ff" d="M1227.08,-175.51C1249.48,-166.97 1283.4,-154.03 1308.68,-144.4"/>
<polygon fill="#63b8ff" stroke="#63b8ff" points="1309.76,-147.73 1317.85,-140.9 1307.26,-141.19 1309.76,-147.73"/>
</g>
<!-- Node29&#45;&gt;Node30 -->
<g id="edge37" class="edge">
<title>Node29&#45;&gt;Node30</title>
<path fill="none" stroke="#63b8ff" d="M1212.25,-175.75C1219.65,-168.35 1230.46,-157.54 1239.55,-148.45"/>
<polygon fill="#63b8ff" stroke="#63b8ff" points="1241.89,-151.06 1246.49,-141.51 1236.94,-146.11 1241.89,-151.06"/>
</g>
<!-- Node30&#45;&gt;Node8 -->
<g id="edge42" class="edge">
<title>Node30&#45;&gt;Node8</title>
<path fill="none" stroke="#63b8ff" d="M1211.18,-129.6C1134.84,-128.73 985.58,-122.18 951.5,-85 939.6,-72.02 940.03,-51.24 942.56,-35.88"/>
<polygon fill="#63b8ff" stroke="#63b8ff" points="945.91,-36.95 944.54,-26.45 939.06,-35.52 945.91,-36.95"/>
</g>
<!-- Node30&#45;&gt;Node11 -->
<g id="edge44" class="edge">
<title>Node30&#45;&gt;Node11</title>
<path fill="none" stroke="#63b8ff" d="M1211.34,-123.83C1140.55,-114.94 1002.5,-97.6 914.58,-86.56"/>
<polygon fill="#63b8ff" stroke="#63b8ff" points="915.18,-83.11 904.82,-85.33 914.31,-90.05 915.18,-83.11"/>
</g>
<!-- Node30&#45;&gt;Node12 -->
<g id="edge50" class="edge">
<title>Node30&#45;&gt;Node12</title>
<path fill="none" stroke="#63b8ff" d="M1211.32,-125.7C1123.61,-118.27 924.14,-101.15 756.5,-85 744.85,-83.88 732.28,-82.61 720.57,-81.39"/>
<polygon fill="#63b8ff" stroke="#63b8ff" points="721.02,-77.92 710.71,-80.37 720.29,-84.88 721.02,-77.92"/>
</g>
<!-- Node30&#45;&gt;Node22 -->
<g id="edge51" class="edge">
<title>Node30&#45;&gt;Node22</title>
<path fill="none" stroke="#63b8ff" d="M1215.62,-120.51C1174.73,-111.52 1111.69,-97.65 1067.32,-87.9"/>
<polygon fill="#63b8ff" stroke="#63b8ff" points="1068.18,-84.5 1057.66,-85.77 1066.67,-91.34 1068.18,-84.5"/>
</g>
<!-- Node30&#45;&gt;Node23 -->
<g id="edge40" class="edge">
<title>Node30&#45;&gt;Node23</title>
<path fill="none" stroke="#63b8ff" d="M1301.85,-122.22C1304.78,-121.79 1307.68,-121.38 1310.5,-121 1379.87,-111.55 1565.14,-123.69 1623.5,-85 1640.68,-73.61 1651.11,-51.92 1656.8,-35.89"/>
<polygon fill="#63b8ff" stroke="#63b8ff" points="1660.12,-37.03 1659.81,-26.44 1653.44,-34.9 1660.12,-37.03"/>
</g>
<!-- Node30&#45;&gt;Node24 -->
<g id="edge41" class="edge">
<title>Node30&#45;&gt;Node24</title>
<path fill="none" stroke="#63b8ff" d="M1301.86,-122.24C1304.78,-121.81 1307.68,-121.39 1310.5,-121 1375.91,-111.86 1561.72,-134.45 1605.5,-85 1658.67,-24.95 1496.35,-16.51 1419.95,-15.77"/>
<polygon fill="#63b8ff" stroke="#63b8ff" points="1420,-12.27 1409.98,-15.72 1419.96,-19.27 1420,-12.27"/>
</g>
<!-- Node31 -->
<g id="node31" class="node">
<title>Node31</title>
<g id="a_node31"><a xlink:title=" ">
<polygon fill="#e0e0e0" stroke="#999999" points="1750.5,-85 1690.5,-85 1690.5,-66 1750.5,-66 1750.5,-85"/>
<text text-anchor="middle" x="1720.5" y="-73" font-family="Helvetica,sans-Serif" font-size="10.00">filesystem</text>
</a>
</g>
</g>
<!-- Node30&#45;&gt;Node31 -->
<g id="edge38" class="edge">
<title>Node30&#45;&gt;Node31</title>
<path fill="none" stroke="#63b8ff" d="M1301.85,-122.17C1304.77,-121.75 1307.68,-121.36 1310.5,-121 1472.63,-100.28 1514.75,-108.53 1676.5,-85 1677.34,-84.88 1678.18,-84.75 1679.03,-84.62"/>
<polygon fill="#63b8ff" stroke="#63b8ff" points="1679.5,-88.09 1688.77,-82.98 1678.33,-81.19 1679.5,-88.09"/>
</g>
<!-- Node32 -->
<g id="node32" class="node">
<title>Node32</title>
<g id="a_node32"><a xlink:title=" ">
<polygon fill="#e0e0e0" stroke="#999999" points="1139.5,-85 1089.5,-85 1089.5,-66 1139.5,-66 1139.5,-85"/>
<text text-anchor="middle" x="1114.5" y="-73" font-family="Helvetica,sans-Serif" font-size="10.00">fstream</text>
</a>
</g>
</g>
<!-- Node30&#45;&gt;Node32 -->
<g id="edge39" class="edge">
<title>Node30&#45;&gt;Node32</title>
<path fill="none" stroke="#63b8ff" d="M1232.41,-120.51C1209.43,-111.93 1174.56,-98.92 1148.7,-89.27"/>
<polygon fill="#63b8ff" stroke="#63b8ff" points="1150.24,-86.1 1139.65,-85.89 1147.8,-92.66 1150.24,-86.1"/>
</g>
<!-- Node33 -->
<g id="node33" class="node">
<title>Node33</title>
<g id="a_node33"><a xlink:title=" ">
<polygon fill="#e0e0e0" stroke="#999999" points="1219.5,-85 1157.5,-85 1157.5,-66 1219.5,-66 1219.5,-85"/>
<text text-anchor="middle" x="1188.5" y="-73" font-family="Helvetica,sans-Serif" font-size="10.00">type_traits</text>
</a>
</g>
</g>
<!-- Node30&#45;&gt;Node33 -->
<g id="edge43" class="edge">
<title>Node30&#45;&gt;Node33</title>
<path fill="none" stroke="#63b8ff" d="M1244.96,-120.51C1235.04,-112.77 1220.49,-101.43 1208.64,-92.2"/>
<polygon fill="#63b8ff" stroke="#63b8ff" points="1211.1,-89.68 1201.06,-86.29 1206.79,-95.2 1211.1,-89.68"/>
</g>
<!-- Node34 -->
<g id="node34" class="node">
<title>Node34</title>
<g id="a_node34"><a xlink:title=" ">
<polygon fill="#e0e0e0" stroke="#999999" points="1281,-85 1238,-85 1238,-66 1281,-66 1281,-85"/>
<text text-anchor="middle" x="1259.5" y="-73" font-family="Helvetica,sans-Serif" font-size="10.00">fcntl.h</text>
</a>
</g>
</g>
<!-- Node30&#45;&gt;Node34 -->
<g id="edge45" class="edge">
<title>Node30&#45;&gt;Node34</title>
<path fill="none" stroke="#63b8ff" d="M1257,-120.75C1257.36,-114.27 1257.88,-105.16 1258.35,-96.9"/>
<polygon fill="#63b8ff" stroke="#63b8ff" points="1261.84,-97.13 1258.91,-86.95 1254.85,-96.74 1261.84,-97.13"/>
</g>
<!-- Node35 -->
<g id="node35" class="node">
<title>Node35</title>
<g id="a_node35"><a xlink:title=" ">
<polygon fill="#e0e0e0" stroke="#999999" points="1368,-85 1299,-85 1299,-66 1368,-66 1368,-85"/>
<text text-anchor="middle" x="1333.5" y="-73" font-family="Helvetica,sans-Serif" font-size="10.00">sys/mman.h</text>
</a>
</g>
</g>
<!-- Node30&#45;&gt;Node35 -->
<g id="edge46" class="edge">
<title>Node30&#45;&gt;Node35</title>
<path fill="none" stroke="#63b8ff" d="M1269.56,-120.51C1281.02,-112.62 1297.93,-100.98 1311.48,-91.65"/>
<polygon fill="#63b8ff" stroke="#63b8ff" points="1313.13,-94.77 1319.38,-86.22 1309.16,-89 1313.13,-94.77"/>
</g>
<!-- Node36 -->
<g id="node36" class="node">
<title>Node36</title>
<g id="a_node36"><a xlink:title=" ">
<polygon fill="#e0e0e0" stroke="#999999" points="1445,-85 1386,-85 1386,-66 1445,-66 1445,-85"/>
<text text-anchor="middle" x="1415.5" y="-73" font-family="Helvetica,sans-Serif" font-size="10.00">sys/stat.h</text>
</a>
</g>
</g>
<!-- Node30&#45;&gt;Node36 -->
<g id="edge47" class="edge">
<title>Node30&#45;&gt;Node36</title>
<path fill="none" stroke="#63b8ff" d="M1283.47,-120.51C1309.48,-111.84 1349.05,-98.65 1378.1,-88.97"/>
<polygon fill="#63b8ff" stroke="#63b8ff" points="1378.85,-92.41 1387.23,-85.92 1376.63,-85.77 1378.85,-92.41"/>
</g>
<!-- Node37 -->
<g id="node37" class="node">
<title>Node37</title>
<g id="a_node37"><a xlink:title=" ">
<polygon fill="#e0e0e0" stroke="#999999" points="1528,-85 1463,-85 1463,-66 1528,-66 1528,-85"/>
<text text-anchor="middle" x="1495.5" y="-73" font-family="Helvetica,sans-Serif" font-size="10.00">sys/types.h</text>
</a>
</g>
</g>
<!-- Node30&#45;&gt;Node37 -->
<g id="edge48" class="edge">
<title>Node30&#45;&gt;Node37</title>
<path fill="none" stroke="#63b8ff" d="M1297.04,-120.51C1340.05,-110.97 1407.74,-95.96 1451.88,-86.17"/>
<polygon fill="#63b8ff" stroke="#63b8ff" points="1452.35,-89.65 1461.36,-84.07 1450.84,-82.82 1452.35,-89.65"/>
</g>
<!-- Node38 -->
<g id="node38" class="node">
<title>Node38</title>
<g id="a_node38"><a xlink:title=" ">
<polygon fill="#e0e0e0" stroke="#999999" points="1596.5,-85 1546.5,-85 1546.5,-66 1596.5,-66 1596.5,-85"/>
<text text-anchor="middle" x="1571.5" y="-73" font-family="Helvetica,sans-Serif" font-size="10.00">unistd.h</text>
</a>
</g>
</g>
<!-- Node30&#45;&gt;Node38 -->
<g id="edge49" class="edge">
<title>Node30&#45;&gt;Node38</title>
<path fill="none" stroke="#63b8ff" d="M1301.71,-122.37C1370.28,-111.54 1496.12,-91.67 1535.15,-85.05"/>
<polygon fill="#63b8ff" stroke="#63b8ff" points="1535.59,-88.53 1544.82,-83.33 1534.36,-81.64 1535.59,-88.53"/>
</g>
<!-- Node39&#45;&gt;Node21 -->
<g id="edge54" class="edge">
<title>Node39&#45;&gt;Node21</title>
<path fill="none" stroke="#63b8ff" d="M989.68,-236.37C990.76,-228.5 992.38,-216.6 993.78,-206.39"/>
<polygon fill="#63b8ff" stroke="#63b8ff" points="997.22,-207.05 995.11,-196.67 990.29,-206.1 997.22,-207.05"/>
</g>
<!-- Node39&#45;&gt;Node29 -->
<g id="edge55" class="edge">
<title>Node39&#45;&gt;Node29</title>
<path fill="none" stroke="#63b8ff" d="M1021.15,-236.12C1058.09,-226.06 1118.43,-209.65 1159.5,-198.47"/>
<polygon fill="#63b8ff" stroke="#63b8ff" points="1160.35,-201.87 1169.08,-195.87 1158.51,-195.11 1160.35,-201.87"/>
</g>
</g>
</svg>
        <g id="navigator" transform="translate(0 0)" fill="#404254">
                <rect fill="#f2f5e9" fill-opacity="0.5" stroke="#606060" stroke-width=".5" x="0" y="0" width="60" height="60"/>
                <use id="zoomplus" xlink:href="#zoomPlus" x="17" y="9" onmousedown="handleZoom(evt,'in')"/>
                <use id="zoomminus" xlink:href="#zoomMin" x="42" y="9" onmousedown="handleZoom(evt,'out')"/>
                <use id="reset" xlink:href="#resetDef" x="30" y="36" onmousedown="handleReset()"/>
                <g id="arrowUp" xlink:href="#dirArrow" transform="translate(30 24)" onmousedown="handlePan(0,-1)">
                  <use xlink:href="#rim" fill="#404040">
                        <set attributeName="fill" to="#808080" begin="arrowUp.mouseover" end="arrowUp.mouseout"/>
                  </use>
                  <path fill="none" stroke="white" stroke-width="1.5" d="M0,-3.0v7 M-2.5,-0.5L0,-3.0L2.5,-0.5"/>
                </g>
                <g id="arrowRight" xlink:href="#dirArrow" transform="rotate(90) translate(36 -43)" onmousedown="handlePan(1,0)">
                  <use xlink:href="#rim" fill="#404040">
                        <set attributeName="fill" to="#808080" begin="arrowRight.mouseover" end="arrowRight.mouseout"/>
                  </use>
                  <path fill="none" stroke="white" stroke-width="1.5" d="M0,-3.0v7 M-2.5,-0.5L0,-3.0L2.5,-0.5"/>
                </g>
                <g id="arrowDown" xlink:href="#dirArrow" transform="rotate(180) translate(-30 -48)" onmousedown="handlePan(0,1)">
                  <use xlink:href="#rim" fill="#404040">
                        <set attributeName="fill" to="#808080" begin="arrowDown.mouseover" end="arrowDown.mouseout"/>
                  </use>
                  <path fill="none" stroke="white" stroke-width="1.5" d="M0,-3.0v7 M-2.5,-0.5L0,-3.0L2.5,-0.5"/>
                </g>
                <g id="arrowLeft" xlink:href="#dirArrow" transform="rotate(270) translate(-36 17)" onmousedown="handlePan(-1,0)">
                  <use xlink:href="#rim" fill="#404040">
                        <set attributeName="fill" to="#808080" begin="arrowLeft.mouseover" end="arrowLeft.mouseout"/>
                  </use>
                  <path fill="none" stroke="white" stroke-width="1.5" d="M0,-3.0v7 M-2.5,-0.5L0,-3.0L2.5,-0.5"/>
                </g>
        </g>
        <svg viewBox="0 0 15 15" width="100%" height="30px" preserveAspectRatio="xMaxYMin meet">
         <g id="arrow_out" transform="scale(0.3 0.3)">
          <a xlink:href="_data_handler_print_8cpp__incl_org.svg" target="_base">
           <rect id="button" ry="5" rx="5" y="6" x="6" height="38" width="38"
                fill="#f2f5e9" fill-opacity="0.5" stroke="#606060" stroke-width="1.0"/>
           <path id="arrow"
             d="M 11.500037,31.436501 C 11.940474,20.09759 22.043105,11.32322 32.158766,21.979434 L 37.068811,17.246167 C 37.068811,17.246167 37.088388,32 37.088388,32 L 22.160133,31.978069 C 22.160133,31.978069 26.997745,27.140456 26.997745,27.140456 C 18.528582,18.264221 13.291696,25.230495 11.500037,31.436501 z"
             style="fill:#404040;"/>
          </a>
         </g>
        </svg>
</svg>
