<?xml version="1.0" encoding="UTF-8" standalone="no"?>
<!DOCTYPE svg PUBLIC "-//W3C//DTD SVG 1.1//EN"
 "http://www.w3.org/Graphics/SVG/1.1/DTD/svg11.dtd">
<!-- Generated by graphviz version 7.0.5 (20221223.1930)
 -->
<!-- Title: DataHandlerPrint.cpp Pages: 1 -->
<svg width="1693pt" height="434pt"
 viewBox="0.00 0.00 1692.50 434.00" xmlns="http://www.w3.org/2000/svg" xmlns:xlink="http://www.w3.org/1999/xlink">
<g id="graph0" class="graph" transform="scale(1 1) rotate(0) translate(4 430)">
<title>DataHandlerPrint.cpp</title>
<!-- Node1 -->
<g id="node1" class="node">
<title>Node1</title>
<g id="a_node1"><a xlink:title=" ">
<polygon fill="#999999" stroke="#666666" points="1667,-426 1558,-426 1558,-407 1667,-407 1667,-426"/>
<text text-anchor="middle" x="1612.5" y="-414" font-family="Helvetica,sans-Serif" font-size="10.00">DataHandlerPrint.cpp</text>
</a>
</g>
</g>
<!-- Node2 -->
<g id="node2" class="node">
<title>Node2</title>
<g id="a_node2"><a xlink:href="_data_handler_print_8hpp.html" target="_top" xlink:title=" ">
<polygon fill="white" stroke="#666666" points="1393,-371 1284,-371 1284,-352 1393,-352 1393,-371"/>
<text text-anchor="middle" x="1338.5" y="-359" font-family="Helvetica,sans-Serif" font-size="10.00">DataHandlerPrint.hpp</text>
</a>
</g>
</g>
<!-- Node1&#45;&gt;Node2 -->
<g id="edge1" class="edge">
<title>Node1&#45;&gt;Node2</title>
<path fill="none" stroke="#63b8ff" d="M1566.02,-406.51C1519.04,-397.42 1446.34,-383.36 1395.81,-373.59"/>
<polygon fill="#63b8ff" stroke="#63b8ff" points="1396.72,-370.2 1386.24,-371.73 1395.39,-377.07 1396.72,-370.2"/>
</g>
<!-- Node23 -->
<g id="node23" class="node">
<title>Node23</title>
<g id="a_node23"><a xlink:title=" ">
<polygon fill="#e0e0e0" stroke="#999999" points="1601.5,-24.5 1547.5,-24.5 1547.5,-5.5 1601.5,-5.5 1601.5,-24.5"/>
<text text-anchor="middle" x="1574.5" y="-12.5" font-family="Helvetica,sans-Serif" font-size="10.00">iostream</text>
</a>
</g>
</g>
<!-- Node1&#45;&gt;Node23 -->
<g id="edge56" class="edge">
<title>Node1&#45;&gt;Node23</title>
<path fill="none" stroke="#63b8ff" d="M1612.5,-406.54C1612.5,-388.03 1612.5,-344.25 1612.5,-307.5 1612.5,-307.5 1612.5,-307.5 1612.5,-129.5 1612.5,-94.64 1596.18,-56.73 1584.93,-34.73"/>
<polygon fill="#63b8ff" stroke="#63b8ff" points="1588.13,-33.3 1580.34,-26.12 1581.96,-36.59 1588.13,-33.3"/>
</g>
<!-- Node40 -->
<g id="node40" class="node">
<title>Node40</title>
<g id="a_node40"><a xlink:title=" ">
<polygon fill="#e0e0e0" stroke="#999999" points="1684.5,-371 1640.5,-371 1640.5,-352 1684.5,-352 1684.5,-371"/>
<text text-anchor="middle" x="1662.5" y="-359" font-family="Helvetica,sans-Serif" font-size="10.00">thread</text>
</a>
</g>
</g>
<!-- Node1&#45;&gt;Node40 -->
<g id="edge57" class="edge">
<title>Node1&#45;&gt;Node40</title>
<path fill="none" stroke="#63b8ff" d="M1620.76,-406.75C1627.66,-399.43 1637.72,-388.76 1646.24,-379.74"/>
<polygon fill="#63b8ff" stroke="#63b8ff" points="1648.71,-382.22 1653.03,-372.54 1643.62,-377.42 1648.71,-382.22"/>
</g>
<!-- Node3 -->
<g id="node3" class="node">
<title>Node3</title>
<g id="a_node3"><a xlink:title=" ">
<polygon fill="#e0e0e0" stroke="#999999" points="1416.5,-316 1366.5,-316 1366.5,-297 1416.5,-297 1416.5,-316"/>
<text text-anchor="middle" x="1391.5" y="-304" font-family="Helvetica,sans-Serif" font-size="10.00">optional</text>
</a>
</g>
</g>
<!-- Node2&#45;&gt;Node3 -->
<g id="edge2" class="edge">
<title>Node2&#45;&gt;Node3</title>
<path fill="none" stroke="#63b8ff" d="M1347.25,-351.75C1354.65,-344.35 1365.46,-333.54 1374.55,-324.45"/>
<polygon fill="#63b8ff" stroke="#63b8ff" points="1376.89,-327.06 1381.49,-317.51 1371.94,-322.11 1376.89,-327.06"/>
</g>
<!-- Node4 -->
<g id="node4" class="node">
<title>Node4</title>
<g id="a_node4"><a xlink:title=" ">
<polygon fill="#e0e0e0" stroke="#999999" points="804,-316 765,-316 765,-297 804,-297 804,-316"/>
<text text-anchor="middle" x="784.5" y="-304" font-family="Helvetica,sans-Serif" font-size="10.00">utility</text>
</a>
</g>
</g>
<!-- Node2&#45;&gt;Node4 -->
<g id="edge3" class="edge">
<title>Node2&#45;&gt;Node4</title>
<path fill="none" stroke="#63b8ff" d="M1283.6,-359.46C1189.54,-356.89 991.53,-348.07 815.63,-315.98"/>
<polygon fill="#63b8ff" stroke="#63b8ff" points="816.3,-312.55 805.83,-314.16 815.02,-319.43 816.3,-312.55"/>
</g>
<!-- Node5 -->
<g id="node5" class="node">
<title>Node5</title>
<g id="a_node5"><a xlink:href="_axi_traffic_gen_lfsr_8hpp.html" target="_top" xlink:title=" ">
<polygon fill="white" stroke="#666666" points="1410.5,-195 1300.5,-195 1300.5,-176 1410.5,-176 1410.5,-195"/>
<text text-anchor="middle" x="1355.5" y="-183" font-family="Helvetica,sans-Serif" font-size="10.00">AxiTrafficGenLfsr.hpp</text>
</a>
</g>
</g>
<!-- Node2&#45;&gt;Node5 -->
<g id="edge4" class="edge">
<title>Node2&#45;&gt;Node5</title>
<path fill="none" stroke="#63b8ff" d="M1339.37,-351.63C1341.98,-324.87 1349.84,-244.44 1353.54,-206.59"/>
<polygon fill="#63b8ff" stroke="#63b8ff" points="1357.02,-206.94 1354.51,-196.65 1350.05,-206.26 1357.02,-206.94"/>
</g>
<!-- Node7 -->
<g id="node7" class="node">
<title>Node7</title>
<g id="a_node7"><a xlink:href="_data_handler_abstract_8hpp.html" target="_top" xlink:title=" ">
<polygon fill="white" stroke="#666666" points="982.5,-316 822.5,-316 822.5,-297 982.5,-297 982.5,-316"/>
<text text-anchor="middle" x="902.5" y="-304" font-family="Helvetica,sans-Serif" font-size="10.00">udmaio/DataHandlerAbstract.hpp</text>
</a>
</g>
</g>
<!-- Node2&#45;&gt;Node7 -->
<g id="edge6" class="edge">
<title>Node2&#45;&gt;Node7</title>
<path fill="none" stroke="#63b8ff" d="M1283.72,-353.84C1209.23,-344.79 1075.23,-328.5 987.58,-317.84"/>
<polygon fill="#63b8ff" stroke="#63b8ff" points="988.19,-314.39 977.84,-316.66 987.34,-321.34 988.19,-314.39"/>
</g>
<!-- Node6 -->
<g id="node6" class="node">
<title>Node6</title>
<g id="a_node6"><a xlink:title=" ">
<polygon fill="#e0e0e0" stroke="#999999" points="1270.5,-140 1224.5,-140 1224.5,-121 1270.5,-121 1270.5,-140"/>
<text text-anchor="middle" x="1247.5" y="-128" font-family="Helvetica,sans-Serif" font-size="10.00">cstdint</text>
</a>
</g>
</g>
<!-- Node5&#45;&gt;Node6 -->
<g id="edge5" class="edge">
<title>Node5&#45;&gt;Node6</title>
<path fill="none" stroke="#63b8ff" d="M1337.18,-175.51C1320.32,-167.24 1295.07,-154.84 1275.65,-145.31"/>
<polygon fill="#63b8ff" stroke="#63b8ff" points="1277.43,-142.29 1266.91,-141.02 1274.34,-148.57 1277.43,-142.29"/>
</g>
<!-- Node8 -->
<g id="node8" class="node">
<title>Node8</title>
<g id="a_node8"><a xlink:title=" ">
<polygon fill="#e0e0e0" stroke="#999999" points="968,-24.5 927,-24.5 927,-5.5 968,-5.5 968,-24.5"/>
<text text-anchor="middle" x="947.5" y="-12.5" font-family="Helvetica,sans-Serif" font-size="10.00">string</text>
</a>
</g>
</g>
<!-- Node7&#45;&gt;Node8 -->
<g id="edge7" class="edge">
<title>Node7&#45;&gt;Node8</title>
<path fill="none" stroke="#63b8ff" d="M843.88,-296.55C795.26,-288.32 730.66,-275.25 708.5,-261 673.44,-238.45 651.5,-228.19 651.5,-186.5 651.5,-186.5 651.5,-186.5 651.5,-129.5 651.5,-100.04 648.2,-85.25 670.5,-66 754.81,6.78 812,-62.59 918.5,-30 919.3,-29.75 920.11,-29.49 920.92,-29.21"/>
<polygon fill="#63b8ff" stroke="#63b8ff" points="922,-32.55 929.89,-25.48 919.32,-26.09 922,-32.55"/>
</g>
<!-- Node9 -->
<g id="node9" class="node">
<title>Node9</title>
<g id="a_node9"><a xlink:title=" ">
<polygon fill="#e0e0e0" stroke="#999999" points="776.5,-140 732.5,-140 732.5,-121 776.5,-121 776.5,-140"/>
<text text-anchor="middle" x="754.5" y="-128" font-family="Helvetica,sans-Serif" font-size="10.00">vector</text>
</a>
</g>
</g>
<!-- Node7&#45;&gt;Node9 -->
<g id="edge8" class="edge">
<title>Node7&#45;&gt;Node9</title>
<path fill="none" stroke="#63b8ff" d="M845.24,-296.54C805.88,-289.08 758.63,-277.07 746.5,-261 722.27,-228.89 735.74,-178.57 746.1,-151.06"/>
<polygon fill="#63b8ff" stroke="#63b8ff" points="749.3,-152.47 749.8,-141.89 742.81,-149.85 749.3,-152.47"/>
</g>
<!-- Node10 -->
<g id="node10" class="node">
<title>Node10</title>
<g id="a_node10"><a xlink:title=" ">
<polygon fill="#e0e0e0" stroke="#999999" points="1051.5,-255.5 971.5,-255.5 971.5,-236.5 1051.5,-236.5 1051.5,-255.5"/>
<text text-anchor="middle" x="1011.5" y="-243.5" font-family="Helvetica,sans-Serif" font-size="10.00">boost/asio.hpp</text>
</a>
</g>
</g>
<!-- Node7&#45;&gt;Node10 -->
<g id="edge9" class="edge">
<title>Node7&#45;&gt;Node10</title>
<path fill="none" stroke="#63b8ff" d="M919.05,-296.62C936.5,-287.25 964.25,-272.36 984.79,-261.33"/>
<polygon fill="#63b8ff" stroke="#63b8ff" points="986.3,-264.5 993.46,-256.68 982.99,-258.33 986.3,-264.5"/>
</g>
<!-- Node11 -->
<g id="node11" class="node">
<title>Node11</title>
<g id="a_node11"><a xlink:title=" ">
<polygon fill="#e0e0e0" stroke="#999999" points="817,-85 680,-85 680,-66 817,-66 817,-85"/>
<text text-anchor="middle" x="748.5" y="-73" font-family="Helvetica,sans-Serif" font-size="10.00">boost/core/noncopyable.hpp</text>
</a>
</g>
</g>
<!-- Node7&#45;&gt;Node11 -->
<g id="edge10" class="edge">
<title>Node7&#45;&gt;Node11</title>
<path fill="none" stroke="#63b8ff" d="M836.54,-296.57C794,-289.34 744.16,-277.62 730.5,-261 690.95,-212.86 707.73,-181.27 723.5,-121 725.91,-111.81 730.68,-102.5 735.42,-94.8"/>
<polygon fill="#63b8ff" stroke="#63b8ff" points="738.18,-96.97 740.8,-86.7 732.35,-93.1 738.18,-96.97"/>
</g>
<!-- Node12 -->
<g id="node12" class="node">
<title>Node12</title>
<g id="a_node12"><a xlink:href="_logging_8hpp.html" target="_top" xlink:title=" ">
<polygon fill="white" stroke="#666666" points="617,-85 548,-85 548,-66 617,-66 617,-85"/>
<text text-anchor="middle" x="582.5" y="-73" font-family="Helvetica,sans-Serif" font-size="10.00">Logging.hpp</text>
</a>
</g>
</g>
<!-- Node7&#45;&gt;Node12 -->
<g id="edge11" class="edge">
<title>Node7&#45;&gt;Node12</title>
<path fill="none" stroke="#63b8ff" d="M823.52,-296.51C750.57,-287.52 651.42,-273.3 637.5,-261 588.89,-218.05 582.37,-134.19 582.07,-96.13"/>
<polygon fill="#63b8ff" stroke="#63b8ff" points="585.56,-96.64 582.14,-86.62 578.56,-96.59 585.56,-96.64"/>
</g>
<!-- Node20 -->
<g id="node20" class="node">
<title>Node20</title>
<g id="a_node20"><a xlink:href="_u_dma_buf_8hpp.html" target="_top" xlink:title=" ">
<polygon fill="white" stroke="#666666" points="833,-255.5 756,-255.5 756,-236.5 833,-236.5 833,-255.5"/>
<text text-anchor="middle" x="794.5" y="-243.5" font-family="Helvetica,sans-Serif" font-size="10.00">UDmaBuf.hpp</text>
</a>
</g>
</g>
<!-- Node7&#45;&gt;Node20 -->
<g id="edge20" class="edge">
<title>Node7&#45;&gt;Node20</title>
<path fill="none" stroke="#63b8ff" d="M886.1,-296.62C868.81,-287.25 841.32,-272.36 820.96,-261.33"/>
<polygon fill="#63b8ff" stroke="#63b8ff" points="822.85,-258.37 812.39,-256.69 819.51,-264.53 822.85,-258.37"/>
</g>
<!-- Node27 -->
<g id="node27" class="node">
<title>Node27</title>
<g id="a_node27"><a xlink:href="_uio_axi_dma_if_8hpp.html" target="_top" xlink:title=" ">
<polygon fill="white" stroke="#666666" points="1297,-255.5 1208,-255.5 1208,-236.5 1297,-236.5 1297,-255.5"/>
<text text-anchor="middle" x="1252.5" y="-243.5" font-family="Helvetica,sans-Serif" font-size="10.00">UioAxiDmaIf.hpp</text>
</a>
</g>
</g>
<!-- Node7&#45;&gt;Node27 -->
<g id="edge32" class="edge">
<title>Node7&#45;&gt;Node27</title>
<path fill="none" stroke="#63b8ff" d="M976.78,-296.52C1036.87,-288.73 1123.53,-276.31 1198.5,-261 1201.9,-260.31 1205.41,-259.53 1208.93,-258.71"/>
<polygon fill="#63b8ff" stroke="#63b8ff" points="1209.72,-262.12 1218.6,-256.35 1208.06,-255.32 1209.72,-262.12"/>
</g>
<!-- Node38 -->
<g id="node38" class="node">
<title>Node38</title>
<g id="a_node38"><a xlink:href="_uio_mem_sgdma_8hpp.html" target="_top" xlink:title=" ">
<polygon fill="white" stroke="#666666" points="953.5,-255.5 851.5,-255.5 851.5,-236.5 953.5,-236.5 953.5,-255.5"/>
<text text-anchor="middle" x="902.5" y="-243.5" font-family="Helvetica,sans-Serif" font-size="10.00">UioMemSgdma.hpp</text>
</a>
</g>
</g>
<!-- Node7&#45;&gt;Node38 -->
<g id="edge52" class="edge">
<title>Node7&#45;&gt;Node38</title>
<path fill="none" stroke="#63b8ff" d="M902.5,-296.87C902.5,-289 902.5,-277.1 902.5,-266.89"/>
<polygon fill="#63b8ff" stroke="#63b8ff" points="906,-267.18 902.5,-257.18 899,-267.18 906,-267.18"/>
</g>
<!-- Node39 -->
<g id="node39" class="node">
<title>Node39</title>
<g id="a_node39"><a xlink:title=" ">
<polygon fill="#e0e0e0" stroke="#999999" points="1189.5,-261 1069.5,-261 1069.5,-231 1189.5,-231 1189.5,-261"/>
<text text-anchor="start" x="1077.5" y="-249" font-family="Helvetica,sans-Serif" font-size="10.00">boost/asio/posix/stream</text>
<text text-anchor="middle" x="1129.5" y="-238" font-family="Helvetica,sans-Serif" font-size="10.00">_descriptor.hpp</text>
</a>
</g>
</g>
<!-- Node7&#45;&gt;Node39 -->
<g id="edge55" class="edge">
<title>Node7&#45;&gt;Node39</title>
<path fill="none" stroke="#63b8ff" d="M936.98,-296.62C970.15,-288.07 1021.21,-274.91 1062.41,-264.29"/>
<polygon fill="#63b8ff" stroke="#63b8ff" points="1063.19,-267.7 1072,-261.82 1061.45,-260.92 1063.19,-267.7"/>
</g>
<!-- Node12&#45;&gt;Node8 -->
<g id="edge12" class="edge">
<title>Node12&#45;&gt;Node8</title>
<path fill="none" stroke="#63b8ff" d="M617.39,-68.97C624.06,-67.95 630.99,-66.92 637.5,-66 762.17,-48.38 797.8,-65.83 918.5,-30 919.3,-29.76 920.11,-29.5 920.92,-29.23"/>
<polygon fill="#63b8ff" stroke="#63b8ff" points="921.99,-32.57 929.91,-25.52 919.33,-26.1 921.99,-32.57"/>
</g>
<!-- Node13 -->
<g id="node13" class="node">
<title>Node13</title>
<g id="a_node13"><a xlink:title=" ">
<polygon fill="#e0e0e0" stroke="#999999" points="366.5,-24.5 270.5,-24.5 270.5,-5.5 366.5,-5.5 366.5,-24.5"/>
<text text-anchor="middle" x="318.5" y="-12.5" font-family="Helvetica,sans-Serif" font-size="10.00">boost/log/core.hpp</text>
</a>
</g>
</g>
<!-- Node12&#45;&gt;Node13 -->
<g id="edge13" class="edge">
<title>Node12&#45;&gt;Node13</title>
<path fill="none" stroke="#63b8ff" d="M547.64,-67.33C506.44,-58.78 435.86,-43.9 375.5,-30 372.18,-29.24 368.76,-28.43 365.31,-27.61"/>
<polygon fill="#63b8ff" stroke="#63b8ff" points="366.35,-24.26 355.81,-25.33 364.72,-31.07 366.35,-24.26"/>
</g>
<!-- Node14 -->
<g id="node14" class="node">
<title>Node14</title>
<g id="a_node14"><a xlink:title=" ">
<polygon fill="#e0e0e0" stroke="#999999" points="514,-24.5 385,-24.5 385,-5.5 514,-5.5 514,-24.5"/>
<text text-anchor="middle" x="449.5" y="-12.5" font-family="Helvetica,sans-Serif" font-size="10.00">boost/log/expressions.hpp</text>
</a>
</g>
</g>
<!-- Node12&#45;&gt;Node14 -->
<g id="edge14" class="edge">
<title>Node12&#45;&gt;Node14</title>
<path fill="none" stroke="#63b8ff" d="M562.3,-65.62C540.52,-56.04 505.6,-40.68 480.38,-29.58"/>
<polygon fill="#63b8ff" stroke="#63b8ff" points="481.84,-26.4 471.28,-25.58 479.02,-32.81 481.84,-26.4"/>
</g>
<!-- Node15 -->
<g id="node15" class="node">
<title>Node15</title>
<g id="a_node15"><a xlink:title=" ">
<polygon fill="#e0e0e0" stroke="#999999" points="633,-24.5 532,-24.5 532,-5.5 633,-5.5 633,-24.5"/>
<text text-anchor="middle" x="582.5" y="-12.5" font-family="Helvetica,sans-Serif" font-size="10.00">boost/log/trivial.hpp</text>
</a>
</g>
</g>
<!-- Node12&#45;&gt;Node15 -->
<g id="edge15" class="edge">
<title>Node12&#45;&gt;Node15</title>
<path fill="none" stroke="#63b8ff" d="M582.5,-65.87C582.5,-58 582.5,-46.1 582.5,-35.89"/>
<polygon fill="#63b8ff" stroke="#63b8ff" points="586,-36.18 582.5,-26.18 579,-36.18 586,-36.18"/>
</g>
<!-- Node16 -->
<g id="node16" class="node">
<title>Node16</title>
<g id="a_node16"><a xlink:title=" ">
<polygon fill="#e0e0e0" stroke="#999999" points="760,-30 651,-30 651,0 760,0 760,-30"/>
<text text-anchor="start" x="659" y="-18" font-family="Helvetica,sans-Serif" font-size="10.00">boost/log/utility/setup</text>
<text text-anchor="middle" x="705.5" y="-7" font-family="Helvetica,sans-Serif" font-size="10.00">/console.hpp</text>
</a>
</g>
</g>
<!-- Node12&#45;&gt;Node16 -->
<g id="edge16" class="edge">
<title>Node12&#45;&gt;Node16</title>
<path fill="none" stroke="#63b8ff" d="M601.18,-65.62C618.05,-57.59 643.44,-45.52 664.95,-35.29"/>
<polygon fill="#63b8ff" stroke="#63b8ff" points="666.25,-38.55 673.77,-31.09 663.24,-32.22 666.25,-38.55"/>
</g>
<!-- Node17 -->
<g id="node17" class="node">
<title>Node17</title>
<g id="a_node17"><a xlink:title=" ">
<polygon fill="#e0e0e0" stroke="#999999" points="909,-30 778,-30 778,0 909,0 909,-30"/>
<text text-anchor="start" x="786" y="-18" font-family="Helvetica,sans-Serif" font-size="10.00">boost/log/sources/severity</text>
<text text-anchor="middle" x="843.5" y="-7" font-family="Helvetica,sans-Serif" font-size="10.00">_channel_logger.hpp</text>
</a>
</g>
</g>
<!-- Node12&#45;&gt;Node17 -->
<g id="edge17" class="edge">
<title>Node12&#45;&gt;Node17</title>
<path fill="none" stroke="#63b8ff" d="M617.43,-66.67C655.72,-58.09 718.31,-44.06 767.93,-32.94"/>
<polygon fill="#63b8ff" stroke="#63b8ff" points="768.48,-36.4 777.48,-30.8 766.95,-29.57 768.48,-36.4"/>
</g>
<!-- Node18 -->
<g id="node18" class="node">
<title>Node18</title>
<g id="a_node18"><a xlink:title=" ">
<polygon fill="#e0e0e0" stroke="#999999" points="113,-30 0,-30 0,0 113,0 113,-30"/>
<text text-anchor="start" x="8" y="-18" font-family="Helvetica,sans-Serif" font-size="10.00">boost/log/support/date</text>
<text text-anchor="middle" x="56.5" y="-7" font-family="Helvetica,sans-Serif" font-size="10.00">_time.hpp</text>
</a>
</g>
</g>
<!-- Node12&#45;&gt;Node18 -->
<g id="edge18" class="edge">
<title>Node12&#45;&gt;Node18</title>
<path fill="none" stroke="#63b8ff" d="M547.63,-72.52C472.21,-67.94 288.13,-55.17 124.4,-30.34"/>
<polygon fill="#63b8ff" stroke="#63b8ff" points="125.06,-26.9 114.64,-28.84 124,-33.82 125.06,-26.9"/>
</g>
<!-- Node19 -->
<g id="node19" class="node">
<title>Node19</title>
<g id="a_node19"><a xlink:title=" ">
<polygon fill="#e0e0e0" stroke="#999999" points="252,-30 131,-30 131,0 252,0 252,-30"/>
<text text-anchor="start" x="139" y="-18" font-family="Helvetica,sans-Serif" font-size="10.00">boost/log/utility/setup</text>
<text text-anchor="middle" x="191.5" y="-7" font-family="Helvetica,sans-Serif" font-size="10.00">/common_attributes.hpp</text>
</a>
</g>
</g>
<!-- Node12&#45;&gt;Node19 -->
<g id="edge19" class="edge">
<title>Node12&#45;&gt;Node19</title>
<path fill="none" stroke="#63b8ff" d="M547.72,-70.37C490.66,-63.44 373.36,-48.58 263.46,-30.26"/>
<polygon fill="#63b8ff" stroke="#63b8ff" points="264.1,-26.82 253.66,-28.61 262.94,-33.72 264.1,-26.82"/>
</g>
<!-- Node20&#45;&gt;Node12 -->
<g id="edge31" class="edge">
<title>Node20&#45;&gt;Node12</title>
<path fill="none" stroke="#63b8ff" d="M783.4,-236.18C749.42,-209.17 646.47,-127.35 602.62,-92.5"/>
<polygon fill="#63b8ff" stroke="#63b8ff" points="604.94,-89.86 594.93,-86.38 600.58,-95.34 604.94,-89.86"/>
</g>
<!-- Node21 -->
<g id="node21" class="node">
<title>Node21</title>
<g id="a_node21"><a xlink:href="_dma_buffer_abstract_8hpp.html" target="_top" xlink:title=" ">
<polygon fill="white" stroke="#666666" points="947,-195 830,-195 830,-176 947,-176 947,-195"/>
<text text-anchor="middle" x="888.5" y="-183" font-family="Helvetica,sans-Serif" font-size="10.00">DmaBufferAbstract.hpp</text>
</a>
</g>
</g>
<!-- Node20&#45;&gt;Node21 -->
<g id="edge21" class="edge">
<title>Node20&#45;&gt;Node21</title>
<path fill="none" stroke="#63b8ff" d="M808.78,-236.12C823.55,-226.92 846.87,-212.41 864.49,-201.44"/>
<polygon fill="#63b8ff" stroke="#63b8ff" points="866.16,-204.52 872.8,-196.27 862.46,-198.58 866.16,-204.52"/>
</g>
<!-- Node21&#45;&gt;Node6 -->
<g id="edge22" class="edge">
<title>Node21&#45;&gt;Node6</title>
<path fill="none" stroke="#63b8ff" d="M947.4,-177.68C1011.76,-169.91 1117.8,-156.17 1208.5,-140 1209.92,-139.75 1211.37,-139.48 1212.83,-139.2"/>
<polygon fill="#63b8ff" stroke="#63b8ff" points="1213.46,-142.64 1222.56,-137.22 1212.07,-135.78 1213.46,-142.64"/>
</g>
<!-- Node21&#45;&gt;Node9 -->
<g id="edge23" class="edge">
<title>Node21&#45;&gt;Node9</title>
<path fill="none" stroke="#63b8ff" d="M865.77,-175.51C844.27,-167.01 811.77,-154.15 787.43,-144.53"/>
<polygon fill="#63b8ff" stroke="#63b8ff" points="788.89,-141.34 778.3,-140.91 786.31,-147.85 788.89,-141.34"/>
</g>
<!-- Node21&#45;&gt;Node11 -->
<g id="edge24" class="edge">
<title>Node21&#45;&gt;Node11</title>
<path fill="none" stroke="#63b8ff" d="M877.04,-175.66C853.35,-157.39 798.71,-115.23 768.86,-92.21"/>
<polygon fill="#63b8ff" stroke="#63b8ff" points="771.37,-89.72 761.31,-86.38 767.09,-95.26 771.37,-89.72"/>
</g>
<!-- Node22 -->
<g id="node22" class="node">
<title>Node22</title>
<g id="a_node22"><a xlink:href="_uio_config_8hpp.html" target="_top" xlink:title=" ">
<polygon fill="white" stroke="#666666" points="1546,-85 1435,-85 1435,-66 1546,-66 1546,-85"/>
<text text-anchor="middle" x="1490.5" y="-73" font-family="Helvetica,sans-Serif" font-size="10.00">udmaio/UioConfig.hpp</text>
</a>
</g>
</g>
<!-- Node21&#45;&gt;Node22 -->
<g id="edge25" class="edge">
<title>Node21&#45;&gt;Node22</title>
<path fill="none" stroke="#63b8ff" d="M947.38,-179.98C1005.74,-174.41 1097.2,-162.76 1173.5,-140 1193.13,-134.14 1195.88,-126.91 1215.5,-121 1253.33,-109.6 1354.91,-94.62 1423.44,-85.28"/>
<polygon fill="#63b8ff" stroke="#63b8ff" points="1423.62,-88.79 1433.06,-83.98 1422.68,-81.85 1423.62,-88.79"/>
</g>
<!-- Node22&#45;&gt;Node8 -->
<g id="edge29" class="edge">
<title>Node22&#45;&gt;Node8</title>
<path fill="none" stroke="#63b8ff" d="M1434.84,-67.13C1431.68,-66.74 1428.55,-66.36 1425.5,-66 1257.96,-46.29 1056.9,-26.52 979.78,-19.09"/>
<polygon fill="#63b8ff" stroke="#63b8ff" points="980.28,-15.62 969.99,-18.15 979.61,-22.59 980.28,-15.62"/>
</g>
<!-- Node22&#45;&gt;Node23 -->
<g id="edge26" class="edge">
<title>Node22&#45;&gt;Node23</title>
<path fill="none" stroke="#63b8ff" d="M1503.26,-65.62C1516.33,-56.51 1536.91,-42.18 1552.6,-31.25"/>
<polygon fill="#63b8ff" stroke="#63b8ff" points="1554.17,-34.42 1560.38,-25.83 1550.17,-28.68 1554.17,-34.42"/>
</g>
<!-- Node24 -->
<g id="node24" class="node">
<title>Node24</title>
<g id="a_node24"><a xlink:title=" ">
<polygon fill="#e0e0e0" stroke="#999999" points="1358,-24.5 1307,-24.5 1307,-5.5 1358,-5.5 1358,-24.5"/>
<text text-anchor="middle" x="1332.5" y="-12.5" font-family="Helvetica,sans-Serif" font-size="10.00">memory</text>
</a>
</g>
</g>
<!-- Node22&#45;&gt;Node24 -->
<g id="edge27" class="edge">
<title>Node22&#45;&gt;Node24</title>
<path fill="none" stroke="#63b8ff" d="M1466.5,-65.62C1440.05,-55.82 1397.28,-39.98 1367.18,-28.84"/>
<polygon fill="#63b8ff" stroke="#63b8ff" points="1368.74,-25.68 1358.14,-25.49 1366.3,-32.25 1368.74,-25.68"/>
</g>
<!-- Node25 -->
<g id="node25" class="node">
<title>Node25</title>
<g id="a_node25"><a xlink:title=" ">
<polygon fill="#e0e0e0" stroke="#999999" points="1442,-24.5 1383,-24.5 1383,-5.5 1442,-5.5 1442,-24.5"/>
<text text-anchor="middle" x="1412.5" y="-12.5" font-family="Helvetica,sans-Serif" font-size="10.00">stdexcept</text>
</a>
</g>
</g>
<!-- Node22&#45;&gt;Node25 -->
<g id="edge28" class="edge">
<title>Node22&#45;&gt;Node25</title>
<path fill="none" stroke="#63b8ff" d="M1478.65,-65.62C1466.74,-56.68 1448.12,-42.72 1433.67,-31.87"/>
<polygon fill="#63b8ff" stroke="#63b8ff" points="1435.77,-29.08 1425.67,-25.88 1431.57,-34.68 1435.77,-29.08"/>
</g>
<!-- Node26 -->
<g id="node26" class="node">
<title>Node26</title>
<g id="a_node26"><a xlink:title=" ">
<polygon fill="#e0e0e0" stroke="#999999" points="1526.5,-24.5 1460.5,-24.5 1460.5,-5.5 1526.5,-5.5 1526.5,-24.5"/>
<text text-anchor="middle" x="1493.5" y="-12.5" font-family="Helvetica,sans-Serif" font-size="10.00">string_view</text>
</a>
</g>
</g>
<!-- Node22&#45;&gt;Node26 -->
<g id="edge30" class="edge">
<title>Node22&#45;&gt;Node26</title>
<path fill="none" stroke="#63b8ff" d="M1490.94,-65.87C1491.35,-58 1491.96,-46.1 1492.48,-35.89"/>
<polygon fill="#63b8ff" stroke="#63b8ff" points="1495.96,-36.35 1492.98,-26.18 1488.97,-35.99 1495.96,-36.35"/>
</g>
<!-- Node28 -->
<g id="node28" class="node">
<title>Node28</title>
<g id="a_node28"><a xlink:href="_axi_dma_8hpp.html" target="_top" xlink:title=" ">
<polygon fill="white" stroke="#666666" points="1282.5,-195 1214.5,-195 1214.5,-176 1282.5,-176 1282.5,-195"/>
<text text-anchor="middle" x="1248.5" y="-183" font-family="Helvetica,sans-Serif" font-size="10.00">AxiDma.hpp</text>
</a>
</g>
</g>
<!-- Node27&#45;&gt;Node28 -->
<g id="edge33" class="edge">
<title>Node27&#45;&gt;Node28</title>
<path fill="none" stroke="#63b8ff" d="M1251.91,-236.37C1251.37,-228.5 1250.56,-216.6 1249.86,-206.39"/>
<polygon fill="#63b8ff" stroke="#63b8ff" points="1253.37,-206.42 1249.2,-196.68 1246.39,-206.89 1253.37,-206.42"/>
</g>
<!-- Node29 -->
<g id="node29" class="node">
<title>Node29</title>
<g id="a_node29"><a xlink:href="_reg_accessor_8hpp.html" target="_top" xlink:title=" ">
<polygon fill="white" stroke="#666666" points="1196,-195 1103,-195 1103,-176 1196,-176 1196,-195"/>
<text text-anchor="middle" x="1149.5" y="-183" font-family="Helvetica,sans-Serif" font-size="10.00">RegAccessor.hpp</text>
</a>
</g>
</g>
<!-- Node27&#45;&gt;Node29 -->
<g id="edge35" class="edge">
<title>Node27&#45;&gt;Node29</title>
<path fill="none" stroke="#63b8ff" d="M1236.86,-236.12C1220.52,-226.84 1194.63,-212.13 1175.27,-201.14"/>
<polygon fill="#63b8ff" stroke="#63b8ff" points="1177.03,-198.11 1166.61,-196.22 1173.57,-204.2 1177.03,-198.11"/>
</g>
<!-- Node30 -->
<g id="node30" class="node">
<title>Node30</title>
<g id="a_node30"><a xlink:href="_uio_if_8hpp.html" target="_top" xlink:title=" ">
<polygon fill="white" stroke="#666666" points="1164.5,-140 1074.5,-140 1074.5,-121 1164.5,-121 1164.5,-140"/>
<text text-anchor="middle" x="1119.5" y="-128" font-family="Helvetica,sans-Serif" font-size="10.00">udmaio/UioIf.hpp</text>
</a>
</g>
</g>
<!-- Node27&#45;&gt;Node30 -->
<g id="edge51" class="edge">
<title>Node27&#45;&gt;Node30</title>
<path fill="none" stroke="#63b8ff" d="M1221.13,-236.1C1176.16,-223.2 1098.36,-200.27 1094.5,-195 1084.36,-181.16 1093.7,-162.65 1103.72,-149.19"/>
<polygon fill="#63b8ff" stroke="#63b8ff" points="1106.31,-151.55 1109.91,-141.59 1100.88,-147.13 1106.31,-151.55"/>
</g>
<!-- Node28&#45;&gt;Node6 -->
<g id="edge34" class="edge">
<title>Node28&#45;&gt;Node6</title>
<path fill="none" stroke="#63b8ff" d="M1248.33,-175.75C1248.21,-169.27 1248.04,-160.16 1247.88,-151.9"/>
<polygon fill="#63b8ff" stroke="#63b8ff" points="1251.39,-151.89 1247.7,-141.96 1244.39,-152.02 1251.39,-151.89"/>
</g>
<!-- Node29&#45;&gt;Node6 -->
<g id="edge36" class="edge">
<title>Node29&#45;&gt;Node6</title>
<path fill="none" stroke="#63b8ff" d="M1166.12,-175.51C1181.28,-167.31 1203.92,-155.07 1221.47,-145.58"/>
<polygon fill="#63b8ff" stroke="#63b8ff" points="1222.66,-148.91 1229.79,-141.08 1219.33,-142.76 1222.66,-148.91"/>
</g>
<!-- Node29&#45;&gt;Node30 -->
<g id="edge37" class="edge">
<title>Node29&#45;&gt;Node30</title>
<path fill="none" stroke="#63b8ff" d="M1144.55,-175.75C1140.66,-168.88 1135.11,-159.08 1130.22,-150.45"/>
<polygon fill="#63b8ff" stroke="#63b8ff" points="1133.28,-148.74 1125.31,-141.76 1127.19,-152.19 1133.28,-148.74"/>
</g>
<!-- Node30&#45;&gt;Node8 -->
<g id="edge42" class="edge">
<title>Node30&#45;&gt;Node8</title>
<path fill="none" stroke="#63b8ff" d="M1074.22,-128.33C1008.27,-125.56 890.78,-116.26 864.5,-85 859.07,-78.54 860.35,-73.35 864.5,-66 867.73,-60.28 897.88,-42.95 920.92,-30.29"/>
<polygon fill="#63b8ff" stroke="#63b8ff" points="922.45,-33.44 929.55,-25.59 919.1,-27.3 922.45,-33.44"/>
</g>
<!-- Node30&#45;&gt;Node11 -->
<g id="edge43" class="edge">
<title>Node30&#45;&gt;Node11</title>
<path fill="none" stroke="#63b8ff" d="M1074.01,-123C1011.34,-114.05 897.71,-97.82 822.66,-87.09"/>
<polygon fill="#63b8ff" stroke="#63b8ff" points="823.31,-83.65 812.92,-85.7 822.32,-90.58 823.31,-83.65"/>
</g>
<!-- Node30&#45;&gt;Node12 -->
<g id="edge49" class="edge">
<title>Node30&#45;&gt;Node12</title>
<path fill="none" stroke="#63b8ff" d="M1074.18,-125.03C973.24,-115.06 730.81,-91.14 628.89,-81.08"/>
<polygon fill="#63b8ff" stroke="#63b8ff" points="629.26,-77.6 618.96,-80.1 628.57,-84.56 629.26,-77.6"/>
</g>
<!-- Node30&#45;&gt;Node22 -->
<g id="edge50" class="edge">
<title>Node30&#45;&gt;Node22</title>
<path fill="none" stroke="#63b8ff" d="M1164.99,-123C1229.68,-113.76 1348.69,-96.76 1423.49,-86.07"/>
<polygon fill="#63b8ff" stroke="#63b8ff" points="1423.74,-89.57 1433.15,-84.69 1422.75,-82.64 1423.74,-89.57"/>
</g>
<!-- Node30&#45;&gt;Node23 -->
<g id="edge40" class="edge">
<title>Node30&#45;&gt;Node23</title>
<path fill="none" stroke="#63b8ff" d="M1164.88,-125.2C1275.78,-114.66 1551.79,-88.14 1555.5,-85 1569.57,-73.1 1573.72,-51.82 1574.71,-36.03"/>
<polygon fill="#63b8ff" stroke="#63b8ff" points="1578.21,-36.42 1574.93,-26.34 1571.21,-36.26 1578.21,-36.42"/>
</g>
<!-- Node30&#45;&gt;Node24 -->
<g id="edge41" class="edge">
<title>Node30&#45;&gt;Node24</title>
<path fill="none" stroke="#63b8ff" d="M1164.89,-121.27C1217.62,-111.34 1298.8,-94.76 1309.5,-85 1323.34,-72.38 1328.86,-51.21 1331.06,-35.65"/>
<polygon fill="#63b8ff" stroke="#63b8ff" points="1334.5,-36.45 1332.05,-26.14 1327.53,-35.72 1334.5,-36.45"/>
</g>
<!-- Node31 -->
<g id="node31" class="node">
<title>Node31</title>
<g id="a_node31"><a xlink:title=" ">
<polygon fill="#e0e0e0" stroke="#999999" points="1416.5,-85 1356.5,-85 1356.5,-66 1416.5,-66 1416.5,-85"/>
<text text-anchor="middle" x="1386.5" y="-73" font-family="Helvetica,sans-Serif" font-size="10.00">filesystem</text>
</a>
</g>
</g>
<!-- Node30&#45;&gt;Node31 -->
<g id="edge38" class="edge">
<title>Node30&#45;&gt;Node31</title>
<path fill="none" stroke="#63b8ff" d="M1164.79,-120.51C1215.34,-110.47 1296.43,-94.38 1345.27,-84.68"/>
<polygon fill="#63b8ff" stroke="#63b8ff" points="1345.75,-88.16 1354.88,-82.78 1344.39,-81.29 1345.75,-88.16"/>
</g>
<!-- Node32 -->
<g id="node32" class="node">
<title>Node32</title>
<g id="a_node32"><a xlink:title=" ">
<polygon fill="#e0e0e0" stroke="#999999" points="923.5,-85 873.5,-85 873.5,-66 923.5,-66 923.5,-85"/>
<text text-anchor="middle" x="898.5" y="-73" font-family="Helvetica,sans-Serif" font-size="10.00">fstream</text>
</a>
</g>
</g>
<!-- Node30&#45;&gt;Node32 -->
<g id="edge39" class="edge">
<title>Node30&#45;&gt;Node32</title>
<path fill="none" stroke="#63b8ff" d="M1081.73,-120.5C1046.42,-112.08 991.93,-99.07 934.81,-85.31"/>
<polygon fill="#63b8ff" stroke="#63b8ff" points="935.75,-81.93 925.2,-82.99 934.11,-88.74 935.75,-81.93"/>
</g>
<!-- Node33 -->
<g id="node33" class="node">
<title>Node33</title>
<g id="a_node33"><a xlink:title=" ">
<polygon fill="#e0e0e0" stroke="#999999" points="985,-85 942,-85 942,-66 985,-66 985,-85"/>
<text text-anchor="middle" x="963.5" y="-73" font-family="Helvetica,sans-Serif" font-size="10.00">fcntl.h</text>
</a>
</g>
</g>
<!-- Node30&#45;&gt;Node33 -->
<g id="edge44" class="edge">
<title>Node30&#45;&gt;Node33</title>
<path fill="none" stroke="#63b8ff" d="M1093.04,-120.51C1066.18,-111.38 1024.56,-97.24 995.78,-87.47"/>
<polygon fill="#63b8ff" stroke="#63b8ff" points="997.09,-84.21 986.49,-84.31 994.84,-90.84 997.09,-84.21"/>
</g>
<!-- Node34 -->
<g id="node34" class="node">
<title>Node34</title>
<g id="a_node34"><a xlink:title=" ">
<polygon fill="#e0e0e0" stroke="#999999" points="1072,-85 1003,-85 1003,-66 1072,-66 1072,-85"/>
<text text-anchor="middle" x="1037.5" y="-73" font-family="Helvetica,sans-Serif" font-size="10.00">sys/mman.h</text>
</a>
</g>
</g>
<!-- Node30&#45;&gt;Node34 -->
<g id="edge45" class="edge">
<title>Node30&#45;&gt;Node34</title>
<path fill="none" stroke="#63b8ff" d="M1105.59,-120.51C1093.26,-112.54 1075.03,-100.75 1060.53,-91.38"/>
<polygon fill="#63b8ff" stroke="#63b8ff" points="1062.77,-88.67 1052.48,-86.18 1058.97,-94.55 1062.77,-88.67"/>
</g>
<!-- Node35 -->
<g id="node35" class="node">
<title>Node35</title>
<g id="a_node35"><a xlink:title=" ">
<polygon fill="#e0e0e0" stroke="#999999" points="1149,-85 1090,-85 1090,-66 1149,-66 1149,-85"/>
<text text-anchor="middle" x="1119.5" y="-73" font-family="Helvetica,sans-Serif" font-size="10.00">sys/stat.h</text>
</a>
</g>
</g>
<!-- Node30&#45;&gt;Node35 -->
<g id="edge46" class="edge">
<title>Node30&#45;&gt;Node35</title>
<path fill="none" stroke="#63b8ff" d="M1119.5,-120.75C1119.5,-114.27 1119.5,-105.16 1119.5,-96.9"/>
<polygon fill="#63b8ff" stroke="#63b8ff" points="1123,-96.96 1119.5,-86.96 1116,-96.96 1123,-96.96"/>
</g>
<!-- Node36 -->
<g id="node36" class="node">
<title>Node36</title>
<g id="a_node36"><a xlink:title=" ">
<polygon fill="#e0e0e0" stroke="#999999" points="1232,-85 1167,-85 1167,-66 1232,-66 1232,-85"/>
<text text-anchor="middle" x="1199.5" y="-73" font-family="Helvetica,sans-Serif" font-size="10.00">sys/types.h</text>
</a>
</g>
</g>
<!-- Node30&#45;&gt;Node36 -->
<g id="edge47" class="edge">
<title>Node30&#45;&gt;Node36</title>
<path fill="none" stroke="#63b8ff" d="M1133.07,-120.51C1144.98,-112.62 1162.55,-100.98 1176.63,-91.65"/>
<polygon fill="#63b8ff" stroke="#63b8ff" points="1178.46,-94.63 1184.87,-86.19 1174.6,-88.8 1178.46,-94.63"/>
</g>
<!-- Node37 -->
<g id="node37" class="node">
<title>Node37</title>
<g id="a_node37"><a xlink:title=" ">
<polygon fill="#e0e0e0" stroke="#999999" points="1300.5,-85 1250.5,-85 1250.5,-66 1300.5,-66 1300.5,-85"/>
<text text-anchor="middle" x="1275.5" y="-73" font-family="Helvetica,sans-Serif" font-size="10.00">unistd.h</text>
</a>
</g>
</g>
<!-- Node30&#45;&gt;Node37 -->
<g id="edge48" class="edge">
<title>Node30&#45;&gt;Node37</title>
<path fill="none" stroke="#63b8ff" d="M1145.96,-120.51C1171.67,-111.77 1210.9,-98.45 1239.45,-88.75"/>
<polygon fill="#63b8ff" stroke="#63b8ff" points="1240.43,-92.11 1248.77,-85.58 1238.17,-85.48 1240.43,-92.11"/>
</g>
<!-- Node38&#45;&gt;Node21 -->
<g id="edge53" class="edge">
<title>Node38&#45;&gt;Node21</title>
<path fill="none" stroke="#63b8ff" d="M900.43,-236.37C898.53,-228.42 895.64,-216.33 893.18,-206.05"/>
<polygon fill="#63b8ff" stroke="#63b8ff" points="896.66,-205.55 890.93,-196.64 889.85,-207.18 896.66,-205.55"/>
</g>
<!-- Node38&#45;&gt;Node29 -->
<g id="edge54" class="edge">
<title>Node38&#45;&gt;Node29</title>
<path fill="none" stroke="#63b8ff" d="M940.28,-236.05C983.23,-225.88 1053.47,-209.24 1100.57,-198.09"/>
<polygon fill="#63b8ff" stroke="#63b8ff" points="1101.32,-201.51 1110.25,-195.8 1099.71,-194.7 1101.32,-201.51"/>
</g>
</g>
</svg>
