<?xml version="1.0" encoding="UTF-8" standalone="no"?>
<!DOCTYPE svg PUBLIC "-//W3C//DTD SVG 1.1//EN"
 "http://www.w3.org/Graphics/SVG/1.1/DTD/svg11.dtd">
<!-- Generated by graphviz version 7.0.5 (20221223.1930)
 -->
<!-- Title: DataHandlerSync.hpp Pages: 1 -->
<svg width="1662pt" height="379pt"
 viewBox="0.00 0.00 1661.50 379.00" xmlns="http://www.w3.org/2000/svg" xmlns:xlink="http://www.w3.org/1999/xlink">
<g id="graph0" class="graph" transform="scale(1 1) rotate(0) translate(4 375)">
<title>DataHandlerSync.hpp</title>
<!-- Node1 -->
<g id="node1" class="node">
<title>Node1</title>
<g id="a_node1"><a xlink:title=" ">
<polygon fill="#999999" stroke="#666666" points="187,-371 77,-371 77,-352 187,-352 187,-371"/>
<text text-anchor="middle" x="132" y="-359" font-family="Helvetica,sans-Serif" font-size="10.00">DataHandlerSync.hpp</text>
</a>
</g>
</g>
<!-- Node2 -->
<g id="node2" class="node">
<title>Node2</title>
<g id="a_node2"><a xlink:title=" ">
<polygon fill="#e0e0e0" stroke="#999999" points="63,-316 13,-316 13,-297 63,-297 63,-316"/>
<text text-anchor="middle" x="38" y="-304" font-family="Helvetica,sans-Serif" font-size="10.00">optional</text>
</a>
</g>
</g>
<!-- Node1&#45;&gt;Node2 -->
<g id="edge1" class="edge">
<title>Node1&#45;&gt;Node2</title>
<path fill="none" stroke="#63b8ff" d="M116.05,-351.51C101.65,-343.39 80.21,-331.3 63.44,-321.85"/>
<polygon fill="#63b8ff" stroke="#63b8ff" points="65.46,-318.96 55.03,-317.1 62.02,-325.06 65.46,-318.96"/>
</g>
<!-- Node3 -->
<g id="node3" class="node">
<title>Node3</title>
<g id="a_node3"><a xlink:title=" ">
<polygon fill="#e0e0e0" stroke="#999999" points="44,-255.5 0,-255.5 0,-236.5 44,-236.5 44,-255.5"/>
<text text-anchor="middle" x="22" y="-243.5" font-family="Helvetica,sans-Serif" font-size="10.00">thread</text>
</a>
</g>
</g>
<!-- Node1&#45;&gt;Node3 -->
<g id="edge2" class="edge">
<title>Node1&#45;&gt;Node3</title>
<path fill="none" stroke="#63b8ff" d="M123.92,-351.8C112.47,-339.5 90.82,-316.36 72,-297 61.12,-285.81 48.72,-273.41 38.99,-263.76"/>
<polygon fill="#63b8ff" stroke="#63b8ff" points="41.57,-261.39 32,-256.84 36.65,-266.36 41.57,-261.39"/>
</g>
<!-- Node4 -->
<g id="node4" class="node">
<title>Node4</title>
<g id="a_node4"><a xlink:href="_concurrent_queue_8hpp.html" target="_top" xlink:title=" ">
<polygon fill="white" stroke="#666666" points="229,-316 119,-316 119,-297 229,-297 229,-316"/>
<text text-anchor="middle" x="174" y="-304" font-family="Helvetica,sans-Serif" font-size="10.00">ConcurrentQueue.hpp</text>
</a>
</g>
</g>
<!-- Node1&#45;&gt;Node4 -->
<g id="edge3" class="edge">
<title>Node1&#45;&gt;Node4</title>
<path fill="none" stroke="#63b8ff" d="M138.94,-351.75C144.62,-344.58 152.84,-334.2 159.89,-325.3"/>
<polygon fill="#63b8ff" stroke="#63b8ff" points="162.51,-327.64 165.97,-317.63 157.02,-323.29 162.51,-327.64"/>
</g>
<!-- Node9 -->
<g id="node9" class="node">
<title>Node9</title>
<g id="a_node9"><a xlink:href="_data_handler_abstract_8hpp.html" target="_top" xlink:title=" ">
<polygon fill="white" stroke="#666666" points="742.5,-316 617.5,-316 617.5,-297 742.5,-297 742.5,-316"/>
<text text-anchor="middle" x="680" y="-304" font-family="Helvetica,sans-Serif" font-size="10.00">DataHandlerAbstract.hpp</text>
</a>
</g>
</g>
<!-- Node1&#45;&gt;Node9 -->
<g id="edge9" class="edge">
<title>Node1&#45;&gt;Node9</title>
<path fill="none" stroke="#63b8ff" d="M187.31,-355.15C286.49,-345.56 494.62,-325.43 605.98,-314.66"/>
<polygon fill="#63b8ff" stroke="#63b8ff" points="605.98,-318.18 615.6,-313.73 605.3,-311.21 605.98,-318.18"/>
</g>
<!-- Node4&#45;&gt;Node3 -->
<g id="edge8" class="edge">
<title>Node4&#45;&gt;Node3</title>
<path fill="none" stroke="#63b8ff" d="M148.3,-296.65C123.67,-288.03 85.52,-274.3 53,-261 52.52,-260.8 52.04,-260.61 51.56,-260.4"/>
<polygon fill="#63b8ff" stroke="#63b8ff" points="53.21,-257.31 42.64,-256.55 50.44,-263.73 53.21,-257.31"/>
</g>
<!-- Node5 -->
<g id="node5" class="node">
<title>Node5</title>
<g id="a_node5"><a xlink:title=" ">
<polygon fill="#e0e0e0" stroke="#999999" points="108,-255.5 62,-255.5 62,-236.5 108,-236.5 108,-255.5"/>
<text text-anchor="middle" x="85" y="-243.5" font-family="Helvetica,sans-Serif" font-size="10.00">chrono</text>
</a>
</g>
</g>
<!-- Node4&#45;&gt;Node5 -->
<g id="edge4" class="edge">
<title>Node4&#45;&gt;Node5</title>
<path fill="none" stroke="#63b8ff" d="M160.48,-296.62C146.63,-287.51 124.82,-273.18 108.2,-262.25"/>
<polygon fill="#63b8ff" stroke="#63b8ff" points="110.19,-259.37 99.91,-256.8 106.34,-265.22 110.19,-259.37"/>
</g>
<!-- Node6 -->
<g id="node6" class="node">
<title>Node6</title>
<g id="a_node6"><a xlink:title=" ">
<polygon fill="#e0e0e0" stroke="#999999" points="221.5,-255.5 126.5,-255.5 126.5,-236.5 221.5,-236.5 221.5,-255.5"/>
<text text-anchor="middle" x="174" y="-243.5" font-family="Helvetica,sans-Serif" font-size="10.00">condition_variable</text>
</a>
</g>
</g>
<!-- Node4&#45;&gt;Node6 -->
<g id="edge5" class="edge">
<title>Node4&#45;&gt;Node6</title>
<path fill="none" stroke="#63b8ff" d="M174,-296.87C174,-289 174,-277.1 174,-266.89"/>
<polygon fill="#63b8ff" stroke="#63b8ff" points="177.5,-267.18 174,-257.18 170.5,-267.18 177.5,-267.18"/>
</g>
<!-- Node7 -->
<g id="node7" class="node">
<title>Node7</title>
<g id="a_node7"><a xlink:title=" ">
<polygon fill="#e0e0e0" stroke="#999999" points="282.5,-255.5 239.5,-255.5 239.5,-236.5 282.5,-236.5 282.5,-255.5"/>
<text text-anchor="middle" x="261" y="-243.5" font-family="Helvetica,sans-Serif" font-size="10.00">mutex</text>
</a>
</g>
</g>
<!-- Node4&#45;&gt;Node7 -->
<g id="edge6" class="edge">
<title>Node4&#45;&gt;Node7</title>
<path fill="none" stroke="#63b8ff" d="M187.21,-296.62C200.75,-287.51 222.07,-273.18 238.32,-262.25"/>
<polygon fill="#63b8ff" stroke="#63b8ff" points="240.06,-265.3 246.41,-256.81 236.15,-259.49 240.06,-265.3"/>
</g>
<!-- Node8 -->
<g id="node8" class="node">
<title>Node8</title>
<g id="a_node8"><a xlink:title=" ">
<polygon fill="#e0e0e0" stroke="#999999" points="343.5,-255.5 300.5,-255.5 300.5,-236.5 343.5,-236.5 343.5,-255.5"/>
<text text-anchor="middle" x="322" y="-243.5" font-family="Helvetica,sans-Serif" font-size="10.00">queue</text>
</a>
</g>
</g>
<!-- Node4&#45;&gt;Node8 -->
<g id="edge7" class="edge">
<title>Node4&#45;&gt;Node8</title>
<path fill="none" stroke="#63b8ff" d="M198.82,-296.56C222.63,-287.86 259.49,-274.09 291,-261 291.48,-260.8 291.96,-260.6 292.44,-260.4"/>
<polygon fill="#63b8ff" stroke="#63b8ff" points="293.57,-263.72 301.34,-256.52 290.78,-257.3 293.57,-263.72"/>
</g>
<!-- Node10 -->
<g id="node10" class="node">
<title>Node10</title>
<g id="a_node10"><a xlink:title=" ">
<polygon fill="#e0e0e0" stroke="#999999" points="726.5,-24.5 685.5,-24.5 685.5,-5.5 726.5,-5.5 726.5,-24.5"/>
<text text-anchor="middle" x="706" y="-12.5" font-family="Helvetica,sans-Serif" font-size="10.00">string</text>
</a>
</g>
</g>
<!-- Node9&#45;&gt;Node10 -->
<g id="edge10" class="edge">
<title>Node9&#45;&gt;Node10</title>
<path fill="none" stroke="#63b8ff" d="M708.55,-296.52C730.48,-288.91 760.98,-276.72 785,-261 808.81,-245.42 959.75,-111.13 971,-85 974.34,-77.24 976.5,-72.41 971,-66 936.59,-25.91 786.56,-45.33 736,-30 735.04,-29.71 734.07,-29.39 733.09,-29.05"/>
<polygon fill="#63b8ff" stroke="#63b8ff" points="734.79,-25.96 724.2,-25.43 732.15,-32.45 734.79,-25.96"/>
</g>
<!-- Node11 -->
<g id="node11" class="node">
<title>Node11</title>
<g id="a_node11"><a xlink:title=" ">
<polygon fill="#e0e0e0" stroke="#999999" points="444,-140 400,-140 400,-121 444,-121 444,-140"/>
<text text-anchor="middle" x="422" y="-128" font-family="Helvetica,sans-Serif" font-size="10.00">vector</text>
</a>
</g>
</g>
<!-- Node9&#45;&gt;Node11 -->
<g id="edge11" class="edge">
<title>Node9&#45;&gt;Node11</title>
<path fill="none" stroke="#63b8ff" d="M617.22,-299.79C561.13,-293.45 484.43,-281.33 462,-261 430.7,-232.63 423.63,-180.38 422.2,-151.68"/>
<polygon fill="#63b8ff" stroke="#63b8ff" points="425.7,-151.73 421.91,-141.83 418.7,-151.93 425.7,-151.73"/>
</g>
<!-- Node12 -->
<g id="node12" class="node">
<title>Node12</title>
<g id="a_node12"><a xlink:title=" ">
<polygon fill="#e0e0e0" stroke="#999999" points="912,-255.5 832,-255.5 832,-236.5 912,-236.5 912,-255.5"/>
<text text-anchor="middle" x="872" y="-243.5" font-family="Helvetica,sans-Serif" font-size="10.00">boost/asio.hpp</text>
</a>
</g>
</g>
<!-- Node9&#45;&gt;Node12 -->
<g id="edge12" class="edge">
<title>Node9&#45;&gt;Node12</title>
<path fill="none" stroke="#63b8ff" d="M709.16,-296.62C741.86,-286.65 795.11,-270.43 831.76,-259.26"/>
<polygon fill="#63b8ff" stroke="#63b8ff" points="832.57,-262.67 841.12,-256.41 830.53,-255.98 832.57,-262.67"/>
</g>
<!-- Node13 -->
<g id="node13" class="node">
<title>Node13</title>
<g id="a_node13"><a xlink:title=" ">
<polygon fill="#e0e0e0" stroke="#999999" points="137.5,-85 0.5,-85 0.5,-66 137.5,-66 137.5,-85"/>
<text text-anchor="middle" x="69" y="-73" font-family="Helvetica,sans-Serif" font-size="10.00">boost/core/noncopyable.hpp</text>
</a>
</g>
</g>
<!-- Node9&#45;&gt;Node13 -->
<g id="edge13" class="edge">
<title>Node9&#45;&gt;Node13</title>
<path fill="none" stroke="#63b8ff" d="M617.1,-299.03C567.08,-292.71 495.82,-281.03 436,-261 299.13,-215.17 149.28,-126.48 92.53,-91.35"/>
<polygon fill="#63b8ff" stroke="#63b8ff" points="94.66,-88.55 84.32,-86.24 90.96,-94.5 94.66,-88.55"/>
</g>
<!-- Node14 -->
<g id="node14" class="node">
<title>Node14</title>
<g id="a_node14"><a xlink:href="_logging_8hpp.html" target="_top" xlink:title=" ">
<polygon fill="white" stroke="#666666" points="1111.5,-85 1042.5,-85 1042.5,-66 1111.5,-66 1111.5,-85"/>
<text text-anchor="middle" x="1077" y="-73" font-family="Helvetica,sans-Serif" font-size="10.00">Logging.hpp</text>
</a>
</g>
</g>
<!-- Node9&#45;&gt;Node14 -->
<g id="edge14" class="edge">
<title>Node9&#45;&gt;Node14</title>
<path fill="none" stroke="#63b8ff" d="M742.62,-302.39C844.57,-296.7 1037.29,-283.14 1059,-261 1102.52,-216.61 1090.61,-134.17 1082.15,-96.37"/>
<polygon fill="#63b8ff" stroke="#63b8ff" points="1085.6,-95.75 1079.85,-86.85 1078.79,-97.39 1085.6,-95.75"/>
</g>
<!-- Node22 -->
<g id="node22" class="node">
<title>Node22</title>
<g id="a_node22"><a xlink:href="_u_dma_buf_8hpp.html" target="_top" xlink:title=" ">
<polygon fill="white" stroke="#666666" points="668.5,-255.5 591.5,-255.5 591.5,-236.5 668.5,-236.5 668.5,-255.5"/>
<text text-anchor="middle" x="630" y="-243.5" font-family="Helvetica,sans-Serif" font-size="10.00">UDmaBuf.hpp</text>
</a>
</g>
</g>
<!-- Node9&#45;&gt;Node22 -->
<g id="edge23" class="edge">
<title>Node9&#45;&gt;Node22</title>
<path fill="none" stroke="#63b8ff" d="M672.62,-296.87C665.31,-288.31 653.91,-274.97 644.74,-264.24"/>
<polygon fill="#63b8ff" stroke="#63b8ff" points="647.55,-262.15 638.39,-256.82 642.23,-266.69 647.55,-262.15"/>
</g>
<!-- Node30 -->
<g id="node30" class="node">
<title>Node30</title>
<g id="a_node30"><a xlink:href="_uio_axi_dma_if_8hpp.html" target="_top" xlink:title=" ">
<polygon fill="white" stroke="#666666" points="775.5,-255.5 686.5,-255.5 686.5,-236.5 775.5,-236.5 775.5,-255.5"/>
<text text-anchor="middle" x="731" y="-243.5" font-family="Helvetica,sans-Serif" font-size="10.00">UioAxiDmaIf.hpp</text>
</a>
</g>
</g>
<!-- Node9&#45;&gt;Node30 -->
<g id="edge35" class="edge">
<title>Node9&#45;&gt;Node30</title>
<path fill="none" stroke="#63b8ff" d="M687.53,-296.87C694.98,-288.31 706.61,-274.97 715.97,-264.24"/>
<polygon fill="#63b8ff" stroke="#63b8ff" points="718.52,-266.65 722.45,-256.81 713.24,-262.05 718.52,-266.65"/>
</g>
<!-- Node42 -->
<g id="node42" class="node">
<title>Node42</title>
<g id="a_node42"><a xlink:href="_uio_mem_sgdma_8hpp.html" target="_top" xlink:title=" ">
<polygon fill="white" stroke="#666666" points="573,-255.5 471,-255.5 471,-236.5 573,-236.5 573,-255.5"/>
<text text-anchor="middle" x="522" y="-243.5" font-family="Helvetica,sans-Serif" font-size="10.00">UioMemSgdma.hpp</text>
</a>
</g>
</g>
<!-- Node9&#45;&gt;Node42 -->
<g id="edge56" class="edge">
<title>Node9&#45;&gt;Node42</title>
<path fill="none" stroke="#63b8ff" d="M656,-296.62C629.55,-286.82 586.78,-270.98 556.68,-259.84"/>
<polygon fill="#63b8ff" stroke="#63b8ff" points="558.24,-256.68 547.64,-256.49 555.8,-263.25 558.24,-256.68"/>
</g>
<!-- Node43 -->
<g id="node43" class="node">
<title>Node43</title>
<g id="a_node43"><a xlink:title=" ">
<polygon fill="#e0e0e0" stroke="#999999" points="1050,-261 930,-261 930,-231 1050,-231 1050,-261"/>
<text text-anchor="start" x="938" y="-249" font-family="Helvetica,sans-Serif" font-size="10.00">boost/asio/posix/stream</text>
<text text-anchor="middle" x="990" y="-238" font-family="Helvetica,sans-Serif" font-size="10.00">_descriptor.hpp</text>
</a>
</g>
</g>
<!-- Node9&#45;&gt;Node43 -->
<g id="edge59" class="edge">
<title>Node9&#45;&gt;Node43</title>
<path fill="none" stroke="#63b8ff" d="M729.9,-296.55C776.29,-288.17 847.61,-275.14 918.84,-261.4"/>
<polygon fill="#63b8ff" stroke="#63b8ff" points="919.16,-264.9 928.32,-259.57 917.83,-258.03 919.16,-264.9"/>
</g>
<!-- Node14&#45;&gt;Node10 -->
<g id="edge15" class="edge">
<title>Node14&#45;&gt;Node10</title>
<path fill="none" stroke="#63b8ff" d="M1042.19,-68.5C1036.78,-67.62 1031.24,-66.76 1026,-66 897.47,-47.32 860.82,-65.9 736,-30 735.03,-29.72 734.06,-29.42 733.08,-29.09"/>
<polygon fill="#63b8ff" stroke="#63b8ff" points="734.76,-25.99 724.18,-25.51 732.16,-32.49 734.76,-25.99"/>
</g>
<!-- Node15 -->
<g id="node15" class="node">
<title>Node15</title>
<g id="a_node15"><a xlink:title=" ">
<polygon fill="#e0e0e0" stroke="#999999" points="1387,-24.5 1291,-24.5 1291,-5.5 1387,-5.5 1387,-24.5"/>
<text text-anchor="middle" x="1339" y="-12.5" font-family="Helvetica,sans-Serif" font-size="10.00">boost/log/core.hpp</text>
</a>
</g>
</g>
<!-- Node14&#45;&gt;Node15 -->
<g id="edge16" class="edge">
<title>Node14&#45;&gt;Node15</title>
<path fill="none" stroke="#63b8ff" d="M1111.89,-67.23C1152.73,-58.64 1222.39,-43.79 1282,-30 1285.32,-29.23 1288.74,-28.43 1292.19,-27.61"/>
<polygon fill="#63b8ff" stroke="#63b8ff" points="1292.78,-31.06 1301.68,-25.32 1291.14,-24.26 1292.78,-31.06"/>
</g>
<!-- Node16 -->
<g id="node16" class="node">
<title>Node16</title>
<g id="a_node16"><a xlink:title=" ">
<polygon fill="#e0e0e0" stroke="#999999" points="1534.5,-24.5 1405.5,-24.5 1405.5,-5.5 1534.5,-5.5 1534.5,-24.5"/>
<text text-anchor="middle" x="1470" y="-12.5" font-family="Helvetica,sans-Serif" font-size="10.00">boost/log/expressions.hpp</text>
</a>
</g>
</g>
<!-- Node14&#45;&gt;Node16 -->
<g id="edge17" class="edge">
<title>Node14&#45;&gt;Node16</title>
<path fill="none" stroke="#63b8ff" d="M1111.54,-70.24C1170.16,-62.88 1292.82,-46.95 1396,-30 1401.66,-29.07 1407.55,-28.05 1413.44,-26.99"/>
<polygon fill="#63b8ff" stroke="#63b8ff" points="1413.97,-30.45 1423.18,-25.21 1412.71,-23.57 1413.97,-30.45"/>
</g>
<!-- Node17 -->
<g id="node17" class="node">
<title>Node17</title>
<g id="a_node17"><a xlink:title=" ">
<polygon fill="#e0e0e0" stroke="#999999" points="1653.5,-24.5 1552.5,-24.5 1552.5,-5.5 1653.5,-5.5 1653.5,-24.5"/>
<text text-anchor="middle" x="1603" y="-12.5" font-family="Helvetica,sans-Serif" font-size="10.00">boost/log/trivial.hpp</text>
</a>
</g>
</g>
<!-- Node14&#45;&gt;Node17 -->
<g id="edge18" class="edge">
<title>Node14&#45;&gt;Node17</title>
<path fill="none" stroke="#63b8ff" d="M1111.78,-72.83C1189.63,-68.73 1383.7,-56.53 1544,-30 1548.56,-29.25 1553.28,-28.34 1557.99,-27.35"/>
<polygon fill="#63b8ff" stroke="#63b8ff" points="1558.36,-30.86 1567.37,-25.28 1556.85,-24.02 1558.36,-30.86"/>
</g>
<!-- Node18 -->
<g id="node18" class="node">
<title>Node18</title>
<g id="a_node18"><a xlink:title=" ">
<polygon fill="#e0e0e0" stroke="#999999" points="853.5,-30 744.5,-30 744.5,0 853.5,0 853.5,-30"/>
<text text-anchor="start" x="752.5" y="-18" font-family="Helvetica,sans-Serif" font-size="10.00">boost/log/utility/setup</text>
<text text-anchor="middle" x="799" y="-7" font-family="Helvetica,sans-Serif" font-size="10.00">/console.hpp</text>
</a>
</g>
</g>
<!-- Node14&#45;&gt;Node18 -->
<g id="edge19" class="edge">
<title>Node14&#45;&gt;Node18</title>
<path fill="none" stroke="#63b8ff" d="M1042.13,-67.37C1001.91,-59.11 933.49,-44.99 864.82,-30.38"/>
<polygon fill="#63b8ff" stroke="#63b8ff" points="865.79,-27 855.29,-28.34 864.34,-33.85 865.79,-27"/>
</g>
<!-- Node19 -->
<g id="node19" class="node">
<title>Node19</title>
<g id="a_node19"><a xlink:title=" ">
<polygon fill="#e0e0e0" stroke="#999999" points="1002.5,-30 871.5,-30 871.5,0 1002.5,0 1002.5,-30"/>
<text text-anchor="start" x="879.5" y="-18" font-family="Helvetica,sans-Serif" font-size="10.00">boost/log/sources/severity</text>
<text text-anchor="middle" x="937" y="-7" font-family="Helvetica,sans-Serif" font-size="10.00">_channel_logger.hpp</text>
</a>
</g>
</g>
<!-- Node14&#45;&gt;Node19 -->
<g id="edge20" class="edge">
<title>Node14&#45;&gt;Node19</title>
<path fill="none" stroke="#63b8ff" d="M1055.74,-65.62C1036.28,-57.48 1006.85,-45.19 982.16,-34.87"/>
<polygon fill="#63b8ff" stroke="#63b8ff" points="983.53,-31.65 972.95,-31.02 980.83,-38.11 983.53,-31.65"/>
</g>
<!-- Node20 -->
<g id="node20" class="node">
<title>Node20</title>
<g id="a_node20"><a xlink:title=" ">
<polygon fill="#e0e0e0" stroke="#999999" points="1133.5,-30 1020.5,-30 1020.5,0 1133.5,0 1133.5,-30"/>
<text text-anchor="start" x="1028.5" y="-18" font-family="Helvetica,sans-Serif" font-size="10.00">boost/log/support/date</text>
<text text-anchor="middle" x="1077" y="-7" font-family="Helvetica,sans-Serif" font-size="10.00">_time.hpp</text>
</a>
</g>
</g>
<!-- Node14&#45;&gt;Node20 -->
<g id="edge21" class="edge">
<title>Node14&#45;&gt;Node20</title>
<path fill="none" stroke="#63b8ff" d="M1077,-65.87C1077,-59.4 1077,-50.2 1077,-41.45"/>
<polygon fill="#63b8ff" stroke="#63b8ff" points="1080.5,-41.63 1077,-31.63 1073.5,-41.63 1080.5,-41.63"/>
</g>
<!-- Node21 -->
<g id="node21" class="node">
<title>Node21</title>
<g id="a_node21"><a xlink:title=" ">
<polygon fill="#e0e0e0" stroke="#999999" points="1272.5,-30 1151.5,-30 1151.5,0 1272.5,0 1272.5,-30"/>
<text text-anchor="start" x="1159.5" y="-18" font-family="Helvetica,sans-Serif" font-size="10.00">boost/log/utility/setup</text>
<text text-anchor="middle" x="1212" y="-7" font-family="Helvetica,sans-Serif" font-size="10.00">/common_attributes.hpp</text>
</a>
</g>
</g>
<!-- Node14&#45;&gt;Node21 -->
<g id="edge22" class="edge">
<title>Node14&#45;&gt;Node21</title>
<path fill="none" stroke="#63b8ff" d="M1097.5,-65.62C1116.18,-57.52 1144.39,-45.3 1168.13,-35.01"/>
<polygon fill="#63b8ff" stroke="#63b8ff" points="1169.51,-38.23 1177.29,-31.04 1166.72,-31.81 1169.51,-38.23"/>
</g>
<!-- Node22&#45;&gt;Node14 -->
<g id="edge34" class="edge">
<title>Node22&#45;&gt;Node14</title>
<path fill="none" stroke="#63b8ff" d="M656.92,-236C685.93,-226.22 733.41,-209.98 774,-195 873.15,-158.41 989.23,-112 1044.52,-89.68"/>
<polygon fill="#63b8ff" stroke="#63b8ff" points="1045.7,-92.98 1053.66,-85.98 1043.07,-86.49 1045.7,-92.98"/>
</g>
<!-- Node23 -->
<g id="node23" class="node">
<title>Node23</title>
<g id="a_node23"><a xlink:href="_dma_buffer_abstract_8hpp.html" target="_top" xlink:title=" ">
<polygon fill="white" stroke="#666666" points="567.5,-195 450.5,-195 450.5,-176 567.5,-176 567.5,-195"/>
<text text-anchor="middle" x="509" y="-183" font-family="Helvetica,sans-Serif" font-size="10.00">DmaBufferAbstract.hpp</text>
</a>
</g>
</g>
<!-- Node22&#45;&gt;Node23 -->
<g id="edge24" class="edge">
<title>Node22&#45;&gt;Node23</title>
<path fill="none" stroke="#63b8ff" d="M611.62,-236.12C591.99,-226.62 560.61,-211.45 537.71,-200.38"/>
<polygon fill="#63b8ff" stroke="#63b8ff" points="539.44,-197.33 528.91,-196.13 536.39,-203.63 539.44,-197.33"/>
</g>
<!-- Node23&#45;&gt;Node11 -->
<g id="edge26" class="edge">
<title>Node23&#45;&gt;Node11</title>
<path fill="none" stroke="#63b8ff" d="M494.24,-175.51C481.04,-167.47 461.44,-155.53 445.99,-146.11"/>
<polygon fill="#63b8ff" stroke="#63b8ff" points="448.19,-143.36 437.83,-141.15 444.55,-149.34 448.19,-143.36"/>
</g>
<!-- Node23&#45;&gt;Node13 -->
<g id="edge27" class="edge">
<title>Node23&#45;&gt;Node13</title>
<path fill="none" stroke="#63b8ff" d="M504.16,-175.69C495.81,-161.45 477.23,-133.67 453,-121 449.65,-119.25 260.53,-97.89 148.98,-85.41"/>
<polygon fill="#63b8ff" stroke="#63b8ff" points="149.6,-81.96 139.28,-84.33 148.83,-88.92 149.6,-81.96"/>
</g>
<!-- Node24 -->
<g id="node24" class="node">
<title>Node24</title>
<g id="a_node24"><a xlink:title=" ">
<polygon fill="#e0e0e0" stroke="#999999" points="586,-140 540,-140 540,-121 586,-121 586,-140"/>
<text text-anchor="middle" x="563" y="-128" font-family="Helvetica,sans-Serif" font-size="10.00">cstdint</text>
</a>
</g>
</g>
<!-- Node23&#45;&gt;Node24 -->
<g id="edge25" class="edge">
<title>Node23&#45;&gt;Node24</title>
<path fill="none" stroke="#63b8ff" d="M517.92,-175.75C525.45,-168.35 536.47,-157.54 545.73,-148.45"/>
<polygon fill="#63b8ff" stroke="#63b8ff" points="548.12,-151 552.81,-141.5 543.22,-146.01 548.12,-151"/>
</g>
<!-- Node25 -->
<g id="node25" class="node">
<title>Node25</title>
<g id="a_node25"><a xlink:href="_uio_config_8hpp.html" target="_top" xlink:title=" ">
<polygon fill="white" stroke="#666666" points="266.5,-85 155.5,-85 155.5,-66 266.5,-66 266.5,-85"/>
<text text-anchor="middle" x="211" y="-73" font-family="Helvetica,sans-Serif" font-size="10.00">udmaio/UioConfig.hpp</text>
</a>
</g>
</g>
<!-- Node23&#45;&gt;Node25 -->
<g id="edge28" class="edge">
<title>Node23&#45;&gt;Node25</title>
<path fill="none" stroke="#63b8ff" d="M508.51,-175.52C507.23,-161.55 502.61,-134.76 486,-121 478,-114.37 356.89,-96.6 278.08,-85.62"/>
<polygon fill="#63b8ff" stroke="#63b8ff" points="278.67,-82.17 268.28,-84.26 277.7,-89.11 278.67,-82.17"/>
</g>
<!-- Node25&#45;&gt;Node10 -->
<g id="edge32" class="edge">
<title>Node25&#45;&gt;Node10</title>
<path fill="none" stroke="#63b8ff" d="M266.82,-67.9C370.82,-55.61 591.17,-29.57 673.8,-19.81"/>
<polygon fill="#63b8ff" stroke="#63b8ff" points="674.16,-23.29 683.68,-18.64 673.34,-16.34 674.16,-23.29"/>
</g>
<!-- Node26 -->
<g id="node26" class="node">
<title>Node26</title>
<g id="a_node26"><a xlink:title=" ">
<polygon fill="#e0e0e0" stroke="#999999" points="318,-24.5 264,-24.5 264,-5.5 318,-5.5 318,-24.5"/>
<text text-anchor="middle" x="291" y="-12.5" font-family="Helvetica,sans-Serif" font-size="10.00">iostream</text>
</a>
</g>
</g>
<!-- Node25&#45;&gt;Node26 -->
<g id="edge29" class="edge">
<title>Node25&#45;&gt;Node26</title>
<path fill="none" stroke="#63b8ff" d="M223.15,-65.62C235.48,-56.6 254.83,-42.45 269.72,-31.56"/>
<polygon fill="#63b8ff" stroke="#63b8ff" points="271.51,-34.59 277.51,-25.86 267.38,-28.94 271.51,-34.59"/>
</g>
<!-- Node27 -->
<g id="node27" class="node">
<title>Node27</title>
<g id="a_node27"><a xlink:title=" ">
<polygon fill="#e0e0e0" stroke="#999999" points="528.5,-24.5 477.5,-24.5 477.5,-5.5 528.5,-5.5 528.5,-24.5"/>
<text text-anchor="middle" x="503" y="-12.5" font-family="Helvetica,sans-Serif" font-size="10.00">memory</text>
</a>
</g>
</g>
<!-- Node25&#45;&gt;Node27 -->
<g id="edge30" class="edge">
<title>Node25&#45;&gt;Node27</title>
<path fill="none" stroke="#63b8ff" d="M255.67,-65.55C313.27,-54.01 412.39,-34.15 466,-23.41"/>
<polygon fill="#63b8ff" stroke="#63b8ff" points="466.43,-26.9 475.54,-21.5 465.05,-20.03 466.43,-26.9"/>
</g>
<!-- Node28 -->
<g id="node28" class="node">
<title>Node28</title>
<g id="a_node28"><a xlink:title=" ">
<polygon fill="#e0e0e0" stroke="#999999" points="242.5,-24.5 183.5,-24.5 183.5,-5.5 242.5,-5.5 242.5,-24.5"/>
<text text-anchor="middle" x="213" y="-12.5" font-family="Helvetica,sans-Serif" font-size="10.00">stdexcept</text>
</a>
</g>
</g>
<!-- Node25&#45;&gt;Node28 -->
<g id="edge31" class="edge">
<title>Node25&#45;&gt;Node28</title>
<path fill="none" stroke="#63b8ff" d="M211.3,-65.87C211.56,-58 211.97,-46.1 212.32,-35.89"/>
<polygon fill="#63b8ff" stroke="#63b8ff" points="215.81,-36.29 212.65,-26.18 208.81,-36.05 215.81,-36.29"/>
</g>
<!-- Node29 -->
<g id="node29" class="node">
<title>Node29</title>
<g id="a_node29"><a xlink:title=" ">
<polygon fill="#e0e0e0" stroke="#999999" points="165,-24.5 99,-24.5 99,-5.5 165,-5.5 165,-24.5"/>
<text text-anchor="middle" x="132" y="-12.5" font-family="Helvetica,sans-Serif" font-size="10.00">string_view</text>
</a>
</g>
</g>
<!-- Node25&#45;&gt;Node29 -->
<g id="edge33" class="edge">
<title>Node25&#45;&gt;Node29</title>
<path fill="none" stroke="#63b8ff" d="M199,-65.62C186.82,-56.6 167.71,-42.45 153.02,-31.56"/>
<polygon fill="#63b8ff" stroke="#63b8ff" points="155.45,-29.01 145.33,-25.87 151.28,-34.63 155.45,-29.01"/>
</g>
<!-- Node31 -->
<g id="node31" class="node">
<title>Node31</title>
<g id="a_node31"><a xlink:href="_axi_dma_8hpp.html" target="_top" xlink:title=" ">
<polygon fill="white" stroke="#666666" points="765,-195 697,-195 697,-176 765,-176 765,-195"/>
<text text-anchor="middle" x="731" y="-183" font-family="Helvetica,sans-Serif" font-size="10.00">AxiDma.hpp</text>
</a>
</g>
</g>
<!-- Node30&#45;&gt;Node31 -->
<g id="edge36" class="edge">
<title>Node30&#45;&gt;Node31</title>
<path fill="none" stroke="#63b8ff" d="M731,-236.37C731,-228.5 731,-216.6 731,-206.39"/>
<polygon fill="#63b8ff" stroke="#63b8ff" points="734.5,-206.68 731,-196.68 727.5,-206.68 734.5,-206.68"/>
</g>
<!-- Node32 -->
<g id="node32" class="node">
<title>Node32</title>
<g id="a_node32"><a xlink:href="_reg_accessor_8hpp.html" target="_top" xlink:title=" ">
<polygon fill="white" stroke="#666666" points="678.5,-195 585.5,-195 585.5,-176 678.5,-176 678.5,-195"/>
<text text-anchor="middle" x="632" y="-183" font-family="Helvetica,sans-Serif" font-size="10.00">RegAccessor.hpp</text>
</a>
</g>
</g>
<!-- Node30&#45;&gt;Node32 -->
<g id="edge38" class="edge">
<title>Node30&#45;&gt;Node32</title>
<path fill="none" stroke="#63b8ff" d="M715.96,-236.12C700.34,-226.88 675.61,-212.27 657.03,-201.29"/>
<polygon fill="#63b8ff" stroke="#63b8ff" points="658.87,-198.31 648.48,-196.24 655.31,-204.34 658.87,-198.31"/>
</g>
<!-- Node33 -->
<g id="node33" class="node">
<title>Node33</title>
<g id="a_node33"><a xlink:href="_uio_if_8hpp.html" target="_top" xlink:title=" ">
<polygon fill="white" stroke="#666666" points="694,-140 604,-140 604,-121 694,-121 694,-140"/>
<text text-anchor="middle" x="649" y="-128" font-family="Helvetica,sans-Serif" font-size="10.00">udmaio/UioIf.hpp</text>
</a>
</g>
</g>
<!-- Node30&#45;&gt;Node33 -->
<g id="edge55" class="edge">
<title>Node30&#45;&gt;Node33</title>
<path fill="none" stroke="#63b8ff" d="M743.7,-236.08C761.13,-222.72 788.73,-196.88 774,-176 758.38,-153.86 730.74,-142.68 705.41,-137.05"/>
<polygon fill="#63b8ff" stroke="#63b8ff" points="706.33,-133.66 695.85,-135.19 705,-140.53 706.33,-133.66"/>
</g>
<!-- Node31&#45;&gt;Node24 -->
<g id="edge37" class="edge">
<title>Node31&#45;&gt;Node24</title>
<path fill="none" stroke="#63b8ff" d="M702.5,-175.51C673.4,-166.33 628.22,-152.08 597.21,-142.29"/>
<polygon fill="#63b8ff" stroke="#63b8ff" points="598.51,-139.03 587.92,-139.36 596.41,-145.71 598.51,-139.03"/>
</g>
<!-- Node32&#45;&gt;Node24 -->
<g id="edge39" class="edge">
<title>Node32&#45;&gt;Node24</title>
<path fill="none" stroke="#63b8ff" d="M620.3,-175.51C610.22,-167.77 595.46,-156.43 583.44,-147.2"/>
<polygon fill="#63b8ff" stroke="#63b8ff" points="585.79,-144.6 575.73,-141.28 581.53,-150.15 585.79,-144.6"/>
</g>
<!-- Node32&#45;&gt;Node33 -->
<g id="edge40" class="edge">
<title>Node32&#45;&gt;Node33</title>
<path fill="none" stroke="#63b8ff" d="M634.81,-175.75C636.94,-169.11 639.94,-159.73 642.64,-151.31"/>
<polygon fill="#63b8ff" stroke="#63b8ff" points="645.95,-152.47 645.67,-141.88 639.28,-150.34 645.95,-152.47"/>
</g>
<!-- Node33&#45;&gt;Node10 -->
<g id="edge45" class="edge">
<title>Node33&#45;&gt;Node10</title>
<path fill="none" stroke="#63b8ff" d="M694.39,-129.83C771.24,-129.32 921.85,-123.32 955,-85 960.52,-78.61 960.47,-72.44 955,-66 923.08,-28.4 783.12,-44.56 736,-30 735.2,-29.75 734.39,-29.49 733.58,-29.21"/>
<polygon fill="#63b8ff" stroke="#63b8ff" points="735.12,-26.05 724.53,-25.54 732.49,-32.54 735.12,-26.05"/>
</g>
<!-- Node33&#45;&gt;Node13 -->
<g id="edge47" class="edge">
<title>Node33&#45;&gt;Node13</title>
<path fill="none" stroke="#63b8ff" d="M603.66,-122.11C600.73,-121.71 597.83,-121.34 595,-121 399.89,-97.86 347.23,-103.75 149.22,-85.28"/>
<polygon fill="#63b8ff" stroke="#63b8ff" points="149.63,-81.8 139.34,-84.34 148.97,-88.77 149.63,-81.8"/>
</g>
<!-- Node33&#45;&gt;Node14 -->
<g id="edge53" class="edge">
<title>Node33&#45;&gt;Node14</title>
<path fill="none" stroke="#63b8ff" d="M694.4,-123.88C776.4,-113.72 948.35,-92.43 1030.88,-82.21"/>
<polygon fill="#63b8ff" stroke="#63b8ff" points="1031.15,-85.7 1040.65,-81 1030.29,-78.76 1031.15,-85.7"/>
</g>
<!-- Node33&#45;&gt;Node25 -->
<g id="edge54" class="edge">
<title>Node33&#45;&gt;Node25</title>
<path fill="none" stroke="#63b8ff" d="M603.65,-122.22C600.72,-121.79 597.82,-121.38 595,-121 455.81,-102.07 420.5,-101.47 281,-85 279.99,-84.88 278.97,-84.76 277.95,-84.64"/>
<polygon fill="#63b8ff" stroke="#63b8ff" points="278.63,-81.2 268.28,-83.49 277.8,-88.15 278.63,-81.2"/>
</g>
<!-- Node33&#45;&gt;Node26 -->
<g id="edge43" class="edge">
<title>Node33&#45;&gt;Node26</title>
<path fill="none" stroke="#63b8ff" d="M603.64,-122.26C600.72,-121.83 597.82,-121.4 595,-121 532.68,-112.1 362.62,-124.99 314,-85 299.53,-73.1 294.11,-51.82 292.11,-36.03"/>
<polygon fill="#63b8ff" stroke="#63b8ff" points="295.62,-35.99 291.26,-26.34 288.64,-36.6 295.62,-35.99"/>
</g>
<!-- Node33&#45;&gt;Node27 -->
<g id="edge44" class="edge">
<title>Node33&#45;&gt;Node27</title>
<path fill="none" stroke="#63b8ff" d="M694.43,-128.8C763.08,-126.19 881.02,-114.73 839,-66 819.66,-43.57 623.8,-25.56 540.34,-18.84"/>
<polygon fill="#63b8ff" stroke="#63b8ff" points="540.63,-15.35 530.39,-18.05 540.08,-22.33 540.63,-15.35"/>
</g>
<!-- Node34 -->
<g id="node34" class="node">
<title>Node34</title>
<g id="a_node34"><a xlink:title=" ">
<polygon fill="#e0e0e0" stroke="#999999" points="946,-85 886,-85 886,-66 946,-66 946,-85"/>
<text text-anchor="middle" x="916" y="-73" font-family="Helvetica,sans-Serif" font-size="10.00">filesystem</text>
</a>
</g>
</g>
<!-- Node33&#45;&gt;Node34 -->
<g id="edge41" class="edge">
<title>Node33&#45;&gt;Node34</title>
<path fill="none" stroke="#63b8ff" d="M694.29,-120.51C744.84,-110.47 825.93,-94.38 874.77,-84.68"/>
<polygon fill="#63b8ff" stroke="#63b8ff" points="875.25,-88.16 884.38,-82.78 873.89,-81.29 875.25,-88.16"/>
</g>
<!-- Node35 -->
<g id="node35" class="node">
<title>Node35</title>
<g id="a_node35"><a xlink:title=" ">
<polygon fill="#e0e0e0" stroke="#999999" points="373,-85 323,-85 323,-66 373,-66 373,-85"/>
<text text-anchor="middle" x="348" y="-73" font-family="Helvetica,sans-Serif" font-size="10.00">fstream</text>
</a>
</g>
</g>
<!-- Node33&#45;&gt;Node35 -->
<g id="edge42" class="edge">
<title>Node33&#45;&gt;Node35</title>
<path fill="none" stroke="#63b8ff" d="M603.69,-122.15C539.98,-111.79 427.61,-93.41 384.44,-85.26"/>
<polygon fill="#63b8ff" stroke="#63b8ff" points="385.17,-81.84 374.68,-83.33 383.82,-88.7 385.17,-81.84"/>
</g>
<!-- Node36 -->
<g id="node36" class="node">
<title>Node36</title>
<g id="a_node36"><a xlink:title=" ">
<polygon fill="#e0e0e0" stroke="#999999" points="453,-85 391,-85 391,-66 453,-66 453,-85"/>
<text text-anchor="middle" x="422" y="-73" font-family="Helvetica,sans-Serif" font-size="10.00">type_traits</text>
</a>
</g>
</g>
<!-- Node33&#45;&gt;Node36 -->
<g id="edge46" class="edge">
<title>Node33&#45;&gt;Node36</title>
<path fill="none" stroke="#63b8ff" d="M610.49,-120.51C569.94,-111.04 506.26,-96.17 464.33,-86.38"/>
<polygon fill="#63b8ff" stroke="#63b8ff" points="465.38,-83.03 454.85,-84.17 463.79,-89.85 465.38,-83.03"/>
</g>
<!-- Node37 -->
<g id="node37" class="node">
<title>Node37</title>
<g id="a_node37"><a xlink:title=" ">
<polygon fill="#e0e0e0" stroke="#999999" points="514.5,-85 471.5,-85 471.5,-66 514.5,-66 514.5,-85"/>
<text text-anchor="middle" x="493" y="-73" font-family="Helvetica,sans-Serif" font-size="10.00">fcntl.h</text>
</a>
</g>
</g>
<!-- Node33&#45;&gt;Node37 -->
<g id="edge48" class="edge">
<title>Node33&#45;&gt;Node37</title>
<path fill="none" stroke="#63b8ff" d="M622.54,-120.51C595.68,-111.38 554.06,-97.24 525.28,-87.47"/>
<polygon fill="#63b8ff" stroke="#63b8ff" points="526.59,-84.21 515.99,-84.31 524.34,-90.84 526.59,-84.21"/>
</g>
<!-- Node38 -->
<g id="node38" class="node">
<title>Node38</title>
<g id="a_node38"><a xlink:title=" ">
<polygon fill="#e0e0e0" stroke="#999999" points="601.5,-85 532.5,-85 532.5,-66 601.5,-66 601.5,-85"/>
<text text-anchor="middle" x="567" y="-73" font-family="Helvetica,sans-Serif" font-size="10.00">sys/mman.h</text>
</a>
</g>
</g>
<!-- Node33&#45;&gt;Node38 -->
<g id="edge49" class="edge">
<title>Node33&#45;&gt;Node38</title>
<path fill="none" stroke="#63b8ff" d="M635.09,-120.51C622.76,-112.54 604.53,-100.75 590.03,-91.38"/>
<polygon fill="#63b8ff" stroke="#63b8ff" points="592.27,-88.67 581.98,-86.18 588.47,-94.55 592.27,-88.67"/>
</g>
<!-- Node39 -->
<g id="node39" class="node">
<title>Node39</title>
<g id="a_node39"><a xlink:title=" ">
<polygon fill="#e0e0e0" stroke="#999999" points="678.5,-85 619.5,-85 619.5,-66 678.5,-66 678.5,-85"/>
<text text-anchor="middle" x="649" y="-73" font-family="Helvetica,sans-Serif" font-size="10.00">sys/stat.h</text>
</a>
</g>
</g>
<!-- Node33&#45;&gt;Node39 -->
<g id="edge50" class="edge">
<title>Node33&#45;&gt;Node39</title>
<path fill="none" stroke="#63b8ff" d="M649,-120.75C649,-114.27 649,-105.16 649,-96.9"/>
<polygon fill="#63b8ff" stroke="#63b8ff" points="652.5,-96.96 649,-86.96 645.5,-96.96 652.5,-96.96"/>
</g>
<!-- Node40 -->
<g id="node40" class="node">
<title>Node40</title>
<g id="a_node40"><a xlink:title=" ">
<polygon fill="#e0e0e0" stroke="#999999" points="761.5,-85 696.5,-85 696.5,-66 761.5,-66 761.5,-85"/>
<text text-anchor="middle" x="729" y="-73" font-family="Helvetica,sans-Serif" font-size="10.00">sys/types.h</text>
</a>
</g>
</g>
<!-- Node33&#45;&gt;Node40 -->
<g id="edge51" class="edge">
<title>Node33&#45;&gt;Node40</title>
<path fill="none" stroke="#63b8ff" d="M662.57,-120.51C674.48,-112.62 692.05,-100.98 706.13,-91.65"/>
<polygon fill="#63b8ff" stroke="#63b8ff" points="707.96,-94.63 714.37,-86.19 704.1,-88.8 707.96,-94.63"/>
</g>
<!-- Node41 -->
<g id="node41" class="node">
<title>Node41</title>
<g id="a_node41"><a xlink:title=" ">
<polygon fill="#e0e0e0" stroke="#999999" points="830,-85 780,-85 780,-66 830,-66 830,-85"/>
<text text-anchor="middle" x="805" y="-73" font-family="Helvetica,sans-Serif" font-size="10.00">unistd.h</text>
</a>
</g>
</g>
<!-- Node33&#45;&gt;Node41 -->
<g id="edge52" class="edge">
<title>Node33&#45;&gt;Node41</title>
<path fill="none" stroke="#63b8ff" d="M675.46,-120.51C701.17,-111.77 740.4,-98.45 768.95,-88.75"/>
<polygon fill="#63b8ff" stroke="#63b8ff" points="769.93,-92.11 778.27,-85.58 767.67,-85.48 769.93,-92.11"/>
</g>
<!-- Node42&#45;&gt;Node23 -->
<g id="edge57" class="edge">
<title>Node42&#45;&gt;Node23</title>
<path fill="none" stroke="#63b8ff" d="M520.08,-236.37C518.33,-228.5 515.69,-216.6 513.42,-206.39"/>
<polygon fill="#63b8ff" stroke="#63b8ff" points="516.84,-205.65 511.25,-196.64 510.01,-207.17 516.84,-205.65"/>
</g>
<!-- Node42&#45;&gt;Node32 -->
<g id="edge58" class="edge">
<title>Node42&#45;&gt;Node32</title>
<path fill="none" stroke="#63b8ff" d="M538.71,-236.12C556.31,-226.75 584.31,-211.86 605.05,-200.83"/>
<polygon fill="#63b8ff" stroke="#63b8ff" points="606.61,-203.96 613.8,-196.18 603.33,-197.78 606.61,-203.96"/>
</g>
</g>
</svg>
