<?xml version="1.0" encoding="UTF-8" standalone="no"?>
<!DOCTYPE svg PUBLIC "-//W3C//DTD SVG 1.1//EN"
 "http://www.w3.org/Graphics/SVG/1.1/DTD/svg11.dtd">
<!-- Generated by graphviz version 7.0.5 (20221223.1930)
 -->
<!-- Title: DataHandlerPrint.hpp Pages: 1 -->
<svg width="1961pt" height="434pt"
 viewBox="0.00 0.00 1961.39 434.00" xmlns="http://www.w3.org/2000/svg" xmlns:xlink="http://www.w3.org/1999/xlink">
<g id="graph0" class="graph" transform="scale(1 1) rotate(0) translate(4 430)">
<title>DataHandlerPrint.hpp</title>
<!-- Node1 -->
<g id="node1" class="node">
<title>Node1</title>
<g id="a_node1"><a xlink:title=" ">
<polygon fill="#999999" stroke="#666666" points="464.39,-426 355.39,-426 355.39,-407 464.39,-407 464.39,-426"/>
<text text-anchor="middle" x="409.89" y="-414" font-family="Helvetica,sans-Serif" font-size="10.00">DataHandlerPrint.hpp</text>
</a>
</g>
</g>
<!-- Node2 -->
<g id="node2" class="node">
<title>Node2</title>
<g id="a_node2"><a xlink:title=" ">
<polygon fill="#e0e0e0" stroke="#999999" points="325.89,-371 275.89,-371 275.89,-352 325.89,-352 325.89,-371"/>
<text text-anchor="middle" x="300.89" y="-359" font-family="Helvetica,sans-Serif" font-size="10.00">optional</text>
</a>
</g>
</g>
<!-- Node1&#45;&gt;Node2 -->
<g id="edge1" class="edge">
<title>Node1&#45;&gt;Node2</title>
<path fill="none" stroke="#63b8ff" d="M391.4,-406.51C374.39,-398.24 348.9,-385.84 329.3,-376.31"/>
<polygon fill="#63b8ff" stroke="#63b8ff" points="331,-373.25 320.47,-372.02 327.94,-379.54 331,-373.25"/>
</g>
<!-- Node3 -->
<g id="node3" class="node">
<title>Node3</title>
<g id="a_node3"><a xlink:title=" ">
<polygon fill="#e0e0e0" stroke="#999999" points="383.39,-371 344.39,-371 344.39,-352 383.39,-352 383.39,-371"/>
<text text-anchor="middle" x="363.89" y="-359" font-family="Helvetica,sans-Serif" font-size="10.00">utility</text>
</a>
</g>
</g>
<!-- Node1&#45;&gt;Node3 -->
<g id="edge2" class="edge">
<title>Node1&#45;&gt;Node3</title>
<path fill="none" stroke="#63b8ff" d="M402.3,-406.75C396.01,-399.5 386.88,-388.98 379.1,-380.02"/>
<polygon fill="#63b8ff" stroke="#63b8ff" points="381.85,-377.84 372.65,-372.59 376.56,-382.43 381.85,-377.84"/>
</g>
<!-- Node4 -->
<g id="node4" class="node">
<title>Node4</title>
<g id="a_node4"><a xlink:href="_axi_traffic_gen_lfsr_8hpp.html" target="_top" xlink:title=" ">
<polygon fill="white" stroke="#666666" points="511.89,-371 401.89,-371 401.89,-352 511.89,-352 511.89,-371"/>
<text text-anchor="middle" x="456.89" y="-359" font-family="Helvetica,sans-Serif" font-size="10.00">AxiTrafficGenLfsr.hpp</text>
</a>
</g>
</g>
<!-- Node1&#45;&gt;Node4 -->
<g id="edge3" class="edge">
<title>Node1&#45;&gt;Node4</title>
<path fill="none" stroke="#63b8ff" d="M417.66,-406.75C424.08,-399.5 433.41,-388.98 441.36,-380.02"/>
<polygon fill="#63b8ff" stroke="#63b8ff" points="443.94,-382.38 447.96,-372.57 438.71,-377.73 443.94,-382.38"/>
</g>
<!-- Node6 -->
<g id="node6" class="node">
<title>Node6</title>
<g id="a_node6"><a xlink:href="_data_handler_abstract_8hpp.html" target="_top" xlink:title=" ">
<polygon fill="white" stroke="#666666" points="1193.89,-371 1033.89,-371 1033.89,-352 1193.89,-352 1193.89,-371"/>
<text text-anchor="middle" x="1113.89" y="-359" font-family="Helvetica,sans-Serif" font-size="10.00">udmaio/DataHandlerAbstract.hpp</text>
</a>
</g>
</g>
<!-- Node1&#45;&gt;Node6 -->
<g id="edge5" class="edge">
<title>Node1&#45;&gt;Node6</title>
<path fill="none" stroke="#63b8ff" d="M464.84,-411.36C585.32,-402.29 873.77,-380.58 1022.21,-369.4"/>
<polygon fill="#63b8ff" stroke="#63b8ff" points="1022.3,-372.91 1032.01,-368.66 1021.78,-365.93 1022.3,-372.91"/>
</g>
<!-- Node5 -->
<g id="node5" class="node">
<title>Node5</title>
<g id="a_node5"><a xlink:title=" ">
<polygon fill="#e0e0e0" stroke="#999999" points="168.89,-195 122.89,-195 122.89,-176 168.89,-176 168.89,-195"/>
<text text-anchor="middle" x="145.89" y="-183" font-family="Helvetica,sans-Serif" font-size="10.00">cstdint</text>
</a>
</g>
</g>
<!-- Node4&#45;&gt;Node5 -->
<g id="edge4" class="edge">
<title>Node4&#45;&gt;Node5</title>
<path fill="none" stroke="#63b8ff" d="M401.57,-352.48C335.47,-342.68 228.89,-326.16 189.89,-316 105.82,-294.1 55.89,-321.05 5.89,-250 -22.19,-210.09 61.26,-194.8 111.25,-189.32"/>
<polygon fill="#63b8ff" stroke="#63b8ff" points="111.45,-192.81 121.05,-188.33 110.75,-185.85 111.45,-192.81"/>
</g>
<!-- Node7 -->
<g id="node7" class="node">
<title>Node7</title>
<g id="a_node7"><a xlink:title=" ">
<polygon fill="#e0e0e0" stroke="#999999" points="1026.39,-24.5 985.39,-24.5 985.39,-5.5 1026.39,-5.5 1026.39,-24.5"/>
<text text-anchor="middle" x="1005.89" y="-12.5" font-family="Helvetica,sans-Serif" font-size="10.00">string</text>
</a>
</g>
</g>
<!-- Node6&#45;&gt;Node7 -->
<g id="edge6" class="edge">
<title>Node6&#45;&gt;Node7</title>
<path fill="none" stroke="#63b8ff" d="M1123.91,-351.75C1143.69,-333.44 1185.89,-288.83 1185.89,-241.5 1185.89,-241.5 1185.89,-241.5 1185.89,-184.5 1185.89,-129.46 1256.94,-108.44 1221.89,-66 1168,-0.74 1115.24,-56.62 1034.89,-30 1034.25,-29.79 1033.6,-29.56 1032.94,-29.32"/>
<polygon fill="#63b8ff" stroke="#63b8ff" points="1034.42,-26.15 1023.85,-25.49 1031.7,-32.6 1034.42,-26.15"/>
</g>
<!-- Node8 -->
<g id="node8" class="node">
<title>Node8</title>
<g id="a_node8"><a xlink:title=" ">
<polygon fill="#e0e0e0" stroke="#999999" points="1035.89,-195 991.89,-195 991.89,-176 1035.89,-176 1035.89,-195"/>
<text text-anchor="middle" x="1013.89" y="-183" font-family="Helvetica,sans-Serif" font-size="10.00">vector</text>
</a>
</g>
</g>
<!-- Node6&#45;&gt;Node8 -->
<g id="edge7" class="edge">
<title>Node6&#45;&gt;Node8</title>
<path fill="none" stroke="#63b8ff" d="M1083.8,-351.54C1066.13,-344.68 1044.98,-333.4 1032.89,-316 1009.95,-282.97 1009.65,-233.72 1011.65,-206.46"/>
<polygon fill="#63b8ff" stroke="#63b8ff" points="1015.1,-207.11 1012.55,-196.82 1008.14,-206.45 1015.1,-207.11"/>
</g>
<!-- Node9 -->
<g id="node9" class="node">
<title>Node9</title>
<g id="a_node9"><a xlink:title=" ">
<polygon fill="#e0e0e0" stroke="#999999" points="1293.89,-310.5 1213.89,-310.5 1213.89,-291.5 1293.89,-291.5 1293.89,-310.5"/>
<text text-anchor="middle" x="1253.89" y="-298.5" font-family="Helvetica,sans-Serif" font-size="10.00">boost/asio.hpp</text>
</a>
</g>
</g>
<!-- Node6&#45;&gt;Node9 -->
<g id="edge8" class="edge">
<title>Node6&#45;&gt;Node9</title>
<path fill="none" stroke="#63b8ff" d="M1135.16,-351.62C1158.28,-341.95 1195.5,-326.4 1222.1,-315.28"/>
<polygon fill="#63b8ff" stroke="#63b8ff" points="1223.16,-318.64 1231.03,-311.55 1220.46,-312.18 1223.16,-318.64"/>
</g>
<!-- Node10 -->
<g id="node10" class="node">
<title>Node10</title>
<g id="a_node10"><a xlink:title=" ">
<polygon fill="#e0e0e0" stroke="#999999" points="1213.39,-85 1076.39,-85 1076.39,-66 1213.39,-66 1213.39,-85"/>
<text text-anchor="middle" x="1144.89" y="-73" font-family="Helvetica,sans-Serif" font-size="10.00">boost/core/noncopyable.hpp</text>
</a>
</g>
</g>
<!-- Node6&#45;&gt;Node10 -->
<g id="edge9" class="edge">
<title>Node6&#45;&gt;Node10</title>
<path fill="none" stroke="#63b8ff" d="M1118.2,-351.79C1127.35,-332.45 1147.89,-284.26 1147.89,-241.5 1147.89,-241.5 1147.89,-241.5 1147.89,-184.5 1147.89,-153.91 1146.68,-118.47 1145.79,-96.77"/>
<polygon fill="#63b8ff" stroke="#63b8ff" points="1149.3,-96.81 1145.38,-86.97 1142.3,-97.11 1149.3,-96.81"/>
</g>
<!-- Node11 -->
<g id="node11" class="node">
<title>Node11</title>
<g id="a_node11"><a xlink:href="_logging_8hpp.html" target="_top" xlink:title=" ">
<polygon fill="white" stroke="#666666" points="1370.39,-85 1301.39,-85 1301.39,-66 1370.39,-66 1370.39,-85"/>
<text text-anchor="middle" x="1335.89" y="-73" font-family="Helvetica,sans-Serif" font-size="10.00">Logging.hpp</text>
</a>
</g>
</g>
<!-- Node6&#45;&gt;Node11 -->
<g id="edge10" class="edge">
<title>Node6&#45;&gt;Node11</title>
<path fill="none" stroke="#63b8ff" d="M1194.33,-359.58C1279.21,-356.91 1405.51,-347.55 1440.89,-316 1466.4,-293.26 1459.89,-275.67 1459.89,-241.5 1459.89,-241.5 1459.89,-241.5 1459.89,-184.5 1459.89,-137.34 1408.26,-106.07 1371.63,-89.82"/>
<polygon fill="#63b8ff" stroke="#63b8ff" points="1373.25,-86.71 1362.68,-86.04 1370.53,-93.16 1373.25,-86.71"/>
</g>
<!-- Node19 -->
<g id="node19" class="node">
<title>Node19</title>
<g id="a_node19"><a xlink:href="_u_dma_buf_8hpp.html" target="_top" xlink:title=" ">
<polygon fill="white" stroke="#666666" points="1119.39,-310.5 1042.39,-310.5 1042.39,-291.5 1119.39,-291.5 1119.39,-310.5"/>
<text text-anchor="middle" x="1080.89" y="-298.5" font-family="Helvetica,sans-Serif" font-size="10.00">UDmaBuf.hpp</text>
</a>
</g>
</g>
<!-- Node6&#45;&gt;Node19 -->
<g id="edge19" class="edge">
<title>Node6&#45;&gt;Node19</title>
<path fill="none" stroke="#63b8ff" d="M1109.03,-351.87C1104.39,-343.66 1097.28,-331.04 1091.36,-320.55"/>
<polygon fill="#63b8ff" stroke="#63b8ff" points="1094.49,-318.98 1086.53,-311.99 1088.39,-322.41 1094.49,-318.98"/>
</g>
<!-- Node26 -->
<g id="node26" class="node">
<title>Node26</title>
<g id="a_node26"><a xlink:href="_uio_axi_dma_if_8hpp.html" target="_top" xlink:title=" ">
<polygon fill="white" stroke="#666666" points="288.39,-310.5 199.39,-310.5 199.39,-291.5 288.39,-291.5 288.39,-310.5"/>
<text text-anchor="middle" x="243.89" y="-298.5" font-family="Helvetica,sans-Serif" font-size="10.00">UioAxiDmaIf.hpp</text>
</a>
</g>
</g>
<!-- Node6&#45;&gt;Node26 -->
<g id="edge32" class="edge">
<title>Node6&#45;&gt;Node26</title>
<path fill="none" stroke="#63b8ff" d="M1033.61,-355.1C859.16,-343.37 449.23,-315.81 299.72,-305.75"/>
<polygon fill="#63b8ff" stroke="#63b8ff" points="300.3,-302.28 290.08,-305.11 299.83,-309.27 300.3,-302.28"/>
</g>
<!-- Node40 -->
<g id="node40" class="node">
<title>Node40</title>
<g id="a_node40"><a xlink:href="_uio_mem_sgdma_8hpp.html" target="_top" xlink:title=" ">
<polygon fill="white" stroke="#666666" points="890.89,-310.5 788.89,-310.5 788.89,-291.5 890.89,-291.5 890.89,-310.5"/>
<text text-anchor="middle" x="839.89" y="-298.5" font-family="Helvetica,sans-Serif" font-size="10.00">UioMemSgdma.hpp</text>
</a>
</g>
</g>
<!-- Node6&#45;&gt;Node40 -->
<g id="edge70" class="edge">
<title>Node6&#45;&gt;Node40</title>
<path fill="none" stroke="#63b8ff" d="M1071.98,-351.55C1023.94,-341.29 945.11,-324.46 892.85,-313.31"/>
<polygon fill="#63b8ff" stroke="#63b8ff" points="893.79,-309.93 883.28,-311.26 892.33,-316.77 893.79,-309.93"/>
</g>
<!-- Node41 -->
<g id="node41" class="node">
<title>Node41</title>
<g id="a_node41"><a xlink:title=" ">
<polygon fill="#e0e0e0" stroke="#999999" points="1431.89,-316 1311.89,-316 1311.89,-286 1431.89,-286 1431.89,-316"/>
<text text-anchor="start" x="1319.89" y="-304" font-family="Helvetica,sans-Serif" font-size="10.00">boost/asio/posix/stream</text>
<text text-anchor="middle" x="1371.89" y="-293" font-family="Helvetica,sans-Serif" font-size="10.00">_descriptor.hpp</text>
</a>
</g>
</g>
<!-- Node6&#45;&gt;Node41 -->
<g id="edge75" class="edge">
<title>Node6&#45;&gt;Node41</title>
<path fill="none" stroke="#63b8ff" d="M1153.36,-351.55C1192.43,-342.69 1253.13,-328.93 1300.66,-318.15"/>
<polygon fill="#63b8ff" stroke="#63b8ff" points="1301.36,-321.58 1310.34,-315.96 1299.81,-314.76 1301.36,-321.58"/>
</g>
<!-- Node11&#45;&gt;Node7 -->
<g id="edge11" class="edge">
<title>Node11&#45;&gt;Node7</title>
<path fill="none" stroke="#63b8ff" d="M1301.15,-70.7C1233,-63.03 1084.12,-45.14 1034.89,-30 1034.09,-29.75 1033.29,-29.49 1032.48,-29.21"/>
<polygon fill="#63b8ff" stroke="#63b8ff" points="1034.08,-26.08 1023.5,-25.47 1031.39,-32.55 1034.08,-26.08"/>
</g>
<!-- Node12 -->
<g id="node12" class="node">
<title>Node12</title>
<g id="a_node12"><a xlink:title=" ">
<polygon fill="#e0e0e0" stroke="#999999" points="1410.89,-24.5 1314.89,-24.5 1314.89,-5.5 1410.89,-5.5 1410.89,-24.5"/>
<text text-anchor="middle" x="1362.89" y="-12.5" font-family="Helvetica,sans-Serif" font-size="10.00">boost/log/core.hpp</text>
</a>
</g>
</g>
<!-- Node11&#45;&gt;Node12 -->
<g id="edge12" class="edge">
<title>Node11&#45;&gt;Node12</title>
<path fill="none" stroke="#63b8ff" d="M1339.88,-65.87C1343.63,-57.75 1349.37,-45.31 1354.18,-34.89"/>
<polygon fill="#63b8ff" stroke="#63b8ff" points="1357.25,-36.59 1358.26,-26.04 1350.89,-33.65 1357.25,-36.59"/>
</g>
<!-- Node13 -->
<g id="node13" class="node">
<title>Node13</title>
<g id="a_node13"><a xlink:title=" ">
<polygon fill="#e0e0e0" stroke="#999999" points="1558.39,-24.5 1429.39,-24.5 1429.39,-5.5 1558.39,-5.5 1558.39,-24.5"/>
<text text-anchor="middle" x="1493.89" y="-12.5" font-family="Helvetica,sans-Serif" font-size="10.00">boost/log/expressions.hpp</text>
</a>
</g>
</g>
<!-- Node11&#45;&gt;Node13 -->
<g id="edge13" class="edge">
<title>Node11&#45;&gt;Node13</title>
<path fill="none" stroke="#63b8ff" d="M1359.89,-65.62C1386.34,-55.82 1429.12,-39.98 1459.21,-28.84"/>
<polygon fill="#63b8ff" stroke="#63b8ff" points="1460.09,-32.25 1468.25,-25.49 1457.66,-25.68 1460.09,-32.25"/>
</g>
<!-- Node14 -->
<g id="node14" class="node">
<title>Node14</title>
<g id="a_node14"><a xlink:title=" ">
<polygon fill="#e0e0e0" stroke="#999999" points="1677.39,-24.5 1576.39,-24.5 1576.39,-5.5 1677.39,-5.5 1677.39,-24.5"/>
<text text-anchor="middle" x="1626.89" y="-12.5" font-family="Helvetica,sans-Serif" font-size="10.00">boost/log/trivial.hpp</text>
</a>
</g>
</g>
<!-- Node11&#45;&gt;Node14 -->
<g id="edge14" class="edge">
<title>Node11&#45;&gt;Node14</title>
<path fill="none" stroke="#63b8ff" d="M1370.58,-68.33C1416.02,-60.14 1498.12,-44.96 1567.89,-30 1571.5,-29.23 1575.22,-28.4 1578.96,-27.56"/>
<polygon fill="#63b8ff" stroke="#63b8ff" points="1579.69,-30.98 1588.65,-25.33 1578.12,-24.16 1579.69,-30.98"/>
</g>
<!-- Node15 -->
<g id="node15" class="node">
<title>Node15</title>
<g id="a_node15"><a xlink:title=" ">
<polygon fill="#e0e0e0" stroke="#999999" points="1804.39,-30 1695.39,-30 1695.39,0 1804.39,0 1804.39,-30"/>
<text text-anchor="start" x="1703.39" y="-18" font-family="Helvetica,sans-Serif" font-size="10.00">boost/log/utility/setup</text>
<text text-anchor="middle" x="1749.89" y="-7" font-family="Helvetica,sans-Serif" font-size="10.00">/console.hpp</text>
</a>
</g>
</g>
<!-- Node11&#45;&gt;Node15 -->
<g id="edge15" class="edge">
<title>Node11&#45;&gt;Node15</title>
<path fill="none" stroke="#63b8ff" d="M1370.43,-71.19C1431.63,-65.1 1563.32,-50.96 1683.74,-30.46"/>
<polygon fill="#63b8ff" stroke="#63b8ff" points="1684.23,-33.92 1693.49,-28.77 1683.04,-27.03 1684.23,-33.92"/>
</g>
<!-- Node16 -->
<g id="node16" class="node">
<title>Node16</title>
<g id="a_node16"><a xlink:title=" ">
<polygon fill="#e0e0e0" stroke="#999999" points="1953.39,-30 1822.39,-30 1822.39,0 1953.39,0 1953.39,-30"/>
<text text-anchor="start" x="1830.39" y="-18" font-family="Helvetica,sans-Serif" font-size="10.00">boost/log/sources/severity</text>
<text text-anchor="middle" x="1887.89" y="-7" font-family="Helvetica,sans-Serif" font-size="10.00">_channel_logger.hpp</text>
</a>
</g>
</g>
<!-- Node11&#45;&gt;Node16 -->
<g id="edge16" class="edge">
<title>Node11&#45;&gt;Node16</title>
<path fill="none" stroke="#63b8ff" d="M1370.81,-72.38C1448.23,-67.44 1640.34,-53.85 1810.97,-30.33"/>
<polygon fill="#63b8ff" stroke="#63b8ff" points="1811.26,-33.82 1820.68,-28.97 1810.29,-26.89 1811.26,-33.82"/>
</g>
<!-- Node17 -->
<g id="node17" class="node">
<title>Node17</title>
<g id="a_node17"><a xlink:title=" ">
<polygon fill="#e0e0e0" stroke="#999999" points="1157.39,-30 1044.39,-30 1044.39,0 1157.39,0 1157.39,-30"/>
<text text-anchor="start" x="1052.39" y="-18" font-family="Helvetica,sans-Serif" font-size="10.00">boost/log/support/date</text>
<text text-anchor="middle" x="1100.89" y="-7" font-family="Helvetica,sans-Serif" font-size="10.00">_time.hpp</text>
</a>
</g>
</g>
<!-- Node11&#45;&gt;Node17 -->
<g id="edge17" class="edge">
<title>Node11&#45;&gt;Node17</title>
<path fill="none" stroke="#63b8ff" d="M1300.97,-65.81C1266.15,-57.14 1211.78,-43.6 1168.5,-32.83"/>
<polygon fill="#63b8ff" stroke="#63b8ff" points="1169.49,-29.47 1158.94,-30.45 1167.79,-36.26 1169.49,-29.47"/>
</g>
<!-- Node18 -->
<g id="node18" class="node">
<title>Node18</title>
<g id="a_node18"><a xlink:title=" ">
<polygon fill="#e0e0e0" stroke="#999999" points="1296.39,-30 1175.39,-30 1175.39,0 1296.39,0 1296.39,-30"/>
<text text-anchor="start" x="1183.39" y="-18" font-family="Helvetica,sans-Serif" font-size="10.00">boost/log/utility/setup</text>
<text text-anchor="middle" x="1235.89" y="-7" font-family="Helvetica,sans-Serif" font-size="10.00">/common_attributes.hpp</text>
</a>
</g>
</g>
<!-- Node11&#45;&gt;Node18 -->
<g id="edge18" class="edge">
<title>Node11&#45;&gt;Node18</title>
<path fill="none" stroke="#63b8ff" d="M1320.71,-65.62C1307.37,-57.81 1287.47,-46.17 1270.3,-36.13"/>
<polygon fill="#63b8ff" stroke="#63b8ff" points="1272.28,-33.23 1261.88,-31.2 1268.75,-39.27 1272.28,-33.23"/>
</g>
<!-- Node19&#45;&gt;Node11 -->
<g id="edge30" class="edge">
<title>Node19&#45;&gt;Node11</title>
<path fill="none" stroke="#63b8ff" d="M1090.89,-291.24C1129.13,-257.73 1266.49,-137.33 1317.05,-93.02"/>
<polygon fill="#63b8ff" stroke="#63b8ff" points="1319.34,-95.66 1324.55,-86.44 1314.72,-90.4 1319.34,-95.66"/>
</g>
<!-- Node20 -->
<g id="node20" class="node">
<title>Node20</title>
<g id="a_node20"><a xlink:href="_dma_buffer_abstract_8hpp.html" target="_top" xlink:title=" ">
<polygon fill="white" stroke="#666666" points="985.39,-250 868.39,-250 868.39,-231 985.39,-231 985.39,-250"/>
<text text-anchor="middle" x="926.89" y="-238" font-family="Helvetica,sans-Serif" font-size="10.00">DmaBufferAbstract.hpp</text>
</a>
</g>
</g>
<!-- Node19&#45;&gt;Node20 -->
<g id="edge20" class="edge">
<title>Node19&#45;&gt;Node20</title>
<path fill="none" stroke="#63b8ff" d="M1057.51,-291.12C1031.84,-281.37 990.4,-265.62 961.09,-254.49"/>
<polygon fill="#63b8ff" stroke="#63b8ff" points="962.51,-251.29 951.92,-251.01 960.02,-257.83 962.51,-251.29"/>
</g>
<!-- Node21 -->
<g id="node21" class="node">
<title>Node21</title>
<g id="a_node21"><a xlink:href="_uio_config_8hpp.html" target="_top" xlink:title=" ">
<polygon fill="white" stroke="#666666" points="981.39,-85 870.39,-85 870.39,-66 981.39,-66 981.39,-85"/>
<text text-anchor="middle" x="925.89" y="-73" font-family="Helvetica,sans-Serif" font-size="10.00">udmaio/UioConfig.hpp</text>
</a>
</g>
</g>
<!-- Node19&#45;&gt;Node21 -->
<g id="edge31" class="edge">
<title>Node19&#45;&gt;Node21</title>
<path fill="none" stroke="#63b8ff" d="M1080.1,-291.16C1077.83,-269.75 1069.77,-214.1 1044.89,-176 1020.61,-138.81 978.22,-108.24 951.14,-91.2"/>
<polygon fill="#63b8ff" stroke="#63b8ff" points="953.22,-88.37 942.87,-86.13 949.57,-94.34 953.22,-88.37"/>
</g>
<!-- Node20&#45;&gt;Node5 -->
<g id="edge21" class="edge">
<title>Node20&#45;&gt;Node5</title>
<path fill="none" stroke="#63b8ff" d="M868.19,-235.52C714.22,-225.07 302.21,-197.11 180.32,-188.84"/>
<polygon fill="#63b8ff" stroke="#63b8ff" points="180.85,-185.36 170.64,-188.18 180.38,-192.35 180.85,-185.36"/>
</g>
<!-- Node20&#45;&gt;Node8 -->
<g id="edge22" class="edge">
<title>Node20&#45;&gt;Node8</title>
<path fill="none" stroke="#63b8ff" d="M941.65,-230.51C954.86,-222.47 974.45,-210.53 989.91,-201.11"/>
<polygon fill="#63b8ff" stroke="#63b8ff" points="991.34,-204.34 998.06,-196.15 987.7,-198.36 991.34,-204.34"/>
</g>
<!-- Node20&#45;&gt;Node10 -->
<g id="edge23" class="edge">
<title>Node20&#45;&gt;Node10</title>
<path fill="none" stroke="#63b8ff" d="M933.42,-230.54C943.19,-217.51 962.65,-193.03 982.89,-176 1025.74,-139.95 1082.94,-107.99 1116.65,-90.52"/>
<polygon fill="#63b8ff" stroke="#63b8ff" points="1118.07,-93.73 1125.38,-86.06 1114.88,-87.5 1118.07,-93.73"/>
</g>
<!-- Node20&#45;&gt;Node21 -->
<g id="edge24" class="edge">
<title>Node20&#45;&gt;Node21</title>
<path fill="none" stroke="#63b8ff" d="M926.84,-230.74C926.69,-205.53 926.24,-132.36 926.02,-96.62"/>
<polygon fill="#63b8ff" stroke="#63b8ff" points="929.52,-96.8 925.96,-86.82 922.52,-96.84 929.52,-96.8"/>
</g>
<!-- Node21&#45;&gt;Node7 -->
<g id="edge28" class="edge">
<title>Node21&#45;&gt;Node7</title>
<path fill="none" stroke="#63b8ff" d="M938.04,-65.62C950.38,-56.6 969.73,-42.45 984.61,-31.56"/>
<polygon fill="#63b8ff" stroke="#63b8ff" points="986.4,-34.59 992.41,-25.86 982.27,-28.94 986.4,-34.59"/>
</g>
<!-- Node22 -->
<g id="node22" class="node">
<title>Node22</title>
<g id="a_node22"><a xlink:title=" ">
<polygon fill="#e0e0e0" stroke="#999999" points="584.89,-24.5 530.89,-24.5 530.89,-5.5 584.89,-5.5 584.89,-24.5"/>
<text text-anchor="middle" x="557.89" y="-12.5" font-family="Helvetica,sans-Serif" font-size="10.00">iostream</text>
</a>
</g>
</g>
<!-- Node21&#45;&gt;Node22 -->
<g id="edge25" class="edge">
<title>Node21&#45;&gt;Node22</title>
<path fill="none" stroke="#63b8ff" d="M870.21,-67.21C777.4,-55.03 600.53,-31.71 593.89,-30 592.27,-29.58 590.62,-29.11 588.97,-28.6"/>
<polygon fill="#63b8ff" stroke="#63b8ff" points="590.2,-25.33 579.61,-25.35 587.9,-31.94 590.2,-25.33"/>
</g>
<!-- Node23 -->
<g id="node23" class="node">
<title>Node23</title>
<g id="a_node23"><a xlink:title=" ">
<polygon fill="#e0e0e0" stroke="#999999" points="654.39,-24.5 603.39,-24.5 603.39,-5.5 654.39,-5.5 654.39,-24.5"/>
<text text-anchor="middle" x="628.89" y="-12.5" font-family="Helvetica,sans-Serif" font-size="10.00">memory</text>
</a>
</g>
</g>
<!-- Node21&#45;&gt;Node23 -->
<g id="edge26" class="edge">
<title>Node21&#45;&gt;Node23</title>
<path fill="none" stroke="#63b8ff" d="M880.46,-65.55C821.57,-53.95 720.01,-33.95 665.69,-23.25"/>
<polygon fill="#63b8ff" stroke="#63b8ff" points="666.5,-19.84 656.02,-21.34 665.15,-26.71 666.5,-19.84"/>
</g>
<!-- Node24 -->
<g id="node24" class="node">
<title>Node24</title>
<g id="a_node24"><a xlink:title=" ">
<polygon fill="#e0e0e0" stroke="#999999" points="959.39,-24.5 900.39,-24.5 900.39,-5.5 959.39,-5.5 959.39,-24.5"/>
<text text-anchor="middle" x="929.89" y="-12.5" font-family="Helvetica,sans-Serif" font-size="10.00">stdexcept</text>
</a>
</g>
</g>
<!-- Node21&#45;&gt;Node24 -->
<g id="edge27" class="edge">
<title>Node21&#45;&gt;Node24</title>
<path fill="none" stroke="#63b8ff" d="M926.48,-65.87C927.02,-58 927.84,-46.1 928.53,-35.89"/>
<polygon fill="#63b8ff" stroke="#63b8ff" points="932.01,-36.39 929.2,-26.18 925.02,-35.92 932.01,-36.39"/>
</g>
<!-- Node25 -->
<g id="node25" class="node">
<title>Node25</title>
<g id="a_node25"><a xlink:title=" ">
<polygon fill="#e0e0e0" stroke="#999999" points="881.89,-24.5 815.89,-24.5 815.89,-5.5 881.89,-5.5 881.89,-24.5"/>
<text text-anchor="middle" x="848.89" y="-12.5" font-family="Helvetica,sans-Serif" font-size="10.00">string_view</text>
</a>
</g>
</g>
<!-- Node21&#45;&gt;Node25 -->
<g id="edge29" class="edge">
<title>Node21&#45;&gt;Node25</title>
<path fill="none" stroke="#63b8ff" d="M914.2,-65.62C902.44,-56.68 884.06,-42.72 869.79,-31.87"/>
<polygon fill="#63b8ff" stroke="#63b8ff" points="871.98,-29.15 861.9,-25.88 867.75,-34.72 871.98,-29.15"/>
</g>
<!-- Node26&#45;&gt;Node5 -->
<g id="edge33" class="edge">
<title>Node26&#45;&gt;Node5</title>
<path fill="none" stroke="#63b8ff" d="M230.34,-291.04C217.13,-281.84 197.02,-266.57 182.89,-250 171.37,-236.48 161.44,-218.89 154.77,-205.65"/>
<polygon fill="#63b8ff" stroke="#63b8ff" points="157.96,-204.19 150.46,-196.71 151.66,-207.24 157.96,-204.19"/>
</g>
<!-- Node27 -->
<g id="node27" class="node">
<title>Node27</title>
<g id="a_node27"><a xlink:title=" ">
<polygon fill="#e0e0e0" stroke="#999999" points="262.89,-250 224.89,-250 224.89,-231 262.89,-231 262.89,-250"/>
<text text-anchor="middle" x="243.89" y="-238" font-family="Helvetica,sans-Serif" font-size="10.00">tuple</text>
</a>
</g>
</g>
<!-- Node26&#45;&gt;Node27 -->
<g id="edge34" class="edge">
<title>Node26&#45;&gt;Node27</title>
<path fill="none" stroke="#63b8ff" d="M243.89,-291.37C243.89,-283.5 243.89,-271.6 243.89,-261.39"/>
<polygon fill="#63b8ff" stroke="#63b8ff" points="247.39,-261.68 243.89,-251.68 240.39,-261.68 247.39,-261.68"/>
</g>
<!-- Node28 -->
<g id="node28" class="node">
<title>Node28</title>
<g id="a_node28"><a xlink:title=" ">
<polygon fill="#e0e0e0" stroke="#999999" points="229.39,-85 164.39,-85 164.39,-66 229.39,-66 229.39,-85"/>
<text text-anchor="middle" x="196.89" y="-73" font-family="Helvetica,sans-Serif" font-size="10.00">sys/types.h</text>
</a>
</g>
</g>
<!-- Node26&#45;&gt;Node28 -->
<g id="edge35" class="edge">
<title>Node26&#45;&gt;Node28</title>
<path fill="none" stroke="#63b8ff" d="M237.57,-291.29C230.96,-281.69 220.87,-265.54 215.89,-250 198.77,-196.5 196.48,-129.5 196.52,-96.61"/>
<polygon fill="#63b8ff" stroke="#63b8ff" points="200.02,-96.97 196.62,-86.94 193.02,-96.9 200.02,-96.97"/>
</g>
<!-- Node29 -->
<g id="node29" class="node">
<title>Node29</title>
<g id="a_node29"><a xlink:href="_reg_accessor_8hpp.html" target="_top" xlink:title=" ">
<polygon fill="white" stroke="#666666" points="374.39,-250 281.39,-250 281.39,-231 374.39,-231 374.39,-250"/>
<text text-anchor="middle" x="327.89" y="-238" font-family="Helvetica,sans-Serif" font-size="10.00">RegAccessor.hpp</text>
</a>
</g>
</g>
<!-- Node26&#45;&gt;Node29 -->
<g id="edge36" class="edge">
<title>Node26&#45;&gt;Node29</title>
<path fill="none" stroke="#63b8ff" d="M256.65,-291.12C269.73,-282.01 290.31,-267.68 305.99,-256.75"/>
<polygon fill="#63b8ff" stroke="#63b8ff" points="307.57,-259.92 313.77,-251.33 303.57,-254.18 307.57,-259.92"/>
</g>
<!-- Node30 -->
<g id="node30" class="node">
<title>Node30</title>
<g id="a_node30"><a xlink:href="_uio_if_8hpp.html" target="_top" xlink:title=" ">
<polygon fill="white" stroke="#666666" points="518.89,-195 428.89,-195 428.89,-176 518.89,-176 518.89,-195"/>
<text text-anchor="middle" x="473.89" y="-183" font-family="Helvetica,sans-Serif" font-size="10.00">udmaio/UioIf.hpp</text>
</a>
</g>
</g>
<!-- Node26&#45;&gt;Node30 -->
<g id="edge67" class="edge">
<title>Node26&#45;&gt;Node30</title>
<path fill="none" stroke="#63b8ff" d="M276.08,-291.07C304.92,-282.46 347.93,-268.08 382.89,-250 409.17,-236.41 436.67,-216.28 454.47,-202.34"/>
<polygon fill="#63b8ff" stroke="#63b8ff" points="456.46,-205.22 462.1,-196.26 452.1,-199.75 456.46,-205.22"/>
</g>
<!-- Node39 -->
<g id="node39" class="node">
<title>Node39</title>
<g id="a_node39"><a xlink:href="_axi_dma_8hpp.html" target="_top" xlink:title=" ">
<polygon fill="white" stroke="#666666" points="130.89,-250 14.89,-250 14.89,-231 130.89,-231 130.89,-250"/>
<text text-anchor="middle" x="72.89" y="-238" font-family="Helvetica,sans-Serif" font-size="10.00">udmaio/rdl/AxiDma.hpp</text>
</a>
</g>
</g>
<!-- Node26&#45;&gt;Node39 -->
<g id="edge68" class="edge">
<title>Node26&#45;&gt;Node39</title>
<path fill="none" stroke="#63b8ff" d="M217.92,-291.12C189.17,-281.28 142.59,-265.34 110,-254.19"/>
<polygon fill="#63b8ff" stroke="#63b8ff" points="111.14,-250.88 100.54,-250.96 108.87,-257.51 111.14,-250.88"/>
</g>
<!-- Node29&#45;&gt;Node5 -->
<g id="edge37" class="edge">
<title>Node29&#45;&gt;Node5</title>
<path fill="none" stroke="#63b8ff" d="M297.02,-230.51C264.58,-221.06 213.7,-206.24 180.07,-196.45"/>
<polygon fill="#63b8ff" stroke="#63b8ff" points="181.41,-193.2 170.83,-193.76 179.45,-199.92 181.41,-193.2"/>
</g>
<!-- Node29&#45;&gt;Node30 -->
<g id="edge38" class="edge">
<title>Node29&#45;&gt;Node30</title>
<path fill="none" stroke="#63b8ff" d="M352.66,-230.51C376.3,-221.93 412.14,-208.92 438.73,-199.27"/>
<polygon fill="#63b8ff" stroke="#63b8ff" points="439.87,-202.58 448.07,-195.87 437.48,-196 439.87,-202.58"/>
</g>
<!-- Node30&#45;&gt;Node7 -->
<g id="edge43" class="edge">
<title>Node30&#45;&gt;Node7</title>
<path fill="none" stroke="#63b8ff" d="M519.34,-180.46C577.1,-174.67 679.57,-162.17 764.89,-140 788.31,-133.92 792.58,-127.44 815.89,-121 900.84,-97.53 954.52,-152.74 1010.89,-85 1022.17,-71.45 1018.87,-50.76 1014.01,-35.57"/>
<polygon fill="#63b8ff" stroke="#63b8ff" points="1017.3,-34.38 1010.54,-26.22 1010.74,-36.82 1017.3,-34.38"/>
</g>
<!-- Node30&#45;&gt;Node10 -->
<g id="edge44" class="edge">
<title>Node30&#45;&gt;Node10</title>
<path fill="none" stroke="#63b8ff" d="M519.39,-179.48C585.04,-172.03 710.09,-157.08 815.89,-140 913.68,-124.22 1026.94,-101.34 1091.82,-87.78"/>
<polygon fill="#63b8ff" stroke="#63b8ff" points="1092.42,-91.23 1101.49,-85.76 1090.99,-84.38 1092.42,-91.23"/>
</g>
<!-- Node30&#45;&gt;Node11 -->
<g id="edge65" class="edge">
<title>Node30&#45;&gt;Node11</title>
<path fill="none" stroke="#63b8ff" d="M519.31,-179.96C594.41,-172.35 749.19,-156.26 879.89,-140 1030.12,-121.31 1207.64,-95.52 1289.85,-83.36"/>
<polygon fill="#63b8ff" stroke="#63b8ff" points="1290.17,-86.86 1299.55,-81.93 1289.14,-79.93 1290.17,-86.86"/>
</g>
<!-- Node30&#45;&gt;Node21 -->
<g id="edge66" class="edge">
<title>Node30&#45;&gt;Node21</title>
<path fill="none" stroke="#63b8ff" d="M519.26,-177.71C568.13,-170.04 648.01,-156.45 715.89,-140 777.27,-125.13 847.23,-102.88 888.91,-89.06"/>
<polygon fill="#63b8ff" stroke="#63b8ff" points="889.82,-92.44 898.2,-85.96 887.61,-85.8 889.82,-92.44"/>
</g>
<!-- Node30&#45;&gt;Node22 -->
<g id="edge41" class="edge">
<title>Node30&#45;&gt;Node22</title>
<path fill="none" stroke="#63b8ff" d="M428.72,-182.94C323.21,-177.78 75.38,-155.98 154.89,-66 178.84,-38.9 423.31,-23.12 519.4,-17.92"/>
<polygon fill="#63b8ff" stroke="#63b8ff" points="519.31,-21.43 529.11,-17.41 518.94,-14.44 519.31,-21.43"/>
</g>
<!-- Node30&#45;&gt;Node23 -->
<g id="edge42" class="edge">
<title>Node30&#45;&gt;Node23</title>
<path fill="none" stroke="#63b8ff" d="M428.42,-175.58C355.9,-159.44 227.05,-121.82 276.89,-66 324.11,-13.12 525.15,-47.32 593.89,-30 595.48,-29.6 597.09,-29.15 598.71,-28.65"/>
<polygon fill="#63b8ff" stroke="#63b8ff" points="599.52,-32.07 607.78,-25.44 597.19,-25.47 599.52,-32.07"/>
</g>
<!-- Node30&#45;&gt;Node28 -->
<g id="edge48" class="edge">
<title>Node30&#45;&gt;Node28</title>
<path fill="none" stroke="#63b8ff" d="M428.46,-178.28C374.31,-170.33 287.57,-155.69 258.89,-140 238.47,-128.82 220.55,-108.71 209.3,-94.11"/>
<polygon fill="#63b8ff" stroke="#63b8ff" points="212.28,-92.25 203.53,-86.28 206.64,-96.4 212.28,-92.25"/>
</g>
<!-- Node31 -->
<g id="node31" class="node">
<title>Node31</title>
<g id="a_node31"><a xlink:title=" ">
<polygon fill="#e0e0e0" stroke="#999999" points="345.89,-85 285.89,-85 285.89,-66 345.89,-66 345.89,-85"/>
<text text-anchor="middle" x="315.89" y="-73" font-family="Helvetica,sans-Serif" font-size="10.00">filesystem</text>
</a>
</g>
</g>
<!-- Node30&#45;&gt;Node31 -->
<g id="edge39" class="edge">
<title>Node30&#45;&gt;Node31</title>
<path fill="none" stroke="#63b8ff" d="M460.96,-175.66C434.11,-157.31 372.03,-114.87 338.44,-91.91"/>
<polygon fill="#63b8ff" stroke="#63b8ff" points="340.48,-89.07 330.25,-86.31 336.53,-94.85 340.48,-89.07"/>
</g>
<!-- Node32 -->
<g id="node32" class="node">
<title>Node32</title>
<g id="a_node32"><a xlink:title=" ">
<polygon fill="#e0e0e0" stroke="#999999" points="413.89,-85 363.89,-85 363.89,-66 413.89,-66 413.89,-85"/>
<text text-anchor="middle" x="388.89" y="-73" font-family="Helvetica,sans-Serif" font-size="10.00">fstream</text>
</a>
</g>
</g>
<!-- Node30&#45;&gt;Node32 -->
<g id="edge40" class="edge">
<title>Node30&#45;&gt;Node32</title>
<path fill="none" stroke="#63b8ff" d="M466.94,-175.66C452.99,-157.94 421.37,-117.77 402.95,-94.35"/>
<polygon fill="#63b8ff" stroke="#63b8ff" points="405.82,-92.34 396.88,-86.65 400.32,-96.67 405.82,-92.34"/>
</g>
<!-- Node33 -->
<g id="node33" class="node">
<title>Node33</title>
<g id="a_node33"><a xlink:title=" ">
<polygon fill="#e0e0e0" stroke="#999999" points="475.39,-85 432.39,-85 432.39,-66 475.39,-66 475.39,-85"/>
<text text-anchor="middle" x="453.89" y="-73" font-family="Helvetica,sans-Serif" font-size="10.00">fcntl.h</text>
</a>
</g>
</g>
<!-- Node30&#45;&gt;Node33 -->
<g id="edge45" class="edge">
<title>Node30&#45;&gt;Node33</title>
<path fill="none" stroke="#63b8ff" d="M472.26,-175.66C469.08,-158.5 462,-120.26 457.62,-96.6"/>
<polygon fill="#63b8ff" stroke="#63b8ff" points="461.09,-96.14 455.83,-86.95 454.21,-97.42 461.09,-96.14"/>
</g>
<!-- Node34 -->
<g id="node34" class="node">
<title>Node34</title>
<g id="a_node34"><a xlink:title=" ">
<polygon fill="#e0e0e0" stroke="#999999" points="562.39,-85 493.39,-85 493.39,-66 562.39,-66 562.39,-85"/>
<text text-anchor="middle" x="527.89" y="-73" font-family="Helvetica,sans-Serif" font-size="10.00">sys/mman.h</text>
</a>
</g>
</g>
<!-- Node30&#45;&gt;Node34 -->
<g id="edge46" class="edge">
<title>Node30&#45;&gt;Node34</title>
<path fill="none" stroke="#63b8ff" d="M478.31,-175.66C487.02,-158.26 506.55,-119.19 518.33,-95.62"/>
<polygon fill="#63b8ff" stroke="#63b8ff" points="521.4,-97.32 522.74,-86.81 515.13,-94.19 521.4,-97.32"/>
</g>
<!-- Node35 -->
<g id="node35" class="node">
<title>Node35</title>
<g id="a_node35"><a xlink:title=" ">
<polygon fill="#e0e0e0" stroke="#999999" points="716.39,-85 657.39,-85 657.39,-66 716.39,-66 716.39,-85"/>
<text text-anchor="middle" x="686.89" y="-73" font-family="Helvetica,sans-Serif" font-size="10.00">sys/stat.h</text>
</a>
</g>
</g>
<!-- Node30&#45;&gt;Node35 -->
<g id="edge47" class="edge">
<title>Node30&#45;&gt;Node35</title>
<path fill="none" stroke="#63b8ff" d="M519.11,-179.29C569.19,-172.64 645.68,-159.61 666.89,-140 678.85,-128.95 683.7,-110.83 685.65,-96.77"/>
<polygon fill="#63b8ff" stroke="#63b8ff" points="689.14,-97.11 686.6,-86.82 682.17,-96.45 689.14,-97.11"/>
</g>
<!-- Node36 -->
<g id="node36" class="node">
<title>Node36</title>
<g id="a_node36"><a xlink:title=" ">
<polygon fill="#e0e0e0" stroke="#999999" points="784.89,-85 734.89,-85 734.89,-66 784.89,-66 784.89,-85"/>
<text text-anchor="middle" x="759.89" y="-73" font-family="Helvetica,sans-Serif" font-size="10.00">unistd.h</text>
</a>
</g>
</g>
<!-- Node30&#45;&gt;Node36 -->
<g id="edge49" class="edge">
<title>Node30&#45;&gt;Node36</title>
<path fill="none" stroke="#63b8ff" d="M519.29,-181.68C563.96,-177.41 633.1,-166.72 686.89,-140 709.82,-128.62 731.32,-108.29 744.96,-93.69"/>
<polygon fill="#63b8ff" stroke="#63b8ff" points="747.26,-96.37 751.37,-86.6 742.07,-91.67 747.26,-96.37"/>
</g>
<!-- Node37 -->
<g id="node37" class="node">
<title>Node37</title>
<g id="a_node37"><a xlink:href="_hw_accessor_8hpp.html" target="_top" xlink:title=" ">
<polygon fill="white" stroke="#666666" points="658.39,-140 533.39,-140 533.39,-121 658.39,-121 658.39,-140"/>
<text text-anchor="middle" x="595.89" y="-128" font-family="Helvetica,sans-Serif" font-size="10.00">udmaio/HwAccessor.hpp</text>
</a>
</g>
</g>
<!-- Node30&#45;&gt;Node37 -->
<g id="edge50" class="edge">
<title>Node30&#45;&gt;Node37</title>
<path fill="none" stroke="#63b8ff" d="M494.59,-175.51C513.9,-167.12 542.96,-154.5 565.01,-144.92"/>
<polygon fill="#63b8ff" stroke="#63b8ff" points="566.34,-148.16 574.12,-140.96 563.55,-141.74 566.34,-148.16"/>
</g>
<!-- Node37&#45;&gt;Node7 -->
<g id="edge56" class="edge">
<title>Node37&#45;&gt;Node7</title>
<path fill="none" stroke="#63b8ff" d="M658.57,-126.35C763.5,-120.51 965.67,-106.58 989.89,-85 1003.52,-72.87 1006.72,-51.63 1007.01,-35.91"/>
<polygon fill="#63b8ff" stroke="#63b8ff" points="1010.52,-36.2 1006.8,-26.28 1003.52,-36.35 1010.52,-36.2"/>
</g>
<!-- Node37&#45;&gt;Node10 -->
<g id="edge57" class="edge">
<title>Node37&#45;&gt;Node10</title>
<path fill="none" stroke="#63b8ff" d="M658.87,-123.42C759.11,-113.74 954.84,-94.85 1064.87,-84.23"/>
<polygon fill="#63b8ff" stroke="#63b8ff" points="1065.09,-87.72 1074.71,-83.28 1064.42,-80.75 1065.09,-87.72"/>
</g>
<!-- Node37&#45;&gt;Node11 -->
<g id="edge63" class="edge">
<title>Node37&#45;&gt;Node11</title>
<path fill="none" stroke="#63b8ff" d="M658.54,-125.12C771.25,-117.22 1015.7,-100.02 1221.89,-85 1244.17,-83.38 1268.89,-81.54 1289.6,-79.99"/>
<polygon fill="#63b8ff" stroke="#63b8ff" points="1289.75,-83.49 1299.46,-79.25 1289.23,-76.51 1289.75,-83.49"/>
</g>
<!-- Node37&#45;&gt;Node21 -->
<g id="edge64" class="edge">
<title>Node37&#45;&gt;Node21</title>
<path fill="none" stroke="#63b8ff" d="M651.87,-120.51C709.09,-111.32 797.96,-97.05 858.88,-87.26"/>
<polygon fill="#63b8ff" stroke="#63b8ff" points="859.1,-90.77 868.42,-85.73 857.99,-83.86 859.1,-90.77"/>
</g>
<!-- Node37&#45;&gt;Node22 -->
<g id="edge54" class="edge">
<title>Node37&#45;&gt;Node22</title>
<path fill="none" stroke="#63b8ff" d="M592.91,-120.59C586.81,-102.36 572.76,-60.41 564.43,-35.53"/>
<polygon fill="#63b8ff" stroke="#63b8ff" points="567.84,-34.67 561.34,-26.3 561.2,-36.89 567.84,-34.67"/>
</g>
<!-- Node37&#45;&gt;Node23 -->
<g id="edge55" class="edge">
<title>Node37&#45;&gt;Node23</title>
<path fill="none" stroke="#63b8ff" d="M598.48,-120.59C603.76,-102.44 615.87,-60.79 623.12,-35.87"/>
<polygon fill="#63b8ff" stroke="#63b8ff" points="626.46,-36.9 625.89,-26.32 619.74,-34.94 626.46,-36.9"/>
</g>
<!-- Node37&#45;&gt;Node28 -->
<g id="edge61" class="edge">
<title>Node37&#45;&gt;Node28</title>
<path fill="none" stroke="#63b8ff" d="M533.11,-121.16C451.72,-110.35 311.84,-91.77 240.91,-82.35"/>
<polygon fill="#63b8ff" stroke="#63b8ff" points="241.59,-78.91 231.22,-81.06 240.67,-85.85 241.59,-78.91"/>
</g>
<!-- Node37&#45;&gt;Node31 -->
<g id="edge52" class="edge">
<title>Node37&#45;&gt;Node31</title>
<path fill="none" stroke="#63b8ff" d="M544.56,-120.51C498.09,-112.27 427.49,-99.46 356.96,-85.37"/>
<polygon fill="#63b8ff" stroke="#63b8ff" points="358.09,-82.02 347.59,-83.48 356.71,-88.88 358.09,-82.02"/>
</g>
<!-- Node37&#45;&gt;Node32 -->
<g id="edge53" class="edge">
<title>Node37&#45;&gt;Node32</title>
<path fill="none" stroke="#63b8ff" d="M560.78,-120.51C523.15,-110.87 463.68,-95.65 425.49,-85.87"/>
<polygon fill="#63b8ff" stroke="#63b8ff" points="426.39,-82.49 415.83,-83.4 424.65,-89.27 426.39,-82.49"/>
</g>
<!-- Node37&#45;&gt;Node33 -->
<g id="edge58" class="edge">
<title>Node37&#45;&gt;Node33</title>
<path fill="none" stroke="#63b8ff" d="M571.81,-120.51C548.27,-111.72 512.27,-98.29 486.24,-88.57"/>
<polygon fill="#63b8ff" stroke="#63b8ff" points="487.78,-85.41 477.18,-85.19 485.33,-91.97 487.78,-85.41"/>
</g>
<!-- Node37&#45;&gt;Node34 -->
<g id="edge59" class="edge">
<title>Node37&#45;&gt;Node34</title>
<path fill="none" stroke="#63b8ff" d="M584.36,-120.51C574.43,-112.77 559.88,-101.43 548.04,-92.2"/>
<polygon fill="#63b8ff" stroke="#63b8ff" points="550.49,-89.68 540.45,-86.29 546.19,-95.2 550.49,-89.68"/>
</g>
<!-- Node37&#45;&gt;Node35 -->
<g id="edge60" class="edge">
<title>Node37&#45;&gt;Node35</title>
<path fill="none" stroke="#63b8ff" d="M611.33,-120.51C625.14,-112.47 645.64,-100.53 661.8,-91.11"/>
<polygon fill="#63b8ff" stroke="#63b8ff" points="663.5,-94.18 670.38,-86.12 659.97,-88.13 663.5,-94.18"/>
</g>
<!-- Node37&#45;&gt;Node36 -->
<g id="edge62" class="edge">
<title>Node37&#45;&gt;Node36</title>
<path fill="none" stroke="#63b8ff" d="M623.71,-120.51C651.27,-111.61 693.59,-97.93 723.73,-88.19"/>
<polygon fill="#63b8ff" stroke="#63b8ff" points="724.76,-91.53 733.19,-85.13 722.6,-84.87 724.76,-91.53"/>
</g>
<!-- Node38 -->
<g id="node38" class="node">
<title>Node38</title>
<g id="a_node38"><a xlink:title=" ">
<polygon fill="#e0e0e0" stroke="#999999" points="852.39,-85 803.39,-85 803.39,-66 852.39,-66 852.39,-85"/>
<text text-anchor="middle" x="827.89" y="-73" font-family="Helvetica,sans-Serif" font-size="10.00">cstddef</text>
</a>
</g>
</g>
<!-- Node37&#45;&gt;Node38 -->
<g id="edge51" class="edge">
<title>Node37&#45;&gt;Node38</title>
<path fill="none" stroke="#63b8ff" d="M636.92,-120.58C674.65,-112.31 732.46,-99.47 791.91,-85.43"/>
<polygon fill="#63b8ff" stroke="#63b8ff" points="792.63,-88.85 801.56,-83.14 791.02,-82.04 792.63,-88.85"/>
</g>
<!-- Node39&#45;&gt;Node5 -->
<g id="edge69" class="edge">
<title>Node39&#45;&gt;Node5</title>
<path fill="none" stroke="#63b8ff" d="M85.28,-230.51C96.04,-222.7 111.86,-211.21 124.65,-201.93"/>
<polygon fill="#63b8ff" stroke="#63b8ff" points="126.43,-204.95 132.47,-196.25 122.32,-199.29 126.43,-204.95"/>
</g>
<!-- Node40&#45;&gt;Node20 -->
<g id="edge73" class="edge">
<title>Node40&#45;&gt;Node20</title>
<path fill="none" stroke="#63b8ff" d="M853.11,-291.12C866.65,-282.01 887.96,-267.68 904.21,-256.75"/>
<polygon fill="#63b8ff" stroke="#63b8ff" points="905.96,-259.8 912.3,-251.31 902.05,-253.99 905.96,-259.8"/>
</g>
<!-- Node40&#45;&gt;Node23 -->
<g id="edge72" class="edge">
<title>Node40&#45;&gt;Node23</title>
<path fill="none" stroke="#63b8ff" d="M788.55,-293.17C639.62,-272.05 214.23,-202.09 154.89,-85 110.45,2.7 498.19,-52.53 593.89,-30 595.53,-29.62 597.18,-29.17 598.84,-28.67"/>
<polygon fill="#63b8ff" stroke="#63b8ff" points="599.9,-32.01 608.18,-25.41 597.58,-25.41 599.9,-32.01"/>
</g>
<!-- Node40&#45;&gt;Node29 -->
<g id="edge74" class="edge">
<title>Node40&#45;&gt;Node29</title>
<path fill="none" stroke="#63b8ff" d="M788.44,-294.77C704.64,-286.14 533.51,-268.09 388.89,-250 387.9,-249.88 386.89,-249.75 385.88,-249.62"/>
<polygon fill="#63b8ff" stroke="#63b8ff" points="386.7,-246.2 376.34,-248.37 385.8,-253.14 386.7,-246.2"/>
</g>
<!-- Node40&#45;&gt;Node38 -->
<g id="edge71" class="edge">
<title>Node40&#45;&gt;Node38</title>
<path fill="none" stroke="#63b8ff" d="M839.42,-291.24C837.67,-258.63 831.51,-143.77 828.98,-96.78"/>
<polygon fill="#63b8ff" stroke="#63b8ff" points="832.49,-96.75 828.46,-86.96 825.5,-97.13 832.49,-96.75"/>
</g>
</g>
</svg>
