<?xml version="1.0" encoding="UTF-8" standalone="no"?>
<!DOCTYPE svg PUBLIC "-//W3C//DTD SVG 1.1//EN"
 "http://www.w3.org/Graphics/SVG/1.1/DTD/svg11.dtd">
<!-- Generated by graphviz version 7.0.5 (20221223.1930)
 -->
<!-- Title: DataHandlerPrint.hpp Pages: 1 -->
<!--zoomable 379 -->
<svg id="main" version="1.1" xmlns="http://www.w3.org/2000/svg" xmlns:xlink="http://www.w3.org/1999/xlink" xml:space="preserve" onload="init(evt)">
<style type="text/css"><![CDATA[
.edge:hover path { stroke: red; }
.edge:hover polygon { stroke: red; fill: red; }
]]></style>
<script type="text/javascript"><![CDATA[
var edges = document.getElementsByTagName('g');
if (edges && edges.length) {
  for (var i=0;i<edges.length;i++) {
    if (edges[i].id.substr(0,4)=='edge') {
      edges[i].setAttribute('class','edge');
    }
  }
}
]]></script>
        <defs>
                <circle id="rim" cx="0" cy="0" r="7"/>
                <circle id="rim2" cx="0" cy="0" r="3.5"/>
                <g id="zoomPlus">
                        <use xlink:href="#rim" fill="#404040">
                                <set attributeName="fill" to="#808080" begin="zoomplus.mouseover" end="zoomplus.mouseout"/>
                        </use>
                        <path d="M-4,0h8M0,-4v8" fill="none" stroke="white" stroke-width="1.5" pointer-events="none"/>
                </g>
                <g id="zoomMin">
                        <use xlink:href="#rim" fill="#404040">
                                <set attributeName="fill" to="#808080" begin="zoomminus.mouseover" end="zoomminus.mouseout"/>
                        </use>
                        <path d="M-4,0h8" fill="none" stroke="white" stroke-width="1.5" pointer-events="none"/>
                </g>
                <g id="dirArrow">
                        <path fill="none" stroke="white" stroke-width="1.5" d="M0,-3.0v7 M-2.5,-0.5L0,-3.0L2.5,-0.5"/>
                </g>
               <g id="resetDef">
                       <use xlink:href="#rim2" fill="#404040">
                               <set attributeName="fill" to="#808080" begin="reset.mouseover" end="reset.mouseout"/>
                       </use>
               </g>
        </defs>

<script type="text/javascript">
var viewWidth = 1756;
var viewHeight = 379;
var sectionId = 'dynsection-0';
</script>
<script xlink:href="svgpan.js"/>
<svg id="graph" class="graph">
<g id="viewport">
<title>DataHandlerPrint.hpp</title>
<!-- Node1 -->
<g id="node1" class="node">
<title>Node1</title>
<g id="a_node1"><a xlink:title=" ">
<polygon fill="#999999" stroke="#666666" points="497.9,-371 388.9,-371 388.9,-352 497.9,-352 497.9,-371"/>
<text text-anchor="middle" x="443.4" y="-359" font-family="Helvetica,sans-Serif" font-size="10.00">DataHandlerPrint.hpp</text>
</a>
</g>
</g>
<!-- Node2 -->
<g id="node2" class="node">
<title>Node2</title>
<g id="a_node2"><a xlink:title=" ">
<polygon fill="#e0e0e0" stroke="#999999" points="381.4,-316 331.4,-316 331.4,-297 381.4,-297 381.4,-316"/>
<text text-anchor="middle" x="356.4" y="-304" font-family="Helvetica,sans-Serif" font-size="10.00">optional</text>
</a>
</g>
</g>
<!-- Node1&#45;&gt;Node2 -->
<g id="edge1" class="edge">
<title>Node1&#45;&gt;Node2</title>
<path fill="none" stroke="#63b8ff" d="M428.65,-351.51C415.44,-343.47 395.85,-331.53 380.39,-322.11"/>
<polygon fill="#63b8ff" stroke="#63b8ff" points="382.6,-319.36 372.24,-317.15 378.96,-325.34 382.6,-319.36"/>
</g>
<!-- Node3 -->
<g id="node3" class="node">
<title>Node3</title>
<g id="a_node3"><a xlink:title=" ">
<polygon fill="#e0e0e0" stroke="#999999" points="438.9,-316 399.9,-316 399.9,-297 438.9,-297 438.9,-316"/>
<text text-anchor="middle" x="419.4" y="-304" font-family="Helvetica,sans-Serif" font-size="10.00">utility</text>
</a>
</g>
</g>
<!-- Node1&#45;&gt;Node3 -->
<g id="edge2" class="edge">
<title>Node1&#45;&gt;Node3</title>
<path fill="none" stroke="#63b8ff" d="M439.44,-351.75C436.37,-344.96 431.99,-335.3 428.11,-326.73"/>
<polygon fill="#63b8ff" stroke="#63b8ff" points="431.39,-325.49 424.08,-317.82 425.01,-328.37 431.39,-325.49"/>
</g>
<!-- Node4 -->
<g id="node4" class="node">
<title>Node4</title>
<g id="a_node4"><a xlink:href="_axi_traffic_gen_lfsr_8hpp.html" target="_top" xlink:title=" ">
<polygon fill="white" stroke="#666666" points="693.4,-195 583.4,-195 583.4,-176 693.4,-176 693.4,-195"/>
<text text-anchor="middle" x="638.4" y="-183" font-family="Helvetica,sans-Serif" font-size="10.00">AxiTrafficGenLfsr.hpp</text>
</a>
</g>
</g>
<!-- Node1&#45;&gt;Node4 -->
<g id="edge3" class="edge">
<title>Node1&#45;&gt;Node4</title>
<path fill="none" stroke="#63b8ff" d="M443.65,-351.83C444.78,-328.7 451.11,-265.05 486.4,-231 499.99,-217.89 542.72,-206.05 579.43,-197.88"/>
<polygon fill="#63b8ff" stroke="#63b8ff" points="580.08,-201.32 589.11,-195.78 578.6,-194.48 580.08,-201.32"/>
</g>
<!-- Node6 -->
<g id="node6" class="node">
<title>Node6</title>
<g id="a_node6"><a xlink:href="_data_handler_abstract_8hpp.html" target="_top" xlink:title=" ">
<polygon fill="white" stroke="#666666" points="847.4,-316 687.4,-316 687.4,-297 847.4,-297 847.4,-316"/>
<text text-anchor="middle" x="767.4" y="-304" font-family="Helvetica,sans-Serif" font-size="10.00">udmaio/DataHandlerAbstract.hpp</text>
</a>
</g>
</g>
<!-- Node1&#45;&gt;Node6 -->
<g id="edge5" class="edge">
<title>Node1&#45;&gt;Node6</title>
<path fill="none" stroke="#63b8ff" d="M498.37,-351.51C554.42,-342.34 641.43,-328.11 701.24,-318.32"/>
<polygon fill="#63b8ff" stroke="#63b8ff" points="701.65,-321.8 710.95,-316.73 700.52,-314.9 701.65,-321.8"/>
</g>
<!-- Node5 -->
<g id="node5" class="node">
<title>Node5</title>
<g id="a_node5"><a xlink:title=" ">
<polygon fill="#e0e0e0" stroke="#999999" points="601.4,-140 555.4,-140 555.4,-121 601.4,-121 601.4,-140"/>
<text text-anchor="middle" x="578.4" y="-128" font-family="Helvetica,sans-Serif" font-size="10.00">cstdint</text>
</a>
</g>
</g>
<!-- Node4&#45;&gt;Node5 -->
<g id="edge4" class="edge">
<title>Node4&#45;&gt;Node5</title>
<path fill="none" stroke="#63b8ff" d="M628.23,-175.51C619.64,-167.93 607.14,-156.88 596.8,-147.75"/>
<polygon fill="#63b8ff" stroke="#63b8ff" points="599.38,-145.36 589.57,-141.36 594.74,-150.6 599.38,-145.36"/>
</g>
<!-- Node7 -->
<g id="node7" class="node">
<title>Node7</title>
<g id="a_node7"><a xlink:title=" ">
<polygon fill="#e0e0e0" stroke="#999999" points="821.9,-24.5 780.9,-24.5 780.9,-5.5 821.9,-5.5 821.9,-24.5"/>
<text text-anchor="middle" x="801.4" y="-12.5" font-family="Helvetica,sans-Serif" font-size="10.00">string</text>
</a>
</g>
</g>
<!-- Node6&#45;&gt;Node7 -->
<g id="edge6" class="edge">
<title>Node6&#45;&gt;Node7</title>
<path fill="none" stroke="#63b8ff" d="M847.64,-301.9C911.43,-297.15 993.34,-286.2 1014.4,-261 1033.3,-238.4 1056.21,-147.18 976.4,-66 929.85,-18.65 894,-52.14 831.4,-30 830.76,-29.77 830.11,-29.54 829.46,-29.29"/>
<polygon fill="#63b8ff" stroke="#63b8ff" points="830.91,-26.1 820.33,-25.46 828.19,-32.56 830.91,-26.1"/>
</g>
<!-- Node8 -->
<g id="node8" class="node">
<title>Node8</title>
<g id="a_node8"><a xlink:title=" ">
<polygon fill="#e0e0e0" stroke="#999999" points="751.4,-140 707.4,-140 707.4,-121 751.4,-121 751.4,-140"/>
<text text-anchor="middle" x="729.4" y="-128" font-family="Helvetica,sans-Serif" font-size="10.00">vector</text>
</a>
</g>
</g>
<!-- Node6&#45;&gt;Node8 -->
<g id="edge7" class="edge">
<title>Node6&#45;&gt;Node8</title>
<path fill="none" stroke="#63b8ff" d="M761.07,-296.8C755.16,-288.17 746.62,-274.35 742.4,-261 730.59,-223.58 728.82,-177.34 728.91,-151.46"/>
<polygon fill="#63b8ff" stroke="#63b8ff" points="732.4,-151.79 729.05,-141.74 725.4,-151.69 732.4,-151.79"/>
</g>
<!-- Node9 -->
<g id="node9" class="node">
<title>Node9</title>
<g id="a_node9"><a xlink:title=" ">
<polygon fill="#e0e0e0" stroke="#999999" points="575.4,-255.5 495.4,-255.5 495.4,-236.5 575.4,-236.5 575.4,-255.5"/>
<text text-anchor="middle" x="535.4" y="-243.5" font-family="Helvetica,sans-Serif" font-size="10.00">boost/asio.hpp</text>
</a>
</g>
</g>
<!-- Node6&#45;&gt;Node9 -->
<g id="edge8" class="edge">
<title>Node6&#45;&gt;Node9</title>
<path fill="none" stroke="#63b8ff" d="M728.73,-296.57C691.62,-287.88 634.03,-274.12 584.4,-261 582.01,-260.37 579.55,-259.7 577.07,-259.03"/>
<polygon fill="#63b8ff" stroke="#63b8ff" points="578.23,-255.72 567.65,-256.41 576.35,-262.46 578.23,-255.72"/>
</g>
<!-- Node10 -->
<g id="node10" class="node">
<title>Node10</title>
<g id="a_node10"><a xlink:title=" ">
<polygon fill="#e0e0e0" stroke="#999999" points="966.9,-85 829.9,-85 829.9,-66 966.9,-66 966.9,-85"/>
<text text-anchor="middle" x="898.4" y="-73" font-family="Helvetica,sans-Serif" font-size="10.00">boost/core/noncopyable.hpp</text>
</a>
</g>
</g>
<!-- Node6&#45;&gt;Node10 -->
<g id="edge9" class="edge">
<title>Node6&#45;&gt;Node10</title>
<path fill="none" stroke="#63b8ff" d="M822.41,-296.57C843.81,-290.23 866.5,-279.43 880.4,-261 917.51,-211.82 909.19,-133.03 902.63,-96.41"/>
<polygon fill="#63b8ff" stroke="#63b8ff" points="906.11,-95.96 900.75,-86.81 899.24,-97.3 906.11,-95.96"/>
</g>
<!-- Node11 -->
<g id="node11" class="node">
<title>Node11</title>
<g id="a_node11"><a xlink:href="_logging_8hpp.html" target="_top" xlink:title=" ">
<polygon fill="white" stroke="#666666" points="1105.9,-85 1036.9,-85 1036.9,-66 1105.9,-66 1105.9,-85"/>
<text text-anchor="middle" x="1071.4" y="-73" font-family="Helvetica,sans-Serif" font-size="10.00">Logging.hpp</text>
</a>
</g>
</g>
<!-- Node6&#45;&gt;Node11 -->
<g id="edge10" class="edge">
<title>Node6&#45;&gt;Node11</title>
<path fill="none" stroke="#63b8ff" d="M847.86,-303.15C920.63,-299.23 1020.39,-288.79 1047.4,-261 1090.9,-216.26 1082.42,-133.99 1075.64,-96.3"/>
<polygon fill="#63b8ff" stroke="#63b8ff" points="1079.14,-95.97 1073.77,-86.83 1072.27,-97.32 1079.14,-95.97"/>
</g>
<!-- Node19 -->
<g id="node19" class="node">
<title>Node19</title>
<g id="a_node19"><a xlink:href="_u_dma_buf_8hpp.html" target="_top" xlink:title=" ">
<polygon fill="white" stroke="#666666" points="1004.9,-255.5 927.9,-255.5 927.9,-236.5 1004.9,-236.5 1004.9,-255.5"/>
<text text-anchor="middle" x="966.4" y="-243.5" font-family="Helvetica,sans-Serif" font-size="10.00">UDmaBuf.hpp</text>
</a>
</g>
</g>
<!-- Node6&#45;&gt;Node19 -->
<g id="edge19" class="edge">
<title>Node6&#45;&gt;Node19</title>
<path fill="none" stroke="#63b8ff" d="M797.63,-296.62C831.67,-286.61 887.19,-270.29 925.19,-259.12"/>
<polygon fill="#63b8ff" stroke="#63b8ff" points="925.84,-262.57 934.44,-256.4 923.86,-255.86 925.84,-262.57"/>
</g>
<!-- Node26 -->
<g id="node26" class="node">
<title>Node26</title>
<g id="a_node26"><a xlink:href="_uio_axi_dma_if_8hpp.html" target="_top" xlink:title=" ">
<polygon fill="white" stroke="#666666" points="438.9,-255.5 349.9,-255.5 349.9,-236.5 438.9,-236.5 438.9,-255.5"/>
<text text-anchor="middle" x="394.4" y="-243.5" font-family="Helvetica,sans-Serif" font-size="10.00">UioAxiDmaIf.hpp</text>
</a>
</g>
</g>
<!-- Node6&#45;&gt;Node26 -->
<g id="edge31" class="edge">
<title>Node6&#45;&gt;Node26</title>
<path fill="none" stroke="#63b8ff" d="M710.35,-296.55C639.79,-285.48 520.45,-266.77 450.39,-255.78"/>
<polygon fill="#63b8ff" stroke="#63b8ff" points="451.08,-252.35 440.66,-254.25 449.99,-259.26 451.08,-252.35"/>
</g>
<!-- Node38 -->
<g id="node38" class="node">
<title>Node38</title>
<g id="a_node38"><a xlink:href="_uio_mem_sgdma_8hpp.html" target="_top" xlink:title=" ">
<polygon fill="white" stroke="#666666" points="695.4,-255.5 593.4,-255.5 593.4,-236.5 695.4,-236.5 695.4,-255.5"/>
<text text-anchor="middle" x="644.4" y="-243.5" font-family="Helvetica,sans-Serif" font-size="10.00">UioMemSgdma.hpp</text>
</a>
</g>
</g>
<!-- Node6&#45;&gt;Node38 -->
<g id="edge52" class="edge">
<title>Node6&#45;&gt;Node38</title>
<path fill="none" stroke="#63b8ff" d="M748.72,-296.62C728.77,-287.12 696.86,-271.95 673.59,-260.88"/>
<polygon fill="#63b8ff" stroke="#63b8ff" points="675.16,-257.75 664.63,-256.62 672.16,-264.07 675.16,-257.75"/>
</g>
<!-- Node39 -->
<g id="node39" class="node">
<title>Node39</title>
<g id="a_node39"><a xlink:title=" ">
<polygon fill="#e0e0e0" stroke="#999999" points="871.4,-261 751.4,-261 751.4,-231 871.4,-231 871.4,-261"/>
<text text-anchor="start" x="759.4" y="-249" font-family="Helvetica,sans-Serif" font-size="10.00">boost/asio/posix/stream</text>
<text text-anchor="middle" x="811.4" y="-238" font-family="Helvetica,sans-Serif" font-size="10.00">_descriptor.hpp</text>
</a>
</g>
</g>
<!-- Node6&#45;&gt;Node39 -->
<g id="edge55" class="edge">
<title>Node6&#45;&gt;Node39</title>
<path fill="none" stroke="#63b8ff" d="M773.9,-296.87C779.2,-289.81 786.96,-279.5 794.04,-270.08"/>
<polygon fill="#63b8ff" stroke="#63b8ff" points="796.66,-272.42 799.88,-262.32 791.07,-268.21 796.66,-272.42"/>
</g>
<!-- Node11&#45;&gt;Node7 -->
<g id="edge11" class="edge">
<title>Node11&#45;&gt;Node7</title>
<path fill="none" stroke="#63b8ff" d="M1036.72,-69.18C979.81,-60.26 869.14,-42.09 831.4,-30 830.6,-29.74 829.8,-29.47 828.99,-29.18"/>
<polygon fill="#63b8ff" stroke="#63b8ff" points="830.54,-26.04 819.95,-25.48 827.88,-32.51 830.54,-26.04"/>
</g>
<!-- Node12 -->
<g id="node12" class="node">
<title>Node12</title>
<g id="a_node12"><a xlink:title=" ">
<polygon fill="#e0e0e0" stroke="#999999" points="1748.4,-24.5 1652.4,-24.5 1652.4,-5.5 1748.4,-5.5 1748.4,-24.5"/>
<text text-anchor="middle" x="1700.4" y="-12.5" font-family="Helvetica,sans-Serif" font-size="10.00">boost/log/core.hpp</text>
</a>
</g>
</g>
<!-- Node11&#45;&gt;Node12 -->
<g id="edge12" class="edge">
<title>Node11&#45;&gt;Node12</title>
<path fill="none" stroke="#63b8ff" d="M1106.13,-73.77C1195.68,-71.46 1441.55,-62.42 1643.4,-30 1647.75,-29.3 1652.25,-28.44 1656.74,-27.49"/>
<polygon fill="#63b8ff" stroke="#63b8ff" points="1657.29,-30.96 1666.26,-25.33 1655.73,-24.13 1657.29,-30.96"/>
</g>
<!-- Node13 -->
<g id="node13" class="node">
<title>Node13</title>
<g id="a_node13"><a xlink:title=" ">
<polygon fill="#e0e0e0" stroke="#999999" points="968.9,-24.5 839.9,-24.5 839.9,-5.5 968.9,-5.5 968.9,-24.5"/>
<text text-anchor="middle" x="904.4" y="-12.5" font-family="Helvetica,sans-Serif" font-size="10.00">boost/log/expressions.hpp</text>
</a>
</g>
</g>
<!-- Node11&#45;&gt;Node13 -->
<g id="edge13" class="edge">
<title>Node11&#45;&gt;Node13</title>
<path fill="none" stroke="#63b8ff" d="M1046.04,-65.62C1017.96,-55.78 972.47,-39.84 940.64,-28.69"/>
<polygon fill="#63b8ff" stroke="#63b8ff" points="942.03,-25.47 931.44,-25.47 939.72,-32.08 942.03,-25.47"/>
</g>
<!-- Node14 -->
<g id="node14" class="node">
<title>Node14</title>
<g id="a_node14"><a xlink:title=" ">
<polygon fill="#e0e0e0" stroke="#999999" points="1087.9,-24.5 986.9,-24.5 986.9,-5.5 1087.9,-5.5 1087.9,-24.5"/>
<text text-anchor="middle" x="1037.4" y="-12.5" font-family="Helvetica,sans-Serif" font-size="10.00">boost/log/trivial.hpp</text>
</a>
</g>
</g>
<!-- Node11&#45;&gt;Node14 -->
<g id="edge14" class="edge">
<title>Node11&#45;&gt;Node14</title>
<path fill="none" stroke="#63b8ff" d="M1066.39,-65.87C1061.62,-57.66 1054.28,-45.04 1048.19,-34.55"/>
<polygon fill="#63b8ff" stroke="#63b8ff" points="1051.25,-32.86 1043.2,-25.98 1045.2,-36.38 1051.25,-32.86"/>
</g>
<!-- Node15 -->
<g id="node15" class="node">
<title>Node15</title>
<g id="a_node15"><a xlink:title=" ">
<polygon fill="#e0e0e0" stroke="#999999" points="1214.9,-30 1105.9,-30 1105.9,0 1214.9,0 1214.9,-30"/>
<text text-anchor="start" x="1113.9" y="-18" font-family="Helvetica,sans-Serif" font-size="10.00">boost/log/utility/setup</text>
<text text-anchor="middle" x="1160.4" y="-7" font-family="Helvetica,sans-Serif" font-size="10.00">/console.hpp</text>
</a>
</g>
</g>
<!-- Node11&#45;&gt;Node15 -->
<g id="edge15" class="edge">
<title>Node11&#45;&gt;Node15</title>
<path fill="none" stroke="#63b8ff" d="M1084.92,-65.62C1096.57,-57.96 1113.84,-46.61 1128.92,-36.69"/>
<polygon fill="#63b8ff" stroke="#63b8ff" points="1130.74,-39.69 1137.17,-31.27 1126.89,-33.84 1130.74,-39.69"/>
</g>
<!-- Node16 -->
<g id="node16" class="node">
<title>Node16</title>
<g id="a_node16"><a xlink:title=" ">
<polygon fill="#e0e0e0" stroke="#999999" points="1363.9,-30 1232.9,-30 1232.9,0 1363.9,0 1363.9,-30"/>
<text text-anchor="start" x="1240.9" y="-18" font-family="Helvetica,sans-Serif" font-size="10.00">boost/log/sources/severity</text>
<text text-anchor="middle" x="1298.4" y="-7" font-family="Helvetica,sans-Serif" font-size="10.00">_channel_logger.hpp</text>
</a>
</g>
</g>
<!-- Node11&#45;&gt;Node16 -->
<g id="edge16" class="edge">
<title>Node11&#45;&gt;Node16</title>
<path fill="none" stroke="#63b8ff" d="M1105.88,-65.62C1139.06,-57.07 1190.11,-43.91 1231.31,-33.29"/>
<polygon fill="#63b8ff" stroke="#63b8ff" points="1232.1,-36.7 1240.91,-30.82 1230.35,-29.92 1232.1,-36.7"/>
</g>
<!-- Node17 -->
<g id="node17" class="node">
<title>Node17</title>
<g id="a_node17"><a xlink:title=" ">
<polygon fill="#e0e0e0" stroke="#999999" points="1494.9,-30 1381.9,-30 1381.9,0 1494.9,0 1494.9,-30"/>
<text text-anchor="start" x="1389.9" y="-18" font-family="Helvetica,sans-Serif" font-size="10.00">boost/log/support/date</text>
<text text-anchor="middle" x="1438.4" y="-7" font-family="Helvetica,sans-Serif" font-size="10.00">_time.hpp</text>
</a>
</g>
</g>
<!-- Node11&#45;&gt;Node17 -->
<g id="edge17" class="edge">
<title>Node11&#45;&gt;Node17</title>
<path fill="none" stroke="#63b8ff" d="M1106.4,-70.1C1160.82,-63.11 1269.22,-48.5 1370.67,-30.43"/>
<polygon fill="#63b8ff" stroke="#63b8ff" points="1371.02,-33.92 1380.24,-28.71 1369.78,-27.03 1371.02,-33.92"/>
</g>
<!-- Node18 -->
<g id="node18" class="node">
<title>Node18</title>
<g id="a_node18"><a xlink:title=" ">
<polygon fill="#e0e0e0" stroke="#999999" points="1633.9,-30 1512.9,-30 1512.9,0 1633.9,0 1633.9,-30"/>
<text text-anchor="start" x="1520.9" y="-18" font-family="Helvetica,sans-Serif" font-size="10.00">boost/log/utility/setup</text>
<text text-anchor="middle" x="1573.4" y="-7" font-family="Helvetica,sans-Serif" font-size="10.00">/common_attributes.hpp</text>
</a>
</g>
</g>
<!-- Node11&#45;&gt;Node18 -->
<g id="edge18" class="edge">
<title>Node11&#45;&gt;Node18</title>
<path fill="none" stroke="#63b8ff" d="M1106.35,-72.07C1178.42,-66.82 1348.99,-53.1 1501.56,-30.35"/>
<polygon fill="#63b8ff" stroke="#63b8ff" points="1501.65,-33.87 1511.01,-28.92 1500.6,-26.95 1501.65,-33.87"/>
</g>
<!-- Node19&#45;&gt;Node11 -->
<g id="edge30" class="edge">
<title>Node19&#45;&gt;Node11</title>
<path fill="none" stroke="#63b8ff" d="M971.76,-236.41C988.04,-210.28 1037.26,-131.29 1059.85,-95.04"/>
<polygon fill="#63b8ff" stroke="#63b8ff" points="1062.82,-96.9 1065.14,-86.56 1056.88,-93.19 1062.82,-96.9"/>
</g>
<!-- Node20 -->
<g id="node20" class="node">
<title>Node20</title>
<g id="a_node20"><a xlink:href="_dma_buffer_abstract_8hpp.html" target="_top" xlink:title=" ">
<polygon fill="white" stroke="#666666" points="868.9,-195 751.9,-195 751.9,-176 868.9,-176 868.9,-195"/>
<text text-anchor="middle" x="810.4" y="-183" font-family="Helvetica,sans-Serif" font-size="10.00">DmaBufferAbstract.hpp</text>
</a>
</g>
</g>
<!-- Node19&#45;&gt;Node20 -->
<g id="edge20" class="edge">
<title>Node19&#45;&gt;Node20</title>
<path fill="none" stroke="#63b8ff" d="M942.71,-236.12C916.71,-226.37 874.73,-210.62 845.04,-199.49"/>
<polygon fill="#63b8ff" stroke="#63b8ff" points="846.33,-196.23 835.74,-196 843.87,-202.79 846.33,-196.23"/>
</g>
<!-- Node20&#45;&gt;Node5 -->
<g id="edge21" class="edge">
<title>Node20&#45;&gt;Node5</title>
<path fill="none" stroke="#63b8ff" d="M771.05,-175.51C726.62,-165.36 655.03,-149.01 612.77,-139.35"/>
<polygon fill="#63b8ff" stroke="#63b8ff" points="613.68,-135.97 603.15,-137.15 612.12,-142.79 613.68,-135.97"/>
</g>
<!-- Node20&#45;&gt;Node8 -->
<g id="edge22" class="edge">
<title>Node20&#45;&gt;Node8</title>
<path fill="none" stroke="#63b8ff" d="M796.66,-175.51C784.61,-167.62 766.82,-155.98 752.56,-146.65"/>
<polygon fill="#63b8ff" stroke="#63b8ff" points="754.49,-143.73 744.21,-141.19 750.66,-149.59 754.49,-143.73"/>
</g>
<!-- Node20&#45;&gt;Node10 -->
<g id="edge23" class="edge">
<title>Node20&#45;&gt;Node10</title>
<path fill="none" stroke="#63b8ff" d="M817.61,-175.66C832.04,-157.94 864.78,-117.77 883.86,-94.35"/>
<polygon fill="#63b8ff" stroke="#63b8ff" points="886.54,-96.6 890.15,-86.63 881.12,-92.18 886.54,-96.6"/>
</g>
<!-- Node21 -->
<g id="node21" class="node">
<title>Node21</title>
<g id="a_node21"><a xlink:href="_uio_config_8hpp.html" target="_top" xlink:title=" ">
<polygon fill="white" stroke="#666666" points="772.9,-85 661.9,-85 661.9,-66 772.9,-66 772.9,-85"/>
<text text-anchor="middle" x="717.4" y="-73" font-family="Helvetica,sans-Serif" font-size="10.00">udmaio/UioConfig.hpp</text>
</a>
</g>
</g>
<!-- Node20&#45;&gt;Node21 -->
<g id="edge24" class="edge">
<title>Node20&#45;&gt;Node21</title>
<path fill="none" stroke="#63b8ff" d="M803.88,-175.65C794.59,-163.17 776.83,-139.82 760.4,-121 752.21,-111.61 742.61,-101.59 734.56,-93.44"/>
<polygon fill="#63b8ff" stroke="#63b8ff" points="737.19,-91.12 727.65,-86.52 732.24,-96.07 737.19,-91.12"/>
</g>
<!-- Node21&#45;&gt;Node7 -->
<g id="edge28" class="edge">
<title>Node21&#45;&gt;Node7</title>
<path fill="none" stroke="#63b8ff" d="M730.16,-65.62C743.24,-56.51 763.82,-42.18 779.5,-31.25"/>
<polygon fill="#63b8ff" stroke="#63b8ff" points="781.08,-34.42 787.28,-25.83 777.08,-28.68 781.08,-34.42"/>
</g>
<!-- Node22 -->
<g id="node22" class="node">
<title>Node22</title>
<g id="a_node22"><a xlink:title=" ">
<polygon fill="#e0e0e0" stroke="#999999" points="601.4,-24.5 547.4,-24.5 547.4,-5.5 601.4,-5.5 601.4,-24.5"/>
<text text-anchor="middle" x="574.4" y="-12.5" font-family="Helvetica,sans-Serif" font-size="10.00">iostream</text>
</a>
</g>
</g>
<!-- Node21&#45;&gt;Node22 -->
<g id="edge25" class="edge">
<title>Node21&#45;&gt;Node22</title>
<path fill="none" stroke="#63b8ff" d="M695.69,-65.62C672.06,-55.95 634.05,-40.4 606.88,-29.28"/>
<polygon fill="#63b8ff" stroke="#63b8ff" points="608.31,-26.09 597.73,-25.54 605.66,-32.57 608.31,-26.09"/>
</g>
<!-- Node23 -->
<g id="node23" class="node">
<title>Node23</title>
<g id="a_node23"><a xlink:title=" ">
<polygon fill="#e0e0e0" stroke="#999999" points="273.9,-24.5 222.9,-24.5 222.9,-5.5 273.9,-5.5 273.9,-24.5"/>
<text text-anchor="middle" x="248.4" y="-12.5" font-family="Helvetica,sans-Serif" font-size="10.00">memory</text>
</a>
</g>
</g>
<!-- Node21&#45;&gt;Node23 -->
<g id="edge26" class="edge">
<title>Node21&#45;&gt;Node23</title>
<path fill="none" stroke="#63b8ff" d="M661.76,-67.56C564.86,-55.47 367.64,-30.87 285.55,-20.63"/>
<polygon fill="#63b8ff" stroke="#63b8ff" points="286.16,-17.18 275.8,-19.42 285.29,-24.13 286.16,-17.18"/>
</g>
<!-- Node24 -->
<g id="node24" class="node">
<title>Node24</title>
<g id="a_node24"><a xlink:title=" ">
<polygon fill="#e0e0e0" stroke="#999999" points="762.9,-24.5 703.9,-24.5 703.9,-5.5 762.9,-5.5 762.9,-24.5"/>
<text text-anchor="middle" x="733.4" y="-12.5" font-family="Helvetica,sans-Serif" font-size="10.00">stdexcept</text>
</a>
</g>
</g>
<!-- Node21&#45;&gt;Node24 -->
<g id="edge27" class="edge">
<title>Node21&#45;&gt;Node24</title>
<path fill="none" stroke="#63b8ff" d="M719.77,-65.87C721.94,-57.92 725.24,-45.83 728.06,-35.55"/>
<polygon fill="#63b8ff" stroke="#63b8ff" points="731.37,-36.7 730.63,-26.13 724.62,-34.85 731.37,-36.7"/>
</g>
<!-- Node25 -->
<g id="node25" class="node">
<title>Node25</title>
<g id="a_node25"><a xlink:title=" ">
<polygon fill="#e0e0e0" stroke="#999999" points="685.4,-24.5 619.4,-24.5 619.4,-5.5 685.4,-5.5 685.4,-24.5"/>
<text text-anchor="middle" x="652.4" y="-12.5" font-family="Helvetica,sans-Serif" font-size="10.00">string_view</text>
</a>
</g>
</g>
<!-- Node21&#45;&gt;Node25 -->
<g id="edge29" class="edge">
<title>Node21&#45;&gt;Node25</title>
<path fill="none" stroke="#63b8ff" d="M707.53,-65.62C697.8,-56.85 682.68,-43.25 670.74,-32.5"/>
<polygon fill="#63b8ff" stroke="#63b8ff" points="673.27,-30.07 663.49,-25.98 668.59,-35.27 673.27,-30.07"/>
</g>
<!-- Node27 -->
<g id="node27" class="node">
<title>Node27</title>
<g id="a_node27"><a xlink:href="_axi_dma_8hpp.html" target="_top" xlink:title=" ">
<polygon fill="white" stroke="#666666" points="453.4,-195 385.4,-195 385.4,-176 453.4,-176 453.4,-195"/>
<text text-anchor="middle" x="419.4" y="-183" font-family="Helvetica,sans-Serif" font-size="10.00">AxiDma.hpp</text>
</a>
</g>
</g>
<!-- Node26&#45;&gt;Node27 -->
<g id="edge32" class="edge">
<title>Node26&#45;&gt;Node27</title>
<path fill="none" stroke="#63b8ff" d="M398.09,-236.37C401.53,-228.33 406.77,-216.07 411.19,-205.72"/>
<polygon fill="#63b8ff" stroke="#63b8ff" points="414.39,-207.13 415.11,-196.56 407.96,-204.38 414.39,-207.13"/>
</g>
<!-- Node28 -->
<g id="node28" class="node">
<title>Node28</title>
<g id="a_node28"><a xlink:href="_reg_accessor_8hpp.html" target="_top" xlink:title=" ">
<polygon fill="white" stroke="#666666" points="564.9,-195 471.9,-195 471.9,-176 564.9,-176 564.9,-195"/>
<text text-anchor="middle" x="518.4" y="-183" font-family="Helvetica,sans-Serif" font-size="10.00">RegAccessor.hpp</text>
</a>
</g>
</g>
<!-- Node26&#45;&gt;Node28 -->
<g id="edge34" class="edge">
<title>Node26&#45;&gt;Node28</title>
<path fill="none" stroke="#63b8ff" d="M413.24,-236.12C433.36,-226.62 465.52,-211.45 488.98,-200.38"/>
<polygon fill="#63b8ff" stroke="#63b8ff" points="490.47,-203.55 498.03,-196.11 487.49,-197.22 490.47,-203.55"/>
</g>
<!-- Node29 -->
<g id="node29" class="node">
<title>Node29</title>
<g id="a_node29"><a xlink:href="_uio_if_8hpp.html" target="_top" xlink:title=" ">
<polygon fill="white" stroke="#666666" points="475.4,-140 385.4,-140 385.4,-121 475.4,-121 475.4,-140"/>
<text text-anchor="middle" x="430.4" y="-128" font-family="Helvetica,sans-Serif" font-size="10.00">udmaio/UioIf.hpp</text>
</a>
</g>
</g>
<!-- Node26&#45;&gt;Node29 -->
<g id="edge51" class="edge">
<title>Node26&#45;&gt;Node29</title>
<path fill="none" stroke="#63b8ff" d="M388.35,-236.15C379.94,-222.66 366.79,-196.38 376.4,-176 382.16,-163.8 393.08,-153.82 403.6,-146.42"/>
<polygon fill="#63b8ff" stroke="#63b8ff" points="405.21,-149.54 411.72,-141.18 401.42,-143.66 405.21,-149.54"/>
</g>
<!-- Node27&#45;&gt;Node5 -->
<g id="edge33" class="edge">
<title>Node27&#45;&gt;Node5</title>
<path fill="none" stroke="#63b8ff" d="M446.38,-175.51C473.4,-166.5 515.09,-152.61 544.37,-142.84"/>
<polygon fill="#63b8ff" stroke="#63b8ff" points="545.12,-146.29 553.5,-139.8 542.9,-139.64 545.12,-146.29"/>
</g>
<!-- Node28&#45;&gt;Node5 -->
<g id="edge35" class="edge">
<title>Node28&#45;&gt;Node5</title>
<path fill="none" stroke="#63b8ff" d="M528.58,-175.51C537.17,-167.93 549.67,-156.88 560.01,-147.75"/>
<polygon fill="#63b8ff" stroke="#63b8ff" points="562.06,-150.6 567.24,-141.36 557.43,-145.36 562.06,-150.6"/>
</g>
<!-- Node28&#45;&gt;Node29 -->
<g id="edge36" class="edge">
<title>Node28&#45;&gt;Node29</title>
<path fill="none" stroke="#63b8ff" d="M503.48,-175.51C490.12,-167.47 470.3,-155.53 454.67,-146.11"/>
<polygon fill="#63b8ff" stroke="#63b8ff" points="456.78,-143.3 446.41,-141.14 453.17,-149.3 456.78,-143.3"/>
</g>
<!-- Node29&#45;&gt;Node7 -->
<g id="edge41" class="edge">
<title>Node29&#45;&gt;Node7</title>
<path fill="none" stroke="#63b8ff" d="M475.7,-125.12C568.16,-115.98 770.93,-94.94 782.4,-85 796.34,-72.93 800.5,-51.68 801.54,-35.94"/>
<polygon fill="#63b8ff" stroke="#63b8ff" points="805.03,-36.38 801.79,-26.29 798.03,-36.2 805.03,-36.38"/>
</g>
<!-- Node29&#45;&gt;Node10 -->
<g id="edge43" class="edge">
<title>Node29&#45;&gt;Node10</title>
<path fill="none" stroke="#63b8ff" d="M475.7,-124.37C554.92,-115.4 719.57,-96.75 818.37,-85.56"/>
<polygon fill="#63b8ff" stroke="#63b8ff" points="818.74,-89.04 828.28,-84.44 817.95,-82.09 818.74,-89.04"/>
</g>
<!-- Node29&#45;&gt;Node11 -->
<g id="edge49" class="edge">
<title>Node29&#45;&gt;Node11</title>
<path fill="none" stroke="#63b8ff" d="M475.72,-125.93C569.29,-118.53 790.67,-100.88 976.4,-85 992.31,-83.64 1009.71,-82.1 1025.23,-80.71"/>
<polygon fill="#63b8ff" stroke="#63b8ff" points="1025.51,-84.19 1035.16,-79.81 1024.89,-77.22 1025.51,-84.19"/>
</g>
<!-- Node29&#45;&gt;Node21 -->
<g id="edge50" class="edge">
<title>Node29&#45;&gt;Node21</title>
<path fill="none" stroke="#63b8ff" d="M475.88,-121.1C525.02,-112.03 603.53,-97.53 657.63,-87.54"/>
<polygon fill="#63b8ff" stroke="#63b8ff" points="658.1,-91.01 667.3,-85.75 656.83,-84.13 658.1,-91.01"/>
</g>
<!-- Node29&#45;&gt;Node22 -->
<g id="edge39" class="edge">
<title>Node29&#45;&gt;Node22</title>
<path fill="none" stroke="#63b8ff" d="M475.5,-124.92C524.3,-118.93 597.43,-106.57 614.4,-85 627.55,-68.29 610.54,-46.8 594.81,-32.28"/>
<polygon fill="#63b8ff" stroke="#63b8ff" points="597.4,-29.89 587.55,-25.99 592.82,-35.18 597.4,-29.89"/>
</g>
<!-- Node29&#45;&gt;Node23 -->
<g id="edge40" class="edge">
<title>Node29&#45;&gt;Node23</title>
<path fill="none" stroke="#63b8ff" d="M385.25,-128.05C282.09,-124.26 36.08,-112.43 11.4,-85 -46.02,-21.15 131.68,-14.98 211.59,-15.31"/>
<polygon fill="#63b8ff" stroke="#63b8ff" points="211.09,-18.81 221.12,-15.39 211.14,-11.81 211.09,-18.81"/>
</g>
<!-- Node30 -->
<g id="node30" class="node">
<title>Node30</title>
<g id="a_node30"><a xlink:title=" ">
<polygon fill="#e0e0e0" stroke="#999999" points="605.4,-85 545.4,-85 545.4,-66 605.4,-66 605.4,-85"/>
<text text-anchor="middle" x="575.4" y="-73" font-family="Helvetica,sans-Serif" font-size="10.00">filesystem</text>
</a>
</g>
</g>
<!-- Node29&#45;&gt;Node30 -->
<g id="edge37" class="edge">
<title>Node29&#45;&gt;Node30</title>
<path fill="none" stroke="#63b8ff" d="M455,-120.51C478.47,-111.93 514.07,-98.92 540.48,-89.27"/>
<polygon fill="#63b8ff" stroke="#63b8ff" points="541.56,-92.6 549.75,-85.88 539.16,-86.02 541.56,-92.6"/>
</g>
<!-- Node31 -->
<g id="node31" class="node">
<title>Node31</title>
<g id="a_node31"><a xlink:title=" ">
<polygon fill="#e0e0e0" stroke="#999999" points="70.4,-85 20.4,-85 20.4,-66 70.4,-66 70.4,-85"/>
<text text-anchor="middle" x="45.4" y="-73" font-family="Helvetica,sans-Serif" font-size="10.00">fstream</text>
</a>
</g>
</g>
<!-- Node29&#45;&gt;Node31 -->
<g id="edge38" class="edge">
<title>Node29&#45;&gt;Node31</title>
<path fill="none" stroke="#63b8ff" d="M384.98,-125.48C319.91,-119.35 196.26,-106.28 81.64,-85.21"/>
<polygon fill="#63b8ff" stroke="#63b8ff" points="82.54,-81.82 72.07,-83.43 81.26,-88.7 82.54,-81.82"/>
</g>
<!-- Node32 -->
<g id="node32" class="node">
<title>Node32</title>
<g id="a_node32"><a xlink:title=" ">
<polygon fill="#e0e0e0" stroke="#999999" points="150.4,-85 88.4,-85 88.4,-66 150.4,-66 150.4,-85"/>
<text text-anchor="middle" x="119.4" y="-73" font-family="Helvetica,sans-Serif" font-size="10.00">type_traits</text>
</a>
</g>
</g>
<!-- Node29&#45;&gt;Node32 -->
<g id="edge42" class="edge">
<title>Node29&#45;&gt;Node32</title>
<path fill="none" stroke="#63b8ff" d="M385.22,-122.74C333.59,-114.87 246.31,-101.12 161.9,-85.4"/>
<polygon fill="#63b8ff" stroke="#63b8ff" points="162.78,-82 152.31,-83.6 161.49,-88.88 162.78,-82"/>
</g>
<!-- Node33 -->
<g id="node33" class="node">
<title>Node33</title>
<g id="a_node33"><a xlink:title=" ">
<polygon fill="#e0e0e0" stroke="#999999" points="211.9,-85 168.9,-85 168.9,-66 211.9,-66 211.9,-85"/>
<text text-anchor="middle" x="190.4" y="-73" font-family="Helvetica,sans-Serif" font-size="10.00">fcntl.h</text>
</a>
</g>
</g>
<!-- Node29&#45;&gt;Node33 -->
<g id="edge44" class="edge">
<title>Node29&#45;&gt;Node33</title>
<path fill="none" stroke="#63b8ff" d="M385.14,-120.82C344.89,-112.9 284.2,-100.47 223.29,-85.6"/>
<polygon fill="#63b8ff" stroke="#63b8ff" points="224.33,-82.25 213.78,-83.25 222.66,-89.05 224.33,-82.25"/>
</g>
<!-- Node34 -->
<g id="node34" class="node">
<title>Node34</title>
<g id="a_node34"><a xlink:title=" ">
<polygon fill="#e0e0e0" stroke="#999999" points="298.9,-85 229.9,-85 229.9,-66 298.9,-66 298.9,-85"/>
<text text-anchor="middle" x="264.4" y="-73" font-family="Helvetica,sans-Serif" font-size="10.00">sys/mman.h</text>
</a>
</g>
</g>
<!-- Node29&#45;&gt;Node34 -->
<g id="edge45" class="edge">
<title>Node29&#45;&gt;Node34</title>
<path fill="none" stroke="#63b8ff" d="M402.24,-120.51C374.98,-111.8 333.41,-98.53 303.05,-88.84"/>
<polygon fill="#63b8ff" stroke="#63b8ff" points="304.46,-85.61 293.87,-85.91 302.33,-92.28 304.46,-85.61"/>
</g>
<!-- Node35 -->
<g id="node35" class="node">
<title>Node35</title>
<g id="a_node35"><a xlink:title=" ">
<polygon fill="#e0e0e0" stroke="#999999" points="375.9,-85 316.9,-85 316.9,-66 375.9,-66 375.9,-85"/>
<text text-anchor="middle" x="346.4" y="-73" font-family="Helvetica,sans-Serif" font-size="10.00">sys/stat.h</text>
</a>
</g>
</g>
<!-- Node29&#45;&gt;Node35 -->
<g id="edge46" class="edge">
<title>Node29&#45;&gt;Node35</title>
<path fill="none" stroke="#63b8ff" d="M416.16,-120.51C403.53,-112.54 384.85,-100.75 369.99,-91.38"/>
<polygon fill="#63b8ff" stroke="#63b8ff" points="372.05,-88.54 361.72,-86.17 368.31,-94.46 372.05,-88.54"/>
</g>
<!-- Node36 -->
<g id="node36" class="node">
<title>Node36</title>
<g id="a_node36"><a xlink:title=" ">
<polygon fill="#e0e0e0" stroke="#999999" points="458.9,-85 393.9,-85 393.9,-66 458.9,-66 458.9,-85"/>
<text text-anchor="middle" x="426.4" y="-73" font-family="Helvetica,sans-Serif" font-size="10.00">sys/types.h</text>
</a>
</g>
</g>
<!-- Node29&#45;&gt;Node36 -->
<g id="edge47" class="edge">
<title>Node29&#45;&gt;Node36</title>
<path fill="none" stroke="#63b8ff" d="M429.74,-120.75C429.25,-114.27 428.57,-105.16 427.94,-96.9"/>
<polygon fill="#63b8ff" stroke="#63b8ff" points="431.44,-96.66 427.19,-86.95 424.46,-97.19 431.44,-96.66"/>
</g>
<!-- Node37 -->
<g id="node37" class="node">
<title>Node37</title>
<g id="a_node37"><a xlink:title=" ">
<polygon fill="#e0e0e0" stroke="#999999" points="527.4,-85 477.4,-85 477.4,-66 527.4,-66 527.4,-85"/>
<text text-anchor="middle" x="502.4" y="-73" font-family="Helvetica,sans-Serif" font-size="10.00">unistd.h</text>
</a>
</g>
</g>
<!-- Node29&#45;&gt;Node37 -->
<g id="edge48" class="edge">
<title>Node29&#45;&gt;Node37</title>
<path fill="none" stroke="#63b8ff" d="M442.62,-120.51C453.23,-112.7 468.84,-101.21 481.45,-91.93"/>
<polygon fill="#63b8ff" stroke="#63b8ff" points="483.17,-95 489.15,-86.26 479.02,-89.36 483.17,-95"/>
</g>
<!-- Node38&#45;&gt;Node20 -->
<g id="edge53" class="edge">
<title>Node38&#45;&gt;Node20</title>
<path fill="none" stroke="#63b8ff" d="M669.62,-236.12C697.53,-226.28 742.74,-210.34 774.38,-199.19"/>
<polygon fill="#63b8ff" stroke="#63b8ff" points="775.26,-202.6 783.53,-195.97 772.93,-195.99 775.26,-202.6"/>
</g>
<!-- Node38&#45;&gt;Node28 -->
<g id="edge54" class="edge">
<title>Node38&#45;&gt;Node28</title>
<path fill="none" stroke="#63b8ff" d="M625.27,-236.12C604.73,-226.58 571.85,-211.31 547.98,-200.23"/>
<polygon fill="#63b8ff" stroke="#63b8ff" points="549.64,-197.14 539.09,-196.11 546.69,-203.49 549.64,-197.14"/>
</g>
</g>
</svg>
        <g id="navigator" transform="translate(0 0)" fill="#404254">
                <rect fill="#f2f5e9" fill-opacity="0.5" stroke="#606060" stroke-width=".5" x="0" y="0" width="60" height="60"/>
                <use id="zoomplus" xlink:href="#zoomPlus" x="17" y="9" onmousedown="handleZoom(evt,'in')"/>
                <use id="zoomminus" xlink:href="#zoomMin" x="42" y="9" onmousedown="handleZoom(evt,'out')"/>
                <use id="reset" xlink:href="#resetDef" x="30" y="36" onmousedown="handleReset()"/>
                <g id="arrowUp" xlink:href="#dirArrow" transform="translate(30 24)" onmousedown="handlePan(0,-1)">
                  <use xlink:href="#rim" fill="#404040">
                        <set attributeName="fill" to="#808080" begin="arrowUp.mouseover" end="arrowUp.mouseout"/>
                  </use>
                  <path fill="none" stroke="white" stroke-width="1.5" d="M0,-3.0v7 M-2.5,-0.5L0,-3.0L2.5,-0.5"/>
                </g>
                <g id="arrowRight" xlink:href="#dirArrow" transform="rotate(90) translate(36 -43)" onmousedown="handlePan(1,0)">
                  <use xlink:href="#rim" fill="#404040">
                        <set attributeName="fill" to="#808080" begin="arrowRight.mouseover" end="arrowRight.mouseout"/>
                  </use>
                  <path fill="none" stroke="white" stroke-width="1.5" d="M0,-3.0v7 M-2.5,-0.5L0,-3.0L2.5,-0.5"/>
                </g>
                <g id="arrowDown" xlink:href="#dirArrow" transform="rotate(180) translate(-30 -48)" onmousedown="handlePan(0,1)">
                  <use xlink:href="#rim" fill="#404040">
                        <set attributeName="fill" to="#808080" begin="arrowDown.mouseover" end="arrowDown.mouseout"/>
                  </use>
                  <path fill="none" stroke="white" stroke-width="1.5" d="M0,-3.0v7 M-2.5,-0.5L0,-3.0L2.5,-0.5"/>
                </g>
                <g id="arrowLeft" xlink:href="#dirArrow" transform="rotate(270) translate(-36 17)" onmousedown="handlePan(-1,0)">
                  <use xlink:href="#rim" fill="#404040">
                        <set attributeName="fill" to="#808080" begin="arrowLeft.mouseover" end="arrowLeft.mouseout"/>
                  </use>
                  <path fill="none" stroke="white" stroke-width="1.5" d="M0,-3.0v7 M-2.5,-0.5L0,-3.0L2.5,-0.5"/>
                </g>
        </g>
        <svg viewBox="0 0 15 15" width="100%" height="30px" preserveAspectRatio="xMaxYMin meet">
         <g id="arrow_out" transform="scale(0.3 0.3)">
          <a xlink:href="_data_handler_print_8hpp__incl_org.svg" target="_base">
           <rect id="button" ry="5" rx="5" y="6" x="6" height="38" width="38"
                fill="#f2f5e9" fill-opacity="0.5" stroke="#606060" stroke-width="1.0"/>
           <path id="arrow"
             d="M 11.500037,31.436501 C 11.940474,20.09759 22.043105,11.32322 32.158766,21.979434 L 37.068811,17.246167 C 37.068811,17.246167 37.088388,32 37.088388,32 L 22.160133,31.978069 C 22.160133,31.978069 26.997745,27.140456 26.997745,27.140456 C 18.528582,18.264221 13.291696,25.230495 11.500037,31.436501 z"
             style="fill:#404040;"/>
          </a>
         </g>
        </svg>
</svg>
