<?xml version="1.0" encoding="UTF-8" standalone="no"?>
<!DOCTYPE svg PUBLIC "-//W3C//DTD SVG 1.1//EN"
 "http://www.w3.org/Graphics/SVG/1.1/DTD/svg11.dtd">
<!-- Generated by graphviz version 7.0.5 (20221223.1930)
 -->
<!-- Title: DataHandlerAbstract.hpp Pages: 1 -->
<!--zoomable 379 -->
<svg id="main" version="1.1" xmlns="http://www.w3.org/2000/svg" xmlns:xlink="http://www.w3.org/1999/xlink" xml:space="preserve" onload="init(evt)">
<style type="text/css"><![CDATA[
.edge:hover path { stroke: red; }
.edge:hover polygon { stroke: red; fill: red; }
]]></style>
<script type="text/javascript"><![CDATA[
var edges = document.getElementsByTagName('g');
if (edges && edges.length) {
  for (var i=0;i<edges.length;i++) {
    if (edges[i].id.substr(0,4)=='edge') {
      edges[i].setAttribute('class','edge');
    }
  }
}
]]></script>
        <defs>
                <circle id="rim" cx="0" cy="0" r="7"/>
                <circle id="rim2" cx="0" cy="0" r="3.5"/>
                <g id="zoomPlus">
                        <use xlink:href="#rim" fill="#404040">
                                <set attributeName="fill" to="#808080" begin="zoomplus.mouseover" end="zoomplus.mouseout"/>
                        </use>
                        <path d="M-4,0h8M0,-4v8" fill="none" stroke="white" stroke-width="1.5" pointer-events="none"/>
                </g>
                <g id="zoomMin">
                        <use xlink:href="#rim" fill="#404040">
                                <set attributeName="fill" to="#808080" begin="zoomminus.mouseover" end="zoomminus.mouseout"/>
                        </use>
                        <path d="M-4,0h8" fill="none" stroke="white" stroke-width="1.5" pointer-events="none"/>
                </g>
                <g id="dirArrow">
                        <path fill="none" stroke="white" stroke-width="1.5" d="M0,-3.0v7 M-2.5,-0.5L0,-3.0L2.5,-0.5"/>
                </g>
               <g id="resetDef">
                       <use xlink:href="#rim2" fill="#404040">
                               <set attributeName="fill" to="#808080" begin="reset.mouseover" end="reset.mouseout"/>
                       </use>
               </g>
        </defs>

<script type="text/javascript">
var viewWidth = 1762;
var viewHeight = 379;
var sectionId = 'dynsection-0';
</script>
<script xlink:href="svgpan.js"/>
<svg id="graph" class="graph">
<g id="viewport">
<title>DataHandlerAbstract.hpp</title>
<!-- Node1 -->
<g id="node1" class="node">
<title>Node1</title>
<g id="a_node1"><a xlink:title=" ">
<polygon fill="#999999" stroke="#666666" points="856,-371 731,-371 731,-352 856,-352 856,-371"/>
<text text-anchor="middle" x="793.5" y="-359" font-family="Helvetica,sans-Serif" font-size="10.00">DataHandlerAbstract.hpp</text>
</a>
</g>
</g>
<!-- Node2 -->
<g id="node2" class="node">
<title>Node2</title>
<g id="a_node2"><a xlink:title=" ">
<polygon fill="#e0e0e0" stroke="#999999" points="968,-24.5 927,-24.5 927,-5.5 968,-5.5 968,-24.5"/>
<text text-anchor="middle" x="947.5" y="-12.5" font-family="Helvetica,sans-Serif" font-size="10.00">string</text>
</a>
</g>
</g>
<!-- Node1&#45;&gt;Node2 -->
<g id="edge1" class="edge">
<title>Node1&#45;&gt;Node2</title>
<path fill="none" stroke="#63b8ff" d="M737.01,-351.57C697.83,-344.08 650.59,-332.04 638.5,-316 613.71,-283.09 550.33,-199.17 697.5,-66 770.97,0.48 822.83,-59.22 917.5,-30 918.3,-29.75 919.11,-29.49 919.92,-29.21"/>
<polygon fill="#63b8ff" stroke="#63b8ff" points="921.01,-32.54 928.97,-25.54 918.39,-26.05 921.01,-32.54"/>
</g>
<!-- Node3 -->
<g id="node3" class="node">
<title>Node3</title>
<g id="a_node3"><a xlink:title=" ">
<polygon fill="#e0e0e0" stroke="#999999" points="890.5,-195 846.5,-195 846.5,-176 890.5,-176 890.5,-195"/>
<text text-anchor="middle" x="868.5" y="-183" font-family="Helvetica,sans-Serif" font-size="10.00">vector</text>
</a>
</g>
</g>
<!-- Node1&#45;&gt;Node3 -->
<g id="edge2" class="edge">
<title>Node1&#45;&gt;Node3</title>
<path fill="none" stroke="#63b8ff" d="M795,-351.55C797.55,-337.31 803.36,-308.8 812.5,-286 824.45,-256.19 843.7,-224.27 856.23,-204.84"/>
<polygon fill="#63b8ff" stroke="#63b8ff" points="859.01,-206.97 861.57,-196.69 853.16,-203.13 859.01,-206.97"/>
</g>
<!-- Node4 -->
<g id="node4" class="node">
<title>Node4</title>
<g id="a_node4"><a xlink:title=" ">
<polygon fill="#e0e0e0" stroke="#999999" points="727.5,-310.5 647.5,-310.5 647.5,-291.5 727.5,-291.5 727.5,-310.5"/>
<text text-anchor="middle" x="687.5" y="-298.5" font-family="Helvetica,sans-Serif" font-size="10.00">boost/asio.hpp</text>
</a>
</g>
</g>
<!-- Node1&#45;&gt;Node4 -->
<g id="edge3" class="edge">
<title>Node1&#45;&gt;Node4</title>
<path fill="none" stroke="#63b8ff" d="M777.4,-351.62C760.51,-342.29 733.7,-327.5 713.75,-316.49"/>
<polygon fill="#63b8ff" stroke="#63b8ff" points="715.52,-313.47 705.08,-311.7 712.14,-319.6 715.52,-313.47"/>
</g>
<!-- Node5 -->
<g id="node5" class="node">
<title>Node5</title>
<g id="a_node5"><a xlink:title=" ">
<polygon fill="#e0e0e0" stroke="#999999" points="844,-85 707,-85 707,-66 844,-66 844,-85"/>
<text text-anchor="middle" x="775.5" y="-73" font-family="Helvetica,sans-Serif" font-size="10.00">boost/core/noncopyable.hpp</text>
</a>
</g>
</g>
<!-- Node1&#45;&gt;Node5 -->
<g id="edge4" class="edge">
<title>Node1&#45;&gt;Node5</title>
<path fill="none" stroke="#63b8ff" d="M792.94,-351.69C790.46,-312.52 780.39,-153.59 776.79,-96.8"/>
<polygon fill="#63b8ff" stroke="#63b8ff" points="780.29,-96.76 776.17,-87 773.31,-97.2 780.29,-96.76"/>
</g>
<!-- Node6 -->
<g id="node6" class="node">
<title>Node6</title>
<g id="a_node6"><a xlink:href="_logging_8hpp.html" target="_top" xlink:title=" ">
<polygon fill="white" stroke="#666666" points="637,-85 568,-85 568,-66 637,-66 637,-85"/>
<text text-anchor="middle" x="602.5" y="-73" font-family="Helvetica,sans-Serif" font-size="10.00">Logging.hpp</text>
</a>
</g>
</g>
<!-- Node1&#45;&gt;Node6 -->
<g id="edge5" class="edge">
<title>Node1&#45;&gt;Node6</title>
<path fill="none" stroke="#63b8ff" d="M730.61,-352.34C683.31,-345 623.67,-332.78 605.5,-316 579.95,-292.4 581.5,-276.29 581.5,-241.5 581.5,-241.5 581.5,-241.5 581.5,-184.5 581.5,-153.2 590.1,-117.73 596.3,-96.24"/>
<polygon fill="#63b8ff" stroke="#63b8ff" points="599.61,-97.38 599.14,-86.8 592.91,-95.36 599.61,-97.38"/>
</g>
<!-- Node14 -->
<g id="node14" class="node">
<title>Node14</title>
<g id="a_node14"><a xlink:href="_u_dma_buf_8hpp.html" target="_top" xlink:title=" ">
<polygon fill="white" stroke="#666666" points="899,-310.5 822,-310.5 822,-291.5 899,-291.5 899,-310.5"/>
<text text-anchor="middle" x="860.5" y="-298.5" font-family="Helvetica,sans-Serif" font-size="10.00">UDmaBuf.hpp</text>
</a>
</g>
</g>
<!-- Node1&#45;&gt;Node14 -->
<g id="edge14" class="edge">
<title>Node1&#45;&gt;Node14</title>
<path fill="none" stroke="#63b8ff" d="M803.68,-351.62C813.71,-342.85 829.29,-329.25 841.6,-318.5"/>
<polygon fill="#63b8ff" stroke="#63b8ff" points="843.86,-321.18 849.09,-311.96 839.25,-315.9 843.86,-321.18"/>
</g>
<!-- Node22 -->
<g id="node22" class="node">
<title>Node22</title>
<g id="a_node22"><a xlink:href="_uio_axi_dma_if_8hpp.html" target="_top" xlink:title=" ">
<polygon fill="white" stroke="#666666" points="1154,-310.5 1065,-310.5 1065,-291.5 1154,-291.5 1154,-310.5"/>
<text text-anchor="middle" x="1109.5" y="-298.5" font-family="Helvetica,sans-Serif" font-size="10.00">UioAxiDmaIf.hpp</text>
</a>
</g>
</g>
<!-- Node1&#45;&gt;Node22 -->
<g id="edge27" class="edge">
<title>Node1&#45;&gt;Node22</title>
<path fill="none" stroke="#63b8ff" d="M841.84,-351.55C898.85,-341 993.45,-323.48 1053.57,-312.35"/>
<polygon fill="#63b8ff" stroke="#63b8ff" points="1054.06,-315.82 1063.26,-310.56 1052.79,-308.94 1054.06,-315.82"/>
</g>
<!-- Node35 -->
<g id="node35" class="node">
<title>Node35</title>
<g id="a_node35"><a xlink:href="_uio_mem_sgdma_8hpp.html" target="_top" xlink:title=" ">
<polygon fill="white" stroke="#666666" points="1297.5,-310.5 1195.5,-310.5 1195.5,-291.5 1297.5,-291.5 1297.5,-310.5"/>
<text text-anchor="middle" x="1246.5" y="-298.5" font-family="Helvetica,sans-Serif" font-size="10.00">UioMemSgdma.hpp</text>
</a>
</g>
</g>
<!-- Node1&#45;&gt;Node35 -->
<g id="edge62" class="edge">
<title>Node1&#45;&gt;Node35</title>
<path fill="none" stroke="#63b8ff" d="M856.47,-353.85C930.19,-345.84 1055.92,-331.53 1163.5,-316 1170.25,-315.03 1177.3,-313.94 1184.32,-312.82"/>
<polygon fill="#63b8ff" stroke="#63b8ff" points="1184.84,-316.28 1194.15,-311.21 1183.72,-309.37 1184.84,-316.28"/>
</g>
<!-- Node37 -->
<g id="node37" class="node">
<title>Node37</title>
<g id="a_node37"><a xlink:title=" ">
<polygon fill="#e0e0e0" stroke="#999999" points="1435.5,-316 1315.5,-316 1315.5,-286 1435.5,-286 1435.5,-316"/>
<text text-anchor="start" x="1323.5" y="-304" font-family="Helvetica,sans-Serif" font-size="10.00">boost/asio/posix/stream</text>
<text text-anchor="middle" x="1375.5" y="-293" font-family="Helvetica,sans-Serif" font-size="10.00">_descriptor.hpp</text>
</a>
</g>
</g>
<!-- Node1&#45;&gt;Node37 -->
<g id="edge67" class="edge">
<title>Node1&#45;&gt;Node37</title>
<path fill="none" stroke="#63b8ff" d="M856.15,-357.37C950.93,-352.12 1136.63,-339.86 1304.1,-316.23"/>
<polygon fill="#63b8ff" stroke="#63b8ff" points="1304.46,-319.72 1313.86,-314.84 1303.47,-312.79 1304.46,-319.72"/>
</g>
<!-- Node6&#45;&gt;Node2 -->
<g id="edge6" class="edge">
<title>Node6&#45;&gt;Node2</title>
<path fill="none" stroke="#63b8ff" d="M637.32,-68.56C642.73,-67.67 648.26,-66.79 653.5,-66 770.58,-48.26 803.89,-63.42 917.5,-30 918.46,-29.72 919.44,-29.41 920.41,-29.07"/>
<polygon fill="#63b8ff" stroke="#63b8ff" points="921.35,-32.47 929.31,-25.48 918.73,-25.98 921.35,-32.47"/>
</g>
<!-- Node7 -->
<g id="node7" class="node">
<title>Node7</title>
<g id="a_node7"><a xlink:title=" ">
<polygon fill="#e0e0e0" stroke="#999999" points="515.5,-24.5 419.5,-24.5 419.5,-5.5 515.5,-5.5 515.5,-24.5"/>
<text text-anchor="middle" x="467.5" y="-12.5" font-family="Helvetica,sans-Serif" font-size="10.00">boost/log/core.hpp</text>
</a>
</g>
</g>
<!-- Node6&#45;&gt;Node7 -->
<g id="edge7" class="edge">
<title>Node6&#45;&gt;Node7</title>
<path fill="none" stroke="#63b8ff" d="M582,-65.62C559.79,-55.99 524.13,-40.54 498.5,-29.43"/>
<polygon fill="#63b8ff" stroke="#63b8ff" points="500.15,-26.33 489.59,-25.57 497.37,-32.76 500.15,-26.33"/>
</g>
<!-- Node8 -->
<g id="node8" class="node">
<title>Node8</title>
<g id="a_node8"><a xlink:title=" ">
<polygon fill="#e0e0e0" stroke="#999999" points="663,-24.5 534,-24.5 534,-5.5 663,-5.5 663,-24.5"/>
<text text-anchor="middle" x="598.5" y="-12.5" font-family="Helvetica,sans-Serif" font-size="10.00">boost/log/expressions.hpp</text>
</a>
</g>
</g>
<!-- Node6&#45;&gt;Node8 -->
<g id="edge8" class="edge">
<title>Node6&#45;&gt;Node8</title>
<path fill="none" stroke="#63b8ff" d="M601.91,-65.87C601.37,-58 600.56,-46.1 599.86,-35.89"/>
<polygon fill="#63b8ff" stroke="#63b8ff" points="603.37,-35.92 599.2,-26.18 596.39,-36.39 603.37,-35.92"/>
</g>
<!-- Node9 -->
<g id="node9" class="node">
<title>Node9</title>
<g id="a_node9"><a xlink:title=" ">
<polygon fill="#e0e0e0" stroke="#999999" points="782,-24.5 681,-24.5 681,-5.5 782,-5.5 782,-24.5"/>
<text text-anchor="middle" x="731.5" y="-12.5" font-family="Helvetica,sans-Serif" font-size="10.00">boost/log/trivial.hpp</text>
</a>
</g>
</g>
<!-- Node6&#45;&gt;Node9 -->
<g id="edge9" class="edge">
<title>Node6&#45;&gt;Node9</title>
<path fill="none" stroke="#63b8ff" d="M622.09,-65.62C643.21,-56.04 677.09,-40.68 701.55,-29.58"/>
<polygon fill="#63b8ff" stroke="#63b8ff" points="702.68,-32.91 710.34,-25.59 699.79,-26.54 702.68,-32.91"/>
</g>
<!-- Node10 -->
<g id="node10" class="node">
<title>Node10</title>
<g id="a_node10"><a xlink:title=" ">
<polygon fill="#e0e0e0" stroke="#999999" points="909,-30 800,-30 800,0 909,0 909,-30"/>
<text text-anchor="start" x="808" y="-18" font-family="Helvetica,sans-Serif" font-size="10.00">boost/log/utility/setup</text>
<text text-anchor="middle" x="854.5" y="-7" font-family="Helvetica,sans-Serif" font-size="10.00">/console.hpp</text>
</a>
</g>
</g>
<!-- Node6&#45;&gt;Node10 -->
<g id="edge10" class="edge">
<title>Node6&#45;&gt;Node10</title>
<path fill="none" stroke="#63b8ff" d="M637.27,-66.43C676.23,-57.38 740.26,-42.52 788.74,-31.27"/>
<polygon fill="#63b8ff" stroke="#63b8ff" points="789.34,-34.72 798.29,-29.05 787.76,-27.9 789.34,-34.72"/>
</g>
<!-- Node11 -->
<g id="node11" class="node">
<title>Node11</title>
<g id="a_node11"><a xlink:title=" ">
<polygon fill="#e0e0e0" stroke="#999999" points="131,-30 0,-30 0,0 131,0 131,-30"/>
<text text-anchor="start" x="8" y="-18" font-family="Helvetica,sans-Serif" font-size="10.00">boost/log/sources/severity</text>
<text text-anchor="middle" x="65.5" y="-7" font-family="Helvetica,sans-Serif" font-size="10.00">_channel_logger.hpp</text>
</a>
</g>
</g>
<!-- Node6&#45;&gt;Node11 -->
<g id="edge11" class="edge">
<title>Node6&#45;&gt;Node11</title>
<path fill="none" stroke="#63b8ff" d="M567.52,-72.23C491.86,-67.09 307.14,-53.29 142.53,-30.35"/>
<polygon fill="#63b8ff" stroke="#63b8ff" points="143.11,-26.9 132.71,-28.97 142.13,-33.83 143.11,-26.9"/>
</g>
<!-- Node12 -->
<g id="node12" class="node">
<title>Node12</title>
<g id="a_node12"><a xlink:title=" ">
<polygon fill="#e0e0e0" stroke="#999999" points="262,-30 149,-30 149,0 262,0 262,-30"/>
<text text-anchor="start" x="157" y="-18" font-family="Helvetica,sans-Serif" font-size="10.00">boost/log/support/date</text>
<text text-anchor="middle" x="205.5" y="-7" font-family="Helvetica,sans-Serif" font-size="10.00">_time.hpp</text>
</a>
</g>
</g>
<!-- Node6&#45;&gt;Node12 -->
<g id="edge12" class="edge">
<title>Node6&#45;&gt;Node12</title>
<path fill="none" stroke="#63b8ff" d="M567.95,-70.78C509.4,-64.28 386.73,-49.81 273.45,-30.43"/>
<polygon fill="#63b8ff" stroke="#63b8ff" points="274.11,-26.99 263.66,-28.74 272.92,-33.89 274.11,-26.99"/>
</g>
<!-- Node13 -->
<g id="node13" class="node">
<title>Node13</title>
<g id="a_node13"><a xlink:title=" ">
<polygon fill="#e0e0e0" stroke="#999999" points="401,-30 280,-30 280,0 401,0 401,-30"/>
<text text-anchor="start" x="288" y="-18" font-family="Helvetica,sans-Serif" font-size="10.00">boost/log/utility/setup</text>
<text text-anchor="middle" x="340.5" y="-7" font-family="Helvetica,sans-Serif" font-size="10.00">/common_attributes.hpp</text>
</a>
</g>
</g>
<!-- Node6&#45;&gt;Node13 -->
<g id="edge13" class="edge">
<title>Node6&#45;&gt;Node13</title>
<path fill="none" stroke="#63b8ff" d="M567.71,-66.73C528.3,-57.93 463.01,-43.36 412.51,-32.08"/>
<polygon fill="#63b8ff" stroke="#63b8ff" points="413.32,-28.67 402.8,-29.91 411.8,-35.51 413.32,-28.67"/>
</g>
<!-- Node14&#45;&gt;Node6 -->
<g id="edge25" class="edge">
<title>Node14&#45;&gt;Node6</title>
<path fill="none" stroke="#63b8ff" d="M850.39,-291.24C811.62,-257.66 672.14,-136.83 621.25,-92.74"/>
<polygon fill="#63b8ff" stroke="#63b8ff" points="623.82,-90.34 613.97,-86.43 619.24,-95.63 623.82,-90.34"/>
</g>
<!-- Node15 -->
<g id="node15" class="node">
<title>Node15</title>
<g id="a_node15"><a xlink:href="_dma_buffer_abstract_8hpp.html" target="_top" xlink:title=" ">
<polygon fill="white" stroke="#666666" points="977,-250 860,-250 860,-231 977,-231 977,-250"/>
<text text-anchor="middle" x="918.5" y="-238" font-family="Helvetica,sans-Serif" font-size="10.00">DmaBufferAbstract.hpp</text>
</a>
</g>
</g>
<!-- Node14&#45;&gt;Node15 -->
<g id="edge15" class="edge">
<title>Node14&#45;&gt;Node15</title>
<path fill="none" stroke="#63b8ff" d="M869.06,-291.37C877.71,-282.64 891.3,-268.93 902.05,-258.09"/>
<polygon fill="#63b8ff" stroke="#63b8ff" points="904.29,-260.81 908.84,-251.24 899.31,-255.88 904.29,-260.81"/>
</g>
<!-- Node17 -->
<g id="node17" class="node">
<title>Node17</title>
<g id="a_node17"><a xlink:href="_uio_config_8hpp.html" target="_top" xlink:title=" ">
<polygon fill="white" stroke="#666666" points="1012,-85 901,-85 901,-66 1012,-66 1012,-85"/>
<text text-anchor="middle" x="956.5" y="-73" font-family="Helvetica,sans-Serif" font-size="10.00">udmaio/UioConfig.hpp</text>
</a>
</g>
</g>
<!-- Node14&#45;&gt;Node17 -->
<g id="edge26" class="edge">
<title>Node14&#45;&gt;Node17</title>
<path fill="none" stroke="#63b8ff" d="M855.36,-291.12C843.92,-270.11 818.77,-216.07 837.5,-176 856.08,-136.24 899.24,-106.77 928.15,-90.61"/>
<polygon fill="#63b8ff" stroke="#63b8ff" points="929.6,-93.81 936.75,-85.98 926.28,-87.64 929.6,-93.81"/>
</g>
<!-- Node15&#45;&gt;Node3 -->
<g id="edge17" class="edge">
<title>Node15&#45;&gt;Node3</title>
<path fill="none" stroke="#63b8ff" d="M910.24,-230.75C903.34,-223.43 893.28,-212.76 884.76,-203.74"/>
<polygon fill="#63b8ff" stroke="#63b8ff" points="887.38,-201.42 877.97,-196.54 882.29,-206.22 887.38,-201.42"/>
</g>
<!-- Node15&#45;&gt;Node5 -->
<g id="edge18" class="edge">
<title>Node15&#45;&gt;Node5</title>
<path fill="none" stroke="#63b8ff" d="M917.53,-230.58C915.76,-217.59 911.07,-193.18 899.5,-176 874.1,-138.28 830.03,-107.9 801.84,-91.03"/>
<polygon fill="#63b8ff" stroke="#63b8ff" points="803.95,-88.21 793.55,-86.2 800.43,-94.26 803.95,-88.21"/>
</g>
<!-- Node16 -->
<g id="node16" class="node">
<title>Node16</title>
<g id="a_node16"><a xlink:title=" ">
<polygon fill="#e0e0e0" stroke="#999999" points="1132.5,-195 1086.5,-195 1086.5,-176 1132.5,-176 1132.5,-195"/>
<text text-anchor="middle" x="1109.5" y="-183" font-family="Helvetica,sans-Serif" font-size="10.00">cstdint</text>
</a>
</g>
</g>
<!-- Node15&#45;&gt;Node16 -->
<g id="edge16" class="edge">
<title>Node15&#45;&gt;Node16</title>
<path fill="none" stroke="#63b8ff" d="M950.9,-230.51C985.57,-220.89 1040.32,-205.7 1075.57,-195.92"/>
<polygon fill="#63b8ff" stroke="#63b8ff" points="1076.12,-199.39 1084.82,-193.35 1074.25,-192.65 1076.12,-199.39"/>
</g>
<!-- Node15&#45;&gt;Node17 -->
<g id="edge19" class="edge">
<title>Node15&#45;&gt;Node17</title>
<path fill="none" stroke="#63b8ff" d="M921.56,-230.71C924.6,-221.79 929.26,-207.55 932.5,-195 941.3,-160.87 948.88,-120.53 953.06,-96.82"/>
<polygon fill="#63b8ff" stroke="#63b8ff" points="956.5,-97.43 954.75,-86.98 949.6,-96.24 956.5,-97.43"/>
</g>
<!-- Node17&#45;&gt;Node2 -->
<g id="edge23" class="edge">
<title>Node17&#45;&gt;Node2</title>
<path fill="none" stroke="#63b8ff" d="M955.17,-65.87C953.96,-58 952.13,-46.1 950.56,-35.89"/>
<polygon fill="#63b8ff" stroke="#63b8ff" points="954.04,-35.51 949.06,-26.16 947.12,-36.58 954.04,-35.51"/>
</g>
<!-- Node18 -->
<g id="node18" class="node">
<title>Node18</title>
<g id="a_node18"><a xlink:title=" ">
<polygon fill="#e0e0e0" stroke="#999999" points="1251.5,-24.5 1197.5,-24.5 1197.5,-5.5 1251.5,-5.5 1251.5,-24.5"/>
<text text-anchor="middle" x="1224.5" y="-12.5" font-family="Helvetica,sans-Serif" font-size="10.00">iostream</text>
</a>
</g>
</g>
<!-- Node17&#45;&gt;Node18 -->
<g id="edge20" class="edge">
<title>Node17&#45;&gt;Node18</title>
<path fill="none" stroke="#63b8ff" d="M997.5,-65.55C1048.78,-54.36 1135.93,-35.33 1186.01,-24.4"/>
<polygon fill="#63b8ff" stroke="#63b8ff" points="1186.5,-27.88 1195.53,-22.32 1185.01,-21.04 1186.5,-27.88"/>
</g>
<!-- Node19 -->
<g id="node19" class="node">
<title>Node19</title>
<g id="a_node19"><a xlink:title=" ">
<polygon fill="#e0e0e0" stroke="#999999" points="1531,-24.5 1480,-24.5 1480,-5.5 1531,-5.5 1531,-24.5"/>
<text text-anchor="middle" x="1505.5" y="-12.5" font-family="Helvetica,sans-Serif" font-size="10.00">memory</text>
</a>
</g>
</g>
<!-- Node17&#45;&gt;Node19 -->
<g id="edge21" class="edge">
<title>Node17&#45;&gt;Node19</title>
<path fill="none" stroke="#63b8ff" d="M1012.16,-67.12C1015.32,-66.73 1018.45,-66.36 1021.5,-66 1187.87,-46.53 1386.88,-27.23 1468.16,-19.51"/>
<polygon fill="#63b8ff" stroke="#63b8ff" points="1468.37,-23.01 1478,-18.58 1467.71,-16.04 1468.37,-23.01"/>
</g>
<!-- Node20 -->
<g id="node20" class="node">
<title>Node20</title>
<g id="a_node20"><a xlink:title=" ">
<polygon fill="#e0e0e0" stroke="#999999" points="1045,-24.5 986,-24.5 986,-5.5 1045,-5.5 1045,-24.5"/>
<text text-anchor="middle" x="1015.5" y="-12.5" font-family="Helvetica,sans-Serif" font-size="10.00">stdexcept</text>
</a>
</g>
</g>
<!-- Node17&#45;&gt;Node20 -->
<g id="edge22" class="edge">
<title>Node17&#45;&gt;Node20</title>
<path fill="none" stroke="#63b8ff" d="M965.46,-65.62C974.21,-56.94 987.75,-43.52 998.54,-32.82"/>
<polygon fill="#63b8ff" stroke="#63b8ff" points="1000.74,-35.56 1005.38,-26.03 995.81,-30.59 1000.74,-35.56"/>
</g>
<!-- Node21 -->
<g id="node21" class="node">
<title>Node21</title>
<g id="a_node21"><a xlink:title=" ">
<polygon fill="#e0e0e0" stroke="#999999" points="1129.5,-24.5 1063.5,-24.5 1063.5,-5.5 1129.5,-5.5 1129.5,-24.5"/>
<text text-anchor="middle" x="1096.5" y="-12.5" font-family="Helvetica,sans-Serif" font-size="10.00">string_view</text>
</a>
</g>
</g>
<!-- Node17&#45;&gt;Node21 -->
<g id="edge24" class="edge">
<title>Node17&#45;&gt;Node21</title>
<path fill="none" stroke="#63b8ff" d="M977.76,-65.62C1000.89,-55.95 1038.11,-40.4 1064.71,-29.28"/>
<polygon fill="#63b8ff" stroke="#63b8ff" points="1065.76,-32.64 1073.64,-25.55 1063.06,-26.18 1065.76,-32.64"/>
</g>
<!-- Node23 -->
<g id="node23" class="node">
<title>Node23</title>
<g id="a_node23"><a xlink:title=" ">
<polygon fill="#e0e0e0" stroke="#999999" points="1033.5,-250 995.5,-250 995.5,-231 1033.5,-231 1033.5,-250"/>
<text text-anchor="middle" x="1014.5" y="-238" font-family="Helvetica,sans-Serif" font-size="10.00">tuple</text>
</a>
</g>
</g>
<!-- Node22&#45;&gt;Node23 -->
<g id="edge28" class="edge">
<title>Node22&#45;&gt;Node23</title>
<path fill="none" stroke="#63b8ff" d="M1095.07,-291.12C1080.15,-281.92 1056.57,-267.41 1038.77,-256.44"/>
<polygon fill="#63b8ff" stroke="#63b8ff" points="1040.7,-253.53 1030.35,-251.26 1037.03,-259.49 1040.7,-253.53"/>
</g>
<!-- Node24 -->
<g id="node24" class="node">
<title>Node24</title>
<g id="a_node24"><a xlink:href="_reg_accessor_8hpp.html" target="_top" xlink:title=" ">
<polygon fill="white" stroke="#666666" points="1317,-250 1224,-250 1224,-231 1317,-231 1317,-250"/>
<text text-anchor="middle" x="1270.5" y="-238" font-family="Helvetica,sans-Serif" font-size="10.00">RegAccessor.hpp</text>
</a>
</g>
</g>
<!-- Node22&#45;&gt;Node24 -->
<g id="edge29" class="edge">
<title>Node22&#45;&gt;Node24</title>
<path fill="none" stroke="#63b8ff" d="M1133.95,-291.12C1160.9,-281.32 1204.49,-265.48 1235.16,-254.34"/>
<polygon fill="#63b8ff" stroke="#63b8ff" points="1236.19,-257.69 1244.39,-250.99 1233.8,-251.11 1236.19,-257.69"/>
</g>
<!-- Node25 -->
<g id="node25" class="node">
<title>Node25</title>
<g id="a_node25"><a xlink:href="_uio_if_8hpp.html" target="_top" xlink:title=" ">
<polygon fill="white" stroke="#666666" points="1292.5,-195 1202.5,-195 1202.5,-176 1292.5,-176 1292.5,-195"/>
<text text-anchor="middle" x="1247.5" y="-183" font-family="Helvetica,sans-Serif" font-size="10.00">udmaio/UioIf.hpp</text>
</a>
</g>
</g>
<!-- Node22&#45;&gt;Node25 -->
<g id="edge59" class="edge">
<title>Node22&#45;&gt;Node25</title>
<path fill="none" stroke="#63b8ff" d="M1122.1,-291.11C1135.76,-281.35 1158.07,-265.07 1176.5,-250 1195.19,-234.72 1215.66,-216.21 1229.8,-203.13"/>
<polygon fill="#63b8ff" stroke="#63b8ff" points="1232.05,-205.81 1236.98,-196.44 1227.28,-200.69 1232.05,-205.81"/>
</g>
<!-- Node34 -->
<g id="node34" class="node">
<title>Node34</title>
<g id="a_node34"><a xlink:href="_axi_dma_8hpp.html" target="_top" xlink:title=" ">
<polygon fill="white" stroke="#666666" points="1167.5,-250 1051.5,-250 1051.5,-231 1167.5,-231 1167.5,-250"/>
<text text-anchor="middle" x="1109.5" y="-238" font-family="Helvetica,sans-Serif" font-size="10.00">udmaio/rdl/AxiDma.hpp</text>
</a>
</g>
</g>
<!-- Node22&#45;&gt;Node34 -->
<g id="edge60" class="edge">
<title>Node22&#45;&gt;Node34</title>
<path fill="none" stroke="#63b8ff" d="M1109.5,-291.37C1109.5,-283.5 1109.5,-271.6 1109.5,-261.39"/>
<polygon fill="#63b8ff" stroke="#63b8ff" points="1113,-261.68 1109.5,-251.68 1106,-261.68 1113,-261.68"/>
</g>
<!-- Node24&#45;&gt;Node16 -->
<g id="edge30" class="edge">
<title>Node24&#45;&gt;Node16</title>
<path fill="none" stroke="#63b8ff" d="M1243.19,-230.51C1215.66,-221.45 1173.12,-207.44 1143.44,-197.67"/>
<polygon fill="#63b8ff" stroke="#63b8ff" points="1144.79,-194.43 1134.2,-194.63 1142.6,-201.08 1144.79,-194.43"/>
</g>
<!-- Node24&#45;&gt;Node25 -->
<g id="edge31" class="edge">
<title>Node24&#45;&gt;Node25</title>
<path fill="none" stroke="#63b8ff" d="M1266.7,-230.75C1263.76,-223.96 1259.56,-214.3 1255.85,-205.73"/>
<polygon fill="#63b8ff" stroke="#63b8ff" points="1259.17,-204.61 1251.98,-196.83 1252.75,-207.4 1259.17,-204.61"/>
</g>
<!-- Node25&#45;&gt;Node2 -->
<g id="edge36" class="edge">
<title>Node25&#45;&gt;Node2</title>
<path fill="none" stroke="#63b8ff" d="M1204.15,-175.54C1113.36,-156.34 910.03,-110.85 891.5,-85 877.68,-65.71 900.69,-44.69 921.25,-30.98"/>
<polygon fill="#63b8ff" stroke="#63b8ff" points="923.09,-33.96 929.7,-25.68 919.37,-28.03 923.09,-33.96"/>
</g>
<!-- Node25&#45;&gt;Node5 -->
<g id="edge37" class="edge">
<title>Node25&#45;&gt;Node5</title>
<path fill="none" stroke="#63b8ff" d="M1202.25,-178.86C1148.84,-171.76 1057.55,-158.27 980.5,-140 920.19,-125.7 851.69,-103.17 811.12,-89.15"/>
<polygon fill="#63b8ff" stroke="#63b8ff" points="812.47,-85.91 801.87,-85.93 810.17,-92.52 812.47,-85.91"/>
</g>
<!-- Node25&#45;&gt;Node6 -->
<g id="edge57" class="edge">
<title>Node25&#45;&gt;Node6</title>
<path fill="none" stroke="#63b8ff" d="M1202.1,-179.62C1136.92,-172.38 1013.12,-157.7 908.5,-140 815.52,-124.27 707.75,-100.63 648.13,-87.07"/>
<polygon fill="#63b8ff" stroke="#63b8ff" points="649.22,-83.73 638.69,-84.92 647.66,-90.56 649.22,-83.73"/>
</g>
<!-- Node25&#45;&gt;Node17 -->
<g id="edge58" class="edge">
<title>Node25&#45;&gt;Node17</title>
<path fill="none" stroke="#63b8ff" d="M1214.85,-175.5C1185.44,-167.14 1141.18,-153.91 1103.5,-140 1061.88,-124.63 1015.01,-103.74 985.62,-90.19"/>
<polygon fill="#63b8ff" stroke="#63b8ff" points="987.18,-87.05 976.64,-86.02 984.23,-93.4 987.18,-87.05"/>
</g>
<!-- Node25&#45;&gt;Node18 -->
<g id="edge34" class="edge">
<title>Node25&#45;&gt;Node18</title>
<path fill="none" stroke="#63b8ff" d="M1292.95,-179.39C1410.08,-165.34 1709.58,-123.3 1658.5,-66 1632.38,-36.69 1364.61,-22.09 1263.17,-17.57"/>
<polygon fill="#63b8ff" stroke="#63b8ff" points="1263.58,-14.09 1253.44,-17.15 1263.28,-21.08 1263.58,-14.09"/>
</g>
<!-- Node25&#45;&gt;Node19 -->
<g id="edge35" class="edge">
<title>Node25&#45;&gt;Node19</title>
<path fill="none" stroke="#63b8ff" d="M1293,-184.23C1358.71,-182.58 1483.19,-174.62 1582.5,-140 1627.48,-124.32 1651,-126.44 1674.5,-85 1703.68,-33.55 1600.48,-20.45 1542.42,-17.12"/>
<polygon fill="#63b8ff" stroke="#63b8ff" points="1542.79,-13.63 1532.63,-16.64 1542.45,-20.63 1542.79,-13.63"/>
</g>
<!-- Node26 -->
<g id="node26" class="node">
<title>Node26</title>
<g id="a_node26"><a xlink:title=" ">
<polygon fill="#e0e0e0" stroke="#999999" points="1158.5,-85 1098.5,-85 1098.5,-66 1158.5,-66 1158.5,-85"/>
<text text-anchor="middle" x="1128.5" y="-73" font-family="Helvetica,sans-Serif" font-size="10.00">filesystem</text>
</a>
</g>
</g>
<!-- Node25&#45;&gt;Node26 -->
<g id="edge32" class="edge">
<title>Node25&#45;&gt;Node26</title>
<path fill="none" stroke="#63b8ff" d="M1214.16,-175.55C1194.26,-168.7 1169.78,-157.41 1153.5,-140 1142.22,-127.94 1135.82,-110.2 1132.32,-96.53"/>
<polygon fill="#63b8ff" stroke="#63b8ff" points="1135.76,-95.89 1130.19,-86.88 1128.93,-97.4 1135.76,-95.89"/>
</g>
<!-- Node27 -->
<g id="node27" class="node">
<title>Node27</title>
<g id="a_node27"><a xlink:title=" ">
<polygon fill="#e0e0e0" stroke="#999999" points="1340.5,-85 1290.5,-85 1290.5,-66 1340.5,-66 1340.5,-85"/>
<text text-anchor="middle" x="1315.5" y="-73" font-family="Helvetica,sans-Serif" font-size="10.00">fstream</text>
</a>
</g>
</g>
<!-- Node25&#45;&gt;Node27 -->
<g id="edge33" class="edge">
<title>Node25&#45;&gt;Node27</title>
<path fill="none" stroke="#63b8ff" d="M1260.58,-175.75C1271.66,-167.7 1287.19,-154.78 1296.5,-140 1304.87,-126.72 1309.71,-109.56 1312.41,-96.43"/>
<polygon fill="#63b8ff" stroke="#63b8ff" points="1315.82,-97.28 1314.12,-86.82 1308.92,-96.05 1315.82,-97.28"/>
</g>
<!-- Node28 -->
<g id="node28" class="node">
<title>Node28</title>
<g id="a_node28"><a xlink:title=" ">
<polygon fill="#e0e0e0" stroke="#999999" points="1402,-85 1359,-85 1359,-66 1402,-66 1402,-85"/>
<text text-anchor="middle" x="1380.5" y="-73" font-family="Helvetica,sans-Serif" font-size="10.00">fcntl.h</text>
</a>
</g>
</g>
<!-- Node25&#45;&gt;Node28 -->
<g id="edge38" class="edge">
<title>Node25&#45;&gt;Node28</title>
<path fill="none" stroke="#63b8ff" d="M1262.67,-175.51C1276.62,-167 1297.62,-153.55 1314.5,-140 1332.64,-125.45 1351.59,-106.8 1364.51,-93.48"/>
<polygon fill="#63b8ff" stroke="#63b8ff" points="1366.97,-95.97 1371.36,-86.32 1361.92,-91.13 1366.97,-95.97"/>
</g>
<!-- Node29 -->
<g id="node29" class="node">
<title>Node29</title>
<g id="a_node29"><a xlink:title=" ">
<polygon fill="#e0e0e0" stroke="#999999" points="1489,-85 1420,-85 1420,-66 1489,-66 1489,-85"/>
<text text-anchor="middle" x="1454.5" y="-73" font-family="Helvetica,sans-Serif" font-size="10.00">sys/mman.h</text>
</a>
</g>
</g>
<!-- Node25&#45;&gt;Node29 -->
<g id="edge39" class="edge">
<title>Node25&#45;&gt;Node29</title>
<path fill="none" stroke="#63b8ff" d="M1266.45,-175.55C1284.95,-166.73 1313.83,-152.78 1338.5,-140 1369.97,-123.7 1405.66,-103.97 1429.05,-90.87"/>
<polygon fill="#63b8ff" stroke="#63b8ff" points="1430.54,-94.05 1437.54,-86.1 1427.11,-87.95 1430.54,-94.05"/>
</g>
<!-- Node30 -->
<g id="node30" class="node">
<title>Node30</title>
<g id="a_node30"><a xlink:title=" ">
<polygon fill="#e0e0e0" stroke="#999999" points="1566,-85 1507,-85 1507,-66 1566,-66 1566,-85"/>
<text text-anchor="middle" x="1536.5" y="-73" font-family="Helvetica,sans-Serif" font-size="10.00">sys/stat.h</text>
</a>
</g>
</g>
<!-- Node25&#45;&gt;Node30 -->
<g id="edge40" class="edge">
<title>Node25&#45;&gt;Node30</title>
<path fill="none" stroke="#63b8ff" d="M1272.3,-175.56C1296.98,-166.65 1335.91,-152.51 1369.5,-140 1415.72,-122.78 1468.96,-102.45 1502.66,-89.52"/>
<polygon fill="#63b8ff" stroke="#63b8ff" points="1503.81,-92.83 1511.89,-85.98 1501.3,-86.29 1503.81,-92.83"/>
</g>
<!-- Node31 -->
<g id="node31" class="node">
<title>Node31</title>
<g id="a_node31"><a xlink:title=" ">
<polygon fill="#e0e0e0" stroke="#999999" points="1649,-85 1584,-85 1584,-66 1649,-66 1649,-85"/>
<text text-anchor="middle" x="1616.5" y="-73" font-family="Helvetica,sans-Serif" font-size="10.00">sys/types.h</text>
</a>
</g>
</g>
<!-- Node25&#45;&gt;Node31 -->
<g id="edge41" class="edge">
<title>Node25&#45;&gt;Node31</title>
<path fill="none" stroke="#63b8ff" d="M1280.87,-175.55C1313.49,-166.75 1364.5,-152.79 1408.5,-140 1467.45,-122.86 1535.42,-101.88 1577.18,-88.85"/>
<polygon fill="#63b8ff" stroke="#63b8ff" points="1578.03,-92.25 1586.53,-85.92 1575.94,-85.57 1578.03,-92.25"/>
</g>
<!-- Node32 -->
<g id="node32" class="node">
<title>Node32</title>
<g id="a_node32"><a xlink:title=" ">
<polygon fill="#e0e0e0" stroke="#999999" points="1080.5,-85 1030.5,-85 1030.5,-66 1080.5,-66 1080.5,-85"/>
<text text-anchor="middle" x="1055.5" y="-73" font-family="Helvetica,sans-Serif" font-size="10.00">unistd.h</text>
</a>
</g>
</g>
<!-- Node25&#45;&gt;Node32 -->
<g id="edge42" class="edge">
<title>Node25&#45;&gt;Node32</title>
<path fill="none" stroke="#63b8ff" d="M1219.11,-175.62C1196.06,-167.82 1163.12,-155.35 1136.5,-140 1112.95,-126.42 1088.78,-106.55 1073.05,-92.67"/>
<polygon fill="#63b8ff" stroke="#63b8ff" points="1075.73,-90.37 1065.96,-86.29 1071.05,-95.58 1075.73,-90.37"/>
</g>
<!-- Node33 -->
<g id="node33" class="node">
<title>Node33</title>
<g id="a_node33"><a xlink:href="_hw_accessor_8hpp.html" target="_top" xlink:title=" ">
<polygon fill="white" stroke="#666666" points="1287,-140 1162,-140 1162,-121 1287,-121 1287,-140"/>
<text text-anchor="middle" x="1224.5" y="-128" font-family="Helvetica,sans-Serif" font-size="10.00">udmaio/HwAccessor.hpp</text>
</a>
</g>
</g>
<!-- Node25&#45;&gt;Node33 -->
<g id="edge43" class="edge">
<title>Node25&#45;&gt;Node33</title>
<path fill="none" stroke="#63b8ff" d="M1243.7,-175.75C1240.76,-168.96 1236.56,-159.3 1232.85,-150.73"/>
<polygon fill="#63b8ff" stroke="#63b8ff" points="1236.17,-149.61 1228.98,-141.83 1229.75,-152.4 1236.17,-149.61"/>
</g>
<!-- Node33&#45;&gt;Node2 -->
<g id="edge48" class="edge">
<title>Node33&#45;&gt;Node2</title>
<path fill="none" stroke="#63b8ff" d="M1219.43,-120.89C1210.72,-106.92 1191.5,-79.53 1167.5,-66 1092.63,-23.8 1059.3,-56.38 977.5,-30 976.7,-29.74 975.89,-29.47 975.08,-29.18"/>
<polygon fill="#63b8ff" stroke="#63b8ff" points="976.63,-26.03 966.05,-25.47 973.97,-32.51 976.63,-26.03"/>
</g>
<!-- Node33&#45;&gt;Node5 -->
<g id="edge49" class="edge">
<title>Node33&#45;&gt;Node5</title>
<path fill="none" stroke="#63b8ff" d="M1161.6,-122.07C1081.48,-112.62 942.96,-96.27 855.44,-85.94"/>
<polygon fill="#63b8ff" stroke="#63b8ff" points="856.07,-82.49 845.73,-84.79 855.25,-89.44 856.07,-82.49"/>
</g>
<!-- Node33&#45;&gt;Node6 -->
<g id="edge55" class="edge">
<title>Node33&#45;&gt;Node6</title>
<path fill="none" stroke="#63b8ff" d="M1161.62,-124.29C1062.81,-116.09 865.13,-99.58 697.5,-85 681.59,-83.62 664.19,-82.07 648.68,-80.68"/>
<polygon fill="#63b8ff" stroke="#63b8ff" points="649.02,-77.2 638.75,-79.79 648.39,-84.17 649.02,-77.2"/>
</g>
<!-- Node33&#45;&gt;Node17 -->
<g id="edge56" class="edge">
<title>Node33&#45;&gt;Node17</title>
<path fill="none" stroke="#63b8ff" d="M1179.04,-120.51C1133.18,-111.44 1062.28,-97.42 1012.87,-87.65"/>
<polygon fill="#63b8ff" stroke="#63b8ff" points="1013.71,-84.25 1003.22,-85.74 1012.35,-91.11 1013.71,-84.25"/>
</g>
<!-- Node33&#45;&gt;Node18 -->
<g id="edge46" class="edge">
<title>Node33&#45;&gt;Node18</title>
<path fill="none" stroke="#63b8ff" d="M1224.5,-120.59C1224.5,-102.53 1224.5,-61.17 1224.5,-36.21"/>
<polygon fill="#63b8ff" stroke="#63b8ff" points="1228,-36.38 1224.5,-26.38 1221,-36.38 1228,-36.38"/>
</g>
<!-- Node33&#45;&gt;Node19 -->
<g id="edge47" class="edge">
<title>Node33&#45;&gt;Node19</title>
<path fill="none" stroke="#63b8ff" d="M1229.91,-120.52C1238.82,-106.55 1257.97,-79.77 1281.5,-66 1340.82,-31.29 1421.89,-20.65 1468.48,-17.41"/>
<polygon fill="#63b8ff" stroke="#63b8ff" points="1468.54,-20.91 1478.31,-16.81 1468.11,-13.92 1468.54,-20.91"/>
</g>
<!-- Node33&#45;&gt;Node26 -->
<g id="edge44" class="edge">
<title>Node33&#45;&gt;Node26</title>
<path fill="none" stroke="#63b8ff" d="M1208.21,-120.51C1193.51,-112.39 1171.61,-100.3 1154.48,-90.85"/>
<polygon fill="#63b8ff" stroke="#63b8ff" points="1156.32,-87.86 1145.87,-86.09 1152.93,-93.99 1156.32,-87.86"/>
</g>
<!-- Node33&#45;&gt;Node27 -->
<g id="edge45" class="edge">
<title>Node33&#45;&gt;Node27</title>
<path fill="none" stroke="#63b8ff" d="M1239.94,-120.51C1253.75,-112.47 1274.25,-100.53 1290.41,-91.11"/>
<polygon fill="#63b8ff" stroke="#63b8ff" points="1292.1,-94.18 1298.98,-86.12 1288.58,-88.13 1292.1,-94.18"/>
</g>
<!-- Node33&#45;&gt;Node28 -->
<g id="edge50" class="edge">
<title>Node33&#45;&gt;Node28</title>
<path fill="none" stroke="#63b8ff" d="M1250.96,-120.51C1277.82,-111.38 1319.44,-97.24 1348.22,-87.47"/>
<polygon fill="#63b8ff" stroke="#63b8ff" points="1349.16,-90.84 1357.51,-84.31 1346.91,-84.21 1349.16,-90.84"/>
</g>
<!-- Node33&#45;&gt;Node29 -->
<g id="edge51" class="edge">
<title>Node33&#45;&gt;Node29</title>
<path fill="none" stroke="#63b8ff" d="M1263.52,-120.51C1303.67,-111.26 1366.19,-96.85 1408.67,-87.06"/>
<polygon fill="#63b8ff" stroke="#63b8ff" points="1409.38,-90.49 1418.34,-84.83 1407.81,-83.67 1409.38,-90.49"/>
</g>
<!-- Node33&#45;&gt;Node30 -->
<g id="edge52" class="edge">
<title>Node33&#45;&gt;Node30</title>
<path fill="none" stroke="#63b8ff" d="M1286.44,-120.51C1339.6,-112.55 1418.5,-100.16 1495.77,-85.44"/>
<polygon fill="#63b8ff" stroke="#63b8ff" points="1496.02,-88.96 1505.18,-83.63 1494.7,-82.08 1496.02,-88.96"/>
</g>
<!-- Node33&#45;&gt;Node31 -->
<g id="edge53" class="edge">
<title>Node33&#45;&gt;Node31</title>
<path fill="none" stroke="#63b8ff" d="M1287.49,-123.02C1355.5,-115.68 1467.26,-102.65 1572.7,-85.36"/>
<polygon fill="#63b8ff" stroke="#63b8ff" points="1573.08,-88.84 1582.38,-83.75 1571.94,-81.94 1573.08,-88.84"/>
</g>
<!-- Node33&#45;&gt;Node32 -->
<g id="edge54" class="edge">
<title>Node33&#45;&gt;Node32</title>
<path fill="none" stroke="#63b8ff" d="M1195.83,-120.51C1167.15,-111.51 1122.93,-97.65 1091.81,-87.89"/>
<polygon fill="#63b8ff" stroke="#63b8ff" points="1093.02,-84.6 1082.43,-84.95 1090.93,-91.28 1093.02,-84.6"/>
</g>
<!-- Node34&#45;&gt;Node16 -->
<g id="edge61" class="edge">
<title>Node34&#45;&gt;Node16</title>
<path fill="none" stroke="#63b8ff" d="M1109.5,-230.75C1109.5,-224.27 1109.5,-215.16 1109.5,-206.9"/>
<polygon fill="#63b8ff" stroke="#63b8ff" points="1113,-206.96 1109.5,-196.96 1106,-206.96 1113,-206.96"/>
</g>
<!-- Node35&#45;&gt;Node15 -->
<g id="edge65" class="edge">
<title>Node35&#45;&gt;Node15</title>
<path fill="none" stroke="#63b8ff" d="M1196.33,-291.05C1138.29,-280.7 1042.74,-263.66 980.21,-252.51"/>
<polygon fill="#63b8ff" stroke="#63b8ff" points="980.89,-249.07 970.43,-250.76 979.66,-255.96 980.89,-249.07"/>
</g>
<!-- Node35&#45;&gt;Node19 -->
<g id="edge64" class="edge">
<title>Node35&#45;&gt;Node19</title>
<path fill="none" stroke="#63b8ff" d="M1284.58,-291.05C1291.85,-289.36 1299.41,-287.62 1306.5,-286 1405.72,-263.38 1753.5,-288.26 1753.5,-186.5 1753.5,-186.5 1753.5,-186.5 1753.5,-129.5 1753.5,-37.74 1611.39,-19.86 1542.32,-16.59"/>
<polygon fill="#63b8ff" stroke="#63b8ff" points="1542.75,-13.11 1532.62,-16.22 1542.48,-20.1 1542.75,-13.11"/>
</g>
<!-- Node35&#45;&gt;Node24 -->
<g id="edge66" class="edge">
<title>Node35&#45;&gt;Node24</title>
<path fill="none" stroke="#63b8ff" d="M1250.04,-291.37C1253.34,-283.33 1258.37,-271.07 1262.62,-260.72"/>
<polygon fill="#63b8ff" stroke="#63b8ff" points="1265.81,-262.15 1266.37,-251.57 1259.34,-259.49 1265.81,-262.15"/>
</g>
<!-- Node36 -->
<g id="node36" class="node">
<title>Node36</title>
<g id="a_node36"><a xlink:title=" ">
<polygon fill="#e0e0e0" stroke="#999999" points="1384,-250 1335,-250 1335,-231 1384,-231 1384,-250"/>
<text text-anchor="middle" x="1359.5" y="-238" font-family="Helvetica,sans-Serif" font-size="10.00">cstddef</text>
</a>
</g>
</g>
<!-- Node35&#45;&gt;Node36 -->
<g id="edge63" class="edge">
<title>Node35&#45;&gt;Node36</title>
<path fill="none" stroke="#63b8ff" d="M1263.66,-291.12C1281.83,-281.71 1310.78,-266.72 1332.11,-255.68"/>
<polygon fill="#63b8ff" stroke="#63b8ff" points="1333.56,-258.87 1340.83,-251.16 1330.34,-252.65 1333.56,-258.87"/>
</g>
</g>
</svg>
        <g id="navigator" transform="translate(0 0)" fill="#404254">
                <rect fill="#f2f5e9" fill-opacity="0.5" stroke="#606060" stroke-width=".5" x="0" y="0" width="60" height="60"/>
                <use id="zoomplus" xlink:href="#zoomPlus" x="17" y="9" onmousedown="handleZoom(evt,'in')"/>
                <use id="zoomminus" xlink:href="#zoomMin" x="42" y="9" onmousedown="handleZoom(evt,'out')"/>
                <use id="reset" xlink:href="#resetDef" x="30" y="36" onmousedown="handleReset()"/>
                <g id="arrowUp" xlink:href="#dirArrow" transform="translate(30 24)" onmousedown="handlePan(0,-1)">
                  <use xlink:href="#rim" fill="#404040">
                        <set attributeName="fill" to="#808080" begin="arrowUp.mouseover" end="arrowUp.mouseout"/>
                  </use>
                  <path fill="none" stroke="white" stroke-width="1.5" d="M0,-3.0v7 M-2.5,-0.5L0,-3.0L2.5,-0.5"/>
                </g>
                <g id="arrowRight" xlink:href="#dirArrow" transform="rotate(90) translate(36 -43)" onmousedown="handlePan(1,0)">
                  <use xlink:href="#rim" fill="#404040">
                        <set attributeName="fill" to="#808080" begin="arrowRight.mouseover" end="arrowRight.mouseout"/>
                  </use>
                  <path fill="none" stroke="white" stroke-width="1.5" d="M0,-3.0v7 M-2.5,-0.5L0,-3.0L2.5,-0.5"/>
                </g>
                <g id="arrowDown" xlink:href="#dirArrow" transform="rotate(180) translate(-30 -48)" onmousedown="handlePan(0,1)">
                  <use xlink:href="#rim" fill="#404040">
                        <set attributeName="fill" to="#808080" begin="arrowDown.mouseover" end="arrowDown.mouseout"/>
                  </use>
                  <path fill="none" stroke="white" stroke-width="1.5" d="M0,-3.0v7 M-2.5,-0.5L0,-3.0L2.5,-0.5"/>
                </g>
                <g id="arrowLeft" xlink:href="#dirArrow" transform="rotate(270) translate(-36 17)" onmousedown="handlePan(-1,0)">
                  <use xlink:href="#rim" fill="#404040">
                        <set attributeName="fill" to="#808080" begin="arrowLeft.mouseover" end="arrowLeft.mouseout"/>
                  </use>
                  <path fill="none" stroke="white" stroke-width="1.5" d="M0,-3.0v7 M-2.5,-0.5L0,-3.0L2.5,-0.5"/>
                </g>
        </g>
        <svg viewBox="0 0 15 15" width="100%" height="30px" preserveAspectRatio="xMaxYMin meet">
         <g id="arrow_out" transform="scale(0.3 0.3)">
          <a xlink:href="_data_handler_abstract_8hpp__incl_org.svg" target="_base">
           <rect id="button" ry="5" rx="5" y="6" x="6" height="38" width="38"
                fill="#f2f5e9" fill-opacity="0.5" stroke="#606060" stroke-width="1.0"/>
           <path id="arrow"
             d="M 11.500037,31.436501 C 11.940474,20.09759 22.043105,11.32322 32.158766,21.979434 L 37.068811,17.246167 C 37.068811,17.246167 37.088388,32 37.088388,32 L 22.160133,31.978069 C 22.160133,31.978069 26.997745,27.140456 26.997745,27.140456 C 18.528582,18.264221 13.291696,25.230495 11.500037,31.436501 z"
             style="fill:#404040;"/>
          </a>
         </g>
        </svg>
</svg>
