<?xml version="1.0" encoding="UTF-8" standalone="no"?>
<!DOCTYPE svg PUBLIC "-//W3C//DTD SVG 1.1//EN"
 "http://www.w3.org/Graphics/SVG/1.1/DTD/svg11.dtd">
<!-- Generated by graphviz version 7.0.5 (20221223.1930)
 -->
<!-- Title: DataHandlerAbstract.hpp Pages: 1 -->
<!--zoomable 379 -->
<svg id="main" version="1.1" xmlns="http://www.w3.org/2000/svg" xmlns:xlink="http://www.w3.org/1999/xlink" xml:space="preserve" onload="init(evt)">
<style type="text/css"><![CDATA[
.edge:hover path { stroke: red; }
.edge:hover polygon { stroke: red; fill: red; }
]]></style>
<script type="text/javascript"><![CDATA[
var edges = document.getElementsByTagName('g');
if (edges && edges.length) {
  for (var i=0;i<edges.length;i++) {
    if (edges[i].id.substr(0,4)=='edge') {
      edges[i].setAttribute('class','edge');
    }
  }
}
]]></script>
        <defs>
                <circle id="rim" cx="0" cy="0" r="7"/>
                <circle id="rim2" cx="0" cy="0" r="3.5"/>
                <g id="zoomPlus">
                        <use xlink:href="#rim" fill="#404040">
                                <set attributeName="fill" to="#808080" begin="zoomplus.mouseover" end="zoomplus.mouseout"/>
                        </use>
                        <path d="M-4,0h8M0,-4v8" fill="none" stroke="white" stroke-width="1.5" pointer-events="none"/>
                </g>
                <g id="zoomMin">
                        <use xlink:href="#rim" fill="#404040">
                                <set attributeName="fill" to="#808080" begin="zoomminus.mouseover" end="zoomminus.mouseout"/>
                        </use>
                        <path d="M-4,0h8" fill="none" stroke="white" stroke-width="1.5" pointer-events="none"/>
                </g>
                <g id="dirArrow">
                        <path fill="none" stroke="white" stroke-width="1.5" d="M0,-3.0v7 M-2.5,-0.5L0,-3.0L2.5,-0.5"/>
                </g>
               <g id="resetDef">
                       <use xlink:href="#rim2" fill="#404040">
                               <set attributeName="fill" to="#808080" begin="reset.mouseover" end="reset.mouseout"/>
                       </use>
               </g>
        </defs>

<script type="text/javascript">
var viewWidth = 1706;
var viewHeight = 379;
var sectionId = 'dynsection-0';
</script>
<script xlink:href="svgpan.js"/>
<svg id="graph" class="graph">
<g id="viewport">
<title>DataHandlerAbstract.hpp</title>
<!-- Node1 -->
<g id="node1" class="node">
<title>Node1</title>
<g id="a_node1"><a xlink:title=" ">
<polygon fill="#999999" stroke="#666666" points="1344,-371 1219,-371 1219,-352 1344,-352 1344,-371"/>
<text text-anchor="middle" x="1281.5" y="-359" font-family="Helvetica,sans-Serif" font-size="10.00">DataHandlerAbstract.hpp</text>
</a>
</g>
</g>
<!-- Node2 -->
<g id="node2" class="node">
<title>Node2</title>
<g id="a_node2"><a xlink:title=" ">
<polygon fill="#e0e0e0" stroke="#999999" points="968,-24.5 927,-24.5 927,-5.5 968,-5.5 968,-24.5"/>
<text text-anchor="middle" x="947.5" y="-12.5" font-family="Helvetica,sans-Serif" font-size="10.00">string</text>
</a>
</g>
</g>
<!-- Node1&#45;&gt;Node2 -->
<g id="edge1" class="edge">
<title>Node1&#45;&gt;Node2</title>
<path fill="none" stroke="#63b8ff" d="M1218.59,-355.24C1058.73,-341.02 649.5,-299 649.5,-241.5 649.5,-241.5 649.5,-241.5 649.5,-129.5 649.5,-88.15 680.53,-84.53 717.5,-66 798.24,-25.53 831.42,-57.32 917.5,-30 918.3,-29.75 919.11,-29.47 919.92,-29.19"/>
<polygon fill="#63b8ff" stroke="#63b8ff" points="921.02,-32.52 928.95,-25.5 918.37,-26.04 921.02,-32.52"/>
</g>
<!-- Node3 -->
<g id="node3" class="node">
<title>Node3</title>
<g id="a_node3"><a xlink:title=" ">
<polygon fill="#e0e0e0" stroke="#999999" points="1418.5,-195 1374.5,-195 1374.5,-176 1418.5,-176 1418.5,-195"/>
<text text-anchor="middle" x="1396.5" y="-183" font-family="Helvetica,sans-Serif" font-size="10.00">vector</text>
</a>
</g>
</g>
<!-- Node1&#45;&gt;Node3 -->
<g id="edge2" class="edge">
<title>Node1&#45;&gt;Node3</title>
<path fill="none" stroke="#63b8ff" d="M1297.92,-351.63C1311.18,-343.76 1329.54,-331.18 1341.5,-316 1368.25,-282.04 1384.3,-233.15 1391.66,-206.19"/>
<polygon fill="#63b8ff" stroke="#63b8ff" points="1395.01,-207.21 1394.13,-196.65 1388.23,-205.46 1395.01,-207.21"/>
</g>
<!-- Node4 -->
<g id="node4" class="node">
<title>Node4</title>
<g id="a_node4"><a xlink:title=" ">
<polygon fill="#e0e0e0" stroke="#999999" points="1554.5,-310.5 1474.5,-310.5 1474.5,-291.5 1554.5,-291.5 1554.5,-310.5"/>
<text text-anchor="middle" x="1514.5" y="-298.5" font-family="Helvetica,sans-Serif" font-size="10.00">boost/asio.hpp</text>
</a>
</g>
</g>
<!-- Node1&#45;&gt;Node4 -->
<g id="edge3" class="edge">
<title>Node1&#45;&gt;Node4</title>
<path fill="none" stroke="#63b8ff" d="M1317.87,-351.57C1354.05,-342.66 1411.15,-328.53 1460.5,-316 1463.39,-315.27 1466.37,-314.51 1469.37,-313.74"/>
<polygon fill="#63b8ff" stroke="#63b8ff" points="1469.96,-317.2 1478.77,-311.32 1468.21,-310.42 1469.96,-317.2"/>
</g>
<!-- Node5 -->
<g id="node5" class="node">
<title>Node5</title>
<g id="a_node5"><a xlink:title=" ">
<polygon fill="#e0e0e0" stroke="#999999" points="1698,-85 1561,-85 1561,-66 1698,-66 1698,-85"/>
<text text-anchor="middle" x="1629.5" y="-73" font-family="Helvetica,sans-Serif" font-size="10.00">boost/core/noncopyable.hpp</text>
</a>
</g>
</g>
<!-- Node1&#45;&gt;Node5 -->
<g id="edge4" class="edge">
<title>Node1&#45;&gt;Node5</title>
<path fill="none" stroke="#63b8ff" d="M1318.12,-351.6C1366.73,-337.34 1446.5,-304.37 1446.5,-241.5 1446.5,-241.5 1446.5,-241.5 1446.5,-184.5 1446.5,-128.88 1509.98,-101.31 1562.16,-88.05"/>
<polygon fill="#63b8ff" stroke="#63b8ff" points="1562.72,-91.51 1571.63,-85.78 1561.09,-84.71 1562.72,-91.51"/>
</g>
<!-- Node6 -->
<g id="node6" class="node">
<title>Node6</title>
<g id="a_node6"><a xlink:href="_logging_8hpp.html" target="_top" xlink:title=" ">
<polygon fill="white" stroke="#666666" points="620,-85 551,-85 551,-66 620,-66 620,-85"/>
<text text-anchor="middle" x="585.5" y="-73" font-family="Helvetica,sans-Serif" font-size="10.00">Logging.hpp</text>
</a>
</g>
</g>
<!-- Node1&#45;&gt;Node6 -->
<g id="edge5" class="edge">
<title>Node1&#45;&gt;Node6</title>
<path fill="none" stroke="#63b8ff" d="M1218.56,-355.69C1159.68,-350.04 1069.76,-338.43 994.5,-316 869.64,-278.79 843.62,-254.08 727.5,-195 683.33,-172.53 667.26,-173.24 630.5,-140 616.11,-126.99 603.7,-108.59 595.58,-94.95"/>
<polygon fill="#63b8ff" stroke="#63b8ff" points="598.78,-93.48 590.78,-86.53 592.7,-96.95 598.78,-93.48"/>
</g>
<!-- Node14 -->
<g id="node14" class="node">
<title>Node14</title>
<g id="a_node14"><a xlink:href="_u_dma_buf_8hpp.html" target="_top" xlink:title=" ">
<polygon fill="white" stroke="#666666" points="1212,-310.5 1135,-310.5 1135,-291.5 1212,-291.5 1212,-310.5"/>
<text text-anchor="middle" x="1173.5" y="-298.5" font-family="Helvetica,sans-Serif" font-size="10.00">UDmaBuf.hpp</text>
</a>
</g>
</g>
<!-- Node1&#45;&gt;Node14 -->
<g id="edge14" class="edge">
<title>Node1&#45;&gt;Node14</title>
<path fill="none" stroke="#63b8ff" d="M1265.1,-351.62C1247.81,-342.25 1220.32,-327.36 1199.96,-316.33"/>
<polygon fill="#63b8ff" stroke="#63b8ff" points="1201.85,-313.37 1191.39,-311.69 1198.51,-319.53 1201.85,-313.37"/>
</g>
<!-- Node22 -->
<g id="node22" class="node">
<title>Node22</title>
<g id="a_node22"><a xlink:href="_uio_axi_dma_if_8hpp.html" target="_top" xlink:title=" ">
<polygon fill="white" stroke="#666666" points="1093,-310.5 1004,-310.5 1004,-291.5 1093,-291.5 1093,-310.5"/>
<text text-anchor="middle" x="1048.5" y="-298.5" font-family="Helvetica,sans-Serif" font-size="10.00">UioAxiDmaIf.hpp</text>
</a>
</g>
</g>
<!-- Node1&#45;&gt;Node22 -->
<g id="edge26" class="edge">
<title>Node1&#45;&gt;Node22</title>
<path fill="none" stroke="#63b8ff" d="M1245.86,-351.55C1205.52,-341.42 1139.65,-324.89 1095.22,-313.73"/>
<polygon fill="#63b8ff" stroke="#63b8ff" points="1096.16,-310.36 1085.61,-311.32 1094.45,-317.15 1096.16,-310.36"/>
</g>
<!-- Node34 -->
<g id="node34" class="node">
<title>Node34</title>
<g id="a_node34"><a xlink:href="_uio_mem_sgdma_8hpp.html" target="_top" xlink:title=" ">
<polygon fill="white" stroke="#666666" points="1332.5,-310.5 1230.5,-310.5 1230.5,-291.5 1332.5,-291.5 1332.5,-310.5"/>
<text text-anchor="middle" x="1281.5" y="-298.5" font-family="Helvetica,sans-Serif" font-size="10.00">UioMemSgdma.hpp</text>
</a>
</g>
</g>
<!-- Node1&#45;&gt;Node34 -->
<g id="edge60" class="edge">
<title>Node1&#45;&gt;Node34</title>
<path fill="none" stroke="#63b8ff" d="M1281.5,-351.87C1281.5,-344 1281.5,-332.1 1281.5,-321.89"/>
<polygon fill="#63b8ff" stroke="#63b8ff" points="1285,-322.18 1281.5,-312.18 1278,-322.18 1285,-322.18"/>
</g>
<!-- Node35 -->
<g id="node35" class="node">
<title>Node35</title>
<g id="a_node35"><a xlink:title=" ">
<polygon fill="#e0e0e0" stroke="#999999" points="1692.5,-316 1572.5,-316 1572.5,-286 1692.5,-286 1692.5,-316"/>
<text text-anchor="start" x="1580.5" y="-304" font-family="Helvetica,sans-Serif" font-size="10.00">boost/asio/posix/stream</text>
<text text-anchor="middle" x="1632.5" y="-293" font-family="Helvetica,sans-Serif" font-size="10.00">_descriptor.hpp</text>
</a>
</g>
</g>
<!-- Node1&#45;&gt;Node35 -->
<g id="edge63" class="edge">
<title>Node1&#45;&gt;Node35</title>
<path fill="none" stroke="#63b8ff" d="M1343.52,-351.51C1398.29,-343.39 1480.57,-330.75 1561.44,-316.33"/>
<polygon fill="#63b8ff" stroke="#63b8ff" points="1561.61,-319.85 1570.83,-314.64 1560.37,-312.96 1561.61,-319.85"/>
</g>
<!-- Node6&#45;&gt;Node2 -->
<g id="edge6" class="edge">
<title>Node6&#45;&gt;Node2</title>
<path fill="none" stroke="#63b8ff" d="M620.44,-68.37C625.49,-67.54 630.62,-66.73 635.5,-66 760.48,-47.41 796.13,-65.14 917.5,-30 918.47,-29.72 919.44,-29.41 920.42,-29.08"/>
<polygon fill="#63b8ff" stroke="#63b8ff" points="921.35,-32.48 929.32,-25.5 918.73,-25.99 921.35,-32.48"/>
</g>
<!-- Node7 -->
<g id="node7" class="node">
<title>Node7</title>
<g id="a_node7"><a xlink:title=" ">
<polygon fill="#e0e0e0" stroke="#999999" points="366.5,-24.5 270.5,-24.5 270.5,-5.5 366.5,-5.5 366.5,-24.5"/>
<text text-anchor="middle" x="318.5" y="-12.5" font-family="Helvetica,sans-Serif" font-size="10.00">boost/log/core.hpp</text>
</a>
</g>
</g>
<!-- Node6&#45;&gt;Node7 -->
<g id="edge7" class="edge">
<title>Node6&#45;&gt;Node7</title>
<path fill="none" stroke="#63b8ff" d="M550.87,-67.52C509.18,-59.03 437.08,-44.08 375.5,-30 372.18,-29.24 368.76,-28.44 365.31,-27.62"/>
<polygon fill="#63b8ff" stroke="#63b8ff" points="366.35,-24.28 355.81,-25.34 364.71,-31.08 366.35,-24.28"/>
</g>
<!-- Node8 -->
<g id="node8" class="node">
<title>Node8</title>
<g id="a_node8"><a xlink:title=" ">
<polygon fill="#e0e0e0" stroke="#999999" points="514,-24.5 385,-24.5 385,-5.5 514,-5.5 514,-24.5"/>
<text text-anchor="middle" x="449.5" y="-12.5" font-family="Helvetica,sans-Serif" font-size="10.00">boost/log/expressions.hpp</text>
</a>
</g>
</g>
<!-- Node6&#45;&gt;Node8 -->
<g id="edge8" class="edge">
<title>Node6&#45;&gt;Node8</title>
<path fill="none" stroke="#63b8ff" d="M564.84,-65.62C542.48,-55.99 506.54,-40.54 480.73,-29.43"/>
<polygon fill="#63b8ff" stroke="#63b8ff" points="482.31,-26.3 471.74,-25.57 479.54,-32.73 482.31,-26.3"/>
</g>
<!-- Node9 -->
<g id="node9" class="node">
<title>Node9</title>
<g id="a_node9"><a xlink:title=" ">
<polygon fill="#e0e0e0" stroke="#999999" points="633,-24.5 532,-24.5 532,-5.5 633,-5.5 633,-24.5"/>
<text text-anchor="middle" x="582.5" y="-12.5" font-family="Helvetica,sans-Serif" font-size="10.00">boost/log/trivial.hpp</text>
</a>
</g>
</g>
<!-- Node6&#45;&gt;Node9 -->
<g id="edge9" class="edge">
<title>Node6&#45;&gt;Node9</title>
<path fill="none" stroke="#63b8ff" d="M585.06,-65.87C584.65,-58 584.04,-46.1 583.52,-35.89"/>
<polygon fill="#63b8ff" stroke="#63b8ff" points="587.03,-35.99 583.02,-26.18 580.04,-36.35 587.03,-35.99"/>
</g>
<!-- Node10 -->
<g id="node10" class="node">
<title>Node10</title>
<g id="a_node10"><a xlink:title=" ">
<polygon fill="#e0e0e0" stroke="#999999" points="760,-30 651,-30 651,0 760,0 760,-30"/>
<text text-anchor="start" x="659" y="-18" font-family="Helvetica,sans-Serif" font-size="10.00">boost/log/utility/setup</text>
<text text-anchor="middle" x="705.5" y="-7" font-family="Helvetica,sans-Serif" font-size="10.00">/console.hpp</text>
</a>
</g>
</g>
<!-- Node6&#45;&gt;Node10 -->
<g id="edge10" class="edge">
<title>Node6&#45;&gt;Node10</title>
<path fill="none" stroke="#63b8ff" d="M603.73,-65.62C620.1,-57.63 644.73,-45.63 665.65,-35.43"/>
<polygon fill="#63b8ff" stroke="#63b8ff" points="667.06,-38.63 674.52,-31.1 664,-32.34 667.06,-38.63"/>
</g>
<!-- Node11 -->
<g id="node11" class="node">
<title>Node11</title>
<g id="a_node11"><a xlink:title=" ">
<polygon fill="#e0e0e0" stroke="#999999" points="909,-30 778,-30 778,0 909,0 909,-30"/>
<text text-anchor="start" x="786" y="-18" font-family="Helvetica,sans-Serif" font-size="10.00">boost/log/sources/severity</text>
<text text-anchor="middle" x="843.5" y="-7" font-family="Helvetica,sans-Serif" font-size="10.00">_channel_logger.hpp</text>
</a>
</g>
</g>
<!-- Node6&#45;&gt;Node11 -->
<g id="edge11" class="edge">
<title>Node6&#45;&gt;Node11</title>
<path fill="none" stroke="#63b8ff" d="M620.3,-66.61C658.07,-58.05 719.53,-44.11 768.4,-33.03"/>
<polygon fill="#63b8ff" stroke="#63b8ff" points="769.13,-36.45 778.1,-30.83 767.58,-29.63 769.13,-36.45"/>
</g>
<!-- Node12 -->
<g id="node12" class="node">
<title>Node12</title>
<g id="a_node12"><a xlink:title=" ">
<polygon fill="#e0e0e0" stroke="#999999" points="113,-30 0,-30 0,0 113,0 113,-30"/>
<text text-anchor="start" x="8" y="-18" font-family="Helvetica,sans-Serif" font-size="10.00">boost/log/support/date</text>
<text text-anchor="middle" x="56.5" y="-7" font-family="Helvetica,sans-Serif" font-size="10.00">_time.hpp</text>
</a>
</g>
</g>
<!-- Node6&#45;&gt;Node12 -->
<g id="edge12" class="edge">
<title>Node6&#45;&gt;Node12</title>
<path fill="none" stroke="#63b8ff" d="M550.69,-72.55C474.97,-68.02 289.42,-55.3 124.48,-30.35"/>
<polygon fill="#63b8ff" stroke="#63b8ff" points="125.06,-26.89 114.64,-28.84 124,-33.81 125.06,-26.89"/>
</g>
<!-- Node13 -->
<g id="node13" class="node">
<title>Node13</title>
<g id="a_node13"><a xlink:title=" ">
<polygon fill="#e0e0e0" stroke="#999999" points="252,-30 131,-30 131,0 252,0 252,-30"/>
<text text-anchor="start" x="139" y="-18" font-family="Helvetica,sans-Serif" font-size="10.00">boost/log/utility/setup</text>
<text text-anchor="middle" x="191.5" y="-7" font-family="Helvetica,sans-Serif" font-size="10.00">/common_attributes.hpp</text>
</a>
</g>
</g>
<!-- Node6&#45;&gt;Node13 -->
<g id="edge13" class="edge">
<title>Node6&#45;&gt;Node13</title>
<path fill="none" stroke="#63b8ff" d="M550.87,-70.45C493.4,-63.57 374.47,-48.69 263.25,-30.22"/>
<polygon fill="#63b8ff" stroke="#63b8ff" points="264.1,-26.82 253.66,-28.62 262.94,-33.72 264.1,-26.82"/>
</g>
<!-- Node14&#45;&gt;Node6 -->
<g id="edge25" class="edge">
<title>Node14&#45;&gt;Node6</title>
<path fill="none" stroke="#63b8ff" d="M1134.82,-291.91C1093.18,-282.9 1025.13,-267.3 967.5,-250 829.08,-208.45 786.88,-211.88 661.5,-140 639.02,-127.11 616.67,-107.39 602.08,-93.35"/>
<polygon fill="#63b8ff" stroke="#63b8ff" points="604.73,-91.04 595.15,-86.51 599.81,-96.03 604.73,-91.04"/>
</g>
<!-- Node15 -->
<g id="node15" class="node">
<title>Node15</title>
<g id="a_node15"><a xlink:href="_dma_buffer_abstract_8hpp.html" target="_top" xlink:title=" ">
<polygon fill="white" stroke="#666666" points="1340,-250 1223,-250 1223,-231 1340,-231 1340,-250"/>
<text text-anchor="middle" x="1281.5" y="-238" font-family="Helvetica,sans-Serif" font-size="10.00">DmaBufferAbstract.hpp</text>
</a>
</g>
</g>
<!-- Node14&#45;&gt;Node15 -->
<g id="edge15" class="edge">
<title>Node14&#45;&gt;Node15</title>
<path fill="none" stroke="#63b8ff" d="M1189.9,-291.12C1207.19,-281.75 1234.68,-266.86 1255.04,-255.83"/>
<polygon fill="#63b8ff" stroke="#63b8ff" points="1256.49,-259.03 1263.61,-251.19 1253.15,-252.87 1256.49,-259.03"/>
</g>
<!-- Node15&#45;&gt;Node3 -->
<g id="edge17" class="edge">
<title>Node15&#45;&gt;Node3</title>
<path fill="none" stroke="#63b8ff" d="M1301.01,-230.51C1319.13,-222.16 1346.35,-209.61 1367.1,-200.05"/>
<polygon fill="#63b8ff" stroke="#63b8ff" points="1368.29,-203.36 1375.91,-195.99 1365.36,-197 1368.29,-203.36"/>
</g>
<!-- Node15&#45;&gt;Node5 -->
<g id="edge18" class="edge">
<title>Node15&#45;&gt;Node5</title>
<path fill="none" stroke="#63b8ff" d="M1289.74,-230.76C1311.09,-208.67 1370.8,-150.33 1432.5,-121 1469.09,-103.61 1512.78,-92.85 1549.71,-86.28"/>
<polygon fill="#63b8ff" stroke="#63b8ff" points="1550.18,-89.75 1559.45,-84.63 1549,-82.85 1550.18,-89.75"/>
</g>
<!-- Node16 -->
<g id="node16" class="node">
<title>Node16</title>
<g id="a_node16"><a xlink:title=" ">
<polygon fill="#e0e0e0" stroke="#999999" points="1169.5,-195 1123.5,-195 1123.5,-176 1169.5,-176 1169.5,-195"/>
<text text-anchor="middle" x="1146.5" y="-183" font-family="Helvetica,sans-Serif" font-size="10.00">cstdint</text>
</a>
</g>
</g>
<!-- Node15&#45;&gt;Node16 -->
<g id="edge16" class="edge">
<title>Node15&#45;&gt;Node16</title>
<path fill="none" stroke="#63b8ff" d="M1258.6,-230.51C1236.94,-222.01 1204.19,-209.15 1179.68,-199.53"/>
<polygon fill="#63b8ff" stroke="#63b8ff" points="1181.06,-196.31 1170.47,-195.91 1178.5,-202.82 1181.06,-196.31"/>
</g>
<!-- Node17 -->
<g id="node17" class="node">
<title>Node17</title>
<g id="a_node17"><a xlink:href="_uio_config_8hpp.html" target="_top" xlink:title=" ">
<polygon fill="white" stroke="#666666" points="1150,-85 1039,-85 1039,-66 1150,-66 1150,-85"/>
<text text-anchor="middle" x="1094.5" y="-73" font-family="Helvetica,sans-Serif" font-size="10.00">udmaio/UioConfig.hpp</text>
</a>
</g>
</g>
<!-- Node15&#45;&gt;Node17 -->
<g id="edge19" class="edge">
<title>Node15&#45;&gt;Node17</title>
<path fill="none" stroke="#63b8ff" d="M1271.18,-230.5C1240.84,-204.06 1151.64,-126.31 1112.86,-92.5"/>
<polygon fill="#63b8ff" stroke="#63b8ff" points="1115.54,-90.2 1105.7,-86.26 1110.94,-95.47 1115.54,-90.2"/>
</g>
<!-- Node17&#45;&gt;Node2 -->
<g id="edge23" class="edge">
<title>Node17&#45;&gt;Node2</title>
<path fill="none" stroke="#63b8ff" d="M1068.92,-65.6C1044.84,-57.04 1007.89,-43.46 976.5,-30 976.28,-29.9 976.05,-29.81 975.82,-29.71"/>
<polygon fill="#63b8ff" stroke="#63b8ff" points="977.41,-26.59 966.86,-25.62 974.51,-32.95 977.41,-26.59"/>
</g>
<!-- Node18 -->
<g id="node18" class="node">
<title>Node18</title>
<g id="a_node18"><a xlink:title=" ">
<polygon fill="#e0e0e0" stroke="#999999" points="1270.5,-24.5 1216.5,-24.5 1216.5,-5.5 1270.5,-5.5 1270.5,-24.5"/>
<text text-anchor="middle" x="1243.5" y="-12.5" font-family="Helvetica,sans-Serif" font-size="10.00">iostream</text>
</a>
</g>
</g>
<!-- Node17&#45;&gt;Node18 -->
<g id="edge20" class="edge">
<title>Node17&#45;&gt;Node18</title>
<path fill="none" stroke="#63b8ff" d="M1117.13,-65.62C1141.85,-55.91 1181.71,-40.26 1210.04,-29.14"/>
<polygon fill="#63b8ff" stroke="#63b8ff" points="1211.22,-32.43 1219.25,-25.52 1208.66,-25.92 1211.22,-32.43"/>
</g>
<!-- Node19 -->
<g id="node19" class="node">
<title>Node19</title>
<g id="a_node19"><a xlink:title=" ">
<polygon fill="#e0e0e0" stroke="#999999" points="1037,-24.5 986,-24.5 986,-5.5 1037,-5.5 1037,-24.5"/>
<text text-anchor="middle" x="1011.5" y="-12.5" font-family="Helvetica,sans-Serif" font-size="10.00">memory</text>
</a>
</g>
</g>
<!-- Node17&#45;&gt;Node19 -->
<g id="edge21" class="edge">
<title>Node17&#45;&gt;Node19</title>
<path fill="none" stroke="#63b8ff" d="M1081.89,-65.62C1069.1,-56.6 1049.02,-42.45 1033.58,-31.56"/>
<polygon fill="#63b8ff" stroke="#63b8ff" points="1035.65,-28.74 1025.46,-25.84 1031.62,-34.46 1035.65,-28.74"/>
</g>
<!-- Node20 -->
<g id="node20" class="node">
<title>Node20</title>
<g id="a_node20"><a xlink:title=" ">
<polygon fill="#e0e0e0" stroke="#999999" points="1114,-24.5 1055,-24.5 1055,-5.5 1114,-5.5 1114,-24.5"/>
<text text-anchor="middle" x="1084.5" y="-12.5" font-family="Helvetica,sans-Serif" font-size="10.00">stdexcept</text>
</a>
</g>
</g>
<!-- Node17&#45;&gt;Node20 -->
<g id="edge22" class="edge">
<title>Node17&#45;&gt;Node20</title>
<path fill="none" stroke="#63b8ff" d="M1093.02,-65.87C1091.68,-58 1089.64,-46.1 1087.9,-35.89"/>
<polygon fill="#63b8ff" stroke="#63b8ff" points="1091.37,-35.43 1086.24,-26.16 1084.47,-36.61 1091.37,-35.43"/>
</g>
<!-- Node21 -->
<g id="node21" class="node">
<title>Node21</title>
<g id="a_node21"><a xlink:title=" ">
<polygon fill="#e0e0e0" stroke="#999999" points="1198.5,-24.5 1132.5,-24.5 1132.5,-5.5 1198.5,-5.5 1198.5,-24.5"/>
<text text-anchor="middle" x="1165.5" y="-12.5" font-family="Helvetica,sans-Serif" font-size="10.00">string_view</text>
</a>
</g>
</g>
<!-- Node17&#45;&gt;Node21 -->
<g id="edge24" class="edge">
<title>Node17&#45;&gt;Node21</title>
<path fill="none" stroke="#63b8ff" d="M1105.28,-65.62C1116.02,-56.77 1132.75,-42.98 1145.85,-32.19"/>
<polygon fill="#63b8ff" stroke="#63b8ff" points="1147.95,-34.99 1153.45,-25.93 1143.5,-29.59 1147.95,-34.99"/>
</g>
<!-- Node23 -->
<g id="node23" class="node">
<title>Node23</title>
<g id="a_node23"><a xlink:href="_reg_accessor_8hpp.html" target="_top" xlink:title=" ">
<polygon fill="white" stroke="#666666" points="1070,-250 977,-250 977,-231 1070,-231 1070,-250"/>
<text text-anchor="middle" x="1023.5" y="-238" font-family="Helvetica,sans-Serif" font-size="10.00">RegAccessor.hpp</text>
</a>
</g>
</g>
<!-- Node22&#45;&gt;Node23 -->
<g id="edge27" class="edge">
<title>Node22&#45;&gt;Node23</title>
<path fill="none" stroke="#63b8ff" d="M1044.81,-291.37C1041.38,-283.33 1036.14,-271.07 1031.71,-260.72"/>
<polygon fill="#63b8ff" stroke="#63b8ff" points="1034.95,-259.38 1027.8,-251.56 1028.51,-262.13 1034.95,-259.38"/>
</g>
<!-- Node24 -->
<g id="node24" class="node">
<title>Node24</title>
<g id="a_node24"><a xlink:href="_uio_if_8hpp.html" target="_top" xlink:title=" ">
<polygon fill="white" stroke="#666666" points="1063.5,-195 973.5,-195 973.5,-176 1063.5,-176 1063.5,-195"/>
<text text-anchor="middle" x="1018.5" y="-183" font-family="Helvetica,sans-Serif" font-size="10.00">udmaio/UioIf.hpp</text>
</a>
</g>
</g>
<!-- Node22&#45;&gt;Node24 -->
<g id="edge57" class="edge">
<title>Node22&#45;&gt;Node24</title>
<path fill="none" stroke="#63b8ff" d="M1021.02,-291.11C1002.27,-283.45 978.85,-270.35 967.5,-250 957.44,-231.98 975.44,-213.86 992.76,-201.62"/>
<polygon fill="#63b8ff" stroke="#63b8ff" points="994.43,-204.71 1000.87,-196.29 990.59,-198.86 994.43,-204.71"/>
</g>
<!-- Node33 -->
<g id="node33" class="node">
<title>Node33</title>
<g id="a_node33"><a xlink:href="_axi_dma_8hpp.html" target="_top" xlink:title=" ">
<polygon fill="white" stroke="#666666" points="1204.5,-250 1088.5,-250 1088.5,-231 1204.5,-231 1204.5,-250"/>
<text text-anchor="middle" x="1146.5" y="-238" font-family="Helvetica,sans-Serif" font-size="10.00">udmaio/rdl/AxiDma.hpp</text>
</a>
</g>
</g>
<!-- Node22&#45;&gt;Node33 -->
<g id="edge58" class="edge">
<title>Node22&#45;&gt;Node33</title>
<path fill="none" stroke="#63b8ff" d="M1063.38,-291.12C1078.85,-281.88 1103.33,-267.27 1121.72,-256.29"/>
<polygon fill="#63b8ff" stroke="#63b8ff" points="1123.38,-259.38 1130.18,-251.24 1119.8,-253.36 1123.38,-259.38"/>
</g>
<!-- Node23&#45;&gt;Node16 -->
<g id="edge28" class="edge">
<title>Node23&#45;&gt;Node16</title>
<path fill="none" stroke="#63b8ff" d="M1044.37,-230.51C1063.92,-222.08 1093.4,-209.38 1115.67,-199.79"/>
<polygon fill="#63b8ff" stroke="#63b8ff" points="1116.75,-203.13 1124.55,-195.96 1113.98,-196.7 1116.75,-203.13"/>
</g>
<!-- Node23&#45;&gt;Node24 -->
<g id="edge29" class="edge">
<title>Node23&#45;&gt;Node24</title>
<path fill="none" stroke="#63b8ff" d="M1022.67,-230.75C1022.06,-224.27 1021.2,-215.16 1020.42,-206.9"/>
<polygon fill="#63b8ff" stroke="#63b8ff" points="1023.91,-206.58 1019.49,-196.95 1016.94,-207.23 1023.91,-206.58"/>
</g>
<!-- Node24&#45;&gt;Node2 -->
<g id="edge34" class="edge">
<title>Node24&#45;&gt;Node2</title>
<path fill="none" stroke="#63b8ff" d="M973.14,-183.18C903.74,-180.2 775.81,-170.6 743.5,-140 719.31,-117.09 710.3,-91.7 731.5,-66 785.08,-1.05 837.41,-56 917.5,-30 918.3,-29.74 919.11,-29.46 919.91,-29.18"/>
<polygon fill="#63b8ff" stroke="#63b8ff" points="921.03,-32.5 928.94,-25.46 918.36,-26.03 921.03,-32.5"/>
</g>
<!-- Node24&#45;&gt;Node5 -->
<g id="edge35" class="edge">
<title>Node24&#45;&gt;Node5</title>
<path fill="none" stroke="#63b8ff" d="M1063.96,-179.71C1141.03,-171.36 1294.1,-153.71 1346.5,-140 1368.7,-134.19 1372.46,-127.39 1394.5,-121 1446.54,-105.92 1506.59,-94.65 1552.96,-87.23"/>
<polygon fill="#63b8ff" stroke="#63b8ff" points="1553.31,-90.72 1562.64,-85.7 1552.22,-83.8 1553.31,-90.72"/>
</g>
<!-- Node24&#45;&gt;Node6 -->
<g id="edge55" class="edge">
<title>Node24&#45;&gt;Node6</title>
<path fill="none" stroke="#63b8ff" d="M973,-182.48C912.16,-178.76 801.52,-168.38 711.5,-140 673.68,-128.08 633.31,-105.84 608.74,-91.11"/>
<polygon fill="#63b8ff" stroke="#63b8ff" points="610.88,-88.31 600.52,-86.09 607.23,-94.29 610.88,-88.31"/>
</g>
<!-- Node24&#45;&gt;Node17 -->
<g id="edge56" class="edge">
<title>Node24&#45;&gt;Node17</title>
<path fill="none" stroke="#63b8ff" d="M1040.16,-175.58C1055.08,-168.27 1074.04,-156.44 1084.5,-140 1092.67,-127.16 1094.98,-109.97 1095.34,-96.72"/>
<polygon fill="#63b8ff" stroke="#63b8ff" points="1098.85,-96.96 1095.25,-87 1091.85,-97.03 1098.85,-96.96"/>
</g>
<!-- Node24&#45;&gt;Node18 -->
<g id="edge32" class="edge">
<title>Node24&#45;&gt;Node18</title>
<path fill="none" stroke="#63b8ff" d="M1063.77,-178.38C1116.24,-170.93 1205.15,-157.19 1280.5,-140 1310.26,-133.21 1316.9,-128.44 1346.5,-121 1420.14,-102.49 1465.8,-144.08 1513.5,-85 1518.8,-78.43 1518.9,-72.49 1513.5,-66 1484.53,-31.17 1349.72,-20.5 1282.22,-17.31"/>
<polygon fill="#63b8ff" stroke="#63b8ff" points="1282.48,-13.82 1272.34,-16.88 1282.17,-20.81 1282.48,-13.82"/>
</g>
<!-- Node24&#45;&gt;Node19 -->
<g id="edge33" class="edge">
<title>Node24&#45;&gt;Node19</title>
<path fill="none" stroke="#63b8ff" d="M973.27,-181.04C879.67,-172.24 678.8,-143.91 745.5,-66 779.29,-26.54 926.4,-43.73 976.5,-30 977.88,-29.62 979.29,-29.2 980.7,-28.76"/>
<polygon fill="#63b8ff" stroke="#63b8ff" points="981.74,-32.1 989.98,-25.44 979.39,-25.51 981.74,-32.1"/>
</g>
<!-- Node25 -->
<g id="node25" class="node">
<title>Node25</title>
<g id="a_node25"><a xlink:title=" ">
<polygon fill="#e0e0e0" stroke="#999999" points="814.5,-85 754.5,-85 754.5,-66 814.5,-66 814.5,-85"/>
<text text-anchor="middle" x="784.5" y="-73" font-family="Helvetica,sans-Serif" font-size="10.00">filesystem</text>
</a>
</g>
</g>
<!-- Node24&#45;&gt;Node25 -->
<g id="edge30" class="edge">
<title>Node24&#45;&gt;Node25</title>
<path fill="none" stroke="#63b8ff" d="M992.06,-175.59C968.08,-167.23 931.92,-153.96 901.5,-140 868.71,-124.95 832.41,-104.64 809.07,-91.09"/>
<polygon fill="#63b8ff" stroke="#63b8ff" points="811.02,-88.18 800.62,-86.14 807.48,-94.22 811.02,-88.18"/>
</g>
<!-- Node26 -->
<g id="node26" class="node">
<title>Node26</title>
<g id="a_node26"><a xlink:title=" ">
<polygon fill="#e0e0e0" stroke="#999999" points="882.5,-85 832.5,-85 832.5,-66 882.5,-66 882.5,-85"/>
<text text-anchor="middle" x="857.5" y="-73" font-family="Helvetica,sans-Serif" font-size="10.00">fstream</text>
</a>
</g>
</g>
<!-- Node24&#45;&gt;Node26 -->
<g id="edge31" class="edge">
<title>Node24&#45;&gt;Node26</title>
<path fill="none" stroke="#63b8ff" d="M995.85,-175.54C976.82,-167.54 949.33,-154.8 927.5,-140 907.22,-126.25 886.79,-106.94 873.28,-93.23"/>
<polygon fill="#63b8ff" stroke="#63b8ff" points="875.99,-91 866.52,-86.24 870.95,-95.86 875.99,-91"/>
</g>
<!-- Node27 -->
<g id="node27" class="node">
<title>Node27</title>
<g id="a_node27"><a xlink:title=" ">
<polygon fill="#e0e0e0" stroke="#999999" points="944,-85 901,-85 901,-66 944,-66 944,-85"/>
<text text-anchor="middle" x="922.5" y="-73" font-family="Helvetica,sans-Serif" font-size="10.00">fcntl.h</text>
</a>
</g>
</g>
<!-- Node24&#45;&gt;Node27 -->
<g id="edge36" class="edge">
<title>Node24&#45;&gt;Node27</title>
<path fill="none" stroke="#63b8ff" d="M992.92,-175.51C976.05,-168.34 954.71,-156.72 941.5,-140 931.66,-127.55 926.91,-110.08 924.62,-96.62"/>
<polygon fill="#63b8ff" stroke="#63b8ff" points="928.09,-96.18 923.29,-86.73 921.15,-97.11 928.09,-96.18"/>
</g>
<!-- Node28 -->
<g id="node28" class="node">
<title>Node28</title>
<g id="a_node28"><a xlink:title=" ">
<polygon fill="#e0e0e0" stroke="#999999" points="1276,-85 1207,-85 1207,-66 1276,-66 1276,-85"/>
<text text-anchor="middle" x="1241.5" y="-73" font-family="Helvetica,sans-Serif" font-size="10.00">sys/mman.h</text>
</a>
</g>
</g>
<!-- Node24&#45;&gt;Node28 -->
<g id="edge37" class="edge">
<title>Node24&#45;&gt;Node28</title>
<path fill="none" stroke="#63b8ff" d="M1036.75,-175.66C1075.46,-156.91 1166.08,-113.03 1212.69,-90.45"/>
<polygon fill="#63b8ff" stroke="#63b8ff" points="1214.16,-93.63 1221.64,-86.12 1211.11,-87.33 1214.16,-93.63"/>
</g>
<!-- Node29 -->
<g id="node29" class="node">
<title>Node29</title>
<g id="a_node29"><a xlink:title=" ">
<polygon fill="#e0e0e0" stroke="#999999" points="1353,-85 1294,-85 1294,-66 1353,-66 1353,-85"/>
<text text-anchor="middle" x="1323.5" y="-73" font-family="Helvetica,sans-Serif" font-size="10.00">sys/stat.h</text>
</a>
</g>
</g>
<!-- Node24&#45;&gt;Node29 -->
<g id="edge38" class="edge">
<title>Node24&#45;&gt;Node29</title>
<path fill="none" stroke="#63b8ff" d="M1043.61,-175.65C1069.04,-166.67 1109.51,-152.39 1144.5,-140 1194.22,-122.4 1251.69,-102 1287.81,-89.18"/>
<polygon fill="#63b8ff" stroke="#63b8ff" points="1288.63,-92.6 1296.88,-85.96 1286.29,-86 1288.63,-92.6"/>
</g>
<!-- Node30 -->
<g id="node30" class="node">
<title>Node30</title>
<g id="a_node30"><a xlink:title=" ">
<polygon fill="#e0e0e0" stroke="#999999" points="1436,-85 1371,-85 1371,-66 1436,-66 1436,-85"/>
<text text-anchor="middle" x="1403.5" y="-73" font-family="Helvetica,sans-Serif" font-size="10.00">sys/types.h</text>
</a>
</g>
</g>
<!-- Node24&#45;&gt;Node30 -->
<g id="edge39" class="edge">
<title>Node24&#45;&gt;Node30</title>
<path fill="none" stroke="#63b8ff" d="M1052.15,-175.53C1085.33,-166.64 1137.46,-152.58 1182.5,-140 1245.1,-122.51 1317.48,-101.58 1361.86,-88.66"/>
<polygon fill="#63b8ff" stroke="#63b8ff" points="1362.72,-92.06 1371.34,-85.9 1360.76,-85.34 1362.72,-92.06"/>
</g>
<!-- Node31 -->
<g id="node31" class="node">
<title>Node31</title>
<g id="a_node31"><a xlink:title=" ">
<polygon fill="#e0e0e0" stroke="#999999" points="1504.5,-85 1454.5,-85 1454.5,-66 1504.5,-66 1504.5,-85"/>
<text text-anchor="middle" x="1479.5" y="-73" font-family="Helvetica,sans-Serif" font-size="10.00">unistd.h</text>
</a>
</g>
</g>
<!-- Node24&#45;&gt;Node31 -->
<g id="edge40" class="edge">
<title>Node24&#45;&gt;Node31</title>
<path fill="none" stroke="#63b8ff" d="M1063.48,-175.57C1106.28,-166.94 1172.43,-153.26 1229.5,-140 1305.82,-122.27 1394.6,-99.11 1443.16,-86.23"/>
<polygon fill="#63b8ff" stroke="#63b8ff" points="1443.8,-89.68 1452.57,-83.72 1442.01,-82.91 1443.8,-89.68"/>
</g>
<!-- Node32 -->
<g id="node32" class="node">
<title>Node32</title>
<g id="a_node32"><a xlink:href="_hw_accessor_8hpp.html" target="_top" xlink:title=" ">
<polygon fill="white" stroke="#666666" points="1076,-140 951,-140 951,-121 1076,-121 1076,-140"/>
<text text-anchor="middle" x="1013.5" y="-128" font-family="Helvetica,sans-Serif" font-size="10.00">udmaio/HwAccessor.hpp</text>
</a>
</g>
</g>
<!-- Node24&#45;&gt;Node32 -->
<g id="edge41" class="edge">
<title>Node24&#45;&gt;Node32</title>
<path fill="none" stroke="#63b8ff" d="M1017.67,-175.75C1017.06,-169.27 1016.2,-160.16 1015.42,-151.9"/>
<polygon fill="#63b8ff" stroke="#63b8ff" points="1018.91,-151.58 1014.49,-141.95 1011.94,-152.23 1018.91,-151.58"/>
</g>
<!-- Node32&#45;&gt;Node2 -->
<g id="edge46" class="edge">
<title>Node32&#45;&gt;Node2</title>
<path fill="none" stroke="#63b8ff" d="M1008.32,-120.59C997.57,-102.11 972.65,-59.26 958.27,-34.52"/>
<polygon fill="#63b8ff" stroke="#63b8ff" points="961.47,-33.06 953.42,-26.17 955.42,-36.58 961.47,-33.06"/>
</g>
<!-- Node32&#45;&gt;Node5 -->
<g id="edge47" class="edge">
<title>Node32&#45;&gt;Node5</title>
<path fill="none" stroke="#63b8ff" d="M1076.24,-124.1C1188.95,-114.4 1425.46,-94.05 1549.58,-83.38"/>
<polygon fill="#63b8ff" stroke="#63b8ff" points="1549.7,-86.88 1559.36,-82.53 1549.1,-79.9 1549.7,-86.88"/>
</g>
<!-- Node32&#45;&gt;Node6 -->
<g id="edge53" class="edge">
<title>Node32&#45;&gt;Node6</title>
<path fill="none" stroke="#63b8ff" d="M950.81,-121.74C863.9,-110.97 708.84,-91.77 631.71,-82.22"/>
<polygon fill="#63b8ff" stroke="#63b8ff" points="632.32,-78.77 621.97,-81.02 631.46,-85.72 632.32,-78.77"/>
</g>
<!-- Node32&#45;&gt;Node17 -->
<g id="edge54" class="edge">
<title>Node32&#45;&gt;Node17</title>
<path fill="none" stroke="#63b8ff" d="M1027.24,-120.51C1039.3,-112.62 1057.09,-100.98 1071.34,-91.65"/>
<polygon fill="#63b8ff" stroke="#63b8ff" points="1073.24,-94.59 1079.7,-86.19 1069.41,-88.73 1073.24,-94.59"/>
</g>
<!-- Node32&#45;&gt;Node18 -->
<g id="edge44" class="edge">
<title>Node32&#45;&gt;Node18</title>
<path fill="none" stroke="#63b8ff" d="M1058.72,-120.55C1088.51,-113.51 1127.73,-102.02 1159.5,-85 1185.61,-71.01 1211.27,-48.25 1227.23,-32.72"/>
<polygon fill="#63b8ff" stroke="#63b8ff" points="1229.35,-35.54 1233.96,-26.01 1224.41,-30.59 1229.35,-35.54"/>
</g>
<!-- Node32&#45;&gt;Node19 -->
<g id="edge45" class="edge">
<title>Node32&#45;&gt;Node19</title>
<path fill="none" stroke="#63b8ff" d="M1013.34,-120.59C1013.02,-102.53 1012.3,-61.17 1011.86,-36.21"/>
<polygon fill="#63b8ff" stroke="#63b8ff" points="1015.36,-36.31 1011.68,-26.38 1008.36,-36.44 1015.36,-36.31"/>
</g>
<!-- Node32&#45;&gt;Node25 -->
<g id="edge42" class="edge">
<title>Node32&#45;&gt;Node25</title>
<path fill="none" stroke="#63b8ff" d="M974.65,-120.51C933.27,-110.93 868.04,-95.83 825.76,-86.05"/>
<polygon fill="#63b8ff" stroke="#63b8ff" points="826.75,-82.69 816.22,-83.84 825.17,-89.51 826.75,-82.69"/>
</g>
<!-- Node32&#45;&gt;Node26 -->
<g id="edge43" class="edge">
<title>Node32&#45;&gt;Node26</title>
<path fill="none" stroke="#63b8ff" d="M987.04,-120.51C961.33,-111.77 922.1,-98.45 893.55,-88.75"/>
<polygon fill="#63b8ff" stroke="#63b8ff" points="894.83,-85.48 884.23,-85.58 892.57,-92.11 894.83,-85.48"/>
</g>
<!-- Node32&#45;&gt;Node27 -->
<g id="edge48" class="edge">
<title>Node32&#45;&gt;Node27</title>
<path fill="none" stroke="#63b8ff" d="M998.06,-120.51C984.25,-112.47 963.75,-100.53 947.59,-91.11"/>
<polygon fill="#63b8ff" stroke="#63b8ff" points="949.42,-88.13 939.02,-86.12 945.9,-94.18 949.42,-88.13"/>
</g>
<!-- Node32&#45;&gt;Node28 -->
<g id="edge49" class="edge">
<title>Node32&#45;&gt;Node28</title>
<path fill="none" stroke="#63b8ff" d="M1052.18,-120.51C1091.86,-111.28 1153.59,-96.93 1195.7,-87.15"/>
<polygon fill="#63b8ff" stroke="#63b8ff" points="1196.33,-90.59 1205.28,-84.92 1194.74,-83.78 1196.33,-90.59"/>
</g>
<!-- Node32&#45;&gt;Node29 -->
<g id="edge50" class="edge">
<title>Node32&#45;&gt;Node29</title>
<path fill="none" stroke="#63b8ff" d="M1074.72,-120.52C1127.48,-112.55 1205.95,-100.13 1282.83,-85.43"/>
<polygon fill="#63b8ff" stroke="#63b8ff" points="1283.02,-88.96 1292.18,-83.63 1281.7,-82.09 1283.02,-88.96"/>
</g>
<!-- Node32&#45;&gt;Node30 -->
<g id="edge51" class="edge">
<title>Node32&#45;&gt;Node30</title>
<path fill="none" stroke="#63b8ff" d="M1076.45,-122.96C1144.1,-115.6 1255.04,-102.57 1359.78,-85.35"/>
<polygon fill="#63b8ff" stroke="#63b8ff" points="1360.09,-88.84 1369.38,-83.75 1358.94,-81.94 1360.09,-88.84"/>
</g>
<!-- Node32&#45;&gt;Node31 -->
<g id="edge52" class="edge">
<title>Node32&#45;&gt;Node31</title>
<path fill="none" stroke="#63b8ff" d="M1076.49,-125.83C1158.72,-120.42 1307.26,-108.5 1443.31,-85.14"/>
<polygon fill="#63b8ff" stroke="#63b8ff" points="1443.59,-88.64 1452.84,-83.48 1442.39,-81.75 1443.59,-88.64"/>
</g>
<!-- Node33&#45;&gt;Node16 -->
<g id="edge59" class="edge">
<title>Node33&#45;&gt;Node16</title>
<path fill="none" stroke="#63b8ff" d="M1146.5,-230.75C1146.5,-224.27 1146.5,-215.16 1146.5,-206.9"/>
<polygon fill="#63b8ff" stroke="#63b8ff" points="1150,-206.96 1146.5,-196.96 1143,-206.96 1150,-206.96"/>
</g>
<!-- Node34&#45;&gt;Node15 -->
<g id="edge61" class="edge">
<title>Node34&#45;&gt;Node15</title>
<path fill="none" stroke="#63b8ff" d="M1281.5,-291.37C1281.5,-283.5 1281.5,-271.6 1281.5,-261.39"/>
<polygon fill="#63b8ff" stroke="#63b8ff" points="1285,-261.68 1281.5,-251.68 1278,-261.68 1285,-261.68"/>
</g>
<!-- Node34&#45;&gt;Node23 -->
<g id="edge62" class="edge">
<title>Node34&#45;&gt;Node23</title>
<path fill="none" stroke="#63b8ff" d="M1243.42,-291.07C1236.15,-289.37 1228.59,-287.62 1221.5,-286 1171.69,-274.59 1114.77,-261.83 1074.79,-252.91"/>
<polygon fill="#63b8ff" stroke="#63b8ff" points="1075.72,-249.53 1065.2,-250.77 1074.19,-256.36 1075.72,-249.53"/>
</g>
</g>
</svg>
        <g id="navigator" transform="translate(0 0)" fill="#404254">
                <rect fill="#f2f5e9" fill-opacity="0.5" stroke="#606060" stroke-width=".5" x="0" y="0" width="60" height="60"/>
                <use id="zoomplus" xlink:href="#zoomPlus" x="17" y="9" onmousedown="handleZoom(evt,'in')"/>
                <use id="zoomminus" xlink:href="#zoomMin" x="42" y="9" onmousedown="handleZoom(evt,'out')"/>
                <use id="reset" xlink:href="#resetDef" x="30" y="36" onmousedown="handleReset()"/>
                <g id="arrowUp" xlink:href="#dirArrow" transform="translate(30 24)" onmousedown="handlePan(0,-1)">
                  <use xlink:href="#rim" fill="#404040">
                        <set attributeName="fill" to="#808080" begin="arrowUp.mouseover" end="arrowUp.mouseout"/>
                  </use>
                  <path fill="none" stroke="white" stroke-width="1.5" d="M0,-3.0v7 M-2.5,-0.5L0,-3.0L2.5,-0.5"/>
                </g>
                <g id="arrowRight" xlink:href="#dirArrow" transform="rotate(90) translate(36 -43)" onmousedown="handlePan(1,0)">
                  <use xlink:href="#rim" fill="#404040">
                        <set attributeName="fill" to="#808080" begin="arrowRight.mouseover" end="arrowRight.mouseout"/>
                  </use>
                  <path fill="none" stroke="white" stroke-width="1.5" d="M0,-3.0v7 M-2.5,-0.5L0,-3.0L2.5,-0.5"/>
                </g>
                <g id="arrowDown" xlink:href="#dirArrow" transform="rotate(180) translate(-30 -48)" onmousedown="handlePan(0,1)">
                  <use xlink:href="#rim" fill="#404040">
                        <set attributeName="fill" to="#808080" begin="arrowDown.mouseover" end="arrowDown.mouseout"/>
                  </use>
                  <path fill="none" stroke="white" stroke-width="1.5" d="M0,-3.0v7 M-2.5,-0.5L0,-3.0L2.5,-0.5"/>
                </g>
                <g id="arrowLeft" xlink:href="#dirArrow" transform="rotate(270) translate(-36 17)" onmousedown="handlePan(-1,0)">
                  <use xlink:href="#rim" fill="#404040">
                        <set attributeName="fill" to="#808080" begin="arrowLeft.mouseover" end="arrowLeft.mouseout"/>
                  </use>
                  <path fill="none" stroke="white" stroke-width="1.5" d="M0,-3.0v7 M-2.5,-0.5L0,-3.0L2.5,-0.5"/>
                </g>
        </g>
        <svg viewBox="0 0 15 15" width="100%" height="30px" preserveAspectRatio="xMaxYMin meet">
         <g id="arrow_out" transform="scale(0.3 0.3)">
          <a xlink:href="_data_handler_abstract_8hpp__incl_org.svg" target="_base">
           <rect id="button" ry="5" rx="5" y="6" x="6" height="38" width="38"
                fill="#f2f5e9" fill-opacity="0.5" stroke="#606060" stroke-width="1.0"/>
           <path id="arrow"
             d="M 11.500037,31.436501 C 11.940474,20.09759 22.043105,11.32322 32.158766,21.979434 L 37.068811,17.246167 C 37.068811,17.246167 37.088388,32 37.088388,32 L 22.160133,31.978069 C 22.160133,31.978069 26.997745,27.140456 26.997745,27.140456 C 18.528582,18.264221 13.291696,25.230495 11.500037,31.436501 z"
             style="fill:#404040;"/>
          </a>
         </g>
        </svg>
</svg>
