<?xml version="1.0" encoding="UTF-8" standalone="no"?>
<!DOCTYPE svg PUBLIC "-//W3C//DTD SVG 1.1//EN"
 "http://www.w3.org/Graphics/SVG/1.1/DTD/svg11.dtd">
<!-- Generated by graphviz version 7.0.5 (20221223.1930)
 -->
<!-- Title: DataHandlerPrint.hpp Pages: 1 -->
<svg width="1611pt" height="434pt"
 viewBox="0.00 0.00 1611.00 434.00" xmlns="http://www.w3.org/2000/svg" xmlns:xlink="http://www.w3.org/1999/xlink">
<g id="graph0" class="graph" transform="scale(1 1) rotate(0) translate(4 430)">
<title>DataHandlerPrint.hpp</title>
<!-- Node1 -->
<g id="node1" class="node">
<title>Node1</title>
<g id="a_node1"><a xlink:title=" ">
<polygon fill="#999999" stroke="#666666" points="822.5,-426 713.5,-426 713.5,-407 822.5,-407 822.5,-426"/>
<text text-anchor="middle" x="768" y="-414" font-family="Helvetica,sans-Serif" font-size="10.00">DataHandlerPrint.hpp</text>
</a>
</g>
</g>
<!-- Node2 -->
<g id="node2" class="node">
<title>Node2</title>
<g id="a_node2"><a xlink:title=" ">
<polygon fill="#e0e0e0" stroke="#999999" points="671,-371 621,-371 621,-352 671,-352 671,-371"/>
<text text-anchor="middle" x="646" y="-359" font-family="Helvetica,sans-Serif" font-size="10.00">optional</text>
</a>
</g>
</g>
<!-- Node1&#45;&gt;Node2 -->
<g id="edge1" class="edge">
<title>Node1&#45;&gt;Node2</title>
<path fill="none" stroke="#63b8ff" d="M747.3,-406.51C728,-398.12 698.94,-385.5 676.89,-375.92"/>
<polygon fill="#63b8ff" stroke="#63b8ff" points="678.34,-372.74 667.78,-371.96 675.56,-379.16 678.34,-372.74"/>
</g>
<!-- Node3 -->
<g id="node3" class="node">
<title>Node3</title>
<g id="a_node3"><a xlink:title=" ">
<polygon fill="#e0e0e0" stroke="#999999" points="728.5,-371 689.5,-371 689.5,-352 728.5,-352 728.5,-371"/>
<text text-anchor="middle" x="709" y="-359" font-family="Helvetica,sans-Serif" font-size="10.00">utility</text>
</a>
</g>
</g>
<!-- Node1&#45;&gt;Node3 -->
<g id="edge2" class="edge">
<title>Node1&#45;&gt;Node3</title>
<path fill="none" stroke="#63b8ff" d="M757.99,-406.51C749.63,-399 737.5,-388.1 727.4,-379.03"/>
<polygon fill="#63b8ff" stroke="#63b8ff" points="729.76,-376.45 719.99,-372.37 725.09,-381.66 729.76,-376.45"/>
</g>
<!-- Node4 -->
<g id="node4" class="node">
<title>Node4</title>
<g id="a_node4"><a xlink:href="_axi_traffic_gen_lfsr_8hpp.html" target="_top" xlink:title=" ">
<polygon fill="white" stroke="#666666" points="1151,-371 1041,-371 1041,-352 1151,-352 1151,-371"/>
<text text-anchor="middle" x="1096" y="-359" font-family="Helvetica,sans-Serif" font-size="10.00">AxiTrafficGenLfsr.hpp</text>
</a>
</g>
</g>
<!-- Node1&#45;&gt;Node4 -->
<g id="edge3" class="edge">
<title>Node1&#45;&gt;Node4</title>
<path fill="none" stroke="#63b8ff" d="M822.9,-406.63C879.81,-397.43 968.81,-383.05 1029.63,-373.22"/>
<polygon fill="#63b8ff" stroke="#63b8ff" points="1029.84,-376.74 1039.15,-371.69 1028.72,-369.83 1029.84,-376.74"/>
</g>
<!-- Node6 -->
<g id="node6" class="node">
<title>Node6</title>
<g id="a_node6"><a xlink:href="_data_handler_abstract_8hpp.html" target="_top" xlink:title=" ">
<polygon fill="white" stroke="#666666" points="907,-371 747,-371 747,-352 907,-352 907,-371"/>
<text text-anchor="middle" x="827" y="-359" font-family="Helvetica,sans-Serif" font-size="10.00">udmaio/DataHandlerAbstract.hpp</text>
</a>
</g>
</g>
<!-- Node1&#45;&gt;Node6 -->
<g id="edge5" class="edge">
<title>Node1&#45;&gt;Node6</title>
<path fill="none" stroke="#63b8ff" d="M778.01,-406.51C786.37,-399 798.5,-388.1 808.6,-379.03"/>
<polygon fill="#63b8ff" stroke="#63b8ff" points="810.91,-381.66 816.01,-372.37 806.24,-376.45 810.91,-381.66"/>
</g>
<!-- Node5 -->
<g id="node5" class="node">
<title>Node5</title>
<g id="a_node5"><a xlink:title=" ">
<polygon fill="#e0e0e0" stroke="#999999" points="951,-195 905,-195 905,-176 951,-176 951,-195"/>
<text text-anchor="middle" x="928" y="-183" font-family="Helvetica,sans-Serif" font-size="10.00">cstdint</text>
</a>
</g>
</g>
<!-- Node4&#45;&gt;Node5 -->
<g id="edge4" class="edge">
<title>Node4&#45;&gt;Node5</title>
<path fill="none" stroke="#63b8ff" d="M1103.15,-351.66C1114,-337.1 1132.06,-307.53 1119,-286 1084.84,-229.68 1007.25,-203.76 962.17,-193.06"/>
<polygon fill="#63b8ff" stroke="#63b8ff" points="963.19,-189.71 952.67,-190.94 961.66,-196.54 963.19,-189.71"/>
</g>
<!-- Node7 -->
<g id="node7" class="node">
<title>Node7</title>
<g id="a_node7"><a xlink:title=" ">
<polygon fill="#e0e0e0" stroke="#999999" points="322.5,-24.5 281.5,-24.5 281.5,-5.5 322.5,-5.5 322.5,-24.5"/>
<text text-anchor="middle" x="302" y="-12.5" font-family="Helvetica,sans-Serif" font-size="10.00">string</text>
</a>
</g>
</g>
<!-- Node6&#45;&gt;Node7 -->
<g id="edge6" class="edge">
<title>Node6&#45;&gt;Node7</title>
<path fill="none" stroke="#63b8ff" d="M746.95,-352.78C743.93,-352.51 740.94,-352.25 738,-352 655.38,-344.96 0,-324.41 0,-241.5 0,-241.5 0,-241.5 0,-129.5 0,-41.16 252.05,-36.58 272,-30 272.8,-29.74 273.6,-29.46 274.41,-29.17"/>
<polygon fill="#63b8ff" stroke="#63b8ff" points="275.53,-32.49 283.43,-25.43 272.86,-26.02 275.53,-32.49"/>
</g>
<!-- Node8 -->
<g id="node8" class="node">
<title>Node8</title>
<g id="a_node8"><a xlink:title=" ">
<polygon fill="#e0e0e0" stroke="#999999" points="237,-195 193,-195 193,-176 237,-176 237,-195"/>
<text text-anchor="middle" x="215" y="-183" font-family="Helvetica,sans-Serif" font-size="10.00">vector</text>
</a>
</g>
</g>
<!-- Node6&#45;&gt;Node8 -->
<g id="edge7" class="edge">
<title>Node6&#45;&gt;Node8</title>
<path fill="none" stroke="#63b8ff" d="M746.95,-352.81C743.93,-352.53 740.94,-352.26 738,-352 642.71,-343.45 397.02,-353.49 309,-316 268.15,-298.6 257.96,-287.38 234,-250 225.53,-236.78 220.69,-219.62 218.02,-206.47"/>
<polygon fill="#63b8ff" stroke="#63b8ff" points="221.51,-206.09 216.34,-196.85 214.61,-207.3 221.51,-206.09"/>
</g>
<!-- Node9 -->
<g id="node9" class="node">
<title>Node9</title>
<g id="a_node9"><a xlink:title=" ">
<polygon fill="#e0e0e0" stroke="#999999" points="972,-310.5 892,-310.5 892,-291.5 972,-291.5 972,-310.5"/>
<text text-anchor="middle" x="932" y="-298.5" font-family="Helvetica,sans-Serif" font-size="10.00">boost/asio.hpp</text>
</a>
</g>
</g>
<!-- Node6&#45;&gt;Node9 -->
<g id="edge8" class="edge">
<title>Node6&#45;&gt;Node9</title>
<path fill="none" stroke="#63b8ff" d="M842.95,-351.62C859.68,-342.29 886.23,-327.5 906,-316.49"/>
<polygon fill="#63b8ff" stroke="#63b8ff" points="907.55,-319.63 914.58,-311.71 904.14,-313.51 907.55,-319.63"/>
</g>
<!-- Node10 -->
<g id="node10" class="node">
<title>Node10</title>
<g id="a_node10"><a xlink:title=" ">
<polygon fill="#e0e0e0" stroke="#999999" points="1085.5,-85 948.5,-85 948.5,-66 1085.5,-66 1085.5,-85"/>
<text text-anchor="middle" x="1017" y="-73" font-family="Helvetica,sans-Serif" font-size="10.00">boost/core/noncopyable.hpp</text>
</a>
</g>
</g>
<!-- Node6&#45;&gt;Node10 -->
<g id="edge9" class="edge">
<title>Node6&#45;&gt;Node10</title>
<path fill="none" stroke="#63b8ff" d="M831.75,-351.58C840.25,-336.36 859.38,-305.17 883,-286 912.33,-262.19 934.94,-278.27 960,-250 999.9,-205 1011.97,-131.42 1015.54,-96.33"/>
<polygon fill="#63b8ff" stroke="#63b8ff" points="1018.99,-97.04 1016.38,-86.77 1012.02,-96.43 1018.99,-97.04"/>
</g>
<!-- Node11 -->
<g id="node11" class="node">
<title>Node11</title>
<g id="a_node11"><a xlink:href="_logging_8hpp.html" target="_top" xlink:title=" ">
<polygon fill="white" stroke="#666666" points="1172.5,-85 1103.5,-85 1103.5,-66 1172.5,-66 1172.5,-85"/>
<text text-anchor="middle" x="1138" y="-73" font-family="Helvetica,sans-Serif" font-size="10.00">Logging.hpp</text>
</a>
</g>
</g>
<!-- Node6&#45;&gt;Node11 -->
<g id="edge10" class="edge">
<title>Node6&#45;&gt;Node11</title>
<path fill="none" stroke="#63b8ff" d="M907.27,-358C982.8,-353.98 1088.69,-343.46 1119,-316 1144.32,-293.06 1138,-275.67 1138,-241.5 1138,-241.5 1138,-241.5 1138,-184.5 1138,-153.92 1138,-118.48 1138,-96.77"/>
<polygon fill="#63b8ff" stroke="#63b8ff" points="1141.5,-96.97 1138,-86.97 1134.5,-96.97 1141.5,-96.97"/>
</g>
<!-- Node19 -->
<g id="node19" class="node">
<title>Node19</title>
<g id="a_node19"><a xlink:href="_u_dma_buf_8hpp.html" target="_top" xlink:title=" ">
<polygon fill="white" stroke="#666666" points="622.5,-310.5 545.5,-310.5 545.5,-291.5 622.5,-291.5 622.5,-310.5"/>
<text text-anchor="middle" x="584" y="-298.5" font-family="Helvetica,sans-Serif" font-size="10.00">UDmaBuf.hpp</text>
</a>
</g>
</g>
<!-- Node6&#45;&gt;Node19 -->
<g id="edge19" class="edge">
<title>Node6&#45;&gt;Node19</title>
<path fill="none" stroke="#63b8ff" d="M789.83,-351.55C747.58,-341.38 678.48,-324.74 632.14,-313.59"/>
<polygon fill="#63b8ff" stroke="#63b8ff" points="633.18,-310.24 622.64,-311.3 631.54,-317.05 633.18,-310.24"/>
</g>
<!-- Node26 -->
<g id="node26" class="node">
<title>Node26</title>
<g id="a_node26"><a xlink:href="_uio_axi_dma_if_8hpp.html" target="_top" xlink:title=" ">
<polygon fill="white" stroke="#666666" points="835.5,-310.5 746.5,-310.5 746.5,-291.5 835.5,-291.5 835.5,-310.5"/>
<text text-anchor="middle" x="791" y="-298.5" font-family="Helvetica,sans-Serif" font-size="10.00">UioAxiDmaIf.hpp</text>
</a>
</g>
</g>
<!-- Node6&#45;&gt;Node26 -->
<g id="edge32" class="edge">
<title>Node6&#45;&gt;Node26</title>
<path fill="none" stroke="#63b8ff" d="M821.69,-351.87C816.58,-343.57 808.71,-330.78 802.21,-320.22"/>
<polygon fill="#63b8ff" stroke="#63b8ff" points="805.35,-318.64 797.13,-311.96 799.39,-322.31 805.35,-318.64"/>
</g>
<!-- Node38 -->
<g id="node38" class="node">
<title>Node38</title>
<g id="a_node38"><a xlink:href="_uio_mem_sgdma_8hpp.html" target="_top" xlink:title=" ">
<polygon fill="white" stroke="#666666" points="420,-310.5 318,-310.5 318,-291.5 420,-291.5 420,-310.5"/>
<text text-anchor="middle" x="369" y="-298.5" font-family="Helvetica,sans-Serif" font-size="10.00">UioMemSgdma.hpp</text>
</a>
</g>
</g>
<!-- Node6&#45;&gt;Node38 -->
<g id="edge66" class="edge">
<title>Node6&#45;&gt;Node38</title>
<path fill="none" stroke="#63b8ff" d="M756.94,-351.55C668.18,-340.21 516.55,-320.85 431.53,-309.99"/>
<polygon fill="#63b8ff" stroke="#63b8ff" points="432.1,-306.53 421.74,-308.74 431.22,-313.48 432.1,-306.53"/>
</g>
<!-- Node40 -->
<g id="node40" class="node">
<title>Node40</title>
<g id="a_node40"><a xlink:title=" ">
<polygon fill="#e0e0e0" stroke="#999999" points="1110,-316 990,-316 990,-286 1110,-286 1110,-316"/>
<text text-anchor="start" x="998" y="-304" font-family="Helvetica,sans-Serif" font-size="10.00">boost/asio/posix/stream</text>
<text text-anchor="middle" x="1050" y="-293" font-family="Helvetica,sans-Serif" font-size="10.00">_descriptor.hpp</text>
</a>
</g>
</g>
<!-- Node6&#45;&gt;Node40 -->
<g id="edge71" class="edge">
<title>Node6&#45;&gt;Node40</title>
<path fill="none" stroke="#63b8ff" d="M860.87,-351.62C893.39,-343.08 943.4,-329.96 983.83,-319.36"/>
<polygon fill="#63b8ff" stroke="#63b8ff" points="984.71,-322.75 993.49,-316.82 982.93,-315.98 984.71,-322.75"/>
</g>
<!-- Node11&#45;&gt;Node7 -->
<g id="edge11" class="edge">
<title>Node11&#45;&gt;Node7</title>
<path fill="none" stroke="#63b8ff" d="M1103.33,-67.24C1100.52,-66.77 1097.72,-66.35 1095,-66 943.92,-46.39 463.22,-23.4 334.16,-17.46"/>
<polygon fill="#63b8ff" stroke="#63b8ff" points="334.45,-13.97 324.3,-17.01 334.13,-20.96 334.45,-13.97"/>
</g>
<!-- Node12 -->
<g id="node12" class="node">
<title>Node12</title>
<g id="a_node12"><a xlink:title=" ">
<polygon fill="#e0e0e0" stroke="#999999" points="1603,-24.5 1507,-24.5 1507,-5.5 1603,-5.5 1603,-24.5"/>
<text text-anchor="middle" x="1555" y="-12.5" font-family="Helvetica,sans-Serif" font-size="10.00">boost/log/core.hpp</text>
</a>
</g>
</g>
<!-- Node11&#45;&gt;Node12 -->
<g id="edge12" class="edge">
<title>Node11&#45;&gt;Node12</title>
<path fill="none" stroke="#63b8ff" d="M1172.96,-71.56C1237.53,-65.82 1379.7,-51.76 1498,-30 1502.05,-29.26 1506.23,-28.4 1510.42,-27.48"/>
<polygon fill="#63b8ff" stroke="#63b8ff" points="1510.95,-30.95 1519.91,-25.29 1509.38,-24.13 1510.95,-30.95"/>
</g>
<!-- Node13 -->
<g id="node13" class="node">
<title>Node13</title>
<g id="a_node13"><a xlink:title=" ">
<polygon fill="#e0e0e0" stroke="#999999" points="823.5,-24.5 694.5,-24.5 694.5,-5.5 823.5,-5.5 823.5,-24.5"/>
<text text-anchor="middle" x="759" y="-12.5" font-family="Helvetica,sans-Serif" font-size="10.00">boost/log/expressions.hpp</text>
</a>
</g>
</g>
<!-- Node11&#45;&gt;Node13 -->
<g id="edge13" class="edge">
<title>Node11&#45;&gt;Node13</title>
<path fill="none" stroke="#63b8ff" d="M1103.3,-67.46C1100.49,-66.95 1097.7,-66.45 1095,-66 979.07,-46.6 949,-48.93 833,-30 827.34,-29.08 821.44,-28.06 815.56,-27"/>
<polygon fill="#63b8ff" stroke="#63b8ff" points="816.29,-23.58 805.82,-25.22 815.03,-30.46 816.29,-23.58"/>
</g>
<!-- Node14 -->
<g id="node14" class="node">
<title>Node14</title>
<g id="a_node14"><a xlink:title=" ">
<polygon fill="#e0e0e0" stroke="#999999" points="942.5,-24.5 841.5,-24.5 841.5,-5.5 942.5,-5.5 942.5,-24.5"/>
<text text-anchor="middle" x="892" y="-12.5" font-family="Helvetica,sans-Serif" font-size="10.00">boost/log/trivial.hpp</text>
</a>
</g>
</g>
<!-- Node11&#45;&gt;Node14 -->
<g id="edge14" class="edge">
<title>Node11&#45;&gt;Node14</title>
<path fill="none" stroke="#63b8ff" d="M1103.02,-66.18C1060.53,-56.08 988.61,-38.97 940.72,-27.58"/>
<polygon fill="#63b8ff" stroke="#63b8ff" points="941.7,-24.22 931.16,-25.31 940.08,-31.03 941.7,-24.22"/>
</g>
<!-- Node15 -->
<g id="node15" class="node">
<title>Node15</title>
<g id="a_node15"><a xlink:title=" ">
<polygon fill="#e0e0e0" stroke="#999999" points="1069.5,-30 960.5,-30 960.5,0 1069.5,0 1069.5,-30"/>
<text text-anchor="start" x="968.5" y="-18" font-family="Helvetica,sans-Serif" font-size="10.00">boost/log/utility/setup</text>
<text text-anchor="middle" x="1015" y="-7" font-family="Helvetica,sans-Serif" font-size="10.00">/console.hpp</text>
</a>
</g>
</g>
<!-- Node11&#45;&gt;Node15 -->
<g id="edge15" class="edge">
<title>Node11&#45;&gt;Node15</title>
<path fill="none" stroke="#63b8ff" d="M1119.32,-65.62C1102.45,-57.59 1077.06,-45.52 1055.55,-35.29"/>
<polygon fill="#63b8ff" stroke="#63b8ff" points="1057.26,-32.22 1046.73,-31.09 1054.25,-38.55 1057.26,-32.22"/>
</g>
<!-- Node16 -->
<g id="node16" class="node">
<title>Node16</title>
<g id="a_node16"><a xlink:title=" ">
<polygon fill="#e0e0e0" stroke="#999999" points="1218.5,-30 1087.5,-30 1087.5,0 1218.5,0 1218.5,-30"/>
<text text-anchor="start" x="1095.5" y="-18" font-family="Helvetica,sans-Serif" font-size="10.00">boost/log/sources/severity</text>
<text text-anchor="middle" x="1153" y="-7" font-family="Helvetica,sans-Serif" font-size="10.00">_channel_logger.hpp</text>
</a>
</g>
</g>
<!-- Node11&#45;&gt;Node16 -->
<g id="edge16" class="edge">
<title>Node11&#45;&gt;Node16</title>
<path fill="none" stroke="#63b8ff" d="M1140.21,-65.87C1141.89,-59.33 1144.29,-49.99 1146.55,-41.15"/>
<polygon fill="#63b8ff" stroke="#63b8ff" points="1149.91,-42.14 1149,-31.58 1143.13,-40.4 1149.91,-42.14"/>
</g>
<!-- Node17 -->
<g id="node17" class="node">
<title>Node17</title>
<g id="a_node17"><a xlink:title=" ">
<polygon fill="#e0e0e0" stroke="#999999" points="1349.5,-30 1236.5,-30 1236.5,0 1349.5,0 1349.5,-30"/>
<text text-anchor="start" x="1244.5" y="-18" font-family="Helvetica,sans-Serif" font-size="10.00">boost/log/support/date</text>
<text text-anchor="middle" x="1293" y="-7" font-family="Helvetica,sans-Serif" font-size="10.00">_time.hpp</text>
</a>
</g>
</g>
<!-- Node11&#45;&gt;Node17 -->
<g id="edge17" class="edge">
<title>Node11&#45;&gt;Node17</title>
<path fill="none" stroke="#63b8ff" d="M1161.54,-65.62C1183.37,-57.38 1216.54,-44.86 1244.1,-34.45"/>
<polygon fill="#63b8ff" stroke="#63b8ff" points="1245.21,-37.78 1253.33,-30.97 1242.73,-31.23 1245.21,-37.78"/>
</g>
<!-- Node18 -->
<g id="node18" class="node">
<title>Node18</title>
<g id="a_node18"><a xlink:title=" ">
<polygon fill="#e0e0e0" stroke="#999999" points="1488.5,-30 1367.5,-30 1367.5,0 1488.5,0 1488.5,-30"/>
<text text-anchor="start" x="1375.5" y="-18" font-family="Helvetica,sans-Serif" font-size="10.00">boost/log/utility/setup</text>
<text text-anchor="middle" x="1428" y="-7" font-family="Helvetica,sans-Serif" font-size="10.00">/common_attributes.hpp</text>
</a>
</g>
</g>
<!-- Node11&#45;&gt;Node18 -->
<g id="edge18" class="edge">
<title>Node11&#45;&gt;Node18</title>
<path fill="none" stroke="#63b8ff" d="M1172.84,-67.5C1214.17,-59.19 1285.49,-44.85 1355.78,-30.65"/>
<polygon fill="#63b8ff" stroke="#63b8ff" points="1356.46,-34.08 1365.56,-28.67 1355.07,-27.22 1356.46,-34.08"/>
</g>
<!-- Node19&#45;&gt;Node11 -->
<g id="edge30" class="edge">
<title>Node19&#45;&gt;Node11</title>
<path fill="none" stroke="#63b8ff" d="M607.54,-291.12C633.63,-281.23 676.91,-264.72 714,-250 752.85,-234.58 1013.77,-127.51 1105.88,-89.69"/>
<polygon fill="#63b8ff" stroke="#63b8ff" points="1106.93,-93.04 1114.85,-86.01 1104.27,-86.57 1106.93,-93.04"/>
</g>
<!-- Node20 -->
<g id="node20" class="node">
<title>Node20</title>
<g id="a_node20"><a xlink:href="_dma_buffer_abstract_8hpp.html" target="_top" xlink:title=" ">
<polygon fill="white" stroke="#666666" points="427.5,-250 310.5,-250 310.5,-231 427.5,-231 427.5,-250"/>
<text text-anchor="middle" x="369" y="-238" font-family="Helvetica,sans-Serif" font-size="10.00">DmaBufferAbstract.hpp</text>
</a>
</g>
</g>
<!-- Node19&#45;&gt;Node20 -->
<g id="edge20" class="edge">
<title>Node19&#45;&gt;Node20</title>
<path fill="none" stroke="#63b8ff" d="M551.35,-291.12C514.41,-281.06 454.07,-264.65 413,-253.47"/>
<polygon fill="#63b8ff" stroke="#63b8ff" points="413.99,-250.11 403.42,-250.87 412.15,-256.87 413.99,-250.11"/>
</g>
<!-- Node21 -->
<g id="node21" class="node">
<title>Node21</title>
<g id="a_node21"><a xlink:href="_uio_config_8hpp.html" target="_top" xlink:title=" ">
<polygon fill="white" stroke="#666666" points="215.5,-85 104.5,-85 104.5,-66 215.5,-66 215.5,-85"/>
<text text-anchor="middle" x="160" y="-73" font-family="Helvetica,sans-Serif" font-size="10.00">udmaio/UioConfig.hpp</text>
</a>
</g>
</g>
<!-- Node19&#45;&gt;Node21 -->
<g id="edge31" class="edge">
<title>Node19&#45;&gt;Node21</title>
<path fill="none" stroke="#63b8ff" d="M567.12,-291.1C501.96,-256.76 266.58,-132.68 186.72,-90.58"/>
<polygon fill="#63b8ff" stroke="#63b8ff" points="188.75,-87.7 178.27,-86.13 185.48,-93.89 188.75,-87.7"/>
</g>
<!-- Node20&#45;&gt;Node5 -->
<g id="edge21" class="edge">
<title>Node20&#45;&gt;Node5</title>
<path fill="none" stroke="#63b8ff" d="M427.9,-234.49C519.06,-226.64 699.81,-210.72 853,-195 866.27,-193.64 880.85,-192.01 893.6,-190.55"/>
<polygon fill="#63b8ff" stroke="#63b8ff" points="893.67,-194.07 903.2,-189.44 892.86,-187.12 893.67,-194.07"/>
</g>
<!-- Node20&#45;&gt;Node8 -->
<g id="edge22" class="edge">
<title>Node20&#45;&gt;Node8</title>
<path fill="none" stroke="#63b8ff" d="M342.88,-230.51C316.66,-221.49 276.21,-207.57 247.84,-197.8"/>
<polygon fill="#63b8ff" stroke="#63b8ff" points="249.27,-194.59 238.68,-194.65 246.99,-201.21 249.27,-194.59"/>
</g>
<!-- Node20&#45;&gt;Node10 -->
<g id="edge23" class="edge">
<title>Node20&#45;&gt;Node10</title>
<path fill="none" stroke="#63b8ff" d="M427.89,-234.17C493.36,-227.62 602.01,-214.85 694,-195 777.85,-176.91 798.72,-170.23 879,-140 918.44,-125.15 962.41,-104.1 989.89,-90.37"/>
<polygon fill="#63b8ff" stroke="#63b8ff" points="991.2,-93.63 998.56,-86.01 988.05,-87.38 991.2,-93.63"/>
</g>
<!-- Node20&#45;&gt;Node21 -->
<g id="edge24" class="edge">
<title>Node20&#45;&gt;Node21</title>
<path fill="none" stroke="#63b8ff" d="M357.47,-230.5C323.57,-204.07 223.91,-126.35 180.55,-92.53"/>
<polygon fill="#63b8ff" stroke="#63b8ff" points="182.73,-89.79 172.69,-86.4 178.43,-95.31 182.73,-89.79"/>
</g>
<!-- Node21&#45;&gt;Node7 -->
<g id="edge28" class="edge">
<title>Node21&#45;&gt;Node7</title>
<path fill="none" stroke="#63b8ff" d="M183.76,-65.52C206.55,-56.8 241.84,-43.02 272,-30 272.35,-29.85 272.69,-29.7 273.04,-29.55"/>
<polygon fill="#63b8ff" stroke="#63b8ff" points="274.29,-32.82 281.97,-25.53 271.42,-26.44 274.29,-32.82"/>
</g>
<!-- Node22 -->
<g id="node22" class="node">
<title>Node22</title>
<g id="a_node22"><a xlink:title=" ">
<polygon fill="#e0e0e0" stroke="#999999" points="676,-24.5 622,-24.5 622,-5.5 676,-5.5 676,-24.5"/>
<text text-anchor="middle" x="649" y="-12.5" font-family="Helvetica,sans-Serif" font-size="10.00">iostream</text>
</a>
</g>
</g>
<!-- Node21&#45;&gt;Node22 -->
<g id="edge25" class="edge">
<title>Node21&#45;&gt;Node22</title>
<path fill="none" stroke="#63b8ff" d="M215.62,-67.85C315.79,-55.86 524.13,-30.94 610.35,-20.62"/>
<polygon fill="#63b8ff" stroke="#63b8ff" points="610.66,-24.11 620.18,-19.45 609.83,-17.16 610.66,-24.11"/>
</g>
<!-- Node23 -->
<g id="node23" class="node">
<title>Node23</title>
<g id="a_node23"><a xlink:title=" ">
<polygon fill="#e0e0e0" stroke="#999999" points="101.5,-24.5 50.5,-24.5 50.5,-5.5 101.5,-5.5 101.5,-24.5"/>
<text text-anchor="middle" x="76" y="-12.5" font-family="Helvetica,sans-Serif" font-size="10.00">memory</text>
</a>
</g>
</g>
<!-- Node21&#45;&gt;Node23 -->
<g id="edge26" class="edge">
<title>Node21&#45;&gt;Node23</title>
<path fill="none" stroke="#63b8ff" d="M147.24,-65.62C134.17,-56.51 113.59,-42.18 97.9,-31.25"/>
<polygon fill="#63b8ff" stroke="#63b8ff" points="100.33,-28.68 90.12,-25.83 96.33,-34.42 100.33,-28.68"/>
</g>
<!-- Node24 -->
<g id="node24" class="node">
<title>Node24</title>
<g id="a_node24"><a xlink:title=" ">
<polygon fill="#e0e0e0" stroke="#999999" points="178.5,-24.5 119.5,-24.5 119.5,-5.5 178.5,-5.5 178.5,-24.5"/>
<text text-anchor="middle" x="149" y="-12.5" font-family="Helvetica,sans-Serif" font-size="10.00">stdexcept</text>
</a>
</g>
</g>
<!-- Node21&#45;&gt;Node24 -->
<g id="edge27" class="edge">
<title>Node21&#45;&gt;Node24</title>
<path fill="none" stroke="#63b8ff" d="M158.38,-65.87C156.9,-58 154.66,-46.1 152.74,-35.89"/>
<polygon fill="#63b8ff" stroke="#63b8ff" points="156.2,-35.34 150.91,-26.15 149.32,-36.63 156.2,-35.34"/>
</g>
<!-- Node25 -->
<g id="node25" class="node">
<title>Node25</title>
<g id="a_node25"><a xlink:title=" ">
<polygon fill="#e0e0e0" stroke="#999999" points="263,-24.5 197,-24.5 197,-5.5 263,-5.5 263,-24.5"/>
<text text-anchor="middle" x="230" y="-12.5" font-family="Helvetica,sans-Serif" font-size="10.00">string_view</text>
</a>
</g>
</g>
<!-- Node21&#45;&gt;Node25 -->
<g id="edge29" class="edge">
<title>Node21&#45;&gt;Node25</title>
<path fill="none" stroke="#63b8ff" d="M170.63,-65.62C181.22,-56.77 197.71,-42.98 210.63,-32.19"/>
<polygon fill="#63b8ff" stroke="#63b8ff" points="212.68,-35.04 218.11,-25.94 208.19,-29.67 212.68,-35.04"/>
</g>
<!-- Node27 -->
<g id="node27" class="node">
<title>Node27</title>
<g id="a_node27"><a xlink:href="_reg_accessor_8hpp.html" target="_top" xlink:title=" ">
<polygon fill="white" stroke="#666666" points="704.5,-250 611.5,-250 611.5,-231 704.5,-231 704.5,-250"/>
<text text-anchor="middle" x="658" y="-238" font-family="Helvetica,sans-Serif" font-size="10.00">RegAccessor.hpp</text>
</a>
</g>
</g>
<!-- Node26&#45;&gt;Node27 -->
<g id="edge33" class="edge">
<title>Node26&#45;&gt;Node27</title>
<path fill="none" stroke="#63b8ff" d="M770.8,-291.12C749.02,-281.54 714.1,-266.18 688.88,-255.08"/>
<polygon fill="#63b8ff" stroke="#63b8ff" points="690.34,-251.9 679.78,-251.08 687.52,-258.31 690.34,-251.9"/>
</g>
<!-- Node28 -->
<g id="node28" class="node">
<title>Node28</title>
<g id="a_node28"><a xlink:href="_uio_if_8hpp.html" target="_top" xlink:title=" ">
<polygon fill="white" stroke="#666666" points="685,-195 595,-195 595,-176 685,-176 685,-195"/>
<text text-anchor="middle" x="640" y="-183" font-family="Helvetica,sans-Serif" font-size="10.00">udmaio/UioIf.hpp</text>
</a>
</g>
</g>
<!-- Node26&#45;&gt;Node28 -->
<g id="edge63" class="edge">
<title>Node26&#45;&gt;Node28</title>
<path fill="none" stroke="#63b8ff" d="M782.46,-291.35C768.72,-277.68 740.57,-250.62 714,-231 698.96,-219.89 681.01,-209.05 666.55,-200.84"/>
<polygon fill="#63b8ff" stroke="#63b8ff" points="668.5,-197.92 658.06,-196.11 665.09,-204.03 668.5,-197.92"/>
</g>
<!-- Node37 -->
<g id="node37" class="node">
<title>Node37</title>
<g id="a_node37"><a xlink:href="_axi_dma_8hpp.html" target="_top" xlink:title=" ">
<polygon fill="white" stroke="#666666" points="951,-250 835,-250 835,-231 951,-231 951,-250"/>
<text text-anchor="middle" x="893" y="-238" font-family="Helvetica,sans-Serif" font-size="10.00">udmaio/rdl/AxiDma.hpp</text>
</a>
</g>
</g>
<!-- Node26&#45;&gt;Node37 -->
<g id="edge64" class="edge">
<title>Node26&#45;&gt;Node37</title>
<path fill="none" stroke="#63b8ff" d="M806.49,-291.12C822.67,-281.84 848.3,-267.13 867.48,-256.14"/>
<polygon fill="#63b8ff" stroke="#63b8ff" points="869.12,-259.23 876.05,-251.22 865.63,-253.16 869.12,-259.23"/>
</g>
<!-- Node27&#45;&gt;Node5 -->
<g id="edge34" class="edge">
<title>Node27&#45;&gt;Node5</title>
<path fill="none" stroke="#63b8ff" d="M703.8,-230.51C757.45,-219.98 845.13,-202.77 893.4,-193.29"/>
<polygon fill="#63b8ff" stroke="#63b8ff" points="893.88,-196.77 903.02,-191.4 892.53,-189.9 893.88,-196.77"/>
</g>
<!-- Node27&#45;&gt;Node28 -->
<g id="edge35" class="edge">
<title>Node27&#45;&gt;Node28</title>
<path fill="none" stroke="#63b8ff" d="M655.03,-230.75C652.77,-224.11 649.59,-214.73 646.73,-206.31"/>
<polygon fill="#63b8ff" stroke="#63b8ff" points="650.05,-205.22 643.52,-196.88 643.43,-207.47 650.05,-205.22"/>
</g>
<!-- Node28&#45;&gt;Node7 -->
<g id="edge40" class="edge">
<title>Node28&#45;&gt;Node7</title>
<path fill="none" stroke="#63b8ff" d="M594.62,-178.5C546.67,-171.57 469.13,-158.67 404,-140 403.49,-139.86 263.3,-85.43 263,-85 251.19,-67.72 267.19,-46.6 282.12,-32.32"/>
<polygon fill="#63b8ff" stroke="#63b8ff" points="284.31,-35.06 289.44,-25.79 279.65,-29.84 284.31,-35.06"/>
</g>
<!-- Node28&#45;&gt;Node10 -->
<g id="edge41" class="edge">
<title>Node28&#45;&gt;Node10</title>
<path fill="none" stroke="#63b8ff" d="M685.24,-176.62C726.33,-168.96 788.38,-156.13 841,-140 862.94,-133.28 867.49,-128.99 889,-121 919.35,-109.72 954.07,-97.71 979.68,-89.01"/>
<polygon fill="#63b8ff" stroke="#63b8ff" points="980.62,-92.39 988.97,-85.86 978.38,-85.75 980.62,-92.39"/>
</g>
<!-- Node28&#45;&gt;Node11 -->
<g id="edge61" class="edge">
<title>Node28&#45;&gt;Node11</title>
<path fill="none" stroke="#63b8ff" d="M685.08,-176.89C733.24,-168.57 811.75,-154.49 879,-140 954.53,-123.72 1041.64,-101.68 1093.15,-88.31"/>
<polygon fill="#63b8ff" stroke="#63b8ff" points="1093.94,-91.72 1102.74,-85.81 1092.18,-84.95 1093.94,-91.72"/>
</g>
<!-- Node28&#45;&gt;Node21 -->
<g id="edge62" class="edge">
<title>Node28&#45;&gt;Node21</title>
<path fill="none" stroke="#63b8ff" d="M594.58,-180.2C539.53,-174.29 444.27,-161.82 365,-140 342.88,-133.91 338.73,-128.36 317,-121 280.32,-108.58 238.04,-96.73 206.6,-88.39"/>
<polygon fill="#63b8ff" stroke="#63b8ff" points="207.57,-85.02 197.01,-85.87 205.79,-91.79 207.57,-85.02"/>
</g>
<!-- Node28&#45;&gt;Node22 -->
<g id="edge38" class="edge">
<title>Node28&#45;&gt;Node22</title>
<path fill="none" stroke="#63b8ff" d="M669.1,-175.51C734.3,-155.06 887.51,-105.29 901,-85 905.67,-77.97 906.46,-72.45 901,-66 869.7,-29.03 732.77,-42.63 686,-30 684.38,-29.56 682.74,-29.08 681.09,-28.57"/>
<polygon fill="#63b8ff" stroke="#63b8ff" points="682.31,-25.29 671.72,-25.36 680.04,-31.91 682.31,-25.29"/>
</g>
<!-- Node28&#45;&gt;Node23 -->
<g id="edge39" class="edge">
<title>Node28&#45;&gt;Node23</title>
<path fill="none" stroke="#63b8ff" d="M594.71,-182.57C477.06,-176.6 165.97,-154.46 95,-85 81.96,-72.24 77.63,-51.41 76.3,-35.97"/>
<polygon fill="#63b8ff" stroke="#63b8ff" points="79.8,-35.9 75.85,-26.07 72.81,-36.22 79.8,-35.9"/>
</g>
<!-- Node29 -->
<g id="node29" class="node">
<title>Node29</title>
<g id="a_node29"><a xlink:title=" ">
<polygon fill="#e0e0e0" stroke="#999999" points="561,-85 501,-85 501,-66 561,-66 561,-85"/>
<text text-anchor="middle" x="531" y="-73" font-family="Helvetica,sans-Serif" font-size="10.00">filesystem</text>
</a>
</g>
</g>
<!-- Node28&#45;&gt;Node29 -->
<g id="edge36" class="edge">
<title>Node28&#45;&gt;Node29</title>
<path fill="none" stroke="#63b8ff" d="M608,-175.5C589,-168.64 565.8,-157.35 551,-140 540.55,-127.75 535.55,-110.02 533.16,-96.41"/>
<polygon fill="#63b8ff" stroke="#63b8ff" points="536.68,-96.26 531.83,-86.84 529.74,-97.22 536.68,-96.26"/>
</g>
<!-- Node30 -->
<g id="node30" class="node">
<title>Node30</title>
<g id="a_node30"><a xlink:title=" ">
<polygon fill="#e0e0e0" stroke="#999999" points="743,-85 693,-85 693,-66 743,-66 743,-85"/>
<text text-anchor="middle" x="718" y="-73" font-family="Helvetica,sans-Serif" font-size="10.00">fstream</text>
</a>
</g>
</g>
<!-- Node28&#45;&gt;Node30 -->
<g id="edge37" class="edge">
<title>Node28&#45;&gt;Node30</title>
<path fill="none" stroke="#63b8ff" d="M654.65,-175.55C666.67,-167.55 683.39,-154.82 694,-140 703.46,-126.79 709.69,-109.4 713.42,-96.16"/>
<polygon fill="#63b8ff" stroke="#63b8ff" points="716.71,-97.43 715.8,-86.87 709.93,-95.69 716.71,-97.43"/>
</g>
<!-- Node31 -->
<g id="node31" class="node">
<title>Node31</title>
<g id="a_node31"><a xlink:title=" ">
<polygon fill="#e0e0e0" stroke="#999999" points="804.5,-85 761.5,-85 761.5,-66 804.5,-66 804.5,-85"/>
<text text-anchor="middle" x="783" y="-73" font-family="Helvetica,sans-Serif" font-size="10.00">fcntl.h</text>
</a>
</g>
</g>
<!-- Node28&#45;&gt;Node31 -->
<g id="edge42" class="edge">
<title>Node28&#45;&gt;Node31</title>
<path fill="none" stroke="#63b8ff" d="M656.52,-175.62C671.7,-167.18 694.58,-153.78 713,-140 732.4,-125.49 752.71,-106.59 766.42,-93.2"/>
<polygon fill="#63b8ff" stroke="#63b8ff" points="768.69,-95.88 773.33,-86.36 763.77,-90.91 768.69,-95.88"/>
</g>
<!-- Node32 -->
<g id="node32" class="node">
<title>Node32</title>
<g id="a_node32"><a xlink:title=" ">
<polygon fill="#e0e0e0" stroke="#999999" points="891.5,-85 822.5,-85 822.5,-66 891.5,-66 891.5,-85"/>
<text text-anchor="middle" x="857" y="-73" font-family="Helvetica,sans-Serif" font-size="10.00">sys/mman.h</text>
</a>
</g>
</g>
<!-- Node28&#45;&gt;Node32 -->
<g id="edge43" class="edge">
<title>Node28&#45;&gt;Node32</title>
<path fill="none" stroke="#63b8ff" d="M660.83,-175.5C680.79,-166.77 711.69,-152.98 738,-140 770.42,-124.01 807.01,-104.22 830.95,-91.02"/>
<polygon fill="#63b8ff" stroke="#63b8ff" points="832.62,-94.09 839.68,-86.19 829.23,-87.97 832.62,-94.09"/>
</g>
<!-- Node33 -->
<g id="node33" class="node">
<title>Node33</title>
<g id="a_node33"><a xlink:title=" ">
<polygon fill="#e0e0e0" stroke="#999999" points="331.5,-85 272.5,-85 272.5,-66 331.5,-66 331.5,-85"/>
<text text-anchor="middle" x="302" y="-73" font-family="Helvetica,sans-Serif" font-size="10.00">sys/stat.h</text>
</a>
</g>
</g>
<!-- Node28&#45;&gt;Node33 -->
<g id="edge44" class="edge">
<title>Node28&#45;&gt;Node33</title>
<path fill="none" stroke="#63b8ff" d="M597.48,-175.54C561.13,-167.49 507.63,-154.69 462,-140 415.94,-125.17 364.14,-103.7 332.29,-89.92"/>
<polygon fill="#63b8ff" stroke="#63b8ff" points="333.85,-86.78 323.28,-85.99 331.05,-93.2 333.85,-86.78"/>
</g>
<!-- Node34 -->
<g id="node34" class="node">
<title>Node34</title>
<g id="a_node34"><a xlink:title=" ">
<polygon fill="#e0e0e0" stroke="#999999" points="414.5,-85 349.5,-85 349.5,-66 414.5,-66 414.5,-85"/>
<text text-anchor="middle" x="382" y="-73" font-family="Helvetica,sans-Serif" font-size="10.00">sys/types.h</text>
</a>
</g>
</g>
<!-- Node28&#45;&gt;Node34 -->
<g id="edge45" class="edge">
<title>Node28&#45;&gt;Node34</title>
<path fill="none" stroke="#63b8ff" d="M607.58,-175.52C579.68,-167.41 538.58,-154.54 504,-140 469.3,-125.41 431.06,-104.7 406.81,-90.95"/>
<polygon fill="#63b8ff" stroke="#63b8ff" points="408.75,-88.03 398.33,-86.1 405.27,-94.1 408.75,-88.03"/>
</g>
<!-- Node35 -->
<g id="node35" class="node">
<title>Node35</title>
<g id="a_node35"><a xlink:title=" ">
<polygon fill="#e0e0e0" stroke="#999999" points="483,-85 433,-85 433,-66 483,-66 483,-85"/>
<text text-anchor="middle" x="458" y="-73" font-family="Helvetica,sans-Serif" font-size="10.00">unistd.h</text>
</a>
</g>
</g>
<!-- Node28&#45;&gt;Node35 -->
<g id="edge46" class="edge">
<title>Node28&#45;&gt;Node35</title>
<path fill="none" stroke="#63b8ff" d="M613.81,-175.61C592.16,-167.73 561.04,-155.14 536,-140 513.48,-126.38 490.44,-106.79 475.3,-92.98"/>
<polygon fill="#63b8ff" stroke="#63b8ff" points="477.78,-90.51 468.08,-86.26 473.01,-95.63 477.78,-90.51"/>
</g>
<!-- Node36 -->
<g id="node36" class="node">
<title>Node36</title>
<g id="a_node36"><a xlink:href="_hw_accessor_8hpp.html" target="_top" xlink:title=" ">
<polygon fill="white" stroke="#666666" points="684.5,-140 559.5,-140 559.5,-121 684.5,-121 684.5,-140"/>
<text text-anchor="middle" x="622" y="-128" font-family="Helvetica,sans-Serif" font-size="10.00">udmaio/HwAccessor.hpp</text>
</a>
</g>
</g>
<!-- Node28&#45;&gt;Node36 -->
<g id="edge47" class="edge">
<title>Node28&#45;&gt;Node36</title>
<path fill="none" stroke="#63b8ff" d="M637.03,-175.75C634.77,-169.11 631.59,-159.73 628.73,-151.31"/>
<polygon fill="#63b8ff" stroke="#63b8ff" points="632.05,-150.22 625.52,-141.88 625.43,-152.47 632.05,-150.22"/>
</g>
<!-- Node36&#45;&gt;Node7 -->
<g id="edge52" class="edge">
<title>Node36&#45;&gt;Node7</title>
<path fill="none" stroke="#63b8ff" d="M622.11,-120.58C621.75,-106.68 618.89,-80 603,-66 563.45,-31.14 403.43,-20.26 334.19,-17.15"/>
<polygon fill="#63b8ff" stroke="#63b8ff" points="334.4,-13.65 324.26,-16.73 334.1,-20.65 334.4,-13.65"/>
</g>
<!-- Node36&#45;&gt;Node10 -->
<g id="edge53" class="edge">
<title>Node36&#45;&gt;Node10</title>
<path fill="none" stroke="#63b8ff" d="M684.59,-121.1C753.49,-111.86 864.36,-96.98 938.9,-86.98"/>
<polygon fill="#63b8ff" stroke="#63b8ff" points="939.14,-90.48 948.58,-85.68 938.21,-83.54 939.14,-90.48"/>
</g>
<!-- Node36&#45;&gt;Node11 -->
<g id="edge59" class="edge">
<title>Node36&#45;&gt;Node11</title>
<path fill="none" stroke="#63b8ff" d="M684.98,-125.61C773.64,-119.69 940.5,-106.9 1091.98,-85.31"/>
<polygon fill="#63b8ff" stroke="#63b8ff" points="1092.42,-88.78 1101.82,-83.89 1091.42,-81.85 1092.42,-88.78"/>
</g>
<!-- Node36&#45;&gt;Node21 -->
<g id="edge60" class="edge">
<title>Node36&#45;&gt;Node21</title>
<path fill="none" stroke="#63b8ff" d="M559.21,-122.3C472.35,-112.33 316.18,-94.42 227.1,-84.2"/>
<polygon fill="#63b8ff" stroke="#63b8ff" points="227.62,-80.73 217.28,-83.07 226.82,-87.69 227.62,-80.73"/>
</g>
<!-- Node36&#45;&gt;Node22 -->
<g id="edge50" class="edge">
<title>Node36&#45;&gt;Node22</title>
<path fill="none" stroke="#63b8ff" d="M626.72,-120.57C631.16,-111.77 637.59,-97.83 641,-85 645.31,-68.76 647.3,-49.75 648.22,-35.81"/>
<polygon fill="#63b8ff" stroke="#63b8ff" points="651.69,-36.32 648.71,-26.16 644.7,-35.96 651.69,-36.32"/>
</g>
<!-- Node36&#45;&gt;Node23 -->
<g id="edge51" class="edge">
<title>Node36&#45;&gt;Node23</title>
<path fill="none" stroke="#63b8ff" d="M617.73,-120.61C610.3,-106.23 593.49,-78.27 570,-66 479.12,-18.53 209.73,-53.81 110,-30 108.41,-29.62 106.8,-29.18 105.18,-28.68"/>
<polygon fill="#63b8ff" stroke="#63b8ff" points="106.73,-25.52 96.14,-25.44 104.37,-32.11 106.73,-25.52"/>
</g>
<!-- Node36&#45;&gt;Node29 -->
<g id="edge48" class="edge">
<title>Node36&#45;&gt;Node29</title>
<path fill="none" stroke="#63b8ff" d="M606.56,-120.51C592.75,-112.47 572.25,-100.53 556.09,-91.11"/>
<polygon fill="#63b8ff" stroke="#63b8ff" points="557.92,-88.13 547.52,-86.12 554.4,-94.18 557.92,-88.13"/>
</g>
<!-- Node36&#45;&gt;Node30 -->
<g id="edge49" class="edge">
<title>Node36&#45;&gt;Node30</title>
<path fill="none" stroke="#63b8ff" d="M638.29,-120.51C652.99,-112.39 674.89,-100.3 692.02,-90.85"/>
<polygon fill="#63b8ff" stroke="#63b8ff" points="693.57,-93.99 700.63,-86.09 690.18,-87.86 693.57,-93.99"/>
</g>
<!-- Node36&#45;&gt;Node31 -->
<g id="edge54" class="edge">
<title>Node36&#45;&gt;Node31</title>
<path fill="none" stroke="#63b8ff" d="M649.31,-120.51C677.31,-111.29 720.86,-96.96 750.59,-87.17"/>
<polygon fill="#63b8ff" stroke="#63b8ff" points="751.4,-90.59 759.81,-84.13 749.21,-83.94 751.4,-90.59"/>
</g>
<!-- Node36&#45;&gt;Node32 -->
<g id="edge55" class="edge">
<title>Node36&#45;&gt;Node32</title>
<path fill="none" stroke="#63b8ff" d="M661.86,-120.51C703.22,-111.18 767.79,-96.62 811.21,-86.83"/>
<polygon fill="#63b8ff" stroke="#63b8ff" points="811.85,-90.27 820.83,-84.66 810.31,-83.44 811.85,-90.27"/>
</g>
<!-- Node36&#45;&gt;Node33 -->
<g id="edge56" class="edge">
<title>Node36&#45;&gt;Node33</title>
<path fill="none" stroke="#63b8ff" d="M559.04,-120.59C504.54,-112.63 423.33,-100.21 343.09,-85.29"/>
<polygon fill="#63b8ff" stroke="#63b8ff" points="343.74,-81.86 333.26,-83.45 342.45,-88.74 343.74,-81.86"/>
</g>
<!-- Node36&#45;&gt;Node34 -->
<g id="edge57" class="edge">
<title>Node36&#45;&gt;Node34</title>
<path fill="none" stroke="#63b8ff" d="M581.29,-120.51C538.1,-110.97 470.13,-95.96 425.8,-86.17"/>
<polygon fill="#63b8ff" stroke="#63b8ff" points="426.8,-82.81 416.28,-84.07 425.29,-89.64 426.8,-82.81"/>
</g>
<!-- Node36&#45;&gt;Node35 -->
<g id="edge58" class="edge">
<title>Node36&#45;&gt;Node35</title>
<path fill="none" stroke="#63b8ff" d="M594.18,-120.51C566.63,-111.61 524.31,-97.93 494.16,-88.19"/>
<polygon fill="#63b8ff" stroke="#63b8ff" points="495.29,-84.87 484.7,-85.13 493.14,-91.53 495.29,-84.87"/>
</g>
<!-- Node37&#45;&gt;Node5 -->
<g id="edge65" class="edge">
<title>Node37&#45;&gt;Node5</title>
<path fill="none" stroke="#63b8ff" d="M898.78,-230.75C903.41,-223.73 910.07,-213.64 915.87,-204.87"/>
<polygon fill="#63b8ff" stroke="#63b8ff" points="918.67,-206.98 921.26,-196.71 912.83,-203.12 918.67,-206.98"/>
</g>
<!-- Node38&#45;&gt;Node20 -->
<g id="edge69" class="edge">
<title>Node38&#45;&gt;Node20</title>
<path fill="none" stroke="#63b8ff" d="M369,-291.37C369,-283.5 369,-271.6 369,-261.39"/>
<polygon fill="#63b8ff" stroke="#63b8ff" points="372.5,-261.68 369,-251.68 365.5,-261.68 372.5,-261.68"/>
</g>
<!-- Node38&#45;&gt;Node23 -->
<g id="edge68" class="edge">
<title>Node38&#45;&gt;Node23</title>
<path fill="none" stroke="#63b8ff" d="M317.64,-293.25C224.67,-279.59 38,-244.9 38,-186.5 38,-186.5 38,-186.5 38,-129.5 38,-94.64 54.32,-56.73 65.57,-34.73"/>
<polygon fill="#63b8ff" stroke="#63b8ff" points="68.54,-36.59 70.16,-26.12 62.37,-33.3 68.54,-36.59"/>
</g>
<!-- Node38&#45;&gt;Node27 -->
<g id="edge70" class="edge">
<title>Node38&#45;&gt;Node27</title>
<path fill="none" stroke="#63b8ff" d="M413.21,-291.05C464.09,-280.75 547.73,-263.82 602.83,-252.67"/>
<polygon fill="#63b8ff" stroke="#63b8ff" points="603.21,-256.16 612.31,-250.75 601.82,-249.3 603.21,-256.16"/>
</g>
<!-- Node39 -->
<g id="node39" class="node">
<title>Node39</title>
<g id="a_node39"><a xlink:title=" ">
<polygon fill="#e0e0e0" stroke="#999999" points="292.5,-250 243.5,-250 243.5,-231 292.5,-231 292.5,-250"/>
<text text-anchor="middle" x="268" y="-238" font-family="Helvetica,sans-Serif" font-size="10.00">cstddef</text>
</a>
</g>
</g>
<!-- Node38&#45;&gt;Node39 -->
<g id="edge67" class="edge">
<title>Node38&#45;&gt;Node39</title>
<path fill="none" stroke="#63b8ff" d="M353.66,-291.12C337.64,-281.84 312.26,-267.13 293.27,-256.14"/>
<polygon fill="#63b8ff" stroke="#63b8ff" points="295.2,-253.21 284.79,-251.23 291.69,-259.27 295.2,-253.21"/>
</g>
</g>
</svg>
