<?xml version="1.0" encoding="UTF-8" standalone="no"?>
<!DOCTYPE svg PUBLIC "-//W3C//DTD SVG 1.1//EN"
 "http://www.w3.org/Graphics/SVG/1.1/DTD/svg11.dtd">
<!-- Generated by graphviz version 7.0.5 (20221223.1930)
 -->
<!-- Title: DataHandlerPrint.cpp Pages: 1 -->
<!--zoomable 489 -->
<svg id="main" version="1.1" xmlns="http://www.w3.org/2000/svg" xmlns:xlink="http://www.w3.org/1999/xlink" xml:space="preserve" onload="init(evt)">
<style type="text/css"><![CDATA[
.edge:hover path { stroke: red; }
.edge:hover polygon { stroke: red; fill: red; }
]]></style>
<script type="text/javascript"><![CDATA[
var edges = document.getElementsByTagName('g');
if (edges && edges.length) {
  for (var i=0;i<edges.length;i++) {
    if (edges[i].id.substr(0,4)=='edge') {
      edges[i].setAttribute('class','edge');
    }
  }
}
]]></script>
        <defs>
                <circle id="rim" cx="0" cy="0" r="7"/>
                <circle id="rim2" cx="0" cy="0" r="3.5"/>
                <g id="zoomPlus">
                        <use xlink:href="#rim" fill="#404040">
                                <set attributeName="fill" to="#808080" begin="zoomplus.mouseover" end="zoomplus.mouseout"/>
                        </use>
                        <path d="M-4,0h8M0,-4v8" fill="none" stroke="white" stroke-width="1.5" pointer-events="none"/>
                </g>
                <g id="zoomMin">
                        <use xlink:href="#rim" fill="#404040">
                                <set attributeName="fill" to="#808080" begin="zoomminus.mouseover" end="zoomminus.mouseout"/>
                        </use>
                        <path d="M-4,0h8" fill="none" stroke="white" stroke-width="1.5" pointer-events="none"/>
                </g>
                <g id="dirArrow">
                        <path fill="none" stroke="white" stroke-width="1.5" d="M0,-3.0v7 M-2.5,-0.5L0,-3.0L2.5,-0.5"/>
                </g>
               <g id="resetDef">
                       <use xlink:href="#rim2" fill="#404040">
                               <set attributeName="fill" to="#808080" begin="reset.mouseover" end="reset.mouseout"/>
                       </use>
               </g>
        </defs>

<script type="text/javascript">
var viewWidth = 1735;
var viewHeight = 489;
var sectionId = 'dynsection-0';
</script>
<script xlink:href="svgpan.js"/>
<svg id="graph" class="graph">
<g id="viewport">
<title>DataHandlerPrint.cpp</title>
<!-- Node1 -->
<g id="node1" class="node">
<title>Node1</title>
<g id="a_node1"><a xlink:title=" ">
<polygon fill="#999999" stroke="#666666" points="1709,-481 1600,-481 1600,-462 1709,-462 1709,-481"/>
<text text-anchor="middle" x="1654.5" y="-469" font-family="Helvetica,sans-Serif" font-size="10.00">DataHandlerPrint.cpp</text>
</a>
</g>
</g>
<!-- Node2 -->
<g id="node2" class="node">
<title>Node2</title>
<g id="a_node2"><a xlink:href="_data_handler_print_8hpp.html" target="_top" xlink:title=" ">
<polygon fill="white" stroke="#666666" points="1312,-426 1203,-426 1203,-407 1312,-407 1312,-426"/>
<text text-anchor="middle" x="1257.5" y="-414" font-family="Helvetica,sans-Serif" font-size="10.00">DataHandlerPrint.hpp</text>
</a>
</g>
</g>
<!-- Node1&#45;&gt;Node2 -->
<g id="edge1" class="edge">
<title>Node1&#45;&gt;Node2</title>
<path fill="none" stroke="#63b8ff" d="M1599.72,-463.19C1527.54,-453.55 1400.73,-436.62 1323.4,-426.3"/>
<polygon fill="#63b8ff" stroke="#63b8ff" points="1324.23,-422.88 1313.86,-425.02 1323.31,-429.82 1324.23,-422.88"/>
</g>
<!-- Node23 -->
<g id="node23" class="node">
<title>Node23</title>
<g id="a_node23"><a xlink:title=" ">
<polygon fill="#e0e0e0" stroke="#999999" points="1500.5,-24.5 1446.5,-24.5 1446.5,-5.5 1500.5,-5.5 1500.5,-24.5"/>
<text text-anchor="middle" x="1473.5" y="-12.5" font-family="Helvetica,sans-Serif" font-size="10.00">iostream</text>
</a>
</g>
</g>
<!-- Node1&#45;&gt;Node23 -->
<g id="edge70" class="edge">
<title>Node1&#45;&gt;Node23</title>
<path fill="none" stroke="#63b8ff" d="M1654.5,-461.54C1654.5,-443.03 1654.5,-399.25 1654.5,-362.5 1654.5,-362.5 1654.5,-362.5 1654.5,-129.5 1654.5,-62.81 1565.21,-33.81 1512.06,-22.45"/>
<polygon fill="#63b8ff" stroke="#63b8ff" points="1512.97,-19.07 1502.47,-20.53 1511.59,-25.93 1512.97,-19.07"/>
</g>
<!-- Node41 -->
<g id="node41" class="node">
<title>Node41</title>
<g id="a_node41"><a xlink:title=" ">
<polygon fill="#e0e0e0" stroke="#999999" points="1726.5,-426 1682.5,-426 1682.5,-407 1726.5,-407 1726.5,-426"/>
<text text-anchor="middle" x="1704.5" y="-414" font-family="Helvetica,sans-Serif" font-size="10.00">thread</text>
</a>
</g>
</g>
<!-- Node1&#45;&gt;Node41 -->
<g id="edge71" class="edge">
<title>Node1&#45;&gt;Node41</title>
<path fill="none" stroke="#63b8ff" d="M1662.76,-461.75C1669.66,-454.43 1679.72,-443.76 1688.24,-434.74"/>
<polygon fill="#63b8ff" stroke="#63b8ff" points="1690.71,-437.22 1695.03,-427.54 1685.62,-432.42 1690.71,-437.22"/>
</g>
<!-- Node3 -->
<g id="node3" class="node">
<title>Node3</title>
<g id="a_node3"><a xlink:title=" ">
<polygon fill="#e0e0e0" stroke="#999999" points="1335.5,-371 1285.5,-371 1285.5,-352 1335.5,-352 1335.5,-371"/>
<text text-anchor="middle" x="1310.5" y="-359" font-family="Helvetica,sans-Serif" font-size="10.00">optional</text>
</a>
</g>
</g>
<!-- Node2&#45;&gt;Node3 -->
<g id="edge2" class="edge">
<title>Node2&#45;&gt;Node3</title>
<path fill="none" stroke="#63b8ff" d="M1266.25,-406.75C1273.65,-399.35 1284.46,-388.54 1293.55,-379.45"/>
<polygon fill="#63b8ff" stroke="#63b8ff" points="1295.89,-382.06 1300.49,-372.51 1290.94,-377.11 1295.89,-382.06"/>
</g>
<!-- Node4 -->
<g id="node4" class="node">
<title>Node4</title>
<g id="a_node4"><a xlink:title=" ">
<polygon fill="#e0e0e0" stroke="#999999" points="693,-371 654,-371 654,-352 693,-352 693,-371"/>
<text text-anchor="middle" x="673.5" y="-359" font-family="Helvetica,sans-Serif" font-size="10.00">utility</text>
</a>
</g>
</g>
<!-- Node2&#45;&gt;Node4 -->
<g id="edge3" class="edge">
<title>Node2&#45;&gt;Node4</title>
<path fill="none" stroke="#63b8ff" d="M1202.66,-414.82C1104.45,-412.79 892.09,-404.75 704.52,-370.95"/>
<polygon fill="#63b8ff" stroke="#63b8ff" points="705.29,-367.53 694.83,-369.17 704.03,-374.42 705.29,-367.53"/>
</g>
<!-- Node5 -->
<g id="node5" class="node">
<title>Node5</title>
<g id="a_node5"><a xlink:href="_axi_traffic_gen_lfsr_8hpp.html" target="_top" xlink:title=" ">
<polygon fill="white" stroke="#666666" points="1354.5,-250 1244.5,-250 1244.5,-231 1354.5,-231 1354.5,-250"/>
<text text-anchor="middle" x="1299.5" y="-238" font-family="Helvetica,sans-Serif" font-size="10.00">AxiTrafficGenLfsr.hpp</text>
</a>
</g>
</g>
<!-- Node2&#45;&gt;Node5 -->
<g id="edge4" class="edge">
<title>Node2&#45;&gt;Node5</title>
<path fill="none" stroke="#63b8ff" d="M1259.64,-406.63C1266.13,-379.75 1285.69,-298.73 1294.77,-261.1"/>
<polygon fill="#63b8ff" stroke="#63b8ff" points="1298.11,-262.16 1297.06,-251.61 1291.31,-260.51 1298.11,-262.16"/>
</g>
<!-- Node7 -->
<g id="node7" class="node">
<title>Node7</title>
<g id="a_node7"><a xlink:href="_data_handler_abstract_8hpp.html" target="_top" xlink:title=" ">
<polygon fill="white" stroke="#666666" points="871.5,-371 711.5,-371 711.5,-352 871.5,-352 871.5,-371"/>
<text text-anchor="middle" x="791.5" y="-359" font-family="Helvetica,sans-Serif" font-size="10.00">udmaio/DataHandlerAbstract.hpp</text>
</a>
</g>
</g>
<!-- Node2&#45;&gt;Node7 -->
<g id="edge6" class="edge">
<title>Node2&#45;&gt;Node7</title>
<path fill="none" stroke="#63b8ff" d="M1202.67,-409.26C1123.72,-400.28 977.06,-383.61 881.93,-372.78"/>
<polygon fill="#63b8ff" stroke="#63b8ff" points="882.42,-369.32 872.09,-371.67 881.63,-376.27 882.42,-369.32"/>
</g>
<!-- Node6 -->
<g id="node6" class="node">
<title>Node6</title>
<g id="a_node6"><a xlink:title=" ">
<polygon fill="#e0e0e0" stroke="#999999" points="1305.5,-195 1259.5,-195 1259.5,-176 1305.5,-176 1305.5,-195"/>
<text text-anchor="middle" x="1282.5" y="-183" font-family="Helvetica,sans-Serif" font-size="10.00">cstdint</text>
</a>
</g>
</g>
<!-- Node5&#45;&gt;Node6 -->
<g id="edge5" class="edge">
<title>Node5&#45;&gt;Node6</title>
<path fill="none" stroke="#63b8ff" d="M1296.69,-230.75C1294.56,-224.11 1291.56,-214.73 1288.86,-206.31"/>
<polygon fill="#63b8ff" stroke="#63b8ff" points="1292.22,-205.34 1285.83,-196.88 1285.55,-207.47 1292.22,-205.34"/>
</g>
<!-- Node8 -->
<g id="node8" class="node">
<title>Node8</title>
<g id="a_node8"><a xlink:title=" ">
<polygon fill="#e0e0e0" stroke="#999999" points="968,-24.5 927,-24.5 927,-5.5 968,-5.5 968,-24.5"/>
<text text-anchor="middle" x="947.5" y="-12.5" font-family="Helvetica,sans-Serif" font-size="10.00">string</text>
</a>
</g>
</g>
<!-- Node7&#45;&gt;Node8 -->
<g id="edge7" class="edge">
<title>Node7&#45;&gt;Node8</title>
<path fill="none" stroke="#63b8ff" d="M711.28,-352.77C680.78,-346.61 647.21,-335.61 621.5,-316 591.1,-292.81 578.5,-279.73 578.5,-241.5 578.5,-241.5 578.5,-241.5 578.5,-129.5 578.5,-100.04 574.89,-84.88 597.5,-66 652.59,-19.98 849.53,-49.89 918.5,-30 919.31,-29.77 920.12,-29.51 920.93,-29.24"/>
<polygon fill="#63b8ff" stroke="#63b8ff" points="921.99,-32.59 929.92,-25.57 919.34,-26.11 921.99,-32.59"/>
</g>
<!-- Node9 -->
<g id="node9" class="node">
<title>Node9</title>
<g id="a_node9"><a xlink:title=" ">
<polygon fill="#e0e0e0" stroke="#999999" points="688.5,-195 644.5,-195 644.5,-176 688.5,-176 688.5,-195"/>
<text text-anchor="middle" x="666.5" y="-183" font-family="Helvetica,sans-Serif" font-size="10.00">vector</text>
</a>
</g>
</g>
<!-- Node7&#45;&gt;Node9 -->
<g id="edge8" class="edge">
<title>Node7&#45;&gt;Node9</title>
<path fill="none" stroke="#63b8ff" d="M734.24,-351.54C694.88,-344.08 647.63,-332.07 635.5,-316 610.3,-282.6 636.22,-231.71 653.58,-204.74"/>
<polygon fill="#63b8ff" stroke="#63b8ff" points="656.37,-206.87 659.05,-196.62 650.56,-202.96 656.37,-206.87"/>
</g>
<!-- Node10 -->
<g id="node10" class="node">
<title>Node10</title>
<g id="a_node10"><a xlink:title=" ">
<polygon fill="#e0e0e0" stroke="#999999" points="940.5,-310.5 860.5,-310.5 860.5,-291.5 940.5,-291.5 940.5,-310.5"/>
<text text-anchor="middle" x="900.5" y="-298.5" font-family="Helvetica,sans-Serif" font-size="10.00">boost/asio.hpp</text>
</a>
</g>
</g>
<!-- Node7&#45;&gt;Node10 -->
<g id="edge9" class="edge">
<title>Node7&#45;&gt;Node10</title>
<path fill="none" stroke="#63b8ff" d="M808.05,-351.62C825.5,-342.25 853.25,-327.36 873.79,-316.33"/>
<polygon fill="#63b8ff" stroke="#63b8ff" points="875.3,-319.5 882.46,-311.68 871.99,-313.33 875.3,-319.5"/>
</g>
<!-- Node11 -->
<g id="node11" class="node">
<title>Node11</title>
<g id="a_node11"><a xlink:title=" ">
<polygon fill="#e0e0e0" stroke="#999999" points="744,-85 607,-85 607,-66 744,-66 744,-85"/>
<text text-anchor="middle" x="675.5" y="-73" font-family="Helvetica,sans-Serif" font-size="10.00">boost/core/noncopyable.hpp</text>
</a>
</g>
</g>
<!-- Node7&#45;&gt;Node11 -->
<g id="edge10" class="edge">
<title>Node7&#45;&gt;Node11</title>
<path fill="none" stroke="#63b8ff" d="M725.09,-351.55C683.11,-344.38 634.41,-332.72 621.5,-316 568.81,-247.74 633.13,-137.78 662.42,-94.67"/>
<polygon fill="#63b8ff" stroke="#63b8ff" points="665.15,-96.88 668,-86.67 659.41,-92.87 665.15,-96.88"/>
</g>
<!-- Node12 -->
<g id="node12" class="node">
<title>Node12</title>
<g id="a_node12"><a xlink:href="_logging_8hpp.html" target="_top" xlink:title=" ">
<polygon fill="white" stroke="#666666" points="550,-85 481,-85 481,-66 550,-66 550,-85"/>
<text text-anchor="middle" x="515.5" y="-73" font-family="Helvetica,sans-Serif" font-size="10.00">Logging.hpp</text>
</a>
</g>
</g>
<!-- Node7&#45;&gt;Node12 -->
<g id="edge11" class="edge">
<title>Node7&#45;&gt;Node12</title>
<path fill="none" stroke="#63b8ff" d="M725.4,-351.55C688.35,-344.92 642,-333.84 603.5,-316 552.89,-292.55 502.5,-297.28 502.5,-241.5 502.5,-241.5 502.5,-241.5 502.5,-184.5 502.5,-153.7 507.78,-118.32 511.61,-96.68"/>
<polygon fill="#63b8ff" stroke="#63b8ff" points="515.04,-97.38 513.42,-86.91 508.15,-96.1 515.04,-97.38"/>
</g>
<!-- Node20 -->
<g id="node20" class="node">
<title>Node20</title>
<g id="a_node20"><a xlink:href="_u_dma_buf_8hpp.html" target="_top" xlink:title=" ">
<polygon fill="white" stroke="#666666" points="722,-310.5 645,-310.5 645,-291.5 722,-291.5 722,-310.5"/>
<text text-anchor="middle" x="683.5" y="-298.5" font-family="Helvetica,sans-Serif" font-size="10.00">UDmaBuf.hpp</text>
</a>
</g>
</g>
<!-- Node7&#45;&gt;Node20 -->
<g id="edge20" class="edge">
<title>Node7&#45;&gt;Node20</title>
<path fill="none" stroke="#63b8ff" d="M775.1,-351.62C757.81,-342.25 730.32,-327.36 709.96,-316.33"/>
<polygon fill="#63b8ff" stroke="#63b8ff" points="711.85,-313.37 701.39,-311.69 708.51,-319.53 711.85,-313.37"/>
</g>
<!-- Node27 -->
<g id="node27" class="node">
<title>Node27</title>
<g id="a_node27"><a xlink:href="_uio_axi_dma_if_8hpp.html" target="_top" xlink:title=" ">
<polygon fill="white" stroke="#666666" points="1186,-310.5 1097,-310.5 1097,-291.5 1186,-291.5 1186,-310.5"/>
<text text-anchor="middle" x="1141.5" y="-298.5" font-family="Helvetica,sans-Serif" font-size="10.00">UioAxiDmaIf.hpp</text>
</a>
</g>
</g>
<!-- Node7&#45;&gt;Node27 -->
<g id="edge32" class="edge">
<title>Node7&#45;&gt;Node27</title>
<path fill="none" stroke="#63b8ff" d="M865.78,-351.52C925.87,-343.73 1012.53,-331.31 1087.5,-316 1090.9,-315.31 1094.41,-314.53 1097.93,-313.71"/>
<polygon fill="#63b8ff" stroke="#63b8ff" points="1098.72,-317.12 1107.6,-311.35 1097.06,-310.32 1098.72,-317.12"/>
</g>
<!-- Node39 -->
<g id="node39" class="node">
<title>Node39</title>
<g id="a_node39"><a xlink:href="_uio_mem_sgdma_8hpp.html" target="_top" xlink:title=" ">
<polygon fill="white" stroke="#666666" points="842.5,-310.5 740.5,-310.5 740.5,-291.5 842.5,-291.5 842.5,-310.5"/>
<text text-anchor="middle" x="791.5" y="-298.5" font-family="Helvetica,sans-Serif" font-size="10.00">UioMemSgdma.hpp</text>
</a>
</g>
</g>
<!-- Node7&#45;&gt;Node39 -->
<g id="edge66" class="edge">
<title>Node7&#45;&gt;Node39</title>
<path fill="none" stroke="#63b8ff" d="M791.5,-351.87C791.5,-344 791.5,-332.1 791.5,-321.89"/>
<polygon fill="#63b8ff" stroke="#63b8ff" points="795,-322.18 791.5,-312.18 788,-322.18 795,-322.18"/>
</g>
<!-- Node40 -->
<g id="node40" class="node">
<title>Node40</title>
<g id="a_node40"><a xlink:title=" ">
<polygon fill="#e0e0e0" stroke="#999999" points="1078.5,-316 958.5,-316 958.5,-286 1078.5,-286 1078.5,-316"/>
<text text-anchor="start" x="966.5" y="-304" font-family="Helvetica,sans-Serif" font-size="10.00">boost/asio/posix/stream</text>
<text text-anchor="middle" x="1018.5" y="-293" font-family="Helvetica,sans-Serif" font-size="10.00">_descriptor.hpp</text>
</a>
</g>
</g>
<!-- Node7&#45;&gt;Node40 -->
<g id="edge69" class="edge">
<title>Node7&#45;&gt;Node40</title>
<path fill="none" stroke="#63b8ff" d="M825.98,-351.62C859.15,-343.07 910.21,-329.91 951.41,-319.29"/>
<polygon fill="#63b8ff" stroke="#63b8ff" points="952.19,-322.7 961,-316.82 950.45,-315.92 952.19,-322.7"/>
</g>
<!-- Node12&#45;&gt;Node8 -->
<g id="edge12" class="edge">
<title>Node12&#45;&gt;Node8</title>
<path fill="none" stroke="#63b8ff" d="M550.25,-68.16C555.03,-67.38 559.88,-66.63 564.5,-66 721.17,-44.47 766.32,-73.03 918.5,-30 919.33,-29.77 920.16,-29.51 920.99,-29.23"/>
<polygon fill="#63b8ff" stroke="#63b8ff" points="922.3,-32.48 930.23,-25.46 919.65,-26 922.3,-32.48"/>
</g>
<!-- Node13 -->
<g id="node13" class="node">
<title>Node13</title>
<g id="a_node13"><a xlink:title=" ">
<polygon fill="#e0e0e0" stroke="#999999" points="366.5,-24.5 270.5,-24.5 270.5,-5.5 366.5,-5.5 366.5,-24.5"/>
<text text-anchor="middle" x="318.5" y="-12.5" font-family="Helvetica,sans-Serif" font-size="10.00">boost/log/core.hpp</text>
</a>
</g>
</g>
<!-- Node12&#45;&gt;Node13 -->
<g id="edge13" class="edge">
<title>Node12&#45;&gt;Node13</title>
<path fill="none" stroke="#63b8ff" d="M485.58,-65.62C451.88,-55.61 396.92,-39.29 359.3,-28.12"/>
<polygon fill="#63b8ff" stroke="#63b8ff" points="360.74,-24.89 350.15,-25.4 358.74,-31.6 360.74,-24.89"/>
</g>
<!-- Node14 -->
<g id="node14" class="node">
<title>Node14</title>
<g id="a_node14"><a xlink:title=" ">
<polygon fill="#e0e0e0" stroke="#999999" points="514,-24.5 385,-24.5 385,-5.5 514,-5.5 514,-24.5"/>
<text text-anchor="middle" x="449.5" y="-12.5" font-family="Helvetica,sans-Serif" font-size="10.00">boost/log/expressions.hpp</text>
</a>
</g>
</g>
<!-- Node12&#45;&gt;Node14 -->
<g id="edge14" class="edge">
<title>Node12&#45;&gt;Node14</title>
<path fill="none" stroke="#63b8ff" d="M505.48,-65.62C495.59,-56.85 480.24,-43.25 468.12,-32.5"/>
<polygon fill="#63b8ff" stroke="#63b8ff" points="470.56,-29.99 460.75,-25.97 465.91,-35.22 470.56,-29.99"/>
</g>
<!-- Node15 -->
<g id="node15" class="node">
<title>Node15</title>
<g id="a_node15"><a xlink:title=" ">
<polygon fill="#e0e0e0" stroke="#999999" points="633,-24.5 532,-24.5 532,-5.5 633,-5.5 633,-24.5"/>
<text text-anchor="middle" x="582.5" y="-12.5" font-family="Helvetica,sans-Serif" font-size="10.00">boost/log/trivial.hpp</text>
</a>
</g>
</g>
<!-- Node12&#45;&gt;Node15 -->
<g id="edge15" class="edge">
<title>Node12&#45;&gt;Node15</title>
<path fill="none" stroke="#63b8ff" d="M525.68,-65.62C535.71,-56.85 551.29,-43.25 563.6,-32.5"/>
<polygon fill="#63b8ff" stroke="#63b8ff" points="565.86,-35.18 571.09,-25.96 561.25,-29.9 565.86,-35.18"/>
</g>
<!-- Node16 -->
<g id="node16" class="node">
<title>Node16</title>
<g id="a_node16"><a xlink:title=" ">
<polygon fill="#e0e0e0" stroke="#999999" points="760,-30 651,-30 651,0 760,0 760,-30"/>
<text text-anchor="start" x="659" y="-18" font-family="Helvetica,sans-Serif" font-size="10.00">boost/log/utility/setup</text>
<text text-anchor="middle" x="705.5" y="-7" font-family="Helvetica,sans-Serif" font-size="10.00">/console.hpp</text>
</a>
</g>
</g>
<!-- Node12&#45;&gt;Node16 -->
<g id="edge16" class="edge">
<title>Node12&#45;&gt;Node16</title>
<path fill="none" stroke="#63b8ff" d="M544.36,-65.62C571.71,-57.19 613.59,-44.3 647.79,-33.77"/>
<polygon fill="#63b8ff" stroke="#63b8ff" points="648.63,-37.17 657.16,-30.88 646.57,-30.48 648.63,-37.17"/>
</g>
<!-- Node17 -->
<g id="node17" class="node">
<title>Node17</title>
<g id="a_node17"><a xlink:title=" ">
<polygon fill="#e0e0e0" stroke="#999999" points="909,-30 778,-30 778,0 909,0 909,-30"/>
<text text-anchor="start" x="786" y="-18" font-family="Helvetica,sans-Serif" font-size="10.00">boost/log/sources/severity</text>
<text text-anchor="middle" x="843.5" y="-7" font-family="Helvetica,sans-Serif" font-size="10.00">_channel_logger.hpp</text>
</a>
</g>
</g>
<!-- Node12&#45;&gt;Node17 -->
<g id="edge17" class="edge">
<title>Node12&#45;&gt;Node17</title>
<path fill="none" stroke="#63b8ff" d="M550.03,-68.51C605.22,-58.93 711.94,-40.36 766.59,-30.51"/>
<polygon fill="#63b8ff" stroke="#63b8ff" points="767.04,-33.99 776.25,-28.76 765.79,-27.1 767.04,-33.99"/>
</g>
<!-- Node18 -->
<g id="node18" class="node">
<title>Node18</title>
<g id="a_node18"><a xlink:title=" ">
<polygon fill="#e0e0e0" stroke="#999999" points="113,-30 0,-30 0,0 113,0 113,-30"/>
<text text-anchor="start" x="8" y="-18" font-family="Helvetica,sans-Serif" font-size="10.00">boost/log/support/date</text>
<text text-anchor="middle" x="56.5" y="-7" font-family="Helvetica,sans-Serif" font-size="10.00">_time.hpp</text>
</a>
</g>
</g>
<!-- Node12&#45;&gt;Node18 -->
<g id="edge18" class="edge">
<title>Node12&#45;&gt;Node18</title>
<path fill="none" stroke="#63b8ff" d="M480.55,-71.73C413.42,-66.16 261.58,-52.33 124.28,-30.35"/>
<polygon fill="#63b8ff" stroke="#63b8ff" points="125.08,-26.94 114.65,-28.79 123.96,-33.85 125.08,-26.94"/>
</g>
<!-- Node19 -->
<g id="node19" class="node">
<title>Node19</title>
<g id="a_node19"><a xlink:title=" ">
<polygon fill="#e0e0e0" stroke="#999999" points="252,-30 131,-30 131,0 252,0 252,-30"/>
<text text-anchor="start" x="139" y="-18" font-family="Helvetica,sans-Serif" font-size="10.00">boost/log/utility/setup</text>
<text text-anchor="middle" x="191.5" y="-7" font-family="Helvetica,sans-Serif" font-size="10.00">/common_attributes.hpp</text>
</a>
</g>
</g>
<!-- Node12&#45;&gt;Node19 -->
<g id="edge19" class="edge">
<title>Node12&#45;&gt;Node19</title>
<path fill="none" stroke="#63b8ff" d="M480.53,-68.65C433.62,-60.73 347.42,-45.99 263.48,-30.34"/>
<polygon fill="#63b8ff" stroke="#63b8ff" points="264.15,-26.91 253.68,-28.51 262.86,-33.79 264.15,-26.91"/>
</g>
<!-- Node20&#45;&gt;Node12 -->
<g id="edge31" class="edge">
<title>Node20&#45;&gt;Node12</title>
<path fill="none" stroke="#63b8ff" d="M676.91,-291.24C651.99,-258.07 563.1,-139.82 528.97,-94.43"/>
<polygon fill="#63b8ff" stroke="#63b8ff" points="531.94,-92.54 523.13,-86.65 526.34,-96.75 531.94,-92.54"/>
</g>
<!-- Node21 -->
<g id="node21" class="node">
<title>Node21</title>
<g id="a_node21"><a xlink:href="_dma_buffer_abstract_8hpp.html" target="_top" xlink:title=" ">
<polygon fill="white" stroke="#666666" points="825,-250 708,-250 708,-231 825,-231 825,-250"/>
<text text-anchor="middle" x="766.5" y="-238" font-family="Helvetica,sans-Serif" font-size="10.00">DmaBufferAbstract.hpp</text>
</a>
</g>
</g>
<!-- Node20&#45;&gt;Node21 -->
<g id="edge21" class="edge">
<title>Node20&#45;&gt;Node21</title>
<path fill="none" stroke="#63b8ff" d="M696.11,-291.12C708.9,-282.1 728.98,-267.95 744.42,-257.06"/>
<polygon fill="#63b8ff" stroke="#63b8ff" points="746.38,-259.96 752.54,-251.34 742.35,-254.24 746.38,-259.96"/>
</g>
<!-- Node21&#45;&gt;Node6 -->
<g id="edge22" class="edge">
<title>Node21&#45;&gt;Node6</title>
<path fill="none" stroke="#63b8ff" d="M825.44,-236.56C916.14,-231.46 1095.21,-219.13 1245.5,-195 1246.33,-194.87 1247.17,-194.73 1248.01,-194.58"/>
<polygon fill="#63b8ff" stroke="#63b8ff" points="1248.5,-198.05 1257.62,-192.67 1247.13,-191.19 1248.5,-198.05"/>
</g>
<!-- Node21&#45;&gt;Node9 -->
<g id="edge23" class="edge">
<title>Node21&#45;&gt;Node9</title>
<path fill="none" stroke="#63b8ff" d="M749.54,-230.51C734.14,-222.35 711.19,-210.19 693.31,-200.71"/>
<polygon fill="#63b8ff" stroke="#63b8ff" points="695.03,-197.66 684.55,-196.07 691.75,-203.84 695.03,-197.66"/>
</g>
<!-- Node21&#45;&gt;Node11 -->
<g id="edge24" class="edge">
<title>Node21&#45;&gt;Node11</title>
<path fill="none" stroke="#63b8ff" d="M761.61,-230.74C747.35,-205.2 705.61,-130.43 685.96,-95.23"/>
<polygon fill="#63b8ff" stroke="#63b8ff" points="689.09,-93.65 681.15,-86.63 682.97,-97.07 689.09,-93.65"/>
</g>
<!-- Node22 -->
<g id="node22" class="node">
<title>Node22</title>
<g id="a_node22"><a xlink:href="_uio_config_8hpp.html" target="_top" xlink:title=" ">
<polygon fill="white" stroke="#666666" points="1234,-85 1123,-85 1123,-66 1234,-66 1234,-85"/>
<text text-anchor="middle" x="1178.5" y="-73" font-family="Helvetica,sans-Serif" font-size="10.00">udmaio/UioConfig.hpp</text>
</a>
</g>
</g>
<!-- Node21&#45;&gt;Node22 -->
<g id="edge25" class="edge">
<title>Node21&#45;&gt;Node22</title>
<path fill="none" stroke="#63b8ff" d="M825.22,-237.47C911.67,-233.57 1068.2,-222.82 1116.5,-195 1152.62,-174.2 1168.57,-124.3 1174.88,-96.35"/>
<polygon fill="#63b8ff" stroke="#63b8ff" points="1178.27,-97.21 1176.83,-86.71 1171.41,-95.81 1178.27,-97.21"/>
</g>
<!-- Node22&#45;&gt;Node8 -->
<g id="edge29" class="edge">
<title>Node22&#45;&gt;Node8</title>
<path fill="none" stroke="#63b8ff" d="M1143.16,-65.55C1098.48,-54.23 1022.2,-34.92 979.27,-24.05"/>
<polygon fill="#63b8ff" stroke="#63b8ff" points="980.37,-20.71 969.82,-21.65 978.66,-27.5 980.37,-20.71"/>
</g>
<!-- Node22&#45;&gt;Node23 -->
<g id="edge26" class="edge">
<title>Node22&#45;&gt;Node23</title>
<path fill="none" stroke="#63b8ff" d="M1223.63,-65.55C1281.37,-54.1 1380.41,-34.46 1434.85,-23.66"/>
<polygon fill="#63b8ff" stroke="#63b8ff" points="1435.47,-27.11 1444.59,-21.73 1434.1,-20.24 1435.47,-27.11"/>
</g>
<!-- Node24 -->
<g id="node24" class="node">
<title>Node24</title>
<g id="a_node24"><a xlink:title=" ">
<polygon fill="#e0e0e0" stroke="#999999" points="1120,-24.5 1069,-24.5 1069,-5.5 1120,-5.5 1120,-24.5"/>
<text text-anchor="middle" x="1094.5" y="-12.5" font-family="Helvetica,sans-Serif" font-size="10.00">memory</text>
</a>
</g>
</g>
<!-- Node22&#45;&gt;Node24 -->
<g id="edge27" class="edge">
<title>Node22&#45;&gt;Node24</title>
<path fill="none" stroke="#63b8ff" d="M1165.74,-65.62C1152.67,-56.51 1132.09,-42.18 1116.4,-31.25"/>
<polygon fill="#63b8ff" stroke="#63b8ff" points="1118.83,-28.68 1108.62,-25.83 1114.83,-34.42 1118.83,-28.68"/>
</g>
<!-- Node25 -->
<g id="node25" class="node">
<title>Node25</title>
<g id="a_node25"><a xlink:title=" ">
<polygon fill="#e0e0e0" stroke="#999999" points="1285,-24.5 1226,-24.5 1226,-5.5 1285,-5.5 1285,-24.5"/>
<text text-anchor="middle" x="1255.5" y="-12.5" font-family="Helvetica,sans-Serif" font-size="10.00">stdexcept</text>
</a>
</g>
</g>
<!-- Node22&#45;&gt;Node25 -->
<g id="edge28" class="edge">
<title>Node22&#45;&gt;Node25</title>
<path fill="none" stroke="#63b8ff" d="M1190.19,-65.62C1201.95,-56.68 1220.34,-42.72 1234.61,-31.87"/>
<polygon fill="#63b8ff" stroke="#63b8ff" points="1236.64,-34.72 1242.49,-25.88 1232.41,-29.15 1236.64,-34.72"/>
</g>
<!-- Node26 -->
<g id="node26" class="node">
<title>Node26</title>
<g id="a_node26"><a xlink:title=" ">
<polygon fill="#e0e0e0" stroke="#999999" points="1207.5,-24.5 1141.5,-24.5 1141.5,-5.5 1207.5,-5.5 1207.5,-24.5"/>
<text text-anchor="middle" x="1174.5" y="-12.5" font-family="Helvetica,sans-Serif" font-size="10.00">string_view</text>
</a>
</g>
</g>
<!-- Node22&#45;&gt;Node26 -->
<g id="edge30" class="edge">
<title>Node22&#45;&gt;Node26</title>
<path fill="none" stroke="#63b8ff" d="M1177.91,-65.87C1177.37,-58 1176.56,-46.1 1175.86,-35.89"/>
<polygon fill="#63b8ff" stroke="#63b8ff" points="1179.37,-35.92 1175.2,-26.18 1172.39,-36.39 1179.37,-35.92"/>
</g>
<!-- Node28 -->
<g id="node28" class="node">
<title>Node28</title>
<g id="a_node28"><a xlink:href="_axi_dma_8hpp.html" target="_top" xlink:title=" ">
<polygon fill="white" stroke="#666666" points="1226.5,-250 1158.5,-250 1158.5,-231 1226.5,-231 1226.5,-250"/>
<text text-anchor="middle" x="1192.5" y="-238" font-family="Helvetica,sans-Serif" font-size="10.00">AxiDma.hpp</text>
</a>
</g>
</g>
<!-- Node27&#45;&gt;Node28 -->
<g id="edge33" class="edge">
<title>Node27&#45;&gt;Node28</title>
<path fill="none" stroke="#63b8ff" d="M1149.03,-291.37C1156.48,-282.81 1168.11,-269.47 1177.47,-258.74"/>
<polygon fill="#63b8ff" stroke="#63b8ff" points="1180.02,-261.15 1183.95,-251.31 1174.74,-256.55 1180.02,-261.15"/>
</g>
<!-- Node29 -->
<g id="node29" class="node">
<title>Node29</title>
<g id="a_node29"><a xlink:href="_reg_accessor_8hpp.html" target="_top" xlink:title=" ">
<polygon fill="white" stroke="#666666" points="1102,-250 1009,-250 1009,-231 1102,-231 1102,-250"/>
<text text-anchor="middle" x="1055.5" y="-238" font-family="Helvetica,sans-Serif" font-size="10.00">RegAccessor.hpp</text>
</a>
</g>
</g>
<!-- Node27&#45;&gt;Node29 -->
<g id="edge35" class="edge">
<title>Node27&#45;&gt;Node29</title>
<path fill="none" stroke="#63b8ff" d="M1128.44,-291.12C1115.05,-282.01 1093.98,-267.68 1077.92,-256.75"/>
<polygon fill="#63b8ff" stroke="#63b8ff" points="1080.17,-254.05 1069.94,-251.32 1076.24,-259.84 1080.17,-254.05"/>
</g>
<!-- Node30 -->
<g id="node30" class="node">
<title>Node30</title>
<g id="a_node30"><a xlink:href="_uio_if_8hpp.html" target="_top" xlink:title=" ">
<polygon fill="white" stroke="#666666" points="1107.5,-195 1017.5,-195 1017.5,-176 1107.5,-176 1107.5,-195"/>
<text text-anchor="middle" x="1062.5" y="-183" font-family="Helvetica,sans-Serif" font-size="10.00">udmaio/UioIf.hpp</text>
</a>
</g>
</g>
<!-- Node27&#45;&gt;Node30 -->
<g id="edge65" class="edge">
<title>Node27&#45;&gt;Node30</title>
<path fill="none" stroke="#63b8ff" d="M1139.04,-291.33C1134.87,-277.63 1125.5,-250.54 1111.5,-231 1103.77,-220.21 1093.04,-210.1 1083.59,-202.25"/>
<polygon fill="#63b8ff" stroke="#63b8ff" points="1085.92,-199.63 1075.91,-196.15 1081.57,-205.11 1085.92,-199.63"/>
</g>
<!-- Node28&#45;&gt;Node6 -->
<g id="edge34" class="edge">
<title>Node28&#45;&gt;Node6</title>
<path fill="none" stroke="#63b8ff" d="M1207.77,-230.51C1221.43,-222.47 1241.7,-210.53 1257.68,-201.11"/>
<polygon fill="#63b8ff" stroke="#63b8ff" points="1259.31,-204.22 1266.15,-196.13 1255.76,-198.18 1259.31,-204.22"/>
</g>
<!-- Node29&#45;&gt;Node6 -->
<g id="edge36" class="edge">
<title>Node29&#45;&gt;Node6</title>
<path fill="none" stroke="#63b8ff" d="M1094.01,-230.51C1137.16,-220.43 1206.48,-204.25 1247.95,-194.57"/>
<polygon fill="#63b8ff" stroke="#63b8ff" points="1248.7,-197.99 1257.64,-192.3 1247.1,-191.17 1248.7,-197.99"/>
</g>
<!-- Node29&#45;&gt;Node30 -->
<g id="edge37" class="edge">
<title>Node29&#45;&gt;Node30</title>
<path fill="none" stroke="#63b8ff" d="M1056.66,-230.75C1057.52,-224.19 1058.74,-214.95 1059.84,-206.6"/>
<polygon fill="#63b8ff" stroke="#63b8ff" points="1063.28,-207.31 1061.12,-196.94 1056.34,-206.4 1063.28,-207.31"/>
</g>
<!-- Node30&#45;&gt;Node8 -->
<g id="edge42" class="edge">
<title>Node30&#45;&gt;Node8</title>
<path fill="none" stroke="#63b8ff" d="M1017.02,-181.23C957.69,-176.06 858.3,-164.02 831.5,-140 806.37,-117.48 794.93,-93.49 814.5,-66 842.87,-26.16 873.29,-48.66 918.5,-30 918.85,-29.86 919.2,-29.71 919.55,-29.56"/>
<polygon fill="#63b8ff" stroke="#63b8ff" points="920.8,-32.84 928.48,-25.54 917.92,-26.46 920.8,-32.84"/>
</g>
<!-- Node30&#45;&gt;Node11 -->
<g id="edge43" class="edge">
<title>Node30&#45;&gt;Node11</title>
<path fill="none" stroke="#63b8ff" d="M1017.07,-184.86C955.93,-183.82 844.87,-176.44 758.5,-140 732.51,-129.04 707.47,-107.97 691.82,-93.11"/>
<polygon fill="#63b8ff" stroke="#63b8ff" points="694.42,-90.76 684.83,-86.26 689.52,-95.76 694.42,-90.76"/>
</g>
<!-- Node30&#45;&gt;Node12 -->
<g id="edge63" class="edge">
<title>Node30&#45;&gt;Node12</title>
<path fill="none" stroke="#63b8ff" d="M1017.26,-181.01C951.72,-175.4 826.78,-162.65 722.5,-140 661.05,-126.65 591.53,-103.64 550.72,-89.29"/>
<polygon fill="#63b8ff" stroke="#63b8ff" points="552.02,-86.03 541.42,-85.99 549.68,-92.63 552.02,-86.03"/>
</g>
<!-- Node30&#45;&gt;Node22 -->
<g id="edge64" class="edge">
<title>Node30&#45;&gt;Node22</title>
<path fill="none" stroke="#63b8ff" d="M1082.34,-175.62C1098.25,-167.82 1120.48,-155.35 1136.5,-140 1150.07,-127 1161.52,-108.85 1169.02,-95.28"/>
<polygon fill="#63b8ff" stroke="#63b8ff" points="1172.08,-97 1173.65,-86.52 1165.89,-93.73 1172.08,-97"/>
</g>
<!-- Node30&#45;&gt;Node23 -->
<g id="edge40" class="edge">
<title>Node30&#45;&gt;Node23</title>
<path fill="none" stroke="#63b8ff" d="M1107.94,-183.33C1225.85,-179.21 1536.61,-161.21 1597.5,-85 1624.22,-51.55 1557.53,-31.72 1511.93,-22.43"/>
<polygon fill="#63b8ff" stroke="#63b8ff" points="1512.83,-19.04 1502.35,-20.58 1511.5,-25.91 1512.83,-19.04"/>
</g>
<!-- Node30&#45;&gt;Node24 -->
<g id="edge41" class="edge">
<title>Node30&#45;&gt;Node24</title>
<path fill="none" stroke="#63b8ff" d="M1017.28,-178.8C934.84,-166.63 773.53,-133.52 829.5,-66 843.98,-48.54 988.39,-28.86 1057.72,-20.33"/>
<polygon fill="#63b8ff" stroke="#63b8ff" points="1057.95,-23.83 1067.46,-19.15 1057.11,-16.88 1057.95,-23.83"/>
</g>
<!-- Node31 -->
<g id="node31" class="node">
<title>Node31</title>
<g id="a_node31"><a xlink:title=" ">
<polygon fill="#e0e0e0" stroke="#999999" points="898.5,-85 838.5,-85 838.5,-66 898.5,-66 898.5,-85"/>
<text text-anchor="middle" x="868.5" y="-73" font-family="Helvetica,sans-Serif" font-size="10.00">filesystem</text>
</a>
</g>
</g>
<!-- Node30&#45;&gt;Node31 -->
<g id="edge38" class="edge">
<title>Node30&#45;&gt;Node31</title>
<path fill="none" stroke="#63b8ff" d="M1040.22,-175.57C1020.03,-167.2 989.68,-153.93 964.5,-140 937.82,-125.24 908.84,-105.52 889.78,-91.99"/>
<polygon fill="#63b8ff" stroke="#63b8ff" points="891.93,-89.23 881.77,-86.24 887.86,-94.92 891.93,-89.23"/>
</g>
<!-- Node32 -->
<g id="node32" class="node">
<title>Node32</title>
<g id="a_node32"><a xlink:title=" ">
<polygon fill="#e0e0e0" stroke="#999999" points="966.5,-85 916.5,-85 916.5,-66 966.5,-66 966.5,-85"/>
<text text-anchor="middle" x="941.5" y="-73" font-family="Helvetica,sans-Serif" font-size="10.00">fstream</text>
</a>
</g>
</g>
<!-- Node30&#45;&gt;Node32 -->
<g id="edge39" class="edge">
<title>Node30&#45;&gt;Node32</title>
<path fill="none" stroke="#63b8ff" d="M1041.59,-175.53C1025.1,-167.77 1002.19,-155.38 985.5,-140 971.33,-126.95 959.22,-108.56 951.3,-94.92"/>
<polygon fill="#63b8ff" stroke="#63b8ff" points="954.56,-93.57 946.64,-86.53 948.44,-96.97 954.56,-93.57"/>
</g>
<!-- Node33 -->
<g id="node33" class="node">
<title>Node33</title>
<g id="a_node33"><a xlink:title=" ">
<polygon fill="#e0e0e0" stroke="#999999" points="1028,-85 985,-85 985,-66 1028,-66 1028,-85"/>
<text text-anchor="middle" x="1006.5" y="-73" font-family="Helvetica,sans-Serif" font-size="10.00">fcntl.h</text>
</a>
</g>
</g>
<!-- Node30&#45;&gt;Node33 -->
<g id="edge44" class="edge">
<title>Node30&#45;&gt;Node33</title>
<path fill="none" stroke="#63b8ff" d="M1037.35,-175.55C1021.67,-168.52 1002.78,-157.02 993.5,-140 986,-126.24 990.5,-108.67 996.17,-95.5"/>
<polygon fill="#63b8ff" stroke="#63b8ff" points="999.26,-97.14 1000.51,-86.62 992.98,-94.07 999.26,-97.14"/>
</g>
<!-- Node34 -->
<g id="node34" class="node">
<title>Node34</title>
<g id="a_node34"><a xlink:title=" ">
<polygon fill="#e0e0e0" stroke="#999999" points="1360,-85 1291,-85 1291,-66 1360,-66 1360,-85"/>
<text text-anchor="middle" x="1325.5" y="-73" font-family="Helvetica,sans-Serif" font-size="10.00">sys/mman.h</text>
</a>
</g>
</g>
<!-- Node30&#45;&gt;Node34 -->
<g id="edge45" class="edge">
<title>Node30&#45;&gt;Node34</title>
<path fill="none" stroke="#63b8ff" d="M1084.02,-175.66C1130.16,-156.72 1238.81,-112.1 1293.24,-89.75"/>
<polygon fill="#63b8ff" stroke="#63b8ff" points="1294.36,-93.07 1302.28,-86.04 1291.7,-86.6 1294.36,-93.07"/>
</g>
<!-- Node35 -->
<g id="node35" class="node">
<title>Node35</title>
<g id="a_node35"><a xlink:title=" ">
<polygon fill="#e0e0e0" stroke="#999999" points="1437,-85 1378,-85 1378,-66 1437,-66 1437,-85"/>
<text text-anchor="middle" x="1407.5" y="-73" font-family="Helvetica,sans-Serif" font-size="10.00">sys/stat.h</text>
</a>
</g>
</g>
<!-- Node30&#45;&gt;Node35 -->
<g id="edge46" class="edge">
<title>Node30&#45;&gt;Node35</title>
<path fill="none" stroke="#63b8ff" d="M1091.96,-175.55C1121.28,-166.62 1167.53,-152.48 1207.5,-140 1263.64,-122.47 1328.51,-101.8 1368.78,-88.92"/>
<polygon fill="#63b8ff" stroke="#63b8ff" points="1369.8,-92.26 1378.26,-85.88 1367.67,-85.6 1369.8,-92.26"/>
</g>
<!-- Node36 -->
<g id="node36" class="node">
<title>Node36</title>
<g id="a_node36"><a xlink:title=" ">
<polygon fill="#e0e0e0" stroke="#999999" points="1520,-85 1455,-85 1455,-66 1520,-66 1520,-85"/>
<text text-anchor="middle" x="1487.5" y="-73" font-family="Helvetica,sans-Serif" font-size="10.00">sys/types.h</text>
</a>
</g>
</g>
<!-- Node30&#45;&gt;Node36 -->
<g id="edge47" class="edge">
<title>Node30&#45;&gt;Node36</title>
<path fill="none" stroke="#63b8ff" d="M1101.04,-175.57C1138.71,-166.78 1197.63,-152.84 1248.5,-140 1316.9,-122.73 1395.97,-101.47 1443.82,-88.45"/>
<polygon fill="#63b8ff" stroke="#63b8ff" points="1444.52,-91.89 1453.25,-85.89 1442.68,-85.14 1444.52,-91.89"/>
</g>
<!-- Node37 -->
<g id="node37" class="node">
<title>Node37</title>
<g id="a_node37"><a xlink:title=" ">
<polygon fill="#e0e0e0" stroke="#999999" points="1588.5,-85 1538.5,-85 1538.5,-66 1588.5,-66 1588.5,-85"/>
<text text-anchor="middle" x="1563.5" y="-73" font-family="Helvetica,sans-Serif" font-size="10.00">unistd.h</text>
</a>
</g>
</g>
<!-- Node30&#45;&gt;Node37 -->
<g id="edge48" class="edge">
<title>Node30&#45;&gt;Node37</title>
<path fill="none" stroke="#63b8ff" d="M1107.87,-176.6C1155.48,-168.16 1232.44,-154.08 1298.5,-140 1398.19,-118.75 1425.15,-110.58 1527.14,-85.56"/>
<polygon fill="#63b8ff" stroke="#63b8ff" points="1527.91,-88.98 1536.79,-83.2 1526.24,-82.18 1527.91,-88.98"/>
</g>
<!-- Node38 -->
<g id="node38" class="node">
<title>Node38</title>
<g id="a_node38"><a xlink:href="_hw_accessor_8hpp.html" target="_top" xlink:title=" ">
<polygon fill="white" stroke="#666666" points="1127,-140 1002,-140 1002,-121 1127,-121 1127,-140"/>
<text text-anchor="middle" x="1064.5" y="-128" font-family="Helvetica,sans-Serif" font-size="10.00">udmaio/HwAccessor.hpp</text>
</a>
</g>
</g>
<!-- Node30&#45;&gt;Node38 -->
<g id="edge49" class="edge">
<title>Node30&#45;&gt;Node38</title>
<path fill="none" stroke="#63b8ff" d="M1062.83,-175.75C1063.07,-169.27 1063.42,-160.16 1063.73,-151.9"/>
<polygon fill="#63b8ff" stroke="#63b8ff" points="1067.23,-152.08 1064.11,-141.95 1060.23,-151.82 1067.23,-152.08"/>
</g>
<!-- Node38&#45;&gt;Node8 -->
<g id="edge54" class="edge">
<title>Node38&#45;&gt;Node8</title>
<path fill="none" stroke="#63b8ff" d="M1062.69,-120.71C1059.58,-107.46 1052.09,-82.21 1037.5,-66 1021.61,-48.34 997.96,-35.54 978.89,-27.31"/>
<polygon fill="#63b8ff" stroke="#63b8ff" points="980.27,-24.1 969.68,-23.57 977.63,-30.58 980.27,-24.1"/>
</g>
<!-- Node38&#45;&gt;Node11 -->
<g id="edge55" class="edge">
<title>Node38&#45;&gt;Node11</title>
<path fill="none" stroke="#63b8ff" d="M1001.57,-120.93C933.7,-111.68 825.6,-96.95 752.66,-87.01"/>
<polygon fill="#63b8ff" stroke="#63b8ff" points="753.15,-83.55 742.77,-85.66 752.2,-90.48 753.15,-83.55"/>
</g>
<!-- Node38&#45;&gt;Node12 -->
<g id="edge61" class="edge">
<title>Node38&#45;&gt;Node12</title>
<path fill="none" stroke="#63b8ff" d="M1001.79,-123.69C912.13,-115.35 742.16,-99.39 597.5,-85 585.86,-83.84 573.29,-82.56 561.57,-81.34"/>
<polygon fill="#63b8ff" stroke="#63b8ff" points="562.02,-77.87 551.71,-80.32 561.3,-84.83 562.02,-77.87"/>
</g>
<!-- Node38&#45;&gt;Node22 -->
<g id="edge62" class="edge">
<title>Node38&#45;&gt;Node22</title>
<path fill="none" stroke="#63b8ff" d="M1083.84,-120.51C1101.72,-112.2 1128.54,-99.73 1149.07,-90.18"/>
<polygon fill="#63b8ff" stroke="#63b8ff" points="1150.48,-93.39 1158.07,-86 1147.53,-87.04 1150.48,-93.39"/>
</g>
<!-- Node38&#45;&gt;Node23 -->
<g id="edge52" class="edge">
<title>Node38&#45;&gt;Node23</title>
<path fill="none" stroke="#63b8ff" d="M1112.04,-120.52C1148.58,-112.94 1200.01,-100.8 1243.5,-85 1261.62,-78.42 1264.42,-72.7 1282.5,-66 1334.03,-46.92 1395.91,-32.13 1434.98,-23.74"/>
<polygon fill="#63b8ff" stroke="#63b8ff" points="1435.55,-27.19 1444.61,-21.7 1434.11,-20.35 1435.55,-27.19"/>
</g>
<!-- Node38&#45;&gt;Node24 -->
<g id="edge53" class="edge">
<title>Node38&#45;&gt;Node24</title>
<path fill="none" stroke="#63b8ff" d="M1066.85,-120.59C1071.65,-102.44 1082.66,-60.79 1089.25,-35.87"/>
<polygon fill="#63b8ff" stroke="#63b8ff" points="1092.6,-36.89 1091.77,-26.33 1085.83,-35.1 1092.6,-36.89"/>
</g>
<!-- Node38&#45;&gt;Node31 -->
<g id="edge50" class="edge">
<title>Node38&#45;&gt;Node31</title>
<path fill="none" stroke="#63b8ff" d="M1031.25,-120.51C997.6,-111.41 945.51,-97.32 909.36,-87.55"/>
<polygon fill="#63b8ff" stroke="#63b8ff" points="910.72,-84.29 900.15,-85.06 908.89,-91.05 910.72,-84.29"/>
</g>
<!-- Node38&#45;&gt;Node32 -->
<g id="edge51" class="edge">
<title>Node38&#45;&gt;Node32</title>
<path fill="none" stroke="#63b8ff" d="M1043.63,-120.51C1024.08,-112.08 994.6,-99.38 972.33,-89.79"/>
<polygon fill="#63b8ff" stroke="#63b8ff" points="974.02,-86.7 963.45,-85.96 971.25,-93.13 974.02,-86.7"/>
</g>
<!-- Node38&#45;&gt;Node33 -->
<g id="edge56" class="edge">
<title>Node38&#45;&gt;Node33</title>
<path fill="none" stroke="#63b8ff" d="M1054.66,-120.51C1046.45,-113 1034.52,-102.1 1024.59,-93.03"/>
<polygon fill="#63b8ff" stroke="#63b8ff" points="1027.05,-90.54 1017.31,-86.38 1022.33,-95.71 1027.05,-90.54"/>
</g>
<!-- Node38&#45;&gt;Node34 -->
<g id="edge57" class="edge">
<title>Node38&#45;&gt;Node34</title>
<path fill="none" stroke="#63b8ff" d="M1108.78,-120.51C1156.3,-110.86 1231.45,-95.6 1279.6,-85.82"/>
<polygon fill="#63b8ff" stroke="#63b8ff" points="1280.05,-89.3 1289.15,-83.88 1278.65,-82.44 1280.05,-89.3"/>
</g>
<!-- Node38&#45;&gt;Node35 -->
<g id="edge58" class="edge">
<title>Node38&#45;&gt;Node35</title>
<path fill="none" stroke="#63b8ff" d="M1127.23,-121.75C1186.51,-114.11 1278.19,-101.48 1366.38,-85.47"/>
<polygon fill="#63b8ff" stroke="#63b8ff" points="1366.98,-88.92 1376.18,-83.67 1365.72,-82.03 1366.98,-88.92"/>
</g>
<!-- Node38&#45;&gt;Node36 -->
<g id="edge59" class="edge">
<title>Node38&#45;&gt;Node36</title>
<path fill="none" stroke="#63b8ff" d="M1127.26,-123.91C1200.78,-116.97 1326.45,-103.93 1443.57,-85.35"/>
<polygon fill="#63b8ff" stroke="#63b8ff" points="1444.06,-88.82 1453.38,-83.78 1442.95,-81.9 1444.06,-88.82"/>
</g>
<!-- Node38&#45;&gt;Node37 -->
<g id="edge60" class="edge">
<title>Node38&#45;&gt;Node37</title>
<path fill="none" stroke="#63b8ff" d="M1127.32,-126.48C1214.85,-121.6 1378.59,-110.1 1527.21,-85.14"/>
<polygon fill="#63b8ff" stroke="#63b8ff" points="1527.58,-88.62 1536.85,-83.49 1526.4,-81.72 1527.58,-88.62"/>
</g>
<!-- Node39&#45;&gt;Node21 -->
<g id="edge67" class="edge">
<title>Node39&#45;&gt;Node21</title>
<path fill="none" stroke="#63b8ff" d="M787.81,-291.37C784.38,-283.33 779.14,-271.07 774.71,-260.72"/>
<polygon fill="#63b8ff" stroke="#63b8ff" points="777.95,-259.38 770.8,-251.56 771.51,-262.13 777.95,-259.38"/>
</g>
<!-- Node39&#45;&gt;Node29 -->
<g id="edge68" class="edge">
<title>Node39&#45;&gt;Node29</title>
<path fill="none" stroke="#63b8ff" d="M829.57,-291.03C836.85,-289.34 844.4,-287.6 851.5,-286 902.73,-274.44 961.31,-261.71 1002.52,-252.84"/>
<polygon fill="#63b8ff" stroke="#63b8ff" points="1003.14,-256.29 1012.18,-250.76 1001.66,-249.44 1003.14,-256.29"/>
</g>
</g>
</svg>
        <g id="navigator" transform="translate(0 0)" fill="#404254">
                <rect fill="#f2f5e9" fill-opacity="0.5" stroke="#606060" stroke-width=".5" x="0" y="0" width="60" height="60"/>
                <use id="zoomplus" xlink:href="#zoomPlus" x="17" y="9" onmousedown="handleZoom(evt,'in')"/>
                <use id="zoomminus" xlink:href="#zoomMin" x="42" y="9" onmousedown="handleZoom(evt,'out')"/>
                <use id="reset" xlink:href="#resetDef" x="30" y="36" onmousedown="handleReset()"/>
                <g id="arrowUp" xlink:href="#dirArrow" transform="translate(30 24)" onmousedown="handlePan(0,-1)">
                  <use xlink:href="#rim" fill="#404040">
                        <set attributeName="fill" to="#808080" begin="arrowUp.mouseover" end="arrowUp.mouseout"/>
                  </use>
                  <path fill="none" stroke="white" stroke-width="1.5" d="M0,-3.0v7 M-2.5,-0.5L0,-3.0L2.5,-0.5"/>
                </g>
                <g id="arrowRight" xlink:href="#dirArrow" transform="rotate(90) translate(36 -43)" onmousedown="handlePan(1,0)">
                  <use xlink:href="#rim" fill="#404040">
                        <set attributeName="fill" to="#808080" begin="arrowRight.mouseover" end="arrowRight.mouseout"/>
                  </use>
                  <path fill="none" stroke="white" stroke-width="1.5" d="M0,-3.0v7 M-2.5,-0.5L0,-3.0L2.5,-0.5"/>
                </g>
                <g id="arrowDown" xlink:href="#dirArrow" transform="rotate(180) translate(-30 -48)" onmousedown="handlePan(0,1)">
                  <use xlink:href="#rim" fill="#404040">
                        <set attributeName="fill" to="#808080" begin="arrowDown.mouseover" end="arrowDown.mouseout"/>
                  </use>
                  <path fill="none" stroke="white" stroke-width="1.5" d="M0,-3.0v7 M-2.5,-0.5L0,-3.0L2.5,-0.5"/>
                </g>
                <g id="arrowLeft" xlink:href="#dirArrow" transform="rotate(270) translate(-36 17)" onmousedown="handlePan(-1,0)">
                  <use xlink:href="#rim" fill="#404040">
                        <set attributeName="fill" to="#808080" begin="arrowLeft.mouseover" end="arrowLeft.mouseout"/>
                  </use>
                  <path fill="none" stroke="white" stroke-width="1.5" d="M0,-3.0v7 M-2.5,-0.5L0,-3.0L2.5,-0.5"/>
                </g>
        </g>
        <svg viewBox="0 0 15 15" width="100%" height="30px" preserveAspectRatio="xMaxYMin meet">
         <g id="arrow_out" transform="scale(0.3 0.3)">
          <a xlink:href="_data_handler_print_8cpp__incl_org.svg" target="_base">
           <rect id="button" ry="5" rx="5" y="6" x="6" height="38" width="38"
                fill="#f2f5e9" fill-opacity="0.5" stroke="#606060" stroke-width="1.0"/>
           <path id="arrow"
             d="M 11.500037,31.436501 C 11.940474,20.09759 22.043105,11.32322 32.158766,21.979434 L 37.068811,17.246167 C 37.068811,17.246167 37.088388,32 37.088388,32 L 22.160133,31.978069 C 22.160133,31.978069 26.997745,27.140456 26.997745,27.140456 C 18.528582,18.264221 13.291696,25.230495 11.500037,31.436501 z"
             style="fill:#404040;"/>
          </a>
         </g>
        </svg>
</svg>
