<?xml version="1.0" encoding="UTF-8" standalone="no"?>
<!DOCTYPE svg PUBLIC "-//W3C//DTD SVG 1.1//EN"
 "http://www.w3.org/Graphics/SVG/1.1/DTD/svg11.dtd">
<!-- Generated by graphviz version 7.0.5 (20221223.1930)
 -->
<!-- Title: DataHandlerPrint.hpp Pages: 1 -->
<!--zoomable 434 -->
<svg id="main" version="1.1" xmlns="http://www.w3.org/2000/svg" xmlns:xlink="http://www.w3.org/1999/xlink" xml:space="preserve" onload="init(evt)">
<style type="text/css"><![CDATA[
.edge:hover path { stroke: red; }
.edge:hover polygon { stroke: red; fill: red; }
]]></style>
<script type="text/javascript"><![CDATA[
var edges = document.getElementsByTagName('g');
if (edges && edges.length) {
  for (var i=0;i<edges.length;i++) {
    if (edges[i].id.substr(0,4)=='edge') {
      edges[i].setAttribute('class','edge');
    }
  }
}
]]></script>
        <defs>
                <circle id="rim" cx="0" cy="0" r="7"/>
                <circle id="rim2" cx="0" cy="0" r="3.5"/>
                <g id="zoomPlus">
                        <use xlink:href="#rim" fill="#404040">
                                <set attributeName="fill" to="#808080" begin="zoomplus.mouseover" end="zoomplus.mouseout"/>
                        </use>
                        <path d="M-4,0h8M0,-4v8" fill="none" stroke="white" stroke-width="1.5" pointer-events="none"/>
                </g>
                <g id="zoomMin">
                        <use xlink:href="#rim" fill="#404040">
                                <set attributeName="fill" to="#808080" begin="zoomminus.mouseover" end="zoomminus.mouseout"/>
                        </use>
                        <path d="M-4,0h8" fill="none" stroke="white" stroke-width="1.5" pointer-events="none"/>
                </g>
                <g id="dirArrow">
                        <path fill="none" stroke="white" stroke-width="1.5" d="M0,-3.0v7 M-2.5,-0.5L0,-3.0L2.5,-0.5"/>
                </g>
               <g id="resetDef">
                       <use xlink:href="#rim2" fill="#404040">
                               <set attributeName="fill" to="#808080" begin="reset.mouseover" end="reset.mouseout"/>
                       </use>
               </g>
        </defs>

<script type="text/javascript">
var viewWidth = 1914;
var viewHeight = 434;
var sectionId = 'dynsection-0';
</script>
<script xlink:href="svgpan.js"/>
<svg id="graph" class="graph">
<g id="viewport">
<title>DataHandlerPrint.hpp</title>
<!-- Node1 -->
<g id="node1" class="node">
<title>Node1</title>
<g id="a_node1"><a xlink:title=" ">
<polygon fill="#999999" stroke="#666666" points="478.22,-426 369.22,-426 369.22,-407 478.22,-407 478.22,-426"/>
<text text-anchor="middle" x="423.72" y="-414" font-family="Helvetica,sans-Serif" font-size="10.00">DataHandlerPrint.hpp</text>
</a>
</g>
</g>
<!-- Node2 -->
<g id="node2" class="node">
<title>Node2</title>
<g id="a_node2"><a xlink:title=" ">
<polygon fill="#e0e0e0" stroke="#999999" points="339.72,-371 289.72,-371 289.72,-352 339.72,-352 339.72,-371"/>
<text text-anchor="middle" x="314.72" y="-359" font-family="Helvetica,sans-Serif" font-size="10.00">optional</text>
</a>
</g>
</g>
<!-- Node1&#45;&gt;Node2 -->
<g id="edge1" class="edge">
<title>Node1&#45;&gt;Node2</title>
<path fill="none" stroke="#63b8ff" d="M405.23,-406.51C388.22,-398.24 362.73,-385.84 343.13,-376.31"/>
<polygon fill="#63b8ff" stroke="#63b8ff" points="344.82,-373.25 334.3,-372.02 341.76,-379.54 344.82,-373.25"/>
</g>
<!-- Node3 -->
<g id="node3" class="node">
<title>Node3</title>
<g id="a_node3"><a xlink:title=" ">
<polygon fill="#e0e0e0" stroke="#999999" points="397.22,-371 358.22,-371 358.22,-352 397.22,-352 397.22,-371"/>
<text text-anchor="middle" x="377.72" y="-359" font-family="Helvetica,sans-Serif" font-size="10.00">utility</text>
</a>
</g>
</g>
<!-- Node1&#45;&gt;Node3 -->
<g id="edge2" class="edge">
<title>Node1&#45;&gt;Node3</title>
<path fill="none" stroke="#63b8ff" d="M416.12,-406.75C409.84,-399.5 400.71,-388.98 392.93,-380.02"/>
<polygon fill="#63b8ff" stroke="#63b8ff" points="395.67,-377.84 386.47,-372.59 390.38,-382.43 395.67,-377.84"/>
</g>
<!-- Node4 -->
<g id="node4" class="node">
<title>Node4</title>
<g id="a_node4"><a xlink:href="_axi_traffic_gen_lfsr_8hpp.html" target="_top" xlink:title=" ">
<polygon fill="white" stroke="#666666" points="525.72,-371 415.72,-371 415.72,-352 525.72,-352 525.72,-371"/>
<text text-anchor="middle" x="470.72" y="-359" font-family="Helvetica,sans-Serif" font-size="10.00">AxiTrafficGenLfsr.hpp</text>
</a>
</g>
</g>
<!-- Node1&#45;&gt;Node4 -->
<g id="edge3" class="edge">
<title>Node1&#45;&gt;Node4</title>
<path fill="none" stroke="#63b8ff" d="M431.48,-406.75C437.91,-399.5 447.23,-388.98 455.18,-380.02"/>
<polygon fill="#63b8ff" stroke="#63b8ff" points="457.77,-382.38 461.79,-372.57 452.53,-377.73 457.77,-382.38"/>
</g>
<!-- Node6 -->
<g id="node6" class="node">
<title>Node6</title>
<g id="a_node6"><a xlink:href="_data_handler_abstract_8hpp.html" target="_top" xlink:title=" ">
<polygon fill="white" stroke="#666666" points="1168.72,-371 1008.72,-371 1008.72,-352 1168.72,-352 1168.72,-371"/>
<text text-anchor="middle" x="1088.72" y="-359" font-family="Helvetica,sans-Serif" font-size="10.00">udmaio/DataHandlerAbstract.hpp</text>
</a>
</g>
</g>
<!-- Node1&#45;&gt;Node6 -->
<g id="edge5" class="edge">
<title>Node1&#45;&gt;Node6</title>
<path fill="none" stroke="#63b8ff" d="M478.71,-411.12C592.93,-402.01 856.9,-380.98 997.2,-369.79"/>
<polygon fill="#63b8ff" stroke="#63b8ff" points="997.12,-373.31 1006.81,-369.03 996.57,-366.33 997.12,-373.31"/>
</g>
<!-- Node5 -->
<g id="node5" class="node">
<title>Node5</title>
<g id="a_node5"><a xlink:title=" ">
<polygon fill="#e0e0e0" stroke="#999999" points="265.72,-195 219.72,-195 219.72,-176 265.72,-176 265.72,-195"/>
<text text-anchor="middle" x="242.72" y="-183" font-family="Helvetica,sans-Serif" font-size="10.00">cstdint</text>
</a>
</g>
</g>
<!-- Node4&#45;&gt;Node5 -->
<g id="edge4" class="edge">
<title>Node4&#45;&gt;Node5</title>
<path fill="none" stroke="#63b8ff" d="M415.38,-352.29C321.81,-337.12 138.95,-301.49 102.72,-250 74.64,-210.09 158.09,-194.8 208.07,-189.32"/>
<polygon fill="#63b8ff" stroke="#63b8ff" points="208.27,-192.81 217.87,-188.33 207.57,-185.85 208.27,-192.81"/>
</g>
<!-- Node7 -->
<g id="node7" class="node">
<title>Node7</title>
<g id="a_node7"><a xlink:title=" ">
<polygon fill="#e0e0e0" stroke="#999999" points="979.22,-24.5 938.22,-24.5 938.22,-5.5 979.22,-5.5 979.22,-24.5"/>
<text text-anchor="middle" x="958.72" y="-12.5" font-family="Helvetica,sans-Serif" font-size="10.00">string</text>
</a>
</g>
</g>
<!-- Node6&#45;&gt;Node7 -->
<g id="edge6" class="edge">
<title>Node6&#45;&gt;Node7</title>
<path fill="none" stroke="#63b8ff" d="M1099.67,-351.61C1127.49,-327.93 1198.72,-260.12 1198.72,-186.5 1198.72,-186.5 1198.72,-186.5 1198.72,-129.5 1198.72,-99.91 1200.85,-85.64 1178.72,-66 1114.12,-8.65 1069.77,-57.01 987.72,-30 987.07,-29.79 986.42,-29.56 985.77,-29.33"/>
<polygon fill="#63b8ff" stroke="#63b8ff" points="987.25,-26.15 976.67,-25.5 984.53,-32.61 987.25,-26.15"/>
</g>
<!-- Node8 -->
<g id="node8" class="node">
<title>Node8</title>
<g id="a_node8"><a xlink:title=" ">
<polygon fill="#e0e0e0" stroke="#999999" points="1022.72,-195 978.72,-195 978.72,-176 1022.72,-176 1022.72,-195"/>
<text text-anchor="middle" x="1000.72" y="-183" font-family="Helvetica,sans-Serif" font-size="10.00">vector</text>
</a>
</g>
</g>
<!-- Node6&#45;&gt;Node8 -->
<g id="edge7" class="edge">
<title>Node6&#45;&gt;Node8</title>
<path fill="none" stroke="#63b8ff" d="M1057.24,-351.61C1039.54,-344.86 1018.82,-333.66 1007.72,-316 986.51,-282.27 991.28,-233.29 996.25,-206.26"/>
<polygon fill="#63b8ff" stroke="#63b8ff" points="999.63,-207.2 998.21,-196.7 992.77,-205.79 999.63,-207.2"/>
</g>
<!-- Node9 -->
<g id="node9" class="node">
<title>Node9</title>
<g id="a_node9"><a xlink:title=" ">
<polygon fill="#e0e0e0" stroke="#999999" points="1268.72,-310.5 1188.72,-310.5 1188.72,-291.5 1268.72,-291.5 1268.72,-310.5"/>
<text text-anchor="middle" x="1228.72" y="-298.5" font-family="Helvetica,sans-Serif" font-size="10.00">boost/asio.hpp</text>
</a>
</g>
</g>
<!-- Node6&#45;&gt;Node9 -->
<g id="edge8" class="edge">
<title>Node6&#45;&gt;Node9</title>
<path fill="none" stroke="#63b8ff" d="M1109.98,-351.62C1133.11,-341.95 1170.33,-326.4 1196.93,-315.28"/>
<polygon fill="#63b8ff" stroke="#63b8ff" points="1197.98,-318.64 1205.86,-311.55 1195.28,-312.18 1197.98,-318.64"/>
</g>
<!-- Node10 -->
<g id="node10" class="node">
<title>Node10</title>
<g id="a_node10"><a xlink:title=" ">
<polygon fill="#e0e0e0" stroke="#999999" points="1170.22,-85 1033.22,-85 1033.22,-66 1170.22,-66 1170.22,-85"/>
<text text-anchor="middle" x="1101.72" y="-73" font-family="Helvetica,sans-Serif" font-size="10.00">boost/core/noncopyable.hpp</text>
</a>
</g>
</g>
<!-- Node6&#45;&gt;Node10 -->
<g id="edge9" class="edge">
<title>Node6&#45;&gt;Node10</title>
<path fill="none" stroke="#63b8ff" d="M1093.03,-351.79C1102.18,-332.45 1122.72,-284.26 1122.72,-241.5 1122.72,-241.5 1122.72,-241.5 1122.72,-184.5 1122.72,-153.2 1114.12,-117.73 1107.92,-96.24"/>
<polygon fill="#63b8ff" stroke="#63b8ff" points="1111.31,-95.36 1105.08,-86.8 1104.61,-97.38 1111.31,-95.36"/>
</g>
<!-- Node11 -->
<g id="node11" class="node">
<title>Node11</title>
<g id="a_node11"><a xlink:href="_logging_8hpp.html" target="_top" xlink:title=" ">
<polygon fill="white" stroke="#666666" points="1330.22,-85 1261.22,-85 1261.22,-66 1330.22,-66 1330.22,-85"/>
<text text-anchor="middle" x="1295.72" y="-73" font-family="Helvetica,sans-Serif" font-size="10.00">Logging.hpp</text>
</a>
</g>
</g>
<!-- Node6&#45;&gt;Node11 -->
<g id="edge10" class="edge">
<title>Node6&#45;&gt;Node11</title>
<path fill="none" stroke="#63b8ff" d="M1169.16,-359.58C1254.03,-356.91 1380.33,-347.55 1415.72,-316 1441.23,-293.26 1434.72,-275.67 1434.72,-241.5 1434.72,-241.5 1434.72,-241.5 1434.72,-184.5 1434.72,-134.81 1378.65,-104.67 1337.73,-89.3"/>
<polygon fill="#63b8ff" stroke="#63b8ff" points="1338.93,-86.01 1328.34,-85.94 1336.58,-92.6 1338.93,-86.01"/>
</g>
<!-- Node19 -->
<g id="node19" class="node">
<title>Node19</title>
<g id="a_node19"><a xlink:href="_u_dma_buf_8hpp.html" target="_top" xlink:title=" ">
<polygon fill="white" stroke="#666666" points="1094.22,-310.5 1017.22,-310.5 1017.22,-291.5 1094.22,-291.5 1094.22,-310.5"/>
<text text-anchor="middle" x="1055.72" y="-298.5" font-family="Helvetica,sans-Serif" font-size="10.00">UDmaBuf.hpp</text>
</a>
</g>
</g>
<!-- Node6&#45;&gt;Node19 -->
<g id="edge19" class="edge">
<title>Node6&#45;&gt;Node19</title>
<path fill="none" stroke="#63b8ff" d="M1083.85,-351.87C1079.22,-343.66 1072.1,-331.04 1066.19,-320.55"/>
<polygon fill="#63b8ff" stroke="#63b8ff" points="1069.31,-318.98 1061.35,-311.99 1063.22,-322.41 1069.31,-318.98"/>
</g>
<!-- Node26 -->
<g id="node26" class="node">
<title>Node26</title>
<g id="a_node26"><a xlink:href="_uio_axi_dma_if_8hpp.html" target="_top" xlink:title=" ">
<polygon fill="white" stroke="#666666" points="385.22,-310.5 296.22,-310.5 296.22,-291.5 385.22,-291.5 385.22,-310.5"/>
<text text-anchor="middle" x="340.72" y="-298.5" font-family="Helvetica,sans-Serif" font-size="10.00">UioAxiDmaIf.hpp</text>
</a>
</g>
</g>
<!-- Node6&#45;&gt;Node26 -->
<g id="edge32" class="edge">
<title>Node6&#45;&gt;Node26</title>
<path fill="none" stroke="#63b8ff" d="M1008.32,-354.21C855.76,-342.28 527.86,-316.64 396.66,-306.38"/>
<polygon fill="#63b8ff" stroke="#63b8ff" points="397.08,-302.9 386.84,-305.61 396.54,-309.88 397.08,-302.9"/>
</g>
<!-- Node41 -->
<g id="node41" class="node">
<title>Node41</title>
<g id="a_node41"><a xlink:href="_uio_mem_sgdma_8hpp.html" target="_top" xlink:title=" ">
<polygon fill="white" stroke="#666666" points="849.72,-310.5 747.72,-310.5 747.72,-291.5 849.72,-291.5 849.72,-310.5"/>
<text text-anchor="middle" x="798.72" y="-298.5" font-family="Helvetica,sans-Serif" font-size="10.00">UioMemSgdma.hpp</text>
</a>
</g>
</g>
<!-- Node6&#45;&gt;Node41 -->
<g id="edge71" class="edge">
<title>Node6&#45;&gt;Node41</title>
<path fill="none" stroke="#63b8ff" d="M1044.36,-351.55C993.3,-341.25 909.37,-324.32 854.08,-313.17"/>
<polygon fill="#63b8ff" stroke="#63b8ff" points="855.05,-309.79 844.56,-311.25 853.67,-316.66 855.05,-309.79"/>
</g>
<!-- Node42 -->
<g id="node42" class="node">
<title>Node42</title>
<g id="a_node42"><a xlink:title=" ">
<polygon fill="#e0e0e0" stroke="#999999" points="1406.72,-316 1286.72,-316 1286.72,-286 1406.72,-286 1406.72,-316"/>
<text text-anchor="start" x="1294.72" y="-304" font-family="Helvetica,sans-Serif" font-size="10.00">boost/asio/posix/stream</text>
<text text-anchor="middle" x="1346.72" y="-293" font-family="Helvetica,sans-Serif" font-size="10.00">_descriptor.hpp</text>
</a>
</g>
</g>
<!-- Node6&#45;&gt;Node42 -->
<g id="edge76" class="edge">
<title>Node6&#45;&gt;Node42</title>
<path fill="none" stroke="#63b8ff" d="M1128.19,-351.55C1167.26,-342.69 1227.96,-328.93 1275.48,-318.15"/>
<polygon fill="#63b8ff" stroke="#63b8ff" points="1276.18,-321.58 1285.16,-315.96 1274.64,-314.76 1276.18,-321.58"/>
</g>
<!-- Node11&#45;&gt;Node7 -->
<g id="edge11" class="edge">
<title>Node11&#45;&gt;Node7</title>
<path fill="none" stroke="#63b8ff" d="M1260.97,-70.83C1191.61,-63.29 1038.29,-45.46 987.72,-30 986.92,-29.75 986.11,-29.49 985.3,-29.21"/>
<polygon fill="#63b8ff" stroke="#63b8ff" points="986.9,-26.09 976.33,-25.48 984.22,-32.55 986.9,-26.09"/>
</g>
<!-- Node12 -->
<g id="node12" class="node">
<title>Node12</title>
<g id="a_node12"><a xlink:title=" ">
<polygon fill="#e0e0e0" stroke="#999999" points="1363.72,-24.5 1267.72,-24.5 1267.72,-5.5 1363.72,-5.5 1363.72,-24.5"/>
<text text-anchor="middle" x="1315.72" y="-12.5" font-family="Helvetica,sans-Serif" font-size="10.00">boost/log/core.hpp</text>
</a>
</g>
</g>
<!-- Node11&#45;&gt;Node12 -->
<g id="edge12" class="edge">
<title>Node11&#45;&gt;Node12</title>
<path fill="none" stroke="#63b8ff" d="M1298.67,-65.87C1301.39,-57.92 1305.52,-45.83 1309.04,-35.55"/>
<polygon fill="#63b8ff" stroke="#63b8ff" points="1312.34,-36.69 1312.27,-26.1 1305.72,-34.43 1312.34,-36.69"/>
</g>
<!-- Node13 -->
<g id="node13" class="node">
<title>Node13</title>
<g id="a_node13"><a xlink:title=" ">
<polygon fill="#e0e0e0" stroke="#999999" points="1511.22,-24.5 1382.22,-24.5 1382.22,-5.5 1511.22,-5.5 1511.22,-24.5"/>
<text text-anchor="middle" x="1446.72" y="-12.5" font-family="Helvetica,sans-Serif" font-size="10.00">boost/log/expressions.hpp</text>
</a>
</g>
</g>
<!-- Node11&#45;&gt;Node13 -->
<g id="edge13" class="edge">
<title>Node11&#45;&gt;Node13</title>
<path fill="none" stroke="#63b8ff" d="M1318.65,-65.62C1343.82,-55.87 1384.46,-40.12 1413.2,-28.99"/>
<polygon fill="#63b8ff" stroke="#63b8ff" points="1414.1,-32.39 1422.16,-25.52 1411.57,-25.86 1414.1,-32.39"/>
</g>
<!-- Node14 -->
<g id="node14" class="node">
<title>Node14</title>
<g id="a_node14"><a xlink:title=" ">
<polygon fill="#e0e0e0" stroke="#999999" points="1630.22,-24.5 1529.22,-24.5 1529.22,-5.5 1630.22,-5.5 1630.22,-24.5"/>
<text text-anchor="middle" x="1579.72" y="-12.5" font-family="Helvetica,sans-Serif" font-size="10.00">boost/log/trivial.hpp</text>
</a>
</g>
</g>
<!-- Node11&#45;&gt;Node14 -->
<g id="edge14" class="edge">
<title>Node11&#45;&gt;Node14</title>
<path fill="none" stroke="#63b8ff" d="M1330.49,-68.04C1374.78,-59.73 1453.6,-44.6 1520.72,-30 1524.32,-29.22 1528.04,-28.39 1531.78,-27.54"/>
<polygon fill="#63b8ff" stroke="#63b8ff" points="1532.52,-30.96 1541.47,-25.29 1530.94,-24.14 1532.52,-30.96"/>
</g>
<!-- Node15 -->
<g id="node15" class="node">
<title>Node15</title>
<g id="a_node15"><a xlink:title=" ">
<polygon fill="#e0e0e0" stroke="#999999" points="1757.22,-30 1648.22,-30 1648.22,0 1757.22,0 1757.22,-30"/>
<text text-anchor="start" x="1656.22" y="-18" font-family="Helvetica,sans-Serif" font-size="10.00">boost/log/utility/setup</text>
<text text-anchor="middle" x="1702.72" y="-7" font-family="Helvetica,sans-Serif" font-size="10.00">/console.hpp</text>
</a>
</g>
</g>
<!-- Node11&#45;&gt;Node15 -->
<g id="edge15" class="edge">
<title>Node11&#45;&gt;Node15</title>
<path fill="none" stroke="#63b8ff" d="M1330.54,-71.04C1390.88,-64.83 1518.98,-50.64 1636.47,-30.48"/>
<polygon fill="#63b8ff" stroke="#63b8ff" points="1637.06,-33.93 1646.31,-28.77 1635.86,-27.03 1637.06,-33.93"/>
</g>
<!-- Node16 -->
<g id="node16" class="node">
<title>Node16</title>
<g id="a_node16"><a xlink:title=" ">
<polygon fill="#e0e0e0" stroke="#999999" points="1906.22,-30 1775.22,-30 1775.22,0 1906.22,0 1906.22,-30"/>
<text text-anchor="start" x="1783.22" y="-18" font-family="Helvetica,sans-Serif" font-size="10.00">boost/log/sources/severity</text>
<text text-anchor="middle" x="1840.72" y="-7" font-family="Helvetica,sans-Serif" font-size="10.00">_channel_logger.hpp</text>
</a>
</g>
</g>
<!-- Node11&#45;&gt;Node16 -->
<g id="edge16" class="edge">
<title>Node11&#45;&gt;Node16</title>
<path fill="none" stroke="#63b8ff" d="M1330.71,-72.31C1407.34,-67.27 1595.95,-53.58 1763.73,-30.34"/>
<polygon fill="#63b8ff" stroke="#63b8ff" points="1764.09,-33.82 1773.51,-28.97 1763.12,-26.89 1764.09,-33.82"/>
</g>
<!-- Node17 -->
<g id="node17" class="node">
<title>Node17</title>
<g id="a_node17"><a xlink:title=" ">
<polygon fill="#e0e0e0" stroke="#999999" points="1110.22,-30 997.22,-30 997.22,0 1110.22,0 1110.22,-30"/>
<text text-anchor="start" x="1005.22" y="-18" font-family="Helvetica,sans-Serif" font-size="10.00">boost/log/support/date</text>
<text text-anchor="middle" x="1053.72" y="-7" font-family="Helvetica,sans-Serif" font-size="10.00">_time.hpp</text>
</a>
</g>
</g>
<!-- Node11&#45;&gt;Node17 -->
<g id="edge17" class="edge">
<title>Node11&#45;&gt;Node17</title>
<path fill="none" stroke="#63b8ff" d="M1260.79,-66.06C1224.51,-57.29 1166.84,-43.34 1121.56,-32.4"/>
<polygon fill="#63b8ff" stroke="#63b8ff" points="1122.64,-29.06 1112.1,-30.11 1121,-35.86 1122.64,-29.06"/>
</g>
<!-- Node18 -->
<g id="node18" class="node">
<title>Node18</title>
<g id="a_node18"><a xlink:title=" ">
<polygon fill="#e0e0e0" stroke="#999999" points="1249.22,-30 1128.22,-30 1128.22,0 1249.22,0 1249.22,-30"/>
<text text-anchor="start" x="1136.22" y="-18" font-family="Helvetica,sans-Serif" font-size="10.00">boost/log/utility/setup</text>
<text text-anchor="middle" x="1188.72" y="-7" font-family="Helvetica,sans-Serif" font-size="10.00">/common_attributes.hpp</text>
</a>
</g>
</g>
<!-- Node11&#45;&gt;Node18 -->
<g id="edge18" class="edge">
<title>Node11&#45;&gt;Node18</title>
<path fill="none" stroke="#63b8ff" d="M1279.47,-65.62C1265.07,-57.74 1243.51,-45.96 1225.02,-35.85"/>
<polygon fill="#63b8ff" stroke="#63b8ff" points="1226.91,-32.89 1216.46,-31.17 1223.55,-39.03 1226.91,-32.89"/>
</g>
<!-- Node19&#45;&gt;Node11 -->
<g id="edge30" class="edge">
<title>Node19&#45;&gt;Node11</title>
<path fill="none" stroke="#63b8ff" d="M1065.13,-291.24C1101.12,-257.73 1230.4,-137.33 1277.98,-93.02"/>
<polygon fill="#63b8ff" stroke="#63b8ff" points="1280.08,-95.85 1285.01,-86.48 1275.31,-90.73 1280.08,-95.85"/>
</g>
<!-- Node20 -->
<g id="node20" class="node">
<title>Node20</title>
<g id="a_node20"><a xlink:href="_dma_buffer_abstract_8hpp.html" target="_top" xlink:title=" ">
<polygon fill="white" stroke="#666666" points="960.22,-250 843.22,-250 843.22,-231 960.22,-231 960.22,-250"/>
<text text-anchor="middle" x="901.72" y="-238" font-family="Helvetica,sans-Serif" font-size="10.00">DmaBufferAbstract.hpp</text>
</a>
</g>
</g>
<!-- Node19&#45;&gt;Node20 -->
<g id="edge20" class="edge">
<title>Node19&#45;&gt;Node20</title>
<path fill="none" stroke="#63b8ff" d="M1032.33,-291.12C1006.66,-281.37 965.22,-265.62 935.91,-254.49"/>
<polygon fill="#63b8ff" stroke="#63b8ff" points="937.34,-251.29 926.74,-251.01 934.85,-257.83 937.34,-251.29"/>
</g>
<!-- Node21 -->
<g id="node21" class="node">
<title>Node21</title>
<g id="a_node21"><a xlink:href="_uio_config_8hpp.html" target="_top" xlink:title=" ">
<polygon fill="white" stroke="#666666" points="938.22,-85 827.22,-85 827.22,-66 938.22,-66 938.22,-85"/>
<text text-anchor="middle" x="882.72" y="-73" font-family="Helvetica,sans-Serif" font-size="10.00">udmaio/UioConfig.hpp</text>
</a>
</g>
</g>
<!-- Node19&#45;&gt;Node21 -->
<g id="edge31" class="edge">
<title>Node19&#45;&gt;Node21</title>
<path fill="none" stroke="#63b8ff" d="M1056.23,-291.02C1057.01,-269.32 1056.36,-213.07 1031.72,-176 1003.83,-134.04 951.59,-105.35 916.97,-89.93"/>
<polygon fill="#63b8ff" stroke="#63b8ff" points="918.36,-86.72 907.8,-85.99 915.6,-93.15 918.36,-86.72"/>
</g>
<!-- Node20&#45;&gt;Node5 -->
<g id="edge21" class="edge">
<title>Node20&#45;&gt;Node5</title>
<path fill="none" stroke="#63b8ff" d="M842.95,-234.77C708.99,-224 384.37,-197.89 277.48,-189.3"/>
<polygon fill="#63b8ff" stroke="#63b8ff" points="277.88,-185.82 267.63,-188.5 277.32,-192.79 277.88,-185.82"/>
</g>
<!-- Node20&#45;&gt;Node8 -->
<g id="edge22" class="edge">
<title>Node20&#45;&gt;Node8</title>
<path fill="none" stroke="#63b8ff" d="M918.51,-230.51C933.82,-222.31 956.69,-210.07 974.42,-200.58"/>
<polygon fill="#63b8ff" stroke="#63b8ff" points="975.68,-203.88 982.84,-196.07 972.37,-197.71 975.68,-203.88"/>
</g>
<!-- Node20&#45;&gt;Node10 -->
<g id="edge23" class="edge">
<title>Node20&#45;&gt;Node10</title>
<path fill="none" stroke="#63b8ff" d="M910.68,-230.56C923.43,-217.97 947.7,-194.49 969.72,-176 1007.13,-144.58 1053.17,-110.94 1079.8,-91.94"/>
<polygon fill="#63b8ff" stroke="#63b8ff" points="1081.64,-94.92 1087.77,-86.28 1077.59,-89.21 1081.64,-94.92"/>
</g>
<!-- Node20&#45;&gt;Node21 -->
<g id="edge24" class="edge">
<title>Node20&#45;&gt;Node21</title>
<path fill="none" stroke="#63b8ff" d="M900.7,-230.74C897.76,-205.53 889.23,-132.36 885.07,-96.62"/>
<polygon fill="#63b8ff" stroke="#63b8ff" points="888.56,-96.34 883.92,-86.81 881.6,-97.15 888.56,-96.34"/>
</g>
<!-- Node21&#45;&gt;Node7 -->
<g id="edge28" class="edge">
<title>Node21&#45;&gt;Node7</title>
<path fill="none" stroke="#63b8ff" d="M894.26,-65.62C905.87,-56.68 924.01,-42.72 938.1,-31.87"/>
<polygon fill="#63b8ff" stroke="#63b8ff" points="940.08,-34.76 945.87,-25.89 935.81,-29.22 940.08,-34.76"/>
</g>
<!-- Node22 -->
<g id="node22" class="node">
<title>Node22</title>
<g id="a_node22"><a xlink:title=" ">
<polygon fill="#e0e0e0" stroke="#999999" points="471.72,-24.5 417.72,-24.5 417.72,-5.5 471.72,-5.5 471.72,-24.5"/>
<text text-anchor="middle" x="444.72" y="-12.5" font-family="Helvetica,sans-Serif" font-size="10.00">iostream</text>
</a>
</g>
</g>
<!-- Node21&#45;&gt;Node22 -->
<g id="edge25" class="edge">
<title>Node21&#45;&gt;Node22</title>
<path fill="none" stroke="#63b8ff" d="M826.8,-67.03C736.53,-54.98 560.99,-31.53 483.3,-21.15"/>
<polygon fill="#63b8ff" stroke="#63b8ff" points="484.01,-17.72 473.64,-19.86 483.08,-24.66 484.01,-17.72"/>
</g>
<!-- Node23 -->
<g id="node23" class="node">
<title>Node23</title>
<g id="a_node23"><a xlink:title=" ">
<polygon fill="#e0e0e0" stroke="#999999" points="650.22,-24.5 599.22,-24.5 599.22,-5.5 650.22,-5.5 650.22,-24.5"/>
<text text-anchor="middle" x="624.72" y="-12.5" font-family="Helvetica,sans-Serif" font-size="10.00">memory</text>
</a>
</g>
</g>
<!-- Node21&#45;&gt;Node23 -->
<g id="edge26" class="edge">
<title>Node21&#45;&gt;Node23</title>
<path fill="none" stroke="#63b8ff" d="M843.25,-65.55C793.83,-54.34 709.81,-35.29 661.62,-24.37"/>
<polygon fill="#63b8ff" stroke="#63b8ff" points="662.47,-20.97 651.94,-22.17 660.92,-27.8 662.47,-20.97"/>
</g>
<!-- Node24 -->
<g id="node24" class="node">
<title>Node24</title>
<g id="a_node24"><a xlink:title=" ">
<polygon fill="#e0e0e0" stroke="#999999" points="916.22,-24.5 857.22,-24.5 857.22,-5.5 916.22,-5.5 916.22,-24.5"/>
<text text-anchor="middle" x="886.72" y="-12.5" font-family="Helvetica,sans-Serif" font-size="10.00">stdexcept</text>
</a>
</g>
</g>
<!-- Node21&#45;&gt;Node24 -->
<g id="edge27" class="edge">
<title>Node21&#45;&gt;Node24</title>
<path fill="none" stroke="#63b8ff" d="M883.31,-65.87C883.85,-58 884.66,-46.1 885.36,-35.89"/>
<polygon fill="#63b8ff" stroke="#63b8ff" points="888.83,-36.39 886.02,-26.18 881.85,-35.92 888.83,-36.39"/>
</g>
<!-- Node25 -->
<g id="node25" class="node">
<title>Node25</title>
<g id="a_node25"><a xlink:title=" ">
<polygon fill="#e0e0e0" stroke="#999999" points="838.72,-24.5 772.72,-24.5 772.72,-5.5 838.72,-5.5 838.72,-24.5"/>
<text text-anchor="middle" x="805.72" y="-12.5" font-family="Helvetica,sans-Serif" font-size="10.00">string_view</text>
</a>
</g>
</g>
<!-- Node21&#45;&gt;Node25 -->
<g id="edge29" class="edge">
<title>Node21&#45;&gt;Node25</title>
<path fill="none" stroke="#63b8ff" d="M871.03,-65.62C859.27,-56.68 840.88,-42.72 826.61,-31.87"/>
<polygon fill="#63b8ff" stroke="#63b8ff" points="828.81,-29.15 818.73,-25.88 824.58,-34.72 828.81,-29.15"/>
</g>
<!-- Node26&#45;&gt;Node5 -->
<g id="edge33" class="edge">
<title>Node26&#45;&gt;Node5</title>
<path fill="none" stroke="#63b8ff" d="M327.17,-291.04C313.95,-281.84 293.84,-266.57 279.72,-250 268.2,-236.48 258.26,-218.89 251.6,-205.65"/>
<polygon fill="#63b8ff" stroke="#63b8ff" points="254.78,-204.19 247.29,-196.71 248.48,-207.24 254.78,-204.19"/>
</g>
<!-- Node27 -->
<g id="node27" class="node">
<title>Node27</title>
<g id="a_node27"><a xlink:title=" ">
<polygon fill="#e0e0e0" stroke="#999999" points="359.72,-250 321.72,-250 321.72,-231 359.72,-231 359.72,-250"/>
<text text-anchor="middle" x="340.72" y="-238" font-family="Helvetica,sans-Serif" font-size="10.00">tuple</text>
</a>
</g>
</g>
<!-- Node26&#45;&gt;Node27 -->
<g id="edge34" class="edge">
<title>Node26&#45;&gt;Node27</title>
<path fill="none" stroke="#63b8ff" d="M340.72,-291.37C340.72,-283.5 340.72,-271.6 340.72,-261.39"/>
<polygon fill="#63b8ff" stroke="#63b8ff" points="344.22,-261.68 340.72,-251.68 337.22,-261.68 344.22,-261.68"/>
</g>
<!-- Node28 -->
<g id="node28" class="node">
<title>Node28</title>
<g id="a_node28"><a xlink:title=" ">
<polygon fill="#e0e0e0" stroke="#999999" points="83.22,-85 18.22,-85 18.22,-66 83.22,-66 83.22,-85"/>
<text text-anchor="middle" x="50.72" y="-73" font-family="Helvetica,sans-Serif" font-size="10.00">sys/types.h</text>
</a>
</g>
</g>
<!-- Node26&#45;&gt;Node28 -->
<g id="edge35" class="edge">
<title>Node26&#45;&gt;Node28</title>
<path fill="none" stroke="#63b8ff" d="M335.67,-291.2C329.98,-281.26 320.53,-264.55 312.72,-250 295.24,-217.42 304.33,-198.13 274.72,-176 205.88,-124.55 154,-190.86 84.72,-140 70.07,-129.25 61.1,-110.24 56.08,-95.82"/>
<polygon fill="#63b8ff" stroke="#63b8ff" points="59.5,-95.03 53.2,-86.51 52.81,-97.09 59.5,-95.03"/>
</g>
<!-- Node29 -->
<g id="node29" class="node">
<title>Node29</title>
<g id="a_node29"><a xlink:href="_reg_accessor_8hpp.html" target="_top" xlink:title=" ">
<polygon fill="white" stroke="#666666" points="509.22,-250 416.22,-250 416.22,-231 509.22,-231 509.22,-250"/>
<text text-anchor="middle" x="462.72" y="-238" font-family="Helvetica,sans-Serif" font-size="10.00">RegAccessor.hpp</text>
</a>
</g>
</g>
<!-- Node26&#45;&gt;Node29 -->
<g id="edge36" class="edge">
<title>Node26&#45;&gt;Node29</title>
<path fill="none" stroke="#63b8ff" d="M359.25,-291.12C379.04,-281.62 410.69,-266.45 433.77,-255.38"/>
<polygon fill="#63b8ff" stroke="#63b8ff" points="435.15,-258.6 442.65,-251.12 432.12,-252.29 435.15,-258.6"/>
</g>
<!-- Node30 -->
<g id="node30" class="node">
<title>Node30</title>
<g id="a_node30"><a xlink:href="_uio_if_8hpp.html" target="_top" xlink:title=" ">
<polygon fill="white" stroke="#666666" points="469.72,-195 379.72,-195 379.72,-176 469.72,-176 469.72,-195"/>
<text text-anchor="middle" x="424.72" y="-183" font-family="Helvetica,sans-Serif" font-size="10.00">udmaio/UioIf.hpp</text>
</a>
</g>
</g>
<!-- Node26&#45;&gt;Node30 -->
<g id="edge68" class="edge">
<title>Node26&#45;&gt;Node30</title>
<path fill="none" stroke="#63b8ff" d="M347.31,-291.09C361.11,-272.45 393.28,-228.99 411.5,-204.36"/>
<polygon fill="#63b8ff" stroke="#63b8ff" points="414.12,-206.7 417.26,-196.58 408.5,-202.54 414.12,-206.7"/>
</g>
<!-- Node40 -->
<g id="node40" class="node">
<title>Node40</title>
<g id="a_node40"><a xlink:href="_axi_dma_8hpp.html" target="_top" xlink:title=" ">
<polygon fill="white" stroke="#666666" points="227.72,-250 111.72,-250 111.72,-231 227.72,-231 227.72,-250"/>
<text text-anchor="middle" x="169.72" y="-238" font-family="Helvetica,sans-Serif" font-size="10.00">udmaio/rdl/AxiDma.hpp</text>
</a>
</g>
</g>
<!-- Node26&#45;&gt;Node40 -->
<g id="edge69" class="edge">
<title>Node26&#45;&gt;Node40</title>
<path fill="none" stroke="#63b8ff" d="M314.75,-291.12C286,-281.28 239.42,-265.34 206.83,-254.19"/>
<polygon fill="#63b8ff" stroke="#63b8ff" points="207.96,-250.88 197.37,-250.96 205.7,-257.51 207.96,-250.88"/>
</g>
<!-- Node29&#45;&gt;Node5 -->
<g id="edge37" class="edge">
<title>Node29&#45;&gt;Node5</title>
<path fill="none" stroke="#63b8ff" d="M425.4,-230.51C383.89,-220.51 317.4,-204.49 277.11,-194.79"/>
<polygon fill="#63b8ff" stroke="#63b8ff" points="278.01,-191.4 267.47,-192.46 276.37,-198.21 278.01,-191.4"/>
</g>
<!-- Node29&#45;&gt;Node30 -->
<g id="edge38" class="edge">
<title>Node29&#45;&gt;Node30</title>
<path fill="none" stroke="#63b8ff" d="M456.45,-230.75C451.36,-223.66 444.02,-213.42 437.69,-204.59"/>
<polygon fill="#63b8ff" stroke="#63b8ff" points="440.68,-202.76 432.01,-196.67 435,-206.84 440.68,-202.76"/>
</g>
<!-- Node30&#45;&gt;Node7 -->
<g id="edge43" class="edge">
<title>Node30&#45;&gt;Node7</title>
<path fill="none" stroke="#63b8ff" d="M469.83,-177.82C597.07,-158.76 950.66,-104.27 966.72,-85 978.16,-71.27 973.67,-50.31 967.86,-35.09"/>
<polygon fill="#63b8ff" stroke="#63b8ff" points="971.19,-33.97 964.01,-26.18 964.77,-36.75 971.19,-33.97"/>
</g>
<!-- Node30&#45;&gt;Node10 -->
<g id="edge44" class="edge">
<title>Node30&#45;&gt;Node10</title>
<path fill="none" stroke="#63b8ff" d="M470.1,-181.91C548.29,-176.96 713.26,-164.44 850.72,-140 926.06,-126.61 1012.2,-102.95 1061.45,-88.6"/>
<polygon fill="#63b8ff" stroke="#63b8ff" points="1062.21,-92.02 1070.82,-85.85 1060.24,-85.3 1062.21,-92.02"/>
</g>
<!-- Node30&#45;&gt;Node11 -->
<g id="edge66" class="edge">
<title>Node30&#45;&gt;Node11</title>
<path fill="none" stroke="#63b8ff" d="M470.02,-181.38C555.57,-175.24 746.67,-160.43 906.72,-140 1031.39,-124.09 1177.41,-98.32 1249.97,-85.03"/>
<polygon fill="#63b8ff" stroke="#63b8ff" points="1250.28,-88.53 1259.48,-83.28 1249.01,-81.65 1250.28,-88.53"/>
</g>
<!-- Node30&#45;&gt;Node21 -->
<g id="edge67" class="edge">
<title>Node30&#45;&gt;Node21</title>
<path fill="none" stroke="#63b8ff" d="M463.51,-175.52C502.11,-166.57 563.02,-152.4 615.72,-140 691.98,-122.05 780.43,-100.96 833.95,-88.17"/>
<polygon fill="#63b8ff" stroke="#63b8ff" points="834.76,-91.57 843.68,-85.84 833.14,-84.77 834.76,-91.57"/>
</g>
<!-- Node30&#45;&gt;Node22 -->
<g id="edge41" class="edge">
<title>Node30&#45;&gt;Node22</title>
<path fill="none" stroke="#63b8ff" d="M379.37,-181.34C299.53,-175.32 137.35,-160.92 84.72,-140 40.91,-122.59 -22.66,-101.18 8.72,-66 35,-36.53 304.59,-22 406.23,-17.54"/>
<polygon fill="#63b8ff" stroke="#63b8ff" points="406.13,-21.05 415.98,-17.12 405.83,-14.05 406.13,-21.05"/>
</g>
<!-- Node30&#45;&gt;Node23 -->
<g id="edge42" class="edge">
<title>Node30&#45;&gt;Node23</title>
<path fill="none" stroke="#63b8ff" d="M379.57,-181.8C280.09,-174.31 56.55,-148.06 130.72,-66 132.64,-63.87 473.23,-30.68 587.69,-19.58"/>
<polygon fill="#63b8ff" stroke="#63b8ff" points="587.85,-23.09 597.46,-18.64 587.17,-16.12 587.85,-23.09"/>
</g>
<!-- Node30&#45;&gt;Node28 -->
<g id="edge48" class="edge">
<title>Node30&#45;&gt;Node28</title>
<path fill="none" stroke="#63b8ff" d="M379.51,-181.51C305.05,-176 160.29,-162.69 114.72,-140 93.55,-129.46 75.07,-109.23 63.48,-94.43"/>
<polygon fill="#63b8ff" stroke="#63b8ff" points="66.31,-92.37 57.52,-86.45 60.7,-96.55 66.31,-92.37"/>
</g>
<!-- Node31 -->
<g id="node31" class="node">
<title>Node31</title>
<g id="a_node31"><a xlink:title=" ">
<polygon fill="#e0e0e0" stroke="#999999" points="199.72,-85 139.72,-85 139.72,-66 199.72,-66 199.72,-85"/>
<text text-anchor="middle" x="169.72" y="-73" font-family="Helvetica,sans-Serif" font-size="10.00">filesystem</text>
</a>
</g>
</g>
<!-- Node30&#45;&gt;Node31 -->
<g id="edge39" class="edge">
<title>Node30&#45;&gt;Node31</title>
<path fill="none" stroke="#63b8ff" d="M403.85,-175.66C359.21,-156.75 254.21,-112.29 201.33,-89.89"/>
<polygon fill="#63b8ff" stroke="#63b8ff" points="202.84,-86.73 192.27,-86.05 200.11,-93.17 202.84,-86.73"/>
</g>
<!-- Node32 -->
<g id="node32" class="node">
<title>Node32</title>
<g id="a_node32"><a xlink:title=" ">
<polygon fill="#e0e0e0" stroke="#999999" points="267.72,-85 217.72,-85 217.72,-66 267.72,-66 267.72,-85"/>
<text text-anchor="middle" x="242.72" y="-73" font-family="Helvetica,sans-Serif" font-size="10.00">fstream</text>
</a>
</g>
</g>
<!-- Node30&#45;&gt;Node32 -->
<g id="edge40" class="edge">
<title>Node30&#45;&gt;Node32</title>
<path fill="none" stroke="#63b8ff" d="M409.83,-175.66C378.63,-157.15 306.14,-114.13 267.7,-91.32"/>
<polygon fill="#63b8ff" stroke="#63b8ff" points="269.51,-88.33 259.12,-86.23 265.94,-94.35 269.51,-88.33"/>
</g>
<!-- Node33 -->
<g id="node33" class="node">
<title>Node33</title>
<g id="a_node33"><a xlink:title=" ">
<polygon fill="#e0e0e0" stroke="#999999" points="329.22,-85 286.22,-85 286.22,-66 329.22,-66 329.22,-85"/>
<text text-anchor="middle" x="307.72" y="-73" font-family="Helvetica,sans-Serif" font-size="10.00">fcntl.h</text>
</a>
</g>
</g>
<!-- Node30&#45;&gt;Node33 -->
<g id="edge45" class="edge">
<title>Node30&#45;&gt;Node33</title>
<path fill="none" stroke="#63b8ff" d="M415.15,-175.66C395.61,-157.62 350.86,-116.32 325.72,-93.12"/>
<polygon fill="#63b8ff" stroke="#63b8ff" points="328.26,-90.7 318.54,-86.49 323.51,-95.84 328.26,-90.7"/>
</g>
<!-- Node34 -->
<g id="node34" class="node">
<title>Node34</title>
<g id="a_node34"><a xlink:title=" ">
<polygon fill="#e0e0e0" stroke="#999999" points="416.22,-85 347.22,-85 347.22,-66 416.22,-66 416.22,-85"/>
<text text-anchor="middle" x="381.72" y="-73" font-family="Helvetica,sans-Serif" font-size="10.00">sys/mman.h</text>
</a>
</g>
</g>
<!-- Node30&#45;&gt;Node34 -->
<g id="edge46" class="edge">
<title>Node30&#45;&gt;Node34</title>
<path fill="none" stroke="#63b8ff" d="M421.2,-175.66C414.3,-158.34 398.86,-119.55 389.46,-95.95"/>
<polygon fill="#63b8ff" stroke="#63b8ff" points="392.8,-94.86 385.85,-86.87 386.29,-97.45 392.8,-94.86"/>
</g>
<!-- Node35 -->
<g id="node35" class="node">
<title>Node35</title>
<g id="a_node35"><a xlink:title=" ">
<polygon fill="#e0e0e0" stroke="#999999" points="634.22,-85 575.22,-85 575.22,-66 634.22,-66 634.22,-85"/>
<text text-anchor="middle" x="604.72" y="-73" font-family="Helvetica,sans-Serif" font-size="10.00">sys/stat.h</text>
</a>
</g>
</g>
<!-- Node30&#45;&gt;Node35 -->
<g id="edge47" class="edge">
<title>Node30&#45;&gt;Node35</title>
<path fill="none" stroke="#63b8ff" d="M470.16,-177.54C498.66,-171.39 534.94,-160.14 561.72,-140 577.17,-128.38 588.93,-109.52 596.21,-95.36"/>
<polygon fill="#63b8ff" stroke="#63b8ff" points="599.24,-97.14 600.42,-86.61 592.93,-94.11 599.24,-97.14"/>
</g>
<!-- Node36 -->
<g id="node36" class="node">
<title>Node36</title>
<g id="a_node36"><a xlink:title=" ">
<polygon fill="#e0e0e0" stroke="#999999" points="702.72,-85 652.72,-85 652.72,-66 702.72,-66 702.72,-85"/>
<text text-anchor="middle" x="677.72" y="-73" font-family="Helvetica,sans-Serif" font-size="10.00">unistd.h</text>
</a>
</g>
</g>
<!-- Node30&#45;&gt;Node36 -->
<g id="edge49" class="edge">
<title>Node30&#45;&gt;Node36</title>
<path fill="none" stroke="#63b8ff" d="M469.91,-176.08C502.74,-168.98 547.73,-157.2 584.72,-140 612.09,-127.27 640.28,-106.8 658.34,-92.55"/>
<polygon fill="#63b8ff" stroke="#63b8ff" points="660.49,-95.31 666.08,-86.32 656.1,-89.86 660.49,-95.31"/>
</g>
<!-- Node37 -->
<g id="node37" class="node">
<title>Node37</title>
<g id="a_node37"><a xlink:href="_hw_accessor_8hpp.html" target="_top" xlink:title=" ">
<polygon fill="white" stroke="#666666" points="553.22,-140 428.22,-140 428.22,-121 553.22,-121 553.22,-140"/>
<text text-anchor="middle" x="490.72" y="-128" font-family="Helvetica,sans-Serif" font-size="10.00">udmaio/HwAccessor.hpp</text>
</a>
</g>
</g>
<!-- Node30&#45;&gt;Node37 -->
<g id="edge50" class="edge">
<title>Node30&#45;&gt;Node37</title>
<path fill="none" stroke="#63b8ff" d="M435.92,-175.51C445.46,-167.85 459.39,-156.66 470.83,-147.47"/>
<polygon fill="#63b8ff" stroke="#63b8ff" points="472.9,-150.3 478.51,-141.31 468.52,-144.84 472.9,-150.3"/>
</g>
<!-- Node37&#45;&gt;Node7 -->
<g id="edge57" class="edge">
<title>Node37&#45;&gt;Node7</title>
<path fill="none" stroke="#63b8ff" d="M553.49,-127.53C671.79,-123.23 918.48,-111.2 946.72,-85 959.94,-72.73 961.87,-51.51 961.15,-35.84"/>
<polygon fill="#63b8ff" stroke="#63b8ff" points="964.67,-35.89 960.31,-26.24 957.7,-36.5 964.67,-35.89"/>
</g>
<!-- Node37&#45;&gt;Node10 -->
<g id="edge58" class="edge">
<title>Node37&#45;&gt;Node10</title>
<path fill="none" stroke="#63b8ff" d="M553.52,-124.05C665.29,-114.36 898.54,-94.12 1021.65,-83.45"/>
<polygon fill="#63b8ff" stroke="#63b8ff" points="1021.69,-86.96 1031.35,-82.6 1021.08,-79.98 1021.69,-86.96"/>
</g>
<!-- Node37&#45;&gt;Node11 -->
<g id="edge64" class="edge">
<title>Node37&#45;&gt;Node11</title>
<path fill="none" stroke="#63b8ff" d="M553.34,-125.62C674.25,-118.08 948.25,-100.82 1178.72,-85 1202.04,-83.4 1227.96,-81.53 1249.46,-79.95"/>
<polygon fill="#63b8ff" stroke="#63b8ff" points="1249.69,-83.44 1259.4,-79.21 1249.17,-76.46 1249.69,-83.44"/>
</g>
<!-- Node37&#45;&gt;Node21 -->
<g id="edge65" class="edge">
<title>Node37&#45;&gt;Node21</title>
<path fill="none" stroke="#63b8ff" d="M553.7,-120.98C625.4,-111.29 742.06,-95.52 815.48,-85.59"/>
<polygon fill="#63b8ff" stroke="#63b8ff" points="815.94,-89.06 825.38,-84.25 815,-82.12 815.94,-89.06"/>
</g>
<!-- Node37&#45;&gt;Node22 -->
<g id="edge55" class="edge">
<title>Node37&#45;&gt;Node22</title>
<path fill="none" stroke="#63b8ff" d="M486.01,-120.78C481.31,-111.92 474.05,-97.72 468.72,-85 461.82,-68.53 455.25,-49.31 450.74,-35.35"/>
<polygon fill="#63b8ff" stroke="#63b8ff" points="454.15,-34.55 447.8,-26.07 447.48,-36.66 454.15,-34.55"/>
</g>
<!-- Node37&#45;&gt;Node23 -->
<g id="edge56" class="edge">
<title>Node37&#45;&gt;Node23</title>
<path fill="none" stroke="#63b8ff" d="M489.74,-120.62C488.78,-107.26 488.95,-81.86 501.72,-66 522.88,-39.73 560.04,-27.16 588,-21.2"/>
<polygon fill="#63b8ff" stroke="#63b8ff" points="588.31,-24.71 597.47,-19.39 586.99,-17.83 588.31,-24.71"/>
</g>
<!-- Node37&#45;&gt;Node28 -->
<g id="edge62" class="edge">
<title>Node37&#45;&gt;Node28</title>
<path fill="none" stroke="#63b8ff" d="M428.15,-121.96C337.99,-111.1 173.76,-91.32 95.07,-81.84"/>
<polygon fill="#63b8ff" stroke="#63b8ff" points="95.5,-78.37 85.15,-80.65 94.66,-85.32 95.5,-78.37"/>
</g>
<!-- Node37&#45;&gt;Node31 -->
<g id="edge53" class="edge">
<title>Node37&#45;&gt;Node31</title>
<path fill="none" stroke="#63b8ff" d="M427.82,-120.64C373.12,-112.7 291.48,-100.26 211.23,-85.38"/>
<polygon fill="#63b8ff" stroke="#63b8ff" points="211.88,-81.94 201.41,-83.54 210.59,-88.82 211.88,-81.94"/>
</g>
<!-- Node37&#45;&gt;Node32 -->
<g id="edge54" class="edge">
<title>Node37&#45;&gt;Node32</title>
<path fill="none" stroke="#63b8ff" d="M445.1,-120.56C404.07,-112.4 341.88,-99.73 278.88,-85.42"/>
<polygon fill="#63b8ff" stroke="#63b8ff" points="279.95,-82.08 269.42,-83.26 278.39,-88.9 279.95,-82.08"/>
</g>
<!-- Node37&#45;&gt;Node33 -->
<g id="edge59" class="edge">
<title>Node37&#45;&gt;Node33</title>
<path fill="none" stroke="#63b8ff" d="M459.68,-120.51C426.51,-110.9 374.16,-95.74 340.39,-85.96"/>
<polygon fill="#63b8ff" stroke="#63b8ff" points="341.73,-82.71 331.15,-83.29 339.79,-89.43 341.73,-82.71"/>
</g>
<!-- Node37&#45;&gt;Node34 -->
<g id="edge60" class="edge">
<title>Node37&#45;&gt;Node34</title>
<path fill="none" stroke="#63b8ff" d="M472.23,-120.51C455.22,-112.24 429.73,-99.84 410.13,-90.31"/>
<polygon fill="#63b8ff" stroke="#63b8ff" points="411.82,-87.25 401.3,-86.02 408.76,-93.54 411.82,-87.25"/>
</g>
<!-- Node37&#45;&gt;Node35 -->
<g id="edge61" class="edge">
<title>Node37&#45;&gt;Node35</title>
<path fill="none" stroke="#63b8ff" d="M510.06,-120.51C527.94,-112.2 554.76,-99.73 575.29,-90.18"/>
<polygon fill="#63b8ff" stroke="#63b8ff" points="576.7,-93.39 584.29,-86 573.75,-87.04 576.7,-93.39"/>
</g>
<!-- Node37&#45;&gt;Node36 -->
<g id="edge63" class="edge">
<title>Node37&#45;&gt;Node36</title>
<path fill="none" stroke="#63b8ff" d="M522.44,-120.51C555.4,-111.17 606.88,-96.58 641.43,-86.78"/>
<polygon fill="#63b8ff" stroke="#63b8ff" points="642.33,-90.17 651,-84.07 640.42,-83.43 642.33,-90.17"/>
</g>
<!-- Node38 -->
<g id="node38" class="node">
<title>Node38</title>
<g id="a_node38"><a xlink:title=" ">
<polygon fill="#e0e0e0" stroke="#999999" points="770.22,-85 721.22,-85 721.22,-66 770.22,-66 770.22,-85"/>
<text text-anchor="middle" x="745.72" y="-73" font-family="Helvetica,sans-Serif" font-size="10.00">cstddef</text>
</a>
</g>
</g>
<!-- Node37&#45;&gt;Node38 -->
<g id="edge51" class="edge">
<title>Node37&#45;&gt;Node38</title>
<path fill="none" stroke="#63b8ff" d="M538.71,-120.5C581.2,-112.38 645.16,-99.81 710.03,-85.29"/>
<polygon fill="#63b8ff" stroke="#63b8ff" points="710.41,-88.8 719.39,-83.19 708.87,-81.97 710.41,-88.8"/>
</g>
<!-- Node39 -->
<g id="node39" class="node">
<title>Node39</title>
<g id="a_node39"><a xlink:title=" ">
<polygon fill="#e0e0e0" stroke="#999999" points="556.72,-85 510.72,-85 510.72,-66 556.72,-66 556.72,-85"/>
<text text-anchor="middle" x="533.72" y="-73" font-family="Helvetica,sans-Serif" font-size="10.00">cstring</text>
</a>
</g>
</g>
<!-- Node37&#45;&gt;Node39 -->
<g id="edge52" class="edge">
<title>Node37&#45;&gt;Node39</title>
<path fill="none" stroke="#63b8ff" d="M497.82,-120.75C503.64,-113.58 512.05,-103.2 519.28,-94.3"/>
<polygon fill="#63b8ff" stroke="#63b8ff" points="521.93,-96.59 525.51,-86.62 516.49,-92.18 521.93,-96.59"/>
</g>
<!-- Node40&#45;&gt;Node5 -->
<g id="edge70" class="edge">
<title>Node40&#45;&gt;Node5</title>
<path fill="none" stroke="#63b8ff" d="M182.1,-230.51C192.87,-222.7 208.69,-211.21 221.47,-201.93"/>
<polygon fill="#63b8ff" stroke="#63b8ff" points="223.26,-204.95 229.29,-196.25 219.15,-199.29 223.26,-204.95"/>
</g>
<!-- Node41&#45;&gt;Node20 -->
<g id="edge74" class="edge">
<title>Node41&#45;&gt;Node20</title>
<path fill="none" stroke="#63b8ff" d="M814.36,-291.12C830.7,-281.84 856.59,-267.13 875.95,-256.14"/>
<polygon fill="#63b8ff" stroke="#63b8ff" points="877.65,-259.2 884.61,-251.22 874.19,-253.11 877.65,-259.2"/>
</g>
<!-- Node41&#45;&gt;Node23 -->
<g id="edge73" class="edge">
<title>Node41&#45;&gt;Node23</title>
<path fill="none" stroke="#63b8ff" d="M798.72,-291.17C798.72,-272.08 798.72,-225.52 798.72,-186.5 798.72,-186.5 798.72,-186.5 798.72,-129.5 798.72,-99.91 799.55,-87.01 778.72,-66 747.52,-34.52 696.33,-22.85 661.61,-18.53"/>
<polygon fill="#63b8ff" stroke="#63b8ff" points="662.35,-15.09 652.03,-17.49 661.59,-22.05 662.35,-15.09"/>
</g>
<!-- Node41&#45;&gt;Node29 -->
<g id="edge75" class="edge">
<title>Node41&#45;&gt;Node29</title>
<path fill="none" stroke="#63b8ff" d="M747.32,-291.05C686.19,-280.41 584.41,-262.69 520.58,-251.57"/>
<polygon fill="#63b8ff" stroke="#63b8ff" points="521.45,-248.17 511,-249.91 520.25,-255.07 521.45,-248.17"/>
</g>
<!-- Node41&#45;&gt;Node38 -->
<g id="edge72" class="edge">
<title>Node41&#45;&gt;Node38</title>
<path fill="none" stroke="#63b8ff" d="M796.1,-291.19C793.18,-281.23 788.38,-264.51 784.72,-250 770.72,-194.5 756.55,-128.4 749.79,-96.15"/>
<polygon fill="#63b8ff" stroke="#63b8ff" points="753.28,-95.76 747.82,-86.68 746.43,-97.19 753.28,-95.76"/>
</g>
</g>
</svg>
        <g id="navigator" transform="translate(0 0)" fill="#404254">
                <rect fill="#f2f5e9" fill-opacity="0.5" stroke="#606060" stroke-width=".5" x="0" y="0" width="60" height="60"/>
                <use id="zoomplus" xlink:href="#zoomPlus" x="17" y="9" onmousedown="handleZoom(evt,'in')"/>
                <use id="zoomminus" xlink:href="#zoomMin" x="42" y="9" onmousedown="handleZoom(evt,'out')"/>
                <use id="reset" xlink:href="#resetDef" x="30" y="36" onmousedown="handleReset()"/>
                <g id="arrowUp" xlink:href="#dirArrow" transform="translate(30 24)" onmousedown="handlePan(0,-1)">
                  <use xlink:href="#rim" fill="#404040">
                        <set attributeName="fill" to="#808080" begin="arrowUp.mouseover" end="arrowUp.mouseout"/>
                  </use>
                  <path fill="none" stroke="white" stroke-width="1.5" d="M0,-3.0v7 M-2.5,-0.5L0,-3.0L2.5,-0.5"/>
                </g>
                <g id="arrowRight" xlink:href="#dirArrow" transform="rotate(90) translate(36 -43)" onmousedown="handlePan(1,0)">
                  <use xlink:href="#rim" fill="#404040">
                        <set attributeName="fill" to="#808080" begin="arrowRight.mouseover" end="arrowRight.mouseout"/>
                  </use>
                  <path fill="none" stroke="white" stroke-width="1.5" d="M0,-3.0v7 M-2.5,-0.5L0,-3.0L2.5,-0.5"/>
                </g>
                <g id="arrowDown" xlink:href="#dirArrow" transform="rotate(180) translate(-30 -48)" onmousedown="handlePan(0,1)">
                  <use xlink:href="#rim" fill="#404040">
                        <set attributeName="fill" to="#808080" begin="arrowDown.mouseover" end="arrowDown.mouseout"/>
                  </use>
                  <path fill="none" stroke="white" stroke-width="1.5" d="M0,-3.0v7 M-2.5,-0.5L0,-3.0L2.5,-0.5"/>
                </g>
                <g id="arrowLeft" xlink:href="#dirArrow" transform="rotate(270) translate(-36 17)" onmousedown="handlePan(-1,0)">
                  <use xlink:href="#rim" fill="#404040">
                        <set attributeName="fill" to="#808080" begin="arrowLeft.mouseover" end="arrowLeft.mouseout"/>
                  </use>
                  <path fill="none" stroke="white" stroke-width="1.5" d="M0,-3.0v7 M-2.5,-0.5L0,-3.0L2.5,-0.5"/>
                </g>
        </g>
        <svg viewBox="0 0 15 15" width="100%" height="30px" preserveAspectRatio="xMaxYMin meet">
         <g id="arrow_out" transform="scale(0.3 0.3)">
          <a xlink:href="_data_handler_print_8hpp__incl_org.svg" target="_base">
           <rect id="button" ry="5" rx="5" y="6" x="6" height="38" width="38"
                fill="#f2f5e9" fill-opacity="0.5" stroke="#606060" stroke-width="1.0"/>
           <path id="arrow"
             d="M 11.500037,31.436501 C 11.940474,20.09759 22.043105,11.32322 32.158766,21.979434 L 37.068811,17.246167 C 37.068811,17.246167 37.088388,32 37.088388,32 L 22.160133,31.978069 C 22.160133,31.978069 26.997745,27.140456 26.997745,27.140456 C 18.528582,18.264221 13.291696,25.230495 11.500037,31.436501 z"
             style="fill:#404040;"/>
          </a>
         </g>
        </svg>
</svg>
