<?xml version="1.0" encoding="UTF-8" standalone="no"?>
<!DOCTYPE svg PUBLIC "-//W3C//DTD SVG 1.1//EN"
 "http://www.w3.org/Graphics/SVG/1.1/DTD/svg11.dtd">
<!-- Generated by graphviz version 7.0.5 (20221223.1930)
 -->
<!-- Title: DataHandlerSync.hpp Pages: 1 -->
<svg width="1705pt" height="434pt"
 viewBox="0.00 0.00 1704.50 434.00" xmlns="http://www.w3.org/2000/svg" xmlns:xlink="http://www.w3.org/1999/xlink">
<g id="graph0" class="graph" transform="scale(1 1) rotate(0) translate(4 430)">
<title>DataHandlerSync.hpp</title>
<!-- Node1 -->
<g id="node1" class="node">
<title>Node1</title>
<g id="a_node1"><a xlink:title=" ">
<polygon fill="#999999" stroke="#666666" points="394.5,-426 284.5,-426 284.5,-407 394.5,-407 394.5,-426"/>
<text text-anchor="middle" x="339.5" y="-414" font-family="Helvetica,sans-Serif" font-size="10.00">DataHandlerSync.hpp</text>
</a>
</g>
</g>
<!-- Node2 -->
<g id="node2" class="node">
<title>Node2</title>
<g id="a_node2"><a xlink:title=" ">
<polygon fill="#e0e0e0" stroke="#999999" points="270.5,-371 220.5,-371 220.5,-352 270.5,-352 270.5,-371"/>
<text text-anchor="middle" x="245.5" y="-359" font-family="Helvetica,sans-Serif" font-size="10.00">optional</text>
</a>
</g>
</g>
<!-- Node1&#45;&gt;Node2 -->
<g id="edge1" class="edge">
<title>Node1&#45;&gt;Node2</title>
<path fill="none" stroke="#63b8ff" d="M323.55,-406.51C309.15,-398.39 287.71,-386.3 270.94,-376.85"/>
<polygon fill="#63b8ff" stroke="#63b8ff" points="272.96,-373.96 262.53,-372.1 269.52,-380.06 272.96,-373.96"/>
</g>
<!-- Node3 -->
<g id="node3" class="node">
<title>Node3</title>
<g id="a_node3"><a xlink:title=" ">
<polygon fill="#e0e0e0" stroke="#999999" points="251.5,-310.5 207.5,-310.5 207.5,-291.5 251.5,-291.5 251.5,-310.5"/>
<text text-anchor="middle" x="229.5" y="-298.5" font-family="Helvetica,sans-Serif" font-size="10.00">thread</text>
</a>
</g>
</g>
<!-- Node1&#45;&gt;Node3 -->
<g id="edge2" class="edge">
<title>Node1&#45;&gt;Node3</title>
<path fill="none" stroke="#63b8ff" d="M331.42,-406.8C319.97,-394.5 298.32,-371.36 279.5,-352 268.62,-340.81 256.22,-328.41 246.49,-318.76"/>
<polygon fill="#63b8ff" stroke="#63b8ff" points="249.07,-316.39 239.5,-311.84 244.15,-321.36 249.07,-316.39"/>
</g>
<!-- Node4 -->
<g id="node4" class="node">
<title>Node4</title>
<g id="a_node4"><a xlink:href="_concurrent_queue_8hpp.html" target="_top" xlink:title=" ">
<polygon fill="white" stroke="#666666" points="436.5,-371 326.5,-371 326.5,-352 436.5,-352 436.5,-371"/>
<text text-anchor="middle" x="381.5" y="-359" font-family="Helvetica,sans-Serif" font-size="10.00">ConcurrentQueue.hpp</text>
</a>
</g>
</g>
<!-- Node1&#45;&gt;Node4 -->
<g id="edge3" class="edge">
<title>Node1&#45;&gt;Node4</title>
<path fill="none" stroke="#63b8ff" d="M346.44,-406.75C352.12,-399.58 360.34,-389.2 367.39,-380.3"/>
<polygon fill="#63b8ff" stroke="#63b8ff" points="370.01,-382.64 373.47,-372.63 364.52,-378.29 370.01,-382.64"/>
</g>
<!-- Node9 -->
<g id="node9" class="node">
<title>Node9</title>
<g id="a_node9"><a xlink:href="_data_handler_abstract_8hpp.html" target="_top" xlink:title=" ">
<polygon fill="white" stroke="#666666" points="852,-371 727,-371 727,-352 852,-352 852,-371"/>
<text text-anchor="middle" x="789.5" y="-359" font-family="Helvetica,sans-Serif" font-size="10.00">DataHandlerAbstract.hpp</text>
</a>
</g>
</g>
<!-- Node1&#45;&gt;Node9 -->
<g id="edge9" class="edge">
<title>Node1&#45;&gt;Node9</title>
<path fill="none" stroke="#63b8ff" d="M394.68,-409C475.25,-399.51 625.29,-381.84 715.41,-371.23"/>
<polygon fill="#63b8ff" stroke="#63b8ff" points="715.61,-374.73 725.13,-370.08 714.79,-367.78 715.61,-374.73"/>
</g>
<!-- Node4&#45;&gt;Node3 -->
<g id="edge8" class="edge">
<title>Node4&#45;&gt;Node3</title>
<path fill="none" stroke="#63b8ff" d="M355.8,-351.65C331.17,-343.03 293.02,-329.3 260.5,-316 260.02,-315.8 259.54,-315.61 259.06,-315.4"/>
<polygon fill="#63b8ff" stroke="#63b8ff" points="260.71,-312.31 250.14,-311.55 257.94,-318.73 260.71,-312.31"/>
</g>
<!-- Node5 -->
<g id="node5" class="node">
<title>Node5</title>
<g id="a_node5"><a xlink:title=" ">
<polygon fill="#e0e0e0" stroke="#999999" points="315.5,-310.5 269.5,-310.5 269.5,-291.5 315.5,-291.5 315.5,-310.5"/>
<text text-anchor="middle" x="292.5" y="-298.5" font-family="Helvetica,sans-Serif" font-size="10.00">chrono</text>
</a>
</g>
</g>
<!-- Node4&#45;&gt;Node5 -->
<g id="edge4" class="edge">
<title>Node4&#45;&gt;Node5</title>
<path fill="none" stroke="#63b8ff" d="M367.98,-351.62C354.13,-342.51 332.32,-328.18 315.7,-317.25"/>
<polygon fill="#63b8ff" stroke="#63b8ff" points="317.69,-314.37 307.41,-311.8 313.84,-320.22 317.69,-314.37"/>
</g>
<!-- Node6 -->
<g id="node6" class="node">
<title>Node6</title>
<g id="a_node6"><a xlink:title=" ">
<polygon fill="#e0e0e0" stroke="#999999" points="429,-310.5 334,-310.5 334,-291.5 429,-291.5 429,-310.5"/>
<text text-anchor="middle" x="381.5" y="-298.5" font-family="Helvetica,sans-Serif" font-size="10.00">condition_variable</text>
</a>
</g>
</g>
<!-- Node4&#45;&gt;Node6 -->
<g id="edge5" class="edge">
<title>Node4&#45;&gt;Node6</title>
<path fill="none" stroke="#63b8ff" d="M381.5,-351.87C381.5,-344 381.5,-332.1 381.5,-321.89"/>
<polygon fill="#63b8ff" stroke="#63b8ff" points="385,-322.18 381.5,-312.18 378,-322.18 385,-322.18"/>
</g>
<!-- Node7 -->
<g id="node7" class="node">
<title>Node7</title>
<g id="a_node7"><a xlink:title=" ">
<polygon fill="#e0e0e0" stroke="#999999" points="490,-310.5 447,-310.5 447,-291.5 490,-291.5 490,-310.5"/>
<text text-anchor="middle" x="468.5" y="-298.5" font-family="Helvetica,sans-Serif" font-size="10.00">mutex</text>
</a>
</g>
</g>
<!-- Node4&#45;&gt;Node7 -->
<g id="edge6" class="edge">
<title>Node4&#45;&gt;Node7</title>
<path fill="none" stroke="#63b8ff" d="M394.71,-351.62C408.25,-342.51 429.57,-328.18 445.82,-317.25"/>
<polygon fill="#63b8ff" stroke="#63b8ff" points="447.56,-320.3 453.91,-311.81 443.65,-314.49 447.56,-320.3"/>
</g>
<!-- Node8 -->
<g id="node8" class="node">
<title>Node8</title>
<g id="a_node8"><a xlink:title=" ">
<polygon fill="#e0e0e0" stroke="#999999" points="551,-310.5 508,-310.5 508,-291.5 551,-291.5 551,-310.5"/>
<text text-anchor="middle" x="529.5" y="-298.5" font-family="Helvetica,sans-Serif" font-size="10.00">queue</text>
</a>
</g>
</g>
<!-- Node4&#45;&gt;Node8 -->
<g id="edge7" class="edge">
<title>Node4&#45;&gt;Node8</title>
<path fill="none" stroke="#63b8ff" d="M406.32,-351.56C430.13,-342.86 466.99,-329.09 498.5,-316 498.98,-315.8 499.46,-315.6 499.94,-315.4"/>
<polygon fill="#63b8ff" stroke="#63b8ff" points="501.07,-318.72 508.84,-311.52 498.28,-312.3 501.07,-318.72"/>
</g>
<!-- Node10 -->
<g id="node10" class="node">
<title>Node10</title>
<g id="a_node10"><a xlink:title=" ">
<polygon fill="#e0e0e0" stroke="#999999" points="968,-24.5 927,-24.5 927,-5.5 968,-5.5 968,-24.5"/>
<text text-anchor="middle" x="947.5" y="-12.5" font-family="Helvetica,sans-Serif" font-size="10.00">string</text>
</a>
</g>
</g>
<!-- Node9&#45;&gt;Node10 -->
<g id="edge10" class="edge">
<title>Node9&#45;&gt;Node10</title>
<path fill="none" stroke="#63b8ff" d="M726.79,-352.98C678.35,-345.91 616.62,-333.75 598.5,-316 574.09,-292.09 579.5,-275.67 579.5,-241.5 579.5,-241.5 579.5,-241.5 579.5,-184.5 579.5,-124.22 595.65,-99.9 645.5,-66 746.34,2.56 800.45,-64.18 917.5,-30 918.47,-29.72 919.44,-29.41 920.42,-29.08"/>
<polygon fill="#63b8ff" stroke="#63b8ff" points="921.35,-32.48 929.31,-25.49 918.73,-25.98 921.35,-32.48"/>
</g>
<!-- Node11 -->
<g id="node11" class="node">
<title>Node11</title>
<g id="a_node11"><a xlink:title=" ">
<polygon fill="#e0e0e0" stroke="#999999" points="1659.5,-195 1615.5,-195 1615.5,-176 1659.5,-176 1659.5,-195"/>
<text text-anchor="middle" x="1637.5" y="-183" font-family="Helvetica,sans-Serif" font-size="10.00">vector</text>
</a>
</g>
</g>
<!-- Node9&#45;&gt;Node11 -->
<g id="edge11" class="edge">
<title>Node9&#45;&gt;Node11</title>
<path fill="none" stroke="#63b8ff" d="M852.32,-359.33C1021.33,-355.04 1481.02,-335.59 1601.5,-250 1616.51,-239.33 1626.08,-220.32 1631.55,-205.87"/>
<polygon fill="#63b8ff" stroke="#63b8ff" points="1634.82,-207.11 1634.72,-196.52 1628.19,-204.86 1634.82,-207.11"/>
</g>
<!-- Node12 -->
<g id="node12" class="node">
<title>Node12</title>
<g id="a_node12"><a xlink:title=" ">
<polygon fill="#e0e0e0" stroke="#999999" points="687.5,-310.5 607.5,-310.5 607.5,-291.5 687.5,-291.5 687.5,-310.5"/>
<text text-anchor="middle" x="647.5" y="-298.5" font-family="Helvetica,sans-Serif" font-size="10.00">boost/asio.hpp</text>
</a>
</g>
</g>
<!-- Node9&#45;&gt;Node12 -->
<g id="edge12" class="edge">
<title>Node9&#45;&gt;Node12</title>
<path fill="none" stroke="#63b8ff" d="M767.93,-351.62C744.48,-341.95 706.73,-326.4 679.74,-315.28"/>
<polygon fill="#63b8ff" stroke="#63b8ff" points="681.25,-312.12 670.67,-311.55 678.58,-318.59 681.25,-312.12"/>
</g>
<!-- Node13 -->
<g id="node13" class="node">
<title>Node13</title>
<g id="a_node13"><a xlink:title=" ">
<polygon fill="#e0e0e0" stroke="#999999" points="799,-85 662,-85 662,-66 799,-66 799,-85"/>
<text text-anchor="middle" x="730.5" y="-73" font-family="Helvetica,sans-Serif" font-size="10.00">boost/core/noncopyable.hpp</text>
</a>
</g>
</g>
<!-- Node9&#45;&gt;Node13 -->
<g id="edge13" class="edge">
<title>Node9&#45;&gt;Node13</title>
<path fill="none" stroke="#63b8ff" d="M786,-351.68C782.48,-342.73 776.95,-328.46 772.5,-316 762.09,-286.88 757.2,-280.19 750.5,-250 738.38,-195.36 733.34,-129.32 731.47,-96.72"/>
<polygon fill="#63b8ff" stroke="#63b8ff" points="734.97,-96.58 730.95,-86.78 727.98,-96.95 734.97,-96.58"/>
</g>
<!-- Node14 -->
<g id="node14" class="node">
<title>Node14</title>
<g id="a_node14"><a xlink:href="_logging_8hpp.html" target="_top" xlink:title=" ">
<polygon fill="white" stroke="#666666" points="567,-85 498,-85 498,-66 567,-66 567,-85"/>
<text text-anchor="middle" x="532.5" y="-73" font-family="Helvetica,sans-Serif" font-size="10.00">Logging.hpp</text>
</a>
</g>
</g>
<!-- Node9&#45;&gt;Node14 -->
<g id="edge14" class="edge">
<title>Node9&#45;&gt;Node14</title>
<path fill="none" stroke="#63b8ff" d="M781.53,-351.69C745.48,-311.86 597.39,-148.2 548.35,-94.02"/>
<polygon fill="#63b8ff" stroke="#63b8ff" points="550.96,-91.68 541.65,-86.61 545.77,-96.38 550.96,-91.68"/>
</g>
<!-- Node22 -->
<g id="node22" class="node">
<title>Node22</title>
<g id="a_node22"><a xlink:href="_u_dma_buf_8hpp.html" target="_top" xlink:title=" ">
<polygon fill="white" stroke="#666666" points="1092,-310.5 1015,-310.5 1015,-291.5 1092,-291.5 1092,-310.5"/>
<text text-anchor="middle" x="1053.5" y="-298.5" font-family="Helvetica,sans-Serif" font-size="10.00">UDmaBuf.hpp</text>
</a>
</g>
</g>
<!-- Node9&#45;&gt;Node22 -->
<g id="edge23" class="edge">
<title>Node9&#45;&gt;Node22</title>
<path fill="none" stroke="#63b8ff" d="M835.34,-351.53C878.18,-342.98 943.86,-329.44 1000.5,-316 1003.44,-315.3 1006.46,-314.56 1009.5,-313.8"/>
<polygon fill="#63b8ff" stroke="#63b8ff" points="1010.2,-317.24 1019.02,-311.37 1008.46,-310.46 1010.2,-317.24"/>
</g>
<!-- Node30 -->
<g id="node30" class="node">
<title>Node30</title>
<g id="a_node30"><a xlink:href="_uio_axi_dma_if_8hpp.html" target="_top" xlink:title=" ">
<polygon fill="white" stroke="#666666" points="871,-310.5 782,-310.5 782,-291.5 871,-291.5 871,-310.5"/>
<text text-anchor="middle" x="826.5" y="-298.5" font-family="Helvetica,sans-Serif" font-size="10.00">UioAxiDmaIf.hpp</text>
</a>
</g>
</g>
<!-- Node9&#45;&gt;Node30 -->
<g id="edge36" class="edge">
<title>Node9&#45;&gt;Node30</title>
<path fill="none" stroke="#63b8ff" d="M794.96,-351.87C800.21,-343.57 808.3,-330.78 814.97,-320.22"/>
<polygon fill="#63b8ff" stroke="#63b8ff" points="817.82,-322.27 820.21,-311.95 811.91,-318.53 817.82,-322.27"/>
</g>
<!-- Node42 -->
<g id="node42" class="node">
<title>Node42</title>
<g id="a_node42"><a xlink:href="_uio_mem_sgdma_8hpp.html" target="_top" xlink:title=" ">
<polygon fill="white" stroke="#666666" points="991.5,-310.5 889.5,-310.5 889.5,-291.5 991.5,-291.5 991.5,-310.5"/>
<text text-anchor="middle" x="940.5" y="-298.5" font-family="Helvetica,sans-Serif" font-size="10.00">UioMemSgdma.hpp</text>
</a>
</g>
</g>
<!-- Node9&#45;&gt;Node42 -->
<g id="edge70" class="edge">
<title>Node9&#45;&gt;Node42</title>
<path fill="none" stroke="#63b8ff" d="M812.43,-351.62C837.6,-341.87 878.23,-326.12 906.98,-314.99"/>
<polygon fill="#63b8ff" stroke="#63b8ff" points="907.88,-318.39 915.94,-311.52 905.35,-311.86 907.88,-318.39"/>
</g>
<!-- Node43 -->
<g id="node43" class="node">
<title>Node43</title>
<g id="a_node43"><a xlink:title=" ">
<polygon fill="#e0e0e0" stroke="#999999" points="1230.5,-316 1110.5,-316 1110.5,-286 1230.5,-286 1230.5,-316"/>
<text text-anchor="start" x="1118.5" y="-304" font-family="Helvetica,sans-Serif" font-size="10.00">boost/asio/posix/stream</text>
<text text-anchor="middle" x="1170.5" y="-293" font-family="Helvetica,sans-Serif" font-size="10.00">_descriptor.hpp</text>
</a>
</g>
</g>
<!-- Node9&#45;&gt;Node43 -->
<g id="edge73" class="edge">
<title>Node9&#45;&gt;Node43</title>
<path fill="none" stroke="#63b8ff" d="M852.42,-352.63C913.08,-344.78 1007.75,-331.9 1099.19,-316.34"/>
<polygon fill="#63b8ff" stroke="#63b8ff" points="1099.57,-319.82 1108.84,-314.68 1098.39,-312.92 1099.57,-319.82"/>
</g>
<!-- Node14&#45;&gt;Node10 -->
<g id="edge15" class="edge">
<title>Node14&#45;&gt;Node10</title>
<path fill="none" stroke="#63b8ff" d="M567.25,-68.18C572.03,-67.4 576.88,-66.65 581.5,-66 730.23,-45.15 772.82,-70.3 917.5,-30 918.49,-29.72 919.49,-29.42 920.5,-29.09"/>
<polygon fill="#63b8ff" stroke="#63b8ff" points="921.67,-32.39 929.65,-25.42 919.06,-25.89 921.67,-32.39"/>
</g>
<!-- Node15 -->
<g id="node15" class="node">
<title>Node15</title>
<g id="a_node15"><a xlink:title=" ">
<polygon fill="#e0e0e0" stroke="#999999" points="515.5,-24.5 419.5,-24.5 419.5,-5.5 515.5,-5.5 515.5,-24.5"/>
<text text-anchor="middle" x="467.5" y="-12.5" font-family="Helvetica,sans-Serif" font-size="10.00">boost/log/core.hpp</text>
</a>
</g>
</g>
<!-- Node14&#45;&gt;Node15 -->
<g id="edge16" class="edge">
<title>Node14&#45;&gt;Node15</title>
<path fill="none" stroke="#63b8ff" d="M522.63,-65.62C512.89,-56.85 497.78,-43.25 485.84,-32.5"/>
<polygon fill="#63b8ff" stroke="#63b8ff" points="488.36,-30.07 478.59,-25.98 483.68,-35.27 488.36,-30.07"/>
</g>
<!-- Node16 -->
<g id="node16" class="node">
<title>Node16</title>
<g id="a_node16"><a xlink:title=" ">
<polygon fill="#e0e0e0" stroke="#999999" points="663,-24.5 534,-24.5 534,-5.5 663,-5.5 663,-24.5"/>
<text text-anchor="middle" x="598.5" y="-12.5" font-family="Helvetica,sans-Serif" font-size="10.00">boost/log/expressions.hpp</text>
</a>
</g>
</g>
<!-- Node14&#45;&gt;Node16 -->
<g id="edge17" class="edge">
<title>Node14&#45;&gt;Node16</title>
<path fill="none" stroke="#63b8ff" d="M542.52,-65.62C552.41,-56.85 567.76,-43.25 579.88,-32.5"/>
<polygon fill="#63b8ff" stroke="#63b8ff" points="582.09,-35.22 587.25,-25.97 577.44,-29.99 582.09,-35.22"/>
</g>
<!-- Node17 -->
<g id="node17" class="node">
<title>Node17</title>
<g id="a_node17"><a xlink:title=" ">
<polygon fill="#e0e0e0" stroke="#999999" points="782,-24.5 681,-24.5 681,-5.5 782,-5.5 782,-24.5"/>
<text text-anchor="middle" x="731.5" y="-12.5" font-family="Helvetica,sans-Serif" font-size="10.00">boost/log/trivial.hpp</text>
</a>
</g>
</g>
<!-- Node14&#45;&gt;Node17 -->
<g id="edge18" class="edge">
<title>Node14&#45;&gt;Node17</title>
<path fill="none" stroke="#63b8ff" d="M562.72,-65.62C596.77,-55.61 652.29,-39.29 690.29,-28.12"/>
<polygon fill="#63b8ff" stroke="#63b8ff" points="690.93,-31.57 699.54,-25.4 688.96,-24.86 690.93,-31.57"/>
</g>
<!-- Node18 -->
<g id="node18" class="node">
<title>Node18</title>
<g id="a_node18"><a xlink:title=" ">
<polygon fill="#e0e0e0" stroke="#999999" points="909,-30 800,-30 800,0 909,0 909,-30"/>
<text text-anchor="start" x="808" y="-18" font-family="Helvetica,sans-Serif" font-size="10.00">boost/log/utility/setup</text>
<text text-anchor="middle" x="854.5" y="-7" font-family="Helvetica,sans-Serif" font-size="10.00">/console.hpp</text>
</a>
</g>
</g>
<!-- Node14&#45;&gt;Node18 -->
<g id="edge19" class="edge">
<title>Node14&#45;&gt;Node18</title>
<path fill="none" stroke="#63b8ff" d="M567.3,-68.46C572.07,-67.63 576.91,-66.79 581.5,-66 670.84,-50.56 696.09,-48.24 788.43,-30.35"/>
<polygon fill="#63b8ff" stroke="#63b8ff" points="789.09,-33.79 798.24,-28.44 787.75,-26.92 789.09,-33.79"/>
</g>
<!-- Node19 -->
<g id="node19" class="node">
<title>Node19</title>
<g id="a_node19"><a xlink:title=" ">
<polygon fill="#e0e0e0" stroke="#999999" points="131,-30 0,-30 0,0 131,0 131,-30"/>
<text text-anchor="start" x="8" y="-18" font-family="Helvetica,sans-Serif" font-size="10.00">boost/log/sources/severity</text>
<text text-anchor="middle" x="65.5" y="-7" font-family="Helvetica,sans-Serif" font-size="10.00">_channel_logger.hpp</text>
</a>
</g>
</g>
<!-- Node14&#45;&gt;Node19 -->
<g id="edge20" class="edge">
<title>Node14&#45;&gt;Node19</title>
<path fill="none" stroke="#63b8ff" d="M497.69,-71.43C430.8,-65.35 279.48,-50.69 142.33,-30.36"/>
<polygon fill="#63b8ff" stroke="#63b8ff" points="143.13,-26.94 132.72,-28.92 142.09,-33.86 143.13,-26.94"/>
</g>
<!-- Node20 -->
<g id="node20" class="node">
<title>Node20</title>
<g id="a_node20"><a xlink:title=" ">
<polygon fill="#e0e0e0" stroke="#999999" points="262,-30 149,-30 149,0 262,0 262,-30"/>
<text text-anchor="start" x="157" y="-18" font-family="Helvetica,sans-Serif" font-size="10.00">boost/log/support/date</text>
<text text-anchor="middle" x="205.5" y="-7" font-family="Helvetica,sans-Serif" font-size="10.00">_time.hpp</text>
</a>
</g>
</g>
<!-- Node14&#45;&gt;Node20 -->
<g id="edge21" class="edge">
<title>Node14&#45;&gt;Node20</title>
<path fill="none" stroke="#63b8ff" d="M497.66,-69.08C449.49,-61.48 359.56,-46.9 273.48,-30.53"/>
<polygon fill="#63b8ff" stroke="#63b8ff" points="274.16,-27.09 263.68,-28.65 272.84,-33.97 274.16,-27.09"/>
</g>
<!-- Node21 -->
<g id="node21" class="node">
<title>Node21</title>
<g id="a_node21"><a xlink:title=" ">
<polygon fill="#e0e0e0" stroke="#999999" points="401,-30 280,-30 280,0 401,0 401,-30"/>
<text text-anchor="start" x="288" y="-18" font-family="Helvetica,sans-Serif" font-size="10.00">boost/log/utility/setup</text>
<text text-anchor="middle" x="340.5" y="-7" font-family="Helvetica,sans-Serif" font-size="10.00">/common_attributes.hpp</text>
</a>
</g>
</g>
<!-- Node14&#45;&gt;Node21 -->
<g id="edge22" class="edge">
<title>Node14&#45;&gt;Node21</title>
<path fill="none" stroke="#63b8ff" d="M503.34,-65.62C475.7,-57.19 433.38,-44.3 398.81,-33.77"/>
<polygon fill="#63b8ff" stroke="#63b8ff" points="399.93,-30.45 389.34,-30.88 397.88,-37.14 399.93,-30.45"/>
</g>
<!-- Node22&#45;&gt;Node14 -->
<g id="edge34" class="edge">
<title>Node22&#45;&gt;Node14</title>
<path fill="none" stroke="#63b8ff" d="M1048.56,-291.46C1039.74,-276.94 1019.9,-247.43 995.5,-231 952.48,-202.03 933.58,-211.75 884.5,-195 860.82,-186.92 855.67,-182.47 831.5,-176 744.68,-152.76 716.22,-172.7 632.5,-140 602.48,-128.28 571.75,-107.12 552.42,-92.46"/>
<polygon fill="#63b8ff" stroke="#63b8ff" points="554.66,-89.77 544.61,-86.4 550.37,-95.3 554.66,-89.77"/>
</g>
<!-- Node23 -->
<g id="node23" class="node">
<title>Node23</title>
<g id="a_node23"><a xlink:href="_dma_buffer_abstract_8hpp.html" target="_top" xlink:title=" ">
<polygon fill="white" stroke="#666666" points="1199,-250 1082,-250 1082,-231 1199,-231 1199,-250"/>
<text text-anchor="middle" x="1140.5" y="-238" font-family="Helvetica,sans-Serif" font-size="10.00">DmaBufferAbstract.hpp</text>
</a>
</g>
</g>
<!-- Node22&#45;&gt;Node23 -->
<g id="edge24" class="edge">
<title>Node22&#45;&gt;Node23</title>
<path fill="none" stroke="#63b8ff" d="M1066.71,-291.12C1080.25,-282.01 1101.57,-267.68 1117.82,-256.75"/>
<polygon fill="#63b8ff" stroke="#63b8ff" points="1119.56,-259.8 1125.91,-251.31 1115.65,-253.99 1119.56,-259.8"/>
</g>
<!-- Node25 -->
<g id="node25" class="node">
<title>Node25</title>
<g id="a_node25"><a xlink:href="_uio_config_8hpp.html" target="_top" xlink:title=" ">
<polygon fill="white" stroke="#666666" points="1643,-85 1532,-85 1532,-66 1643,-66 1643,-85"/>
<text text-anchor="middle" x="1587.5" y="-73" font-family="Helvetica,sans-Serif" font-size="10.00">udmaio/UioConfig.hpp</text>
</a>
</g>
</g>
<!-- Node22&#45;&gt;Node25 -->
<g id="edge35" class="edge">
<title>Node22&#45;&gt;Node25</title>
<path fill="none" stroke="#63b8ff" d="M1083.96,-291.07C1089.78,-289.38 1095.83,-287.63 1101.5,-286 1302,-228.52 1389.95,-276.68 1547.5,-140 1561.49,-127.86 1572.28,-109.62 1579.11,-95.79"/>
<polygon fill="#63b8ff" stroke="#63b8ff" points="1582.24,-97.37 1583.26,-86.83 1575.88,-94.43 1582.24,-97.37"/>
</g>
<!-- Node23&#45;&gt;Node11 -->
<g id="edge26" class="edge">
<title>Node23&#45;&gt;Node11</title>
<path fill="none" stroke="#63b8ff" d="M1199.37,-233.49C1281.1,-225.1 1433.58,-209.29 1563.5,-195 1576.65,-193.55 1591.11,-191.91 1603.73,-190.45"/>
<polygon fill="#63b8ff" stroke="#63b8ff" points="1604.13,-193.93 1613.66,-189.3 1603.32,-186.97 1604.13,-193.93"/>
</g>
<!-- Node23&#45;&gt;Node13 -->
<g id="edge27" class="edge">
<title>Node23&#45;&gt;Node13</title>
<path fill="none" stroke="#63b8ff" d="M1085.35,-230.52C1017.05,-217.74 898.7,-190.12 808.5,-140 785.49,-127.22 762.54,-107.48 747.55,-93.4"/>
<polygon fill="#63b8ff" stroke="#63b8ff" points="750.05,-90.94 740.41,-86.53 745.19,-95.98 750.05,-90.94"/>
</g>
<!-- Node24 -->
<g id="node24" class="node">
<title>Node24</title>
<g id="a_node24"><a xlink:title=" ">
<polygon fill="#e0e0e0" stroke="#999999" points="822.5,-195 776.5,-195 776.5,-176 822.5,-176 822.5,-195"/>
<text text-anchor="middle" x="799.5" y="-183" font-family="Helvetica,sans-Serif" font-size="10.00">cstdint</text>
</a>
</g>
</g>
<!-- Node23&#45;&gt;Node24 -->
<g id="edge25" class="edge">
<title>Node23&#45;&gt;Node24</title>
<path fill="none" stroke="#63b8ff" d="M1082.65,-230.51C1011.37,-219.43 892.53,-200.96 834.09,-191.88"/>
<polygon fill="#63b8ff" stroke="#63b8ff" points="834.83,-188.45 824.41,-190.37 833.75,-195.37 834.83,-188.45"/>
</g>
<!-- Node23&#45;&gt;Node25 -->
<g id="edge28" class="edge">
<title>Node23&#45;&gt;Node25</title>
<path fill="none" stroke="#63b8ff" d="M1199.23,-233.33C1276.92,-223.19 1416.19,-197.98 1520.5,-140 1541.64,-128.25 1561.14,-108.28 1573.59,-93.87"/>
<polygon fill="#63b8ff" stroke="#63b8ff" points="1576.01,-96.43 1579.73,-86.51 1570.64,-91.95 1576.01,-96.43"/>
</g>
<!-- Node25&#45;&gt;Node10 -->
<g id="edge32" class="edge">
<title>Node25&#45;&gt;Node10</title>
<path fill="none" stroke="#63b8ff" d="M1531.53,-69.49C1440.38,-61.31 1254.18,-44.55 1096.5,-30 1056.07,-26.27 1009.49,-21.88 979.32,-19.02"/>
<polygon fill="#63b8ff" stroke="#63b8ff" points="980.02,-15.57 969.73,-18.11 979.36,-22.54 980.02,-15.57"/>
</g>
<!-- Node26 -->
<g id="node26" class="node">
<title>Node26</title>
<g id="a_node26"><a xlink:title=" ">
<polygon fill="#e0e0e0" stroke="#999999" points="1159.5,-24.5 1105.5,-24.5 1105.5,-5.5 1159.5,-5.5 1159.5,-24.5"/>
<text text-anchor="middle" x="1132.5" y="-12.5" font-family="Helvetica,sans-Serif" font-size="10.00">iostream</text>
</a>
</g>
</g>
<!-- Node25&#45;&gt;Node26 -->
<g id="edge29" class="edge">
<title>Node25&#45;&gt;Node26</title>
<path fill="none" stroke="#63b8ff" d="M1531.71,-67.33C1438.07,-55.29 1251.65,-31.32 1171.08,-20.96"/>
<polygon fill="#63b8ff" stroke="#63b8ff" points="1171.85,-17.53 1161.48,-19.73 1170.95,-24.47 1171.85,-17.53"/>
</g>
<!-- Node27 -->
<g id="node27" class="node">
<title>Node27</title>
<g id="a_node27"><a xlink:title=" ">
<polygon fill="#e0e0e0" stroke="#999999" points="1529,-24.5 1478,-24.5 1478,-5.5 1529,-5.5 1529,-24.5"/>
<text text-anchor="middle" x="1503.5" y="-12.5" font-family="Helvetica,sans-Serif" font-size="10.00">memory</text>
</a>
</g>
</g>
<!-- Node25&#45;&gt;Node27 -->
<g id="edge30" class="edge">
<title>Node25&#45;&gt;Node27</title>
<path fill="none" stroke="#63b8ff" d="M1574.74,-65.62C1561.67,-56.51 1541.09,-42.18 1525.4,-31.25"/>
<polygon fill="#63b8ff" stroke="#63b8ff" points="1527.83,-28.68 1517.62,-25.83 1523.83,-34.42 1527.83,-28.68"/>
</g>
<!-- Node28 -->
<g id="node28" class="node">
<title>Node28</title>
<g id="a_node28"><a xlink:title=" ">
<polygon fill="#e0e0e0" stroke="#999999" points="1612,-24.5 1553,-24.5 1553,-5.5 1612,-5.5 1612,-24.5"/>
<text text-anchor="middle" x="1582.5" y="-12.5" font-family="Helvetica,sans-Serif" font-size="10.00">stdexcept</text>
</a>
</g>
</g>
<!-- Node25&#45;&gt;Node28 -->
<g id="edge31" class="edge">
<title>Node25&#45;&gt;Node28</title>
<path fill="none" stroke="#63b8ff" d="M1586.76,-65.87C1586.09,-58 1585.07,-46.1 1584.2,-35.89"/>
<polygon fill="#63b8ff" stroke="#63b8ff" points="1587.71,-35.84 1583.37,-26.18 1580.73,-36.44 1587.71,-35.84"/>
</g>
<!-- Node29 -->
<g id="node29" class="node">
<title>Node29</title>
<g id="a_node29"><a xlink:title=" ">
<polygon fill="#e0e0e0" stroke="#999999" points="1696.5,-24.5 1630.5,-24.5 1630.5,-5.5 1696.5,-5.5 1696.5,-24.5"/>
<text text-anchor="middle" x="1663.5" y="-12.5" font-family="Helvetica,sans-Serif" font-size="10.00">string_view</text>
</a>
</g>
</g>
<!-- Node25&#45;&gt;Node29 -->
<g id="edge33" class="edge">
<title>Node25&#45;&gt;Node29</title>
<path fill="none" stroke="#63b8ff" d="M1599.04,-65.62C1610.65,-56.68 1628.79,-42.72 1642.88,-31.87"/>
<polygon fill="#63b8ff" stroke="#63b8ff" points="1644.86,-34.76 1650.65,-25.89 1640.59,-29.22 1644.86,-34.76"/>
</g>
<!-- Node31 -->
<g id="node31" class="node">
<title>Node31</title>
<g id="a_node31"><a xlink:href="_reg_accessor_8hpp.html" target="_top" xlink:title=" ">
<polygon fill="white" stroke="#666666" points="987,-250 894,-250 894,-231 987,-231 987,-250"/>
<text text-anchor="middle" x="940.5" y="-238" font-family="Helvetica,sans-Serif" font-size="10.00">RegAccessor.hpp</text>
</a>
</g>
</g>
<!-- Node30&#45;&gt;Node31 -->
<g id="edge37" class="edge">
<title>Node30&#45;&gt;Node31</title>
<path fill="none" stroke="#63b8ff" d="M843.81,-291.12C862.14,-281.71 891.34,-266.72 912.86,-255.68"/>
<polygon fill="#63b8ff" stroke="#63b8ff" points="914.38,-258.84 921.68,-251.16 911.18,-252.61 914.38,-258.84"/>
</g>
<!-- Node32 -->
<g id="node32" class="node">
<title>Node32</title>
<g id="a_node32"><a xlink:href="_uio_if_8hpp.html" target="_top" xlink:title=" ">
<polygon fill="white" stroke="#666666" points="1067.5,-195 977.5,-195 977.5,-176 1067.5,-176 1067.5,-195"/>
<text text-anchor="middle" x="1022.5" y="-183" font-family="Helvetica,sans-Serif" font-size="10.00">udmaio/UioIf.hpp</text>
</a>
</g>
</g>
<!-- Node30&#45;&gt;Node32 -->
<g id="edge67" class="edge">
<title>Node30&#45;&gt;Node32</title>
<path fill="none" stroke="#63b8ff" d="M859.4,-291.04C907.08,-277.95 990.3,-254.63 995.5,-250 1008.22,-238.65 1015.15,-220.3 1018.78,-206.23"/>
<polygon fill="#63b8ff" stroke="#63b8ff" points="1022.14,-207.26 1020.87,-196.74 1015.3,-205.75 1022.14,-207.26"/>
</g>
<!-- Node41 -->
<g id="node41" class="node">
<title>Node41</title>
<g id="a_node41"><a xlink:href="_axi_dma_8hpp.html" target="_top" xlink:title=" ">
<polygon fill="white" stroke="#666666" points="875.5,-250 759.5,-250 759.5,-231 875.5,-231 875.5,-250"/>
<text text-anchor="middle" x="817.5" y="-238" font-family="Helvetica,sans-Serif" font-size="10.00">udmaio/rdl/AxiDma.hpp</text>
</a>
</g>
</g>
<!-- Node30&#45;&gt;Node41 -->
<g id="edge68" class="edge">
<title>Node30&#45;&gt;Node41</title>
<path fill="none" stroke="#63b8ff" d="M825.17,-291.37C823.96,-283.5 822.13,-271.6 820.56,-261.39"/>
<polygon fill="#63b8ff" stroke="#63b8ff" points="824.04,-261.01 819.06,-251.66 817.12,-262.08 824.04,-261.01"/>
</g>
<!-- Node31&#45;&gt;Node24 -->
<g id="edge38" class="edge">
<title>Node31&#45;&gt;Node24</title>
<path fill="none" stroke="#63b8ff" d="M916.58,-230.51C893.72,-221.92 859.04,-208.88 833.34,-199.22"/>
<polygon fill="#63b8ff" stroke="#63b8ff" points="834.61,-195.96 824.02,-195.71 832.14,-202.51 834.61,-195.96"/>
</g>
<!-- Node31&#45;&gt;Node32 -->
<g id="edge39" class="edge">
<title>Node31&#45;&gt;Node32</title>
<path fill="none" stroke="#63b8ff" d="M954.41,-230.51C966.74,-222.54 984.97,-210.75 999.47,-201.38"/>
<polygon fill="#63b8ff" stroke="#63b8ff" points="1001.03,-204.55 1007.52,-196.18 997.23,-198.67 1001.03,-204.55"/>
</g>
<!-- Node32&#45;&gt;Node10 -->
<g id="edge44" class="edge">
<title>Node32&#45;&gt;Node10</title>
<path fill="none" stroke="#63b8ff" d="M977.26,-179.43C887.04,-168.27 690.16,-138.21 652.5,-85 647.62,-78.11 646.95,-72.36 652.5,-66 691.59,-21.24 860.48,-46.76 917.5,-30 918.47,-29.72 919.44,-29.41 920.41,-29.07"/>
<polygon fill="#63b8ff" stroke="#63b8ff" points="921.35,-32.47 929.31,-25.48 918.73,-25.98 921.35,-32.47"/>
</g>
<!-- Node32&#45;&gt;Node13 -->
<g id="edge45" class="edge">
<title>Node32&#45;&gt;Node13</title>
<path fill="none" stroke="#63b8ff" d="M977.9,-175.56C943.33,-167.97 894.56,-155.79 853.5,-140 817.94,-126.33 779.25,-105.24 754.94,-91.16"/>
<polygon fill="#63b8ff" stroke="#63b8ff" points="756.86,-88.22 746.46,-86.18 753.32,-94.26 756.86,-88.22"/>
</g>
<!-- Node32&#45;&gt;Node14 -->
<g id="edge65" class="edge">
<title>Node32&#45;&gt;Node14</title>
<path fill="none" stroke="#63b8ff" d="M977.04,-182.63C910.6,-178.99 783.57,-168.62 679.5,-140 667.68,-136.75 602.34,-107.82 562.86,-90.15"/>
<polygon fill="#63b8ff" stroke="#63b8ff" points="564.41,-87.01 553.86,-86.12 561.55,-93.4 564.41,-87.01"/>
</g>
<!-- Node32&#45;&gt;Node25 -->
<g id="edge66" class="edge">
<title>Node32&#45;&gt;Node25</title>
<path fill="none" stroke="#63b8ff" d="M1067.75,-182.85C1168.92,-178.74 1410.6,-166.39 1487.5,-140 1518.31,-129.43 1549.28,-107.63 1568.41,-92.54"/>
<polygon fill="#63b8ff" stroke="#63b8ff" points="1570.53,-95.33 1576.1,-86.31 1566.12,-89.89 1570.53,-95.33"/>
</g>
<!-- Node32&#45;&gt;Node26 -->
<g id="edge42" class="edge">
<title>Node32&#45;&gt;Node26</title>
<path fill="none" stroke="#63b8ff" d="M984.2,-175.55C919.92,-158.8 801.53,-119.51 846.5,-66 862.31,-47.18 1020.08,-28.01 1094.29,-19.95"/>
<polygon fill="#63b8ff" stroke="#63b8ff" points="1094.37,-23.46 1103.94,-18.92 1093.63,-16.5 1094.37,-23.46"/>
</g>
<!-- Node32&#45;&gt;Node27 -->
<g id="edge43" class="edge">
<title>Node32&#45;&gt;Node27</title>
<path fill="none" stroke="#63b8ff" d="M1067.88,-181.11C1172.77,-172.3 1427.42,-145.08 1484.5,-85 1496.94,-71.91 1501.38,-51.45 1502.89,-36.2"/>
<polygon fill="#63b8ff" stroke="#63b8ff" points="1506.37,-36.6 1503.49,-26.41 1499.39,-36.17 1506.37,-36.6"/>
</g>
<!-- Node33 -->
<g id="node33" class="node">
<title>Node33</title>
<g id="a_node33"><a xlink:title=" ">
<polygon fill="#e0e0e0" stroke="#999999" points="1258.5,-85 1198.5,-85 1198.5,-66 1258.5,-66 1258.5,-85"/>
<text text-anchor="middle" x="1228.5" y="-73" font-family="Helvetica,sans-Serif" font-size="10.00">filesystem</text>
</a>
</g>
</g>
<!-- Node32&#45;&gt;Node33 -->
<g id="edge40" class="edge">
<title>Node32&#45;&gt;Node33</title>
<path fill="none" stroke="#63b8ff" d="M1067.9,-181.98C1104.52,-177.88 1155.64,-167.28 1191.5,-140 1206.1,-128.9 1215.97,-110.24 1221.82,-96.01"/>
<polygon fill="#63b8ff" stroke="#63b8ff" points="1225.04,-97.38 1225.27,-86.79 1218.49,-94.93 1225.04,-97.38"/>
</g>
<!-- Node34 -->
<g id="node34" class="node">
<title>Node34</title>
<g id="a_node34"><a xlink:title=" ">
<polygon fill="#e0e0e0" stroke="#999999" points="1326.5,-85 1276.5,-85 1276.5,-66 1326.5,-66 1326.5,-85"/>
<text text-anchor="middle" x="1301.5" y="-73" font-family="Helvetica,sans-Serif" font-size="10.00">fstream</text>
</a>
</g>
</g>
<!-- Node32&#45;&gt;Node34 -->
<g id="edge41" class="edge">
<title>Node32&#45;&gt;Node34</title>
<path fill="none" stroke="#63b8ff" d="M1067.74,-179.1C1107.51,-173.18 1166.24,-161.5 1213.5,-140 1240.12,-127.89 1266.82,-107.11 1283.71,-92.64"/>
<polygon fill="#63b8ff" stroke="#63b8ff" points="1285.68,-95.56 1290.88,-86.34 1281.06,-90.3 1285.68,-95.56"/>
</g>
<!-- Node35 -->
<g id="node35" class="node">
<title>Node35</title>
<g id="a_node35"><a xlink:title=" ">
<polygon fill="#e0e0e0" stroke="#999999" points="1388,-85 1345,-85 1345,-66 1388,-66 1388,-85"/>
<text text-anchor="middle" x="1366.5" y="-73" font-family="Helvetica,sans-Serif" font-size="10.00">fcntl.h</text>
</a>
</g>
</g>
<!-- Node32&#45;&gt;Node35 -->
<g id="edge46" class="edge">
<title>Node32&#45;&gt;Node35</title>
<path fill="none" stroke="#63b8ff" d="M1067.7,-179.04C1112.87,-172.74 1183.83,-160.52 1242.5,-140 1278.89,-127.27 1318.04,-105.77 1342.41,-91.36"/>
<polygon fill="#63b8ff" stroke="#63b8ff" points="1344.13,-94.41 1350.9,-86.26 1340.52,-88.41 1344.13,-94.41"/>
</g>
<!-- Node36 -->
<g id="node36" class="node">
<title>Node36</title>
<g id="a_node36"><a xlink:title=" ">
<polygon fill="#e0e0e0" stroke="#999999" points="1475,-85 1406,-85 1406,-66 1475,-66 1475,-85"/>
<text text-anchor="middle" x="1440.5" y="-73" font-family="Helvetica,sans-Serif" font-size="10.00">sys/mman.h</text>
</a>
</g>
</g>
<!-- Node32&#45;&gt;Node36 -->
<g id="edge47" class="edge">
<title>Node32&#45;&gt;Node36</title>
<path fill="none" stroke="#63b8ff" d="M1067.78,-179.36C1119.24,-172.89 1205.43,-160.11 1277.5,-140 1325.39,-126.64 1378.68,-104.4 1410.89,-90.1"/>
<polygon fill="#63b8ff" stroke="#63b8ff" points="1412.28,-93.31 1419.97,-86.02 1409.42,-86.92 1412.28,-93.31"/>
</g>
<!-- Node37 -->
<g id="node37" class="node">
<title>Node37</title>
<g id="a_node37"><a xlink:title=" ">
<polygon fill="#e0e0e0" stroke="#999999" points="915,-85 856,-85 856,-66 915,-66 915,-85"/>
<text text-anchor="middle" x="885.5" y="-73" font-family="Helvetica,sans-Serif" font-size="10.00">sys/stat.h</text>
</a>
</g>
</g>
<!-- Node32&#45;&gt;Node37 -->
<g id="edge48" class="edge">
<title>Node32&#45;&gt;Node37</title>
<path fill="none" stroke="#63b8ff" d="M1011.29,-175.66C988.21,-157.47 935.1,-115.6 905.81,-92.51"/>
<polygon fill="#63b8ff" stroke="#63b8ff" points="908.07,-89.84 898.05,-86.4 903.74,-95.34 908.07,-89.84"/>
</g>
<!-- Node38 -->
<g id="node38" class="node">
<title>Node38</title>
<g id="a_node38"><a xlink:title=" ">
<polygon fill="#e0e0e0" stroke="#999999" points="998,-85 933,-85 933,-66 998,-66 998,-85"/>
<text text-anchor="middle" x="965.5" y="-73" font-family="Helvetica,sans-Serif" font-size="10.00">sys/types.h</text>
</a>
</g>
</g>
<!-- Node32&#45;&gt;Node38 -->
<g id="edge49" class="edge">
<title>Node32&#45;&gt;Node38</title>
<path fill="none" stroke="#63b8ff" d="M1017.84,-175.66C1008.65,-158.26 988.03,-119.19 975.59,-95.62"/>
<polygon fill="#63b8ff" stroke="#63b8ff" points="978.7,-94.01 970.94,-86.8 972.51,-97.28 978.7,-94.01"/>
</g>
<!-- Node39 -->
<g id="node39" class="node">
<title>Node39</title>
<g id="a_node39"><a xlink:title=" ">
<polygon fill="#e0e0e0" stroke="#999999" points="1066.5,-85 1016.5,-85 1016.5,-66 1066.5,-66 1066.5,-85"/>
<text text-anchor="middle" x="1041.5" y="-73" font-family="Helvetica,sans-Serif" font-size="10.00">unistd.h</text>
</a>
</g>
</g>
<!-- Node32&#45;&gt;Node39 -->
<g id="edge50" class="edge">
<title>Node32&#45;&gt;Node39</title>
<path fill="none" stroke="#63b8ff" d="M1024.05,-175.66C1027.07,-158.5 1033.8,-120.26 1037.96,-96.6"/>
<polygon fill="#63b8ff" stroke="#63b8ff" points="1041.38,-97.41 1039.66,-86.95 1034.48,-96.19 1041.38,-97.41"/>
</g>
<!-- Node40 -->
<g id="node40" class="node">
<title>Node40</title>
<g id="a_node40"><a xlink:href="_hw_accessor_8hpp.html" target="_top" xlink:title=" ">
<polygon fill="white" stroke="#666666" points="1182,-140 1057,-140 1057,-121 1182,-121 1182,-140"/>
<text text-anchor="middle" x="1119.5" y="-128" font-family="Helvetica,sans-Serif" font-size="10.00">udmaio/HwAccessor.hpp</text>
</a>
</g>
</g>
<!-- Node32&#45;&gt;Node40 -->
<g id="edge51" class="edge">
<title>Node32&#45;&gt;Node40</title>
<path fill="none" stroke="#63b8ff" d="M1038.95,-175.51C1053.82,-167.39 1075.94,-155.3 1093.25,-145.85"/>
<polygon fill="#63b8ff" stroke="#63b8ff" points="1094.86,-148.95 1101.96,-141.08 1091.51,-142.81 1094.86,-148.95"/>
</g>
<!-- Node40&#45;&gt;Node10 -->
<g id="edge56" class="edge">
<title>Node40&#45;&gt;Node10</title>
<path fill="none" stroke="#63b8ff" d="M1115.61,-120.89C1109.12,-107.41 1094.86,-81.3 1075.5,-66 1047,-43.48 1007.12,-30.06 979.49,-22.89"/>
<polygon fill="#63b8ff" stroke="#63b8ff" points="980.47,-19.52 969.93,-20.54 978.81,-26.32 980.47,-19.52"/>
</g>
<!-- Node40&#45;&gt;Node13 -->
<g id="edge57" class="edge">
<title>Node40&#45;&gt;Node13</title>
<path fill="none" stroke="#63b8ff" d="M1056.57,-120.93C988.7,-111.68 880.6,-96.95 807.66,-87.01"/>
<polygon fill="#63b8ff" stroke="#63b8ff" points="808.15,-83.55 797.77,-85.66 807.2,-90.48 808.15,-83.55"/>
</g>
<!-- Node40&#45;&gt;Node14 -->
<g id="edge63" class="edge">
<title>Node40&#45;&gt;Node14</title>
<path fill="none" stroke="#63b8ff" d="M1056.68,-123.83C937.92,-113.11 683.05,-90.09 578.59,-80.66"/>
<polygon fill="#63b8ff" stroke="#63b8ff" points="578.99,-77.18 568.71,-79.77 578.36,-84.15 578.99,-77.18"/>
</g>
<!-- Node40&#45;&gt;Node25 -->
<g id="edge64" class="edge">
<title>Node40&#45;&gt;Node25</title>
<path fill="none" stroke="#63b8ff" d="M1182.13,-122.41C1270.27,-112.43 1430.21,-94.31 1520.6,-84.08"/>
<polygon fill="#63b8ff" stroke="#63b8ff" points="1520.76,-87.58 1530.3,-82.98 1519.97,-80.62 1520.76,-87.58"/>
</g>
<!-- Node40&#45;&gt;Node26 -->
<g id="edge54" class="edge">
<title>Node40&#45;&gt;Node26</title>
<path fill="none" stroke="#63b8ff" d="M1120.52,-120.59C1122.59,-102.53 1127.33,-61.17 1130.19,-36.21"/>
<polygon fill="#63b8ff" stroke="#63b8ff" points="1133.65,-36.7 1131.31,-26.37 1126.7,-35.91 1133.65,-36.7"/>
</g>
<!-- Node40&#45;&gt;Node27 -->
<g id="edge55" class="edge">
<title>Node40&#45;&gt;Node27</title>
<path fill="none" stroke="#63b8ff" d="M1126.17,-120.81C1137.5,-106.74 1161.98,-79.2 1189.5,-66 1281.88,-21.68 1405.38,-15.34 1466.3,-15.21"/>
<polygon fill="#63b8ff" stroke="#63b8ff" points="1466.1,-18.71 1476.11,-15.25 1466.13,-11.71 1466.1,-18.71"/>
</g>
<!-- Node40&#45;&gt;Node33 -->
<g id="edge52" class="edge">
<title>Node40&#45;&gt;Node33</title>
<path fill="none" stroke="#63b8ff" d="M1137.99,-120.51C1155,-112.24 1180.49,-99.84 1200.09,-90.31"/>
<polygon fill="#63b8ff" stroke="#63b8ff" points="1201.46,-93.54 1208.92,-86.02 1198.4,-87.25 1201.46,-93.54"/>
</g>
<!-- Node40&#45;&gt;Node34 -->
<g id="edge53" class="edge">
<title>Node40&#45;&gt;Node34</title>
<path fill="none" stroke="#63b8ff" d="M1150.37,-120.51C1182.17,-111.25 1231.7,-96.83 1265.32,-87.04"/>
<polygon fill="#63b8ff" stroke="#63b8ff" points="1265.99,-90.49 1274.61,-84.33 1264.03,-83.77 1265.99,-90.49"/>
</g>
<!-- Node40&#45;&gt;Node35 -->
<g id="edge58" class="edge">
<title>Node40&#45;&gt;Node35</title>
<path fill="none" stroke="#63b8ff" d="M1167.31,-120.57C1208.81,-112.61 1270.74,-100.24 1333.61,-85.33"/>
<polygon fill="#63b8ff" stroke="#63b8ff" points="1334.15,-88.8 1343.06,-83.06 1332.52,-81.99 1334.15,-88.8"/>
</g>
<!-- Node40&#45;&gt;Node36 -->
<g id="edge59" class="edge">
<title>Node40&#45;&gt;Node36</title>
<path fill="none" stroke="#63b8ff" d="M1179.53,-120.54C1233.37,-112.35 1314.84,-99.61 1394.55,-85.48"/>
<polygon fill="#63b8ff" stroke="#63b8ff" points="1395.07,-88.94 1404.3,-83.74 1393.84,-82.05 1395.07,-88.94"/>
</g>
<!-- Node40&#45;&gt;Node37 -->
<g id="edge60" class="edge">
<title>Node40&#45;&gt;Node37</title>
<path fill="none" stroke="#63b8ff" d="M1079.81,-120.51C1037.16,-110.85 969.73,-95.58 926.56,-85.8"/>
<polygon fill="#63b8ff" stroke="#63b8ff" points="927.34,-82.39 916.82,-83.59 925.8,-89.22 927.34,-82.39"/>
</g>
<!-- Node40&#45;&gt;Node38 -->
<g id="edge61" class="edge">
<title>Node40&#45;&gt;Node38</title>
<path fill="none" stroke="#63b8ff" d="M1093.38,-120.51C1068.3,-111.88 1030.19,-98.76 1002.1,-89.1"/>
<polygon fill="#63b8ff" stroke="#63b8ff" points="1003.52,-85.88 992.93,-85.94 1001.24,-92.5 1003.52,-85.88"/>
</g>
<!-- Node40&#45;&gt;Node39 -->
<g id="edge62" class="edge">
<title>Node40&#45;&gt;Node39</title>
<path fill="none" stroke="#63b8ff" d="M1106.27,-120.51C1094.66,-112.62 1077.53,-100.98 1063.8,-91.65"/>
<polygon fill="#63b8ff" stroke="#63b8ff" points="1066.03,-88.93 1055.79,-86.21 1062.09,-94.72 1066.03,-88.93"/>
</g>
<!-- Node41&#45;&gt;Node24 -->
<g id="edge69" class="edge">
<title>Node41&#45;&gt;Node24</title>
<path fill="none" stroke="#63b8ff" d="M814.53,-230.75C812.27,-224.11 809.09,-214.73 806.23,-206.31"/>
<polygon fill="#63b8ff" stroke="#63b8ff" points="809.55,-205.22 803.02,-196.88 802.93,-207.47 809.55,-205.22"/>
</g>
<!-- Node42&#45;&gt;Node23 -->
<g id="edge71" class="edge">
<title>Node42&#45;&gt;Node23</title>
<path fill="none" stroke="#63b8ff" d="M970.88,-291.12C1005.09,-281.11 1060.89,-264.79 1099.08,-253.62"/>
<polygon fill="#63b8ff" stroke="#63b8ff" points="1099.77,-257.06 1108.39,-250.89 1097.81,-250.34 1099.77,-257.06"/>
</g>
<!-- Node42&#45;&gt;Node31 -->
<g id="edge72" class="edge">
<title>Node42&#45;&gt;Node31</title>
<path fill="none" stroke="#63b8ff" d="M940.5,-291.37C940.5,-283.5 940.5,-271.6 940.5,-261.39"/>
<polygon fill="#63b8ff" stroke="#63b8ff" points="944,-261.68 940.5,-251.68 937,-261.68 944,-261.68"/>
</g>
</g>
</svg>
