<?xml version="1.0" encoding="UTF-8" standalone="no"?>
<!DOCTYPE svg PUBLIC "-//W3C//DTD SVG 1.1//EN"
 "http://www.w3.org/Graphics/SVG/1.1/DTD/svg11.dtd">
<!-- Generated by graphviz version 7.0.5 (20221223.1930)
 -->
<!-- Title: DataHandlerPrint.cpp Pages: 1 -->
<!--zoomable 489 -->
<svg id="main" version="1.1" xmlns="http://www.w3.org/2000/svg" xmlns:xlink="http://www.w3.org/1999/xlink" xml:space="preserve" onload="init(evt)">
<style type="text/css"><![CDATA[
.edge:hover path { stroke: red; }
.edge:hover polygon { stroke: red; fill: red; }
]]></style>
<script type="text/javascript"><![CDATA[
var edges = document.getElementsByTagName('g');
if (edges && edges.length) {
  for (var i=0;i<edges.length;i++) {
    if (edges[i].id.substr(0,4)=='edge') {
      edges[i].setAttribute('class','edge');
    }
  }
}
]]></script>
        <defs>
                <circle id="rim" cx="0" cy="0" r="7"/>
                <circle id="rim2" cx="0" cy="0" r="3.5"/>
                <g id="zoomPlus">
                        <use xlink:href="#rim" fill="#404040">
                                <set attributeName="fill" to="#808080" begin="zoomplus.mouseover" end="zoomplus.mouseout"/>
                        </use>
                        <path d="M-4,0h8M0,-4v8" fill="none" stroke="white" stroke-width="1.5" pointer-events="none"/>
                </g>
                <g id="zoomMin">
                        <use xlink:href="#rim" fill="#404040">
                                <set attributeName="fill" to="#808080" begin="zoomminus.mouseover" end="zoomminus.mouseout"/>
                        </use>
                        <path d="M-4,0h8" fill="none" stroke="white" stroke-width="1.5" pointer-events="none"/>
                </g>
                <g id="dirArrow">
                        <path fill="none" stroke="white" stroke-width="1.5" d="M0,-3.0v7 M-2.5,-0.5L0,-3.0L2.5,-0.5"/>
                </g>
               <g id="resetDef">
                       <use xlink:href="#rim2" fill="#404040">
                               <set attributeName="fill" to="#808080" begin="reset.mouseover" end="reset.mouseout"/>
                       </use>
               </g>
        </defs>

<script type="text/javascript">
var viewWidth = 2190;
var viewHeight = 489;
var sectionId = 'dynsection-0';
</script>
<script xlink:href="svgpan.js"/>
<svg id="graph" class="graph">
<g id="viewport">
<title>DataHandlerPrint.cpp</title>
<!-- Node1 -->
<g id="node1" class="node">
<title>Node1</title>
<g id="a_node1"><a xlink:title=" ">
<polygon fill="#999999" stroke="#666666" points="2164,-481 2055,-481 2055,-462 2164,-462 2164,-481"/>
<text text-anchor="middle" x="2109.5" y="-469" font-family="Helvetica,sans-Serif" font-size="10.00">DataHandlerPrint.cpp</text>
</a>
</g>
</g>
<!-- Node2 -->
<g id="node2" class="node">
<title>Node2</title>
<g id="a_node2"><a xlink:href="_data_handler_print_8hpp.html" target="_top" xlink:title=" ">
<polygon fill="white" stroke="#666666" points="1826,-426 1717,-426 1717,-407 1826,-407 1826,-426"/>
<text text-anchor="middle" x="1771.5" y="-414" font-family="Helvetica,sans-Serif" font-size="10.00">DataHandlerPrint.hpp</text>
</a>
</g>
</g>
<!-- Node1&#45;&gt;Node2 -->
<g id="edge1" class="edge">
<title>Node1&#45;&gt;Node2</title>
<path fill="none" stroke="#63b8ff" d="M2054.82,-461.93C1995.51,-452.63 1900.84,-437.78 1837.45,-427.84"/>
<polygon fill="#63b8ff" stroke="#63b8ff" points="1838.3,-424.43 1827.88,-426.34 1837.22,-431.35 1838.3,-424.43"/>
</g>
<!-- Node23 -->
<g id="node23" class="node">
<title>Node23</title>
<g id="a_node23"><a xlink:title=" ">
<polygon fill="#e0e0e0" stroke="#999999" points="1691.5,-24.5 1637.5,-24.5 1637.5,-5.5 1691.5,-5.5 1691.5,-24.5"/>
<text text-anchor="middle" x="1664.5" y="-12.5" font-family="Helvetica,sans-Serif" font-size="10.00">iostream</text>
</a>
</g>
</g>
<!-- Node1&#45;&gt;Node23 -->
<g id="edge78" class="edge">
<title>Node1&#45;&gt;Node23</title>
<path fill="none" stroke="#63b8ff" d="M2109.5,-461.54C2109.5,-443.03 2109.5,-399.25 2109.5,-362.5 2109.5,-362.5 2109.5,-362.5 2109.5,-129.5 2109.5,-100.04 2113.06,-84.94 2090.5,-66 2032.45,-17.26 1797.33,-14.42 1703.47,-15.3"/>
<polygon fill="#63b8ff" stroke="#63b8ff" points="1703.44,-11.8 1693.48,-15.42 1703.53,-18.8 1703.44,-11.8"/>
</g>
<!-- Node44 -->
<g id="node44" class="node">
<title>Node44</title>
<g id="a_node44"><a xlink:title=" ">
<polygon fill="#e0e0e0" stroke="#999999" points="2181.5,-426 2137.5,-426 2137.5,-407 2181.5,-407 2181.5,-426"/>
<text text-anchor="middle" x="2159.5" y="-414" font-family="Helvetica,sans-Serif" font-size="10.00">thread</text>
</a>
</g>
</g>
<!-- Node1&#45;&gt;Node44 -->
<g id="edge79" class="edge">
<title>Node1&#45;&gt;Node44</title>
<path fill="none" stroke="#63b8ff" d="M2117.76,-461.75C2124.66,-454.43 2134.72,-443.76 2143.24,-434.74"/>
<polygon fill="#63b8ff" stroke="#63b8ff" points="2145.71,-437.22 2150.03,-427.54 2140.62,-432.42 2145.71,-437.22"/>
</g>
<!-- Node3 -->
<g id="node3" class="node">
<title>Node3</title>
<g id="a_node3"><a xlink:title=" ">
<polygon fill="#e0e0e0" stroke="#999999" points="1894.5,-371 1844.5,-371 1844.5,-352 1894.5,-352 1894.5,-371"/>
<text text-anchor="middle" x="1869.5" y="-359" font-family="Helvetica,sans-Serif" font-size="10.00">optional</text>
</a>
</g>
</g>
<!-- Node2&#45;&gt;Node3 -->
<g id="edge2" class="edge">
<title>Node2&#45;&gt;Node3</title>
<path fill="none" stroke="#63b8ff" d="M1788.12,-406.51C1803.28,-398.31 1825.92,-386.07 1843.47,-376.58"/>
<polygon fill="#63b8ff" stroke="#63b8ff" points="1844.66,-379.91 1851.79,-372.08 1841.33,-373.76 1844.66,-379.91"/>
</g>
<!-- Node4 -->
<g id="node4" class="node">
<title>Node4</title>
<g id="a_node4"><a xlink:title=" ">
<polygon fill="#e0e0e0" stroke="#999999" points="1423,-371 1384,-371 1384,-352 1423,-352 1423,-371"/>
<text text-anchor="middle" x="1403.5" y="-359" font-family="Helvetica,sans-Serif" font-size="10.00">utility</text>
</a>
</g>
</g>
<!-- Node2&#45;&gt;Node4 -->
<g id="edge3" class="edge">
<title>Node2&#45;&gt;Node4</title>
<path fill="none" stroke="#63b8ff" d="M1716.75,-410.94C1651.67,-404.94 1539.66,-392.78 1434.5,-371.1"/>
<polygon fill="#63b8ff" stroke="#63b8ff" points="1435.35,-367.7 1424.85,-369.07 1433.91,-374.55 1435.35,-367.7"/>
</g>
<!-- Node5 -->
<g id="node5" class="node">
<title>Node5</title>
<g id="a_node5"><a xlink:href="_axi_traffic_gen_lfsr_8hpp.html" target="_top" xlink:title=" ">
<polygon fill="white" stroke="#666666" points="1826.5,-371 1716.5,-371 1716.5,-352 1826.5,-352 1826.5,-371"/>
<text text-anchor="middle" x="1771.5" y="-359" font-family="Helvetica,sans-Serif" font-size="10.00">AxiTrafficGenLfsr.hpp</text>
</a>
</g>
</g>
<!-- Node2&#45;&gt;Node5 -->
<g id="edge4" class="edge">
<title>Node2&#45;&gt;Node5</title>
<path fill="none" stroke="#63b8ff" d="M1771.5,-406.75C1771.5,-400.27 1771.5,-391.16 1771.5,-382.9"/>
<polygon fill="#63b8ff" stroke="#63b8ff" points="1775,-382.96 1771.5,-372.96 1768,-382.96 1775,-382.96"/>
</g>
<!-- Node7 -->
<g id="node7" class="node">
<title>Node7</title>
<g id="a_node7"><a xlink:href="_data_handler_abstract_8hpp.html" target="_top" xlink:title=" ">
<polygon fill="white" stroke="#666666" points="1601.5,-371 1441.5,-371 1441.5,-352 1601.5,-352 1601.5,-371"/>
<text text-anchor="middle" x="1521.5" y="-359" font-family="Helvetica,sans-Serif" font-size="10.00">udmaio/DataHandlerAbstract.hpp</text>
</a>
</g>
</g>
<!-- Node2&#45;&gt;Node7 -->
<g id="edge6" class="edge">
<title>Node2&#45;&gt;Node7</title>
<path fill="none" stroke="#63b8ff" d="M1729.09,-406.51C1686.58,-397.5 1621.01,-383.6 1574.96,-373.83"/>
<polygon fill="#63b8ff" stroke="#63b8ff" points="1575.69,-370.41 1565.18,-371.76 1574.24,-377.26 1575.69,-370.41"/>
</g>
<!-- Node6 -->
<g id="node6" class="node">
<title>Node6</title>
<g id="a_node6"><a xlink:title=" ">
<polygon fill="#e0e0e0" stroke="#999999" points="1735.5,-195 1689.5,-195 1689.5,-176 1735.5,-176 1735.5,-195"/>
<text text-anchor="middle" x="1712.5" y="-183" font-family="Helvetica,sans-Serif" font-size="10.00">cstdint</text>
</a>
</g>
</g>
<!-- Node5&#45;&gt;Node6 -->
<g id="edge5" class="edge">
<title>Node5&#45;&gt;Node6</title>
<path fill="none" stroke="#63b8ff" d="M1783.14,-351.73C1792.81,-343.67 1805.85,-330.74 1811.5,-316 1816.27,-303.55 1815.84,-298.61 1811.5,-286 1798.59,-248.54 1762.14,-218.52 1737.27,-201.61"/>
<polygon fill="#63b8ff" stroke="#63b8ff" points="1739.29,-198.75 1729,-196.21 1735.46,-204.61 1739.29,-198.75"/>
</g>
<!-- Node8 -->
<g id="node8" class="node">
<title>Node8</title>
<g id="a_node8"><a xlink:title=" ">
<polygon fill="#e0e0e0" stroke="#999999" points="968,-24.5 927,-24.5 927,-5.5 968,-5.5 968,-24.5"/>
<text text-anchor="middle" x="947.5" y="-12.5" font-family="Helvetica,sans-Serif" font-size="10.00">string</text>
</a>
</g>
</g>
<!-- Node7&#45;&gt;Node8 -->
<g id="edge7" class="edge">
<title>Node7&#45;&gt;Node8</title>
<path fill="none" stroke="#63b8ff" d="M1441.46,-352.73C1438.43,-352.48 1435.44,-352.23 1432.5,-352 1368.35,-346.94 898.56,-362.89 854.5,-316 776.1,-232.56 888.87,-84.18 931.96,-33.52"/>
<polygon fill="#63b8ff" stroke="#63b8ff" points="934.46,-35.98 938.36,-26.13 929.16,-31.39 934.46,-35.98"/>
</g>
<!-- Node9 -->
<g id="node9" class="node">
<title>Node9</title>
<g id="a_node9"><a xlink:title=" ">
<polygon fill="#e0e0e0" stroke="#999999" points="992.5,-195 948.5,-195 948.5,-176 992.5,-176 992.5,-195"/>
<text text-anchor="middle" x="970.5" y="-183" font-family="Helvetica,sans-Serif" font-size="10.00">vector</text>
</a>
</g>
</g>
<!-- Node7&#45;&gt;Node9 -->
<g id="edge8" class="edge">
<title>Node7&#45;&gt;Node9</title>
<path fill="none" stroke="#63b8ff" d="M1441.44,-352.48C1337.78,-341.91 1166.97,-323.73 1138.5,-316 1068.21,-296.92 1036.32,-304.94 988.5,-250 978.02,-237.96 973.61,-220.21 971.78,-206.54"/>
<polygon fill="#63b8ff" stroke="#63b8ff" points="975.29,-206.53 970.85,-196.91 968.32,-207.2 975.29,-206.53"/>
</g>
<!-- Node10 -->
<g id="node10" class="node">
<title>Node10</title>
<g id="a_node10"><a xlink:title=" ">
<polygon fill="#e0e0e0" stroke="#999999" points="1664.5,-310.5 1584.5,-310.5 1584.5,-291.5 1664.5,-291.5 1664.5,-310.5"/>
<text text-anchor="middle" x="1624.5" y="-298.5" font-family="Helvetica,sans-Serif" font-size="10.00">boost/asio.hpp</text>
</a>
</g>
</g>
<!-- Node7&#45;&gt;Node10 -->
<g id="edge9" class="edge">
<title>Node7&#45;&gt;Node10</title>
<path fill="none" stroke="#63b8ff" d="M1537.14,-351.62C1553.48,-342.34 1579.37,-327.63 1598.73,-316.64"/>
<polygon fill="#63b8ff" stroke="#63b8ff" points="1600.43,-319.7 1607.39,-311.72 1596.97,-313.61 1600.43,-319.7"/>
</g>
<!-- Node11 -->
<g id="node11" class="node">
<title>Node11</title>
<g id="a_node11"><a xlink:title=" ">
<polygon fill="#e0e0e0" stroke="#999999" points="2081,-85 1944,-85 1944,-66 2081,-66 2081,-85"/>
<text text-anchor="middle" x="2012.5" y="-73" font-family="Helvetica,sans-Serif" font-size="10.00">boost/core/noncopyable.hpp</text>
</a>
</g>
</g>
<!-- Node7&#45;&gt;Node11 -->
<g id="edge10" class="edge">
<title>Node7&#45;&gt;Node11</title>
<path fill="none" stroke="#63b8ff" d="M1601.73,-354.54C1674.83,-347.98 1776.54,-335.67 1811.5,-316 1907.89,-261.78 1978.16,-142.17 2002.84,-95.59"/>
<polygon fill="#63b8ff" stroke="#63b8ff" points="2005.93,-97.24 2007.42,-86.75 1999.71,-94.02 2005.93,-97.24"/>
</g>
<!-- Node12 -->
<g id="node12" class="node">
<title>Node12</title>
<g id="a_node12"><a xlink:href="_logging_8hpp.html" target="_top" xlink:title=" ">
<polygon fill="white" stroke="#666666" points="758,-85 689,-85 689,-66 758,-66 758,-85"/>
<text text-anchor="middle" x="723.5" y="-73" font-family="Helvetica,sans-Serif" font-size="10.00">Logging.hpp</text>
</a>
</g>
</g>
<!-- Node7&#45;&gt;Node12 -->
<g id="edge11" class="edge">
<title>Node7&#45;&gt;Node12</title>
<path fill="none" stroke="#63b8ff" d="M1441.46,-352.71C1438.43,-352.46 1435.44,-352.23 1432.5,-352 1294.89,-341.44 939.4,-370.24 812.5,-316 767.82,-296.91 732.5,-290.09 732.5,-241.5 732.5,-241.5 732.5,-241.5 732.5,-184.5 732.5,-153.82 728.85,-118.4 726.2,-96.73"/>
<polygon fill="#63b8ff" stroke="#63b8ff" points="729.68,-96.42 724.94,-86.94 722.74,-97.3 729.68,-96.42"/>
</g>
<!-- Node20 -->
<g id="node20" class="node">
<title>Node20</title>
<g id="a_node20"><a xlink:href="_u_dma_buf_8hpp.html" target="_top" xlink:title=" ">
<polygon fill="white" stroke="#666666" points="941,-310.5 864,-310.5 864,-291.5 941,-291.5 941,-310.5"/>
<text text-anchor="middle" x="902.5" y="-298.5" font-family="Helvetica,sans-Serif" font-size="10.00">UDmaBuf.hpp</text>
</a>
</g>
</g>
<!-- Node7&#45;&gt;Node20 -->
<g id="edge20" class="edge">
<title>Node7&#45;&gt;Node20</title>
<path fill="none" stroke="#63b8ff" d="M1441.45,-352.78C1438.43,-352.51 1435.44,-352.25 1432.5,-352 1220.67,-333.89 1165.15,-351.3 955.5,-316 951.63,-315.35 947.63,-314.54 943.64,-313.65"/>
<polygon fill="#63b8ff" stroke="#63b8ff" points="944.58,-310.28 934.03,-311.32 942.92,-317.08 944.58,-310.28"/>
</g>
<!-- Node27 -->
<g id="node27" class="node">
<title>Node27</title>
<g id="a_node27"><a xlink:href="_uio_axi_dma_if_8hpp.html" target="_top" xlink:title=" ">
<polygon fill="white" stroke="#666666" points="1566,-310.5 1477,-310.5 1477,-291.5 1566,-291.5 1566,-310.5"/>
<text text-anchor="middle" x="1521.5" y="-298.5" font-family="Helvetica,sans-Serif" font-size="10.00">UioAxiDmaIf.hpp</text>
</a>
</g>
</g>
<!-- Node7&#45;&gt;Node27 -->
<g id="edge33" class="edge">
<title>Node7&#45;&gt;Node27</title>
<path fill="none" stroke="#63b8ff" d="M1521.5,-351.87C1521.5,-344 1521.5,-332.1 1521.5,-321.89"/>
<polygon fill="#63b8ff" stroke="#63b8ff" points="1525,-322.18 1521.5,-312.18 1518,-322.18 1525,-322.18"/>
</g>
<!-- Node42 -->
<g id="node42" class="node">
<title>Node42</title>
<g id="a_node42"><a xlink:href="_uio_mem_sgdma_8hpp.html" target="_top" xlink:title=" ">
<polygon fill="white" stroke="#666666" points="1249.5,-310.5 1147.5,-310.5 1147.5,-291.5 1249.5,-291.5 1249.5,-310.5"/>
<text text-anchor="middle" x="1198.5" y="-298.5" font-family="Helvetica,sans-Serif" font-size="10.00">UioMemSgdma.hpp</text>
</a>
</g>
</g>
<!-- Node7&#45;&gt;Node42 -->
<g id="edge72" class="edge">
<title>Node7&#45;&gt;Node42</title>
<path fill="none" stroke="#63b8ff" d="M1472.09,-351.55C1414.94,-341.2 1320.85,-324.16 1259.27,-313.01"/>
<polygon fill="#63b8ff" stroke="#63b8ff" points="1260.12,-309.6 1249.66,-311.27 1258.87,-316.49 1260.12,-309.6"/>
</g>
<!-- Node43 -->
<g id="node43" class="node">
<title>Node43</title>
<g id="a_node43"><a xlink:title=" ">
<polygon fill="#e0e0e0" stroke="#999999" points="1802.5,-316 1682.5,-316 1682.5,-286 1802.5,-286 1802.5,-316"/>
<text text-anchor="start" x="1690.5" y="-304" font-family="Helvetica,sans-Serif" font-size="10.00">boost/asio/posix/stream</text>
<text text-anchor="middle" x="1742.5" y="-293" font-family="Helvetica,sans-Serif" font-size="10.00">_descriptor.hpp</text>
</a>
</g>
</g>
<!-- Node7&#45;&gt;Node43 -->
<g id="edge77" class="edge">
<title>Node7&#45;&gt;Node43</title>
<path fill="none" stroke="#63b8ff" d="M1555.07,-351.62C1587.29,-343.08 1636.86,-329.96 1676.92,-319.36"/>
<polygon fill="#63b8ff" stroke="#63b8ff" points="1677.72,-322.77 1686.49,-316.83 1675.92,-316 1677.72,-322.77"/>
</g>
<!-- Node12&#45;&gt;Node8 -->
<g id="edge12" class="edge">
<title>Node12&#45;&gt;Node8</title>
<path fill="none" stroke="#63b8ff" d="M758.46,-68.78C797.79,-61.82 863.25,-48.64 917.5,-30 918.15,-29.78 918.8,-29.55 919.45,-29.31"/>
<polygon fill="#63b8ff" stroke="#63b8ff" points="920.7,-32.58 928.59,-25.51 918.01,-26.11 920.7,-32.58"/>
</g>
<!-- Node13 -->
<g id="node13" class="node">
<title>Node13</title>
<g id="a_node13"><a xlink:title=" ">
<polygon fill="#e0e0e0" stroke="#999999" points="366.5,-24.5 270.5,-24.5 270.5,-5.5 366.5,-5.5 366.5,-24.5"/>
<text text-anchor="middle" x="318.5" y="-12.5" font-family="Helvetica,sans-Serif" font-size="10.00">boost/log/core.hpp</text>
</a>
</g>
</g>
<!-- Node12&#45;&gt;Node13 -->
<g id="edge13" class="edge">
<title>Node12&#45;&gt;Node13</title>
<path fill="none" stroke="#63b8ff" d="M688.72,-71.37C625.86,-65.43 489.27,-51.18 375.5,-30 371.46,-29.25 367.27,-28.38 363.09,-27.46"/>
<polygon fill="#63b8ff" stroke="#63b8ff" points="364.13,-24.11 353.59,-25.27 362.55,-30.93 364.13,-24.11"/>
</g>
<!-- Node14 -->
<g id="node14" class="node">
<title>Node14</title>
<g id="a_node14"><a xlink:title=" ">
<polygon fill="#e0e0e0" stroke="#999999" points="514,-24.5 385,-24.5 385,-5.5 514,-5.5 514,-24.5"/>
<text text-anchor="middle" x="449.5" y="-12.5" font-family="Helvetica,sans-Serif" font-size="10.00">boost/log/expressions.hpp</text>
</a>
</g>
</g>
<!-- Node12&#45;&gt;Node14 -->
<g id="edge14" class="edge">
<title>Node12&#45;&gt;Node14</title>
<path fill="none" stroke="#63b8ff" d="M688.52,-67.03C641.51,-57 557.54,-39.07 502.68,-27.35"/>
<polygon fill="#63b8ff" stroke="#63b8ff" points="503.43,-23.94 492.92,-25.27 501.97,-30.78 503.43,-23.94"/>
</g>
<!-- Node15 -->
<g id="node15" class="node">
<title>Node15</title>
<g id="a_node15"><a xlink:title=" ">
<polygon fill="#e0e0e0" stroke="#999999" points="633,-24.5 532,-24.5 532,-5.5 633,-5.5 633,-24.5"/>
<text text-anchor="middle" x="582.5" y="-12.5" font-family="Helvetica,sans-Serif" font-size="10.00">boost/log/trivial.hpp</text>
</a>
</g>
</g>
<!-- Node12&#45;&gt;Node15 -->
<g id="edge15" class="edge">
<title>Node12&#45;&gt;Node15</title>
<path fill="none" stroke="#63b8ff" d="M702.09,-65.62C678.79,-55.95 641.31,-40.4 614.52,-29.28"/>
<polygon fill="#63b8ff" stroke="#63b8ff" points="616.09,-26.15 605.51,-25.55 613.41,-32.61 616.09,-26.15"/>
</g>
<!-- Node16 -->
<g id="node16" class="node">
<title>Node16</title>
<g id="a_node16"><a xlink:title=" ">
<polygon fill="#e0e0e0" stroke="#999999" points="760,-30 651,-30 651,0 760,0 760,-30"/>
<text text-anchor="start" x="659" y="-18" font-family="Helvetica,sans-Serif" font-size="10.00">boost/log/utility/setup</text>
<text text-anchor="middle" x="705.5" y="-7" font-family="Helvetica,sans-Serif" font-size="10.00">/console.hpp</text>
</a>
</g>
</g>
<!-- Node12&#45;&gt;Node16 -->
<g id="edge16" class="edge">
<title>Node12&#45;&gt;Node16</title>
<path fill="none" stroke="#63b8ff" d="M720.84,-65.87C718.81,-59.25 715.89,-49.78 713.15,-40.86"/>
<polygon fill="#63b8ff" stroke="#63b8ff" points="716.57,-40.09 710.29,-31.56 709.88,-42.15 716.57,-40.09"/>
</g>
<!-- Node17 -->
<g id="node17" class="node">
<title>Node17</title>
<g id="a_node17"><a xlink:title=" ">
<polygon fill="#e0e0e0" stroke="#999999" points="909,-30 778,-30 778,0 909,0 909,-30"/>
<text text-anchor="start" x="786" y="-18" font-family="Helvetica,sans-Serif" font-size="10.00">boost/log/sources/severity</text>
<text text-anchor="middle" x="843.5" y="-7" font-family="Helvetica,sans-Serif" font-size="10.00">_channel_logger.hpp</text>
</a>
</g>
</g>
<!-- Node12&#45;&gt;Node17 -->
<g id="edge17" class="edge">
<title>Node12&#45;&gt;Node17</title>
<path fill="none" stroke="#63b8ff" d="M741.73,-65.62C758.1,-57.63 782.73,-45.63 803.65,-35.43"/>
<polygon fill="#63b8ff" stroke="#63b8ff" points="805.06,-38.63 812.52,-31.1 802,-32.34 805.06,-38.63"/>
</g>
<!-- Node18 -->
<g id="node18" class="node">
<title>Node18</title>
<g id="a_node18"><a xlink:title=" ">
<polygon fill="#e0e0e0" stroke="#999999" points="113,-30 0,-30 0,0 113,0 113,-30"/>
<text text-anchor="start" x="8" y="-18" font-family="Helvetica,sans-Serif" font-size="10.00">boost/log/support/date</text>
<text text-anchor="middle" x="56.5" y="-7" font-family="Helvetica,sans-Serif" font-size="10.00">_time.hpp</text>
</a>
</g>
</g>
<!-- Node12&#45;&gt;Node18 -->
<g id="edge18" class="edge">
<title>Node12&#45;&gt;Node18</title>
<path fill="none" stroke="#63b8ff" d="M688.71,-73.61C597.58,-70.92 344.3,-61.17 124.59,-30.32"/>
<polygon fill="#63b8ff" stroke="#63b8ff" points="125.38,-26.9 114.99,-28.95 124.39,-33.83 125.38,-26.9"/>
</g>
<!-- Node19 -->
<g id="node19" class="node">
<title>Node19</title>
<g id="a_node19"><a xlink:title=" ">
<polygon fill="#e0e0e0" stroke="#999999" points="252,-30 131,-30 131,0 252,0 252,-30"/>
<text text-anchor="start" x="139" y="-18" font-family="Helvetica,sans-Serif" font-size="10.00">boost/log/utility/setup</text>
<text text-anchor="middle" x="191.5" y="-7" font-family="Helvetica,sans-Serif" font-size="10.00">/common_attributes.hpp</text>
</a>
</g>
</g>
<!-- Node12&#45;&gt;Node19 -->
<g id="edge19" class="edge">
<title>Node12&#45;&gt;Node19</title>
<path fill="none" stroke="#63b8ff" d="M688.58,-72.35C613.05,-67.44 428.66,-54.06 263.49,-30.18"/>
<polygon fill="#63b8ff" stroke="#63b8ff" points="264.04,-26.72 253.64,-28.74 263.03,-33.65 264.04,-26.72"/>
</g>
<!-- Node20&#45;&gt;Node12 -->
<g id="edge31" class="edge">
<title>Node20&#45;&gt;Node12</title>
<path fill="none" stroke="#63b8ff" d="M895.48,-291.24C868.92,-258.07 774.22,-139.82 737.86,-94.43"/>
<polygon fill="#63b8ff" stroke="#63b8ff" points="740.59,-92.24 731.61,-86.63 735.13,-96.62 740.59,-92.24"/>
</g>
<!-- Node21 -->
<g id="node21" class="node">
<title>Node21</title>
<g id="a_node21"><a xlink:href="_dma_buffer_abstract_8hpp.html" target="_top" xlink:title=" ">
<polygon fill="white" stroke="#666666" points="1115,-250 998,-250 998,-231 1115,-231 1115,-250"/>
<text text-anchor="middle" x="1056.5" y="-238" font-family="Helvetica,sans-Serif" font-size="10.00">DmaBufferAbstract.hpp</text>
</a>
</g>
</g>
<!-- Node20&#45;&gt;Node21 -->
<g id="edge21" class="edge">
<title>Node20&#45;&gt;Node21</title>
<path fill="none" stroke="#63b8ff" d="M925.89,-291.12C951.56,-281.37 993,-265.62 1022.31,-254.49"/>
<polygon fill="#63b8ff" stroke="#63b8ff" points="1023.37,-257.83 1031.48,-251.01 1020.88,-251.29 1023.37,-257.83"/>
</g>
<!-- Node22 -->
<g id="node22" class="node">
<title>Node22</title>
<g id="a_node22"><a xlink:href="_uio_config_8hpp.html" target="_top" xlink:title=" ">
<polygon fill="white" stroke="#666666" points="1079,-85 968,-85 968,-66 1079,-66 1079,-85"/>
<text text-anchor="middle" x="1023.5" y="-73" font-family="Helvetica,sans-Serif" font-size="10.00">udmaio/UioConfig.hpp</text>
</a>
</g>
</g>
<!-- Node20&#45;&gt;Node22 -->
<g id="edge32" class="edge">
<title>Node20&#45;&gt;Node22</title>
<path fill="none" stroke="#63b8ff" d="M903.86,-291.1C907.36,-270.05 917.92,-215.92 939.5,-176 957.13,-143.38 986.65,-111.71 1005.59,-93.17"/>
<polygon fill="#63b8ff" stroke="#63b8ff" points="1007.81,-95.89 1012.61,-86.44 1002.97,-90.84 1007.81,-95.89"/>
</g>
<!-- Node21&#45;&gt;Node6 -->
<g id="edge22" class="edge">
<title>Node21&#45;&gt;Node6</title>
<path fill="none" stroke="#63b8ff" d="M1115.29,-238.29C1225.66,-235.34 1471.19,-225.63 1675.5,-195 1676.33,-194.88 1677.17,-194.74 1678.02,-194.6"/>
<polygon fill="#63b8ff" stroke="#63b8ff" points="1678.48,-198.08 1687.63,-192.73 1677.15,-191.21 1678.48,-198.08"/>
</g>
<!-- Node21&#45;&gt;Node9 -->
<g id="edge23" class="edge">
<title>Node21&#45;&gt;Node9</title>
<path fill="none" stroke="#63b8ff" d="M1041.91,-230.51C1028.98,-222.54 1009.86,-210.75 994.65,-201.38"/>
<polygon fill="#63b8ff" stroke="#63b8ff" points="996.51,-198.42 986.16,-196.15 992.84,-204.38 996.51,-198.42"/>
</g>
<!-- Node21&#45;&gt;Node11 -->
<g id="edge24" class="edge">
<title>Node21&#45;&gt;Node11</title>
<path fill="none" stroke="#63b8ff" d="M1115.21,-235.96C1202.45,-230.2 1371.33,-217.18 1513.5,-195 1628.05,-177.13 1655.71,-166.83 1768.5,-140 1838.87,-123.26 1920.06,-101.67 1968.78,-88.47"/>
<polygon fill="#63b8ff" stroke="#63b8ff" points="1969.66,-91.86 1978.39,-85.86 1967.82,-85.1 1969.66,-91.86"/>
</g>
<!-- Node21&#45;&gt;Node22 -->
<g id="edge25" class="edge">
<title>Node21&#45;&gt;Node22</title>
<path fill="none" stroke="#63b8ff" d="M1054.73,-230.74C1049.6,-205.42 1034.68,-131.72 1027.48,-96.16"/>
<polygon fill="#63b8ff" stroke="#63b8ff" points="1031,-95.9 1025.58,-86.79 1024.14,-97.29 1031,-95.9"/>
</g>
<!-- Node22&#45;&gt;Node8 -->
<g id="edge29" class="edge">
<title>Node22&#45;&gt;Node8</title>
<path fill="none" stroke="#63b8ff" d="M1011.96,-65.62C1000.35,-56.68 982.21,-42.72 968.12,-31.87"/>
<polygon fill="#63b8ff" stroke="#63b8ff" points="970.41,-29.22 960.35,-25.89 966.14,-34.76 970.41,-29.22"/>
</g>
<!-- Node22&#45;&gt;Node23 -->
<g id="edge26" class="edge">
<title>Node22&#45;&gt;Node23</title>
<path fill="none" stroke="#63b8ff" d="M1079.26,-69.41C1206.68,-57.78 1516.56,-29.5 1625.69,-19.54"/>
<polygon fill="#63b8ff" stroke="#63b8ff" points="1625.95,-23.03 1635.59,-18.64 1625.31,-16.06 1625.95,-23.03"/>
</g>
<!-- Node24 -->
<g id="node24" class="node">
<title>Node24</title>
<g id="a_node24"><a xlink:title=" ">
<polygon fill="#e0e0e0" stroke="#999999" points="1199,-24.5 1148,-24.5 1148,-5.5 1199,-5.5 1199,-24.5"/>
<text text-anchor="middle" x="1173.5" y="-12.5" font-family="Helvetica,sans-Serif" font-size="10.00">memory</text>
</a>
</g>
</g>
<!-- Node22&#45;&gt;Node24 -->
<g id="edge27" class="edge">
<title>Node22&#45;&gt;Node24</title>
<path fill="none" stroke="#63b8ff" d="M1046.88,-65.54C1070.13,-56.61 1106.83,-42.46 1138.5,-30 1139.28,-29.69 1140.06,-29.38 1140.85,-29.07"/>
<polygon fill="#63b8ff" stroke="#63b8ff" points="1141.89,-32.43 1149.89,-25.48 1139.3,-25.92 1141.89,-32.43"/>
</g>
<!-- Node25 -->
<g id="node25" class="node">
<title>Node25</title>
<g id="a_node25"><a xlink:title=" ">
<polygon fill="#e0e0e0" stroke="#999999" points="1045,-24.5 986,-24.5 986,-5.5 1045,-5.5 1045,-24.5"/>
<text text-anchor="middle" x="1015.5" y="-12.5" font-family="Helvetica,sans-Serif" font-size="10.00">stdexcept</text>
</a>
</g>
</g>
<!-- Node22&#45;&gt;Node25 -->
<g id="edge28" class="edge">
<title>Node22&#45;&gt;Node25</title>
<path fill="none" stroke="#63b8ff" d="M1022.32,-65.87C1021.24,-58 1019.62,-46.1 1018.22,-35.89"/>
<polygon fill="#63b8ff" stroke="#63b8ff" points="1021.71,-35.6 1016.89,-26.17 1014.78,-36.55 1021.71,-35.6"/>
</g>
<!-- Node26 -->
<g id="node26" class="node">
<title>Node26</title>
<g id="a_node26"><a xlink:title=" ">
<polygon fill="#e0e0e0" stroke="#999999" points="1129.5,-24.5 1063.5,-24.5 1063.5,-5.5 1129.5,-5.5 1129.5,-24.5"/>
<text text-anchor="middle" x="1096.5" y="-12.5" font-family="Helvetica,sans-Serif" font-size="10.00">string_view</text>
</a>
</g>
</g>
<!-- Node22&#45;&gt;Node26 -->
<g id="edge30" class="edge">
<title>Node22&#45;&gt;Node26</title>
<path fill="none" stroke="#63b8ff" d="M1034.59,-65.62C1045.74,-56.68 1063.16,-42.72 1076.69,-31.87"/>
<polygon fill="#63b8ff" stroke="#63b8ff" points="1078.51,-34.9 1084.13,-25.91 1074.14,-29.44 1078.51,-34.9"/>
</g>
<!-- Node27&#45;&gt;Node6 -->
<g id="edge34" class="edge">
<title>Node27&#45;&gt;Node6</title>
<path fill="none" stroke="#63b8ff" d="M1526.61,-291.01C1535.37,-276.36 1554.66,-247.33 1578.5,-231 1594.9,-219.77 1644.29,-204.91 1678.3,-195.53"/>
<polygon fill="#63b8ff" stroke="#63b8ff" points="1678.98,-198.97 1687.71,-192.96 1677.14,-192.21 1678.98,-198.97"/>
</g>
<!-- Node28 -->
<g id="node28" class="node">
<title>Node28</title>
<g id="a_node28"><a xlink:title=" ">
<polygon fill="#e0e0e0" stroke="#999999" points="1759.5,-250 1721.5,-250 1721.5,-231 1759.5,-231 1759.5,-250"/>
<text text-anchor="middle" x="1740.5" y="-238" font-family="Helvetica,sans-Serif" font-size="10.00">tuple</text>
</a>
</g>
</g>
<!-- Node27&#45;&gt;Node28 -->
<g id="edge35" class="edge">
<title>Node27&#45;&gt;Node28</title>
<path fill="none" stroke="#63b8ff" d="M1555.97,-291.05C1600.83,-279.4 1676.75,-259.64 1710.3,-250.49"/>
<polygon fill="#63b8ff" stroke="#63b8ff" points="1711.09,-253.9 1719.79,-247.86 1709.22,-247.16 1711.09,-253.9"/>
</g>
<!-- Node29 -->
<g id="node29" class="node">
<title>Node29</title>
<g id="a_node29"><a xlink:title=" ">
<polygon fill="#e0e0e0" stroke="#999999" points="1926,-85 1861,-85 1861,-66 1926,-66 1926,-85"/>
<text text-anchor="middle" x="1893.5" y="-73" font-family="Helvetica,sans-Serif" font-size="10.00">sys/types.h</text>
</a>
</g>
</g>
<!-- Node27&#45;&gt;Node29 -->
<g id="edge36" class="edge">
<title>Node27&#45;&gt;Node29</title>
<path fill="none" stroke="#63b8ff" d="M1554.54,-291.05C1561.44,-289.29 1568.69,-287.52 1575.5,-286 1660.67,-267.04 1694.82,-296.75 1768.5,-250 1829.31,-211.41 1869.74,-131.67 1885.76,-95.31"/>
<polygon fill="#63b8ff" stroke="#63b8ff" points="1888.8,-97.1 1889.5,-86.53 1882.36,-94.35 1888.8,-97.1"/>
</g>
<!-- Node30 -->
<g id="node30" class="node">
<title>Node30</title>
<g id="a_node30"><a xlink:href="_reg_accessor_8hpp.html" target="_top" xlink:title=" ">
<polygon fill="white" stroke="#666666" points="1493,-250 1400,-250 1400,-231 1493,-231 1493,-250"/>
<text text-anchor="middle" x="1446.5" y="-238" font-family="Helvetica,sans-Serif" font-size="10.00">RegAccessor.hpp</text>
</a>
</g>
</g>
<!-- Node27&#45;&gt;Node30 -->
<g id="edge37" class="edge">
<title>Node27&#45;&gt;Node30</title>
<path fill="none" stroke="#63b8ff" d="M1510.11,-291.12C1498.66,-282.18 1480.75,-268.22 1466.85,-257.37"/>
<polygon fill="#63b8ff" stroke="#63b8ff" points="1469.23,-254.79 1459.19,-251.4 1464.92,-260.31 1469.23,-254.79"/>
</g>
<!-- Node31 -->
<g id="node31" class="node">
<title>Node31</title>
<g id="a_node31"><a xlink:href="_uio_if_8hpp.html" target="_top" xlink:title=" ">
<polygon fill="white" stroke="#666666" points="1504.5,-195 1414.5,-195 1414.5,-176 1504.5,-176 1504.5,-195"/>
<text text-anchor="middle" x="1459.5" y="-183" font-family="Helvetica,sans-Serif" font-size="10.00">udmaio/UioIf.hpp</text>
</a>
</g>
</g>
<!-- Node27&#45;&gt;Node31 -->
<g id="edge69" class="edge">
<title>Node27&#45;&gt;Node31</title>
<path fill="none" stroke="#63b8ff" d="M1520.53,-291.41C1518.69,-277.82 1513.83,-250.86 1502.5,-231 1496.48,-220.45 1487.39,-210.53 1479.11,-202.75"/>
<polygon fill="#63b8ff" stroke="#63b8ff" points="1481.57,-200.25 1471.77,-196.23 1476.91,-205.49 1481.57,-200.25"/>
</g>
<!-- Node41 -->
<g id="node41" class="node">
<title>Node41</title>
<g id="a_node41"><a xlink:href="_axi_dma_8hpp.html" target="_top" xlink:title=" ">
<polygon fill="white" stroke="#666666" points="1703.5,-250 1587.5,-250 1587.5,-231 1703.5,-231 1703.5,-250"/>
<text text-anchor="middle" x="1645.5" y="-238" font-family="Helvetica,sans-Serif" font-size="10.00">udmaio/rdl/AxiDma.hpp</text>
</a>
</g>
</g>
<!-- Node27&#45;&gt;Node41 -->
<g id="edge70" class="edge">
<title>Node27&#45;&gt;Node41</title>
<path fill="none" stroke="#63b8ff" d="M1540.33,-291.12C1560.45,-281.62 1592.61,-266.45 1616.08,-255.38"/>
<polygon fill="#63b8ff" stroke="#63b8ff" points="1617.57,-258.55 1625.12,-251.11 1614.58,-252.22 1617.57,-258.55"/>
</g>
<!-- Node30&#45;&gt;Node6 -->
<g id="edge38" class="edge">
<title>Node30&#45;&gt;Node6</title>
<path fill="none" stroke="#63b8ff" d="M1493.08,-230.93C1539.42,-222.29 1612.5,-208.35 1675.5,-195 1676.32,-194.83 1677.15,-194.65 1677.99,-194.47"/>
<polygon fill="#63b8ff" stroke="#63b8ff" points="1678.56,-197.93 1687.56,-192.34 1677.04,-191.09 1678.56,-197.93"/>
</g>
<!-- Node30&#45;&gt;Node31 -->
<g id="edge39" class="edge">
<title>Node30&#45;&gt;Node31</title>
<path fill="none" stroke="#63b8ff" d="M1448.65,-230.75C1450.26,-224.19 1452.52,-214.95 1454.57,-206.6"/>
<polygon fill="#63b8ff" stroke="#63b8ff" points="1457.96,-207.46 1456.95,-196.91 1451.16,-205.79 1457.96,-207.46"/>
</g>
<!-- Node31&#45;&gt;Node8 -->
<g id="edge44" class="edge">
<title>Node31&#45;&gt;Node8</title>
<path fill="none" stroke="#63b8ff" d="M1414.07,-182.71C1343.17,-179.11 1202.34,-168.71 1086.5,-140 1020.41,-123.62 982.05,-141.13 943.5,-85 933.64,-70.64 936.25,-50.37 940.36,-35.52"/>
<polygon fill="#63b8ff" stroke="#63b8ff" points="943.55,-37.02 943.3,-26.43 936.89,-34.86 943.55,-37.02"/>
</g>
<!-- Node31&#45;&gt;Node11 -->
<g id="edge45" class="edge">
<title>Node31&#45;&gt;Node11</title>
<path fill="none" stroke="#63b8ff" d="M1504.73,-180.07C1559.06,-174.07 1652.61,-161.54 1730.5,-140 1752.61,-133.88 1756.47,-127.39 1778.5,-121 1830.32,-105.96 1890.11,-94.69 1936.28,-87.26"/>
<polygon fill="#63b8ff" stroke="#63b8ff" points="1936.59,-90.75 1945.92,-85.73 1935.5,-83.84 1936.59,-90.75"/>
</g>
<!-- Node31&#45;&gt;Node12 -->
<g id="edge67" class="edge">
<title>Node31&#45;&gt;Node12</title>
<path fill="none" stroke="#63b8ff" d="M1414.12,-184.06C1321.55,-182.43 1104.66,-174.86 926.5,-140 865.35,-128.03 796.62,-104.25 756.86,-89.43"/>
<polygon fill="#63b8ff" stroke="#63b8ff" points="758.22,-86.2 747.63,-85.95 755.75,-92.75 758.22,-86.2"/>
</g>
<!-- Node31&#45;&gt;Node22 -->
<g id="edge68" class="edge">
<title>Node31&#45;&gt;Node22</title>
<path fill="none" stroke="#63b8ff" d="M1414.17,-183.96C1349.66,-181.95 1228.44,-173.55 1131.5,-140 1098.82,-128.69 1065.08,-106.94 1044.2,-92.07"/>
<polygon fill="#63b8ff" stroke="#63b8ff" points="1046.41,-89.35 1036.26,-86.3 1042.29,-95.01 1046.41,-89.35"/>
</g>
<!-- Node31&#45;&gt;Node23 -->
<g id="edge42" class="edge">
<title>Node31&#45;&gt;Node23</title>
<path fill="none" stroke="#63b8ff" d="M1504.74,-175.65C1542.73,-167.76 1598.22,-155.12 1645.5,-140 1666.96,-133.14 1671.23,-128.44 1692.5,-121 1745.46,-102.46 1779.96,-129.98 1813.5,-85 1844.38,-43.59 1756.89,-26.23 1703.13,-19.62"/>
<polygon fill="#63b8ff" stroke="#63b8ff" points="1703.74,-16.17 1693.41,-18.51 1702.95,-23.13 1703.74,-16.17"/>
</g>
<!-- Node31&#45;&gt;Node24 -->
<g id="edge43" class="edge">
<title>Node31&#45;&gt;Node24</title>
<path fill="none" stroke="#63b8ff" d="M1414.06,-184.33C1346.8,-181.32 1222.58,-164.58 1165.5,-85 1155.18,-70.62 1159.33,-50.05 1164.74,-35.11"/>
<polygon fill="#63b8ff" stroke="#63b8ff" points="1167.93,-36.54 1168.52,-25.97 1161.47,-33.87 1167.93,-36.54"/>
</g>
<!-- Node31&#45;&gt;Node29 -->
<g id="edge49" class="edge">
<title>Node31&#45;&gt;Node29</title>
<path fill="none" stroke="#63b8ff" d="M1504.76,-178.44C1552.15,-171.49 1628.43,-158.62 1692.5,-140 1714.53,-133.6 1718.79,-128.43 1740.5,-121 1776.98,-108.51 1819.09,-96.43 1849.89,-88.01"/>
<polygon fill="#63b8ff" stroke="#63b8ff" points="1850.49,-91.47 1859.23,-85.48 1848.66,-84.72 1850.49,-91.47"/>
</g>
<!-- Node32 -->
<g id="node32" class="node">
<title>Node32</title>
<g id="a_node32"><a xlink:title=" ">
<polygon fill="#e0e0e0" stroke="#999999" points="1301.5,-85 1241.5,-85 1241.5,-66 1301.5,-66 1301.5,-85"/>
<text text-anchor="middle" x="1271.5" y="-73" font-family="Helvetica,sans-Serif" font-size="10.00">filesystem</text>
</a>
</g>
</g>
<!-- Node31&#45;&gt;Node32 -->
<g id="edge40" class="edge">
<title>Node31&#45;&gt;Node32</title>
<path fill="none" stroke="#63b8ff" d="M1440.92,-175.59C1423.13,-166.92 1395.65,-153.17 1372.5,-140 1345.05,-124.39 1314.49,-104.86 1294.24,-91.61"/>
<polygon fill="#63b8ff" stroke="#63b8ff" points="1296.21,-88.71 1285.93,-86.14 1292.36,-94.56 1296.21,-88.71"/>
</g>
<!-- Node33 -->
<g id="node33" class="node">
<title>Node33</title>
<g id="a_node33"><a xlink:title=" ">
<polygon fill="#e0e0e0" stroke="#999999" points="1369.5,-85 1319.5,-85 1319.5,-66 1369.5,-66 1369.5,-85"/>
<text text-anchor="middle" x="1344.5" y="-73" font-family="Helvetica,sans-Serif" font-size="10.00">fstream</text>
</a>
</g>
</g>
<!-- Node31&#45;&gt;Node33 -->
<g id="edge41" class="edge">
<title>Node31&#45;&gt;Node33</title>
<path fill="none" stroke="#63b8ff" d="M1443.26,-175.55C1429.22,-167.36 1408.82,-154.37 1393.5,-140 1379.07,-126.47 1365.57,-108.41 1356.41,-95.01"/>
<polygon fill="#63b8ff" stroke="#63b8ff" points="1359.34,-93.09 1350.89,-86.69 1353.51,-96.96 1359.34,-93.09"/>
</g>
<!-- Node34 -->
<g id="node34" class="node">
<title>Node34</title>
<g id="a_node34"><a xlink:title=" ">
<polygon fill="#e0e0e0" stroke="#999999" points="1431,-85 1388,-85 1388,-66 1431,-66 1431,-85"/>
<text text-anchor="middle" x="1409.5" y="-73" font-family="Helvetica,sans-Serif" font-size="10.00">fcntl.h</text>
</a>
</g>
</g>
<!-- Node31&#45;&gt;Node34 -->
<g id="edge46" class="edge">
<title>Node31&#45;&gt;Node34</title>
<path fill="none" stroke="#63b8ff" d="M1440.59,-175.57C1427.24,-168.13 1410.37,-156.13 1402.5,-140 1395.8,-126.26 1398.34,-108.91 1402.12,-95.82"/>
<polygon fill="#63b8ff" stroke="#63b8ff" points="1405.33,-97.25 1405.22,-86.66 1398.7,-95.01 1405.33,-97.25"/>
</g>
<!-- Node35 -->
<g id="node35" class="node">
<title>Node35</title>
<g id="a_node35"><a xlink:title=" ">
<polygon fill="#e0e0e0" stroke="#999999" points="1659,-85 1590,-85 1590,-66 1659,-66 1659,-85"/>
<text text-anchor="middle" x="1624.5" y="-73" font-family="Helvetica,sans-Serif" font-size="10.00">sys/mman.h</text>
</a>
</g>
</g>
<!-- Node31&#45;&gt;Node35 -->
<g id="edge47" class="edge">
<title>Node31&#45;&gt;Node35</title>
<path fill="none" stroke="#63b8ff" d="M1479.6,-175.5C1497.44,-167.19 1523.95,-154.04 1545.5,-140 1567.48,-125.69 1590.65,-106.51 1606.17,-92.99"/>
<polygon fill="#63b8ff" stroke="#63b8ff" points="1608.45,-95.64 1613.63,-86.4 1603.82,-90.4 1608.45,-95.64"/>
</g>
<!-- Node36 -->
<g id="node36" class="node">
<title>Node36</title>
<g id="a_node36"><a xlink:title=" ">
<polygon fill="#e0e0e0" stroke="#999999" points="1736,-85 1677,-85 1677,-66 1736,-66 1736,-85"/>
<text text-anchor="middle" x="1706.5" y="-73" font-family="Helvetica,sans-Serif" font-size="10.00">sys/stat.h</text>
</a>
</g>
</g>
<!-- Node31&#45;&gt;Node36 -->
<g id="edge48" class="edge">
<title>Node31&#45;&gt;Node36</title>
<path fill="none" stroke="#63b8ff" d="M1483.27,-175.54C1506.06,-166.84 1541.36,-153.06 1571.5,-140 1608.68,-123.89 1650.83,-103.75 1678,-90.53"/>
<polygon fill="#63b8ff" stroke="#63b8ff" points="1679.51,-93.69 1686.96,-86.15 1676.44,-87.4 1679.51,-93.69"/>
</g>
<!-- Node37 -->
<g id="node37" class="node">
<title>Node37</title>
<g id="a_node37"><a xlink:title=" ">
<polygon fill="#e0e0e0" stroke="#999999" points="1804.5,-85 1754.5,-85 1754.5,-66 1804.5,-66 1804.5,-85"/>
<text text-anchor="middle" x="1779.5" y="-73" font-family="Helvetica,sans-Serif" font-size="10.00">unistd.h</text>
</a>
</g>
</g>
<!-- Node31&#45;&gt;Node37 -->
<g id="edge50" class="edge">
<title>Node31&#45;&gt;Node37</title>
<path fill="none" stroke="#63b8ff" d="M1490.7,-175.52C1520.37,-166.86 1566.17,-153.16 1605.5,-140 1654.62,-123.57 1710.81,-102.67 1745.73,-89.44"/>
<polygon fill="#63b8ff" stroke="#63b8ff" points="1746.76,-92.79 1754.87,-85.97 1744.28,-86.25 1746.76,-92.79"/>
</g>
<!-- Node38 -->
<g id="node38" class="node">
<title>Node38</title>
<g id="a_node38"><a xlink:href="_hw_accessor_8hpp.html" target="_top" xlink:title=" ">
<polygon fill="white" stroke="#666666" points="1536,-140 1411,-140 1411,-121 1536,-121 1536,-140"/>
<text text-anchor="middle" x="1473.5" y="-128" font-family="Helvetica,sans-Serif" font-size="10.00">udmaio/HwAccessor.hpp</text>
</a>
</g>
</g>
<!-- Node31&#45;&gt;Node38 -->
<g id="edge51" class="edge">
<title>Node31&#45;&gt;Node38</title>
<path fill="none" stroke="#63b8ff" d="M1461.81,-175.75C1463.56,-169.11 1466.04,-159.73 1468.27,-151.31"/>
<polygon fill="#63b8ff" stroke="#63b8ff" points="1471.58,-152.47 1470.75,-141.91 1464.81,-150.68 1471.58,-152.47"/>
</g>
<!-- Node38&#45;&gt;Node8 -->
<g id="edge58" class="edge">
<title>Node38&#45;&gt;Node8</title>
<path fill="none" stroke="#63b8ff" d="M1410.69,-128.33C1280.58,-125.31 990.98,-115.22 958.5,-85 945.33,-72.74 943.73,-51.52 944.71,-35.84"/>
<polygon fill="#63b8ff" stroke="#63b8ff" points="948.16,-36.55 945.72,-26.24 941.19,-35.81 948.16,-36.55"/>
</g>
<!-- Node38&#45;&gt;Node11 -->
<g id="edge59" class="edge">
<title>Node38&#45;&gt;Node11</title>
<path fill="none" stroke="#63b8ff" d="M1536.3,-123.73C1623.03,-115.7 1784.69,-100.51 1932.58,-85.29"/>
<polygon fill="#63b8ff" stroke="#63b8ff" points="1932.56,-88.81 1942.15,-84.3 1931.85,-81.85 1932.56,-88.81"/>
</g>
<!-- Node38&#45;&gt;Node12 -->
<g id="edge65" class="edge">
<title>Node38&#45;&gt;Node12</title>
<path fill="none" stroke="#63b8ff" d="M1410.52,-125.05C1263.15,-114.64 898.57,-88.87 769.61,-79.76"/>
<polygon fill="#63b8ff" stroke="#63b8ff" points="769.97,-76.27 759.74,-79.06 769.47,-83.26 769.97,-76.27"/>
</g>
<!-- Node38&#45;&gt;Node22 -->
<g id="edge66" class="edge">
<title>Node38&#45;&gt;Node22</title>
<path fill="none" stroke="#63b8ff" d="M1410.93,-122.13C1326.57,-112.19 1176.98,-94.58 1090.44,-84.38"/>
<polygon fill="#63b8ff" stroke="#63b8ff" points="1091.02,-80.93 1080.68,-83.23 1090.2,-87.88 1091.02,-80.93"/>
</g>
<!-- Node38&#45;&gt;Node23 -->
<g id="edge56" class="edge">
<title>Node38&#45;&gt;Node23</title>
<path fill="none" stroke="#63b8ff" d="M1477.17,-120.78C1483.32,-107.15 1497.01,-80.84 1516.5,-66 1548.88,-41.35 1594.16,-28.42 1626.08,-21.93"/>
<polygon fill="#63b8ff" stroke="#63b8ff" points="1626.53,-25.41 1635.71,-20.11 1625.23,-18.53 1626.53,-25.41"/>
</g>
<!-- Node38&#45;&gt;Node24 -->
<g id="edge57" class="edge">
<title>Node38&#45;&gt;Node24</title>
<path fill="none" stroke="#63b8ff" d="M1471.61,-120.94C1468.07,-107.05 1459.06,-79.77 1440.5,-66 1404.58,-39.35 1275.29,-24.74 1210.73,-18.96"/>
<polygon fill="#63b8ff" stroke="#63b8ff" points="1211.24,-15.49 1200.97,-18.11 1210.63,-22.47 1211.24,-15.49"/>
</g>
<!-- Node38&#45;&gt;Node29 -->
<g id="edge63" class="edge">
<title>Node38&#45;&gt;Node29</title>
<path fill="none" stroke="#63b8ff" d="M1536.38,-121.57C1622.29,-110.72 1774.21,-91.55 1849.16,-82.1"/>
<polygon fill="#63b8ff" stroke="#63b8ff" points="1849.52,-85.58 1859,-80.85 1848.64,-78.63 1849.52,-85.58"/>
</g>
<!-- Node38&#45;&gt;Node32 -->
<g id="edge54" class="edge">
<title>Node38&#45;&gt;Node32</title>
<path fill="none" stroke="#63b8ff" d="M1439.23,-120.51C1404.35,-111.36 1350.23,-97.16 1312.95,-87.38"/>
<polygon fill="#63b8ff" stroke="#63b8ff" points="1313.99,-84.03 1303.43,-84.88 1312.21,-90.8 1313.99,-84.03"/>
</g>
<!-- Node38&#45;&gt;Node33 -->
<g id="edge55" class="edge">
<title>Node38&#45;&gt;Node33</title>
<path fill="none" stroke="#63b8ff" d="M1451.62,-120.51C1431.01,-112.04 1399.91,-99.27 1376.52,-89.66"/>
<polygon fill="#63b8ff" stroke="#63b8ff" points="1378.04,-86.5 1367.46,-85.93 1375.38,-92.97 1378.04,-86.5"/>
</g>
<!-- Node38&#45;&gt;Node34 -->
<g id="edge60" class="edge">
<title>Node38&#45;&gt;Node34</title>
<path fill="none" stroke="#63b8ff" d="M1462.64,-120.51C1453.39,-112.85 1439.88,-101.66 1428.79,-92.47"/>
<polygon fill="#63b8ff" stroke="#63b8ff" points="1431.3,-90.01 1421.36,-86.32 1426.83,-95.4 1431.3,-90.01"/>
</g>
<!-- Node38&#45;&gt;Node35 -->
<g id="edge61" class="edge">
<title>Node38&#45;&gt;Node35</title>
<path fill="none" stroke="#63b8ff" d="M1499.12,-120.51C1523.59,-111.92 1560.74,-98.88 1588.25,-89.22"/>
<polygon fill="#63b8ff" stroke="#63b8ff" points="1589.31,-92.56 1597.58,-85.95 1586.99,-85.96 1589.31,-92.56"/>
</g>
<!-- Node38&#45;&gt;Node36 -->
<g id="edge62" class="edge">
<title>Node38&#45;&gt;Node36</title>
<path fill="none" stroke="#63b8ff" d="M1513.03,-120.51C1555.48,-110.85 1622.63,-95.58 1665.61,-85.8"/>
<polygon fill="#63b8ff" stroke="#63b8ff" points="1666.33,-89.23 1675.31,-83.59 1664.78,-82.4 1666.33,-89.23"/>
</g>
<!-- Node38&#45;&gt;Node37 -->
<g id="edge64" class="edge">
<title>Node38&#45;&gt;Node37</title>
<path fill="none" stroke="#63b8ff" d="M1536.43,-120.71C1589.14,-113.01 1666.59,-100.91 1743.03,-85.36"/>
<polygon fill="#63b8ff" stroke="#63b8ff" points="1743.73,-88.79 1752.82,-83.35 1742.32,-81.94 1743.73,-88.79"/>
</g>
<!-- Node39 -->
<g id="node39" class="node">
<title>Node39</title>
<g id="a_node39"><a xlink:title=" ">
<polygon fill="#e0e0e0" stroke="#999999" points="1223,-85 1174,-85 1174,-66 1223,-66 1223,-85"/>
<text text-anchor="middle" x="1198.5" y="-73" font-family="Helvetica,sans-Serif" font-size="10.00">cstddef</text>
</a>
</g>
</g>
<!-- Node38&#45;&gt;Node39 -->
<g id="edge52" class="edge">
<title>Node38&#45;&gt;Node39</title>
<path fill="none" stroke="#63b8ff" d="M1419.71,-120.56C1373.22,-112.61 1304,-100.24 1234.5,-85.32"/>
<polygon fill="#63b8ff" stroke="#63b8ff" points="1235.33,-81.92 1224.82,-83.22 1233.85,-88.76 1235.33,-81.92"/>
</g>
<!-- Node40 -->
<g id="node40" class="node">
<title>Node40</title>
<g id="a_node40"><a xlink:title=" ">
<polygon fill="#e0e0e0" stroke="#999999" points="1571.5,-85 1525.5,-85 1525.5,-66 1571.5,-66 1571.5,-85"/>
<text text-anchor="middle" x="1548.5" y="-73" font-family="Helvetica,sans-Serif" font-size="10.00">cstring</text>
</a>
</g>
</g>
<!-- Node38&#45;&gt;Node40 -->
<g id="edge53" class="edge">
<title>Node38&#45;&gt;Node40</title>
<path fill="none" stroke="#63b8ff" d="M1486.22,-120.51C1497.28,-112.7 1513.54,-101.21 1526.67,-91.93"/>
<polygon fill="#63b8ff" stroke="#63b8ff" points="1528.58,-94.86 1534.73,-86.23 1524.54,-89.14 1528.58,-94.86"/>
</g>
<!-- Node41&#45;&gt;Node6 -->
<g id="edge71" class="edge">
<title>Node41&#45;&gt;Node6</title>
<path fill="none" stroke="#63b8ff" d="M1656.87,-230.51C1666.55,-222.85 1680.7,-211.66 1692.31,-202.47"/>
<polygon fill="#63b8ff" stroke="#63b8ff" points="1694.44,-205.25 1700.12,-196.3 1690.1,-199.76 1694.44,-205.25"/>
</g>
<!-- Node42&#45;&gt;Node21 -->
<g id="edge75" class="edge">
<title>Node42&#45;&gt;Node21</title>
<path fill="none" stroke="#63b8ff" d="M1176.93,-291.12C1153.48,-281.45 1115.73,-265.9 1088.74,-254.78"/>
<polygon fill="#63b8ff" stroke="#63b8ff" points="1090.25,-251.62 1079.67,-251.05 1087.58,-258.09 1090.25,-251.62"/>
</g>
<!-- Node42&#45;&gt;Node24 -->
<g id="edge74" class="edge">
<title>Node42&#45;&gt;Node24</title>
<path fill="none" stroke="#63b8ff" d="M1196,-291.09C1187.94,-261.86 1162.72,-166.12 1154.5,-85 1153.65,-76.6 1152.98,-74.31 1154.5,-66 1156.43,-55.47 1160.48,-44.28 1164.34,-35.16"/>
<polygon fill="#63b8ff" stroke="#63b8ff" points="1167.42,-36.86 1168.34,-26.31 1161.04,-33.98 1167.42,-36.86"/>
</g>
<!-- Node42&#45;&gt;Node30 -->
<g id="edge76" class="edge">
<title>Node42&#45;&gt;Node30</title>
<path fill="none" stroke="#63b8ff" d="M1236.44,-291.05C1279.56,-280.88 1350.08,-264.24 1397.37,-253.09"/>
<polygon fill="#63b8ff" stroke="#63b8ff" points="1398.17,-256.5 1407.1,-250.8 1396.56,-249.68 1398.17,-256.5"/>
</g>
<!-- Node42&#45;&gt;Node39 -->
<g id="edge73" class="edge">
<title>Node42&#45;&gt;Node39</title>
<path fill="none" stroke="#63b8ff" d="M1198.5,-291.24C1198.5,-258.63 1198.5,-143.77 1198.5,-96.78"/>
<polygon fill="#63b8ff" stroke="#63b8ff" points="1202,-96.96 1198.5,-86.96 1195,-96.96 1202,-96.96"/>
</g>
</g>
</svg>
        <g id="navigator" transform="translate(0 0)" fill="#404254">
                <rect fill="#f2f5e9" fill-opacity="0.5" stroke="#606060" stroke-width=".5" x="0" y="0" width="60" height="60"/>
                <use id="zoomplus" xlink:href="#zoomPlus" x="17" y="9" onmousedown="handleZoom(evt,'in')"/>
                <use id="zoomminus" xlink:href="#zoomMin" x="42" y="9" onmousedown="handleZoom(evt,'out')"/>
                <use id="reset" xlink:href="#resetDef" x="30" y="36" onmousedown="handleReset()"/>
                <g id="arrowUp" xlink:href="#dirArrow" transform="translate(30 24)" onmousedown="handlePan(0,-1)">
                  <use xlink:href="#rim" fill="#404040">
                        <set attributeName="fill" to="#808080" begin="arrowUp.mouseover" end="arrowUp.mouseout"/>
                  </use>
                  <path fill="none" stroke="white" stroke-width="1.5" d="M0,-3.0v7 M-2.5,-0.5L0,-3.0L2.5,-0.5"/>
                </g>
                <g id="arrowRight" xlink:href="#dirArrow" transform="rotate(90) translate(36 -43)" onmousedown="handlePan(1,0)">
                  <use xlink:href="#rim" fill="#404040">
                        <set attributeName="fill" to="#808080" begin="arrowRight.mouseover" end="arrowRight.mouseout"/>
                  </use>
                  <path fill="none" stroke="white" stroke-width="1.5" d="M0,-3.0v7 M-2.5,-0.5L0,-3.0L2.5,-0.5"/>
                </g>
                <g id="arrowDown" xlink:href="#dirArrow" transform="rotate(180) translate(-30 -48)" onmousedown="handlePan(0,1)">
                  <use xlink:href="#rim" fill="#404040">
                        <set attributeName="fill" to="#808080" begin="arrowDown.mouseover" end="arrowDown.mouseout"/>
                  </use>
                  <path fill="none" stroke="white" stroke-width="1.5" d="M0,-3.0v7 M-2.5,-0.5L0,-3.0L2.5,-0.5"/>
                </g>
                <g id="arrowLeft" xlink:href="#dirArrow" transform="rotate(270) translate(-36 17)" onmousedown="handlePan(-1,0)">
                  <use xlink:href="#rim" fill="#404040">
                        <set attributeName="fill" to="#808080" begin="arrowLeft.mouseover" end="arrowLeft.mouseout"/>
                  </use>
                  <path fill="none" stroke="white" stroke-width="1.5" d="M0,-3.0v7 M-2.5,-0.5L0,-3.0L2.5,-0.5"/>
                </g>
        </g>
        <svg viewBox="0 0 15 15" width="100%" height="30px" preserveAspectRatio="xMaxYMin meet">
         <g id="arrow_out" transform="scale(0.3 0.3)">
          <a xlink:href="_data_handler_print_8cpp__incl_org.svg" target="_base">
           <rect id="button" ry="5" rx="5" y="6" x="6" height="38" width="38"
                fill="#f2f5e9" fill-opacity="0.5" stroke="#606060" stroke-width="1.0"/>
           <path id="arrow"
             d="M 11.500037,31.436501 C 11.940474,20.09759 22.043105,11.32322 32.158766,21.979434 L 37.068811,17.246167 C 37.068811,17.246167 37.088388,32 37.088388,32 L 22.160133,31.978069 C 22.160133,31.978069 26.997745,27.140456 26.997745,27.140456 C 18.528582,18.264221 13.291696,25.230495 11.500037,31.436501 z"
             style="fill:#404040;"/>
          </a>
         </g>
        </svg>
</svg>
