<?xml version="1.0" encoding="UTF-8" standalone="no"?>
<!DOCTYPE svg PUBLIC "-//W3C//DTD SVG 1.1//EN"
 "http://www.w3.org/Graphics/SVG/1.1/DTD/svg11.dtd">
<!-- Generated by graphviz version 7.0.5 (20221223.1930)
 -->
<!-- Title: FpgaMemBufferOverAxi.hpp Pages: 1 -->
<!--zoomable 258 -->
<svg id="main" version="1.1" xmlns="http://www.w3.org/2000/svg" xmlns:xlink="http://www.w3.org/1999/xlink" xml:space="preserve" onload="init(evt)">
<style type="text/css"><![CDATA[
.edge:hover path { stroke: red; }
.edge:hover polygon { stroke: red; fill: red; }
]]></style>
<script type="text/javascript"><![CDATA[
var edges = document.getElementsByTagName('g');
if (edges && edges.length) {
  for (var i=0;i<edges.length;i++) {
    if (edges[i].id.substr(0,4)=='edge') {
      edges[i].setAttribute('class','edge');
    }
  }
}
]]></script>
        <defs>
                <circle id="rim" cx="0" cy="0" r="7"/>
                <circle id="rim2" cx="0" cy="0" r="3.5"/>
                <g id="zoomPlus">
                        <use xlink:href="#rim" fill="#404040">
                                <set attributeName="fill" to="#808080" begin="zoomplus.mouseover" end="zoomplus.mouseout"/>
                        </use>
                        <path d="M-4,0h8M0,-4v8" fill="none" stroke="white" stroke-width="1.5" pointer-events="none"/>
                </g>
                <g id="zoomMin">
                        <use xlink:href="#rim" fill="#404040">
                                <set attributeName="fill" to="#808080" begin="zoomminus.mouseover" end="zoomminus.mouseout"/>
                        </use>
                        <path d="M-4,0h8" fill="none" stroke="white" stroke-width="1.5" pointer-events="none"/>
                </g>
                <g id="dirArrow">
                        <path fill="none" stroke="white" stroke-width="1.5" d="M0,-3.0v7 M-2.5,-0.5L0,-3.0L2.5,-0.5"/>
                </g>
               <g id="resetDef">
                       <use xlink:href="#rim2" fill="#404040">
                               <set attributeName="fill" to="#808080" begin="reset.mouseover" end="reset.mouseout"/>
                       </use>
               </g>
        </defs>

<script type="text/javascript">
var viewWidth = 1852;
var viewHeight = 258;
var sectionId = 'dynsection-0';
</script>
<script xlink:href="svgpan.js"/>
<svg id="graph" class="graph">
<g id="viewport">
<title>FpgaMemBufferOverAxi.hpp</title>
<!-- Node1 -->
<g id="node1" class="node">
<title>Node1</title>
<g id="a_node1"><a xlink:title=" ">
<polygon fill="#999999" stroke="#666666" points="561,-250 423,-250 423,-231 561,-231 561,-250"/>
<text text-anchor="middle" x="492" y="-238" font-family="Helvetica,sans-Serif" font-size="10.00">FpgaMemBufferOverAxi.hpp</text>
</a>
</g>
</g>
<!-- Node2 -->
<g id="node2" class="node">
<title>Node2</title>
<g id="a_node2"><a xlink:title=" ">
<polygon fill="#e0e0e0" stroke="#999999" points="1397.5,-85 1354.5,-85 1354.5,-66 1397.5,-66 1397.5,-85"/>
<text text-anchor="middle" x="1376" y="-73" font-family="Helvetica,sans-Serif" font-size="10.00">fcntl.h</text>
</a>
</g>
</g>
<!-- Node1&#45;&gt;Node2 -->
<g id="edge1" class="edge">
<title>Node1&#45;&gt;Node2</title>
<path fill="none" stroke="#63b8ff" d="M561.41,-239.61C672,-238.59 894.55,-231.63 1079,-195 1156.06,-179.7 1174.24,-169.64 1247,-140 1283.41,-125.17 1323.85,-104.55 1349.57,-90.88"/>
<polygon fill="#63b8ff" stroke="#63b8ff" points="1351.15,-94.01 1358.31,-86.2 1347.84,-87.84 1351.15,-94.01"/>
</g>
<!-- Node3 -->
<g id="node3" class="node">
<title>Node3</title>
<g id="a_node3"><a xlink:title=" ">
<polygon fill="#e0e0e0" stroke="#999999" points="350.5,-85 281.5,-85 281.5,-66 350.5,-66 350.5,-85"/>
<text text-anchor="middle" x="316" y="-73" font-family="Helvetica,sans-Serif" font-size="10.00">sys/mman.h</text>
</a>
</g>
</g>
<!-- Node1&#45;&gt;Node3 -->
<g id="edge2" class="edge">
<title>Node1&#45;&gt;Node3</title>
<path fill="none" stroke="#63b8ff" d="M482.29,-230.5C453.85,-204.17 370.49,-126.97 333.74,-92.93"/>
<polygon fill="#63b8ff" stroke="#63b8ff" points="336.29,-90.52 326.58,-86.3 331.54,-95.66 336.29,-90.52"/>
</g>
<!-- Node4 -->
<g id="node4" class="node">
<title>Node4</title>
<g id="a_node4"><a xlink:title=" ">
<polygon fill="#e0e0e0" stroke="#999999" points="427.5,-85 368.5,-85 368.5,-66 427.5,-66 427.5,-85"/>
<text text-anchor="middle" x="398" y="-73" font-family="Helvetica,sans-Serif" font-size="10.00">sys/stat.h</text>
</a>
</g>
</g>
<!-- Node1&#45;&gt;Node4 -->
<g id="edge3" class="edge">
<title>Node1&#45;&gt;Node4</title>
<path fill="none" stroke="#63b8ff" d="M486.95,-230.74C472.22,-205.2 429.1,-130.43 408.8,-95.23"/>
<polygon fill="#63b8ff" stroke="#63b8ff" points="411.86,-93.53 403.83,-86.62 405.8,-97.03 411.86,-93.53"/>
</g>
<!-- Node5 -->
<g id="node5" class="node">
<title>Node5</title>
<g id="a_node5"><a xlink:title=" ">
<polygon fill="#e0e0e0" stroke="#999999" points="510.5,-85 445.5,-85 445.5,-66 510.5,-66 510.5,-85"/>
<text text-anchor="middle" x="478" y="-73" font-family="Helvetica,sans-Serif" font-size="10.00">sys/types.h</text>
</a>
</g>
</g>
<!-- Node1&#45;&gt;Node5 -->
<g id="edge4" class="edge">
<title>Node1&#45;&gt;Node5</title>
<path fill="none" stroke="#63b8ff" d="M491.25,-230.74C489.08,-205.53 482.8,-132.36 479.73,-96.62"/>
<polygon fill="#63b8ff" stroke="#63b8ff" points="483.23,-96.48 478.89,-86.81 476.25,-97.08 483.23,-96.48"/>
</g>
<!-- Node6 -->
<g id="node6" class="node">
<title>Node6</title>
<g id="a_node6"><a xlink:title=" ">
<polygon fill="#e0e0e0" stroke="#999999" points="1336,-85 1286,-85 1286,-66 1336,-66 1336,-85"/>
<text text-anchor="middle" x="1311" y="-73" font-family="Helvetica,sans-Serif" font-size="10.00">unistd.h</text>
</a>
</g>
</g>
<!-- Node1&#45;&gt;Node6 -->
<g id="edge5" class="edge">
<title>Node1&#45;&gt;Node6</title>
<path fill="none" stroke="#63b8ff" d="M561.4,-240.43C693.36,-239.96 987.55,-228.08 1215,-140 1244.22,-128.68 1273.67,-107.4 1292.09,-92.61"/>
<polygon fill="#63b8ff" stroke="#63b8ff" points="1294.24,-95.38 1299.73,-86.33 1289.79,-89.98 1294.24,-95.38"/>
</g>
<!-- Node7 -->
<g id="node7" class="node">
<title>Node7</title>
<g id="a_node7"><a xlink:href="_dma_buffer_abstract_8hpp.html" target="_top" xlink:title=" ">
<polygon fill="white" stroke="#666666" points="253.5,-140 136.5,-140 136.5,-121 253.5,-121 253.5,-140"/>
<text text-anchor="middle" x="195" y="-128" font-family="Helvetica,sans-Serif" font-size="10.00">DmaBufferAbstract.hpp</text>
</a>
</g>
</g>
<!-- Node1&#45;&gt;Node7 -->
<g id="edge6" class="edge">
<title>Node1&#45;&gt;Node7</title>
<path fill="none" stroke="#63b8ff" d="M422.9,-231.18C382.41,-224.66 330.94,-213.51 288,-195 260.13,-182.99 231.86,-162.19 213.92,-147.68"/>
<polygon fill="#63b8ff" stroke="#63b8ff" points="216.19,-145.02 206.26,-141.33 211.72,-150.41 216.19,-145.02"/>
</g>
<!-- Node17 -->
<g id="node17" class="node">
<title>Node17</title>
<g id="a_node17"><a xlink:href="_uio_if_8hpp.html" target="_top" xlink:title=" ">
<polygon fill="white" stroke="#666666" points="853,-195 797,-195 797,-176 853,-176 853,-195"/>
<text text-anchor="middle" x="825" y="-183" font-family="Helvetica,sans-Serif" font-size="10.00">UioIf.hpp</text>
</a>
</g>
</g>
<!-- Node1&#45;&gt;Node17 -->
<g id="edge16" class="edge">
<title>Node1&#45;&gt;Node17</title>
<path fill="none" stroke="#63b8ff" d="M548.49,-230.51C615.99,-219.77 727.14,-202.07 785.85,-192.73"/>
<polygon fill="#63b8ff" stroke="#63b8ff" points="786.05,-196.24 795.37,-191.22 784.95,-189.33 786.05,-196.24"/>
</g>
<!-- Node8 -->
<g id="node8" class="node">
<title>Node8</title>
<g id="a_node8"><a xlink:title=" ">
<polygon fill="#e0e0e0" stroke="#999999" points="108,-85 62,-85 62,-66 108,-66 108,-85"/>
<text text-anchor="middle" x="85" y="-73" font-family="Helvetica,sans-Serif" font-size="10.00">cstdint</text>
</a>
</g>
</g>
<!-- Node7&#45;&gt;Node8 -->
<g id="edge7" class="edge">
<title>Node7&#45;&gt;Node8</title>
<path fill="none" stroke="#63b8ff" d="M176.34,-120.51C159.17,-112.24 133.45,-99.84 113.67,-90.31"/>
<polygon fill="#63b8ff" stroke="#63b8ff" points="115.28,-87.2 104.75,-86.01 112.24,-93.51 115.28,-87.2"/>
</g>
<!-- Node9 -->
<g id="node9" class="node">
<title>Node9</title>
<g id="a_node9"><a xlink:title=" ">
<polygon fill="#e0e0e0" stroke="#999999" points="44,-85 0,-85 0,-66 44,-66 44,-85"/>
<text text-anchor="middle" x="22" y="-73" font-family="Helvetica,sans-Serif" font-size="10.00">vector</text>
</a>
</g>
</g>
<!-- Node7&#45;&gt;Node9 -->
<g id="edge8" class="edge">
<title>Node7&#45;&gt;Node9</title>
<path fill="none" stroke="#63b8ff" d="M165.65,-120.51C135.09,-111.15 87.29,-96.5 55.32,-86.71"/>
<polygon fill="#63b8ff" stroke="#63b8ff" points="56.36,-83.37 45.77,-83.78 54.31,-90.06 56.36,-83.37"/>
</g>
<!-- Node10 -->
<g id="node10" class="node">
<title>Node10</title>
<g id="a_node10"><a xlink:title=" ">
<polygon fill="#e0e0e0" stroke="#999999" points="263.5,-85 126.5,-85 126.5,-66 263.5,-66 263.5,-85"/>
<text text-anchor="middle" x="195" y="-73" font-family="Helvetica,sans-Serif" font-size="10.00">boost/core/noncopyable.hpp</text>
</a>
</g>
</g>
<!-- Node7&#45;&gt;Node10 -->
<g id="edge9" class="edge">
<title>Node7&#45;&gt;Node10</title>
<path fill="none" stroke="#63b8ff" d="M195,-120.75C195,-114.27 195,-105.16 195,-96.9"/>
<polygon fill="#63b8ff" stroke="#63b8ff" points="198.5,-96.96 195,-86.96 191.5,-96.96 198.5,-96.96"/>
</g>
<!-- Node11 -->
<g id="node11" class="node">
<title>Node11</title>
<g id="a_node11"><a xlink:href="_uio_config_8hpp.html" target="_top" xlink:title=" ">
<polygon fill="white" stroke="#666666" points="716.5,-85 605.5,-85 605.5,-66 716.5,-66 716.5,-85"/>
<text text-anchor="middle" x="661" y="-73" font-family="Helvetica,sans-Serif" font-size="10.00">udmaio/UioConfig.hpp</text>
</a>
</g>
</g>
<!-- Node7&#45;&gt;Node11 -->
<g id="edge10" class="edge">
<title>Node7&#45;&gt;Node11</title>
<path fill="none" stroke="#63b8ff" d="M253.55,-122.84C340.28,-112.98 502.49,-94.53 593.9,-84.13"/>
<polygon fill="#63b8ff" stroke="#63b8ff" points="594.19,-87.62 603.73,-83.01 593.4,-80.67 594.19,-87.62"/>
</g>
<!-- Node12 -->
<g id="node12" class="node">
<title>Node12</title>
<g id="a_node12"><a xlink:title=" ">
<polygon fill="#e0e0e0" stroke="#999999" points="604,-24.5 550,-24.5 550,-5.5 604,-5.5 604,-24.5"/>
<text text-anchor="middle" x="577" y="-12.5" font-family="Helvetica,sans-Serif" font-size="10.00">iostream</text>
</a>
</g>
</g>
<!-- Node11&#45;&gt;Node12 -->
<g id="edge11" class="edge">
<title>Node11&#45;&gt;Node12</title>
<path fill="none" stroke="#63b8ff" d="M648.24,-65.62C635.17,-56.51 614.59,-42.18 598.9,-31.25"/>
<polygon fill="#63b8ff" stroke="#63b8ff" points="601.33,-28.68 591.12,-25.83 597.33,-34.42 601.33,-28.68"/>
</g>
<!-- Node13 -->
<g id="node13" class="node">
<title>Node13</title>
<g id="a_node13"><a xlink:title=" ">
<polygon fill="#e0e0e0" stroke="#999999" points="857.5,-24.5 806.5,-24.5 806.5,-5.5 857.5,-5.5 857.5,-24.5"/>
<text text-anchor="middle" x="832" y="-12.5" font-family="Helvetica,sans-Serif" font-size="10.00">memory</text>
</a>
</g>
</g>
<!-- Node11&#45;&gt;Node13 -->
<g id="edge12" class="edge">
<title>Node11&#45;&gt;Node13</title>
<path fill="none" stroke="#63b8ff" d="M686.97,-65.62C715.81,-55.75 762.57,-39.75 795.18,-28.6"/>
<polygon fill="#63b8ff" stroke="#63b8ff" points="796.3,-31.91 804.63,-25.36 794.04,-25.29 796.3,-31.91"/>
</g>
<!-- Node14 -->
<g id="node14" class="node">
<title>Node14</title>
<g id="a_node14"><a xlink:title=" ">
<polygon fill="#e0e0e0" stroke="#999999" points="685.5,-24.5 626.5,-24.5 626.5,-5.5 685.5,-5.5 685.5,-24.5"/>
<text text-anchor="middle" x="656" y="-12.5" font-family="Helvetica,sans-Serif" font-size="10.00">stdexcept</text>
</a>
</g>
</g>
<!-- Node11&#45;&gt;Node14 -->
<g id="edge13" class="edge">
<title>Node11&#45;&gt;Node14</title>
<path fill="none" stroke="#63b8ff" d="M660.26,-65.87C659.59,-58 658.57,-46.1 657.7,-35.89"/>
<polygon fill="#63b8ff" stroke="#63b8ff" points="661.21,-35.84 656.87,-26.18 654.23,-36.44 661.21,-35.84"/>
</g>
<!-- Node15 -->
<g id="node15" class="node">
<title>Node15</title>
<g id="a_node15"><a xlink:title=" ">
<polygon fill="#e0e0e0" stroke="#999999" points="916.5,-24.5 875.5,-24.5 875.5,-5.5 916.5,-5.5 916.5,-24.5"/>
<text text-anchor="middle" x="896" y="-12.5" font-family="Helvetica,sans-Serif" font-size="10.00">string</text>
</a>
</g>
</g>
<!-- Node11&#45;&gt;Node15 -->
<g id="edge14" class="edge">
<title>Node11&#45;&gt;Node15</title>
<path fill="none" stroke="#63b8ff" d="M716.72,-65.87C758.47,-58.57 816.65,-46.64 866,-30 866.65,-29.78 867.3,-29.55 867.95,-29.32"/>
<polygon fill="#63b8ff" stroke="#63b8ff" points="869.2,-32.59 877.1,-25.54 866.52,-26.12 869.2,-32.59"/>
</g>
<!-- Node16 -->
<g id="node16" class="node">
<title>Node16</title>
<g id="a_node16"><a xlink:title=" ">
<polygon fill="#e0e0e0" stroke="#999999" points="770,-24.5 704,-24.5 704,-5.5 770,-5.5 770,-24.5"/>
<text text-anchor="middle" x="737" y="-12.5" font-family="Helvetica,sans-Serif" font-size="10.00">string_view</text>
</a>
</g>
</g>
<!-- Node11&#45;&gt;Node16 -->
<g id="edge15" class="edge">
<title>Node11&#45;&gt;Node16</title>
<path fill="none" stroke="#63b8ff" d="M672.54,-65.62C684.15,-56.68 702.29,-42.72 716.38,-31.87"/>
<polygon fill="#63b8ff" stroke="#63b8ff" points="718.36,-34.76 724.15,-25.89 714.09,-29.22 718.36,-34.76"/>
</g>
<!-- Node17&#45;&gt;Node2 -->
<g id="edge23" class="edge">
<title>Node17&#45;&gt;Node2</title>
<path fill="none" stroke="#63b8ff" d="M853.35,-183.8C918.29,-181.65 1082.43,-173.09 1215,-140 1263.24,-127.96 1316.39,-104.95 1347.95,-90.18"/>
<polygon fill="#63b8ff" stroke="#63b8ff" points="1349.26,-93.43 1356.79,-85.99 1346.26,-87.11 1349.26,-93.43"/>
</g>
<!-- Node17&#45;&gt;Node3 -->
<g id="edge24" class="edge">
<title>Node17&#45;&gt;Node3</title>
<path fill="none" stroke="#63b8ff" d="M796.61,-183.43C736.04,-180.6 590.02,-170.89 472,-140 425.39,-127.8 374.16,-105 343.56,-90.3"/>
<polygon fill="#63b8ff" stroke="#63b8ff" points="345.15,-87.18 334.63,-85.95 342.08,-93.47 345.15,-87.18"/>
</g>
<!-- Node17&#45;&gt;Node4 -->
<g id="edge25" class="edge">
<title>Node17&#45;&gt;Node4</title>
<path fill="none" stroke="#63b8ff" d="M796.64,-183.46C742.02,-180.8 619.01,-171.5 521,-140 484.13,-128.15 444.94,-106.06 420.96,-91.31"/>
<polygon fill="#63b8ff" stroke="#63b8ff" points="422.98,-88.45 412.65,-86.11 419.27,-94.38 422.98,-88.45"/>
</g>
<!-- Node17&#45;&gt;Node5 -->
<g id="edge26" class="edge">
<title>Node17&#45;&gt;Node5</title>
<path fill="none" stroke="#63b8ff" d="M796.67,-184.67C745.75,-183.96 636.37,-177.71 554,-140 529.92,-128.97 507.3,-108.23 493.11,-93.45"/>
<polygon fill="#63b8ff" stroke="#63b8ff" points="495.81,-91.22 486.45,-86.27 490.68,-95.98 495.81,-91.22"/>
</g>
<!-- Node17&#45;&gt;Node6 -->
<g id="edge27" class="edge">
<title>Node17&#45;&gt;Node6</title>
<path fill="none" stroke="#63b8ff" d="M853.45,-183.93C914.12,-182.07 1060.22,-174.1 1177,-140 1217.18,-128.27 1260.38,-105.82 1286.55,-91"/>
<polygon fill="#63b8ff" stroke="#63b8ff" points="1288.11,-94.14 1295.03,-86.12 1284.62,-88.08 1288.11,-94.14"/>
</g>
<!-- Node17&#45;&gt;Node10 -->
<g id="edge22" class="edge">
<title>Node17&#45;&gt;Node10</title>
<path fill="none" stroke="#63b8ff" d="M796.63,-183.2C729.18,-179.73 554.21,-168.51 411,-140 346.39,-127.14 273.23,-103.69 230.78,-89.17"/>
<polygon fill="#63b8ff" stroke="#63b8ff" points="231.93,-85.86 221.34,-85.91 229.65,-92.48 231.93,-85.86"/>
</g>
<!-- Node17&#45;&gt;Node11 -->
<g id="edge53" class="edge">
<title>Node17&#45;&gt;Node11</title>
<path fill="none" stroke="#63b8ff" d="M809.97,-175.51C795.31,-166.68 772.44,-152.7 753,-140 728.6,-124.05 701.17,-104.96 682.65,-91.9"/>
<polygon fill="#63b8ff" stroke="#63b8ff" points="684.78,-89.12 674.6,-86.2 680.74,-94.84 684.78,-89.12"/>
</g>
<!-- Node17&#45;&gt;Node12 -->
<g id="edge19" class="edge">
<title>Node17&#45;&gt;Node12</title>
<path fill="none" stroke="#63b8ff" d="M796.86,-182.39C744.38,-176.8 632.22,-156.64 581,-85 570.86,-70.82 570.94,-50.5 572.91,-35.59"/>
<polygon fill="#63b8ff" stroke="#63b8ff" points="576.3,-36.53 574.56,-26.07 569.4,-35.33 576.3,-36.53"/>
</g>
<!-- Node17&#45;&gt;Node13 -->
<g id="edge20" class="edge">
<title>Node17&#45;&gt;Node13</title>
<path fill="none" stroke="#63b8ff" d="M853.33,-181.93C932.29,-173.72 1144.88,-143.95 1079,-66 1048.01,-29.34 912.15,-43.22 866,-30 864.65,-29.61 863.29,-29.19 861.92,-28.74"/>
<polygon fill="#63b8ff" stroke="#63b8ff" points="863.53,-25.6 852.93,-25.43 861.1,-32.17 863.53,-25.6"/>
</g>
<!-- Node17&#45;&gt;Node15 -->
<g id="edge21" class="edge">
<title>Node17&#45;&gt;Node15</title>
<path fill="none" stroke="#63b8ff" d="M853.5,-182.92C911.88,-179.15 1042.4,-167.77 1076,-140 1096.17,-123.33 1092.25,-110.73 1097,-85 1111.56,-6.07 1000.98,-55.86 925,-30 924.35,-29.78 923.71,-29.55 923.05,-29.31"/>
<polygon fill="#63b8ff" stroke="#63b8ff" points="924.54,-26.14 913.97,-25.45 921.8,-32.58 924.54,-26.14"/>
</g>
<!-- Node18 -->
<g id="node18" class="node">
<title>Node18</title>
<g id="a_node18"><a xlink:title=" ">
<polygon fill="#e0e0e0" stroke="#999999" points="1002,-85 942,-85 942,-66 1002,-66 1002,-85"/>
<text text-anchor="middle" x="972" y="-73" font-family="Helvetica,sans-Serif" font-size="10.00">filesystem</text>
</a>
</g>
</g>
<!-- Node17&#45;&gt;Node18 -->
<g id="edge17" class="edge">
<title>Node17&#45;&gt;Node18</title>
<path fill="none" stroke="#63b8ff" d="M840.63,-175.54C855.29,-166.94 877.64,-153.33 896,-140 916.74,-124.94 939.09,-105.89 954.15,-92.6"/>
<polygon fill="#63b8ff" stroke="#63b8ff" points="956.24,-95.43 961.37,-86.17 951.58,-90.21 956.24,-95.43"/>
</g>
<!-- Node19 -->
<g id="node19" class="node">
<title>Node19</title>
<g id="a_node19"><a xlink:title=" ">
<polygon fill="#e0e0e0" stroke="#999999" points="1070,-85 1020,-85 1020,-66 1070,-66 1070,-85"/>
<text text-anchor="middle" x="1045" y="-73" font-family="Helvetica,sans-Serif" font-size="10.00">fstream</text>
</a>
</g>
</g>
<!-- Node17&#45;&gt;Node19 -->
<g id="edge18" class="edge">
<title>Node17&#45;&gt;Node19</title>
<path fill="none" stroke="#63b8ff" d="M845.19,-175.57C864.9,-166.77 895.68,-152.82 922,-140 955.5,-123.68 993.54,-103.83 1018.33,-90.72"/>
<polygon fill="#63b8ff" stroke="#63b8ff" points="1019.88,-93.86 1027.08,-86.08 1016.6,-87.68 1019.88,-93.86"/>
</g>
<!-- Node20 -->
<g id="node20" class="node">
<title>Node20</title>
<g id="a_node20"><a xlink:href="_hw_accessor_8hpp.html" target="_top" xlink:title=" ">
<polygon fill="white" stroke="#666666" points="887.5,-140 762.5,-140 762.5,-121 887.5,-121 887.5,-140"/>
<text text-anchor="middle" x="825" y="-128" font-family="Helvetica,sans-Serif" font-size="10.00">udmaio/HwAccessor.hpp</text>
</a>
</g>
</g>
<!-- Node17&#45;&gt;Node20 -->
<g id="edge28" class="edge">
<title>Node17&#45;&gt;Node20</title>
<path fill="none" stroke="#63b8ff" d="M825,-175.75C825,-169.27 825,-160.16 825,-151.9"/>
<polygon fill="#63b8ff" stroke="#63b8ff" points="828.5,-151.96 825,-141.96 821.5,-151.96 828.5,-151.96"/>
</g>
<!-- Node23 -->
<g id="node23" class="node">
<title>Node23</title>
<g id="a_node23"><a xlink:href="_logging_8hpp.html" target="_top" xlink:title=" ">
<polygon fill="white" stroke="#666666" points="1268,-85 1164,-85 1164,-66 1268,-66 1268,-85"/>
<text text-anchor="middle" x="1216" y="-73" font-family="Helvetica,sans-Serif" font-size="10.00">udmaio/Logging.hpp</text>
</a>
</g>
</g>
<!-- Node17&#45;&gt;Node23 -->
<g id="edge52" class="edge">
<title>Node17&#45;&gt;Node23</title>
<path fill="none" stroke="#63b8ff" d="M853.31,-182.87C922.38,-178.55 1097.72,-165.32 1150,-140 1171.83,-129.42 1191.09,-108.9 1203.08,-94.04"/>
<polygon fill="#63b8ff" stroke="#63b8ff" points="1205.6,-96.51 1208.94,-86.45 1200.06,-92.23 1205.6,-96.51"/>
</g>
<!-- Node20&#45;&gt;Node2 -->
<g id="edge37" class="edge">
<title>Node20&#45;&gt;Node2</title>
<path fill="none" stroke="#63b8ff" d="M887.92,-127.81C984.07,-124.42 1173.4,-114.55 1342.96,-85.01"/>
<polygon fill="#63b8ff" stroke="#63b8ff" points="1343.37,-88.49 1352.61,-83.3 1342.15,-81.6 1343.37,-88.49"/>
</g>
<!-- Node20&#45;&gt;Node3 -->
<g id="edge38" class="edge">
<title>Node20&#45;&gt;Node3</title>
<path fill="none" stroke="#63b8ff" d="M762.2,-125.5C674.66,-119.49 510.79,-106.64 361.84,-85.28"/>
<polygon fill="#63b8ff" stroke="#63b8ff" points="362.58,-81.86 352.18,-83.88 361.57,-88.78 362.58,-81.86"/>
</g>
<!-- Node20&#45;&gt;Node4 -->
<g id="edge39" class="edge">
<title>Node20&#45;&gt;Node4</title>
<path fill="none" stroke="#63b8ff" d="M762.05,-124.37C687.23,-117.81 558.38,-105.06 438.97,-85.35"/>
<polygon fill="#63b8ff" stroke="#63b8ff" points="439.75,-81.93 429.3,-83.73 438.59,-88.83 439.75,-81.93"/>
</g>
<!-- Node20&#45;&gt;Node5 -->
<g id="edge40" class="edge">
<title>Node20&#45;&gt;Node5</title>
<path fill="none" stroke="#63b8ff" d="M766.14,-120.51C697.11,-109.97 584.26,-92.73 522.26,-83.26"/>
<polygon fill="#63b8ff" stroke="#63b8ff" points="522.84,-79.81 512.42,-81.76 521.78,-86.73 522.84,-79.81"/>
</g>
<!-- Node20&#45;&gt;Node6 -->
<g id="edge41" class="edge">
<title>Node20&#45;&gt;Node6</title>
<path fill="none" stroke="#63b8ff" d="M887.91,-126.23C973.36,-121.15 1131.02,-109.47 1274.64,-85.15"/>
<polygon fill="#63b8ff" stroke="#63b8ff" points="1275.08,-88.63 1284.35,-83.48 1273.9,-81.73 1275.08,-88.63"/>
</g>
<!-- Node20&#45;&gt;Node10 -->
<g id="edge36" class="edge">
<title>Node20&#45;&gt;Node10</title>
<path fill="none" stroke="#63b8ff" d="M762.33,-125.07C661.86,-117.82 458.19,-102.59 275.3,-85.29"/>
<polygon fill="#63b8ff" stroke="#63b8ff" points="275.63,-81.81 265.34,-84.34 274.97,-88.77 275.63,-81.81"/>
</g>
<!-- Node20&#45;&gt;Node11 -->
<g id="edge51" class="edge">
<title>Node20&#45;&gt;Node11</title>
<path fill="none" stroke="#63b8ff" d="M797.18,-120.51C770.36,-111.84 729.54,-98.65 699.58,-88.97"/>
<polygon fill="#63b8ff" stroke="#63b8ff" points="700.71,-85.66 690.12,-85.91 698.56,-92.32 700.71,-85.66"/>
</g>
<!-- Node20&#45;&gt;Node12 -->
<g id="edge33" class="edge">
<title>Node20&#45;&gt;Node12</title>
<path fill="none" stroke="#63b8ff" d="M762.02,-124.65C702.76,-118.82 619.7,-106.95 596,-85 582.48,-72.48 578.25,-51.3 577.08,-35.7"/>
<polygon fill="#63b8ff" stroke="#63b8ff" points="580.59,-36.04 576.74,-26.17 573.6,-36.29 580.59,-36.04"/>
</g>
<!-- Node20&#45;&gt;Node13 -->
<g id="edge34" class="edge">
<title>Node20&#45;&gt;Node13</title>
<path fill="none" stroke="#63b8ff" d="M834.05,-120.58C841.84,-112.22 852.51,-98.95 857,-85 862.6,-67.61 854.08,-48.04 845.5,-34.2"/>
<polygon fill="#63b8ff" stroke="#63b8ff" points="848.52,-32.42 840.01,-26.11 842.73,-36.35 848.52,-32.42"/>
</g>
<!-- Node20&#45;&gt;Node15 -->
<g id="edge35" class="edge">
<title>Node20&#45;&gt;Node15</title>
<path fill="none" stroke="#63b8ff" d="M837.38,-120.54C847.9,-112.34 862.73,-99.35 872,-85 881.8,-69.84 888.12,-50.21 891.8,-35.77"/>
<polygon fill="#63b8ff" stroke="#63b8ff" points="895.19,-36.66 894.04,-26.13 888.37,-35.08 895.19,-36.66"/>
</g>
<!-- Node20&#45;&gt;Node18 -->
<g id="edge31" class="edge">
<title>Node20&#45;&gt;Node18</title>
<path fill="none" stroke="#63b8ff" d="M849.94,-120.51C873.84,-111.89 910.14,-98.8 936.95,-89.14"/>
<polygon fill="#63b8ff" stroke="#63b8ff" points="937.79,-92.56 946.01,-85.87 935.41,-85.97 937.79,-92.56"/>
</g>
<!-- Node20&#45;&gt;Node19 -->
<g id="edge32" class="edge">
<title>Node20&#45;&gt;Node19</title>
<path fill="none" stroke="#63b8ff" d="M862.79,-120.58C898.11,-112.21 952.61,-99.24 1008.86,-85.5"/>
<polygon fill="#63b8ff" stroke="#63b8ff" points="1009.4,-88.98 1018.29,-83.2 1007.74,-82.18 1009.4,-88.98"/>
</g>
<!-- Node21 -->
<g id="node21" class="node">
<title>Node21</title>
<g id="a_node21"><a xlink:title=" ">
<polygon fill="#e0e0e0" stroke="#999999" points="783.5,-85 734.5,-85 734.5,-66 783.5,-66 783.5,-85"/>
<text text-anchor="middle" x="759" y="-73" font-family="Helvetica,sans-Serif" font-size="10.00">cstddef</text>
</a>
</g>
</g>
<!-- Node20&#45;&gt;Node21 -->
<g id="edge29" class="edge">
<title>Node20&#45;&gt;Node21</title>
<path fill="none" stroke="#63b8ff" d="M813.8,-120.51C804.26,-112.85 790.33,-101.66 778.89,-92.47"/>
<polygon fill="#63b8ff" stroke="#63b8ff" points="781.2,-89.84 771.21,-86.31 776.82,-95.3 781.2,-89.84"/>
</g>
<!-- Node22 -->
<g id="node22" class="node">
<title>Node22</title>
<g id="a_node22"><a xlink:title=" ">
<polygon fill="#e0e0e0" stroke="#999999" points="848,-85 802,-85 802,-66 848,-66 848,-85"/>
<text text-anchor="middle" x="825" y="-73" font-family="Helvetica,sans-Serif" font-size="10.00">cstring</text>
</a>
</g>
</g>
<!-- Node20&#45;&gt;Node22 -->
<g id="edge30" class="edge">
<title>Node20&#45;&gt;Node22</title>
<path fill="none" stroke="#63b8ff" d="M825,-120.75C825,-114.27 825,-105.16 825,-96.9"/>
<polygon fill="#63b8ff" stroke="#63b8ff" points="828.5,-96.96 825,-86.96 821.5,-96.96 828.5,-96.96"/>
</g>
<!-- Node20&#45;&gt;Node23 -->
<g id="edge42" class="edge">
<title>Node20&#45;&gt;Node23</title>
<path fill="none" stroke="#63b8ff" d="M887.82,-120.98C960.46,-111.14 1079.37,-95.02 1152.36,-85.13"/>
<polygon fill="#63b8ff" stroke="#63b8ff" points="1152.73,-88.61 1162.17,-83.8 1151.79,-81.67 1152.73,-88.61"/>
</g>
<!-- Node23&#45;&gt;Node15 -->
<g id="edge43" class="edge">
<title>Node23&#45;&gt;Node15</title>
<path fill="none" stroke="#63b8ff" d="M1163.64,-67.35C1086.06,-56.64 947.3,-36.92 925,-30 924.2,-29.75 923.39,-29.48 922.58,-29.2"/>
<polygon fill="#63b8ff" stroke="#63b8ff" points="924.19,-26.08 913.61,-25.46 921.49,-32.54 924.19,-26.08"/>
</g>
<!-- Node24 -->
<g id="node24" class="node">
<title>Node24</title>
<g id="a_node24"><a xlink:title=" ">
<polygon fill="#e0e0e0" stroke="#999999" points="1170,-24.5 1074,-24.5 1074,-5.5 1170,-5.5 1170,-24.5"/>
<text text-anchor="middle" x="1122" y="-12.5" font-family="Helvetica,sans-Serif" font-size="10.00">boost/log/core.hpp</text>
</a>
</g>
</g>
<!-- Node23&#45;&gt;Node24 -->
<g id="edge44" class="edge">
<title>Node23&#45;&gt;Node24</title>
<path fill="none" stroke="#63b8ff" d="M1201.72,-65.62C1186.95,-56.42 1163.63,-41.91 1146.01,-30.94"/>
<polygon fill="#63b8ff" stroke="#63b8ff" points="1148.04,-28.08 1137.7,-25.77 1144.34,-34.02 1148.04,-28.08"/>
</g>
<!-- Node25 -->
<g id="node25" class="node">
<title>Node25</title>
<g id="a_node25"><a xlink:title=" ">
<polygon fill="#e0e0e0" stroke="#999999" points="1317.5,-24.5 1188.5,-24.5 1188.5,-5.5 1317.5,-5.5 1317.5,-24.5"/>
<text text-anchor="middle" x="1253" y="-12.5" font-family="Helvetica,sans-Serif" font-size="10.00">boost/log/expressions.hpp</text>
</a>
</g>
</g>
<!-- Node23&#45;&gt;Node25 -->
<g id="edge45" class="edge">
<title>Node23&#45;&gt;Node25</title>
<path fill="none" stroke="#63b8ff" d="M1221.46,-65.87C1226.71,-57.57 1234.8,-44.78 1241.47,-34.22"/>
<polygon fill="#63b8ff" stroke="#63b8ff" points="1244.32,-36.27 1246.71,-25.95 1238.41,-32.53 1244.32,-36.27"/>
</g>
<!-- Node26 -->
<g id="node26" class="node">
<title>Node26</title>
<g id="a_node26"><a xlink:title=" ">
<polygon fill="#e0e0e0" stroke="#999999" points="1436.5,-24.5 1335.5,-24.5 1335.5,-5.5 1436.5,-5.5 1436.5,-24.5"/>
<text text-anchor="middle" x="1386" y="-12.5" font-family="Helvetica,sans-Serif" font-size="10.00">boost/log/trivial.hpp</text>
</a>
</g>
</g>
<!-- Node23&#45;&gt;Node26 -->
<g id="edge46" class="edge">
<title>Node23&#45;&gt;Node26</title>
<path fill="none" stroke="#63b8ff" d="M1241.82,-65.62C1270.4,-55.78 1316.71,-39.84 1349.11,-28.69"/>
<polygon fill="#63b8ff" stroke="#63b8ff" points="1350.19,-32.02 1358.51,-25.46 1347.91,-25.41 1350.19,-32.02"/>
</g>
<!-- Node27 -->
<g id="node27" class="node">
<title>Node27</title>
<g id="a_node27"><a xlink:title=" ">
<polygon fill="#e0e0e0" stroke="#999999" points="1563.5,-30 1454.5,-30 1454.5,0 1563.5,0 1563.5,-30"/>
<text text-anchor="start" x="1462.5" y="-18" font-family="Helvetica,sans-Serif" font-size="10.00">boost/log/utility/setup</text>
<text text-anchor="middle" x="1509" y="-7" font-family="Helvetica,sans-Serif" font-size="10.00">/console.hpp</text>
</a>
</g>
</g>
<!-- Node23&#45;&gt;Node27 -->
<g id="edge47" class="edge">
<title>Node23&#45;&gt;Node27</title>
<path fill="none" stroke="#63b8ff" d="M1264.54,-65.51C1308.68,-57.25 1375.92,-44.43 1442.87,-30.62"/>
<polygon fill="#63b8ff" stroke="#63b8ff" points="1443.48,-34.07 1452.56,-28.61 1442.06,-27.21 1443.48,-34.07"/>
</g>
<!-- Node28 -->
<g id="node28" class="node">
<title>Node28</title>
<g id="a_node28"><a xlink:title=" ">
<polygon fill="#e0e0e0" stroke="#999999" points="1712.5,-30 1581.5,-30 1581.5,0 1712.5,0 1712.5,-30"/>
<text text-anchor="start" x="1589.5" y="-18" font-family="Helvetica,sans-Serif" font-size="10.00">boost/log/sources/severity</text>
<text text-anchor="middle" x="1647" y="-7" font-family="Helvetica,sans-Serif" font-size="10.00">_channel_logger.hpp</text>
</a>
</g>
</g>
<!-- Node23&#45;&gt;Node28 -->
<g id="edge48" class="edge">
<title>Node23&#45;&gt;Node28</title>
<path fill="none" stroke="#63b8ff" d="M1268.24,-67.16C1271.2,-66.76 1274.14,-66.37 1277,-66 1404.82,-49.32 1440.13,-50.26 1570.08,-30.39"/>
<polygon fill="#63b8ff" stroke="#63b8ff" points="1570.43,-33.88 1579.78,-28.9 1569.36,-26.96 1570.43,-33.88"/>
</g>
<!-- Node29 -->
<g id="node29" class="node">
<title>Node29</title>
<g id="a_node29"><a xlink:title=" ">
<polygon fill="#e0e0e0" stroke="#999999" points="1843.5,-30 1730.5,-30 1730.5,0 1843.5,0 1843.5,-30"/>
<text text-anchor="start" x="1738.5" y="-18" font-family="Helvetica,sans-Serif" font-size="10.00">boost/log/support/date</text>
<text text-anchor="middle" x="1787" y="-7" font-family="Helvetica,sans-Serif" font-size="10.00">_time.hpp</text>
</a>
</g>
</g>
<!-- Node23&#45;&gt;Node29 -->
<g id="edge49" class="edge">
<title>Node23&#45;&gt;Node29</title>
<path fill="none" stroke="#63b8ff" d="M1268.22,-67.02C1271.19,-66.66 1274.13,-66.32 1277,-66 1470.57,-44.7 1523.74,-58.42 1718.79,-30.36"/>
<polygon fill="#63b8ff" stroke="#63b8ff" points="1719.12,-33.84 1728.51,-28.94 1718.11,-26.92 1719.12,-33.84"/>
</g>
<!-- Node30 -->
<g id="node30" class="node">
<title>Node30</title>
<g id="a_node30"><a xlink:title=" ">
<polygon fill="#e0e0e0" stroke="#999999" points="1055.5,-30 934.5,-30 934.5,0 1055.5,0 1055.5,-30"/>
<text text-anchor="start" x="942.5" y="-18" font-family="Helvetica,sans-Serif" font-size="10.00">boost/log/utility/setup</text>
<text text-anchor="middle" x="995" y="-7" font-family="Helvetica,sans-Serif" font-size="10.00">/common_attributes.hpp</text>
</a>
</g>
</g>
<!-- Node23&#45;&gt;Node30 -->
<g id="edge50" class="edge">
<title>Node23&#45;&gt;Node30</title>
<path fill="none" stroke="#63b8ff" d="M1182.43,-65.62C1150.21,-57.08 1100.64,-43.96 1060.58,-33.36"/>
<polygon fill="#63b8ff" stroke="#63b8ff" points="1061.58,-30 1051.01,-30.83 1059.78,-36.77 1061.58,-30"/>
</g>
</g>
</svg>
        <g id="navigator" transform="translate(0 0)" fill="#404254">
                <rect fill="#f2f5e9" fill-opacity="0.5" stroke="#606060" stroke-width=".5" x="0" y="0" width="60" height="60"/>
                <use id="zoomplus" xlink:href="#zoomPlus" x="17" y="9" onmousedown="handleZoom(evt,'in')"/>
                <use id="zoomminus" xlink:href="#zoomMin" x="42" y="9" onmousedown="handleZoom(evt,'out')"/>
                <use id="reset" xlink:href="#resetDef" x="30" y="36" onmousedown="handleReset()"/>
                <g id="arrowUp" xlink:href="#dirArrow" transform="translate(30 24)" onmousedown="handlePan(0,-1)">
                  <use xlink:href="#rim" fill="#404040">
                        <set attributeName="fill" to="#808080" begin="arrowUp.mouseover" end="arrowUp.mouseout"/>
                  </use>
                  <path fill="none" stroke="white" stroke-width="1.5" d="M0,-3.0v7 M-2.5,-0.5L0,-3.0L2.5,-0.5"/>
                </g>
                <g id="arrowRight" xlink:href="#dirArrow" transform="rotate(90) translate(36 -43)" onmousedown="handlePan(1,0)">
                  <use xlink:href="#rim" fill="#404040">
                        <set attributeName="fill" to="#808080" begin="arrowRight.mouseover" end="arrowRight.mouseout"/>
                  </use>
                  <path fill="none" stroke="white" stroke-width="1.5" d="M0,-3.0v7 M-2.5,-0.5L0,-3.0L2.5,-0.5"/>
                </g>
                <g id="arrowDown" xlink:href="#dirArrow" transform="rotate(180) translate(-30 -48)" onmousedown="handlePan(0,1)">
                  <use xlink:href="#rim" fill="#404040">
                        <set attributeName="fill" to="#808080" begin="arrowDown.mouseover" end="arrowDown.mouseout"/>
                  </use>
                  <path fill="none" stroke="white" stroke-width="1.5" d="M0,-3.0v7 M-2.5,-0.5L0,-3.0L2.5,-0.5"/>
                </g>
                <g id="arrowLeft" xlink:href="#dirArrow" transform="rotate(270) translate(-36 17)" onmousedown="handlePan(-1,0)">
                  <use xlink:href="#rim" fill="#404040">
                        <set attributeName="fill" to="#808080" begin="arrowLeft.mouseover" end="arrowLeft.mouseout"/>
                  </use>
                  <path fill="none" stroke="white" stroke-width="1.5" d="M0,-3.0v7 M-2.5,-0.5L0,-3.0L2.5,-0.5"/>
                </g>
        </g>
        <svg viewBox="0 0 15 15" width="100%" height="30px" preserveAspectRatio="xMaxYMin meet">
         <g id="arrow_out" transform="scale(0.3 0.3)">
          <a xlink:href="_fpga_mem_buffer_over_axi_8hpp__incl_org.svg" target="_base">
           <rect id="button" ry="5" rx="5" y="6" x="6" height="38" width="38"
                fill="#f2f5e9" fill-opacity="0.5" stroke="#606060" stroke-width="1.0"/>
           <path id="arrow"
             d="M 11.500037,31.436501 C 11.940474,20.09759 22.043105,11.32322 32.158766,21.979434 L 37.068811,17.246167 C 37.068811,17.246167 37.088388,32 37.088388,32 L 22.160133,31.978069 C 22.160133,31.978069 26.997745,27.140456 26.997745,27.140456 C 18.528582,18.264221 13.291696,25.230495 11.500037,31.436501 z"
             style="fill:#404040;"/>
          </a>
         </g>
        </svg>
</svg>
