<?xml version="1.0" encoding="UTF-8" standalone="no"?>
<!DOCTYPE svg PUBLIC "-//W3C//DTD SVG 1.1//EN"
 "http://www.w3.org/Graphics/SVG/1.1/DTD/svg11.dtd">
<!-- Generated by graphviz version 7.0.5 (20221223.1930)
 -->
<!-- Title: FpgaMemBufferOverAxi.hpp Pages: 1 -->
<svg width="2012pt" height="203pt"
 viewBox="0.00 0.00 2012.00 203.00" xmlns="http://www.w3.org/2000/svg" xmlns:xlink="http://www.w3.org/1999/xlink">
<g id="graph0" class="graph" transform="scale(1 1) rotate(0) translate(4 199)">
<title>FpgaMemBufferOverAxi.hpp</title>
<!-- Node1 -->
<g id="node1" class="node">
<title>Node1</title>
<g id="a_node1"><a xlink:title=" ">
<polygon fill="#999999" stroke="#666666" points="630,-195 492,-195 492,-176 630,-176 630,-195"/>
<text text-anchor="middle" x="561" y="-183" font-family="Helvetica,sans-Serif" font-size="10.00">FpgaMemBufferOverAxi.hpp</text>
</a>
</g>
</g>
<!-- Node2 -->
<g id="node2" class="node">
<title>Node2</title>
<g id="a_node2"><a xlink:title=" ">
<polygon fill="#e0e0e0" stroke="#999999" points="118,-79.5 0,-79.5 0,-60.5 118,-60.5 118,-79.5"/>
<text text-anchor="middle" x="59" y="-67.5" font-family="Helvetica,sans-Serif" font-size="10.00">boost/log/core/core.hpp</text>
</a>
</g>
</g>
<!-- Node1&#45;&gt;Node2 -->
<g id="edge1" class="edge">
<title>Node1&#45;&gt;Node2</title>
<path fill="none" stroke="#63b8ff" d="M521.61,-175.59C431.36,-155.19 209.72,-105.08 109.58,-82.44"/>
<polygon fill="#63b8ff" stroke="#63b8ff" points="110.56,-79.07 100.03,-80.28 109.01,-85.9 110.56,-79.07"/>
</g>
<!-- Node3 -->
<g id="node3" class="node">
<title>Node3</title>
<g id="a_node3"><a xlink:title=" ">
<polygon fill="#e0e0e0" stroke="#999999" points="277.5,-79.5 136.5,-79.5 136.5,-60.5 277.5,-60.5 277.5,-79.5"/>
<text text-anchor="middle" x="207" y="-67.5" font-family="Helvetica,sans-Serif" font-size="10.00">boost/log/sources/logger.hpp</text>
</a>
</g>
</g>
<!-- Node1&#45;&gt;Node3 -->
<g id="edge2" class="edge">
<title>Node1&#45;&gt;Node3</title>
<path fill="none" stroke="#63b8ff" d="M533.22,-175.59C470.41,-155.45 317.33,-106.37 245.46,-83.33"/>
<polygon fill="#63b8ff" stroke="#63b8ff" points="246.68,-80.05 236.09,-80.33 244.54,-86.71 246.68,-80.05"/>
</g>
<!-- Node4 -->
<g id="node4" class="node">
<title>Node4</title>
<g id="a_node4"><a xlink:title=" ">
<polygon fill="#e0e0e0" stroke="#999999" points="396.5,-79.5 295.5,-79.5 295.5,-60.5 396.5,-60.5 396.5,-79.5"/>
<text text-anchor="middle" x="346" y="-67.5" font-family="Helvetica,sans-Serif" font-size="10.00">boost/log/trivial.hpp</text>
</a>
</g>
</g>
<!-- Node1&#45;&gt;Node4 -->
<g id="edge3" class="edge">
<title>Node1&#45;&gt;Node4</title>
<path fill="none" stroke="#63b8ff" d="M544.13,-175.59C507,-155.99 417.94,-108.98 372.97,-85.24"/>
<polygon fill="#63b8ff" stroke="#63b8ff" points="374.61,-82.14 364.13,-80.57 371.34,-88.34 374.61,-82.14"/>
</g>
<!-- Node5 -->
<g id="node5" class="node">
<title>Node5</title>
<g id="a_node5"><a xlink:title=" ">
<polygon fill="#e0e0e0" stroke="#999999" points="457.5,-79.5 414.5,-79.5 414.5,-60.5 457.5,-60.5 457.5,-79.5"/>
<text text-anchor="middle" x="436" y="-67.5" font-family="Helvetica,sans-Serif" font-size="10.00">fcntl.h</text>
</a>
</g>
</g>
<!-- Node1&#45;&gt;Node5 -->
<g id="edge4" class="edge">
<title>Node1&#45;&gt;Node5</title>
<path fill="none" stroke="#63b8ff" d="M551.19,-175.59C530.29,-156.61 481.08,-111.93 454.24,-87.56"/>
<polygon fill="#63b8ff" stroke="#63b8ff" points="456.64,-85.01 446.88,-80.88 451.93,-90.2 456.64,-85.01"/>
</g>
<!-- Node6 -->
<g id="node6" class="node">
<title>Node6</title>
<g id="a_node6"><a xlink:title=" ">
<polygon fill="#e0e0e0" stroke="#999999" points="544.5,-79.5 475.5,-79.5 475.5,-60.5 544.5,-60.5 544.5,-79.5"/>
<text text-anchor="middle" x="510" y="-67.5" font-family="Helvetica,sans-Serif" font-size="10.00">sys/mman.h</text>
</a>
</g>
</g>
<!-- Node1&#45;&gt;Node6 -->
<g id="edge5" class="edge">
<title>Node1&#45;&gt;Node6</title>
<path fill="none" stroke="#63b8ff" d="M557,-175.59C548.77,-157.28 529.78,-115.02 518.62,-90.19"/>
<polygon fill="#63b8ff" stroke="#63b8ff" points="521.89,-88.93 514.6,-81.25 515.51,-91.8 521.89,-88.93"/>
</g>
<!-- Node7 -->
<g id="node7" class="node">
<title>Node7</title>
<g id="a_node7"><a xlink:title=" ">
<polygon fill="#e0e0e0" stroke="#999999" points="621.5,-79.5 562.5,-79.5 562.5,-60.5 621.5,-60.5 621.5,-79.5"/>
<text text-anchor="middle" x="592" y="-67.5" font-family="Helvetica,sans-Serif" font-size="10.00">sys/stat.h</text>
</a>
</g>
</g>
<!-- Node1&#45;&gt;Node7 -->
<g id="edge6" class="edge">
<title>Node1&#45;&gt;Node7</title>
<path fill="none" stroke="#63b8ff" d="M563.43,-175.59C568.39,-157.44 579.77,-115.79 586.57,-90.87"/>
<polygon fill="#63b8ff" stroke="#63b8ff" points="589.92,-91.89 589.18,-81.32 583.17,-90.05 589.92,-91.89"/>
</g>
<!-- Node8 -->
<g id="node8" class="node">
<title>Node8</title>
<g id="a_node8"><a xlink:title=" ">
<polygon fill="#e0e0e0" stroke="#999999" points="704.5,-79.5 639.5,-79.5 639.5,-60.5 704.5,-60.5 704.5,-79.5"/>
<text text-anchor="middle" x="672" y="-67.5" font-family="Helvetica,sans-Serif" font-size="10.00">sys/types.h</text>
</a>
</g>
</g>
<!-- Node1&#45;&gt;Node8 -->
<g id="edge7" class="edge">
<title>Node1&#45;&gt;Node8</title>
<path fill="none" stroke="#63b8ff" d="M569.71,-175.59C588.19,-156.7 631.59,-112.32 655.49,-87.88"/>
<polygon fill="#63b8ff" stroke="#63b8ff" points="657.78,-90.54 662.27,-80.95 652.78,-85.65 657.78,-90.54"/>
</g>
<!-- Node9 -->
<g id="node9" class="node">
<title>Node9</title>
<g id="a_node9"><a xlink:title=" ">
<polygon fill="#e0e0e0" stroke="#999999" points="773,-79.5 723,-79.5 723,-60.5 773,-60.5 773,-79.5"/>
<text text-anchor="middle" x="748" y="-67.5" font-family="Helvetica,sans-Serif" font-size="10.00">unistd.h</text>
</a>
</g>
</g>
<!-- Node1&#45;&gt;Node9 -->
<g id="edge8" class="edge">
<title>Node1&#45;&gt;Node9</title>
<path fill="none" stroke="#63b8ff" d="M575.67,-175.59C607.76,-156.12 684.45,-109.57 723.8,-85.69"/>
<polygon fill="#63b8ff" stroke="#63b8ff" points="725.37,-88.83 732.1,-80.65 721.74,-82.85 725.37,-88.83"/>
</g>
<!-- Node10 -->
<g id="node10" class="node">
<title>Node10</title>
<g id="a_node10"><a xlink:href="_dma_buffer_abstract_8hpp.html" target="_top" xlink:title=" ">
<polygon fill="white" stroke="#666666" points="1867.5,-140 1750.5,-140 1750.5,-121 1867.5,-121 1867.5,-140"/>
<text text-anchor="middle" x="1809" y="-128" font-family="Helvetica,sans-Serif" font-size="10.00">DmaBufferAbstract.hpp</text>
</a>
</g>
</g>
<!-- Node1&#45;&gt;Node10 -->
<g id="edge9" class="edge">
<title>Node1&#45;&gt;Node10</title>
<path fill="none" stroke="#63b8ff" d="M630.32,-181.56C848.44,-172.29 1519.21,-143.81 1738.69,-134.49"/>
<polygon fill="#63b8ff" stroke="#63b8ff" points="1738.68,-137.99 1748.52,-134.07 1738.38,-131 1738.68,-137.99"/>
</g>
<!-- Node20 -->
<g id="node20" class="node">
<title>Node20</title>
<g id="a_node20"><a xlink:href="_uio_if_8hpp.html" target="_top" xlink:title=" ">
<polygon fill="white" stroke="#666666" points="935,-140 879,-140 879,-121 935,-121 935,-140"/>
<text text-anchor="middle" x="907" y="-128" font-family="Helvetica,sans-Serif" font-size="10.00">UioIf.hpp</text>
</a>
</g>
</g>
<!-- Node1&#45;&gt;Node20 -->
<g id="edge19" class="edge">
<title>Node1&#45;&gt;Node20</title>
<path fill="none" stroke="#63b8ff" d="M619.69,-175.51C690.19,-164.71 806.51,-146.89 867.26,-137.59"/>
<polygon fill="#63b8ff" stroke="#63b8ff" points="867.79,-141.05 877.15,-136.07 866.73,-134.13 867.79,-141.05"/>
</g>
<!-- Node11 -->
<g id="node11" class="node">
<title>Node11</title>
<g id="a_node11"><a xlink:title=" ">
<polygon fill="#e0e0e0" stroke="#999999" points="1942,-79.5 1896,-79.5 1896,-60.5 1942,-60.5 1942,-79.5"/>
<text text-anchor="middle" x="1919" y="-67.5" font-family="Helvetica,sans-Serif" font-size="10.00">cstdint</text>
</a>
</g>
</g>
<!-- Node10&#45;&gt;Node11 -->
<g id="edge10" class="edge">
<title>Node10&#45;&gt;Node11</title>
<path fill="none" stroke="#63b8ff" d="M1825.71,-120.62C1843.31,-111.25 1871.31,-96.36 1892.05,-85.33"/>
<polygon fill="#63b8ff" stroke="#63b8ff" points="1893.61,-88.46 1900.8,-80.68 1890.33,-82.28 1893.61,-88.46"/>
</g>
<!-- Node12 -->
<g id="node12" class="node">
<title>Node12</title>
<g id="a_node12"><a xlink:title=" ">
<polygon fill="#e0e0e0" stroke="#999999" points="2004,-79.5 1960,-79.5 1960,-60.5 2004,-60.5 2004,-79.5"/>
<text text-anchor="middle" x="1982" y="-67.5" font-family="Helvetica,sans-Serif" font-size="10.00">vector</text>
</a>
</g>
</g>
<!-- Node10&#45;&gt;Node12 -->
<g id="edge11" class="edge">
<title>Node10&#45;&gt;Node12</title>
<path fill="none" stroke="#63b8ff" d="M1841.52,-120.52C1870.55,-112.22 1914.06,-99.07 1951,-85 1951.62,-84.76 1952.25,-84.52 1952.88,-84.27"/>
<polygon fill="#63b8ff" stroke="#63b8ff" points="1953.88,-87.65 1961.74,-80.54 1951.17,-81.2 1953.88,-87.65"/>
</g>
<!-- Node13 -->
<g id="node13" class="node">
<title>Node13</title>
<g id="a_node13"><a xlink:title=" ">
<polygon fill="#e0e0e0" stroke="#999999" points="1877.5,-79.5 1740.5,-79.5 1740.5,-60.5 1877.5,-60.5 1877.5,-79.5"/>
<text text-anchor="middle" x="1809" y="-67.5" font-family="Helvetica,sans-Serif" font-size="10.00">boost/core/noncopyable.hpp</text>
</a>
</g>
</g>
<!-- Node10&#45;&gt;Node13 -->
<g id="edge12" class="edge">
<title>Node10&#45;&gt;Node13</title>
<path fill="none" stroke="#63b8ff" d="M1809,-120.87C1809,-113 1809,-101.1 1809,-90.89"/>
<polygon fill="#63b8ff" stroke="#63b8ff" points="1812.5,-91.18 1809,-81.18 1805.5,-91.18 1812.5,-91.18"/>
</g>
<!-- Node14 -->
<g id="node14" class="node">
<title>Node14</title>
<g id="a_node14"><a xlink:href="_uio_config_8hpp.html" target="_top" xlink:title=" ">
<polygon fill="white" stroke="#666666" points="1683.5,-79.5 1572.5,-79.5 1572.5,-60.5 1683.5,-60.5 1683.5,-79.5"/>
<text text-anchor="middle" x="1628" y="-67.5" font-family="Helvetica,sans-Serif" font-size="10.00">udmaio/UioConfig.hpp</text>
</a>
</g>
</g>
<!-- Node10&#45;&gt;Node14 -->
<g id="edge13" class="edge">
<title>Node10&#45;&gt;Node14</title>
<path fill="none" stroke="#63b8ff" d="M1781.51,-120.62C1750.81,-110.69 1700.91,-94.57 1666.38,-83.4"/>
<polygon fill="#63b8ff" stroke="#63b8ff" points="1667.78,-80.18 1657.19,-80.43 1665.63,-86.84 1667.78,-80.18"/>
</g>
<!-- Node15 -->
<g id="node15" class="node">
<title>Node15</title>
<g id="a_node15"><a xlink:title=" ">
<polygon fill="#e0e0e0" stroke="#999999" points="1272,-19 1218,-19 1218,0 1272,0 1272,-19"/>
<text text-anchor="middle" x="1245" y="-7" font-family="Helvetica,sans-Serif" font-size="10.00">iostream</text>
</a>
</g>
</g>
<!-- Node14&#45;&gt;Node15 -->
<g id="edge14" class="edge">
<title>Node14&#45;&gt;Node15</title>
<path fill="none" stroke="#63b8ff" d="M1589.17,-60.01C1580.89,-58.23 1572.17,-56.46 1564,-55 1463.37,-37 1343.79,-22.02 1283.64,-14.92"/>
<polygon fill="#63b8ff" stroke="#63b8ff" points="1284.26,-11.47 1273.93,-13.78 1283.45,-18.42 1284.26,-11.47"/>
</g>
<!-- Node16 -->
<g id="node16" class="node">
<title>Node16</title>
<g id="a_node16"><a xlink:title=" ">
<polygon fill="#e0e0e0" stroke="#999999" points="1399.5,-19 1348.5,-19 1348.5,0 1399.5,0 1399.5,-19"/>
<text text-anchor="middle" x="1374" y="-7" font-family="Helvetica,sans-Serif" font-size="10.00">memory</text>
</a>
</g>
</g>
<!-- Node14&#45;&gt;Node16 -->
<g id="edge15" class="edge">
<title>Node14&#45;&gt;Node16</title>
<path fill="none" stroke="#63b8ff" d="M1589.15,-60.05C1540.62,-48.87 1458.2,-29.89 1410.7,-18.95"/>
<polygon fill="#63b8ff" stroke="#63b8ff" points="1411.71,-15.59 1401.18,-16.76 1410.14,-22.41 1411.71,-15.59"/>
</g>
<!-- Node17 -->
<g id="node17" class="node">
<title>Node17</title>
<g id="a_node17"><a xlink:title=" ">
<polygon fill="#e0e0e0" stroke="#999999" points="1658.5,-19 1599.5,-19 1599.5,0 1658.5,0 1658.5,-19"/>
<text text-anchor="middle" x="1629" y="-7" font-family="Helvetica,sans-Serif" font-size="10.00">stdexcept</text>
</a>
</g>
</g>
<!-- Node14&#45;&gt;Node17 -->
<g id="edge16" class="edge">
<title>Node14&#45;&gt;Node17</title>
<path fill="none" stroke="#63b8ff" d="M1628.15,-60.37C1628.28,-52.5 1628.49,-40.6 1628.66,-30.39"/>
<polygon fill="#63b8ff" stroke="#63b8ff" points="1632.15,-30.74 1628.83,-20.68 1625.16,-30.62 1632.15,-30.74"/>
</g>
<!-- Node18 -->
<g id="node18" class="node">
<title>Node18</title>
<g id="a_node18"><a xlink:title=" ">
<polygon fill="#e0e0e0" stroke="#999999" points="1581.5,-19 1540.5,-19 1540.5,0 1581.5,0 1581.5,-19"/>
<text text-anchor="middle" x="1561" y="-7" font-family="Helvetica,sans-Serif" font-size="10.00">string</text>
</a>
</g>
</g>
<!-- Node14&#45;&gt;Node18 -->
<g id="edge17" class="edge">
<title>Node14&#45;&gt;Node18</title>
<path fill="none" stroke="#63b8ff" d="M1617.82,-60.12C1607.79,-51.35 1592.21,-37.75 1579.9,-27"/>
<polygon fill="#63b8ff" stroke="#63b8ff" points="1582.25,-24.4 1572.41,-20.46 1577.64,-29.68 1582.25,-24.4"/>
</g>
<!-- Node19 -->
<g id="node19" class="node">
<title>Node19</title>
<g id="a_node19"><a xlink:title=" ">
<polygon fill="#e0e0e0" stroke="#999999" points="1744,-19 1678,-19 1678,0 1744,0 1744,-19"/>
<text text-anchor="middle" x="1711" y="-7" font-family="Helvetica,sans-Serif" font-size="10.00">string_view</text>
</a>
</g>
</g>
<!-- Node14&#45;&gt;Node19 -->
<g id="edge18" class="edge">
<title>Node14&#45;&gt;Node19</title>
<path fill="none" stroke="#63b8ff" d="M1640.61,-60.12C1653.4,-51.1 1673.48,-36.95 1688.92,-26.06"/>
<polygon fill="#63b8ff" stroke="#63b8ff" points="1690.88,-28.96 1697.04,-20.34 1686.85,-23.24 1690.88,-28.96"/>
</g>
<!-- Node20&#45;&gt;Node2 -->
<g id="edge26" class="edge">
<title>Node20&#45;&gt;Node2</title>
<path fill="none" stroke="#63b8ff" d="M878.53,-129.37C776.37,-128.6 418.85,-123.16 127,-85 121.02,-84.22 114.79,-83.21 108.62,-82.09"/>
<polygon fill="#63b8ff" stroke="#63b8ff" points="109.64,-78.72 99.16,-80.27 108.32,-85.59 109.64,-78.72"/>
</g>
<!-- Node20&#45;&gt;Node3 -->
<g id="edge29" class="edge">
<title>Node20&#45;&gt;Node3</title>
<path fill="none" stroke="#63b8ff" d="M878.74,-128.52C790.7,-125.25 513.67,-113.25 286,-85 278.84,-84.11 271.34,-83.01 263.94,-81.82"/>
<polygon fill="#63b8ff" stroke="#63b8ff" points="264.76,-78.41 254.32,-80.2 263.61,-85.31 264.76,-78.41"/>
</g>
<!-- Node20&#45;&gt;Node4 -->
<g id="edge30" class="edge">
<title>Node20&#45;&gt;Node4</title>
<path fill="none" stroke="#63b8ff" d="M878.52,-128.42C801.66,-125.19 583.78,-113.98 405,-85 400.44,-84.26 395.71,-83.36 391,-82.38"/>
<polygon fill="#63b8ff" stroke="#63b8ff" points="392.15,-79.05 381.63,-80.31 390.64,-85.89 392.15,-79.05"/>
</g>
<!-- Node20&#45;&gt;Node5 -->
<g id="edge31" class="edge">
<title>Node20&#45;&gt;Node5</title>
<path fill="none" stroke="#63b8ff" d="M878.54,-129.89C807.53,-130.18 617.35,-126.66 466,-85 465.01,-84.73 464,-84.42 463,-84.09"/>
<polygon fill="#63b8ff" stroke="#63b8ff" points="464.43,-80.9 453.85,-80.44 461.84,-87.4 464.43,-80.9"/>
</g>
<!-- Node20&#45;&gt;Node6 -->
<g id="edge32" class="edge">
<title>Node20&#45;&gt;Node6</title>
<path fill="none" stroke="#63b8ff" d="M878.69,-127.77C818.26,-123.68 672.39,-111.69 553,-85 550.57,-84.46 548.09,-83.83 545.59,-83.16"/>
<polygon fill="#63b8ff" stroke="#63b8ff" points="546.82,-79.87 536.24,-80.39 544.83,-86.58 546.82,-79.87"/>
</g>
<!-- Node20&#45;&gt;Node7 -->
<g id="edge33" class="edge">
<title>Node20&#45;&gt;Node7</title>
<path fill="none" stroke="#63b8ff" d="M878.71,-126.79C828.17,-121.53 719.29,-108.38 630,-85 628.26,-84.54 626.49,-84.04 624.71,-83.5"/>
<polygon fill="#63b8ff" stroke="#63b8ff" points="625.9,-80.21 615.31,-80.36 623.68,-86.85 625.9,-80.21"/>
</g>
<!-- Node20&#45;&gt;Node8 -->
<g id="edge34" class="edge">
<title>Node20&#45;&gt;Node8</title>
<path fill="none" stroke="#63b8ff" d="M878.66,-123.85C840.85,-116.11 771.93,-101.29 714,-85 712.17,-84.48 710.3,-83.94 708.42,-83.37"/>
<polygon fill="#63b8ff" stroke="#63b8ff" points="709.68,-80.1 699.09,-80.43 707.58,-86.78 709.68,-80.1"/>
</g>
<!-- Node20&#45;&gt;Node9 -->
<g id="edge35" class="edge">
<title>Node20&#45;&gt;Node9</title>
<path fill="none" stroke="#63b8ff" d="M881.01,-120.66C855.63,-111.93 815.98,-98.04 782,-85 781.22,-84.7 780.43,-84.39 779.63,-84.08"/>
<polygon fill="#63b8ff" stroke="#63b8ff" points="781.15,-80.92 770.56,-80.46 778.55,-87.42 781.15,-80.92"/>
</g>
<!-- Node20&#45;&gt;Node13 -->
<g id="edge25" class="edge">
<title>Node20&#45;&gt;Node13</title>
<path fill="none" stroke="#63b8ff" d="M935.39,-129.12C1040.5,-127.45 1417.47,-119.29 1726,-85 1733.8,-84.13 1741.98,-83.01 1750.03,-81.79"/>
<polygon fill="#63b8ff" stroke="#63b8ff" points="1750.47,-85.26 1759.79,-80.23 1749.37,-78.35 1750.47,-85.26"/>
</g>
<!-- Node20&#45;&gt;Node14 -->
<g id="edge36" class="edge">
<title>Node20&#45;&gt;Node14</title>
<path fill="none" stroke="#63b8ff" d="M935.33,-129.07C1026.8,-127.38 1322.36,-119.42 1564,-85 1569.35,-84.24 1574.92,-83.28 1580.44,-82.22"/>
<polygon fill="#63b8ff" stroke="#63b8ff" points="1581.04,-85.67 1590.13,-80.24 1579.64,-78.81 1581.04,-85.67"/>
</g>
<!-- Node20&#45;&gt;Node15 -->
<g id="edge22" class="edge">
<title>Node20&#45;&gt;Node15</title>
<path fill="none" stroke="#63b8ff" d="M935.46,-123.38C964.02,-116.54 1008.72,-103.87 1044,-85 1062.97,-74.85 1062.79,-64.7 1082,-55 1121.94,-34.84 1172.15,-22.91 1206.21,-16.55"/>
<polygon fill="#63b8ff" stroke="#63b8ff" points="1206.82,-20 1216.05,-14.8 1205.59,-13.11 1206.82,-20"/>
</g>
<!-- Node20&#45;&gt;Node16 -->
<g id="edge23" class="edge">
<title>Node20&#45;&gt;Node16</title>
<path fill="none" stroke="#63b8ff" d="M935.13,-130.39C992.95,-131.21 1128.33,-127.94 1231,-85 1251.18,-76.56 1251.13,-66.06 1270,-55 1291.54,-42.38 1317.34,-31.31 1337.86,-23.38"/>
<polygon fill="#63b8ff" stroke="#63b8ff" points="1338.82,-26.76 1346.93,-19.95 1336.34,-20.21 1338.82,-26.76"/>
</g>
<!-- Node20&#45;&gt;Node19 -->
<g id="edge24" class="edge">
<title>Node20&#45;&gt;Node19</title>
<path fill="none" stroke="#63b8ff" d="M935.29,-129.86C1069.03,-131.29 1633.83,-134.35 1693,-85 1708.63,-71.96 1712.01,-47.91 1712.2,-30.66"/>
<polygon fill="#63b8ff" stroke="#63b8ff" points="1715.7,-30.73 1711.92,-20.83 1708.7,-30.93 1715.7,-30.73"/>
</g>
<!-- Node21 -->
<g id="node21" class="node">
<title>Node21</title>
<g id="a_node21"><a xlink:title=" ">
<polygon fill="#e0e0e0" stroke="#999999" points="1339,-79.5 1279,-79.5 1279,-60.5 1339,-60.5 1339,-79.5"/>
<text text-anchor="middle" x="1309" y="-67.5" font-family="Helvetica,sans-Serif" font-size="10.00">filesystem</text>
</a>
</g>
</g>
<!-- Node20&#45;&gt;Node21 -->
<g id="edge20" class="edge">
<title>Node20&#45;&gt;Node21</title>
<path fill="none" stroke="#63b8ff" d="M935.15,-127.77C995.95,-123.66 1143.87,-111.56 1265,-85 1267.48,-84.46 1270.02,-83.83 1272.57,-83.16"/>
<polygon fill="#63b8ff" stroke="#63b8ff" points="1273.54,-86.52 1282.17,-80.37 1271.59,-79.8 1273.54,-86.52"/>
</g>
<!-- Node22 -->
<g id="node22" class="node">
<title>Node22</title>
<g id="a_node22"><a xlink:title=" ">
<polygon fill="#e0e0e0" stroke="#999999" points="1407,-79.5 1357,-79.5 1357,-60.5 1407,-60.5 1407,-79.5"/>
<text text-anchor="middle" x="1382" y="-67.5" font-family="Helvetica,sans-Serif" font-size="10.00">fstream</text>
</a>
</g>
</g>
<!-- Node20&#45;&gt;Node22 -->
<g id="edge21" class="edge">
<title>Node20&#45;&gt;Node22</title>
<path fill="none" stroke="#63b8ff" d="M935.35,-129.46C1006.1,-128.76 1195.73,-123.17 1348,-85 1349.39,-84.65 1350.8,-84.25 1352.22,-83.82"/>
<polygon fill="#63b8ff" stroke="#63b8ff" points="1353.25,-87.17 1361.49,-80.5 1350.89,-80.58 1353.25,-87.17"/>
</g>
<!-- Node23 -->
<g id="node23" class="node">
<title>Node23</title>
<g id="a_node23"><a xlink:title=" ">
<polygon fill="#e0e0e0" stroke="#999999" points="1554.5,-79.5 1425.5,-79.5 1425.5,-60.5 1554.5,-60.5 1554.5,-79.5"/>
<text text-anchor="middle" x="1490" y="-67.5" font-family="Helvetica,sans-Serif" font-size="10.00">boost/log/expressions.hpp</text>
</a>
</g>
</g>
<!-- Node20&#45;&gt;Node23 -->
<g id="edge27" class="edge">
<title>Node20&#45;&gt;Node23</title>
<path fill="none" stroke="#63b8ff" d="M935.25,-128.02C1012.51,-123.77 1233.66,-110.15 1416,-85 1422.39,-84.12 1429.06,-83.06 1435.68,-81.92"/>
<polygon fill="#63b8ff" stroke="#63b8ff" points="1435.97,-85.42 1445.2,-80.21 1434.73,-78.53 1435.97,-85.42"/>
</g>
<!-- Node24 -->
<g id="node24" class="node">
<title>Node24</title>
<g id="a_node24"><a xlink:title=" ">
<polygon fill="#e0e0e0" stroke="#999999" points="892.5,-85 791.5,-85 791.5,-55 892.5,-55 892.5,-85"/>
<text text-anchor="start" x="799.5" y="-73" font-family="Helvetica,sans-Serif" font-size="10.00">boost/log/keywords</text>
<text text-anchor="middle" x="842" y="-62" font-family="Helvetica,sans-Serif" font-size="10.00">/severity.hpp</text>
</a>
</g>
</g>
<!-- Node20&#45;&gt;Node24 -->
<g id="edge28" class="edge">
<title>Node20&#45;&gt;Node24</title>
<path fill="none" stroke="#63b8ff" d="M897.13,-120.62C889.03,-113.32 877.2,-102.68 866.58,-93.12"/>
<polygon fill="#63b8ff" stroke="#63b8ff" points="868.94,-90.54 859.17,-86.45 864.26,-95.74 868.94,-90.54"/>
</g>
<!-- Node25 -->
<g id="node25" class="node">
<title>Node25</title>
<g id="a_node25"><a xlink:title=" ">
<polygon fill="#e0e0e0" stroke="#999999" points="1035,-85 911,-85 911,-55 1035,-55 1035,-85"/>
<text text-anchor="start" x="919" y="-73" font-family="Helvetica,sans-Serif" font-size="10.00">boost/log/sources/record</text>
<text text-anchor="middle" x="973" y="-62" font-family="Helvetica,sans-Serif" font-size="10.00">_ostream.hpp</text>
</a>
</g>
</g>
<!-- Node20&#45;&gt;Node25 -->
<g id="edge37" class="edge">
<title>Node20&#45;&gt;Node25</title>
<path fill="none" stroke="#63b8ff" d="M917.02,-120.62C925.33,-113.25 937.5,-102.47 948.37,-92.83"/>
<polygon fill="#63b8ff" stroke="#63b8ff" points="950.41,-95.7 955.58,-86.44 945.77,-90.46 950.41,-95.7"/>
</g>
<!-- Node26 -->
<g id="node26" class="node">
<title>Node26</title>
<g id="a_node26"><a xlink:title=" ">
<polygon fill="#e0e0e0" stroke="#999999" points="1222.5,-85 1091.5,-85 1091.5,-55 1222.5,-55 1222.5,-85"/>
<text text-anchor="start" x="1099.5" y="-73" font-family="Helvetica,sans-Serif" font-size="10.00">boost/log/sources/severity</text>
<text text-anchor="middle" x="1157" y="-62" font-family="Helvetica,sans-Serif" font-size="10.00">_logger.hpp</text>
</a>
</g>
</g>
<!-- Node20&#45;&gt;Node26 -->
<g id="edge38" class="edge">
<title>Node20&#45;&gt;Node26</title>
<path fill="none" stroke="#63b8ff" d="M935.19,-122.9C971.05,-114.51 1034.28,-99.72 1084.08,-88.06"/>
<polygon fill="#63b8ff" stroke="#63b8ff" points="1084.72,-91.51 1093.66,-85.82 1083.12,-84.69 1084.72,-91.51"/>
</g>
</g>
</svg>
