<?xml version="1.0" encoding="UTF-8" standalone="no"?>
<!DOCTYPE svg PUBLIC "-//W3C//DTD SVG 1.1//EN"
 "http://www.w3.org/Graphics/SVG/1.1/DTD/svg11.dtd">
<!-- Generated by graphviz version 7.0.5 (20221223.1930)
 -->
<!-- Title: FpgaMemBufferOverAxi.hpp Pages: 1 -->
<svg width="1546pt" height="203pt"
 viewBox="0.00 0.00 1546.00 203.00" xmlns="http://www.w3.org/2000/svg" xmlns:xlink="http://www.w3.org/1999/xlink">
<g id="graph0" class="graph" transform="scale(1 1) rotate(0) translate(4 199)">
<title>FpgaMemBufferOverAxi.hpp</title>
<!-- Node1 -->
<g id="node1" class="node">
<title>Node1</title>
<g id="a_node1"><a xlink:title=" ">
<polygon fill="#999999" stroke="#666666" points="657,-195 519,-195 519,-176 657,-176 657,-195"/>
<text text-anchor="middle" x="588" y="-183" font-family="Helvetica,sans-Serif" font-size="10.00">FpgaMemBufferOverAxi.hpp</text>
</a>
</g>
</g>
<!-- Node2 -->
<g id="node2" class="node">
<title>Node2</title>
<g id="a_node2"><a xlink:title=" ">
<polygon fill="#e0e0e0" stroke="#999999" points="453.5,-85 410.5,-85 410.5,-66 453.5,-66 453.5,-85"/>
<text text-anchor="middle" x="432" y="-73" font-family="Helvetica,sans-Serif" font-size="10.00">fcntl.h</text>
</a>
</g>
</g>
<!-- Node1&#45;&gt;Node2 -->
<g id="edge1" class="edge">
<title>Node1&#45;&gt;Node2</title>
<path fill="none" stroke="#63b8ff" d="M575.23,-175.66C548.72,-157.31 487.42,-114.87 454.26,-91.91"/>
<polygon fill="#63b8ff" stroke="#63b8ff" points="456.4,-89.14 446.19,-86.32 452.42,-94.89 456.4,-89.14"/>
</g>
<!-- Node3 -->
<g id="node3" class="node">
<title>Node3</title>
<g id="a_node3"><a xlink:title=" ">
<polygon fill="#e0e0e0" stroke="#999999" points="540.5,-85 471.5,-85 471.5,-66 540.5,-66 540.5,-85"/>
<text text-anchor="middle" x="506" y="-73" font-family="Helvetica,sans-Serif" font-size="10.00">sys/mman.h</text>
</a>
</g>
</g>
<!-- Node1&#45;&gt;Node3 -->
<g id="edge2" class="edge">
<title>Node1&#45;&gt;Node3</title>
<path fill="none" stroke="#63b8ff" d="M581.29,-175.66C567.84,-157.94 537.33,-117.77 519.56,-94.35"/>
<polygon fill="#63b8ff" stroke="#63b8ff" points="522.55,-92.51 513.72,-86.67 516.98,-96.75 522.55,-92.51"/>
</g>
<!-- Node4 -->
<g id="node4" class="node">
<title>Node4</title>
<g id="a_node4"><a xlink:title=" ">
<polygon fill="#e0e0e0" stroke="#999999" points="617.5,-85 558.5,-85 558.5,-66 617.5,-66 617.5,-85"/>
<text text-anchor="middle" x="588" y="-73" font-family="Helvetica,sans-Serif" font-size="10.00">sys/stat.h</text>
</a>
</g>
</g>
<!-- Node1&#45;&gt;Node4 -->
<g id="edge3" class="edge">
<title>Node1&#45;&gt;Node4</title>
<path fill="none" stroke="#63b8ff" d="M588,-175.66C588,-158.57 588,-120.61 588,-96.92"/>
<polygon fill="#63b8ff" stroke="#63b8ff" points="591.5,-96.97 588,-86.97 584.5,-96.97 591.5,-96.97"/>
</g>
<!-- Node5 -->
<g id="node5" class="node">
<title>Node5</title>
<g id="a_node5"><a xlink:title=" ">
<polygon fill="#e0e0e0" stroke="#999999" points="700.5,-85 635.5,-85 635.5,-66 700.5,-66 700.5,-85"/>
<text text-anchor="middle" x="668" y="-73" font-family="Helvetica,sans-Serif" font-size="10.00">sys/types.h</text>
</a>
</g>
</g>
<!-- Node1&#45;&gt;Node5 -->
<g id="edge4" class="edge">
<title>Node1&#45;&gt;Node5</title>
<path fill="none" stroke="#63b8ff" d="M594.55,-175.66C607.61,-158.02 637.17,-118.12 654.54,-94.67"/>
<polygon fill="#63b8ff" stroke="#63b8ff" points="657.32,-96.8 660.46,-86.68 651.7,-92.63 657.32,-96.8"/>
</g>
<!-- Node6 -->
<g id="node6" class="node">
<title>Node6</title>
<g id="a_node6"><a xlink:title=" ">
<polygon fill="#e0e0e0" stroke="#999999" points="769,-85 719,-85 719,-66 769,-66 769,-85"/>
<text text-anchor="middle" x="744" y="-73" font-family="Helvetica,sans-Serif" font-size="10.00">unistd.h</text>
</a>
</g>
</g>
<!-- Node1&#45;&gt;Node6 -->
<g id="edge5" class="edge">
<title>Node1&#45;&gt;Node6</title>
<path fill="none" stroke="#63b8ff" d="M600.77,-175.66C627.28,-157.31 688.58,-114.87 721.74,-91.91"/>
<polygon fill="#63b8ff" stroke="#63b8ff" points="723.58,-94.89 729.81,-86.32 719.6,-89.14 723.58,-94.89"/>
</g>
<!-- Node7 -->
<g id="node7" class="node">
<title>Node7</title>
<g id="a_node7"><a xlink:href="_dma_buffer_abstract_8hpp.html" target="_top" xlink:title=" ">
<polygon fill="white" stroke="#666666" points="253.5,-140 136.5,-140 136.5,-121 253.5,-121 253.5,-140"/>
<text text-anchor="middle" x="195" y="-128" font-family="Helvetica,sans-Serif" font-size="10.00">DmaBufferAbstract.hpp</text>
</a>
</g>
</g>
<!-- Node1&#45;&gt;Node7 -->
<g id="edge6" class="edge">
<title>Node1&#45;&gt;Node7</title>
<path fill="none" stroke="#63b8ff" d="M521.33,-175.51C450.14,-165.91 337.78,-150.76 265.24,-140.97"/>
<polygon fill="#63b8ff" stroke="#63b8ff" points="265.83,-137.52 255.45,-139.65 264.9,-144.46 265.83,-137.52"/>
</g>
<!-- Node17 -->
<g id="node17" class="node">
<title>Node17</title>
<g id="a_node17"><a xlink:href="_uio_if_8hpp.html" target="_top" xlink:title=" ">
<polygon fill="white" stroke="#666666" points="772,-140 716,-140 716,-121 772,-121 772,-140"/>
<text text-anchor="middle" x="744" y="-128" font-family="Helvetica,sans-Serif" font-size="10.00">UioIf.hpp</text>
</a>
</g>
</g>
<!-- Node1&#45;&gt;Node17 -->
<g id="edge16" class="edge">
<title>Node1&#45;&gt;Node17</title>
<path fill="none" stroke="#63b8ff" d="M614.46,-175.51C639.86,-166.88 678.47,-153.76 706.92,-144.1"/>
<polygon fill="#63b8ff" stroke="#63b8ff" points="707.89,-147.46 716.23,-140.93 705.64,-140.84 707.89,-147.46"/>
</g>
<!-- Node8 -->
<g id="node8" class="node">
<title>Node8</title>
<g id="a_node8"><a xlink:title=" ">
<polygon fill="#e0e0e0" stroke="#999999" points="46,-85 0,-85 0,-66 46,-66 46,-85"/>
<text text-anchor="middle" x="23" y="-73" font-family="Helvetica,sans-Serif" font-size="10.00">cstdint</text>
</a>
</g>
</g>
<!-- Node7&#45;&gt;Node8 -->
<g id="edge7" class="edge">
<title>Node7&#45;&gt;Node8</title>
<path fill="none" stroke="#63b8ff" d="M165.82,-120.51C135.78,-111.25 88.98,-96.83 57.21,-87.04"/>
<polygon fill="#63b8ff" stroke="#63b8ff" points="58.28,-83.71 47.69,-84.11 56.21,-90.4 58.28,-83.71"/>
</g>
<!-- Node9 -->
<g id="node9" class="node">
<title>Node9</title>
<g id="a_node9"><a xlink:title=" ">
<polygon fill="#e0e0e0" stroke="#999999" points="108,-85 64,-85 64,-66 108,-66 108,-85"/>
<text text-anchor="middle" x="86" y="-73" font-family="Helvetica,sans-Serif" font-size="10.00">vector</text>
</a>
</g>
</g>
<!-- Node7&#45;&gt;Node9 -->
<g id="edge8" class="edge">
<title>Node7&#45;&gt;Node9</title>
<path fill="none" stroke="#63b8ff" d="M176.51,-120.51C159.5,-112.24 134.01,-99.84 114.41,-90.31"/>
<polygon fill="#63b8ff" stroke="#63b8ff" points="116.1,-87.25 105.58,-86.02 113.04,-93.54 116.1,-87.25"/>
</g>
<!-- Node10 -->
<g id="node10" class="node">
<title>Node10</title>
<g id="a_node10"><a xlink:title=" ">
<polygon fill="#e0e0e0" stroke="#999999" points="263.5,-85 126.5,-85 126.5,-66 263.5,-66 263.5,-85"/>
<text text-anchor="middle" x="195" y="-73" font-family="Helvetica,sans-Serif" font-size="10.00">boost/core/noncopyable.hpp</text>
</a>
</g>
</g>
<!-- Node7&#45;&gt;Node10 -->
<g id="edge9" class="edge">
<title>Node7&#45;&gt;Node10</title>
<path fill="none" stroke="#63b8ff" d="M195,-120.75C195,-114.27 195,-105.16 195,-96.9"/>
<polygon fill="#63b8ff" stroke="#63b8ff" points="198.5,-96.96 195,-86.96 191.5,-96.96 198.5,-96.96"/>
</g>
<!-- Node11 -->
<g id="node11" class="node">
<title>Node11</title>
<g id="a_node11"><a xlink:href="_uio_config_8hpp.html" target="_top" xlink:title=" ">
<polygon fill="white" stroke="#666666" points="392.5,-85 281.5,-85 281.5,-66 392.5,-66 392.5,-85"/>
<text text-anchor="middle" x="337" y="-73" font-family="Helvetica,sans-Serif" font-size="10.00">udmaio/UioConfig.hpp</text>
</a>
</g>
</g>
<!-- Node7&#45;&gt;Node11 -->
<g id="edge10" class="edge">
<title>Node7&#45;&gt;Node11</title>
<path fill="none" stroke="#63b8ff" d="M219.09,-120.51C242.07,-111.93 276.94,-98.92 302.8,-89.27"/>
<polygon fill="#63b8ff" stroke="#63b8ff" points="303.7,-92.66 311.85,-85.89 301.26,-86.1 303.7,-92.66"/>
</g>
<!-- Node12 -->
<g id="node12" class="node">
<title>Node12</title>
<g id="a_node12"><a xlink:title=" ">
<polygon fill="#e0e0e0" stroke="#999999" points="547,-24.5 493,-24.5 493,-5.5 547,-5.5 547,-24.5"/>
<text text-anchor="middle" x="520" y="-12.5" font-family="Helvetica,sans-Serif" font-size="10.00">iostream</text>
</a>
</g>
</g>
<!-- Node11&#45;&gt;Node12 -->
<g id="edge11" class="edge">
<title>Node11&#45;&gt;Node12</title>
<path fill="none" stroke="#63b8ff" d="M364.79,-65.62C396.01,-55.64 446.87,-39.38 481.81,-28.21"/>
<polygon fill="#63b8ff" stroke="#63b8ff" points="482.64,-31.62 491.1,-25.24 480.51,-24.95 482.64,-31.62"/>
</g>
<!-- Node13 -->
<g id="node13" class="node">
<title>Node13</title>
<g id="a_node13"><a xlink:title=" ">
<polygon fill="#e0e0e0" stroke="#999999" points="463.5,-24.5 412.5,-24.5 412.5,-5.5 463.5,-5.5 463.5,-24.5"/>
<text text-anchor="middle" x="438" y="-12.5" font-family="Helvetica,sans-Serif" font-size="10.00">memory</text>
</a>
</g>
</g>
<!-- Node11&#45;&gt;Node13 -->
<g id="edge12" class="edge">
<title>Node11&#45;&gt;Node13</title>
<path fill="none" stroke="#63b8ff" d="M352.34,-65.62C368.36,-56.34 393.74,-41.63 412.73,-30.64"/>
<polygon fill="#63b8ff" stroke="#63b8ff" points="414.31,-33.77 421.21,-25.73 410.8,-27.71 414.31,-33.77"/>
</g>
<!-- Node14 -->
<g id="node14" class="node">
<title>Node14</title>
<g id="a_node14"><a xlink:title=" ">
<polygon fill="#e0e0e0" stroke="#999999" points="288.5,-24.5 229.5,-24.5 229.5,-5.5 288.5,-5.5 288.5,-24.5"/>
<text text-anchor="middle" x="259" y="-12.5" font-family="Helvetica,sans-Serif" font-size="10.00">stdexcept</text>
</a>
</g>
</g>
<!-- Node11&#45;&gt;Node14 -->
<g id="edge13" class="edge">
<title>Node11&#45;&gt;Node14</title>
<path fill="none" stroke="#63b8ff" d="M325.15,-65.62C313.24,-56.68 294.62,-42.72 280.17,-31.87"/>
<polygon fill="#63b8ff" stroke="#63b8ff" points="282.27,-29.08 272.17,-25.88 278.07,-34.68 282.27,-29.08"/>
</g>
<!-- Node15 -->
<g id="node15" class="node">
<title>Node15</title>
<g id="a_node15"><a xlink:title=" ">
<polygon fill="#e0e0e0" stroke="#999999" points="611.5,-24.5 570.5,-24.5 570.5,-5.5 611.5,-5.5 611.5,-24.5"/>
<text text-anchor="middle" x="591" y="-12.5" font-family="Helvetica,sans-Serif" font-size="10.00">string</text>
</a>
</g>
</g>
<!-- Node11&#45;&gt;Node15 -->
<g id="edge14" class="edge">
<title>Node11&#45;&gt;Node15</title>
<path fill="none" stroke="#63b8ff" d="M392.58,-66.05C437.26,-58.58 501.36,-46.34 556,-30 557.34,-29.6 558.7,-29.17 560.07,-28.71"/>
<polygon fill="#63b8ff" stroke="#63b8ff" points="560.87,-32.15 569.07,-25.44 558.47,-25.57 560.87,-32.15"/>
</g>
<!-- Node16 -->
<g id="node16" class="node">
<title>Node16</title>
<g id="a_node16"><a xlink:title=" ">
<polygon fill="#e0e0e0" stroke="#999999" points="373,-24.5 307,-24.5 307,-5.5 373,-5.5 373,-24.5"/>
<text text-anchor="middle" x="340" y="-12.5" font-family="Helvetica,sans-Serif" font-size="10.00">string_view</text>
</a>
</g>
</g>
<!-- Node11&#45;&gt;Node16 -->
<g id="edge15" class="edge">
<title>Node11&#45;&gt;Node16</title>
<path fill="none" stroke="#63b8ff" d="M337.44,-65.87C337.85,-58 338.46,-46.1 338.98,-35.89"/>
<polygon fill="#63b8ff" stroke="#63b8ff" points="342.46,-36.35 339.48,-26.18 335.47,-35.99 342.46,-36.35"/>
</g>
<!-- Node17&#45;&gt;Node2 -->
<g id="edge24" class="edge">
<title>Node17&#45;&gt;Node2</title>
<path fill="none" stroke="#63b8ff" d="M715.77,-126.18C666.66,-120.17 562.12,-106.29 465.06,-85.46"/>
<polygon fill="#63b8ff" stroke="#63b8ff" points="465.87,-82.06 455.36,-83.35 464.38,-88.9 465.87,-82.06"/>
</g>
<!-- Node17&#45;&gt;Node3 -->
<g id="edge25" class="edge">
<title>Node17&#45;&gt;Node3</title>
<path fill="none" stroke="#63b8ff" d="M715.76,-123.21C675.3,-114.2 600.35,-97.51 551.86,-86.71"/>
<polygon fill="#63b8ff" stroke="#63b8ff" points="552.74,-83.32 542.22,-84.57 551.22,-90.16 552.74,-83.32"/>
</g>
<!-- Node17&#45;&gt;Node4 -->
<g id="edge26" class="edge">
<title>Node17&#45;&gt;Node4</title>
<path fill="none" stroke="#63b8ff" d="M717.54,-120.51C692.14,-111.88 653.53,-98.76 625.08,-89.1"/>
<polygon fill="#63b8ff" stroke="#63b8ff" points="626.36,-85.84 615.77,-85.93 624.11,-92.46 626.36,-85.84"/>
</g>
<!-- Node17&#45;&gt;Node5 -->
<g id="edge27" class="edge">
<title>Node17&#45;&gt;Node5</title>
<path fill="none" stroke="#63b8ff" d="M731.11,-120.51C719.9,-112.7 703.43,-101.21 690.12,-91.93"/>
<polygon fill="#63b8ff" stroke="#63b8ff" points="692.15,-89.07 681.94,-86.22 688.14,-94.81 692.15,-89.07"/>
</g>
<!-- Node17&#45;&gt;Node6 -->
<g id="edge28" class="edge">
<title>Node17&#45;&gt;Node6</title>
<path fill="none" stroke="#63b8ff" d="M744,-120.75C744,-114.27 744,-105.16 744,-96.9"/>
<polygon fill="#63b8ff" stroke="#63b8ff" points="747.5,-96.96 744,-86.96 740.5,-96.96 747.5,-96.96"/>
</g>
<!-- Node17&#45;&gt;Node10 -->
<g id="edge23" class="edge">
<title>Node17&#45;&gt;Node10</title>
<path fill="none" stroke="#63b8ff" d="M715.52,-126.97C643.62,-120.56 448.68,-102.97 275.23,-85.32"/>
<polygon fill="#63b8ff" stroke="#63b8ff" points="275.65,-81.84 265.35,-84.31 274.94,-88.81 275.65,-81.84"/>
</g>
<!-- Node17&#45;&gt;Node11 -->
<g id="edge38" class="edge">
<title>Node17&#45;&gt;Node11</title>
<path fill="none" stroke="#63b8ff" d="M715.54,-125.84C658.54,-118.49 526.04,-101.4 404.22,-85.42"/>
<polygon fill="#63b8ff" stroke="#63b8ff" points="404.72,-81.96 394.35,-84.12 403.81,-88.9 404.72,-81.96"/>
</g>
<!-- Node17&#45;&gt;Node12 -->
<g id="edge19" class="edge">
<title>Node17&#45;&gt;Node12</title>
<path fill="none" stroke="#63b8ff" d="M765.84,-120.62C791.74,-108.84 829.26,-87.08 811,-66 774.25,-23.58 615.57,-43.13 561,-30 558.86,-29.49 556.68,-28.91 554.48,-28.28"/>
<polygon fill="#63b8ff" stroke="#63b8ff" points="555.66,-24.98 545.07,-25.35 553.58,-31.67 555.66,-24.98"/>
</g>
<!-- Node17&#45;&gt;Node13 -->
<g id="edge20" class="edge">
<title>Node17&#45;&gt;Node13</title>
<path fill="none" stroke="#63b8ff" d="M754.66,-120.92C769.54,-107.95 793.08,-83.04 778,-66 734.38,-16.71 548.39,-43.63 484,-30 480.86,-29.34 477.63,-28.55 474.4,-27.71"/>
<polygon fill="#63b8ff" stroke="#63b8ff" points="475.62,-24.41 465.04,-25.06 473.71,-31.15 475.62,-24.41"/>
</g>
<!-- Node17&#45;&gt;Node15 -->
<g id="edge21" class="edge">
<title>Node17&#45;&gt;Node15</title>
<path fill="none" stroke="#63b8ff" d="M772.21,-123.89C811.19,-114.91 874.06,-95.31 849,-66 815.52,-26.85 669.17,-45.36 620,-30 619.2,-29.75 618.39,-29.48 617.58,-29.2"/>
<polygon fill="#63b8ff" stroke="#63b8ff" points="619.19,-26.08 608.62,-25.45 616.49,-32.53 619.19,-26.08"/>
</g>
<!-- Node18 -->
<g id="node18" class="node">
<title>Node18</title>
<g id="a_node18"><a xlink:title=" ">
<polygon fill="#e0e0e0" stroke="#999999" points="1083,-85 1023,-85 1023,-66 1083,-66 1083,-85"/>
<text text-anchor="middle" x="1053" y="-73" font-family="Helvetica,sans-Serif" font-size="10.00">filesystem</text>
</a>
</g>
</g>
<!-- Node17&#45;&gt;Node18 -->
<g id="edge17" class="edge">
<title>Node17&#45;&gt;Node18</title>
<path fill="none" stroke="#63b8ff" d="M772.46,-125.3C819.91,-118.19 918.4,-102.99 1011.74,-85.35"/>
<polygon fill="#63b8ff" stroke="#63b8ff" points="1012.14,-88.84 1021.31,-83.53 1010.83,-81.96 1012.14,-88.84"/>
</g>
<!-- Node19 -->
<g id="node19" class="node">
<title>Node19</title>
<g id="a_node19"><a xlink:title=" ">
<polygon fill="#e0e0e0" stroke="#999999" points="1151,-85 1101,-85 1101,-66 1151,-66 1151,-85"/>
<text text-anchor="middle" x="1126" y="-73" font-family="Helvetica,sans-Serif" font-size="10.00">fstream</text>
</a>
</g>
</g>
<!-- Node17&#45;&gt;Node19 -->
<g id="edge18" class="edge">
<title>Node17&#45;&gt;Node19</title>
<path fill="none" stroke="#63b8ff" d="M772.14,-127.04C829.83,-121.74 965.8,-108.03 1089.64,-85.23"/>
<polygon fill="#63b8ff" stroke="#63b8ff" points="1090.15,-88.7 1099.33,-83.42 1088.86,-81.82 1090.15,-88.7"/>
</g>
<!-- Node20 -->
<g id="node20" class="node">
<title>Node20</title>
<g id="a_node20"><a xlink:title=" ">
<polygon fill="#e0e0e0" stroke="#999999" points="1231,-85 1169,-85 1169,-66 1231,-66 1231,-85"/>
<text text-anchor="middle" x="1200" y="-73" font-family="Helvetica,sans-Serif" font-size="10.00">type_traits</text>
</a>
</g>
</g>
<!-- Node17&#45;&gt;Node20 -->
<g id="edge22" class="edge">
<title>Node17&#45;&gt;Node20</title>
<path fill="none" stroke="#63b8ff" d="M772.38,-127.48C838.22,-122.57 1006.61,-108.78 1157.33,-85.27"/>
<polygon fill="#63b8ff" stroke="#63b8ff" points="1157.79,-88.74 1167.12,-83.72 1156.7,-81.83 1157.79,-88.74"/>
</g>
<!-- Node21 -->
<g id="node21" class="node">
<title>Node21</title>
<g id="a_node21"><a xlink:href="_logging_8hpp.html" target="_top" xlink:title=" ">
<polygon fill="white" stroke="#666666" points="1005,-85 901,-85 901,-66 1005,-66 1005,-85"/>
<text text-anchor="middle" x="953" y="-73" font-family="Helvetica,sans-Serif" font-size="10.00">udmaio/Logging.hpp</text>
</a>
</g>
</g>
<!-- Node17&#45;&gt;Node21 -->
<g id="edge29" class="edge">
<title>Node17&#45;&gt;Node21</title>
<path fill="none" stroke="#63b8ff" d="M772.19,-122.35C806.61,-113.62 865.33,-98.73 906.49,-88.3"/>
<polygon fill="#63b8ff" stroke="#63b8ff" points="907.29,-91.7 916.13,-85.85 905.57,-84.92 907.29,-91.7"/>
</g>
<!-- Node21&#45;&gt;Node15 -->
<g id="edge30" class="edge">
<title>Node21&#45;&gt;Node15</title>
<path fill="none" stroke="#63b8ff" d="M900.79,-67.74C808.75,-55.79 626.67,-32 620,-30 619.2,-29.76 618.39,-29.5 617.58,-29.22"/>
<polygon fill="#63b8ff" stroke="#63b8ff" points="619.18,-26.09 608.6,-25.51 616.5,-32.56 619.18,-26.09"/>
</g>
<!-- Node22 -->
<g id="node22" class="node">
<title>Node22</title>
<g id="a_node22"><a xlink:title=" ">
<polygon fill="#e0e0e0" stroke="#999999" points="1538,-24.5 1442,-24.5 1442,-5.5 1538,-5.5 1538,-24.5"/>
<text text-anchor="middle" x="1490" y="-12.5" font-family="Helvetica,sans-Serif" font-size="10.00">boost/log/core.hpp</text>
</a>
</g>
</g>
<!-- Node21&#45;&gt;Node22 -->
<g id="edge31" class="edge">
<title>Node21&#45;&gt;Node22</title>
<path fill="none" stroke="#63b8ff" d="M1005.22,-67.04C1008.19,-66.67 1011.13,-66.32 1014,-66 1199.74,-45.1 1248.58,-60.38 1433,-30 1437.34,-29.28 1441.84,-28.41 1446.33,-27.46"/>
<polygon fill="#63b8ff" stroke="#63b8ff" points="1446.88,-30.92 1455.85,-25.28 1445.32,-24.09 1446.88,-30.92"/>
</g>
<!-- Node23 -->
<g id="node23" class="node">
<title>Node23</title>
<g id="a_node23"><a xlink:title=" ">
<polygon fill="#e0e0e0" stroke="#999999" points="758.5,-24.5 629.5,-24.5 629.5,-5.5 758.5,-5.5 758.5,-24.5"/>
<text text-anchor="middle" x="694" y="-12.5" font-family="Helvetica,sans-Serif" font-size="10.00">boost/log/expressions.hpp</text>
</a>
</g>
</g>
<!-- Node21&#45;&gt;Node23 -->
<g id="edge32" class="edge">
<title>Node21&#45;&gt;Node23</title>
<path fill="none" stroke="#63b8ff" d="M913.38,-65.55C868.16,-55.34 794.08,-38.6 744.68,-27.45"/>
<polygon fill="#63b8ff" stroke="#63b8ff" points="745.62,-24.07 735.09,-25.28 744.07,-30.9 745.62,-24.07"/>
</g>
<!-- Node24 -->
<g id="node24" class="node">
<title>Node24</title>
<g id="a_node24"><a xlink:title=" ">
<polygon fill="#e0e0e0" stroke="#999999" points="877.5,-24.5 776.5,-24.5 776.5,-5.5 877.5,-5.5 877.5,-24.5"/>
<text text-anchor="middle" x="827" y="-12.5" font-family="Helvetica,sans-Serif" font-size="10.00">boost/log/trivial.hpp</text>
</a>
</g>
</g>
<!-- Node21&#45;&gt;Node24 -->
<g id="edge33" class="edge">
<title>Node21&#45;&gt;Node24</title>
<path fill="none" stroke="#63b8ff" d="M933.86,-65.62C913.33,-56.08 880.44,-40.81 856.57,-29.73"/>
<polygon fill="#63b8ff" stroke="#63b8ff" points="858.23,-26.64 847.69,-25.61 855.29,-32.99 858.23,-26.64"/>
</g>
<!-- Node25 -->
<g id="node25" class="node">
<title>Node25</title>
<g id="a_node25"><a xlink:title=" ">
<polygon fill="#e0e0e0" stroke="#999999" points="1004.5,-30 895.5,-30 895.5,0 1004.5,0 1004.5,-30"/>
<text text-anchor="start" x="903.5" y="-18" font-family="Helvetica,sans-Serif" font-size="10.00">boost/log/utility/setup</text>
<text text-anchor="middle" x="950" y="-7" font-family="Helvetica,sans-Serif" font-size="10.00">/console.hpp</text>
</a>
</g>
</g>
<!-- Node21&#45;&gt;Node25 -->
<g id="edge34" class="edge">
<title>Node21&#45;&gt;Node25</title>
<path fill="none" stroke="#63b8ff" d="M952.56,-65.87C952.23,-59.4 951.75,-50.2 951.31,-41.45"/>
<polygon fill="#63b8ff" stroke="#63b8ff" points="954.81,-41.43 950.8,-31.63 947.82,-41.79 954.81,-41.43"/>
</g>
<!-- Node26 -->
<g id="node26" class="node">
<title>Node26</title>
<g id="a_node26"><a xlink:title=" ">
<polygon fill="#e0e0e0" stroke="#999999" points="1153.5,-30 1022.5,-30 1022.5,0 1153.5,0 1153.5,-30"/>
<text text-anchor="start" x="1030.5" y="-18" font-family="Helvetica,sans-Serif" font-size="10.00">boost/log/sources/severity</text>
<text text-anchor="middle" x="1088" y="-7" font-family="Helvetica,sans-Serif" font-size="10.00">_channel_logger.hpp</text>
</a>
</g>
</g>
<!-- Node21&#45;&gt;Node26 -->
<g id="edge35" class="edge">
<title>Node21&#45;&gt;Node26</title>
<path fill="none" stroke="#63b8ff" d="M973.5,-65.62C992.18,-57.52 1020.39,-45.3 1044.13,-35.01"/>
<polygon fill="#63b8ff" stroke="#63b8ff" points="1045.51,-38.23 1053.29,-31.04 1042.72,-31.81 1045.51,-38.23"/>
</g>
<!-- Node27 -->
<g id="node27" class="node">
<title>Node27</title>
<g id="a_node27"><a xlink:title=" ">
<polygon fill="#e0e0e0" stroke="#999999" points="1284.5,-30 1171.5,-30 1171.5,0 1284.5,0 1284.5,-30"/>
<text text-anchor="start" x="1179.5" y="-18" font-family="Helvetica,sans-Serif" font-size="10.00">boost/log/support/date</text>
<text text-anchor="middle" x="1228" y="-7" font-family="Helvetica,sans-Serif" font-size="10.00">_time.hpp</text>
</a>
</g>
</g>
<!-- Node21&#45;&gt;Node27 -->
<g id="edge36" class="edge">
<title>Node21&#45;&gt;Node27</title>
<path fill="none" stroke="#63b8ff" d="M995.64,-65.51C1035.67,-57.06 1097.54,-43.97 1160.03,-30.63"/>
<polygon fill="#63b8ff" stroke="#63b8ff" points="1160.75,-34.06 1169.8,-28.54 1159.29,-27.21 1160.75,-34.06"/>
</g>
<!-- Node28 -->
<g id="node28" class="node">
<title>Node28</title>
<g id="a_node28"><a xlink:title=" ">
<polygon fill="#e0e0e0" stroke="#999999" points="1423.5,-30 1302.5,-30 1302.5,0 1423.5,0 1423.5,-30"/>
<text text-anchor="start" x="1310.5" y="-18" font-family="Helvetica,sans-Serif" font-size="10.00">boost/log/utility/setup</text>
<text text-anchor="middle" x="1363" y="-7" font-family="Helvetica,sans-Serif" font-size="10.00">/common_attributes.hpp</text>
</a>
</g>
</g>
<!-- Node21&#45;&gt;Node28 -->
<g id="edge37" class="edge">
<title>Node21&#45;&gt;Node28</title>
<path fill="none" stroke="#63b8ff" d="M1005.24,-67.18C1008.2,-66.78 1011.14,-66.38 1014,-66 1134.71,-49.83 1168.27,-50.44 1290.75,-30.47"/>
<polygon fill="#63b8ff" stroke="#63b8ff" points="1291.3,-33.93 1300.6,-28.85 1290.16,-27.02 1291.3,-33.93"/>
</g>
</g>
</svg>
