<?xml version="1.0" encoding="UTF-8" standalone="no"?>
<!DOCTYPE svg PUBLIC "-//W3C//DTD SVG 1.1//EN"
 "http://www.w3.org/Graphics/SVG/1.1/DTD/svg11.dtd">
<!-- Generated by graphviz version 7.0.5 (20221223.1930)
 -->
<!-- Title: FpgaMemBufferOverXdma.hpp Pages: 1 -->
<svg width="658pt" height="192pt"
 viewBox="0.00 0.00 657.50 192.00" xmlns="http://www.w3.org/2000/svg" xmlns:xlink="http://www.w3.org/1999/xlink">
<g id="graph0" class="graph" transform="scale(1 1) rotate(0) translate(4 188)">
<title>FpgaMemBufferOverXdma.hpp</title>
<!-- Node1 -->
<g id="node1" class="node">
<title>Node1</title>
<g id="a_node1"><a xlink:title=" ">
<polygon fill="#999999" stroke="#666666" points="205.5,-184 55.5,-184 55.5,-165 205.5,-165 205.5,-184"/>
<text text-anchor="middle" x="130.5" y="-172" font-family="Helvetica,sans-Serif" font-size="10.00">FpgaMemBufferOverXdma.hpp</text>
</a>
</g>
</g>
<!-- Node2 -->
<g id="node2" class="node">
<title>Node2</title>
<g id="a_node2"><a xlink:title=" ">
<polygon fill="#e0e0e0" stroke="#999999" points="43,-129 0,-129 0,-110 43,-110 43,-129"/>
<text text-anchor="middle" x="21.5" y="-117" font-family="Helvetica,sans-Serif" font-size="10.00">fcntl.h</text>
</a>
</g>
</g>
<!-- Node1&#45;&gt;Node2 -->
<g id="edge1" class="edge">
<title>Node1&#45;&gt;Node2</title>
<path fill="none" stroke="#63b8ff" d="M112.01,-164.51C95,-156.24 69.51,-143.84 49.91,-134.31"/>
<polygon fill="#63b8ff" stroke="#63b8ff" points="51.6,-131.25 41.08,-130.02 48.54,-137.54 51.6,-131.25"/>
</g>
<!-- Node3 -->
<g id="node3" class="node">
<title>Node3</title>
<g id="a_node3"><a xlink:title=" ">
<polygon fill="#e0e0e0" stroke="#999999" points="120,-129 61,-129 61,-110 120,-110 120,-129"/>
<text text-anchor="middle" x="90.5" y="-117" font-family="Helvetica,sans-Serif" font-size="10.00">sys/stat.h</text>
</a>
</g>
</g>
<!-- Node1&#45;&gt;Node3 -->
<g id="edge2" class="edge">
<title>Node1&#45;&gt;Node3</title>
<path fill="none" stroke="#63b8ff" d="M123.89,-164.75C118.54,-157.66 110.82,-147.42 104.15,-138.59"/>
<polygon fill="#63b8ff" stroke="#63b8ff" points="106.98,-136.52 98.16,-130.65 101.39,-140.74 106.98,-136.52"/>
</g>
<!-- Node4 -->
<g id="node4" class="node">
<title>Node4</title>
<g id="a_node4"><a xlink:title=" ">
<polygon fill="#e0e0e0" stroke="#999999" points="203,-129 138,-129 138,-110 203,-110 203,-129"/>
<text text-anchor="middle" x="170.5" y="-117" font-family="Helvetica,sans-Serif" font-size="10.00">sys/types.h</text>
</a>
</g>
</g>
<!-- Node1&#45;&gt;Node4 -->
<g id="edge3" class="edge">
<title>Node1&#45;&gt;Node4</title>
<path fill="none" stroke="#63b8ff" d="M137.11,-164.75C142.46,-157.66 150.18,-147.42 156.85,-138.59"/>
<polygon fill="#63b8ff" stroke="#63b8ff" points="159.61,-140.74 162.84,-130.65 154.02,-136.52 159.61,-140.74"/>
</g>
<!-- Node5 -->
<g id="node5" class="node">
<title>Node5</title>
<g id="a_node5"><a xlink:href="_dma_buffer_abstract_8hpp.html" target="_top" xlink:title=" ">
<polygon fill="white" stroke="#666666" points="338,-129 221,-129 221,-110 338,-110 338,-129"/>
<text text-anchor="middle" x="279.5" y="-117" font-family="Helvetica,sans-Serif" font-size="10.00">DmaBufferAbstract.hpp</text>
</a>
</g>
</g>
<!-- Node1&#45;&gt;Node5 -->
<g id="edge4" class="edge">
<title>Node1&#45;&gt;Node5</title>
<path fill="none" stroke="#63b8ff" d="M155.78,-164.51C180,-155.89 216.8,-142.8 243.97,-133.14"/>
<polygon fill="#63b8ff" stroke="#63b8ff" points="244.92,-136.51 253.17,-129.87 242.58,-129.92 244.92,-136.51"/>
</g>
<!-- Node6 -->
<g id="node6" class="node">
<title>Node6</title>
<g id="a_node6"><a xlink:title=" ">
<polygon fill="#e0e0e0" stroke="#999999" points="185.5,-74 139.5,-74 139.5,-55 185.5,-55 185.5,-74"/>
<text text-anchor="middle" x="162.5" y="-62" font-family="Helvetica,sans-Serif" font-size="10.00">cstdint</text>
</a>
</g>
</g>
<!-- Node5&#45;&gt;Node6 -->
<g id="edge5" class="edge">
<title>Node5&#45;&gt;Node6</title>
<path fill="none" stroke="#63b8ff" d="M259.65,-109.51C241.22,-101.16 213.52,-88.61 192.41,-79.05"/>
<polygon fill="#63b8ff" stroke="#63b8ff" points="193.99,-75.92 183.43,-74.98 191.1,-82.3 193.99,-75.92"/>
</g>
<!-- Node7 -->
<g id="node7" class="node">
<title>Node7</title>
<g id="a_node7"><a xlink:title=" ">
<polygon fill="#e0e0e0" stroke="#999999" points="247.5,-74 203.5,-74 203.5,-55 247.5,-55 247.5,-74"/>
<text text-anchor="middle" x="225.5" y="-62" font-family="Helvetica,sans-Serif" font-size="10.00">vector</text>
</a>
</g>
</g>
<!-- Node5&#45;&gt;Node7 -->
<g id="edge6" class="edge">
<title>Node5&#45;&gt;Node7</title>
<path fill="none" stroke="#63b8ff" d="M270.58,-109.75C263.05,-102.35 252.03,-91.54 242.77,-82.45"/>
<polygon fill="#63b8ff" stroke="#63b8ff" points="245.28,-80.01 235.69,-75.5 240.38,-85 245.28,-80.01"/>
</g>
<!-- Node8 -->
<g id="node8" class="node">
<title>Node8</title>
<g id="a_node8"><a xlink:title=" ">
<polygon fill="#e0e0e0" stroke="#999999" points="403,-74 266,-74 266,-55 403,-55 403,-74"/>
<text text-anchor="middle" x="334.5" y="-62" font-family="Helvetica,sans-Serif" font-size="10.00">boost/core/noncopyable.hpp</text>
</a>
</g>
</g>
<!-- Node5&#45;&gt;Node8 -->
<g id="edge7" class="edge">
<title>Node5&#45;&gt;Node8</title>
<path fill="none" stroke="#63b8ff" d="M288.58,-109.75C296.34,-102.27 307.71,-91.32 317.2,-82.17"/>
<polygon fill="#63b8ff" stroke="#63b8ff" points="319.36,-84.95 324.13,-75.49 314.5,-79.91 319.36,-84.95"/>
</g>
<!-- Node9 -->
<g id="node9" class="node">
<title>Node9</title>
<g id="a_node9"><a xlink:href="_uio_config_8hpp.html" target="_top" xlink:title=" ">
<polygon fill="white" stroke="#666666" points="532,-74 421,-74 421,-55 532,-55 532,-74"/>
<text text-anchor="middle" x="476.5" y="-62" font-family="Helvetica,sans-Serif" font-size="10.00">udmaio/UioConfig.hpp</text>
</a>
</g>
</g>
<!-- Node5&#45;&gt;Node9 -->
<g id="edge8" class="edge">
<title>Node5&#45;&gt;Node9</title>
<path fill="none" stroke="#63b8ff" d="M312.92,-109.51C345.85,-100.65 396.34,-87.07 432.52,-77.33"/>
<polygon fill="#63b8ff" stroke="#63b8ff" points="433.04,-80.82 441.79,-74.84 431.22,-74.06 433.04,-80.82"/>
</g>
<!-- Node10 -->
<g id="node10" class="node">
<title>Node10</title>
<g id="a_node10"><a xlink:title=" ">
<polygon fill="#e0e0e0" stroke="#999999" points="359.5,-19 305.5,-19 305.5,0 359.5,0 359.5,-19"/>
<text text-anchor="middle" x="332.5" y="-7" font-family="Helvetica,sans-Serif" font-size="10.00">iostream</text>
</a>
</g>
</g>
<!-- Node9&#45;&gt;Node10 -->
<g id="edge9" class="edge">
<title>Node9&#45;&gt;Node10</title>
<path fill="none" stroke="#63b8ff" d="M452.07,-54.51C428.76,-45.93 393.41,-32.92 367.19,-23.27"/>
<polygon fill="#63b8ff" stroke="#63b8ff" points="368.58,-20.05 357.99,-19.88 366.16,-26.62 368.58,-20.05"/>
</g>
<!-- Node11 -->
<g id="node11" class="node">
<title>Node11</title>
<g id="a_node11"><a xlink:title=" ">
<polygon fill="#e0e0e0" stroke="#999999" points="429,-19 378,-19 378,0 429,0 429,-19"/>
<text text-anchor="middle" x="403.5" y="-7" font-family="Helvetica,sans-Serif" font-size="10.00">memory</text>
</a>
</g>
</g>
<!-- Node9&#45;&gt;Node11 -->
<g id="edge10" class="edge">
<title>Node9&#45;&gt;Node11</title>
<path fill="none" stroke="#63b8ff" d="M464.12,-54.51C453.35,-46.7 437.53,-35.21 424.75,-25.93"/>
<polygon fill="#63b8ff" stroke="#63b8ff" points="427.07,-23.29 416.93,-20.25 422.96,-28.95 427.07,-23.29"/>
</g>
<!-- Node12 -->
<g id="node12" class="node">
<title>Node12</title>
<g id="a_node12"><a xlink:title=" ">
<polygon fill="#e0e0e0" stroke="#999999" points="506,-19 447,-19 447,0 506,0 506,-19"/>
<text text-anchor="middle" x="476.5" y="-7" font-family="Helvetica,sans-Serif" font-size="10.00">stdexcept</text>
</a>
</g>
</g>
<!-- Node9&#45;&gt;Node12 -->
<g id="edge11" class="edge">
<title>Node9&#45;&gt;Node12</title>
<path fill="none" stroke="#63b8ff" d="M476.5,-54.75C476.5,-48.27 476.5,-39.16 476.5,-30.9"/>
<polygon fill="#63b8ff" stroke="#63b8ff" points="480,-30.96 476.5,-20.96 473,-30.96 480,-30.96"/>
</g>
<!-- Node13 -->
<g id="node13" class="node">
<title>Node13</title>
<g id="a_node13"><a xlink:title=" ">
<polygon fill="#e0e0e0" stroke="#999999" points="565,-19 524,-19 524,0 565,0 565,-19"/>
<text text-anchor="middle" x="544.5" y="-7" font-family="Helvetica,sans-Serif" font-size="10.00">string</text>
</a>
</g>
</g>
<!-- Node9&#45;&gt;Node13 -->
<g id="edge12" class="edge">
<title>Node9&#45;&gt;Node13</title>
<path fill="none" stroke="#63b8ff" d="M488.04,-54.51C497.96,-46.77 512.51,-35.43 524.36,-26.2"/>
<polygon fill="#63b8ff" stroke="#63b8ff" points="526.21,-29.2 531.94,-20.29 521.9,-23.68 526.21,-29.2"/>
</g>
<!-- Node14 -->
<g id="node14" class="node">
<title>Node14</title>
<g id="a_node14"><a xlink:title=" ">
<polygon fill="#e0e0e0" stroke="#999999" points="649.5,-19 583.5,-19 583.5,0 649.5,0 649.5,-19"/>
<text text-anchor="middle" x="616.5" y="-7" font-family="Helvetica,sans-Serif" font-size="10.00">string_view</text>
</a>
</g>
</g>
<!-- Node9&#45;&gt;Node14 -->
<g id="edge13" class="edge">
<title>Node9&#45;&gt;Node14</title>
<path fill="none" stroke="#63b8ff" d="M500.25,-54.51C522.81,-45.97 556.97,-33.03 582.44,-23.4"/>
<polygon fill="#63b8ff" stroke="#63b8ff" points="583.57,-26.71 591.69,-19.89 581.09,-20.16 583.57,-26.71"/>
</g>
</g>
</svg>
