<?xml version="1.0" encoding="UTF-8" standalone="no"?>
<!DOCTYPE svg PUBLIC "-//W3C//DTD SVG 1.1//EN"
 "http://www.w3.org/Graphics/SVG/1.1/DTD/svg11.dtd">
<!-- Generated by graphviz version 7.0.5 (20221223.1930)
 -->
<!-- Title: FrameFormat.hpp Pages: 1 -->
<svg width="976pt" height="148pt"
 viewBox="0.00 0.00 976.00 148.00" xmlns="http://www.w3.org/2000/svg" xmlns:xlink="http://www.w3.org/1999/xlink">
<g id="graph0" class="graph" transform="scale(1 1) rotate(0) translate(4 144)">
<title>FrameFormat.hpp</title>
<!-- Node1 -->
<g id="node1" class="node">
<title>Node1</title>
<g id="a_node1"><a xlink:title=" ">
<polygon fill="#999999" stroke="#666666" points="176,-140 83,-140 83,-121 176,-121 176,-140"/>
<text text-anchor="middle" x="129.5" y="-128" font-family="Helvetica,sans-Serif" font-size="10.00">FrameFormat.hpp</text>
</a>
</g>
</g>
<!-- Node2 -->
<g id="node2" class="node">
<title>Node2</title>
<g id="a_node2"><a xlink:title=" ">
<polygon fill="#e0e0e0" stroke="#999999" points="63,-85 14,-85 14,-66 63,-66 63,-85"/>
<text text-anchor="middle" x="38.5" y="-73" font-family="Helvetica,sans-Serif" font-size="10.00">cstddef</text>
</a>
</g>
</g>
<!-- Node1&#45;&gt;Node2 -->
<g id="edge1" class="edge">
<title>Node1&#45;&gt;Node2</title>
<path fill="none" stroke="#63b8ff" d="M114.06,-120.51C100.25,-112.47 79.75,-100.53 63.59,-91.11"/>
<polygon fill="#63b8ff" stroke="#63b8ff" points="65.42,-88.13 55.02,-86.12 61.9,-94.18 65.42,-88.13"/>
</g>
<!-- Node3 -->
<g id="node3" class="node">
<title>Node3</title>
<g id="a_node3"><a xlink:title=" ">
<polygon fill="#e0e0e0" stroke="#999999" points="127.5,-85 81.5,-85 81.5,-66 127.5,-66 127.5,-85"/>
<text text-anchor="middle" x="104.5" y="-73" font-family="Helvetica,sans-Serif" font-size="10.00">cstdint</text>
</a>
</g>
</g>
<!-- Node1&#45;&gt;Node3 -->
<g id="edge2" class="edge">
<title>Node1&#45;&gt;Node3</title>
<path fill="none" stroke="#63b8ff" d="M125.37,-120.75C122.17,-113.96 117.61,-104.3 113.57,-95.73"/>
<polygon fill="#63b8ff" stroke="#63b8ff" points="116.8,-94.36 109.36,-86.81 110.46,-97.35 116.8,-94.36"/>
</g>
<!-- Node4 -->
<g id="node4" class="node">
<title>Node4</title>
<g id="a_node4"><a xlink:title=" ">
<polygon fill="#e0e0e0" stroke="#999999" points="41,-24.5 0,-24.5 0,-5.5 41,-5.5 41,-24.5"/>
<text text-anchor="middle" x="20.5" y="-12.5" font-family="Helvetica,sans-Serif" font-size="10.00">string</text>
</a>
</g>
</g>
<!-- Node1&#45;&gt;Node4 -->
<g id="edge3" class="edge">
<title>Node1&#45;&gt;Node4</title>
<path fill="none" stroke="#63b8ff" d="M133.72,-120.86C139.43,-107.81 147.68,-82.8 136.5,-66 113.54,-31.5 88.39,-46.76 50.5,-30 50.16,-29.85 49.81,-29.69 49.46,-29.54"/>
<polygon fill="#63b8ff" stroke="#63b8ff" points="51.1,-26.44 40.55,-25.48 48.2,-32.81 51.1,-26.44"/>
</g>
<!-- Node5 -->
<g id="node5" class="node">
<title>Node5</title>
<g id="a_node5"><a xlink:href="_logging_8hpp.html" target="_top" xlink:title=" ">
<polygon fill="white" stroke="#666666" points="423.5,-85 319.5,-85 319.5,-66 423.5,-66 423.5,-85"/>
<text text-anchor="middle" x="371.5" y="-73" font-family="Helvetica,sans-Serif" font-size="10.00">udmaio/Logging.hpp</text>
</a>
</g>
</g>
<!-- Node1&#45;&gt;Node5 -->
<g id="edge4" class="edge">
<title>Node1&#45;&gt;Node5</title>
<path fill="none" stroke="#63b8ff" d="M170.55,-120.51C211.61,-111.52 274.91,-97.65 319.47,-87.9"/>
<polygon fill="#63b8ff" stroke="#63b8ff" points="320.15,-91.33 329.17,-85.77 318.66,-84.49 320.15,-91.33"/>
</g>
<!-- Node5&#45;&gt;Node4 -->
<g id="edge5" class="edge">
<title>Node5&#45;&gt;Node4</title>
<path fill="none" stroke="#63b8ff" d="M319.07,-72.04C254.67,-67.92 142.63,-57.21 50.5,-30 49.54,-29.72 48.56,-29.4 47.59,-29.07"/>
<polygon fill="#63b8ff" stroke="#63b8ff" points="49.28,-25.98 38.69,-25.47 46.65,-32.47 49.28,-25.98"/>
</g>
<!-- Node6 -->
<g id="node6" class="node">
<title>Node6</title>
<g id="a_node6"><a xlink:title=" ">
<polygon fill="#e0e0e0" stroke="#999999" points="155.5,-24.5 59.5,-24.5 59.5,-5.5 155.5,-5.5 155.5,-24.5"/>
<text text-anchor="middle" x="107.5" y="-12.5" font-family="Helvetica,sans-Serif" font-size="10.00">boost/log/core.hpp</text>
</a>
</g>
</g>
<!-- Node5&#45;&gt;Node6 -->
<g id="edge6" class="edge">
<title>Node5&#45;&gt;Node6</title>
<path fill="none" stroke="#63b8ff" d="M328.2,-65.58C286.27,-56.84 220.92,-42.99 164.5,-30 161.18,-29.24 157.76,-28.43 154.31,-27.61"/>
<polygon fill="#63b8ff" stroke="#63b8ff" points="155.35,-24.26 144.81,-25.33 153.72,-31.07 155.35,-24.26"/>
</g>
<!-- Node7 -->
<g id="node7" class="node">
<title>Node7</title>
<g id="a_node7"><a xlink:title=" ">
<polygon fill="#e0e0e0" stroke="#999999" points="303,-24.5 174,-24.5 174,-5.5 303,-5.5 303,-24.5"/>
<text text-anchor="middle" x="238.5" y="-12.5" font-family="Helvetica,sans-Serif" font-size="10.00">boost/log/expressions.hpp</text>
</a>
</g>
</g>
<!-- Node5&#45;&gt;Node7 -->
<g id="edge7" class="edge">
<title>Node5&#45;&gt;Node7</title>
<path fill="none" stroke="#63b8ff" d="M351.3,-65.62C329.52,-56.04 294.6,-40.68 269.38,-29.58"/>
<polygon fill="#63b8ff" stroke="#63b8ff" points="270.84,-26.4 260.28,-25.58 268.02,-32.81 270.84,-26.4"/>
</g>
<!-- Node8 -->
<g id="node8" class="node">
<title>Node8</title>
<g id="a_node8"><a xlink:title=" ">
<polygon fill="#e0e0e0" stroke="#999999" points="422,-24.5 321,-24.5 321,-5.5 422,-5.5 422,-24.5"/>
<text text-anchor="middle" x="371.5" y="-12.5" font-family="Helvetica,sans-Serif" font-size="10.00">boost/log/trivial.hpp</text>
</a>
</g>
</g>
<!-- Node5&#45;&gt;Node8 -->
<g id="edge8" class="edge">
<title>Node5&#45;&gt;Node8</title>
<path fill="none" stroke="#63b8ff" d="M371.5,-65.87C371.5,-58 371.5,-46.1 371.5,-35.89"/>
<polygon fill="#63b8ff" stroke="#63b8ff" points="375,-36.18 371.5,-26.18 368,-36.18 375,-36.18"/>
</g>
<!-- Node9 -->
<g id="node9" class="node">
<title>Node9</title>
<g id="a_node9"><a xlink:title=" ">
<polygon fill="#e0e0e0" stroke="#999999" points="549,-30 440,-30 440,0 549,0 549,-30"/>
<text text-anchor="start" x="448" y="-18" font-family="Helvetica,sans-Serif" font-size="10.00">boost/log/utility/setup</text>
<text text-anchor="middle" x="494.5" y="-7" font-family="Helvetica,sans-Serif" font-size="10.00">/console.hpp</text>
</a>
</g>
</g>
<!-- Node5&#45;&gt;Node9 -->
<g id="edge9" class="edge">
<title>Node5&#45;&gt;Node9</title>
<path fill="none" stroke="#63b8ff" d="M390.18,-65.62C407.05,-57.59 432.44,-45.52 453.95,-35.29"/>
<polygon fill="#63b8ff" stroke="#63b8ff" points="455.25,-38.55 462.77,-31.09 452.24,-32.22 455.25,-38.55"/>
</g>
<!-- Node10 -->
<g id="node10" class="node">
<title>Node10</title>
<g id="a_node10"><a xlink:title=" ">
<polygon fill="#e0e0e0" stroke="#999999" points="698,-30 567,-30 567,0 698,0 698,-30"/>
<text text-anchor="start" x="575" y="-18" font-family="Helvetica,sans-Serif" font-size="10.00">boost/log/sources/severity</text>
<text text-anchor="middle" x="632.5" y="-7" font-family="Helvetica,sans-Serif" font-size="10.00">_channel_logger.hpp</text>
</a>
</g>
</g>
<!-- Node5&#45;&gt;Node10 -->
<g id="edge10" class="edge">
<title>Node5&#45;&gt;Node10</title>
<path fill="none" stroke="#63b8ff" d="M411.42,-65.55C449.96,-56.91 509.29,-43.62 556.79,-32.97"/>
<polygon fill="#63b8ff" stroke="#63b8ff" points="557.5,-36.4 566.49,-30.79 555.97,-29.57 557.5,-36.4"/>
</g>
<!-- Node11 -->
<g id="node11" class="node">
<title>Node11</title>
<g id="a_node11"><a xlink:title=" ">
<polygon fill="#e0e0e0" stroke="#999999" points="829,-30 716,-30 716,0 829,0 829,-30"/>
<text text-anchor="start" x="724" y="-18" font-family="Helvetica,sans-Serif" font-size="10.00">boost/log/support/date</text>
<text text-anchor="middle" x="772.5" y="-7" font-family="Helvetica,sans-Serif" font-size="10.00">_time.hpp</text>
</a>
</g>
</g>
<!-- Node5&#45;&gt;Node11 -->
<g id="edge11" class="edge">
<title>Node5&#45;&gt;Node11</title>
<path fill="none" stroke="#63b8ff" d="M423.79,-68.9C487.78,-61.74 599.66,-48.3 704.71,-30.4"/>
<polygon fill="#63b8ff" stroke="#63b8ff" points="705.08,-33.89 714.34,-28.74 703.89,-26.99 705.08,-33.89"/>
</g>
<!-- Node12 -->
<g id="node12" class="node">
<title>Node12</title>
<g id="a_node12"><a xlink:title=" ">
<polygon fill="#e0e0e0" stroke="#999999" points="968,-30 847,-30 847,0 968,0 968,-30"/>
<text text-anchor="start" x="855" y="-18" font-family="Helvetica,sans-Serif" font-size="10.00">boost/log/utility/setup</text>
<text text-anchor="middle" x="907.5" y="-7" font-family="Helvetica,sans-Serif" font-size="10.00">/common_attributes.hpp</text>
</a>
</g>
</g>
<!-- Node5&#45;&gt;Node12 -->
<g id="edge12" class="edge">
<title>Node5&#45;&gt;Node12</title>
<path fill="none" stroke="#63b8ff" d="M423.89,-71.31C508.48,-65.77 680.55,-52.87 835.48,-30.35"/>
<polygon fill="#63b8ff" stroke="#63b8ff" points="835.73,-33.86 845.11,-28.94 834.71,-26.93 835.73,-33.86"/>
</g>
</g>
</svg>
