<?xml version="1.0" encoding="UTF-8" standalone="no"?>
<!DOCTYPE svg PUBLIC "-//W3C//DTD SVG 1.1//EN"
 "http://www.w3.org/Graphics/SVG/1.1/DTD/svg11.dtd">
<!-- Generated by graphviz version 7.0.5 (20221223.1930)
 -->
<!-- Title: HwAccessor.hpp Pages: 1 -->
<svg width="1304pt" height="148pt"
 viewBox="0.00 0.00 1304.00 148.00" xmlns="http://www.w3.org/2000/svg" xmlns:xlink="http://www.w3.org/1999/xlink">
<g id="graph0" class="graph" transform="scale(1 1) rotate(0) translate(4 144)">
<title>HwAccessor.hpp</title>
<!-- Node1 -->
<g id="node1" class="node">
<title>Node1</title>
<g id="a_node1"><a xlink:title=" ">
<polygon fill="#999999" stroke="#666666" points="495.5,-140 404.5,-140 404.5,-121 495.5,-121 495.5,-140"/>
<text text-anchor="middle" x="450" y="-128" font-family="Helvetica,sans-Serif" font-size="10.00">HwAccessor.hpp</text>
</a>
</g>
</g>
<!-- Node2 -->
<g id="node2" class="node">
<title>Node2</title>
<g id="a_node2"><a xlink:title=" ">
<polygon fill="#e0e0e0" stroke="#999999" points="60,-85 0,-85 0,-66 60,-66 60,-85"/>
<text text-anchor="middle" x="30" y="-73" font-family="Helvetica,sans-Serif" font-size="10.00">filesystem</text>
</a>
</g>
</g>
<!-- Node1&#45;&gt;Node2 -->
<g id="edge1" class="edge">
<title>Node1&#45;&gt;Node2</title>
<path fill="none" stroke="#63b8ff" d="M404.05,-125.6C334.28,-119.37 197.25,-105.86 71.17,-85.21"/>
<polygon fill="#63b8ff" stroke="#63b8ff" points="72.11,-81.82 61.67,-83.63 70.96,-88.72 72.11,-81.82"/>
</g>
<!-- Node3 -->
<g id="node3" class="node">
<title>Node3</title>
<g id="a_node3"><a xlink:title=" ">
<polygon fill="#e0e0e0" stroke="#999999" points="128,-85 78,-85 78,-66 128,-66 128,-85"/>
<text text-anchor="middle" x="103" y="-73" font-family="Helvetica,sans-Serif" font-size="10.00">fstream</text>
</a>
</g>
</g>
<!-- Node1&#45;&gt;Node3 -->
<g id="edge2" class="edge">
<title>Node1&#45;&gt;Node3</title>
<path fill="none" stroke="#63b8ff" d="M404.17,-123.91C343.86,-116.32 234.64,-101.77 142,-85 141.02,-84.82 140.02,-84.64 139.01,-84.45"/>
<polygon fill="#63b8ff" stroke="#63b8ff" points="140.1,-81.1 129.61,-82.55 138.72,-87.96 140.1,-81.1"/>
</g>
<!-- Node4 -->
<g id="node4" class="node">
<title>Node4</title>
<g id="a_node4"><a xlink:title=" ">
<polygon fill="#e0e0e0" stroke="#999999" points="79,-24.5 25,-24.5 25,-5.5 79,-5.5 79,-24.5"/>
<text text-anchor="middle" x="52" y="-12.5" font-family="Helvetica,sans-Serif" font-size="10.00">iostream</text>
</a>
</g>
</g>
<!-- Node1&#45;&gt;Node4 -->
<g id="edge3" class="edge">
<title>Node1&#45;&gt;Node4</title>
<path fill="none" stroke="#63b8ff" d="M404.39,-126.84C349.22,-122.55 254.15,-111.68 177,-85 156.67,-77.97 106.46,-48.76 76.23,-30.68"/>
<polygon fill="#63b8ff" stroke="#63b8ff" points="78.12,-27.73 67.74,-25.58 74.51,-33.73 78.12,-27.73"/>
</g>
<!-- Node5 -->
<g id="node5" class="node">
<title>Node5</title>
<g id="a_node5"><a xlink:title=" ">
<polygon fill="#e0e0e0" stroke="#999999" points="148.5,-24.5 97.5,-24.5 97.5,-5.5 148.5,-5.5 148.5,-24.5"/>
<text text-anchor="middle" x="123" y="-12.5" font-family="Helvetica,sans-Serif" font-size="10.00">memory</text>
</a>
</g>
</g>
<!-- Node1&#45;&gt;Node5 -->
<g id="edge4" class="edge">
<title>Node1&#45;&gt;Node5</title>
<path fill="none" stroke="#63b8ff" d="M404.02,-127.2C354.84,-123.31 275.5,-112.9 213,-85 184.48,-72.27 156.75,-48.82 139.78,-32.83"/>
<polygon fill="#63b8ff" stroke="#63b8ff" points="142.23,-30.33 132.61,-25.88 137.35,-35.35 142.23,-30.33"/>
</g>
<!-- Node6 -->
<g id="node6" class="node">
<title>Node6</title>
<g id="a_node6"><a xlink:title=" ">
<polygon fill="#e0e0e0" stroke="#999999" points="369.5,-24.5 328.5,-24.5 328.5,-5.5 369.5,-5.5 369.5,-24.5"/>
<text text-anchor="middle" x="349" y="-12.5" font-family="Helvetica,sans-Serif" font-size="10.00">string</text>
</a>
</g>
</g>
<!-- Node1&#45;&gt;Node6 -->
<g id="edge5" class="edge">
<title>Node1&#45;&gt;Node6</title>
<path fill="none" stroke="#63b8ff" d="M434.32,-120.61C421.09,-112.55 402.24,-99.71 389,-85 375.55,-70.06 364.49,-49.87 357.44,-35.19"/>
<polygon fill="#63b8ff" stroke="#63b8ff" points="360.65,-33.81 353.3,-26.19 354.29,-36.73 360.65,-33.81"/>
</g>
<!-- Node7 -->
<g id="node7" class="node">
<title>Node7</title>
<g id="a_node7"><a xlink:title=" ">
<polygon fill="#e0e0e0" stroke="#999999" points="657.5,-85 520.5,-85 520.5,-66 657.5,-66 657.5,-85"/>
<text text-anchor="middle" x="589" y="-73" font-family="Helvetica,sans-Serif" font-size="10.00">boost/core/noncopyable.hpp</text>
</a>
</g>
</g>
<!-- Node1&#45;&gt;Node7 -->
<g id="edge6" class="edge">
<title>Node1&#45;&gt;Node7</title>
<path fill="none" stroke="#63b8ff" d="M473.58,-120.51C495.98,-111.97 529.9,-99.03 555.18,-89.4"/>
<polygon fill="#63b8ff" stroke="#63b8ff" points="556.26,-92.73 564.35,-85.9 553.76,-86.19 556.26,-92.73"/>
</g>
<!-- Node8 -->
<g id="node8" class="node">
<title>Node8</title>
<g id="a_node8"><a xlink:title=" ">
<polygon fill="#e0e0e0" stroke="#999999" points="718.5,-85 675.5,-85 675.5,-66 718.5,-66 718.5,-85"/>
<text text-anchor="middle" x="697" y="-73" font-family="Helvetica,sans-Serif" font-size="10.00">fcntl.h</text>
</a>
</g>
</g>
<!-- Node1&#45;&gt;Node8 -->
<g id="edge7" class="edge">
<title>Node1&#45;&gt;Node8</title>
<path fill="none" stroke="#63b8ff" d="M495.94,-121.1C537.6,-113.25 600.94,-100.76 664.13,-85.57"/>
<polygon fill="#63b8ff" stroke="#63b8ff" points="664.73,-89.03 673.62,-83.27 663.08,-82.23 664.73,-89.03"/>
</g>
<!-- Node9 -->
<g id="node9" class="node">
<title>Node9</title>
<g id="a_node9"><a xlink:title=" ">
<polygon fill="#e0e0e0" stroke="#999999" points="805.5,-85 736.5,-85 736.5,-66 805.5,-66 805.5,-85"/>
<text text-anchor="middle" x="771" y="-73" font-family="Helvetica,sans-Serif" font-size="10.00">sys/mman.h</text>
</a>
</g>
</g>
<!-- Node1&#45;&gt;Node9 -->
<g id="edge8" class="edge">
<title>Node1&#45;&gt;Node9</title>
<path fill="none" stroke="#63b8ff" d="M495.84,-122.69C548.75,-114.7 638.68,-100.78 725.21,-85.45"/>
<polygon fill="#63b8ff" stroke="#63b8ff" points="725.57,-88.94 734.8,-83.74 724.34,-82.05 725.57,-88.94"/>
</g>
<!-- Node10 -->
<g id="node10" class="node">
<title>Node10</title>
<g id="a_node10"><a xlink:title=" ">
<polygon fill="#e0e0e0" stroke="#999999" points="882.5,-85 823.5,-85 823.5,-66 882.5,-66 882.5,-85"/>
<text text-anchor="middle" x="853" y="-73" font-family="Helvetica,sans-Serif" font-size="10.00">sys/stat.h</text>
</a>
</g>
</g>
<!-- Node1&#45;&gt;Node10 -->
<g id="edge9" class="edge">
<title>Node1&#45;&gt;Node10</title>
<path fill="none" stroke="#63b8ff" d="M495.73,-125.39C562.97,-119.02 692.66,-105.53 812.04,-85.37"/>
<polygon fill="#63b8ff" stroke="#63b8ff" points="812.43,-88.85 821.69,-83.72 811.25,-81.95 812.43,-88.85"/>
</g>
<!-- Node11 -->
<g id="node11" class="node">
<title>Node11</title>
<g id="a_node11"><a xlink:title=" ">
<polygon fill="#e0e0e0" stroke="#999999" points="965.5,-85 900.5,-85 900.5,-66 965.5,-66 965.5,-85"/>
<text text-anchor="middle" x="933" y="-73" font-family="Helvetica,sans-Serif" font-size="10.00">sys/types.h</text>
</a>
</g>
</g>
<!-- Node1&#45;&gt;Node11 -->
<g id="edge10" class="edge">
<title>Node1&#45;&gt;Node11</title>
<path fill="none" stroke="#63b8ff" d="M495.69,-126.48C574.16,-120.94 739.77,-107.76 889.2,-85.29"/>
<polygon fill="#63b8ff" stroke="#63b8ff" points="889.53,-88.78 898.89,-83.81 888.47,-81.86 889.53,-88.78"/>
</g>
<!-- Node12 -->
<g id="node12" class="node">
<title>Node12</title>
<g id="a_node12"><a xlink:title=" ">
<polygon fill="#e0e0e0" stroke="#999999" points="1034,-85 984,-85 984,-66 1034,-66 1034,-85"/>
<text text-anchor="middle" x="1009" y="-73" font-family="Helvetica,sans-Serif" font-size="10.00">unistd.h</text>
</a>
</g>
</g>
<!-- Node1&#45;&gt;Node12 -->
<g id="edge11" class="edge">
<title>Node1&#45;&gt;Node12</title>
<path fill="none" stroke="#63b8ff" d="M495.95,-128.08C585.79,-124.78 791.06,-114.6 972.74,-85.1"/>
<polygon fill="#63b8ff" stroke="#63b8ff" points="973.05,-88.59 982.35,-83.51 971.91,-81.69 973.05,-88.59"/>
</g>
<!-- Node13 -->
<g id="node13" class="node">
<title>Node13</title>
<g id="a_node13"><a xlink:href="_logging_8hpp.html" target="_top" xlink:title=" ">
<polygon fill="white" stroke="#666666" points="502,-85 398,-85 398,-66 502,-66 502,-85"/>
<text text-anchor="middle" x="450" y="-73" font-family="Helvetica,sans-Serif" font-size="10.00">udmaio/Logging.hpp</text>
</a>
</g>
</g>
<!-- Node1&#45;&gt;Node13 -->
<g id="edge12" class="edge">
<title>Node1&#45;&gt;Node13</title>
<path fill="none" stroke="#63b8ff" d="M450,-120.75C450,-114.27 450,-105.16 450,-96.9"/>
<polygon fill="#63b8ff" stroke="#63b8ff" points="453.5,-96.96 450,-86.96 446.5,-96.96 453.5,-96.96"/>
</g>
<!-- Node21 -->
<g id="node21" class="node">
<title>Node21</title>
<g id="a_node21"><a xlink:href="_uio_config_8hpp.html" target="_top" xlink:title=" ">
<polygon fill="white" stroke="#666666" points="333.5,-85 222.5,-85 222.5,-66 333.5,-66 333.5,-85"/>
<text text-anchor="middle" x="278" y="-73" font-family="Helvetica,sans-Serif" font-size="10.00">udmaio/UioConfig.hpp</text>
</a>
</g>
</g>
<!-- Node1&#45;&gt;Node21 -->
<g id="edge21" class="edge">
<title>Node1&#45;&gt;Node21</title>
<path fill="none" stroke="#63b8ff" d="M420.82,-120.51C392.44,-111.76 349.12,-98.42 317.63,-88.71"/>
<polygon fill="#63b8ff" stroke="#63b8ff" points="319.07,-85.49 308.48,-85.89 317.01,-92.18 319.07,-85.49"/>
</g>
<!-- Node13&#45;&gt;Node6 -->
<g id="edge13" class="edge">
<title>Node13&#45;&gt;Node6</title>
<path fill="none" stroke="#63b8ff" d="M434.66,-65.62C418.64,-56.34 393.26,-41.63 374.27,-30.64"/>
<polygon fill="#63b8ff" stroke="#63b8ff" points="376.2,-27.71 365.79,-25.73 372.69,-33.77 376.2,-27.71"/>
</g>
<!-- Node14 -->
<g id="node14" class="node">
<title>Node14</title>
<g id="a_node14"><a xlink:title=" ">
<polygon fill="#e0e0e0" stroke="#999999" points="1296,-24.5 1200,-24.5 1200,-5.5 1296,-5.5 1296,-24.5"/>
<text text-anchor="middle" x="1248" y="-12.5" font-family="Helvetica,sans-Serif" font-size="10.00">boost/log/core.hpp</text>
</a>
</g>
</g>
<!-- Node13&#45;&gt;Node14 -->
<g id="edge14" class="edge">
<title>Node13&#45;&gt;Node14</title>
<path fill="none" stroke="#63b8ff" d="M502.39,-67C505.64,-66.64 508.86,-66.3 512,-66 812.85,-37.45 892.05,-74.24 1191,-30 1195.59,-29.32 1200.36,-28.44 1205.08,-27.45"/>
<polygon fill="#63b8ff" stroke="#63b8ff" points="1205.5,-30.94 1214.48,-25.32 1203.95,-24.12 1205.5,-30.94"/>
</g>
<!-- Node15 -->
<g id="node15" class="node">
<title>Node15</title>
<g id="a_node15"><a xlink:title=" ">
<polygon fill="#e0e0e0" stroke="#999999" points="516.5,-24.5 387.5,-24.5 387.5,-5.5 516.5,-5.5 516.5,-24.5"/>
<text text-anchor="middle" x="452" y="-12.5" font-family="Helvetica,sans-Serif" font-size="10.00">boost/log/expressions.hpp</text>
</a>
</g>
</g>
<!-- Node13&#45;&gt;Node15 -->
<g id="edge15" class="edge">
<title>Node13&#45;&gt;Node15</title>
<path fill="none" stroke="#63b8ff" d="M450.3,-65.87C450.56,-58 450.97,-46.1 451.32,-35.89"/>
<polygon fill="#63b8ff" stroke="#63b8ff" points="454.81,-36.29 451.65,-26.18 447.81,-36.05 454.81,-36.29"/>
</g>
<!-- Node16 -->
<g id="node16" class="node">
<title>Node16</title>
<g id="a_node16"><a xlink:title=" ">
<polygon fill="#e0e0e0" stroke="#999999" points="635.5,-24.5 534.5,-24.5 534.5,-5.5 635.5,-5.5 635.5,-24.5"/>
<text text-anchor="middle" x="585" y="-12.5" font-family="Helvetica,sans-Serif" font-size="10.00">boost/log/trivial.hpp</text>
</a>
</g>
</g>
<!-- Node13&#45;&gt;Node16 -->
<g id="edge16" class="edge">
<title>Node13&#45;&gt;Node16</title>
<path fill="none" stroke="#63b8ff" d="M470.5,-65.62C492.71,-55.99 528.37,-40.54 554,-29.43"/>
<polygon fill="#63b8ff" stroke="#63b8ff" points="555.13,-32.76 562.91,-25.57 552.35,-26.33 555.13,-32.76"/>
</g>
<!-- Node17 -->
<g id="node17" class="node">
<title>Node17</title>
<g id="a_node17"><a xlink:title=" ">
<polygon fill="#e0e0e0" stroke="#999999" points="762.5,-30 653.5,-30 653.5,0 762.5,0 762.5,-30"/>
<text text-anchor="start" x="661.5" y="-18" font-family="Helvetica,sans-Serif" font-size="10.00">boost/log/utility/setup</text>
<text text-anchor="middle" x="708" y="-7" font-family="Helvetica,sans-Serif" font-size="10.00">/console.hpp</text>
</a>
</g>
</g>
<!-- Node13&#45;&gt;Node17 -->
<g id="edge17" class="edge">
<title>Node13&#45;&gt;Node17</title>
<path fill="none" stroke="#63b8ff" d="M489.47,-65.55C530.06,-56.35 594,-41.85 642.26,-30.91"/>
<polygon fill="#63b8ff" stroke="#63b8ff" points="642.77,-34.38 651.75,-28.75 641.22,-27.55 642.77,-34.38"/>
</g>
<!-- Node18 -->
<g id="node18" class="node">
<title>Node18</title>
<g id="a_node18"><a xlink:title=" ">
<polygon fill="#e0e0e0" stroke="#999999" points="911.5,-30 780.5,-30 780.5,0 911.5,0 911.5,-30"/>
<text text-anchor="start" x="788.5" y="-18" font-family="Helvetica,sans-Serif" font-size="10.00">boost/log/sources/severity</text>
<text text-anchor="middle" x="846" y="-7" font-family="Helvetica,sans-Serif" font-size="10.00">_channel_logger.hpp</text>
</a>
</g>
</g>
<!-- Node13&#45;&gt;Node18 -->
<g id="edge18" class="edge">
<title>Node13&#45;&gt;Node18</title>
<path fill="none" stroke="#63b8ff" d="M502.21,-67.32C581.19,-56.45 725.84,-36.53 768.88,-30.31"/>
<polygon fill="#63b8ff" stroke="#63b8ff" points="769.39,-33.77 778.77,-28.84 768.36,-26.85 769.39,-33.77"/>
</g>
<!-- Node19 -->
<g id="node19" class="node">
<title>Node19</title>
<g id="a_node19"><a xlink:title=" ">
<polygon fill="#e0e0e0" stroke="#999999" points="1042.5,-30 929.5,-30 929.5,0 1042.5,0 1042.5,-30"/>
<text text-anchor="start" x="937.5" y="-18" font-family="Helvetica,sans-Serif" font-size="10.00">boost/log/support/date</text>
<text text-anchor="middle" x="986" y="-7" font-family="Helvetica,sans-Serif" font-size="10.00">_time.hpp</text>
</a>
</g>
</g>
<!-- Node13&#45;&gt;Node19 -->
<g id="edge19" class="edge">
<title>Node13&#45;&gt;Node19</title>
<path fill="none" stroke="#63b8ff" d="M502.41,-67.13C505.65,-66.73 508.87,-66.35 512,-66 689.71,-46.01 738.62,-56.81 917.85,-30.36"/>
<polygon fill="#63b8ff" stroke="#63b8ff" points="918.13,-33.86 927.51,-28.92 917.1,-26.94 918.13,-33.86"/>
</g>
<!-- Node20 -->
<g id="node20" class="node">
<title>Node20</title>
<g id="a_node20"><a xlink:title=" ">
<polygon fill="#e0e0e0" stroke="#999999" points="1181.5,-30 1060.5,-30 1060.5,0 1181.5,0 1181.5,-30"/>
<text text-anchor="start" x="1068.5" y="-18" font-family="Helvetica,sans-Serif" font-size="10.00">boost/log/utility/setup</text>
<text text-anchor="middle" x="1121" y="-7" font-family="Helvetica,sans-Serif" font-size="10.00">/common_attributes.hpp</text>
</a>
</g>
</g>
<!-- Node13&#45;&gt;Node20 -->
<g id="edge20" class="edge">
<title>Node13&#45;&gt;Node20</title>
<path fill="none" stroke="#63b8ff" d="M502.4,-67.05C505.65,-66.67 508.87,-66.32 512,-66 747.67,-42.02 811.68,-61.38 1049.05,-30.28"/>
<polygon fill="#63b8ff" stroke="#63b8ff" points="1049.17,-33.8 1058.62,-29.01 1048.25,-26.86 1049.17,-33.8"/>
</g>
<!-- Node21&#45;&gt;Node4 -->
<g id="edge22" class="edge">
<title>Node21&#45;&gt;Node4</title>
<path fill="none" stroke="#63b8ff" d="M231.44,-65.51C192.67,-57.56 136.22,-44.94 88,-30 86.67,-29.59 85.31,-29.15 83.95,-28.69"/>
<polygon fill="#63b8ff" stroke="#63b8ff" points="85.55,-25.55 74.95,-25.45 83.18,-32.13 85.55,-25.55"/>
</g>
<!-- Node21&#45;&gt;Node5 -->
<g id="edge23" class="edge">
<title>Node21&#45;&gt;Node5</title>
<path fill="none" stroke="#63b8ff" d="M252.87,-65.57C228.32,-56.78 189.95,-42.84 157,-30 156.22,-29.7 155.43,-29.39 154.63,-29.07"/>
<polygon fill="#63b8ff" stroke="#63b8ff" points="156.16,-25.91 145.57,-25.43 153.55,-32.41 156.16,-25.91"/>
</g>
<!-- Node21&#45;&gt;Node6 -->
<g id="edge25" class="edge">
<title>Node21&#45;&gt;Node6</title>
<path fill="none" stroke="#63b8ff" d="M288.78,-65.62C299.52,-56.77 316.25,-42.98 329.35,-32.19"/>
<polygon fill="#63b8ff" stroke="#63b8ff" points="331.45,-34.99 336.95,-25.93 327,-29.59 331.45,-34.99"/>
</g>
<!-- Node22 -->
<g id="node22" class="node">
<title>Node22</title>
<g id="a_node22"><a xlink:title=" ">
<polygon fill="#e0e0e0" stroke="#999999" points="225.5,-24.5 166.5,-24.5 166.5,-5.5 225.5,-5.5 225.5,-24.5"/>
<text text-anchor="middle" x="196" y="-12.5" font-family="Helvetica,sans-Serif" font-size="10.00">stdexcept</text>
</a>
</g>
</g>
<!-- Node21&#45;&gt;Node22 -->
<g id="edge24" class="edge">
<title>Node21&#45;&gt;Node22</title>
<path fill="none" stroke="#63b8ff" d="M265.55,-65.62C252.9,-56.6 233.07,-42.45 217.81,-31.56"/>
<polygon fill="#63b8ff" stroke="#63b8ff" points="219.98,-28.81 209.8,-25.85 215.91,-34.5 219.98,-28.81"/>
</g>
<!-- Node23 -->
<g id="node23" class="node">
<title>Node23</title>
<g id="a_node23"><a xlink:title=" ">
<polygon fill="#e0e0e0" stroke="#999999" points="310,-24.5 244,-24.5 244,-5.5 310,-5.5 310,-24.5"/>
<text text-anchor="middle" x="277" y="-12.5" font-family="Helvetica,sans-Serif" font-size="10.00">string_view</text>
</a>
</g>
</g>
<!-- Node21&#45;&gt;Node23 -->
<g id="edge26" class="edge">
<title>Node21&#45;&gt;Node23</title>
<path fill="none" stroke="#63b8ff" d="M277.85,-65.87C277.72,-58 277.51,-46.1 277.34,-35.89"/>
<polygon fill="#63b8ff" stroke="#63b8ff" points="280.84,-36.12 277.17,-26.18 273.85,-36.24 280.84,-36.12"/>
</g>
</g>
</svg>
