<?xml version="1.0" encoding="UTF-8" standalone="no"?>
<!DOCTYPE svg PUBLIC "-//W3C//DTD SVG 1.1//EN"
 "http://www.w3.org/Graphics/SVG/1.1/DTD/svg11.dtd">
<!-- Generated by graphviz version 7.0.5 (20221223.1930)
 -->
<!-- Title: Logging.hpp Pages: 1 -->
<!--zoomable 412 -->
<svg id="main" version="1.1" xmlns="http://www.w3.org/2000/svg" xmlns:xlink="http://www.w3.org/1999/xlink" xml:space="preserve" onload="init(evt)">
<style type="text/css"><![CDATA[
.edge:hover path { stroke: red; }
.edge:hover polygon { stroke: red; fill: red; }
]]></style>
<script type="text/javascript"><![CDATA[
var edges = document.getElementsByTagName('g');
if (edges && edges.length) {
  for (var i=0;i<edges.length;i++) {
    if (edges[i].id.substr(0,4)=='edge') {
      edges[i].setAttribute('class','edge');
    }
  }
}
]]></script>
        <defs>
                <circle id="rim" cx="0" cy="0" r="7"/>
                <circle id="rim2" cx="0" cy="0" r="3.5"/>
                <g id="zoomPlus">
                        <use xlink:href="#rim" fill="#404040">
                                <set attributeName="fill" to="#808080" begin="zoomplus.mouseover" end="zoomplus.mouseout"/>
                        </use>
                        <path d="M-4,0h8M0,-4v8" fill="none" stroke="white" stroke-width="1.5" pointer-events="none"/>
                </g>
                <g id="zoomMin">
                        <use xlink:href="#rim" fill="#404040">
                                <set attributeName="fill" to="#808080" begin="zoomminus.mouseover" end="zoomminus.mouseout"/>
                        </use>
                        <path d="M-4,0h8" fill="none" stroke="white" stroke-width="1.5" pointer-events="none"/>
                </g>
                <g id="dirArrow">
                        <path fill="none" stroke="white" stroke-width="1.5" d="M0,-3.0v7 M-2.5,-0.5L0,-3.0L2.5,-0.5"/>
                </g>
               <g id="resetDef">
                       <use xlink:href="#rim2" fill="#404040">
                               <set attributeName="fill" to="#808080" begin="reset.mouseover" end="reset.mouseout"/>
                       </use>
               </g>
        </defs>

<script type="text/javascript">
var viewWidth = 764;
var viewHeight = 412;
var sectionId = 'dynsection-1';
</script>
<script xlink:href="svgpan.js"/>
<svg id="graph" class="graph">
<g id="viewport">
<title>Logging.hpp</title>
<!-- Node1 -->
<g id="node1" class="node">
<title>Node1</title>
<g id="a_node1"><a xlink:title=" ">
<polygon fill="#999999" stroke="#666666" points="492.5,-404 423.5,-404 423.5,-385 492.5,-385 492.5,-404"/>
<text text-anchor="middle" x="458" y="-392" font-family="Helvetica,sans-Serif" font-size="10.00">Logging.hpp</text>
</a>
</g>
</g>
<!-- Node2 -->
<g id="node2" class="node">
<title>Node2</title>
<g id="a_node2"><a xlink:href="_data_handler_abstract_8hpp.html" target="_top" xlink:title=" ">
<polygon fill="white" stroke="#666666" points="629.5,-129 504.5,-129 504.5,-110 629.5,-110 629.5,-129"/>
<text text-anchor="middle" x="567" y="-117" font-family="Helvetica,sans-Serif" font-size="10.00">DataHandlerAbstract.hpp</text>
</a>
</g>
</g>
<!-- Node1&#45;&gt;Node2 -->
<g id="edge1" class="edge">
<title>Node1&#45;&gt;Node2</title>
<path fill="none" stroke="#63b8ff" d="M488.68,-379.6C521.23,-362.51 568,-330.18 568,-285.5 568,-285.5 568,-285.5 568,-228.5 568,-191.75 567.41,-147.97 567.14,-129.46"/>
<polygon fill="#63b8ff" stroke="#63b8ff" points="487.41,-376.32 480.04,-383.93 490.55,-382.58 487.41,-376.32"/>
</g>
<!-- Node5 -->
<g id="node5" class="node">
<title>Node5</title>
<g id="a_node5"><a xlink:href="axi__dma__demo_8cpp.html" target="_top" xlink:title=" ">
<polygon fill="white" stroke="#666666" points="462,-19 362,-19 362,0 462,0 462,-19"/>
<text text-anchor="middle" x="412" y="-7" font-family="Helvetica,sans-Serif" font-size="10.00">axi_dma_demo.cpp</text>
</a>
</g>
</g>
<!-- Node1&#45;&gt;Node5 -->
<g id="edge29" class="edge">
<title>Node1&#45;&gt;Node5</title>
<path fill="none" stroke="#63b8ff" d="M411.88,-392.36C295.66,-388.24 0,-369.52 0,-285.5 0,-285.5 0,-285.5 0,-118.5 0,-44.46 252.09,-20.17 361.89,-13.1"/>
<polygon fill="#63b8ff" stroke="#63b8ff" points="411.58,-395.85 421.69,-392.69 411.81,-388.86 411.58,-395.85"/>
</g>
<!-- Node7 -->
<g id="node7" class="node">
<title>Node7</title>
<g id="a_node7"><a xlink:href="_hw_accessor_8hpp.html" target="_top" xlink:title=" ">
<polygon fill="white" stroke="#666666" points="429.5,-349 338.5,-349 338.5,-330 429.5,-330 429.5,-349"/>
<text text-anchor="middle" x="384" y="-337" font-family="Helvetica,sans-Serif" font-size="10.00">HwAccessor.hpp</text>
</a>
</g>
</g>
<!-- Node1&#45;&gt;Node7 -->
<g id="edge6" class="edge">
<title>Node1&#45;&gt;Node7</title>
<path fill="none" stroke="#63b8ff" d="M436.24,-377.92C423.25,-368.61 407.22,-357.13 396.37,-349.36"/>
<polygon fill="#63b8ff" stroke="#63b8ff" points="434.05,-380.65 444.22,-383.63 438.12,-374.96 434.05,-380.65"/>
</g>
<!-- Node8 -->
<g id="node8" class="node">
<title>Node8</title>
<g id="a_node8"><a xlink:href="_uio_if_8hpp.html" target="_top" xlink:title=" ">
<polygon fill="white" stroke="#666666" points="412,-294 356,-294 356,-275 412,-275 412,-294"/>
<text text-anchor="middle" x="384" y="-282" font-family="Helvetica,sans-Serif" font-size="10.00">UioIf.hpp</text>
</a>
</g>
</g>
<!-- Node1&#45;&gt;Node8 -->
<g id="edge28" class="edge">
<title>Node1&#45;&gt;Node8</title>
<path fill="none" stroke="#63b8ff" d="M454.76,-373.43C451.91,-360.24 446.82,-343.07 438,-330 427.81,-314.89 411.02,-302.21 398.87,-294.3"/>
<polygon fill="#63b8ff" stroke="#63b8ff" points="451.29,-373.92 456.56,-383.11 458.17,-372.63 451.29,-373.92"/>
</g>
<!-- Node17 -->
<g id="node17" class="node">
<title>Node17</title>
<g id="a_node17"><a xlink:href="_u_dma_buf_8hpp.html" target="_top" xlink:title=" ">
<polygon fill="white" stroke="#666666" points="673.5,-184 596.5,-184 596.5,-165 673.5,-165 673.5,-184"/>
<text text-anchor="middle" x="635" y="-172" font-family="Helvetica,sans-Serif" font-size="10.00">UDmaBuf.hpp</text>
</a>
</g>
</g>
<!-- Node1&#45;&gt;Node17 -->
<g id="edge25" class="edge">
<title>Node1&#45;&gt;Node17</title>
<path fill="none" stroke="#63b8ff" d="M504.03,-387.33C530.14,-381.55 561.59,-370.42 582,-349 628.28,-300.44 634.24,-212.58 634.93,-184.43"/>
<polygon fill="#63b8ff" stroke="#63b8ff" points="503.45,-383.88 494.32,-389.26 504.81,-390.74 503.45,-383.88"/>
</g>
<!-- Node3 -->
<g id="node3" class="node">
<title>Node3</title>
<g id="a_node3"><a xlink:href="_data_handler_print_8hpp.html" target="_top" xlink:title=" ">
<polygon fill="white" stroke="#666666" points="737.5,-74 628.5,-74 628.5,-55 737.5,-55 737.5,-74"/>
<text text-anchor="middle" x="683" y="-62" font-family="Helvetica,sans-Serif" font-size="10.00">DataHandlerPrint.hpp</text>
</a>
</g>
</g>
<!-- Node2&#45;&gt;Node3 -->
<g id="edge2" class="edge">
<title>Node2&#45;&gt;Node3</title>
<path fill="none" stroke="#63b8ff" d="M596.99,-104.8C617.99,-95.2 645.44,-82.66 663.61,-74.36"/>
<polygon fill="#63b8ff" stroke="#63b8ff" points="595.7,-101.54 588.05,-108.88 598.6,-107.91 595.7,-101.54"/>
</g>
<!-- Node6 -->
<g id="node6" class="node">
<title>Node6</title>
<g id="a_node6"><a xlink:href="_data_handler_sync_8hpp.html" target="_top" xlink:title=" ">
<polygon fill="white" stroke="#666666" points="610,-74 500,-74 500,-55 610,-55 610,-74"/>
<text text-anchor="middle" x="555" y="-62" font-family="Helvetica,sans-Serif" font-size="10.00">DataHandlerSync.hpp</text>
</a>
</g>
</g>
<!-- Node2&#45;&gt;Node6 -->
<g id="edge5" class="edge">
<title>Node2&#45;&gt;Node6</title>
<path fill="none" stroke="#63b8ff" d="M562.5,-98.64C560.62,-90.31 558.52,-81.05 557.02,-74.44"/>
<polygon fill="#63b8ff" stroke="#63b8ff" points="559.06,-99.29 564.68,-108.27 565.89,-97.75 559.06,-99.29"/>
</g>
<!-- Node4 -->
<g id="node4" class="node">
<title>Node4</title>
<g id="a_node4"><a xlink:href="_data_handler_print_8cpp.html" target="_top" xlink:title=" ">
<polygon fill="white" stroke="#666666" points="737.5,-19 628.5,-19 628.5,0 737.5,0 737.5,-19"/>
<text text-anchor="middle" x="683" y="-7" font-family="Helvetica,sans-Serif" font-size="10.00">DataHandlerPrint.cpp</text>
</a>
</g>
</g>
<!-- Node3&#45;&gt;Node4 -->
<g id="edge3" class="edge">
<title>Node3&#45;&gt;Node4</title>
<path fill="none" stroke="#63b8ff" d="M683,-43.35C683,-35.1 683,-25.97 683,-19.44"/>
<polygon fill="#63b8ff" stroke="#63b8ff" points="679.5,-43.23 683,-53.23 686.5,-43.23 679.5,-43.23"/>
</g>
<!-- Node3&#45;&gt;Node5 -->
<g id="edge4" class="edge">
<title>Node3&#45;&gt;Node5</title>
<path fill="none" stroke="#63b8ff" d="M625.75,-52.3C575.72,-42.52 504.03,-28.5 457.74,-19.45"/>
<polygon fill="#63b8ff" stroke="#63b8ff" points="625.06,-55.73 635.54,-54.22 626.4,-48.86 625.06,-55.73"/>
</g>
<!-- Node7&#45;&gt;Node8 -->
<g id="edge7" class="edge">
<title>Node7&#45;&gt;Node8</title>
<path fill="none" stroke="#63b8ff" d="M384,-318.35C384,-310.1 384,-300.97 384,-294.44"/>
<polygon fill="#63b8ff" stroke="#63b8ff" points="380.5,-318.23 384,-328.23 387.5,-318.23 380.5,-318.23"/>
</g>
<!-- Node8&#45;&gt;Node5 -->
<g id="edge24" class="edge">
<title>Node8&#45;&gt;Node5</title>
<path fill="none" stroke="#63b8ff" d="M423.47,-281.3C452.91,-277.34 491.31,-266.76 511,-239 515.88,-232.12 522.63,-207.45 510,-165 501.77,-137.34 456.54,-79.31 441,-55 433.05,-42.57 423.71,-28.29 417.82,-19.34"/>
<polygon fill="#63b8ff" stroke="#63b8ff" points="423.33,-277.79 413.78,-282.38 424.11,-284.75 423.33,-277.79"/>
</g>
<!-- Node9 -->
<g id="node9" class="node">
<title>Node9</title>
<g id="a_node9"><a xlink:href="_fpga_mem_buffer_over_axi_8hpp.html" target="_top" xlink:title=" ">
<polygon fill="white" stroke="#666666" points="502,-239 364,-239 364,-220 502,-220 502,-239"/>
<text text-anchor="middle" x="433" y="-227" font-family="Helvetica,sans-Serif" font-size="10.00">FpgaMemBufferOverAxi.hpp</text>
</a>
</g>
</g>
<!-- Node8&#45;&gt;Node9 -->
<g id="edge8" class="edge">
<title>Node8&#45;&gt;Node9</title>
<path fill="none" stroke="#63b8ff" d="M399.72,-266.5C408.04,-257.5 417.91,-246.82 424.73,-239.44"/>
<polygon fill="#63b8ff" stroke="#63b8ff" points="397.34,-263.92 393.12,-273.64 402.48,-268.67 397.34,-263.92"/>
</g>
<!-- Node10 -->
<g id="node10" class="node">
<title>Node10</title>
<g id="a_node10"><a xlink:href="_reg_accessor_8hpp.html" target="_top" xlink:title=" ">
<polygon fill="white" stroke="#666666" points="290.5,-239 197.5,-239 197.5,-220 290.5,-220 290.5,-239"/>
<text text-anchor="middle" x="244" y="-227" font-family="Helvetica,sans-Serif" font-size="10.00">RegAccessor.hpp</text>
</a>
</g>
</g>
<!-- Node8&#45;&gt;Node10 -->
<g id="edge9" class="edge">
<title>Node8&#45;&gt;Node10</title>
<path fill="none" stroke="#63b8ff" d="M349.54,-270.45C323.99,-260.78 289.84,-247.85 267.4,-239.36"/>
<polygon fill="#63b8ff" stroke="#63b8ff" points="348.24,-273.71 358.84,-273.97 350.72,-267.16 348.24,-273.71"/>
</g>
<!-- Node11 -->
<g id="node11" class="node">
<title>Node11</title>
<g id="a_node11"><a xlink:href="_uio_axi_dma_if_8hpp.html" target="_top" xlink:title=" ">
<polygon fill="white" stroke="#666666" points="501.5,-184 412.5,-184 412.5,-165 501.5,-165 501.5,-184"/>
<text text-anchor="middle" x="457" y="-172" font-family="Helvetica,sans-Serif" font-size="10.00">UioAxiDmaIf.hpp</text>
</a>
</g>
</g>
<!-- Node8&#45;&gt;Node11 -->
<g id="edge22" class="edge">
<title>Node8&#45;&gt;Node11</title>
<path fill="none" stroke="#63b8ff" d="M367.23,-266.67C356.14,-253.44 345.29,-234.83 355,-220 367.75,-200.52 391.1,-189.52 412.24,-183.33"/>
<polygon fill="#63b8ff" stroke="#63b8ff" points="364.35,-268.71 373.67,-273.74 369.52,-263.99 364.35,-268.71"/>
</g>
<!-- Node12 -->
<g id="node12" class="node">
<title>Node12</title>
<g id="a_node12"><a xlink:href="_uio_axi_vdma_if_8hpp.html" target="_top" xlink:title=" ">
<polygon fill="white" stroke="#666666" points="123.5,-184 28.5,-184 28.5,-165 123.5,-165 123.5,-184"/>
<text text-anchor="middle" x="76" y="-172" font-family="Helvetica,sans-Serif" font-size="10.00">UioAxiVdmaIf.hpp</text>
</a>
</g>
</g>
<!-- Node8&#45;&gt;Node12 -->
<g id="edge23" class="edge">
<title>Node8&#45;&gt;Node12</title>
<path fill="none" stroke="#63b8ff" d="M344.43,-278C304.12,-271.6 240.27,-259.24 188,-239 149.86,-224.23 109.01,-198.13 88.82,-184.44"/>
<polygon fill="#63b8ff" stroke="#63b8ff" points="343.74,-281.44 354.15,-279.5 344.8,-274.52 343.74,-281.44"/>
</g>
<!-- Node10&#45;&gt;Node11 -->
<g id="edge10" class="edge">
<title>Node10&#45;&gt;Node11</title>
<path fill="none" stroke="#63b8ff" d="M291.25,-216.74C330.45,-206.99 385.35,-193.33 421.05,-184.45"/>
<polygon fill="#63b8ff" stroke="#63b8ff" points="290.46,-213.33 281.6,-219.14 292.15,-220.13 290.46,-213.33"/>
</g>
<!-- Node10&#45;&gt;Node12 -->
<g id="edge13" class="edge">
<title>Node10&#45;&gt;Node12</title>
<path fill="none" stroke="#63b8ff" d="M204.73,-216.11C173.97,-206.41 131.91,-193.14 104.36,-184.45"/>
<polygon fill="#63b8ff" stroke="#63b8ff" points="203.47,-219.38 214.06,-219.05 205.57,-212.71 203.47,-219.38"/>
</g>
<!-- Node13 -->
<g id="node13" class="node">
<title>Node13</title>
<g id="a_node13"><a xlink:href="_uio_gpio_status_8hpp.html" target="_top" xlink:title=" ">
<polygon fill="white" stroke="#666666" points="201,-129 103,-129 103,-110 201,-110 201,-129"/>
<text text-anchor="middle" x="152" y="-117" font-family="Helvetica,sans-Serif" font-size="10.00">UioGpioStatus.hpp</text>
</a>
</g>
</g>
<!-- Node10&#45;&gt;Node13 -->
<g id="edge14" class="edge">
<title>Node10&#45;&gt;Node13</title>
<path fill="none" stroke="#63b8ff" d="M210.17,-214.51C196.28,-207.25 181.11,-197.11 171,-184 158.21,-167.42 154,-142.32 152.64,-129.19"/>
<polygon fill="#63b8ff" stroke="#63b8ff" points="208.55,-217.62 219.07,-218.84 211.61,-211.32 208.55,-217.62"/>
</g>
<!-- Node14 -->
<g id="node14" class="node">
<title>Node14</title>
<g id="a_node14"><a xlink:href="_uio_mem_sgdma_8hpp.html" target="_top" xlink:title=" ">
<polygon fill="white" stroke="#666666" points="394,-184 292,-184 292,-165 394,-165 394,-184"/>
<text text-anchor="middle" x="343" y="-172" font-family="Helvetica,sans-Serif" font-size="10.00">UioMemSgdma.hpp</text>
</a>
</g>
</g>
<!-- Node10&#45;&gt;Node14 -->
<g id="edge16" class="edge">
<title>Node10&#45;&gt;Node14</title>
<path fill="none" stroke="#63b8ff" d="M270.84,-214.13C288.59,-204.63 311.3,-192.47 326.45,-184.36"/>
<polygon fill="#63b8ff" stroke="#63b8ff" points="269.29,-210.99 262.13,-218.79 272.6,-217.16 269.29,-210.99"/>
</g>
<!-- Node15 -->
<g id="node15" class="node">
<title>Node15</title>
<g id="a_node15"><a xlink:href="_uio_traffic_gen_8hpp.html" target="_top" xlink:title=" ">
<polygon fill="white" stroke="#666666" points="274,-184 180,-184 180,-165 274,-165 274,-184"/>
<text text-anchor="middle" x="227" y="-172" font-family="Helvetica,sans-Serif" font-size="10.00">UioTrafficGen.hpp</text>
</a>
</g>
</g>
<!-- Node10&#45;&gt;Node15 -->
<g id="edge19" class="edge">
<title>Node10&#45;&gt;Node15</title>
<path fill="none" stroke="#63b8ff" d="M237.72,-208.93C235.03,-200.53 232.01,-191.13 229.87,-184.44"/>
<polygon fill="#63b8ff" stroke="#63b8ff" points="234.34,-209.85 240.73,-218.31 241.01,-207.72 234.34,-209.85"/>
</g>
<!-- Node11&#45;&gt;Node2 -->
<g id="edge11" class="edge">
<title>Node11&#45;&gt;Node2</title>
<path fill="none" stroke="#63b8ff" d="M485.99,-159.53C505.83,-149.97 531.54,-137.59 548.62,-129.36"/>
<polygon fill="#63b8ff" stroke="#63b8ff" points="484.51,-156.36 477.02,-163.85 487.55,-162.66 484.51,-156.36"/>
</g>
<!-- Node11&#45;&gt;Node5 -->
<g id="edge12" class="edge">
<title>Node11&#45;&gt;Node5</title>
<path fill="none" stroke="#63b8ff" d="M451.59,-153.91C441.78,-118.38 421.44,-44.68 414.43,-19.31"/>
<polygon fill="#63b8ff" stroke="#63b8ff" points="448.14,-154.57 454.18,-163.28 454.89,-152.71 448.14,-154.57"/>
</g>
<!-- Node13&#45;&gt;Node5 -->
<g id="edge15" class="edge">
<title>Node13&#45;&gt;Node5</title>
<path fill="none" stroke="#63b8ff" d="M165.09,-100.51C176.62,-86.01 194.69,-66.25 215,-55 260.86,-29.6 320.34,-18.69 361.89,-14.01"/>
<polygon fill="#63b8ff" stroke="#63b8ff" points="162.41,-98.26 159.13,-108.34 167.98,-102.5 162.41,-98.26"/>
</g>
<!-- Node14&#45;&gt;Node2 -->
<g id="edge17" class="edge">
<title>Node14&#45;&gt;Node2</title>
<path fill="none" stroke="#63b8ff" d="M392.16,-161.87C433.41,-152.11 491.49,-138.37 529.19,-129.45"/>
<polygon fill="#63b8ff" stroke="#63b8ff" points="391.4,-158.45 382.47,-164.16 393.01,-165.26 391.4,-158.45"/>
</g>
<!-- Node14&#45;&gt;Node5 -->
<g id="edge18" class="edge">
<title>Node14&#45;&gt;Node5</title>
<path fill="none" stroke="#63b8ff" d="M351.1,-154.37C366.06,-119.03 397.48,-44.79 408.27,-19.31"/>
<polygon fill="#63b8ff" stroke="#63b8ff" points="347.97,-152.77 347.3,-163.34 354.42,-155.5 347.97,-152.77"/>
</g>
<!-- Node15&#45;&gt;Node5 -->
<g id="edge21" class="edge">
<title>Node15&#45;&gt;Node5</title>
<path fill="none" stroke="#63b8ff" d="M229.83,-153.84C232.59,-140.35 237.92,-122.66 248,-110 285.13,-63.36 350.52,-33.3 386.49,-19.43"/>
<polygon fill="#63b8ff" stroke="#63b8ff" points="226.45,-152.85 228.21,-163.3 233.35,-154.04 226.45,-152.85"/>
</g>
<!-- Node16 -->
<g id="node16" class="node">
<title>Node16</title>
<g id="a_node16"><a xlink:href="_uio_traffic_gen_8cpp.html" target="_top" xlink:title=" ">
<polygon fill="white" stroke="#666666" points="351,-129 257,-129 257,-110 351,-110 351,-129"/>
<text text-anchor="middle" x="304" y="-117" font-family="Helvetica,sans-Serif" font-size="10.00">UioTrafficGen.cpp</text>
</a>
</g>
</g>
<!-- Node15&#45;&gt;Node16 -->
<g id="edge20" class="edge">
<title>Node15&#45;&gt;Node16</title>
<path fill="none" stroke="#63b8ff" d="M249.25,-158.19C262.83,-148.84 279.73,-137.21 291.13,-129.36"/>
<polygon fill="#63b8ff" stroke="#63b8ff" points="247.56,-155.1 241.31,-163.65 251.53,-160.86 247.56,-155.1"/>
</g>
<!-- Node17&#45;&gt;Node2 -->
<g id="edge26" class="edge">
<title>Node17&#45;&gt;Node2</title>
<path fill="none" stroke="#63b8ff" d="M614.65,-157.64C602.78,-148.39 588.24,-137.05 578.36,-129.36"/>
<polygon fill="#63b8ff" stroke="#63b8ff" points="612.23,-160.19 622.27,-163.58 616.54,-154.67 612.23,-160.19"/>
</g>
<!-- Node17&#45;&gt;Node5 -->
<g id="edge27" class="edge">
<title>Node17&#45;&gt;Node5</title>
<path fill="none" stroke="#63b8ff" d="M665.51,-159.56C709.3,-137.74 781.12,-93.95 747,-55 728.54,-33.93 551.15,-19.53 462.25,-13.57"/>
<polygon fill="#63b8ff" stroke="#63b8ff" points="664.16,-156.33 656.69,-163.84 667.22,-162.63 664.16,-156.33"/>
</g>
</g>
</svg>
        <g id="navigator" transform="translate(0 0)" fill="#404254">
                <rect fill="#f2f5e9" fill-opacity="0.5" stroke="#606060" stroke-width=".5" x="0" y="0" width="60" height="60"/>
                <use id="zoomplus" xlink:href="#zoomPlus" x="17" y="9" onmousedown="handleZoom(evt,'in')"/>
                <use id="zoomminus" xlink:href="#zoomMin" x="42" y="9" onmousedown="handleZoom(evt,'out')"/>
                <use id="reset" xlink:href="#resetDef" x="30" y="36" onmousedown="handleReset()"/>
                <g id="arrowUp" xlink:href="#dirArrow" transform="translate(30 24)" onmousedown="handlePan(0,-1)">
                  <use xlink:href="#rim" fill="#404040">
                        <set attributeName="fill" to="#808080" begin="arrowUp.mouseover" end="arrowUp.mouseout"/>
                  </use>
                  <path fill="none" stroke="white" stroke-width="1.5" d="M0,-3.0v7 M-2.5,-0.5L0,-3.0L2.5,-0.5"/>
                </g>
                <g id="arrowRight" xlink:href="#dirArrow" transform="rotate(90) translate(36 -43)" onmousedown="handlePan(1,0)">
                  <use xlink:href="#rim" fill="#404040">
                        <set attributeName="fill" to="#808080" begin="arrowRight.mouseover" end="arrowRight.mouseout"/>
                  </use>
                  <path fill="none" stroke="white" stroke-width="1.5" d="M0,-3.0v7 M-2.5,-0.5L0,-3.0L2.5,-0.5"/>
                </g>
                <g id="arrowDown" xlink:href="#dirArrow" transform="rotate(180) translate(-30 -48)" onmousedown="handlePan(0,1)">
                  <use xlink:href="#rim" fill="#404040">
                        <set attributeName="fill" to="#808080" begin="arrowDown.mouseover" end="arrowDown.mouseout"/>
                  </use>
                  <path fill="none" stroke="white" stroke-width="1.5" d="M0,-3.0v7 M-2.5,-0.5L0,-3.0L2.5,-0.5"/>
                </g>
                <g id="arrowLeft" xlink:href="#dirArrow" transform="rotate(270) translate(-36 17)" onmousedown="handlePan(-1,0)">
                  <use xlink:href="#rim" fill="#404040">
                        <set attributeName="fill" to="#808080" begin="arrowLeft.mouseover" end="arrowLeft.mouseout"/>
                  </use>
                  <path fill="none" stroke="white" stroke-width="1.5" d="M0,-3.0v7 M-2.5,-0.5L0,-3.0L2.5,-0.5"/>
                </g>
        </g>
        <svg viewBox="0 0 15 15" width="100%" height="30px" preserveAspectRatio="xMaxYMin meet">
         <g id="arrow_out" transform="scale(0.3 0.3)">
          <a xlink:href="_logging_8hpp__dep__incl_org.svg" target="_base">
           <rect id="button" ry="5" rx="5" y="6" x="6" height="38" width="38"
                fill="#f2f5e9" fill-opacity="0.5" stroke="#606060" stroke-width="1.0"/>
           <path id="arrow"
             d="M 11.500037,31.436501 C 11.940474,20.09759 22.043105,11.32322 32.158766,21.979434 L 37.068811,17.246167 C 37.068811,17.246167 37.088388,32 37.088388,32 L 22.160133,31.978069 C 22.160133,31.978069 26.997745,27.140456 26.997745,27.140456 C 18.528582,18.264221 13.291696,25.230495 11.500037,31.436501 z"
             style="fill:#404040;"/>
          </a>
         </g>
        </svg>
</svg>
