<?xml version="1.0" encoding="UTF-8" standalone="no"?>
<!DOCTYPE svg PUBLIC "-//W3C//DTD SVG 1.1//EN"
 "http://www.w3.org/Graphics/SVG/1.1/DTD/svg11.dtd">
<!-- Generated by graphviz version 7.0.5 (20221223.1930)
 -->
<!-- Title: Logging.hpp Pages: 1 -->
<svg width="672pt" height="412pt"
 viewBox="0.00 0.00 672.12 412.00" xmlns="http://www.w3.org/2000/svg" xmlns:xlink="http://www.w3.org/1999/xlink">
<g id="graph0" class="graph" transform="scale(1 1) rotate(0) translate(4 408)">
<title>Logging.hpp</title>
<!-- Node1 -->
<g id="node1" class="node">
<title>Node1</title>
<g id="a_node1"><a xlink:title=" ">
<polygon fill="#999999" stroke="#666666" points="401.5,-404 332.5,-404 332.5,-385 401.5,-385 401.5,-404"/>
<text text-anchor="middle" x="367" y="-392" font-family="Helvetica,sans-Serif" font-size="10.00">Logging.hpp</text>
</a>
</g>
</g>
<!-- Node2 -->
<g id="node2" class="node">
<title>Node2</title>
<g id="a_node2"><a xlink:href="_data_handler_abstract_8hpp.html" target="_top" xlink:title=" ">
<polygon fill="white" stroke="#666666" points="544.5,-129 419.5,-129 419.5,-110 544.5,-110 544.5,-129"/>
<text text-anchor="middle" x="482" y="-117" font-family="Helvetica,sans-Serif" font-size="10.00">DataHandlerAbstract.hpp</text>
</a>
</g>
</g>
<!-- Node1&#45;&gt;Node2 -->
<g id="edge1" class="edge">
<title>Node1&#45;&gt;Node2</title>
<path fill="none" stroke="#63b8ff" d="M401.46,-379.91C436.91,-363.39 487,-331.86 487,-285.5 487,-285.5 487,-285.5 487,-228.5 487,-191.71 484.07,-147.95 482.7,-129.45"/>
<polygon fill="#63b8ff" stroke="#63b8ff" points="400.1,-376.68 392.38,-383.94 402.94,-383.08 400.1,-376.68"/>
</g>
<!-- Node5 -->
<g id="node5" class="node">
<title>Node5</title>
<g id="a_node5"><a xlink:href="axi__dma__demo_8cpp.html" target="_top" xlink:title=" ">
<polygon fill="white" stroke="#666666" points="364,-19 264,-19 264,0 364,0 364,-19"/>
<text text-anchor="middle" x="314" y="-7" font-family="Helvetica,sans-Serif" font-size="10.00">axi_dma_demo.cpp</text>
</a>
</g>
</g>
<!-- Node1&#45;&gt;Node5 -->
<g id="edge27" class="edge">
<title>Node1&#45;&gt;Node5</title>
<path fill="none" stroke="#63b8ff" d="M320.75,-389.67C222.11,-380.23 0,-351.64 0,-285.5 0,-285.5 0,-285.5 0,-118.5 0,-77.15 31.04,-73.55 68,-55 130.65,-23.56 212.16,-14.08 263.8,-11.36"/>
<polygon fill="#63b8ff" stroke="#63b8ff" points="320.35,-393.15 330.64,-390.59 321,-386.18 320.35,-393.15"/>
</g>
<!-- Node7 -->
<g id="node7" class="node">
<title>Node7</title>
<g id="a_node7"><a xlink:href="_hw_accessor_8hpp.html" target="_top" xlink:title=" ">
<polygon fill="white" stroke="#666666" points="338.5,-349 247.5,-349 247.5,-330 338.5,-330 338.5,-349"/>
<text text-anchor="middle" x="293" y="-337" font-family="Helvetica,sans-Serif" font-size="10.00">HwAccessor.hpp</text>
</a>
</g>
</g>
<!-- Node1&#45;&gt;Node7 -->
<g id="edge6" class="edge">
<title>Node1&#45;&gt;Node7</title>
<path fill="none" stroke="#63b8ff" d="M345.24,-377.92C332.25,-368.61 316.22,-357.13 305.37,-349.36"/>
<polygon fill="#63b8ff" stroke="#63b8ff" points="343.05,-380.65 353.22,-383.63 347.12,-374.96 343.05,-380.65"/>
</g>
<!-- Node8 -->
<g id="node8" class="node">
<title>Node8</title>
<g id="a_node8"><a xlink:href="_uio_if_8hpp.html" target="_top" xlink:title=" ">
<polygon fill="white" stroke="#666666" points="321,-294 265,-294 265,-275 321,-275 321,-294"/>
<text text-anchor="middle" x="293" y="-282" font-family="Helvetica,sans-Serif" font-size="10.00">UioIf.hpp</text>
</a>
</g>
</g>
<!-- Node1&#45;&gt;Node8 -->
<g id="edge26" class="edge">
<title>Node1&#45;&gt;Node8</title>
<path fill="none" stroke="#63b8ff" d="M363.76,-373.43C360.91,-360.24 355.82,-343.07 347,-330 336.81,-314.89 320.02,-302.21 307.87,-294.3"/>
<polygon fill="#63b8ff" stroke="#63b8ff" points="360.29,-373.92 365.56,-383.11 367.17,-372.63 360.29,-373.92"/>
</g>
<!-- Node16 -->
<g id="node16" class="node">
<title>Node16</title>
<g id="a_node16"><a xlink:href="_u_dma_buf_8hpp.html" target="_top" xlink:title=" ">
<polygon fill="white" stroke="#666666" points="592.5,-184 515.5,-184 515.5,-165 592.5,-165 592.5,-184"/>
<text text-anchor="middle" x="554" y="-172" font-family="Helvetica,sans-Serif" font-size="10.00">UDmaBuf.hpp</text>
</a>
</g>
</g>
<!-- Node1&#45;&gt;Node16 -->
<g id="edge23" class="edge">
<title>Node1&#45;&gt;Node16</title>
<path fill="none" stroke="#63b8ff" d="M412.97,-388.95C441.85,-383.77 477.87,-372.69 501,-349 547.86,-300.99 553.43,-212.76 553.98,-184.48"/>
<polygon fill="#63b8ff" stroke="#63b8ff" points="412.72,-385.45 403.39,-390.48 413.82,-392.36 412.72,-385.45"/>
</g>
<!-- Node3 -->
<g id="node3" class="node">
<title>Node3</title>
<g id="a_node3"><a xlink:href="_data_handler_print_8hpp.html" target="_top" xlink:title=" ">
<polygon fill="white" stroke="#666666" points="645.5,-74 536.5,-74 536.5,-55 645.5,-55 645.5,-74"/>
<text text-anchor="middle" x="591" y="-62" font-family="Helvetica,sans-Serif" font-size="10.00">DataHandlerPrint.hpp</text>
</a>
</g>
</g>
<!-- Node2&#45;&gt;Node3 -->
<g id="edge2" class="edge">
<title>Node2&#45;&gt;Node3</title>
<path fill="none" stroke="#63b8ff" d="M510.72,-104.53C530.38,-94.97 555.86,-82.59 572.78,-74.36"/>
<polygon fill="#63b8ff" stroke="#63b8ff" points="509.31,-101.33 501.85,-108.85 512.38,-107.62 509.31,-101.33"/>
</g>
<!-- Node6 -->
<g id="node6" class="node">
<title>Node6</title>
<g id="a_node6"><a xlink:href="_data_handler_sync_8hpp.html" target="_top" xlink:title=" ">
<polygon fill="white" stroke="#666666" points="518,-74 408,-74 408,-55 518,-55 518,-74"/>
<text text-anchor="middle" x="463" y="-62" font-family="Helvetica,sans-Serif" font-size="10.00">DataHandlerSync.hpp</text>
</a>
</g>
</g>
<!-- Node2&#45;&gt;Node6 -->
<g id="edge5" class="edge">
<title>Node2&#45;&gt;Node6</title>
<path fill="none" stroke="#63b8ff" d="M474.98,-98.93C471.97,-90.53 468.6,-81.13 466.21,-74.44"/>
<polygon fill="#63b8ff" stroke="#63b8ff" points="471.68,-100.09 478.35,-108.32 478.27,-97.73 471.68,-100.09"/>
</g>
<!-- Node4 -->
<g id="node4" class="node">
<title>Node4</title>
<g id="a_node4"><a xlink:href="_data_handler_print_8cpp.html" target="_top" xlink:title=" ">
<polygon fill="white" stroke="#666666" points="645.5,-19 536.5,-19 536.5,0 645.5,0 645.5,-19"/>
<text text-anchor="middle" x="591" y="-7" font-family="Helvetica,sans-Serif" font-size="10.00">DataHandlerPrint.cpp</text>
</a>
</g>
</g>
<!-- Node3&#45;&gt;Node4 -->
<g id="edge3" class="edge">
<title>Node3&#45;&gt;Node4</title>
<path fill="none" stroke="#63b8ff" d="M591,-43.35C591,-35.1 591,-25.97 591,-19.44"/>
<polygon fill="#63b8ff" stroke="#63b8ff" points="587.5,-43.23 591,-53.23 594.5,-43.23 587.5,-43.23"/>
</g>
<!-- Node3&#45;&gt;Node5 -->
<g id="edge4" class="edge">
<title>Node3&#45;&gt;Node5</title>
<path fill="none" stroke="#63b8ff" d="M532.81,-52.37C481.66,-42.58 408.17,-28.52 360.76,-19.45"/>
<polygon fill="#63b8ff" stroke="#63b8ff" points="532.04,-55.78 542.52,-54.22 533.36,-48.91 532.04,-55.78"/>
</g>
<!-- Node7&#45;&gt;Node8 -->
<g id="edge7" class="edge">
<title>Node7&#45;&gt;Node8</title>
<path fill="none" stroke="#63b8ff" d="M293,-318.35C293,-310.1 293,-300.97 293,-294.44"/>
<polygon fill="#63b8ff" stroke="#63b8ff" points="289.5,-318.23 293,-328.23 296.5,-318.23 289.5,-318.23"/>
</g>
<!-- Node8&#45;&gt;Node5 -->
<g id="edge22" class="edge">
<title>Node8&#45;&gt;Node5</title>
<path fill="none" stroke="#63b8ff" d="M253.49,-283.94C181.88,-282.45 38,-267.95 38,-175.5 38,-175.5 38,-175.5 38,-118.5 38,-70.63 81.5,-74.99 125,-55 169.56,-34.51 224.53,-22.94 263.67,-16.77"/>
<polygon fill="#63b8ff" stroke="#63b8ff" points="253.18,-287.44 263.22,-284.06 253.27,-280.44 253.18,-287.44"/>
</g>
<!-- Node9 -->
<g id="node9" class="node">
<title>Node9</title>
<g id="a_node9"><a xlink:href="_fpga_mem_buffer_over_axi_8hpp.html" target="_top" xlink:title=" ">
<polygon fill="white" stroke="#666666" points="459,-239 321,-239 321,-220 459,-220 459,-239"/>
<text text-anchor="middle" x="390" y="-227" font-family="Helvetica,sans-Serif" font-size="10.00">FpgaMemBufferOverAxi.hpp</text>
</a>
</g>
</g>
<!-- Node8&#45;&gt;Node9 -->
<g id="edge8" class="edge">
<title>Node8&#45;&gt;Node9</title>
<path fill="none" stroke="#63b8ff" d="M319.54,-269C336.89,-259.52 359.01,-247.43 373.79,-239.36"/>
<polygon fill="#63b8ff" stroke="#63b8ff" points="317.88,-265.92 310.78,-273.78 321.24,-272.06 317.88,-265.92"/>
</g>
<!-- Node10 -->
<g id="node10" class="node">
<title>Node10</title>
<g id="a_node10"><a xlink:href="_reg_accessor_8hpp.html" target="_top" xlink:title=" ">
<polygon fill="white" stroke="#666666" points="264.5,-239 171.5,-239 171.5,-220 264.5,-220 264.5,-239"/>
<text text-anchor="middle" x="218" y="-227" font-family="Helvetica,sans-Serif" font-size="10.00">RegAccessor.hpp</text>
</a>
</g>
</g>
<!-- Node8&#45;&gt;Node10 -->
<g id="edge9" class="edge">
<title>Node8&#45;&gt;Node10</title>
<path fill="none" stroke="#63b8ff" d="M270.95,-267.92C257.78,-258.61 241.53,-247.13 230.53,-239.36"/>
<polygon fill="#63b8ff" stroke="#63b8ff" points="268.85,-270.72 279.04,-273.64 272.89,-265.01 268.85,-270.72"/>
</g>
<!-- Node11 -->
<g id="node11" class="node">
<title>Node11</title>
<g id="a_node11"><a xlink:href="_uio_axi_dma_if_8hpp.html" target="_top" xlink:title=" ">
<polygon fill="white" stroke="#666666" points="457.5,-184 368.5,-184 368.5,-165 457.5,-165 457.5,-184"/>
<text text-anchor="middle" x="413" y="-172" font-family="Helvetica,sans-Serif" font-size="10.00">UioAxiDmaIf.hpp</text>
</a>
</g>
</g>
<!-- Node8&#45;&gt;Node11 -->
<g id="edge21" class="edge">
<title>Node8&#45;&gt;Node11</title>
<path fill="none" stroke="#63b8ff" d="M294.63,-263.45C296.7,-249.77 301.39,-232.02 312,-220 327.85,-202.04 352.3,-191.01 373.18,-184.43"/>
<polygon fill="#63b8ff" stroke="#63b8ff" points="291.19,-262.75 293.54,-273.08 298.14,-263.54 291.19,-262.75"/>
</g>
<!-- Node10&#45;&gt;Node11 -->
<g id="edge10" class="edge">
<title>Node10&#45;&gt;Node11</title>
<path fill="none" stroke="#63b8ff" d="M262.18,-216.49C298,-206.76 347.69,-193.25 380.08,-184.45"/>
<polygon fill="#63b8ff" stroke="#63b8ff" points="261.27,-213.11 252.54,-219.11 263.11,-219.87 261.27,-213.11"/>
</g>
<!-- Node12 -->
<g id="node12" class="node">
<title>Node12</title>
<g id="a_node12"><a xlink:href="_uio_gpio_status_8hpp.html" target="_top" xlink:title=" ">
<polygon fill="white" stroke="#666666" points="314,-129 216,-129 216,-110 314,-110 314,-129"/>
<text text-anchor="middle" x="265" y="-117" font-family="Helvetica,sans-Serif" font-size="10.00">UioGpioStatus.hpp</text>
</a>
</g>
</g>
<!-- Node10&#45;&gt;Node12 -->
<g id="edge13" class="edge">
<title>Node10&#45;&gt;Node12</title>
<path fill="none" stroke="#63b8ff" d="M223.33,-208.9C227.07,-196.14 232.56,-179.28 239,-165 244.82,-152.11 253.36,-138.18 259.04,-129.41"/>
<polygon fill="#63b8ff" stroke="#63b8ff" points="220.05,-207.62 220.7,-218.2 226.79,-209.52 220.05,-207.62"/>
</g>
<!-- Node13 -->
<g id="node13" class="node">
<title>Node13</title>
<g id="a_node13"><a xlink:href="_uio_mem_sgdma_8hpp.html" target="_top" xlink:title=" ">
<polygon fill="white" stroke="#666666" points="350,-184 248,-184 248,-165 350,-165 350,-184"/>
<text text-anchor="middle" x="299" y="-172" font-family="Helvetica,sans-Serif" font-size="10.00">UioMemSgdma.hpp</text>
</a>
</g>
</g>
<!-- Node10&#45;&gt;Node13 -->
<g id="edge15" class="edge">
<title>Node10&#45;&gt;Node13</title>
<path fill="none" stroke="#63b8ff" d="M240.99,-213.46C255.35,-204.06 273.35,-192.28 285.46,-184.36"/>
<polygon fill="#63b8ff" stroke="#63b8ff" points="239.46,-210.28 233.01,-218.68 243.29,-216.13 239.46,-210.28"/>
</g>
<!-- Node14 -->
<g id="node14" class="node">
<title>Node14</title>
<g id="a_node14"><a xlink:href="_uio_traffic_gen_8hpp.html" target="_top" xlink:title=" ">
<polygon fill="white" stroke="#666666" points="192,-184 98,-184 98,-165 192,-165 192,-184"/>
<text text-anchor="middle" x="145" y="-172" font-family="Helvetica,sans-Serif" font-size="10.00">UioTrafficGen.hpp</text>
</a>
</g>
</g>
<!-- Node10&#45;&gt;Node14 -->
<g id="edge18" class="edge">
<title>Node10&#45;&gt;Node14</title>
<path fill="none" stroke="#63b8ff" d="M196.53,-212.92C183.72,-203.61 167.9,-192.13 157.2,-184.36"/>
<polygon fill="#63b8ff" stroke="#63b8ff" points="194.24,-215.58 204.39,-218.62 198.36,-209.91 194.24,-215.58"/>
</g>
<!-- Node11&#45;&gt;Node2 -->
<g id="edge11" class="edge">
<title>Node11&#45;&gt;Node2</title>
<path fill="none" stroke="#63b8ff" d="M433.65,-157.64C445.7,-148.39 460.45,-137.05 470.47,-129.36"/>
<polygon fill="#63b8ff" stroke="#63b8ff" points="431.7,-154.72 425.91,-163.59 435.97,-160.27 431.7,-154.72"/>
</g>
<!-- Node11&#45;&gt;Node5 -->
<g id="edge12" class="edge">
<title>Node11&#45;&gt;Node5</title>
<path fill="none" stroke="#63b8ff" d="M401.93,-155.28C380.7,-120.32 334.96,-45.01 319.35,-19.31"/>
<polygon fill="#63b8ff" stroke="#63b8ff" points="398.71,-156.71 406.89,-163.44 404.69,-153.08 398.71,-156.71"/>
</g>
<!-- Node12&#45;&gt;Node5 -->
<g id="edge14" class="edge">
<title>Node12&#45;&gt;Node5</title>
<path fill="none" stroke="#63b8ff" d="M273.75,-99.22C284.42,-75.69 302.03,-36.89 309.93,-19.46"/>
<polygon fill="#63b8ff" stroke="#63b8ff" points="270.58,-97.73 269.64,-108.28 276.95,-100.62 270.58,-97.73"/>
</g>
<!-- Node13&#45;&gt;Node2 -->
<g id="edge16" class="edge">
<title>Node13&#45;&gt;Node2</title>
<path fill="none" stroke="#63b8ff" d="M340.9,-161.36C374.48,-151.64 420.84,-138.21 451.11,-129.45"/>
<polygon fill="#63b8ff" stroke="#63b8ff" points="340.13,-157.94 331.5,-164.09 342.08,-164.67 340.13,-157.94"/>
</g>
<!-- Node13&#45;&gt;Node5 -->
<g id="edge17" class="edge">
<title>Node13&#45;&gt;Node5</title>
<path fill="none" stroke="#63b8ff" d="M311.71,-154.87C316.21,-147.21 320.72,-138.02 323,-129 333.1,-88.99 321.93,-39.17 316.55,-19.29"/>
<polygon fill="#63b8ff" stroke="#63b8ff" points="308.81,-152.92 306.4,-163.23 314.72,-156.67 308.81,-152.92"/>
</g>
<!-- Node14&#45;&gt;Node5 -->
<g id="edge20" class="edge">
<title>Node14&#45;&gt;Node5</title>
<path fill="none" stroke="#63b8ff" d="M119.69,-158.37C102.14,-145.87 83.78,-127.42 95,-110 132.08,-52.42 211.53,-27.78 263.85,-17.51"/>
<polygon fill="#63b8ff" stroke="#63b8ff" points="117.63,-161.2 127.9,-163.81 121.5,-155.37 117.63,-161.2"/>
</g>
<!-- Node15 -->
<g id="node15" class="node">
<title>Node15</title>
<g id="a_node15"><a xlink:href="_uio_traffic_gen_8cpp.html" target="_top" xlink:title=" ">
<polygon fill="white" stroke="#666666" points="198,-129 104,-129 104,-110 198,-110 198,-129"/>
<text text-anchor="middle" x="151" y="-117" font-family="Helvetica,sans-Serif" font-size="10.00">UioTrafficGen.cpp</text>
</a>
</g>
</g>
<!-- Node14&#45;&gt;Node15 -->
<g id="edge19" class="edge">
<title>Node14&#45;&gt;Node15</title>
<path fill="none" stroke="#63b8ff" d="M147.28,-153.35C148.22,-145.1 149.25,-135.97 149.99,-129.44"/>
<polygon fill="#63b8ff" stroke="#63b8ff" points="143.81,-152.91 146.16,-163.24 150.76,-153.7 143.81,-152.91"/>
</g>
<!-- Node16&#45;&gt;Node2 -->
<g id="edge24" class="edge">
<title>Node16&#45;&gt;Node2</title>
<path fill="none" stroke="#63b8ff" d="M532.83,-157.92C520.19,-148.61 504.59,-137.13 494.03,-129.36"/>
<polygon fill="#63b8ff" stroke="#63b8ff" points="530.44,-160.5 540.57,-163.61 534.59,-154.87 530.44,-160.5"/>
</g>
<!-- Node16&#45;&gt;Node5 -->
<g id="edge25" class="edge">
<title>Node16&#45;&gt;Node5</title>
<path fill="none" stroke="#63b8ff" d="M582.13,-159.04C622.23,-136.6 687.58,-92.11 655,-55 636.14,-33.52 454.68,-19.28 364.44,-13.46"/>
<polygon fill="#63b8ff" stroke="#63b8ff" points="580.52,-155.93 573.4,-163.78 583.86,-162.08 580.52,-155.93"/>
</g>
</g>
</svg>
