<?xml version="1.0" encoding="UTF-8" standalone="no"?>
<!DOCTYPE svg PUBLIC "-//W3C//DTD SVG 1.1//EN"
 "http://www.w3.org/Graphics/SVG/1.1/DTD/svg11.dtd">
<!-- Generated by graphviz version 7.0.5 (20221223.1930)
 -->
<!-- Title: Logging.hpp Pages: 1 -->
<!--zoomable 412 -->
<svg id="main" version="1.1" xmlns="http://www.w3.org/2000/svg" xmlns:xlink="http://www.w3.org/1999/xlink" xml:space="preserve" onload="init(evt)">
<style type="text/css"><![CDATA[
.edge:hover path { stroke: red; }
.edge:hover polygon { stroke: red; fill: red; }
]]></style>
<script type="text/javascript"><![CDATA[
var edges = document.getElementsByTagName('g');
if (edges && edges.length) {
  for (var i=0;i<edges.length;i++) {
    if (edges[i].id.substr(0,4)=='edge') {
      edges[i].setAttribute('class','edge');
    }
  }
}
]]></script>
        <defs>
                <circle id="rim" cx="0" cy="0" r="7"/>
                <circle id="rim2" cx="0" cy="0" r="3.5"/>
                <g id="zoomPlus">
                        <use xlink:href="#rim" fill="#404040">
                                <set attributeName="fill" to="#808080" begin="zoomplus.mouseover" end="zoomplus.mouseout"/>
                        </use>
                        <path d="M-4,0h8M0,-4v8" fill="none" stroke="white" stroke-width="1.5" pointer-events="none"/>
                </g>
                <g id="zoomMin">
                        <use xlink:href="#rim" fill="#404040">
                                <set attributeName="fill" to="#808080" begin="zoomminus.mouseover" end="zoomminus.mouseout"/>
                        </use>
                        <path d="M-4,0h8" fill="none" stroke="white" stroke-width="1.5" pointer-events="none"/>
                </g>
                <g id="dirArrow">
                        <path fill="none" stroke="white" stroke-width="1.5" d="M0,-3.0v7 M-2.5,-0.5L0,-3.0L2.5,-0.5"/>
                </g>
               <g id="resetDef">
                       <use xlink:href="#rim2" fill="#404040">
                               <set attributeName="fill" to="#808080" begin="reset.mouseover" end="reset.mouseout"/>
                       </use>
               </g>
        </defs>

<script type="text/javascript">
var viewWidth = 686;
var viewHeight = 412;
var sectionId = 'dynsection-1';
</script>
<script xlink:href="svgpan.js"/>
<svg id="graph" class="graph">
<g id="viewport">
<title>Logging.hpp</title>
<!-- Node1 -->
<g id="node1" class="node">
<title>Node1</title>
<g id="a_node1"><a xlink:title=" ">
<polygon fill="#999999" stroke="#666666" points="261.5,-404 192.5,-404 192.5,-385 261.5,-385 261.5,-404"/>
<text text-anchor="middle" x="227" y="-392" font-family="Helvetica,sans-Serif" font-size="10.00">Logging.hpp</text>
</a>
</g>
</g>
<!-- Node2 -->
<g id="node2" class="node">
<title>Node2</title>
<g id="a_node2"><a xlink:href="_data_handler_abstract_8hpp.html" target="_top" xlink:title=" ">
<polygon fill="white" stroke="#666666" points="593.5,-129 468.5,-129 468.5,-110 593.5,-110 593.5,-129"/>
<text text-anchor="middle" x="531" y="-117" font-family="Helvetica,sans-Serif" font-size="10.00">DataHandlerAbstract.hpp</text>
</a>
</g>
</g>
<!-- Node1&#45;&gt;Node2 -->
<g id="edge1" class="edge">
<title>Node1&#45;&gt;Node2</title>
<path fill="none" stroke="#63b8ff" d="M273.23,-388.65C366.41,-377.6 568,-346.62 568,-285.5 568,-285.5 568,-285.5 568,-228.5 568,-189.85 546.53,-147.42 536.3,-129.39"/>
<polygon fill="#63b8ff" stroke="#63b8ff" points="272.93,-385.16 263.39,-389.79 273.73,-392.12 272.93,-385.16"/>
</g>
<!-- Node5 -->
<g id="node5" class="node">
<title>Node5</title>
<g id="a_node5"><a xlink:href="axi__dma__demo_8cpp.html" target="_top" xlink:title=" ">
<polygon fill="white" stroke="#666666" points="384,-19 284,-19 284,0 384,0 384,-19"/>
<text text-anchor="middle" x="334" y="-7" font-family="Helvetica,sans-Serif" font-size="10.00">axi_dma_demo.cpp</text>
</a>
</g>
</g>
<!-- Node1&#45;&gt;Node5 -->
<g id="edge31" class="edge">
<title>Node1&#45;&gt;Node5</title>
<path fill="none" stroke="#63b8ff" d="M180.62,-391.52C114.23,-385.91 0,-364.75 0,-285.5 0,-285.5 0,-285.5 0,-118.5 0,-59.61 190.33,-28.09 283.64,-16.17"/>
<polygon fill="#63b8ff" stroke="#63b8ff" points="180.29,-395 190.52,-392.26 180.81,-388.02 180.29,-395"/>
</g>
<!-- Node7 -->
<g id="node7" class="node">
<title>Node7</title>
<g id="a_node7"><a xlink:href="_frame_format_8hpp.html" target="_top" xlink:title=" ">
<polygon fill="white" stroke="#666666" points="122.5,-294 29.5,-294 29.5,-275 122.5,-275 122.5,-294"/>
<text text-anchor="middle" x="76" y="-282" font-family="Helvetica,sans-Serif" font-size="10.00">FrameFormat.hpp</text>
</a>
</g>
</g>
<!-- Node1&#45;&gt;Node7 -->
<g id="edge6" class="edge">
<title>Node1&#45;&gt;Node7</title>
<path fill="none" stroke="#63b8ff" d="M205.67,-378.24C173.69,-355.37 114.34,-312.92 88.53,-294.46"/>
<polygon fill="#63b8ff" stroke="#63b8ff" points="203.24,-380.81 213.41,-383.78 207.31,-375.12 203.24,-380.81"/>
</g>
<!-- Node9 -->
<g id="node9" class="node">
<title>Node9</title>
<g id="a_node9"><a xlink:href="_hw_accessor_8hpp.html" target="_top" xlink:title=" ">
<polygon fill="white" stroke="#666666" points="309.5,-349 218.5,-349 218.5,-330 309.5,-330 309.5,-349"/>
<text text-anchor="middle" x="264" y="-337" font-family="Helvetica,sans-Serif" font-size="10.00">HwAccessor.hpp</text>
</a>
</g>
</g>
<!-- Node1&#45;&gt;Node9 -->
<g id="edge8" class="edge">
<title>Node1&#45;&gt;Node9</title>
<path fill="none" stroke="#63b8ff" d="M239.66,-375.36C245.77,-366.62 252.82,-356.51 257.76,-349.44"/>
<polygon fill="#63b8ff" stroke="#63b8ff" points="236.83,-373.3 233.98,-383.51 242.57,-377.31 236.83,-373.3"/>
</g>
<!-- Node10 -->
<g id="node10" class="node">
<title>Node10</title>
<g id="a_node10"><a xlink:href="_uio_if_8hpp.html" target="_top" xlink:title=" ">
<polygon fill="white" stroke="#666666" points="255,-294 199,-294 199,-275 255,-275 255,-294"/>
<text text-anchor="middle" x="227" y="-282" font-family="Helvetica,sans-Serif" font-size="10.00">UioIf.hpp</text>
</a>
</g>
</g>
<!-- Node1&#45;&gt;Node10 -->
<g id="edge30" class="edge">
<title>Node1&#45;&gt;Node10</title>
<path fill="none" stroke="#63b8ff" d="M216.73,-374.46C211.19,-361.95 206.05,-345.16 209,-330 211.52,-317.08 217.78,-303.15 222.21,-294.39"/>
<polygon fill="#63b8ff" stroke="#63b8ff" points="213.48,-375.78 221.03,-383.21 219.76,-372.69 213.48,-375.78"/>
</g>
<!-- Node18 -->
<g id="node18" class="node">
<title>Node18</title>
<g id="a_node18"><a xlink:href="_u_dma_buf_8hpp.html" target="_top" xlink:title=" ">
<polygon fill="white" stroke="#666666" points="673.5,-184 596.5,-184 596.5,-165 673.5,-165 673.5,-184"/>
<text text-anchor="middle" x="635" y="-172" font-family="Helvetica,sans-Serif" font-size="10.00">UDmaBuf.hpp</text>
</a>
</g>
</g>
<!-- Node1&#45;&gt;Node18 -->
<g id="edge27" class="edge">
<title>Node1&#45;&gt;Node18</title>
<path fill="none" stroke="#63b8ff" d="M273.32,-393.75C358.67,-393.25 536.27,-387.48 582,-349 633.57,-305.6 635.96,-213.52 635.35,-184.47"/>
<polygon fill="#63b8ff" stroke="#63b8ff" points="273.41,-390.25 263.42,-393.78 273.43,-397.25 273.41,-390.25"/>
</g>
<!-- Node3 -->
<g id="node3" class="node">
<title>Node3</title>
<g id="a_node3"><a xlink:href="_data_handler_print_8hpp.html" target="_top" xlink:title=" ">
<polygon fill="white" stroke="#666666" points="529.5,-74 420.5,-74 420.5,-55 529.5,-55 529.5,-74"/>
<text text-anchor="middle" x="475" y="-62" font-family="Helvetica,sans-Serif" font-size="10.00">DataHandlerPrint.hpp</text>
</a>
</g>
</g>
<!-- Node2&#45;&gt;Node3 -->
<g id="edge2" class="edge">
<title>Node2&#45;&gt;Node3</title>
<path fill="none" stroke="#63b8ff" d="M513.37,-101.81C503.76,-92.72 492.25,-81.82 484.36,-74.36"/>
<polygon fill="#63b8ff" stroke="#63b8ff" points="510.73,-104.14 520.4,-108.47 515.54,-99.05 510.73,-104.14"/>
</g>
<!-- Node6 -->
<g id="node6" class="node">
<title>Node6</title>
<g id="a_node6"><a xlink:href="_data_handler_sync_8hpp.html" target="_top" xlink:title=" ">
<polygon fill="white" stroke="#666666" points="658,-74 548,-74 548,-55 658,-55 658,-74"/>
<text text-anchor="middle" x="603" y="-62" font-family="Helvetica,sans-Serif" font-size="10.00">DataHandlerSync.hpp</text>
</a>
</g>
</g>
<!-- Node2&#45;&gt;Node6 -->
<g id="edge5" class="edge">
<title>Node2&#45;&gt;Node6</title>
<path fill="none" stroke="#63b8ff" d="M552.17,-102.92C564.81,-93.61 580.41,-82.13 590.97,-74.36"/>
<polygon fill="#63b8ff" stroke="#63b8ff" points="550.41,-99.87 544.43,-108.61 554.56,-105.5 550.41,-99.87"/>
</g>
<!-- Node4 -->
<g id="node4" class="node">
<title>Node4</title>
<g id="a_node4"><a xlink:href="_data_handler_print_8cpp.html" target="_top" xlink:title=" ">
<polygon fill="white" stroke="#666666" points="529.5,-19 420.5,-19 420.5,0 529.5,0 529.5,-19"/>
<text text-anchor="middle" x="475" y="-7" font-family="Helvetica,sans-Serif" font-size="10.00">DataHandlerPrint.cpp</text>
</a>
</g>
</g>
<!-- Node3&#45;&gt;Node4 -->
<g id="edge3" class="edge">
<title>Node3&#45;&gt;Node4</title>
<path fill="none" stroke="#63b8ff" d="M475,-43.35C475,-35.1 475,-25.97 475,-19.44"/>
<polygon fill="#63b8ff" stroke="#63b8ff" points="471.5,-43.23 475,-53.23 478.5,-43.23 471.5,-43.23"/>
</g>
<!-- Node3&#45;&gt;Node5 -->
<g id="edge4" class="edge">
<title>Node3&#45;&gt;Node5</title>
<path fill="none" stroke="#63b8ff" d="M440.64,-50.58C414.87,-40.9 380.27,-27.89 357.57,-19.36"/>
<polygon fill="#63b8ff" stroke="#63b8ff" points="439.07,-53.73 449.66,-53.98 441.54,-47.18 439.07,-53.73"/>
</g>
<!-- Node8 -->
<g id="node8" class="node">
<title>Node8</title>
<g id="a_node8"><a xlink:href="_uio_axi_vdma_if_8hpp.html" target="_top" xlink:title=" ">
<polygon fill="white" stroke="#666666" points="161.5,-184 66.5,-184 66.5,-165 161.5,-165 161.5,-184"/>
<text text-anchor="middle" x="114" y="-172" font-family="Helvetica,sans-Serif" font-size="10.00">UioAxiVdmaIf.hpp</text>
</a>
</g>
</g>
<!-- Node7&#45;&gt;Node8 -->
<g id="edge7" class="edge">
<title>Node7&#45;&gt;Node8</title>
<path fill="none" stroke="#63b8ff" d="M82.9,-263.9C91.19,-240.33 104.74,-201.81 110.85,-184.46"/>
<polygon fill="#63b8ff" stroke="#63b8ff" points="79.63,-262.64 79.61,-273.23 86.23,-264.96 79.63,-262.64"/>
</g>
<!-- Node9&#45;&gt;Node10 -->
<g id="edge9" class="edge">
<title>Node9&#45;&gt;Node10</title>
<path fill="none" stroke="#63b8ff" d="M251.34,-320.36C245.23,-311.62 238.18,-301.51 233.24,-294.44"/>
<polygon fill="#63b8ff" stroke="#63b8ff" points="248.43,-322.31 257.02,-328.51 254.17,-318.3 248.43,-322.31"/>
</g>
<!-- Node10&#45;&gt;Node5 -->
<g id="edge26" class="edge">
<title>Node10&#45;&gt;Node5</title>
<path fill="none" stroke="#63b8ff" d="M187.69,-273.1C146.71,-259.92 84.68,-232.8 57,-184 46.81,-166.03 56.59,-124.35 69,-110 123.87,-46.51 223.43,-23.45 283.66,-15.13"/>
<polygon fill="#63b8ff" stroke="#63b8ff" points="186.61,-276.43 197.2,-276.02 188.66,-269.74 186.61,-276.43"/>
</g>
<!-- Node10&#45;&gt;Node8 -->
<g id="edge25" class="edge">
<title>Node10&#45;&gt;Node8</title>
<path fill="none" stroke="#63b8ff" d="M205.41,-267.7C194.71,-259.53 181.8,-249.17 171,-239 151.59,-220.72 131.29,-196.75 120.96,-184.13"/>
<polygon fill="#63b8ff" stroke="#63b8ff" points="203.19,-270.41 213.29,-273.61 207.39,-264.81 203.19,-270.41"/>
</g>
<!-- Node11 -->
<g id="node11" class="node">
<title>Node11</title>
<g id="a_node11"><a xlink:href="_fpga_mem_buffer_over_axi_8hpp.html" target="_top" xlink:title=" ">
<polygon fill="white" stroke="#666666" points="468,-239 330,-239 330,-220 468,-220 468,-239"/>
<text text-anchor="middle" x="399" y="-227" font-family="Helvetica,sans-Serif" font-size="10.00">FpgaMemBufferOverAxi.hpp</text>
</a>
</g>
</g>
<!-- Node10&#45;&gt;Node11 -->
<g id="edge10" class="edge">
<title>Node10&#45;&gt;Node11</title>
<path fill="none" stroke="#63b8ff" d="M266.02,-271.48C297.62,-261.74 341.42,-248.24 369.98,-239.44"/>
<polygon fill="#63b8ff" stroke="#63b8ff" points="265.37,-268.01 256.85,-274.3 267.44,-274.7 265.37,-268.01"/>
</g>
<!-- Node12 -->
<g id="node12" class="node">
<title>Node12</title>
<g id="a_node12"><a xlink:href="_reg_accessor_8hpp.html" target="_top" xlink:title=" ">
<polygon fill="white" stroke="#666666" points="273.5,-239 180.5,-239 180.5,-220 273.5,-220 273.5,-239"/>
<text text-anchor="middle" x="227" y="-227" font-family="Helvetica,sans-Serif" font-size="10.00">RegAccessor.hpp</text>
</a>
</g>
</g>
<!-- Node10&#45;&gt;Node12 -->
<g id="edge11" class="edge">
<title>Node10&#45;&gt;Node12</title>
<path fill="none" stroke="#63b8ff" d="M227,-263.35C227,-255.1 227,-245.97 227,-239.44"/>
<polygon fill="#63b8ff" stroke="#63b8ff" points="223.5,-263.23 227,-273.23 230.5,-263.23 223.5,-263.23"/>
</g>
<!-- Node13 -->
<g id="node13" class="node">
<title>Node13</title>
<g id="a_node13"><a xlink:href="_uio_axi_dma_if_8hpp.html" target="_top" xlink:title=" ">
<polygon fill="white" stroke="#666666" points="539.5,-184 450.5,-184 450.5,-165 539.5,-165 539.5,-184"/>
<text text-anchor="middle" x="495" y="-172" font-family="Helvetica,sans-Serif" font-size="10.00">UioAxiDmaIf.hpp</text>
</a>
</g>
</g>
<!-- Node10&#45;&gt;Node13 -->
<g id="edge24" class="edge">
<title>Node10&#45;&gt;Node13</title>
<path fill="none" stroke="#63b8ff" d="M246.05,-267.72C264.26,-253.37 293,-232.58 321,-220 362.95,-201.15 414.32,-189.25 450.33,-182.55"/>
<polygon fill="#63b8ff" stroke="#63b8ff" points="244.33,-264.61 238.73,-273.61 248.72,-270.07 244.33,-264.61"/>
</g>
<!-- Node12&#45;&gt;Node8 -->
<g id="edge15" class="edge">
<title>Node12&#45;&gt;Node8</title>
<path fill="none" stroke="#63b8ff" d="M197.51,-214.67C177.08,-205.09 150.51,-192.62 132.89,-184.36"/>
<polygon fill="#63b8ff" stroke="#63b8ff" points="195.92,-217.79 206.46,-218.87 198.89,-211.45 195.92,-217.79"/>
</g>
<!-- Node12&#45;&gt;Node13 -->
<g id="edge12" class="edge">
<title>Node12&#45;&gt;Node13</title>
<path fill="none" stroke="#63b8ff" d="M283.65,-217.3C333.29,-207.48 404.46,-193.41 450.21,-184.36"/>
<polygon fill="#63b8ff" stroke="#63b8ff" points="283.08,-213.84 273.95,-219.22 284.44,-220.71 283.08,-213.84"/>
</g>
<!-- Node14 -->
<g id="node14" class="node">
<title>Node14</title>
<g id="a_node14"><a xlink:href="_uio_gpio_status_8hpp.html" target="_top" xlink:title=" ">
<polygon fill="white" stroke="#666666" points="176,-129 78,-129 78,-110 176,-110 176,-129"/>
<text text-anchor="middle" x="127" y="-117" font-family="Helvetica,sans-Serif" font-size="10.00">UioGpioStatus.hpp</text>
</a>
</g>
</g>
<!-- Node12&#45;&gt;Node14 -->
<g id="edge16" class="edge">
<title>Node12&#45;&gt;Node14</title>
<path fill="none" stroke="#63b8ff" d="M211.98,-211.43C200.58,-198.56 184.46,-180.53 170,-165 158.28,-152.42 144.42,-138.18 135.66,-129.27"/>
<polygon fill="#63b8ff" stroke="#63b8ff" points="209.11,-213.47 218.35,-218.65 214.36,-208.83 209.11,-213.47"/>
</g>
<!-- Node15 -->
<g id="node15" class="node">
<title>Node15</title>
<g id="a_node15"><a xlink:href="_uio_mem_sgdma_8hpp.html" target="_top" xlink:title=" ">
<polygon fill="white" stroke="#666666" points="432,-184 330,-184 330,-165 432,-165 432,-184"/>
<text text-anchor="middle" x="381" y="-172" font-family="Helvetica,sans-Serif" font-size="10.00">UioMemSgdma.hpp</text>
</a>
</g>
</g>
<!-- Node12&#45;&gt;Node15 -->
<g id="edge18" class="edge">
<title>Node12&#45;&gt;Node15</title>
<path fill="none" stroke="#63b8ff" d="M263.74,-215.85C291.87,-206.17 329.97,-193.06 355.01,-184.45"/>
<polygon fill="#63b8ff" stroke="#63b8ff" points="262.87,-212.45 254.56,-219.02 265.15,-219.07 262.87,-212.45"/>
</g>
<!-- Node16 -->
<g id="node16" class="node">
<title>Node16</title>
<g id="a_node16"><a xlink:href="_uio_traffic_gen_8hpp.html" target="_top" xlink:title=" ">
<polygon fill="white" stroke="#666666" points="312,-184 218,-184 218,-165 312,-165 312,-184"/>
<text text-anchor="middle" x="265" y="-172" font-family="Helvetica,sans-Serif" font-size="10.00">UioTrafficGen.hpp</text>
</a>
</g>
</g>
<!-- Node12&#45;&gt;Node16 -->
<g id="edge21" class="edge">
<title>Node12&#45;&gt;Node16</title>
<path fill="none" stroke="#63b8ff" d="M239.8,-210.65C246.12,-201.84 253.46,-191.59 258.59,-184.44"/>
<polygon fill="#63b8ff" stroke="#63b8ff" points="237.14,-208.35 234.16,-218.52 242.83,-212.43 237.14,-208.35"/>
</g>
<!-- Node13&#45;&gt;Node2 -->
<g id="edge13" class="edge">
<title>Node13&#45;&gt;Node2</title>
<path fill="none" stroke="#63b8ff" d="M507.32,-155.36C513.26,-146.62 520.12,-136.51 524.93,-129.44"/>
<polygon fill="#63b8ff" stroke="#63b8ff" points="504.52,-153.26 501.8,-163.5 510.31,-157.19 504.52,-153.26"/>
</g>
<!-- Node13&#45;&gt;Node5 -->
<g id="edge14" class="edge">
<title>Node13&#45;&gt;Node5</title>
<path fill="none" stroke="#63b8ff" d="M478.32,-156.62C444.41,-122.28 368.42,-45.34 342.7,-19.31"/>
<polygon fill="#63b8ff" stroke="#63b8ff" points="475.76,-159 485.28,-163.66 480.74,-154.09 475.76,-159"/>
</g>
<!-- Node14&#45;&gt;Node5 -->
<g id="edge17" class="edge">
<title>Node14&#45;&gt;Node5</title>
<path fill="none" stroke="#63b8ff" d="M154.01,-104.41C197.26,-81.84 280.84,-38.24 316.83,-19.46"/>
<polygon fill="#63b8ff" stroke="#63b8ff" points="152.53,-101.23 145.28,-108.96 155.77,-107.44 152.53,-101.23"/>
</g>
<!-- Node15&#45;&gt;Node2 -->
<g id="edge19" class="edge">
<title>Node15&#45;&gt;Node2</title>
<path fill="none" stroke="#63b8ff" d="M417.15,-160.73C444.52,-151.06 481.41,-138.02 505.68,-129.45"/>
<polygon fill="#63b8ff" stroke="#63b8ff" points="416.14,-157.37 407.87,-164.01 418.47,-163.97 416.14,-157.37"/>
</g>
<!-- Node15&#45;&gt;Node5 -->
<g id="edge20" class="edge">
<title>Node15&#45;&gt;Node5</title>
<path fill="none" stroke="#63b8ff" d="M375.35,-153.91C365.11,-118.38 343.86,-44.68 336.54,-19.31"/>
<polygon fill="#63b8ff" stroke="#63b8ff" points="371.92,-154.64 378.05,-163.28 378.65,-152.7 371.92,-154.64"/>
</g>
<!-- Node16&#45;&gt;Node5 -->
<g id="edge23" class="edge">
<title>Node16&#45;&gt;Node5</title>
<path fill="none" stroke="#63b8ff" d="M279.84,-155.66C285.8,-147.84 292.34,-138.34 297,-129 316.25,-90.43 328.01,-39.8 332.23,-19.49"/>
<polygon fill="#63b8ff" stroke="#63b8ff" points="277.23,-153.32 273.74,-163.33 282.7,-157.68 277.23,-153.32"/>
</g>
<!-- Node17 -->
<g id="node17" class="node">
<title>Node17</title>
<g id="a_node17"><a xlink:href="_uio_traffic_gen_8cpp.html" target="_top" xlink:title=" ">
<polygon fill="white" stroke="#666666" points="288,-129 194,-129 194,-110 288,-110 288,-129"/>
<text text-anchor="middle" x="241" y="-117" font-family="Helvetica,sans-Serif" font-size="10.00">UioTrafficGen.cpp</text>
</a>
</g>
</g>
<!-- Node16&#45;&gt;Node17 -->
<g id="edge22" class="edge">
<title>Node16&#45;&gt;Node17</title>
<path fill="none" stroke="#63b8ff" d="M256.4,-154.5C252.53,-145.96 248.15,-136.28 245.05,-129.44"/>
<polygon fill="#63b8ff" stroke="#63b8ff" points="253.1,-155.7 260.41,-163.37 259.48,-152.82 253.1,-155.7"/>
</g>
<!-- Node18&#45;&gt;Node2 -->
<g id="edge28" class="edge">
<title>Node18&#45;&gt;Node2</title>
<path fill="none" stroke="#63b8ff" d="M607.33,-159.4C588.61,-149.86 564.45,-137.55 548.38,-129.36"/>
<polygon fill="#63b8ff" stroke="#63b8ff" points="605.51,-162.4 616.01,-163.82 608.69,-156.16 605.51,-162.4"/>
</g>
<!-- Node18&#45;&gt;Node5 -->
<g id="edge29" class="edge">
<title>Node18&#45;&gt;Node5</title>
<path fill="none" stroke="#63b8ff" d="M648.93,-155.33C666.63,-129.9 692.04,-83.61 667,-55 662.38,-49.72 476.42,-27.22 384.45,-16.38"/>
<polygon fill="#63b8ff" stroke="#63b8ff" points="646.17,-153.19 643.1,-163.33 651.82,-157.31 646.17,-153.19"/>
</g>
</g>
</svg>
        <g id="navigator" transform="translate(0 0)" fill="#404254">
                <rect fill="#f2f5e9" fill-opacity="0.5" stroke="#606060" stroke-width=".5" x="0" y="0" width="60" height="60"/>
                <use id="zoomplus" xlink:href="#zoomPlus" x="17" y="9" onmousedown="handleZoom(evt,'in')"/>
                <use id="zoomminus" xlink:href="#zoomMin" x="42" y="9" onmousedown="handleZoom(evt,'out')"/>
                <use id="reset" xlink:href="#resetDef" x="30" y="36" onmousedown="handleReset()"/>
                <g id="arrowUp" xlink:href="#dirArrow" transform="translate(30 24)" onmousedown="handlePan(0,-1)">
                  <use xlink:href="#rim" fill="#404040">
                        <set attributeName="fill" to="#808080" begin="arrowUp.mouseover" end="arrowUp.mouseout"/>
                  </use>
                  <path fill="none" stroke="white" stroke-width="1.5" d="M0,-3.0v7 M-2.5,-0.5L0,-3.0L2.5,-0.5"/>
                </g>
                <g id="arrowRight" xlink:href="#dirArrow" transform="rotate(90) translate(36 -43)" onmousedown="handlePan(1,0)">
                  <use xlink:href="#rim" fill="#404040">
                        <set attributeName="fill" to="#808080" begin="arrowRight.mouseover" end="arrowRight.mouseout"/>
                  </use>
                  <path fill="none" stroke="white" stroke-width="1.5" d="M0,-3.0v7 M-2.5,-0.5L0,-3.0L2.5,-0.5"/>
                </g>
                <g id="arrowDown" xlink:href="#dirArrow" transform="rotate(180) translate(-30 -48)" onmousedown="handlePan(0,1)">
                  <use xlink:href="#rim" fill="#404040">
                        <set attributeName="fill" to="#808080" begin="arrowDown.mouseover" end="arrowDown.mouseout"/>
                  </use>
                  <path fill="none" stroke="white" stroke-width="1.5" d="M0,-3.0v7 M-2.5,-0.5L0,-3.0L2.5,-0.5"/>
                </g>
                <g id="arrowLeft" xlink:href="#dirArrow" transform="rotate(270) translate(-36 17)" onmousedown="handlePan(-1,0)">
                  <use xlink:href="#rim" fill="#404040">
                        <set attributeName="fill" to="#808080" begin="arrowLeft.mouseover" end="arrowLeft.mouseout"/>
                  </use>
                  <path fill="none" stroke="white" stroke-width="1.5" d="M0,-3.0v7 M-2.5,-0.5L0,-3.0L2.5,-0.5"/>
                </g>
        </g>
        <svg viewBox="0 0 15 15" width="100%" height="30px" preserveAspectRatio="xMaxYMin meet">
         <g id="arrow_out" transform="scale(0.3 0.3)">
          <a xlink:href="_logging_8hpp__dep__incl_org.svg" target="_base">
           <rect id="button" ry="5" rx="5" y="6" x="6" height="38" width="38"
                fill="#f2f5e9" fill-opacity="0.5" stroke="#606060" stroke-width="1.0"/>
           <path id="arrow"
             d="M 11.500037,31.436501 C 11.940474,20.09759 22.043105,11.32322 32.158766,21.979434 L 37.068811,17.246167 C 37.068811,17.246167 37.088388,32 37.088388,32 L 22.160133,31.978069 C 22.160133,31.978069 26.997745,27.140456 26.997745,27.140456 C 18.528582,18.264221 13.291696,25.230495 11.500037,31.436501 z"
             style="fill:#404040;"/>
          </a>
         </g>
        </svg>
</svg>
