<?xml version="1.0" encoding="UTF-8" standalone="no"?>
<!DOCTYPE svg PUBLIC "-//W3C//DTD SVG 1.1//EN"
 "http://www.w3.org/Graphics/SVG/1.1/DTD/svg11.dtd">
<!-- Generated by graphviz version 7.0.5 (20221223.1930)
 -->
<!-- Title: UDmaBuf.hpp Pages: 1 -->
<svg width="767pt" height="192pt"
 viewBox="0.00 0.00 766.50 192.00" xmlns="http://www.w3.org/2000/svg" xmlns:xlink="http://www.w3.org/1999/xlink">
<g id="graph0" class="graph" transform="scale(1 1) rotate(0) translate(4 188)">
<title>UDmaBuf.hpp</title>
<!-- Node1 -->
<g id="node1" class="node">
<title>Node1</title>
<g id="a_node1"><a xlink:title=" ">
<polygon fill="#999999" stroke="#666666" points="314.5,-184 237.5,-184 237.5,-165 314.5,-165 314.5,-184"/>
<text text-anchor="middle" x="276" y="-172" font-family="Helvetica,sans-Serif" font-size="10.00">UDmaBuf.hpp</text>
</a>
</g>
</g>
<!-- Node2 -->
<g id="node2" class="node">
<title>Node2</title>
<g id="a_node2"><a xlink:title=" ">
<polygon fill="#e0e0e0" stroke="#999999" points="118,-129 0,-129 0,-110 118,-110 118,-129"/>
<text text-anchor="middle" x="59" y="-117" font-family="Helvetica,sans-Serif" font-size="10.00">boost/log/core/core.hpp</text>
</a>
</g>
</g>
<!-- Node1&#45;&gt;Node2 -->
<g id="edge1" class="edge">
<title>Node1&#45;&gt;Node2</title>
<path fill="none" stroke="#63b8ff" d="M239.19,-164.51C202.68,-155.59 146.58,-141.89 106.68,-132.15"/>
<polygon fill="#63b8ff" stroke="#63b8ff" points="107.64,-128.78 97.1,-129.81 105.98,-135.58 107.64,-128.78"/>
</g>
<!-- Node3 -->
<g id="node3" class="node">
<title>Node3</title>
<g id="a_node3"><a xlink:title=" ">
<polygon fill="#e0e0e0" stroke="#999999" points="277.5,-129 136.5,-129 136.5,-110 277.5,-110 277.5,-129"/>
<text text-anchor="middle" x="207" y="-117" font-family="Helvetica,sans-Serif" font-size="10.00">boost/log/sources/logger.hpp</text>
</a>
</g>
</g>
<!-- Node1&#45;&gt;Node3 -->
<g id="edge2" class="edge">
<title>Node1&#45;&gt;Node3</title>
<path fill="none" stroke="#63b8ff" d="M264.3,-164.51C254.22,-156.77 239.46,-145.43 227.44,-136.2"/>
<polygon fill="#63b8ff" stroke="#63b8ff" points="229.79,-133.6 219.73,-130.28 225.53,-139.15 229.79,-133.6"/>
</g>
<!-- Node4 -->
<g id="node4" class="node">
<title>Node4</title>
<g id="a_node4"><a xlink:title=" ">
<polygon fill="#e0e0e0" stroke="#999999" points="396.5,-129 295.5,-129 295.5,-110 396.5,-110 396.5,-129"/>
<text text-anchor="middle" x="346" y="-117" font-family="Helvetica,sans-Serif" font-size="10.00">boost/log/trivial.hpp</text>
</a>
</g>
</g>
<!-- Node1&#45;&gt;Node4 -->
<g id="edge3" class="edge">
<title>Node1&#45;&gt;Node4</title>
<path fill="none" stroke="#63b8ff" d="M287.87,-164.51C298.09,-156.77 313.07,-145.43 325.26,-136.2"/>
<polygon fill="#63b8ff" stroke="#63b8ff" points="327.23,-139.1 333.09,-130.27 323.01,-133.52 327.23,-139.1"/>
</g>
<!-- Node5 -->
<g id="node5" class="node">
<title>Node5</title>
<g id="a_node5"><a xlink:href="_dma_buffer_abstract_8hpp.html" target="_top" xlink:title=" ">
<polygon fill="white" stroke="#666666" points="531.5,-129 414.5,-129 414.5,-110 531.5,-110 531.5,-129"/>
<text text-anchor="middle" x="473" y="-117" font-family="Helvetica,sans-Serif" font-size="10.00">DmaBufferAbstract.hpp</text>
</a>
</g>
</g>
<!-- Node1&#45;&gt;Node5 -->
<g id="edge4" class="edge">
<title>Node1&#45;&gt;Node5</title>
<path fill="none" stroke="#63b8ff" d="M309.42,-164.51C342.35,-155.65 392.84,-142.07 429.02,-132.33"/>
<polygon fill="#63b8ff" stroke="#63b8ff" points="429.54,-135.82 438.29,-129.84 427.72,-129.06 429.54,-135.82"/>
</g>
<!-- Node6 -->
<g id="node6" class="node">
<title>Node6</title>
<g id="a_node6"><a xlink:title=" ">
<polygon fill="#e0e0e0" stroke="#999999" points="379,-74 333,-74 333,-55 379,-55 379,-74"/>
<text text-anchor="middle" x="356" y="-62" font-family="Helvetica,sans-Serif" font-size="10.00">cstdint</text>
</a>
</g>
</g>
<!-- Node5&#45;&gt;Node6 -->
<g id="edge5" class="edge">
<title>Node5&#45;&gt;Node6</title>
<path fill="none" stroke="#63b8ff" d="M453.15,-109.51C434.72,-101.16 407.02,-88.61 385.91,-79.05"/>
<polygon fill="#63b8ff" stroke="#63b8ff" points="387.49,-75.92 376.93,-74.98 384.6,-82.3 387.49,-75.92"/>
</g>
<!-- Node7 -->
<g id="node7" class="node">
<title>Node7</title>
<g id="a_node7"><a xlink:title=" ">
<polygon fill="#e0e0e0" stroke="#999999" points="441,-74 397,-74 397,-55 441,-55 441,-74"/>
<text text-anchor="middle" x="419" y="-62" font-family="Helvetica,sans-Serif" font-size="10.00">vector</text>
</a>
</g>
</g>
<!-- Node5&#45;&gt;Node7 -->
<g id="edge6" class="edge">
<title>Node5&#45;&gt;Node7</title>
<path fill="none" stroke="#63b8ff" d="M464.08,-109.75C456.55,-102.35 445.53,-91.54 436.27,-82.45"/>
<polygon fill="#63b8ff" stroke="#63b8ff" points="438.78,-80.01 429.19,-75.5 433.88,-85 438.78,-80.01"/>
</g>
<!-- Node8 -->
<g id="node8" class="node">
<title>Node8</title>
<g id="a_node8"><a xlink:title=" ">
<polygon fill="#e0e0e0" stroke="#999999" points="596.5,-74 459.5,-74 459.5,-55 596.5,-55 596.5,-74"/>
<text text-anchor="middle" x="528" y="-62" font-family="Helvetica,sans-Serif" font-size="10.00">boost/core/noncopyable.hpp</text>
</a>
</g>
</g>
<!-- Node5&#45;&gt;Node8 -->
<g id="edge7" class="edge">
<title>Node5&#45;&gt;Node8</title>
<path fill="none" stroke="#63b8ff" d="M482.08,-109.75C489.84,-102.27 501.21,-91.32 510.7,-82.17"/>
<polygon fill="#63b8ff" stroke="#63b8ff" points="512.86,-84.95 517.63,-75.49 508,-79.91 512.86,-84.95"/>
</g>
<!-- Node9 -->
<g id="node9" class="node">
<title>Node9</title>
<g id="a_node9"><a xlink:href="_uio_config_8hpp.html" target="_top" xlink:title=" ">
<polygon fill="white" stroke="#666666" points="725.5,-74 614.5,-74 614.5,-55 725.5,-55 725.5,-74"/>
<text text-anchor="middle" x="670" y="-62" font-family="Helvetica,sans-Serif" font-size="10.00">udmaio/UioConfig.hpp</text>
</a>
</g>
</g>
<!-- Node5&#45;&gt;Node9 -->
<g id="edge8" class="edge">
<title>Node5&#45;&gt;Node9</title>
<path fill="none" stroke="#63b8ff" d="M506.42,-109.51C539.35,-100.65 589.84,-87.07 626.02,-77.33"/>
<polygon fill="#63b8ff" stroke="#63b8ff" points="626.54,-80.82 635.29,-74.84 624.72,-74.06 626.54,-80.82"/>
</g>
<!-- Node10 -->
<g id="node10" class="node">
<title>Node10</title>
<g id="a_node10"><a xlink:title=" ">
<polygon fill="#e0e0e0" stroke="#999999" points="622,-19 568,-19 568,0 622,0 622,-19"/>
<text text-anchor="middle" x="595" y="-7" font-family="Helvetica,sans-Serif" font-size="10.00">iostream</text>
</a>
</g>
</g>
<!-- Node9&#45;&gt;Node10 -->
<g id="edge9" class="edge">
<title>Node9&#45;&gt;Node10</title>
<path fill="none" stroke="#63b8ff" d="M657.28,-54.51C646.22,-46.7 629.96,-35.21 616.83,-25.93"/>
<polygon fill="#63b8ff" stroke="#63b8ff" points="618.96,-23.14 608.77,-20.23 614.92,-28.86 618.96,-23.14"/>
</g>
<!-- Node11 -->
<g id="node11" class="node">
<title>Node11</title>
<g id="a_node11"><a xlink:title=" ">
<polygon fill="#e0e0e0" stroke="#999999" points="699.5,-19 640.5,-19 640.5,0 699.5,0 699.5,-19"/>
<text text-anchor="middle" x="670" y="-7" font-family="Helvetica,sans-Serif" font-size="10.00">stdexcept</text>
</a>
</g>
</g>
<!-- Node9&#45;&gt;Node11 -->
<g id="edge10" class="edge">
<title>Node9&#45;&gt;Node11</title>
<path fill="none" stroke="#63b8ff" d="M670,-54.75C670,-48.27 670,-39.16 670,-30.9"/>
<polygon fill="#63b8ff" stroke="#63b8ff" points="673.5,-30.96 670,-20.96 666.5,-30.96 673.5,-30.96"/>
</g>
<!-- Node12 -->
<g id="node12" class="node">
<title>Node12</title>
<g id="a_node12"><a xlink:title=" ">
<polygon fill="#e0e0e0" stroke="#999999" points="758.5,-19 717.5,-19 717.5,0 758.5,0 758.5,-19"/>
<text text-anchor="middle" x="738" y="-7" font-family="Helvetica,sans-Serif" font-size="10.00">string</text>
</a>
</g>
</g>
<!-- Node9&#45;&gt;Node12 -->
<g id="edge11" class="edge">
<title>Node9&#45;&gt;Node12</title>
<path fill="none" stroke="#63b8ff" d="M681.54,-54.51C691.46,-46.77 706.01,-35.43 717.86,-26.2"/>
<polygon fill="#63b8ff" stroke="#63b8ff" points="719.71,-29.2 725.44,-20.29 715.4,-23.68 719.71,-29.2"/>
</g>
</g>
</svg>
