<?xml version="1.0" encoding="UTF-8" standalone="no"?>
<!DOCTYPE svg PUBLIC "-//W3C//DTD SVG 1.1//EN"
 "http://www.w3.org/Graphics/SVG/1.1/DTD/svg11.dtd">
<!-- Generated by graphviz version 7.0.5 (20221223.1930)
 -->
<!-- Title: UioIfBase.hpp Pages: 1 -->
<svg width="640pt" height="302pt"
 viewBox="0.00 0.00 640.00 302.00" xmlns="http://www.w3.org/2000/svg" xmlns:xlink="http://www.w3.org/1999/xlink">
<g id="graph0" class="graph" transform="scale(1 1) rotate(0) translate(4 298)">
<title>UioIfBase.hpp</title>
<!-- Node1 -->
<g id="node1" class="node">
<title>Node1</title>
<g id="a_node1"><a xlink:title=" ">
<polygon fill="#999999" stroke="#666666" points="256,-294 178,-294 178,-275 256,-275 256,-294"/>
<text text-anchor="middle" x="217" y="-282" font-family="Helvetica,sans-Serif" font-size="10.00">UioIfBase.hpp</text>
</a>
</g>
</g>
<!-- Node2 -->
<g id="node2" class="node">
<title>Node2</title>
<g id="a_node2"><a xlink:href="_reg_accessor_8hpp.html" target="_top" xlink:title=" ">
<polygon fill="white" stroke="#666666" points="217.5,-239 124.5,-239 124.5,-220 217.5,-220 217.5,-239"/>
<text text-anchor="middle" x="171" y="-227" font-family="Helvetica,sans-Serif" font-size="10.00">RegAccessor.hpp</text>
</a>
</g>
</g>
<!-- Node1&#45;&gt;Node2 -->
<g id="edge1" class="edge">
<title>Node1&#45;&gt;Node2</title>
<path fill="none" stroke="#63b8ff" d="M202,-266.22C194.24,-257.28 185.1,-246.74 178.76,-239.44"/>
<polygon fill="#63b8ff" stroke="#63b8ff" points="199.21,-268.35 208.41,-273.61 204.5,-263.76 199.21,-268.35"/>
</g>
<!-- Node12 -->
<g id="node12" class="node">
<title>Node12</title>
<g id="a_node12"><a xlink:href="_uio_if_8hpp.html" target="_top" xlink:title=" ">
<polygon fill="white" stroke="#666666" points="301,-239 245,-239 245,-220 301,-220 301,-239"/>
<text text-anchor="middle" x="273" y="-227" font-family="Helvetica,sans-Serif" font-size="10.00">UioIf.hpp</text>
</a>
</g>
</g>
<!-- Node1&#45;&gt;Node12 -->
<g id="edge14" class="edge">
<title>Node1&#45;&gt;Node12</title>
<path fill="none" stroke="#63b8ff" d="M234.63,-266.81C244.24,-257.72 255.75,-246.82 263.64,-239.36"/>
<polygon fill="#63b8ff" stroke="#63b8ff" points="232.46,-264.05 227.6,-273.47 237.27,-269.14 232.46,-264.05"/>
</g>
<!-- Node3 -->
<g id="node3" class="node">
<title>Node3</title>
<g id="a_node3"><a xlink:href="_uio_axi_dma_if_8hpp.html" target="_top" xlink:title=" ">
<polygon fill="white" stroke="#666666" points="317.5,-184 228.5,-184 228.5,-165 317.5,-165 317.5,-184"/>
<text text-anchor="middle" x="273" y="-172" font-family="Helvetica,sans-Serif" font-size="10.00">UioAxiDmaIf.hpp</text>
</a>
</g>
</g>
<!-- Node2&#45;&gt;Node3 -->
<g id="edge2" class="edge">
<title>Node2&#45;&gt;Node3</title>
<path fill="none" stroke="#63b8ff" d="M198.39,-214.27C216.72,-204.74 240.26,-192.51 255.95,-184.36"/>
<polygon fill="#63b8ff" stroke="#63b8ff" points="196.91,-211.09 189.65,-218.81 200.13,-217.31 196.91,-211.09"/>
</g>
<!-- Node9 -->
<g id="node9" class="node">
<title>Node9</title>
<g id="a_node9"><a xlink:href="_uio_gpio_status_8hpp.html" target="_top" xlink:title=" ">
<polygon fill="white" stroke="#666666" points="210,-184 112,-184 112,-165 210,-165 210,-184"/>
<text text-anchor="middle" x="161" y="-172" font-family="Helvetica,sans-Serif" font-size="10.00">UioGpioStatus.hpp</text>
</a>
</g>
</g>
<!-- Node2&#45;&gt;Node9 -->
<g id="edge9" class="edge">
<title>Node2&#45;&gt;Node9</title>
<path fill="none" stroke="#63b8ff" d="M167.25,-208.64C165.68,-200.31 163.93,-191.05 162.69,-184.44"/>
<polygon fill="#63b8ff" stroke="#63b8ff" points="163.77,-209.08 169.07,-218.26 170.65,-207.79 163.77,-209.08"/>
</g>
<!-- Node10 -->
<g id="node10" class="node">
<title>Node10</title>
<g id="a_node10"><a xlink:href="_uio_traffic_gen_8hpp.html" target="_top" xlink:title=" ">
<polygon fill="white" stroke="#666666" points="94,-184 0,-184 0,-165 94,-165 94,-184"/>
<text text-anchor="middle" x="47" y="-172" font-family="Helvetica,sans-Serif" font-size="10.00">UioTrafficGen.hpp</text>
</a>
</g>
</g>
<!-- Node2&#45;&gt;Node10 -->
<g id="edge11" class="edge">
<title>Node2&#45;&gt;Node10</title>
<path fill="none" stroke="#63b8ff" d="M139.56,-215.06C117.03,-205.43 87.33,-192.74 67.72,-184.36"/>
<polygon fill="#63b8ff" stroke="#63b8ff" points="138,-218.2 148.57,-218.91 140.75,-211.77 138,-218.2"/>
</g>
<!-- Node4 -->
<g id="node4" class="node">
<title>Node4</title>
<g id="a_node4"><a xlink:href="_data_handler_abstract_8hpp.html" target="_top" xlink:title=" ">
<polygon fill="white" stroke="#666666" points="482.5,-129 357.5,-129 357.5,-110 482.5,-110 482.5,-129"/>
<text text-anchor="middle" x="420" y="-117" font-family="Helvetica,sans-Serif" font-size="10.00">DataHandlerAbstract.hpp</text>
</a>
</g>
</g>
<!-- Node3&#45;&gt;Node4 -->
<g id="edge3" class="edge">
<title>Node3&#45;&gt;Node4</title>
<path fill="none" stroke="#63b8ff" d="M308.47,-160.71C335.37,-151.01 371.66,-137.93 395.43,-129.36"/>
<polygon fill="#63b8ff" stroke="#63b8ff" points="307.58,-157.31 299.36,-164 309.95,-163.9 307.58,-157.31"/>
</g>
<!-- Node7 -->
<g id="node7" class="node">
<title>Node7</title>
<g id="a_node7"><a xlink:href="axi__dma__demo_8cpp.html" target="_top" xlink:title=" ">
<polygon fill="white" stroke="#666666" points="334,-19 234,-19 234,0 334,0 334,-19"/>
<text text-anchor="middle" x="284" y="-7" font-family="Helvetica,sans-Serif" font-size="10.00">axi_dma_demo.cpp</text>
</a>
</g>
</g>
<!-- Node3&#45;&gt;Node7 -->
<g id="edge8" class="edge">
<title>Node3&#45;&gt;Node7</title>
<path fill="none" stroke="#63b8ff" d="M274.35,-153.44C276.76,-117.74 281.7,-44.57 283.41,-19.31"/>
<polygon fill="#63b8ff" stroke="#63b8ff" points="270.87,-153.01 273.69,-163.23 277.86,-153.48 270.87,-153.01"/>
</g>
<!-- Node5 -->
<g id="node5" class="node">
<title>Node5</title>
<g id="a_node5"><a xlink:href="_data_handler_print_8hpp.html" target="_top" xlink:title=" ">
<polygon fill="white" stroke="#666666" points="462.5,-74 353.5,-74 353.5,-55 462.5,-55 462.5,-74"/>
<text text-anchor="middle" x="408" y="-62" font-family="Helvetica,sans-Serif" font-size="10.00">DataHandlerPrint.hpp</text>
</a>
</g>
</g>
<!-- Node4&#45;&gt;Node5 -->
<g id="edge4" class="edge">
<title>Node4&#45;&gt;Node5</title>
<path fill="none" stroke="#63b8ff" d="M415.5,-98.64C413.62,-90.31 411.52,-81.05 410.02,-74.44"/>
<polygon fill="#63b8ff" stroke="#63b8ff" points="412.06,-99.29 417.68,-108.27 418.89,-97.75 412.06,-99.29"/>
</g>
<!-- Node8 -->
<g id="node8" class="node">
<title>Node8</title>
<g id="a_node8"><a xlink:href="_data_handler_sync_8hpp.html" target="_top" xlink:title=" ">
<polygon fill="white" stroke="#666666" points="591,-74 481,-74 481,-55 591,-55 591,-74"/>
<text text-anchor="middle" x="536" y="-62" font-family="Helvetica,sans-Serif" font-size="10.00">DataHandlerSync.hpp</text>
</a>
</g>
</g>
<!-- Node4&#45;&gt;Node8 -->
<g id="edge7" class="edge">
<title>Node4&#45;&gt;Node8</title>
<path fill="none" stroke="#63b8ff" d="M449.99,-104.8C470.99,-95.2 498.44,-82.66 516.61,-74.36"/>
<polygon fill="#63b8ff" stroke="#63b8ff" points="448.7,-101.54 441.05,-108.88 451.6,-107.91 448.7,-101.54"/>
</g>
<!-- Node6 -->
<g id="node6" class="node">
<title>Node6</title>
<g id="a_node6"><a xlink:href="_data_handler_print_8cpp.html" target="_top" xlink:title=" ">
<polygon fill="white" stroke="#666666" points="462.5,-19 353.5,-19 353.5,0 462.5,0 462.5,-19"/>
<text text-anchor="middle" x="408" y="-7" font-family="Helvetica,sans-Serif" font-size="10.00">DataHandlerPrint.cpp</text>
</a>
</g>
</g>
<!-- Node5&#45;&gt;Node6 -->
<g id="edge5" class="edge">
<title>Node5&#45;&gt;Node6</title>
<path fill="none" stroke="#63b8ff" d="M408,-43.35C408,-35.1 408,-25.97 408,-19.44"/>
<polygon fill="#63b8ff" stroke="#63b8ff" points="404.5,-43.23 408,-53.23 411.5,-43.23 404.5,-43.23"/>
</g>
<!-- Node5&#45;&gt;Node7 -->
<g id="edge6" class="edge">
<title>Node5&#45;&gt;Node7</title>
<path fill="none" stroke="#63b8ff" d="M376.56,-50.06C354.03,-40.43 324.33,-27.74 304.72,-19.36"/>
<polygon fill="#63b8ff" stroke="#63b8ff" points="375,-53.2 385.57,-53.91 377.75,-46.77 375,-53.2"/>
</g>
<!-- Node9&#45;&gt;Node7 -->
<g id="edge10" class="edge">
<title>Node9&#45;&gt;Node7</title>
<path fill="none" stroke="#63b8ff" d="M174.41,-155.73C200.64,-120.97 257.87,-45.12 277.35,-19.31"/>
<polygon fill="#63b8ff" stroke="#63b8ff" points="171.75,-153.44 168.52,-163.53 177.34,-157.65 171.75,-153.44"/>
</g>
<!-- Node10&#45;&gt;Node7 -->
<g id="edge13" class="edge">
<title>Node10&#45;&gt;Node7</title>
<path fill="none" stroke="#63b8ff" d="M48.68,-153.49C50.77,-139.83 55.47,-122.09 66,-110 111.36,-57.93 189.56,-31.55 238.93,-19.44"/>
<polygon fill="#63b8ff" stroke="#63b8ff" points="45.24,-152.77 47.57,-163.1 52.19,-153.57 45.24,-152.77"/>
</g>
<!-- Node11 -->
<g id="node11" class="node">
<title>Node11</title>
<g id="a_node11"><a xlink:href="_uio_traffic_gen_8cpp.html" target="_top" xlink:title=" ">
<polygon fill="white" stroke="#666666" points="169,-129 75,-129 75,-110 169,-110 169,-129"/>
<text text-anchor="middle" x="122" y="-117" font-family="Helvetica,sans-Serif" font-size="10.00">UioTrafficGen.cpp</text>
</a>
</g>
</g>
<!-- Node10&#45;&gt;Node11 -->
<g id="edge12" class="edge">
<title>Node10&#45;&gt;Node11</title>
<path fill="none" stroke="#63b8ff" d="M69.05,-157.92C82.22,-148.61 98.47,-137.13 109.47,-129.36"/>
<polygon fill="#63b8ff" stroke="#63b8ff" points="67.11,-155.01 60.96,-163.64 71.15,-160.72 67.11,-155.01"/>
</g>
<!-- Node12&#45;&gt;Node3 -->
<g id="edge16" class="edge">
<title>Node12&#45;&gt;Node3</title>
<path fill="none" stroke="#63b8ff" d="M273,-208.35C273,-200.1 273,-190.97 273,-184.44"/>
<polygon fill="#63b8ff" stroke="#63b8ff" points="269.5,-208.23 273,-218.23 276.5,-208.23 269.5,-208.23"/>
</g>
<!-- Node12&#45;&gt;Node7 -->
<g id="edge22" class="edge">
<title>Node12&#45;&gt;Node7</title>
<path fill="none" stroke="#63b8ff" d="M299.64,-213.25C309.87,-205.86 320.42,-195.97 326,-184 353.63,-124.73 307.18,-45.3 290,-19.2"/>
<polygon fill="#63b8ff" stroke="#63b8ff" points="297.77,-210.29 291.36,-218.73 301.63,-216.13 297.77,-210.29"/>
</g>
<!-- Node12&#45;&gt;Node9 -->
<g id="edge17" class="edge">
<title>Node12&#45;&gt;Node9</title>
<path fill="none" stroke="#63b8ff" d="M243.77,-214.67C223.53,-205.09 197.19,-192.62 179.72,-184.36"/>
<polygon fill="#63b8ff" stroke="#63b8ff" points="242.1,-217.75 252.63,-218.86 245.09,-211.42 242.1,-217.75"/>
</g>
<!-- Node12&#45;&gt;Node10 -->
<g id="edge21" class="edge">
<title>Node12&#45;&gt;Node10</title>
<path fill="none" stroke="#63b8ff" d="M233.75,-219.3C192.09,-209.53 126.68,-194.19 85.36,-184.5"/>
<polygon fill="#63b8ff" stroke="#63b8ff" points="232.83,-222.67 243.36,-221.55 234.42,-215.86 232.83,-222.67"/>
</g>
<!-- Node13 -->
<g id="node13" class="node">
<title>Node13</title>
<g id="a_node13"><a xlink:href="_fpga_mem_buffer_over_axi_8hpp.html" target="_top" xlink:title=" ">
<polygon fill="white" stroke="#666666" points="632,-184 494,-184 494,-165 632,-165 632,-184"/>
<text text-anchor="middle" x="563" y="-172" font-family="Helvetica,sans-Serif" font-size="10.00">FpgaMemBufferOverAxi.hpp</text>
</a>
</g>
</g>
<!-- Node12&#45;&gt;Node13 -->
<g id="edge15" class="edge">
<title>Node12&#45;&gt;Node13</title>
<path fill="none" stroke="#63b8ff" d="M312.49,-221.28C364.81,-211.72 457.1,-194.85 513.87,-184.48"/>
<polygon fill="#63b8ff" stroke="#63b8ff" points="312.03,-217.81 302.82,-223.05 313.29,-224.69 312.03,-217.81"/>
</g>
<!-- Node14 -->
<g id="node14" class="node">
<title>Node14</title>
<g id="a_node14"><a xlink:href="_uio_mem_sgdma_8hpp.html" target="_top" xlink:title=" ">
<polygon fill="white" stroke="#666666" points="476,-184 374,-184 374,-165 476,-165 476,-184"/>
<text text-anchor="middle" x="425" y="-172" font-family="Helvetica,sans-Serif" font-size="10.00">UioMemSgdma.hpp</text>
</a>
</g>
</g>
<!-- Node12&#45;&gt;Node14 -->
<g id="edge18" class="edge">
<title>Node12&#45;&gt;Node14</title>
<path fill="none" stroke="#63b8ff" d="M309.64,-215.73C337.36,-206.06 374.75,-193.02 399.34,-184.45"/>
<polygon fill="#63b8ff" stroke="#63b8ff" points="308.5,-212.41 300.21,-219.01 310.81,-219.02 308.5,-212.41"/>
</g>
<!-- Node14&#45;&gt;Node4 -->
<g id="edge19" class="edge">
<title>Node14&#45;&gt;Node4</title>
<path fill="none" stroke="#63b8ff" d="M423.1,-153.35C422.32,-145.1 421.46,-135.97 420.84,-129.44"/>
<polygon fill="#63b8ff" stroke="#63b8ff" points="419.61,-153.61 424.03,-163.24 426.58,-152.96 419.61,-153.61"/>
</g>
<!-- Node14&#45;&gt;Node7 -->
<g id="edge20" class="edge">
<title>Node14&#45;&gt;Node7</title>
<path fill="none" stroke="#63b8ff" d="M473.48,-161.57C539.11,-143.22 643.35,-104.87 600,-55 562.31,-11.64 400.88,-27.03 344,-19 340.87,-18.56 337.66,-18.1 334.41,-17.65"/>
<polygon fill="#63b8ff" stroke="#63b8ff" points="472.7,-158.16 463.97,-164.16 474.54,-164.91 472.7,-158.16"/>
</g>
</g>
</svg>
