<?xml version="1.0" encoding="UTF-8" standalone="no"?>
<!DOCTYPE svg PUBLIC "-//W3C//DTD SVG 1.1//EN"
 "http://www.w3.org/Graphics/SVG/1.1/DTD/svg11.dtd">
<!-- Generated by graphviz version 7.0.5 (20221223.1930)
 -->
<!-- Title: UioIf.hpp Pages: 1 -->
<svg width="678pt" height="247pt"
 viewBox="0.00 0.00 678.00 247.00" xmlns="http://www.w3.org/2000/svg" xmlns:xlink="http://www.w3.org/1999/xlink">
<g id="graph0" class="graph" transform="scale(1 1) rotate(0) translate(4 243)">
<title>UioIf.hpp</title>
<!-- Node1 -->
<g id="node1" class="node">
<title>Node1</title>
<g id="a_node1"><a xlink:title=" ">
<polygon fill="#999999" stroke="#666666" points="382,-239 326,-239 326,-220 382,-220 382,-239"/>
<text text-anchor="middle" x="354" y="-227" font-family="Helvetica,sans-Serif" font-size="10.00">UioIf.hpp</text>
</a>
</g>
</g>
<!-- Node2 -->
<g id="node2" class="node">
<title>Node2</title>
<g id="a_node2"><a xlink:href="_fpga_mem_buffer_over_axi_8hpp.html" target="_top" xlink:title=" ">
<polygon fill="white" stroke="#666666" points="138,-184 0,-184 0,-165 138,-165 138,-184"/>
<text text-anchor="middle" x="69" y="-172" font-family="Helvetica,sans-Serif" font-size="10.00">FpgaMemBufferOverAxi.hpp</text>
</a>
</g>
</g>
<!-- Node1&#45;&gt;Node2 -->
<g id="edge1" class="edge">
<title>Node1&#45;&gt;Node2</title>
<path fill="none" stroke="#63b8ff" d="M314.32,-221.12C262.76,-211.53 172.81,-194.81 117.33,-184.49"/>
<polygon fill="#63b8ff" stroke="#63b8ff" points="313.67,-224.56 324.14,-222.95 314.95,-217.68 313.67,-224.56"/>
</g>
<!-- Node3 -->
<g id="node3" class="node">
<title>Node3</title>
<g id="a_node3"><a xlink:href="_uio_axi_dma_if_8hpp.html" target="_top" xlink:title=" ">
<polygon fill="white" stroke="#666666" points="245.5,-184 156.5,-184 156.5,-165 245.5,-165 245.5,-184"/>
<text text-anchor="middle" x="201" y="-172" font-family="Helvetica,sans-Serif" font-size="10.00">UioAxiDmaIf.hpp</text>
</a>
</g>
</g>
<!-- Node1&#45;&gt;Node3 -->
<g id="edge2" class="edge">
<title>Node1&#45;&gt;Node3</title>
<path fill="none" stroke="#63b8ff" d="M317.49,-215.85C289.55,-206.17 251.69,-193.06 226.83,-184.45"/>
<polygon fill="#63b8ff" stroke="#63b8ff" points="316.02,-219.05 326.62,-219.01 318.31,-212.43 316.02,-219.05"/>
</g>
<!-- Node7 -->
<g id="node7" class="node">
<title>Node7</title>
<g id="a_node7"><a xlink:href="axi__dma__demo_8cpp.html" target="_top" xlink:title=" ">
<polygon fill="white" stroke="#666666" points="425,-19 325,-19 325,0 425,0 425,-19"/>
<text text-anchor="middle" x="375" y="-7" font-family="Helvetica,sans-Serif" font-size="10.00">axi_dma_demo.cpp</text>
</a>
</g>
</g>
<!-- Node1&#45;&gt;Node7 -->
<g id="edge17" class="edge">
<title>Node1&#45;&gt;Node7</title>
<path fill="none" stroke="#63b8ff" d="M365.12,-209.71C369.07,-202.01 373.02,-192.85 375,-184 388.83,-122.28 379.97,-45.07 376.34,-19.31"/>
<polygon fill="#63b8ff" stroke="#63b8ff" points="362.09,-207.95 360.31,-218.4 368.22,-211.34 362.09,-207.95"/>
</g>
<!-- Node9 -->
<g id="node9" class="node">
<title>Node9</title>
<g id="a_node9"><a xlink:href="_uio_gpio_status_8hpp.html" target="_top" xlink:title=" ">
<polygon fill="white" stroke="#666666" points="520,-129 422,-129 422,-110 520,-110 520,-129"/>
<text text-anchor="middle" x="471" y="-117" font-family="Helvetica,sans-Serif" font-size="10.00">UioGpioStatus.hpp</text>
</a>
</g>
</g>
<!-- Node1&#45;&gt;Node9 -->
<g id="edge9" class="edge">
<title>Node1&#45;&gt;Node9</title>
<path fill="none" stroke="#63b8ff" d="M374.16,-212.68C384.49,-204.38 397.14,-193.9 408,-184 428.43,-165.38 450.91,-141.95 462.71,-129.41"/>
<polygon fill="#63b8ff" stroke="#63b8ff" points="372.28,-209.71 366.63,-218.67 376.64,-215.19 372.28,-209.71"/>
</g>
<!-- Node10 -->
<g id="node10" class="node">
<title>Node10</title>
<g id="a_node10"><a xlink:href="_uio_mem_sgdma_8hpp.html" target="_top" xlink:title=" ">
<polygon fill="white" stroke="#666666" points="366,-184 264,-184 264,-165 366,-165 366,-184"/>
<text text-anchor="middle" x="315" y="-172" font-family="Helvetica,sans-Serif" font-size="10.00">UioMemSgdma.hpp</text>
</a>
</g>
</g>
<!-- Node1&#45;&gt;Node10 -->
<g id="edge11" class="edge">
<title>Node1&#45;&gt;Node10</title>
<path fill="none" stroke="#63b8ff" d="M340.86,-210.65C334.38,-201.84 326.84,-191.59 321.58,-184.44"/>
<polygon fill="#63b8ff" stroke="#63b8ff" points="337.92,-212.55 346.66,-218.53 343.56,-208.4 337.92,-212.55"/>
</g>
<!-- Node11 -->
<g id="node11" class="node">
<title>Node11</title>
<g id="a_node11"><a xlink:href="_uio_traffic_gen_8hpp.html" target="_top" xlink:title=" ">
<polygon fill="white" stroke="#666666" points="595,-184 501,-184 501,-165 595,-165 595,-184"/>
<text text-anchor="middle" x="548" y="-172" font-family="Helvetica,sans-Serif" font-size="10.00">UioTrafficGen.hpp</text>
</a>
</g>
</g>
<!-- Node1&#45;&gt;Node11 -->
<g id="edge14" class="edge">
<title>Node1&#45;&gt;Node11</title>
<path fill="none" stroke="#63b8ff" d="M393.23,-217.78C429.09,-207.99 481.53,-193.66 515.21,-184.46"/>
<polygon fill="#63b8ff" stroke="#63b8ff" points="392.39,-214.38 383.67,-220.39 394.24,-221.14 392.39,-214.38"/>
</g>
<!-- Node4 -->
<g id="node4" class="node">
<title>Node4</title>
<g id="a_node4"><a xlink:href="_data_handler_abstract_8hpp.html" target="_top" xlink:title=" ">
<polygon fill="white" stroke="#666666" points="295.5,-129 170.5,-129 170.5,-110 295.5,-110 295.5,-129"/>
<text text-anchor="middle" x="233" y="-117" font-family="Helvetica,sans-Serif" font-size="10.00">DataHandlerAbstract.hpp</text>
</a>
</g>
</g>
<!-- Node3&#45;&gt;Node4 -->
<g id="edge3" class="edge">
<title>Node3&#45;&gt;Node4</title>
<path fill="none" stroke="#63b8ff" d="M212.12,-155.08C217.36,-146.4 223.38,-136.44 227.6,-129.44"/>
<polygon fill="#63b8ff" stroke="#63b8ff" points="209.24,-153.08 207.07,-163.45 215.23,-156.7 209.24,-153.08"/>
</g>
<!-- Node3&#45;&gt;Node7 -->
<g id="edge8" class="edge">
<title>Node3&#45;&gt;Node7</title>
<path fill="none" stroke="#63b8ff" d="M168.65,-159.94C122.26,-138.65 46.09,-95.59 81,-55 96.65,-36.8 244.76,-21.56 324.59,-14.58"/>
<polygon fill="#63b8ff" stroke="#63b8ff" points="167.22,-163.14 177.78,-164.02 170.07,-156.74 167.22,-163.14"/>
</g>
<!-- Node5 -->
<g id="node5" class="node">
<title>Node5</title>
<g id="a_node5"><a xlink:href="_data_handler_print_8hpp.html" target="_top" xlink:title=" ">
<polygon fill="white" stroke="#666666" points="199.5,-74 90.5,-74 90.5,-55 199.5,-55 199.5,-74"/>
<text text-anchor="middle" x="145" y="-62" font-family="Helvetica,sans-Serif" font-size="10.00">DataHandlerPrint.hpp</text>
</a>
</g>
</g>
<!-- Node4&#45;&gt;Node5 -->
<g id="edge4" class="edge">
<title>Node4&#45;&gt;Node5</title>
<path fill="none" stroke="#63b8ff" d="M208.48,-103.73C192.8,-94.29 172.99,-82.36 159.71,-74.36"/>
<polygon fill="#63b8ff" stroke="#63b8ff" points="206.4,-106.57 216.78,-108.73 210.01,-100.57 206.4,-106.57"/>
</g>
<!-- Node8 -->
<g id="node8" class="node">
<title>Node8</title>
<g id="a_node8"><a xlink:href="_data_handler_sync_8hpp.html" target="_top" xlink:title=" ">
<polygon fill="white" stroke="#666666" points="328,-74 218,-74 218,-55 328,-55 328,-74"/>
<text text-anchor="middle" x="273" y="-62" font-family="Helvetica,sans-Serif" font-size="10.00">DataHandlerSync.hpp</text>
</a>
</g>
</g>
<!-- Node4&#45;&gt;Node8 -->
<g id="edge7" class="edge">
<title>Node4&#45;&gt;Node8</title>
<path fill="none" stroke="#63b8ff" d="M246.47,-100.65C253.12,-91.84 260.86,-81.59 266.25,-74.44"/>
<polygon fill="#63b8ff" stroke="#63b8ff" points="243.75,-98.45 240.52,-108.54 249.33,-102.67 243.75,-98.45"/>
</g>
<!-- Node6 -->
<g id="node6" class="node">
<title>Node6</title>
<g id="a_node6"><a xlink:href="_data_handler_print_8cpp.html" target="_top" xlink:title=" ">
<polygon fill="white" stroke="#666666" points="199.5,-19 90.5,-19 90.5,0 199.5,0 199.5,-19"/>
<text text-anchor="middle" x="145" y="-7" font-family="Helvetica,sans-Serif" font-size="10.00">DataHandlerPrint.cpp</text>
</a>
</g>
</g>
<!-- Node5&#45;&gt;Node6 -->
<g id="edge5" class="edge">
<title>Node5&#45;&gt;Node6</title>
<path fill="none" stroke="#63b8ff" d="M145,-43.35C145,-35.1 145,-25.97 145,-19.44"/>
<polygon fill="#63b8ff" stroke="#63b8ff" points="141.5,-43.23 145,-53.23 148.5,-43.23 141.5,-43.23"/>
</g>
<!-- Node5&#45;&gt;Node7 -->
<g id="edge6" class="edge">
<title>Node5&#45;&gt;Node7</title>
<path fill="none" stroke="#63b8ff" d="M195.2,-51.93C237.58,-42.17 297.39,-28.38 336.18,-19.45"/>
<polygon fill="#63b8ff" stroke="#63b8ff" points="194.45,-48.51 185.49,-54.17 196.02,-55.33 194.45,-48.51"/>
</g>
<!-- Node9&#45;&gt;Node7 -->
<g id="edge10" class="edge">
<title>Node9&#45;&gt;Node7</title>
<path fill="none" stroke="#63b8ff" d="M455.55,-101.12C434.85,-77.83 398.88,-37.36 382.96,-19.46"/>
<polygon fill="#63b8ff" stroke="#63b8ff" points="452.88,-103.38 462.14,-108.53 458.11,-98.73 452.88,-103.38"/>
</g>
<!-- Node10&#45;&gt;Node4 -->
<g id="edge12" class="edge">
<title>Node10&#45;&gt;Node4</title>
<path fill="none" stroke="#63b8ff" d="M291.73,-158.46C277.19,-149.06 258.96,-137.28 246.7,-129.36"/>
<polygon fill="#63b8ff" stroke="#63b8ff" points="289.52,-161.2 299.82,-163.69 293.32,-155.32 289.52,-161.2"/>
</g>
<!-- Node10&#45;&gt;Node7 -->
<g id="edge13" class="edge">
<title>Node10&#45;&gt;Node7</title>
<path fill="none" stroke="#63b8ff" d="M322.04,-154.37C335.05,-119.03 362.38,-44.79 371.76,-19.31"/>
<polygon fill="#63b8ff" stroke="#63b8ff" points="318.92,-152.72 318.75,-163.32 325.49,-155.14 318.92,-152.72"/>
</g>
<!-- Node11&#45;&gt;Node7 -->
<g id="edge16" class="edge">
<title>Node11&#45;&gt;Node7</title>
<path fill="none" stroke="#63b8ff" d="M545.68,-153.54C543.3,-140.14 538.53,-122.69 529,-110 494.6,-64.18 432.44,-33.6 398.56,-19.49"/>
<polygon fill="#63b8ff" stroke="#63b8ff" points="542.21,-153.95 547.09,-163.35 549.14,-152.95 542.21,-153.95"/>
</g>
<!-- Node12 -->
<g id="node12" class="node">
<title>Node12</title>
<g id="a_node12"><a xlink:href="_uio_traffic_gen_8cpp.html" target="_top" xlink:title=" ">
<polygon fill="white" stroke="#666666" points="670,-129 576,-129 576,-110 670,-110 670,-129"/>
<text text-anchor="middle" x="623" y="-117" font-family="Helvetica,sans-Serif" font-size="10.00">UioTrafficGen.cpp</text>
</a>
</g>
</g>
<!-- Node11&#45;&gt;Node12 -->
<g id="edge15" class="edge">
<title>Node11&#45;&gt;Node12</title>
<path fill="none" stroke="#63b8ff" d="M570.05,-157.92C583.22,-148.61 599.47,-137.13 610.47,-129.36"/>
<polygon fill="#63b8ff" stroke="#63b8ff" points="568.11,-155.01 561.96,-163.64 572.15,-160.72 568.11,-155.01"/>
</g>
</g>
</svg>
