<?xml version="1.0" encoding="UTF-8" standalone="no"?>
<!DOCTYPE svg PUBLIC "-//W3C//DTD SVG 1.1//EN"
 "http://www.w3.org/Graphics/SVG/1.1/DTD/svg11.dtd">
<!-- Generated by graphviz version 7.0.5 (20221223.1930)
 -->
<!-- Title: UioMemSgdma.hpp Pages: 1 -->
<svg width="2004pt" height="203pt"
 viewBox="0.00 0.00 2003.50 203.00" xmlns="http://www.w3.org/2000/svg" xmlns:xlink="http://www.w3.org/1999/xlink">
<g id="graph0" class="graph" transform="scale(1 1) rotate(0) translate(4 199)">
<title>UioMemSgdma.hpp</title>
<!-- Node1 -->
<g id="node1" class="node">
<title>Node1</title>
<g id="a_node1"><a xlink:title=" ">
<polygon fill="#999999" stroke="#666666" points="639,-195 537,-195 537,-176 639,-176 639,-195"/>
<text text-anchor="middle" x="588" y="-183" font-family="Helvetica,sans-Serif" font-size="10.00">UioMemSgdma.hpp</text>
</a>
</g>
</g>
<!-- Node2 -->
<g id="node2" class="node">
<title>Node2</title>
<g id="a_node2"><a xlink:href="_dma_buffer_abstract_8hpp.html" target="_top" xlink:title=" ">
<polygon fill="white" stroke="#666666" points="240.5,-140 123.5,-140 123.5,-121 240.5,-121 240.5,-140"/>
<text text-anchor="middle" x="182" y="-128" font-family="Helvetica,sans-Serif" font-size="10.00">DmaBufferAbstract.hpp</text>
</a>
</g>
</g>
<!-- Node1&#45;&gt;Node2 -->
<g id="edge1" class="edge">
<title>Node1&#45;&gt;Node2</title>
<path fill="none" stroke="#63b8ff" d="M536.58,-177.79C464.44,-168.37 332.96,-151.21 251.96,-140.63"/>
<polygon fill="#63b8ff" stroke="#63b8ff" points="252.75,-137.21 242.38,-139.38 251.84,-144.15 252.75,-137.21"/>
</g>
<!-- Node10 -->
<g id="node10" class="node">
<title>Node10</title>
<g id="a_node10"><a xlink:href="_uio_if_8hpp.html" target="_top" xlink:title=" ">
<polygon fill="white" stroke="#666666" points="1023,-140 967,-140 967,-121 1023,-121 1023,-140"/>
<text text-anchor="middle" x="995" y="-128" font-family="Helvetica,sans-Serif" font-size="10.00">UioIf.hpp</text>
</a>
</g>
</g>
<!-- Node1&#45;&gt;Node10 -->
<g id="edge9" class="edge">
<title>Node1&#45;&gt;Node10</title>
<path fill="none" stroke="#63b8ff" d="M639.13,-177.84C721.41,-167.13 881.45,-146.29 955.57,-136.63"/>
<polygon fill="#63b8ff" stroke="#63b8ff" points="955.74,-140.14 965.2,-135.38 954.83,-133.2 955.74,-140.14"/>
</g>
<!-- Node3 -->
<g id="node3" class="node">
<title>Node3</title>
<g id="a_node3"><a xlink:title=" ">
<polygon fill="#e0e0e0" stroke="#999999" points="46,-79.5 0,-79.5 0,-60.5 46,-60.5 46,-79.5"/>
<text text-anchor="middle" x="23" y="-67.5" font-family="Helvetica,sans-Serif" font-size="10.00">cstdint</text>
</a>
</g>
</g>
<!-- Node2&#45;&gt;Node3 -->
<g id="edge2" class="edge">
<title>Node2&#45;&gt;Node3</title>
<path fill="none" stroke="#63b8ff" d="M154.53,-120.54C128.66,-111.95 88.92,-98.34 55,-85 54.38,-84.76 53.76,-84.51 53.13,-84.26"/>
<polygon fill="#63b8ff" stroke="#63b8ff" points="54.85,-81.18 44.27,-80.56 52.15,-87.64 54.85,-81.18"/>
</g>
<!-- Node4 -->
<g id="node4" class="node">
<title>Node4</title>
<g id="a_node4"><a xlink:title=" ">
<polygon fill="#e0e0e0" stroke="#999999" points="108,-79.5 64,-79.5 64,-60.5 108,-60.5 108,-79.5"/>
<text text-anchor="middle" x="86" y="-67.5" font-family="Helvetica,sans-Serif" font-size="10.00">vector</text>
</a>
</g>
</g>
<!-- Node2&#45;&gt;Node4 -->
<g id="edge3" class="edge">
<title>Node2&#45;&gt;Node4</title>
<path fill="none" stroke="#63b8ff" d="M167.42,-120.62C152.34,-111.42 128.51,-96.91 110.52,-85.94"/>
<polygon fill="#63b8ff" stroke="#63b8ff" points="112.37,-82.97 102.01,-80.76 108.73,-88.95 112.37,-82.97"/>
</g>
<!-- Node5 -->
<g id="node5" class="node">
<title>Node5</title>
<g id="a_node5"><a xlink:title=" ">
<polygon fill="#e0e0e0" stroke="#999999" points="392.5,-79.5 255.5,-79.5 255.5,-60.5 392.5,-60.5 392.5,-79.5"/>
<text text-anchor="middle" x="324" y="-67.5" font-family="Helvetica,sans-Serif" font-size="10.00">boost/core/noncopyable.hpp</text>
</a>
</g>
</g>
<!-- Node2&#45;&gt;Node5 -->
<g id="edge4" class="edge">
<title>Node2&#45;&gt;Node5</title>
<path fill="none" stroke="#63b8ff" d="M203.57,-120.62C227.02,-110.95 264.77,-95.4 291.76,-84.28"/>
<polygon fill="#63b8ff" stroke="#63b8ff" points="292.92,-87.59 300.83,-80.55 290.25,-81.12 292.92,-87.59"/>
</g>
<!-- Node6 -->
<g id="node6" class="node">
<title>Node6</title>
<g id="a_node6"><a xlink:href="_uio_config_8hpp.html" target="_top" xlink:title=" ">
<polygon fill="white" stroke="#666666" points="237.5,-79.5 126.5,-79.5 126.5,-60.5 237.5,-60.5 237.5,-79.5"/>
<text text-anchor="middle" x="182" y="-67.5" font-family="Helvetica,sans-Serif" font-size="10.00">udmaio/UioConfig.hpp</text>
</a>
</g>
</g>
<!-- Node2&#45;&gt;Node6 -->
<g id="edge5" class="edge">
<title>Node2&#45;&gt;Node6</title>
<path fill="none" stroke="#63b8ff" d="M182,-120.87C182,-113 182,-101.1 182,-90.89"/>
<polygon fill="#63b8ff" stroke="#63b8ff" points="185.5,-91.18 182,-81.18 178.5,-91.18 185.5,-91.18"/>
</g>
<!-- Node7 -->
<g id="node7" class="node">
<title>Node7</title>
<g id="a_node7"><a xlink:title=" ">
<polygon fill="#e0e0e0" stroke="#999999" points="583,-19 529,-19 529,0 583,0 583,-19"/>
<text text-anchor="middle" x="556" y="-7" font-family="Helvetica,sans-Serif" font-size="10.00">iostream</text>
</a>
</g>
</g>
<!-- Node6&#45;&gt;Node7 -->
<g id="edge6" class="edge">
<title>Node6&#45;&gt;Node7</title>
<path fill="none" stroke="#63b8ff" d="M220.83,-60.03C229.11,-58.25 237.83,-56.48 246,-55 343.11,-37.43 458.34,-22.41 517.19,-15.15"/>
<polygon fill="#63b8ff" stroke="#63b8ff" points="517.52,-18.64 527.02,-13.95 516.67,-11.69 517.52,-18.64"/>
</g>
<!-- Node8 -->
<g id="node8" class="node">
<title>Node8</title>
<g id="a_node8"><a xlink:title=" ">
<polygon fill="#e0e0e0" stroke="#999999" points="177.5,-19 118.5,-19 118.5,0 177.5,0 177.5,-19"/>
<text text-anchor="middle" x="148" y="-7" font-family="Helvetica,sans-Serif" font-size="10.00">stdexcept</text>
</a>
</g>
</g>
<!-- Node6&#45;&gt;Node8 -->
<g id="edge7" class="edge">
<title>Node6&#45;&gt;Node8</title>
<path fill="none" stroke="#63b8ff" d="M176.98,-60.37C172.21,-52.16 164.88,-39.54 158.78,-29.05"/>
<polygon fill="#63b8ff" stroke="#63b8ff" points="161.85,-27.36 153.8,-20.48 155.8,-30.88 161.85,-27.36"/>
</g>
<!-- Node9 -->
<g id="node9" class="node">
<title>Node9</title>
<g id="a_node9"><a xlink:title=" ">
<polygon fill="#e0e0e0" stroke="#999999" points="236.5,-19 195.5,-19 195.5,0 236.5,0 236.5,-19"/>
<text text-anchor="middle" x="216" y="-7" font-family="Helvetica,sans-Serif" font-size="10.00">string</text>
</a>
</g>
</g>
<!-- Node6&#45;&gt;Node9 -->
<g id="edge8" class="edge">
<title>Node6&#45;&gt;Node9</title>
<path fill="none" stroke="#63b8ff" d="M187.02,-60.37C191.79,-52.16 199.12,-39.54 205.22,-29.05"/>
<polygon fill="#63b8ff" stroke="#63b8ff" points="208.2,-30.88 210.2,-20.48 202.15,-27.36 208.2,-30.88"/>
</g>
<!-- Node10&#45;&gt;Node5 -->
<g id="edge14" class="edge">
<title>Node10&#45;&gt;Node5</title>
<path fill="none" stroke="#63b8ff" d="M966.76,-128.44C881.24,-125 617.69,-112.74 401,-85 394.18,-84.13 387.05,-83.05 380,-81.89"/>
<polygon fill="#63b8ff" stroke="#63b8ff" points="380.6,-78.44 370.16,-80.2 379.42,-85.34 380.6,-78.44"/>
</g>
<!-- Node10&#45;&gt;Node6 -->
<g id="edge25" class="edge">
<title>Node10&#45;&gt;Node6</title>
<path fill="none" stroke="#63b8ff" d="M966.62,-129.4C867.11,-128.73 525.04,-123.57 246,-85 240.65,-84.26 235.08,-83.31 229.56,-82.26"/>
<polygon fill="#63b8ff" stroke="#63b8ff" points="230.36,-78.85 219.86,-80.29 228.96,-85.71 230.36,-78.85"/>
</g>
<!-- Node10&#45;&gt;Node7 -->
<g id="edge12" class="edge">
<title>Node10&#45;&gt;Node7</title>
<path fill="none" stroke="#63b8ff" d="M966.81,-120.84C943.51,-113.1 910,-100.58 883,-85 864.36,-74.25 864.73,-63.59 845,-55 760.91,-18.4 651.59,-11.3 594.52,-10.28"/>
<polygon fill="#63b8ff" stroke="#63b8ff" points="594.71,-6.79 584.67,-10.17 594.63,-13.79 594.71,-6.79"/>
</g>
<!-- Node11 -->
<g id="node11" class="node">
<title>Node11</title>
<g id="a_node11"><a xlink:title=" ">
<polygon fill="#e0e0e0" stroke="#999999" points="952,-79.5 892,-79.5 892,-60.5 952,-60.5 952,-79.5"/>
<text text-anchor="middle" x="922" y="-67.5" font-family="Helvetica,sans-Serif" font-size="10.00">filesystem</text>
</a>
</g>
</g>
<!-- Node10&#45;&gt;Node11 -->
<g id="edge10" class="edge">
<title>Node10&#45;&gt;Node11</title>
<path fill="none" stroke="#63b8ff" d="M983.91,-120.62C972.76,-111.68 955.34,-97.72 941.81,-86.87"/>
<polygon fill="#63b8ff" stroke="#63b8ff" points="944.36,-84.44 934.37,-80.91 939.99,-89.9 944.36,-84.44"/>
</g>
<!-- Node12 -->
<g id="node12" class="node">
<title>Node12</title>
<g id="a_node12"><a xlink:title=" ">
<polygon fill="#e0e0e0" stroke="#999999" points="1020,-79.5 970,-79.5 970,-60.5 1020,-60.5 1020,-79.5"/>
<text text-anchor="middle" x="995" y="-67.5" font-family="Helvetica,sans-Serif" font-size="10.00">fstream</text>
</a>
</g>
</g>
<!-- Node10&#45;&gt;Node12 -->
<g id="edge11" class="edge">
<title>Node10&#45;&gt;Node12</title>
<path fill="none" stroke="#63b8ff" d="M995,-120.87C995,-113 995,-101.1 995,-90.89"/>
<polygon fill="#63b8ff" stroke="#63b8ff" points="998.5,-91.18 995,-81.18 991.5,-91.18 998.5,-91.18"/>
</g>
<!-- Node13 -->
<g id="node13" class="node">
<title>Node13</title>
<g id="a_node13"><a xlink:title=" ">
<polygon fill="#e0e0e0" stroke="#999999" points="1089.5,-79.5 1038.5,-79.5 1038.5,-60.5 1089.5,-60.5 1089.5,-79.5"/>
<text text-anchor="middle" x="1064" y="-67.5" font-family="Helvetica,sans-Serif" font-size="10.00">memory</text>
</a>
</g>
</g>
<!-- Node10&#45;&gt;Node13 -->
<g id="edge13" class="edge">
<title>Node10&#45;&gt;Node13</title>
<path fill="none" stroke="#63b8ff" d="M1005.48,-120.62C1015.92,-111.77 1032.17,-97.98 1044.91,-87.19"/>
<polygon fill="#63b8ff" stroke="#63b8ff" points="1046.9,-90.08 1052.27,-80.95 1042.38,-84.74 1046.9,-90.08"/>
</g>
<!-- Node14 -->
<g id="node14" class="node">
<title>Node14</title>
<g id="a_node14"><a xlink:title=" ">
<polygon fill="#e0e0e0" stroke="#999999" points="1226,-79.5 1108,-79.5 1108,-60.5 1226,-60.5 1226,-79.5"/>
<text text-anchor="middle" x="1167" y="-67.5" font-family="Helvetica,sans-Serif" font-size="10.00">boost/log/core/core.hpp</text>
</a>
</g>
</g>
<!-- Node10&#45;&gt;Node14 -->
<g id="edge15" class="edge">
<title>Node10&#45;&gt;Node14</title>
<path fill="none" stroke="#63b8ff" d="M1021.12,-120.62C1050.17,-110.74 1097.3,-94.71 1130.1,-83.55"/>
<polygon fill="#63b8ff" stroke="#63b8ff" points="1130.86,-86.99 1139.2,-80.46 1128.6,-80.36 1130.86,-86.99"/>
</g>
<!-- Node15 -->
<g id="node15" class="node">
<title>Node15</title>
<g id="a_node15"><a xlink:title=" ">
<polygon fill="#e0e0e0" stroke="#999999" points="1373.5,-79.5 1244.5,-79.5 1244.5,-60.5 1373.5,-60.5 1373.5,-79.5"/>
<text text-anchor="middle" x="1309" y="-67.5" font-family="Helvetica,sans-Serif" font-size="10.00">boost/log/expressions.hpp</text>
</a>
</g>
</g>
<!-- Node10&#45;&gt;Node15 -->
<g id="edge16" class="edge">
<title>Node10&#45;&gt;Node15</title>
<path fill="none" stroke="#63b8ff" d="M1023.45,-124.26C1068.4,-115.97 1158.57,-99.32 1235,-85 1239.98,-84.07 1245.14,-83.1 1250.33,-82.12"/>
<polygon fill="#63b8ff" stroke="#63b8ff" points="1250.97,-85.56 1260.15,-80.27 1249.67,-78.68 1250.97,-85.56"/>
</g>
<!-- Node16 -->
<g id="node16" class="node">
<title>Node16</title>
<g id="a_node16"><a xlink:title=" ">
<polygon fill="#e0e0e0" stroke="#999999" points="1492.5,-85 1391.5,-85 1391.5,-55 1492.5,-55 1492.5,-85"/>
<text text-anchor="start" x="1399.5" y="-73" font-family="Helvetica,sans-Serif" font-size="10.00">boost/log/keywords</text>
<text text-anchor="middle" x="1442" y="-62" font-family="Helvetica,sans-Serif" font-size="10.00">/severity.hpp</text>
</a>
</g>
</g>
<!-- Node10&#45;&gt;Node16 -->
<g id="edge17" class="edge">
<title>Node10&#45;&gt;Node16</title>
<path fill="none" stroke="#63b8ff" d="M1023.4,-127.41C1086.05,-122.54 1240.97,-109.15 1379.97,-85.4"/>
<polygon fill="#63b8ff" stroke="#63b8ff" points="1380.48,-88.87 1389.74,-83.71 1379.29,-81.97 1380.48,-88.87"/>
</g>
<!-- Node17 -->
<g id="node17" class="node">
<title>Node17</title>
<g id="a_node17"><a xlink:title=" ">
<polygon fill="#e0e0e0" stroke="#999999" points="1651.5,-79.5 1510.5,-79.5 1510.5,-60.5 1651.5,-60.5 1651.5,-79.5"/>
<text text-anchor="middle" x="1581" y="-67.5" font-family="Helvetica,sans-Serif" font-size="10.00">boost/log/sources/logger.hpp</text>
</a>
</g>
</g>
<!-- Node10&#45;&gt;Node17 -->
<g id="edge18" class="edge">
<title>Node10&#45;&gt;Node17</title>
<path fill="none" stroke="#63b8ff" d="M1023.4,-127.89C1100.57,-123.31 1320.46,-109.01 1502,-85 1508.81,-84.1 1515.92,-83.03 1522.97,-81.88"/>
<polygon fill="#63b8ff" stroke="#63b8ff" points="1523.55,-85.33 1532.83,-80.22 1522.38,-78.43 1523.55,-85.33"/>
</g>
<!-- Node18 -->
<g id="node18" class="node">
<title>Node18</title>
<g id="a_node18"><a xlink:title=" ">
<polygon fill="#e0e0e0" stroke="#999999" points="1770.5,-79.5 1669.5,-79.5 1669.5,-60.5 1770.5,-60.5 1770.5,-79.5"/>
<text text-anchor="middle" x="1720" y="-67.5" font-family="Helvetica,sans-Serif" font-size="10.00">boost/log/trivial.hpp</text>
</a>
</g>
</g>
<!-- Node10&#45;&gt;Node18 -->
<g id="edge19" class="edge">
<title>Node10&#45;&gt;Node18</title>
<path fill="none" stroke="#63b8ff" d="M1023.42,-129.29C1115.85,-128.23 1416.08,-121.98 1661,-85 1665.68,-84.29 1670.54,-83.4 1675.37,-82.41"/>
<polygon fill="#63b8ff" stroke="#63b8ff" points="1676,-85.86 1685.01,-80.29 1674.5,-79.02 1676,-85.86"/>
</g>
<!-- Node19 -->
<g id="node19" class="node">
<title>Node19</title>
<g id="a_node19"><a xlink:title=" ">
<polygon fill="#e0e0e0" stroke="#999999" points="1831.5,-79.5 1788.5,-79.5 1788.5,-60.5 1831.5,-60.5 1831.5,-79.5"/>
<text text-anchor="middle" x="1810" y="-67.5" font-family="Helvetica,sans-Serif" font-size="10.00">fcntl.h</text>
</a>
</g>
</g>
<!-- Node10&#45;&gt;Node19 -->
<g id="edge20" class="edge">
<title>Node10&#45;&gt;Node19</title>
<path fill="none" stroke="#63b8ff" d="M1023.41,-129.32C1146.29,-128.35 1632.4,-122.16 1780,-85 1781.17,-84.71 1782.35,-84.36 1783.53,-83.99"/>
<polygon fill="#63b8ff" stroke="#63b8ff" points="1784.5,-87.37 1792.5,-80.43 1781.92,-80.86 1784.5,-87.37"/>
</g>
<!-- Node20 -->
<g id="node20" class="node">
<title>Node20</title>
<g id="a_node20"><a xlink:title=" ">
<polygon fill="#e0e0e0" stroke="#999999" points="1918.5,-79.5 1849.5,-79.5 1849.5,-60.5 1918.5,-60.5 1918.5,-79.5"/>
<text text-anchor="middle" x="1884" y="-67.5" font-family="Helvetica,sans-Serif" font-size="10.00">sys/mman.h</text>
</a>
</g>
</g>
<!-- Node10&#45;&gt;Node20 -->
<g id="edge21" class="edge">
<title>Node10&#45;&gt;Node20</title>
<path fill="none" stroke="#63b8ff" d="M1023.33,-129.01C1151.62,-126.62 1678.86,-115.12 1841,-85 1843.67,-84.5 1846.4,-83.89 1849.14,-83.19"/>
<polygon fill="#63b8ff" stroke="#63b8ff" points="1850.1,-86.55 1858.73,-80.4 1848.15,-79.83 1850.1,-86.55"/>
</g>
<!-- Node21 -->
<g id="node21" class="node">
<title>Node21</title>
<g id="a_node21"><a xlink:title=" ">
<polygon fill="#e0e0e0" stroke="#999999" points="1995.5,-79.5 1936.5,-79.5 1936.5,-60.5 1995.5,-60.5 1995.5,-79.5"/>
<text text-anchor="middle" x="1966" y="-67.5" font-family="Helvetica,sans-Serif" font-size="10.00">sys/stat.h</text>
</a>
</g>
</g>
<!-- Node10&#45;&gt;Node21 -->
<g id="edge22" class="edge">
<title>Node10&#45;&gt;Node21</title>
<path fill="none" stroke="#63b8ff" d="M1023.49,-129.31C1160.07,-128.21 1748.62,-121.42 1928,-85 1930.17,-84.56 1932.38,-84.02 1934.59,-83.4"/>
<polygon fill="#63b8ff" stroke="#63b8ff" points="1935.56,-86.77 1943.99,-80.34 1933.4,-80.11 1935.56,-86.77"/>
</g>
<!-- Node22 -->
<g id="node22" class="node">
<title>Node22</title>
<g id="a_node22"><a xlink:title=" ">
<polygon fill="#e0e0e0" stroke="#999999" points="475.5,-79.5 410.5,-79.5 410.5,-60.5 475.5,-60.5 475.5,-79.5"/>
<text text-anchor="middle" x="443" y="-67.5" font-family="Helvetica,sans-Serif" font-size="10.00">sys/types.h</text>
</a>
</g>
</g>
<!-- Node10&#45;&gt;Node22 -->
<g id="edge23" class="edge">
<title>Node10&#45;&gt;Node22</title>
<path fill="none" stroke="#63b8ff" d="M966.75,-129.35C889.02,-128.43 665.8,-122.48 485,-85 482.55,-84.49 480.05,-83.89 477.55,-83.22"/>
<polygon fill="#63b8ff" stroke="#63b8ff" points="478.76,-79.93 468.17,-80.42 476.75,-86.64 478.76,-79.93"/>
</g>
<!-- Node23 -->
<g id="node23" class="node">
<title>Node23</title>
<g id="a_node23"><a xlink:title=" ">
<polygon fill="#e0e0e0" stroke="#999999" points="544,-79.5 494,-79.5 494,-60.5 544,-60.5 544,-79.5"/>
<text text-anchor="middle" x="519" y="-67.5" font-family="Helvetica,sans-Serif" font-size="10.00">unistd.h</text>
</a>
</g>
</g>
<!-- Node10&#45;&gt;Node23 -->
<g id="edge24" class="edge">
<title>Node10&#45;&gt;Node23</title>
<path fill="none" stroke="#63b8ff" d="M966.59,-129.47C895.67,-128.79 705.62,-123.23 553,-85 551.61,-84.65 550.2,-84.26 548.78,-83.82"/>
<polygon fill="#63b8ff" stroke="#63b8ff" points="550.11,-80.58 539.51,-80.5 547.75,-87.17 550.11,-80.58"/>
</g>
<!-- Node24 -->
<g id="node24" class="node">
<title>Node24</title>
<g id="a_node24"><a xlink:title=" ">
<polygon fill="#e0e0e0" stroke="#999999" points="686,-85 562,-85 562,-55 686,-55 686,-85"/>
<text text-anchor="start" x="570" y="-73" font-family="Helvetica,sans-Serif" font-size="10.00">boost/log/sources/record</text>
<text text-anchor="middle" x="624" y="-62" font-family="Helvetica,sans-Serif" font-size="10.00">_ostream.hpp</text>
</a>
</g>
</g>
<!-- Node10&#45;&gt;Node24 -->
<g id="edge26" class="edge">
<title>Node10&#45;&gt;Node24</title>
<path fill="none" stroke="#63b8ff" d="M966.9,-125.74C915.66,-118.8 803.34,-103.16 697.61,-85.22"/>
<polygon fill="#63b8ff" stroke="#63b8ff" points="698.35,-81.8 687.9,-83.57 697.17,-88.7 698.35,-81.8"/>
</g>
<!-- Node25 -->
<g id="node25" class="node">
<title>Node25</title>
<g id="a_node25"><a xlink:title=" ">
<polygon fill="#e0e0e0" stroke="#999999" points="835.5,-85 704.5,-85 704.5,-55 835.5,-55 835.5,-85"/>
<text text-anchor="start" x="712.5" y="-73" font-family="Helvetica,sans-Serif" font-size="10.00">boost/log/sources/severity</text>
<text text-anchor="middle" x="770" y="-62" font-family="Helvetica,sans-Serif" font-size="10.00">_logger.hpp</text>
</a>
</g>
</g>
<!-- Node10&#45;&gt;Node25 -->
<g id="edge27" class="edge">
<title>Node10&#45;&gt;Node25</title>
<path fill="none" stroke="#63b8ff" d="M966.5,-122.09C933.98,-113.63 879.69,-99.52 836.4,-88.26"/>
<polygon fill="#63b8ff" stroke="#63b8ff" points="837.4,-84.91 826.84,-85.78 835.63,-91.68 837.4,-84.91"/>
</g>
</g>
</svg>
