<?xml version="1.0" encoding="UTF-8" standalone="no"?>
<!DOCTYPE svg PUBLIC "-//W3C//DTD SVG 1.1//EN"
 "http://www.w3.org/Graphics/SVG/1.1/DTD/svg11.dtd">
<!-- Generated by graphviz version 7.0.5 (20221223.1930)
 -->
<!-- Title: UioTrafficGen.cpp Pages: 1 -->
<svg width="1885pt" height="313pt"
 viewBox="0.00 0.00 1885.00 313.00" xmlns="http://www.w3.org/2000/svg" xmlns:xlink="http://www.w3.org/1999/xlink">
<g id="graph0" class="graph" transform="scale(1 1) rotate(0) translate(4 309)">
<title>UioTrafficGen.cpp</title>
<!-- Node1 -->
<g id="node1" class="node">
<title>Node1</title>
<g id="a_node1"><a xlink:title=" ">
<polygon fill="#999999" stroke="#666666" points="1706.5,-305 1612.5,-305 1612.5,-286 1706.5,-286 1706.5,-305"/>
<text text-anchor="middle" x="1659.5" y="-293" font-family="Helvetica,sans-Serif" font-size="10.00">UioTrafficGen.cpp</text>
</a>
</g>
</g>
<!-- Node2 -->
<g id="node2" class="node">
<title>Node2</title>
<g id="a_node2"><a xlink:href="_uio_traffic_gen_8hpp.html" target="_top" xlink:title=" ">
<polygon fill="white" stroke="#666666" points="1091.5,-250 997.5,-250 997.5,-231 1091.5,-231 1091.5,-250"/>
<text text-anchor="middle" x="1044.5" y="-238" font-family="Helvetica,sans-Serif" font-size="10.00">UioTrafficGen.hpp</text>
</a>
</g>
</g>
<!-- Node1&#45;&gt;Node2 -->
<g id="edge1" class="edge">
<title>Node1&#45;&gt;Node2</title>
<path fill="none" stroke="#63b8ff" d="M1612.01,-290.41C1500.92,-280.83 1224.38,-257 1103.09,-246.55"/>
<polygon fill="#63b8ff" stroke="#63b8ff" points="1103.62,-243.08 1093.35,-245.71 1103.02,-250.06 1103.62,-243.08"/>
</g>
<!-- Node12 -->
<g id="node12" class="node">
<title>Node12</title>
<g id="a_node12"><a xlink:title=" ">
<polygon fill="#e0e0e0" stroke="#999999" points="1598.5,-79.5 1480.5,-79.5 1480.5,-60.5 1598.5,-60.5 1598.5,-79.5"/>
<text text-anchor="middle" x="1539.5" y="-67.5" font-family="Helvetica,sans-Serif" font-size="10.00">boost/log/core/core.hpp</text>
</a>
</g>
</g>
<!-- Node1&#45;&gt;Node12 -->
<g id="edge32" class="edge">
<title>Node1&#45;&gt;Node12</title>
<path fill="none" stroke="#63b8ff" d="M1654.8,-285.74C1637.14,-252.85 1574.56,-136.3 1549.75,-90.09"/>
<polygon fill="#63b8ff" stroke="#63b8ff" points="1552.83,-88.43 1545.02,-81.28 1546.66,-91.74 1552.83,-88.43"/>
</g>
<!-- Node15 -->
<g id="node15" class="node">
<title>Node15</title>
<g id="a_node15"><a xlink:title=" ">
<polygon fill="#e0e0e0" stroke="#999999" points="1758,-79.5 1617,-79.5 1617,-60.5 1758,-60.5 1758,-79.5"/>
<text text-anchor="middle" x="1687.5" y="-67.5" font-family="Helvetica,sans-Serif" font-size="10.00">boost/log/sources/logger.hpp</text>
</a>
</g>
</g>
<!-- Node1&#45;&gt;Node15 -->
<g id="edge33" class="edge">
<title>Node1&#45;&gt;Node15</title>
<path fill="none" stroke="#63b8ff" d="M1660.6,-285.74C1664.68,-253.13 1679.07,-138.27 1684.96,-91.28"/>
<polygon fill="#63b8ff" stroke="#63b8ff" points="1688.42,-91.8 1686.19,-81.45 1681.48,-90.93 1688.42,-91.8"/>
</g>
<!-- Node16 -->
<g id="node16" class="node">
<title>Node16</title>
<g id="a_node16"><a xlink:title=" ">
<polygon fill="#e0e0e0" stroke="#999999" points="1877,-79.5 1776,-79.5 1776,-60.5 1877,-60.5 1877,-79.5"/>
<text text-anchor="middle" x="1826.5" y="-67.5" font-family="Helvetica,sans-Serif" font-size="10.00">boost/log/trivial.hpp</text>
</a>
</g>
</g>
<!-- Node1&#45;&gt;Node16 -->
<g id="edge34" class="edge">
<title>Node1&#45;&gt;Node16</title>
<path fill="none" stroke="#63b8ff" d="M1666.05,-285.74C1690.83,-252.57 1779.18,-134.32 1813.11,-88.93"/>
<polygon fill="#63b8ff" stroke="#63b8ff" points="1815.73,-91.26 1818.91,-81.16 1810.12,-87.07 1815.73,-91.26"/>
</g>
<!-- Node28 -->
<g id="node28" class="node">
<title>Node28</title>
<g id="a_node28"><a xlink:title=" ">
<polygon fill="#e0e0e0" stroke="#999999" points="1755,-250 1726,-250 1726,-231 1755,-231 1755,-250"/>
<text text-anchor="middle" x="1740.5" y="-238" font-family="Helvetica,sans-Serif" font-size="10.00">ios</text>
</a>
</g>
</g>
<!-- Node1&#45;&gt;Node28 -->
<g id="edge31" class="edge">
<title>Node1&#45;&gt;Node28</title>
<path fill="none" stroke="#63b8ff" d="M1673.24,-285.51C1685.3,-277.62 1703.09,-265.98 1717.34,-256.65"/>
<polygon fill="#63b8ff" stroke="#63b8ff" points="1719.24,-259.59 1725.7,-251.19 1715.41,-253.73 1719.24,-259.59"/>
</g>
<!-- Node3 -->
<g id="node3" class="node">
<title>Node3</title>
<g id="a_node3"><a xlink:href="_reg_accessor_8hpp.html" target="_top" xlink:title=" ">
<polygon fill="white" stroke="#666666" points="1108.5,-195 980.5,-195 980.5,-176 1108.5,-176 1108.5,-195"/>
<text text-anchor="middle" x="1044.5" y="-183" font-family="Helvetica,sans-Serif" font-size="10.00">udmaio/RegAccessor.hpp</text>
</a>
</g>
</g>
<!-- Node2&#45;&gt;Node3 -->
<g id="edge2" class="edge">
<title>Node2&#45;&gt;Node3</title>
<path fill="none" stroke="#63b8ff" d="M1044.5,-230.75C1044.5,-224.27 1044.5,-215.16 1044.5,-206.9"/>
<polygon fill="#63b8ff" stroke="#63b8ff" points="1048,-206.96 1044.5,-196.96 1041,-206.96 1048,-206.96"/>
</g>
<!-- Node27 -->
<g id="node27" class="node">
<title>Node27</title>
<g id="a_node27"><a xlink:href="_uio_if_8hpp.html" target="_top" xlink:title=" ">
<polygon fill="white" stroke="#666666" points="962.5,-195 872.5,-195 872.5,-176 962.5,-176 962.5,-195"/>
<text text-anchor="middle" x="917.5" y="-183" font-family="Helvetica,sans-Serif" font-size="10.00">udmaio/UioIf.hpp</text>
</a>
</g>
</g>
<!-- Node2&#45;&gt;Node27 -->
<g id="edge29" class="edge">
<title>Node2&#45;&gt;Node27</title>
<path fill="none" stroke="#63b8ff" d="M1022.96,-230.51C1002.76,-222.08 972.33,-209.38 949.34,-199.79"/>
<polygon fill="#63b8ff" stroke="#63b8ff" points="950.7,-196.56 940.12,-195.94 948,-203.02 950.7,-196.56"/>
</g>
<!-- Node4 -->
<g id="node4" class="node">
<title>Node4</title>
<g id="a_node4"><a xlink:title=" ">
<polygon fill="#e0e0e0" stroke="#999999" points="1067.5,-140 1021.5,-140 1021.5,-121 1067.5,-121 1067.5,-140"/>
<text text-anchor="middle" x="1044.5" y="-128" font-family="Helvetica,sans-Serif" font-size="10.00">cstdint</text>
</a>
</g>
</g>
<!-- Node3&#45;&gt;Node4 -->
<g id="edge3" class="edge">
<title>Node3&#45;&gt;Node4</title>
<path fill="none" stroke="#63b8ff" d="M1044.5,-175.75C1044.5,-169.27 1044.5,-160.16 1044.5,-151.9"/>
<polygon fill="#63b8ff" stroke="#63b8ff" points="1048,-151.96 1044.5,-141.96 1041,-151.96 1048,-151.96"/>
</g>
<!-- Node5 -->
<g id="node5" class="node">
<title>Node5</title>
<g id="a_node5"><a xlink:href="_uio_if_base_8hpp.html" target="_top" xlink:title=" ">
<polygon fill="white" stroke="#666666" points="974,-140 861,-140 861,-121 974,-121 974,-140"/>
<text text-anchor="middle" x="917.5" y="-128" font-family="Helvetica,sans-Serif" font-size="10.00">udmaio/UioIfBase.hpp</text>
</a>
</g>
</g>
<!-- Node3&#45;&gt;Node5 -->
<g id="edge4" class="edge">
<title>Node3&#45;&gt;Node5</title>
<path fill="none" stroke="#63b8ff" d="M1022.96,-175.51C1002.76,-167.08 972.33,-154.38 949.34,-144.79"/>
<polygon fill="#63b8ff" stroke="#63b8ff" points="950.7,-141.56 940.12,-140.94 948,-148.02 950.7,-141.56"/>
</g>
<!-- Node6 -->
<g id="node6" class="node">
<title>Node6</title>
<g id="a_node6"><a xlink:title=" ">
<polygon fill="#e0e0e0" stroke="#999999" points="847.5,-79.5 787.5,-79.5 787.5,-60.5 847.5,-60.5 847.5,-79.5"/>
<text text-anchor="middle" x="817.5" y="-67.5" font-family="Helvetica,sans-Serif" font-size="10.00">filesystem</text>
</a>
</g>
</g>
<!-- Node5&#45;&gt;Node6 -->
<g id="edge5" class="edge">
<title>Node5&#45;&gt;Node6</title>
<path fill="none" stroke="#63b8ff" d="M902.31,-120.62C886.45,-111.34 861.32,-96.63 842.52,-85.64"/>
<polygon fill="#63b8ff" stroke="#63b8ff" points="844.54,-82.76 834.14,-80.73 841,-88.8 844.54,-82.76"/>
</g>
<!-- Node7 -->
<g id="node7" class="node">
<title>Node7</title>
<g id="a_node7"><a xlink:title=" ">
<polygon fill="#e0e0e0" stroke="#999999" points="915.5,-79.5 865.5,-79.5 865.5,-60.5 915.5,-60.5 915.5,-79.5"/>
<text text-anchor="middle" x="890.5" y="-67.5" font-family="Helvetica,sans-Serif" font-size="10.00">fstream</text>
</a>
</g>
</g>
<!-- Node5&#45;&gt;Node7 -->
<g id="edge6" class="edge">
<title>Node5&#45;&gt;Node7</title>
<path fill="none" stroke="#63b8ff" d="M913.52,-120.87C909.77,-112.75 904.03,-100.31 899.22,-89.89"/>
<polygon fill="#63b8ff" stroke="#63b8ff" points="902.5,-88.65 895.13,-81.04 896.15,-91.59 902.5,-88.65"/>
</g>
<!-- Node8 -->
<g id="node8" class="node">
<title>Node8</title>
<g id="a_node8"><a xlink:title=" ">
<polygon fill="#e0e0e0" stroke="#999999" points="921.5,-19 867.5,-19 867.5,0 921.5,0 921.5,-19"/>
<text text-anchor="middle" x="894.5" y="-7" font-family="Helvetica,sans-Serif" font-size="10.00">iostream</text>
</a>
</g>
</g>
<!-- Node5&#45;&gt;Node8 -->
<g id="edge7" class="edge">
<title>Node5&#45;&gt;Node8</title>
<path fill="none" stroke="#63b8ff" d="M920.51,-120.56C924.81,-106.35 931.49,-77.86 924.5,-55 921.51,-45.23 915.58,-35.66 909.77,-27.91"/>
<polygon fill="#63b8ff" stroke="#63b8ff" points="912.68,-25.95 903.66,-20.38 907.24,-30.35 912.68,-25.95"/>
</g>
<!-- Node9 -->
<g id="node9" class="node">
<title>Node9</title>
<g id="a_node9"><a xlink:title=" ">
<polygon fill="#e0e0e0" stroke="#999999" points="1127,-19 1076,-19 1076,0 1127,0 1127,-19"/>
<text text-anchor="middle" x="1101.5" y="-7" font-family="Helvetica,sans-Serif" font-size="10.00">memory</text>
</a>
</g>
</g>
<!-- Node5&#45;&gt;Node9 -->
<g id="edge8" class="edge">
<title>Node5&#45;&gt;Node9</title>
<path fill="none" stroke="#63b8ff" d="M974.23,-122.08C1019.18,-114.98 1076.93,-102.72 1092.5,-85 1105.52,-70.18 1106.29,-46.83 1104.74,-30.23"/>
<polygon fill="#63b8ff" stroke="#63b8ff" points="1108.25,-30.05 1103.47,-20.6 1101.31,-30.97 1108.25,-30.05"/>
</g>
<!-- Node10 -->
<g id="node10" class="node">
<title>Node10</title>
<g id="a_node10"><a xlink:title=" ">
<polygon fill="#e0e0e0" stroke="#999999" points="1211.5,-19 1145.5,-19 1145.5,0 1211.5,0 1211.5,-19"/>
<text text-anchor="middle" x="1178.5" y="-7" font-family="Helvetica,sans-Serif" font-size="10.00">string_view</text>
</a>
</g>
</g>
<!-- Node5&#45;&gt;Node10 -->
<g id="edge9" class="edge">
<title>Node5&#45;&gt;Node10</title>
<path fill="none" stroke="#63b8ff" d="M974.35,-125.59C1014.92,-120.7 1069.51,-109.71 1111.5,-85 1135.09,-71.12 1154.99,-46.16 1166.83,-28.98"/>
<polygon fill="#63b8ff" stroke="#63b8ff" points="1169.69,-31 1172.28,-20.72 1163.85,-27.14 1169.69,-31"/>
</g>
<!-- Node11 -->
<g id="node11" class="node">
<title>Node11</title>
<g id="a_node11"><a xlink:title=" ">
<polygon fill="#e0e0e0" stroke="#999999" points="1315,-79.5 1178,-79.5 1178,-60.5 1315,-60.5 1315,-79.5"/>
<text text-anchor="middle" x="1246.5" y="-67.5" font-family="Helvetica,sans-Serif" font-size="10.00">boost/core/noncopyable.hpp</text>
</a>
</g>
</g>
<!-- Node5&#45;&gt;Node11 -->
<g id="edge10" class="edge">
<title>Node5&#45;&gt;Node11</title>
<path fill="none" stroke="#63b8ff" d="M967.83,-120.55C1026.04,-110.2 1121.88,-93.16 1184.6,-82.01"/>
<polygon fill="#63b8ff" stroke="#63b8ff" points="1185.19,-85.46 1194.42,-80.26 1183.96,-78.57 1185.19,-85.46"/>
</g>
<!-- Node5&#45;&gt;Node12 -->
<g id="edge11" class="edge">
<title>Node5&#45;&gt;Node12</title>
<path fill="none" stroke="#63b8ff" d="M974.26,-124.32C986.85,-123.2 1000.12,-122.04 1012.5,-121 1216.41,-103.88 1268.89,-113.69 1471.5,-85 1477.17,-84.2 1483.08,-83.21 1488.95,-82.13"/>
<polygon fill="#63b8ff" stroke="#63b8ff" points="1489.45,-85.6 1498.61,-80.27 1488.12,-78.73 1489.45,-85.6"/>
</g>
<!-- Node13 -->
<g id="node13" class="node">
<title>Node13</title>
<g id="a_node13"><a xlink:title=" ">
<polygon fill="#e0e0e0" stroke="#999999" points="1462,-79.5 1333,-79.5 1333,-60.5 1462,-60.5 1462,-79.5"/>
<text text-anchor="middle" x="1397.5" y="-67.5" font-family="Helvetica,sans-Serif" font-size="10.00">boost/log/expressions.hpp</text>
</a>
</g>
</g>
<!-- Node5&#45;&gt;Node13 -->
<g id="edge12" class="edge">
<title>Node5&#45;&gt;Node13</title>
<path fill="none" stroke="#63b8ff" d="M974.41,-123.85C1069.9,-114.28 1258.43,-94.93 1324.5,-85 1330.48,-84.1 1336.72,-83.06 1342.92,-81.96"/>
<polygon fill="#63b8ff" stroke="#63b8ff" points="1343.28,-85.46 1352.49,-80.21 1342.02,-78.57 1343.28,-85.46"/>
</g>
<!-- Node14 -->
<g id="node14" class="node">
<title>Node14</title>
<g id="a_node14"><a xlink:title=" ">
<polygon fill="#e0e0e0" stroke="#999999" points="101,-85 0,-85 0,-55 101,-55 101,-85"/>
<text text-anchor="start" x="8" y="-73" font-family="Helvetica,sans-Serif" font-size="10.00">boost/log/keywords</text>
<text text-anchor="middle" x="50.5" y="-62" font-family="Helvetica,sans-Serif" font-size="10.00">/severity.hpp</text>
</a>
</g>
</g>
<!-- Node5&#45;&gt;Node14 -->
<g id="edge13" class="edge">
<title>Node5&#45;&gt;Node14</title>
<path fill="none" stroke="#63b8ff" d="M860.83,-129.83C730.21,-129.86 397.89,-125.68 112.23,-85.22"/>
<polygon fill="#63b8ff" stroke="#63b8ff" points="113.13,-81.82 102.74,-83.86 112.14,-88.75 113.13,-81.82"/>
</g>
<!-- Node5&#45;&gt;Node15 -->
<g id="edge14" class="edge">
<title>Node5&#45;&gt;Node15</title>
<path fill="none" stroke="#63b8ff" d="M974.5,-124.13C987.01,-123.03 1000.2,-121.92 1012.5,-121 1276.69,-101.19 1344.38,-115.88 1607.5,-85 1614.93,-84.13 1622.72,-83.02 1630.4,-81.8"/>
<polygon fill="#63b8ff" stroke="#63b8ff" points="1630.73,-85.29 1640.03,-80.21 1629.59,-78.39 1630.73,-85.29"/>
</g>
<!-- Node5&#45;&gt;Node16 -->
<g id="edge15" class="edge">
<title>Node5&#45;&gt;Node16</title>
<path fill="none" stroke="#63b8ff" d="M974.49,-124.01C987,-122.92 1000.19,-121.84 1012.5,-121 1347.65,-98.03 1434.86,-131.98 1767.5,-85 1772.44,-84.3 1777.58,-83.38 1782.66,-82.35"/>
<polygon fill="#63b8ff" stroke="#63b8ff" points="1783.13,-85.83 1792.15,-80.26 1781.63,-78.99 1783.13,-85.83"/>
</g>
<!-- Node17 -->
<g id="node17" class="node">
<title>Node17</title>
<g id="a_node17"><a xlink:title=" ">
<polygon fill="#e0e0e0" stroke="#999999" points="162,-79.5 119,-79.5 119,-60.5 162,-60.5 162,-79.5"/>
<text text-anchor="middle" x="140.5" y="-67.5" font-family="Helvetica,sans-Serif" font-size="10.00">fcntl.h</text>
</a>
</g>
</g>
<!-- Node5&#45;&gt;Node17 -->
<g id="edge16" class="edge">
<title>Node5&#45;&gt;Node17</title>
<path fill="none" stroke="#63b8ff" d="M860.75,-128.87C709.79,-126.75 301.01,-118.05 170.5,-85 169.33,-84.7 168.15,-84.36 166.97,-83.98"/>
<polygon fill="#63b8ff" stroke="#63b8ff" points="168.58,-80.86 158,-80.42 166,-87.36 168.58,-80.86"/>
</g>
<!-- Node18 -->
<g id="node18" class="node">
<title>Node18</title>
<g id="a_node18"><a xlink:title=" ">
<polygon fill="#e0e0e0" stroke="#999999" points="249,-79.5 180,-79.5 180,-60.5 249,-60.5 249,-79.5"/>
<text text-anchor="middle" x="214.5" y="-67.5" font-family="Helvetica,sans-Serif" font-size="10.00">sys/mman.h</text>
</a>
</g>
</g>
<!-- Node5&#45;&gt;Node18 -->
<g id="edge17" class="edge">
<title>Node5&#45;&gt;Node18</title>
<path fill="none" stroke="#63b8ff" d="M860.83,-130.36C745.91,-131.09 477.65,-127.58 257.5,-85 254.83,-84.48 252.1,-83.85 249.37,-83.14"/>
<polygon fill="#63b8ff" stroke="#63b8ff" points="250.36,-79.79 239.78,-80.34 248.4,-86.51 250.36,-79.79"/>
</g>
<!-- Node19 -->
<g id="node19" class="node">
<title>Node19</title>
<g id="a_node19"><a xlink:title=" ">
<polygon fill="#e0e0e0" stroke="#999999" points="326,-79.5 267,-79.5 267,-60.5 326,-60.5 326,-79.5"/>
<text text-anchor="middle" x="296.5" y="-67.5" font-family="Helvetica,sans-Serif" font-size="10.00">sys/stat.h</text>
</a>
</g>
</g>
<!-- Node5&#45;&gt;Node19 -->
<g id="edge18" class="edge">
<title>Node5&#45;&gt;Node19</title>
<path fill="none" stroke="#63b8ff" d="M860.88,-130.33C755.83,-130.75 524.18,-126.34 334.5,-85 332.48,-84.56 330.41,-84.03 328.35,-83.45"/>
<polygon fill="#63b8ff" stroke="#63b8ff" points="329.53,-80.15 318.93,-80.38 327.36,-86.81 329.53,-80.15"/>
</g>
<!-- Node20 -->
<g id="node20" class="node">
<title>Node20</title>
<g id="a_node20"><a xlink:title=" ">
<polygon fill="#e0e0e0" stroke="#999999" points="409,-79.5 344,-79.5 344,-60.5 409,-60.5 409,-79.5"/>
<text text-anchor="middle" x="376.5" y="-67.5" font-family="Helvetica,sans-Serif" font-size="10.00">sys/types.h</text>
</a>
</g>
</g>
<!-- Node5&#45;&gt;Node20 -->
<g id="edge19" class="edge">
<title>Node5&#45;&gt;Node20</title>
<path fill="none" stroke="#63b8ff" d="M860.75,-128.72C767.5,-126.48 576.45,-117.9 418.5,-85 416.05,-84.49 413.55,-83.88 411.05,-83.22"/>
<polygon fill="#63b8ff" stroke="#63b8ff" points="412.26,-79.92 401.67,-80.41 410.25,-86.63 412.26,-79.92"/>
</g>
<!-- Node21 -->
<g id="node21" class="node">
<title>Node21</title>
<g id="a_node21"><a xlink:title=" ">
<polygon fill="#e0e0e0" stroke="#999999" points="477.5,-79.5 427.5,-79.5 427.5,-60.5 477.5,-60.5 477.5,-79.5"/>
<text text-anchor="middle" x="452.5" y="-67.5" font-family="Helvetica,sans-Serif" font-size="10.00">unistd.h</text>
</a>
</g>
</g>
<!-- Node5&#45;&gt;Node21 -->
<g id="edge20" class="edge">
<title>Node5&#45;&gt;Node21</title>
<path fill="none" stroke="#63b8ff" d="M860.81,-128.81C777.54,-126.64 617.8,-118.07 486.5,-85 485.11,-84.65 483.7,-84.25 482.28,-83.82"/>
<polygon fill="#63b8ff" stroke="#63b8ff" points="483.61,-80.58 473.02,-80.5 481.25,-87.17 483.61,-80.58"/>
</g>
<!-- Node22 -->
<g id="node22" class="node">
<title>Node22</title>
<g id="a_node22"><a xlink:href="_uio_config_8hpp.html" target="_top" xlink:title=" ">
<polygon fill="white" stroke="#666666" points="1083,-79.5 972,-79.5 972,-60.5 1083,-60.5 1083,-79.5"/>
<text text-anchor="middle" x="1027.5" y="-67.5" font-family="Helvetica,sans-Serif" font-size="10.00">udmaio/UioConfig.hpp</text>
</a>
</g>
</g>
<!-- Node5&#45;&gt;Node22 -->
<g id="edge21" class="edge">
<title>Node5&#45;&gt;Node22</title>
<path fill="none" stroke="#63b8ff" d="M934.21,-120.62C951.81,-111.25 979.81,-96.36 1000.55,-85.33"/>
<polygon fill="#63b8ff" stroke="#63b8ff" points="1002.11,-88.46 1009.3,-80.68 998.83,-82.28 1002.11,-88.46"/>
</g>
<!-- Node25 -->
<g id="node25" class="node">
<title>Node25</title>
<g id="a_node25"><a xlink:title=" ">
<polygon fill="#e0e0e0" stroke="#999999" points="619.5,-85 495.5,-85 495.5,-55 619.5,-55 619.5,-85"/>
<text text-anchor="start" x="503.5" y="-73" font-family="Helvetica,sans-Serif" font-size="10.00">boost/log/sources/record</text>
<text text-anchor="middle" x="557.5" y="-62" font-family="Helvetica,sans-Serif" font-size="10.00">_ostream.hpp</text>
</a>
</g>
</g>
<!-- Node5&#45;&gt;Node25 -->
<g id="edge27" class="edge">
<title>Node5&#45;&gt;Node25</title>
<path fill="none" stroke="#63b8ff" d="M860.63,-121.46C804.71,-113.4 716.66,-100.27 631.05,-85.4"/>
<polygon fill="#63b8ff" stroke="#63b8ff" points="631.75,-81.97 621.3,-83.7 630.55,-88.87 631.75,-81.97"/>
</g>
<!-- Node26 -->
<g id="node26" class="node">
<title>Node26</title>
<g id="a_node26"><a xlink:title=" ">
<polygon fill="#e0e0e0" stroke="#999999" points="769,-85 638,-85 638,-55 769,-55 769,-85"/>
<text text-anchor="start" x="646" y="-73" font-family="Helvetica,sans-Serif" font-size="10.00">boost/log/sources/severity</text>
<text text-anchor="middle" x="703.5" y="-62" font-family="Helvetica,sans-Serif" font-size="10.00">_logger.hpp</text>
</a>
</g>
</g>
<!-- Node5&#45;&gt;Node26 -->
<g id="edge28" class="edge">
<title>Node5&#45;&gt;Node26</title>
<path fill="none" stroke="#63b8ff" d="M885,-120.62C853.79,-112.08 805.8,-98.96 767,-88.36"/>
<polygon fill="#63b8ff" stroke="#63b8ff" points="768.35,-85.1 757.78,-85.84 766.5,-91.85 768.35,-85.1"/>
</g>
<!-- Node22&#45;&gt;Node8 -->
<g id="edge22" class="edge">
<title>Node22&#45;&gt;Node8</title>
<path fill="none" stroke="#63b8ff" d="M1007.3,-60.12C985.52,-50.54 950.6,-35.18 925.38,-24.08"/>
<polygon fill="#63b8ff" stroke="#63b8ff" points="926.84,-20.9 916.28,-20.08 924.02,-27.31 926.84,-20.9"/>
</g>
<!-- Node22&#45;&gt;Node9 -->
<g id="edge23" class="edge">
<title>Node22&#45;&gt;Node9</title>
<path fill="none" stroke="#63b8ff" d="M1038.74,-60.12C1050.04,-51.18 1067.71,-37.22 1081.42,-26.37"/>
<polygon fill="#63b8ff" stroke="#63b8ff" points="1083.29,-29.35 1088.97,-20.41 1078.95,-23.86 1083.29,-29.35"/>
</g>
<!-- Node22&#45;&gt;Node10 -->
<g id="edge26" class="edge">
<title>Node22&#45;&gt;Node10</title>
<path fill="none" stroke="#63b8ff" d="M1050.43,-60.12C1075.6,-50.37 1116.23,-34.62 1144.98,-23.49"/>
<polygon fill="#63b8ff" stroke="#63b8ff" points="1145.88,-26.89 1153.94,-20.02 1143.35,-20.36 1145.88,-26.89"/>
</g>
<!-- Node23 -->
<g id="node23" class="node">
<title>Node23</title>
<g id="a_node23"><a xlink:title=" ">
<polygon fill="#e0e0e0" stroke="#999999" points="999,-19 940,-19 940,0 999,0 999,-19"/>
<text text-anchor="middle" x="969.5" y="-7" font-family="Helvetica,sans-Serif" font-size="10.00">stdexcept</text>
</a>
</g>
</g>
<!-- Node22&#45;&gt;Node23 -->
<g id="edge24" class="edge">
<title>Node22&#45;&gt;Node23</title>
<path fill="none" stroke="#63b8ff" d="M1018.94,-60.37C1010.29,-51.64 996.7,-37.93 985.95,-27.09"/>
<polygon fill="#63b8ff" stroke="#63b8ff" points="988.69,-24.88 979.16,-20.24 983.71,-29.81 988.69,-24.88"/>
</g>
<!-- Node24 -->
<g id="node24" class="node">
<title>Node24</title>
<g id="a_node24"><a xlink:title=" ">
<polygon fill="#e0e0e0" stroke="#999999" points="1058,-19 1017,-19 1017,0 1058,0 1058,-19"/>
<text text-anchor="middle" x="1037.5" y="-7" font-family="Helvetica,sans-Serif" font-size="10.00">string</text>
</a>
</g>
</g>
<!-- Node22&#45;&gt;Node24 -->
<g id="edge25" class="edge">
<title>Node22&#45;&gt;Node24</title>
<path fill="none" stroke="#63b8ff" d="M1028.98,-60.37C1030.32,-52.5 1032.36,-40.6 1034.1,-30.39"/>
<polygon fill="#63b8ff" stroke="#63b8ff" points="1037.53,-31.11 1035.76,-20.66 1030.63,-29.93 1037.53,-31.11"/>
</g>
<!-- Node27&#45;&gt;Node5 -->
<g id="edge30" class="edge">
<title>Node27&#45;&gt;Node5</title>
<path fill="none" stroke="#63b8ff" d="M917.5,-175.75C917.5,-169.27 917.5,-160.16 917.5,-151.9"/>
<polygon fill="#63b8ff" stroke="#63b8ff" points="921,-151.96 917.5,-141.96 914,-151.96 921,-151.96"/>
</g>
</g>
</svg>
