<?xml version="1.0" encoding="UTF-8" standalone="no"?>
<!DOCTYPE svg PUBLIC "-//W3C//DTD SVG 1.1//EN"
 "http://www.w3.org/Graphics/SVG/1.1/DTD/svg11.dtd">
<!-- Generated by graphviz version 7.0.5 (20221223.1930)
 -->
<!-- Title: UioConfig.hpp Pages: 1 -->
<svg width="864pt" height="357pt"
 viewBox="0.00 0.00 864.00 357.00" xmlns="http://www.w3.org/2000/svg" xmlns:xlink="http://www.w3.org/1999/xlink">
<g id="graph0" class="graph" transform="scale(1 1) rotate(0) translate(4 353)">
<title>UioConfig.hpp</title>
<!-- Node1 -->
<g id="node1" class="node">
<title>Node1</title>
<g id="a_node1"><a xlink:title=" ">
<polygon fill="#999999" stroke="#666666" points="586.5,-349 509.5,-349 509.5,-330 586.5,-330 586.5,-349"/>
<text text-anchor="middle" x="548" y="-337" font-family="Helvetica,sans-Serif" font-size="10.00">UioConfig.hpp</text>
</a>
</g>
</g>
<!-- Node2 -->
<g id="node2" class="node">
<title>Node2</title>
<g id="a_node2"><a xlink:href="_dma_buffer_abstract_8hpp.html" target="_top" xlink:title=" ">
<polygon fill="white" stroke="#666666" points="639.5,-239 522.5,-239 522.5,-220 639.5,-220 639.5,-239"/>
<text text-anchor="middle" x="581" y="-227" font-family="Helvetica,sans-Serif" font-size="10.00">DmaBufferAbstract.hpp</text>
</a>
</g>
</g>
<!-- Node1&#45;&gt;Node2 -->
<g id="edge1" class="edge">
<title>Node1&#45;&gt;Node2</title>
<path fill="none" stroke="#63b8ff" d="M529.91,-321.91C518.19,-309.07 506.56,-290.86 515,-275 523.95,-258.16 542.43,-246.55 557.57,-239.42"/>
<polygon fill="#63b8ff" stroke="#63b8ff" points="527.19,-324.14 536.72,-328.77 532.16,-319.21 527.19,-324.14"/>
</g>
<!-- Node12 -->
<g id="node12" class="node">
<title>Node12</title>
<g id="a_node12"><a xlink:href="_uio_if_base_8hpp.html" target="_top" xlink:title=" ">
<polygon fill="white" stroke="#666666" points="348,-294 270,-294 270,-275 348,-275 348,-294"/>
<text text-anchor="middle" x="309" y="-282" font-family="Helvetica,sans-Serif" font-size="10.00">UioIfBase.hpp</text>
</a>
</g>
</g>
<!-- Node1&#45;&gt;Node12 -->
<g id="edge15" class="edge">
<title>Node1&#45;&gt;Node12</title>
<path fill="none" stroke="#63b8ff" d="M497.92,-327.39C453.41,-317.52 389.22,-303.29 348.31,-294.22"/>
<polygon fill="#63b8ff" stroke="#63b8ff" points="497.07,-330.79 507.59,-329.54 498.59,-323.96 497.07,-330.79"/>
</g>
<!-- Node19 -->
<g id="node19" class="node">
<title>Node19</title>
<g id="a_node19"><a xlink:href="_z7io_example_project_consts_8hpp.html" target="_top" xlink:title=" ">
<polygon fill="white" stroke="#666666" points="676,-294 524,-294 524,-275 676,-275 676,-294"/>
<text text-anchor="middle" x="600" y="-282" font-family="Helvetica,sans-Serif" font-size="10.00">Z7ioExampleProjectConsts.hpp</text>
</a>
</g>
</g>
<!-- Node1&#45;&gt;Node19 -->
<g id="edge32" class="edge">
<title>Node1&#45;&gt;Node19</title>
<path fill="none" stroke="#63b8ff" d="M564.41,-321.78C573.29,-312.72 583.91,-301.9 591.23,-294.44"/>
<polygon fill="#63b8ff" stroke="#63b8ff" points="562.15,-319.08 557.65,-328.67 567.15,-323.98 562.15,-319.08"/>
</g>
<!-- Node20 -->
<g id="node20" class="node">
<title>Node20</title>
<g id="a_node20"><a xlink:href="_zup_example_project_consts_8hpp.html" target="_top" xlink:title=" ">
<polygon fill="white" stroke="#666666" points="843.5,-294 694.5,-294 694.5,-275 843.5,-275 843.5,-294"/>
<text text-anchor="middle" x="769" y="-282" font-family="Helvetica,sans-Serif" font-size="10.00">ZupExampleProjectConsts.hpp</text>
</a>
</g>
</g>
<!-- Node1&#45;&gt;Node20 -->
<g id="edge33" class="edge">
<title>Node1&#45;&gt;Node20</title>
<path fill="none" stroke="#63b8ff" d="M596.5,-326.87C637.2,-317.11 694.5,-303.37 731.7,-294.45"/>
<polygon fill="#63b8ff" stroke="#63b8ff" points="595.87,-323.42 586.96,-329.16 597.5,-330.23 595.87,-323.42"/>
</g>
<!-- Node3 -->
<g id="node3" class="node">
<title>Node3</title>
<g id="a_node3"><a xlink:href="_fpga_mem_buffer_over_axi_8hpp.html" target="_top" xlink:title=" ">
<polygon fill="white" stroke="#666666" points="512,-184 374,-184 374,-165 512,-165 512,-184"/>
<text text-anchor="middle" x="443" y="-172" font-family="Helvetica,sans-Serif" font-size="10.00">FpgaMemBufferOverAxi.hpp</text>
</a>
</g>
</g>
<!-- Node2&#45;&gt;Node3 -->
<g id="edge2" class="edge">
<title>Node2&#45;&gt;Node3</title>
<path fill="none" stroke="#63b8ff" d="M547.03,-215.45C521.84,-205.78 488.18,-192.85 466.06,-184.36"/>
<polygon fill="#63b8ff" stroke="#63b8ff" points="545.59,-218.65 556.18,-218.97 548.1,-212.11 545.59,-218.65"/>
</g>
<!-- Node4 -->
<g id="node4" class="node">
<title>Node4</title>
<g id="a_node4"><a xlink:href="_fpga_mem_buffer_over_xdma_8hpp.html" target="_top" xlink:title=" ">
<polygon fill="white" stroke="#666666" points="856,-129 706,-129 706,-110 856,-110 856,-129"/>
<text text-anchor="middle" x="781" y="-117" font-family="Helvetica,sans-Serif" font-size="10.00">FpgaMemBufferOverXdma.hpp</text>
</a>
</g>
</g>
<!-- Node2&#45;&gt;Node4 -->
<g id="edge3" class="edge">
<title>Node2&#45;&gt;Node4</title>
<path fill="none" stroke="#63b8ff" d="M650.84,-219.17C679.52,-212.77 711.83,-202.02 737,-184 757.07,-169.63 771.02,-143.11 777.28,-129.33"/>
<polygon fill="#63b8ff" stroke="#63b8ff" points="650.19,-215.73 641.11,-221.19 651.62,-222.58 650.19,-215.73"/>
</g>
<!-- Node6 -->
<g id="node6" class="node">
<title>Node6</title>
<g id="a_node6"><a xlink:href="_u_dma_buf_8hpp.html" target="_top" xlink:title=" ">
<polygon fill="white" stroke="#666666" points="727.5,-184 650.5,-184 650.5,-165 727.5,-165 727.5,-184"/>
<text text-anchor="middle" x="689" y="-172" font-family="Helvetica,sans-Serif" font-size="10.00">UDmaBuf.hpp</text>
</a>
</g>
</g>
<!-- Node2&#45;&gt;Node6 -->
<g id="edge5" class="edge">
<title>Node2&#45;&gt;Node6</title>
<path fill="none" stroke="#63b8ff" d="M609.46,-214.53C628.94,-204.97 654.18,-192.59 670.95,-184.36"/>
<polygon fill="#63b8ff" stroke="#63b8ff" points="608.11,-211.29 600.68,-218.84 611.2,-217.58 608.11,-211.29"/>
</g>
<!-- Node11 -->
<g id="node11" class="node">
<title>Node11</title>
<g id="a_node11"><a xlink:href="_uio_mem_sgdma_8hpp.html" target="_top" xlink:title=" ">
<polygon fill="white" stroke="#666666" points="632,-184 530,-184 530,-165 632,-165 632,-184"/>
<text text-anchor="middle" x="581" y="-172" font-family="Helvetica,sans-Serif" font-size="10.00">UioMemSgdma.hpp</text>
</a>
</g>
</g>
<!-- Node2&#45;&gt;Node11 -->
<g id="edge12" class="edge">
<title>Node2&#45;&gt;Node11</title>
<path fill="none" stroke="#63b8ff" d="M581,-208.35C581,-200.1 581,-190.97 581,-184.44"/>
<polygon fill="#63b8ff" stroke="#63b8ff" points="577.5,-208.23 581,-218.23 584.5,-208.23 577.5,-208.23"/>
</g>
<!-- Node5 -->
<g id="node5" class="node">
<title>Node5</title>
<g id="a_node5"><a xlink:href="axi__dma__demo_8cpp.html" target="_top" xlink:title=" ">
<polygon fill="white" stroke="#666666" points="415,-19 315,-19 315,0 415,0 415,-19"/>
<text text-anchor="middle" x="365" y="-7" font-family="Helvetica,sans-Serif" font-size="10.00">axi_dma_demo.cpp</text>
</a>
</g>
</g>
<!-- Node4&#45;&gt;Node5 -->
<g id="edge4" class="edge">
<title>Node4&#45;&gt;Node5</title>
<path fill="none" stroke="#63b8ff" d="M763.77,-102.27C746.88,-87.36 719.69,-65.98 692,-55 642.8,-35.49 494.31,-20.96 415.46,-14.39"/>
<polygon fill="#63b8ff" stroke="#63b8ff" points="761.16,-104.62 770.92,-108.75 765.87,-99.44 761.16,-104.62"/>
</g>
<!-- Node6&#45;&gt;Node5 -->
<g id="edge11" class="edge">
<title>Node6&#45;&gt;Node5</title>
<path fill="none" stroke="#63b8ff" d="M690.15,-153.44C690.48,-126.78 686.7,-80.11 659,-55 624.15,-23.4 489.92,-14.24 415.47,-11.58"/>
<polygon fill="#63b8ff" stroke="#63b8ff" points="686.66,-153.11 689.79,-163.23 693.65,-153.36 686.66,-153.11"/>
</g>
<!-- Node7 -->
<g id="node7" class="node">
<title>Node7</title>
<g id="a_node7"><a xlink:href="_data_handler_abstract_8hpp.html" target="_top" xlink:title=" ">
<polygon fill="white" stroke="#666666" points="643.5,-129 518.5,-129 518.5,-110 643.5,-110 643.5,-129"/>
<text text-anchor="middle" x="581" y="-117" font-family="Helvetica,sans-Serif" font-size="10.00">DataHandlerAbstract.hpp</text>
</a>
</g>
</g>
<!-- Node6&#45;&gt;Node7 -->
<g id="edge6" class="edge">
<title>Node6&#45;&gt;Node7</title>
<path fill="none" stroke="#63b8ff" d="M660.54,-159.53C641.06,-149.97 615.82,-137.59 599.05,-129.36"/>
<polygon fill="#63b8ff" stroke="#63b8ff" points="658.8,-162.58 669.32,-163.84 661.89,-156.29 658.8,-162.58"/>
</g>
<!-- Node8 -->
<g id="node8" class="node">
<title>Node8</title>
<g id="a_node8"><a xlink:href="_data_handler_print_8hpp.html" target="_top" xlink:title=" ">
<polygon fill="white" stroke="#666666" points="649.5,-74 540.5,-74 540.5,-55 649.5,-55 649.5,-74"/>
<text text-anchor="middle" x="595" y="-62" font-family="Helvetica,sans-Serif" font-size="10.00">DataHandlerPrint.hpp</text>
</a>
</g>
</g>
<!-- Node7&#45;&gt;Node8 -->
<g id="edge7" class="edge">
<title>Node7&#45;&gt;Node8</title>
<path fill="none" stroke="#63b8ff" d="M586.25,-98.64C588.45,-90.31 590.89,-81.05 592.64,-74.44"/>
<polygon fill="#63b8ff" stroke="#63b8ff" points="582.87,-97.72 583.7,-108.28 589.64,-99.51 582.87,-97.72"/>
</g>
<!-- Node10 -->
<g id="node10" class="node">
<title>Node10</title>
<g id="a_node10"><a xlink:href="_data_handler_sync_8hpp.html" target="_top" xlink:title=" ">
<polygon fill="white" stroke="#666666" points="522,-74 412,-74 412,-55 522,-55 522,-74"/>
<text text-anchor="middle" x="467" y="-62" font-family="Helvetica,sans-Serif" font-size="10.00">DataHandlerSync.hpp</text>
</a>
</g>
</g>
<!-- Node7&#45;&gt;Node10 -->
<g id="edge10" class="edge">
<title>Node7&#45;&gt;Node10</title>
<path fill="none" stroke="#63b8ff" d="M551.24,-104.67C530.64,-95.09 503.83,-82.62 486.05,-74.36"/>
<polygon fill="#63b8ff" stroke="#63b8ff" points="549.75,-107.83 560.29,-108.87 552.7,-101.48 549.75,-107.83"/>
</g>
<!-- Node8&#45;&gt;Node5 -->
<g id="edge9" class="edge">
<title>Node8&#45;&gt;Node5</title>
<path fill="none" stroke="#63b8ff" d="M544.8,-51.93C502.42,-42.17 442.61,-28.38 403.82,-19.45"/>
<polygon fill="#63b8ff" stroke="#63b8ff" points="543.98,-55.33 554.51,-54.17 545.55,-48.51 543.98,-55.33"/>
</g>
<!-- Node9 -->
<g id="node9" class="node">
<title>Node9</title>
<g id="a_node9"><a xlink:href="_data_handler_print_8cpp.html" target="_top" xlink:title=" ">
<polygon fill="white" stroke="#666666" points="649.5,-19 540.5,-19 540.5,0 649.5,0 649.5,-19"/>
<text text-anchor="middle" x="595" y="-7" font-family="Helvetica,sans-Serif" font-size="10.00">DataHandlerPrint.cpp</text>
</a>
</g>
</g>
<!-- Node8&#45;&gt;Node9 -->
<g id="edge8" class="edge">
<title>Node8&#45;&gt;Node9</title>
<path fill="none" stroke="#63b8ff" d="M595,-43.35C595,-35.1 595,-25.97 595,-19.44"/>
<polygon fill="#63b8ff" stroke="#63b8ff" points="591.5,-43.23 595,-53.23 598.5,-43.23 591.5,-43.23"/>
</g>
<!-- Node11&#45;&gt;Node5 -->
<g id="edge14" class="edge">
<title>Node11&#45;&gt;Node5</title>
<path fill="none" stroke="#63b8ff" d="M546.35,-160.54C507.76,-144.75 445.26,-115.03 403,-74 386.22,-57.71 374.09,-32.49 368.48,-19.27"/>
<polygon fill="#63b8ff" stroke="#63b8ff" points="544.58,-163.59 555.16,-164.05 547.17,-157.09 544.58,-163.59"/>
</g>
<!-- Node11&#45;&gt;Node7 -->
<g id="edge13" class="edge">
<title>Node11&#45;&gt;Node7</title>
<path fill="none" stroke="#63b8ff" d="M581,-153.35C581,-145.1 581,-135.97 581,-129.44"/>
<polygon fill="#63b8ff" stroke="#63b8ff" points="577.5,-153.23 581,-163.23 584.5,-153.23 577.5,-153.23"/>
</g>
<!-- Node13 -->
<g id="node13" class="node">
<title>Node13</title>
<g id="a_node13"><a xlink:href="_reg_accessor_8hpp.html" target="_top" xlink:title=" ">
<polygon fill="white" stroke="#666666" points="253.5,-239 160.5,-239 160.5,-220 253.5,-220 253.5,-239"/>
<text text-anchor="middle" x="207" y="-227" font-family="Helvetica,sans-Serif" font-size="10.00">RegAccessor.hpp</text>
</a>
</g>
</g>
<!-- Node12&#45;&gt;Node13 -->
<g id="edge16" class="edge">
<title>Node12&#45;&gt;Node13</title>
<path fill="none" stroke="#63b8ff" d="M281.61,-269.27C263.28,-259.74 239.74,-247.51 224.05,-239.36"/>
<polygon fill="#63b8ff" stroke="#63b8ff" points="279.87,-272.31 290.35,-273.81 283.09,-266.09 279.87,-272.31"/>
</g>
<!-- Node18 -->
<g id="node18" class="node">
<title>Node18</title>
<g id="a_node18"><a xlink:href="_uio_if_8hpp.html" target="_top" xlink:title=" ">
<polygon fill="white" stroke="#666666" points="337,-239 281,-239 281,-220 337,-220 337,-239"/>
<text text-anchor="middle" x="309" y="-227" font-family="Helvetica,sans-Serif" font-size="10.00">UioIf.hpp</text>
</a>
</g>
</g>
<!-- Node12&#45;&gt;Node18 -->
<g id="edge25" class="edge">
<title>Node12&#45;&gt;Node18</title>
<path fill="none" stroke="#63b8ff" d="M309,-263.35C309,-255.1 309,-245.97 309,-239.44"/>
<polygon fill="#63b8ff" stroke="#63b8ff" points="305.5,-263.23 309,-273.23 312.5,-263.23 305.5,-263.23"/>
</g>
<!-- Node14 -->
<g id="node14" class="node">
<title>Node14</title>
<g id="a_node14"><a xlink:href="_uio_axi_dma_if_8hpp.html" target="_top" xlink:title=" ">
<polygon fill="white" stroke="#666666" points="317.5,-184 228.5,-184 228.5,-165 317.5,-165 317.5,-184"/>
<text text-anchor="middle" x="273" y="-172" font-family="Helvetica,sans-Serif" font-size="10.00">UioAxiDmaIf.hpp</text>
</a>
</g>
</g>
<!-- Node13&#45;&gt;Node14 -->
<g id="edge17" class="edge">
<title>Node13&#45;&gt;Node14</title>
<path fill="none" stroke="#63b8ff" d="M227.09,-212.37C238.55,-203.16 252.48,-191.98 261.97,-184.36"/>
<polygon fill="#63b8ff" stroke="#63b8ff" points="224.98,-209.57 219.38,-218.56 229.36,-215.03 224.98,-209.57"/>
</g>
<!-- Node15 -->
<g id="node15" class="node">
<title>Node15</title>
<g id="a_node15"><a xlink:href="_uio_gpio_status_8hpp.html" target="_top" xlink:title=" ">
<polygon fill="white" stroke="#666666" points="210,-184 112,-184 112,-165 210,-165 210,-184"/>
<text text-anchor="middle" x="161" y="-172" font-family="Helvetica,sans-Serif" font-size="10.00">UioGpioStatus.hpp</text>
</a>
</g>
</g>
<!-- Node13&#45;&gt;Node15 -->
<g id="edge20" class="edge">
<title>Node13&#45;&gt;Node15</title>
<path fill="none" stroke="#63b8ff" d="M192,-211.22C184.24,-202.28 175.1,-191.74 168.76,-184.44"/>
<polygon fill="#63b8ff" stroke="#63b8ff" points="189.21,-213.35 198.41,-218.61 194.5,-208.76 189.21,-213.35"/>
</g>
<!-- Node16 -->
<g id="node16" class="node">
<title>Node16</title>
<g id="a_node16"><a xlink:href="_uio_traffic_gen_8hpp.html" target="_top" xlink:title=" ">
<polygon fill="white" stroke="#666666" points="94,-184 0,-184 0,-165 94,-165 94,-184"/>
<text text-anchor="middle" x="47" y="-172" font-family="Helvetica,sans-Serif" font-size="10.00">UioTrafficGen.hpp</text>
</a>
</g>
</g>
<!-- Node13&#45;&gt;Node16 -->
<g id="edge22" class="edge">
<title>Node13&#45;&gt;Node16</title>
<path fill="none" stroke="#63b8ff" d="M169.21,-215.98C139.95,-206.29 100.13,-193.1 74.01,-184.45"/>
<polygon fill="#63b8ff" stroke="#63b8ff" points="167.83,-219.21 178.42,-219.03 170.03,-212.57 167.83,-219.21"/>
</g>
<!-- Node14&#45;&gt;Node5 -->
<g id="edge19" class="edge">
<title>Node14&#45;&gt;Node5</title>
<path fill="none" stroke="#63b8ff" d="M281.38,-154.1C292.01,-130.17 311.45,-88.52 332,-55 339.94,-42.04 350.65,-28.13 357.69,-19.38"/>
<polygon fill="#63b8ff" stroke="#63b8ff" points="278.2,-152.64 277.39,-163.21 284.61,-155.45 278.2,-152.64"/>
</g>
<!-- Node14&#45;&gt;Node7 -->
<g id="edge18" class="edge">
<title>Node14&#45;&gt;Node7</title>
<path fill="none" stroke="#63b8ff" d="M329.1,-163.85C386.05,-154.05 473.5,-139 528.95,-129.46"/>
<polygon fill="#63b8ff" stroke="#63b8ff" points="328.54,-160.39 319.28,-165.54 329.73,-167.29 328.54,-160.39"/>
</g>
<!-- Node15&#45;&gt;Node5 -->
<g id="edge21" class="edge">
<title>Node15&#45;&gt;Node5</title>
<path fill="none" stroke="#63b8ff" d="M181.1,-157.44C223.47,-123.59 320.73,-45.87 353.78,-19.47"/>
<polygon fill="#63b8ff" stroke="#63b8ff" points="179.07,-154.58 173.44,-163.56 183.44,-160.05 179.07,-154.58"/>
</g>
<!-- Node16&#45;&gt;Node5 -->
<g id="edge24" class="edge">
<title>Node16&#45;&gt;Node5</title>
<path fill="none" stroke="#63b8ff" d="M48.22,-153.58C50.1,-139.7 54.71,-121.64 66,-110 132.85,-41.08 248.56,-19.89 314.73,-13.38"/>
<polygon fill="#63b8ff" stroke="#63b8ff" points="44.76,-153.07 47.31,-163.36 51.73,-153.73 44.76,-153.07"/>
</g>
<!-- Node17 -->
<g id="node17" class="node">
<title>Node17</title>
<g id="a_node17"><a xlink:href="_uio_traffic_gen_8cpp.html" target="_top" xlink:title=" ">
<polygon fill="white" stroke="#666666" points="169,-129 75,-129 75,-110 169,-110 169,-129"/>
<text text-anchor="middle" x="122" y="-117" font-family="Helvetica,sans-Serif" font-size="10.00">UioTrafficGen.cpp</text>
</a>
</g>
</g>
<!-- Node16&#45;&gt;Node17 -->
<g id="edge23" class="edge">
<title>Node16&#45;&gt;Node17</title>
<path fill="none" stroke="#63b8ff" d="M69.05,-157.92C82.22,-148.61 98.47,-137.13 109.47,-129.36"/>
<polygon fill="#63b8ff" stroke="#63b8ff" points="67.11,-155.01 60.96,-163.64 71.15,-160.72 67.11,-155.01"/>
</g>
<!-- Node18&#45;&gt;Node3 -->
<g id="edge26" class="edge">
<title>Node18&#45;&gt;Node3</title>
<path fill="none" stroke="#63b8ff" d="M342.31,-215.32C366.73,-205.67 399.22,-192.82 420.6,-184.36"/>
<polygon fill="#63b8ff" stroke="#63b8ff" points="341.15,-212.02 333.14,-218.95 343.73,-218.53 341.15,-212.02"/>
</g>
<!-- Node18&#45;&gt;Node5 -->
<g id="edge31" class="edge">
<title>Node18&#45;&gt;Node5</title>
<path fill="none" stroke="#63b8ff" d="M317.04,-209.27C320.1,-201.51 323.46,-192.41 326,-184 344.73,-121.93 358.97,-44.94 363.49,-19.28"/>
<polygon fill="#63b8ff" stroke="#63b8ff" points="313.87,-207.78 313.34,-218.36 320.35,-210.42 313.87,-207.78"/>
</g>
<!-- Node18&#45;&gt;Node11 -->
<g id="edge29" class="edge">
<title>Node18&#45;&gt;Node11</title>
<path fill="none" stroke="#63b8ff" d="M348.54,-220.8C398.07,-211.14 482.79,-194.64 535.13,-184.44"/>
<polygon fill="#63b8ff" stroke="#63b8ff" points="347.97,-217.34 338.82,-222.69 349.31,-224.21 347.97,-217.34"/>
</g>
<!-- Node18&#45;&gt;Node14 -->
<g id="edge27" class="edge">
<title>Node18&#45;&gt;Node14</title>
<path fill="none" stroke="#63b8ff" d="M296.68,-210.36C290.74,-201.62 283.88,-191.51 279.07,-184.44"/>
<polygon fill="#63b8ff" stroke="#63b8ff" points="293.69,-212.19 302.2,-218.5 299.48,-208.26 293.69,-212.19"/>
</g>
<!-- Node18&#45;&gt;Node15 -->
<g id="edge28" class="edge">
<title>Node18&#45;&gt;Node15</title>
<path fill="none" stroke="#63b8ff" d="M273.29,-215.71C246.21,-206.01 209.67,-192.93 185.74,-184.36"/>
<polygon fill="#63b8ff" stroke="#63b8ff" points="271.87,-218.92 282.47,-219 274.23,-212.33 271.87,-218.92"/>
</g>
<!-- Node18&#45;&gt;Node16 -->
<g id="edge30" class="edge">
<title>Node18&#45;&gt;Node16</title>
<path fill="none" stroke="#63b8ff" d="M269.57,-220.52C221.71,-210.84 141.22,-194.56 91.27,-184.46"/>
<polygon fill="#63b8ff" stroke="#63b8ff" points="268.73,-223.93 279.23,-222.48 270.12,-217.06 268.73,-223.93"/>
</g>
</g>
</svg>
