<?xml version="1.0" encoding="UTF-8" standalone="no"?>
<!DOCTYPE svg PUBLIC "-//W3C//DTD SVG 1.1//EN"
 "http://www.w3.org/Graphics/SVG/1.1/DTD/svg11.dtd">
<!-- Generated by graphviz version 7.0.5 (20221223.1930)
 -->
<!-- Title: UioMemSgdma.hpp Pages: 1 -->
<svg width="2012pt" height="258pt"
 viewBox="0.00 0.00 2011.50 258.00" xmlns="http://www.w3.org/2000/svg" xmlns:xlink="http://www.w3.org/1999/xlink">
<g id="graph0" class="graph" transform="scale(1 1) rotate(0) translate(4 254)">
<title>UioMemSgdma.hpp</title>
<!-- Node1 -->
<g id="node1" class="node">
<title>Node1</title>
<g id="a_node1"><a xlink:title=" ">
<polygon fill="#999999" stroke="#666666" points="592,-250 490,-250 490,-231 592,-231 592,-250"/>
<text text-anchor="middle" x="541" y="-238" font-family="Helvetica,sans-Serif" font-size="10.00">UioMemSgdma.hpp</text>
</a>
</g>
</g>
<!-- Node2 -->
<g id="node2" class="node">
<title>Node2</title>
<g id="a_node2"><a xlink:href="_dma_buffer_abstract_8hpp.html" target="_top" xlink:title=" ">
<polygon fill="white" stroke="#666666" points="253.5,-140 136.5,-140 136.5,-121 253.5,-121 253.5,-140"/>
<text text-anchor="middle" x="195" y="-128" font-family="Helvetica,sans-Serif" font-size="10.00">DmaBufferAbstract.hpp</text>
</a>
</g>
</g>
<!-- Node1&#45;&gt;Node2 -->
<g id="edge1" class="edge">
<title>Node1&#45;&gt;Node2</title>
<path fill="none" stroke="#63b8ff" d="M512.39,-230.57C450.61,-211.29 304.62,-165.72 234.26,-143.75"/>
<polygon fill="#63b8ff" stroke="#63b8ff" points="235.68,-140.53 225.09,-140.89 233.59,-147.21 235.68,-140.53"/>
</g>
<!-- Node12 -->
<g id="node12" class="node">
<title>Node12</title>
<g id="a_node12"><a xlink:href="_uio_if_8hpp.html" target="_top" xlink:title=" ">
<polygon fill="white" stroke="#666666" points="756,-195 700,-195 700,-176 756,-176 756,-195"/>
<text text-anchor="middle" x="728" y="-183" font-family="Helvetica,sans-Serif" font-size="10.00">UioIf.hpp</text>
</a>
</g>
</g>
<!-- Node1&#45;&gt;Node12 -->
<g id="edge11" class="edge">
<title>Node1&#45;&gt;Node12</title>
<path fill="none" stroke="#63b8ff" d="M572.72,-230.51C604.74,-221.43 654.25,-207.4 688.73,-197.63"/>
<polygon fill="#63b8ff" stroke="#63b8ff" points="689.68,-201 698.34,-194.91 687.77,-194.27 689.68,-201"/>
</g>
<!-- Node3 -->
<g id="node3" class="node">
<title>Node3</title>
<g id="a_node3"><a xlink:title=" ">
<polygon fill="#e0e0e0" stroke="#999999" points="108,-79.5 62,-79.5 62,-60.5 108,-60.5 108,-79.5"/>
<text text-anchor="middle" x="85" y="-67.5" font-family="Helvetica,sans-Serif" font-size="10.00">cstdint</text>
</a>
</g>
</g>
<!-- Node2&#45;&gt;Node3 -->
<g id="edge2" class="edge">
<title>Node2&#45;&gt;Node3</title>
<path fill="none" stroke="#63b8ff" d="M178.29,-120.62C160.69,-111.25 132.69,-96.36 111.95,-85.33"/>
<polygon fill="#63b8ff" stroke="#63b8ff" points="113.67,-82.28 103.2,-80.68 110.39,-88.46 113.67,-82.28"/>
</g>
<!-- Node4 -->
<g id="node4" class="node">
<title>Node4</title>
<g id="a_node4"><a xlink:title=" ">
<polygon fill="#e0e0e0" stroke="#999999" points="44,-79.5 0,-79.5 0,-60.5 44,-60.5 44,-79.5"/>
<text text-anchor="middle" x="22" y="-67.5" font-family="Helvetica,sans-Serif" font-size="10.00">vector</text>
</a>
</g>
</g>
<!-- Node2&#45;&gt;Node4 -->
<g id="edge3" class="edge">
<title>Node2&#45;&gt;Node4</title>
<path fill="none" stroke="#63b8ff" d="M162.48,-120.52C133.45,-112.22 89.94,-99.07 53,-85 52.38,-84.76 51.75,-84.52 51.12,-84.27"/>
<polygon fill="#63b8ff" stroke="#63b8ff" points="52.83,-81.2 42.26,-80.54 50.12,-87.65 52.83,-81.2"/>
</g>
<!-- Node5 -->
<g id="node5" class="node">
<title>Node5</title>
<g id="a_node5"><a xlink:title=" ">
<polygon fill="#e0e0e0" stroke="#999999" points="263.5,-79.5 126.5,-79.5 126.5,-60.5 263.5,-60.5 263.5,-79.5"/>
<text text-anchor="middle" x="195" y="-67.5" font-family="Helvetica,sans-Serif" font-size="10.00">boost/core/noncopyable.hpp</text>
</a>
</g>
</g>
<!-- Node2&#45;&gt;Node5 -->
<g id="edge4" class="edge">
<title>Node2&#45;&gt;Node5</title>
<path fill="none" stroke="#63b8ff" d="M195,-120.87C195,-113 195,-101.1 195,-90.89"/>
<polygon fill="#63b8ff" stroke="#63b8ff" points="198.5,-91.18 195,-81.18 191.5,-91.18 198.5,-91.18"/>
</g>
<!-- Node6 -->
<g id="node6" class="node">
<title>Node6</title>
<g id="a_node6"><a xlink:href="_uio_config_8hpp.html" target="_top" xlink:title=" ">
<polygon fill="white" stroke="#666666" points="431.5,-79.5 320.5,-79.5 320.5,-60.5 431.5,-60.5 431.5,-79.5"/>
<text text-anchor="middle" x="376" y="-67.5" font-family="Helvetica,sans-Serif" font-size="10.00">udmaio/UioConfig.hpp</text>
</a>
</g>
</g>
<!-- Node2&#45;&gt;Node6 -->
<g id="edge5" class="edge">
<title>Node2&#45;&gt;Node6</title>
<path fill="none" stroke="#63b8ff" d="M222.49,-120.62C253.19,-110.69 303.09,-94.57 337.62,-83.4"/>
<polygon fill="#63b8ff" stroke="#63b8ff" points="338.37,-86.84 346.81,-80.43 336.22,-80.18 338.37,-86.84"/>
</g>
<!-- Node7 -->
<g id="node7" class="node">
<title>Node7</title>
<g id="a_node7"><a xlink:title=" ">
<polygon fill="#e0e0e0" stroke="#999999" points="884,-19 830,-19 830,0 884,0 884,-19"/>
<text text-anchor="middle" x="857" y="-7" font-family="Helvetica,sans-Serif" font-size="10.00">iostream</text>
</a>
</g>
</g>
<!-- Node6&#45;&gt;Node7 -->
<g id="edge6" class="edge">
<title>Node6&#45;&gt;Node7</title>
<path fill="none" stroke="#63b8ff" d="M413.77,-60.02C422.36,-58.18 431.47,-56.38 440,-55 578.48,-32.53 744.75,-18.68 818.51,-13.2"/>
<polygon fill="#63b8ff" stroke="#63b8ff" points="818.31,-16.72 828.03,-12.5 817.8,-9.74 818.31,-16.72"/>
</g>
<!-- Node8 -->
<g id="node8" class="node">
<title>Node8</title>
<g id="a_node8"><a xlink:title=" ">
<polygon fill="#e0e0e0" stroke="#999999" points="1287.5,-19 1236.5,-19 1236.5,0 1287.5,0 1287.5,-19"/>
<text text-anchor="middle" x="1262" y="-7" font-family="Helvetica,sans-Serif" font-size="10.00">memory</text>
</a>
</g>
</g>
<!-- Node6&#45;&gt;Node8 -->
<g id="edge7" class="edge">
<title>Node6&#45;&gt;Node8</title>
<path fill="none" stroke="#63b8ff" d="M412.03,-60.05C421.11,-58.09 430.87,-56.24 440,-55 594.98,-33.99 1085.81,-16.38 1224.92,-11.71"/>
<polygon fill="#63b8ff" stroke="#63b8ff" points="1224.78,-15.22 1234.66,-11.39 1224.55,-8.22 1224.78,-15.22"/>
</g>
<!-- Node9 -->
<g id="node9" class="node">
<title>Node9</title>
<g id="a_node9"><a xlink:title=" ">
<polygon fill="#e0e0e0" stroke="#999999" points="404.5,-19 345.5,-19 345.5,0 404.5,0 404.5,-19"/>
<text text-anchor="middle" x="375" y="-7" font-family="Helvetica,sans-Serif" font-size="10.00">stdexcept</text>
</a>
</g>
</g>
<!-- Node6&#45;&gt;Node9 -->
<g id="edge8" class="edge">
<title>Node6&#45;&gt;Node9</title>
<path fill="none" stroke="#63b8ff" d="M375.85,-60.37C375.72,-52.5 375.51,-40.6 375.34,-30.39"/>
<polygon fill="#63b8ff" stroke="#63b8ff" points="378.84,-30.62 375.17,-20.68 371.85,-30.74 378.84,-30.62"/>
</g>
<!-- Node10 -->
<g id="node10" class="node">
<title>Node10</title>
<g id="a_node10"><a xlink:title=" ">
<polygon fill="#e0e0e0" stroke="#999999" points="463.5,-19 422.5,-19 422.5,0 463.5,0 463.5,-19"/>
<text text-anchor="middle" x="443" y="-7" font-family="Helvetica,sans-Serif" font-size="10.00">string</text>
</a>
</g>
</g>
<!-- Node6&#45;&gt;Node10 -->
<g id="edge9" class="edge">
<title>Node6&#45;&gt;Node10</title>
<path fill="none" stroke="#63b8ff" d="M386.18,-60.12C396.21,-51.35 411.79,-37.75 424.1,-27"/>
<polygon fill="#63b8ff" stroke="#63b8ff" points="426.36,-29.68 431.59,-20.46 421.75,-24.4 426.36,-29.68"/>
</g>
<!-- Node11 -->
<g id="node11" class="node">
<title>Node11</title>
<g id="a_node11"><a xlink:title=" ">
<polygon fill="#e0e0e0" stroke="#999999" points="326,-19 260,-19 260,0 326,0 326,-19"/>
<text text-anchor="middle" x="293" y="-7" font-family="Helvetica,sans-Serif" font-size="10.00">string_view</text>
</a>
</g>
</g>
<!-- Node6&#45;&gt;Node11 -->
<g id="edge10" class="edge">
<title>Node6&#45;&gt;Node11</title>
<path fill="none" stroke="#63b8ff" d="M363.39,-60.12C350.6,-51.1 330.52,-36.95 315.08,-26.06"/>
<polygon fill="#63b8ff" stroke="#63b8ff" points="317.15,-23.24 306.96,-20.34 313.12,-28.96 317.15,-23.24"/>
</g>
<!-- Node13 -->
<g id="node13" class="node">
<title>Node13</title>
<g id="a_node13"><a xlink:href="_uio_if_base_8hpp.html" target="_top" xlink:title=" ">
<polygon fill="white" stroke="#666666" points="1017.5,-140 904.5,-140 904.5,-121 1017.5,-121 1017.5,-140"/>
<text text-anchor="middle" x="961" y="-128" font-family="Helvetica,sans-Serif" font-size="10.00">udmaio/UioIfBase.hpp</text>
</a>
</g>
</g>
<!-- Node12&#45;&gt;Node13 -->
<g id="edge12" class="edge">
<title>Node12&#45;&gt;Node13</title>
<path fill="none" stroke="#63b8ff" d="M756.11,-178.11C794.23,-169.43 863.01,-153.79 910.29,-143.04"/>
<polygon fill="#63b8ff" stroke="#63b8ff" points="911.06,-146.45 920.04,-140.82 909.51,-139.62 911.06,-146.45"/>
</g>
<!-- Node13&#45;&gt;Node5 -->
<g id="edge18" class="edge">
<title>Node13&#45;&gt;Node5</title>
<path fill="none" stroke="#63b8ff" d="M904.15,-127.76C786.8,-123.73 509.34,-111.98 278,-85 270.3,-84.1 262.24,-82.98 254.28,-81.76"/>
<polygon fill="#63b8ff" stroke="#63b8ff" points="255.08,-78.34 244.65,-80.22 253.98,-85.25 255.08,-78.34"/>
</g>
<!-- Node13&#45;&gt;Node6 -->
<g id="edge29" class="edge">
<title>Node13&#45;&gt;Node6</title>
<path fill="none" stroke="#63b8ff" d="M904.05,-127.06C807.94,-122.41 607.62,-110.38 440,-85 434.79,-84.21 429.37,-83.25 423.99,-82.2"/>
<polygon fill="#63b8ff" stroke="#63b8ff" points="425.06,-78.85 414.56,-80.27 423.65,-85.71 425.06,-78.85"/>
</g>
<!-- Node13&#45;&gt;Node7 -->
<g id="edge15" class="edge">
<title>Node13&#45;&gt;Node7</title>
<path fill="none" stroke="#63b8ff" d="M1017.79,-128.67C1099.89,-125.53 1236.76,-111.92 1187,-55 1149.54,-12.15 974.5,-8.89 895.66,-9.67"/>
<polygon fill="#63b8ff" stroke="#63b8ff" points="895.78,-6.17 885.83,-9.8 895.87,-13.17 895.78,-6.17"/>
</g>
<!-- Node13&#45;&gt;Node8 -->
<g id="edge16" class="edge">
<title>Node13&#45;&gt;Node8</title>
<path fill="none" stroke="#63b8ff" d="M1017.75,-129.7C1162.98,-129.61 1539.36,-125.45 1577,-85 1586.08,-75.24 1585.74,-65.07 1577,-55 1541.33,-13.94 1374.08,-9.72 1298.84,-9.96"/>
<polygon fill="#63b8ff" stroke="#63b8ff" points="1299.08,-6.46 1289.1,-10.02 1299.12,-13.46 1299.08,-6.46"/>
</g>
<!-- Node13&#45;&gt;Node11 -->
<g id="edge17" class="edge">
<title>Node13&#45;&gt;Node11</title>
<path fill="none" stroke="#63b8ff" d="M904.14,-129.39C754.07,-128.56 355.78,-122.8 311,-85 295.45,-71.87 292.05,-47.84 291.84,-30.62"/>
<polygon fill="#63b8ff" stroke="#63b8ff" points="295.34,-30.9 292.1,-20.81 288.34,-30.72 295.34,-30.9"/>
</g>
<!-- Node14 -->
<g id="node14" class="node">
<title>Node14</title>
<g id="a_node14"><a xlink:title=" ">
<polygon fill="#e0e0e0" stroke="#999999" points="1178,-79.5 1118,-79.5 1118,-60.5 1178,-60.5 1178,-79.5"/>
<text text-anchor="middle" x="1148" y="-67.5" font-family="Helvetica,sans-Serif" font-size="10.00">filesystem</text>
</a>
</g>
</g>
<!-- Node13&#45;&gt;Node14 -->
<g id="edge13" class="edge">
<title>Node13&#45;&gt;Node14</title>
<path fill="none" stroke="#63b8ff" d="M992.62,-120.51C1022.69,-111.85 1069.12,-98.14 1109,-85 1110.35,-84.56 1111.71,-84.1 1113.1,-83.63"/>
<polygon fill="#63b8ff" stroke="#63b8ff" points="1114,-87.02 1122.3,-80.43 1111.7,-80.41 1114,-87.02"/>
</g>
<!-- Node15 -->
<g id="node15" class="node">
<title>Node15</title>
<g id="a_node15"><a xlink:title=" ">
<polygon fill="#e0e0e0" stroke="#999999" points="1284,-79.5 1234,-79.5 1234,-60.5 1284,-60.5 1284,-79.5"/>
<text text-anchor="middle" x="1259" y="-67.5" font-family="Helvetica,sans-Serif" font-size="10.00">fstream</text>
</a>
</g>
</g>
<!-- Node13&#45;&gt;Node15 -->
<g id="edge14" class="edge">
<title>Node13&#45;&gt;Node15</title>
<path fill="none" stroke="#63b8ff" d="M1017.94,-122.63C1070.83,-115.56 1151.5,-103.03 1220,-85 1221.73,-84.54 1223.5,-84.04 1225.28,-83.51"/>
<polygon fill="#63b8ff" stroke="#63b8ff" points="1226.26,-86.87 1234.67,-80.44 1224.08,-80.22 1226.26,-86.87"/>
</g>
<!-- Node16 -->
<g id="node16" class="node">
<title>Node16</title>
<g id="a_node16"><a xlink:title=" ">
<polygon fill="#e0e0e0" stroke="#999999" points="1420,-79.5 1302,-79.5 1302,-60.5 1420,-60.5 1420,-79.5"/>
<text text-anchor="middle" x="1361" y="-67.5" font-family="Helvetica,sans-Serif" font-size="10.00">boost/log/core/core.hpp</text>
</a>
</g>
</g>
<!-- Node13&#45;&gt;Node16 -->
<g id="edge19" class="edge">
<title>Node13&#45;&gt;Node16</title>
<path fill="none" stroke="#63b8ff" d="M1017.87,-123.1C1084.13,-115.36 1196.82,-101.33 1293,-85 1298.15,-84.13 1303.51,-83.15 1308.85,-82.12"/>
<polygon fill="#63b8ff" stroke="#63b8ff" points="1309.11,-85.64 1318.25,-80.27 1307.76,-78.77 1309.11,-85.64"/>
</g>
<!-- Node17 -->
<g id="node17" class="node">
<title>Node17</title>
<g id="a_node17"><a xlink:title=" ">
<polygon fill="#e0e0e0" stroke="#999999" points="1567.5,-79.5 1438.5,-79.5 1438.5,-60.5 1567.5,-60.5 1567.5,-79.5"/>
<text text-anchor="middle" x="1503" y="-67.5" font-family="Helvetica,sans-Serif" font-size="10.00">boost/log/expressions.hpp</text>
</a>
</g>
</g>
<!-- Node13&#45;&gt;Node17 -->
<g id="edge20" class="edge">
<title>Node13&#45;&gt;Node17</title>
<path fill="none" stroke="#63b8ff" d="M1017.75,-125.8C1105.99,-119.66 1281.32,-105.94 1429,-85 1435.3,-84.11 1441.88,-83.05 1448.41,-81.91"/>
<polygon fill="#63b8ff" stroke="#63b8ff" points="1448.57,-85.44 1457.8,-80.23 1447.33,-78.55 1448.57,-85.44"/>
</g>
<!-- Node18 -->
<g id="node18" class="node">
<title>Node18</title>
<g id="a_node18"><a xlink:title=" ">
<polygon fill="#e0e0e0" stroke="#999999" points="1725.5,-85 1624.5,-85 1624.5,-55 1725.5,-55 1725.5,-85"/>
<text text-anchor="start" x="1632.5" y="-73" font-family="Helvetica,sans-Serif" font-size="10.00">boost/log/keywords</text>
<text text-anchor="middle" x="1675" y="-62" font-family="Helvetica,sans-Serif" font-size="10.00">/severity.hpp</text>
</a>
</g>
</g>
<!-- Node13&#45;&gt;Node18 -->
<g id="edge21" class="edge">
<title>Node13&#45;&gt;Node18</title>
<path fill="none" stroke="#63b8ff" d="M1017.71,-128.35C1130.86,-125.45 1392.49,-115.72 1610,-85 1611,-84.86 1612.01,-84.71 1613.02,-84.56"/>
<polygon fill="#63b8ff" stroke="#63b8ff" points="1613.26,-88.07 1622.54,-82.95 1612.09,-81.16 1613.26,-88.07"/>
</g>
<!-- Node19 -->
<g id="node19" class="node">
<title>Node19</title>
<g id="a_node19"><a xlink:title=" ">
<polygon fill="#e0e0e0" stroke="#999999" points="1884.5,-79.5 1743.5,-79.5 1743.5,-60.5 1884.5,-60.5 1884.5,-79.5"/>
<text text-anchor="middle" x="1814" y="-67.5" font-family="Helvetica,sans-Serif" font-size="10.00">boost/log/sources/logger.hpp</text>
</a>
</g>
</g>
<!-- Node13&#45;&gt;Node19 -->
<g id="edge22" class="edge">
<title>Node13&#45;&gt;Node19</title>
<path fill="none" stroke="#63b8ff" d="M1017.53,-128.53C1145.61,-125.84 1467.63,-116.27 1735,-85 1742.26,-84.15 1749.86,-83.06 1757.36,-81.87"/>
<polygon fill="#63b8ff" stroke="#63b8ff" points="1757.82,-85.34 1767.11,-80.24 1756.67,-78.43 1757.82,-85.34"/>
</g>
<!-- Node20 -->
<g id="node20" class="node">
<title>Node20</title>
<g id="a_node20"><a xlink:title=" ">
<polygon fill="#e0e0e0" stroke="#999999" points="2003.5,-79.5 1902.5,-79.5 1902.5,-60.5 2003.5,-60.5 2003.5,-79.5"/>
<text text-anchor="middle" x="1953" y="-67.5" font-family="Helvetica,sans-Serif" font-size="10.00">boost/log/trivial.hpp</text>
</a>
</g>
</g>
<!-- Node13&#45;&gt;Node20 -->
<g id="edge23" class="edge">
<title>Node13&#45;&gt;Node20</title>
<path fill="none" stroke="#63b8ff" d="M1017.88,-128.17C1193.16,-123.85 1723.39,-109.1 1894,-85 1898.94,-84.3 1904.08,-83.38 1909.16,-82.35"/>
<polygon fill="#63b8ff" stroke="#63b8ff" points="1909.63,-85.83 1918.65,-80.26 1908.13,-78.99 1909.63,-85.83"/>
</g>
<!-- Node21 -->
<g id="node21" class="node">
<title>Node21</title>
<g id="a_node21"><a xlink:title=" ">
<polygon fill="#e0e0e0" stroke="#999999" points="492.5,-79.5 449.5,-79.5 449.5,-60.5 492.5,-60.5 492.5,-79.5"/>
<text text-anchor="middle" x="471" y="-67.5" font-family="Helvetica,sans-Serif" font-size="10.00">fcntl.h</text>
</a>
</g>
</g>
<!-- Node13&#45;&gt;Node21 -->
<g id="edge24" class="edge">
<title>Node13&#45;&gt;Node21</title>
<path fill="none" stroke="#63b8ff" d="M904.31,-130.14C816.37,-129.78 642.45,-123.62 501,-85 500.01,-84.73 499,-84.43 498,-84.1"/>
<polygon fill="#63b8ff" stroke="#63b8ff" points="499.43,-80.9 488.84,-80.45 496.84,-87.4 499.43,-80.9"/>
</g>
<!-- Node22 -->
<g id="node22" class="node">
<title>Node22</title>
<g id="a_node22"><a xlink:title=" ">
<polygon fill="#e0e0e0" stroke="#999999" points="579.5,-79.5 510.5,-79.5 510.5,-60.5 579.5,-60.5 579.5,-79.5"/>
<text text-anchor="middle" x="545" y="-67.5" font-family="Helvetica,sans-Serif" font-size="10.00">sys/mman.h</text>
</a>
</g>
</g>
<!-- Node13&#45;&gt;Node22 -->
<g id="edge25" class="edge">
<title>Node13&#45;&gt;Node22</title>
<path fill="none" stroke="#63b8ff" d="M904.18,-126.2C830.55,-121.12 698.5,-109.33 588,-85 585.57,-84.46 583.08,-83.85 580.59,-83.18"/>
<polygon fill="#63b8ff" stroke="#63b8ff" points="581.82,-79.89 571.23,-80.41 579.83,-86.6 581.82,-79.89"/>
</g>
<!-- Node23 -->
<g id="node23" class="node">
<title>Node23</title>
<g id="a_node23"><a xlink:title=" ">
<polygon fill="#e0e0e0" stroke="#999999" points="656.5,-79.5 597.5,-79.5 597.5,-60.5 656.5,-60.5 656.5,-79.5"/>
<text text-anchor="middle" x="627" y="-67.5" font-family="Helvetica,sans-Serif" font-size="10.00">sys/stat.h</text>
</a>
</g>
</g>
<!-- Node13&#45;&gt;Node23 -->
<g id="edge26" class="edge">
<title>Node13&#45;&gt;Node23</title>
<path fill="none" stroke="#63b8ff" d="M904.12,-124.42C844.02,-118.26 746.8,-105.98 665,-85 663.26,-84.55 661.48,-84.06 659.7,-83.52"/>
<polygon fill="#63b8ff" stroke="#63b8ff" points="660.89,-80.23 650.3,-80.39 658.68,-86.87 660.89,-80.23"/>
</g>
<!-- Node24 -->
<g id="node24" class="node">
<title>Node24</title>
<g id="a_node24"><a xlink:title=" ">
<polygon fill="#e0e0e0" stroke="#999999" points="739.5,-79.5 674.5,-79.5 674.5,-60.5 739.5,-60.5 739.5,-79.5"/>
<text text-anchor="middle" x="707" y="-67.5" font-family="Helvetica,sans-Serif" font-size="10.00">sys/types.h</text>
</a>
</g>
</g>
<!-- Node13&#45;&gt;Node24 -->
<g id="edge27" class="edge">
<title>Node13&#45;&gt;Node24</title>
<path fill="none" stroke="#63b8ff" d="M910.07,-120.51C866.88,-112.48 803.45,-99.74 749,-85 747.03,-84.47 745.01,-83.89 742.98,-83.29"/>
<polygon fill="#63b8ff" stroke="#63b8ff" points="744.21,-80.01 733.62,-80.37 742.12,-86.69 744.21,-80.01"/>
</g>
<!-- Node25 -->
<g id="node25" class="node">
<title>Node25</title>
<g id="a_node25"><a xlink:title=" ">
<polygon fill="#e0e0e0" stroke="#999999" points="808,-79.5 758,-79.5 758,-60.5 808,-60.5 808,-79.5"/>
<text text-anchor="middle" x="783" y="-67.5" font-family="Helvetica,sans-Serif" font-size="10.00">unistd.h</text>
</a>
</g>
</g>
<!-- Node13&#45;&gt;Node25 -->
<g id="edge28" class="edge">
<title>Node13&#45;&gt;Node25</title>
<path fill="none" stroke="#63b8ff" d="M928.98,-120.51C899.62,-112.05 855.04,-98.68 817,-85 816.05,-84.66 815.1,-84.31 814.13,-83.95"/>
<polygon fill="#63b8ff" stroke="#63b8ff" points="815.74,-80.82 805.15,-80.44 813.19,-87.34 815.74,-80.82"/>
</g>
<!-- Node26 -->
<g id="node26" class="node">
<title>Node26</title>
<g id="a_node26"><a xlink:title=" ">
<polygon fill="#e0e0e0" stroke="#999999" points="950,-85 826,-85 826,-55 950,-55 950,-85"/>
<text text-anchor="start" x="834" y="-73" font-family="Helvetica,sans-Serif" font-size="10.00">boost/log/sources/record</text>
<text text-anchor="middle" x="888" y="-62" font-family="Helvetica,sans-Serif" font-size="10.00">_ostream.hpp</text>
</a>
</g>
</g>
<!-- Node13&#45;&gt;Node26 -->
<g id="edge30" class="edge">
<title>Node13&#45;&gt;Node26</title>
<path fill="none" stroke="#63b8ff" d="M949.91,-120.62C940.63,-113.18 927,-102.25 914.89,-92.55"/>
<polygon fill="#63b8ff" stroke="#63b8ff" points="917.19,-89.91 907.2,-86.39 912.81,-95.37 917.19,-89.91"/>
</g>
<!-- Node27 -->
<g id="node27" class="node">
<title>Node27</title>
<g id="a_node27"><a xlink:title=" ">
<polygon fill="#e0e0e0" stroke="#999999" points="1099.5,-85 968.5,-85 968.5,-55 1099.5,-55 1099.5,-85"/>
<text text-anchor="start" x="976.5" y="-73" font-family="Helvetica,sans-Serif" font-size="10.00">boost/log/sources/severity</text>
<text text-anchor="middle" x="1034" y="-62" font-family="Helvetica,sans-Serif" font-size="10.00">_logger.hpp</text>
</a>
</g>
</g>
<!-- Node13&#45;&gt;Node27 -->
<g id="edge31" class="edge">
<title>Node13&#45;&gt;Node27</title>
<path fill="none" stroke="#63b8ff" d="M972.09,-120.62C981.37,-113.18 995,-102.25 1007.11,-92.55"/>
<polygon fill="#63b8ff" stroke="#63b8ff" points="1009.19,-95.37 1014.8,-86.39 1004.81,-89.91 1009.19,-95.37"/>
</g>
</g>
</svg>
