<?xml version="1.0" encoding="UTF-8" standalone="no"?>
<!DOCTYPE svg PUBLIC "-//W3C//DTD SVG 1.1//EN"
 "http://www.w3.org/Graphics/SVG/1.1/DTD/svg11.dtd">
<!-- Generated by graphviz version 7.0.5 (20221223.1930)
 -->
<!-- Title: UioMemSgdma.hpp Pages: 1 -->
<!--zoomable 313 -->
<svg id="main" version="1.1" xmlns="http://www.w3.org/2000/svg" xmlns:xlink="http://www.w3.org/1999/xlink" xml:space="preserve" onload="init(evt)">
<style type="text/css"><![CDATA[
.edge:hover path { stroke: red; }
.edge:hover polygon { stroke: red; fill: red; }
]]></style>
<script type="text/javascript"><![CDATA[
var edges = document.getElementsByTagName('g');
if (edges && edges.length) {
  for (var i=0;i<edges.length;i++) {
    if (edges[i].id.substr(0,4)=='edge') {
      edges[i].setAttribute('class','edge');
    }
  }
}
]]></script>
        <defs>
                <circle id="rim" cx="0" cy="0" r="7"/>
                <circle id="rim2" cx="0" cy="0" r="3.5"/>
                <g id="zoomPlus">
                        <use xlink:href="#rim" fill="#404040">
                                <set attributeName="fill" to="#808080" begin="zoomplus.mouseover" end="zoomplus.mouseout"/>
                        </use>
                        <path d="M-4,0h8M0,-4v8" fill="none" stroke="white" stroke-width="1.5" pointer-events="none"/>
                </g>
                <g id="zoomMin">
                        <use xlink:href="#rim" fill="#404040">
                                <set attributeName="fill" to="#808080" begin="zoomminus.mouseover" end="zoomminus.mouseout"/>
                        </use>
                        <path d="M-4,0h8" fill="none" stroke="white" stroke-width="1.5" pointer-events="none"/>
                </g>
                <g id="dirArrow">
                        <path fill="none" stroke="white" stroke-width="1.5" d="M0,-3.0v7 M-2.5,-0.5L0,-3.0L2.5,-0.5"/>
                </g>
               <g id="resetDef">
                       <use xlink:href="#rim2" fill="#404040">
                               <set attributeName="fill" to="#808080" begin="reset.mouseover" end="reset.mouseout"/>
                       </use>
               </g>
        </defs>

<script type="text/javascript">
var viewWidth = 1703;
var viewHeight = 313;
var sectionId = 'dynsection-0';
</script>
<script xlink:href="svgpan.js"/>
<svg id="graph" class="graph">
<g id="viewport">
<title>UioMemSgdma.hpp</title>
<!-- Node1 -->
<g id="node1" class="node">
<title>Node1</title>
<g id="a_node1"><a xlink:title=" ">
<polygon fill="#999999" stroke="#666666" points="263.71,-305 161.71,-305 161.71,-286 263.71,-286 263.71,-305"/>
<text text-anchor="middle" x="212.71" y="-293" font-family="Helvetica,sans-Serif" font-size="10.00">UioMemSgdma.hpp</text>
</a>
</g>
</g>
<!-- Node2 -->
<g id="node2" class="node">
<title>Node2</title>
<g id="a_node2"><a xlink:title=" ">
<polygon fill="#e0e0e0" stroke="#999999" points="78.21,-85 29.21,-85 29.21,-66 78.21,-66 78.21,-85"/>
<text text-anchor="middle" x="53.71" y="-73" font-family="Helvetica,sans-Serif" font-size="10.00">cstddef</text>
</a>
</g>
</g>
<!-- Node1&#45;&gt;Node2 -->
<g id="edge1" class="edge">
<title>Node1&#45;&gt;Node2</title>
<path fill="none" stroke="#63b8ff" d="M206.29,-285.68C182.51,-253.09 99.29,-138.98 66.82,-94.47"/>
<polygon fill="#63b8ff" stroke="#63b8ff" points="69.66,-92.43 60.94,-86.41 64.01,-96.55 69.66,-92.43"/>
</g>
<!-- Node3 -->
<g id="node3" class="node">
<title>Node3</title>
<g id="a_node3"><a xlink:title=" ">
<polygon fill="#e0e0e0" stroke="#999999" points="306.21,-24.5 255.21,-24.5 255.21,-5.5 306.21,-5.5 306.21,-24.5"/>
<text text-anchor="middle" x="280.71" y="-12.5" font-family="Helvetica,sans-Serif" font-size="10.00">memory</text>
</a>
</g>
</g>
<!-- Node1&#45;&gt;Node3 -->
<g id="edge2" class="edge">
<title>Node1&#45;&gt;Node3</title>
<path fill="none" stroke="#63b8ff" d="M161.4,-290.48C98.65,-282.44 0.71,-258.37 0.71,-186.5 0.71,-186.5 0.71,-186.5 0.71,-129.5 0.71,-100.04 -2.14,-85.75 19.71,-66 52.19,-36.67 179.84,-23.35 243.79,-18.42"/>
<polygon fill="#63b8ff" stroke="#63b8ff" points="243.73,-21.94 253.44,-17.71 243.21,-14.95 243.73,-21.94"/>
</g>
<!-- Node4 -->
<g id="node4" class="node">
<title>Node4</title>
<g id="a_node4"><a xlink:href="_dma_buffer_abstract_8hpp.html" target="_top" xlink:title=" ">
<polygon fill="white" stroke="#666666" points="353.21,-250 236.21,-250 236.21,-231 353.21,-231 353.21,-250"/>
<text text-anchor="middle" x="294.71" y="-238" font-family="Helvetica,sans-Serif" font-size="10.00">DmaBufferAbstract.hpp</text>
</a>
</g>
</g>
<!-- Node1&#45;&gt;Node4 -->
<g id="edge3" class="edge">
<title>Node1&#45;&gt;Node4</title>
<path fill="none" stroke="#63b8ff" d="M226.63,-285.51C238.95,-277.54 257.19,-265.75 271.69,-256.38"/>
<polygon fill="#63b8ff" stroke="#63b8ff" points="273.24,-259.55 279.74,-251.18 269.44,-253.67 273.24,-259.55"/>
</g>
<!-- Node13 -->
<g id="node13" class="node">
<title>Node13</title>
<g id="a_node13"><a xlink:href="_reg_accessor_8hpp.html" target="_top" xlink:title=" ">
<polygon fill="white" stroke="#666666" points="464.21,-250 371.21,-250 371.21,-231 464.21,-231 464.21,-250"/>
<text text-anchor="middle" x="417.71" y="-238" font-family="Helvetica,sans-Serif" font-size="10.00">RegAccessor.hpp</text>
</a>
</g>
</g>
<!-- Node1&#45;&gt;Node13 -->
<g id="edge13" class="edge">
<title>Node1&#45;&gt;Node13</title>
<path fill="none" stroke="#63b8ff" d="M247.49,-285.51C281.9,-276.61 334.75,-262.95 372.43,-253.21"/>
<polygon fill="#63b8ff" stroke="#63b8ff" points="372.84,-256.72 381.65,-250.83 371.09,-249.94 372.84,-256.72"/>
</g>
<!-- Node5 -->
<g id="node5" class="node">
<title>Node5</title>
<g id="a_node5"><a xlink:title=" ">
<polygon fill="#e0e0e0" stroke="#999999" points="438.71,-195 392.71,-195 392.71,-176 438.71,-176 438.71,-195"/>
<text text-anchor="middle" x="415.71" y="-183" font-family="Helvetica,sans-Serif" font-size="10.00">cstdint</text>
</a>
</g>
</g>
<!-- Node4&#45;&gt;Node5 -->
<g id="edge4" class="edge">
<title>Node4&#45;&gt;Node5</title>
<path fill="none" stroke="#63b8ff" d="M315.24,-230.51C334.39,-222.12 363.21,-209.5 385.08,-199.92"/>
<polygon fill="#63b8ff" stroke="#63b8ff" points="386.35,-203.18 394.11,-195.97 383.54,-196.77 386.35,-203.18"/>
</g>
<!-- Node6 -->
<g id="node6" class="node">
<title>Node6</title>
<g id="a_node6"><a xlink:title=" ">
<polygon fill="#e0e0e0" stroke="#999999" points="371.71,-195 327.71,-195 327.71,-176 371.71,-176 371.71,-195"/>
<text text-anchor="middle" x="349.71" y="-183" font-family="Helvetica,sans-Serif" font-size="10.00">vector</text>
</a>
</g>
</g>
<!-- Node4&#45;&gt;Node6 -->
<g id="edge5" class="edge">
<title>Node4&#45;&gt;Node6</title>
<path fill="none" stroke="#63b8ff" d="M303.8,-230.75C311.55,-223.27 322.92,-212.32 332.41,-203.17"/>
<polygon fill="#63b8ff" stroke="#63b8ff" points="334.57,-205.95 339.35,-196.49 329.72,-200.91 334.57,-205.95"/>
</g>
<!-- Node7 -->
<g id="node7" class="node">
<title>Node7</title>
<g id="a_node7"><a xlink:title=" ">
<polygon fill="#e0e0e0" stroke="#999999" points="233.21,-85 96.21,-85 96.21,-66 233.21,-66 233.21,-85"/>
<text text-anchor="middle" x="164.71" y="-73" font-family="Helvetica,sans-Serif" font-size="10.00">boost/core/noncopyable.hpp</text>
</a>
</g>
</g>
<!-- Node4&#45;&gt;Node7 -->
<g id="edge6" class="edge">
<title>Node4&#45;&gt;Node7</title>
<path fill="none" stroke="#63b8ff" d="M286.98,-230.59C272.1,-213.35 238.55,-174.13 211.71,-140 199.81,-124.86 186.82,-107.21 177.52,-94.38"/>
<polygon fill="#63b8ff" stroke="#63b8ff" points="180.51,-92.54 171.83,-86.48 174.83,-96.63 180.51,-92.54"/>
</g>
<!-- Node8 -->
<g id="node8" class="node">
<title>Node8</title>
<g id="a_node8"><a xlink:href="_uio_config_8hpp.html" target="_top" xlink:title=" ">
<polygon fill="white" stroke="#666666" points="439.21,-85 328.21,-85 328.21,-66 439.21,-66 439.21,-85"/>
<text text-anchor="middle" x="383.71" y="-73" font-family="Helvetica,sans-Serif" font-size="10.00">udmaio/UioConfig.hpp</text>
</a>
</g>
</g>
<!-- Node4&#45;&gt;Node8 -->
<g id="edge7" class="edge">
<title>Node4&#45;&gt;Node8</title>
<path fill="none" stroke="#63b8ff" d="M297.4,-230.62C301.32,-218.1 309.21,-194.7 318.71,-176 333.92,-146.06 356.07,-113.97 370.18,-94.57"/>
<polygon fill="#63b8ff" stroke="#63b8ff" points="372.91,-96.77 376.02,-86.64 367.27,-92.61 372.91,-96.77"/>
</g>
<!-- Node8&#45;&gt;Node3 -->
<g id="edge9" class="edge">
<title>Node8&#45;&gt;Node3</title>
<path fill="none" stroke="#63b8ff" d="M368.07,-65.62C351.74,-56.34 325.85,-41.63 306.49,-30.64"/>
<polygon fill="#63b8ff" stroke="#63b8ff" points="308.25,-27.61 297.82,-25.72 304.79,-33.7 308.25,-27.61"/>
</g>
<!-- Node9 -->
<g id="node9" class="node">
<title>Node9</title>
<g id="a_node9"><a xlink:title=" ">
<polygon fill="#e0e0e0" stroke="#999999" points="708.71,-24.5 654.71,-24.5 654.71,-5.5 708.71,-5.5 708.71,-24.5"/>
<text text-anchor="middle" x="681.71" y="-12.5" font-family="Helvetica,sans-Serif" font-size="10.00">iostream</text>
</a>
</g>
</g>
<!-- Node8&#45;&gt;Node9 -->
<g id="edge8" class="edge">
<title>Node8&#45;&gt;Node9</title>
<path fill="none" stroke="#63b8ff" d="M429.3,-65.55C487.9,-54.05 588.62,-34.27 643.44,-23.51"/>
<polygon fill="#63b8ff" stroke="#63b8ff" points="643.79,-27.01 652.93,-21.65 642.44,-20.14 643.79,-27.01"/>
</g>
<!-- Node10 -->
<g id="node10" class="node">
<title>Node10</title>
<g id="a_node10"><a xlink:title=" ">
<polygon fill="#e0e0e0" stroke="#999999" points="481.21,-24.5 422.21,-24.5 422.21,-5.5 481.21,-5.5 481.21,-24.5"/>
<text text-anchor="middle" x="451.71" y="-12.5" font-family="Helvetica,sans-Serif" font-size="10.00">stdexcept</text>
</a>
</g>
</g>
<!-- Node8&#45;&gt;Node10 -->
<g id="edge10" class="edge">
<title>Node8&#45;&gt;Node10</title>
<path fill="none" stroke="#63b8ff" d="M394.04,-65.62C404.33,-56.77 420.35,-42.98 432.9,-32.19"/>
<polygon fill="#63b8ff" stroke="#63b8ff" points="434.84,-35.13 440.14,-25.96 430.28,-29.82 434.84,-35.13"/>
</g>
<!-- Node11 -->
<g id="node11" class="node">
<title>Node11</title>
<g id="a_node11"><a xlink:title=" ">
<polygon fill="#e0e0e0" stroke="#999999" points="768.21,-24.5 727.21,-24.5 727.21,-5.5 768.21,-5.5 768.21,-24.5"/>
<text text-anchor="middle" x="747.71" y="-12.5" font-family="Helvetica,sans-Serif" font-size="10.00">string</text>
</a>
</g>
</g>
<!-- Node8&#45;&gt;Node11 -->
<g id="edge11" class="edge">
<title>Node8&#45;&gt;Node11</title>
<path fill="none" stroke="#63b8ff" d="M439.45,-67.1C534.27,-54.51 716.88,-30.24 717.71,-30 718.68,-29.72 719.65,-29.41 720.63,-29.08"/>
<polygon fill="#63b8ff" stroke="#63b8ff" points="721.56,-32.48 729.53,-25.49 718.94,-25.98 721.56,-32.48"/>
</g>
<!-- Node12 -->
<g id="node12" class="node">
<title>Node12</title>
<g id="a_node12"><a xlink:title=" ">
<polygon fill="#e0e0e0" stroke="#999999" points="403.71,-24.5 337.71,-24.5 337.71,-5.5 403.71,-5.5 403.71,-24.5"/>
<text text-anchor="middle" x="370.71" y="-12.5" font-family="Helvetica,sans-Serif" font-size="10.00">string_view</text>
</a>
</g>
</g>
<!-- Node8&#45;&gt;Node12 -->
<g id="edge12" class="edge">
<title>Node8&#45;&gt;Node12</title>
<path fill="none" stroke="#63b8ff" d="M381.8,-65.87C380.05,-58 377.4,-46.1 375.13,-35.89"/>
<polygon fill="#63b8ff" stroke="#63b8ff" points="378.56,-35.15 372.97,-26.14 371.72,-36.67 378.56,-35.15"/>
</g>
<!-- Node13&#45;&gt;Node5 -->
<g id="edge14" class="edge">
<title>Node13&#45;&gt;Node5</title>
<path fill="none" stroke="#63b8ff" d="M417.38,-230.75C417.14,-224.27 416.8,-215.16 416.48,-206.9"/>
<polygon fill="#63b8ff" stroke="#63b8ff" points="419.98,-206.82 416.11,-196.95 412.99,-207.08 419.98,-206.82"/>
</g>
<!-- Node14 -->
<g id="node14" class="node">
<title>Node14</title>
<g id="a_node14"><a xlink:href="_uio_if_8hpp.html" target="_top" xlink:title=" ">
<polygon fill="white" stroke="#666666" points="743.71,-195 653.71,-195 653.71,-176 743.71,-176 743.71,-195"/>
<text text-anchor="middle" x="698.71" y="-183" font-family="Helvetica,sans-Serif" font-size="10.00">udmaio/UioIf.hpp</text>
</a>
</g>
</g>
<!-- Node13&#45;&gt;Node14 -->
<g id="edge15" class="edge">
<title>Node13&#45;&gt;Node14</title>
<path fill="none" stroke="#63b8ff" d="M464.43,-230.69C513.28,-221.47 589.98,-207.01 642.2,-197.16"/>
<polygon fill="#63b8ff" stroke="#63b8ff" points="642.62,-200.64 651.8,-195.35 641.32,-193.76 642.62,-200.64"/>
</g>
<!-- Node14&#45;&gt;Node3 -->
<g id="edge19" class="edge">
<title>Node14&#45;&gt;Node3</title>
<path fill="none" stroke="#63b8ff" d="M653.23,-179.21C559.04,-167.35 347.28,-135.6 297.71,-85 285.17,-72.19 281.39,-51.69 280.46,-36.36"/>
<polygon fill="#63b8ff" stroke="#63b8ff" points="283.97,-36.42 280.26,-26.49 276.97,-36.56 283.97,-36.42"/>
</g>
<!-- Node14&#45;&gt;Node7 -->
<g id="edge21" class="edge">
<title>Node14&#45;&gt;Node7</title>
<path fill="none" stroke="#63b8ff" d="M653.55,-183.18C554.42,-179.76 320.81,-168.83 247.71,-140 221.47,-129.65 196.49,-108.45 180.92,-93.39"/>
<polygon fill="#63b8ff" stroke="#63b8ff" points="183.51,-91.04 173.97,-86.44 178.56,-95.99 183.51,-91.04"/>
</g>
<!-- Node14&#45;&gt;Node8 -->
<g id="edge51" class="edge">
<title>Node14&#45;&gt;Node8</title>
<path fill="none" stroke="#63b8ff" d="M669.6,-175.52C641.4,-166.74 597.49,-152.86 559.71,-140 510.32,-123.19 453.63,-102.48 418.24,-89.38"/>
<polygon fill="#63b8ff" stroke="#63b8ff" points="419.54,-86.13 408.95,-85.93 417.11,-92.69 419.54,-86.13"/>
</g>
<!-- Node14&#45;&gt;Node9 -->
<g id="edge18" class="edge">
<title>Node14&#45;&gt;Node9</title>
<path fill="none" stroke="#63b8ff" d="M743.94,-183.92C856.79,-181.02 1135.62,-164.01 1047.71,-66 998.46,-11.08 789.37,-47.52 717.71,-30 716.09,-29.6 714.43,-29.15 712.77,-28.65"/>
<polygon fill="#63b8ff" stroke="#63b8ff" points="714,-25.37 703.41,-25.44 711.73,-31.99 714,-25.37"/>
</g>
<!-- Node14&#45;&gt;Node11 -->
<g id="edge20" class="edge">
<title>Node14&#45;&gt;Node11</title>
<path fill="none" stroke="#63b8ff" d="M743.89,-182C835.78,-176.47 1037.68,-161.95 1059.71,-140 1083.12,-116.69 1088.59,-90.76 1066.71,-66 1023.72,-17.33 839,-48.36 776.71,-30 775.91,-29.76 775.1,-29.51 774.29,-29.23"/>
<polygon fill="#63b8ff" stroke="#63b8ff" points="775.89,-26.1 765.31,-25.54 773.22,-32.58 775.89,-26.1"/>
</g>
<!-- Node15 -->
<g id="node15" class="node">
<title>Node15</title>
<g id="a_node15"><a xlink:title=" ">
<polygon fill="#e0e0e0" stroke="#999999" points="821.71,-85 761.71,-85 761.71,-66 821.71,-66 821.71,-85"/>
<text text-anchor="middle" x="791.71" y="-73" font-family="Helvetica,sans-Serif" font-size="10.00">filesystem</text>
</a>
</g>
</g>
<!-- Node14&#45;&gt;Node15 -->
<g id="edge16" class="edge">
<title>Node14&#45;&gt;Node15</title>
<path fill="none" stroke="#63b8ff" d="M720.76,-175.5C736.41,-168.09 756.85,-156.16 769.71,-140 779.84,-127.28 785.46,-109.59 788.48,-96.12"/>
<polygon fill="#63b8ff" stroke="#63b8ff" points="791.85,-97.15 790.29,-86.67 784.97,-95.83 791.85,-97.15"/>
</g>
<!-- Node16 -->
<g id="node16" class="node">
<title>Node16</title>
<g id="a_node16"><a xlink:title=" ">
<polygon fill="#e0e0e0" stroke="#999999" points="889.71,-85 839.71,-85 839.71,-66 889.71,-66 889.71,-85"/>
<text text-anchor="middle" x="864.71" y="-73" font-family="Helvetica,sans-Serif" font-size="10.00">fstream</text>
</a>
</g>
</g>
<!-- Node14&#45;&gt;Node16 -->
<g id="edge17" class="edge">
<title>Node14&#45;&gt;Node16</title>
<path fill="none" stroke="#63b8ff" d="M720.86,-175.51C739.82,-167.4 767.48,-154.52 789.71,-140 811.24,-125.94 833.42,-106.42 848.02,-92.75"/>
<polygon fill="#63b8ff" stroke="#63b8ff" points="850.13,-95.57 854.96,-86.14 845.3,-90.5 850.13,-95.57"/>
</g>
<!-- Node17 -->
<g id="node17" class="node">
<title>Node17</title>
<g id="a_node17"><a xlink:title=" ">
<polygon fill="#e0e0e0" stroke="#999999" points="951.21,-85 908.21,-85 908.21,-66 951.21,-66 951.21,-85"/>
<text text-anchor="middle" x="929.71" y="-73" font-family="Helvetica,sans-Serif" font-size="10.00">fcntl.h</text>
</a>
</g>
</g>
<!-- Node14&#45;&gt;Node17 -->
<g id="edge22" class="edge">
<title>Node14&#45;&gt;Node17</title>
<path fill="none" stroke="#63b8ff" d="M724.94,-175.61C748.74,-167.27 784.6,-154.01 814.71,-140 846.99,-124.98 882.66,-104.67 905.59,-91.1"/>
<polygon fill="#63b8ff" stroke="#63b8ff" points="907.07,-94.29 913.87,-86.16 903.49,-88.28 907.07,-94.29"/>
</g>
<!-- Node18 -->
<g id="node18" class="node">
<title>Node18</title>
<g id="a_node18"><a xlink:title=" ">
<polygon fill="#e0e0e0" stroke="#999999" points="1038.21,-85 969.21,-85 969.21,-66 1038.21,-66 1038.21,-85"/>
<text text-anchor="middle" x="1003.71" y="-73" font-family="Helvetica,sans-Serif" font-size="10.00">sys/mman.h</text>
</a>
</g>
</g>
<!-- Node14&#45;&gt;Node18 -->
<g id="edge23" class="edge">
<title>Node14&#45;&gt;Node18</title>
<path fill="none" stroke="#63b8ff" d="M731.39,-175.5C761.35,-167.04 806.85,-153.66 845.71,-140 890.5,-124.26 941.26,-103.28 972.88,-89.83"/>
<polygon fill="#63b8ff" stroke="#63b8ff" points="974.02,-93.15 981.84,-86 971.27,-86.72 974.02,-93.15"/>
</g>
<!-- Node19 -->
<g id="node19" class="node">
<title>Node19</title>
<g id="a_node19"><a xlink:title=" ">
<polygon fill="#e0e0e0" stroke="#999999" points="516.21,-85 457.21,-85 457.21,-66 516.21,-66 516.21,-85"/>
<text text-anchor="middle" x="486.71" y="-73" font-family="Helvetica,sans-Serif" font-size="10.00">sys/stat.h</text>
</a>
</g>
</g>
<!-- Node14&#45;&gt;Node19 -->
<g id="edge24" class="edge">
<title>Node14&#45;&gt;Node19</title>
<path fill="none" stroke="#63b8ff" d="M676.5,-175.65C655.61,-167.14 623.62,-153.58 596.71,-140 566.43,-124.71 532.83,-104.87 510.82,-91.47"/>
<polygon fill="#63b8ff" stroke="#63b8ff" points="512.66,-88.49 502.31,-86.24 509,-94.46 512.66,-88.49"/>
</g>
<!-- Node20 -->
<g id="node20" class="node">
<title>Node20</title>
<g id="a_node20"><a xlink:title=" ">
<polygon fill="#e0e0e0" stroke="#999999" points="599.21,-85 534.21,-85 534.21,-66 599.21,-66 599.21,-85"/>
<text text-anchor="middle" x="566.71" y="-73" font-family="Helvetica,sans-Serif" font-size="10.00">sys/types.h</text>
</a>
</g>
</g>
<!-- Node14&#45;&gt;Node20 -->
<g id="edge25" class="edge">
<title>Node14&#45;&gt;Node20</title>
<path fill="none" stroke="#63b8ff" d="M678.3,-175.54C661.55,-167.62 637.74,-155 619.71,-140 603.71,-126.68 588.83,-108.07 578.93,-94.44"/>
<polygon fill="#63b8ff" stroke="#63b8ff" points="581.89,-92.56 573.28,-86.4 576.17,-96.59 581.89,-92.56"/>
</g>
<!-- Node21 -->
<g id="node21" class="node">
<title>Node21</title>
<g id="a_node21"><a xlink:title=" ">
<polygon fill="#e0e0e0" stroke="#999999" points="667.71,-85 617.71,-85 617.71,-66 667.71,-66 667.71,-85"/>
<text text-anchor="middle" x="642.71" y="-73" font-family="Helvetica,sans-Serif" font-size="10.00">unistd.h</text>
</a>
</g>
</g>
<!-- Node14&#45;&gt;Node21 -->
<g id="edge26" class="edge">
<title>Node14&#45;&gt;Node21</title>
<path fill="none" stroke="#63b8ff" d="M671.78,-175.53C655.58,-168.58 636.3,-157.2 626.71,-140 618.93,-126.04 624.53,-108.25 631.15,-95.06"/>
<polygon fill="#63b8ff" stroke="#63b8ff" points="634.08,-96.99 635.94,-86.56 627.98,-93.55 634.08,-96.99"/>
</g>
<!-- Node22 -->
<g id="node22" class="node">
<title>Node22</title>
<g id="a_node22"><a xlink:href="_hw_accessor_8hpp.html" target="_top" xlink:title=" ">
<polygon fill="white" stroke="#666666" points="761.21,-140 636.21,-140 636.21,-121 761.21,-121 761.21,-140"/>
<text text-anchor="middle" x="698.71" y="-128" font-family="Helvetica,sans-Serif" font-size="10.00">udmaio/HwAccessor.hpp</text>
</a>
</g>
</g>
<!-- Node14&#45;&gt;Node22 -->
<g id="edge27" class="edge">
<title>Node14&#45;&gt;Node22</title>
<path fill="none" stroke="#63b8ff" d="M698.71,-175.75C698.71,-169.27 698.71,-160.16 698.71,-151.9"/>
<polygon fill="#63b8ff" stroke="#63b8ff" points="702.22,-151.96 698.71,-141.96 695.22,-151.96 702.22,-151.96"/>
</g>
<!-- Node23 -->
<g id="node23" class="node">
<title>Node23</title>
<g id="a_node23"><a xlink:href="_logging_8hpp.html" target="_top" xlink:title=" ">
<polygon fill="white" stroke="#666666" points="1236.71,-85 1132.71,-85 1132.71,-66 1236.71,-66 1236.71,-85"/>
<text text-anchor="middle" x="1184.71" y="-73" font-family="Helvetica,sans-Serif" font-size="10.00">udmaio/Logging.hpp</text>
</a>
</g>
</g>
<!-- Node14&#45;&gt;Node23 -->
<g id="edge50" class="edge">
<title>Node14&#45;&gt;Node23</title>
<path fill="none" stroke="#63b8ff" d="M744.2,-183.38C838.74,-180.46 1053.08,-170.57 1118.71,-140 1140.71,-129.76 1159.93,-109.17 1171.87,-94.2"/>
<polygon fill="#63b8ff" stroke="#63b8ff" points="1174.43,-96.62 1177.71,-86.55 1168.86,-92.38 1174.43,-96.62"/>
</g>
<!-- Node22&#45;&gt;Node2 -->
<g id="edge28" class="edge">
<title>Node22&#45;&gt;Node2</title>
<path fill="none" stroke="#63b8ff" d="M635.73,-128.64C526.31,-126.33 294,-117.86 89.73,-85.21"/>
<polygon fill="#63b8ff" stroke="#63b8ff" points="90.41,-81.78 79.97,-83.63 89.28,-88.69 90.41,-81.78"/>
</g>
<!-- Node22&#45;&gt;Node3 -->
<g id="edge32" class="edge">
<title>Node22&#45;&gt;Node3</title>
<path fill="none" stroke="#63b8ff" d="M635.94,-128.98C541.66,-127.08 369.15,-118.91 318.71,-85 301.71,-73.57 291.6,-51.89 286.13,-35.87"/>
<polygon fill="#63b8ff" stroke="#63b8ff" points="289.52,-34.98 283.26,-26.43 282.82,-37.02 289.52,-34.98"/>
</g>
<!-- Node22&#45;&gt;Node7 -->
<g id="edge34" class="edge">
<title>Node22&#45;&gt;Node7</title>
<path fill="none" stroke="#63b8ff" d="M635.89,-123.26C538.66,-113.61 351.84,-95.07 244.97,-84.47"/>
<polygon fill="#63b8ff" stroke="#63b8ff" points="245.42,-80.99 235.12,-83.49 244.73,-87.96 245.42,-80.99"/>
</g>
<!-- Node22&#45;&gt;Node8 -->
<g id="edge49" class="edge">
<title>Node22&#45;&gt;Node8</title>
<path fill="none" stroke="#63b8ff" d="M645.28,-120.51C590.89,-111.36 506.54,-97.17 448.41,-87.39"/>
<polygon fill="#63b8ff" stroke="#63b8ff" points="449.08,-83.95 438.64,-85.74 447.92,-90.85 449.08,-83.95"/>
</g>
<!-- Node22&#45;&gt;Node9 -->
<g id="edge31" class="edge">
<title>Node22&#45;&gt;Node9</title>
<path fill="none" stroke="#63b8ff" d="M697.38,-120.59C694.67,-102.53 688.48,-61.17 684.74,-36.21"/>
<polygon fill="#63b8ff" stroke="#63b8ff" points="688.21,-35.73 683.27,-26.36 681.29,-36.77 688.21,-35.73"/>
</g>
<!-- Node22&#45;&gt;Node11 -->
<g id="edge33" class="edge">
<title>Node22&#45;&gt;Node11</title>
<path fill="none" stroke="#63b8ff" d="M702.56,-120.59C710.47,-102.28 728.71,-60.02 739.43,-35.19"/>
<polygon fill="#63b8ff" stroke="#63b8ff" points="742.54,-36.82 743.29,-26.25 736.11,-34.05 742.54,-36.82"/>
</g>
<!-- Node22&#45;&gt;Node15 -->
<g id="edge29" class="edge">
<title>Node22&#45;&gt;Node15</title>
<path fill="none" stroke="#63b8ff" d="M714.49,-120.51C728.74,-112.39 749.95,-100.3 766.54,-90.85"/>
<polygon fill="#63b8ff" stroke="#63b8ff" points="767.9,-94.1 774.86,-86.11 764.44,-88.02 767.9,-94.1"/>
</g>
<!-- Node22&#45;&gt;Node16 -->
<g id="edge30" class="edge">
<title>Node22&#45;&gt;Node16</title>
<path fill="none" stroke="#63b8ff" d="M726.87,-120.51C754.97,-111.54 798.23,-97.73 828.78,-87.97"/>
<polygon fill="#63b8ff" stroke="#63b8ff" points="829.51,-91.41 837.97,-85.04 827.38,-84.75 829.51,-91.41"/>
</g>
<!-- Node22&#45;&gt;Node17 -->
<g id="edge35" class="edge">
<title>Node22&#45;&gt;Node17</title>
<path fill="none" stroke="#63b8ff" d="M741.77,-120.55C779.99,-112.47 837.61,-99.94 896.69,-85.41"/>
<polygon fill="#63b8ff" stroke="#63b8ff" points="897.4,-88.84 906.27,-83.03 895.72,-82.04 897.4,-88.84"/>
</g>
<!-- Node22&#45;&gt;Node18 -->
<g id="edge36" class="edge">
<title>Node22&#45;&gt;Node18</title>
<path fill="none" stroke="#63b8ff" d="M754.25,-120.51C804.84,-112.22 881.94,-99.35 957.81,-85.5"/>
<polygon fill="#63b8ff" stroke="#63b8ff" points="958.3,-88.97 967.51,-83.72 957.04,-82.08 958.3,-88.97"/>
</g>
<!-- Node22&#45;&gt;Node19 -->
<g id="edge37" class="edge">
<title>Node22&#45;&gt;Node19</title>
<path fill="none" stroke="#63b8ff" d="M662.75,-120.51C625.33,-111.16 566.84,-96.53 527.67,-86.74"/>
<polygon fill="#63b8ff" stroke="#63b8ff" points="528.69,-83.39 518.14,-84.36 527,-90.18 528.69,-83.39"/>
</g>
<!-- Node22&#45;&gt;Node20 -->
<g id="edge38" class="edge">
<title>Node22&#45;&gt;Node20</title>
<path fill="none" stroke="#63b8ff" d="M676.32,-120.51C655.15,-112.01 623.13,-99.15 599.16,-89.53"/>
<polygon fill="#63b8ff" stroke="#63b8ff" points="600.76,-86.4 590.18,-85.92 598.16,-92.9 600.76,-86.4"/>
</g>
<!-- Node22&#45;&gt;Node21 -->
<g id="edge39" class="edge">
<title>Node22&#45;&gt;Node21</title>
<path fill="none" stroke="#63b8ff" d="M689.22,-120.51C681.28,-113 669.77,-102.1 660.18,-93.03"/>
<polygon fill="#63b8ff" stroke="#63b8ff" points="662.84,-90.73 653.17,-86.4 658.03,-95.81 662.84,-90.73"/>
</g>
<!-- Node22&#45;&gt;Node23 -->
<g id="edge40" class="edge">
<title>Node22&#45;&gt;Node23</title>
<path fill="none" stroke="#63b8ff" d="M761.26,-122.68C854.16,-112.55 1027.69,-93.62 1121.17,-83.43"/>
<polygon fill="#63b8ff" stroke="#63b8ff" points="1121.37,-86.93 1130.93,-82.37 1120.61,-79.97 1121.37,-86.93"/>
</g>
<!-- Node23&#45;&gt;Node11 -->
<g id="edge41" class="edge">
<title>Node23&#45;&gt;Node11</title>
<path fill="none" stroke="#63b8ff" d="M1132.49,-67.66C1127.83,-67.08 1123.19,-66.52 1118.71,-66 966.91,-48.24 923.72,-71.84 776.71,-30 775.89,-29.76 775.06,-29.51 774.22,-29.23"/>
<polygon fill="#63b8ff" stroke="#63b8ff" points="775.56,-26 764.98,-25.45 772.91,-32.48 775.56,-26"/>
</g>
<!-- Node24 -->
<g id="node24" class="node">
<title>Node24</title>
<g id="a_node24"><a xlink:title=" ">
<polygon fill="#e0e0e0" stroke="#999999" points="1694.71,-24.5 1598.71,-24.5 1598.71,-5.5 1694.71,-5.5 1694.71,-24.5"/>
<text text-anchor="middle" x="1646.71" y="-12.5" font-family="Helvetica,sans-Serif" font-size="10.00">boost/log/core.hpp</text>
</a>
</g>
</g>
<!-- Node23&#45;&gt;Node24 -->
<g id="edge42" class="edge">
<title>Node23&#45;&gt;Node24</title>
<path fill="none" stroke="#63b8ff" d="M1237.13,-70.95C1314.63,-65.21 1464.16,-52.22 1589.71,-30 1593.82,-29.27 1598.07,-28.42 1602.31,-27.5"/>
<polygon fill="#63b8ff" stroke="#63b8ff" points="1602.98,-30.94 1611.94,-25.3 1601.41,-24.12 1602.98,-30.94"/>
</g>
<!-- Node25 -->
<g id="node25" class="node">
<title>Node25</title>
<g id="a_node25"><a xlink:title=" ">
<polygon fill="#e0e0e0" stroke="#999999" points="915.21,-24.5 786.21,-24.5 786.21,-5.5 915.21,-5.5 915.21,-24.5"/>
<text text-anchor="middle" x="850.71" y="-12.5" font-family="Helvetica,sans-Serif" font-size="10.00">boost/log/expressions.hpp</text>
</a>
</g>
</g>
<!-- Node23&#45;&gt;Node25 -->
<g id="edge43" class="edge">
<title>Node23&#45;&gt;Node25</title>
<path fill="none" stroke="#63b8ff" d="M1132.38,-65.82C1079.84,-57.04 996.6,-42.95 924.71,-30 919.44,-29.05 913.96,-28.05 908.48,-27.03"/>
<polygon fill="#63b8ff" stroke="#63b8ff" points="909.23,-23.61 898.76,-25.21 907.95,-30.49 909.23,-23.61"/>
</g>
<!-- Node26 -->
<g id="node26" class="node">
<title>Node26</title>
<g id="a_node26"><a xlink:title=" ">
<polygon fill="#e0e0e0" stroke="#999999" points="1034.21,-24.5 933.21,-24.5 933.21,-5.5 1034.21,-5.5 1034.21,-24.5"/>
<text text-anchor="middle" x="983.71" y="-12.5" font-family="Helvetica,sans-Serif" font-size="10.00">boost/log/trivial.hpp</text>
</a>
</g>
</g>
<!-- Node23&#45;&gt;Node26 -->
<g id="edge44" class="edge">
<title>Node23&#45;&gt;Node26</title>
<path fill="none" stroke="#63b8ff" d="M1154.19,-65.62C1119.8,-55.61 1063.72,-39.29 1025.34,-28.12"/>
<polygon fill="#63b8ff" stroke="#63b8ff" points="1026.56,-24.83 1015.98,-25.39 1024.61,-31.55 1026.56,-24.83"/>
</g>
<!-- Node27 -->
<g id="node27" class="node">
<title>Node27</title>
<g id="a_node27"><a xlink:title=" ">
<polygon fill="#e0e0e0" stroke="#999999" points="1161.21,-30 1052.21,-30 1052.21,0 1161.21,0 1161.21,-30"/>
<text text-anchor="start" x="1060.21" y="-18" font-family="Helvetica,sans-Serif" font-size="10.00">boost/log/utility/setup</text>
<text text-anchor="middle" x="1106.71" y="-7" font-family="Helvetica,sans-Serif" font-size="10.00">/console.hpp</text>
</a>
</g>
</g>
<!-- Node23&#45;&gt;Node27 -->
<g id="edge45" class="edge">
<title>Node23&#45;&gt;Node27</title>
<path fill="none" stroke="#63b8ff" d="M1172.87,-65.62C1162.85,-58.1 1148.1,-47.04 1135.06,-37.26"/>
<polygon fill="#63b8ff" stroke="#63b8ff" points="1137.28,-34.55 1127.18,-31.35 1133.08,-40.15 1137.28,-34.55"/>
</g>
<!-- Node28 -->
<g id="node28" class="node">
<title>Node28</title>
<g id="a_node28"><a xlink:title=" ">
<polygon fill="#e0e0e0" stroke="#999999" points="1310.21,-30 1179.21,-30 1179.21,0 1310.21,0 1310.21,-30"/>
<text text-anchor="start" x="1187.21" y="-18" font-family="Helvetica,sans-Serif" font-size="10.00">boost/log/sources/severity</text>
<text text-anchor="middle" x="1244.71" y="-7" font-family="Helvetica,sans-Serif" font-size="10.00">_channel_logger.hpp</text>
</a>
</g>
</g>
<!-- Node23&#45;&gt;Node28 -->
<g id="edge46" class="edge">
<title>Node23&#45;&gt;Node28</title>
<path fill="none" stroke="#63b8ff" d="M1193.83,-65.62C1201.23,-58.4 1212,-47.89 1221.73,-38.41"/>
<polygon fill="#63b8ff" stroke="#63b8ff" points="1224.1,-40.98 1228.82,-31.5 1219.22,-35.97 1224.1,-40.98"/>
</g>
<!-- Node29 -->
<g id="node29" class="node">
<title>Node29</title>
<g id="a_node29"><a xlink:title=" ">
<polygon fill="#e0e0e0" stroke="#999999" points="1441.21,-30 1328.21,-30 1328.21,0 1441.21,0 1441.21,-30"/>
<text text-anchor="start" x="1336.21" y="-18" font-family="Helvetica,sans-Serif" font-size="10.00">boost/log/support/date</text>
<text text-anchor="middle" x="1384.71" y="-7" font-family="Helvetica,sans-Serif" font-size="10.00">_time.hpp</text>
</a>
</g>
</g>
<!-- Node23&#45;&gt;Node29 -->
<g id="edge47" class="edge">
<title>Node23&#45;&gt;Node29</title>
<path fill="none" stroke="#63b8ff" d="M1215.09,-65.62C1244.01,-57.16 1288.35,-44.19 1324.44,-33.63"/>
<polygon fill="#63b8ff" stroke="#63b8ff" points="1325.28,-37.03 1333.9,-30.86 1323.32,-30.31 1325.28,-37.03"/>
</g>
<!-- Node30 -->
<g id="node30" class="node">
<title>Node30</title>
<g id="a_node30"><a xlink:title=" ">
<polygon fill="#e0e0e0" stroke="#999999" points="1580.21,-30 1459.21,-30 1459.21,0 1580.21,0 1580.21,-30"/>
<text text-anchor="start" x="1467.21" y="-18" font-family="Helvetica,sans-Serif" font-size="10.00">boost/log/utility/setup</text>
<text text-anchor="middle" x="1519.71" y="-7" font-family="Helvetica,sans-Serif" font-size="10.00">/common_attributes.hpp</text>
</a>
</g>
</g>
<!-- Node23&#45;&gt;Node30 -->
<g id="edge48" class="edge">
<title>Node23&#45;&gt;Node30</title>
<path fill="none" stroke="#63b8ff" d="M1237.05,-66.29C1288.35,-58.12 1369.05,-44.95 1447.7,-30.52"/>
<polygon fill="#63b8ff" stroke="#63b8ff" points="1448.1,-34.01 1457.3,-28.76 1446.83,-27.13 1448.1,-34.01"/>
</g>
</g>
</svg>
        <g id="navigator" transform="translate(0 0)" fill="#404254">
                <rect fill="#f2f5e9" fill-opacity="0.5" stroke="#606060" stroke-width=".5" x="0" y="0" width="60" height="60"/>
                <use id="zoomplus" xlink:href="#zoomPlus" x="17" y="9" onmousedown="handleZoom(evt,'in')"/>
                <use id="zoomminus" xlink:href="#zoomMin" x="42" y="9" onmousedown="handleZoom(evt,'out')"/>
                <use id="reset" xlink:href="#resetDef" x="30" y="36" onmousedown="handleReset()"/>
                <g id="arrowUp" xlink:href="#dirArrow" transform="translate(30 24)" onmousedown="handlePan(0,-1)">
                  <use xlink:href="#rim" fill="#404040">
                        <set attributeName="fill" to="#808080" begin="arrowUp.mouseover" end="arrowUp.mouseout"/>
                  </use>
                  <path fill="none" stroke="white" stroke-width="1.5" d="M0,-3.0v7 M-2.5,-0.5L0,-3.0L2.5,-0.5"/>
                </g>
                <g id="arrowRight" xlink:href="#dirArrow" transform="rotate(90) translate(36 -43)" onmousedown="handlePan(1,0)">
                  <use xlink:href="#rim" fill="#404040">
                        <set attributeName="fill" to="#808080" begin="arrowRight.mouseover" end="arrowRight.mouseout"/>
                  </use>
                  <path fill="none" stroke="white" stroke-width="1.5" d="M0,-3.0v7 M-2.5,-0.5L0,-3.0L2.5,-0.5"/>
                </g>
                <g id="arrowDown" xlink:href="#dirArrow" transform="rotate(180) translate(-30 -48)" onmousedown="handlePan(0,1)">
                  <use xlink:href="#rim" fill="#404040">
                        <set attributeName="fill" to="#808080" begin="arrowDown.mouseover" end="arrowDown.mouseout"/>
                  </use>
                  <path fill="none" stroke="white" stroke-width="1.5" d="M0,-3.0v7 M-2.5,-0.5L0,-3.0L2.5,-0.5"/>
                </g>
                <g id="arrowLeft" xlink:href="#dirArrow" transform="rotate(270) translate(-36 17)" onmousedown="handlePan(-1,0)">
                  <use xlink:href="#rim" fill="#404040">
                        <set attributeName="fill" to="#808080" begin="arrowLeft.mouseover" end="arrowLeft.mouseout"/>
                  </use>
                  <path fill="none" stroke="white" stroke-width="1.5" d="M0,-3.0v7 M-2.5,-0.5L0,-3.0L2.5,-0.5"/>
                </g>
        </g>
        <svg viewBox="0 0 15 15" width="100%" height="30px" preserveAspectRatio="xMaxYMin meet">
         <g id="arrow_out" transform="scale(0.3 0.3)">
          <a xlink:href="_uio_mem_sgdma_8hpp__incl_org.svg" target="_base">
           <rect id="button" ry="5" rx="5" y="6" x="6" height="38" width="38"
                fill="#f2f5e9" fill-opacity="0.5" stroke="#606060" stroke-width="1.0"/>
           <path id="arrow"
             d="M 11.500037,31.436501 C 11.940474,20.09759 22.043105,11.32322 32.158766,21.979434 L 37.068811,17.246167 C 37.068811,17.246167 37.088388,32 37.088388,32 L 22.160133,31.978069 C 22.160133,31.978069 26.997745,27.140456 26.997745,27.140456 C 18.528582,18.264221 13.291696,25.230495 11.500037,31.436501 z"
             style="fill:#404040;"/>
          </a>
         </g>
        </svg>
</svg>
