<?xml version="1.0" encoding="UTF-8" standalone="no"?>
<!DOCTYPE svg PUBLIC "-//W3C//DTD SVG 1.1//EN"
 "http://www.w3.org/Graphics/SVG/1.1/DTD/svg11.dtd">
<!-- Generated by graphviz version 7.0.5 (20221223.1930)
 -->
<!-- Title: UioAxiVdmaIf.hpp Pages: 1 -->
<!--zoomable 313 -->
<svg id="main" version="1.1" xmlns="http://www.w3.org/2000/svg" xmlns:xlink="http://www.w3.org/1999/xlink" xml:space="preserve" onload="init(evt)">
<style type="text/css"><![CDATA[
.edge:hover path { stroke: red; }
.edge:hover polygon { stroke: red; fill: red; }
]]></style>
<script type="text/javascript"><![CDATA[
var edges = document.getElementsByTagName('g');
if (edges && edges.length) {
  for (var i=0;i<edges.length;i++) {
    if (edges[i].id.substr(0,4)=='edge') {
      edges[i].setAttribute('class','edge');
    }
  }
}
]]></script>
        <defs>
                <circle id="rim" cx="0" cy="0" r="7"/>
                <circle id="rim2" cx="0" cy="0" r="3.5"/>
                <g id="zoomPlus">
                        <use xlink:href="#rim" fill="#404040">
                                <set attributeName="fill" to="#808080" begin="zoomplus.mouseover" end="zoomplus.mouseout"/>
                        </use>
                        <path d="M-4,0h8M0,-4v8" fill="none" stroke="white" stroke-width="1.5" pointer-events="none"/>
                </g>
                <g id="zoomMin">
                        <use xlink:href="#rim" fill="#404040">
                                <set attributeName="fill" to="#808080" begin="zoomminus.mouseover" end="zoomminus.mouseout"/>
                        </use>
                        <path d="M-4,0h8" fill="none" stroke="white" stroke-width="1.5" pointer-events="none"/>
                </g>
                <g id="dirArrow">
                        <path fill="none" stroke="white" stroke-width="1.5" d="M0,-3.0v7 M-2.5,-0.5L0,-3.0L2.5,-0.5"/>
                </g>
               <g id="resetDef">
                       <use xlink:href="#rim2" fill="#404040">
                               <set attributeName="fill" to="#808080" begin="reset.mouseover" end="reset.mouseout"/>
                       </use>
               </g>
        </defs>

<script type="text/javascript">
var viewWidth = 1792;
var viewHeight = 313;
var sectionId = 'dynsection-0';
</script>
<script xlink:href="svgpan.js"/>
<svg id="graph" class="graph">
<g id="viewport">
<title>UioAxiVdmaIf.hpp</title>
<!-- Node1 -->
<g id="node1" class="node">
<title>Node1</title>
<g id="a_node1"><a xlink:title=" ">
<polygon fill="#999999" stroke="#666666" points="833.15,-305 738.15,-305 738.15,-286 833.15,-286 833.15,-305"/>
<text text-anchor="middle" x="785.65" y="-293" font-family="Helvetica,sans-Serif" font-size="10.00">UioAxiVdmaIf.hpp</text>
</a>
</g>
</g>
<!-- Node2 -->
<g id="node2" class="node">
<title>Node2</title>
<g id="a_node2"><a xlink:href="_reg_accessor_8hpp.html" target="_top" xlink:title=" ">
<polygon fill="white" stroke="#666666" points="778.65,-250 650.65,-250 650.65,-231 778.65,-231 778.65,-250"/>
<text text-anchor="middle" x="714.65" y="-238" font-family="Helvetica,sans-Serif" font-size="10.00">udmaio/RegAccessor.hpp</text>
</a>
</g>
</g>
<!-- Node1&#45;&gt;Node2 -->
<g id="edge1" class="edge">
<title>Node1&#45;&gt;Node2</title>
<path fill="none" stroke="#63b8ff" d="M773.61,-285.51C763.24,-277.77 748.05,-266.43 735.68,-257.2"/>
<polygon fill="#63b8ff" stroke="#63b8ff" points="737.84,-254.44 727.73,-251.26 733.65,-260.05 737.84,-254.44"/>
</g>
<!-- Node4 -->
<g id="node4" class="node">
<title>Node4</title>
<g id="a_node4"><a xlink:href="_uio_if_8hpp.html" target="_top" xlink:title=" ">
<polygon fill="white" stroke="#666666" points="592.65,-195 502.65,-195 502.65,-176 592.65,-176 592.65,-195"/>
<text text-anchor="middle" x="547.65" y="-183" font-family="Helvetica,sans-Serif" font-size="10.00">udmaio/UioIf.hpp</text>
</a>
</g>
</g>
<!-- Node1&#45;&gt;Node4 -->
<g id="edge44" class="edge">
<title>Node1&#45;&gt;Node4</title>
<path fill="none" stroke="#63b8ff" d="M745.66,-285.52C716.09,-278.08 675.28,-266.12 641.65,-250 614.25,-236.87 585.74,-216.5 567.41,-202.39"/>
<polygon fill="#63b8ff" stroke="#63b8ff" points="569.79,-199.82 559.76,-196.4 565.47,-205.32 569.79,-199.82"/>
</g>
<!-- Node28 -->
<g id="node28" class="node">
<title>Node28</title>
<g id="a_node28"><a xlink:href="_frame_format_8hpp.html" target="_top" xlink:title=" ">
<polygon fill="white" stroke="#666666" points="1092.65,-250 964.65,-250 964.65,-231 1092.65,-231 1092.65,-250"/>
<text text-anchor="middle" x="1028.65" y="-238" font-family="Helvetica,sans-Serif" font-size="10.00">udmaio/FrameFormat.hpp</text>
</a>
</g>
</g>
<!-- Node1&#45;&gt;Node28 -->
<g id="edge45" class="edge">
<title>Node1&#45;&gt;Node28</title>
<path fill="none" stroke="#63b8ff" d="M826.87,-285.51C868.1,-276.52 931.66,-262.65 976.4,-252.9"/>
<polygon fill="#63b8ff" stroke="#63b8ff" points="977.13,-256.32 986.16,-250.77 975.64,-249.48 977.13,-256.32"/>
</g>
<!-- Node30 -->
<g id="node30" class="node">
<title>Node30</title>
<g id="a_node30"><a xlink:href="_axi_vdma_8hpp.html" target="_top" xlink:title=" ">
<polygon fill="white" stroke="#666666" points="918.65,-250 796.65,-250 796.65,-231 918.65,-231 918.65,-250"/>
<text text-anchor="middle" x="857.65" y="-238" font-family="Helvetica,sans-Serif" font-size="10.00">udmaio/rdl/AxiVdma.hpp</text>
</a>
</g>
</g>
<!-- Node1&#45;&gt;Node30 -->
<g id="edge49" class="edge">
<title>Node1&#45;&gt;Node30</title>
<path fill="none" stroke="#63b8ff" d="M797.87,-285.51C808.48,-277.7 824.09,-266.21 836.7,-256.93"/>
<polygon fill="#63b8ff" stroke="#63b8ff" points="838.42,-260 844.4,-251.26 834.27,-254.36 838.42,-260"/>
</g>
<!-- Node3 -->
<g id="node3" class="node">
<title>Node3</title>
<g id="a_node3"><a xlink:title=" ">
<polygon fill="#e0e0e0" stroke="#999999" points="880.65,-195 834.65,-195 834.65,-176 880.65,-176 880.65,-195"/>
<text text-anchor="middle" x="857.65" y="-183" font-family="Helvetica,sans-Serif" font-size="10.00">cstdint</text>
</a>
</g>
</g>
<!-- Node2&#45;&gt;Node3 -->
<g id="edge2" class="edge">
<title>Node2&#45;&gt;Node3</title>
<path fill="none" stroke="#63b8ff" d="M738.91,-230.51C762.2,-221.88 797.59,-208.76 823.68,-199.09"/>
<polygon fill="#63b8ff" stroke="#63b8ff" points="824.65,-202.47 832.81,-195.71 822.21,-195.9 824.65,-202.47"/>
</g>
<!-- Node2&#45;&gt;Node4 -->
<g id="edge3" class="edge">
<title>Node2&#45;&gt;Node4</title>
<path fill="none" stroke="#63b8ff" d="M686.32,-230.51C658.89,-221.8 617.08,-208.53 586.54,-198.84"/>
<polygon fill="#63b8ff" stroke="#63b8ff" points="587.87,-195.59 577.28,-195.9 585.76,-202.27 587.87,-195.59"/>
</g>
<!-- Node5 -->
<g id="node5" class="node">
<title>Node5</title>
<g id="a_node5"><a xlink:title=" ">
<polygon fill="#e0e0e0" stroke="#999999" points="962.65,-85 902.65,-85 902.65,-66 962.65,-66 962.65,-85"/>
<text text-anchor="middle" x="932.65" y="-73" font-family="Helvetica,sans-Serif" font-size="10.00">filesystem</text>
</a>
</g>
</g>
<!-- Node4&#45;&gt;Node5 -->
<g id="edge4" class="edge">
<title>Node4&#45;&gt;Node5</title>
<path fill="none" stroke="#63b8ff" d="M592.84,-176.38C634.65,-168.47 698.35,-155.41 752.65,-140 804.94,-125.16 864.12,-103.27 899.9,-89.45"/>
<polygon fill="#63b8ff" stroke="#63b8ff" points="900.75,-92.88 908.8,-85.99 898.21,-86.35 900.75,-92.88"/>
</g>
<!-- Node6 -->
<g id="node6" class="node">
<title>Node6</title>
<g id="a_node6"><a xlink:title=" ">
<polygon fill="#e0e0e0" stroke="#999999" points="108.65,-85 58.65,-85 58.65,-66 108.65,-66 108.65,-85"/>
<text text-anchor="middle" x="83.65" y="-73" font-family="Helvetica,sans-Serif" font-size="10.00">fstream</text>
</a>
</g>
</g>
<!-- Node4&#45;&gt;Node6 -->
<g id="edge5" class="edge">
<title>Node4&#45;&gt;Node6</title>
<path fill="none" stroke="#63b8ff" d="M506.03,-175.51C465.35,-166.67 401.68,-152.7 346.65,-140 248.15,-117.27 221.14,-110.38 119.93,-85.54"/>
<polygon fill="#63b8ff" stroke="#63b8ff" points="120.91,-82.18 110.37,-83.2 119.24,-88.98 120.91,-82.18"/>
</g>
<!-- Node7 -->
<g id="node7" class="node">
<title>Node7</title>
<g id="a_node7"><a xlink:title=" ">
<polygon fill="#e0e0e0" stroke="#999999" points="635.65,-24.5 581.65,-24.5 581.65,-5.5 635.65,-5.5 635.65,-24.5"/>
<text text-anchor="middle" x="608.65" y="-12.5" font-family="Helvetica,sans-Serif" font-size="10.00">iostream</text>
</a>
</g>
</g>
<!-- Node4&#45;&gt;Node7 -->
<g id="edge6" class="edge">
<title>Node4&#45;&gt;Node7</title>
<path fill="none" stroke="#63b8ff" d="M502.4,-181.27C368.18,-170.85 -14.55,-134.78 49.65,-66 89.32,-23.5 514.86,-42.42 571.65,-30 573.54,-29.59 575.47,-29.09 577.39,-28.55"/>
<polygon fill="#63b8ff" stroke="#63b8ff" points="578.41,-31.9 586.8,-25.42 576.2,-25.25 578.41,-31.9"/>
</g>
<!-- Node8 -->
<g id="node8" class="node">
<title>Node8</title>
<g id="a_node8"><a xlink:title=" ">
<polygon fill="#e0e0e0" stroke="#999999" points="563.15,-24.5 512.15,-24.5 512.15,-5.5 563.15,-5.5 563.15,-24.5"/>
<text text-anchor="middle" x="537.65" y="-12.5" font-family="Helvetica,sans-Serif" font-size="10.00">memory</text>
</a>
</g>
</g>
<!-- Node4&#45;&gt;Node8 -->
<g id="edge7" class="edge">
<title>Node4&#45;&gt;Node8</title>
<path fill="none" stroke="#63b8ff" d="M502.52,-184.13C380.2,-182.67 49.26,-175.45 16.65,-140 -5.61,-115.79 -5.47,-90.34 16.65,-66 49.15,-30.24 387.37,-19.38 500.8,-16.74"/>
<polygon fill="#63b8ff" stroke="#63b8ff" points="500.55,-20.24 510.46,-16.52 500.39,-13.25 500.55,-20.24"/>
</g>
<!-- Node9 -->
<g id="node9" class="node">
<title>Node9</title>
<g id="a_node9"><a xlink:title=" ">
<polygon fill="#e0e0e0" stroke="#999999" points="857.15,-24.5 816.15,-24.5 816.15,-5.5 857.15,-5.5 857.15,-24.5"/>
<text text-anchor="middle" x="836.65" y="-12.5" font-family="Helvetica,sans-Serif" font-size="10.00">string</text>
</a>
</g>
</g>
<!-- Node4&#45;&gt;Node9 -->
<g id="edge8" class="edge">
<title>Node4&#45;&gt;Node9</title>
<path fill="none" stroke="#63b8ff" d="M592.85,-181.08C692.71,-172.46 926.86,-146.03 971.65,-85 1014.8,-26.21 970.75,-72 866.65,-30 866.17,-29.81 865.69,-29.61 865.2,-29.41"/>
<polygon fill="#63b8ff" stroke="#63b8ff" points="866.87,-26.32 856.31,-25.51 864.06,-32.73 866.87,-26.32"/>
</g>
<!-- Node10 -->
<g id="node10" class="node">
<title>Node10</title>
<g id="a_node10"><a xlink:title=" ">
<polygon fill="#e0e0e0" stroke="#999999" points="264.15,-85 127.15,-85 127.15,-66 264.15,-66 264.15,-85"/>
<text text-anchor="middle" x="195.65" y="-73" font-family="Helvetica,sans-Serif" font-size="10.00">boost/core/noncopyable.hpp</text>
</a>
</g>
</g>
<!-- Node4&#45;&gt;Node10 -->
<g id="edge9" class="edge">
<title>Node4&#45;&gt;Node10</title>
<path fill="none" stroke="#63b8ff" d="M518.55,-175.57C455.69,-156.29 307.18,-110.72 235.59,-88.75"/>
<polygon fill="#63b8ff" stroke="#63b8ff" points="236.82,-85.47 226.24,-85.88 234.77,-92.16 236.82,-85.47"/>
</g>
<!-- Node11 -->
<g id="node11" class="node">
<title>Node11</title>
<g id="a_node11"><a xlink:title=" ">
<polygon fill="#e0e0e0" stroke="#999999" points="325.15,-85 282.15,-85 282.15,-66 325.15,-66 325.15,-85"/>
<text text-anchor="middle" x="303.65" y="-73" font-family="Helvetica,sans-Serif" font-size="10.00">fcntl.h</text>
</a>
</g>
</g>
<!-- Node4&#45;&gt;Node11 -->
<g id="edge10" class="edge">
<title>Node4&#45;&gt;Node11</title>
<path fill="none" stroke="#63b8ff" d="M527.68,-175.66C485.06,-156.79 384.92,-112.47 334.22,-90.03"/>
<polygon fill="#63b8ff" stroke="#63b8ff" points="335.84,-86.92 325.28,-86.07 333.01,-93.32 335.84,-86.92"/>
</g>
<!-- Node12 -->
<g id="node12" class="node">
<title>Node12</title>
<g id="a_node12"><a xlink:title=" ">
<polygon fill="#e0e0e0" stroke="#999999" points="412.15,-85 343.15,-85 343.15,-66 412.15,-66 412.15,-85"/>
<text text-anchor="middle" x="377.65" y="-73" font-family="Helvetica,sans-Serif" font-size="10.00">sys/mman.h</text>
</a>
</g>
</g>
<!-- Node4&#45;&gt;Node12 -->
<g id="edge11" class="edge">
<title>Node4&#45;&gt;Node12</title>
<path fill="none" stroke="#63b8ff" d="M533.74,-175.66C504.73,-157.23 437.47,-114.5 401.44,-91.62"/>
<polygon fill="#63b8ff" stroke="#63b8ff" points="403.35,-88.68 393.03,-86.27 399.6,-94.59 403.35,-88.68"/>
</g>
<!-- Node13 -->
<g id="node13" class="node">
<title>Node13</title>
<g id="a_node13"><a xlink:title=" ">
<polygon fill="#e0e0e0" stroke="#999999" points="489.15,-85 430.15,-85 430.15,-66 489.15,-66 489.15,-85"/>
<text text-anchor="middle" x="459.65" y="-73" font-family="Helvetica,sans-Serif" font-size="10.00">sys/stat.h</text>
</a>
</g>
</g>
<!-- Node4&#45;&gt;Node13 -->
<g id="edge12" class="edge">
<title>Node4&#45;&gt;Node13</title>
<path fill="none" stroke="#63b8ff" d="M540.45,-175.66C526.01,-157.94 493.28,-117.77 474.2,-94.35"/>
<polygon fill="#63b8ff" stroke="#63b8ff" points="476.94,-92.18 467.91,-86.63 471.51,-96.6 476.94,-92.18"/>
</g>
<!-- Node14 -->
<g id="node14" class="node">
<title>Node14</title>
<g id="a_node14"><a xlink:title=" ">
<polygon fill="#e0e0e0" stroke="#999999" points="572.15,-85 507.15,-85 507.15,-66 572.15,-66 572.15,-85"/>
<text text-anchor="middle" x="539.65" y="-73" font-family="Helvetica,sans-Serif" font-size="10.00">sys/types.h</text>
</a>
</g>
</g>
<!-- Node4&#45;&gt;Node14 -->
<g id="edge13" class="edge">
<title>Node4&#45;&gt;Node14</title>
<path fill="none" stroke="#63b8ff" d="M547,-175.66C545.73,-158.57 542.92,-120.61 541.16,-96.92"/>
<polygon fill="#63b8ff" stroke="#63b8ff" points="544.66,-96.68 540.43,-86.97 537.68,-97.2 544.66,-96.68"/>
</g>
<!-- Node15 -->
<g id="node15" class="node">
<title>Node15</title>
<g id="a_node15"><a xlink:title=" ">
<polygon fill="#e0e0e0" stroke="#999999" points="884.65,-85 834.65,-85 834.65,-66 884.65,-66 884.65,-85"/>
<text text-anchor="middle" x="859.65" y="-73" font-family="Helvetica,sans-Serif" font-size="10.00">unistd.h</text>
</a>
</g>
</g>
<!-- Node4&#45;&gt;Node15 -->
<g id="edge14" class="edge">
<title>Node4&#45;&gt;Node15</title>
<path fill="none" stroke="#63b8ff" d="M587.73,-175.52C621.67,-167.5 671.4,-154.76 713.65,-140 755.53,-125.37 802.29,-104.13 831.34,-90.31"/>
<polygon fill="#63b8ff" stroke="#63b8ff" points="832.69,-93.54 840.2,-86.06 829.67,-87.23 832.69,-93.54"/>
</g>
<!-- Node16 -->
<g id="node16" class="node">
<title>Node16</title>
<g id="a_node16"><a xlink:href="_hw_accessor_8hpp.html" target="_top" xlink:title=" ">
<polygon fill="white" stroke="#666666" points="683.15,-140 558.15,-140 558.15,-121 683.15,-121 683.15,-140"/>
<text text-anchor="middle" x="620.65" y="-128" font-family="Helvetica,sans-Serif" font-size="10.00">udmaio/HwAccessor.hpp</text>
</a>
</g>
</g>
<!-- Node4&#45;&gt;Node16 -->
<g id="edge15" class="edge">
<title>Node4&#45;&gt;Node16</title>
<path fill="none" stroke="#63b8ff" d="M560.04,-175.51C570.8,-167.7 586.62,-156.21 599.4,-146.93"/>
<polygon fill="#63b8ff" stroke="#63b8ff" points="601.19,-149.95 607.23,-141.25 597.08,-144.29 601.19,-149.95"/>
</g>
<!-- Node17 -->
<g id="node17" class="node">
<title>Node17</title>
<g id="a_node17"><a xlink:href="_logging_8hpp.html" target="_top" xlink:title=" ">
<polygon fill="white" stroke="#666666" points="1207.65,-85 1103.65,-85 1103.65,-66 1207.65,-66 1207.65,-85"/>
<text text-anchor="middle" x="1155.65" y="-73" font-family="Helvetica,sans-Serif" font-size="10.00">udmaio/Logging.hpp</text>
</a>
</g>
</g>
<!-- Node4&#45;&gt;Node17 -->
<g id="edge42" class="edge">
<title>Node4&#45;&gt;Node17</title>
<path fill="none" stroke="#63b8ff" d="M592.89,-183.29C671.59,-180.41 838.45,-170.88 975.65,-140 1029.47,-127.89 1089.42,-104.67 1124.76,-89.92"/>
<polygon fill="#63b8ff" stroke="#63b8ff" points="1126.09,-93.16 1133.94,-86.04 1123.36,-86.71 1126.09,-93.16"/>
</g>
<!-- Node25 -->
<g id="node25" class="node">
<title>Node25</title>
<g id="a_node25"><a xlink:href="_uio_config_8hpp.html" target="_top" xlink:title=" ">
<polygon fill="white" stroke="#666666" points="778.15,-85 667.15,-85 667.15,-66 778.15,-66 778.15,-85"/>
<text text-anchor="middle" x="722.65" y="-73" font-family="Helvetica,sans-Serif" font-size="10.00">udmaio/UioConfig.hpp</text>
</a>
</g>
</g>
<!-- Node4&#45;&gt;Node25 -->
<g id="edge43" class="edge">
<title>Node4&#45;&gt;Node25</title>
<path fill="none" stroke="#63b8ff" d="M593.08,-179.94C623.95,-174.74 664.03,-163.66 691.65,-140 704.91,-128.64 713.01,-110.29 717.59,-96.23"/>
<polygon fill="#63b8ff" stroke="#63b8ff" points="720.92,-97.29 720.32,-86.71 714.2,-95.36 720.92,-97.29"/>
</g>
<!-- Node16&#45;&gt;Node5 -->
<g id="edge16" class="edge">
<title>Node16&#45;&gt;Node5</title>
<path fill="none" stroke="#63b8ff" d="M681.53,-120.52C734.48,-112.5 813.51,-100.01 891.46,-85.33"/>
<polygon fill="#63b8ff" stroke="#63b8ff" points="891.79,-88.83 900.96,-83.53 890.49,-81.96 891.79,-88.83"/>
</g>
<!-- Node16&#45;&gt;Node6 -->
<g id="edge17" class="edge">
<title>Node16&#45;&gt;Node6</title>
<path fill="none" stroke="#63b8ff" d="M557.91,-127.11C464.48,-122.86 283.16,-111.93 120.03,-85.13"/>
<polygon fill="#63b8ff" stroke="#63b8ff" points="120.74,-81.7 110.3,-83.51 119.59,-88.6 120.74,-81.7"/>
</g>
<!-- Node16&#45;&gt;Node7 -->
<g id="edge18" class="edge">
<title>Node16&#45;&gt;Node7</title>
<path fill="none" stroke="#63b8ff" d="M619.91,-120.87C618.83,-108.64 616.75,-85.6 614.65,-66 613.6,-56.19 612.31,-45.32 611.2,-36.22"/>
<polygon fill="#63b8ff" stroke="#63b8ff" points="614.68,-35.84 609.97,-26.35 607.73,-36.7 614.68,-35.84"/>
</g>
<!-- Node16&#45;&gt;Node8 -->
<g id="edge19" class="edge">
<title>Node16&#45;&gt;Node8</title>
<path fill="none" stroke="#63b8ff" d="M615.61,-120.6C608.39,-108.07 594.43,-84.65 580.65,-66 572.29,-54.67 562.03,-42.69 553.64,-33.29"/>
<polygon fill="#63b8ff" stroke="#63b8ff" points="556.33,-31.05 547.02,-26 551.15,-35.76 556.33,-31.05"/>
</g>
<!-- Node16&#45;&gt;Node9 -->
<g id="edge20" class="edge">
<title>Node16&#45;&gt;Node9</title>
<path fill="none" stroke="#63b8ff" d="M683.29,-123.2C716.63,-117.41 756.97,-106.3 787.65,-85 805.91,-72.32 819.7,-50.53 827.93,-34.83"/>
<polygon fill="#63b8ff" stroke="#63b8ff" points="830.98,-36.56 832.25,-26.04 824.7,-33.47 830.98,-36.56"/>
</g>
<!-- Node16&#45;&gt;Node10 -->
<g id="edge21" class="edge">
<title>Node16&#45;&gt;Node10</title>
<path fill="none" stroke="#63b8ff" d="M557.94,-121.68C483.07,-112.34 357.73,-96.71 275.87,-86.5"/>
<polygon fill="#63b8ff" stroke="#63b8ff" points="276.48,-83.05 266.12,-85.29 275.61,-90 276.48,-83.05"/>
</g>
<!-- Node16&#45;&gt;Node11 -->
<g id="edge22" class="edge">
<title>Node16&#45;&gt;Node11</title>
<path fill="none" stroke="#63b8ff" d="M557.82,-122.01C501.91,-114.83 417.74,-102.79 336.46,-85.41"/>
<polygon fill="#63b8ff" stroke="#63b8ff" points="337.52,-82.06 327.01,-83.35 336.04,-88.9 337.52,-82.06"/>
</g>
<!-- Node16&#45;&gt;Node12 -->
<g id="edge23" class="edge">
<title>Node16&#45;&gt;Node12</title>
<path fill="none" stroke="#63b8ff" d="M579.43,-120.51C536.21,-111.08 468.45,-96.3 423.55,-86.51"/>
<polygon fill="#63b8ff" stroke="#63b8ff" points="424.37,-83.11 413.85,-84.4 422.88,-89.95 424.37,-83.11"/>
</g>
<!-- Node16&#45;&gt;Node13 -->
<g id="edge24" class="edge">
<title>Node16&#45;&gt;Node13</title>
<path fill="none" stroke="#63b8ff" d="M593.34,-120.51C567.01,-111.84 526.93,-98.65 497.53,-88.97"/>
<polygon fill="#63b8ff" stroke="#63b8ff" points="498.86,-85.72 488.27,-85.92 496.67,-92.37 498.86,-85.72"/>
</g>
<!-- Node16&#45;&gt;Node14 -->
<g id="edge25" class="edge">
<title>Node16&#45;&gt;Node14</title>
<path fill="none" stroke="#63b8ff" d="M606.91,-120.51C594.85,-112.62 577.07,-100.98 562.81,-91.65"/>
<polygon fill="#63b8ff" stroke="#63b8ff" points="564.74,-88.73 554.46,-86.19 560.91,-94.59 564.74,-88.73"/>
</g>
<!-- Node16&#45;&gt;Node15 -->
<g id="edge26" class="edge">
<title>Node16&#45;&gt;Node15</title>
<path fill="none" stroke="#63b8ff" d="M661.2,-120.51C706.58,-110.45 779.46,-94.28 823.13,-84.6"/>
<polygon fill="#63b8ff" stroke="#63b8ff" points="823.88,-88.02 832.89,-82.44 822.37,-81.18 823.88,-88.02"/>
</g>
<!-- Node16&#45;&gt;Node17 -->
<g id="edge27" class="edge">
<title>Node16&#45;&gt;Node17</title>
<path fill="none" stroke="#63b8ff" d="M683.6,-123.26C786.36,-113.08 989.04,-93.01 1092.16,-82.79"/>
<polygon fill="#63b8ff" stroke="#63b8ff" points="1092.22,-86.3 1101.82,-81.83 1091.53,-79.34 1092.22,-86.3"/>
</g>
<!-- Node16&#45;&gt;Node25 -->
<g id="edge36" class="edge">
<title>Node16&#45;&gt;Node25</title>
<path fill="none" stroke="#63b8ff" d="M637.95,-120.51C653.73,-112.31 677.29,-100.07 695.56,-90.58"/>
<polygon fill="#63b8ff" stroke="#63b8ff" points="697,-93.77 704.26,-86.06 693.77,-87.56 697,-93.77"/>
</g>
<!-- Node17&#45;&gt;Node9 -->
<g id="edge28" class="edge">
<title>Node17&#45;&gt;Node9</title>
<path fill="none" stroke="#63b8ff" d="M1103.24,-70.92C1044.57,-65.89 947.17,-54.44 866.65,-30 865.69,-29.71 864.72,-29.39 863.74,-29.05"/>
<polygon fill="#63b8ff" stroke="#63b8ff" points="865.44,-25.96 854.86,-25.43 862.8,-32.45 865.44,-25.96"/>
</g>
<!-- Node18 -->
<g id="node18" class="node">
<title>Node18</title>
<g id="a_node18"><a xlink:title=" ">
<polygon fill="#e0e0e0" stroke="#999999" points="1241.65,-24.5 1145.65,-24.5 1145.65,-5.5 1241.65,-5.5 1241.65,-24.5"/>
<text text-anchor="middle" x="1193.65" y="-12.5" font-family="Helvetica,sans-Serif" font-size="10.00">boost/log/core.hpp</text>
</a>
</g>
</g>
<!-- Node17&#45;&gt;Node18 -->
<g id="edge29" class="edge">
<title>Node17&#45;&gt;Node18</title>
<path fill="none" stroke="#63b8ff" d="M1161.26,-65.87C1166.65,-57.57 1174.96,-44.78 1181.81,-34.22"/>
<polygon fill="#63b8ff" stroke="#63b8ff" points="1184.69,-36.23 1187.2,-25.94 1178.81,-32.42 1184.69,-36.23"/>
</g>
<!-- Node19 -->
<g id="node19" class="node">
<title>Node19</title>
<g id="a_node19"><a xlink:title=" ">
<polygon fill="#e0e0e0" stroke="#999999" points="1389.15,-24.5 1260.15,-24.5 1260.15,-5.5 1389.15,-5.5 1389.15,-24.5"/>
<text text-anchor="middle" x="1324.65" y="-12.5" font-family="Helvetica,sans-Serif" font-size="10.00">boost/log/expressions.hpp</text>
</a>
</g>
</g>
<!-- Node17&#45;&gt;Node19 -->
<g id="edge30" class="edge">
<title>Node17&#45;&gt;Node19</title>
<path fill="none" stroke="#63b8ff" d="M1181.32,-65.62C1209.73,-55.78 1255.77,-39.84 1287.98,-28.69"/>
<polygon fill="#63b8ff" stroke="#63b8ff" points="1289.01,-32.04 1297.31,-25.46 1286.72,-25.43 1289.01,-32.04"/>
</g>
<!-- Node20 -->
<g id="node20" class="node">
<title>Node20</title>
<g id="a_node20"><a xlink:title=" ">
<polygon fill="#e0e0e0" stroke="#999999" points="1508.15,-24.5 1407.15,-24.5 1407.15,-5.5 1508.15,-5.5 1508.15,-24.5"/>
<text text-anchor="middle" x="1457.65" y="-12.5" font-family="Helvetica,sans-Serif" font-size="10.00">boost/log/trivial.hpp</text>
</a>
</g>
</g>
<!-- Node17&#45;&gt;Node20 -->
<g id="edge31" class="edge">
<title>Node17&#45;&gt;Node20</title>
<path fill="none" stroke="#63b8ff" d="M1207.95,-65.73C1257.26,-57.27 1333.17,-43.75 1398.65,-30 1402.42,-29.21 1406.32,-28.36 1410.24,-27.48"/>
<polygon fill="#63b8ff" stroke="#63b8ff" points="1410.77,-30.95 1419.73,-25.3 1409.2,-24.12 1410.77,-30.95"/>
</g>
<!-- Node21 -->
<g id="node21" class="node">
<title>Node21</title>
<g id="a_node21"><a xlink:title=" ">
<polygon fill="#e0e0e0" stroke="#999999" points="1635.15,-30 1526.15,-30 1526.15,0 1635.15,0 1635.15,-30"/>
<text text-anchor="start" x="1534.15" y="-18" font-family="Helvetica,sans-Serif" font-size="10.00">boost/log/utility/setup</text>
<text text-anchor="middle" x="1580.65" y="-7" font-family="Helvetica,sans-Serif" font-size="10.00">/console.hpp</text>
</a>
</g>
</g>
<!-- Node17&#45;&gt;Node21 -->
<g id="edge32" class="edge">
<title>Node17&#45;&gt;Node21</title>
<path fill="none" stroke="#63b8ff" d="M1208.04,-69.66C1276.44,-62.99 1400.1,-49.72 1514.68,-30.42"/>
<polygon fill="#63b8ff" stroke="#63b8ff" points="1514.98,-33.92 1524.25,-28.78 1513.8,-27.02 1514.98,-33.92"/>
</g>
<!-- Node22 -->
<g id="node22" class="node">
<title>Node22</title>
<g id="a_node22"><a xlink:title=" ">
<polygon fill="#e0e0e0" stroke="#999999" points="1784.15,-30 1653.15,-30 1653.15,0 1784.15,0 1784.15,-30"/>
<text text-anchor="start" x="1661.15" y="-18" font-family="Helvetica,sans-Serif" font-size="10.00">boost/log/sources/severity</text>
<text text-anchor="middle" x="1718.65" y="-7" font-family="Helvetica,sans-Serif" font-size="10.00">_channel_logger.hpp</text>
</a>
</g>
</g>
<!-- Node17&#45;&gt;Node22 -->
<g id="edge33" class="edge">
<title>Node17&#45;&gt;Node22</title>
<path fill="none" stroke="#63b8ff" d="M1207.95,-71.4C1295.6,-65.84 1477.92,-52.73 1641.68,-30.33"/>
<polygon fill="#63b8ff" stroke="#63b8ff" points="1642.01,-33.82 1651.44,-28.98 1641.05,-26.88 1642.01,-33.82"/>
</g>
<!-- Node23 -->
<g id="node23" class="node">
<title>Node23</title>
<g id="a_node23"><a xlink:title=" ">
<polygon fill="#e0e0e0" stroke="#999999" points="988.15,-30 875.15,-30 875.15,0 988.15,0 988.15,-30"/>
<text text-anchor="start" x="883.15" y="-18" font-family="Helvetica,sans-Serif" font-size="10.00">boost/log/support/date</text>
<text text-anchor="middle" x="931.65" y="-7" font-family="Helvetica,sans-Serif" font-size="10.00">_time.hpp</text>
</a>
</g>
</g>
<!-- Node17&#45;&gt;Node23 -->
<g id="edge34" class="edge">
<title>Node17&#45;&gt;Node23</title>
<path fill="none" stroke="#63b8ff" d="M1121.63,-65.62C1088.89,-57.07 1038.51,-43.91 997.86,-33.29"/>
<polygon fill="#63b8ff" stroke="#63b8ff" points="998.97,-29.96 988.41,-30.82 997.2,-36.74 998.97,-29.96"/>
</g>
<!-- Node24 -->
<g id="node24" class="node">
<title>Node24</title>
<g id="a_node24"><a xlink:title=" ">
<polygon fill="#e0e0e0" stroke="#999999" points="1127.15,-30 1006.15,-30 1006.15,0 1127.15,0 1127.15,-30"/>
<text text-anchor="start" x="1014.15" y="-18" font-family="Helvetica,sans-Serif" font-size="10.00">boost/log/utility/setup</text>
<text text-anchor="middle" x="1066.65" y="-7" font-family="Helvetica,sans-Serif" font-size="10.00">/common_attributes.hpp</text>
</a>
</g>
</g>
<!-- Node17&#45;&gt;Node24 -->
<g id="edge35" class="edge">
<title>Node17&#45;&gt;Node24</title>
<path fill="none" stroke="#63b8ff" d="M1142.13,-65.62C1130.49,-57.96 1113.22,-46.61 1098.13,-36.69"/>
<polygon fill="#63b8ff" stroke="#63b8ff" points="1100.16,-33.84 1089.88,-31.27 1096.32,-39.69 1100.16,-33.84"/>
</g>
<!-- Node25&#45;&gt;Node7 -->
<g id="edge37" class="edge">
<title>Node25&#45;&gt;Node7</title>
<path fill="none" stroke="#63b8ff" d="M705.34,-65.62C687.01,-56.21 657.81,-41.22 636.29,-30.18"/>
<polygon fill="#63b8ff" stroke="#63b8ff" points="637.97,-27.11 627.48,-25.66 634.77,-33.34 637.97,-27.11"/>
</g>
<!-- Node25&#45;&gt;Node8 -->
<g id="edge38" class="edge">
<title>Node25&#45;&gt;Node8</title>
<path fill="none" stroke="#63b8ff" d="M689.31,-65.56C658.72,-57.13 612.29,-43.78 572.65,-30 571.68,-29.66 570.69,-29.31 569.7,-28.95"/>
<polygon fill="#63b8ff" stroke="#63b8ff" points="571.01,-25.71 560.42,-25.44 568.53,-32.25 571.01,-25.71"/>
</g>
<!-- Node25&#45;&gt;Node9 -->
<g id="edge40" class="edge">
<title>Node25&#45;&gt;Node9</title>
<path fill="none" stroke="#63b8ff" d="M739.97,-65.62C758.3,-56.21 787.5,-41.22 809.02,-30.18"/>
<polygon fill="#63b8ff" stroke="#63b8ff" points="810.53,-33.34 817.83,-25.66 807.33,-27.11 810.53,-33.34"/>
</g>
<!-- Node26 -->
<g id="node26" class="node">
<title>Node26</title>
<g id="a_node26"><a xlink:title=" ">
<polygon fill="#e0e0e0" stroke="#999999" points="713.15,-24.5 654.15,-24.5 654.15,-5.5 713.15,-5.5 713.15,-24.5"/>
<text text-anchor="middle" x="683.65" y="-12.5" font-family="Helvetica,sans-Serif" font-size="10.00">stdexcept</text>
</a>
</g>
</g>
<!-- Node25&#45;&gt;Node26 -->
<g id="edge39" class="edge">
<title>Node25&#45;&gt;Node26</title>
<path fill="none" stroke="#63b8ff" d="M716.9,-65.87C711.37,-57.57 702.84,-44.78 695.8,-34.22"/>
<polygon fill="#63b8ff" stroke="#63b8ff" points="698.73,-32.31 690.27,-25.93 692.9,-36.19 698.73,-32.31"/>
</g>
<!-- Node27 -->
<g id="node27" class="node">
<title>Node27</title>
<g id="a_node27"><a xlink:title=" ">
<polygon fill="#e0e0e0" stroke="#999999" points="797.65,-24.5 731.65,-24.5 731.65,-5.5 797.65,-5.5 797.65,-24.5"/>
<text text-anchor="middle" x="764.65" y="-12.5" font-family="Helvetica,sans-Serif" font-size="10.00">string_view</text>
</a>
</g>
</g>
<!-- Node25&#45;&gt;Node27 -->
<g id="edge41" class="edge">
<title>Node25&#45;&gt;Node27</title>
<path fill="none" stroke="#63b8ff" d="M728.85,-65.87C734.87,-57.49 744.18,-44.51 751.81,-33.89"/>
<polygon fill="#63b8ff" stroke="#63b8ff" points="754.56,-36.06 757.55,-25.9 748.87,-31.98 754.56,-36.06"/>
</g>
<!-- Node28&#45;&gt;Node3 -->
<g id="edge47" class="edge">
<title>Node28&#45;&gt;Node3</title>
<path fill="none" stroke="#63b8ff" d="M999.64,-230.51C969.86,-221.28 923.51,-206.91 891.93,-197.12"/>
<polygon fill="#63b8ff" stroke="#63b8ff" points="893.06,-193.81 882.47,-194.19 890.98,-200.49 893.06,-193.81"/>
</g>
<!-- Node28&#45;&gt;Node9 -->
<g id="edge48" class="edge">
<title>Node28&#45;&gt;Node9</title>
<path fill="none" stroke="#63b8ff" d="M1029.66,-230.52C1032.29,-202.23 1036.38,-113.99 991.65,-66 952.23,-23.71 920.79,-50.29 866.65,-30 866.03,-29.77 865.4,-29.53 864.77,-29.28"/>
<polygon fill="#63b8ff" stroke="#63b8ff" points="866.5,-26.21 855.93,-25.5 863.75,-32.65 866.5,-26.21"/>
</g>
<!-- Node29 -->
<g id="node29" class="node">
<title>Node29</title>
<g id="a_node29"><a xlink:title=" ">
<polygon fill="#e0e0e0" stroke="#999999" points="1115.15,-195 1066.15,-195 1066.15,-176 1115.15,-176 1115.15,-195"/>
<text text-anchor="middle" x="1090.65" y="-183" font-family="Helvetica,sans-Serif" font-size="10.00">cstddef</text>
</a>
</g>
</g>
<!-- Node28&#45;&gt;Node29 -->
<g id="edge46" class="edge">
<title>Node28&#45;&gt;Node29</title>
<path fill="none" stroke="#63b8ff" d="M1039.17,-230.51C1048.04,-222.93 1060.96,-211.88 1071.64,-202.75"/>
<polygon fill="#63b8ff" stroke="#63b8ff" points="1073.81,-205.5 1079.14,-196.34 1069.26,-200.18 1073.81,-205.5"/>
</g>
<!-- Node30&#45;&gt;Node3 -->
<g id="edge50" class="edge">
<title>Node30&#45;&gt;Node3</title>
<path fill="none" stroke="#63b8ff" d="M857.65,-230.75C857.65,-224.27 857.65,-215.16 857.65,-206.9"/>
<polygon fill="#63b8ff" stroke="#63b8ff" points="861.15,-206.96 857.65,-196.96 854.15,-206.96 861.15,-206.96"/>
</g>
</g>
</svg>
        <g id="navigator" transform="translate(0 0)" fill="#404254">
                <rect fill="#f2f5e9" fill-opacity="0.5" stroke="#606060" stroke-width=".5" x="0" y="0" width="60" height="60"/>
                <use id="zoomplus" xlink:href="#zoomPlus" x="17" y="9" onmousedown="handleZoom(evt,'in')"/>
                <use id="zoomminus" xlink:href="#zoomMin" x="42" y="9" onmousedown="handleZoom(evt,'out')"/>
                <use id="reset" xlink:href="#resetDef" x="30" y="36" onmousedown="handleReset()"/>
                <g id="arrowUp" xlink:href="#dirArrow" transform="translate(30 24)" onmousedown="handlePan(0,-1)">
                  <use xlink:href="#rim" fill="#404040">
                        <set attributeName="fill" to="#808080" begin="arrowUp.mouseover" end="arrowUp.mouseout"/>
                  </use>
                  <path fill="none" stroke="white" stroke-width="1.5" d="M0,-3.0v7 M-2.5,-0.5L0,-3.0L2.5,-0.5"/>
                </g>
                <g id="arrowRight" xlink:href="#dirArrow" transform="rotate(90) translate(36 -43)" onmousedown="handlePan(1,0)">
                  <use xlink:href="#rim" fill="#404040">
                        <set attributeName="fill" to="#808080" begin="arrowRight.mouseover" end="arrowRight.mouseout"/>
                  </use>
                  <path fill="none" stroke="white" stroke-width="1.5" d="M0,-3.0v7 M-2.5,-0.5L0,-3.0L2.5,-0.5"/>
                </g>
                <g id="arrowDown" xlink:href="#dirArrow" transform="rotate(180) translate(-30 -48)" onmousedown="handlePan(0,1)">
                  <use xlink:href="#rim" fill="#404040">
                        <set attributeName="fill" to="#808080" begin="arrowDown.mouseover" end="arrowDown.mouseout"/>
                  </use>
                  <path fill="none" stroke="white" stroke-width="1.5" d="M0,-3.0v7 M-2.5,-0.5L0,-3.0L2.5,-0.5"/>
                </g>
                <g id="arrowLeft" xlink:href="#dirArrow" transform="rotate(270) translate(-36 17)" onmousedown="handlePan(-1,0)">
                  <use xlink:href="#rim" fill="#404040">
                        <set attributeName="fill" to="#808080" begin="arrowLeft.mouseover" end="arrowLeft.mouseout"/>
                  </use>
                  <path fill="none" stroke="white" stroke-width="1.5" d="M0,-3.0v7 M-2.5,-0.5L0,-3.0L2.5,-0.5"/>
                </g>
        </g>
        <svg viewBox="0 0 15 15" width="100%" height="30px" preserveAspectRatio="xMaxYMin meet">
         <g id="arrow_out" transform="scale(0.3 0.3)">
          <a xlink:href="_uio_axi_vdma_if_8hpp__incl_org.svg" target="_base">
           <rect id="button" ry="5" rx="5" y="6" x="6" height="38" width="38"
                fill="#f2f5e9" fill-opacity="0.5" stroke="#606060" stroke-width="1.0"/>
           <path id="arrow"
             d="M 11.500037,31.436501 C 11.940474,20.09759 22.043105,11.32322 32.158766,21.979434 L 37.068811,17.246167 C 37.068811,17.246167 37.088388,32 37.088388,32 L 22.160133,31.978069 C 22.160133,31.978069 26.997745,27.140456 26.997745,27.140456 C 18.528582,18.264221 13.291696,25.230495 11.500037,31.436501 z"
             style="fill:#404040;"/>
          </a>
         </g>
        </svg>
</svg>
