<?xml version="1.0" encoding="UTF-8" standalone="no"?>
<!DOCTYPE svg PUBLIC "-//W3C//DTD SVG 1.1//EN"
 "http://www.w3.org/Graphics/SVG/1.1/DTD/svg11.dtd">
<!-- Generated by graphviz version 7.0.5 (20221223.1930)
 -->
<!-- Title: UioTrafficGen.hpp Pages: 1 -->
<!--zoomable 258 -->
<svg id="main" version="1.1" xmlns="http://www.w3.org/2000/svg" xmlns:xlink="http://www.w3.org/1999/xlink" xml:space="preserve" onload="init(evt)">
<style type="text/css"><![CDATA[
.edge:hover path { stroke: red; }
.edge:hover polygon { stroke: red; fill: red; }
]]></style>
<script type="text/javascript"><![CDATA[
var edges = document.getElementsByTagName('g');
if (edges && edges.length) {
  for (var i=0;i<edges.length;i++) {
    if (edges[i].id.substr(0,4)=='edge') {
      edges[i].setAttribute('class','edge');
    }
  }
}
]]></script>
        <defs>
                <circle id="rim" cx="0" cy="0" r="7"/>
                <circle id="rim2" cx="0" cy="0" r="3.5"/>
                <g id="zoomPlus">
                        <use xlink:href="#rim" fill="#404040">
                                <set attributeName="fill" to="#808080" begin="zoomplus.mouseover" end="zoomplus.mouseout"/>
                        </use>
                        <path d="M-4,0h8M0,-4v8" fill="none" stroke="white" stroke-width="1.5" pointer-events="none"/>
                </g>
                <g id="zoomMin">
                        <use xlink:href="#rim" fill="#404040">
                                <set attributeName="fill" to="#808080" begin="zoomminus.mouseover" end="zoomminus.mouseout"/>
                        </use>
                        <path d="M-4,0h8" fill="none" stroke="white" stroke-width="1.5" pointer-events="none"/>
                </g>
                <g id="dirArrow">
                        <path fill="none" stroke="white" stroke-width="1.5" d="M0,-3.0v7 M-2.5,-0.5L0,-3.0L2.5,-0.5"/>
                </g>
               <g id="resetDef">
                       <use xlink:href="#rim2" fill="#404040">
                               <set attributeName="fill" to="#808080" begin="reset.mouseover" end="reset.mouseout"/>
                       </use>
               </g>
        </defs>

<script type="text/javascript">
var viewWidth = 1885;
var viewHeight = 258;
var sectionId = 'dynsection-0';
</script>
<script xlink:href="svgpan.js"/>
<svg id="graph" class="graph">
<g id="viewport">
<title>UioTrafficGen.hpp</title>
<!-- Node1 -->
<g id="node1" class="node">
<title>Node1</title>
<g id="a_node1"><a xlink:title=" ">
<polygon fill="#999999" stroke="#666666" points="878,-250 784,-250 784,-231 878,-231 878,-250"/>
<text text-anchor="middle" x="831" y="-238" font-family="Helvetica,sans-Serif" font-size="10.00">UioTrafficGen.hpp</text>
</a>
</g>
</g>
<!-- Node2 -->
<g id="node2" class="node">
<title>Node2</title>
<g id="a_node2"><a xlink:href="_reg_accessor_8hpp.html" target="_top" xlink:title=" ">
<polygon fill="white" stroke="#666666" points="832,-195 704,-195 704,-176 832,-176 832,-195"/>
<text text-anchor="middle" x="768" y="-183" font-family="Helvetica,sans-Serif" font-size="10.00">udmaio/RegAccessor.hpp</text>
</a>
</g>
</g>
<!-- Node1&#45;&gt;Node2 -->
<g id="edge1" class="edge">
<title>Node1&#45;&gt;Node2</title>
<path fill="none" stroke="#63b8ff" d="M820.31,-230.51C811.3,-222.93 798.17,-211.88 787.32,-202.75"/>
<polygon fill="#63b8ff" stroke="#63b8ff" points="789.59,-200.09 779.69,-196.33 785.09,-205.45 789.59,-200.09"/>
</g>
<!-- Node26 -->
<g id="node26" class="node">
<title>Node26</title>
<g id="a_node26"><a xlink:href="_uio_if_8hpp.html" target="_top" xlink:title=" ">
<polygon fill="white" stroke="#666666" points="940,-195 850,-195 850,-176 940,-176 940,-195"/>
<text text-anchor="middle" x="895" y="-183" font-family="Helvetica,sans-Serif" font-size="10.00">udmaio/UioIf.hpp</text>
</a>
</g>
</g>
<!-- Node1&#45;&gt;Node26 -->
<g id="edge28" class="edge">
<title>Node1&#45;&gt;Node26</title>
<path fill="none" stroke="#63b8ff" d="M841.86,-230.51C851.11,-222.85 864.62,-211.66 875.71,-202.47"/>
<polygon fill="#63b8ff" stroke="#63b8ff" points="877.67,-205.4 883.14,-196.32 873.2,-200.01 877.67,-205.4"/>
</g>
<!-- Node3 -->
<g id="node3" class="node">
<title>Node3</title>
<g id="a_node3"><a xlink:title=" ">
<polygon fill="#e0e0e0" stroke="#999999" points="791,-140 745,-140 745,-121 791,-121 791,-140"/>
<text text-anchor="middle" x="768" y="-128" font-family="Helvetica,sans-Serif" font-size="10.00">cstdint</text>
</a>
</g>
</g>
<!-- Node2&#45;&gt;Node3 -->
<g id="edge2" class="edge">
<title>Node2&#45;&gt;Node3</title>
<path fill="none" stroke="#63b8ff" d="M768,-175.75C768,-169.27 768,-160.16 768,-151.9"/>
<polygon fill="#63b8ff" stroke="#63b8ff" points="771.5,-151.96 768,-141.96 764.5,-151.96 771.5,-151.96"/>
</g>
<!-- Node4 -->
<g id="node4" class="node">
<title>Node4</title>
<g id="a_node4"><a xlink:href="_uio_if_base_8hpp.html" target="_top" xlink:title=" ">
<polygon fill="white" stroke="#666666" points="936.5,-140 823.5,-140 823.5,-121 936.5,-121 936.5,-140"/>
<text text-anchor="middle" x="880" y="-128" font-family="Helvetica,sans-Serif" font-size="10.00">udmaio/UioIfBase.hpp</text>
</a>
</g>
</g>
<!-- Node2&#45;&gt;Node4 -->
<g id="edge3" class="edge">
<title>Node2&#45;&gt;Node4</title>
<path fill="none" stroke="#63b8ff" d="M787,-175.51C804.56,-167.2 830.92,-154.73 851.09,-145.18"/>
<polygon fill="#63b8ff" stroke="#63b8ff" points="852.37,-148.45 859.91,-141.01 849.38,-142.12 852.37,-148.45"/>
</g>
<!-- Node5 -->
<g id="node5" class="node">
<title>Node5</title>
<g id="a_node5"><a xlink:title=" ">
<polygon fill="#e0e0e0" stroke="#999999" points="60,-79.5 0,-79.5 0,-60.5 60,-60.5 60,-79.5"/>
<text text-anchor="middle" x="30" y="-67.5" font-family="Helvetica,sans-Serif" font-size="10.00">filesystem</text>
</a>
</g>
</g>
<!-- Node4&#45;&gt;Node5 -->
<g id="edge4" class="edge">
<title>Node4&#45;&gt;Node5</title>
<path fill="none" stroke="#63b8ff" d="M823.22,-123.07C815.43,-122.3 807.52,-121.58 800,-121 475.69,-95.81 388,-148.64 69,-85 66.69,-84.54 64.32,-83.96 61.96,-83.32"/>
<polygon fill="#63b8ff" stroke="#63b8ff" points="63.17,-80.03 52.58,-80.33 61.04,-86.7 63.17,-80.03"/>
</g>
<!-- Node6 -->
<g id="node6" class="node">
<title>Node6</title>
<g id="a_node6"><a xlink:title=" ">
<polygon fill="#e0e0e0" stroke="#999999" points="128,-79.5 78,-79.5 78,-60.5 128,-60.5 128,-79.5"/>
<text text-anchor="middle" x="103" y="-67.5" font-family="Helvetica,sans-Serif" font-size="10.00">fstream</text>
</a>
</g>
</g>
<!-- Node4&#45;&gt;Node6 -->
<g id="edge5" class="edge">
<title>Node4&#45;&gt;Node6</title>
<path fill="none" stroke="#63b8ff" d="M823.22,-123.1C815.42,-122.33 807.52,-121.6 800,-121 508.06,-97.52 429.06,-143.09 142,-85 139.83,-84.56 137.62,-84.03 135.41,-83.42"/>
<polygon fill="#63b8ff" stroke="#63b8ff" points="136.58,-80.12 125.99,-80.45 134.47,-86.8 136.58,-80.12"/>
</g>
<!-- Node7 -->
<g id="node7" class="node">
<title>Node7</title>
<g id="a_node7"><a xlink:title=" ">
<polygon fill="#e0e0e0" stroke="#999999" points="160,-19 106,-19 106,0 160,0 160,-19"/>
<text text-anchor="middle" x="133" y="-7" font-family="Helvetica,sans-Serif" font-size="10.00">iostream</text>
</a>
</g>
</g>
<!-- Node4&#45;&gt;Node7 -->
<g id="edge6" class="edge">
<title>Node4&#45;&gt;Node7</title>
<path fill="none" stroke="#63b8ff" d="M823.22,-123.14C815.42,-122.36 807.52,-121.62 800,-121 733.11,-115.45 257.13,-114.82 197,-85 172.71,-72.96 153.9,-47.13 143.14,-29.29"/>
<polygon fill="#63b8ff" stroke="#63b8ff" points="146.25,-27.68 138.25,-20.73 140.17,-31.15 146.25,-27.68"/>
</g>
<!-- Node8 -->
<g id="node8" class="node">
<title>Node8</title>
<g id="a_node8"><a xlink:title=" ">
<polygon fill="#e0e0e0" stroke="#999999" points="229.5,-19 178.5,-19 178.5,0 229.5,0 229.5,-19"/>
<text text-anchor="middle" x="204" y="-7" font-family="Helvetica,sans-Serif" font-size="10.00">memory</text>
</a>
</g>
</g>
<!-- Node4&#45;&gt;Node8 -->
<g id="edge7" class="edge">
<title>Node4&#45;&gt;Node8</title>
<path fill="none" stroke="#63b8ff" d="M823.22,-123.15C815.42,-122.37 807.52,-121.63 800,-121 734.88,-115.55 260.55,-129.82 213,-85 198.51,-71.34 198.11,-47.42 200.15,-30.37"/>
<polygon fill="#63b8ff" stroke="#63b8ff" points="203.54,-31.34 201.66,-20.91 196.63,-30.24 203.54,-31.34"/>
</g>
<!-- Node9 -->
<g id="node9" class="node">
<title>Node9</title>
<g id="a_node9"><a xlink:title=" ">
<polygon fill="#e0e0e0" stroke="#999999" points="450,-19 384,-19 384,0 450,0 450,-19"/>
<text text-anchor="middle" x="417" y="-7" font-family="Helvetica,sans-Serif" font-size="10.00">string_view</text>
</a>
</g>
</g>
<!-- Node4&#45;&gt;Node9 -->
<g id="edge8" class="edge">
<title>Node4&#45;&gt;Node9</title>
<path fill="none" stroke="#63b8ff" d="M823.2,-123.32C815.41,-122.52 807.51,-121.72 800,-121 753.49,-116.53 412.6,-119.43 381,-85 365.45,-68.06 383.43,-43.17 399.08,-26.9"/>
<polygon fill="#63b8ff" stroke="#63b8ff" points="401.1,-29.83 405.78,-20.33 396.19,-24.83 401.1,-29.83"/>
</g>
<!-- Node10 -->
<g id="node10" class="node">
<title>Node10</title>
<g id="a_node10"><a xlink:title=" ">
<polygon fill="#e0e0e0" stroke="#999999" points="527.5,-79.5 390.5,-79.5 390.5,-60.5 527.5,-60.5 527.5,-79.5"/>
<text text-anchor="middle" x="459" y="-67.5" font-family="Helvetica,sans-Serif" font-size="10.00">boost/core/noncopyable.hpp</text>
</a>
</g>
</g>
<!-- Node4&#45;&gt;Node10 -->
<g id="edge9" class="edge">
<title>Node4&#45;&gt;Node10</title>
<path fill="none" stroke="#63b8ff" d="M823.13,-122.98C754.99,-114.97 637.44,-100.52 537,-85 530.73,-84.03 524.18,-82.96 517.67,-81.85"/>
<polygon fill="#63b8ff" stroke="#63b8ff" points="518.73,-78.48 508.28,-80.22 517.53,-85.38 518.73,-78.48"/>
</g>
<!-- Node11 -->
<g id="node11" class="node">
<title>Node11</title>
<g id="a_node11"><a xlink:title=" ">
<polygon fill="#e0e0e0" stroke="#999999" points="664,-79.5 546,-79.5 546,-60.5 664,-60.5 664,-79.5"/>
<text text-anchor="middle" x="605" y="-67.5" font-family="Helvetica,sans-Serif" font-size="10.00">boost/log/core/core.hpp</text>
</a>
</g>
</g>
<!-- Node4&#45;&gt;Node11 -->
<g id="edge10" class="edge">
<title>Node4&#45;&gt;Node11</title>
<path fill="none" stroke="#63b8ff" d="M837.93,-120.55C789.71,-110.29 710.59,-93.46 658.15,-82.31"/>
<polygon fill="#63b8ff" stroke="#63b8ff" points="659.05,-78.92 648.54,-80.26 657.59,-85.77 659.05,-78.92"/>
</g>
<!-- Node12 -->
<g id="node12" class="node">
<title>Node12</title>
<g id="a_node12"><a xlink:title=" ">
<polygon fill="#e0e0e0" stroke="#999999" points="811.5,-79.5 682.5,-79.5 682.5,-60.5 811.5,-60.5 811.5,-79.5"/>
<text text-anchor="middle" x="747" y="-67.5" font-family="Helvetica,sans-Serif" font-size="10.00">boost/log/expressions.hpp</text>
</a>
</g>
</g>
<!-- Node4&#45;&gt;Node12 -->
<g id="edge11" class="edge">
<title>Node4&#45;&gt;Node12</title>
<path fill="none" stroke="#63b8ff" d="M859.8,-120.62C838.02,-111.04 803.1,-95.68 777.88,-84.58"/>
<polygon fill="#63b8ff" stroke="#63b8ff" points="779.34,-81.4 768.78,-80.58 776.52,-87.81 779.34,-81.4"/>
</g>
<!-- Node13 -->
<g id="node13" class="node">
<title>Node13</title>
<g id="a_node13"><a xlink:title=" ">
<polygon fill="#e0e0e0" stroke="#999999" points="930.5,-85 829.5,-85 829.5,-55 930.5,-55 930.5,-85"/>
<text text-anchor="start" x="837.5" y="-73" font-family="Helvetica,sans-Serif" font-size="10.00">boost/log/keywords</text>
<text text-anchor="middle" x="880" y="-62" font-family="Helvetica,sans-Serif" font-size="10.00">/severity.hpp</text>
</a>
</g>
</g>
<!-- Node4&#45;&gt;Node13 -->
<g id="edge12" class="edge">
<title>Node4&#45;&gt;Node13</title>
<path fill="none" stroke="#63b8ff" d="M880,-120.87C880,-114.4 880,-105.2 880,-96.45"/>
<polygon fill="#63b8ff" stroke="#63b8ff" points="883.5,-96.63 880,-86.63 876.5,-96.63 883.5,-96.63"/>
</g>
<!-- Node14 -->
<g id="node14" class="node">
<title>Node14</title>
<g id="a_node14"><a xlink:title=" ">
<polygon fill="#e0e0e0" stroke="#999999" points="1089.5,-79.5 948.5,-79.5 948.5,-60.5 1089.5,-60.5 1089.5,-79.5"/>
<text text-anchor="middle" x="1019" y="-67.5" font-family="Helvetica,sans-Serif" font-size="10.00">boost/log/sources/logger.hpp</text>
</a>
</g>
</g>
<!-- Node4&#45;&gt;Node14 -->
<g id="edge13" class="edge">
<title>Node4&#45;&gt;Node14</title>
<path fill="none" stroke="#63b8ff" d="M901.11,-120.62C923.97,-110.99 960.7,-95.54 987.08,-84.43"/>
<polygon fill="#63b8ff" stroke="#63b8ff" points="988.44,-87.66 996.3,-80.56 985.72,-81.21 988.44,-87.66"/>
</g>
<!-- Node15 -->
<g id="node15" class="node">
<title>Node15</title>
<g id="a_node15"><a xlink:title=" ">
<polygon fill="#e0e0e0" stroke="#999999" points="1208.5,-79.5 1107.5,-79.5 1107.5,-60.5 1208.5,-60.5 1208.5,-79.5"/>
<text text-anchor="middle" x="1158" y="-67.5" font-family="Helvetica,sans-Serif" font-size="10.00">boost/log/trivial.hpp</text>
</a>
</g>
</g>
<!-- Node4&#45;&gt;Node15 -->
<g id="edge14" class="edge">
<title>Node4&#45;&gt;Node15</title>
<path fill="none" stroke="#63b8ff" d="M925.59,-120.58C969.75,-111.85 1038.57,-98 1098,-85 1101.61,-84.21 1105.33,-83.38 1109.07,-82.54"/>
<polygon fill="#63b8ff" stroke="#63b8ff" points="1109.83,-85.95 1118.79,-80.31 1108.26,-79.13 1109.83,-85.95"/>
</g>
<!-- Node16 -->
<g id="node16" class="node">
<title>Node16</title>
<g id="a_node16"><a xlink:title=" ">
<polygon fill="#e0e0e0" stroke="#999999" points="1269.5,-79.5 1226.5,-79.5 1226.5,-60.5 1269.5,-60.5 1269.5,-79.5"/>
<text text-anchor="middle" x="1248" y="-67.5" font-family="Helvetica,sans-Serif" font-size="10.00">fcntl.h</text>
</a>
</g>
</g>
<!-- Node4&#45;&gt;Node16 -->
<g id="edge15" class="edge">
<title>Node4&#45;&gt;Node16</title>
<path fill="none" stroke="#63b8ff" d="M936.7,-127.31C1004.74,-123.49 1121.69,-113.09 1218,-85 1218.97,-84.72 1219.94,-84.41 1220.92,-84.08"/>
<polygon fill="#63b8ff" stroke="#63b8ff" points="1221.85,-87.48 1229.81,-80.49 1219.23,-80.99 1221.85,-87.48"/>
</g>
<!-- Node17 -->
<g id="node17" class="node">
<title>Node17</title>
<g id="a_node17"><a xlink:title=" ">
<polygon fill="#e0e0e0" stroke="#999999" points="1356.5,-79.5 1287.5,-79.5 1287.5,-60.5 1356.5,-60.5 1356.5,-79.5"/>
<text text-anchor="middle" x="1322" y="-67.5" font-family="Helvetica,sans-Serif" font-size="10.00">sys/mman.h</text>
</a>
</g>
</g>
<!-- Node4&#45;&gt;Node17 -->
<g id="edge16" class="edge">
<title>Node4&#45;&gt;Node17</title>
<path fill="none" stroke="#63b8ff" d="M936.75,-126.81C1014.65,-122.3 1158.76,-111 1279,-85 1281.59,-84.44 1284.24,-83.78 1286.9,-83.07"/>
<polygon fill="#63b8ff" stroke="#63b8ff" points="1287.64,-86.5 1296.23,-80.3 1285.64,-79.79 1287.64,-86.5"/>
</g>
<!-- Node18 -->
<g id="node18" class="node">
<title>Node18</title>
<g id="a_node18"><a xlink:title=" ">
<polygon fill="#e0e0e0" stroke="#999999" points="1433.5,-79.5 1374.5,-79.5 1374.5,-60.5 1433.5,-60.5 1433.5,-79.5"/>
<text text-anchor="middle" x="1404" y="-67.5" font-family="Helvetica,sans-Serif" font-size="10.00">sys/stat.h</text>
</a>
</g>
</g>
<!-- Node4&#45;&gt;Node18 -->
<g id="edge17" class="edge">
<title>Node4&#45;&gt;Node18</title>
<path fill="none" stroke="#63b8ff" d="M936.87,-129.09C1028.39,-127.35 1213.52,-119.44 1366,-85 1367.89,-84.57 1369.81,-84.08 1371.73,-83.53"/>
<polygon fill="#63b8ff" stroke="#63b8ff" points="1372.73,-86.89 1381.15,-80.46 1370.56,-80.23 1372.73,-86.89"/>
</g>
<!-- Node19 -->
<g id="node19" class="node">
<title>Node19</title>
<g id="a_node19"><a xlink:title=" ">
<polygon fill="#e0e0e0" stroke="#999999" points="1516.5,-79.5 1451.5,-79.5 1451.5,-60.5 1516.5,-60.5 1516.5,-79.5"/>
<text text-anchor="middle" x="1484" y="-67.5" font-family="Helvetica,sans-Serif" font-size="10.00">sys/types.h</text>
</a>
</g>
</g>
<!-- Node4&#45;&gt;Node19 -->
<g id="edge18" class="edge">
<title>Node4&#45;&gt;Node19</title>
<path fill="none" stroke="#63b8ff" d="M937,-129.67C1039.39,-128.95 1260.81,-122.68 1443,-85 1445.45,-84.49 1447.96,-83.88 1450.47,-83.2"/>
<polygon fill="#63b8ff" stroke="#63b8ff" points="1451.31,-86.6 1459.85,-80.32 1449.26,-79.91 1451.31,-86.6"/>
</g>
<!-- Node20 -->
<g id="node20" class="node">
<title>Node20</title>
<g id="a_node20"><a xlink:title=" ">
<polygon fill="#e0e0e0" stroke="#999999" points="1585,-79.5 1535,-79.5 1535,-60.5 1585,-60.5 1585,-79.5"/>
<text text-anchor="middle" x="1560" y="-67.5" font-family="Helvetica,sans-Serif" font-size="10.00">unistd.h</text>
</a>
</g>
</g>
<!-- Node4&#45;&gt;Node20 -->
<g id="edge19" class="edge">
<title>Node4&#45;&gt;Node20</title>
<path fill="none" stroke="#63b8ff" d="M936.81,-127.92C1072.95,-123.77 1414.76,-111.01 1526,-85 1527.59,-84.63 1529.21,-84.19 1530.82,-83.7"/>
<polygon fill="#63b8ff" stroke="#63b8ff" points="1531.63,-87.13 1539.87,-80.47 1529.27,-80.54 1531.63,-87.13"/>
</g>
<!-- Node21 -->
<g id="node21" class="node">
<title>Node21</title>
<g id="a_node21"><a xlink:href="_uio_config_8hpp.html" target="_top" xlink:title=" ">
<polygon fill="white" stroke="#666666" points="333.5,-79.5 222.5,-79.5 222.5,-60.5 333.5,-60.5 333.5,-79.5"/>
<text text-anchor="middle" x="278" y="-67.5" font-family="Helvetica,sans-Serif" font-size="10.00">udmaio/UioConfig.hpp</text>
</a>
</g>
</g>
<!-- Node4&#45;&gt;Node21 -->
<g id="edge20" class="edge">
<title>Node4&#45;&gt;Node21</title>
<path fill="none" stroke="#63b8ff" d="M823.2,-123.28C815.41,-122.48 807.51,-121.7 800,-121 599.34,-102.35 547.6,-112.81 348,-85 342.02,-84.17 335.77,-83.14 329.59,-82.03"/>
<polygon fill="#63b8ff" stroke="#63b8ff" points="330.54,-78.65 320.07,-80.24 329.25,-85.53 330.54,-78.65"/>
</g>
<!-- Node24 -->
<g id="node24" class="node">
<title>Node24</title>
<g id="a_node24"><a xlink:title=" ">
<polygon fill="#e0e0e0" stroke="#999999" points="1727,-85 1603,-85 1603,-55 1727,-55 1727,-85"/>
<text text-anchor="start" x="1611" y="-73" font-family="Helvetica,sans-Serif" font-size="10.00">boost/log/sources/record</text>
<text text-anchor="middle" x="1665" y="-62" font-family="Helvetica,sans-Serif" font-size="10.00">_ostream.hpp</text>
</a>
</g>
</g>
<!-- Node4&#45;&gt;Node24 -->
<g id="edge26" class="edge">
<title>Node4&#45;&gt;Node24</title>
<path fill="none" stroke="#63b8ff" d="M936.7,-128.51C1056.08,-125.89 1342.19,-116.7 1591.64,-85.18"/>
<polygon fill="#63b8ff" stroke="#63b8ff" points="1591.76,-88.69 1601.24,-83.95 1590.87,-81.75 1591.76,-88.69"/>
</g>
<!-- Node25 -->
<g id="node25" class="node">
<title>Node25</title>
<g id="a_node25"><a xlink:title=" ">
<polygon fill="#e0e0e0" stroke="#999999" points="1876.5,-85 1745.5,-85 1745.5,-55 1876.5,-55 1876.5,-85"/>
<text text-anchor="start" x="1753.5" y="-73" font-family="Helvetica,sans-Serif" font-size="10.00">boost/log/sources/severity</text>
<text text-anchor="middle" x="1811" y="-62" font-family="Helvetica,sans-Serif" font-size="10.00">_logger.hpp</text>
</a>
</g>
</g>
<!-- Node4&#45;&gt;Node25 -->
<g id="edge27" class="edge">
<title>Node4&#45;&gt;Node25</title>
<path fill="none" stroke="#63b8ff" d="M936.81,-129.14C1072.75,-127.74 1427.59,-120.77 1733.89,-85.12"/>
<polygon fill="#63b8ff" stroke="#63b8ff" points="1734.2,-88.61 1743.72,-83.97 1733.38,-81.66 1734.2,-88.61"/>
</g>
<!-- Node21&#45;&gt;Node7 -->
<g id="edge21" class="edge">
<title>Node21&#45;&gt;Node7</title>
<path fill="none" stroke="#63b8ff" d="M255.98,-60.12C231.92,-50.41 193.13,-34.76 165.56,-23.64"/>
<polygon fill="#63b8ff" stroke="#63b8ff" points="167.22,-20.53 156.63,-20.03 164.6,-27.02 167.22,-20.53"/>
</g>
<!-- Node21&#45;&gt;Node8 -->
<g id="edge22" class="edge">
<title>Node21&#45;&gt;Node8</title>
<path fill="none" stroke="#63b8ff" d="M266.76,-60.12C255.46,-51.18 237.79,-37.22 224.08,-26.37"/>
<polygon fill="#63b8ff" stroke="#63b8ff" points="226.55,-23.86 216.53,-20.41 222.21,-29.35 226.55,-23.86"/>
</g>
<!-- Node21&#45;&gt;Node9 -->
<g id="edge25" class="edge">
<title>Node21&#45;&gt;Node9</title>
<path fill="none" stroke="#63b8ff" d="M299.11,-60.12C321.97,-50.49 358.7,-35.04 385.08,-23.93"/>
<polygon fill="#63b8ff" stroke="#63b8ff" points="386.44,-27.16 394.3,-20.06 383.72,-20.71 386.44,-27.16"/>
</g>
<!-- Node22 -->
<g id="node22" class="node">
<title>Node22</title>
<g id="a_node22"><a xlink:title=" ">
<polygon fill="#e0e0e0" stroke="#999999" points="365.5,-19 306.5,-19 306.5,0 365.5,0 365.5,-19"/>
<text text-anchor="middle" x="336" y="-7" font-family="Helvetica,sans-Serif" font-size="10.00">stdexcept</text>
</a>
</g>
</g>
<!-- Node21&#45;&gt;Node22 -->
<g id="edge23" class="edge">
<title>Node21&#45;&gt;Node22</title>
<path fill="none" stroke="#63b8ff" d="M286.56,-60.37C295.21,-51.64 308.8,-37.93 319.55,-27.09"/>
<polygon fill="#63b8ff" stroke="#63b8ff" points="321.79,-29.81 326.34,-20.24 316.81,-24.88 321.79,-29.81"/>
</g>
<!-- Node23 -->
<g id="node23" class="node">
<title>Node23</title>
<g id="a_node23"><a xlink:title=" ">
<polygon fill="#e0e0e0" stroke="#999999" points="288.5,-19 247.5,-19 247.5,0 288.5,0 288.5,-19"/>
<text text-anchor="middle" x="268" y="-7" font-family="Helvetica,sans-Serif" font-size="10.00">string</text>
</a>
</g>
</g>
<!-- Node21&#45;&gt;Node23 -->
<g id="edge24" class="edge">
<title>Node21&#45;&gt;Node23</title>
<path fill="none" stroke="#63b8ff" d="M276.52,-60.37C275.18,-52.5 273.14,-40.6 271.4,-30.39"/>
<polygon fill="#63b8ff" stroke="#63b8ff" points="274.87,-29.93 269.74,-20.66 267.97,-31.11 274.87,-29.93"/>
</g>
<!-- Node26&#45;&gt;Node4 -->
<g id="edge29" class="edge">
<title>Node26&#45;&gt;Node4</title>
<path fill="none" stroke="#63b8ff" d="M892.52,-175.75C890.65,-169.11 887.99,-159.73 885.61,-151.31"/>
<polygon fill="#63b8ff" stroke="#63b8ff" points="889.03,-150.57 882.94,-141.9 882.3,-152.47 889.03,-150.57"/>
</g>
</g>
</svg>
        <g id="navigator" transform="translate(0 0)" fill="#404254">
                <rect fill="#f2f5e9" fill-opacity="0.5" stroke="#606060" stroke-width=".5" x="0" y="0" width="60" height="60"/>
                <use id="zoomplus" xlink:href="#zoomPlus" x="17" y="9" onmousedown="handleZoom(evt,'in')"/>
                <use id="zoomminus" xlink:href="#zoomMin" x="42" y="9" onmousedown="handleZoom(evt,'out')"/>
                <use id="reset" xlink:href="#resetDef" x="30" y="36" onmousedown="handleReset()"/>
                <g id="arrowUp" xlink:href="#dirArrow" transform="translate(30 24)" onmousedown="handlePan(0,-1)">
                  <use xlink:href="#rim" fill="#404040">
                        <set attributeName="fill" to="#808080" begin="arrowUp.mouseover" end="arrowUp.mouseout"/>
                  </use>
                  <path fill="none" stroke="white" stroke-width="1.5" d="M0,-3.0v7 M-2.5,-0.5L0,-3.0L2.5,-0.5"/>
                </g>
                <g id="arrowRight" xlink:href="#dirArrow" transform="rotate(90) translate(36 -43)" onmousedown="handlePan(1,0)">
                  <use xlink:href="#rim" fill="#404040">
                        <set attributeName="fill" to="#808080" begin="arrowRight.mouseover" end="arrowRight.mouseout"/>
                  </use>
                  <path fill="none" stroke="white" stroke-width="1.5" d="M0,-3.0v7 M-2.5,-0.5L0,-3.0L2.5,-0.5"/>
                </g>
                <g id="arrowDown" xlink:href="#dirArrow" transform="rotate(180) translate(-30 -48)" onmousedown="handlePan(0,1)">
                  <use xlink:href="#rim" fill="#404040">
                        <set attributeName="fill" to="#808080" begin="arrowDown.mouseover" end="arrowDown.mouseout"/>
                  </use>
                  <path fill="none" stroke="white" stroke-width="1.5" d="M0,-3.0v7 M-2.5,-0.5L0,-3.0L2.5,-0.5"/>
                </g>
                <g id="arrowLeft" xlink:href="#dirArrow" transform="rotate(270) translate(-36 17)" onmousedown="handlePan(-1,0)">
                  <use xlink:href="#rim" fill="#404040">
                        <set attributeName="fill" to="#808080" begin="arrowLeft.mouseover" end="arrowLeft.mouseout"/>
                  </use>
                  <path fill="none" stroke="white" stroke-width="1.5" d="M0,-3.0v7 M-2.5,-0.5L0,-3.0L2.5,-0.5"/>
                </g>
        </g>
        <svg viewBox="0 0 15 15" width="100%" height="30px" preserveAspectRatio="xMaxYMin meet">
         <g id="arrow_out" transform="scale(0.3 0.3)">
          <a xlink:href="_uio_traffic_gen_8hpp__incl_org.svg" target="_base">
           <rect id="button" ry="5" rx="5" y="6" x="6" height="38" width="38"
                fill="#f2f5e9" fill-opacity="0.5" stroke="#606060" stroke-width="1.0"/>
           <path id="arrow"
             d="M 11.500037,31.436501 C 11.940474,20.09759 22.043105,11.32322 32.158766,21.979434 L 37.068811,17.246167 C 37.068811,17.246167 37.088388,32 37.088388,32 L 22.160133,31.978069 C 22.160133,31.978069 26.997745,27.140456 26.997745,27.140456 C 18.528582,18.264221 13.291696,25.230495 11.500037,31.436501 z"
             style="fill:#404040;"/>
          </a>
         </g>
        </svg>
</svg>
