<?xml version="1.0" encoding="UTF-8" standalone="no"?>
<!DOCTYPE svg PUBLIC "-//W3C//DTD SVG 1.1//EN"
 "http://www.w3.org/Graphics/SVG/1.1/DTD/svg11.dtd">
<!-- Generated by graphviz version 7.0.5 (20221223.1930)
 -->
<!-- Title: UioConfig.hpp Pages: 1 -->
<svg width="856pt" height="357pt"
 viewBox="0.00 0.00 856.00 357.00" xmlns="http://www.w3.org/2000/svg" xmlns:xlink="http://www.w3.org/1999/xlink">
<g id="graph0" class="graph" transform="scale(1 1) rotate(0) translate(4 353)">
<title>UioConfig.hpp</title>
<!-- Node1 -->
<g id="node1" class="node">
<title>Node1</title>
<g id="a_node1"><a xlink:title=" ">
<polygon fill="#999999" stroke="#666666" points="582.5,-349 505.5,-349 505.5,-330 582.5,-330 582.5,-349"/>
<text text-anchor="middle" x="544" y="-337" font-family="Helvetica,sans-Serif" font-size="10.00">UioConfig.hpp</text>
</a>
</g>
</g>
<!-- Node2 -->
<g id="node2" class="node">
<title>Node2</title>
<g id="a_node2"><a xlink:href="_dma_buffer_abstract_8hpp.html" target="_top" xlink:title=" ">
<polygon fill="white" stroke="#666666" points="648.5,-239 531.5,-239 531.5,-220 648.5,-220 648.5,-239"/>
<text text-anchor="middle" x="590" y="-227" font-family="Helvetica,sans-Serif" font-size="10.00">DmaBufferAbstract.hpp</text>
</a>
</g>
</g>
<!-- Node1&#45;&gt;Node2 -->
<g id="edge1" class="edge">
<title>Node1&#45;&gt;Node2</title>
<path fill="none" stroke="#63b8ff" d="M525.55,-321.71C513.64,-308.76 501.93,-290.51 511,-275 521.33,-257.33 541.54,-246.13 558.93,-239.39"/>
<polygon fill="#63b8ff" stroke="#63b8ff" points="522.95,-324.06 532.5,-328.65 527.9,-319.11 522.95,-324.06"/>
</g>
<!-- Node12 -->
<g id="node12" class="node">
<title>Node12</title>
<g id="a_node12"><a xlink:href="_uio_if_8hpp.html" target="_top" xlink:title=" ">
<polygon fill="white" stroke="#666666" points="366,-294 310,-294 310,-275 366,-275 366,-294"/>
<text text-anchor="middle" x="338" y="-282" font-family="Helvetica,sans-Serif" font-size="10.00">UioIf.hpp</text>
</a>
</g>
</g>
<!-- Node1&#45;&gt;Node12 -->
<g id="edge15" class="edge">
<title>Node1&#45;&gt;Node12</title>
<path fill="none" stroke="#63b8ff" d="M497.92,-326.64C457.64,-316.28 400.42,-301.56 366.47,-292.83"/>
<polygon fill="#63b8ff" stroke="#63b8ff" points="497.03,-330.03 507.59,-329.13 498.78,-323.25 497.03,-330.03"/>
</g>
<!-- Node18 -->
<g id="node18" class="node">
<title>Node18</title>
<g id="a_node18"><a xlink:href="_z7io_example_project_consts_8hpp.html" target="_top" xlink:title=" ">
<polygon fill="white" stroke="#666666" points="672,-294 520,-294 520,-275 672,-275 672,-294"/>
<text text-anchor="middle" x="596" y="-282" font-family="Helvetica,sans-Serif" font-size="10.00">Z7ioExampleProjectConsts.hpp</text>
</a>
</g>
</g>
<!-- Node1&#45;&gt;Node18 -->
<g id="edge29" class="edge">
<title>Node1&#45;&gt;Node18</title>
<path fill="none" stroke="#63b8ff" d="M560.41,-321.78C569.29,-312.72 579.91,-301.9 587.23,-294.44"/>
<polygon fill="#63b8ff" stroke="#63b8ff" points="558.15,-319.08 553.65,-328.67 563.15,-323.98 558.15,-319.08"/>
</g>
<!-- Node19 -->
<g id="node19" class="node">
<title>Node19</title>
<g id="a_node19"><a xlink:href="_zup_example_project_consts_8hpp.html" target="_top" xlink:title=" ">
<polygon fill="white" stroke="#666666" points="839.5,-294 690.5,-294 690.5,-275 839.5,-275 839.5,-294"/>
<text text-anchor="middle" x="765" y="-282" font-family="Helvetica,sans-Serif" font-size="10.00">ZupExampleProjectConsts.hpp</text>
</a>
</g>
</g>
<!-- Node1&#45;&gt;Node19 -->
<g id="edge30" class="edge">
<title>Node1&#45;&gt;Node19</title>
<path fill="none" stroke="#63b8ff" d="M592.5,-326.87C633.2,-317.11 690.5,-303.37 727.7,-294.45"/>
<polygon fill="#63b8ff" stroke="#63b8ff" points="591.87,-323.42 582.96,-329.16 593.5,-330.23 591.87,-323.42"/>
</g>
<!-- Node3 -->
<g id="node3" class="node">
<title>Node3</title>
<g id="a_node3"><a xlink:href="_fpga_mem_buffer_over_axi_8hpp.html" target="_top" xlink:title=" ">
<polygon fill="white" stroke="#666666" points="659,-184 521,-184 521,-165 659,-165 659,-184"/>
<text text-anchor="middle" x="590" y="-172" font-family="Helvetica,sans-Serif" font-size="10.00">FpgaMemBufferOverAxi.hpp</text>
</a>
</g>
</g>
<!-- Node2&#45;&gt;Node3 -->
<g id="edge2" class="edge">
<title>Node2&#45;&gt;Node3</title>
<path fill="none" stroke="#63b8ff" d="M590,-208.35C590,-200.1 590,-190.97 590,-184.44"/>
<polygon fill="#63b8ff" stroke="#63b8ff" points="586.5,-208.23 590,-218.23 593.5,-208.23 586.5,-208.23"/>
</g>
<!-- Node4 -->
<g id="node4" class="node">
<title>Node4</title>
<g id="a_node4"><a xlink:href="_fpga_mem_buffer_over_xdma_8hpp.html" target="_top" xlink:title=" ">
<polygon fill="white" stroke="#666666" points="848,-129 698,-129 698,-110 848,-110 848,-129"/>
<text text-anchor="middle" x="773" y="-117" font-family="Helvetica,sans-Serif" font-size="10.00">FpgaMemBufferOverXdma.hpp</text>
</a>
</g>
</g>
<!-- Node2&#45;&gt;Node4 -->
<g id="edge3" class="edge">
<title>Node2&#45;&gt;Node4</title>
<path fill="none" stroke="#63b8ff" d="M659.66,-218.72C701.73,-211.34 749.87,-199.77 764,-184 777.67,-168.74 776.34,-142.61 774.51,-129.12"/>
<polygon fill="#63b8ff" stroke="#63b8ff" points="659.32,-215.23 650.05,-220.35 660.49,-222.13 659.32,-215.23"/>
</g>
<!-- Node6 -->
<g id="node6" class="node">
<title>Node6</title>
<g id="a_node6"><a xlink:href="_u_dma_buf_8hpp.html" target="_top" xlink:title=" ">
<polygon fill="white" stroke="#666666" points="754.5,-184 677.5,-184 677.5,-165 754.5,-165 754.5,-184"/>
<text text-anchor="middle" x="716" y="-172" font-family="Helvetica,sans-Serif" font-size="10.00">UDmaBuf.hpp</text>
</a>
</g>
</g>
<!-- Node2&#45;&gt;Node6 -->
<g id="edge5" class="edge">
<title>Node2&#45;&gt;Node6</title>
<path fill="none" stroke="#63b8ff" d="M621.95,-215.06C644.84,-205.43 675.02,-192.74 694.94,-184.36"/>
<polygon fill="#63b8ff" stroke="#63b8ff" points="620.63,-211.82 612.77,-218.92 623.34,-218.27 620.63,-211.82"/>
</g>
<!-- Node11 -->
<g id="node11" class="node">
<title>Node11</title>
<g id="a_node11"><a xlink:href="_uio_mem_sgdma_8hpp.html" target="_top" xlink:title=" ">
<polygon fill="white" stroke="#666666" points="503,-184 401,-184 401,-165 503,-165 503,-184"/>
<text text-anchor="middle" x="452" y="-172" font-family="Helvetica,sans-Serif" font-size="10.00">UioMemSgdma.hpp</text>
</a>
</g>
</g>
<!-- Node2&#45;&gt;Node11 -->
<g id="edge12" class="edge">
<title>Node2&#45;&gt;Node11</title>
<path fill="none" stroke="#63b8ff" d="M556.03,-215.45C530.84,-205.78 497.18,-192.85 475.06,-184.36"/>
<polygon fill="#63b8ff" stroke="#63b8ff" points="554.59,-218.65 565.18,-218.97 557.1,-212.11 554.59,-218.65"/>
</g>
<!-- Node5 -->
<g id="node5" class="node">
<title>Node5</title>
<g id="a_node5"><a xlink:href="axi__dma__demo_8cpp.html" target="_top" xlink:title=" ">
<polygon fill="white" stroke="#666666" points="400,-19 300,-19 300,0 400,0 400,-19"/>
<text text-anchor="middle" x="350" y="-7" font-family="Helvetica,sans-Serif" font-size="10.00">axi_dma_demo.cpp</text>
</a>
</g>
</g>
<!-- Node4&#45;&gt;Node5 -->
<g id="edge4" class="edge">
<title>Node4&#45;&gt;Node5</title>
<path fill="none" stroke="#63b8ff" d="M754.85,-102.45C736.9,-87.55 707.99,-66.05 679,-55 629.18,-36.01 479.55,-21.22 400.39,-14.49"/>
<polygon fill="#63b8ff" stroke="#63b8ff" points="752.14,-104.75 762.02,-108.57 756.68,-99.42 752.14,-104.75"/>
</g>
<!-- Node6&#45;&gt;Node5 -->
<g id="edge11" class="edge">
<title>Node6&#45;&gt;Node5</title>
<path fill="none" stroke="#63b8ff" d="M704.84,-155.11C684.66,-121.84 644.15,-55.1 644,-55 605.01,-29.03 473.52,-17.52 400.3,-13.02"/>
<polygon fill="#63b8ff" stroke="#63b8ff" points="701.64,-156.57 709.82,-163.31 707.62,-152.94 701.64,-156.57"/>
</g>
<!-- Node7 -->
<g id="node7" class="node">
<title>Node7</title>
<g id="a_node7"><a xlink:href="_data_handler_abstract_8hpp.html" target="_top" xlink:title=" ">
<polygon fill="white" stroke="#666666" points="522.5,-129 397.5,-129 397.5,-110 522.5,-110 522.5,-129"/>
<text text-anchor="middle" x="460" y="-117" font-family="Helvetica,sans-Serif" font-size="10.00">DataHandlerAbstract.hpp</text>
</a>
</g>
</g>
<!-- Node6&#45;&gt;Node7 -->
<g id="edge6" class="edge">
<title>Node6&#45;&gt;Node7</title>
<path fill="none" stroke="#63b8ff" d="M665.89,-163.13C618.48,-153.31 548.06,-138.73 503.1,-129.42"/>
<polygon fill="#63b8ff" stroke="#63b8ff" points="665.14,-166.54 675.64,-165.14 666.55,-159.69 665.14,-166.54"/>
</g>
<!-- Node8 -->
<g id="node8" class="node">
<title>Node8</title>
<g id="a_node8"><a xlink:href="_data_handler_print_8hpp.html" target="_top" xlink:title=" ">
<polygon fill="white" stroke="#666666" points="634.5,-74 525.5,-74 525.5,-55 634.5,-55 634.5,-74"/>
<text text-anchor="middle" x="580" y="-62" font-family="Helvetica,sans-Serif" font-size="10.00">DataHandlerPrint.hpp</text>
</a>
</g>
</g>
<!-- Node7&#45;&gt;Node8 -->
<g id="edge7" class="edge">
<title>Node7&#45;&gt;Node8</title>
<path fill="none" stroke="#63b8ff" d="M490.72,-104.93C512.49,-95.32 541.05,-82.7 559.94,-74.36"/>
<polygon fill="#63b8ff" stroke="#63b8ff" points="489.47,-101.66 481.74,-108.9 492.3,-108.06 489.47,-101.66"/>
</g>
<!-- Node10 -->
<g id="node10" class="node">
<title>Node10</title>
<g id="a_node10"><a xlink:href="_data_handler_sync_8hpp.html" target="_top" xlink:title=" ">
<polygon fill="white" stroke="#666666" points="507,-74 397,-74 397,-55 507,-55 507,-74"/>
<text text-anchor="middle" x="452" y="-62" font-family="Helvetica,sans-Serif" font-size="10.00">DataHandlerSync.hpp</text>
</a>
</g>
</g>
<!-- Node7&#45;&gt;Node10 -->
<g id="edge10" class="edge">
<title>Node7&#45;&gt;Node10</title>
<path fill="none" stroke="#63b8ff" d="M457,-98.64C455.75,-90.31 454.35,-81.05 453.35,-74.44"/>
<polygon fill="#63b8ff" stroke="#63b8ff" points="453.5,-98.89 458.45,-108.25 460.42,-97.84 453.5,-98.89"/>
</g>
<!-- Node8&#45;&gt;Node5 -->
<g id="edge9" class="edge">
<title>Node8&#45;&gt;Node5</title>
<path fill="none" stroke="#63b8ff" d="M529.8,-51.93C487.42,-42.17 427.61,-28.38 388.82,-19.45"/>
<polygon fill="#63b8ff" stroke="#63b8ff" points="528.98,-55.33 539.51,-54.17 530.55,-48.51 528.98,-55.33"/>
</g>
<!-- Node9 -->
<g id="node9" class="node">
<title>Node9</title>
<g id="a_node9"><a xlink:href="_data_handler_print_8cpp.html" target="_top" xlink:title=" ">
<polygon fill="white" stroke="#666666" points="634.5,-19 525.5,-19 525.5,0 634.5,0 634.5,-19"/>
<text text-anchor="middle" x="580" y="-7" font-family="Helvetica,sans-Serif" font-size="10.00">DataHandlerPrint.cpp</text>
</a>
</g>
</g>
<!-- Node8&#45;&gt;Node9 -->
<g id="edge8" class="edge">
<title>Node8&#45;&gt;Node9</title>
<path fill="none" stroke="#63b8ff" d="M580,-43.35C580,-35.1 580,-25.97 580,-19.44"/>
<polygon fill="#63b8ff" stroke="#63b8ff" points="576.5,-43.23 580,-53.23 583.5,-43.23 576.5,-43.23"/>
</g>
<!-- Node11&#45;&gt;Node5 -->
<g id="edge14" class="edge">
<title>Node11&#45;&gt;Node5</title>
<path fill="none" stroke="#63b8ff" d="M423.75,-158.95C411.58,-151.45 398.08,-141.28 389,-129 362.98,-93.83 353.74,-40.38 351,-19.4"/>
<polygon fill="#63b8ff" stroke="#63b8ff" points="421.82,-161.88 432.23,-163.86 425.33,-155.82 421.82,-161.88"/>
</g>
<!-- Node11&#45;&gt;Node7 -->
<g id="edge13" class="edge">
<title>Node11&#45;&gt;Node7</title>
<path fill="none" stroke="#63b8ff" d="M455,-153.64C456.25,-145.31 457.65,-136.05 458.65,-129.44"/>
<polygon fill="#63b8ff" stroke="#63b8ff" points="451.58,-152.84 453.55,-163.25 458.5,-153.89 451.58,-152.84"/>
</g>
<!-- Node12&#45;&gt;Node3 -->
<g id="edge16" class="edge">
<title>Node12&#45;&gt;Node3</title>
<path fill="none" stroke="#63b8ff" d="M368.9,-270.26C420.94,-247.95 524.72,-203.48 569.09,-184.46"/>
<polygon fill="#63b8ff" stroke="#63b8ff" points="367.83,-266.91 360.01,-274.07 370.58,-273.34 367.83,-266.91"/>
</g>
<!-- Node12&#45;&gt;Node5 -->
<g id="edge28" class="edge">
<title>Node12&#45;&gt;Node5</title>
<path fill="none" stroke="#63b8ff" d="M322.3,-266.06C304.04,-243.65 277.31,-203.1 285,-165 296.8,-106.52 331.38,-42.63 344.69,-19.49"/>
<polygon fill="#63b8ff" stroke="#63b8ff" points="319.58,-268.26 328.73,-273.59 324.9,-263.71 319.58,-268.26"/>
</g>
<!-- Node13 -->
<g id="node13" class="node">
<title>Node13</title>
<g id="a_node13"><a xlink:href="_reg_accessor_8hpp.html" target="_top" xlink:title=" ">
<polygon fill="white" stroke="#666666" points="236.5,-239 143.5,-239 143.5,-220 236.5,-220 236.5,-239"/>
<text text-anchor="middle" x="190" y="-227" font-family="Helvetica,sans-Serif" font-size="10.00">RegAccessor.hpp</text>
</a>
</g>
</g>
<!-- Node12&#45;&gt;Node13 -->
<g id="edge17" class="edge">
<title>Node12&#45;&gt;Node13</title>
<path fill="none" stroke="#63b8ff" d="M302.29,-270.71C275.21,-261.01 238.67,-247.93 214.74,-239.36"/>
<polygon fill="#63b8ff" stroke="#63b8ff" points="300.87,-273.92 311.47,-274 303.23,-267.33 300.87,-273.92"/>
</g>
<!-- Node14 -->
<g id="node14" class="node">
<title>Node14</title>
<g id="a_node14"><a xlink:href="_uio_axi_dma_if_8hpp.html" target="_top" xlink:title=" ">
<polygon fill="white" stroke="#666666" points="382.5,-184 293.5,-184 293.5,-165 382.5,-165 382.5,-184"/>
<text text-anchor="middle" x="338" y="-172" font-family="Helvetica,sans-Serif" font-size="10.00">UioAxiDmaIf.hpp</text>
</a>
</g>
</g>
<!-- Node12&#45;&gt;Node14 -->
<g id="edge27" class="edge">
<title>Node12&#45;&gt;Node14</title>
<path fill="none" stroke="#63b8ff" d="M338,-263.24C338,-239.63 338,-201.65 338,-184.46"/>
<polygon fill="#63b8ff" stroke="#63b8ff" points="334.5,-263.15 338,-273.15 341.5,-263.15 334.5,-263.15"/>
</g>
<!-- Node13&#45;&gt;Node11 -->
<g id="edge23" class="edge">
<title>Node13&#45;&gt;Node11</title>
<path fill="none" stroke="#63b8ff" d="M245.65,-217.24C294.01,-207.46 363.12,-193.48 407.78,-184.45"/>
<polygon fill="#63b8ff" stroke="#63b8ff" points="245.04,-213.8 235.93,-219.21 246.42,-220.66 245.04,-213.8"/>
</g>
<!-- Node13&#45;&gt;Node14 -->
<g id="edge18" class="edge">
<title>Node13&#45;&gt;Node14</title>
<path fill="none" stroke="#63b8ff" d="M225.71,-215.71C252.79,-206.01 289.33,-192.93 313.26,-184.36"/>
<polygon fill="#63b8ff" stroke="#63b8ff" points="224.77,-212.33 216.53,-219 227.13,-218.92 224.77,-212.33"/>
</g>
<!-- Node15 -->
<g id="node15" class="node">
<title>Node15</title>
<g id="a_node15"><a xlink:href="_uio_gpio_status_8hpp.html" target="_top" xlink:title=" ">
<polygon fill="white" stroke="#666666" points="98,-74 0,-74 0,-55 98,-55 98,-74"/>
<text text-anchor="middle" x="49" y="-62" font-family="Helvetica,sans-Serif" font-size="10.00">UioGpioStatus.hpp</text>
</a>
</g>
</g>
<!-- Node13&#45;&gt;Node15 -->
<g id="edge21" class="edge">
<title>Node13&#45;&gt;Node15</title>
<path fill="none" stroke="#63b8ff" d="M167.51,-212.88C156.77,-204.88 144.1,-194.6 134,-184 98.91,-147.14 66.52,-95.11 54.23,-74.45"/>
<polygon fill="#63b8ff" stroke="#63b8ff" points="165.32,-215.62 175.47,-218.65 169.42,-209.95 165.32,-215.62"/>
</g>
<!-- Node16 -->
<g id="node16" class="node">
<title>Node16</title>
<g id="a_node16"><a xlink:href="_uio_traffic_gen_8hpp.html" target="_top" xlink:title=" ">
<polygon fill="white" stroke="#666666" points="237,-184 143,-184 143,-165 237,-165 237,-184"/>
<text text-anchor="middle" x="190" y="-172" font-family="Helvetica,sans-Serif" font-size="10.00">UioTrafficGen.hpp</text>
</a>
</g>
</g>
<!-- Node13&#45;&gt;Node16 -->
<g id="edge24" class="edge">
<title>Node13&#45;&gt;Node16</title>
<path fill="none" stroke="#63b8ff" d="M190,-208.35C190,-200.1 190,-190.97 190,-184.44"/>
<polygon fill="#63b8ff" stroke="#63b8ff" points="186.5,-208.23 190,-218.23 193.5,-208.23 186.5,-208.23"/>
</g>
<!-- Node14&#45;&gt;Node5 -->
<g id="edge20" class="edge">
<title>Node14&#45;&gt;Node5</title>
<path fill="none" stroke="#63b8ff" d="M339.48,-153.44C342.11,-117.74 347.49,-44.57 349.35,-19.31"/>
<polygon fill="#63b8ff" stroke="#63b8ff" points="336,-153 338.76,-163.23 342.98,-153.51 336,-153"/>
</g>
<!-- Node14&#45;&gt;Node7 -->
<g id="edge19" class="edge">
<title>Node14&#45;&gt;Node7</title>
<path fill="none" stroke="#63b8ff" d="M369.24,-159.93C391.36,-150.32 420.41,-137.7 439.61,-129.36"/>
<polygon fill="#63b8ff" stroke="#63b8ff" points="367.86,-156.71 360.08,-163.91 370.65,-163.13 367.86,-156.71"/>
</g>
<!-- Node15&#45;&gt;Node5 -->
<g id="edge22" class="edge">
<title>Node15&#45;&gt;Node5</title>
<path fill="none" stroke="#63b8ff" d="M109.51,-52.84C165.33,-43.02 247.25,-28.59 299.6,-19.37"/>
<polygon fill="#63b8ff" stroke="#63b8ff" points="109.1,-49.36 99.86,-54.54 110.31,-56.26 109.1,-49.36"/>
</g>
<!-- Node16&#45;&gt;Node5 -->
<g id="edge26" class="edge">
<title>Node16&#45;&gt;Node5</title>
<path fill="none" stroke="#63b8ff" d="M166.78,-157.96C150.89,-145.3 134.45,-126.85 145,-110 178.7,-56.19 250.72,-30.74 299.77,-19.24"/>
<polygon fill="#63b8ff" stroke="#63b8ff" points="164.53,-160.64 174.65,-163.78 168.69,-155.02 164.53,-160.64"/>
</g>
<!-- Node17 -->
<g id="node17" class="node">
<title>Node17</title>
<g id="a_node17"><a xlink:href="_uio_traffic_gen_8cpp.html" target="_top" xlink:title=" ">
<polygon fill="white" stroke="#666666" points="248,-129 154,-129 154,-110 248,-110 248,-129"/>
<text text-anchor="middle" x="201" y="-117" font-family="Helvetica,sans-Serif" font-size="10.00">UioTrafficGen.cpp</text>
</a>
</g>
</g>
<!-- Node16&#45;&gt;Node17 -->
<g id="edge25" class="edge">
<title>Node16&#45;&gt;Node17</title>
<path fill="none" stroke="#63b8ff" d="M194.12,-153.64C195.85,-145.31 197.77,-136.05 199.14,-129.44"/>
<polygon fill="#63b8ff" stroke="#63b8ff" points="190.73,-152.76 192.12,-163.27 197.58,-154.19 190.73,-152.76"/>
</g>
</g>
</svg>
