<?xml version="1.0" encoding="UTF-8" standalone="no"?>
<!DOCTYPE svg PUBLIC "-//W3C//DTD SVG 1.1//EN"
 "http://www.w3.org/Graphics/SVG/1.1/DTD/svg11.dtd">
<!-- Generated by graphviz version 7.0.5 (20221223.1930)
 -->
<!-- Title: UioTrafficGen.cpp Pages: 1 -->
<!--zoomable 313 -->
<svg id="main" version="1.1" xmlns="http://www.w3.org/2000/svg" xmlns:xlink="http://www.w3.org/1999/xlink" xml:space="preserve" onload="init(evt)">
<style type="text/css"><![CDATA[
.edge:hover path { stroke: red; }
.edge:hover polygon { stroke: red; fill: red; }
]]></style>
<script type="text/javascript"><![CDATA[
var edges = document.getElementsByTagName('g');
if (edges && edges.length) {
  for (var i=0;i<edges.length;i++) {
    if (edges[i].id.substr(0,4)=='edge') {
      edges[i].setAttribute('class','edge');
    }
  }
}
]]></script>
        <defs>
                <circle id="rim" cx="0" cy="0" r="7"/>
                <circle id="rim2" cx="0" cy="0" r="3.5"/>
                <g id="zoomPlus">
                        <use xlink:href="#rim" fill="#404040">
                                <set attributeName="fill" to="#808080" begin="zoomplus.mouseover" end="zoomplus.mouseout"/>
                        </use>
                        <path d="M-4,0h8M0,-4v8" fill="none" stroke="white" stroke-width="1.5" pointer-events="none"/>
                </g>
                <g id="zoomMin">
                        <use xlink:href="#rim" fill="#404040">
                                <set attributeName="fill" to="#808080" begin="zoomminus.mouseover" end="zoomminus.mouseout"/>
                        </use>
                        <path d="M-4,0h8" fill="none" stroke="white" stroke-width="1.5" pointer-events="none"/>
                </g>
                <g id="dirArrow">
                        <path fill="none" stroke="white" stroke-width="1.5" d="M0,-3.0v7 M-2.5,-0.5L0,-3.0L2.5,-0.5"/>
                </g>
               <g id="resetDef">
                       <use xlink:href="#rim2" fill="#404040">
                               <set attributeName="fill" to="#808080" begin="reset.mouseover" end="reset.mouseout"/>
                       </use>
               </g>
        </defs>

<script type="text/javascript">
var viewWidth = 1884;
var viewHeight = 313;
var sectionId = 'dynsection-0';
</script>
<script xlink:href="svgpan.js"/>
<svg id="graph" class="graph">
<g id="viewport">
<title>UioTrafficGen.cpp</title>
<!-- Node1 -->
<g id="node1" class="node">
<title>Node1</title>
<g id="a_node1"><a xlink:title=" ">
<polygon fill="#999999" stroke="#666666" points="1411,-305 1317,-305 1317,-286 1411,-286 1411,-305"/>
<text text-anchor="middle" x="1364" y="-293" font-family="Helvetica,sans-Serif" font-size="10.00">UioTrafficGen.cpp</text>
</a>
</g>
</g>
<!-- Node2 -->
<g id="node2" class="node">
<title>Node2</title>
<g id="a_node2"><a xlink:href="_uio_traffic_gen_8hpp.html" target="_top" xlink:title=" ">
<polygon fill="white" stroke="#666666" points="811,-250 717,-250 717,-231 811,-231 811,-250"/>
<text text-anchor="middle" x="764" y="-238" font-family="Helvetica,sans-Serif" font-size="10.00">UioTrafficGen.hpp</text>
</a>
</g>
</g>
<!-- Node1&#45;&gt;Node2 -->
<g id="edge1" class="edge">
<title>Node1&#45;&gt;Node2</title>
<path fill="none" stroke="#63b8ff" d="M1316.71,-291.01C1224.41,-284.09 1013.78,-267.75 837,-250 832.36,-249.53 827.55,-249.03 822.73,-248.5"/>
<polygon fill="#63b8ff" stroke="#63b8ff" points="823.32,-245.05 812.99,-247.42 822.55,-252 823.32,-245.05"/>
</g>
<!-- Node12 -->
<g id="node12" class="node">
<title>Node12</title>
<g id="a_node12"><a xlink:title=" ">
<polygon fill="#e0e0e0" stroke="#999999" points="118,-79.5 0,-79.5 0,-60.5 118,-60.5 118,-79.5"/>
<text text-anchor="middle" x="59" y="-67.5" font-family="Helvetica,sans-Serif" font-size="10.00">boost/log/core/core.hpp</text>
</a>
</g>
</g>
<!-- Node1&#45;&gt;Node12 -->
<g id="edge30" class="edge">
<title>Node1&#45;&gt;Node12</title>
<path fill="none" stroke="#63b8ff" d="M1337.25,-285.58C1238.88,-252.92 896.99,-140.71 784,-121 495.91,-70.75 417.01,-122.59 127,-85 121.02,-84.23 114.79,-83.22 108.62,-82.1"/>
<polygon fill="#63b8ff" stroke="#63b8ff" points="109.64,-78.73 99.16,-80.28 108.31,-85.61 109.64,-78.73"/>
</g>
<!-- Node15 -->
<g id="node15" class="node">
<title>Node15</title>
<g id="a_node15"><a xlink:title=" ">
<polygon fill="#e0e0e0" stroke="#999999" points="1756.5,-79.5 1615.5,-79.5 1615.5,-60.5 1756.5,-60.5 1756.5,-79.5"/>
<text text-anchor="middle" x="1686" y="-67.5" font-family="Helvetica,sans-Serif" font-size="10.00">boost/log/sources/logger.hpp</text>
</a>
</g>
</g>
<!-- Node1&#45;&gt;Node15 -->
<g id="edge31" class="edge">
<title>Node1&#45;&gt;Node15</title>
<path fill="none" stroke="#63b8ff" d="M1362.06,-285.78C1356.32,-257.53 1342.58,-167.6 1388,-121 1422.43,-85.68 1558.38,-93.3 1607,-85 1612.69,-84.03 1618.61,-83 1624.53,-81.97"/>
<polygon fill="#63b8ff" stroke="#63b8ff" points="1625.13,-85.42 1634.38,-80.24 1623.92,-78.52 1625.13,-85.42"/>
</g>
<!-- Node16 -->
<g id="node16" class="node">
<title>Node16</title>
<g id="a_node16"><a xlink:title=" ">
<polygon fill="#e0e0e0" stroke="#999999" points="1875.5,-79.5 1774.5,-79.5 1774.5,-60.5 1875.5,-60.5 1875.5,-79.5"/>
<text text-anchor="middle" x="1825" y="-67.5" font-family="Helvetica,sans-Serif" font-size="10.00">boost/log/trivial.hpp</text>
</a>
</g>
</g>
<!-- Node1&#45;&gt;Node16 -->
<g id="edge32" class="edge">
<title>Node1&#45;&gt;Node16</title>
<path fill="none" stroke="#63b8ff" d="M1369.99,-285.51C1379.4,-272 1398.87,-246.41 1421,-231 1535.57,-151.24 1695.59,-103.19 1775.5,-82.68"/>
<polygon fill="#63b8ff" stroke="#63b8ff" points="1775.93,-86.18 1784.76,-80.34 1774.21,-79.39 1775.93,-86.18"/>
</g>
<!-- Node27 -->
<g id="node27" class="node">
<title>Node27</title>
<g id="a_node27"><a xlink:title=" ">
<polygon fill="#e0e0e0" stroke="#999999" points="1459.5,-250 1430.5,-250 1430.5,-231 1459.5,-231 1459.5,-250"/>
<text text-anchor="middle" x="1445" y="-238" font-family="Helvetica,sans-Serif" font-size="10.00">ios</text>
</a>
</g>
</g>
<!-- Node1&#45;&gt;Node27 -->
<g id="edge29" class="edge">
<title>Node1&#45;&gt;Node27</title>
<path fill="none" stroke="#63b8ff" d="M1377.74,-285.51C1389.8,-277.62 1407.59,-265.98 1421.84,-256.65"/>
<polygon fill="#63b8ff" stroke="#63b8ff" points="1423.74,-259.59 1430.2,-251.19 1419.91,-253.73 1423.74,-259.59"/>
</g>
<!-- Node3 -->
<g id="node3" class="node">
<title>Node3</title>
<g id="a_node3"><a xlink:href="_reg_accessor_8hpp.html" target="_top" xlink:title=" ">
<polygon fill="white" stroke="#666666" points="822.5,-195 681.5,-195 681.5,-176 822.5,-176 822.5,-195"/>
<text text-anchor="middle" x="752" y="-183" font-family="Helvetica,sans-Serif" font-size="10.00">udmaio/rdl/RegAccessor.hpp</text>
</a>
</g>
</g>
<!-- Node2&#45;&gt;Node3 -->
<g id="edge2" class="edge">
<title>Node2&#45;&gt;Node3</title>
<path fill="none" stroke="#63b8ff" d="M762.02,-230.75C760.53,-224.19 758.44,-214.95 756.55,-206.6"/>
<polygon fill="#63b8ff" stroke="#63b8ff" points="759.98,-205.9 754.36,-196.92 753.15,-207.44 759.98,-205.9"/>
</g>
<!-- Node4 -->
<g id="node4" class="node">
<title>Node4</title>
<g id="a_node4"><a xlink:title=" ">
<polygon fill="#e0e0e0" stroke="#999999" points="775,-140 729,-140 729,-121 775,-121 775,-140"/>
<text text-anchor="middle" x="752" y="-128" font-family="Helvetica,sans-Serif" font-size="10.00">cstdint</text>
</a>
</g>
</g>
<!-- Node3&#45;&gt;Node4 -->
<g id="edge3" class="edge">
<title>Node3&#45;&gt;Node4</title>
<path fill="none" stroke="#63b8ff" d="M752,-175.75C752,-169.27 752,-160.16 752,-151.9"/>
<polygon fill="#63b8ff" stroke="#63b8ff" points="755.5,-151.96 752,-141.96 748.5,-151.96 755.5,-151.96"/>
</g>
<!-- Node5 -->
<g id="node5" class="node">
<title>Node5</title>
<g id="a_node5"><a xlink:href="_uio_if_8hpp.html" target="_top" xlink:title=" ">
<polygon fill="white" stroke="#666666" points="969,-140 879,-140 879,-121 969,-121 969,-140"/>
<text text-anchor="middle" x="924" y="-128" font-family="Helvetica,sans-Serif" font-size="10.00">udmaio/UioIf.hpp</text>
</a>
</g>
</g>
<!-- Node3&#45;&gt;Node5 -->
<g id="edge4" class="edge">
<title>Node3&#45;&gt;Node5</title>
<path fill="none" stroke="#63b8ff" d="M781.18,-175.51C809.56,-166.76 852.88,-153.42 884.37,-143.71"/>
<polygon fill="#63b8ff" stroke="#63b8ff" points="884.99,-147.18 893.52,-140.89 882.93,-140.49 884.99,-147.18"/>
</g>
<!-- Node6 -->
<g id="node6" class="node">
<title>Node6</title>
<g id="a_node6"><a xlink:title=" ">
<polygon fill="#e0e0e0" stroke="#999999" points="196,-79.5 136,-79.5 136,-60.5 196,-60.5 196,-79.5"/>
<text text-anchor="middle" x="166" y="-67.5" font-family="Helvetica,sans-Serif" font-size="10.00">filesystem</text>
</a>
</g>
</g>
<!-- Node5&#45;&gt;Node6 -->
<g id="edge5" class="edge">
<title>Node5&#45;&gt;Node6</title>
<path fill="none" stroke="#63b8ff" d="M878.63,-122.55C874.03,-121.97 869.43,-121.44 865,-121 572.66,-92.03 492.94,-143.24 205,-85 202.83,-84.56 200.62,-84.03 198.41,-83.42"/>
<polygon fill="#63b8ff" stroke="#63b8ff" points="199.58,-80.12 188.99,-80.45 197.47,-86.8 199.58,-80.12"/>
</g>
<!-- Node7 -->
<g id="node7" class="node">
<title>Node7</title>
<g id="a_node7"><a xlink:title=" ">
<polygon fill="#e0e0e0" stroke="#999999" points="264,-79.5 214,-79.5 214,-60.5 264,-60.5 264,-79.5"/>
<text text-anchor="middle" x="239" y="-67.5" font-family="Helvetica,sans-Serif" font-size="10.00">fstream</text>
</a>
</g>
</g>
<!-- Node5&#45;&gt;Node7 -->
<g id="edge6" class="edge">
<title>Node5&#45;&gt;Node7</title>
<path fill="none" stroke="#63b8ff" d="M878.63,-122.58C874.03,-122 869.43,-121.45 865,-121 604.98,-94.34 534.01,-137.68 278,-85 275.83,-84.55 273.62,-84.01 271.41,-83.41"/>
<polygon fill="#63b8ff" stroke="#63b8ff" points="272.58,-80.11 261.99,-80.42 270.47,-86.78 272.58,-80.11"/>
</g>
<!-- Node8 -->
<g id="node8" class="node">
<title>Node8</title>
<g id="a_node8"><a xlink:title=" ">
<polygon fill="#e0e0e0" stroke="#999999" points="291,-19 237,-19 237,0 291,0 291,-19"/>
<text text-anchor="middle" x="264" y="-7" font-family="Helvetica,sans-Serif" font-size="10.00">iostream</text>
</a>
</g>
</g>
<!-- Node5&#45;&gt;Node8 -->
<g id="edge7" class="edge">
<title>Node5&#45;&gt;Node8</title>
<path fill="none" stroke="#63b8ff" d="M878.63,-122.61C874.03,-122.02 869.43,-121.47 865,-121 746.72,-108.51 437.95,-137.04 331,-85 306.01,-72.84 286.12,-46.85 274.69,-29.02"/>
<polygon fill="#63b8ff" stroke="#63b8ff" points="277.82,-27.41 269.62,-20.69 271.84,-31.05 277.82,-27.41"/>
</g>
<!-- Node9 -->
<g id="node9" class="node">
<title>Node9</title>
<g id="a_node9"><a xlink:title=" ">
<polygon fill="#e0e0e0" stroke="#999999" points="360.5,-19 309.5,-19 309.5,0 360.5,0 360.5,-19"/>
<text text-anchor="middle" x="335" y="-7" font-family="Helvetica,sans-Serif" font-size="10.00">memory</text>
</a>
</g>
</g>
<!-- Node5&#45;&gt;Node9 -->
<g id="edge8" class="edge">
<title>Node5&#45;&gt;Node9</title>
<path fill="none" stroke="#63b8ff" d="M878.62,-122.62C874.03,-122.03 869.42,-121.47 865,-121 807.85,-114.9 391.93,-123.21 349,-85 334.04,-71.69 331.92,-47.88 332.66,-30.76"/>
<polygon fill="#63b8ff" stroke="#63b8ff" points="336.13,-31.25 333.46,-21 329.15,-30.67 336.13,-31.25"/>
</g>
<!-- Node10 -->
<g id="node10" class="node">
<title>Node10</title>
<g id="a_node10"><a xlink:title=" ">
<polygon fill="#e0e0e0" stroke="#999999" points="581,-19 515,-19 515,0 581,0 581,-19"/>
<text text-anchor="middle" x="548" y="-7" font-family="Helvetica,sans-Serif" font-size="10.00">string_view</text>
</a>
</g>
</g>
<!-- Node5&#45;&gt;Node10 -->
<g id="edge9" class="edge">
<title>Node5&#45;&gt;Node10</title>
<path fill="none" stroke="#63b8ff" d="M878.61,-122.77C874.01,-122.15 869.42,-121.55 865,-121 826.42,-116.23 543.03,-113.87 517,-85 502.12,-68.5 517.58,-43.84 531.5,-27.47"/>
<polygon fill="#63b8ff" stroke="#63b8ff" points="533.73,-30.22 537.85,-20.46 528.54,-25.52 533.73,-30.22"/>
</g>
<!-- Node11 -->
<g id="node11" class="node">
<title>Node11</title>
<g id="a_node11"><a xlink:title=" ">
<polygon fill="#e0e0e0" stroke="#999999" points="663.5,-79.5 526.5,-79.5 526.5,-60.5 663.5,-60.5 663.5,-79.5"/>
<text text-anchor="middle" x="595" y="-67.5" font-family="Helvetica,sans-Serif" font-size="10.00">boost/core/noncopyable.hpp</text>
</a>
</g>
</g>
<!-- Node5&#45;&gt;Node11 -->
<g id="edge10" class="edge">
<title>Node5&#45;&gt;Node11</title>
<path fill="none" stroke="#63b8ff" d="M878.92,-121.61C828.49,-112.77 744.37,-97.97 672,-85 666.68,-84.05 661.15,-83.05 655.61,-82.05"/>
<polygon fill="#63b8ff" stroke="#63b8ff" points="656.24,-78.61 645.77,-80.27 654.99,-85.49 656.24,-78.61"/>
</g>
<!-- Node5&#45;&gt;Node12 -->
<g id="edge11" class="edge">
<title>Node5&#45;&gt;Node12</title>
<path fill="none" stroke="#63b8ff" d="M878.63,-122.52C874.04,-121.95 869.43,-121.43 865,-121 538.12,-89.55 452.79,-126.23 127,-85 120.95,-84.23 114.63,-83.22 108.39,-82.09"/>
<polygon fill="#63b8ff" stroke="#63b8ff" points="109.27,-78.7 98.79,-80.25 107.95,-85.58 109.27,-78.7"/>
</g>
<!-- Node13 -->
<g id="node13" class="node">
<title>Node13</title>
<g id="a_node13"><a xlink:title=" ">
<polygon fill="#e0e0e0" stroke="#999999" points="810.5,-79.5 681.5,-79.5 681.5,-60.5 810.5,-60.5 810.5,-79.5"/>
<text text-anchor="middle" x="746" y="-67.5" font-family="Helvetica,sans-Serif" font-size="10.00">boost/log/expressions.hpp</text>
</a>
</g>
</g>
<!-- Node5&#45;&gt;Node13 -->
<g id="edge12" class="edge">
<title>Node5&#45;&gt;Node13</title>
<path fill="none" stroke="#63b8ff" d="M896.97,-120.62C866.91,-110.74 818.13,-94.71 784.18,-83.55"/>
<polygon fill="#63b8ff" stroke="#63b8ff" points="785.32,-80.24 774.73,-80.44 783.13,-86.89 785.32,-80.24"/>
</g>
<!-- Node14 -->
<g id="node14" class="node">
<title>Node14</title>
<g id="a_node14"><a xlink:title=" ">
<polygon fill="#e0e0e0" stroke="#999999" points="929.5,-85 828.5,-85 828.5,-55 929.5,-55 929.5,-85"/>
<text text-anchor="start" x="836.5" y="-73" font-family="Helvetica,sans-Serif" font-size="10.00">boost/log/keywords</text>
<text text-anchor="middle" x="879" y="-62" font-family="Helvetica,sans-Serif" font-size="10.00">/severity.hpp</text>
</a>
</g>
</g>
<!-- Node5&#45;&gt;Node14 -->
<g id="edge13" class="edge">
<title>Node5&#45;&gt;Node14</title>
<path fill="none" stroke="#63b8ff" d="M917.36,-120.87C911.93,-113.81 904,-103.5 896.75,-94.08"/>
<polygon fill="#63b8ff" stroke="#63b8ff" points="899.65,-92.11 890.78,-86.31 894.1,-96.37 899.65,-92.11"/>
</g>
<!-- Node5&#45;&gt;Node15 -->
<g id="edge14" class="edge">
<title>Node5&#45;&gt;Node15</title>
<path fill="none" stroke="#63b8ff" d="M969.31,-128.28C1079.08,-124.93 1367.82,-113.9 1607,-85 1614.25,-84.12 1621.85,-83.02 1629.35,-81.82"/>
<polygon fill="#63b8ff" stroke="#63b8ff" points="1629.82,-85.29 1639.1,-80.18 1628.66,-78.38 1629.82,-85.29"/>
</g>
<!-- Node5&#45;&gt;Node16 -->
<g id="edge15" class="edge">
<title>Node5&#45;&gt;Node16</title>
<path fill="none" stroke="#63b8ff" d="M969.46,-129.96C1096.25,-130.64 1464.26,-128.41 1766,-85 1770.88,-84.3 1775.95,-83.38 1780.97,-82.36"/>
<polygon fill="#63b8ff" stroke="#63b8ff" points="1781.32,-85.87 1790.34,-80.3 1779.82,-79.03 1781.32,-85.87"/>
</g>
<!-- Node17 -->
<g id="node17" class="node">
<title>Node17</title>
<g id="a_node17"><a xlink:title=" ">
<polygon fill="#e0e0e0" stroke="#999999" points="990.5,-79.5 947.5,-79.5 947.5,-60.5 990.5,-60.5 990.5,-79.5"/>
<text text-anchor="middle" x="969" y="-67.5" font-family="Helvetica,sans-Serif" font-size="10.00">fcntl.h</text>
</a>
</g>
</g>
<!-- Node5&#45;&gt;Node17 -->
<g id="edge16" class="edge">
<title>Node5&#45;&gt;Node17</title>
<path fill="none" stroke="#63b8ff" d="M930.64,-120.87C937.15,-112.4 947.28,-99.24 955.49,-88.57"/>
<polygon fill="#63b8ff" stroke="#63b8ff" points="958.09,-90.93 961.41,-80.87 952.54,-86.66 958.09,-90.93"/>
</g>
<!-- Node18 -->
<g id="node18" class="node">
<title>Node18</title>
<g id="a_node18"><a xlink:title=" ">
<polygon fill="#e0e0e0" stroke="#999999" points="1077.5,-79.5 1008.5,-79.5 1008.5,-60.5 1077.5,-60.5 1077.5,-79.5"/>
<text text-anchor="middle" x="1043" y="-67.5" font-family="Helvetica,sans-Serif" font-size="10.00">sys/mman.h</text>
</a>
</g>
</g>
<!-- Node5&#45;&gt;Node18 -->
<g id="edge17" class="edge">
<title>Node5&#45;&gt;Node18</title>
<path fill="none" stroke="#63b8ff" d="M942.07,-120.62C961.29,-111.17 991.97,-96.09 1014.46,-85.03"/>
<polygon fill="#63b8ff" stroke="#63b8ff" points="1015.97,-88.19 1023.4,-80.64 1012.88,-81.91 1015.97,-88.19"/>
</g>
<!-- Node19 -->
<g id="node19" class="node">
<title>Node19</title>
<g id="a_node19"><a xlink:title=" ">
<polygon fill="#e0e0e0" stroke="#999999" points="1154.5,-79.5 1095.5,-79.5 1095.5,-60.5 1154.5,-60.5 1154.5,-79.5"/>
<text text-anchor="middle" x="1125" y="-67.5" font-family="Helvetica,sans-Serif" font-size="10.00">sys/stat.h</text>
</a>
</g>
</g>
<!-- Node5&#45;&gt;Node19 -->
<g id="edge18" class="edge">
<title>Node5&#45;&gt;Node19</title>
<path fill="none" stroke="#63b8ff" d="M959.62,-120.55C992.6,-112.07 1042.9,-98.63 1086,-85 1087.54,-84.51 1089.12,-84 1090.7,-83.48"/>
<polygon fill="#63b8ff" stroke="#63b8ff" points="1091.42,-86.93 1099.74,-80.37 1089.15,-80.31 1091.42,-86.93"/>
</g>
<!-- Node20 -->
<g id="node20" class="node">
<title>Node20</title>
<g id="a_node20"><a xlink:title=" ">
<polygon fill="#e0e0e0" stroke="#999999" points="1237.5,-79.5 1172.5,-79.5 1172.5,-60.5 1237.5,-60.5 1237.5,-79.5"/>
<text text-anchor="middle" x="1205" y="-67.5" font-family="Helvetica,sans-Serif" font-size="10.00">sys/types.h</text>
</a>
</g>
</g>
<!-- Node5&#45;&gt;Node20 -->
<g id="edge19" class="edge">
<title>Node5&#45;&gt;Node20</title>
<path fill="none" stroke="#63b8ff" d="M969.34,-122.96C1017.71,-115.55 1096.39,-102.21 1163,-85 1165.12,-84.45 1167.29,-83.85 1169.47,-83.22"/>
<polygon fill="#63b8ff" stroke="#63b8ff" points="1170.33,-86.62 1178.85,-80.31 1168.26,-79.93 1170.33,-86.62"/>
</g>
<!-- Node21 -->
<g id="node21" class="node">
<title>Node21</title>
<g id="a_node21"><a xlink:title=" ">
<polygon fill="#e0e0e0" stroke="#999999" points="1306,-79.5 1256,-79.5 1256,-60.5 1306,-60.5 1306,-79.5"/>
<text text-anchor="middle" x="1281" y="-67.5" font-family="Helvetica,sans-Serif" font-size="10.00">unistd.h</text>
</a>
</g>
</g>
<!-- Node5&#45;&gt;Node21 -->
<g id="edge20" class="edge">
<title>Node5&#45;&gt;Node21</title>
<path fill="none" stroke="#63b8ff" d="M969.48,-126.71C1032.48,-122.06 1149.44,-110.57 1246,-85 1247.39,-84.63 1248.79,-84.23 1250.21,-83.79"/>
<polygon fill="#63b8ff" stroke="#63b8ff" points="1251.24,-87.14 1259.5,-80.5 1248.9,-80.54 1251.24,-87.14"/>
</g>
<!-- Node22 -->
<g id="node22" class="node">
<title>Node22</title>
<g id="a_node22"><a xlink:href="_uio_config_8hpp.html" target="_top" xlink:title=" ">
<polygon fill="white" stroke="#666666" points="469.5,-79.5 358.5,-79.5 358.5,-60.5 469.5,-60.5 469.5,-79.5"/>
<text text-anchor="middle" x="414" y="-67.5" font-family="Helvetica,sans-Serif" font-size="10.00">udmaio/UioConfig.hpp</text>
</a>
</g>
</g>
<!-- Node5&#45;&gt;Node22 -->
<g id="edge21" class="edge">
<title>Node5&#45;&gt;Node22</title>
<path fill="none" stroke="#63b8ff" d="M878.61,-122.73C874.02,-122.12 869.42,-121.53 865,-121 696.11,-100.87 652.28,-109.71 484,-85 478.1,-84.13 471.94,-83.1 465.84,-81.99"/>
<polygon fill="#63b8ff" stroke="#63b8ff" points="466.93,-78.63 456.45,-80.21 465.62,-85.51 466.93,-78.63"/>
</g>
<!-- Node25 -->
<g id="node25" class="node">
<title>Node25</title>
<g id="a_node25"><a xlink:title=" ">
<polygon fill="#e0e0e0" stroke="#999999" points="1448,-85 1324,-85 1324,-55 1448,-55 1448,-85"/>
<text text-anchor="start" x="1332" y="-73" font-family="Helvetica,sans-Serif" font-size="10.00">boost/log/sources/record</text>
<text text-anchor="middle" x="1386" y="-62" font-family="Helvetica,sans-Serif" font-size="10.00">_ostream.hpp</text>
</a>
</g>
</g>
<!-- Node5&#45;&gt;Node25 -->
<g id="edge27" class="edge">
<title>Node5&#45;&gt;Node25</title>
<path fill="none" stroke="#63b8ff" d="M969.32,-125.55C1040.26,-119.1 1182.11,-105.16 1312.36,-85.33"/>
<polygon fill="#63b8ff" stroke="#63b8ff" points="1312.87,-88.79 1322.22,-83.81 1311.8,-81.87 1312.87,-88.79"/>
</g>
<!-- Node26 -->
<g id="node26" class="node">
<title>Node26</title>
<g id="a_node26"><a xlink:title=" ">
<polygon fill="#e0e0e0" stroke="#999999" points="1597.5,-85 1466.5,-85 1466.5,-55 1597.5,-55 1597.5,-85"/>
<text text-anchor="start" x="1474.5" y="-73" font-family="Helvetica,sans-Serif" font-size="10.00">boost/log/sources/severity</text>
<text text-anchor="middle" x="1532" y="-62" font-family="Helvetica,sans-Serif" font-size="10.00">_logger.hpp</text>
</a>
</g>
</g>
<!-- Node5&#45;&gt;Node26 -->
<g id="edge28" class="edge">
<title>Node5&#45;&gt;Node26</title>
<path fill="none" stroke="#63b8ff" d="M969.44,-127.26C1059.83,-122.47 1268.74,-109.73 1454.84,-85.19"/>
<polygon fill="#63b8ff" stroke="#63b8ff" points="1455.26,-88.66 1464.71,-83.87 1454.34,-81.73 1455.26,-88.66"/>
</g>
<!-- Node22&#45;&gt;Node8 -->
<g id="edge22" class="edge">
<title>Node22&#45;&gt;Node8</title>
<path fill="none" stroke="#63b8ff" d="M391.22,-60.12C366.33,-50.41 326.21,-34.76 297.68,-23.64"/>
<polygon fill="#63b8ff" stroke="#63b8ff" points="298.99,-20.39 288.41,-20.02 296.45,-26.91 298.99,-20.39"/>
</g>
<!-- Node22&#45;&gt;Node9 -->
<g id="edge23" class="edge">
<title>Node22&#45;&gt;Node9</title>
<path fill="none" stroke="#63b8ff" d="M402,-60.12C389.82,-51.1 370.71,-36.95 356.02,-26.06"/>
<polygon fill="#63b8ff" stroke="#63b8ff" points="358.45,-23.51 348.33,-20.37 354.28,-29.13 358.45,-23.51"/>
</g>
<!-- Node22&#45;&gt;Node10 -->
<g id="edge26" class="edge">
<title>Node22&#45;&gt;Node10</title>
<path fill="none" stroke="#63b8ff" d="M434.35,-60.12C456.39,-50.49 491.79,-35.04 517.23,-23.93"/>
<polygon fill="#63b8ff" stroke="#63b8ff" points="518.31,-27.28 526.07,-20.07 515.5,-20.87 518.31,-27.28"/>
</g>
<!-- Node23 -->
<g id="node23" class="node">
<title>Node23</title>
<g id="a_node23"><a xlink:title=" ">
<polygon fill="#e0e0e0" stroke="#999999" points="437.5,-19 378.5,-19 378.5,0 437.5,0 437.5,-19"/>
<text text-anchor="middle" x="408" y="-7" font-family="Helvetica,sans-Serif" font-size="10.00">stdexcept</text>
</a>
</g>
</g>
<!-- Node22&#45;&gt;Node23 -->
<g id="edge24" class="edge">
<title>Node22&#45;&gt;Node23</title>
<path fill="none" stroke="#63b8ff" d="M413.11,-60.37C412.31,-52.5 411.09,-40.6 410.04,-30.39"/>
<polygon fill="#63b8ff" stroke="#63b8ff" points="413.55,-30.26 409.04,-20.67 406.58,-30.98 413.55,-30.26"/>
</g>
<!-- Node24 -->
<g id="node24" class="node">
<title>Node24</title>
<g id="a_node24"><a xlink:title=" ">
<polygon fill="#e0e0e0" stroke="#999999" points="496.5,-19 455.5,-19 455.5,0 496.5,0 496.5,-19"/>
<text text-anchor="middle" x="476" y="-7" font-family="Helvetica,sans-Serif" font-size="10.00">string</text>
</a>
</g>
</g>
<!-- Node22&#45;&gt;Node24 -->
<g id="edge25" class="edge">
<title>Node22&#45;&gt;Node24</title>
<path fill="none" stroke="#63b8ff" d="M423.42,-60.12C432.61,-51.44 446.84,-38.02 458.17,-27.32"/>
<polygon fill="#63b8ff" stroke="#63b8ff" points="460.52,-29.92 465.39,-20.51 455.72,-24.82 460.52,-29.92"/>
</g>
</g>
</svg>
        <g id="navigator" transform="translate(0 0)" fill="#404254">
                <rect fill="#f2f5e9" fill-opacity="0.5" stroke="#606060" stroke-width=".5" x="0" y="0" width="60" height="60"/>
                <use id="zoomplus" xlink:href="#zoomPlus" x="17" y="9" onmousedown="handleZoom(evt,'in')"/>
                <use id="zoomminus" xlink:href="#zoomMin" x="42" y="9" onmousedown="handleZoom(evt,'out')"/>
                <use id="reset" xlink:href="#resetDef" x="30" y="36" onmousedown="handleReset()"/>
                <g id="arrowUp" xlink:href="#dirArrow" transform="translate(30 24)" onmousedown="handlePan(0,-1)">
                  <use xlink:href="#rim" fill="#404040">
                        <set attributeName="fill" to="#808080" begin="arrowUp.mouseover" end="arrowUp.mouseout"/>
                  </use>
                  <path fill="none" stroke="white" stroke-width="1.5" d="M0,-3.0v7 M-2.5,-0.5L0,-3.0L2.5,-0.5"/>
                </g>
                <g id="arrowRight" xlink:href="#dirArrow" transform="rotate(90) translate(36 -43)" onmousedown="handlePan(1,0)">
                  <use xlink:href="#rim" fill="#404040">
                        <set attributeName="fill" to="#808080" begin="arrowRight.mouseover" end="arrowRight.mouseout"/>
                  </use>
                  <path fill="none" stroke="white" stroke-width="1.5" d="M0,-3.0v7 M-2.5,-0.5L0,-3.0L2.5,-0.5"/>
                </g>
                <g id="arrowDown" xlink:href="#dirArrow" transform="rotate(180) translate(-30 -48)" onmousedown="handlePan(0,1)">
                  <use xlink:href="#rim" fill="#404040">
                        <set attributeName="fill" to="#808080" begin="arrowDown.mouseover" end="arrowDown.mouseout"/>
                  </use>
                  <path fill="none" stroke="white" stroke-width="1.5" d="M0,-3.0v7 M-2.5,-0.5L0,-3.0L2.5,-0.5"/>
                </g>
                <g id="arrowLeft" xlink:href="#dirArrow" transform="rotate(270) translate(-36 17)" onmousedown="handlePan(-1,0)">
                  <use xlink:href="#rim" fill="#404040">
                        <set attributeName="fill" to="#808080" begin="arrowLeft.mouseover" end="arrowLeft.mouseout"/>
                  </use>
                  <path fill="none" stroke="white" stroke-width="1.5" d="M0,-3.0v7 M-2.5,-0.5L0,-3.0L2.5,-0.5"/>
                </g>
        </g>
        <svg viewBox="0 0 15 15" width="100%" height="30px" preserveAspectRatio="xMaxYMin meet">
         <g id="arrow_out" transform="scale(0.3 0.3)">
          <a xlink:href="_uio_traffic_gen_8cpp__incl_org.svg" target="_base">
           <rect id="button" ry="5" rx="5" y="6" x="6" height="38" width="38"
                fill="#f2f5e9" fill-opacity="0.5" stroke="#606060" stroke-width="1.0"/>
           <path id="arrow"
             d="M 11.500037,31.436501 C 11.940474,20.09759 22.043105,11.32322 32.158766,21.979434 L 37.068811,17.246167 C 37.068811,17.246167 37.088388,32 37.088388,32 L 22.160133,31.978069 C 22.160133,31.978069 26.997745,27.140456 26.997745,27.140456 C 18.528582,18.264221 13.291696,25.230495 11.500037,31.436501 z"
             style="fill:#404040;"/>
          </a>
         </g>
        </svg>
</svg>
