<?xml version="1.0" encoding="UTF-8" standalone="no"?>
<!DOCTYPE svg PUBLIC "-//W3C//DTD SVG 1.1//EN"
 "http://www.w3.org/Graphics/SVG/1.1/DTD/svg11.dtd">
<!-- Generated by graphviz version 7.0.5 (20221223.1930)
 -->
<!-- Title: UioGpioStatus.hpp Pages: 1 -->
<!--zoomable 313 -->
<svg id="main" version="1.1" xmlns="http://www.w3.org/2000/svg" xmlns:xlink="http://www.w3.org/1999/xlink" xml:space="preserve" onload="init(evt)">
<style type="text/css"><![CDATA[
.edge:hover path { stroke: red; }
.edge:hover polygon { stroke: red; fill: red; }
]]></style>
<script type="text/javascript"><![CDATA[
var edges = document.getElementsByTagName('g');
if (edges && edges.length) {
  for (var i=0;i<edges.length;i++) {
    if (edges[i].id.substr(0,4)=='edge') {
      edges[i].setAttribute('class','edge');
    }
  }
}
]]></script>
        <defs>
                <circle id="rim" cx="0" cy="0" r="7"/>
                <circle id="rim2" cx="0" cy="0" r="3.5"/>
                <g id="zoomPlus">
                        <use xlink:href="#rim" fill="#404040">
                                <set attributeName="fill" to="#808080" begin="zoomplus.mouseover" end="zoomplus.mouseout"/>
                        </use>
                        <path d="M-4,0h8M0,-4v8" fill="none" stroke="white" stroke-width="1.5" pointer-events="none"/>
                </g>
                <g id="zoomMin">
                        <use xlink:href="#rim" fill="#404040">
                                <set attributeName="fill" to="#808080" begin="zoomminus.mouseover" end="zoomminus.mouseout"/>
                        </use>
                        <path d="M-4,0h8" fill="none" stroke="white" stroke-width="1.5" pointer-events="none"/>
                </g>
                <g id="dirArrow">
                        <path fill="none" stroke="white" stroke-width="1.5" d="M0,-3.0v7 M-2.5,-0.5L0,-3.0L2.5,-0.5"/>
                </g>
               <g id="resetDef">
                       <use xlink:href="#rim2" fill="#404040">
                               <set attributeName="fill" to="#808080" begin="reset.mouseover" end="reset.mouseout"/>
                       </use>
               </g>
        </defs>

<script type="text/javascript">
var viewWidth = 1904;
var viewHeight = 313;
var sectionId = 'dynsection-0';
</script>
<script xlink:href="svgpan.js"/>
<svg id="graph" class="graph">
<g id="viewport">
<title>UioGpioStatus.hpp</title>
<!-- Node1 -->
<g id="node1" class="node">
<title>Node1</title>
<g id="a_node1"><a xlink:title=" ">
<polygon fill="#999999" stroke="#666666" points="581.4,-305 483.4,-305 483.4,-286 581.4,-286 581.4,-305"/>
<text text-anchor="middle" x="532.4" y="-293" font-family="Helvetica,sans-Serif" font-size="10.00">UioGpioStatus.hpp</text>
</a>
</g>
</g>
<!-- Node2 -->
<g id="node2" class="node">
<title>Node2</title>
<g id="a_node2"><a xlink:href="_reg_accessor_8hpp.html" target="_top" xlink:title=" ">
<polygon fill="white" stroke="#666666" points="596.4,-250 468.4,-250 468.4,-231 596.4,-231 596.4,-250"/>
<text text-anchor="middle" x="532.4" y="-238" font-family="Helvetica,sans-Serif" font-size="10.00">udmaio/RegAccessor.hpp</text>
</a>
</g>
</g>
<!-- Node1&#45;&gt;Node2 -->
<g id="edge1" class="edge">
<title>Node1&#45;&gt;Node2</title>
<path fill="none" stroke="#63b8ff" d="M532.4,-285.75C532.4,-279.27 532.4,-270.16 532.4,-261.9"/>
<polygon fill="#63b8ff" stroke="#63b8ff" points="535.9,-261.96 532.4,-251.96 528.9,-261.96 535.9,-261.96"/>
</g>
<!-- Node3 -->
<g id="node3" class="node">
<title>Node3</title>
<g id="a_node3"><a xlink:title=" ">
<polygon fill="#e0e0e0" stroke="#999999" points="512.4,-195 466.4,-195 466.4,-176 512.4,-176 512.4,-195"/>
<text text-anchor="middle" x="489.4" y="-183" font-family="Helvetica,sans-Serif" font-size="10.00">cstdint</text>
</a>
</g>
</g>
<!-- Node2&#45;&gt;Node3 -->
<g id="edge2" class="edge">
<title>Node2&#45;&gt;Node3</title>
<path fill="none" stroke="#63b8ff" d="M525.3,-230.75C519.48,-223.58 511.06,-213.2 503.84,-204.3"/>
<polygon fill="#63b8ff" stroke="#63b8ff" points="506.62,-202.18 497.61,-196.62 501.19,-206.59 506.62,-202.18"/>
</g>
<!-- Node4 -->
<g id="node4" class="node">
<title>Node4</title>
<g id="a_node4"><a xlink:href="_uio_if_8hpp.html" target="_top" xlink:title=" ">
<polygon fill="white" stroke="#666666" points="620.4,-195 530.4,-195 530.4,-176 620.4,-176 620.4,-195"/>
<text text-anchor="middle" x="575.4" y="-183" font-family="Helvetica,sans-Serif" font-size="10.00">udmaio/UioIf.hpp</text>
</a>
</g>
</g>
<!-- Node2&#45;&gt;Node4 -->
<g id="edge3" class="edge">
<title>Node2&#45;&gt;Node4</title>
<path fill="none" stroke="#63b8ff" d="M539.5,-230.75C545.31,-223.58 553.73,-213.2 560.95,-204.3"/>
<polygon fill="#63b8ff" stroke="#63b8ff" points="563.61,-206.59 567.19,-196.62 558.17,-202.18 563.61,-206.59"/>
</g>
<!-- Node5 -->
<g id="node5" class="node">
<title>Node5</title>
<g id="a_node5"><a xlink:title=" ">
<polygon fill="#e0e0e0" stroke="#999999" points="101.4,-85 41.4,-85 41.4,-66 101.4,-66 101.4,-85"/>
<text text-anchor="middle" x="71.4" y="-73" font-family="Helvetica,sans-Serif" font-size="10.00">filesystem</text>
</a>
</g>
</g>
<!-- Node4&#45;&gt;Node5 -->
<g id="edge4" class="edge">
<title>Node4&#45;&gt;Node5</title>
<path fill="none" stroke="#63b8ff" d="M529.95,-177.24C466.51,-167.02 354.67,-148.68 314.4,-140 242.97,-124.61 160.94,-102.16 112.79,-88.49"/>
<polygon fill="#63b8ff" stroke="#63b8ff" points="113.91,-85.17 103.34,-85.79 111.99,-91.9 113.91,-85.17"/>
</g>
<!-- Node6 -->
<g id="node6" class="node">
<title>Node6</title>
<g id="a_node6"><a xlink:title=" ">
<polygon fill="#e0e0e0" stroke="#999999" points="169.4,-85 119.4,-85 119.4,-66 169.4,-66 169.4,-85"/>
<text text-anchor="middle" x="144.4" y="-73" font-family="Helvetica,sans-Serif" font-size="10.00">fstream</text>
</a>
</g>
</g>
<!-- Node4&#45;&gt;Node6 -->
<g id="edge5" class="edge">
<title>Node4&#45;&gt;Node6</title>
<path fill="none" stroke="#63b8ff" d="M538.42,-175.57C501.63,-166.66 443.58,-152.53 393.4,-140 317.66,-121.09 229.13,-98.36 180.68,-85.87"/>
<polygon fill="#63b8ff" stroke="#63b8ff" points="181.85,-82.56 171.29,-83.45 180.1,-89.34 181.85,-82.56"/>
</g>
<!-- Node7 -->
<g id="node7" class="node">
<title>Node7</title>
<g id="a_node7"><a xlink:title=" ">
<polygon fill="#e0e0e0" stroke="#999999" points="605.4,-24.5 551.4,-24.5 551.4,-5.5 605.4,-5.5 605.4,-24.5"/>
<text text-anchor="middle" x="578.4" y="-12.5" font-family="Helvetica,sans-Serif" font-size="10.00">iostream</text>
</a>
</g>
</g>
<!-- Node4&#45;&gt;Node7 -->
<g id="edge6" class="edge">
<title>Node4&#45;&gt;Node7</title>
<path fill="none" stroke="#63b8ff" d="M530.04,-177.25C527.12,-176.82 524.22,-176.4 521.4,-176 300.8,-145 -117.77,-230.54 32.4,-66 66.52,-28.61 420.84,-18.84 539.74,-16.6"/>
<polygon fill="#63b8ff" stroke="#63b8ff" points="539.69,-20.1 549.62,-16.42 539.56,-13.1 539.69,-20.1"/>
</g>
<!-- Node8 -->
<g id="node8" class="node">
<title>Node8</title>
<g id="a_node8"><a xlink:title=" ">
<polygon fill="#e0e0e0" stroke="#999999" points="747.9,-24.5 696.9,-24.5 696.9,-5.5 747.9,-5.5 747.9,-24.5"/>
<text text-anchor="middle" x="722.4" y="-12.5" font-family="Helvetica,sans-Serif" font-size="10.00">memory</text>
</a>
</g>
</g>
<!-- Node4&#45;&gt;Node8 -->
<g id="edge7" class="edge">
<title>Node4&#45;&gt;Node8</title>
<path fill="none" stroke="#63b8ff" d="M620.67,-176.84C668.38,-165.94 740.32,-140.71 767.4,-85 776.7,-65.86 759.99,-45.66 744.36,-32.1"/>
<polygon fill="#63b8ff" stroke="#63b8ff" points="746.64,-29.44 736.66,-25.89 742.25,-34.89 746.64,-29.44"/>
</g>
<!-- Node9 -->
<g id="node9" class="node">
<title>Node9</title>
<g id="a_node9"><a xlink:title=" ">
<polygon fill="#e0e0e0" stroke="#999999" points="968.9,-24.5 927.9,-24.5 927.9,-5.5 968.9,-5.5 968.9,-24.5"/>
<text text-anchor="middle" x="948.4" y="-12.5" font-family="Helvetica,sans-Serif" font-size="10.00">string</text>
</a>
</g>
</g>
<!-- Node4&#45;&gt;Node9 -->
<g id="edge8" class="edge">
<title>Node4&#45;&gt;Node9</title>
<path fill="none" stroke="#63b8ff" d="M620.57,-183.76C740.93,-180.71 1064.37,-165.07 1125.4,-85 1154.12,-47.31 1104.93,-75.71 977.4,-30 976.9,-29.82 976.39,-29.64 975.89,-29.45"/>
<polygon fill="#63b8ff" stroke="#63b8ff" points="977.28,-26.23 966.71,-25.5 974.51,-32.66 977.28,-26.23"/>
</g>
<!-- Node10 -->
<g id="node10" class="node">
<title>Node10</title>
<g id="a_node10"><a xlink:title=" ">
<polygon fill="#e0e0e0" stroke="#999999" points="324.9,-85 187.9,-85 187.9,-66 324.9,-66 324.9,-85"/>
<text text-anchor="middle" x="256.4" y="-73" font-family="Helvetica,sans-Serif" font-size="10.00">boost/core/noncopyable.hpp</text>
</a>
</g>
</g>
<!-- Node4&#45;&gt;Node10 -->
<g id="edge9" class="edge">
<title>Node4&#45;&gt;Node10</title>
<path fill="none" stroke="#63b8ff" d="M549.02,-175.57C492.29,-156.36 358.57,-111.09 293.4,-89.03"/>
<polygon fill="#63b8ff" stroke="#63b8ff" points="294.83,-85.82 284.24,-85.93 292.59,-92.45 294.83,-85.82"/>
</g>
<!-- Node11 -->
<g id="node11" class="node">
<title>Node11</title>
<g id="a_node11"><a xlink:title=" ">
<polygon fill="#e0e0e0" stroke="#999999" points="385.9,-85 342.9,-85 342.9,-66 385.9,-66 385.9,-85"/>
<text text-anchor="middle" x="364.4" y="-73" font-family="Helvetica,sans-Serif" font-size="10.00">fcntl.h</text>
</a>
</g>
</g>
<!-- Node4&#45;&gt;Node11 -->
<g id="edge10" class="edge">
<title>Node4&#45;&gt;Node11</title>
<path fill="none" stroke="#63b8ff" d="M558.13,-175.66C521.58,-156.95 436.12,-113.21 391.94,-90.6"/>
<polygon fill="#63b8ff" stroke="#63b8ff" points="393.75,-87.59 383.25,-86.15 390.56,-93.82 393.75,-87.59"/>
</g>
<!-- Node12 -->
<g id="node12" class="node">
<title>Node12</title>
<g id="a_node12"><a xlink:title=" ">
<polygon fill="#e0e0e0" stroke="#999999" points="472.9,-85 403.9,-85 403.9,-66 472.9,-66 472.9,-85"/>
<text text-anchor="middle" x="438.4" y="-73" font-family="Helvetica,sans-Serif" font-size="10.00">sys/mman.h</text>
</a>
</g>
</g>
<!-- Node4&#45;&gt;Node12 -->
<g id="edge11" class="edge">
<title>Node4&#45;&gt;Node12</title>
<path fill="none" stroke="#63b8ff" d="M564.19,-175.66C541.11,-157.47 487.99,-115.6 458.71,-92.51"/>
<polygon fill="#63b8ff" stroke="#63b8ff" points="460.97,-89.84 450.95,-86.4 456.64,-95.34 460.97,-89.84"/>
</g>
<!-- Node13 -->
<g id="node13" class="node">
<title>Node13</title>
<g id="a_node13"><a xlink:title=" ">
<polygon fill="#e0e0e0" stroke="#999999" points="549.9,-85 490.9,-85 490.9,-66 549.9,-66 549.9,-85"/>
<text text-anchor="middle" x="520.4" y="-73" font-family="Helvetica,sans-Serif" font-size="10.00">sys/stat.h</text>
</a>
</g>
</g>
<!-- Node4&#45;&gt;Node13 -->
<g id="edge12" class="edge">
<title>Node4&#45;&gt;Node13</title>
<path fill="none" stroke="#63b8ff" d="M570.9,-175.66C562.03,-158.26 542.14,-119.19 530.14,-95.62"/>
<polygon fill="#63b8ff" stroke="#63b8ff" points="533.3,-94.13 525.65,-86.81 527.07,-97.31 533.3,-94.13"/>
</g>
<!-- Node14 -->
<g id="node14" class="node">
<title>Node14</title>
<g id="a_node14"><a xlink:title=" ">
<polygon fill="#e0e0e0" stroke="#999999" points="1047.9,-85 982.9,-85 982.9,-66 1047.9,-66 1047.9,-85"/>
<text text-anchor="middle" x="1015.4" y="-73" font-family="Helvetica,sans-Serif" font-size="10.00">sys/types.h</text>
</a>
</g>
</g>
<!-- Node4&#45;&gt;Node14 -->
<g id="edge13" class="edge">
<title>Node4&#45;&gt;Node14</title>
<path fill="none" stroke="#63b8ff" d="M620.63,-178.68C671.59,-171.63 756.68,-158.37 828.4,-140 883.18,-125.97 945,-103.66 982.04,-89.56"/>
<polygon fill="#63b8ff" stroke="#63b8ff" points="983.21,-92.86 991.29,-86.01 980.7,-86.33 983.21,-92.86"/>
</g>
<!-- Node15 -->
<g id="node15" class="node">
<title>Node15</title>
<g id="a_node15"><a xlink:title=" ">
<polygon fill="#e0e0e0" stroke="#999999" points="1116.4,-85 1066.4,-85 1066.4,-66 1116.4,-66 1116.4,-85"/>
<text text-anchor="middle" x="1091.4" y="-73" font-family="Helvetica,sans-Serif" font-size="10.00">unistd.h</text>
</a>
</g>
</g>
<!-- Node4&#45;&gt;Node15 -->
<g id="edge14" class="edge">
<title>Node4&#45;&gt;Node15</title>
<path fill="none" stroke="#63b8ff" d="M620.83,-179.7C679.74,-173.03 785.46,-159.53 874.4,-140 938.98,-125.81 1012.52,-102.8 1055.28,-88.72"/>
<polygon fill="#63b8ff" stroke="#63b8ff" points="1056.14,-92.12 1064.53,-85.65 1053.94,-85.48 1056.14,-92.12"/>
</g>
<!-- Node16 -->
<g id="node16" class="node">
<title>Node16</title>
<g id="a_node16"><a xlink:href="_hw_accessor_8hpp.html" target="_top" xlink:title=" ">
<polygon fill="white" stroke="#666666" points="688.9,-140 563.9,-140 563.9,-121 688.9,-121 688.9,-140"/>
<text text-anchor="middle" x="626.4" y="-128" font-family="Helvetica,sans-Serif" font-size="10.00">udmaio/HwAccessor.hpp</text>
</a>
</g>
</g>
<!-- Node4&#45;&gt;Node16 -->
<g id="edge15" class="edge">
<title>Node4&#45;&gt;Node16</title>
<path fill="none" stroke="#63b8ff" d="M583.82,-175.75C590.86,-168.43 601.13,-157.76 609.81,-148.74"/>
<polygon fill="#63b8ff" stroke="#63b8ff" points="612.33,-151.17 616.74,-141.53 607.29,-146.31 612.33,-151.17"/>
</g>
<!-- Node19 -->
<g id="node19" class="node">
<title>Node19</title>
<g id="a_node19"><a xlink:href="_logging_8hpp.html" target="_top" xlink:title=" ">
<polygon fill="white" stroke="#666666" points="1341.4,-85 1237.4,-85 1237.4,-66 1341.4,-66 1341.4,-85"/>
<text text-anchor="middle" x="1289.4" y="-73" font-family="Helvetica,sans-Serif" font-size="10.00">udmaio/Logging.hpp</text>
</a>
</g>
</g>
<!-- Node4&#45;&gt;Node19 -->
<g id="edge44" class="edge">
<title>Node4&#45;&gt;Node19</title>
<path fill="none" stroke="#63b8ff" d="M620.58,-183.23C739.16,-179.55 1057.09,-167.36 1158.4,-140 1198.11,-129.28 1240.27,-106.52 1265.72,-91.37"/>
<polygon fill="#63b8ff" stroke="#63b8ff" points="1267.53,-94.37 1274.26,-86.18 1263.89,-88.39 1267.53,-94.37"/>
</g>
<!-- Node27 -->
<g id="node27" class="node">
<title>Node27</title>
<g id="a_node27"><a xlink:href="_uio_config_8hpp.html" target="_top" xlink:title=" ">
<polygon fill="white" stroke="#666666" points="925.9,-85 814.9,-85 814.9,-66 925.9,-66 925.9,-85"/>
<text text-anchor="middle" x="870.4" y="-73" font-family="Helvetica,sans-Serif" font-size="10.00">udmaio/UioConfig.hpp</text>
</a>
</g>
</g>
<!-- Node4&#45;&gt;Node27 -->
<g id="edge45" class="edge">
<title>Node4&#45;&gt;Node27</title>
<path fill="none" stroke="#63b8ff" d="M620.82,-182.63C667.97,-179.11 742.77,-168.98 800.4,-140 822.76,-128.75 843.33,-108.35 856.31,-93.71"/>
<polygon fill="#63b8ff" stroke="#63b8ff" points="858.86,-96.1 862.69,-86.22 853.54,-91.56 858.86,-96.1"/>
</g>
<!-- Node16&#45;&gt;Node5 -->
<g id="edge18" class="edge">
<title>Node16&#45;&gt;Node5</title>
<path fill="none" stroke="#63b8ff" d="M563.74,-126.7C468.47,-121.87 281.32,-110.14 112.88,-85.18"/>
<polygon fill="#63b8ff" stroke="#63b8ff" points="113.47,-81.73 103.06,-83.7 112.42,-88.65 113.47,-81.73"/>
</g>
<!-- Node16&#45;&gt;Node6 -->
<g id="edge19" class="edge">
<title>Node16&#45;&gt;Node6</title>
<path fill="none" stroke="#63b8ff" d="M563.68,-126.17C478.89,-121.02 322.88,-109.29 180.65,-85.14"/>
<polygon fill="#63b8ff" stroke="#63b8ff" points="181.5,-81.73 171.05,-83.48 180.31,-88.63 181.5,-81.73"/>
</g>
<!-- Node16&#45;&gt;Node7 -->
<g id="edge20" class="edge">
<title>Node16&#45;&gt;Node7</title>
<path fill="none" stroke="#63b8ff" d="M619.53,-120.77C613.02,-112.12 603.38,-98.28 597.4,-85 590.22,-69.05 585.19,-49.78 582.12,-35.66"/>
<polygon fill="#63b8ff" stroke="#63b8ff" points="585.63,-35.38 580.22,-26.28 578.77,-36.77 585.63,-35.38"/>
</g>
<!-- Node16&#45;&gt;Node8 -->
<g id="edge21" class="edge">
<title>Node16&#45;&gt;Node8</title>
<path fill="none" stroke="#63b8ff" d="M633.99,-120.65C641.67,-111.68 653.89,-97.4 664.4,-85 679.19,-67.54 696.01,-47.51 707.71,-33.54"/>
<polygon fill="#63b8ff" stroke="#63b8ff" points="710.2,-36.02 713.94,-26.11 704.84,-31.53 710.2,-36.02"/>
</g>
<!-- Node16&#45;&gt;Node9 -->
<g id="edge22" class="edge">
<title>Node16&#45;&gt;Node9</title>
<path fill="none" stroke="#63b8ff" d="M689.07,-128.71C768.72,-126.34 900.04,-117.47 934.4,-85 947.58,-72.55 950.18,-51.36 950.04,-35.74"/>
<polygon fill="#63b8ff" stroke="#63b8ff" points="953.56,-36 949.57,-26.19 946.57,-36.35 953.56,-36"/>
</g>
<!-- Node16&#45;&gt;Node10 -->
<g id="edge23" class="edge">
<title>Node16&#45;&gt;Node10</title>
<path fill="none" stroke="#63b8ff" d="M563.63,-120.51C499.08,-111.26 398.6,-96.87 330.26,-87.08"/>
<polygon fill="#63b8ff" stroke="#63b8ff" points="331.05,-83.66 320.66,-85.71 330.06,-90.59 331.05,-83.66"/>
</g>
<!-- Node16&#45;&gt;Node11 -->
<g id="edge24" class="edge">
<title>Node16&#45;&gt;Node11</title>
<path fill="none" stroke="#63b8ff" d="M572.67,-120.56C527.96,-112.8 462.42,-100.74 397.18,-85.51"/>
<polygon fill="#63b8ff" stroke="#63b8ff" points="398.3,-82.18 387.77,-83.29 396.7,-88.99 398.3,-82.18"/>
</g>
<!-- Node16&#45;&gt;Node12 -->
<g id="edge25" class="edge">
<title>Node16&#45;&gt;Node12</title>
<path fill="none" stroke="#63b8ff" d="M594.51,-120.51C563.22,-111.69 515.31,-98.18 480.82,-88.46"/>
<polygon fill="#63b8ff" stroke="#63b8ff" points="482.16,-85.2 471.59,-85.86 480.26,-91.94 482.16,-85.2"/>
</g>
<!-- Node16&#45;&gt;Node13 -->
<g id="edge26" class="edge">
<title>Node16&#45;&gt;Node13</title>
<path fill="none" stroke="#63b8ff" d="M608.42,-120.51C591.95,-112.27 567.31,-99.96 548.29,-90.45"/>
<polygon fill="#63b8ff" stroke="#63b8ff" points="549.98,-87.38 539.47,-86.03 546.85,-93.64 549.98,-87.38"/>
</g>
<!-- Node16&#45;&gt;Node14 -->
<g id="edge27" class="edge">
<title>Node16&#45;&gt;Node14</title>
<path fill="none" stroke="#63b8ff" d="M689.25,-122.27C757.95,-114.14 871.22,-100.1 968.4,-85 969.4,-84.84 970.42,-84.68 971.44,-84.52"/>
<polygon fill="#63b8ff" stroke="#63b8ff" points="971.79,-88.01 981.07,-82.9 970.63,-81.11 971.79,-88.01"/>
</g>
<!-- Node16&#45;&gt;Node15 -->
<g id="edge28" class="edge">
<title>Node16&#45;&gt;Node15</title>
<path fill="none" stroke="#63b8ff" d="M689.24,-125.82C771.28,-120.39 919.48,-108.46 1055.23,-85.14"/>
<polygon fill="#63b8ff" stroke="#63b8ff" points="1055.49,-88.64 1064.74,-83.47 1054.29,-81.75 1055.49,-88.64"/>
</g>
<!-- Node17 -->
<g id="node17" class="node">
<title>Node17</title>
<g id="a_node17"><a xlink:title=" ">
<polygon fill="#e0e0e0" stroke="#999999" points="655.9,-85 606.9,-85 606.9,-66 655.9,-66 655.9,-85"/>
<text text-anchor="middle" x="631.4" y="-73" font-family="Helvetica,sans-Serif" font-size="10.00">cstddef</text>
</a>
</g>
</g>
<!-- Node16&#45;&gt;Node17 -->
<g id="edge16" class="edge">
<title>Node16&#45;&gt;Node17</title>
<path fill="none" stroke="#63b8ff" d="M627.22,-120.75C627.83,-114.27 628.69,-105.16 629.47,-96.9"/>
<polygon fill="#63b8ff" stroke="#63b8ff" points="632.96,-97.23 630.41,-86.95 625.99,-96.58 632.96,-97.23"/>
</g>
<!-- Node18 -->
<g id="node18" class="node">
<title>Node18</title>
<g id="a_node18"><a xlink:title=" ">
<polygon fill="#e0e0e0" stroke="#999999" points="758.4,-85 712.4,-85 712.4,-66 758.4,-66 758.4,-85"/>
<text text-anchor="middle" x="735.4" y="-73" font-family="Helvetica,sans-Serif" font-size="10.00">cstring</text>
</a>
</g>
</g>
<!-- Node16&#45;&gt;Node18 -->
<g id="edge17" class="edge">
<title>Node16&#45;&gt;Node18</title>
<path fill="none" stroke="#63b8ff" d="M644.89,-120.51C661.9,-112.24 687.39,-99.84 706.99,-90.31"/>
<polygon fill="#63b8ff" stroke="#63b8ff" points="708.36,-93.54 715.82,-86.02 705.3,-87.25 708.36,-93.54"/>
</g>
<!-- Node16&#45;&gt;Node19 -->
<g id="edge29" class="edge">
<title>Node16&#45;&gt;Node19</title>
<path fill="none" stroke="#63b8ff" d="M689.37,-124.47C815.69,-114.37 1098.75,-91.74 1225.68,-81.59"/>
<polygon fill="#63b8ff" stroke="#63b8ff" points="1225.91,-85.09 1235.59,-80.8 1225.35,-78.11 1225.91,-85.09"/>
</g>
<!-- Node16&#45;&gt;Node27 -->
<g id="edge38" class="edge">
<title>Node16&#45;&gt;Node27</title>
<path fill="none" stroke="#63b8ff" d="M667.79,-120.51C709.28,-111.5 773.28,-97.6 818.22,-87.83"/>
<polygon fill="#63b8ff" stroke="#63b8ff" points="818.7,-91.31 827.73,-85.77 817.22,-84.47 818.7,-91.31"/>
</g>
<!-- Node19&#45;&gt;Node9 -->
<g id="edge30" class="edge">
<title>Node19&#45;&gt;Node9</title>
<path fill="none" stroke="#63b8ff" d="M1236.99,-71.95C1174.13,-67.77 1066.11,-57.03 977.4,-30 976.6,-29.76 975.79,-29.49 974.98,-29.21"/>
<polygon fill="#63b8ff" stroke="#63b8ff" points="976.58,-26.09 966,-25.49 973.9,-32.55 976.58,-26.09"/>
</g>
<!-- Node20 -->
<g id="node20" class="node">
<title>Node20</title>
<g id="a_node20"><a xlink:title=" ">
<polygon fill="#e0e0e0" stroke="#999999" points="1502.4,-24.5 1406.4,-24.5 1406.4,-5.5 1502.4,-5.5 1502.4,-24.5"/>
<text text-anchor="middle" x="1454.4" y="-12.5" font-family="Helvetica,sans-Serif" font-size="10.00">boost/log/core.hpp</text>
</a>
</g>
</g>
<!-- Node19&#45;&gt;Node20 -->
<g id="edge31" class="edge">
<title>Node19&#45;&gt;Node20</title>
<path fill="none" stroke="#63b8ff" d="M1314.46,-65.62C1342.2,-55.78 1387.14,-39.84 1418.59,-28.69"/>
<polygon fill="#63b8ff" stroke="#63b8ff" points="1419.42,-32.11 1427.67,-25.47 1417.08,-25.52 1419.42,-32.11"/>
</g>
<!-- Node21 -->
<g id="node21" class="node">
<title>Node21</title>
<g id="a_node21"><a xlink:title=" ">
<polygon fill="#e0e0e0" stroke="#999999" points="1649.9,-24.5 1520.9,-24.5 1520.9,-5.5 1649.9,-5.5 1649.9,-24.5"/>
<text text-anchor="middle" x="1585.4" y="-12.5" font-family="Helvetica,sans-Serif" font-size="10.00">boost/log/expressions.hpp</text>
</a>
</g>
</g>
<!-- Node19&#45;&gt;Node21 -->
<g id="edge32" class="edge">
<title>Node19&#45;&gt;Node21</title>
<path fill="none" stroke="#63b8ff" d="M1334.68,-65.55C1386.8,-55.25 1472.45,-38.32 1528.9,-27.17"/>
<polygon fill="#63b8ff" stroke="#63b8ff" points="1529.51,-30.61 1538.64,-25.24 1528.15,-23.75 1529.51,-30.61"/>
</g>
<!-- Node22 -->
<g id="node22" class="node">
<title>Node22</title>
<g id="a_node22"><a xlink:title=" ">
<polygon fill="#e0e0e0" stroke="#999999" points="1768.9,-24.5 1667.9,-24.5 1667.9,-5.5 1768.9,-5.5 1768.9,-24.5"/>
<text text-anchor="middle" x="1718.4" y="-12.5" font-family="Helvetica,sans-Serif" font-size="10.00">boost/log/trivial.hpp</text>
</a>
</g>
</g>
<!-- Node19&#45;&gt;Node22 -->
<g id="edge33" class="edge">
<title>Node19&#45;&gt;Node22</title>
<path fill="none" stroke="#63b8ff" d="M1341.76,-70.09C1413.69,-63.59 1546.97,-50.03 1659.4,-30 1663.7,-29.23 1668.17,-28.35 1672.63,-27.4"/>
<polygon fill="#63b8ff" stroke="#63b8ff" points="1673.12,-30.87 1682.12,-25.28 1671.59,-24.04 1673.12,-30.87"/>
</g>
<!-- Node23 -->
<g id="node23" class="node">
<title>Node23</title>
<g id="a_node23"><a xlink:title=" ">
<polygon fill="#e0e0e0" stroke="#999999" points="1895.9,-30 1786.9,-30 1786.9,0 1895.9,0 1895.9,-30"/>
<text text-anchor="start" x="1794.9" y="-18" font-family="Helvetica,sans-Serif" font-size="10.00">boost/log/utility/setup</text>
<text text-anchor="middle" x="1841.4" y="-7" font-family="Helvetica,sans-Serif" font-size="10.00">/console.hpp</text>
</a>
</g>
</g>
<!-- Node19&#45;&gt;Node23 -->
<g id="edge34" class="edge">
<title>Node19&#45;&gt;Node23</title>
<path fill="none" stroke="#63b8ff" d="M1341.77,-71.94C1429.54,-67.16 1612.03,-55.18 1775.28,-30.36"/>
<polygon fill="#63b8ff" stroke="#63b8ff" points="1775.66,-33.85 1785.01,-28.86 1774.59,-26.93 1775.66,-33.85"/>
</g>
<!-- Node24 -->
<g id="node24" class="node">
<title>Node24</title>
<g id="a_node24"><a xlink:title=" ">
<polygon fill="#e0e0e0" stroke="#999999" points="1117.9,-30 986.9,-30 986.9,0 1117.9,0 1117.9,-30"/>
<text text-anchor="start" x="994.9" y="-18" font-family="Helvetica,sans-Serif" font-size="10.00">boost/log/sources/severity</text>
<text text-anchor="middle" x="1052.4" y="-7" font-family="Helvetica,sans-Serif" font-size="10.00">_channel_logger.hpp</text>
</a>
</g>
</g>
<!-- Node19&#45;&gt;Node24 -->
<g id="edge35" class="edge">
<title>Node19&#45;&gt;Node24</title>
<path fill="none" stroke="#63b8ff" d="M1253.14,-65.55C1218.31,-56.95 1164.77,-43.74 1121.74,-33.12"/>
<polygon fill="#63b8ff" stroke="#63b8ff" points="1122.78,-29.77 1112.23,-30.77 1121.1,-36.56 1122.78,-29.77"/>
</g>
<!-- Node25 -->
<g id="node25" class="node">
<title>Node25</title>
<g id="a_node25"><a xlink:title=" ">
<polygon fill="#e0e0e0" stroke="#999999" points="1248.9,-30 1135.9,-30 1135.9,0 1248.9,0 1248.9,-30"/>
<text text-anchor="start" x="1143.9" y="-18" font-family="Helvetica,sans-Serif" font-size="10.00">boost/log/support/date</text>
<text text-anchor="middle" x="1192.4" y="-7" font-family="Helvetica,sans-Serif" font-size="10.00">_time.hpp</text>
</a>
</g>
</g>
<!-- Node19&#45;&gt;Node25 -->
<g id="edge36" class="edge">
<title>Node19&#45;&gt;Node25</title>
<path fill="none" stroke="#63b8ff" d="M1274.67,-65.62C1261.73,-57.81 1242.43,-46.17 1225.77,-36.13"/>
<polygon fill="#63b8ff" stroke="#63b8ff" points="1228.01,-33.39 1217.64,-31.22 1224.39,-39.38 1228.01,-33.39"/>
</g>
<!-- Node26 -->
<g id="node26" class="node">
<title>Node26</title>
<g id="a_node26"><a xlink:title=" ">
<polygon fill="#e0e0e0" stroke="#999999" points="1387.9,-30 1266.9,-30 1266.9,0 1387.9,0 1387.9,-30"/>
<text text-anchor="start" x="1274.9" y="-18" font-family="Helvetica,sans-Serif" font-size="10.00">boost/log/utility/setup</text>
<text text-anchor="middle" x="1327.4" y="-7" font-family="Helvetica,sans-Serif" font-size="10.00">/common_attributes.hpp</text>
</a>
</g>
</g>
<!-- Node19&#45;&gt;Node26 -->
<g id="edge37" class="edge">
<title>Node19&#45;&gt;Node26</title>
<path fill="none" stroke="#63b8ff" d="M1295,-65.87C1299.49,-58.96 1306.01,-48.93 1312.02,-39.67"/>
<polygon fill="#63b8ff" stroke="#63b8ff" points="1314.89,-41.68 1317.4,-31.38 1309.02,-37.86 1314.89,-41.68"/>
</g>
<!-- Node27&#45;&gt;Node7 -->
<g id="edge39" class="edge">
<title>Node27&#45;&gt;Node7</title>
<path fill="none" stroke="#63b8ff" d="M825.73,-65.55C768.58,-54.1 670.54,-34.46 616.65,-23.66"/>
<polygon fill="#63b8ff" stroke="#63b8ff" points="617.52,-20.27 607.02,-21.74 616.14,-27.13 617.52,-20.27"/>
</g>
<!-- Node27&#45;&gt;Node8 -->
<g id="edge40" class="edge">
<title>Node27&#45;&gt;Node8</title>
<path fill="none" stroke="#63b8ff" d="M847.2,-65.59C824.13,-56.69 787.75,-42.57 756.4,-30 755.77,-29.75 755.13,-29.49 754.49,-29.23"/>
<polygon fill="#63b8ff" stroke="#63b8ff" points="755.94,-26.04 745.36,-25.52 753.3,-32.53 755.94,-26.04"/>
</g>
<!-- Node27&#45;&gt;Node9 -->
<g id="edge42" class="edge">
<title>Node27&#45;&gt;Node9</title>
<path fill="none" stroke="#63b8ff" d="M882.24,-65.62C894.16,-56.68 912.78,-42.72 927.23,-31.87"/>
<polygon fill="#63b8ff" stroke="#63b8ff" points="929.33,-34.68 935.23,-25.88 925.13,-29.08 929.33,-34.68"/>
</g>
<!-- Node28 -->
<g id="node28" class="node">
<title>Node28</title>
<g id="a_node28"><a xlink:title=" ">
<polygon fill="#e0e0e0" stroke="#999999" points="824.9,-24.5 765.9,-24.5 765.9,-5.5 824.9,-5.5 824.9,-24.5"/>
<text text-anchor="middle" x="795.4" y="-12.5" font-family="Helvetica,sans-Serif" font-size="10.00">stdexcept</text>
</a>
</g>
</g>
<!-- Node27&#45;&gt;Node28 -->
<g id="edge41" class="edge">
<title>Node27&#45;&gt;Node28</title>
<path fill="none" stroke="#63b8ff" d="M859.01,-65.62C847.55,-56.68 829.65,-42.72 815.75,-31.87"/>
<polygon fill="#63b8ff" stroke="#63b8ff" points="818.13,-29.29 808.09,-25.9 813.82,-34.81 818.13,-29.29"/>
</g>
<!-- Node29 -->
<g id="node29" class="node">
<title>Node29</title>
<g id="a_node29"><a xlink:title=" ">
<polygon fill="#e0e0e0" stroke="#999999" points="909.4,-24.5 843.4,-24.5 843.4,-5.5 909.4,-5.5 909.4,-24.5"/>
<text text-anchor="middle" x="876.4" y="-12.5" font-family="Helvetica,sans-Serif" font-size="10.00">string_view</text>
</a>
</g>
</g>
<!-- Node27&#45;&gt;Node29 -->
<g id="edge43" class="edge">
<title>Node27&#45;&gt;Node29</title>
<path fill="none" stroke="#63b8ff" d="M871.28,-65.87C872.09,-58 873.31,-46.1 874.36,-35.89"/>
<polygon fill="#63b8ff" stroke="#63b8ff" points="877.82,-36.48 875.35,-26.17 870.85,-35.76 877.82,-36.48"/>
</g>
</g>
</svg>
        <g id="navigator" transform="translate(0 0)" fill="#404254">
                <rect fill="#f2f5e9" fill-opacity="0.5" stroke="#606060" stroke-width=".5" x="0" y="0" width="60" height="60"/>
                <use id="zoomplus" xlink:href="#zoomPlus" x="17" y="9" onmousedown="handleZoom(evt,'in')"/>
                <use id="zoomminus" xlink:href="#zoomMin" x="42" y="9" onmousedown="handleZoom(evt,'out')"/>
                <use id="reset" xlink:href="#resetDef" x="30" y="36" onmousedown="handleReset()"/>
                <g id="arrowUp" xlink:href="#dirArrow" transform="translate(30 24)" onmousedown="handlePan(0,-1)">
                  <use xlink:href="#rim" fill="#404040">
                        <set attributeName="fill" to="#808080" begin="arrowUp.mouseover" end="arrowUp.mouseout"/>
                  </use>
                  <path fill="none" stroke="white" stroke-width="1.5" d="M0,-3.0v7 M-2.5,-0.5L0,-3.0L2.5,-0.5"/>
                </g>
                <g id="arrowRight" xlink:href="#dirArrow" transform="rotate(90) translate(36 -43)" onmousedown="handlePan(1,0)">
                  <use xlink:href="#rim" fill="#404040">
                        <set attributeName="fill" to="#808080" begin="arrowRight.mouseover" end="arrowRight.mouseout"/>
                  </use>
                  <path fill="none" stroke="white" stroke-width="1.5" d="M0,-3.0v7 M-2.5,-0.5L0,-3.0L2.5,-0.5"/>
                </g>
                <g id="arrowDown" xlink:href="#dirArrow" transform="rotate(180) translate(-30 -48)" onmousedown="handlePan(0,1)">
                  <use xlink:href="#rim" fill="#404040">
                        <set attributeName="fill" to="#808080" begin="arrowDown.mouseover" end="arrowDown.mouseout"/>
                  </use>
                  <path fill="none" stroke="white" stroke-width="1.5" d="M0,-3.0v7 M-2.5,-0.5L0,-3.0L2.5,-0.5"/>
                </g>
                <g id="arrowLeft" xlink:href="#dirArrow" transform="rotate(270) translate(-36 17)" onmousedown="handlePan(-1,0)">
                  <use xlink:href="#rim" fill="#404040">
                        <set attributeName="fill" to="#808080" begin="arrowLeft.mouseover" end="arrowLeft.mouseout"/>
                  </use>
                  <path fill="none" stroke="white" stroke-width="1.5" d="M0,-3.0v7 M-2.5,-0.5L0,-3.0L2.5,-0.5"/>
                </g>
        </g>
        <svg viewBox="0 0 15 15" width="100%" height="30px" preserveAspectRatio="xMaxYMin meet">
         <g id="arrow_out" transform="scale(0.3 0.3)">
          <a xlink:href="_uio_gpio_status_8hpp__incl_org.svg" target="_base">
           <rect id="button" ry="5" rx="5" y="6" x="6" height="38" width="38"
                fill="#f2f5e9" fill-opacity="0.5" stroke="#606060" stroke-width="1.0"/>
           <path id="arrow"
             d="M 11.500037,31.436501 C 11.940474,20.09759 22.043105,11.32322 32.158766,21.979434 L 37.068811,17.246167 C 37.068811,17.246167 37.088388,32 37.088388,32 L 22.160133,31.978069 C 22.160133,31.978069 26.997745,27.140456 26.997745,27.140456 C 18.528582,18.264221 13.291696,25.230495 11.500037,31.436501 z"
             style="fill:#404040;"/>
          </a>
         </g>
        </svg>
</svg>
