<?xml version="1.0" encoding="UTF-8" standalone="no"?>
<!DOCTYPE svg PUBLIC "-//W3C//DTD SVG 1.1//EN"
 "http://www.w3.org/Graphics/SVG/1.1/DTD/svg11.dtd">
<!-- Generated by graphviz version 7.0.5 (20221223.1930)
 -->
<!-- Title: UioIf.hpp Pages: 1 -->
<!--zoomable 302 -->
<svg id="main" version="1.1" xmlns="http://www.w3.org/2000/svg" xmlns:xlink="http://www.w3.org/1999/xlink" xml:space="preserve" onload="init(evt)">
<style type="text/css"><![CDATA[
.edge:hover path { stroke: red; }
.edge:hover polygon { stroke: red; fill: red; }
]]></style>
<script type="text/javascript"><![CDATA[
var edges = document.getElementsByTagName('g');
if (edges && edges.length) {
  for (var i=0;i<edges.length;i++) {
    if (edges[i].id.substr(0,4)=='edge') {
      edges[i].setAttribute('class','edge');
    }
  }
}
]]></script>
        <defs>
                <circle id="rim" cx="0" cy="0" r="7"/>
                <circle id="rim2" cx="0" cy="0" r="3.5"/>
                <g id="zoomPlus">
                        <use xlink:href="#rim" fill="#404040">
                                <set attributeName="fill" to="#808080" begin="zoomplus.mouseover" end="zoomplus.mouseout"/>
                        </use>
                        <path d="M-4,0h8M0,-4v8" fill="none" stroke="white" stroke-width="1.5" pointer-events="none"/>
                </g>
                <g id="zoomMin">
                        <use xlink:href="#rim" fill="#404040">
                                <set attributeName="fill" to="#808080" begin="zoomminus.mouseover" end="zoomminus.mouseout"/>
                        </use>
                        <path d="M-4,0h8" fill="none" stroke="white" stroke-width="1.5" pointer-events="none"/>
                </g>
                <g id="dirArrow">
                        <path fill="none" stroke="white" stroke-width="1.5" d="M0,-3.0v7 M-2.5,-0.5L0,-3.0L2.5,-0.5"/>
                </g>
               <g id="resetDef">
                       <use xlink:href="#rim2" fill="#404040">
                               <set attributeName="fill" to="#808080" begin="reset.mouseover" end="reset.mouseout"/>
                       </use>
               </g>
        </defs>

<script type="text/javascript">
var viewWidth = 625;
var viewHeight = 302;
var sectionId = 'dynsection-1';
</script>
<script xlink:href="svgpan.js"/>
<svg id="graph" class="graph">
<g id="viewport">
<title>UioIf.hpp</title>
<!-- Node1 -->
<g id="node1" class="node">
<title>Node1</title>
<g id="a_node1"><a xlink:title=" ">
<polygon fill="#999999" stroke="#666666" points="409.09,-294 353.09,-294 353.09,-275 409.09,-275 409.09,-294"/>
<text text-anchor="middle" x="381.09" y="-282" font-family="Helvetica,sans-Serif" font-size="10.00">UioIf.hpp</text>
</a>
</g>
</g>
<!-- Node2 -->
<g id="node2" class="node">
<title>Node2</title>
<g id="a_node2"><a xlink:href="_fpga_mem_buffer_over_axi_8hpp.html" target="_top" xlink:title=" ">
<polygon fill="white" stroke="#666666" points="278.09,-239 140.09,-239 140.09,-220 278.09,-220 278.09,-239"/>
<text text-anchor="middle" x="209.09" y="-227" font-family="Helvetica,sans-Serif" font-size="10.00">FpgaMemBufferOverAxi.hpp</text>
</a>
</g>
</g>
<!-- Node1&#45;&gt;Node2 -->
<g id="edge1" class="edge">
<title>Node1&#45;&gt;Node2</title>
<path fill="none" stroke="#63b8ff" d="M342.06,-271.48C310.47,-261.74 266.67,-248.24 238.11,-239.44"/>
<polygon fill="#63b8ff" stroke="#63b8ff" points="340.65,-274.7 351.24,-274.3 342.71,-268.01 340.65,-274.7"/>
</g>
<!-- Node3 -->
<g id="node3" class="node">
<title>Node3</title>
<g id="a_node3"><a xlink:href="_reg_accessor_8hpp.html" target="_top" xlink:title=" ">
<polygon fill="white" stroke="#666666" points="427.59,-239 334.59,-239 334.59,-220 427.59,-220 427.59,-239"/>
<text text-anchor="middle" x="381.09" y="-227" font-family="Helvetica,sans-Serif" font-size="10.00">RegAccessor.hpp</text>
</a>
</g>
</g>
<!-- Node1&#45;&gt;Node3 -->
<g id="edge2" class="edge">
<title>Node1&#45;&gt;Node3</title>
<path fill="none" stroke="#63b8ff" d="M381.09,-263.35C381.09,-255.1 381.09,-245.97 381.09,-239.44"/>
<polygon fill="#63b8ff" stroke="#63b8ff" points="377.59,-263.23 381.09,-273.23 384.59,-263.23 377.59,-263.23"/>
</g>
<!-- Node4 -->
<g id="node4" class="node">
<title>Node4</title>
<g id="a_node4"><a xlink:href="_uio_axi_dma_if_8hpp.html" target="_top" xlink:title=" ">
<polygon fill="white" stroke="#666666" points="204.59,-184 115.59,-184 115.59,-165 204.59,-165 204.59,-184"/>
<text text-anchor="middle" x="160.09" y="-172" font-family="Helvetica,sans-Serif" font-size="10.00">UioAxiDmaIf.hpp</text>
</a>
</g>
</g>
<!-- Node1&#45;&gt;Node4 -->
<g id="edge19" class="edge">
<title>Node1&#45;&gt;Node4</title>
<path fill="none" stroke="#63b8ff" d="M361.22,-267.85C342.8,-253.9 314.24,-233.64 287.09,-220 256.4,-204.58 219.08,-192.2 192.86,-184.45"/>
<polygon fill="#63b8ff" stroke="#63b8ff" points="358.84,-270.43 368.89,-273.76 363.11,-264.89 358.84,-270.43"/>
</g>
<!-- Node8 -->
<g id="node8" class="node">
<title>Node8</title>
<g id="a_node8"><a xlink:href="axi__dma__demo_8cpp.html" target="_top" xlink:title=" ">
<polygon fill="white" stroke="#666666" points="363.09,-19 263.09,-19 263.09,0 363.09,0 363.09,-19"/>
<text text-anchor="middle" x="313.09" y="-7" font-family="Helvetica,sans-Serif" font-size="10.00">axi_dma_demo.cpp</text>
</a>
</g>
</g>
<!-- Node1&#45;&gt;Node8 -->
<g id="edge21" class="edge">
<title>Node1&#45;&gt;Node8</title>
<path fill="none" stroke="#63b8ff" d="M420.97,-282.69C488.26,-278.97 617.09,-260.73 617.09,-175.5 617.09,-175.5 617.09,-175.5 617.09,-118.5 617.09,-65.29 449.63,-31.57 363.29,-17.72"/>
<polygon fill="#63b8ff" stroke="#63b8ff" points="420.9,-279.19 411.07,-283.14 421.22,-286.18 420.9,-279.19"/>
</g>
<!-- Node10 -->
<g id="node10" class="node">
<title>Node10</title>
<g id="a_node10"><a xlink:href="_uio_axi_vdma_if_8hpp.html" target="_top" xlink:title=" ">
<polygon fill="white" stroke="#666666" points="588.59,-184 493.59,-184 493.59,-165 588.59,-165 588.59,-184"/>
<text text-anchor="middle" x="541.09" y="-172" font-family="Helvetica,sans-Serif" font-size="10.00">UioAxiVdmaIf.hpp</text>
</a>
</g>
</g>
<!-- Node1&#45;&gt;Node10 -->
<g id="edge20" class="edge">
<title>Node1&#45;&gt;Node10</title>
<path fill="none" stroke="#63b8ff" d="M403.69,-268.24C437.58,-245.37 500.47,-202.92 527.81,-184.46"/>
<polygon fill="#63b8ff" stroke="#63b8ff" points="401.77,-265.32 395.44,-273.82 405.68,-271.12 401.77,-265.32"/>
</g>
<!-- Node3&#45;&gt;Node4 -->
<g id="edge3" class="edge">
<title>Node3&#45;&gt;Node4</title>
<path fill="none" stroke="#63b8ff" d="M332.59,-216.87C291.88,-207.11 234.58,-193.37 197.39,-184.45"/>
<polygon fill="#63b8ff" stroke="#63b8ff" points="331.59,-220.23 342.13,-219.16 333.22,-213.42 331.59,-220.23"/>
</g>
<!-- Node3&#45;&gt;Node10 -->
<g id="edge10" class="edge">
<title>Node3&#45;&gt;Node10</title>
<path fill="none" stroke="#63b8ff" d="M418.88,-215.98C448.14,-206.29 487.96,-193.1 514.08,-184.45"/>
<polygon fill="#63b8ff" stroke="#63b8ff" points="418.06,-212.57 409.67,-219.03 420.26,-219.21 418.06,-212.57"/>
</g>
<!-- Node11 -->
<g id="node11" class="node">
<title>Node11</title>
<g id="a_node11"><a xlink:href="_uio_gpio_status_8hpp.html" target="_top" xlink:title=" ">
<polygon fill="white" stroke="#666666" points="401.09,-129 303.09,-129 303.09,-110 401.09,-110 401.09,-129"/>
<text text-anchor="middle" x="352.09" y="-117" font-family="Helvetica,sans-Serif" font-size="10.00">UioGpioStatus.hpp</text>
</a>
</g>
</g>
<!-- Node3&#45;&gt;Node11 -->
<g id="edge11" class="edge">
<title>Node3&#45;&gt;Node11</title>
<path fill="none" stroke="#63b8ff" d="M375.74,-208.57C369.4,-184.98 359.13,-146.73 354.49,-129.46"/>
<polygon fill="#63b8ff" stroke="#63b8ff" points="372.35,-209.45 378.32,-218.2 379.11,-207.63 372.35,-209.45"/>
</g>
<!-- Node12 -->
<g id="node12" class="node">
<title>Node12</title>
<g id="a_node12"><a xlink:href="_uio_mem_sgdma_8hpp.html" target="_top" xlink:title=" ">
<polygon fill="white" stroke="#666666" points="325.09,-184 223.09,-184 223.09,-165 325.09,-165 325.09,-184"/>
<text text-anchor="middle" x="274.09" y="-172" font-family="Helvetica,sans-Serif" font-size="10.00">UioMemSgdma.hpp</text>
</a>
</g>
</g>
<!-- Node3&#45;&gt;Node12 -->
<g id="edge13" class="edge">
<title>Node3&#45;&gt;Node12</title>
<path fill="none" stroke="#63b8ff" d="M352.62,-214.4C333.36,-204.86 308.51,-192.55 291.97,-184.36"/>
<polygon fill="#63b8ff" stroke="#63b8ff" points="351.07,-217.54 361.58,-218.84 354.17,-211.26 351.07,-217.54"/>
</g>
<!-- Node13 -->
<g id="node13" class="node">
<title>Node13</title>
<g id="a_node13"><a xlink:href="_uio_traffic_gen_8hpp.html" target="_top" xlink:title=" ">
<polygon fill="white" stroke="#666666" points="475.09,-184 381.09,-184 381.09,-165 475.09,-165 475.09,-184"/>
<text text-anchor="middle" x="428.09" y="-172" font-family="Helvetica,sans-Serif" font-size="10.00">UioTrafficGen.hpp</text>
</a>
</g>
</g>
<!-- Node3&#45;&gt;Node13 -->
<g id="edge16" class="edge">
<title>Node3&#45;&gt;Node13</title>
<path fill="none" stroke="#63b8ff" d="M396.42,-211.22C404.34,-202.28 413.68,-191.74 420.16,-184.44"/>
<polygon fill="#63b8ff" stroke="#63b8ff" points="393.87,-208.81 389.85,-218.62 399.11,-213.46 393.87,-208.81"/>
</g>
<!-- Node5 -->
<g id="node5" class="node">
<title>Node5</title>
<g id="a_node5"><a xlink:href="_data_handler_abstract_8hpp.html" target="_top" xlink:title=" ">
<polygon fill="white" stroke="#666666" points="234.59,-129 109.59,-129 109.59,-110 234.59,-110 234.59,-129"/>
<text text-anchor="middle" x="172.09" y="-117" font-family="Helvetica,sans-Serif" font-size="10.00">DataHandlerAbstract.hpp</text>
</a>
</g>
</g>
<!-- Node4&#45;&gt;Node5 -->
<g id="edge4" class="edge">
<title>Node4&#45;&gt;Node5</title>
<path fill="none" stroke="#63b8ff" d="M164.59,-153.64C166.47,-145.31 168.57,-136.05 170.06,-129.44"/>
<polygon fill="#63b8ff" stroke="#63b8ff" points="161.2,-152.75 162.4,-163.27 168.03,-154.29 161.2,-152.75"/>
</g>
<!-- Node4&#45;&gt;Node8 -->
<g id="edge9" class="edge">
<title>Node4&#45;&gt;Node8</title>
<path fill="none" stroke="#63b8ff" d="M119.72,-160.94C62.95,-141.26 -29.37,-100.68 10.09,-55 26.36,-36.17 180.94,-21.08 262.79,-14.33"/>
<polygon fill="#63b8ff" stroke="#63b8ff" points="118.52,-164.23 129.11,-164.1 120.76,-157.59 118.52,-164.23"/>
</g>
<!-- Node6 -->
<g id="node6" class="node">
<title>Node6</title>
<g id="a_node6"><a xlink:href="_data_handler_print_8hpp.html" target="_top" xlink:title=" ">
<polygon fill="white" stroke="#666666" points="128.59,-74 19.59,-74 19.59,-55 128.59,-55 128.59,-74"/>
<text text-anchor="middle" x="74.09" y="-62" font-family="Helvetica,sans-Serif" font-size="10.00">DataHandlerPrint.hpp</text>
</a>
</g>
</g>
<!-- Node5&#45;&gt;Node6 -->
<g id="edge5" class="edge">
<title>Node5&#45;&gt;Node6</title>
<path fill="none" stroke="#63b8ff" d="M145.77,-104.27C128.16,-94.74 105.54,-82.51 90.47,-74.36"/>
<polygon fill="#63b8ff" stroke="#63b8ff" points="143.67,-107.11 154.13,-108.79 147,-100.95 143.67,-107.11"/>
</g>
<!-- Node9 -->
<g id="node9" class="node">
<title>Node9</title>
<g id="a_node9"><a xlink:href="_data_handler_sync_8hpp.html" target="_top" xlink:title=" ">
<polygon fill="white" stroke="#666666" points="257.09,-74 147.09,-74 147.09,-55 257.09,-55 257.09,-74"/>
<text text-anchor="middle" x="202.09" y="-62" font-family="Helvetica,sans-Serif" font-size="10.00">DataHandlerSync.hpp</text>
</a>
</g>
</g>
<!-- Node5&#45;&gt;Node9 -->
<g id="edge8" class="edge">
<title>Node5&#45;&gt;Node9</title>
<path fill="none" stroke="#63b8ff" d="M182.68,-99.79C187.55,-91.18 193.11,-81.36 197.03,-74.44"/>
<polygon fill="#63b8ff" stroke="#63b8ff" points="179.67,-98 177.79,-108.43 185.76,-101.45 179.67,-98"/>
</g>
<!-- Node7 -->
<g id="node7" class="node">
<title>Node7</title>
<g id="a_node7"><a xlink:href="_data_handler_print_8cpp.html" target="_top" xlink:title=" ">
<polygon fill="white" stroke="#666666" points="128.59,-19 19.59,-19 19.59,0 128.59,0 128.59,-19"/>
<text text-anchor="middle" x="74.09" y="-7" font-family="Helvetica,sans-Serif" font-size="10.00">DataHandlerPrint.cpp</text>
</a>
</g>
</g>
<!-- Node6&#45;&gt;Node7 -->
<g id="edge6" class="edge">
<title>Node6&#45;&gt;Node7</title>
<path fill="none" stroke="#63b8ff" d="M74.09,-43.35C74.09,-35.1 74.09,-25.97 74.09,-19.44"/>
<polygon fill="#63b8ff" stroke="#63b8ff" points="70.59,-43.23 74.09,-53.23 77.59,-43.23 70.59,-43.23"/>
</g>
<!-- Node6&#45;&gt;Node8 -->
<g id="edge7" class="edge">
<title>Node6&#45;&gt;Node8</title>
<path fill="none" stroke="#63b8ff" d="M125.69,-52.06C169.76,-42.28 232.27,-28.42 272.75,-19.45"/>
<polygon fill="#63b8ff" stroke="#63b8ff" points="125.11,-48.6 116.11,-54.18 126.63,-55.43 125.11,-48.6"/>
</g>
<!-- Node11&#45;&gt;Node8 -->
<g id="edge12" class="edge">
<title>Node11&#45;&gt;Node8</title>
<path fill="none" stroke="#63b8ff" d="M345.01,-98.9C336.5,-75.33 322.59,-36.81 316.32,-19.46"/>
<polygon fill="#63b8ff" stroke="#63b8ff" points="341.69,-100.02 348.38,-108.24 348.28,-97.64 341.69,-100.02"/>
</g>
<!-- Node12&#45;&gt;Node5 -->
<g id="edge14" class="edge">
<title>Node12&#45;&gt;Node5</title>
<path fill="none" stroke="#63b8ff" d="M246.7,-159.27C228.37,-149.74 204.82,-137.51 189.14,-129.36"/>
<polygon fill="#63b8ff" stroke="#63b8ff" points="244.95,-162.31 255.44,-163.81 248.18,-156.09 244.95,-162.31"/>
</g>
<!-- Node12&#45;&gt;Node8 -->
<g id="edge15" class="edge">
<title>Node12&#45;&gt;Node8</title>
<path fill="none" stroke="#63b8ff" d="M278.78,-153.91C287.28,-118.38 304.91,-44.68 310.98,-19.31"/>
<polygon fill="#63b8ff" stroke="#63b8ff" points="275.46,-152.72 276.54,-163.26 282.27,-154.35 275.46,-152.72"/>
</g>
<!-- Node13&#45;&gt;Node8 -->
<g id="edge18" class="edge">
<title>Node13&#45;&gt;Node8</title>
<path fill="none" stroke="#63b8ff" d="M425.1,-153.73C422.51,-140.67 417.91,-123.53 410.09,-110 387.26,-70.53 345.27,-35.11 324.85,-19.27"/>
<polygon fill="#63b8ff" stroke="#63b8ff" points="421.59,-154 426.74,-163.26 428.49,-152.81 421.59,-154"/>
</g>
<!-- Node14 -->
<g id="node14" class="node">
<title>Node14</title>
<g id="a_node14"><a xlink:href="_uio_traffic_gen_8cpp.html" target="_top" xlink:title=" ">
<polygon fill="white" stroke="#666666" points="551.09,-129 457.09,-129 457.09,-110 551.09,-110 551.09,-129"/>
<text text-anchor="middle" x="504.09" y="-117" font-family="Helvetica,sans-Serif" font-size="10.00">UioTrafficGen.cpp</text>
</a>
</g>
</g>
<!-- Node13&#45;&gt;Node14 -->
<g id="edge17" class="edge">
<title>Node13&#45;&gt;Node14</title>
<path fill="none" stroke="#63b8ff" d="M450.04,-158.19C463.46,-148.84 480.13,-137.21 491.39,-129.36"/>
<polygon fill="#63b8ff" stroke="#63b8ff" points="448.42,-155.05 442.22,-163.64 452.43,-160.79 448.42,-155.05"/>
</g>
</g>
</svg>
        <g id="navigator" transform="translate(0 0)" fill="#404254">
                <rect fill="#f2f5e9" fill-opacity="0.5" stroke="#606060" stroke-width=".5" x="0" y="0" width="60" height="60"/>
                <use id="zoomplus" xlink:href="#zoomPlus" x="17" y="9" onmousedown="handleZoom(evt,'in')"/>
                <use id="zoomminus" xlink:href="#zoomMin" x="42" y="9" onmousedown="handleZoom(evt,'out')"/>
                <use id="reset" xlink:href="#resetDef" x="30" y="36" onmousedown="handleReset()"/>
                <g id="arrowUp" xlink:href="#dirArrow" transform="translate(30 24)" onmousedown="handlePan(0,-1)">
                  <use xlink:href="#rim" fill="#404040">
                        <set attributeName="fill" to="#808080" begin="arrowUp.mouseover" end="arrowUp.mouseout"/>
                  </use>
                  <path fill="none" stroke="white" stroke-width="1.5" d="M0,-3.0v7 M-2.5,-0.5L0,-3.0L2.5,-0.5"/>
                </g>
                <g id="arrowRight" xlink:href="#dirArrow" transform="rotate(90) translate(36 -43)" onmousedown="handlePan(1,0)">
                  <use xlink:href="#rim" fill="#404040">
                        <set attributeName="fill" to="#808080" begin="arrowRight.mouseover" end="arrowRight.mouseout"/>
                  </use>
                  <path fill="none" stroke="white" stroke-width="1.5" d="M0,-3.0v7 M-2.5,-0.5L0,-3.0L2.5,-0.5"/>
                </g>
                <g id="arrowDown" xlink:href="#dirArrow" transform="rotate(180) translate(-30 -48)" onmousedown="handlePan(0,1)">
                  <use xlink:href="#rim" fill="#404040">
                        <set attributeName="fill" to="#808080" begin="arrowDown.mouseover" end="arrowDown.mouseout"/>
                  </use>
                  <path fill="none" stroke="white" stroke-width="1.5" d="M0,-3.0v7 M-2.5,-0.5L0,-3.0L2.5,-0.5"/>
                </g>
                <g id="arrowLeft" xlink:href="#dirArrow" transform="rotate(270) translate(-36 17)" onmousedown="handlePan(-1,0)">
                  <use xlink:href="#rim" fill="#404040">
                        <set attributeName="fill" to="#808080" begin="arrowLeft.mouseover" end="arrowLeft.mouseout"/>
                  </use>
                  <path fill="none" stroke="white" stroke-width="1.5" d="M0,-3.0v7 M-2.5,-0.5L0,-3.0L2.5,-0.5"/>
                </g>
        </g>
        <svg viewBox="0 0 15 15" width="100%" height="30px" preserveAspectRatio="xMaxYMin meet">
         <g id="arrow_out" transform="scale(0.3 0.3)">
          <a xlink:href="_uio_if_8hpp__dep__incl_org.svg" target="_base">
           <rect id="button" ry="5" rx="5" y="6" x="6" height="38" width="38"
                fill="#f2f5e9" fill-opacity="0.5" stroke="#606060" stroke-width="1.0"/>
           <path id="arrow"
             d="M 11.500037,31.436501 C 11.940474,20.09759 22.043105,11.32322 32.158766,21.979434 L 37.068811,17.246167 C 37.068811,17.246167 37.088388,32 37.088388,32 L 22.160133,31.978069 C 22.160133,31.978069 26.997745,27.140456 26.997745,27.140456 C 18.528582,18.264221 13.291696,25.230495 11.500037,31.436501 z"
             style="fill:#404040;"/>
          </a>
         </g>
        </svg>
</svg>
