<?xml version="1.0" encoding="UTF-8" standalone="no"?>
<!DOCTYPE svg PUBLIC "-//W3C//DTD SVG 1.1//EN"
 "http://www.w3.org/Graphics/SVG/1.1/DTD/svg11.dtd">
<!-- Generated by graphviz version 7.0.5 (20221223.1930)
 -->
<!-- Title: UioTrafficGen.cpp Pages: 1 -->
<svg width="1877pt" height="258pt"
 viewBox="0.00 0.00 1876.50 258.00" xmlns="http://www.w3.org/2000/svg" xmlns:xlink="http://www.w3.org/1999/xlink">
<g id="graph0" class="graph" transform="scale(1 1) rotate(0) translate(4 254)">
<title>UioTrafficGen.cpp</title>
<!-- Node1 -->
<g id="node1" class="node">
<title>Node1</title>
<g id="a_node1"><a xlink:title=" ">
<polygon fill="#999999" stroke="#666666" points="1550,-250 1456,-250 1456,-231 1550,-231 1550,-250"/>
<text text-anchor="middle" x="1503" y="-238" font-family="Helvetica,sans-Serif" font-size="10.00">UioTrafficGen.cpp</text>
</a>
</g>
</g>
<!-- Node2 -->
<g id="node2" class="node">
<title>Node2</title>
<g id="a_node2"><a xlink:href="_uio_traffic_gen_8hpp.html" target="_top" xlink:title=" ">
<polygon fill="white" stroke="#666666" points="1123,-195 1029,-195 1029,-176 1123,-176 1123,-195"/>
<text text-anchor="middle" x="1076" y="-183" font-family="Helvetica,sans-Serif" font-size="10.00">UioTrafficGen.hpp</text>
</a>
</g>
</g>
<!-- Node1&#45;&gt;Node2 -->
<g id="edge1" class="edge">
<title>Node1&#45;&gt;Node2</title>
<path fill="none" stroke="#63b8ff" d="M1455.67,-233.63C1377.1,-223.87 1219.94,-204.37 1134.52,-193.76"/>
<polygon fill="#63b8ff" stroke="#63b8ff" points="1135.07,-190.31 1124.72,-192.55 1134.21,-197.25 1135.07,-190.31"/>
</g>
<!-- Node9 -->
<g id="node9" class="node">
<title>Node9</title>
<g id="a_node9"><a xlink:title=" ">
<polygon fill="#e0e0e0" stroke="#999999" points="118,-79.5 0,-79.5 0,-60.5 118,-60.5 118,-79.5"/>
<text text-anchor="middle" x="59" y="-67.5" font-family="Helvetica,sans-Serif" font-size="10.00">boost/log/core/core.hpp</text>
</a>
</g>
</g>
<!-- Node1&#45;&gt;Node9 -->
<g id="edge25" class="edge">
<title>Node1&#45;&gt;Node9</title>
<path fill="none" stroke="#63b8ff" d="M1455.65,-235.62C1369.08,-228.43 1179.5,-212.17 1020,-195 622.41,-152.21 521.6,-149.82 127,-85 121.77,-84.14 116.34,-83.17 110.92,-82.14"/>
<polygon fill="#63b8ff" stroke="#63b8ff" points="111.87,-78.76 101.38,-80.27 110.52,-85.63 111.87,-78.76"/>
</g>
<!-- Node12 -->
<g id="node12" class="node">
<title>Node12</title>
<g id="a_node12"><a xlink:title=" ">
<polygon fill="#e0e0e0" stroke="#999999" points="1749.5,-79.5 1608.5,-79.5 1608.5,-60.5 1749.5,-60.5 1749.5,-79.5"/>
<text text-anchor="middle" x="1679" y="-67.5" font-family="Helvetica,sans-Serif" font-size="10.00">boost/log/sources/logger.hpp</text>
</a>
</g>
</g>
<!-- Node1&#45;&gt;Node12 -->
<g id="edge26" class="edge">
<title>Node1&#45;&gt;Node12</title>
<path fill="none" stroke="#63b8ff" d="M1502.05,-230.78C1500.21,-209.25 1498.56,-153.01 1527,-121 1540.35,-105.97 1587.18,-91.96 1625.37,-82.61"/>
<polygon fill="#63b8ff" stroke="#63b8ff" points="1626,-86.06 1634.92,-80.34 1624.38,-79.25 1626,-86.06"/>
</g>
<!-- Node13 -->
<g id="node13" class="node">
<title>Node13</title>
<g id="a_node13"><a xlink:title=" ">
<polygon fill="#e0e0e0" stroke="#999999" points="1868.5,-79.5 1767.5,-79.5 1767.5,-60.5 1868.5,-60.5 1868.5,-79.5"/>
<text text-anchor="middle" x="1818" y="-67.5" font-family="Helvetica,sans-Serif" font-size="10.00">boost/log/trivial.hpp</text>
</a>
</g>
</g>
<!-- Node1&#45;&gt;Node13 -->
<g id="edge27" class="edge">
<title>Node1&#45;&gt;Node13</title>
<path fill="none" stroke="#63b8ff" d="M1509.15,-230.55C1518.8,-217.09 1538.72,-191.55 1561,-176 1627.79,-129.39 1718.38,-98.57 1772.25,-82.99"/>
<polygon fill="#63b8ff" stroke="#63b8ff" points="1773.05,-86.41 1781.71,-80.31 1771.14,-79.67 1773.05,-86.41"/>
</g>
<!-- Node24 -->
<g id="node24" class="node">
<title>Node24</title>
<g id="a_node24"><a xlink:title=" ">
<polygon fill="#e0e0e0" stroke="#999999" points="1598.5,-195 1569.5,-195 1569.5,-176 1598.5,-176 1598.5,-195"/>
<text text-anchor="middle" x="1584" y="-183" font-family="Helvetica,sans-Serif" font-size="10.00">ios</text>
</a>
</g>
</g>
<!-- Node1&#45;&gt;Node24 -->
<g id="edge24" class="edge">
<title>Node1&#45;&gt;Node24</title>
<path fill="none" stroke="#63b8ff" d="M1516.74,-230.51C1528.8,-222.62 1546.59,-210.98 1560.84,-201.65"/>
<polygon fill="#63b8ff" stroke="#63b8ff" points="1562.74,-204.59 1569.2,-196.19 1558.91,-198.73 1562.74,-204.59"/>
</g>
<!-- Node3 -->
<g id="node3" class="node">
<title>Node3</title>
<g id="a_node3"><a xlink:href="_uio_if_8hpp.html" target="_top" xlink:title=" ">
<polygon fill="white" stroke="#666666" points="945,-140 855,-140 855,-121 945,-121 945,-140"/>
<text text-anchor="middle" x="900" y="-128" font-family="Helvetica,sans-Serif" font-size="10.00">udmaio/UioIf.hpp</text>
</a>
</g>
</g>
<!-- Node2&#45;&gt;Node3 -->
<g id="edge2" class="edge">
<title>Node2&#45;&gt;Node3</title>
<path fill="none" stroke="#63b8ff" d="M1046.14,-175.51C1017.11,-166.76 972.78,-153.42 940.56,-143.71"/>
<polygon fill="#63b8ff" stroke="#63b8ff" points="941.74,-140.41 931.16,-140.88 939.72,-147.12 941.74,-140.41"/>
</g>
<!-- Node4 -->
<g id="node4" class="node">
<title>Node4</title>
<g id="a_node4"><a xlink:title=" ">
<polygon fill="#e0e0e0" stroke="#999999" points="804,-79.5 744,-79.5 744,-60.5 804,-60.5 804,-79.5"/>
<text text-anchor="middle" x="774" y="-67.5" font-family="Helvetica,sans-Serif" font-size="10.00">filesystem</text>
</a>
</g>
</g>
<!-- Node3&#45;&gt;Node4 -->
<g id="edge3" class="edge">
<title>Node3&#45;&gt;Node4</title>
<path fill="none" stroke="#63b8ff" d="M880.86,-120.62C860.33,-111.08 827.44,-95.81 803.57,-84.73"/>
<polygon fill="#63b8ff" stroke="#63b8ff" points="805.23,-81.64 794.69,-80.61 802.29,-87.99 805.23,-81.64"/>
</g>
<!-- Node5 -->
<g id="node5" class="node">
<title>Node5</title>
<g id="a_node5"><a xlink:title=" ">
<polygon fill="#e0e0e0" stroke="#999999" points="872,-79.5 822,-79.5 822,-60.5 872,-60.5 872,-79.5"/>
<text text-anchor="middle" x="847" y="-67.5" font-family="Helvetica,sans-Serif" font-size="10.00">fstream</text>
</a>
</g>
</g>
<!-- Node3&#45;&gt;Node5 -->
<g id="edge4" class="edge">
<title>Node3&#45;&gt;Node5</title>
<path fill="none" stroke="#63b8ff" d="M892.18,-120.87C884.35,-112.23 872.1,-98.7 862.33,-87.92"/>
<polygon fill="#63b8ff" stroke="#63b8ff" points="865.18,-85.85 855.87,-80.79 859.99,-90.55 865.18,-85.85"/>
</g>
<!-- Node6 -->
<g id="node6" class="node">
<title>Node6</title>
<g id="a_node6"><a xlink:title=" ">
<polygon fill="#e0e0e0" stroke="#999999" points="931,-19 877,-19 877,0 931,0 931,-19"/>
<text text-anchor="middle" x="904" y="-7" font-family="Helvetica,sans-Serif" font-size="10.00">iostream</text>
</a>
</g>
</g>
<!-- Node3&#45;&gt;Node6 -->
<g id="edge5" class="edge">
<title>Node3&#45;&gt;Node6</title>
<path fill="none" stroke="#63b8ff" d="M900.3,-120.56C900.94,-101.51 902.45,-56.56 903.33,-30.37"/>
<polygon fill="#63b8ff" stroke="#63b8ff" points="906.82,-30.85 903.66,-20.74 899.82,-30.61 906.82,-30.85"/>
</g>
<!-- Node7 -->
<g id="node7" class="node">
<title>Node7</title>
<g id="a_node7"><a xlink:title=" ">
<polygon fill="#e0e0e0" stroke="#999999" points="1108.5,-79.5 1057.5,-79.5 1057.5,-60.5 1108.5,-60.5 1108.5,-79.5"/>
<text text-anchor="middle" x="1083" y="-67.5" font-family="Helvetica,sans-Serif" font-size="10.00">memory</text>
</a>
</g>
</g>
<!-- Node3&#45;&gt;Node7 -->
<g id="edge6" class="edge">
<title>Node3&#45;&gt;Node7</title>
<path fill="none" stroke="#63b8ff" d="M932.89,-120.51C963.06,-112.06 1008.87,-98.68 1048,-85 1048.97,-84.66 1049.96,-84.31 1050.95,-83.95"/>
<polygon fill="#63b8ff" stroke="#63b8ff" points="1052.12,-87.25 1060.23,-80.43 1049.64,-80.7 1052.12,-87.25"/>
</g>
<!-- Node8 -->
<g id="node8" class="node">
<title>Node8</title>
<g id="a_node8"><a xlink:title=" ">
<polygon fill="#e0e0e0" stroke="#999999" points="1263.5,-79.5 1126.5,-79.5 1126.5,-60.5 1263.5,-60.5 1263.5,-79.5"/>
<text text-anchor="middle" x="1195" y="-67.5" font-family="Helvetica,sans-Serif" font-size="10.00">boost/core/noncopyable.hpp</text>
</a>
</g>
</g>
<!-- Node3&#45;&gt;Node8 -->
<g id="edge7" class="edge">
<title>Node3&#45;&gt;Node8</title>
<path fill="none" stroke="#63b8ff" d="M945.13,-120.55C997.07,-110.25 1082.44,-93.32 1138.69,-82.17"/>
<polygon fill="#63b8ff" stroke="#63b8ff" points="1139.27,-85.62 1148.4,-80.24 1137.91,-78.75 1139.27,-85.62"/>
</g>
<!-- Node3&#45;&gt;Node9 -->
<g id="edge8" class="edge">
<title>Node3&#45;&gt;Node9</title>
<path fill="none" stroke="#63b8ff" d="M854.67,-127.76C711.37,-122.12 269.2,-103.63 127,-85 121.02,-84.22 114.79,-83.21 108.62,-82.09"/>
<polygon fill="#63b8ff" stroke="#63b8ff" points="109.64,-78.72 99.16,-80.26 108.32,-85.59 109.64,-78.72"/>
</g>
<!-- Node10 -->
<g id="node10" class="node">
<title>Node10</title>
<g id="a_node10"><a xlink:title=" ">
<polygon fill="#e0e0e0" stroke="#999999" points="1410.5,-79.5 1281.5,-79.5 1281.5,-60.5 1410.5,-60.5 1410.5,-79.5"/>
<text text-anchor="middle" x="1346" y="-67.5" font-family="Helvetica,sans-Serif" font-size="10.00">boost/log/expressions.hpp</text>
</a>
</g>
</g>
<!-- Node3&#45;&gt;Node10 -->
<g id="edge9" class="edge">
<title>Node3&#45;&gt;Node10</title>
<path fill="none" stroke="#63b8ff" d="M945.37,-125.08C1015.58,-118 1154.68,-103.09 1272,-85 1277.98,-84.08 1284.21,-83.03 1290.41,-81.94"/>
<polygon fill="#63b8ff" stroke="#63b8ff" points="1290.77,-85.43 1299.99,-80.2 1289.52,-78.54 1290.77,-85.43"/>
</g>
<!-- Node11 -->
<g id="node11" class="node">
<title>Node11</title>
<g id="a_node11"><a xlink:title=" ">
<polygon fill="#e0e0e0" stroke="#999999" points="1529.5,-85 1428.5,-85 1428.5,-55 1529.5,-55 1529.5,-85"/>
<text text-anchor="start" x="1436.5" y="-73" font-family="Helvetica,sans-Serif" font-size="10.00">boost/log/keywords</text>
<text text-anchor="middle" x="1479" y="-62" font-family="Helvetica,sans-Serif" font-size="10.00">/severity.hpp</text>
</a>
</g>
</g>
<!-- Node3&#45;&gt;Node11 -->
<g id="edge10" class="edge">
<title>Node3&#45;&gt;Node11</title>
<path fill="none" stroke="#63b8ff" d="M945.39,-127.8C1034.09,-124.01 1236.74,-113.03 1416.76,-85.19"/>
<polygon fill="#63b8ff" stroke="#63b8ff" points="1417.2,-88.66 1426.54,-83.65 1416.12,-81.75 1417.2,-88.66"/>
</g>
<!-- Node3&#45;&gt;Node12 -->
<g id="edge11" class="edge">
<title>Node3&#45;&gt;Node12</title>
<path fill="none" stroke="#63b8ff" d="M945.2,-128.38C1056.75,-125.23 1353.96,-114.53 1600,-85 1607.26,-84.13 1614.85,-83.03 1622.35,-81.83"/>
<polygon fill="#63b8ff" stroke="#63b8ff" points="1622.82,-85.3 1632.1,-80.19 1621.66,-78.39 1622.82,-85.3"/>
</g>
<!-- Node3&#45;&gt;Node13 -->
<g id="edge12" class="edge">
<title>Node3&#45;&gt;Node13</title>
<path fill="none" stroke="#63b8ff" d="M945.45,-130.03C1073.92,-130.92 1450.42,-129.23 1759,-85 1763.88,-84.3 1768.95,-83.39 1773.97,-82.37"/>
<polygon fill="#63b8ff" stroke="#63b8ff" points="1774.32,-85.87 1783.34,-80.31 1772.82,-79.04 1774.32,-85.87"/>
</g>
<!-- Node14 -->
<g id="node14" class="node">
<title>Node14</title>
<g id="a_node14"><a xlink:title=" ">
<polygon fill="#e0e0e0" stroke="#999999" points="1590.5,-79.5 1547.5,-79.5 1547.5,-60.5 1590.5,-60.5 1590.5,-79.5"/>
<text text-anchor="middle" x="1569" y="-67.5" font-family="Helvetica,sans-Serif" font-size="10.00">fcntl.h</text>
</a>
</g>
</g>
<!-- Node3&#45;&gt;Node14 -->
<g id="edge13" class="edge">
<title>Node3&#45;&gt;Node14</title>
<path fill="none" stroke="#63b8ff" d="M945.24,-128.42C1071.45,-125.07 1425.49,-113.36 1538,-85 1539.17,-84.7 1540.36,-84.37 1541.54,-83.99"/>
<polygon fill="#63b8ff" stroke="#63b8ff" points="1542.52,-87.37 1550.6,-80.51 1540.01,-80.83 1542.52,-87.37"/>
</g>
<!-- Node15 -->
<g id="node15" class="node">
<title>Node15</title>
<g id="a_node15"><a xlink:title=" ">
<polygon fill="#e0e0e0" stroke="#999999" points="205.5,-79.5 136.5,-79.5 136.5,-60.5 205.5,-60.5 205.5,-79.5"/>
<text text-anchor="middle" x="171" y="-67.5" font-family="Helvetica,sans-Serif" font-size="10.00">sys/mman.h</text>
</a>
</g>
</g>
<!-- Node3&#45;&gt;Node15 -->
<g id="edge14" class="edge">
<title>Node3&#45;&gt;Node15</title>
<path fill="none" stroke="#63b8ff" d="M854.85,-128.04C722.58,-123.55 337.5,-108.72 214,-85 211.33,-84.49 208.6,-83.86 205.87,-83.15"/>
<polygon fill="#63b8ff" stroke="#63b8ff" points="206.86,-79.8 196.28,-80.35 204.9,-86.52 206.86,-79.8"/>
</g>
<!-- Node16 -->
<g id="node16" class="node">
<title>Node16</title>
<g id="a_node16"><a xlink:title=" ">
<polygon fill="#e0e0e0" stroke="#999999" points="282.5,-79.5 223.5,-79.5 223.5,-60.5 282.5,-60.5 282.5,-79.5"/>
<text text-anchor="middle" x="253" y="-67.5" font-family="Helvetica,sans-Serif" font-size="10.00">sys/stat.h</text>
</a>
</g>
</g>
<!-- Node3&#45;&gt;Node16 -->
<g id="edge15" class="edge">
<title>Node3&#45;&gt;Node16</title>
<path fill="none" stroke="#63b8ff" d="M854.72,-127.83C732.64,-123.08 398.63,-108.27 291,-85 288.97,-84.56 286.91,-84.04 284.85,-83.46"/>
<polygon fill="#63b8ff" stroke="#63b8ff" points="286.02,-80.16 275.43,-80.39 283.86,-86.82 286.02,-80.16"/>
</g>
<!-- Node17 -->
<g id="node17" class="node">
<title>Node17</title>
<g id="a_node17"><a xlink:title=" ">
<polygon fill="#e0e0e0" stroke="#999999" points="365.5,-79.5 300.5,-79.5 300.5,-60.5 365.5,-60.5 365.5,-79.5"/>
<text text-anchor="middle" x="333" y="-67.5" font-family="Helvetica,sans-Serif" font-size="10.00">sys/types.h</text>
</a>
</g>
</g>
<!-- Node3&#45;&gt;Node17 -->
<g id="edge16" class="edge">
<title>Node3&#45;&gt;Node17</title>
<path fill="none" stroke="#63b8ff" d="M854.54,-129.25C762.87,-127.97 549.7,-120.99 375,-85 372.55,-84.5 370.05,-83.89 367.55,-83.23"/>
<polygon fill="#63b8ff" stroke="#63b8ff" points="368.75,-79.94 358.17,-80.43 366.75,-86.64 368.75,-79.94"/>
</g>
<!-- Node18 -->
<g id="node18" class="node">
<title>Node18</title>
<g id="a_node18"><a xlink:title=" ">
<polygon fill="#e0e0e0" stroke="#999999" points="434,-79.5 384,-79.5 384,-60.5 434,-60.5 434,-79.5"/>
<text text-anchor="middle" x="409" y="-67.5" font-family="Helvetica,sans-Serif" font-size="10.00">unistd.h</text>
</a>
</g>
</g>
<!-- Node3&#45;&gt;Node18 -->
<g id="edge17" class="edge">
<title>Node3&#45;&gt;Node18</title>
<path fill="none" stroke="#63b8ff" d="M854.83,-129.46C771.95,-128.42 590.56,-121.71 443,-85 441.41,-84.61 439.8,-84.15 438.19,-83.65"/>
<polygon fill="#63b8ff" stroke="#63b8ff" points="439.75,-80.49 429.15,-80.37 437.36,-87.07 439.75,-80.49"/>
</g>
<!-- Node19 -->
<g id="node19" class="node">
<title>Node19</title>
<g id="a_node19"><a xlink:href="_uio_config_8hpp.html" target="_top" xlink:title=" ">
<polygon fill="white" stroke="#666666" points="1039.5,-79.5 928.5,-79.5 928.5,-60.5 1039.5,-60.5 1039.5,-79.5"/>
<text text-anchor="middle" x="984" y="-67.5" font-family="Helvetica,sans-Serif" font-size="10.00">udmaio/UioConfig.hpp</text>
</a>
</g>
</g>
<!-- Node3&#45;&gt;Node19 -->
<g id="edge18" class="edge">
<title>Node3&#45;&gt;Node19</title>
<path fill="none" stroke="#63b8ff" d="M912.76,-120.62C925.83,-111.51 946.41,-97.18 962.1,-86.25"/>
<polygon fill="#63b8ff" stroke="#63b8ff" points="963.67,-89.42 969.88,-80.83 959.67,-83.68 963.67,-89.42"/>
</g>
<!-- Node22 -->
<g id="node22" class="node">
<title>Node22</title>
<g id="a_node22"><a xlink:title=" ">
<polygon fill="#e0e0e0" stroke="#999999" points="576,-85 452,-85 452,-55 576,-55 576,-85"/>
<text text-anchor="start" x="460" y="-73" font-family="Helvetica,sans-Serif" font-size="10.00">boost/log/sources/record</text>
<text text-anchor="middle" x="514" y="-62" font-family="Helvetica,sans-Serif" font-size="10.00">_ostream.hpp</text>
</a>
</g>
</g>
<!-- Node3&#45;&gt;Node22 -->
<g id="edge22" class="edge">
<title>Node3&#45;&gt;Node22</title>
<path fill="none" stroke="#63b8ff" d="M854.76,-123.89C795.68,-116.4 688.79,-102.25 587.65,-85.39"/>
<polygon fill="#63b8ff" stroke="#63b8ff" points="588.24,-81.94 577.8,-83.73 587.08,-88.84 588.24,-81.94"/>
</g>
<!-- Node23 -->
<g id="node23" class="node">
<title>Node23</title>
<g id="a_node23"><a xlink:title=" ">
<polygon fill="#e0e0e0" stroke="#999999" points="725.5,-85 594.5,-85 594.5,-55 725.5,-55 725.5,-85"/>
<text text-anchor="start" x="602.5" y="-73" font-family="Helvetica,sans-Serif" font-size="10.00">boost/log/sources/severity</text>
<text text-anchor="middle" x="660" y="-62" font-family="Helvetica,sans-Serif" font-size="10.00">_logger.hpp</text>
</a>
</g>
</g>
<!-- Node3&#45;&gt;Node23 -->
<g id="edge23" class="edge">
<title>Node3&#45;&gt;Node23</title>
<path fill="none" stroke="#63b8ff" d="M863.29,-120.55C828.02,-111.95 773.8,-98.74 730.22,-88.12"/>
<polygon fill="#63b8ff" stroke="#63b8ff" points="731.12,-84.73 720.58,-85.77 729.46,-91.53 731.12,-84.73"/>
</g>
<!-- Node19&#45;&gt;Node6 -->
<g id="edge19" class="edge">
<title>Node19&#45;&gt;Node6</title>
<path fill="none" stroke="#63b8ff" d="M971.85,-60.12C959.52,-51.1 940.17,-36.95 925.28,-26.06"/>
<polygon fill="#63b8ff" stroke="#63b8ff" points="927.62,-23.44 917.49,-20.36 923.49,-29.09 927.62,-23.44"/>
</g>
<!-- Node20 -->
<g id="node20" class="node">
<title>Node20</title>
<g id="a_node20"><a xlink:title=" ">
<polygon fill="#e0e0e0" stroke="#999999" points="1010.5,-19 951.5,-19 951.5,0 1010.5,0 1010.5,-19"/>
<text text-anchor="middle" x="981" y="-7" font-family="Helvetica,sans-Serif" font-size="10.00">stdexcept</text>
</a>
</g>
</g>
<!-- Node19&#45;&gt;Node20 -->
<g id="edge20" class="edge">
<title>Node19&#45;&gt;Node20</title>
<path fill="none" stroke="#63b8ff" d="M983.56,-60.37C983.15,-52.5 982.54,-40.6 982.02,-30.39"/>
<polygon fill="#63b8ff" stroke="#63b8ff" points="985.53,-30.49 981.52,-20.68 978.54,-30.85 985.53,-30.49"/>
</g>
<!-- Node21 -->
<g id="node21" class="node">
<title>Node21</title>
<g id="a_node21"><a xlink:title=" ">
<polygon fill="#e0e0e0" stroke="#999999" points="1069.5,-19 1028.5,-19 1028.5,0 1069.5,0 1069.5,-19"/>
<text text-anchor="middle" x="1049" y="-7" font-family="Helvetica,sans-Serif" font-size="10.00">string</text>
</a>
</g>
</g>
<!-- Node19&#45;&gt;Node21 -->
<g id="edge21" class="edge">
<title>Node19&#45;&gt;Node21</title>
<path fill="none" stroke="#63b8ff" d="M993.87,-60.12C1003.61,-51.35 1018.72,-37.75 1030.66,-27"/>
<polygon fill="#63b8ff" stroke="#63b8ff" points="1032.82,-29.77 1037.91,-20.48 1028.14,-24.57 1032.82,-29.77"/>
</g>
</g>
</svg>
