<?xml version="1.0" encoding="UTF-8" standalone="no"?>
<!DOCTYPE svg PUBLIC "-//W3C//DTD SVG 1.1//EN"
 "http://www.w3.org/Graphics/SVG/1.1/DTD/svg11.dtd">
<!-- Generated by graphviz version 7.0.5 (20221223.1930)
 -->
<!-- Title: axi_dma_demo.cpp Pages: 1 -->
<svg width="2033pt" height="489pt"
 viewBox="0.00 0.00 2033.00 489.00" xmlns="http://www.w3.org/2000/svg" xmlns:xlink="http://www.w3.org/1999/xlink">
<g id="graph0" class="graph" transform="scale(1 1) rotate(0) translate(4 485)">
<title>axi_dma_demo.cpp</title>
<!-- Node1 -->
<g id="node1" class="node">
<title>Node1</title>
<g id="a_node1"><a xlink:title=" ">
<polygon fill="#999999" stroke="#666666" points="712.5,-481 612.5,-481 612.5,-462 712.5,-462 712.5,-481"/>
<text text-anchor="middle" x="662.5" y="-469" font-family="Helvetica,sans-Serif" font-size="10.00">axi_dma_demo.cpp</text>
</a>
</g>
</g>
<!-- Node2 -->
<g id="node2" class="node">
<title>Node2</title>
<g id="a_node2"><a xlink:title=" ">
<polygon fill="#e0e0e0" stroke="#999999" points="47,-426 0,-426 0,-407 47,-407 47,-426"/>
<text text-anchor="middle" x="23.5" y="-414" font-family="Helvetica,sans-Serif" font-size="10.00">csignal</text>
</a>
</g>
</g>
<!-- Node1&#45;&gt;Node2 -->
<g id="edge1" class="edge">
<title>Node1&#45;&gt;Node2</title>
<path fill="none" stroke="#63b8ff" d="M612.16,-469.97C509.52,-468.22 268.67,-460.62 58.41,-426.18"/>
<polygon fill="#63b8ff" stroke="#63b8ff" points="59.09,-422.75 48.65,-424.56 57.94,-429.65 59.09,-422.75"/>
</g>
<!-- Node3 -->
<g id="node3" class="node">
<title>Node3</title>
<g id="a_node3"><a xlink:title=" ">
<polygon fill="#e0e0e0" stroke="#999999" points="106,-426 65,-426 65,-407 106,-407 106,-426"/>
<text text-anchor="middle" x="85.5" y="-414" font-family="Helvetica,sans-Serif" font-size="10.00">future</text>
</a>
</g>
</g>
<!-- Node1&#45;&gt;Node3 -->
<g id="edge2" class="edge">
<title>Node1&#45;&gt;Node3</title>
<path fill="none" stroke="#63b8ff" d="M612.12,-468.99C515.98,-465.53 299.92,-454.97 120.5,-426 119.5,-425.84 118.49,-425.66 117.47,-425.48"/>
<polygon fill="#63b8ff" stroke="#63b8ff" points="118.48,-422.11 107.97,-423.47 117.03,-428.96 118.48,-422.11"/>
</g>
<!-- Node4 -->
<g id="node4" class="node">
<title>Node4</title>
<g id="a_node4"><a xlink:title=" ">
<polygon fill="#e0e0e0" stroke="#999999" points="518.5,-24.5 464.5,-24.5 464.5,-5.5 518.5,-5.5 518.5,-24.5"/>
<text text-anchor="middle" x="491.5" y="-12.5" font-family="Helvetica,sans-Serif" font-size="10.00">iostream</text>
</a>
</g>
</g>
<!-- Node1&#45;&gt;Node4 -->
<g id="edge3" class="edge">
<title>Node1&#45;&gt;Node4</title>
<path fill="none" stroke="#63b8ff" d="M612.35,-470.79C480.55,-470.21 134.5,-459.46 134.5,-362.5 134.5,-362.5 134.5,-362.5 134.5,-129.5 134.5,-100.04 131.23,-85.28 153.5,-66 197.65,-27.78 373.83,-18.77 452.83,-16.65"/>
<polygon fill="#63b8ff" stroke="#63b8ff" points="452.77,-20.16 462.68,-16.41 452.6,-13.16 452.77,-20.16"/>
</g>
<!-- Node5 -->
<g id="node5" class="node">
<title>Node5</title>
<g id="a_node5"><a xlink:title=" ">
<polygon fill="#e0e0e0" stroke="#999999" points="1098,-24.5 1039,-24.5 1039,-5.5 1098,-5.5 1098,-24.5"/>
<text text-anchor="middle" x="1068.5" y="-12.5" font-family="Helvetica,sans-Serif" font-size="10.00">stdexcept</text>
</a>
</g>
</g>
<!-- Node1&#45;&gt;Node5 -->
<g id="edge4" class="edge">
<title>Node1&#45;&gt;Node5</title>
<path fill="none" stroke="#63b8ff" d="M712.86,-468.69C869,-461.88 1339.59,-431.9 1424.5,-316 1465.54,-259.99 1484.48,-239.22 1212.5,-66 1170.89,-39.5 1154.05,-46.33 1107.5,-30 1106.35,-29.6 1105.17,-29.18 1103.99,-28.76"/>
<polygon fill="#63b8ff" stroke="#63b8ff" points="1105.26,-25.5 1094.66,-25.45 1102.91,-32.1 1105.26,-25.5"/>
</g>
<!-- Node6 -->
<g id="node6" class="node">
<title>Node6</title>
<g id="a_node6"><a xlink:href="_data_handler_print_8hpp.html" target="_top" xlink:title=" ">
<polygon fill="white" stroke="#666666" points="986,-426 877,-426 877,-407 986,-407 986,-426"/>
<text text-anchor="middle" x="931.5" y="-414" font-family="Helvetica,sans-Serif" font-size="10.00">DataHandlerPrint.hpp</text>
</a>
</g>
</g>
<!-- Node1&#45;&gt;Node6 -->
<g id="edge5" class="edge">
<title>Node1&#45;&gt;Node6</title>
<path fill="none" stroke="#63b8ff" d="M708.13,-461.51C754.16,-452.44 825.33,-438.42 874.92,-428.65"/>
<polygon fill="#63b8ff" stroke="#63b8ff" points="875.47,-432.11 884.61,-426.74 874.12,-425.24 875.47,-432.11"/>
</g>
<!-- Node16 -->
<g id="node16" class="node">
<title>Node16</title>
<g id="a_node16"><a xlink:href="_logging_8hpp.html" target="_top" xlink:title=" ">
<polygon fill="white" stroke="#666666" points="1483,-85 1414,-85 1414,-66 1483,-66 1483,-85"/>
<text text-anchor="middle" x="1448.5" y="-73" font-family="Helvetica,sans-Serif" font-size="10.00">Logging.hpp</text>
</a>
</g>
</g>
<!-- Node1&#45;&gt;Node16 -->
<g id="edge84" class="edge">
<title>Node1&#45;&gt;Node16</title>
<path fill="none" stroke="#63b8ff" d="M712.8,-469.79C876.88,-467.2 1389.98,-456.69 1457.5,-426 1493.41,-409.68 1519.5,-401.94 1519.5,-362.5 1519.5,-362.5 1519.5,-362.5 1519.5,-184.5 1519.5,-146.97 1489.2,-112.38 1468.18,-92.91"/>
<polygon fill="#63b8ff" stroke="#63b8ff" points="1470.53,-90.31 1460.73,-86.3 1465.89,-95.55 1470.53,-90.31"/>
</g>
<!-- Node24 -->
<g id="node24" class="node">
<title>Node24</title>
<g id="a_node24"><a xlink:href="_u_dma_buf_8hpp.html" target="_top" xlink:title=" ">
<polygon fill="white" stroke="#666666" points="1065,-310.5 988,-310.5 988,-291.5 1065,-291.5 1065,-310.5"/>
<text text-anchor="middle" x="1026.5" y="-298.5" font-family="Helvetica,sans-Serif" font-size="10.00">UDmaBuf.hpp</text>
</a>
</g>
</g>
<!-- Node1&#45;&gt;Node24 -->
<g id="edge85" class="edge">
<title>Node1&#45;&gt;Node24</title>
<path fill="none" stroke="#63b8ff" d="M679.54,-461.6C718.68,-441.27 818.2,-390.25 903.5,-352 933.23,-338.67 967.63,-324.81 992.48,-315.08"/>
<polygon fill="#63b8ff" stroke="#63b8ff" points="993.71,-318.36 1001.76,-311.46 991.17,-311.83 993.71,-318.36"/>
</g>
<!-- Node29 -->
<g id="node29" class="node">
<title>Node29</title>
<g id="a_node29"><a xlink:href="_uio_axi_dma_if_8hpp.html" target="_top" xlink:title=" ">
<polygon fill="white" stroke="#666666" points="746,-310.5 657,-310.5 657,-291.5 746,-291.5 746,-310.5"/>
<text text-anchor="middle" x="701.5" y="-298.5" font-family="Helvetica,sans-Serif" font-size="10.00">UioAxiDmaIf.hpp</text>
</a>
</g>
</g>
<!-- Node1&#45;&gt;Node29 -->
<g id="edge86" class="edge">
<title>Node1&#45;&gt;Node29</title>
<path fill="none" stroke="#63b8ff" d="M667.38,-461.57C671.98,-452.78 678.71,-438.83 682.5,-426 693.06,-390.25 697.99,-346.87 700.1,-322.05"/>
<polygon fill="#63b8ff" stroke="#63b8ff" points="703.57,-322.65 700.85,-312.41 696.59,-322.11 703.57,-322.65"/>
</g>
<!-- Node31 -->
<g id="node31" class="node">
<title>Node31</title>
<g id="a_node31"><a xlink:href="_uio_if_8hpp.html" target="_top" xlink:title=" ">
<polygon fill="white" stroke="#666666" points="667.5,-195 577.5,-195 577.5,-176 667.5,-176 667.5,-195"/>
<text text-anchor="middle" x="622.5" y="-183" font-family="Helvetica,sans-Serif" font-size="10.00">udmaio/UioIf.hpp</text>
</a>
</g>
</g>
<!-- Node1&#45;&gt;Node31 -->
<g id="edge87" class="edge">
<title>Node1&#45;&gt;Node31</title>
<path fill="none" stroke="#63b8ff" d="M612.08,-463.87C555.79,-453.31 472.5,-426.81 472.5,-362.5 472.5,-362.5 472.5,-362.5 472.5,-300 472.5,-268.19 469.68,-254.14 491.5,-231 510.88,-210.45 540.1,-199.39 566.02,-193.44"/>
<polygon fill="#63b8ff" stroke="#63b8ff" points="566.71,-196.87 575.79,-191.42 565.29,-190.01 566.71,-196.87"/>
</g>
<!-- Node41 -->
<g id="node41" class="node">
<title>Node41</title>
<g id="a_node41"><a xlink:href="_uio_mem_sgdma_8hpp.html" target="_top" xlink:title=" ">
<polygon fill="white" stroke="#666666" points="969.5,-310.5 867.5,-310.5 867.5,-291.5 969.5,-291.5 969.5,-310.5"/>
<text text-anchor="middle" x="918.5" y="-298.5" font-family="Helvetica,sans-Serif" font-size="10.00">UioMemSgdma.hpp</text>
</a>
</g>
</g>
<!-- Node1&#45;&gt;Node41 -->
<g id="edge88" class="edge">
<title>Node1&#45;&gt;Node41</title>
<path fill="none" stroke="#63b8ff" d="M669.02,-461.77C685.55,-440.22 731.32,-383.93 781.5,-352 808.72,-334.68 842.8,-322.21 870.15,-314.06"/>
<polygon fill="#63b8ff" stroke="#63b8ff" points="870.94,-317.48 879.58,-311.35 869,-310.75 870.94,-317.48"/>
</g>
<!-- Node43 -->
<g id="node43" class="node">
<title>Node43</title>
<g id="a_node43"><a xlink:href="_uio_gpio_status_8hpp.html" target="_top" xlink:title=" ">
<polygon fill="white" stroke="#666666" points="673.5,-426 575.5,-426 575.5,-407 673.5,-407 673.5,-426"/>
<text text-anchor="middle" x="624.5" y="-414" font-family="Helvetica,sans-Serif" font-size="10.00">UioGpioStatus.hpp</text>
</a>
</g>
</g>
<!-- Node1&#45;&gt;Node43 -->
<g id="edge75" class="edge">
<title>Node1&#45;&gt;Node43</title>
<path fill="none" stroke="#63b8ff" d="M656.23,-461.75C651.14,-454.66 643.8,-444.42 637.47,-435.59"/>
<polygon fill="#63b8ff" stroke="#63b8ff" points="640.46,-433.76 631.79,-427.67 634.78,-437.84 640.46,-433.76"/>
</g>
<!-- Node44 -->
<g id="node44" class="node">
<title>Node44</title>
<g id="a_node44"><a xlink:href="_uio_traffic_gen_8hpp.html" target="_top" xlink:title=" ">
<polygon fill="white" stroke="#666666" points="594.5,-371 500.5,-371 500.5,-352 594.5,-352 594.5,-371"/>
<text text-anchor="middle" x="547.5" y="-359" font-family="Helvetica,sans-Serif" font-size="10.00">UioTrafficGen.hpp</text>
</a>
</g>
</g>
<!-- Node1&#45;&gt;Node44 -->
<g id="edge77" class="edge">
<title>Node1&#45;&gt;Node44</title>
<path fill="none" stroke="#63b8ff" d="M626.05,-461.58C605.89,-454.9 581.89,-443.77 566.5,-426 556,-413.88 551.3,-396.14 549.2,-382.49"/>
<polygon fill="#63b8ff" stroke="#63b8ff" points="552.72,-382.41 548.08,-372.89 545.76,-383.22 552.72,-382.41"/>
</g>
<!-- Node45 -->
<g id="node45" class="node">
<title>Node45</title>
<g id="a_node45"><a xlink:href="_fpga_mem_buffer_over_xdma_8hpp.html" target="_top" xlink:title=" ">
<polygon fill="white" stroke="#666666" points="389,-316 248,-316 248,-286 389,-286 389,-316"/>
<text text-anchor="start" x="256" y="-304" font-family="Helvetica,sans-Serif" font-size="10.00">udmaio/FpgaMemBufferOver</text>
<text text-anchor="middle" x="318.5" y="-293" font-family="Helvetica,sans-Serif" font-size="10.00">Xdma.hpp</text>
</a>
</g>
</g>
<!-- Node1&#45;&gt;Node45 -->
<g id="edge79" class="edge">
<title>Node1&#45;&gt;Node45</title>
<path fill="none" stroke="#63b8ff" d="M612.33,-466.69C569.51,-461.81 507.31,-450.78 458.5,-426 408.6,-400.67 362.44,-353.24 337.59,-324.95"/>
<polygon fill="#63b8ff" stroke="#63b8ff" points="340.47,-322.93 331.29,-317.64 335.17,-327.5 340.47,-322.93"/>
</g>
<!-- Node46 -->
<g id="node46" class="node">
<title>Node46</title>
<g id="a_node46"><a xlink:title=" ">
<polygon fill="#e0e0e0" stroke="#999999" points="1681.5,-426 1547.5,-426 1547.5,-407 1681.5,-407 1681.5,-426"/>
<text text-anchor="middle" x="1614.5" y="-414" font-family="Helvetica,sans-Serif" font-size="10.00">boost/program_options.hpp</text>
</a>
</g>
</g>
<!-- Node1&#45;&gt;Node46 -->
<g id="edge89" class="edge">
<title>Node1&#45;&gt;Node46</title>
<path fill="none" stroke="#63b8ff" d="M712.64,-468.88C846.22,-464.35 1221.78,-450.3 1533.5,-426 1534.35,-425.93 1535.2,-425.87 1536.05,-425.8"/>
<polygon fill="#63b8ff" stroke="#63b8ff" points="1536.17,-429.3 1545.83,-424.96 1535.57,-422.33 1536.17,-429.3"/>
</g>
<!-- Node7 -->
<g id="node7" class="node">
<title>Node7</title>
<g id="a_node7"><a xlink:title=" ">
<polygon fill="#e0e0e0" stroke="#999999" points="1241.5,-371 1191.5,-371 1191.5,-352 1241.5,-352 1241.5,-371"/>
<text text-anchor="middle" x="1216.5" y="-359" font-family="Helvetica,sans-Serif" font-size="10.00">optional</text>
</a>
</g>
</g>
<!-- Node6&#45;&gt;Node7 -->
<g id="edge6" class="edge">
<title>Node6&#45;&gt;Node7</title>
<path fill="none" stroke="#63b8ff" d="M986.06,-406.95C1034.56,-399.1 1107.63,-386.65 1180.14,-371.38"/>
<polygon fill="#63b8ff" stroke="#63b8ff" points="1180.76,-374.83 1189.81,-369.32 1179.3,-367.98 1180.76,-374.83"/>
</g>
<!-- Node8 -->
<g id="node8" class="node">
<title>Node8</title>
<g id="a_node8"><a xlink:title=" ">
<polygon fill="#e0e0e0" stroke="#999999" points="951,-371 912,-371 912,-352 951,-352 951,-371"/>
<text text-anchor="middle" x="931.5" y="-359" font-family="Helvetica,sans-Serif" font-size="10.00">utility</text>
</a>
</g>
</g>
<!-- Node6&#45;&gt;Node8 -->
<g id="edge7" class="edge">
<title>Node6&#45;&gt;Node8</title>
<path fill="none" stroke="#63b8ff" d="M931.5,-406.75C931.5,-400.27 931.5,-391.16 931.5,-382.9"/>
<polygon fill="#63b8ff" stroke="#63b8ff" points="935,-382.96 931.5,-372.96 928,-382.96 935,-382.96"/>
</g>
<!-- Node9 -->
<g id="node9" class="node">
<title>Node9</title>
<g id="a_node9"><a xlink:href="_axi_traffic_gen_lfsr_8hpp.html" target="_top" xlink:title=" ">
<polygon fill="white" stroke="#666666" points="894.5,-250 784.5,-250 784.5,-231 894.5,-231 894.5,-250"/>
<text text-anchor="middle" x="839.5" y="-238" font-family="Helvetica,sans-Serif" font-size="10.00">AxiTrafficGenLfsr.hpp</text>
</a>
</g>
</g>
<!-- Node6&#45;&gt;Node9 -->
<g id="edge8" class="edge">
<title>Node6&#45;&gt;Node9</title>
<path fill="none" stroke="#63b8ff" d="M923.15,-406.67C908.01,-390.18 875.98,-353 858.5,-316 850.21,-298.46 845.21,-276.83 842.44,-261.4"/>
<polygon fill="#63b8ff" stroke="#63b8ff" points="845.91,-260.93 840.85,-251.62 839,-262.06 845.91,-260.93"/>
</g>
<!-- Node11 -->
<g id="node11" class="node">
<title>Node11</title>
<g id="a_node11"><a xlink:href="_data_handler_abstract_8hpp.html" target="_top" xlink:title=" ">
<polygon fill="white" stroke="#666666" points="1173.5,-371 1013.5,-371 1013.5,-352 1173.5,-352 1173.5,-371"/>
<text text-anchor="middle" x="1093.5" y="-359" font-family="Helvetica,sans-Serif" font-size="10.00">udmaio/DataHandlerAbstract.hpp</text>
</a>
</g>
</g>
<!-- Node6&#45;&gt;Node11 -->
<g id="edge10" class="edge">
<title>Node6&#45;&gt;Node11</title>
<path fill="none" stroke="#63b8ff" d="M958.98,-406.51C985.48,-397.84 1025.8,-384.65 1055.39,-374.97"/>
<polygon fill="#63b8ff" stroke="#63b8ff" points="1056.3,-378.35 1064.72,-371.92 1054.12,-371.7 1056.3,-378.35"/>
</g>
<!-- Node10 -->
<g id="node10" class="node">
<title>Node10</title>
<g id="a_node10"><a xlink:title=" ">
<polygon fill="#e0e0e0" stroke="#999999" points="797.5,-195 751.5,-195 751.5,-176 797.5,-176 797.5,-195"/>
<text text-anchor="middle" x="774.5" y="-183" font-family="Helvetica,sans-Serif" font-size="10.00">cstdint</text>
</a>
</g>
</g>
<!-- Node9&#45;&gt;Node10 -->
<g id="edge9" class="edge">
<title>Node9&#45;&gt;Node10</title>
<path fill="none" stroke="#63b8ff" d="M828.47,-230.51C819.08,-222.85 805.35,-211.66 794.09,-202.47"/>
<polygon fill="#63b8ff" stroke="#63b8ff" points="796.5,-199.92 786.54,-196.31 792.07,-205.35 796.5,-199.92"/>
</g>
<!-- Node12 -->
<g id="node12" class="node">
<title>Node12</title>
<g id="a_node12"><a xlink:title=" ">
<polygon fill="#e0e0e0" stroke="#999999" points="1021,-24.5 980,-24.5 980,-5.5 1021,-5.5 1021,-24.5"/>
<text text-anchor="middle" x="1000.5" y="-12.5" font-family="Helvetica,sans-Serif" font-size="10.00">string</text>
</a>
</g>
</g>
<!-- Node11&#45;&gt;Node12 -->
<g id="edge11" class="edge">
<title>Node11&#45;&gt;Node12</title>
<path fill="none" stroke="#63b8ff" d="M1105.15,-351.76C1134.74,-328.46 1210.5,-261.49 1210.5,-186.5 1210.5,-186.5 1210.5,-186.5 1210.5,-129.5 1210.5,-100.04 1213.05,-86.08 1191.5,-66 1137.85,-16.02 1099.91,-53.64 1030.5,-30 1029.85,-29.78 1029.2,-29.55 1028.55,-29.31"/>
<polygon fill="#63b8ff" stroke="#63b8ff" points="1029.98,-26.12 1019.4,-25.52 1027.3,-32.58 1029.98,-26.12"/>
</g>
<!-- Node13 -->
<g id="node13" class="node">
<title>Node13</title>
<g id="a_node13"><a xlink:title=" ">
<polygon fill="#e0e0e0" stroke="#999999" points="1137.5,-195 1093.5,-195 1093.5,-176 1137.5,-176 1137.5,-195"/>
<text text-anchor="middle" x="1115.5" y="-183" font-family="Helvetica,sans-Serif" font-size="10.00">vector</text>
</a>
</g>
</g>
<!-- Node11&#45;&gt;Node13 -->
<g id="edge12" class="edge">
<title>Node11&#45;&gt;Node13</title>
<path fill="none" stroke="#63b8ff" d="M1094.62,-351.63C1098.02,-324.75 1108.26,-243.73 1113.02,-206.1"/>
<polygon fill="#63b8ff" stroke="#63b8ff" points="1116.44,-207.01 1114.22,-196.65 1109.49,-206.13 1116.44,-207.01"/>
</g>
<!-- Node14 -->
<g id="node14" class="node">
<title>Node14</title>
<g id="a_node14"><a xlink:title=" ">
<polygon fill="#e0e0e0" stroke="#999999" points="1277.5,-310.5 1197.5,-310.5 1197.5,-291.5 1277.5,-291.5 1277.5,-310.5"/>
<text text-anchor="middle" x="1237.5" y="-298.5" font-family="Helvetica,sans-Serif" font-size="10.00">boost/asio.hpp</text>
</a>
</g>
</g>
<!-- Node11&#45;&gt;Node14 -->
<g id="edge13" class="edge">
<title>Node11&#45;&gt;Node14</title>
<path fill="none" stroke="#63b8ff" d="M1115.37,-351.62C1139.16,-341.95 1177.44,-326.4 1204.8,-315.28"/>
<polygon fill="#63b8ff" stroke="#63b8ff" points="1206.07,-318.54 1214.02,-311.54 1203.44,-312.06 1206.07,-318.54"/>
</g>
<!-- Node15 -->
<g id="node15" class="node">
<title>Node15</title>
<g id="a_node15"><a xlink:title=" ">
<polygon fill="#e0e0e0" stroke="#999999" points="1182,-85 1045,-85 1045,-66 1182,-66 1182,-85"/>
<text text-anchor="middle" x="1113.5" y="-73" font-family="Helvetica,sans-Serif" font-size="10.00">boost/core/noncopyable.hpp</text>
</a>
</g>
</g>
<!-- Node11&#45;&gt;Node15 -->
<g id="edge14" class="edge">
<title>Node11&#45;&gt;Node15</title>
<path fill="none" stroke="#63b8ff" d="M1098.88,-351.84C1114.44,-325.74 1157.71,-245.42 1146.5,-176 1141.84,-147.15 1130.04,-115.34 1121.89,-95.64"/>
<polygon fill="#63b8ff" stroke="#63b8ff" points="1125.23,-94.53 1118.09,-86.7 1118.79,-97.28 1125.23,-94.53"/>
</g>
<!-- Node11&#45;&gt;Node16 -->
<g id="edge15" class="edge">
<title>Node11&#45;&gt;Node16</title>
<path fill="none" stroke="#63b8ff" d="M1171.49,-351.53C1265.88,-340.45 1413.64,-322.3 1424.5,-316 1460.56,-295.08 1481.5,-283.19 1481.5,-241.5 1481.5,-241.5 1481.5,-241.5 1481.5,-184.5 1481.5,-152.24 1467.87,-116.84 1458.13,-95.66"/>
<polygon fill="#63b8ff" stroke="#63b8ff" points="1461.37,-94.32 1453.88,-86.83 1455.06,-97.36 1461.37,-94.32"/>
</g>
<!-- Node11&#45;&gt;Node24 -->
<g id="edge24" class="edge">
<title>Node11&#45;&gt;Node24</title>
<path fill="none" stroke="#63b8ff" d="M1083.32,-351.62C1073.29,-342.85 1057.71,-329.25 1045.4,-318.5"/>
<polygon fill="#63b8ff" stroke="#63b8ff" points="1047.75,-315.9 1037.91,-311.96 1043.14,-321.18 1047.75,-315.9"/>
</g>
<!-- Node11&#45;&gt;Node29 -->
<g id="edge37" class="edge">
<title>Node11&#45;&gt;Node29</title>
<path fill="none" stroke="#63b8ff" d="M1033.54,-351.55C958.41,-340.34 830.68,-321.28 757.48,-310.35"/>
<polygon fill="#63b8ff" stroke="#63b8ff" points="758.12,-306.91 747.71,-308.9 757.09,-313.83 758.12,-306.91"/>
</g>
<!-- Node11&#45;&gt;Node41 -->
<g id="edge71" class="edge">
<title>Node11&#45;&gt;Node41</title>
<path fill="none" stroke="#63b8ff" d="M1066.92,-351.62C1037.37,-341.74 989.41,-325.71 956.04,-314.55"/>
<polygon fill="#63b8ff" stroke="#63b8ff" points="957.36,-311.3 946.76,-311.45 955.14,-317.94 957.36,-311.3"/>
</g>
<!-- Node42 -->
<g id="node42" class="node">
<title>Node42</title>
<g id="a_node42"><a xlink:title=" ">
<polygon fill="#e0e0e0" stroke="#999999" points="1415.5,-316 1295.5,-316 1295.5,-286 1415.5,-286 1415.5,-316"/>
<text text-anchor="start" x="1303.5" y="-304" font-family="Helvetica,sans-Serif" font-size="10.00">boost/asio/posix/stream</text>
<text text-anchor="middle" x="1355.5" y="-293" font-family="Helvetica,sans-Serif" font-size="10.00">_descriptor.hpp</text>
</a>
</g>
</g>
<!-- Node11&#45;&gt;Node42 -->
<g id="edge74" class="edge">
<title>Node11&#45;&gt;Node42</title>
<path fill="none" stroke="#63b8ff" d="M1133.58,-351.55C1173.61,-342.61 1235.99,-328.69 1284.43,-317.87"/>
<polygon fill="#63b8ff" stroke="#63b8ff" points="1285,-321.33 1294,-315.73 1283.48,-314.49 1285,-321.33"/>
</g>
<!-- Node16&#45;&gt;Node12 -->
<g id="edge16" class="edge">
<title>Node16&#45;&gt;Node12</title>
<path fill="none" stroke="#63b8ff" d="M1413.65,-74.63C1341,-74.09 1168.66,-68.44 1030.5,-30 1029.51,-29.72 1028.51,-29.42 1027.5,-29.09"/>
<polygon fill="#63b8ff" stroke="#63b8ff" points="1028.93,-25.89 1018.35,-25.42 1026.33,-32.39 1028.93,-25.89"/>
</g>
<!-- Node17 -->
<g id="node17" class="node">
<title>Node17</title>
<g id="a_node17"><a xlink:title=" ">
<polygon fill="#e0e0e0" stroke="#999999" points="1758.5,-24.5 1662.5,-24.5 1662.5,-5.5 1758.5,-5.5 1758.5,-24.5"/>
<text text-anchor="middle" x="1710.5" y="-12.5" font-family="Helvetica,sans-Serif" font-size="10.00">boost/log/core.hpp</text>
</a>
</g>
</g>
<!-- Node16&#45;&gt;Node17 -->
<g id="edge17" class="edge">
<title>Node16&#45;&gt;Node17</title>
<path fill="none" stroke="#63b8ff" d="M1483.39,-67.23C1524.23,-58.64 1593.89,-43.79 1653.5,-30 1656.82,-29.23 1660.24,-28.43 1663.69,-27.61"/>
<polygon fill="#63b8ff" stroke="#63b8ff" points="1664.28,-31.06 1673.18,-25.32 1662.64,-24.26 1664.28,-31.06"/>
</g>
<!-- Node18 -->
<g id="node18" class="node">
<title>Node18</title>
<g id="a_node18"><a xlink:title=" ">
<polygon fill="#e0e0e0" stroke="#999999" points="1906,-24.5 1777,-24.5 1777,-5.5 1906,-5.5 1906,-24.5"/>
<text text-anchor="middle" x="1841.5" y="-12.5" font-family="Helvetica,sans-Serif" font-size="10.00">boost/log/expressions.hpp</text>
</a>
</g>
</g>
<!-- Node16&#45;&gt;Node18 -->
<g id="edge18" class="edge">
<title>Node16&#45;&gt;Node18</title>
<path fill="none" stroke="#63b8ff" d="M1483.04,-70.24C1541.66,-62.88 1664.32,-46.95 1767.5,-30 1773.16,-29.07 1779.05,-28.05 1784.94,-26.99"/>
<polygon fill="#63b8ff" stroke="#63b8ff" points="1785.47,-30.45 1794.68,-25.21 1784.21,-23.57 1785.47,-30.45"/>
</g>
<!-- Node19 -->
<g id="node19" class="node">
<title>Node19</title>
<g id="a_node19"><a xlink:title=" ">
<polygon fill="#e0e0e0" stroke="#999999" points="2025,-24.5 1924,-24.5 1924,-5.5 2025,-5.5 2025,-24.5"/>
<text text-anchor="middle" x="1974.5" y="-12.5" font-family="Helvetica,sans-Serif" font-size="10.00">boost/log/trivial.hpp</text>
</a>
</g>
</g>
<!-- Node16&#45;&gt;Node19 -->
<g id="edge19" class="edge">
<title>Node16&#45;&gt;Node19</title>
<path fill="none" stroke="#63b8ff" d="M1483.28,-72.83C1561.13,-68.73 1755.2,-56.53 1915.5,-30 1920.06,-29.25 1924.78,-28.34 1929.49,-27.35"/>
<polygon fill="#63b8ff" stroke="#63b8ff" points="1929.86,-30.86 1938.87,-25.28 1928.35,-24.02 1929.86,-30.86"/>
</g>
<!-- Node20 -->
<g id="node20" class="node">
<title>Node20</title>
<g id="a_node20"><a xlink:title=" ">
<polygon fill="#e0e0e0" stroke="#999999" points="1225,-30 1116,-30 1116,0 1225,0 1225,-30"/>
<text text-anchor="start" x="1124" y="-18" font-family="Helvetica,sans-Serif" font-size="10.00">boost/log/utility/setup</text>
<text text-anchor="middle" x="1170.5" y="-7" font-family="Helvetica,sans-Serif" font-size="10.00">/console.hpp</text>
</a>
</g>
</g>
<!-- Node16&#45;&gt;Node20 -->
<g id="edge20" class="edge">
<title>Node16&#45;&gt;Node20</title>
<path fill="none" stroke="#63b8ff" d="M1413.63,-67.37C1373.41,-59.11 1304.99,-44.99 1236.32,-30.38"/>
<polygon fill="#63b8ff" stroke="#63b8ff" points="1237.29,-27 1226.79,-28.34 1235.84,-33.85 1237.29,-27"/>
</g>
<!-- Node21 -->
<g id="node21" class="node">
<title>Node21</title>
<g id="a_node21"><a xlink:title=" ">
<polygon fill="#e0e0e0" stroke="#999999" points="1374,-30 1243,-30 1243,0 1374,0 1374,-30"/>
<text text-anchor="start" x="1251" y="-18" font-family="Helvetica,sans-Serif" font-size="10.00">boost/log/sources/severity</text>
<text text-anchor="middle" x="1308.5" y="-7" font-family="Helvetica,sans-Serif" font-size="10.00">_channel_logger.hpp</text>
</a>
</g>
</g>
<!-- Node16&#45;&gt;Node21 -->
<g id="edge21" class="edge">
<title>Node16&#45;&gt;Node21</title>
<path fill="none" stroke="#63b8ff" d="M1427.24,-65.62C1407.78,-57.48 1378.35,-45.19 1353.66,-34.87"/>
<polygon fill="#63b8ff" stroke="#63b8ff" points="1355.03,-31.65 1344.45,-31.02 1352.33,-38.11 1355.03,-31.65"/>
</g>
<!-- Node22 -->
<g id="node22" class="node">
<title>Node22</title>
<g id="a_node22"><a xlink:title=" ">
<polygon fill="#e0e0e0" stroke="#999999" points="1505,-30 1392,-30 1392,0 1505,0 1505,-30"/>
<text text-anchor="start" x="1400" y="-18" font-family="Helvetica,sans-Serif" font-size="10.00">boost/log/support/date</text>
<text text-anchor="middle" x="1448.5" y="-7" font-family="Helvetica,sans-Serif" font-size="10.00">_time.hpp</text>
</a>
</g>
</g>
<!-- Node16&#45;&gt;Node22 -->
<g id="edge22" class="edge">
<title>Node16&#45;&gt;Node22</title>
<path fill="none" stroke="#63b8ff" d="M1448.5,-65.87C1448.5,-59.4 1448.5,-50.2 1448.5,-41.45"/>
<polygon fill="#63b8ff" stroke="#63b8ff" points="1452,-41.63 1448.5,-31.63 1445,-41.63 1452,-41.63"/>
</g>
<!-- Node23 -->
<g id="node23" class="node">
<title>Node23</title>
<g id="a_node23"><a xlink:title=" ">
<polygon fill="#e0e0e0" stroke="#999999" points="1644,-30 1523,-30 1523,0 1644,0 1644,-30"/>
<text text-anchor="start" x="1531" y="-18" font-family="Helvetica,sans-Serif" font-size="10.00">boost/log/utility/setup</text>
<text text-anchor="middle" x="1583.5" y="-7" font-family="Helvetica,sans-Serif" font-size="10.00">/common_attributes.hpp</text>
</a>
</g>
</g>
<!-- Node16&#45;&gt;Node23 -->
<g id="edge23" class="edge">
<title>Node16&#45;&gt;Node23</title>
<path fill="none" stroke="#63b8ff" d="M1469,-65.62C1487.68,-57.52 1515.89,-45.3 1539.63,-35.01"/>
<polygon fill="#63b8ff" stroke="#63b8ff" points="1541.01,-38.23 1548.79,-31.04 1538.22,-31.81 1541.01,-38.23"/>
</g>
<!-- Node24&#45;&gt;Node16 -->
<g id="edge35" class="edge">
<title>Node24&#45;&gt;Node16</title>
<path fill="none" stroke="#63b8ff" d="M1043.3,-291.1C1108.15,-256.76 1342.43,-132.68 1421.91,-90.58"/>
<polygon fill="#63b8ff" stroke="#63b8ff" points="1423.11,-93.91 1430.31,-86.13 1419.84,-87.72 1423.11,-93.91"/>
</g>
<!-- Node25 -->
<g id="node25" class="node">
<title>Node25</title>
<g id="a_node25"><a xlink:href="_dma_buffer_abstract_8hpp.html" target="_top" xlink:title=" ">
<polygon fill="white" stroke="#666666" points="1030,-250 913,-250 913,-231 1030,-231 1030,-250"/>
<text text-anchor="middle" x="971.5" y="-238" font-family="Helvetica,sans-Serif" font-size="10.00">DmaBufferAbstract.hpp</text>
</a>
</g>
</g>
<!-- Node24&#45;&gt;Node25 -->
<g id="edge25" class="edge">
<title>Node24&#45;&gt;Node25</title>
<path fill="none" stroke="#63b8ff" d="M1018.38,-291.37C1010.26,-282.73 997.54,-269.2 987.4,-258.42"/>
<polygon fill="#63b8ff" stroke="#63b8ff" points="990.09,-256.16 980.69,-251.27 984.99,-260.95 990.09,-256.16"/>
</g>
<!-- Node26 -->
<g id="node26" class="node">
<title>Node26</title>
<g id="a_node26"><a xlink:href="_uio_config_8hpp.html" target="_top" xlink:title=" ">
<polygon fill="white" stroke="#666666" points="988,-85 877,-85 877,-66 988,-66 988,-85"/>
<text text-anchor="middle" x="932.5" y="-73" font-family="Helvetica,sans-Serif" font-size="10.00">udmaio/UioConfig.hpp</text>
</a>
</g>
</g>
<!-- Node24&#45;&gt;Node26 -->
<g id="edge36" class="edge">
<title>Node24&#45;&gt;Node26</title>
<path fill="none" stroke="#63b8ff" d="M1030.79,-291.35C1036.75,-278.12 1046.12,-252.18 1039.5,-231 1021.75,-174.2 974.98,-119.92 949.55,-93.39"/>
<polygon fill="#63b8ff" stroke="#63b8ff" points="952.38,-91.27 942.88,-86.58 947.38,-96.17 952.38,-91.27"/>
</g>
<!-- Node25&#45;&gt;Node10 -->
<g id="edge26" class="edge">
<title>Node25&#45;&gt;Node10</title>
<path fill="none" stroke="#63b8ff" d="M938.08,-230.51C902.12,-220.84 845.22,-205.53 808.89,-195.75"/>
<polygon fill="#63b8ff" stroke="#63b8ff" points="809.9,-192.4 799.34,-193.18 808.08,-199.16 809.9,-192.4"/>
</g>
<!-- Node25&#45;&gt;Node13 -->
<g id="edge27" class="edge">
<title>Node25&#45;&gt;Node13</title>
<path fill="none" stroke="#63b8ff" d="M995.93,-230.51C1019.8,-221.72 1056.3,-208.29 1082.69,-198.57"/>
<polygon fill="#63b8ff" stroke="#63b8ff" points="1083.72,-201.92 1091.9,-195.19 1081.31,-195.36 1083.72,-201.92"/>
</g>
<!-- Node25&#45;&gt;Node15 -->
<g id="edge28" class="edge">
<title>Node25&#45;&gt;Node15</title>
<path fill="none" stroke="#63b8ff" d="M979.13,-230.74C1001.67,-204.87 1068.22,-128.48 1098.36,-93.88"/>
<polygon fill="#63b8ff" stroke="#63b8ff" points="1100.9,-96.29 1104.83,-86.45 1095.63,-91.69 1100.9,-96.29"/>
</g>
<!-- Node25&#45;&gt;Node26 -->
<g id="edge29" class="edge">
<title>Node25&#45;&gt;Node26</title>
<path fill="none" stroke="#63b8ff" d="M969.4,-230.74C963.35,-205.42 945.71,-131.72 937.2,-96.16"/>
<polygon fill="#63b8ff" stroke="#63b8ff" points="940.69,-95.69 934.96,-86.78 933.88,-97.32 940.69,-95.69"/>
</g>
<!-- Node26&#45;&gt;Node4 -->
<g id="edge30" class="edge">
<title>Node26&#45;&gt;Node4</title>
<path fill="none" stroke="#63b8ff" d="M876.65,-67.09C785.82,-55.04 608.4,-31.51 530.15,-21.13"/>
<polygon fill="#63b8ff" stroke="#63b8ff" points="530.78,-17.68 520.41,-19.83 529.86,-24.62 530.78,-17.68"/>
</g>
<!-- Node26&#45;&gt;Node5 -->
<g id="edge32" class="edge">
<title>Node26&#45;&gt;Node5</title>
<path fill="none" stroke="#63b8ff" d="M953.16,-65.62C975.52,-55.99 1011.46,-40.54 1037.27,-29.43"/>
<polygon fill="#63b8ff" stroke="#63b8ff" points="1038.46,-32.73 1046.26,-25.57 1035.69,-26.3 1038.46,-32.73"/>
</g>
<!-- Node26&#45;&gt;Node12 -->
<g id="edge33" class="edge">
<title>Node26&#45;&gt;Node12</title>
<path fill="none" stroke="#63b8ff" d="M942.83,-65.62C953.11,-56.77 969.13,-42.98 981.68,-32.19"/>
<polygon fill="#63b8ff" stroke="#63b8ff" points="983.63,-35.13 988.93,-25.96 979.06,-29.82 983.63,-35.13"/>
</g>
<!-- Node27 -->
<g id="node27" class="node">
<title>Node27</title>
<g id="a_node27"><a xlink:title=" ">
<polygon fill="#e0e0e0" stroke="#999999" points="874,-24.5 823,-24.5 823,-5.5 874,-5.5 874,-24.5"/>
<text text-anchor="middle" x="848.5" y="-12.5" font-family="Helvetica,sans-Serif" font-size="10.00">memory</text>
</a>
</g>
</g>
<!-- Node26&#45;&gt;Node27 -->
<g id="edge31" class="edge">
<title>Node26&#45;&gt;Node27</title>
<path fill="none" stroke="#63b8ff" d="M919.74,-65.62C906.67,-56.51 886.09,-42.18 870.4,-31.25"/>
<polygon fill="#63b8ff" stroke="#63b8ff" points="872.83,-28.68 862.62,-25.83 868.83,-34.42 872.83,-28.68"/>
</g>
<!-- Node28 -->
<g id="node28" class="node">
<title>Node28</title>
<g id="a_node28"><a xlink:title=" ">
<polygon fill="#e0e0e0" stroke="#999999" points="961.5,-24.5 895.5,-24.5 895.5,-5.5 961.5,-5.5 961.5,-24.5"/>
<text text-anchor="middle" x="928.5" y="-12.5" font-family="Helvetica,sans-Serif" font-size="10.00">string_view</text>
</a>
</g>
</g>
<!-- Node26&#45;&gt;Node28 -->
<g id="edge34" class="edge">
<title>Node26&#45;&gt;Node28</title>
<path fill="none" stroke="#63b8ff" d="M931.91,-65.87C931.37,-58 930.56,-46.1 929.86,-35.89"/>
<polygon fill="#63b8ff" stroke="#63b8ff" points="933.37,-35.92 929.2,-26.18 926.39,-36.39 933.37,-35.92"/>
</g>
<!-- Node30 -->
<g id="node30" class="node">
<title>Node30</title>
<g id="a_node30"><a xlink:href="_reg_accessor_8hpp.html" target="_top" xlink:title=" ">
<polygon fill="white" stroke="#666666" points="594,-250 501,-250 501,-231 594,-231 594,-250"/>
<text text-anchor="middle" x="547.5" y="-238" font-family="Helvetica,sans-Serif" font-size="10.00">RegAccessor.hpp</text>
</a>
</g>
</g>
<!-- Node29&#45;&gt;Node30 -->
<g id="edge38" class="edge">
<title>Node29&#45;&gt;Node30</title>
<path fill="none" stroke="#63b8ff" d="M678.11,-291.12C652.44,-281.37 611,-265.62 581.69,-254.49"/>
<polygon fill="#63b8ff" stroke="#63b8ff" points="583.12,-251.29 572.52,-251.01 580.63,-257.83 583.12,-251.29"/>
</g>
<!-- Node29&#45;&gt;Node31 -->
<g id="edge68" class="edge">
<title>Node29&#45;&gt;Node31</title>
<path fill="none" stroke="#63b8ff" d="M686.52,-291.15C672.88,-282.36 653.15,-267.65 641.5,-250 632.85,-236.9 628.03,-219.73 625.4,-206.55"/>
<polygon fill="#63b8ff" stroke="#63b8ff" points="628.89,-206.16 623.77,-196.89 621.99,-207.33 628.89,-206.16"/>
</g>
<!-- Node40 -->
<g id="node40" class="node">
<title>Node40</title>
<g id="a_node40"><a xlink:href="_axi_dma_8hpp.html" target="_top" xlink:title=" ">
<polygon fill="white" stroke="#666666" points="766.5,-250 650.5,-250 650.5,-231 766.5,-231 766.5,-250"/>
<text text-anchor="middle" x="708.5" y="-238" font-family="Helvetica,sans-Serif" font-size="10.00">udmaio/rdl/AxiDma.hpp</text>
</a>
</g>
</g>
<!-- Node29&#45;&gt;Node40 -->
<g id="edge69" class="edge">
<title>Node29&#45;&gt;Node40</title>
<path fill="none" stroke="#63b8ff" d="M702.53,-291.37C703.47,-283.5 704.9,-271.6 706.12,-261.39"/>
<polygon fill="#63b8ff" stroke="#63b8ff" points="709.57,-262.02 707.28,-251.67 702.62,-261.18 709.57,-262.02"/>
</g>
<!-- Node30&#45;&gt;Node10 -->
<g id="edge39" class="edge">
<title>Node30&#45;&gt;Node10</title>
<path fill="none" stroke="#63b8ff" d="M586.01,-230.51C629.16,-220.43 698.48,-204.25 739.95,-194.57"/>
<polygon fill="#63b8ff" stroke="#63b8ff" points="740.7,-197.99 749.64,-192.3 739.1,-191.17 740.7,-197.99"/>
</g>
<!-- Node30&#45;&gt;Node31 -->
<g id="edge40" class="edge">
<title>Node30&#45;&gt;Node31</title>
<path fill="none" stroke="#63b8ff" d="M560.22,-230.51C571.28,-222.7 587.54,-211.21 600.67,-201.93"/>
<polygon fill="#63b8ff" stroke="#63b8ff" points="602.58,-204.86 608.73,-196.23 598.54,-199.14 602.58,-204.86"/>
</g>
<!-- Node31&#45;&gt;Node4 -->
<g id="edge43" class="edge">
<title>Node31&#45;&gt;Node4</title>
<path fill="none" stroke="#63b8ff" d="M577.15,-178.16C526.31,-168.28 446.67,-143.8 413.5,-85 400.09,-61.23 429.62,-41.5 456.11,-29.31"/>
<polygon fill="#63b8ff" stroke="#63b8ff" points="457.21,-32.65 465,-25.46 454.43,-26.22 457.21,-32.65"/>
</g>
<!-- Node31&#45;&gt;Node12 -->
<g id="edge45" class="edge">
<title>Node31&#45;&gt;Node12</title>
<path fill="none" stroke="#63b8ff" d="M667.9,-179.89C718.97,-173.92 803.99,-161.63 874.5,-140 878.08,-138.9 995.4,-88.1 997.5,-85 1007.19,-70.74 1006.94,-50.74 1004.86,-35.94"/>
<polygon fill="#63b8ff" stroke="#63b8ff" points="1008.37,-35.67 1003.14,-26.46 1001.49,-36.93 1008.37,-35.67"/>
</g>
<!-- Node31&#45;&gt;Node15 -->
<g id="edge46" class="edge">
<title>Node31&#45;&gt;Node15</title>
<path fill="none" stroke="#63b8ff" d="M667.89,-180.14C726.71,-173.95 832.2,-160.96 920.5,-140 977.66,-126.43 1042.14,-103.64 1080.22,-89.37"/>
<polygon fill="#63b8ff" stroke="#63b8ff" points="1081.16,-92.76 1089.27,-85.94 1078.68,-86.21 1081.16,-92.76"/>
</g>
<!-- Node31&#45;&gt;Node16 -->
<g id="edge66" class="edge">
<title>Node31&#45;&gt;Node16</title>
<path fill="none" stroke="#63b8ff" d="M667.86,-178.67C733.67,-170.2 859.46,-153.97 966.5,-140 1126.57,-119.1 1316.49,-93.99 1402.32,-82.62"/>
<polygon fill="#63b8ff" stroke="#63b8ff" points="1402.77,-86.09 1412.22,-81.31 1401.85,-79.15 1402.77,-86.09"/>
</g>
<!-- Node31&#45;&gt;Node26 -->
<g id="edge67" class="edge">
<title>Node31&#45;&gt;Node26</title>
<path fill="none" stroke="#63b8ff" d="M667.99,-181.08C714.1,-176.32 786.68,-165.23 844.5,-140 871.31,-128.3 897.97,-107.44 914.8,-92.83"/>
<polygon fill="#63b8ff" stroke="#63b8ff" points="916.8,-95.73 921.94,-86.46 912.15,-90.5 916.8,-95.73"/>
</g>
<!-- Node31&#45;&gt;Node27 -->
<g id="edge44" class="edge">
<title>Node31&#45;&gt;Node27</title>
<path fill="none" stroke="#63b8ff" d="M667.91,-175.61C716.01,-163.68 790.31,-137.59 829.5,-85 840.07,-70.82 844.76,-51.08 846.84,-36.35"/>
<polygon fill="#63b8ff" stroke="#63b8ff" points="850.31,-36.78 847.91,-26.46 843.35,-36.02 850.31,-36.78"/>
</g>
<!-- Node32 -->
<g id="node32" class="node">
<title>Node32</title>
<g id="a_node32"><a xlink:title=" ">
<polygon fill="#e0e0e0" stroke="#999999" points="820.5,-85 760.5,-85 760.5,-66 820.5,-66 820.5,-85"/>
<text text-anchor="middle" x="790.5" y="-73" font-family="Helvetica,sans-Serif" font-size="10.00">filesystem</text>
</a>
</g>
</g>
<!-- Node31&#45;&gt;Node32 -->
<g id="edge41" class="edge">
<title>Node31&#45;&gt;Node32</title>
<path fill="none" stroke="#63b8ff" d="M645.15,-175.59C664.53,-167.53 692.81,-154.69 715.5,-140 737.09,-126.03 759.25,-106.5 773.83,-92.8"/>
<polygon fill="#63b8ff" stroke="#63b8ff" points="775.96,-95.61 780.76,-86.17 771.12,-90.55 775.96,-95.61"/>
</g>
<!-- Node33 -->
<g id="node33" class="node">
<title>Node33</title>
<g id="a_node33"><a xlink:title=" ">
<polygon fill="#e0e0e0" stroke="#999999" points="472.5,-85 422.5,-85 422.5,-66 472.5,-66 472.5,-85"/>
<text text-anchor="middle" x="447.5" y="-73" font-family="Helvetica,sans-Serif" font-size="10.00">fstream</text>
</a>
</g>
</g>
<!-- Node31&#45;&gt;Node33 -->
<g id="edge42" class="edge">
<title>Node31&#45;&gt;Node33</title>
<path fill="none" stroke="#63b8ff" d="M603.29,-175.53C585.57,-167.04 558.73,-153.59 536.5,-140 512.04,-125.05 485.46,-105.64 467.78,-92.23"/>
<polygon fill="#63b8ff" stroke="#63b8ff" points="470.21,-89.69 460.15,-86.39 465.96,-95.25 470.21,-89.69"/>
</g>
<!-- Node34 -->
<g id="node34" class="node">
<title>Node34</title>
<g id="a_node34"><a xlink:title=" ">
<polygon fill="#e0e0e0" stroke="#999999" points="206,-85 163,-85 163,-66 206,-66 206,-85"/>
<text text-anchor="middle" x="184.5" y="-73" font-family="Helvetica,sans-Serif" font-size="10.00">fcntl.h</text>
</a>
</g>
</g>
<!-- Node31&#45;&gt;Node34 -->
<g id="edge47" class="edge">
<title>Node31&#45;&gt;Node34</title>
<path fill="none" stroke="#63b8ff" d="M577.2,-180.85C520.19,-175.49 419.68,-163.47 336.5,-140 291.39,-127.27 241.75,-104.82 211.86,-90.31"/>
<polygon fill="#63b8ff" stroke="#63b8ff" points="213.67,-87.29 203.15,-86.02 210.58,-93.57 213.67,-87.29"/>
</g>
<!-- Node35 -->
<g id="node35" class="node">
<title>Node35</title>
<g id="a_node35"><a xlink:title=" ">
<polygon fill="#e0e0e0" stroke="#999999" points="560,-85 491,-85 491,-66 560,-66 560,-85"/>
<text text-anchor="middle" x="525.5" y="-73" font-family="Helvetica,sans-Serif" font-size="10.00">sys/mman.h</text>
</a>
</g>
</g>
<!-- Node31&#45;&gt;Node35 -->
<g id="edge48" class="edge">
<title>Node31&#45;&gt;Node35</title>
<path fill="none" stroke="#63b8ff" d="M602.4,-175.52C587.27,-167.91 566.92,-155.72 553.5,-140 542.6,-127.23 535.27,-109.55 530.85,-96.09"/>
<polygon fill="#63b8ff" stroke="#63b8ff" points="534.24,-95.2 528.03,-86.62 527.53,-97.2 534.24,-95.2"/>
</g>
<!-- Node36 -->
<g id="node36" class="node">
<title>Node36</title>
<g id="a_node36"><a xlink:title=" ">
<polygon fill="#e0e0e0" stroke="#999999" points="283,-85 224,-85 224,-66 283,-66 283,-85"/>
<text text-anchor="middle" x="253.5" y="-73" font-family="Helvetica,sans-Serif" font-size="10.00">sys/stat.h</text>
</a>
</g>
</g>
<!-- Node31&#45;&gt;Node36 -->
<g id="edge49" class="edge">
<title>Node31&#45;&gt;Node36</title>
<path fill="none" stroke="#63b8ff" d="M577.31,-179.69C528.76,-173.69 449.78,-161.5 384.5,-140 345.85,-127.27 304,-105.44 278.26,-90.99"/>
<polygon fill="#63b8ff" stroke="#63b8ff" points="280.01,-87.95 269.59,-86.04 276.54,-94.03 280.01,-87.95"/>
</g>
<!-- Node37 -->
<g id="node37" class="node">
<title>Node37</title>
<g id="a_node37"><a xlink:title=" ">
<polygon fill="#e0e0e0" stroke="#999999" points="366,-85 301,-85 301,-66 366,-66 366,-85"/>
<text text-anchor="middle" x="333.5" y="-73" font-family="Helvetica,sans-Serif" font-size="10.00">sys/types.h</text>
</a>
</g>
</g>
<!-- Node31&#45;&gt;Node37 -->
<g id="edge50" class="edge">
<title>Node31&#45;&gt;Node37</title>
<path fill="none" stroke="#63b8ff" d="M577.39,-180.23C534.86,-174.94 470.11,-163.56 418.5,-140 392.73,-128.24 367.24,-107.68 351,-93.15"/>
<polygon fill="#63b8ff" stroke="#63b8ff" points="353.42,-90.62 343.69,-86.43 348.68,-95.77 353.42,-90.62"/>
</g>
<!-- Node38 -->
<g id="node38" class="node">
<title>Node38</title>
<g id="a_node38"><a xlink:title=" ">
<polygon fill="#e0e0e0" stroke="#999999" points="742.5,-85 692.5,-85 692.5,-66 742.5,-66 742.5,-85"/>
<text text-anchor="middle" x="717.5" y="-73" font-family="Helvetica,sans-Serif" font-size="10.00">unistd.h</text>
</a>
</g>
</g>
<!-- Node31&#45;&gt;Node38 -->
<g id="edge51" class="edge">
<title>Node31&#45;&gt;Node38</title>
<path fill="none" stroke="#63b8ff" d="M645.89,-175.62C662.19,-168.33 683.3,-156.51 696.5,-140 706.6,-127.36 711.93,-109.67 714.69,-96.17"/>
<polygon fill="#63b8ff" stroke="#63b8ff" points="718.07,-97.15 716.3,-86.7 711.17,-95.97 718.07,-97.15"/>
</g>
<!-- Node39 -->
<g id="node39" class="node">
<title>Node39</title>
<g id="a_node39"><a xlink:href="_hw_accessor_8hpp.html" target="_top" xlink:title=" ">
<polygon fill="white" stroke="#666666" points="687,-140 562,-140 562,-121 687,-121 687,-140"/>
<text text-anchor="middle" x="624.5" y="-128" font-family="Helvetica,sans-Serif" font-size="10.00">udmaio/HwAccessor.hpp</text>
</a>
</g>
</g>
<!-- Node31&#45;&gt;Node39 -->
<g id="edge52" class="edge">
<title>Node31&#45;&gt;Node39</title>
<path fill="none" stroke="#63b8ff" d="M622.83,-175.75C623.07,-169.27 623.42,-160.16 623.73,-151.9"/>
<polygon fill="#63b8ff" stroke="#63b8ff" points="627.23,-152.08 624.11,-141.95 620.23,-151.82 627.23,-152.08"/>
</g>
<!-- Node39&#45;&gt;Node4 -->
<g id="edge55" class="edge">
<title>Node39&#45;&gt;Node4</title>
<path fill="none" stroke="#63b8ff" d="M618.08,-120.58C608.48,-107.6 589.35,-83.18 569.5,-66 553.64,-52.27 533.69,-39.55 517.94,-30.38"/>
<polygon fill="#63b8ff" stroke="#63b8ff" points="520.02,-27.53 509.6,-25.63 516.56,-33.62 520.02,-27.53"/>
</g>
<!-- Node39&#45;&gt;Node12 -->
<g id="edge57" class="edge">
<title>Node39&#45;&gt;Node12</title>
<path fill="none" stroke="#63b8ff" d="M629.73,-120.72C638.73,-106.5 658.59,-78.76 683.5,-66 797.91,-7.38 846.98,-65.61 970.5,-30 971.47,-29.72 972.44,-29.42 973.42,-29.09"/>
<polygon fill="#63b8ff" stroke="#63b8ff" points="974.34,-32.49 982.32,-25.51 971.73,-25.99 974.34,-32.49"/>
</g>
<!-- Node39&#45;&gt;Node15 -->
<g id="edge58" class="edge">
<title>Node39&#45;&gt;Node15</title>
<path fill="none" stroke="#63b8ff" d="M687.43,-122.68C775.76,-113.11 936.53,-95.68 1033.33,-85.19"/>
<polygon fill="#63b8ff" stroke="#63b8ff" points="1033.45,-88.7 1043.01,-84.14 1032.69,-81.74 1033.45,-88.7"/>
</g>
<!-- Node39&#45;&gt;Node16 -->
<g id="edge64" class="edge">
<title>Node39&#45;&gt;Node16</title>
<path fill="none" stroke="#63b8ff" d="M687.45,-125.45C846.65,-115.21 1262.56,-88.46 1402.1,-79.48"/>
<polygon fill="#63b8ff" stroke="#63b8ff" points="1402.31,-82.98 1412.07,-78.84 1401.87,-75.99 1402.31,-82.98"/>
</g>
<!-- Node39&#45;&gt;Node26 -->
<g id="edge65" class="edge">
<title>Node39&#45;&gt;Node26</title>
<path fill="none" stroke="#63b8ff" d="M676.75,-120.51C729.93,-111.36 812.4,-97.17 869.24,-87.39"/>
<polygon fill="#63b8ff" stroke="#63b8ff" points="869.5,-90.89 878.76,-85.75 868.31,-83.99 869.5,-90.89"/>
</g>
<!-- Node39&#45;&gt;Node27 -->
<g id="edge56" class="edge">
<title>Node39&#45;&gt;Node27</title>
<path fill="none" stroke="#63b8ff" d="M625.58,-120.67C627.76,-106.89 633.95,-80.37 650.5,-66 695.78,-26.7 767.63,-17.51 811.2,-15.79"/>
<polygon fill="#63b8ff" stroke="#63b8ff" points="811.27,-19.29 821.18,-15.52 811.09,-12.29 811.27,-19.29"/>
</g>
<!-- Node39&#45;&gt;Node32 -->
<g id="edge53" class="edge">
<title>Node39&#45;&gt;Node32</title>
<path fill="none" stroke="#63b8ff" d="M652.66,-120.51C679.93,-111.8 721.49,-98.53 751.85,-88.84"/>
<polygon fill="#63b8ff" stroke="#63b8ff" points="752.58,-92.28 761.04,-85.91 750.45,-85.61 752.58,-92.28"/>
</g>
<!-- Node39&#45;&gt;Node33 -->
<g id="edge54" class="edge">
<title>Node39&#45;&gt;Node33</title>
<path fill="none" stroke="#63b8ff" d="M594.47,-120.51C563.86,-111.34 516.35,-97.11 483.68,-87.33"/>
<polygon fill="#63b8ff" stroke="#63b8ff" points="484.82,-84.02 474.24,-84.51 482.82,-90.73 484.82,-84.02"/>
</g>
<!-- Node39&#45;&gt;Node34 -->
<g id="edge59" class="edge">
<title>Node39&#45;&gt;Node34</title>
<path fill="none" stroke="#63b8ff" d="M561.84,-125.98C483.29,-120.84 344.41,-109.36 217.42,-85.29"/>
<polygon fill="#63b8ff" stroke="#63b8ff" points="218.32,-81.9 207.84,-83.44 216.99,-88.77 218.32,-81.9"/>
</g>
<!-- Node39&#45;&gt;Node35 -->
<g id="edge60" class="edge">
<title>Node39&#45;&gt;Node35</title>
<path fill="none" stroke="#63b8ff" d="M607.71,-120.51C592.4,-112.31 569.53,-100.07 551.8,-90.58"/>
<polygon fill="#63b8ff" stroke="#63b8ff" points="553.85,-87.71 543.38,-86.07 550.54,-93.88 553.85,-87.71"/>
</g>
<!-- Node39&#45;&gt;Node36 -->
<g id="edge61" class="edge">
<title>Node39&#45;&gt;Node36</title>
<path fill="none" stroke="#63b8ff" d="M561.65,-122.76C496.93,-115.44 392.95,-102.66 294.38,-85.39"/>
<polygon fill="#63b8ff" stroke="#63b8ff" points="295.27,-81.99 284.81,-83.69 294.05,-88.88 295.27,-81.99"/>
</g>
<!-- Node39&#45;&gt;Node37 -->
<g id="edge62" class="edge">
<title>Node39&#45;&gt;Node37</title>
<path fill="none" stroke="#63b8ff" d="M575.14,-120.51C519.69,-110.41 430.54,-94.17 377.43,-84.5"/>
<polygon fill="#63b8ff" stroke="#63b8ff" points="378.3,-81.1 367.83,-82.75 377.04,-87.99 378.3,-81.1"/>
</g>
<!-- Node39&#45;&gt;Node38 -->
<g id="edge63" class="edge">
<title>Node39&#45;&gt;Node38</title>
<path fill="none" stroke="#63b8ff" d="M640.28,-120.51C654.52,-112.39 675.74,-100.3 692.33,-90.85"/>
<polygon fill="#63b8ff" stroke="#63b8ff" points="693.69,-94.1 700.64,-86.11 690.22,-88.02 693.69,-94.1"/>
</g>
<!-- Node40&#45;&gt;Node10 -->
<g id="edge70" class="edge">
<title>Node40&#45;&gt;Node10</title>
<path fill="none" stroke="#63b8ff" d="M719.7,-230.51C729.24,-222.85 743.17,-211.66 754.61,-202.47"/>
<polygon fill="#63b8ff" stroke="#63b8ff" points="756.68,-205.3 762.29,-196.31 752.3,-199.84 756.68,-205.3"/>
</g>
<!-- Node41&#45;&gt;Node25 -->
<g id="edge72" class="edge">
<title>Node41&#45;&gt;Node25</title>
<path fill="none" stroke="#63b8ff" d="M926.32,-291.37C934.15,-282.73 946.4,-269.2 956.17,-258.42"/>
<polygon fill="#63b8ff" stroke="#63b8ff" points="958.51,-261.05 962.63,-251.29 953.32,-256.35 958.51,-261.05"/>
</g>
<!-- Node41&#45;&gt;Node30 -->
<g id="edge73" class="edge">
<title>Node41&#45;&gt;Node30</title>
<path fill="none" stroke="#63b8ff" d="M867.3,-291.93C798.72,-281.11 677.33,-261.97 605.46,-250.64"/>
<polygon fill="#63b8ff" stroke="#63b8ff" points="606.29,-247.23 595.86,-249.13 605.2,-254.14 606.29,-247.23"/>
</g>
<!-- Node43&#45;&gt;Node30 -->
<g id="edge76" class="edge">
<title>Node43&#45;&gt;Node30</title>
<path fill="none" stroke="#63b8ff" d="M622.05,-406.72C618.49,-394.33 611.44,-371.08 603.5,-352 589.71,-318.86 570.1,-281.96 558.12,-260.29"/>
<polygon fill="#63b8ff" stroke="#63b8ff" points="561.29,-258.79 553.36,-251.77 555.18,-262.21 561.29,-258.79"/>
</g>
<!-- Node44&#45;&gt;Node30 -->
<g id="edge78" class="edge">
<title>Node44&#45;&gt;Node30</title>
<path fill="none" stroke="#63b8ff" d="M547.5,-351.56C547.5,-332.6 547.5,-287.97 547.5,-261.73"/>
<polygon fill="#63b8ff" stroke="#63b8ff" points="551,-261.74 547.5,-251.74 544,-261.74 551,-261.74"/>
</g>
<!-- Node45&#45;&gt;Node25 -->
<g id="edge83" class="edge">
<title>Node45&#45;&gt;Node25</title>
<path fill="none" stroke="#63b8ff" d="M389.27,-294.85C497.21,-286.79 709.73,-270.15 901.13,-250.21"/>
<polygon fill="#63b8ff" stroke="#63b8ff" points="901.46,-253.69 911.04,-249.17 900.73,-246.73 901.46,-253.69"/>
</g>
<!-- Node45&#45;&gt;Node34 -->
<g id="edge80" class="edge">
<title>Node45&#45;&gt;Node34</title>
<path fill="none" stroke="#63b8ff" d="M309.91,-285.68C286.53,-246.68 221.74,-138.61 195.62,-95.05"/>
<polygon fill="#63b8ff" stroke="#63b8ff" points="198.66,-93.31 190.51,-86.53 192.65,-96.91 198.66,-93.31"/>
</g>
<!-- Node45&#45;&gt;Node36 -->
<g id="edge81" class="edge">
<title>Node45&#45;&gt;Node36</title>
<path fill="none" stroke="#63b8ff" d="M314.34,-285.68C303.09,-247.01 272.1,-140.44 259.22,-96.18"/>
<polygon fill="#63b8ff" stroke="#63b8ff" points="262.62,-95.31 256.46,-86.68 255.89,-97.26 262.62,-95.31"/>
</g>
<!-- Node45&#45;&gt;Node37 -->
<g id="edge82" class="edge">
<title>Node45&#45;&gt;Node37</title>
<path fill="none" stroke="#63b8ff" d="M319.46,-285.68C322.05,-247.1 329.18,-140.9 332.16,-96.46"/>
<polygon fill="#63b8ff" stroke="#63b8ff" points="335.64,-96.95 332.81,-86.74 328.65,-96.48 335.64,-96.95"/>
</g>
</g>
</svg>
