<?xml version="1.0" encoding="UTF-8" standalone="no"?>
<!DOCTYPE svg PUBLIC "-//W3C//DTD SVG 1.1//EN"
 "http://www.w3.org/Graphics/SVG/1.1/DTD/svg11.dtd">
<!-- Generated by graphviz version 7.0.5 (20221223.1930)
 -->
<!-- Title: axi_dma_demo.cpp Pages: 1 -->
<svg width="1877pt" height="434pt"
 viewBox="0.00 0.00 1877.00 434.00" xmlns="http://www.w3.org/2000/svg" xmlns:xlink="http://www.w3.org/1999/xlink">
<g id="graph0" class="graph" transform="scale(1 1) rotate(0) translate(4 430)">
<title>axi_dma_demo.cpp</title>
<!-- Node1 -->
<g id="node1" class="node">
<title>Node1</title>
<g id="a_node1"><a xlink:title=" ">
<polygon fill="#999999" stroke="#666666" points="1264,-426 1164,-426 1164,-407 1264,-407 1264,-426"/>
<text text-anchor="middle" x="1214" y="-414" font-family="Helvetica,sans-Serif" font-size="10.00">axi_dma_demo.cpp</text>
</a>
</g>
</g>
<!-- Node2 -->
<g id="node2" class="node">
<title>Node2</title>
<g id="a_node2"><a xlink:title=" ">
<polygon fill="#e0e0e0" stroke="#999999" points="447.5,-371 400.5,-371 400.5,-352 447.5,-352 447.5,-371"/>
<text text-anchor="middle" x="424" y="-359" font-family="Helvetica,sans-Serif" font-size="10.00">csignal</text>
</a>
</g>
</g>
<!-- Node1&#45;&gt;Node2 -->
<g id="edge1" class="edge">
<title>Node1&#45;&gt;Node2</title>
<path fill="none" stroke="#63b8ff" d="M1163.51,-416.02C1042.91,-416.53 728.65,-413.44 458.84,-371.13"/>
<polygon fill="#63b8ff" stroke="#63b8ff" points="459.57,-367.7 449.15,-369.59 458.47,-374.62 459.57,-367.7"/>
</g>
<!-- Node3 -->
<g id="node3" class="node">
<title>Node3</title>
<g id="a_node3"><a xlink:title=" ">
<polygon fill="#e0e0e0" stroke="#999999" points="506.5,-371 465.5,-371 465.5,-352 506.5,-352 506.5,-371"/>
<text text-anchor="middle" x="486" y="-359" font-family="Helvetica,sans-Serif" font-size="10.00">future</text>
</a>
</g>
</g>
<!-- Node1&#45;&gt;Node3 -->
<g id="edge2" class="edge">
<title>Node1&#45;&gt;Node3</title>
<path fill="none" stroke="#63b8ff" d="M1163.67,-415.26C1048.98,-414.07 759.67,-407.36 521,-371 520,-370.85 518.99,-370.68 517.96,-370.5"/>
<polygon fill="#63b8ff" stroke="#63b8ff" points="518.97,-367.13 508.46,-368.53 517.54,-373.99 518.97,-367.13"/>
</g>
<!-- Node4 -->
<g id="node4" class="node">
<title>Node4</title>
<g id="a_node4"><a xlink:title=" ">
<polygon fill="#e0e0e0" stroke="#999999" points="1396,-24.5 1342,-24.5 1342,-5.5 1396,-5.5 1396,-24.5"/>
<text text-anchor="middle" x="1369" y="-12.5" font-family="Helvetica,sans-Serif" font-size="10.00">iostream</text>
</a>
</g>
</g>
<!-- Node1&#45;&gt;Node4 -->
<g id="edge3" class="edge">
<title>Node1&#45;&gt;Node4</title>
<path fill="none" stroke="#63b8ff" d="M1264.44,-415.05C1390.09,-412.58 1707,-397.42 1707,-307.5 1707,-307.5 1707,-307.5 1707,-129.5 1707,-100.04 1710.19,-85.38 1688,-66 1646.81,-30.04 1483.18,-19.85 1407.62,-17.04"/>
<polygon fill="#63b8ff" stroke="#63b8ff" points="1407.91,-13.55 1397.79,-16.7 1407.66,-20.54 1407.91,-13.55"/>
</g>
<!-- Node5 -->
<g id="node5" class="node">
<title>Node5</title>
<g id="a_node5"><a xlink:title=" ">
<polygon fill="#e0e0e0" stroke="#999999" points="1044.5,-24.5 985.5,-24.5 985.5,-5.5 1044.5,-5.5 1044.5,-24.5"/>
<text text-anchor="middle" x="1015" y="-12.5" font-family="Helvetica,sans-Serif" font-size="10.00">stdexcept</text>
</a>
</g>
</g>
<!-- Node1&#45;&gt;Node5 -->
<g id="edge4" class="edge">
<title>Node1&#45;&gt;Node5</title>
<path fill="none" stroke="#63b8ff" d="M1163.79,-411.49C1027.33,-399.37 655.59,-357.84 592,-261 559.37,-211.31 624.23,-136.3 764,-66 849.77,-22.86 884.22,-54.7 977,-30 978.61,-29.57 980.25,-29.1 981.9,-28.6"/>
<polygon fill="#63b8ff" stroke="#63b8ff" points="982.9,-31.96 991.28,-25.47 980.69,-25.32 982.9,-31.96"/>
</g>
<!-- Node6 -->
<g id="node6" class="node">
<title>Node6</title>
<g id="a_node6"><a xlink:href="_data_handler_print_8hpp.html" target="_top" xlink:title=" ">
<polygon fill="white" stroke="#666666" points="1096.5,-371 987.5,-371 987.5,-352 1096.5,-352 1096.5,-371"/>
<text text-anchor="middle" x="1042" y="-359" font-family="Helvetica,sans-Serif" font-size="10.00">DataHandlerPrint.hpp</text>
</a>
</g>
</g>
<!-- Node1&#45;&gt;Node6 -->
<g id="edge5" class="edge">
<title>Node1&#45;&gt;Node6</title>
<path fill="none" stroke="#63b8ff" d="M1184.82,-406.51C1156.44,-397.76 1113.12,-384.42 1081.63,-374.71"/>
<polygon fill="#63b8ff" stroke="#63b8ff" points="1083.07,-371.49 1072.48,-371.89 1081.01,-378.18 1083.07,-371.49"/>
</g>
<!-- Node16 -->
<g id="node16" class="node">
<title>Node16</title>
<g id="a_node16"><a xlink:href="_logging_8hpp.html" target="_top" xlink:title=" ">
<polygon fill="white" stroke="#666666" points="640.5,-85 571.5,-85 571.5,-66 640.5,-66 640.5,-85"/>
<text text-anchor="middle" x="606" y="-73" font-family="Helvetica,sans-Serif" font-size="10.00">Logging.hpp</text>
</a>
</g>
</g>
<!-- Node1&#45;&gt;Node16 -->
<g id="edge69" class="edge">
<title>Node1&#45;&gt;Node16</title>
<path fill="none" stroke="#63b8ff" d="M1163.59,-415.17C1018.49,-413.79 607.13,-406.73 559,-371 534.78,-353.02 535,-337.67 535,-307.5 535,-307.5 535,-307.5 535,-184.5 535,-146.97 565.3,-112.38 586.32,-92.91"/>
<polygon fill="#63b8ff" stroke="#63b8ff" points="588.61,-95.55 593.77,-86.3 583.97,-90.31 588.61,-95.55"/>
</g>
<!-- Node24 -->
<g id="node24" class="node">
<title>Node24</title>
<g id="a_node24"><a xlink:href="_u_dma_buf_8hpp.html" target="_top" xlink:title=" ">
<polygon fill="white" stroke="#666666" points="678.5,-255.5 601.5,-255.5 601.5,-236.5 678.5,-236.5 678.5,-255.5"/>
<text text-anchor="middle" x="640" y="-243.5" font-family="Helvetica,sans-Serif" font-size="10.00">UDmaBuf.hpp</text>
</a>
</g>
</g>
<!-- Node1&#45;&gt;Node24 -->
<g id="edge70" class="edge">
<title>Node1&#45;&gt;Node24</title>
<path fill="none" stroke="#63b8ff" d="M1163.58,-409.9C1078.36,-399.25 901.46,-371.94 762,-316 725.41,-301.32 686.27,-277.58 662.46,-262.13"/>
<polygon fill="#63b8ff" stroke="#63b8ff" points="664.5,-259.29 654.22,-256.71 660.65,-265.13 664.5,-259.29"/>
</g>
<!-- Node29 -->
<g id="node29" class="node">
<title>Node29</title>
<g id="a_node29"><a xlink:href="_uio_axi_dma_if_8hpp.html" target="_top" xlink:title=" ">
<polygon fill="white" stroke="#666666" points="1332.5,-255.5 1243.5,-255.5 1243.5,-236.5 1332.5,-236.5 1332.5,-255.5"/>
<text text-anchor="middle" x="1288" y="-243.5" font-family="Helvetica,sans-Serif" font-size="10.00">UioAxiDmaIf.hpp</text>
</a>
</g>
</g>
<!-- Node1&#45;&gt;Node29 -->
<g id="edge71" class="edge">
<title>Node1&#45;&gt;Node29</title>
<path fill="none" stroke="#63b8ff" d="M1217.77,-406.91C1229.2,-380.89 1263.64,-302.47 1279.65,-266.01"/>
<polygon fill="#63b8ff" stroke="#63b8ff" points="1282.72,-267.72 1283.54,-257.16 1276.31,-264.91 1282.72,-267.72"/>
</g>
<!-- Node32 -->
<g id="node32" class="node">
<title>Node32</title>
<g id="a_node32"><a xlink:href="_uio_if_8hpp.html" target="_top" xlink:title=" ">
<polygon fill="white" stroke="#666666" points="1350,-140 1260,-140 1260,-121 1350,-121 1350,-140"/>
<text text-anchor="middle" x="1305" y="-128" font-family="Helvetica,sans-Serif" font-size="10.00">udmaio/UioIf.hpp</text>
</a>
</g>
</g>
<!-- Node1&#45;&gt;Node32 -->
<g id="edge72" class="edge">
<title>Node1&#45;&gt;Node32</title>
<path fill="none" stroke="#63b8ff" d="M1264.22,-410.62C1304.56,-405.16 1361.73,-393.87 1407,-371 1445.68,-351.45 1481,-350.84 1481,-307.5 1481,-307.5 1481,-307.5 1481,-245 1481,-187.08 1412.84,-157.29 1361.36,-143.05"/>
<polygon fill="#63b8ff" stroke="#63b8ff" points="1362.35,-139.7 1351.79,-140.55 1360.58,-146.47 1362.35,-139.7"/>
</g>
<!-- Node40 -->
<g id="node40" class="node">
<title>Node40</title>
<g id="a_node40"><a xlink:href="_uio_mem_sgdma_8hpp.html" target="_top" xlink:title=" ">
<polygon fill="white" stroke="#666666" points="1187,-255.5 1085,-255.5 1085,-236.5 1187,-236.5 1187,-255.5"/>
<text text-anchor="middle" x="1136" y="-243.5" font-family="Helvetica,sans-Serif" font-size="10.00">UioMemSgdma.hpp</text>
</a>
</g>
</g>
<!-- Node1&#45;&gt;Node40 -->
<g id="edge73" class="edge">
<title>Node1&#45;&gt;Node40</title>
<path fill="none" stroke="#63b8ff" d="M1210.02,-406.91C1197.98,-380.89 1161.68,-302.47 1144.8,-266.01"/>
<polygon fill="#63b8ff" stroke="#63b8ff" points="1148.07,-264.75 1140.7,-257.15 1141.72,-267.69 1148.07,-264.75"/>
</g>
<!-- Node42 -->
<g id="node42" class="node">
<title>Node42</title>
<g id="a_node42"><a xlink:href="_uio_gpio_status_8hpp.html" target="_top" xlink:title=" ">
<polygon fill="white" stroke="#666666" points="1379,-371 1281,-371 1281,-352 1379,-352 1379,-371"/>
<text text-anchor="middle" x="1330" y="-359" font-family="Helvetica,sans-Serif" font-size="10.00">UioGpioStatus.hpp</text>
</a>
</g>
</g>
<!-- Node1&#45;&gt;Node42 -->
<g id="edge60" class="edge">
<title>Node1&#45;&gt;Node42</title>
<path fill="none" stroke="#63b8ff" d="M1233.68,-406.51C1251.95,-398.16 1279.41,-385.61 1300.35,-376.05"/>
<polygon fill="#63b8ff" stroke="#63b8ff" points="1301.6,-379.33 1309.24,-371.99 1298.69,-372.96 1301.6,-379.33"/>
</g>
<!-- Node43 -->
<g id="node43" class="node">
<title>Node43</title>
<g id="a_node43"><a xlink:href="_uio_traffic_gen_8hpp.html" target="_top" xlink:title=" ">
<polygon fill="white" stroke="#666666" points="1453,-316 1359,-316 1359,-297 1453,-297 1453,-316"/>
<text text-anchor="middle" x="1406" y="-304" font-family="Helvetica,sans-Serif" font-size="10.00">UioTrafficGen.hpp</text>
</a>
</g>
</g>
<!-- Node1&#45;&gt;Node43 -->
<g id="edge62" class="edge">
<title>Node1&#45;&gt;Node43</title>
<path fill="none" stroke="#63b8ff" d="M1264.31,-415.54C1303.03,-412.85 1355.29,-402.88 1388,-371 1399.56,-359.73 1403.85,-341.64 1405.37,-327.64"/>
<polygon fill="#63b8ff" stroke="#63b8ff" points="1408.85,-327.97 1406.01,-317.76 1401.87,-327.51 1408.85,-327.97"/>
</g>
<!-- Node44 -->
<g id="node44" class="node">
<title>Node44</title>
<g id="a_node44"><a xlink:href="_fpga_mem_buffer_over_xdma_8hpp.html" target="_top" xlink:title=" ">
<polygon fill="white" stroke="#666666" points="1650.5,-261 1509.5,-261 1509.5,-231 1650.5,-231 1650.5,-261"/>
<text text-anchor="start" x="1517.5" y="-249" font-family="Helvetica,sans-Serif" font-size="10.00">udmaio/FpgaMemBufferOver</text>
<text text-anchor="middle" x="1580" y="-238" font-family="Helvetica,sans-Serif" font-size="10.00">Xdma.hpp</text>
</a>
</g>
</g>
<!-- Node1&#45;&gt;Node44 -->
<g id="edge64" class="edge">
<title>Node1&#45;&gt;Node44</title>
<path fill="none" stroke="#63b8ff" d="M1264.24,-412.3C1334.45,-407.03 1457.52,-394.68 1495,-371 1532.4,-347.37 1557.54,-300.67 1570.25,-271.81"/>
<polygon fill="#63b8ff" stroke="#63b8ff" points="1573.41,-273.33 1574.07,-262.75 1566.96,-270.61 1573.41,-273.33"/>
</g>
<!-- Node45 -->
<g id="node45" class="node">
<title>Node45</title>
<g id="a_node45"><a xlink:title=" ">
<polygon fill="#e0e0e0" stroke="#999999" points="1869,-371 1735,-371 1735,-352 1869,-352 1869,-371"/>
<text text-anchor="middle" x="1802" y="-359" font-family="Helvetica,sans-Serif" font-size="10.00">boost/program_options.hpp</text>
</a>
</g>
</g>
<!-- Node1&#45;&gt;Node45 -->
<g id="edge74" class="edge">
<title>Node1&#45;&gt;Node45</title>
<path fill="none" stroke="#63b8ff" d="M1264.4,-411.36C1355.56,-403.81 1553.89,-387.1 1721,-371 1721.84,-370.92 1722.69,-370.84 1723.55,-370.75"/>
<polygon fill="#63b8ff" stroke="#63b8ff" points="1723.71,-374.25 1733.32,-369.79 1723.02,-367.29 1723.71,-374.25"/>
</g>
<!-- Node7 -->
<g id="node7" class="node">
<title>Node7</title>
<g id="a_node7"><a xlink:title=" ">
<polygon fill="#e0e0e0" stroke="#999999" points="1067,-316 1017,-316 1017,-297 1067,-297 1067,-316"/>
<text text-anchor="middle" x="1042" y="-304" font-family="Helvetica,sans-Serif" font-size="10.00">optional</text>
</a>
</g>
</g>
<!-- Node6&#45;&gt;Node7 -->
<g id="edge6" class="edge">
<title>Node6&#45;&gt;Node7</title>
<path fill="none" stroke="#63b8ff" d="M1042,-351.75C1042,-345.27 1042,-336.16 1042,-327.9"/>
<polygon fill="#63b8ff" stroke="#63b8ff" points="1045.5,-327.96 1042,-317.96 1038.5,-327.96 1045.5,-327.96"/>
</g>
<!-- Node8 -->
<g id="node8" class="node">
<title>Node8</title>
<g id="a_node8"><a xlink:title=" ">
<polygon fill="#e0e0e0" stroke="#999999" points="810.5,-316 771.5,-316 771.5,-297 810.5,-297 810.5,-316"/>
<text text-anchor="middle" x="791" y="-304" font-family="Helvetica,sans-Serif" font-size="10.00">utility</text>
</a>
</g>
</g>
<!-- Node6&#45;&gt;Node8 -->
<g id="edge7" class="edge">
<title>Node6&#45;&gt;Node8</title>
<path fill="none" stroke="#63b8ff" d="M990.58,-351.51C947.87,-343.75 885.32,-331.7 821.92,-316.29"/>
<polygon fill="#63b8ff" stroke="#63b8ff" points="822.92,-312.93 812.38,-313.94 821.25,-319.73 822.92,-312.93"/>
</g>
<!-- Node9 -->
<g id="node9" class="node">
<title>Node9</title>
<g id="a_node9"><a xlink:href="_axi_traffic_gen_lfsr_8hpp.html" target="_top" xlink:title=" ">
<polygon fill="white" stroke="#666666" points="1174,-195 1064,-195 1064,-176 1174,-176 1174,-195"/>
<text text-anchor="middle" x="1119" y="-183" font-family="Helvetica,sans-Serif" font-size="10.00">AxiTrafficGenLfsr.hpp</text>
</a>
</g>
</g>
<!-- Node6&#45;&gt;Node9 -->
<g id="edge8" class="edge">
<title>Node6&#45;&gt;Node9</title>
<path fill="none" stroke="#63b8ff" d="M1070.81,-351.5C1107.53,-338.29 1169.44,-309.78 1196,-261 1202.38,-249.29 1202.66,-242.55 1196,-231 1187.87,-216.9 1173.37,-206.87 1159.14,-199.94"/>
<polygon fill="#63b8ff" stroke="#63b8ff" points="1160.86,-196.88 1150.3,-196.05 1158.04,-203.28 1160.86,-196.88"/>
</g>
<!-- Node11 -->
<g id="node11" class="node">
<title>Node11</title>
<g id="a_node11"><a xlink:href="_data_handler_abstract_8hpp.html" target="_top" xlink:title=" ">
<polygon fill="white" stroke="#666666" points="989,-316 829,-316 829,-297 989,-297 989,-316"/>
<text text-anchor="middle" x="909" y="-304" font-family="Helvetica,sans-Serif" font-size="10.00">udmaio/DataHandlerAbstract.hpp</text>
</a>
</g>
</g>
<!-- Node6&#45;&gt;Node11 -->
<g id="edge10" class="edge">
<title>Node6&#45;&gt;Node11</title>
<path fill="none" stroke="#63b8ff" d="M1019.44,-351.51C998.1,-343.01 965.84,-330.15 941.69,-320.53"/>
<polygon fill="#63b8ff" stroke="#63b8ff" points="943.22,-317.37 932.63,-316.92 940.63,-323.87 943.22,-317.37"/>
</g>
<!-- Node10 -->
<g id="node10" class="node">
<title>Node10</title>
<g id="a_node10"><a xlink:title=" ">
<polygon fill="#e0e0e0" stroke="#999999" points="1233,-140 1187,-140 1187,-121 1233,-121 1233,-140"/>
<text text-anchor="middle" x="1210" y="-128" font-family="Helvetica,sans-Serif" font-size="10.00">cstdint</text>
</a>
</g>
</g>
<!-- Node9&#45;&gt;Node10 -->
<g id="edge9" class="edge">
<title>Node9&#45;&gt;Node10</title>
<path fill="none" stroke="#63b8ff" d="M1134.44,-175.51C1148.25,-167.47 1168.75,-155.53 1184.91,-146.11"/>
<polygon fill="#63b8ff" stroke="#63b8ff" points="1186.6,-149.18 1193.48,-141.12 1183.08,-143.13 1186.6,-149.18"/>
</g>
<!-- Node12 -->
<g id="node12" class="node">
<title>Node12</title>
<g id="a_node12"><a xlink:title=" ">
<polygon fill="#e0e0e0" stroke="#999999" points="967.5,-24.5 926.5,-24.5 926.5,-5.5 967.5,-5.5 967.5,-24.5"/>
<text text-anchor="middle" x="947" y="-12.5" font-family="Helvetica,sans-Serif" font-size="10.00">string</text>
</a>
</g>
</g>
<!-- Node11&#45;&gt;Node12 -->
<g id="edge11" class="edge">
<title>Node11&#45;&gt;Node12</title>
<path fill="none" stroke="#63b8ff" d="M872.6,-296.53C824.29,-282.19 745,-249.12 745,-186.5 745,-186.5 745,-186.5 745,-129.5 745,-100.04 742.56,-86.2 764,-66 814.85,-18.1 851,-52.89 917,-30 917.64,-29.78 918.29,-29.54 918.95,-29.3"/>
<polygon fill="#63b8ff" stroke="#63b8ff" points="920.2,-32.57 928.09,-25.49 917.51,-26.11 920.2,-32.57"/>
</g>
<!-- Node13 -->
<g id="node13" class="node">
<title>Node13</title>
<g id="a_node13"><a xlink:title=" ">
<polygon fill="#e0e0e0" stroke="#999999" points="868,-140 824,-140 824,-121 868,-121 868,-140"/>
<text text-anchor="middle" x="846" y="-128" font-family="Helvetica,sans-Serif" font-size="10.00">vector</text>
</a>
</g>
</g>
<!-- Node11&#45;&gt;Node13 -->
<g id="edge12" class="edge">
<title>Node11&#45;&gt;Node13</title>
<path fill="none" stroke="#63b8ff" d="M883.85,-296.55C868.17,-289.52 849.28,-278.02 840,-261 821.03,-226.2 831,-177.99 839.07,-151.3"/>
<polygon fill="#63b8ff" stroke="#63b8ff" points="842.39,-152.4 842.17,-141.81 835.74,-150.23 842.39,-152.4"/>
</g>
<!-- Node14 -->
<g id="node14" class="node">
<title>Node14</title>
<g id="a_node14"><a xlink:title=" ">
<polygon fill="#e0e0e0" stroke="#999999" points="1067,-255.5 987,-255.5 987,-236.5 1067,-236.5 1067,-255.5"/>
<text text-anchor="middle" x="1027" y="-243.5" font-family="Helvetica,sans-Serif" font-size="10.00">boost/asio.hpp</text>
</a>
</g>
</g>
<!-- Node11&#45;&gt;Node14 -->
<g id="edge13" class="edge">
<title>Node11&#45;&gt;Node14</title>
<path fill="none" stroke="#63b8ff" d="M926.92,-296.62C945.98,-287.17 976.4,-272.09 998.7,-261.03"/>
<polygon fill="#63b8ff" stroke="#63b8ff" points="1000.15,-264.22 1007.55,-256.64 997.04,-257.95 1000.15,-264.22"/>
</g>
<!-- Node15 -->
<g id="node15" class="node">
<title>Node15</title>
<g id="a_node15"><a xlink:title=" ">
<polygon fill="#e0e0e0" stroke="#999999" points="910.5,-85 773.5,-85 773.5,-66 910.5,-66 910.5,-85"/>
<text text-anchor="middle" x="842" y="-73" font-family="Helvetica,sans-Serif" font-size="10.00">boost/core/noncopyable.hpp</text>
</a>
</g>
</g>
<!-- Node11&#45;&gt;Node15 -->
<g id="edge14" class="edge">
<title>Node11&#45;&gt;Node15</title>
<path fill="none" stroke="#63b8ff" d="M877.43,-296.52C859.61,-289.74 838.65,-278.54 827,-261 792.45,-208.98 798.18,-181.14 815,-121 817.61,-111.67 822.77,-102.34 827.89,-94.66"/>
<polygon fill="#63b8ff" stroke="#63b8ff" points="830.71,-96.74 833.71,-86.58 825.03,-92.65 830.71,-96.74"/>
</g>
<!-- Node11&#45;&gt;Node16 -->
<g id="edge15" class="edge">
<title>Node11&#45;&gt;Node16</title>
<path fill="none" stroke="#63b8ff" d="M828.92,-298.1C796.28,-292.02 759.59,-280.99 731,-261 699.13,-238.72 640.23,-137.65 616.4,-95.28"/>
<polygon fill="#63b8ff" stroke="#63b8ff" points="619.57,-93.77 611.64,-86.75 613.46,-97.19 619.57,-93.77"/>
</g>
<!-- Node11&#45;&gt;Node24 -->
<g id="edge24" class="edge">
<title>Node11&#45;&gt;Node24</title>
<path fill="none" stroke="#63b8ff" d="M861.64,-296.52C817.77,-288.02 750.77,-274.57 693,-261 690.02,-260.3 686.95,-259.55 683.86,-258.79"/>
<polygon fill="#63b8ff" stroke="#63b8ff" points="684.75,-255.4 674.19,-256.32 683.02,-262.18 684.75,-255.4"/>
</g>
<!-- Node11&#45;&gt;Node29 -->
<g id="edge36" class="edge">
<title>Node11&#45;&gt;Node29</title>
<path fill="none" stroke="#63b8ff" d="M966.97,-296.55C1039.01,-285.43 1161.1,-266.59 1232.14,-255.62"/>
<polygon fill="#63b8ff" stroke="#63b8ff" points="1232.24,-259.15 1241.59,-254.16 1231.18,-252.23 1232.24,-259.15"/>
</g>
<!-- Node11&#45;&gt;Node40 -->
<g id="edge56" class="edge">
<title>Node11&#45;&gt;Node40</title>
<path fill="none" stroke="#63b8ff" d="M943.48,-296.62C982.64,-286.52 1046.73,-270.01 1090.1,-258.83"/>
<polygon fill="#63b8ff" stroke="#63b8ff" points="1090.92,-262.23 1099.73,-256.35 1089.18,-255.45 1090.92,-262.23"/>
</g>
<!-- Node41 -->
<g id="node41" class="node">
<title>Node41</title>
<g id="a_node41"><a xlink:title=" ">
<polygon fill="#e0e0e0" stroke="#999999" points="969,-261 849,-261 849,-231 969,-231 969,-261"/>
<text text-anchor="start" x="857" y="-249" font-family="Helvetica,sans-Serif" font-size="10.00">boost/asio/posix/stream</text>
<text text-anchor="middle" x="909" y="-238" font-family="Helvetica,sans-Serif" font-size="10.00">_descriptor.hpp</text>
</a>
</g>
</g>
<!-- Node11&#45;&gt;Node41 -->
<g id="edge59" class="edge">
<title>Node11&#45;&gt;Node41</title>
<path fill="none" stroke="#63b8ff" d="M909,-296.87C909,-290.4 909,-281.2 909,-272.45"/>
<polygon fill="#63b8ff" stroke="#63b8ff" points="912.5,-272.63 909,-262.63 905.5,-272.63 912.5,-272.63"/>
</g>
<!-- Node16&#45;&gt;Node12 -->
<g id="edge16" class="edge">
<title>Node16&#45;&gt;Node12</title>
<path fill="none" stroke="#63b8ff" d="M640.95,-70.09C716.62,-60.45 890.93,-37.76 917,-30 917.96,-29.71 918.94,-29.4 919.91,-29.07"/>
<polygon fill="#63b8ff" stroke="#63b8ff" points="920.85,-32.46 928.8,-25.46 918.22,-25.97 920.85,-32.46"/>
</g>
<!-- Node17 -->
<g id="node17" class="node">
<title>Node17</title>
<g id="a_node17"><a xlink:title=" ">
<polygon fill="#e0e0e0" stroke="#999999" points="96,-24.5 0,-24.5 0,-5.5 96,-5.5 96,-24.5"/>
<text text-anchor="middle" x="48" y="-12.5" font-family="Helvetica,sans-Serif" font-size="10.00">boost/log/core.hpp</text>
</a>
</g>
</g>
<!-- Node16&#45;&gt;Node17 -->
<g id="edge17" class="edge">
<title>Node16&#45;&gt;Node17</title>
<path fill="none" stroke="#63b8ff" d="M571.15,-73.23C489.29,-69.85 278.57,-58.85 105,-30 100.66,-29.28 96.16,-28.4 91.68,-27.44"/>
<polygon fill="#63b8ff" stroke="#63b8ff" points="92.68,-24.08 82.15,-25.27 91.12,-30.91 92.68,-24.08"/>
</g>
<!-- Node18 -->
<g id="node18" class="node">
<title>Node18</title>
<g id="a_node18"><a xlink:title=" ">
<polygon fill="#e0e0e0" stroke="#999999" points="243.5,-24.5 114.5,-24.5 114.5,-5.5 243.5,-5.5 243.5,-24.5"/>
<text text-anchor="middle" x="179" y="-12.5" font-family="Helvetica,sans-Serif" font-size="10.00">boost/log/expressions.hpp</text>
</a>
</g>
</g>
<!-- Node16&#45;&gt;Node18 -->
<g id="edge18" class="edge">
<title>Node16&#45;&gt;Node18</title>
<path fill="none" stroke="#63b8ff" d="M571.22,-70.88C507.66,-64.1 368.54,-48.48 252,-30 246.33,-29.1 240.43,-28.09 234.54,-27.04"/>
<polygon fill="#63b8ff" stroke="#63b8ff" points="235.27,-23.61 224.8,-25.25 234,-30.5 235.27,-23.61"/>
</g>
<!-- Node19 -->
<g id="node19" class="node">
<title>Node19</title>
<g id="a_node19"><a xlink:title=" ">
<polygon fill="#e0e0e0" stroke="#999999" points="362.5,-24.5 261.5,-24.5 261.5,-5.5 362.5,-5.5 362.5,-24.5"/>
<text text-anchor="middle" x="312" y="-12.5" font-family="Helvetica,sans-Serif" font-size="10.00">boost/log/trivial.hpp</text>
</a>
</g>
</g>
<!-- Node16&#45;&gt;Node19 -->
<g id="edge19" class="edge">
<title>Node16&#45;&gt;Node19</title>
<path fill="none" stroke="#63b8ff" d="M571.26,-68.44C525.31,-60.3 441.87,-45.11 371,-30 367.4,-29.23 363.68,-28.41 359.94,-27.57"/>
<polygon fill="#63b8ff" stroke="#63b8ff" points="360.77,-24.17 350.24,-25.34 359.2,-30.99 360.77,-24.17"/>
</g>
<!-- Node20 -->
<g id="node20" class="node">
<title>Node20</title>
<g id="a_node20"><a xlink:title=" ">
<polygon fill="#e0e0e0" stroke="#999999" points="489.5,-30 380.5,-30 380.5,0 489.5,0 489.5,-30"/>
<text text-anchor="start" x="388.5" y="-18" font-family="Helvetica,sans-Serif" font-size="10.00">boost/log/utility/setup</text>
<text text-anchor="middle" x="435" y="-7" font-family="Helvetica,sans-Serif" font-size="10.00">/console.hpp</text>
</a>
</g>
</g>
<!-- Node16&#45;&gt;Node20 -->
<g id="edge20" class="edge">
<title>Node16&#45;&gt;Node20</title>
<path fill="none" stroke="#63b8ff" d="M580.03,-65.62C555.62,-57.27 518.37,-44.52 487.74,-34.04"/>
<polygon fill="#63b8ff" stroke="#63b8ff" points="489.23,-30.85 478.64,-30.93 486.97,-37.48 489.23,-30.85"/>
</g>
<!-- Node21 -->
<g id="node21" class="node">
<title>Node21</title>
<g id="a_node21"><a xlink:title=" ">
<polygon fill="#e0e0e0" stroke="#999999" points="638.5,-30 507.5,-30 507.5,0 638.5,0 638.5,-30"/>
<text text-anchor="start" x="515.5" y="-18" font-family="Helvetica,sans-Serif" font-size="10.00">boost/log/sources/severity</text>
<text text-anchor="middle" x="573" y="-7" font-family="Helvetica,sans-Serif" font-size="10.00">_channel_logger.hpp</text>
</a>
</g>
</g>
<!-- Node16&#45;&gt;Node21 -->
<g id="edge21" class="edge">
<title>Node16&#45;&gt;Node21</title>
<path fill="none" stroke="#63b8ff" d="M601.13,-65.87C597.27,-59.03 591.7,-49.14 586.52,-39.97"/>
<polygon fill="#63b8ff" stroke="#63b8ff" points="589.67,-38.42 581.71,-31.43 583.57,-41.86 589.67,-38.42"/>
</g>
<!-- Node22 -->
<g id="node22" class="node">
<title>Node22</title>
<g id="a_node22"><a xlink:title=" ">
<polygon fill="#e0e0e0" stroke="#999999" points="769.5,-30 656.5,-30 656.5,0 769.5,0 769.5,-30"/>
<text text-anchor="start" x="664.5" y="-18" font-family="Helvetica,sans-Serif" font-size="10.00">boost/log/support/date</text>
<text text-anchor="middle" x="713" y="-7" font-family="Helvetica,sans-Serif" font-size="10.00">_time.hpp</text>
</a>
</g>
</g>
<!-- Node16&#45;&gt;Node22 -->
<g id="edge22" class="edge">
<title>Node16&#45;&gt;Node22</title>
<path fill="none" stroke="#63b8ff" d="M622.25,-65.62C636.65,-57.74 658.21,-45.96 676.7,-35.85"/>
<polygon fill="#63b8ff" stroke="#63b8ff" points="678.17,-39.03 685.26,-31.17 674.81,-32.89 678.17,-39.03"/>
</g>
<!-- Node23 -->
<g id="node23" class="node">
<title>Node23</title>
<g id="a_node23"><a xlink:title=" ">
<polygon fill="#e0e0e0" stroke="#999999" points="908.5,-30 787.5,-30 787.5,0 908.5,0 908.5,-30"/>
<text text-anchor="start" x="795.5" y="-18" font-family="Helvetica,sans-Serif" font-size="10.00">boost/log/utility/setup</text>
<text text-anchor="middle" x="848" y="-7" font-family="Helvetica,sans-Serif" font-size="10.00">/common_attributes.hpp</text>
</a>
</g>
</g>
<!-- Node16&#45;&gt;Node23 -->
<g id="edge23" class="edge">
<title>Node16&#45;&gt;Node23</title>
<path fill="none" stroke="#63b8ff" d="M640.93,-66.06C676.41,-57.48 732.35,-43.96 777.15,-33.13"/>
<polygon fill="#63b8ff" stroke="#63b8ff" points="777.91,-36.54 786.81,-30.79 776.26,-29.74 777.91,-36.54"/>
</g>
<!-- Node24&#45;&gt;Node16 -->
<g id="edge35" class="edge">
<title>Node24&#45;&gt;Node16</title>
<path fill="none" stroke="#63b8ff" d="M638.27,-236.41C633.06,-210.62 617.47,-133.32 610.03,-96.47"/>
<polygon fill="#63b8ff" stroke="#63b8ff" points="613.48,-95.87 608.07,-86.76 606.62,-97.25 613.48,-95.87"/>
</g>
<!-- Node25 -->
<g id="node25" class="node">
<title>Node25</title>
<g id="a_node25"><a xlink:href="_dma_buffer_abstract_8hpp.html" target="_top" xlink:title=" ">
<polygon fill="white" stroke="#666666" points="1045.5,-195 928.5,-195 928.5,-176 1045.5,-176 1045.5,-195"/>
<text text-anchor="middle" x="987" y="-183" font-family="Helvetica,sans-Serif" font-size="10.00">DmaBufferAbstract.hpp</text>
</a>
</g>
</g>
<!-- Node24&#45;&gt;Node25 -->
<g id="edge25" class="edge">
<title>Node24&#45;&gt;Node25</title>
<path fill="none" stroke="#63b8ff" d="M678.8,-238.46C737.89,-228.5 851.11,-209.41 922.65,-197.35"/>
<polygon fill="#63b8ff" stroke="#63b8ff" points="922.98,-200.84 932.26,-195.73 921.82,-193.94 922.98,-200.84"/>
</g>
<!-- Node25&#45;&gt;Node10 -->
<g id="edge26" class="edge">
<title>Node25&#45;&gt;Node10</title>
<path fill="none" stroke="#63b8ff" d="M1024.83,-175.51C1067.11,-165.46 1134.96,-149.34 1175.73,-139.64"/>
<polygon fill="#63b8ff" stroke="#63b8ff" points="1176.32,-143.1 1185.24,-137.38 1174.7,-136.29 1176.32,-143.1"/>
</g>
<!-- Node25&#45;&gt;Node13 -->
<g id="edge27" class="edge">
<title>Node25&#45;&gt;Node13</title>
<path fill="none" stroke="#63b8ff" d="M963.08,-175.51C939.95,-166.81 904.7,-153.57 878.93,-143.88"/>
<polygon fill="#63b8ff" stroke="#63b8ff" points="880.18,-140.61 869.59,-140.37 877.72,-147.16 880.18,-140.61"/>
</g>
<!-- Node25&#45;&gt;Node15 -->
<g id="edge28" class="edge">
<title>Node25&#45;&gt;Node15</title>
<path fill="none" stroke="#63b8ff" d="M975.13,-175.66C950.6,-157.39 894,-115.23 863.09,-92.21"/>
<polygon fill="#63b8ff" stroke="#63b8ff" points="865.35,-89.53 855.24,-86.36 861.17,-95.14 865.35,-89.53"/>
</g>
<!-- Node26 -->
<g id="node26" class="node">
<title>Node26</title>
<g id="a_node26"><a xlink:href="_uio_config_8hpp.html" target="_top" xlink:title=" ">
<polygon fill="white" stroke="#666666" points="1078.5,-85 967.5,-85 967.5,-66 1078.5,-66 1078.5,-85"/>
<text text-anchor="middle" x="1023" y="-73" font-family="Helvetica,sans-Serif" font-size="10.00">udmaio/UioConfig.hpp</text>
</a>
</g>
</g>
<!-- Node25&#45;&gt;Node26 -->
<g id="edge29" class="edge">
<title>Node25&#45;&gt;Node26</title>
<path fill="none" stroke="#63b8ff" d="M989.95,-175.66C995.69,-158.42 1008.53,-119.9 1016.41,-96.27"/>
<polygon fill="#63b8ff" stroke="#63b8ff" points="1019.69,-97.49 1019.53,-86.9 1013.05,-95.28 1019.69,-97.49"/>
</g>
<!-- Node26&#45;&gt;Node4 -->
<g id="edge30" class="edge">
<title>Node26&#45;&gt;Node4</title>
<path fill="none" stroke="#63b8ff" d="M1075.93,-65.55C1146.18,-53.67 1268.55,-32.98 1330.58,-22.5"/>
<polygon fill="#63b8ff" stroke="#63b8ff" points="1331.03,-25.97 1340.3,-20.85 1329.86,-19.07 1331.03,-25.97"/>
</g>
<!-- Node26&#45;&gt;Node5 -->
<g id="edge32" class="edge">
<title>Node26&#45;&gt;Node5</title>
<path fill="none" stroke="#63b8ff" d="M1021.82,-65.87C1020.74,-58 1019.12,-46.1 1017.72,-35.89"/>
<polygon fill="#63b8ff" stroke="#63b8ff" points="1021.21,-35.6 1016.39,-26.17 1014.28,-36.55 1021.21,-35.6"/>
</g>
<!-- Node26&#45;&gt;Node12 -->
<g id="edge33" class="edge">
<title>Node26&#45;&gt;Node12</title>
<path fill="none" stroke="#63b8ff" d="M1011.46,-65.62C999.85,-56.68 981.71,-42.72 967.62,-31.87"/>
<polygon fill="#63b8ff" stroke="#63b8ff" points="969.91,-29.22 959.85,-25.89 965.64,-34.76 969.91,-29.22"/>
</g>
<!-- Node27 -->
<g id="node27" class="node">
<title>Node27</title>
<g id="a_node27"><a xlink:title=" ">
<polygon fill="#e0e0e0" stroke="#999999" points="1257.5,-24.5 1206.5,-24.5 1206.5,-5.5 1257.5,-5.5 1257.5,-24.5"/>
<text text-anchor="middle" x="1232" y="-12.5" font-family="Helvetica,sans-Serif" font-size="10.00">memory</text>
</a>
</g>
</g>
<!-- Node26&#45;&gt;Node27 -->
<g id="edge31" class="edge">
<title>Node26&#45;&gt;Node27</title>
<path fill="none" stroke="#63b8ff" d="M1054.74,-65.62C1092.47,-55.05 1155.32,-37.46 1195.15,-26.31"/>
<polygon fill="#63b8ff" stroke="#63b8ff" points="1196.09,-29.69 1204.78,-23.62 1194.2,-22.95 1196.09,-29.69"/>
</g>
<!-- Node28 -->
<g id="node28" class="node">
<title>Node28</title>
<g id="a_node28"><a xlink:title=" ">
<polygon fill="#e0e0e0" stroke="#999999" points="1129,-24.5 1063,-24.5 1063,-5.5 1129,-5.5 1129,-24.5"/>
<text text-anchor="middle" x="1096" y="-12.5" font-family="Helvetica,sans-Serif" font-size="10.00">string_view</text>
</a>
</g>
</g>
<!-- Node26&#45;&gt;Node28 -->
<g id="edge34" class="edge">
<title>Node26&#45;&gt;Node28</title>
<path fill="none" stroke="#63b8ff" d="M1034.09,-65.62C1045.24,-56.68 1062.66,-42.72 1076.19,-31.87"/>
<polygon fill="#63b8ff" stroke="#63b8ff" points="1078.01,-34.9 1083.63,-25.91 1073.64,-29.44 1078.01,-34.9"/>
</g>
<!-- Node30 -->
<g id="node30" class="node">
<title>Node30</title>
<g id="a_node30"><a xlink:href="_axi_dma_8hpp.html" target="_top" xlink:title=" ">
<polygon fill="white" stroke="#666666" points="1260,-195 1192,-195 1192,-176 1260,-176 1260,-195"/>
<text text-anchor="middle" x="1226" y="-183" font-family="Helvetica,sans-Serif" font-size="10.00">AxiDma.hpp</text>
</a>
</g>
</g>
<!-- Node29&#45;&gt;Node30 -->
<g id="edge37" class="edge">
<title>Node29&#45;&gt;Node30</title>
<path fill="none" stroke="#63b8ff" d="M1278.58,-236.12C1269.39,-227.44 1255.16,-214.02 1243.83,-203.32"/>
<polygon fill="#63b8ff" stroke="#63b8ff" points="1246.28,-200.82 1236.61,-196.51 1241.48,-205.92 1246.28,-200.82"/>
</g>
<!-- Node31 -->
<g id="node31" class="node">
<title>Node31</title>
<g id="a_node31"><a xlink:href="_reg_accessor_8hpp.html" target="_top" xlink:title=" ">
<polygon fill="white" stroke="#666666" points="1409.5,-195 1316.5,-195 1316.5,-176 1409.5,-176 1409.5,-195"/>
<text text-anchor="middle" x="1363" y="-183" font-family="Helvetica,sans-Serif" font-size="10.00">RegAccessor.hpp</text>
</a>
</g>
</g>
<!-- Node29&#45;&gt;Node31 -->
<g id="edge39" class="edge">
<title>Node29&#45;&gt;Node31</title>
<path fill="none" stroke="#63b8ff" d="M1299.39,-236.12C1310.84,-227.18 1328.75,-213.22 1342.65,-202.37"/>
<polygon fill="#63b8ff" stroke="#63b8ff" points="1344.58,-205.31 1350.31,-196.4 1340.27,-199.79 1344.58,-205.31"/>
</g>
<!-- Node29&#45;&gt;Node32 -->
<g id="edge55" class="edge">
<title>Node29&#45;&gt;Node32</title>
<path fill="none" stroke="#63b8ff" d="M1289.33,-236.09C1292.04,-218.03 1298.23,-176.67 1301.97,-151.71"/>
<polygon fill="#63b8ff" stroke="#63b8ff" points="1305.43,-152.27 1303.45,-141.86 1298.51,-151.23 1305.43,-152.27"/>
</g>
<!-- Node30&#45;&gt;Node10 -->
<g id="edge38" class="edge">
<title>Node30&#45;&gt;Node10</title>
<path fill="none" stroke="#63b8ff" d="M1223.36,-175.75C1221.36,-169.11 1218.52,-159.73 1215.98,-151.31"/>
<polygon fill="#63b8ff" stroke="#63b8ff" points="1219.38,-150.45 1213.14,-141.89 1212.68,-152.48 1219.38,-150.45"/>
</g>
<!-- Node31&#45;&gt;Node10 -->
<g id="edge40" class="edge">
<title>Node31&#45;&gt;Node10</title>
<path fill="none" stroke="#63b8ff" d="M1337.05,-175.51C1311.3,-166.59 1271.74,-152.89 1243.61,-143.14"/>
<polygon fill="#63b8ff" stroke="#63b8ff" points="1245.1,-139.95 1234.5,-139.99 1242.81,-146.57 1245.1,-139.95"/>
</g>
<!-- Node31&#45;&gt;Node32 -->
<g id="edge41" class="edge">
<title>Node31&#45;&gt;Node32</title>
<path fill="none" stroke="#63b8ff" d="M1353.16,-175.51C1344.95,-168 1333.02,-157.1 1323.09,-148.03"/>
<polygon fill="#63b8ff" stroke="#63b8ff" points="1325.55,-145.54 1315.81,-141.38 1320.83,-150.71 1325.55,-145.54"/>
</g>
<!-- Node32&#45;&gt;Node4 -->
<g id="edge44" class="edge">
<title>Node32&#45;&gt;Node4</title>
<path fill="none" stroke="#63b8ff" d="M1314.77,-120.82C1323.71,-112.43 1336.76,-98.95 1345,-85 1354.08,-69.63 1360.43,-50.3 1364.31,-36.01"/>
<polygon fill="#63b8ff" stroke="#63b8ff" points="1367.67,-37 1366.72,-26.45 1360.88,-35.29 1367.67,-37"/>
</g>
<!-- Node32&#45;&gt;Node12 -->
<g id="edge46" class="edge">
<title>Node32&#45;&gt;Node12</title>
<path fill="none" stroke="#63b8ff" d="M1259.58,-123.33C1253.67,-122.54 1247.69,-121.74 1242,-121 1178.92,-112.75 1003.7,-129.26 958,-85 945.07,-72.48 943.43,-51.3 944.34,-35.7"/>
<polygon fill="#63b8ff" stroke="#63b8ff" points="947.78,-36.47 945.3,-26.17 940.82,-35.77 947.78,-36.47"/>
</g>
<!-- Node32&#45;&gt;Node15 -->
<g id="edge47" class="edge">
<title>Node32&#45;&gt;Node15</title>
<path fill="none" stroke="#63b8ff" d="M1259.59,-123.25C1253.68,-122.47 1247.7,-121.7 1242,-121 1131.06,-107.35 1002.57,-93.38 921.79,-84.82"/>
<polygon fill="#63b8ff" stroke="#63b8ff" points="922.53,-81.38 912.22,-83.81 921.8,-88.34 922.53,-81.38"/>
</g>
<!-- Node32&#45;&gt;Node16 -->
<g id="edge53" class="edge">
<title>Node32&#45;&gt;Node16</title>
<path fill="none" stroke="#63b8ff" d="M1259.62,-123.02C1253.7,-122.28 1247.71,-121.58 1242,-121 1127.21,-109.25 777.55,-87.12 651.72,-79.32"/>
<polygon fill="#63b8ff" stroke="#63b8ff" points="652.31,-75.85 642.12,-78.72 651.88,-82.83 652.31,-75.85"/>
</g>
<!-- Node32&#45;&gt;Node26 -->
<g id="edge54" class="edge">
<title>Node32&#45;&gt;Node26</title>
<path fill="none" stroke="#63b8ff" d="M1259.69,-120.98C1211.39,-111.91 1134.72,-97.5 1081.8,-87.55"/>
<polygon fill="#63b8ff" stroke="#63b8ff" points="1082.51,-84.12 1072.04,-85.72 1081.22,-91 1082.51,-84.12"/>
</g>
<!-- Node32&#45;&gt;Node27 -->
<g id="edge45" class="edge">
<title>Node32&#45;&gt;Node27</title>
<path fill="none" stroke="#63b8ff" d="M1309.04,-120.65C1314.29,-107.76 1321.68,-83.46 1312,-66 1302.62,-49.08 1284.86,-37.13 1268.46,-29.16"/>
<polygon fill="#63b8ff" stroke="#63b8ff" points="1269.92,-25.98 1259.36,-25.11 1267.07,-32.37 1269.92,-25.98"/>
</g>
<!-- Node33 -->
<g id="node33" class="node">
<title>Node33</title>
<g id="a_node33"><a xlink:title=" ">
<polygon fill="#e0e0e0" stroke="#999999" points="1457,-85 1397,-85 1397,-66 1457,-66 1457,-85"/>
<text text-anchor="middle" x="1427" y="-73" font-family="Helvetica,sans-Serif" font-size="10.00">filesystem</text>
</a>
</g>
</g>
<!-- Node32&#45;&gt;Node33 -->
<g id="edge42" class="edge">
<title>Node32&#45;&gt;Node33</title>
<path fill="none" stroke="#63b8ff" d="M1325.7,-120.51C1345,-112.12 1374.06,-99.5 1396.11,-89.92"/>
<polygon fill="#63b8ff" stroke="#63b8ff" points="1397.44,-93.16 1405.22,-85.96 1394.66,-86.74 1397.44,-93.16"/>
</g>
<!-- Node34 -->
<g id="node34" class="node">
<title>Node34</title>
<g id="a_node34"><a xlink:title=" ">
<polygon fill="#e0e0e0" stroke="#999999" points="1147,-85 1097,-85 1097,-66 1147,-66 1147,-85"/>
<text text-anchor="middle" x="1122" y="-73" font-family="Helvetica,sans-Serif" font-size="10.00">fstream</text>
</a>
</g>
</g>
<!-- Node32&#45;&gt;Node34 -->
<g id="edge43" class="edge">
<title>Node32&#45;&gt;Node34</title>
<path fill="none" stroke="#63b8ff" d="M1273.96,-120.51C1241.89,-111.22 1191.89,-96.74 1158.09,-86.95"/>
<polygon fill="#63b8ff" stroke="#63b8ff" points="1159.32,-83.67 1148.75,-84.25 1157.38,-90.39 1159.32,-83.67"/>
</g>
<!-- Node35 -->
<g id="node35" class="node">
<title>Node35</title>
<g id="a_node35"><a xlink:title=" ">
<polygon fill="#e0e0e0" stroke="#999999" points="1678.5,-85 1635.5,-85 1635.5,-66 1678.5,-66 1678.5,-85"/>
<text text-anchor="middle" x="1657" y="-73" font-family="Helvetica,sans-Serif" font-size="10.00">fcntl.h</text>
</a>
</g>
</g>
<!-- Node32&#45;&gt;Node35 -->
<g id="edge48" class="edge">
<title>Node32&#45;&gt;Node35</title>
<path fill="none" stroke="#63b8ff" d="M1350.4,-125.23C1410.86,-119.11 1521.26,-106.41 1623.94,-85.4"/>
<polygon fill="#63b8ff" stroke="#63b8ff" points="1624.57,-88.85 1633.65,-83.38 1623.15,-81.99 1624.57,-88.85"/>
</g>
<!-- Node36 -->
<g id="node36" class="node">
<title>Node36</title>
<g id="a_node36"><a xlink:title=" ">
<polygon fill="#e0e0e0" stroke="#999999" points="1234.5,-85 1165.5,-85 1165.5,-66 1234.5,-66 1234.5,-85"/>
<text text-anchor="middle" x="1200" y="-73" font-family="Helvetica,sans-Serif" font-size="10.00">sys/mman.h</text>
</a>
</g>
</g>
<!-- Node32&#45;&gt;Node36 -->
<g id="edge49" class="edge">
<title>Node32&#45;&gt;Node36</title>
<path fill="none" stroke="#63b8ff" d="M1287.19,-120.51C1270.87,-112.27 1246.47,-99.96 1227.63,-90.45"/>
<polygon fill="#63b8ff" stroke="#63b8ff" points="1229.4,-87.42 1218.9,-86.04 1226.25,-93.67 1229.4,-87.42"/>
</g>
<!-- Node37 -->
<g id="node37" class="node">
<title>Node37</title>
<g id="a_node37"><a xlink:title=" ">
<polygon fill="#e0e0e0" stroke="#999999" points="1534.5,-85 1475.5,-85 1475.5,-66 1534.5,-66 1534.5,-85"/>
<text text-anchor="middle" x="1505" y="-73" font-family="Helvetica,sans-Serif" font-size="10.00">sys/stat.h</text>
</a>
</g>
</g>
<!-- Node32&#45;&gt;Node37 -->
<g id="edge50" class="edge">
<title>Node32&#45;&gt;Node37</title>
<path fill="none" stroke="#63b8ff" d="M1338.93,-120.51C1373.57,-111.33 1427.36,-97.07 1464.28,-87.29"/>
<polygon fill="#63b8ff" stroke="#63b8ff" points="1464.92,-90.74 1473.69,-84.8 1463.13,-83.97 1464.92,-90.74"/>
</g>
<!-- Node38 -->
<g id="node38" class="node">
<title>Node38</title>
<g id="a_node38"><a xlink:title=" ">
<polygon fill="#e0e0e0" stroke="#999999" points="1617.5,-85 1552.5,-85 1552.5,-66 1617.5,-66 1617.5,-85"/>
<text text-anchor="middle" x="1585" y="-73" font-family="Helvetica,sans-Serif" font-size="10.00">sys/types.h</text>
</a>
</g>
</g>
<!-- Node32&#45;&gt;Node38 -->
<g id="edge51" class="edge">
<title>Node32&#45;&gt;Node38</title>
<path fill="none" stroke="#63b8ff" d="M1350.43,-121.33C1396.19,-113.03 1469.14,-99.63 1541.24,-85.51"/>
<polygon fill="#63b8ff" stroke="#63b8ff" points="1541.72,-88.99 1550.85,-83.63 1540.37,-82.12 1541.72,-88.99"/>
</g>
<!-- Node39 -->
<g id="node39" class="node">
<title>Node39</title>
<g id="a_node39"><a xlink:title=" ">
<polygon fill="#e0e0e0" stroke="#999999" points="1303,-85 1253,-85 1253,-66 1303,-66 1303,-85"/>
<text text-anchor="middle" x="1278" y="-73" font-family="Helvetica,sans-Serif" font-size="10.00">unistd.h</text>
</a>
</g>
</g>
<!-- Node32&#45;&gt;Node39 -->
<g id="edge52" class="edge">
<title>Node32&#45;&gt;Node39</title>
<path fill="none" stroke="#63b8ff" d="M1300.54,-120.75C1297.05,-113.88 1292.05,-104.08 1287.65,-95.45"/>
<polygon fill="#63b8ff" stroke="#63b8ff" points="1290.9,-94.11 1283.24,-86.79 1284.66,-97.29 1290.9,-94.11"/>
</g>
<!-- Node40&#45;&gt;Node25 -->
<g id="edge57" class="edge">
<title>Node40&#45;&gt;Node25</title>
<path fill="none" stroke="#63b8ff" d="M1113.37,-236.12C1088.65,-226.41 1048.79,-210.76 1020.46,-199.64"/>
<polygon fill="#63b8ff" stroke="#63b8ff" points="1021.84,-196.42 1011.25,-196.02 1019.28,-202.93 1021.84,-196.42"/>
</g>
<!-- Node40&#45;&gt;Node31 -->
<g id="edge58" class="edge">
<title>Node40&#45;&gt;Node31</title>
<path fill="none" stroke="#63b8ff" d="M1170.48,-236.12C1209.64,-226.02 1273.73,-209.51 1317.1,-198.33"/>
<polygon fill="#63b8ff" stroke="#63b8ff" points="1317.92,-201.73 1326.73,-195.85 1316.18,-194.95 1317.92,-201.73"/>
</g>
<!-- Node42&#45;&gt;Node31 -->
<g id="edge61" class="edge">
<title>Node42&#45;&gt;Node31</title>
<path fill="none" stroke="#63b8ff" d="M1331.68,-351.63C1336.78,-324.75 1352.15,-243.73 1359.28,-206.1"/>
<polygon fill="#63b8ff" stroke="#63b8ff" points="1362.65,-207.11 1361.08,-196.63 1355.78,-205.8 1362.65,-207.11"/>
</g>
<!-- Node43&#45;&gt;Node31 -->
<g id="edge63" class="edge">
<title>Node43&#45;&gt;Node31</title>
<path fill="none" stroke="#63b8ff" d="M1402.77,-296.56C1395.85,-277.42 1379.49,-232.15 1370.05,-206.02"/>
<polygon fill="#63b8ff" stroke="#63b8ff" points="1373.36,-204.86 1366.67,-196.65 1366.77,-207.24 1373.36,-204.86"/>
</g>
<!-- Node44&#45;&gt;Node25 -->
<g id="edge68" class="edge">
<title>Node44&#45;&gt;Node25</title>
<path fill="none" stroke="#63b8ff" d="M1509.03,-238.91C1410.29,-230.28 1225.57,-213.61 1057.28,-195.22"/>
<polygon fill="#63b8ff" stroke="#63b8ff" points="1057.79,-191.75 1047.46,-194.14 1057.02,-198.71 1057.79,-191.75"/>
</g>
<!-- Node44&#45;&gt;Node35 -->
<g id="edge65" class="edge">
<title>Node44&#45;&gt;Node35</title>
<path fill="none" stroke="#63b8ff" d="M1586.56,-230.63C1600.42,-200.31 1632.67,-129.74 1648.26,-95.63"/>
<polygon fill="#63b8ff" stroke="#63b8ff" points="1651.42,-97.14 1652.39,-86.59 1645.05,-94.23 1651.42,-97.14"/>
</g>
<!-- Node44&#45;&gt;Node37 -->
<g id="edge66" class="edge">
<title>Node44&#45;&gt;Node37</title>
<path fill="none" stroke="#63b8ff" d="M1573.61,-230.63C1560.11,-200.31 1528.7,-129.74 1513.52,-95.63"/>
<polygon fill="#63b8ff" stroke="#63b8ff" points="1516.76,-94.31 1509.49,-86.6 1510.36,-97.16 1516.76,-94.31"/>
</g>
<!-- Node44&#45;&gt;Node38 -->
<g id="edge67" class="edge">
<title>Node44&#45;&gt;Node38</title>
<path fill="none" stroke="#63b8ff" d="M1580.43,-230.63C1581.32,-200.57 1583.38,-130.97 1584.41,-96.54"/>
<polygon fill="#63b8ff" stroke="#63b8ff" points="1587.9,-96.83 1584.7,-86.73 1580.9,-96.62 1587.9,-96.83"/>
</g>
</g>
</svg>
