<?xml version="1.0" encoding="UTF-8" standalone="no"?>
<!DOCTYPE svg PUBLIC "-//W3C//DTD SVG 1.1//EN"
 "http://www.w3.org/Graphics/SVG/1.1/DTD/svg11.dtd">
<!-- Generated by graphviz version 7.0.5 (20221223.1930)
 -->
<!-- Title: axi_dma_demo.cpp Pages: 1 -->
<!--zoomable 434 -->
<svg id="main" version="1.1" xmlns="http://www.w3.org/2000/svg" xmlns:xlink="http://www.w3.org/1999/xlink" xml:space="preserve" onload="init(evt)">
<style type="text/css"><![CDATA[
.edge:hover path { stroke: red; }
.edge:hover polygon { stroke: red; fill: red; }
]]></style>
<script type="text/javascript"><![CDATA[
var edges = document.getElementsByTagName('g');
if (edges && edges.length) {
  for (var i=0;i<edges.length;i++) {
    if (edges[i].id.substr(0,4)=='edge') {
      edges[i].setAttribute('class','edge');
    }
  }
}
]]></script>
        <defs>
                <circle id="rim" cx="0" cy="0" r="7"/>
                <circle id="rim2" cx="0" cy="0" r="3.5"/>
                <g id="zoomPlus">
                        <use xlink:href="#rim" fill="#404040">
                                <set attributeName="fill" to="#808080" begin="zoomplus.mouseover" end="zoomplus.mouseout"/>
                        </use>
                        <path d="M-4,0h8M0,-4v8" fill="none" stroke="white" stroke-width="1.5" pointer-events="none"/>
                </g>
                <g id="zoomMin">
                        <use xlink:href="#rim" fill="#404040">
                                <set attributeName="fill" to="#808080" begin="zoomminus.mouseover" end="zoomminus.mouseout"/>
                        </use>
                        <path d="M-4,0h8" fill="none" stroke="white" stroke-width="1.5" pointer-events="none"/>
                </g>
                <g id="dirArrow">
                        <path fill="none" stroke="white" stroke-width="1.5" d="M0,-3.0v7 M-2.5,-0.5L0,-3.0L2.5,-0.5"/>
                </g>
               <g id="resetDef">
                       <use xlink:href="#rim2" fill="#404040">
                               <set attributeName="fill" to="#808080" begin="reset.mouseover" end="reset.mouseout"/>
                       </use>
               </g>
        </defs>

<script type="text/javascript">
var viewWidth = 1962;
var viewHeight = 434;
var sectionId = 'dynsection-0';
</script>
<script xlink:href="svgpan.js"/>
<svg id="graph" class="graph">
<g id="viewport">
<title>axi_dma_demo.cpp</title>
<!-- Node1 -->
<g id="node1" class="node">
<title>Node1</title>
<g id="a_node1"><a xlink:title=" ">
<polygon fill="#999999" stroke="#666666" points="607.5,-426 507.5,-426 507.5,-407 607.5,-407 607.5,-426"/>
<text text-anchor="middle" x="557.5" y="-414" font-family="Helvetica,sans-Serif" font-size="10.00">axi_dma_demo.cpp</text>
</a>
</g>
</g>
<!-- Node2 -->
<g id="node2" class="node">
<title>Node2</title>
<g id="a_node2"><a xlink:title=" ">
<polygon fill="#e0e0e0" stroke="#999999" points="47,-371 0,-371 0,-352 47,-352 47,-371"/>
<text text-anchor="middle" x="23.5" y="-359" font-family="Helvetica,sans-Serif" font-size="10.00">csignal</text>
</a>
</g>
</g>
<!-- Node1&#45;&gt;Node2 -->
<g id="edge1" class="edge">
<title>Node1&#45;&gt;Node2</title>
<path fill="none" stroke="#63b8ff" d="M507.25,-413.89C418.4,-410.43 227.65,-400.23 58.29,-371.21"/>
<polygon fill="#63b8ff" stroke="#63b8ff" points="59.11,-367.8 48.66,-369.53 57.91,-374.69 59.11,-367.8"/>
</g>
<!-- Node3 -->
<g id="node3" class="node">
<title>Node3</title>
<g id="a_node3"><a xlink:title=" ">
<polygon fill="#e0e0e0" stroke="#999999" points="106,-371 65,-371 65,-352 106,-352 106,-371"/>
<text text-anchor="middle" x="85.5" y="-359" font-family="Helvetica,sans-Serif" font-size="10.00">future</text>
</a>
</g>
</g>
<!-- Node1&#45;&gt;Node3 -->
<g id="edge2" class="edge">
<title>Node1&#45;&gt;Node3</title>
<path fill="none" stroke="#63b8ff" d="M507.06,-412.61C425.4,-407.43 259.36,-394.82 120.5,-371 119.33,-370.8 118.14,-370.58 116.94,-370.35"/>
<polygon fill="#63b8ff" stroke="#63b8ff" points="118.12,-367.03 107.61,-368.33 116.64,-373.87 118.12,-367.03"/>
</g>
<!-- Node4 -->
<g id="node4" class="node">
<title>Node4</title>
<g id="a_node4"><a xlink:title=" ">
<polygon fill="#e0e0e0" stroke="#999999" points="459.5,-24.5 405.5,-24.5 405.5,-5.5 459.5,-5.5 459.5,-24.5"/>
<text text-anchor="middle" x="432.5" y="-12.5" font-family="Helvetica,sans-Serif" font-size="10.00">iostream</text>
</a>
</g>
</g>
<!-- Node1&#45;&gt;Node4 -->
<g id="edge3" class="edge">
<title>Node1&#45;&gt;Node4</title>
<path fill="none" stroke="#63b8ff" d="M507.31,-412.59C424.15,-407.19 261.76,-394.02 209.5,-371 169.53,-353.4 134.5,-351.18 134.5,-307.5 134.5,-307.5 134.5,-307.5 134.5,-129.5 134.5,-96.61 145.56,-84.86 172.5,-66 207.77,-41.31 330.66,-25.98 394.04,-19.53"/>
<polygon fill="#63b8ff" stroke="#63b8ff" points="394.03,-23.05 403.64,-18.58 393.34,-16.08 394.03,-23.05"/>
</g>
<!-- Node5 -->
<g id="node5" class="node">
<title>Node5</title>
<g id="a_node5"><a xlink:title=" ">
<polygon fill="#e0e0e0" stroke="#999999" points="675,-24.5 616,-24.5 616,-5.5 675,-5.5 675,-24.5"/>
<text text-anchor="middle" x="645.5" y="-12.5" font-family="Helvetica,sans-Serif" font-size="10.00">stdexcept</text>
</a>
</g>
</g>
<!-- Node1&#45;&gt;Node5 -->
<g id="edge4" class="edge">
<title>Node1&#45;&gt;Node5</title>
<path fill="none" stroke="#63b8ff" d="M507.17,-411.96C402.81,-403.25 172.5,-376.23 172.5,-307.5 172.5,-307.5 172.5,-307.5 172.5,-129.5 172.5,-100.04 168.87,-84.86 191.5,-66 207.29,-52.83 495.6,-28.17 604.4,-19.29"/>
<polygon fill="#63b8ff" stroke="#63b8ff" points="604.36,-22.81 614.05,-18.51 603.8,-15.83 604.36,-22.81"/>
</g>
<!-- Node6 -->
<g id="node6" class="node">
<title>Node6</title>
<g id="a_node6"><a xlink:href="_data_handler_print_8hpp.html" target="_top" xlink:title=" ">
<polygon fill="white" stroke="#666666" points="1027,-371 918,-371 918,-352 1027,-352 1027,-371"/>
<text text-anchor="middle" x="972.5" y="-359" font-family="Helvetica,sans-Serif" font-size="10.00">DataHandlerPrint.hpp</text>
</a>
</g>
</g>
<!-- Node1&#45;&gt;Node6 -->
<g id="edge5" class="edge">
<title>Node1&#45;&gt;Node6</title>
<path fill="none" stroke="#63b8ff" d="M607.97,-409.05C682.86,-399.49 823.47,-381.53 906.46,-370.93"/>
<polygon fill="#63b8ff" stroke="#63b8ff" points="906.8,-374.42 916.27,-369.68 905.91,-367.48 906.8,-374.42"/>
</g>
<!-- Node16 -->
<g id="node16" class="node">
<title>Node16</title>
<g id="a_node16"><a xlink:href="_logging_8hpp.html" target="_top" xlink:title=" ">
<polygon fill="white" stroke="#666666" points="1386,-85 1317,-85 1317,-66 1386,-66 1386,-85"/>
<text text-anchor="middle" x="1351.5" y="-73" font-family="Helvetica,sans-Serif" font-size="10.00">Logging.hpp</text>
</a>
</g>
</g>
<!-- Node1&#45;&gt;Node16 -->
<g id="edge70" class="edge">
<title>Node1&#45;&gt;Node16</title>
<path fill="none" stroke="#63b8ff" d="M607.8,-414.27C787.41,-409.22 1386.5,-386.47 1386.5,-307.5 1386.5,-307.5 1386.5,-307.5 1386.5,-184.5 1386.5,-152.07 1372.04,-116.72 1361.71,-95.59"/>
<polygon fill="#63b8ff" stroke="#63b8ff" points="1364.87,-94.08 1357.2,-86.77 1358.64,-97.27 1364.87,-94.08"/>
</g>
<!-- Node24 -->
<g id="node24" class="node">
<title>Node24</title>
<g id="a_node24"><a xlink:href="_u_dma_buf_8hpp.html" target="_top" xlink:title=" ">
<polygon fill="white" stroke="#666666" points="1358,-255.5 1281,-255.5 1281,-236.5 1358,-236.5 1358,-255.5"/>
<text text-anchor="middle" x="1319.5" y="-243.5" font-family="Helvetica,sans-Serif" font-size="10.00">UDmaBuf.hpp</text>
</a>
</g>
</g>
<!-- Node1&#45;&gt;Node24 -->
<g id="edge71" class="edge">
<title>Node1&#45;&gt;Node24</title>
<path fill="none" stroke="#63b8ff" d="M607.81,-415.05C695.79,-413.32 882.9,-405.51 1036.5,-371 1106.19,-355.35 1122.15,-344.83 1187.5,-316 1225.55,-299.21 1267.9,-276.28 1294.12,-261.56"/>
<polygon fill="#63b8ff" stroke="#63b8ff" points="1295.69,-264.69 1302.67,-256.72 1292.24,-258.6 1295.69,-264.69"/>
</g>
<!-- Node29 -->
<g id="node29" class="node">
<title>Node29</title>
<g id="a_node29"><a xlink:href="_uio_axi_dma_if_8hpp.html" target="_top" xlink:title=" ">
<polygon fill="white" stroke="#666666" points="716,-255.5 627,-255.5 627,-236.5 716,-236.5 716,-255.5"/>
<text text-anchor="middle" x="671.5" y="-243.5" font-family="Helvetica,sans-Serif" font-size="10.00">UioAxiDmaIf.hpp</text>
</a>
</g>
</g>
<!-- Node1&#45;&gt;Node29 -->
<g id="edge72" class="edge">
<title>Node1&#45;&gt;Node29</title>
<path fill="none" stroke="#63b8ff" d="M598.33,-406.61C618.37,-400.11 641.03,-389.15 654.5,-371 677.2,-340.41 676.78,-293.56 674.26,-267.07"/>
<polygon fill="#63b8ff" stroke="#63b8ff" points="677.77,-266.89 673.13,-257.37 670.81,-267.71 677.77,-266.89"/>
</g>
<!-- Node32 -->
<g id="node32" class="node">
<title>Node32</title>
<g id="a_node32"><a xlink:href="_uio_if_8hpp.html" target="_top" xlink:title=" ">
<polygon fill="white" stroke="#666666" points="681.5,-140 591.5,-140 591.5,-121 681.5,-121 681.5,-140"/>
<text text-anchor="middle" x="636.5" y="-128" font-family="Helvetica,sans-Serif" font-size="10.00">udmaio/UioIf.hpp</text>
</a>
</g>
</g>
<!-- Node1&#45;&gt;Node32 -->
<g id="edge73" class="edge">
<title>Node1&#45;&gt;Node32</title>
<path fill="none" stroke="#63b8ff" d="M537,-406.56C505.42,-391.24 448.5,-356.78 448.5,-307.5 448.5,-307.5 448.5,-307.5 448.5,-245 448.5,-182.76 524.95,-153.74 580.35,-140.89"/>
<polygon fill="#63b8ff" stroke="#63b8ff" points="580.97,-144.34 589.99,-138.78 579.47,-137.5 580.97,-144.34"/>
</g>
<!-- Node41 -->
<g id="node41" class="node">
<title>Node41</title>
<g id="a_node41"><a xlink:href="_uio_mem_sgdma_8hpp.html" target="_top" xlink:title=" ">
<polygon fill="white" stroke="#666666" points="836.5,-255.5 734.5,-255.5 734.5,-236.5 836.5,-236.5 836.5,-255.5"/>
<text text-anchor="middle" x="785.5" y="-243.5" font-family="Helvetica,sans-Serif" font-size="10.00">UioMemSgdma.hpp</text>
</a>
</g>
</g>
<!-- Node1&#45;&gt;Node41 -->
<g id="edge74" class="edge">
<title>Node1&#45;&gt;Node41</title>
<path fill="none" stroke="#63b8ff" d="M593.93,-406.52C618.18,-399.42 649.96,-387.86 674.5,-371 717.6,-341.39 755.23,-291.67 773.59,-265.08"/>
<polygon fill="#63b8ff" stroke="#63b8ff" points="776.31,-267.31 779,-257.06 770.51,-263.39 776.31,-267.31"/>
</g>
<!-- Node43 -->
<g id="node43" class="node">
<title>Node43</title>
<g id="a_node43"><a xlink:href="_uio_gpio_status_8hpp.html" target="_top" xlink:title=" ">
<polygon fill="white" stroke="#666666" points="645.5,-371 547.5,-371 547.5,-352 645.5,-352 645.5,-371"/>
<text text-anchor="middle" x="596.5" y="-359" font-family="Helvetica,sans-Serif" font-size="10.00">UioGpioStatus.hpp</text>
</a>
</g>
</g>
<!-- Node1&#45;&gt;Node43 -->
<g id="edge61" class="edge">
<title>Node1&#45;&gt;Node43</title>
<path fill="none" stroke="#63b8ff" d="M563.94,-406.75C569.16,-399.66 576.69,-389.42 583.19,-380.59"/>
<polygon fill="#63b8ff" stroke="#63b8ff" points="585.92,-382.79 589.02,-372.66 580.28,-378.64 585.92,-382.79"/>
</g>
<!-- Node44 -->
<g id="node44" class="node">
<title>Node44</title>
<g id="a_node44"><a xlink:href="_uio_traffic_gen_8hpp.html" target="_top" xlink:title=" ">
<polygon fill="white" stroke="#666666" points="570.5,-316 476.5,-316 476.5,-297 570.5,-297 570.5,-316"/>
<text text-anchor="middle" x="523.5" y="-304" font-family="Helvetica,sans-Serif" font-size="10.00">UioTrafficGen.hpp</text>
</a>
</g>
</g>
<!-- Node1&#45;&gt;Node44 -->
<g id="edge63" class="edge">
<title>Node1&#45;&gt;Node44</title>
<path fill="none" stroke="#63b8ff" d="M553.26,-406.81C549.07,-397.96 542.7,-383.77 538.5,-371 533.78,-356.63 529.9,-339.98 527.27,-327.34"/>
<polygon fill="#63b8ff" stroke="#63b8ff" points="530.75,-326.87 525.37,-317.74 523.88,-328.23 530.75,-326.87"/>
</g>
<!-- Node45 -->
<g id="node45" class="node">
<title>Node45</title>
<g id="a_node45"><a xlink:href="_fpga_mem_buffer_over_xdma_8hpp.html" target="_top" xlink:title=" ">
<polygon fill="white" stroke="#666666" points="420,-261 279,-261 279,-231 420,-231 420,-261"/>
<text text-anchor="start" x="287" y="-249" font-family="Helvetica,sans-Serif" font-size="10.00">udmaio/FpgaMemBufferOver</text>
<text text-anchor="middle" x="349.5" y="-238" font-family="Helvetica,sans-Serif" font-size="10.00">Xdma.hpp</text>
</a>
</g>
</g>
<!-- Node1&#45;&gt;Node45 -->
<g id="edge65" class="edge">
<title>Node1&#45;&gt;Node45</title>
<path fill="none" stroke="#63b8ff" d="M512.95,-406.51C488,-399.83 457.4,-388.72 434.5,-371 399.88,-344.21 374.13,-299.29 360.5,-271.5"/>
<polygon fill="#63b8ff" stroke="#63b8ff" points="363.81,-270.33 356.36,-262.79 357.49,-273.33 363.81,-270.33"/>
</g>
<!-- Node46 -->
<g id="node46" class="node">
<title>Node46</title>
<g id="a_node46"><a xlink:title=" ">
<polygon fill="#e0e0e0" stroke="#999999" points="1548.5,-371 1414.5,-371 1414.5,-352 1548.5,-352 1548.5,-371"/>
<text text-anchor="middle" x="1481.5" y="-359" font-family="Helvetica,sans-Serif" font-size="10.00">boost/program_options.hpp</text>
</a>
</g>
</g>
<!-- Node1&#45;&gt;Node46 -->
<g id="edge75" class="edge">
<title>Node1&#45;&gt;Node46</title>
<path fill="none" stroke="#63b8ff" d="M607.92,-413.75C738.83,-409.01 1100.25,-394.66 1400.5,-371 1401.35,-370.93 1402.2,-370.87 1403.05,-370.8"/>
<polygon fill="#63b8ff" stroke="#63b8ff" points="1403.17,-374.3 1412.83,-369.95 1402.57,-367.32 1403.17,-374.3"/>
</g>
<!-- Node7 -->
<g id="node7" class="node">
<title>Node7</title>
<g id="a_node7"><a xlink:title=" ">
<polygon fill="#e0e0e0" stroke="#999999" points="1120.5,-316 1070.5,-316 1070.5,-297 1120.5,-297 1120.5,-316"/>
<text text-anchor="middle" x="1095.5" y="-304" font-family="Helvetica,sans-Serif" font-size="10.00">optional</text>
</a>
</g>
</g>
<!-- Node6&#45;&gt;Node7 -->
<g id="edge6" class="edge">
<title>Node6&#45;&gt;Node7</title>
<path fill="none" stroke="#63b8ff" d="M993.37,-351.51C1012.92,-343.08 1042.4,-330.38 1064.67,-320.79"/>
<polygon fill="#63b8ff" stroke="#63b8ff" points="1065.75,-324.13 1073.55,-316.96 1062.98,-317.7 1065.75,-324.13"/>
</g>
<!-- Node8 -->
<g id="node8" class="node">
<title>Node8</title>
<g id="a_node8"><a xlink:title=" ">
<polygon fill="#e0e0e0" stroke="#999999" points="1178,-316 1139,-316 1139,-297 1178,-297 1178,-316"/>
<text text-anchor="middle" x="1158.5" y="-304" font-family="Helvetica,sans-Serif" font-size="10.00">utility</text>
</a>
</g>
</g>
<!-- Node6&#45;&gt;Node8 -->
<g id="edge7" class="edge">
<title>Node6&#45;&gt;Node8</title>
<path fill="none" stroke="#63b8ff" d="M1004.4,-351.55C1033.9,-343.25 1079.26,-330.44 1127.54,-316.55"/>
<polygon fill="#63b8ff" stroke="#63b8ff" points="1128.44,-319.93 1137.08,-313.8 1126.51,-313.2 1128.44,-319.93"/>
</g>
<!-- Node9 -->
<g id="node9" class="node">
<title>Node9</title>
<g id="a_node9"><a xlink:href="_axi_traffic_gen_lfsr_8hpp.html" target="_top" xlink:title=" ">
<polygon fill="white" stroke="#666666" points="860.5,-195 750.5,-195 750.5,-176 860.5,-176 860.5,-195"/>
<text text-anchor="middle" x="805.5" y="-183" font-family="Helvetica,sans-Serif" font-size="10.00">AxiTrafficGenLfsr.hpp</text>
</a>
</g>
</g>
<!-- Node6&#45;&gt;Node9 -->
<g id="edge8" class="edge">
<title>Node6&#45;&gt;Node9</title>
<path fill="none" stroke="#63b8ff" d="M942.88,-351.52C923.85,-344.47 899.75,-332.97 883.5,-316 854.88,-286.11 868.05,-265.7 845.5,-231 839.08,-221.13 830.51,-211.27 822.94,-203.36"/>
<polygon fill="#63b8ff" stroke="#63b8ff" points="825.59,-201.06 816.07,-196.42 820.62,-205.99 825.59,-201.06"/>
</g>
<!-- Node11 -->
<g id="node11" class="node">
<title>Node11</title>
<g id="a_node11"><a xlink:href="_data_handler_abstract_8hpp.html" target="_top" xlink:title=" ">
<polygon fill="white" stroke="#666666" points="1052.5,-316 892.5,-316 892.5,-297 1052.5,-297 1052.5,-316"/>
<text text-anchor="middle" x="972.5" y="-304" font-family="Helvetica,sans-Serif" font-size="10.00">udmaio/DataHandlerAbstract.hpp</text>
</a>
</g>
</g>
<!-- Node6&#45;&gt;Node11 -->
<g id="edge10" class="edge">
<title>Node6&#45;&gt;Node11</title>
<path fill="none" stroke="#63b8ff" d="M972.5,-351.75C972.5,-345.27 972.5,-336.16 972.5,-327.9"/>
<polygon fill="#63b8ff" stroke="#63b8ff" points="976,-327.96 972.5,-317.96 969,-327.96 976,-327.96"/>
</g>
<!-- Node10 -->
<g id="node10" class="node">
<title>Node10</title>
<g id="a_node10"><a xlink:title=" ">
<polygon fill="#e0e0e0" stroke="#999999" points="787.5,-140 741.5,-140 741.5,-121 787.5,-121 787.5,-140"/>
<text text-anchor="middle" x="764.5" y="-128" font-family="Helvetica,sans-Serif" font-size="10.00">cstdint</text>
</a>
</g>
</g>
<!-- Node9&#45;&gt;Node10 -->
<g id="edge9" class="edge">
<title>Node9&#45;&gt;Node10</title>
<path fill="none" stroke="#63b8ff" d="M798.73,-175.75C793.18,-168.58 785.16,-158.2 778.27,-149.3"/>
<polygon fill="#63b8ff" stroke="#63b8ff" points="781.23,-147.41 772.34,-141.64 775.69,-151.69 781.23,-147.41"/>
</g>
<!-- Node12 -->
<g id="node12" class="node">
<title>Node12</title>
<g id="a_node12"><a xlink:title=" ">
<polygon fill="#e0e0e0" stroke="#999999" points="1027,-24.5 986,-24.5 986,-5.5 1027,-5.5 1027,-24.5"/>
<text text-anchor="middle" x="1006.5" y="-12.5" font-family="Helvetica,sans-Serif" font-size="10.00">string</text>
</a>
</g>
</g>
<!-- Node11&#45;&gt;Node12 -->
<g id="edge11" class="edge">
<title>Node11&#45;&gt;Node12</title>
<path fill="none" stroke="#63b8ff" d="M967.33,-296.55C959.58,-281.83 947.1,-252.04 959.5,-231 976.27,-202.55 996.15,-211.94 1024.5,-195 1102.07,-148.64 1152.21,-164.32 1195.5,-85 1241.84,-0.09 1213.85,-90.68 1036.5,-30 1035.85,-29.78 1035.2,-29.55 1034.55,-29.31"/>
<polygon fill="#63b8ff" stroke="#63b8ff" points="1035.98,-26.12 1025.41,-25.51 1033.3,-32.58 1035.98,-26.12"/>
</g>
<!-- Node13 -->
<g id="node13" class="node">
<title>Node13</title>
<g id="a_node13"><a xlink:title=" ">
<polygon fill="#e0e0e0" stroke="#999999" points="1046.5,-140 1002.5,-140 1002.5,-121 1046.5,-121 1046.5,-140"/>
<text text-anchor="middle" x="1024.5" y="-128" font-family="Helvetica,sans-Serif" font-size="10.00">vector</text>
</a>
</g>
</g>
<!-- Node11&#45;&gt;Node13 -->
<g id="edge12" class="edge">
<title>Node11&#45;&gt;Node13</title>
<path fill="none" stroke="#63b8ff" d="M958.27,-296.51C947.29,-288.65 932.92,-276.14 926.5,-261 921.3,-248.72 919.29,-242.21 926.5,-231 947.37,-198.55 980.15,-224.09 1005.5,-195 1016.04,-182.91 1020.73,-165.17 1022.82,-151.51"/>
<polygon fill="#63b8ff" stroke="#63b8ff" points="1026.26,-152.23 1023.93,-141.9 1019.31,-151.43 1026.26,-152.23"/>
</g>
<!-- Node14 -->
<g id="node14" class="node">
<title>Node14</title>
<g id="a_node14"><a xlink:title=" ">
<polygon fill="#e0e0e0" stroke="#999999" points="1048.5,-255.5 968.5,-255.5 968.5,-236.5 1048.5,-236.5 1048.5,-255.5"/>
<text text-anchor="middle" x="1008.5" y="-243.5" font-family="Helvetica,sans-Serif" font-size="10.00">boost/asio.hpp</text>
</a>
</g>
</g>
<!-- Node11&#45;&gt;Node14 -->
<g id="edge13" class="edge">
<title>Node11&#45;&gt;Node14</title>
<path fill="none" stroke="#63b8ff" d="M977.81,-296.87C982.92,-288.57 990.79,-275.78 997.29,-265.22"/>
<polygon fill="#63b8ff" stroke="#63b8ff" points="1000.11,-267.31 1002.37,-256.96 994.15,-263.64 1000.11,-267.31"/>
</g>
<!-- Node15 -->
<g id="node15" class="node">
<title>Node15</title>
<g id="a_node15"><a xlink:title=" ">
<polygon fill="#e0e0e0" stroke="#999999" points="1186,-85 1049,-85 1049,-66 1186,-66 1186,-85"/>
<text text-anchor="middle" x="1117.5" y="-73" font-family="Helvetica,sans-Serif" font-size="10.00">boost/core/noncopyable.hpp</text>
</a>
</g>
</g>
<!-- Node11&#45;&gt;Node15 -->
<g id="edge14" class="edge">
<title>Node11&#45;&gt;Node15</title>
<path fill="none" stroke="#63b8ff" d="M1039.12,-296.53C1101.14,-287.5 1185.5,-273.19 1195.5,-261 1239.01,-207.95 1169.14,-127.1 1134.8,-92.79"/>
<polygon fill="#63b8ff" stroke="#63b8ff" points="1137.61,-90.65 1128,-86.18 1132.72,-95.66 1137.61,-90.65"/>
</g>
<!-- Node11&#45;&gt;Node16 -->
<g id="edge15" class="edge">
<title>Node11&#45;&gt;Node16</title>
<path fill="none" stroke="#63b8ff" d="M1052.91,-297.21C1112.87,-289.85 1188.81,-277.67 1215.5,-261 1281.42,-219.82 1325.92,-134.07 1343.31,-95.74"/>
<polygon fill="#63b8ff" stroke="#63b8ff" points="1346.48,-97.22 1347.31,-86.66 1340.08,-94.4 1346.48,-97.22"/>
</g>
<!-- Node11&#45;&gt;Node24 -->
<g id="edge24" class="edge">
<title>Node11&#45;&gt;Node24</title>
<path fill="none" stroke="#63b8ff" d="M1046.6,-296.54C1106.28,-288.78 1192.19,-276.39 1266.5,-261 1269.89,-260.3 1273.38,-259.51 1276.88,-258.69"/>
<polygon fill="#63b8ff" stroke="#63b8ff" points="1277.64,-262.1 1286.49,-256.29 1275.95,-255.31 1277.64,-262.1"/>
</g>
<!-- Node11&#45;&gt;Node29 -->
<g id="edge36" class="edge">
<title>Node11&#45;&gt;Node29</title>
<path fill="none" stroke="#63b8ff" d="M915.85,-296.54C865.63,-288.3 790.4,-275.24 725.5,-261 722.2,-260.28 718.8,-259.49 715.38,-258.67"/>
<polygon fill="#63b8ff" stroke="#63b8ff" points="716.55,-255.35 706,-256.35 714.87,-262.15 716.55,-255.35"/>
</g>
<!-- Node11&#45;&gt;Node41 -->
<g id="edge57" class="edge">
<title>Node11&#45;&gt;Node41</title>
<path fill="none" stroke="#63b8ff" d="M944.1,-296.62C912.38,-286.69 860.83,-270.57 825.15,-259.4"/>
<polygon fill="#63b8ff" stroke="#63b8ff" points="826.2,-256.07 815.61,-256.42 824.11,-262.75 826.2,-256.07"/>
</g>
<!-- Node42 -->
<g id="node42" class="node">
<title>Node42</title>
<g id="a_node42"><a xlink:title=" ">
<polygon fill="#e0e0e0" stroke="#999999" points="1186.5,-261 1066.5,-261 1066.5,-231 1186.5,-231 1186.5,-261"/>
<text text-anchor="start" x="1074.5" y="-249" font-family="Helvetica,sans-Serif" font-size="10.00">boost/asio/posix/stream</text>
<text text-anchor="middle" x="1126.5" y="-238" font-family="Helvetica,sans-Serif" font-size="10.00">_descriptor.hpp</text>
</a>
</g>
</g>
<!-- Node11&#45;&gt;Node42 -->
<g id="edge60" class="edge">
<title>Node11&#45;&gt;Node42</title>
<path fill="none" stroke="#63b8ff" d="M995.89,-296.62C1017.58,-288.38 1050.54,-275.86 1077.92,-265.45"/>
<polygon fill="#63b8ff" stroke="#63b8ff" points="1078.97,-268.8 1087.07,-261.98 1076.48,-262.26 1078.97,-268.8"/>
</g>
<!-- Node16&#45;&gt;Node12 -->
<g id="edge16" class="edge">
<title>Node16&#45;&gt;Node12</title>
<path fill="none" stroke="#63b8ff" d="M1316.76,-72.95C1257.95,-69.58 1135.51,-59.38 1036.5,-30 1035.54,-29.71 1034.56,-29.4 1033.59,-29.07"/>
<polygon fill="#63b8ff" stroke="#63b8ff" points="1035.28,-25.98 1024.69,-25.47 1032.65,-32.46 1035.28,-25.98"/>
</g>
<!-- Node17 -->
<g id="node17" class="node">
<title>Node17</title>
<g id="a_node17"><a xlink:title=" ">
<polygon fill="#e0e0e0" stroke="#999999" points="1953.5,-24.5 1857.5,-24.5 1857.5,-5.5 1953.5,-5.5 1953.5,-24.5"/>
<text text-anchor="middle" x="1905.5" y="-12.5" font-family="Helvetica,sans-Serif" font-size="10.00">boost/log/core.hpp</text>
</a>
</g>
</g>
<!-- Node16&#45;&gt;Node17 -->
<g id="edge17" class="edge">
<title>Node16&#45;&gt;Node17</title>
<path fill="none" stroke="#63b8ff" d="M1386.38,-73.2C1467.79,-69.76 1676.53,-58.65 1848.5,-30 1852.79,-29.29 1857.23,-28.42 1861.65,-27.48"/>
<polygon fill="#63b8ff" stroke="#63b8ff" points="1862.07,-30.97 1871.05,-25.33 1860.52,-24.14 1862.07,-30.97"/>
</g>
<!-- Node18 -->
<g id="node18" class="node">
<title>Node18</title>
<g id="a_node18"><a xlink:title=" ">
<polygon fill="#e0e0e0" stroke="#999999" points="1174,-24.5 1045,-24.5 1045,-5.5 1174,-5.5 1174,-24.5"/>
<text text-anchor="middle" x="1109.5" y="-12.5" font-family="Helvetica,sans-Serif" font-size="10.00">boost/log/expressions.hpp</text>
</a>
</g>
</g>
<!-- Node16&#45;&gt;Node18 -->
<g id="edge18" class="edge">
<title>Node16&#45;&gt;Node18</title>
<path fill="none" stroke="#63b8ff" d="M1316.57,-66.06C1274.73,-55.94 1204.43,-38.95 1157.5,-27.6"/>
<polygon fill="#63b8ff" stroke="#63b8ff" points="1158.42,-24.22 1147.87,-25.28 1156.77,-31.03 1158.42,-24.22"/>
</g>
<!-- Node19 -->
<g id="node19" class="node">
<title>Node19</title>
<g id="a_node19"><a xlink:title=" ">
<polygon fill="#e0e0e0" stroke="#999999" points="1293,-24.5 1192,-24.5 1192,-5.5 1293,-5.5 1293,-24.5"/>
<text text-anchor="middle" x="1242.5" y="-12.5" font-family="Helvetica,sans-Serif" font-size="10.00">boost/log/trivial.hpp</text>
</a>
</g>
</g>
<!-- Node16&#45;&gt;Node19 -->
<g id="edge19" class="edge">
<title>Node16&#45;&gt;Node19</title>
<path fill="none" stroke="#63b8ff" d="M1334.95,-65.62C1317.5,-56.25 1289.75,-41.36 1269.21,-30.33"/>
<polygon fill="#63b8ff" stroke="#63b8ff" points="1271.01,-27.33 1260.54,-25.68 1267.7,-33.5 1271.01,-27.33"/>
</g>
<!-- Node20 -->
<g id="node20" class="node">
<title>Node20</title>
<g id="a_node20"><a xlink:title=" ">
<polygon fill="#e0e0e0" stroke="#999999" points="1420,-30 1311,-30 1311,0 1420,0 1420,-30"/>
<text text-anchor="start" x="1319" y="-18" font-family="Helvetica,sans-Serif" font-size="10.00">boost/log/utility/setup</text>
<text text-anchor="middle" x="1365.5" y="-7" font-family="Helvetica,sans-Serif" font-size="10.00">/console.hpp</text>
</a>
</g>
</g>
<!-- Node16&#45;&gt;Node20 -->
<g id="edge20" class="edge">
<title>Node16&#45;&gt;Node20</title>
<path fill="none" stroke="#63b8ff" d="M1353.57,-65.87C1355.13,-59.33 1357.37,-49.99 1359.48,-41.15"/>
<polygon fill="#63b8ff" stroke="#63b8ff" points="1362.85,-42.13 1361.77,-31.59 1356.04,-40.5 1362.85,-42.13"/>
</g>
<!-- Node21 -->
<g id="node21" class="node">
<title>Node21</title>
<g id="a_node21"><a xlink:title=" ">
<polygon fill="#e0e0e0" stroke="#999999" points="1569,-30 1438,-30 1438,0 1569,0 1569,-30"/>
<text text-anchor="start" x="1446" y="-18" font-family="Helvetica,sans-Serif" font-size="10.00">boost/log/sources/severity</text>
<text text-anchor="middle" x="1503.5" y="-7" font-family="Helvetica,sans-Serif" font-size="10.00">_channel_logger.hpp</text>
</a>
</g>
</g>
<!-- Node16&#45;&gt;Node21 -->
<g id="edge21" class="edge">
<title>Node16&#45;&gt;Node21</title>
<path fill="none" stroke="#63b8ff" d="M1374.59,-65.62C1395.99,-57.38 1428.52,-44.86 1455.55,-34.45"/>
<polygon fill="#63b8ff" stroke="#63b8ff" points="1456.49,-37.84 1464.57,-30.98 1453.98,-31.31 1456.49,-37.84"/>
</g>
<!-- Node22 -->
<g id="node22" class="node">
<title>Node22</title>
<g id="a_node22"><a xlink:title=" ">
<polygon fill="#e0e0e0" stroke="#999999" points="1700,-30 1587,-30 1587,0 1700,0 1700,-30"/>
<text text-anchor="start" x="1595" y="-18" font-family="Helvetica,sans-Serif" font-size="10.00">boost/log/support/date</text>
<text text-anchor="middle" x="1643.5" y="-7" font-family="Helvetica,sans-Serif" font-size="10.00">_time.hpp</text>
</a>
</g>
</g>
<!-- Node16&#45;&gt;Node22 -->
<g id="edge22" class="edge">
<title>Node16&#45;&gt;Node22</title>
<path fill="none" stroke="#63b8ff" d="M1386.15,-67.91C1428.53,-59.81 1502.74,-45.49 1575.59,-30.58"/>
<polygon fill="#63b8ff" stroke="#63b8ff" points="1576.22,-34.02 1585.31,-28.58 1574.81,-27.17 1576.22,-34.02"/>
</g>
<!-- Node23 -->
<g id="node23" class="node">
<title>Node23</title>
<g id="a_node23"><a xlink:title=" ">
<polygon fill="#e0e0e0" stroke="#999999" points="1839,-30 1718,-30 1718,0 1839,0 1839,-30"/>
<text text-anchor="start" x="1726" y="-18" font-family="Helvetica,sans-Serif" font-size="10.00">boost/log/utility/setup</text>
<text text-anchor="middle" x="1778.5" y="-7" font-family="Helvetica,sans-Serif" font-size="10.00">/common_attributes.hpp</text>
</a>
</g>
</g>
<!-- Node16&#45;&gt;Node23 -->
<g id="edge23" class="edge">
<title>Node16&#45;&gt;Node23</title>
<path fill="none" stroke="#63b8ff" d="M1386.44,-71.05C1448.75,-64.72 1583.4,-50.15 1706.48,-30.42"/>
<polygon fill="#63b8ff" stroke="#63b8ff" points="1706.79,-33.92 1716.1,-28.86 1705.67,-27.01 1706.79,-33.92"/>
</g>
<!-- Node24&#45;&gt;Node16 -->
<g id="edge35" class="edge">
<title>Node24&#45;&gt;Node16</title>
<path fill="none" stroke="#63b8ff" d="M1321.13,-236.41C1326.03,-210.62 1340.71,-133.32 1347.71,-96.47"/>
<polygon fill="#63b8ff" stroke="#63b8ff" points="1351.12,-97.24 1349.55,-86.76 1344.25,-95.93 1351.12,-97.24"/>
</g>
<!-- Node25 -->
<g id="node25" class="node">
<title>Node25</title>
<g id="a_node25"><a xlink:href="_dma_buffer_abstract_8hpp.html" target="_top" xlink:title=" ">
<polygon fill="white" stroke="#666666" points="996,-195 879,-195 879,-176 996,-176 996,-195"/>
<text text-anchor="middle" x="937.5" y="-183" font-family="Helvetica,sans-Serif" font-size="10.00">DmaBufferAbstract.hpp</text>
</a>
</g>
</g>
<!-- Node24&#45;&gt;Node25 -->
<g id="edge25" class="edge">
<title>Node24&#45;&gt;Node25</title>
<path fill="none" stroke="#63b8ff" d="M1280.77,-239.07C1216.64,-229.25 1087.52,-209.47 1007.21,-197.18"/>
<polygon fill="#63b8ff" stroke="#63b8ff" points="1008.12,-193.77 997.71,-195.72 1007.06,-200.69 1008.12,-193.77"/>
</g>
<!-- Node25&#45;&gt;Node10 -->
<g id="edge26" class="edge">
<title>Node25&#45;&gt;Node10</title>
<path fill="none" stroke="#63b8ff" d="M908.15,-175.51C877.8,-166.21 830.45,-151.7 798.49,-141.91"/>
<polygon fill="#63b8ff" stroke="#63b8ff" points="799.91,-138.69 789.32,-139.1 797.86,-145.38 799.91,-138.69"/>
</g>
<!-- Node25&#45;&gt;Node13 -->
<g id="edge27" class="edge">
<title>Node25&#45;&gt;Node13</title>
<path fill="none" stroke="#63b8ff" d="M952.26,-175.51C965.46,-167.47 985.06,-155.53 1000.51,-146.11"/>
<polygon fill="#63b8ff" stroke="#63b8ff" points="1001.95,-149.34 1008.67,-141.15 998.31,-143.36 1001.95,-149.34"/>
</g>
<!-- Node25&#45;&gt;Node15 -->
<g id="edge28" class="edge">
<title>Node25&#45;&gt;Node15</title>
<path fill="none" stroke="#63b8ff" d="M942.99,-175.86C951.98,-162.35 971.12,-136.19 993.5,-121 1015.39,-106.14 1042.82,-95.62 1066.31,-88.56"/>
<polygon fill="#63b8ff" stroke="#63b8ff" points="1067.03,-91.99 1075.68,-85.88 1065.1,-85.26 1067.03,-91.99"/>
</g>
<!-- Node26 -->
<g id="node26" class="node">
<title>Node26</title>
<g id="a_node26"><a xlink:href="_uio_config_8hpp.html" target="_top" xlink:title=" ">
<polygon fill="white" stroke="#666666" points="992,-85 881,-85 881,-66 992,-66 992,-85"/>
<text text-anchor="middle" x="936.5" y="-73" font-family="Helvetica,sans-Serif" font-size="10.00">udmaio/UioConfig.hpp</text>
</a>
</g>
</g>
<!-- Node25&#45;&gt;Node26 -->
<g id="edge29" class="edge">
<title>Node25&#45;&gt;Node26</title>
<path fill="none" stroke="#63b8ff" d="M937.42,-175.66C937.26,-158.57 936.91,-120.61 936.69,-96.92"/>
<polygon fill="#63b8ff" stroke="#63b8ff" points="940.19,-96.94 936.6,-86.97 933.19,-97.01 940.19,-96.94"/>
</g>
<!-- Node26&#45;&gt;Node4 -->
<g id="edge30" class="edge">
<title>Node26&#45;&gt;Node4</title>
<path fill="none" stroke="#63b8ff" d="M880.64,-68.02C777.6,-56.06 560.08,-30.81 471.39,-20.51"/>
<polygon fill="#63b8ff" stroke="#63b8ff" points="471.84,-17.04 461.5,-19.37 471.03,-24 471.84,-17.04"/>
</g>
<!-- Node26&#45;&gt;Node5 -->
<g id="edge32" class="edge">
<title>Node26&#45;&gt;Node5</title>
<path fill="none" stroke="#63b8ff" d="M891.99,-65.55C836.07,-54.31 740.87,-35.17 686.61,-24.26"/>
<polygon fill="#63b8ff" stroke="#63b8ff" points="687.33,-20.84 676.84,-22.3 685.95,-27.7 687.33,-20.84"/>
</g>
<!-- Node26&#45;&gt;Node12 -->
<g id="edge33" class="edge">
<title>Node26&#45;&gt;Node12</title>
<path fill="none" stroke="#63b8ff" d="M947.13,-65.62C957.72,-56.77 974.21,-42.98 987.13,-32.19"/>
<polygon fill="#63b8ff" stroke="#63b8ff" points="989.18,-35.04 994.61,-25.94 984.69,-29.67 989.18,-35.04"/>
</g>
<!-- Node27 -->
<g id="node27" class="node">
<title>Node27</title>
<g id="a_node27"><a xlink:title=" ">
<polygon fill="#e0e0e0" stroke="#999999" points="880,-24.5 829,-24.5 829,-5.5 880,-5.5 880,-24.5"/>
<text text-anchor="middle" x="854.5" y="-12.5" font-family="Helvetica,sans-Serif" font-size="10.00">memory</text>
</a>
</g>
</g>
<!-- Node26&#45;&gt;Node27 -->
<g id="edge31" class="edge">
<title>Node26&#45;&gt;Node27</title>
<path fill="none" stroke="#63b8ff" d="M924.05,-65.62C911.4,-56.6 891.57,-42.45 876.31,-31.56"/>
<polygon fill="#63b8ff" stroke="#63b8ff" points="878.48,-28.81 868.3,-25.85 874.41,-34.5 878.48,-28.81"/>
</g>
<!-- Node28 -->
<g id="node28" class="node">
<title>Node28</title>
<g id="a_node28"><a xlink:title=" ">
<polygon fill="#e0e0e0" stroke="#999999" points="967.5,-24.5 901.5,-24.5 901.5,-5.5 967.5,-5.5 967.5,-24.5"/>
<text text-anchor="middle" x="934.5" y="-12.5" font-family="Helvetica,sans-Serif" font-size="10.00">string_view</text>
</a>
</g>
</g>
<!-- Node26&#45;&gt;Node28 -->
<g id="edge34" class="edge">
<title>Node26&#45;&gt;Node28</title>
<path fill="none" stroke="#63b8ff" d="M936.2,-65.87C935.94,-58 935.53,-46.1 935.18,-35.89"/>
<polygon fill="#63b8ff" stroke="#63b8ff" points="938.69,-36.05 934.85,-26.18 931.69,-36.29 938.69,-36.05"/>
</g>
<!-- Node30 -->
<g id="node30" class="node">
<title>Node30</title>
<g id="a_node30"><a xlink:href="_axi_dma_8hpp.html" target="_top" xlink:title=" ">
<polygon fill="white" stroke="#666666" points="732.5,-195 664.5,-195 664.5,-176 732.5,-176 732.5,-195"/>
<text text-anchor="middle" x="698.5" y="-183" font-family="Helvetica,sans-Serif" font-size="10.00">AxiDma.hpp</text>
</a>
</g>
</g>
<!-- Node29&#45;&gt;Node30 -->
<g id="edge37" class="edge">
<title>Node29&#45;&gt;Node30</title>
<path fill="none" stroke="#63b8ff" d="M675.48,-236.37C679.23,-228.25 684.97,-215.81 689.78,-205.39"/>
<polygon fill="#63b8ff" stroke="#63b8ff" points="692.85,-207.09 693.87,-196.54 686.5,-204.15 692.85,-207.09"/>
</g>
<!-- Node31 -->
<g id="node31" class="node">
<title>Node31</title>
<g id="a_node31"><a xlink:href="_reg_accessor_8hpp.html" target="_top" xlink:title=" ">
<polygon fill="white" stroke="#666666" points="608,-195 515,-195 515,-176 608,-176 608,-195"/>
<text text-anchor="middle" x="561.5" y="-183" font-family="Helvetica,sans-Serif" font-size="10.00">RegAccessor.hpp</text>
</a>
</g>
</g>
<!-- Node29&#45;&gt;Node31 -->
<g id="edge39" class="edge">
<title>Node29&#45;&gt;Node31</title>
<path fill="none" stroke="#63b8ff" d="M654.79,-236.12C637.19,-226.75 609.19,-211.86 588.45,-200.83"/>
<polygon fill="#63b8ff" stroke="#63b8ff" points="590.17,-197.78 579.7,-196.18 586.89,-203.96 590.17,-197.78"/>
</g>
<!-- Node29&#45;&gt;Node32 -->
<g id="edge56" class="edge">
<title>Node29&#45;&gt;Node32</title>
<path fill="none" stroke="#63b8ff" d="M668.62,-236.16C665.37,-226.19 659.97,-209.45 655.5,-195 650.96,-180.32 645.99,-163.69 642.27,-151.12"/>
<polygon fill="#63b8ff" stroke="#63b8ff" points="645.64,-150.2 639.46,-141.6 638.93,-152.18 645.64,-150.2"/>
</g>
<!-- Node30&#45;&gt;Node10 -->
<g id="edge38" class="edge">
<title>Node30&#45;&gt;Node10</title>
<path fill="none" stroke="#63b8ff" d="M709.7,-175.51C719.24,-167.85 733.17,-156.66 744.61,-147.47"/>
<polygon fill="#63b8ff" stroke="#63b8ff" points="746.68,-150.3 752.29,-141.31 742.3,-144.84 746.68,-150.3"/>
</g>
<!-- Node31&#45;&gt;Node10 -->
<g id="edge40" class="edge">
<title>Node31&#45;&gt;Node10</title>
<path fill="none" stroke="#63b8ff" d="M595.94,-175.51C633.35,-165.74 692.78,-150.22 730.16,-140.47"/>
<polygon fill="#63b8ff" stroke="#63b8ff" points="730.75,-143.93 739.54,-138.02 728.98,-137.16 730.75,-143.93"/>
</g>
<!-- Node31&#45;&gt;Node32 -->
<g id="edge41" class="edge">
<title>Node31&#45;&gt;Node32</title>
<path fill="none" stroke="#63b8ff" d="M574.22,-175.51C585.28,-167.7 601.54,-156.21 614.67,-146.93"/>
<polygon fill="#63b8ff" stroke="#63b8ff" points="616.58,-149.86 622.73,-141.23 612.54,-144.14 616.58,-149.86"/>
</g>
<!-- Node32&#45;&gt;Node4 -->
<g id="edge44" class="edge">
<title>Node32&#45;&gt;Node4</title>
<path fill="none" stroke="#63b8ff" d="M591.29,-123.94C543.14,-117.12 471.2,-104.07 451.5,-85 438.39,-72.31 434.07,-51.47 432.77,-36.01"/>
<polygon fill="#63b8ff" stroke="#63b8ff" points="436.27,-35.93 432.32,-26.09 429.27,-36.24 436.27,-35.93"/>
</g>
<!-- Node32&#45;&gt;Node12 -->
<g id="edge46" class="edge">
<title>Node32&#45;&gt;Node12</title>
<path fill="none" stroke="#63b8ff" d="M681.82,-125.51C777.14,-116.91 990.58,-96.47 1001.5,-85 1013.79,-72.1 1013.51,-50.98 1011.11,-35.5"/>
<polygon fill="#63b8ff" stroke="#63b8ff" points="1014.61,-35.16 1009.22,-26.04 1007.75,-36.53 1014.61,-35.16"/>
</g>
<!-- Node32&#45;&gt;Node15 -->
<g id="edge48" class="edge">
<title>Node32&#45;&gt;Node15</title>
<path fill="none" stroke="#63b8ff" d="M681.75,-124.51C763.24,-115.54 935.63,-96.54 1037.45,-85.32"/>
<polygon fill="#63b8ff" stroke="#63b8ff" points="1037.54,-88.83 1047.09,-84.26 1036.77,-81.87 1037.54,-88.83"/>
</g>
<!-- Node32&#45;&gt;Node16 -->
<g id="edge54" class="edge">
<title>Node32&#45;&gt;Node16</title>
<path fill="none" stroke="#63b8ff" d="M681.9,-125.32C697.89,-123.9 715.99,-122.32 732.5,-121 946.56,-103.83 1202.53,-86.42 1305.38,-79.55"/>
<polygon fill="#63b8ff" stroke="#63b8ff" points="1305.33,-83.07 1315.07,-78.91 1304.86,-76.08 1305.33,-83.07"/>
</g>
<!-- Node32&#45;&gt;Node26 -->
<g id="edge55" class="edge">
<title>Node32&#45;&gt;Node26</title>
<path fill="none" stroke="#63b8ff" d="M681.74,-121.51C733.07,-112.44 817.09,-97.6 874.5,-87.45"/>
<polygon fill="#63b8ff" stroke="#63b8ff" points="874.89,-90.94 884.12,-85.75 873.67,-84.05 874.89,-90.94"/>
</g>
<!-- Node32&#45;&gt;Node27 -->
<g id="edge45" class="edge">
<title>Node32&#45;&gt;Node27</title>
<path fill="none" stroke="#63b8ff" d="M681.77,-124.56C732.89,-118.1 811.8,-105.17 833.5,-85 846.97,-72.48 851.9,-51.61 853.65,-36.1"/>
<polygon fill="#63b8ff" stroke="#63b8ff" points="857.14,-36.37 854.38,-26.14 850.16,-35.85 857.14,-36.37"/>
</g>
<!-- Node33 -->
<g id="node33" class="node">
<title>Node33</title>
<g id="a_node33"><a xlink:title=" ">
<polygon fill="#e0e0e0" stroke="#999999" points="676.5,-85 616.5,-85 616.5,-66 676.5,-66 676.5,-85"/>
<text text-anchor="middle" x="646.5" y="-73" font-family="Helvetica,sans-Serif" font-size="10.00">filesystem</text>
</a>
</g>
</g>
<!-- Node32&#45;&gt;Node33 -->
<g id="edge42" class="edge">
<title>Node32&#45;&gt;Node33</title>
<path fill="none" stroke="#63b8ff" d="M638.15,-120.75C639.39,-114.19 641.13,-104.95 642.71,-96.6"/>
<polygon fill="#63b8ff" stroke="#63b8ff" points="646.12,-97.4 644.53,-86.93 639.24,-96.11 646.12,-97.4"/>
</g>
<!-- Node34 -->
<g id="node34" class="node">
<title>Node34</title>
<g id="a_node34"><a xlink:title=" ">
<polygon fill="#e0e0e0" stroke="#999999" points="744.5,-85 694.5,-85 694.5,-66 744.5,-66 744.5,-85"/>
<text text-anchor="middle" x="719.5" y="-73" font-family="Helvetica,sans-Serif" font-size="10.00">fstream</text>
</a>
</g>
</g>
<!-- Node32&#45;&gt;Node34 -->
<g id="edge43" class="edge">
<title>Node32&#45;&gt;Node34</title>
<path fill="none" stroke="#63b8ff" d="M650.58,-120.51C663.06,-112.54 681.52,-100.75 696.19,-91.38"/>
<polygon fill="#63b8ff" stroke="#63b8ff" points="697.81,-94.5 704.35,-86.17 694.04,-88.6 697.81,-94.5"/>
</g>
<!-- Node35 -->
<g id="node35" class="node">
<title>Node35</title>
<g id="a_node35"><a xlink:title=" ">
<polygon fill="#e0e0e0" stroke="#999999" points="824.5,-85 762.5,-85 762.5,-66 824.5,-66 824.5,-85"/>
<text text-anchor="middle" x="793.5" y="-73" font-family="Helvetica,sans-Serif" font-size="10.00">type_traits</text>
</a>
</g>
</g>
<!-- Node32&#45;&gt;Node35 -->
<g id="edge47" class="edge">
<title>Node32&#45;&gt;Node35</title>
<path fill="none" stroke="#63b8ff" d="M663.13,-120.51C688.7,-111.88 727.55,-98.76 756.19,-89.1"/>
<polygon fill="#63b8ff" stroke="#63b8ff" points="757.21,-92.45 765.56,-85.93 754.97,-85.81 757.21,-92.45"/>
</g>
<!-- Node36 -->
<g id="node36" class="node">
<title>Node36</title>
<g id="a_node36"><a xlink:title=" ">
<polygon fill="#e0e0e0" stroke="#999999" points="327,-85 284,-85 284,-66 327,-66 327,-85"/>
<text text-anchor="middle" x="305.5" y="-73" font-family="Helvetica,sans-Serif" font-size="10.00">fcntl.h</text>
</a>
</g>
</g>
<!-- Node32&#45;&gt;Node36 -->
<g id="edge49" class="edge">
<title>Node32&#45;&gt;Node36</title>
<path fill="none" stroke="#63b8ff" d="M591.04,-124.64C534.08,-118.13 433.29,-105.29 338.59,-85.44"/>
<polygon fill="#63b8ff" stroke="#63b8ff" points="339.36,-82.03 328.85,-83.37 337.9,-88.87 339.36,-82.03"/>
</g>
<!-- Node37 -->
<g id="node37" class="node">
<title>Node37</title>
<g id="a_node37"><a xlink:title=" ">
<polygon fill="#e0e0e0" stroke="#999999" points="530,-85 461,-85 461,-66 530,-66 530,-85"/>
<text text-anchor="middle" x="495.5" y="-73" font-family="Helvetica,sans-Serif" font-size="10.00">sys/mman.h</text>
</a>
</g>
</g>
<!-- Node32&#45;&gt;Node37 -->
<g id="edge50" class="edge">
<title>Node32&#45;&gt;Node37</title>
<path fill="none" stroke="#63b8ff" d="M612.58,-120.51C589.86,-111.97 555.45,-99.03 529.81,-89.4"/>
<polygon fill="#63b8ff" stroke="#63b8ff" points="531.07,-86.13 520.48,-85.89 528.61,-92.69 531.07,-86.13"/>
</g>
<!-- Node38 -->
<g id="node38" class="node">
<title>Node38</title>
<g id="a_node38"><a xlink:title=" ">
<polygon fill="#e0e0e0" stroke="#999999" points="404,-85 345,-85 345,-66 404,-66 404,-85"/>
<text text-anchor="middle" x="374.5" y="-73" font-family="Helvetica,sans-Serif" font-size="10.00">sys/stat.h</text>
</a>
</g>
</g>
<!-- Node32&#45;&gt;Node38 -->
<g id="edge51" class="edge">
<title>Node32&#45;&gt;Node38</title>
<path fill="none" stroke="#63b8ff" d="M592.06,-120.51C542.69,-110.52 463.65,-94.53 415.65,-84.82"/>
<polygon fill="#63b8ff" stroke="#63b8ff" points="416.43,-81.41 405.93,-82.86 415.04,-88.27 416.43,-81.41"/>
</g>
<!-- Node39 -->
<g id="node39" class="node">
<title>Node39</title>
<g id="a_node39"><a xlink:title=" ">
<polygon fill="#e0e0e0" stroke="#999999" points="266,-85 201,-85 201,-66 266,-66 266,-85"/>
<text text-anchor="middle" x="233.5" y="-73" font-family="Helvetica,sans-Serif" font-size="10.00">sys/types.h</text>
</a>
</g>
</g>
<!-- Node32&#45;&gt;Node39 -->
<g id="edge52" class="edge">
<title>Node32&#45;&gt;Node39</title>
<path fill="none" stroke="#63b8ff" d="M591.18,-125.14C524.54,-118.46 395.98,-104.57 277.22,-85.33"/>
<polygon fill="#63b8ff" stroke="#63b8ff" points="278.06,-81.92 267.62,-83.76 276.92,-88.83 278.06,-81.92"/>
</g>
<!-- Node40 -->
<g id="node40" class="node">
<title>Node40</title>
<g id="a_node40"><a xlink:title=" ">
<polygon fill="#e0e0e0" stroke="#999999" points="598.5,-85 548.5,-85 548.5,-66 598.5,-66 598.5,-85"/>
<text text-anchor="middle" x="573.5" y="-73" font-family="Helvetica,sans-Serif" font-size="10.00">unistd.h</text>
</a>
</g>
</g>
<!-- Node32&#45;&gt;Node40 -->
<g id="edge53" class="edge">
<title>Node32&#45;&gt;Node40</title>
<path fill="none" stroke="#63b8ff" d="M625.81,-120.51C616.8,-112.93 603.67,-101.88 592.82,-92.75"/>
<polygon fill="#63b8ff" stroke="#63b8ff" points="595.09,-90.09 585.19,-86.33 590.59,-95.45 595.09,-90.09"/>
</g>
<!-- Node41&#45;&gt;Node25 -->
<g id="edge58" class="edge">
<title>Node41&#45;&gt;Node25</title>
<path fill="none" stroke="#63b8ff" d="M808.59,-236.12C833.92,-226.37 874.82,-210.62 903.75,-199.49"/>
<polygon fill="#63b8ff" stroke="#63b8ff" points="904.71,-202.87 912.78,-196.01 902.19,-196.34 904.71,-202.87"/>
</g>
<!-- Node41&#45;&gt;Node31 -->
<g id="edge59" class="edge">
<title>Node41&#45;&gt;Node31</title>
<path fill="none" stroke="#63b8ff" d="M751.48,-236.12C712.83,-226.02 649.59,-209.51 606.79,-198.33"/>
<polygon fill="#63b8ff" stroke="#63b8ff" points="607.87,-194.99 597.31,-195.85 606.1,-201.76 607.87,-194.99"/>
</g>
<!-- Node43&#45;&gt;Node31 -->
<g id="edge62" class="edge">
<title>Node43&#45;&gt;Node31</title>
<path fill="none" stroke="#63b8ff" d="M594.72,-351.63C589.31,-324.75 573.01,-243.73 565.44,-206.1"/>
<polygon fill="#63b8ff" stroke="#63b8ff" points="568.94,-205.74 563.54,-196.63 562.08,-207.12 568.94,-205.74"/>
</g>
<!-- Node44&#45;&gt;Node31 -->
<g id="edge64" class="edge">
<title>Node44&#45;&gt;Node31</title>
<path fill="none" stroke="#63b8ff" d="M526.36,-296.56C532.47,-277.42 546.92,-232.15 555.27,-206.02"/>
<polygon fill="#63b8ff" stroke="#63b8ff" points="558.55,-207.26 558.25,-196.67 551.88,-205.13 558.55,-207.26"/>
</g>
<!-- Node45&#45;&gt;Node25 -->
<g id="edge69" class="edge">
<title>Node45&#45;&gt;Node25</title>
<path fill="none" stroke="#63b8ff" d="M420.22,-238.84C518.17,-230.17 700.97,-213.48 867.59,-195.18"/>
<polygon fill="#63b8ff" stroke="#63b8ff" points="867.48,-198.72 877.04,-194.14 866.71,-191.76 867.48,-198.72"/>
</g>
<!-- Node45&#45;&gt;Node36 -->
<g id="edge66" class="edge">
<title>Node45&#45;&gt;Node36</title>
<path fill="none" stroke="#63b8ff" d="M345.75,-230.63C337.86,-200.44 319.56,-130.36 310.61,-96.08"/>
<polygon fill="#63b8ff" stroke="#63b8ff" points="314.07,-95.47 308.16,-86.68 307.3,-97.24 314.07,-95.47"/>
</g>
<!-- Node45&#45;&gt;Node38 -->
<g id="edge67" class="edge">
<title>Node45&#45;&gt;Node38</title>
<path fill="none" stroke="#63b8ff" d="M351.63,-230.63C356.09,-200.57 366.42,-130.97 371.53,-96.54"/>
<polygon fill="#63b8ff" stroke="#63b8ff" points="374.98,-97.12 372.98,-86.71 368.05,-96.09 374.98,-97.12"/>
</g>
<!-- Node45&#45;&gt;Node39 -->
<g id="edge68" class="edge">
<title>Node45&#45;&gt;Node39</title>
<path fill="none" stroke="#63b8ff" d="M339.61,-230.63C318.46,-199.91 268.87,-127.88 245.76,-94.31"/>
<polygon fill="#63b8ff" stroke="#63b8ff" points="248.91,-92.71 240.36,-86.46 243.15,-96.68 248.91,-92.71"/>
</g>
</g>
</svg>
        <g id="navigator" transform="translate(0 0)" fill="#404254">
                <rect fill="#f2f5e9" fill-opacity="0.5" stroke="#606060" stroke-width=".5" x="0" y="0" width="60" height="60"/>
                <use id="zoomplus" xlink:href="#zoomPlus" x="17" y="9" onmousedown="handleZoom(evt,'in')"/>
                <use id="zoomminus" xlink:href="#zoomMin" x="42" y="9" onmousedown="handleZoom(evt,'out')"/>
                <use id="reset" xlink:href="#resetDef" x="30" y="36" onmousedown="handleReset()"/>
                <g id="arrowUp" xlink:href="#dirArrow" transform="translate(30 24)" onmousedown="handlePan(0,-1)">
                  <use xlink:href="#rim" fill="#404040">
                        <set attributeName="fill" to="#808080" begin="arrowUp.mouseover" end="arrowUp.mouseout"/>
                  </use>
                  <path fill="none" stroke="white" stroke-width="1.5" d="M0,-3.0v7 M-2.5,-0.5L0,-3.0L2.5,-0.5"/>
                </g>
                <g id="arrowRight" xlink:href="#dirArrow" transform="rotate(90) translate(36 -43)" onmousedown="handlePan(1,0)">
                  <use xlink:href="#rim" fill="#404040">
                        <set attributeName="fill" to="#808080" begin="arrowRight.mouseover" end="arrowRight.mouseout"/>
                  </use>
                  <path fill="none" stroke="white" stroke-width="1.5" d="M0,-3.0v7 M-2.5,-0.5L0,-3.0L2.5,-0.5"/>
                </g>
                <g id="arrowDown" xlink:href="#dirArrow" transform="rotate(180) translate(-30 -48)" onmousedown="handlePan(0,1)">
                  <use xlink:href="#rim" fill="#404040">
                        <set attributeName="fill" to="#808080" begin="arrowDown.mouseover" end="arrowDown.mouseout"/>
                  </use>
                  <path fill="none" stroke="white" stroke-width="1.5" d="M0,-3.0v7 M-2.5,-0.5L0,-3.0L2.5,-0.5"/>
                </g>
                <g id="arrowLeft" xlink:href="#dirArrow" transform="rotate(270) translate(-36 17)" onmousedown="handlePan(-1,0)">
                  <use xlink:href="#rim" fill="#404040">
                        <set attributeName="fill" to="#808080" begin="arrowLeft.mouseover" end="arrowLeft.mouseout"/>
                  </use>
                  <path fill="none" stroke="white" stroke-width="1.5" d="M0,-3.0v7 M-2.5,-0.5L0,-3.0L2.5,-0.5"/>
                </g>
        </g>
        <svg viewBox="0 0 15 15" width="100%" height="30px" preserveAspectRatio="xMaxYMin meet">
         <g id="arrow_out" transform="scale(0.3 0.3)">
          <a xlink:href="axi__dma__demo_8cpp__incl_org.svg" target="_base">
           <rect id="button" ry="5" rx="5" y="6" x="6" height="38" width="38"
                fill="#f2f5e9" fill-opacity="0.5" stroke="#606060" stroke-width="1.0"/>
           <path id="arrow"
             d="M 11.500037,31.436501 C 11.940474,20.09759 22.043105,11.32322 32.158766,21.979434 L 37.068811,17.246167 C 37.068811,17.246167 37.088388,32 37.088388,32 L 22.160133,31.978069 C 22.160133,31.978069 26.997745,27.140456 26.997745,27.140456 C 18.528582,18.264221 13.291696,25.230495 11.500037,31.436501 z"
             style="fill:#404040;"/>
          </a>
         </g>
        </svg>
</svg>
