<?xml version="1.0" encoding="UTF-8" standalone="no"?>
<!DOCTYPE svg PUBLIC "-//W3C//DTD SVG 1.1//EN"
 "http://www.w3.org/Graphics/SVG/1.1/DTD/svg11.dtd">
<!-- Generated by graphviz version 7.0.5 (20221223.1930)
 -->
<!-- Title: axi_dma_demo.cpp Pages: 1 -->
<svg width="2379pt" height="445pt"
 viewBox="0.00 0.00 2378.50 445.00" xmlns="http://www.w3.org/2000/svg" xmlns:xlink="http://www.w3.org/1999/xlink">
<g id="graph0" class="graph" transform="scale(1 1) rotate(0) translate(4 441)">
<title>axi_dma_demo.cpp</title>
<!-- Node1 -->
<g id="node1" class="node">
<title>Node1</title>
<g id="a_node1"><a xlink:title=" ">
<polygon fill="#999999" stroke="#666666" points="1188.5,-437 1088.5,-437 1088.5,-418 1188.5,-418 1188.5,-437"/>
<text text-anchor="middle" x="1138.5" y="-425" font-family="Helvetica,sans-Serif" font-size="10.00">axi_dma_demo.cpp</text>
</a>
</g>
</g>
<!-- Node2 -->
<g id="node2" class="node">
<title>Node2</title>
<g id="a_node2"><a xlink:title=" ">
<polygon fill="#e0e0e0" stroke="#999999" points="47,-382 0,-382 0,-363 47,-363 47,-382"/>
<text text-anchor="middle" x="23.5" y="-370" font-family="Helvetica,sans-Serif" font-size="10.00">csignal</text>
</a>
</g>
</g>
<!-- Node1&#45;&gt;Node2 -->
<g id="edge1" class="edge">
<title>Node1&#45;&gt;Node2</title>
<path fill="none" stroke="#63b8ff" d="M1088.04,-425.89C905.7,-423.46 280.41,-413.12 58.69,-382.11"/>
<polygon fill="#63b8ff" stroke="#63b8ff" points="59.39,-378.68 48.99,-380.69 58.38,-385.6 59.39,-378.68"/>
</g>
<!-- Node3 -->
<g id="node3" class="node">
<title>Node3</title>
<g id="a_node3"><a xlink:title=" ">
<polygon fill="#e0e0e0" stroke="#999999" points="106,-382 65,-382 65,-363 106,-363 106,-382"/>
<text text-anchor="middle" x="85.5" y="-370" font-family="Helvetica,sans-Serif" font-size="10.00">future</text>
</a>
</g>
</g>
<!-- Node1&#45;&gt;Node3 -->
<g id="edge2" class="edge">
<title>Node1&#45;&gt;Node3</title>
<path fill="none" stroke="#63b8ff" d="M1088.05,-425.59C909.86,-422.19 310.54,-408.97 120.5,-382 119.5,-381.86 118.48,-381.7 117.46,-381.53"/>
<polygon fill="#63b8ff" stroke="#63b8ff" points="118.45,-378.16 107.95,-379.6 117.06,-385.02 118.45,-378.16"/>
</g>
<!-- Node4 -->
<g id="node4" class="node">
<title>Node4</title>
<g id="a_node4"><a xlink:title=" ">
<polygon fill="#e0e0e0" stroke="#999999" points="982.5,-19 928.5,-19 928.5,0 982.5,0 982.5,-19"/>
<text text-anchor="middle" x="955.5" y="-7" font-family="Helvetica,sans-Serif" font-size="10.00">iostream</text>
</a>
</g>
</g>
<!-- Node1&#45;&gt;Node4 -->
<g id="edge3" class="edge">
<title>Node1&#45;&gt;Node4</title>
<path fill="none" stroke="#63b8ff" d="M1088.02,-426.43C884.43,-425.5 134.5,-415.47 134.5,-318.5 134.5,-318.5 134.5,-318.5 134.5,-129.5 134.5,-95.33 127.11,-76.71 153.5,-55 183.29,-30.5 760.56,-15.11 916.8,-11.38"/>
<polygon fill="#63b8ff" stroke="#63b8ff" points="916.71,-14.89 926.62,-11.15 916.54,-7.89 916.71,-14.89"/>
</g>
<!-- Node5 -->
<g id="node5" class="node">
<title>Node5</title>
<g id="a_node5"><a xlink:title=" ">
<polygon fill="#e0e0e0" stroke="#999999" points="1968,-19 1909,-19 1909,0 1968,0 1968,-19"/>
<text text-anchor="middle" x="1938.5" y="-7" font-family="Helvetica,sans-Serif" font-size="10.00">stdexcept</text>
</a>
</g>
</g>
<!-- Node1&#45;&gt;Node5 -->
<g id="edge4" class="edge">
<title>Node1&#45;&gt;Node5</title>
<path fill="none" stroke="#63b8ff" d="M1188.67,-426.77C1400.22,-427.26 2208.5,-422.36 2208.5,-318.5 2208.5,-318.5 2208.5,-318.5 2208.5,-129.5 2208.5,-93.1 2203.15,-77.44 2174.5,-55 2144.73,-31.68 2038.65,-19.06 1979.35,-13.69"/>
<polygon fill="#63b8ff" stroke="#63b8ff" points="1979.93,-10.23 1969.66,-12.85 1979.32,-17.2 1979.93,-10.23"/>
</g>
<!-- Node6 -->
<g id="node6" class="node">
<title>Node6</title>
<g id="a_node6"><a xlink:title=" ">
<polygon fill="#e0e0e0" stroke="#999999" points="280.5,-79.5 162.5,-79.5 162.5,-60.5 280.5,-60.5 280.5,-79.5"/>
<text text-anchor="middle" x="221.5" y="-67.5" font-family="Helvetica,sans-Serif" font-size="10.00">boost/log/core/core.hpp</text>
</a>
</g>
</g>
<!-- Node1&#45;&gt;Node6 -->
<g id="edge5" class="edge">
<title>Node1&#45;&gt;Node6</title>
<path fill="none" stroke="#63b8ff" d="M1088.05,-425.41C905.71,-420.8 291.5,-399.29 291.5,-318.5 291.5,-318.5 291.5,-318.5 291.5,-190 291.5,-148.89 260.08,-109.46 239.35,-87.9"/>
<polygon fill="#63b8ff" stroke="#63b8ff" points="241.85,-85.46 232.3,-80.87 236.91,-90.42 241.85,-85.46"/>
</g>
<!-- Node7 -->
<g id="node7" class="node">
<title>Node7</title>
<g id="a_node7"><a xlink:title=" ">
<polygon fill="#e0e0e0" stroke="#999999" points="808,-79.5 679,-79.5 679,-60.5 808,-60.5 808,-79.5"/>
<text text-anchor="middle" x="743.5" y="-67.5" font-family="Helvetica,sans-Serif" font-size="10.00">boost/log/expressions.hpp</text>
</a>
</g>
</g>
<!-- Node1&#45;&gt;Node7 -->
<g id="edge6" class="edge">
<title>Node1&#45;&gt;Node7</title>
<path fill="none" stroke="#63b8ff" d="M1088.27,-419.99C998.88,-406.99 821.5,-374.17 821.5,-318.5 821.5,-318.5 821.5,-318.5 821.5,-190 821.5,-147.48 786.23,-108.33 763.12,-87.25"/>
<polygon fill="#63b8ff" stroke="#63b8ff" points="765.64,-84.8 755.81,-80.84 761.03,-90.07 765.64,-84.8"/>
</g>
<!-- Node8 -->
<g id="node8" class="node">
<title>Node8</title>
<g id="a_node8"><a xlink:title=" ">
<polygon fill="#e0e0e0" stroke="#999999" points="927,-85 826,-85 826,-55 927,-55 927,-85"/>
<text text-anchor="start" x="834" y="-73" font-family="Helvetica,sans-Serif" font-size="10.00">boost/log/keywords</text>
<text text-anchor="middle" x="876.5" y="-62" font-family="Helvetica,sans-Serif" font-size="10.00">/severity.hpp</text>
</a>
</g>
</g>
<!-- Node1&#45;&gt;Node8 -->
<g id="edge7" class="edge">
<title>Node1&#45;&gt;Node8</title>
<path fill="none" stroke="#63b8ff" d="M1091.15,-417.59C1040.84,-405.06 968.5,-376.89 968.5,-318.5 968.5,-318.5 968.5,-318.5 968.5,-190 968.5,-149.12 934.1,-113.74 907.37,-92.42"/>
<polygon fill="#63b8ff" stroke="#63b8ff" points="909.57,-89.7 899.5,-86.4 905.32,-95.25 909.57,-89.7"/>
</g>
<!-- Node9 -->
<g id="node9" class="node">
<title>Node9</title>
<g id="a_node9"><a xlink:title=" ">
<polygon fill="#e0e0e0" stroke="#999999" points="661,-79.5 520,-79.5 520,-60.5 661,-60.5 661,-79.5"/>
<text text-anchor="middle" x="590.5" y="-67.5" font-family="Helvetica,sans-Serif" font-size="10.00">boost/log/sources/logger.hpp</text>
</a>
</g>
</g>
<!-- Node1&#45;&gt;Node9 -->
<g id="edge8" class="edge">
<title>Node1&#45;&gt;Node9</title>
<path fill="none" stroke="#63b8ff" d="M1088.19,-425C970.76,-420.13 688.5,-399.95 688.5,-318.5 688.5,-318.5 688.5,-318.5 688.5,-190 688.5,-144.03 644.39,-106.18 615.36,-86.25"/>
<polygon fill="#63b8ff" stroke="#63b8ff" points="617.35,-83.37 607.08,-80.79 613.5,-89.22 617.35,-83.37"/>
</g>
<!-- Node10 -->
<g id="node10" class="node">
<title>Node10</title>
<g id="a_node10"><a xlink:title=" ">
<polygon fill="#e0e0e0" stroke="#999999" points="1735,-79.5 1634,-79.5 1634,-60.5 1735,-60.5 1735,-79.5"/>
<text text-anchor="middle" x="1684.5" y="-67.5" font-family="Helvetica,sans-Serif" font-size="10.00">boost/log/trivial.hpp</text>
</a>
</g>
</g>
<!-- Node1&#45;&gt;Node10 -->
<g id="edge9" class="edge">
<title>Node1&#45;&gt;Node10</title>
<path fill="none" stroke="#63b8ff" d="M1142.6,-417.59C1157.63,-385.13 1210,-273.46 1233.5,-242 1258.9,-208 1266.86,-199.03 1302.5,-176 1357.26,-140.61 1376.07,-139.79 1438.5,-121 1472.43,-110.78 1562.53,-93.37 1623.74,-82.03"/>
<polygon fill="#63b8ff" stroke="#63b8ff" points="1624.12,-85.51 1633.32,-80.26 1622.85,-78.63 1624.12,-85.51"/>
</g>
<!-- Node11 -->
<g id="node11" class="node">
<title>Node11</title>
<g id="a_node11"><a xlink:href="_data_handler_print_8hpp.html" target="_top" xlink:title=" ">
<polygon fill="white" stroke="#666666" points="1840,-382 1731,-382 1731,-363 1840,-363 1840,-382"/>
<text text-anchor="middle" x="1785.5" y="-370" font-family="Helvetica,sans-Serif" font-size="10.00">DataHandlerPrint.hpp</text>
</a>
</g>
</g>
<!-- Node1&#45;&gt;Node11 -->
<g id="edge10" class="edge">
<title>Node1&#45;&gt;Node11</title>
<path fill="none" stroke="#63b8ff" d="M1189,-422.36C1304.91,-412.87 1589.99,-389.52 1719.53,-378.9"/>
<polygon fill="#63b8ff" stroke="#63b8ff" points="1719.64,-382.41 1729.32,-378.1 1719.07,-375.43 1719.64,-382.41"/>
</g>
<!-- Node20 -->
<g id="node20" class="node">
<title>Node20</title>
<g id="a_node20"><a xlink:href="_u_dma_buf_8hpp.html" target="_top" xlink:title=" ">
<polygon fill="white" stroke="#666666" points="1204,-200.5 1127,-200.5 1127,-181.5 1204,-181.5 1204,-200.5"/>
<text text-anchor="middle" x="1165.5" y="-188.5" font-family="Helvetica,sans-Serif" font-size="10.00">UDmaBuf.hpp</text>
</a>
</g>
</g>
<!-- Node1&#45;&gt;Node20 -->
<g id="edge76" class="edge">
<title>Node1&#45;&gt;Node20</title>
<path fill="none" stroke="#63b8ff" d="M1139.53,-417.59C1143.45,-383.5 1157.59,-260.73 1163.19,-212.07"/>
<polygon fill="#63b8ff" stroke="#63b8ff" points="1166.63,-212.75 1164.3,-202.42 1159.68,-211.95 1166.63,-212.75"/>
</g>
<!-- Node26 -->
<g id="node26" class="node">
<title>Node26</title>
<g id="a_node26"><a xlink:href="_uio_axi_dma_if_8hpp.html" target="_top" xlink:title=" ">
<polygon fill="white" stroke="#666666" points="1602,-266.5 1513,-266.5 1513,-247.5 1602,-247.5 1602,-266.5"/>
<text text-anchor="middle" x="1557.5" y="-254.5" font-family="Helvetica,sans-Serif" font-size="10.00">UioAxiDmaIf.hpp</text>
</a>
</g>
</g>
<!-- Node1&#45;&gt;Node26 -->
<g id="edge77" class="edge">
<title>Node1&#45;&gt;Node26</title>
<path fill="none" stroke="#63b8ff" d="M1188.97,-420.32C1231.92,-413.99 1294.7,-402.15 1346.5,-382 1421.06,-352.99 1500.09,-299.57 1536.68,-273.34"/>
<polygon fill="#63b8ff" stroke="#63b8ff" points="1538.56,-276.3 1544.61,-267.6 1534.46,-270.63 1538.56,-276.3"/>
</g>
<!-- Node27 -->
<g id="node27" class="node">
<title>Node27</title>
<g id="a_node27"><a xlink:href="_uio_if_8hpp.html" target="_top" xlink:title=" ">
<polygon fill="white" stroke="#666666" points="1128.5,-140 1072.5,-140 1072.5,-121 1128.5,-121 1128.5,-140"/>
<text text-anchor="middle" x="1100.5" y="-128" font-family="Helvetica,sans-Serif" font-size="10.00">UioIf.hpp</text>
</a>
</g>
</g>
<!-- Node1&#45;&gt;Node27 -->
<g id="edge78" class="edge">
<title>Node1&#45;&gt;Node27</title>
<path fill="none" stroke="#63b8ff" d="M1132.77,-417.67C1121.71,-399.74 1098.5,-357.49 1098.5,-318.5 1098.5,-318.5 1098.5,-318.5 1098.5,-256 1098.5,-219.17 1099.39,-176.22 1099.98,-151.6"/>
<polygon fill="#63b8ff" stroke="#63b8ff" points="1103.47,-151.85 1100.22,-141.77 1096.48,-151.68 1103.47,-151.85"/>
</g>
<!-- Node36 -->
<g id="node36" class="node">
<title>Node36</title>
<g id="a_node36"><a xlink:title=" ">
<polygon fill="#e0e0e0" stroke="#999999" points="2039,-85 1908,-85 1908,-55 2039,-55 2039,-85"/>
<text text-anchor="start" x="1916" y="-73" font-family="Helvetica,sans-Serif" font-size="10.00">boost/log/sources/severity</text>
<text text-anchor="middle" x="1973.5" y="-62" font-family="Helvetica,sans-Serif" font-size="10.00">_logger.hpp</text>
</a>
</g>
</g>
<!-- Node1&#45;&gt;Node36 -->
<g id="edge80" class="edge">
<title>Node1&#45;&gt;Node36</title>
<path fill="none" stroke="#63b8ff" d="M1188.98,-425.9C1341.82,-423.74 1792.6,-414.62 1849.5,-382 1900.62,-352.69 1899.58,-325.85 1923.5,-272 1925.31,-267.93 1954.25,-149.83 1967.26,-96.59"/>
<polygon fill="#63b8ff" stroke="#63b8ff" points="1970.65,-97.43 1969.63,-86.89 1963.85,-95.77 1970.65,-97.43"/>
</g>
<!-- Node39 -->
<g id="node39" class="node">
<title>Node39</title>
<g id="a_node39"><a xlink:href="_uio_mem_sgdma_8hpp.html" target="_top" xlink:title=" ">
<polygon fill="white" stroke="#666666" points="1494.5,-266.5 1392.5,-266.5 1392.5,-247.5 1494.5,-247.5 1494.5,-266.5"/>
<text text-anchor="middle" x="1443.5" y="-254.5" font-family="Helvetica,sans-Serif" font-size="10.00">UioMemSgdma.hpp</text>
</a>
</g>
</g>
<!-- Node1&#45;&gt;Node39 -->
<g id="edge79" class="edge">
<title>Node1&#45;&gt;Node39</title>
<path fill="none" stroke="#63b8ff" d="M1188.81,-419.02C1246.98,-408.03 1342.65,-382.47 1404.5,-327 1419.68,-313.38 1430.36,-292.4 1436.66,-277.15"/>
<polygon fill="#63b8ff" stroke="#63b8ff" points="1439.76,-278.83 1440.08,-268.24 1433.23,-276.32 1439.76,-278.83"/>
</g>
<!-- Node41 -->
<g id="node41" class="node">
<title>Node41</title>
<g id="a_node41"><a xlink:href="_uio_gpio_status_8hpp.html" target="_top" xlink:title=" ">
<polygon fill="white" stroke="#666666" points="1395.5,-327 1297.5,-327 1297.5,-308 1395.5,-308 1395.5,-327"/>
<text text-anchor="middle" x="1346.5" y="-315" font-family="Helvetica,sans-Serif" font-size="10.00">UioGpioStatus.hpp</text>
</a>
</g>
</g>
<!-- Node1&#45;&gt;Node41 -->
<g id="edge64" class="edge">
<title>Node1&#45;&gt;Node41</title>
<path fill="none" stroke="#63b8ff" d="M1164.2,-417.52C1186.67,-409.32 1219.93,-396.32 1247.5,-382 1275.28,-367.58 1305.28,-347.66 1324.89,-334"/>
<polygon fill="#63b8ff" stroke="#63b8ff" points="1326.73,-336.98 1332.89,-328.36 1322.7,-331.26 1326.73,-336.98"/>
</g>
<!-- Node42 -->
<g id="node42" class="node">
<title>Node42</title>
<g id="a_node42"><a xlink:href="_uio_traffic_gen_8hpp.html" target="_top" xlink:title=" ">
<polygon fill="white" stroke="#666666" points="1336.5,-266.5 1242.5,-266.5 1242.5,-247.5 1336.5,-247.5 1336.5,-266.5"/>
<text text-anchor="middle" x="1289.5" y="-254.5" font-family="Helvetica,sans-Serif" font-size="10.00">UioTrafficGen.hpp</text>
</a>
</g>
</g>
<!-- Node1&#45;&gt;Node42 -->
<g id="edge66" class="edge">
<title>Node1&#45;&gt;Node42</title>
<path fill="none" stroke="#63b8ff" d="M1150.21,-417.54C1161.13,-408.94 1177.62,-395.33 1190.5,-382 1224.34,-346.99 1258.64,-301.21 1276.64,-276.23"/>
<polygon fill="#63b8ff" stroke="#63b8ff" points="1279.47,-278.29 1282.43,-268.12 1273.77,-274.22 1279.47,-278.29"/>
</g>
<!-- Node43 -->
<g id="node43" class="node">
<title>Node43</title>
<g id="a_node43"><a xlink:href="_fpga_mem_buffer_over_xdma_8hpp.html" target="_top" xlink:title=" ">
<polygon fill="white" stroke="#666666" points="640,-206 499,-206 499,-176 640,-176 640,-206"/>
<text text-anchor="start" x="507" y="-194" font-family="Helvetica,sans-Serif" font-size="10.00">udmaio/FpgaMemBufferOver</text>
<text text-anchor="middle" x="569.5" y="-183" font-family="Helvetica,sans-Serif" font-size="10.00">Xdma.hpp</text>
</a>
</g>
</g>
<!-- Node1&#45;&gt;Node43 -->
<g id="edge68" class="edge">
<title>Node1&#45;&gt;Node43</title>
<path fill="none" stroke="#63b8ff" d="M1088.16,-424.31C975.15,-419.02 708.5,-404.31 674.5,-382 615.44,-343.24 586.58,-259.38 575.35,-217.24"/>
<polygon fill="#63b8ff" stroke="#63b8ff" points="578.8,-216.61 572.96,-207.77 572.01,-218.32 578.8,-216.61"/>
</g>
<!-- Node44 -->
<g id="node44" class="node">
<title>Node44</title>
<g id="a_node44"><a xlink:title=" ">
<polygon fill="#e0e0e0" stroke="#999999" points="2370.5,-382 2236.5,-382 2236.5,-363 2370.5,-363 2370.5,-382"/>
<text text-anchor="middle" x="2303.5" y="-370" font-family="Helvetica,sans-Serif" font-size="10.00">boost/program_options.hpp</text>
</a>
</g>
</g>
<!-- Node1&#45;&gt;Node44 -->
<g id="edge81" class="edge">
<title>Node1&#45;&gt;Node44</title>
<path fill="none" stroke="#63b8ff" d="M1188.81,-425.57C1343.34,-422.47 1824.72,-411.01 2222.5,-382 2223.35,-381.94 2224.2,-381.87 2225.05,-381.81"/>
<polygon fill="#63b8ff" stroke="#63b8ff" points="2225.16,-385.31 2234.84,-381 2224.58,-378.34 2225.16,-385.31"/>
</g>
<!-- Node12 -->
<g id="node12" class="node">
<title>Node12</title>
<g id="a_node12"><a xlink:title=" ">
<polygon fill="#e0e0e0" stroke="#999999" points="1873.5,-327 1823.5,-327 1823.5,-308 1873.5,-308 1873.5,-327"/>
<text text-anchor="middle" x="1848.5" y="-315" font-family="Helvetica,sans-Serif" font-size="10.00">optional</text>
</a>
</g>
</g>
<!-- Node11&#45;&gt;Node12 -->
<g id="edge11" class="edge">
<title>Node11&#45;&gt;Node12</title>
<path fill="none" stroke="#63b8ff" d="M1796.19,-362.51C1805.2,-354.93 1818.33,-343.88 1829.18,-334.75"/>
<polygon fill="#63b8ff" stroke="#63b8ff" points="1831.41,-337.45 1836.81,-328.33 1826.91,-332.09 1831.41,-337.45"/>
</g>
<!-- Node13 -->
<g id="node13" class="node">
<title>Node13</title>
<g id="a_node13"><a xlink:title=" ">
<polygon fill="#e0e0e0" stroke="#999999" points="1805,-327 1766,-327 1766,-308 1805,-308 1805,-327"/>
<text text-anchor="middle" x="1785.5" y="-315" font-family="Helvetica,sans-Serif" font-size="10.00">utility</text>
</a>
</g>
</g>
<!-- Node11&#45;&gt;Node13 -->
<g id="edge12" class="edge">
<title>Node11&#45;&gt;Node13</title>
<path fill="none" stroke="#63b8ff" d="M1785.5,-362.75C1785.5,-356.27 1785.5,-347.16 1785.5,-338.9"/>
<polygon fill="#63b8ff" stroke="#63b8ff" points="1789,-338.96 1785.5,-328.96 1782,-338.96 1789,-338.96"/>
</g>
<!-- Node14 -->
<g id="node14" class="node">
<title>Node14</title>
<g id="a_node14"><a xlink:href="_axi_traffic_gen_lfsr_8hpp.html" target="_top" xlink:title=" ">
<polygon fill="white" stroke="#666666" points="2180.5,-140 2070.5,-140 2070.5,-121 2180.5,-121 2180.5,-140"/>
<text text-anchor="middle" x="2125.5" y="-128" font-family="Helvetica,sans-Serif" font-size="10.00">AxiTrafficGenLfsr.hpp</text>
</a>
</g>
</g>
<!-- Node11&#45;&gt;Node14 -->
<g id="edge13" class="edge">
<title>Node11&#45;&gt;Node14</title>
<path fill="none" stroke="#63b8ff" d="M1808.52,-362.54C1828.61,-354.35 1858.27,-341.35 1882.5,-327 1975.23,-272.09 2070.66,-184.38 2108.54,-148.07"/>
<polygon fill="#63b8ff" stroke="#63b8ff" points="2110.66,-150.89 2115.42,-141.42 2105.79,-145.86 2110.66,-150.89"/>
</g>
<!-- Node16 -->
<g id="node16" class="node">
<title>Node16</title>
<g id="a_node16"><a xlink:href="_data_handler_abstract_8hpp.html" target="_top" xlink:title=" ">
<polygon fill="white" stroke="#666666" points="1747.5,-327 1587.5,-327 1587.5,-308 1747.5,-308 1747.5,-327"/>
<text text-anchor="middle" x="1667.5" y="-315" font-family="Helvetica,sans-Serif" font-size="10.00">udmaio/DataHandlerAbstract.hpp</text>
</a>
</g>
</g>
<!-- Node11&#45;&gt;Node16 -->
<g id="edge15" class="edge">
<title>Node11&#45;&gt;Node16</title>
<path fill="none" stroke="#63b8ff" d="M1765.48,-362.51C1746.89,-354.16 1718.96,-341.61 1697.67,-332.05"/>
<polygon fill="#63b8ff" stroke="#63b8ff" points="1699.16,-328.88 1688.6,-327.98 1696.29,-335.27 1699.16,-328.88"/>
</g>
<!-- Node15 -->
<g id="node15" class="node">
<title>Node15</title>
<g id="a_node15"><a xlink:title=" ">
<polygon fill="#e0e0e0" stroke="#999999" points="2165.5,-79.5 2119.5,-79.5 2119.5,-60.5 2165.5,-60.5 2165.5,-79.5"/>
<text text-anchor="middle" x="2142.5" y="-67.5" font-family="Helvetica,sans-Serif" font-size="10.00">cstdint</text>
</a>
</g>
</g>
<!-- Node14&#45;&gt;Node15 -->
<g id="edge14" class="edge">
<title>Node14&#45;&gt;Node15</title>
<path fill="none" stroke="#63b8ff" d="M2128.01,-120.87C2130.32,-112.92 2133.83,-100.83 2136.82,-90.55"/>
<polygon fill="#63b8ff" stroke="#63b8ff" points="2140.13,-91.7 2139.56,-81.12 2133.41,-89.75 2140.13,-91.7"/>
</g>
<!-- Node16&#45;&gt;Node10 -->
<g id="edge19" class="edge">
<title>Node16&#45;&gt;Node10</title>
<path fill="none" stroke="#63b8ff" d="M1664.16,-307.8C1660.95,-298.94 1656.32,-284.75 1654.5,-272 1644.99,-205.57 1636.59,-185.68 1654.5,-121 1657.68,-109.52 1664.28,-98.02 1670.48,-88.96"/>
<polygon fill="#63b8ff" stroke="#63b8ff" points="1673.14,-91.24 1676.21,-81.1 1667.49,-87.11 1673.14,-91.24"/>
</g>
<!-- Node17 -->
<g id="node17" class="node">
<title>Node17</title>
<g id="a_node17"><a xlink:title=" ">
<polygon fill="#e0e0e0" stroke="#999999" points="2101.5,-79.5 2057.5,-79.5 2057.5,-60.5 2101.5,-60.5 2101.5,-79.5"/>
<text text-anchor="middle" x="2079.5" y="-67.5" font-family="Helvetica,sans-Serif" font-size="10.00">vector</text>
</a>
</g>
</g>
<!-- Node16&#45;&gt;Node17 -->
<g id="edge16" class="edge">
<title>Node16&#45;&gt;Node17</title>
<path fill="none" stroke="#63b8ff" d="M1743.58,-307.51C1814.18,-298.5 1910.32,-284.24 1923.5,-272 1974.22,-224.92 1916.26,-173.37 1961.5,-121 1988.86,-89.33 2010.09,-101.61 2048.5,-85 2048.85,-84.85 2049.19,-84.7 2049.54,-84.55"/>
<polygon fill="#63b8ff" stroke="#63b8ff" points="2050.75,-87.84 2058.48,-80.59 2047.92,-81.44 2050.75,-87.84"/>
</g>
<!-- Node18 -->
<g id="node18" class="node">
<title>Node18</title>
<g id="a_node18"><a xlink:title=" ">
<polygon fill="#e0e0e0" stroke="#999999" points="1776.5,-266.5 1696.5,-266.5 1696.5,-247.5 1776.5,-247.5 1776.5,-266.5"/>
<text text-anchor="middle" x="1736.5" y="-254.5" font-family="Helvetica,sans-Serif" font-size="10.00">boost/asio.hpp</text>
</a>
</g>
</g>
<!-- Node16&#45;&gt;Node18 -->
<g id="edge17" class="edge">
<title>Node16&#45;&gt;Node18</title>
<path fill="none" stroke="#63b8ff" d="M1677.98,-307.62C1688.42,-298.77 1704.67,-284.98 1717.41,-274.19"/>
<polygon fill="#63b8ff" stroke="#63b8ff" points="1719.4,-277.08 1724.77,-267.95 1714.88,-271.74 1719.4,-277.08"/>
</g>
<!-- Node19 -->
<g id="node19" class="node">
<title>Node19</title>
<g id="a_node19"><a xlink:title=" ">
<polygon fill="#e0e0e0" stroke="#999999" points="1890,-79.5 1753,-79.5 1753,-60.5 1890,-60.5 1890,-79.5"/>
<text text-anchor="middle" x="1821.5" y="-67.5" font-family="Helvetica,sans-Serif" font-size="10.00">boost/core/noncopyable.hpp</text>
</a>
</g>
</g>
<!-- Node16&#45;&gt;Node19 -->
<g id="edge18" class="edge">
<title>Node16&#45;&gt;Node19</title>
<path fill="none" stroke="#63b8ff" d="M1668.67,-307.83C1670.85,-293.51 1676.36,-264.28 1687.5,-242 1719.13,-178.71 1776.36,-116.35 1804.69,-87.55"/>
<polygon fill="#63b8ff" stroke="#63b8ff" points="1806.84,-90.35 1811.42,-80.79 1801.88,-85.4 1806.84,-90.35"/>
</g>
<!-- Node16&#45;&gt;Node20 -->
<g id="edge20" class="edge">
<title>Node16&#45;&gt;Node20</title>
<path fill="none" stroke="#63b8ff" d="M1587.34,-315.35C1479.15,-312.61 1293.08,-303.34 1233.5,-272 1207.34,-258.24 1187.03,-229.81 1175.66,-210.82"/>
<polygon fill="#63b8ff" stroke="#63b8ff" points="1178.76,-209.18 1170.77,-202.22 1172.68,-212.65 1178.76,-209.18"/>
</g>
<!-- Node16&#45;&gt;Node26 -->
<g id="edge34" class="edge">
<title>Node16&#45;&gt;Node26</title>
<path fill="none" stroke="#63b8ff" d="M1650.79,-307.62C1633.19,-298.25 1605.19,-283.36 1584.45,-272.33"/>
<polygon fill="#63b8ff" stroke="#63b8ff" points="1586.17,-269.28 1575.7,-267.68 1582.89,-275.46 1586.17,-269.28"/>
</g>
<!-- Node16&#45;&gt;Node39 -->
<g id="edge60" class="edge">
<title>Node16&#45;&gt;Node39</title>
<path fill="none" stroke="#63b8ff" d="M1633.48,-307.62C1594.83,-297.52 1531.59,-281.01 1488.79,-269.83"/>
<polygon fill="#63b8ff" stroke="#63b8ff" points="1489.87,-266.49 1479.31,-267.35 1488.1,-273.26 1489.87,-266.49"/>
</g>
<!-- Node40 -->
<g id="node40" class="node">
<title>Node40</title>
<g id="a_node40"><a xlink:title=" ">
<polygon fill="#e0e0e0" stroke="#999999" points="1914.5,-272 1794.5,-272 1794.5,-242 1914.5,-242 1914.5,-272"/>
<text text-anchor="start" x="1802.5" y="-260" font-family="Helvetica,sans-Serif" font-size="10.00">boost/asio/posix/stream</text>
<text text-anchor="middle" x="1854.5" y="-249" font-family="Helvetica,sans-Serif" font-size="10.00">_descriptor.hpp</text>
</a>
</g>
</g>
<!-- Node16&#45;&gt;Node40 -->
<g id="edge63" class="edge">
<title>Node16&#45;&gt;Node40</title>
<path fill="none" stroke="#63b8ff" d="M1695.9,-307.62C1722.82,-299.19 1764.04,-286.3 1797.7,-275.77"/>
<polygon fill="#63b8ff" stroke="#63b8ff" points="1798.4,-279.22 1806.9,-272.89 1796.31,-272.54 1798.4,-279.22"/>
</g>
<!-- Node20&#45;&gt;Node6 -->
<g id="edge21" class="edge">
<title>Node20&#45;&gt;Node6</title>
<path fill="none" stroke="#63b8ff" d="M1126.91,-186.54C1004.12,-175.28 611.53,-137.36 289.5,-85 284.27,-84.15 278.84,-83.18 273.42,-82.15"/>
<polygon fill="#63b8ff" stroke="#63b8ff" points="274.36,-78.77 263.88,-80.29 273.02,-85.64 274.36,-78.77"/>
</g>
<!-- Node20&#45;&gt;Node9 -->
<g id="edge22" class="edge">
<title>Node20&#45;&gt;Node9</title>
<path fill="none" stroke="#63b8ff" d="M1126.88,-182.01C1027.09,-161.36 760.42,-106.17 645,-82.28"/>
<polygon fill="#63b8ff" stroke="#63b8ff" points="645.97,-78.91 635.47,-80.31 644.55,-85.76 645.97,-78.91"/>
</g>
<!-- Node20&#45;&gt;Node10 -->
<g id="edge23" class="edge">
<title>Node20&#45;&gt;Node10</title>
<path fill="none" stroke="#63b8ff" d="M1169.24,-181.37C1176.35,-166.16 1193.37,-134.86 1218.5,-121 1294.32,-79.17 1520.7,-96.66 1606.5,-85 1613.22,-84.09 1620.24,-83.01 1627.2,-81.86"/>
<polygon fill="#63b8ff" stroke="#63b8ff" points="1627.65,-85.33 1636.92,-80.2 1626.47,-78.43 1627.65,-85.33"/>
</g>
<!-- Node21 -->
<g id="node21" class="node">
<title>Node21</title>
<g id="a_node21"><a xlink:href="_dma_buffer_abstract_8hpp.html" target="_top" xlink:title=" ">
<polygon fill="white" stroke="#666666" points="1564,-140 1447,-140 1447,-121 1564,-121 1564,-140"/>
<text text-anchor="middle" x="1505.5" y="-128" font-family="Helvetica,sans-Serif" font-size="10.00">DmaBufferAbstract.hpp</text>
</a>
</g>
</g>
<!-- Node20&#45;&gt;Node21 -->
<g id="edge24" class="edge">
<title>Node20&#45;&gt;Node21</title>
<path fill="none" stroke="#63b8ff" d="M1204.17,-183.35C1262.12,-173.38 1372.14,-154.45 1441.99,-142.43"/>
<polygon fill="#63b8ff" stroke="#63b8ff" points="1442.51,-145.89 1451.78,-140.74 1441.33,-138.99 1442.51,-145.89"/>
</g>
<!-- Node21&#45;&gt;Node15 -->
<g id="edge25" class="edge">
<title>Node21&#45;&gt;Node15</title>
<path fill="none" stroke="#63b8ff" d="M1564.44,-122.39C1569.19,-121.89 1573.93,-121.42 1578.5,-121 1814.49,-99.29 1880.31,-141.33 2110.5,-85 2111.86,-84.67 2113.23,-84.28 2114.61,-83.85"/>
<polygon fill="#63b8ff" stroke="#63b8ff" points="2115.39,-87.3 2123.52,-80.51 2112.93,-80.74 2115.39,-87.3"/>
</g>
<!-- Node21&#45;&gt;Node17 -->
<g id="edge26" class="edge">
<title>Node21&#45;&gt;Node17</title>
<path fill="none" stroke="#63b8ff" d="M1564.45,-122.43C1569.2,-121.93 1573.93,-121.44 1578.5,-121 1787.03,-100.88 1845.53,-136.9 2048.5,-85 2049.67,-84.7 2050.86,-84.36 2052.04,-83.98"/>
<polygon fill="#63b8ff" stroke="#63b8ff" points="2053.02,-87.36 2061.09,-80.49 2050.5,-80.83 2053.02,-87.36"/>
</g>
<!-- Node21&#45;&gt;Node19 -->
<g id="edge27" class="edge">
<title>Node21&#45;&gt;Node19</title>
<path fill="none" stroke="#63b8ff" d="M1553.84,-120.55C1609.63,-110.22 1701.42,-93.23 1761.67,-82.08"/>
<polygon fill="#63b8ff" stroke="#63b8ff" points="1762.22,-85.53 1771.42,-80.27 1760.95,-78.65 1762.22,-85.53"/>
</g>
<!-- Node22 -->
<g id="node22" class="node">
<title>Node22</title>
<g id="a_node22"><a xlink:href="_uio_config_8hpp.html" target="_top" xlink:title=" ">
<polygon fill="white" stroke="#666666" points="1577,-79.5 1466,-79.5 1466,-60.5 1577,-60.5 1577,-79.5"/>
<text text-anchor="middle" x="1521.5" y="-67.5" font-family="Helvetica,sans-Serif" font-size="10.00">udmaio/UioConfig.hpp</text>
</a>
</g>
</g>
<!-- Node21&#45;&gt;Node22 -->
<g id="edge28" class="edge">
<title>Node21&#45;&gt;Node22</title>
<path fill="none" stroke="#63b8ff" d="M1507.86,-120.87C1510.04,-112.92 1513.34,-100.83 1516.15,-90.55"/>
<polygon fill="#63b8ff" stroke="#63b8ff" points="1519.47,-91.7 1518.73,-81.13 1512.72,-89.85 1519.47,-91.7"/>
</g>
<!-- Node22&#45;&gt;Node4 -->
<g id="edge29" class="edge">
<title>Node22&#45;&gt;Node4</title>
<path fill="none" stroke="#63b8ff" d="M1483.84,-60.06C1474.91,-58.18 1465.4,-56.35 1456.5,-55 1285.16,-29.04 1078.4,-16.59 994.09,-12.3"/>
<polygon fill="#63b8ff" stroke="#63b8ff" points="994.47,-8.81 984.31,-11.81 994.12,-15.81 994.47,-8.81"/>
</g>
<!-- Node22&#45;&gt;Node5 -->
<g id="edge31" class="edge">
<title>Node22&#45;&gt;Node5</title>
<path fill="none" stroke="#63b8ff" d="M1577.31,-61.17C1662.2,-49.26 1821.86,-26.86 1897.18,-16.3"/>
<polygon fill="#63b8ff" stroke="#63b8ff" points="1897.6,-19.77 1907.02,-14.92 1896.63,-12.84 1897.6,-19.77"/>
</g>
<!-- Node23 -->
<g id="node23" class="node">
<title>Node23</title>
<g id="a_node23"><a xlink:title=" ">
<polygon fill="#e0e0e0" stroke="#999999" points="1621,-19 1570,-19 1570,0 1621,0 1621,-19"/>
<text text-anchor="middle" x="1595.5" y="-7" font-family="Helvetica,sans-Serif" font-size="10.00">memory</text>
</a>
</g>
</g>
<!-- Node22&#45;&gt;Node23 -->
<g id="edge30" class="edge">
<title>Node22&#45;&gt;Node23</title>
<path fill="none" stroke="#63b8ff" d="M1532.74,-60.12C1544.04,-51.18 1561.71,-37.22 1575.42,-26.37"/>
<polygon fill="#63b8ff" stroke="#63b8ff" points="1577.29,-29.35 1582.97,-20.41 1572.95,-23.86 1577.29,-29.35"/>
</g>
<!-- Node24 -->
<g id="node24" class="node">
<title>Node24</title>
<g id="a_node24"><a xlink:title=" ">
<polygon fill="#e0e0e0" stroke="#999999" points="1542,-19 1501,-19 1501,0 1542,0 1542,-19"/>
<text text-anchor="middle" x="1521.5" y="-7" font-family="Helvetica,sans-Serif" font-size="10.00">string</text>
</a>
</g>
</g>
<!-- Node22&#45;&gt;Node24 -->
<g id="edge32" class="edge">
<title>Node22&#45;&gt;Node24</title>
<path fill="none" stroke="#63b8ff" d="M1521.5,-60.37C1521.5,-52.5 1521.5,-40.6 1521.5,-30.39"/>
<polygon fill="#63b8ff" stroke="#63b8ff" points="1525,-30.68 1521.5,-20.68 1518,-30.68 1525,-30.68"/>
</g>
<!-- Node25 -->
<g id="node25" class="node">
<title>Node25</title>
<g id="a_node25"><a xlink:title=" ">
<polygon fill="#e0e0e0" stroke="#999999" points="1274.5,-19 1208.5,-19 1208.5,0 1274.5,0 1274.5,-19"/>
<text text-anchor="middle" x="1241.5" y="-7" font-family="Helvetica,sans-Serif" font-size="10.00">string_view</text>
</a>
</g>
</g>
<!-- Node22&#45;&gt;Node25 -->
<g id="edge33" class="edge">
<title>Node22&#45;&gt;Node25</title>
<path fill="none" stroke="#63b8ff" d="M1480.25,-60.06C1472.37,-58.37 1464.18,-56.62 1456.5,-55 1397.44,-42.53 1329.19,-28.46 1285.7,-19.54"/>
<polygon fill="#63b8ff" stroke="#63b8ff" points="1286.65,-16.16 1276.15,-17.58 1285.24,-23.02 1286.65,-16.16"/>
</g>
<!-- Node26&#45;&gt;Node27 -->
<g id="edge35" class="edge">
<title>Node26&#45;&gt;Node27</title>
<path fill="none" stroke="#63b8ff" d="M1546.84,-247.24C1525.6,-230.33 1475.91,-193.31 1427.5,-176 1328.42,-140.57 1203.19,-133.07 1140.34,-131.66"/>
<polygon fill="#63b8ff" stroke="#63b8ff" points="1140.56,-128.17 1130.5,-131.49 1140.44,-135.17 1140.56,-128.17"/>
</g>
<!-- Node37 -->
<g id="node37" class="node">
<title>Node37</title>
<g id="a_node37"><a xlink:href="_axi_dma_8hpp.html" target="_top" xlink:title=" ">
<polygon fill="white" stroke="#666666" points="2052.5,-140 1970.5,-140 1970.5,-121 2052.5,-121 2052.5,-140"/>
<text text-anchor="middle" x="2011.5" y="-128" font-family="Helvetica,sans-Serif" font-size="10.00">rdl/AxiDma.hpp</text>
</a>
</g>
</g>
<!-- Node26&#45;&gt;Node37 -->
<g id="edge55" class="edge">
<title>Node26&#45;&gt;Node37</title>
<path fill="none" stroke="#63b8ff" d="M1590.15,-247.05C1670.38,-225.04 1877.24,-168.32 1967.87,-143.46"/>
<polygon fill="#63b8ff" stroke="#63b8ff" points="1968.66,-146.88 1977.38,-140.86 1966.81,-140.13 1968.66,-146.88"/>
</g>
<!-- Node38 -->
<g id="node38" class="node">
<title>Node38</title>
<g id="a_node38"><a xlink:href="_reg_accessor_8hpp.html" target="_top" xlink:title=" ">
<polygon fill="white" stroke="#666666" points="1418,-200.5 1311,-200.5 1311,-181.5 1418,-181.5 1418,-200.5"/>
<text text-anchor="middle" x="1364.5" y="-188.5" font-family="Helvetica,sans-Serif" font-size="10.00">rdl/RegAccessor.hpp</text>
</a>
</g>
</g>
<!-- Node26&#45;&gt;Node38 -->
<g id="edge57" class="edge">
<title>Node26&#45;&gt;Node38</title>
<path fill="none" stroke="#63b8ff" d="M1530.66,-247.1C1497.2,-236 1439.8,-216.97 1402,-204.43"/>
<polygon fill="#63b8ff" stroke="#63b8ff" points="1403.45,-201.23 1392.85,-201.4 1401.25,-207.87 1403.45,-201.23"/>
</g>
<!-- Node27&#45;&gt;Node4 -->
<g id="edge38" class="edge">
<title>Node27&#45;&gt;Node4</title>
<path fill="none" stroke="#63b8ff" d="M1072.19,-121.29C1051.44,-114.21 1023.52,-102.36 1003.5,-85 985.74,-69.6 972.09,-46.06 963.96,-29.57"/>
<polygon fill="#63b8ff" stroke="#63b8ff" points="967.28,-28.41 959.88,-20.84 960.94,-31.38 967.28,-28.41"/>
</g>
<!-- Node27&#45;&gt;Node6 -->
<g id="edge42" class="edge">
<title>Node27&#45;&gt;Node6</title>
<path fill="none" stroke="#63b8ff" d="M1072.35,-129.46C968.11,-129 594.35,-124.52 289.5,-85 283.52,-84.23 277.29,-83.22 271.12,-82.1"/>
<polygon fill="#63b8ff" stroke="#63b8ff" points="272.14,-78.73 261.66,-80.28 270.81,-85.61 272.14,-78.73"/>
</g>
<!-- Node27&#45;&gt;Node7 -->
<g id="edge43" class="edge">
<title>Node27&#45;&gt;Node7</title>
<path fill="none" stroke="#63b8ff" d="M1072.23,-125.4C1021.11,-117.9 909.92,-101.27 816.5,-85 811.22,-84.08 805.72,-83.09 800.23,-82.08"/>
<polygon fill="#63b8ff" stroke="#63b8ff" points="800.98,-78.65 790.5,-80.26 799.69,-85.54 800.98,-78.65"/>
</g>
<!-- Node27&#45;&gt;Node8 -->
<g id="edge44" class="edge">
<title>Node27&#45;&gt;Node8</title>
<path fill="none" stroke="#63b8ff" d="M1072.13,-122.09C1038.67,-113.35 982.06,-98.57 938.32,-87.15"/>
<polygon fill="#63b8ff" stroke="#63b8ff" points="939.24,-83.77 928.68,-84.63 937.47,-90.54 939.24,-83.77"/>
</g>
<!-- Node27&#45;&gt;Node9 -->
<g id="edge45" class="edge">
<title>Node27&#45;&gt;Node9</title>
<path fill="none" stroke="#63b8ff" d="M1072.17,-127.29C1003.13,-121.75 820.73,-106.18 669.5,-85 662.96,-84.08 656.13,-83.03 649.35,-81.91"/>
<polygon fill="#63b8ff" stroke="#63b8ff" points="649.97,-78.47 639.53,-80.25 648.8,-85.37 649.97,-78.47"/>
</g>
<!-- Node27&#45;&gt;Node10 -->
<g id="edge46" class="edge">
<title>Node27&#45;&gt;Node10</title>
<path fill="none" stroke="#63b8ff" d="M1128.88,-123.26C1133.42,-122.4 1138.08,-121.61 1142.5,-121 1353.1,-91.86 1409.09,-115.45 1619.5,-85 1624.86,-84.22 1630.44,-83.26 1635.97,-82.21"/>
<polygon fill="#63b8ff" stroke="#63b8ff" points="1636.6,-85.65 1645.71,-80.25 1635.22,-78.79 1636.6,-85.65"/>
</g>
<!-- Node27&#45;&gt;Node19 -->
<g id="edge41" class="edge">
<title>Node27&#45;&gt;Node19</title>
<path fill="none" stroke="#63b8ff" d="M1128.86,-128.66C1219.1,-125.76 1507.63,-114.62 1744.5,-85 1751.32,-84.15 1758.45,-83.08 1765.5,-81.93"/>
<polygon fill="#63b8ff" stroke="#63b8ff" points="1766.08,-85.38 1775.35,-80.24 1764.9,-78.48 1766.08,-85.38"/>
</g>
<!-- Node27&#45;&gt;Node22 -->
<g id="edge52" class="edge">
<title>Node27&#45;&gt;Node22</title>
<path fill="none" stroke="#63b8ff" d="M1128.91,-123.41C1133.44,-122.54 1138.09,-121.7 1142.5,-121 1281.24,-99.05 1317.9,-107.82 1456.5,-85 1461.44,-84.19 1466.57,-83.25 1471.68,-82.25"/>
<polygon fill="#63b8ff" stroke="#63b8ff" points="1472.2,-85.72 1481.3,-80.29 1470.8,-78.86 1472.2,-85.72"/>
</g>
<!-- Node27&#45;&gt;Node23 -->
<g id="edge39" class="edge">
<title>Node27&#45;&gt;Node23</title>
<path fill="none" stroke="#63b8ff" d="M1128.89,-123.28C1133.42,-122.42 1138.08,-121.62 1142.5,-121 1191.51,-114.08 1550.82,-119.3 1586.5,-85 1600.86,-71.19 1601.28,-47.31 1599.28,-30.3"/>
<polygon fill="#63b8ff" stroke="#63b8ff" points="1602.81,-30.21 1597.81,-20.88 1595.9,-31.3 1602.81,-30.21"/>
</g>
<!-- Node27&#45;&gt;Node25 -->
<g id="edge40" class="edge">
<title>Node27&#45;&gt;Node25</title>
<path fill="none" stroke="#63b8ff" d="M1072.12,-123.46C1051.64,-117.46 1025.41,-106 1012.5,-85 1005.52,-73.64 1004.02,-65.29 1012.5,-55 1035.38,-27.24 1136.79,-16.58 1196.72,-12.65"/>
<polygon fill="#63b8ff" stroke="#63b8ff" points="1196.83,-16.15 1206.6,-12.05 1196.41,-9.17 1196.83,-16.15"/>
</g>
<!-- Node28 -->
<g id="node28" class="node">
<title>Node28</title>
<g id="a_node28"><a xlink:title=" ">
<polygon fill="#e0e0e0" stroke="#999999" points="1223.5,-79.5 1163.5,-79.5 1163.5,-60.5 1223.5,-60.5 1223.5,-79.5"/>
<text text-anchor="middle" x="1193.5" y="-67.5" font-family="Helvetica,sans-Serif" font-size="10.00">filesystem</text>
</a>
</g>
</g>
<!-- Node27&#45;&gt;Node28 -->
<g id="edge36" class="edge">
<title>Node27&#45;&gt;Node28</title>
<path fill="none" stroke="#63b8ff" d="M1114.62,-120.62C1129.24,-111.42 1152.32,-96.91 1169.74,-85.94"/>
<polygon fill="#63b8ff" stroke="#63b8ff" points="1171.36,-89.06 1177.96,-80.77 1167.63,-83.14 1171.36,-89.06"/>
</g>
<!-- Node29 -->
<g id="node29" class="node">
<title>Node29</title>
<g id="a_node29"><a xlink:title=" ">
<polygon fill="#e0e0e0" stroke="#999999" points="1291.5,-79.5 1241.5,-79.5 1241.5,-60.5 1291.5,-60.5 1291.5,-79.5"/>
<text text-anchor="middle" x="1266.5" y="-67.5" font-family="Helvetica,sans-Serif" font-size="10.00">fstream</text>
</a>
</g>
</g>
<!-- Node27&#45;&gt;Node29 -->
<g id="edge37" class="edge">
<title>Node27&#45;&gt;Node29</title>
<path fill="none" stroke="#63b8ff" d="M1128.76,-120.57C1155.61,-111.94 1197.05,-98.26 1232.5,-85 1233.28,-84.71 1234.08,-84.41 1234.88,-84.1"/>
<polygon fill="#63b8ff" stroke="#63b8ff" points="1235.95,-87.44 1243.96,-80.51 1233.37,-80.93 1235.95,-87.44"/>
</g>
<!-- Node30 -->
<g id="node30" class="node">
<title>Node30</title>
<g id="a_node30"><a xlink:title=" ">
<polygon fill="#e0e0e0" stroke="#999999" points="502,-79.5 459,-79.5 459,-60.5 502,-60.5 502,-79.5"/>
<text text-anchor="middle" x="480.5" y="-67.5" font-family="Helvetica,sans-Serif" font-size="10.00">fcntl.h</text>
</a>
</g>
</g>
<!-- Node27&#45;&gt;Node30 -->
<g id="edge47" class="edge">
<title>Node27&#45;&gt;Node30</title>
<path fill="none" stroke="#63b8ff" d="M1072.17,-128.71C969.69,-125.66 618.69,-113.31 510.5,-85 509.5,-84.74 508.5,-84.45 507.49,-84.13"/>
<polygon fill="#63b8ff" stroke="#63b8ff" points="508.91,-80.92 498.33,-80.51 506.35,-87.44 508.91,-80.92"/>
</g>
<!-- Node31 -->
<g id="node31" class="node">
<title>Node31</title>
<g id="a_node31"><a xlink:title=" ">
<polygon fill="#e0e0e0" stroke="#999999" points="1379,-79.5 1310,-79.5 1310,-60.5 1379,-60.5 1379,-79.5"/>
<text text-anchor="middle" x="1344.5" y="-67.5" font-family="Helvetica,sans-Serif" font-size="10.00">sys/mman.h</text>
</a>
</g>
</g>
<!-- Node27&#45;&gt;Node31 -->
<g id="edge48" class="edge">
<title>Node27&#45;&gt;Node31</title>
<path fill="none" stroke="#63b8ff" d="M1128.88,-123.51C1175.98,-113.52 1268.3,-93.69 1300.5,-85 1302.5,-84.46 1304.55,-83.89 1306.61,-83.29"/>
<polygon fill="#63b8ff" stroke="#63b8ff" points="1307.61,-86.65 1316.17,-80.41 1305.59,-79.94 1307.61,-86.65"/>
</g>
<!-- Node32 -->
<g id="node32" class="node">
<title>Node32</title>
<g id="a_node32"><a xlink:title=" ">
<polygon fill="#e0e0e0" stroke="#999999" points="358,-79.5 299,-79.5 299,-60.5 358,-60.5 358,-79.5"/>
<text text-anchor="middle" x="328.5" y="-67.5" font-family="Helvetica,sans-Serif" font-size="10.00">sys/stat.h</text>
</a>
</g>
</g>
<!-- Node27&#45;&gt;Node32 -->
<g id="edge49" class="edge">
<title>Node27&#45;&gt;Node32</title>
<path fill="none" stroke="#63b8ff" d="M1072.04,-128.88C954.3,-126.17 505.03,-114.06 366.5,-85 364.47,-84.57 362.41,-84.06 360.34,-83.49"/>
<polygon fill="#63b8ff" stroke="#63b8ff" points="361.51,-80.19 350.92,-80.44 359.36,-86.85 361.51,-80.19"/>
</g>
<!-- Node33 -->
<g id="node33" class="node">
<title>Node33</title>
<g id="a_node33"><a xlink:title=" ">
<polygon fill="#e0e0e0" stroke="#999999" points="441,-79.5 376,-79.5 376,-60.5 441,-60.5 441,-79.5"/>
<text text-anchor="middle" x="408.5" y="-67.5" font-family="Helvetica,sans-Serif" font-size="10.00">sys/types.h</text>
</a>
</g>
</g>
<!-- Node27&#45;&gt;Node33 -->
<g id="edge50" class="edge">
<title>Node27&#45;&gt;Node33</title>
<path fill="none" stroke="#63b8ff" d="M1072.01,-128.54C962.85,-124.71 571.38,-109.54 449.5,-85 447.04,-84.51 444.53,-83.9 442.02,-83.23"/>
<polygon fill="#63b8ff" stroke="#63b8ff" points="443.23,-79.94 432.64,-80.37 441.19,-86.63 443.23,-79.94"/>
</g>
<!-- Node34 -->
<g id="node34" class="node">
<title>Node34</title>
<g id="a_node34"><a xlink:title=" ">
<polygon fill="#e0e0e0" stroke="#999999" points="1447.5,-79.5 1397.5,-79.5 1397.5,-60.5 1447.5,-60.5 1447.5,-79.5"/>
<text text-anchor="middle" x="1422.5" y="-67.5" font-family="Helvetica,sans-Serif" font-size="10.00">unistd.h</text>
</a>
</g>
</g>
<!-- Node27&#45;&gt;Node34 -->
<g id="edge51" class="edge">
<title>Node27&#45;&gt;Node34</title>
<path fill="none" stroke="#63b8ff" d="M1128.93,-123.53C1133.46,-122.64 1138.1,-121.77 1142.5,-121 1251.36,-102.03 1281.95,-114.26 1388.5,-85 1389.85,-84.63 1391.22,-84.22 1392.59,-83.78"/>
<polygon fill="#63b8ff" stroke="#63b8ff" points="1393.39,-87.21 1401.59,-80.5 1390.99,-80.64 1393.39,-87.21"/>
</g>
<!-- Node35 -->
<g id="node35" class="node">
<title>Node35</title>
<g id="a_node35"><a xlink:title=" ">
<polygon fill="#e0e0e0" stroke="#999999" points="1145.5,-85 1021.5,-85 1021.5,-55 1145.5,-55 1145.5,-85"/>
<text text-anchor="start" x="1029.5" y="-73" font-family="Helvetica,sans-Serif" font-size="10.00">boost/log/sources/record</text>
<text text-anchor="middle" x="1083.5" y="-62" font-family="Helvetica,sans-Serif" font-size="10.00">_ostream.hpp</text>
</a>
</g>
</g>
<!-- Node27&#45;&gt;Node35 -->
<g id="edge53" class="edge">
<title>Node27&#45;&gt;Node35</title>
<path fill="none" stroke="#63b8ff" d="M1097.99,-120.87C1096.09,-114.33 1093.38,-104.99 1090.81,-96.15"/>
<polygon fill="#63b8ff" stroke="#63b8ff" points="1094.18,-95.19 1088.02,-86.57 1087.45,-97.15 1094.18,-95.19"/>
</g>
<!-- Node27&#45;&gt;Node36 -->
<g id="edge54" class="edge">
<title>Node27&#45;&gt;Node36</title>
<path fill="none" stroke="#63b8ff" d="M1128.93,-129.26C1231.27,-128.13 1590.63,-121.73 1896.49,-85.26"/>
<polygon fill="#63b8ff" stroke="#63b8ff" points="1896.79,-88.75 1906.3,-84.07 1895.95,-81.8 1896.79,-88.75"/>
</g>
<!-- Node37&#45;&gt;Node15 -->
<g id="edge56" class="edge">
<title>Node37&#45;&gt;Node15</title>
<path fill="none" stroke="#63b8ff" d="M2031.4,-120.62C2052.84,-111.04 2087.24,-95.68 2112.09,-84.58"/>
<polygon fill="#63b8ff" stroke="#63b8ff" points="2113.33,-87.86 2121.03,-80.59 2110.48,-81.47 2113.33,-87.86"/>
</g>
<!-- Node38&#45;&gt;Node15 -->
<g id="edge58" class="edge">
<title>Node38&#45;&gt;Node15</title>
<path fill="none" stroke="#63b8ff" d="M1418.44,-187.44C1542.72,-180.47 1857.88,-156.58 2110.5,-85 2111.67,-84.67 2112.85,-84.3 2114.03,-83.91"/>
<polygon fill="#63b8ff" stroke="#63b8ff" points="2115.05,-87.27 2123.13,-80.42 2112.54,-80.74 2115.05,-87.27"/>
</g>
<!-- Node38&#45;&gt;Node27 -->
<g id="edge59" class="edge">
<title>Node38&#45;&gt;Node27</title>
<path fill="none" stroke="#63b8ff" d="M1324.12,-181.05C1274.1,-169.97 1189.47,-151.21 1139.91,-140.23"/>
<polygon fill="#63b8ff" stroke="#63b8ff" points="1140.7,-136.82 1130.18,-138.08 1139.19,-143.66 1140.7,-136.82"/>
</g>
<!-- Node39&#45;&gt;Node21 -->
<g id="edge61" class="edge">
<title>Node39&#45;&gt;Node21</title>
<path fill="none" stroke="#63b8ff" d="M1447.96,-247.05C1457.97,-226.95 1482.41,-177.87 1496,-150.58"/>
<polygon fill="#63b8ff" stroke="#63b8ff" points="1499.08,-152.24 1500.41,-141.73 1492.82,-149.12 1499.08,-152.24"/>
</g>
<!-- Node39&#45;&gt;Node27 -->
<g id="edge62" class="edge">
<title>Node39&#45;&gt;Node27</title>
<path fill="none" stroke="#63b8ff" d="M1417.99,-247.06C1389.72,-237.13 1342.8,-220.58 1302.5,-206 1243.54,-184.68 1175.13,-159.31 1134.96,-144.36"/>
<polygon fill="#63b8ff" stroke="#63b8ff" points="1136.42,-141.17 1125.83,-140.96 1133.98,-147.73 1136.42,-141.17"/>
</g>
<!-- Node41&#45;&gt;Node38 -->
<g id="edge65" class="edge">
<title>Node41&#45;&gt;Node38</title>
<path fill="none" stroke="#63b8ff" d="M1347.79,-307.55C1350.66,-287.72 1357.61,-239.68 1361.58,-212.19"/>
<polygon fill="#63b8ff" stroke="#63b8ff" points="1365.03,-212.77 1363,-202.37 1358.11,-211.77 1365.03,-212.77"/>
</g>
<!-- Node42&#45;&gt;Node38 -->
<g id="edge67" class="edge">
<title>Node42&#45;&gt;Node38</title>
<path fill="none" stroke="#63b8ff" d="M1299.93,-247.1C1311.68,-237.07 1331.04,-220.56 1345.49,-208.22"/>
<polygon fill="#63b8ff" stroke="#63b8ff" points="1347.67,-210.96 1353.01,-201.81 1343.13,-205.63 1347.67,-210.96"/>
</g>
<!-- Node43&#45;&gt;Node6 -->
<g id="edge69" class="edge">
<title>Node43&#45;&gt;Node6</title>
<path fill="none" stroke="#63b8ff" d="M527.18,-175.53C458.34,-151.99 323.29,-105.81 258.24,-83.56"/>
<polygon fill="#63b8ff" stroke="#63b8ff" points="259.71,-80.37 249.11,-80.44 257.44,-86.99 259.71,-80.37"/>
</g>
<!-- Node43&#45;&gt;Node9 -->
<g id="edge70" class="edge">
<title>Node43&#45;&gt;Node9</title>
<path fill="none" stroke="#63b8ff" d="M571.99,-175.88C575.71,-154.8 582.74,-115 586.98,-90.95"/>
<polygon fill="#63b8ff" stroke="#63b8ff" points="590.41,-91.66 588.7,-81.2 583.52,-90.44 590.41,-91.66"/>
</g>
<!-- Node43&#45;&gt;Node10 -->
<g id="edge71" class="edge">
<title>Node43&#45;&gt;Node10</title>
<path fill="none" stroke="#63b8ff" d="M640.27,-189.31C748.55,-187.01 961.3,-177.59 1137.5,-140 1162.79,-134.6 1167.2,-126.38 1192.5,-121 1373.15,-82.56 1423.42,-109.34 1606.5,-85 1613.22,-84.11 1620.24,-83.04 1627.21,-81.9"/>
<polygon fill="#63b8ff" stroke="#63b8ff" points="1627.65,-85.37 1636.92,-80.24 1626.48,-78.47 1627.65,-85.37"/>
</g>
<!-- Node43&#45;&gt;Node21 -->
<g id="edge75" class="edge">
<title>Node43&#45;&gt;Node21</title>
<path fill="none" stroke="#63b8ff" d="M640.24,-185.58C814.34,-174.7 1262.06,-146.71 1435.45,-135.88"/>
<polygon fill="#63b8ff" stroke="#63b8ff" points="1435.44,-139.39 1445.2,-135.27 1435.01,-132.4 1435.44,-139.39"/>
</g>
<!-- Node43&#45;&gt;Node30 -->
<g id="edge72" class="edge">
<title>Node43&#45;&gt;Node30</title>
<path fill="none" stroke="#63b8ff" d="M560.07,-175.76C550.62,-161.64 535.49,-139.51 521.5,-121 513.07,-109.85 503.14,-97.72 495.17,-88.2"/>
<polygon fill="#63b8ff" stroke="#63b8ff" points="498.08,-86.22 488.95,-80.84 492.73,-90.74 498.08,-86.22"/>
</g>
<!-- Node43&#45;&gt;Node32 -->
<g id="edge73" class="edge">
<title>Node43&#45;&gt;Node32</title>
<path fill="none" stroke="#63b8ff" d="M540.43,-175.65C493.84,-152.64 403,-107.79 356.86,-85.01"/>
<polygon fill="#63b8ff" stroke="#63b8ff" points="358.55,-81.93 348.03,-80.64 355.45,-88.21 358.55,-81.93"/>
</g>
<!-- Node43&#45;&gt;Node33 -->
<g id="edge74" class="edge">
<title>Node43&#45;&gt;Node33</title>
<path fill="none" stroke="#63b8ff" d="M550.08,-175.65C519.74,-153.22 461.33,-110.05 429.85,-86.78"/>
<polygon fill="#63b8ff" stroke="#63b8ff" points="431.98,-84 421.86,-80.87 427.82,-89.63 431.98,-84"/>
</g>
</g>
</svg>
