<?xml version="1.0" encoding="UTF-8" standalone="no"?>
<!DOCTYPE svg PUBLIC "-//W3C//DTD SVG 1.1//EN"
 "http://www.w3.org/Graphics/SVG/1.1/DTD/svg11.dtd">
<!-- Generated by graphviz version 7.0.5 (20221223.1930)
 -->
<!-- Title: udmaio::FpgaMemBufferOverAxi Pages: 1 -->
<svg width="248pt" height="149pt"
 viewBox="0.00 0.00 247.50 149.00" xmlns="http://www.w3.org/2000/svg" xmlns:xlink="http://www.w3.org/1999/xlink">
<g id="graph0" class="graph" transform="scale(1 1) rotate(0) translate(4 145)">
<title>udmaio::FpgaMemBufferOverAxi</title>
<!-- Node1 -->
<g id="node1" class="node">
<title>Node1</title>
<g id="a_node1"><a xlink:title="DMA data buffer accessed over AXI/UIO, described w/ explicit address &amp; size.">
<polygon fill="#999999" stroke="#666666" points="206.5,-19 50.5,-19 50.5,0 206.5,0 206.5,-19"/>
<text text-anchor="middle" x="128.5" y="-7" font-family="Helvetica,sans-Serif" font-size="10.00">udmaio::FpgaMemBufferOverAxi</text>
</a>
</g>
</g>
<!-- Node2 -->
<g id="node2" class="node">
<title>Node2</title>
<g id="a_node2"><a xlink:href="classudmaio_1_1_dma_buffer_abstract.html" target="_top" xlink:title="Base class for DMA data buffer.">
<polygon fill="white" stroke="#666666" points="135,-75 0,-75 0,-56 135,-56 135,-75"/>
<text text-anchor="middle" x="67.5" y="-63" font-family="Helvetica,sans-Serif" font-size="10.00">udmaio::DmaBufferAbstract</text>
</a>
</g>
</g>
<!-- Node2&#45;&gt;Node1 -->
<g id="edge1" class="edge">
<title>Node2&#45;&gt;Node1</title>
<path fill="none" stroke="#63b8ff" d="M85.89,-48.22C96.64,-38.7 109.79,-27.06 118.61,-19.25"/>
<polygon fill="#63b8ff" stroke="#63b8ff" points="83.87,-45.33 78.71,-54.58 88.51,-50.57 83.87,-45.33"/>
</g>
<!-- Node3 -->
<g id="node3" class="node">
<title>Node3</title>
<g id="a_node3"><a xlink:title=" ">
<polygon fill="white" stroke="#666666" points="122,-141 23,-141 23,-122 122,-122 122,-141"/>
<text text-anchor="middle" x="72.5" y="-129" font-family="Helvetica,sans-Serif" font-size="10.00">boost::noncopyable</text>
</a>
</g>
</g>
<!-- Node3&#45;&gt;Node2 -->
<g id="edge2" class="edge">
<title>Node3&#45;&gt;Node2</title>
<path fill="none" stroke="#8b1a1a" d="M70.91,-110.18C70,-98.44 68.89,-84.27 68.19,-75.32"/>
<polygon fill="#8b1a1a" stroke="#8b1a1a" points="67.42,-110.4 71.69,-120.09 74.4,-109.85 67.42,-110.4"/>
</g>
<!-- Node4 -->
<g id="node4" class="node">
<title>Node4</title>
<g id="a_node4"><a xlink:href="classudmaio_1_1_uio_if.html" target="_top" xlink:title="Base class for UIO interfaces.">
<polygon fill="white" stroke="#666666" points="227.5,-75 153.5,-75 153.5,-56 227.5,-56 227.5,-75"/>
<text text-anchor="middle" x="190.5" y="-63" font-family="Helvetica,sans-Serif" font-size="10.00">udmaio::UioIf</text>
</a>
</g>
</g>
<!-- Node3&#45;&gt;Node4 -->
<g id="edge4" class="edge">
<title>Node3&#45;&gt;Node4</title>
<path fill="none" stroke="#8b1a1a" d="M98.75,-116.26C121.84,-103.74 154.75,-85.89 174.23,-75.32"/>
<polygon fill="#8b1a1a" stroke="#8b1a1a" points="97.36,-113.04 90.24,-120.88 100.7,-119.19 97.36,-113.04"/>
</g>
<!-- Node4&#45;&gt;Node1 -->
<g id="edge3" class="edge">
<title>Node4&#45;&gt;Node1</title>
<path fill="none" stroke="#63b8ff" d="M171.81,-48.22C160.88,-38.7 147.51,-27.06 138.55,-19.25"/>
<polygon fill="#63b8ff" stroke="#63b8ff" points="169.28,-50.66 179.12,-54.59 173.88,-45.38 169.28,-50.66"/>
</g>
<!-- Node5 -->
<g id="node5" class="node">
<title>Node5</title>
<g id="a_node5"><a xlink:href="structudmaio_1_1_uio_region.html" target="_top" xlink:title="General&#45;purpose struct to define a memory area.">
<polygon fill="white" stroke="#666666" points="239.5,-141 141.5,-141 141.5,-122 239.5,-122 239.5,-141"/>
<text text-anchor="middle" x="190.5" y="-129" font-family="Helvetica,sans-Serif" font-size="10.00">udmaio::UioRegion</text>
</a>
</g>
</g>
<!-- Node5&#45;&gt;Node4 -->
<g id="edge5" class="edge">
<title>Node5&#45;&gt;Node4</title>
<path fill="none" stroke="#9a32cd" stroke-dasharray="5,2" d="M190.5,-110.18C190.5,-98.44 190.5,-84.27 190.5,-75.32"/>
<polygon fill="#9a32cd" stroke="#9a32cd" points="187,-110.09 190.5,-120.09 194,-110.09 187,-110.09"/>
<text text-anchor="middle" x="207.5" y="-96" font-family="Helvetica,sans-Serif" font-size="10.00"> _region</text>
</g>
</g>
</svg>
