<?xml version="1.0" encoding="UTF-8" standalone="no"?>
<!DOCTYPE svg PUBLIC "-//W3C//DTD SVG 1.1//EN"
 "http://www.w3.org/Graphics/SVG/1.1/DTD/svg11.dtd">
<!-- Generated by graphviz version 7.0.5 (20221223.1930)
 -->
<!-- Title: UioGpioStatus Pages: 1 -->
<!--zoomable 86 -->
<svg id="main" version="1.1" xmlns="http://www.w3.org/2000/svg" xmlns:xlink="http://www.w3.org/1999/xlink" xml:space="preserve" onload="init(evt)">
<style type="text/css"><![CDATA[
.edge:hover path { stroke: red; }
.edge:hover polygon { stroke: red; fill: red; }
]]></style>
<script type="text/javascript"><![CDATA[
var edges = document.getElementsByTagName('g');
if (edges && edges.length) {
  for (var i=0;i<edges.length;i++) {
    if (edges[i].id.substr(0,4)=='edge') {
      edges[i].setAttribute('class','edge');
    }
  }
}
]]></script>
        <defs>
                <circle id="rim" cx="0" cy="0" r="7"/>
                <circle id="rim2" cx="0" cy="0" r="3.5"/>
                <g id="zoomPlus">
                        <use xlink:href="#rim" fill="#404040">
                                <set attributeName="fill" to="#808080" begin="zoomplus.mouseover" end="zoomplus.mouseout"/>
                        </use>
                        <path d="M-4,0h8M0,-4v8" fill="none" stroke="white" stroke-width="1.5" pointer-events="none"/>
                </g>
                <g id="zoomMin">
                        <use xlink:href="#rim" fill="#404040">
                                <set attributeName="fill" to="#808080" begin="zoomminus.mouseover" end="zoomminus.mouseout"/>
                        </use>
                        <path d="M-4,0h8" fill="none" stroke="white" stroke-width="1.5" pointer-events="none"/>
                </g>
                <g id="dirArrow">
                        <path fill="none" stroke="white" stroke-width="1.5" d="M0,-3.0v7 M-2.5,-0.5L0,-3.0L2.5,-0.5"/>
                </g>
               <g id="resetDef">
                       <use xlink:href="#rim2" fill="#404040">
                               <set attributeName="fill" to="#808080" begin="reset.mouseover" end="reset.mouseout"/>
                       </use>
               </g>
        </defs>

<script type="text/javascript">
var viewWidth = 793;
var viewHeight = 86;
var sectionId = 'dynsection-1';
</script>
<script xlink:href="svgpan.js"/>
<svg id="graph" class="graph">
<g id="viewport">
<title>UioGpioStatus</title>
<!-- Node1 -->
<g id="node1" class="node">
<title>Node1</title>
<g id="a_node1"><a xlink:title="Interface to GPIO status port of the demo application.">
<polygon fill="#999999" stroke="#666666" points="785,-55 705,-55 705,-36 785,-36 785,-55"/>
<text text-anchor="middle" x="745" y="-43" font-family="Helvetica,sans-Serif" font-size="10.00">UioGpioStatus</text>
</a>
</g>
</g>
<!-- Node2 -->
<g id="node2" class="node">
<title>Node2</title>
<g id="a_node2"><a xlink:href="classudmaio_1_1_uio_if.html" target="_top" xlink:title="Base class for UIO interfaces.">
<polygon fill="white" stroke="#666666" points="243,-59 169,-59 169,-40 243,-40 243,-59"/>
<text text-anchor="middle" x="206" y="-47" font-family="Helvetica,sans-Serif" font-size="10.00">udmaio::UioIf</text>
</a>
</g>
</g>
<!-- Node2&#45;&gt;Node1 -->
<g id="edge1" class="edge">
<title>Node2&#45;&gt;Node1</title>
<path fill="none" stroke="#8b1a1a" d="M254.7,-55.09C256.83,-55.25 258.94,-55.39 261,-55.5 266.77,-55.82 268.22,-55.52 274,-55.5 457.56,-54.83 503.82,-64.37 687,-52.5 692.77,-52.13 698.85,-51.56 704.81,-50.91"/>
<polygon fill="#8b1a1a" stroke="#8b1a1a" points="255.04,-51.6 244.77,-54.22 254.43,-58.58 255.04,-51.6"/>
</g>
<!-- Node6 -->
<g id="node6" class="node">
<title>Node6</title>
<g id="a_node6"><a xlink:href="classudmaio_1_1_reg_accessor_base.html" target="_top" xlink:title="Base class implementing register access. Only used by subclasses, not used directly.">
<polygon fill="white" stroke="#666666" points="449,-38 292,-38 292,-19 449,-19 449,-38"/>
<text text-anchor="middle" x="370.5" y="-26" font-family="Helvetica,sans-Serif" font-size="10.00">udmaio::RegAccessorBase&lt; C &gt;</text>
</a>
</g>
</g>
<!-- Node2&#45;&gt;Node6 -->
<g id="edge6" class="edge">
<title>Node2&#45;&gt;Node6</title>
<path fill="none" stroke="#9a32cd" stroke-dasharray="5,2" d="M254.82,-43.32C266.59,-41.8 279.5,-40.13 292.28,-38.48"/>
<polygon fill="#9a32cd" stroke="#9a32cd" points="254.44,-39.84 244.97,-44.59 255.34,-46.78 254.44,-39.84"/>
<text text-anchor="middle" x="267.5" y="-45.5" font-family="Helvetica,sans-Serif" font-size="10.00"> _if</text>
</g>
<!-- Node3 -->
<g id="node3" class="node">
<title>Node3</title>
<g id="a_node3"><a xlink:title=" ">
<polygon fill="white" stroke="#666666" points="99,-78 0,-78 0,-59 99,-59 99,-78"/>
<text text-anchor="middle" x="49.5" y="-66" font-family="Helvetica,sans-Serif" font-size="10.00">boost::noncopyable</text>
</a>
</g>
</g>
<!-- Node3&#45;&gt;Node2 -->
<g id="edge2" class="edge">
<title>Node3&#45;&gt;Node2</title>
<path fill="none" stroke="#8b1a1a" d="M110.7,-61.1C130.28,-58.69 151.4,-56.09 168.68,-53.97"/>
<polygon fill="#8b1a1a" stroke="#8b1a1a" points="110.38,-57.61 100.89,-62.3 111.24,-64.56 110.38,-57.61"/>
</g>
<!-- Node4 -->
<g id="node4" class="node">
<title>Node4</title>
<g id="a_node4"><a xlink:href="structudmaio_1_1_uio_region.html" target="_top" xlink:title="General&#45;purpose struct to define a memory area.">
<polygon fill="white" stroke="#666666" points="98.5,-41 0.5,-41 0.5,-22 98.5,-22 98.5,-41"/>
<text text-anchor="middle" x="49.5" y="-29" font-family="Helvetica,sans-Serif" font-size="10.00">udmaio::UioRegion</text>
</a>
</g>
</g>
<!-- Node4&#45;&gt;Node2 -->
<g id="edge3" class="edge">
<title>Node4&#45;&gt;Node2</title>
<path fill="none" stroke="#9a32cd" stroke-dasharray="5,2" d="M110.38,-38.48C130.16,-40.78 151.55,-43.27 168.97,-45.3"/>
<polygon fill="#9a32cd" stroke="#9a32cd" points="110.8,-35 100.46,-37.32 109.99,-41.95 110.8,-35"/>
<text text-anchor="middle" x="134" y="-46.5" font-family="Helvetica,sans-Serif" font-size="10.00"> _region</text>
</g>
<!-- Node5 -->
<g id="node5" class="node">
<title>Node5</title>
<g id="a_node5"><a xlink:href="classudmaio_1_1_reg_accessor_array_3_01_c_00_01offset_00_010_00_010_01_4.html" target="_top" xlink:title=" ">
<polygon fill="white" stroke="#666666" points="648,-41 486,-41 486,0 648,0 648,-41"/>
<text text-anchor="start" x="494" y="-29" font-family="Helvetica,sans-Serif" font-size="10.00">udmaio::RegAccessorArray</text>
<text text-anchor="start" x="494" y="-18" font-family="Helvetica,sans-Serif" font-size="10.00">&lt; C, offset, 0, 0 &gt;&lt; UioGpioStatus</text>
<text text-anchor="middle" x="567" y="-7" font-family="Helvetica,sans-Serif" font-size="10.00">::GpioData, 0 &gt;</text>
</a>
</g>
</g>
<!-- Node5&#45;&gt;Node1 -->
<g id="edge4" class="edge">
<title>Node5&#45;&gt;Node1</title>
<path fill="none" stroke="#9a32cd" stroke-dasharray="5,2" d="M659.32,-33.47C675.27,-35.74 691.08,-37.98 704.65,-39.91"/>
<polygon fill="#9a32cd" stroke="#9a32cd" points="660.17,-30.06 649.77,-32.12 659.18,-36.99 660.17,-30.06"/>
<text text-anchor="middle" x="676.5" y="-40.5" font-family="Helvetica,sans-Serif" font-size="10.00"> gpio</text>
</g>
<!-- Node6&#45;&gt;Node5 -->
<g id="edge5" class="edge">
<title>Node6&#45;&gt;Node5</title>
<path fill="none" stroke="#63b8ff" d="M460.78,-24.83C469.11,-24.49 477.53,-24.14 485.77,-23.8"/>
<polygon fill="#63b8ff" stroke="#63b8ff" points="460.85,-21.32 451,-25.23 461.14,-28.32 460.85,-21.32"/>
</g>
</g>
</svg>
        <g id="navigator" transform="translate(0 0)" fill="#404254">
                <rect fill="#f2f5e9" fill-opacity="0.5" stroke="#606060" stroke-width=".5" x="0" y="0" width="60" height="60"/>
                <use id="zoomplus" xlink:href="#zoomPlus" x="17" y="9" onmousedown="handleZoom(evt,'in')"/>
                <use id="zoomminus" xlink:href="#zoomMin" x="42" y="9" onmousedown="handleZoom(evt,'out')"/>
                <use id="reset" xlink:href="#resetDef" x="30" y="36" onmousedown="handleReset()"/>
                <g id="arrowUp" xlink:href="#dirArrow" transform="translate(30 24)" onmousedown="handlePan(0,-1)">
                  <use xlink:href="#rim" fill="#404040">
                        <set attributeName="fill" to="#808080" begin="arrowUp.mouseover" end="arrowUp.mouseout"/>
                  </use>
                  <path fill="none" stroke="white" stroke-width="1.5" d="M0,-3.0v7 M-2.5,-0.5L0,-3.0L2.5,-0.5"/>
                </g>
                <g id="arrowRight" xlink:href="#dirArrow" transform="rotate(90) translate(36 -43)" onmousedown="handlePan(1,0)">
                  <use xlink:href="#rim" fill="#404040">
                        <set attributeName="fill" to="#808080" begin="arrowRight.mouseover" end="arrowRight.mouseout"/>
                  </use>
                  <path fill="none" stroke="white" stroke-width="1.5" d="M0,-3.0v7 M-2.5,-0.5L0,-3.0L2.5,-0.5"/>
                </g>
                <g id="arrowDown" xlink:href="#dirArrow" transform="rotate(180) translate(-30 -48)" onmousedown="handlePan(0,1)">
                  <use xlink:href="#rim" fill="#404040">
                        <set attributeName="fill" to="#808080" begin="arrowDown.mouseover" end="arrowDown.mouseout"/>
                  </use>
                  <path fill="none" stroke="white" stroke-width="1.5" d="M0,-3.0v7 M-2.5,-0.5L0,-3.0L2.5,-0.5"/>
                </g>
                <g id="arrowLeft" xlink:href="#dirArrow" transform="rotate(270) translate(-36 17)" onmousedown="handlePan(-1,0)">
                  <use xlink:href="#rim" fill="#404040">
                        <set attributeName="fill" to="#808080" begin="arrowLeft.mouseover" end="arrowLeft.mouseout"/>
                  </use>
                  <path fill="none" stroke="white" stroke-width="1.5" d="M0,-3.0v7 M-2.5,-0.5L0,-3.0L2.5,-0.5"/>
                </g>
        </g>
        <svg viewBox="0 0 15 15" width="100%" height="30px" preserveAspectRatio="xMaxYMin meet">
         <g id="arrow_out" transform="scale(0.3 0.3)">
          <a xlink:href="class_uio_gpio_status__coll__graph_org.svg" target="_base">
           <rect id="button" ry="5" rx="5" y="6" x="6" height="38" width="38"
                fill="#f2f5e9" fill-opacity="0.5" stroke="#606060" stroke-width="1.0"/>
           <path id="arrow"
             d="M 11.500037,31.436501 C 11.940474,20.09759 22.043105,11.32322 32.158766,21.979434 L 37.068811,17.246167 C 37.068811,17.246167 37.088388,32 37.088388,32 L 22.160133,31.978069 C 22.160133,31.978069 26.997745,27.140456 26.997745,27.140456 C 18.528582,18.264221 13.291696,25.230495 11.500037,31.436501 z"
             style="fill:#404040;"/>
          </a>
         </g>
        </svg>
</svg>
