<?xml version="1.0" encoding="UTF-8" standalone="no"?>
<!DOCTYPE svg PUBLIC "-//W3C//DTD SVG 1.1//EN"
 "http://www.w3.org/Graphics/SVG/1.1/DTD/svg11.dtd">
<!-- Generated by graphviz version 7.0.5 (20221223.1930)
 -->
<!-- Title: udmaio::HwAccessorMock Pages: 1 -->
<svg width="283pt" height="149pt"
 viewBox="0.00 0.00 283.00 149.00" xmlns="http://www.w3.org/2000/svg" xmlns:xlink="http://www.w3.org/1999/xlink">
<g id="graph0" class="graph" transform="scale(1 1) rotate(0) translate(4 145)">
<title>udmaio::HwAccessorMock</title>
<!-- Node1 -->
<g id="node1" class="node">
<title>Node1</title>
<g id="a_node1"><a xlink:title=" ">
<polygon fill="#999999" stroke="#666666" points="256,-19 123,-19 123,0 256,0 256,-19"/>
<text text-anchor="middle" x="189.5" y="-7" font-family="Helvetica,sans-Serif" font-size="10.00">udmaio::HwAccessorMock</text>
</a>
</g>
</g>
<!-- Node2 -->
<g id="node2" class="node">
<title>Node2</title>
<g id="a_node2"><a xlink:href="classudmaio_1_1_hw_accessor.html" target="_top" xlink:title="Base class for hardware access.">
<polygon fill="white" stroke="#666666" points="150,-85 41,-85 41,-66 150,-66 150,-85"/>
<text text-anchor="middle" x="95.5" y="-73" font-family="Helvetica,sans-Serif" font-size="10.00">udmaio::HwAccessor</text>
</a>
</g>
</g>
<!-- Node2&#45;&gt;Node1 -->
<g id="edge1" class="edge">
<title>Node2&#45;&gt;Node1</title>
<path fill="none" stroke="#63b8ff" d="M117.92,-59.24C136.22,-46.78 161.44,-29.61 176.54,-19.32"/>
<polygon fill="#63b8ff" stroke="#63b8ff" points="116.12,-56.23 109.82,-64.75 120.06,-62.01 116.12,-56.23"/>
</g>
<!-- Node3 -->
<g id="node3" class="node">
<title>Node3</title>
<g id="a_node3"><a xlink:href="structudmaio_1_1_logger.html" target="_top" xlink:title=" ">
<polygon fill="white" stroke="#666666" points="83,-141 0,-141 0,-122 83,-122 83,-141"/>
<text text-anchor="middle" x="41.5" y="-129" font-family="Helvetica,sans-Serif" font-size="10.00">udmaio::Logger</text>
</a>
</g>
</g>
<!-- Node3&#45;&gt;Node2 -->
<g id="edge2" class="edge">
<title>Node3&#45;&gt;Node2</title>
<path fill="none" stroke="#63b8ff" d="M58.36,-113.64C67.76,-104.24 79.1,-92.9 86.75,-85.25"/>
<polygon fill="#63b8ff" stroke="#63b8ff" points="56.08,-110.97 51.49,-120.51 61.03,-115.92 56.08,-110.97"/>
</g>
<!-- Node4 -->
<g id="node4" class="node">
<title>Node4</title>
<g id="a_node4"><a xlink:title=" ">
<polygon fill="white" stroke="#666666" points="200,-141 101,-141 101,-122 200,-122 200,-141"/>
<text text-anchor="middle" x="150.5" y="-129" font-family="Helvetica,sans-Serif" font-size="10.00">boost::noncopyable</text>
</a>
</g>
</g>
<!-- Node4&#45;&gt;Node2 -->
<g id="edge3" class="edge">
<title>Node4&#45;&gt;Node2</title>
<path fill="none" stroke="#8b1a1a" d="M133.33,-113.64C123.75,-104.24 112.21,-92.9 104.41,-85.25"/>
<polygon fill="#8b1a1a" stroke="#8b1a1a" points="130.75,-116.01 140.34,-120.52 135.65,-111.02 130.75,-116.01"/>
</g>
<!-- Node5 -->
<g id="node5" class="node">
<title>Node5</title>
<g id="a_node5"><a xlink:title=" ">
<polygon fill="white" stroke="#666666" points="275,-85 168,-85 168,-66 275,-66 275,-85"/>
<text text-anchor="middle" x="221.5" y="-73" font-family="Helvetica,sans-Serif" font-size="10.00">std::vector&lt; uint8_t &gt;</text>
</a>
</g>
</g>
<!-- Node5&#45;&gt;Node1 -->
<g id="edge4" class="edge">
<title>Node5&#45;&gt;Node1</title>
<path fill="none" stroke="#9a32cd" stroke-dasharray="5,2" d="M212.08,-55.66C206.08,-43.66 198.58,-28.65 193.91,-19.32"/>
<polygon fill="#9a32cd" stroke="#9a32cd" points="208.77,-56.87 216.37,-64.25 215.03,-53.74 208.77,-56.87"/>
<text text-anchor="middle" x="221.5" y="-40" font-family="Helvetica,sans-Serif" font-size="10.00"> _mem</text>
</g>
</g>
</svg>
