<?xml version="1.0" encoding="UTF-8" standalone="no"?>
<!DOCTYPE svg PUBLIC "-//W3C//DTD SVG 1.1//EN"
 "http://www.w3.org/Graphics/SVG/1.1/DTD/svg11.dtd">
<!-- Generated by graphviz version 7.0.5 (20221223.1930)
 -->
<!-- Title: udmaio::UioAxiDmaIf Pages: 1 -->
<svg width="325pt" height="149pt"
 viewBox="0.00 0.00 324.50 149.00" xmlns="http://www.w3.org/2000/svg" xmlns:xlink="http://www.w3.org/1999/xlink">
<g id="graph0" class="graph" transform="scale(1 1) rotate(0) translate(4 145)">
<title>udmaio::UioAxiDmaIf</title>
<!-- Node1 -->
<g id="node1" class="node">
<title>Node1</title>
<g id="a_node1"><a xlink:title="Interface to AXI DMA Core.">
<polygon fill="#999999" stroke="#666666" points="250,-19 143,-19 143,0 250,0 250,-19"/>
<text text-anchor="middle" x="196.5" y="-7" font-family="Helvetica,sans-Serif" font-size="10.00">udmaio::UioAxiDmaIf</text>
</a>
</g>
</g>
<!-- Node2 -->
<g id="node2" class="node">
<title>Node2</title>
<g id="a_node2"><a xlink:href="classudmaio_1_1_uio_if.html" target="_top" xlink:title="Base class for UIO interfaces.">
<polygon fill="white" stroke="#666666" points="187.5,-75 113.5,-75 113.5,-56 187.5,-56 187.5,-75"/>
<text text-anchor="middle" x="150.5" y="-63" font-family="Helvetica,sans-Serif" font-size="10.00">udmaio::UioIf</text>
</a>
</g>
</g>
<!-- Node2&#45;&gt;Node1 -->
<g id="edge1" class="edge">
<title>Node2&#45;&gt;Node1</title>
<path fill="none" stroke="#63b8ff" d="M165.35,-47.07C173.27,-37.77 182.66,-26.75 189.05,-19.25"/>
<polygon fill="#63b8ff" stroke="#63b8ff" points="162.9,-44.55 159.08,-54.43 168.23,-49.09 162.9,-44.55"/>
</g>
<!-- Node3 -->
<g id="node3" class="node">
<title>Node3</title>
<g id="a_node3"><a xlink:href="structudmaio_1_1_logger.html" target="_top" xlink:title=" ">
<polygon fill="white" stroke="#666666" points="83,-141 0,-141 0,-122 83,-122 83,-141"/>
<text text-anchor="middle" x="41.5" y="-129" font-family="Helvetica,sans-Serif" font-size="10.00">udmaio::Logger</text>
</a>
</g>
</g>
<!-- Node3&#45;&gt;Node2 -->
<g id="edge2" class="edge">
<title>Node3&#45;&gt;Node2</title>
<path fill="none" stroke="#63b8ff" d="M66.32,-115.92C87.63,-103.42 117.63,-85.8 135.47,-75.32"/>
<polygon fill="#63b8ff" stroke="#63b8ff" points="64.81,-112.75 57.96,-120.83 68.36,-118.79 64.81,-112.75"/>
</g>
<!-- Node4 -->
<g id="node4" class="node">
<title>Node4</title>
<g id="a_node4"><a xlink:title=" ">
<polygon fill="white" stroke="#666666" points="200,-141 101,-141 101,-122 200,-122 200,-141"/>
<text text-anchor="middle" x="150.5" y="-129" font-family="Helvetica,sans-Serif" font-size="10.00">boost::noncopyable</text>
</a>
</g>
</g>
<!-- Node4&#45;&gt;Node2 -->
<g id="edge3" class="edge">
<title>Node4&#45;&gt;Node2</title>
<path fill="none" stroke="#8b1a1a" d="M150.5,-110.18C150.5,-98.44 150.5,-84.27 150.5,-75.32"/>
<polygon fill="#8b1a1a" stroke="#8b1a1a" points="147,-110.09 150.5,-120.09 154,-110.09 147,-110.09"/>
</g>
<!-- Node5 -->
<g id="node5" class="node">
<title>Node5</title>
<g id="a_node5"><a xlink:href="structudmaio_1_1_uio_region.html" target="_top" xlink:title="General&#45;purpose struct to define a memory area.">
<polygon fill="white" stroke="#666666" points="316.5,-141 218.5,-141 218.5,-122 316.5,-122 316.5,-141"/>
<text text-anchor="middle" x="267.5" y="-129" font-family="Helvetica,sans-Serif" font-size="10.00">udmaio::UioRegion</text>
</a>
</g>
</g>
<!-- Node5&#45;&gt;Node2 -->
<g id="edge4" class="edge">
<title>Node5&#45;&gt;Node2</title>
<path fill="none" stroke="#9a32cd" stroke-dasharray="5,2" d="M241.17,-116.09C218.28,-103.58 185.86,-85.84 166.63,-75.32"/>
<polygon fill="#9a32cd" stroke="#9a32cd" points="239.45,-119.15 249.9,-120.87 242.81,-113.01 239.45,-119.15"/>
<text text-anchor="middle" x="233.5" y="-96" font-family="Helvetica,sans-Serif" font-size="10.00"> _region</text>
</g>
<!-- Node6 -->
<g id="node6" class="node">
<title>Node6</title>
<g id="a_node6"><a xlink:href="structaxi__dma_1_1block__template.html" target="_top" xlink:title="Template class for the axi_dma block, containing accessors for all its registers.">
<polygon fill="white" stroke="#666666" points="281,-75 206,-75 206,-56 281,-56 281,-75"/>
<text text-anchor="middle" x="243.5" y="-63" font-family="Helvetica,sans-Serif" font-size="10.00">AxiDmaBlock</text>
</a>
</g>
</g>
<!-- Node6&#45;&gt;Node1 -->
<g id="edge5" class="edge">
<title>Node6&#45;&gt;Node1</title>
<path fill="none" stroke="#8b1a1a" d="M228.33,-47.07C220.24,-37.77 210.64,-26.75 204.12,-19.25"/>
<polygon fill="#8b1a1a" stroke="#8b1a1a" points="225.54,-49.2 234.75,-54.44 230.82,-44.6 225.54,-49.2"/>
</g>
</g>
</svg>
