<?xml version="1.0" encoding="UTF-8" standalone="no"?>
<!DOCTYPE svg PUBLIC "-//W3C//DTD SVG 1.1//EN"
 "http://www.w3.org/Graphics/SVG/1.1/DTD/svg11.dtd">
<!-- Generated by graphviz version 7.0.5 (20221223.1930)
 -->
<!-- Title: udmaio::UDmaBuf Pages: 1 -->
<svg width="244pt" height="137pt"
 viewBox="0.00 0.00 244.00 137.00" xmlns="http://www.w3.org/2000/svg" xmlns:xlink="http://www.w3.org/1999/xlink">
<g id="graph0" class="graph" transform="scale(1 1) rotate(0) translate(4 133)">
<title>udmaio::UDmaBuf</title>
<!-- Node1 -->
<g id="node1" class="node">
<title>Node1</title>
<g id="a_node1"><a xlink:title="DMA data buffer accessed over AXI/UIO, implemented w/ udmabuf (see https://github....">
<polygon fill="#999999" stroke="#666666" points="178,-19 83,-19 83,0 178,0 178,-19"/>
<text text-anchor="middle" x="130.5" y="-7" font-family="Helvetica,sans-Serif" font-size="10.00">udmaio::UDmaBuf</text>
</a>
</g>
</g>
<!-- Node2 -->
<g id="node2" class="node">
<title>Node2</title>
<g id="a_node2"><a xlink:href="classudmaio_1_1_dma_buffer_abstract.html" target="_top" xlink:title="Base class for DMA data buffer.">
<polygon fill="white" stroke="#666666" points="135,-74 0,-74 0,-55 135,-55 135,-74"/>
<text text-anchor="middle" x="67.5" y="-62" font-family="Helvetica,sans-Serif" font-size="10.00">udmaio::DmaBufferAbstract</text>
</a>
</g>
</g>
<!-- Node2&#45;&gt;Node1 -->
<g id="edge1" class="edge">
<title>Node2&#45;&gt;Node1</title>
<path fill="none" stroke="#63b8ff" d="M86.68,-47.37C97.62,-38.16 110.91,-26.98 119.97,-19.36"/>
<polygon fill="#63b8ff" stroke="#63b8ff" points="84.74,-44.42 79.35,-53.53 89.25,-49.78 84.74,-44.42"/>
</g>
<!-- Node3 -->
<g id="node3" class="node">
<title>Node3</title>
<g id="a_node3"><a xlink:title=" ">
<polygon fill="white" stroke="#666666" points="117,-129 18,-129 18,-110 117,-110 117,-129"/>
<text text-anchor="middle" x="67.5" y="-117" font-family="Helvetica,sans-Serif" font-size="10.00">boost::noncopyable</text>
</a>
</g>
</g>
<!-- Node3&#45;&gt;Node2 -->
<g id="edge2" class="edge">
<title>Node3&#45;&gt;Node2</title>
<path fill="none" stroke="#8b1a1a" d="M67.5,-98.35C67.5,-90.1 67.5,-80.97 67.5,-74.44"/>
<polygon fill="#8b1a1a" stroke="#8b1a1a" points="64,-98.23 67.5,-108.23 71,-98.23 64,-98.23"/>
</g>
<!-- Node4 -->
<g id="node4" class="node">
<title>Node4</title>
<g id="a_node4"><a xlink:href="structudmaio_1_1_logger.html" target="_top" xlink:title=" ">
<polygon fill="white" stroke="#666666" points="236,-74 153,-74 153,-55 236,-55 236,-74"/>
<text text-anchor="middle" x="194.5" y="-62" font-family="Helvetica,sans-Serif" font-size="10.00">udmaio::Logger</text>
</a>
</g>
</g>
<!-- Node4&#45;&gt;Node1 -->
<g id="edge3" class="edge">
<title>Node4&#45;&gt;Node1</title>
<path fill="none" stroke="#63b8ff" d="M175.02,-47.37C163.9,-38.16 150.4,-26.98 141.2,-19.36"/>
<polygon fill="#63b8ff" stroke="#63b8ff" points="172.54,-49.86 182.48,-53.54 177.01,-44.47 172.54,-49.86"/>
</g>
</g>
</svg>
