<?xml version="1.0" encoding="UTF-8" standalone="no"?>
<!DOCTYPE svg PUBLIC "-//W3C//DTD SVG 1.1//EN"
 "http://www.w3.org/Graphics/SVG/1.1/DTD/svg11.dtd">
<!-- Generated by graphviz version 7.0.5 (20221223.1930)
 -->
<!-- Title: udmaio::DataHandlerSync Pages: 1 -->
<svg width="1161pt" height="239pt"
 viewBox="0.00 0.00 1161.00 238.50" xmlns="http://www.w3.org/2000/svg" xmlns:xlink="http://www.w3.org/1999/xlink">
<g id="graph0" class="graph" transform="scale(1 1) rotate(0) translate(4 234.5)">
<title>udmaio::DataHandlerSync</title>
<!-- Node1 -->
<g id="node1" class="node">
<title>Node1</title>
<g id="a_node1"><a xlink:title="Synchronous data handler with blocking read interface.">
<polygon fill="#999999" stroke="#666666" points="1153,-103 1025,-103 1025,-84 1153,-84 1153,-103"/>
<text text-anchor="middle" x="1089" y="-91" font-family="Helvetica,sans-Serif" font-size="10.00">udmaio::DataHandlerSync</text>
</a>
</g>
</g>
<!-- Node2 -->
<g id="node2" class="node">
<title>Node2</title>
<g id="a_node2"><a xlink:href="classudmaio_1_1_data_handler_abstract.html" target="_top" xlink:title="Base class to implement a DMA data reception handler.">
<polygon fill="white" stroke="#666666" points="955,-145 812,-145 812,-126 955,-126 955,-145"/>
<text text-anchor="middle" x="883.5" y="-133" font-family="Helvetica,sans-Serif" font-size="10.00">udmaio::DataHandlerAbstract</text>
</a>
</g>
</g>
<!-- Node2&#45;&gt;Node1 -->
<g id="edge1" class="edge">
<title>Node2&#45;&gt;Node1</title>
<path fill="none" stroke="#63b8ff" d="M943.67,-123.29C974.2,-116.99 1010.98,-109.4 1039.77,-103.45"/>
<polygon fill="#63b8ff" stroke="#63b8ff" points="943.3,-119.79 934.21,-125.24 944.71,-126.65 943.3,-119.79"/>
</g>
<!-- Node3 -->
<g id="node3" class="node">
<title>Node3</title>
<g id="a_node3"><a xlink:title=" ">
<polygon fill="white" stroke="#666666" points="99,-183 0,-183 0,-164 99,-164 99,-183"/>
<text text-anchor="middle" x="49.5" y="-171" font-family="Helvetica,sans-Serif" font-size="10.00">boost::noncopyable</text>
</a>
</g>
</g>
<!-- Node3&#45;&gt;Node2 -->
<g id="edge2" class="edge">
<title>Node3&#45;&gt;Node2</title>
<path fill="none" stroke="#8b1a1a" d="M110.58,-173.5C141.99,-173.5 181.07,-173.5 216,-173.5 216,-173.5 216,-173.5 683,-173.5 742.94,-173.5 811.25,-156.74 850.38,-145.48"/>
<polygon fill="#8b1a1a" stroke="#8b1a1a" points="110.89,-170 100.89,-173.5 110.89,-177 110.89,-170"/>
</g>
<!-- Node6 -->
<g id="node6" class="node">
<title>Node6</title>
<g id="a_node6"><a xlink:href="classudmaio_1_1_uio_if_base.html" target="_top" xlink:title="Base class for UIO interfaces.">
<polygon fill="white" stroke="#666666" points="265,-140 169,-140 169,-121 265,-121 265,-140"/>
<text text-anchor="middle" x="217" y="-128" font-family="Helvetica,sans-Serif" font-size="10.00">udmaio::UioIfBase</text>
</a>
</g>
</g>
<!-- Node3&#45;&gt;Node6 -->
<g id="edge6" class="edge">
<title>Node3&#45;&gt;Node6</title>
<path fill="none" stroke="#8b1a1a" d="M99.92,-160.66C124.76,-154.2 154.42,-146.5 177.54,-140.49"/>
<polygon fill="#8b1a1a" stroke="#8b1a1a" points="99.15,-157.24 90.35,-163.15 100.91,-164.02 99.15,-157.24"/>
</g>
<!-- Node10 -->
<g id="node10" class="node">
<title>Node10</title>
<g id="a_node10"><a xlink:href="classudmaio_1_1_dma_buffer_abstract.html" target="_top" xlink:title="Base class for DMA data buffer.">
<polygon fill="white" stroke="#666666" points="418,-221 283,-221 283,-202 418,-202 418,-221"/>
<text text-anchor="middle" x="350.5" y="-209" font-family="Helvetica,sans-Serif" font-size="10.00">udmaio::DmaBufferAbstract</text>
</a>
</g>
</g>
<!-- Node3&#45;&gt;Node10 -->
<g id="edge12" class="edge">
<title>Node3&#45;&gt;Node10</title>
<path fill="none" stroke="#8b1a1a" d="M105.94,-185.62C109.67,-186.3 113.39,-186.93 117,-187.5 172.53,-196.19 236.02,-202.5 282.61,-206.46"/>
<polygon fill="#8b1a1a" stroke="#8b1a1a" points="106.7,-182.21 96.22,-183.77 105.39,-189.08 106.7,-182.21"/>
</g>
<!-- Node4 -->
<g id="node4" class="node">
<title>Node4</title>
<g id="a_node4"><a xlink:href="classudmaio_1_1_uio_axi_dma_if.html" target="_top" xlink:title="Interface to AXI DMA Core.">
<polygon fill="white" stroke="#666666" points="735.5,-108 628.5,-108 628.5,-89 735.5,-89 735.5,-108"/>
<text text-anchor="middle" x="682" y="-96" font-family="Helvetica,sans-Serif" font-size="10.00">udmaio::UioAxiDmaIf</text>
</a>
</g>
</g>
<!-- Node4&#45;&gt;Node2 -->
<g id="edge3" class="edge">
<title>Node4&#45;&gt;Node2</title>
<path fill="none" stroke="#9a32cd" stroke-dasharray="5,2" d="M746.96,-110.36C773.29,-115.24 803.44,-120.84 828.62,-125.51"/>
<polygon fill="#9a32cd" stroke="#9a32cd" points="747.9,-106.98 737.43,-108.59 746.62,-113.86 747.9,-106.98"/>
<text text-anchor="middle" x="777" y="-120.5" font-family="Helvetica,sans-Serif" font-size="10.00"> _dma</text>
</g>
<!-- Node5 -->
<g id="node5" class="node">
<title>Node5</title>
<g id="a_node5"><a xlink:href="classudmaio_1_1_uio_if.html" target="_top" xlink:title="UIO Interface implementing bus access.">
<polygon fill="white" stroke="#666666" points="513.5,-140 465.5,-140 465.5,-121 513.5,-121 513.5,-140"/>
<text text-anchor="middle" x="489.5" y="-128" font-family="Helvetica,sans-Serif" font-size="10.00">UioIf32</text>
</a>
</g>
</g>
<!-- Node5&#45;&gt;Node4 -->
<g id="edge4" class="edge">
<title>Node5&#45;&gt;Node4</title>
<path fill="none" stroke="#63b8ff" d="M524.98,-124.71C553.78,-119.87 595.3,-112.9 628.27,-107.36"/>
<polygon fill="#63b8ff" stroke="#63b8ff" points="524.63,-121.22 515.35,-126.33 525.79,-128.12 524.63,-121.22"/>
</g>
<!-- Node9 -->
<g id="node9" class="node">
<title>Node9</title>
<g id="a_node9"><a xlink:href="classudmaio_1_1_uio_mem_sgdma.html" target="_top" xlink:title="Interface to AXI DMA scatter&#45;gather buffers &amp; descriptors Uses a UioIf to access DMA descriptor memor...">
<polygon fill="white" stroke="#666666" points="742,-145 622,-145 622,-126 742,-126 742,-145"/>
<text text-anchor="middle" x="682" y="-133" font-family="Helvetica,sans-Serif" font-size="10.00">udmaio::UioMemSgdma</text>
</a>
</g>
</g>
<!-- Node5&#45;&gt;Node9 -->
<g id="edge10" class="edge">
<title>Node5&#45;&gt;Node9</title>
<path fill="none" stroke="#63b8ff" d="M525.04,-131.41C551.99,-132.11 590.07,-133.11 621.85,-133.95"/>
<polygon fill="#63b8ff" stroke="#63b8ff" points="525.46,-127.92 515.37,-131.15 525.28,-134.91 525.46,-127.92"/>
</g>
<!-- Node6&#45;&gt;Node5 -->
<g id="edge5" class="edge">
<title>Node6&#45;&gt;Node5</title>
<path fill="none" stroke="#63b8ff" d="M276.82,-130.5C335.84,-130.5 423.77,-130.5 465.25,-130.5"/>
<polygon fill="#63b8ff" stroke="#63b8ff" points="276.94,-127 266.94,-130.5 276.94,-134 276.94,-127"/>
</g>
<!-- Node7 -->
<g id="node7" class="node">
<title>Node7</title>
<g id="a_node7"><a xlink:href="structudmaio_1_1_uio_region.html" target="_top" xlink:title="General&#45;purpose struct to define a memory area.">
<polygon fill="white" stroke="#666666" points="98.5,-132 0.5,-132 0.5,-113 98.5,-113 98.5,-132"/>
<text text-anchor="middle" x="49.5" y="-120" font-family="Helvetica,sans-Serif" font-size="10.00">udmaio::UioRegion</text>
</a>
</g>
</g>
<!-- Node7&#45;&gt;Node6 -->
<g id="edge7" class="edge">
<title>Node7&#45;&gt;Node6</title>
<path fill="none" stroke="#9a32cd" stroke-dasharray="5,2" d="M109.96,-122.13C123.46,-122.32 137.73,-122.72 151,-123.5 156.78,-123.84 162.83,-124.32 168.83,-124.88"/>
<polygon fill="#9a32cd" stroke="#9a32cd" points="110.39,-118.64 100.35,-122.04 110.32,-125.64 110.39,-118.64"/>
<text text-anchor="middle" x="134" y="-126.5" font-family="Helvetica,sans-Serif" font-size="10.00"> _region</text>
</g>
<!-- Node8 -->
<g id="node8" class="node">
<title>Node8</title>
<g id="a_node8"><a xlink:href="structaxi__dma_1_1block__template.html" target="_top" xlink:title="Template class for the axi_dma block, containing accessors for all its registers.">
<polygon fill="white" stroke="#666666" points="527,-97 452,-97 452,-78 527,-78 527,-97"/>
<text text-anchor="middle" x="489.5" y="-85" font-family="Helvetica,sans-Serif" font-size="10.00">AxiDmaBlock</text>
</a>
</g>
</g>
<!-- Node8&#45;&gt;Node4 -->
<g id="edge8" class="edge">
<title>Node8&#45;&gt;Node4</title>
<path fill="none" stroke="#8b1a1a" d="M538.48,-90.27C565.8,-91.85 600.08,-93.83 628.17,-95.45"/>
<polygon fill="#8b1a1a" stroke="#8b1a1a" points="538.93,-86.79 528.74,-89.71 538.52,-93.78 538.93,-86.79"/>
</g>
<!-- Node9&#45;&gt;Node2 -->
<g id="edge9" class="edge">
<title>Node9&#45;&gt;Node2</title>
<path fill="none" stroke="#9a32cd" stroke-dasharray="5,2" d="M753.82,-135.5C772.64,-135.5 792.98,-135.5 811.8,-135.5"/>
<polygon fill="#9a32cd" stroke="#9a32cd" points="753.83,-132 743.83,-135.5 753.83,-139 753.83,-132"/>
<text text-anchor="middle" x="777" y="-138.5" font-family="Helvetica,sans-Serif" font-size="10.00"> _desc</text>
</g>
<!-- Node10&#45;&gt;Node2 -->
<g id="edge11" class="edge">
<title>Node10&#45;&gt;Node2</title>
<path fill="none" stroke="#9a32cd" stroke-dasharray="5,2" d="M429.88,-218.24C519.85,-223.49 670.86,-224.61 794,-187.5 823.69,-178.55 853.9,-157.75 870.21,-145.33"/>
<polygon fill="#9a32cd" stroke="#9a32cd" points="430.11,-214.75 419.92,-217.62 429.68,-221.74 430.11,-214.75"/>
<text text-anchor="middle" x="582.5" y="-222.5" font-family="Helvetica,sans-Serif" font-size="10.00"> _mem</text>
</g>
<!-- Node11 -->
<g id="node11" class="node">
<title>Node11</title>
<g id="a_node11"><a xlink:href="classudmaio_1_1_concurrent_queue.html" target="_top" xlink:title=" ">
<polygon fill="white" stroke="#666666" points="947.5,-67.5 819.5,-67.5 819.5,-37.5 947.5,-37.5 947.5,-67.5"/>
<text text-anchor="start" x="827.5" y="-55.5" font-family="Helvetica,sans-Serif" font-size="10.00">udmaio::ConcurrentQueue</text>
<text text-anchor="middle" x="883.5" y="-44.5" font-family="Helvetica,sans-Serif" font-size="10.00">&lt; std::vector&lt; uint8_t &gt; &gt;</text>
</a>
</g>
</g>
<!-- Node11&#45;&gt;Node1 -->
<g id="edge13" class="edge">
<title>Node11&#45;&gt;Node1</title>
<path fill="none" stroke="#9a32cd" stroke-dasharray="5,2" d="M958.97,-67.5C985.52,-72.85 1014.75,-78.74 1038.66,-83.56"/>
<polygon fill="#9a32cd" stroke="#9a32cd" points="959.75,-64.09 949.26,-65.55 958.37,-70.95 959.75,-64.09"/>
<text text-anchor="middle" x="990" y="-79.5" font-family="Helvetica,sans-Serif" font-size="10.00"> _queue</text>
</g>
<!-- Node12 -->
<g id="node12" class="node">
<title>Node12</title>
<g id="a_node12"><a xlink:title=" ">
<polygon fill="white" stroke="#666666" points="739,-67.5 625,-67.5 625,-37.5 739,-37.5 739,-67.5"/>
<text text-anchor="start" x="633" y="-55.5" font-family="Helvetica,sans-Serif" font-size="10.00">std::queue&lt; std::vector</text>
<text text-anchor="middle" x="682" y="-44.5" font-family="Helvetica,sans-Serif" font-size="10.00">&lt; uint8_t &gt; &gt;</text>
</a>
</g>
</g>
<!-- Node12&#45;&gt;Node11 -->
<g id="edge14" class="edge">
<title>Node12&#45;&gt;Node11</title>
<path fill="none" stroke="#9a32cd" stroke-dasharray="5,2" d="M750.72,-52.5C772.89,-52.5 797.42,-52.5 819.25,-52.5"/>
<polygon fill="#9a32cd" stroke="#9a32cd" points="750.88,-49 740.88,-52.5 750.88,-56 750.88,-49"/>
<text text-anchor="middle" x="777" y="-55.5" font-family="Helvetica,sans-Serif" font-size="10.00"> _queue</text>
</g>
<!-- Node13 -->
<g id="node13" class="node">
<title>Node13</title>
<g id="a_node13"><a xlink:title=" ">
<polygon fill="white" stroke="#666666" points="543,-60 436,-60 436,-41 543,-41 543,-60"/>
<text text-anchor="middle" x="489.5" y="-48" font-family="Helvetica,sans-Serif" font-size="10.00">std::vector&lt; uint8_t &gt;</text>
</a>
</g>
</g>
<!-- Node13&#45;&gt;Node12 -->
<g id="edge15" class="edge">
<title>Node13&#45;&gt;Node12</title>
<path fill="none" stroke="#9a32cd" stroke-dasharray="5,2" d="M554.58,-51.17C577.32,-51.41 602.72,-51.68 624.75,-51.91"/>
<polygon fill="#9a32cd" stroke="#9a32cd" points="554.86,-47.68 544.83,-51.07 554.79,-54.68 554.86,-47.68"/>
<text text-anchor="middle" x="582.5" y="-54.5" font-family="Helvetica,sans-Serif" font-size="10.00"> elements</text>
</g>
<!-- Node14 -->
<g id="node14" class="node">
<title>Node14</title>
<g id="a_node14"><a xlink:title=" ">
<polygon fill="white" stroke="#666666" points="712.5,-19 651.5,-19 651.5,0 712.5,0 712.5,-19"/>
<text text-anchor="middle" x="682" y="-7" font-family="Helvetica,sans-Serif" font-size="10.00">std::mutex</text>
</a>
</g>
</g>
<!-- Node14&#45;&gt;Node11 -->
<g id="edge16" class="edge">
<title>Node14&#45;&gt;Node11</title>
<path fill="none" stroke="#9a32cd" stroke-dasharray="5,2" d="M724.03,-18.34C751.51,-24.27 788.22,-32.18 819.38,-38.9"/>
<polygon fill="#9a32cd" stroke="#9a32cd" points="724.86,-14.94 714.35,-16.26 723.38,-21.78 724.86,-14.94"/>
<text text-anchor="middle" x="777" y="-35.5" font-family="Helvetica,sans-Serif" font-size="10.00"> _mutex</text>
</g>
</g>
</svg>
