<?xml version="1.0" encoding="UTF-8" standalone="no"?>
<!DOCTYPE svg PUBLIC "-//W3C//DTD SVG 1.1//EN"
 "http://www.w3.org/Graphics/SVG/1.1/DTD/svg11.dtd">
<!-- Generated by graphviz version 7.0.5 (20221223.1930)
 -->
<!-- Title: udmaio::DataHandlerSync Pages: 1 -->
<!--zoomable 273 -->
<svg id="main" version="1.1" xmlns="http://www.w3.org/2000/svg" xmlns:xlink="http://www.w3.org/1999/xlink" xml:space="preserve" onload="init(evt)">
<style type="text/css"><![CDATA[
.edge:hover path { stroke: red; }
.edge:hover polygon { stroke: red; fill: red; }
]]></style>
<script type="text/javascript"><![CDATA[
var edges = document.getElementsByTagName('g');
if (edges && edges.length) {
  for (var i=0;i<edges.length;i++) {
    if (edges[i].id.substr(0,4)=='edge') {
      edges[i].setAttribute('class','edge');
    }
  }
}
]]></script>
        <defs>
                <circle id="rim" cx="0" cy="0" r="7"/>
                <circle id="rim2" cx="0" cy="0" r="3.5"/>
                <g id="zoomPlus">
                        <use xlink:href="#rim" fill="#404040">
                                <set attributeName="fill" to="#808080" begin="zoomplus.mouseover" end="zoomplus.mouseout"/>
                        </use>
                        <path d="M-4,0h8M0,-4v8" fill="none" stroke="white" stroke-width="1.5" pointer-events="none"/>
                </g>
                <g id="zoomMin">
                        <use xlink:href="#rim" fill="#404040">
                                <set attributeName="fill" to="#808080" begin="zoomminus.mouseover" end="zoomminus.mouseout"/>
                        </use>
                        <path d="M-4,0h8" fill="none" stroke="white" stroke-width="1.5" pointer-events="none"/>
                </g>
                <g id="dirArrow">
                        <path fill="none" stroke="white" stroke-width="1.5" d="M0,-3.0v7 M-2.5,-0.5L0,-3.0L2.5,-0.5"/>
                </g>
               <g id="resetDef">
                       <use xlink:href="#rim2" fill="#404040">
                               <set attributeName="fill" to="#808080" begin="reset.mouseover" end="reset.mouseout"/>
                       </use>
               </g>
        </defs>

<script type="text/javascript">
var viewWidth = 986;
var viewHeight = 273;
var sectionId = 'dynsection-1';
</script>
<script xlink:href="svgpan.js"/>
<svg id="graph" class="graph">
<g id="viewport">
<title>udmaio::DataHandlerSync</title>
<!-- Node1 -->
<g id="node1" class="node">
<title>Node1</title>
<g id="a_node1"><a xlink:title="Synchronous data handler with blocking read interface.">
<polygon fill="#999999" stroke="#666666" points="978,-109.5 850,-109.5 850,-90.5 978,-90.5 978,-109.5"/>
<text text-anchor="middle" x="914" y="-97.5" font-family="Helvetica,sans-Serif" font-size="10.00">udmaio::DataHandlerSync</text>
</a>
</g>
</g>
<!-- Node2 -->
<g id="node2" class="node">
<title>Node2</title>
<g id="a_node2"><a xlink:href="classudmaio_1_1_data_handler_abstract.html" target="_top" xlink:title="Base class to implement a DMA data reception handler.">
<polygon fill="white" stroke="#666666" points="780,-169.5 637,-169.5 637,-150.5 780,-150.5 780,-169.5"/>
<text text-anchor="middle" x="708.5" y="-157.5" font-family="Helvetica,sans-Serif" font-size="10.00">udmaio::DataHandlerAbstract</text>
</a>
</g>
</g>
<!-- Node2&#45;&gt;Node1 -->
<g id="edge1" class="edge">
<title>Node2&#45;&gt;Node1</title>
<path fill="none" stroke="#63b8ff" d="M753.79,-146.94C791.55,-135.81 845.01,-120.05 879.35,-109.92"/>
<polygon fill="#63b8ff" stroke="#63b8ff" points="753.16,-143.48 744.56,-149.66 755.14,-150.19 753.16,-143.48"/>
</g>
<!-- Node3 -->
<g id="node3" class="node">
<title>Node3</title>
<g id="a_node3"><a xlink:href="structudmaio_1_1_logger.html" target="_top" xlink:title=" ">
<polygon fill="white" stroke="#666666" points="91,-258.5 8,-258.5 8,-239.5 91,-239.5 91,-258.5"/>
<text text-anchor="middle" x="49.5" y="-246.5" font-family="Helvetica,sans-Serif" font-size="10.00">udmaio::Logger</text>
</a>
</g>
</g>
<!-- Node3&#45;&gt;Node2 -->
<g id="edge2" class="edge">
<title>Node3&#45;&gt;Node2</title>
<path fill="none" stroke="#63b8ff" d="M102.7,-255.2C197.05,-264.78 401.54,-278.09 567,-237 618.56,-224.19 671.39,-187.63 694.9,-169.89"/>
<polygon fill="#63b8ff" stroke="#63b8ff" points="103.3,-251.74 92.99,-254.18 102.57,-258.7 103.3,-251.74"/>
</g>
<!-- Node6 -->
<g id="node6" class="node">
<title>Node6</title>
<g id="a_node6"><a xlink:href="classudmaio_1_1_uio_if.html" target="_top" xlink:title="Base class for UIO interfaces.">
<polygon fill="white" stroke="#666666" points="259.5,-218.5 185.5,-218.5 185.5,-199.5 259.5,-199.5 259.5,-218.5"/>
<text text-anchor="middle" x="222.5" y="-206.5" font-family="Helvetica,sans-Serif" font-size="10.00">udmaio::UioIf</text>
</a>
</g>
</g>
<!-- Node3&#45;&gt;Node6 -->
<g id="edge6" class="edge">
<title>Node3&#45;&gt;Node6</title>
<path fill="none" stroke="#63b8ff" d="M102.56,-236.82C129.29,-230.57 161.2,-223.11 185.23,-217.48"/>
<polygon fill="#63b8ff" stroke="#63b8ff" points="101.87,-233.39 92.93,-239.07 103.47,-240.2 101.87,-233.39"/>
</g>
<!-- Node4 -->
<g id="node4" class="node">
<title>Node4</title>
<g id="a_node4"><a xlink:title=" ">
<polygon fill="white" stroke="#666666" points="99,-143.5 0,-143.5 0,-124.5 99,-124.5 99,-143.5"/>
<text text-anchor="middle" x="49.5" y="-131.5" font-family="Helvetica,sans-Serif" font-size="10.00">boost::noncopyable</text>
</a>
</g>
</g>
<!-- Node4&#45;&gt;Node2 -->
<g id="edge3" class="edge">
<title>Node4&#45;&gt;Node2</title>
<path fill="none" stroke="#8b1a1a" d="M110.4,-130.39C112.63,-130.26 114.84,-130.13 117,-130 255.5,-121.92 290.59,-110.52 429,-120 490.77,-124.23 505.72,-130.2 567,-139 591.41,-142.5 618.19,-146.48 641.76,-150.01"/>
<polygon fill="#8b1a1a" stroke="#8b1a1a" points="110.45,-126.88 100.68,-130.96 110.87,-133.87 110.45,-126.88"/>
</g>
<!-- Node4&#45;&gt;Node6 -->
<g id="edge7" class="edge">
<title>Node4&#45;&gt;Node6</title>
<path fill="none" stroke="#8b1a1a" d="M79.56,-149.17C103.29,-161.26 137.86,-178.23 169,-191 175.86,-193.82 183.35,-196.57 190.46,-199.04"/>
<polygon fill="#8b1a1a" stroke="#8b1a1a" points="81.32,-146.14 70.82,-144.68 78.12,-152.36 81.32,-146.14"/>
</g>
<!-- Node10 -->
<g id="node10" class="node">
<title>Node10</title>
<g id="a_node10"><a xlink:href="classudmaio_1_1_dma_buffer_abstract.html" target="_top" xlink:title="Base class for DMA data buffer.">
<polygon fill="white" stroke="#666666" points="429,-147.5 294,-147.5 294,-128.5 429,-128.5 429,-147.5"/>
<text text-anchor="middle" x="361.5" y="-135.5" font-family="Helvetica,sans-Serif" font-size="10.00">udmaio::DmaBufferAbstract</text>
</a>
</g>
</g>
<!-- Node4&#45;&gt;Node10 -->
<g id="edge13" class="edge">
<title>Node4&#45;&gt;Node10</title>
<path fill="none" stroke="#8b1a1a" d="M110.76,-134.78C163.24,-135.45 239.22,-136.44 293.58,-137.14"/>
<polygon fill="#8b1a1a" stroke="#8b1a1a" points="110.84,-131.28 100.79,-134.65 110.75,-138.28 110.84,-131.28"/>
</g>
<!-- Node5 -->
<g id="node5" class="node">
<title>Node5</title>
<g id="a_node5"><a xlink:href="classudmaio_1_1_uio_axi_dma_if.html" target="_top" xlink:title="Interface to AXI DMA Core.">
<polygon fill="white" stroke="#666666" points="560.5,-190.5 453.5,-190.5 453.5,-171.5 560.5,-171.5 560.5,-190.5"/>
<text text-anchor="middle" x="507" y="-178.5" font-family="Helvetica,sans-Serif" font-size="10.00">udmaio::UioAxiDmaIf</text>
</a>
</g>
</g>
<!-- Node5&#45;&gt;Node2 -->
<g id="edge4" class="edge">
<title>Node5&#45;&gt;Node2</title>
<path fill="none" stroke="#9a32cd" stroke-dasharray="5,2" d="M572.11,-174.25C592.69,-172.08 615.61,-169.67 636.65,-167.46"/>
<polygon fill="#9a32cd" stroke="#9a32cd" points="572.02,-170.74 562.44,-175.27 572.76,-177.7 572.02,-170.74"/>
<text text-anchor="middle" x="602" y="-175" font-family="Helvetica,sans-Serif" font-size="10.00"> _dma</text>
</g>
<!-- Node6&#45;&gt;Node5 -->
<g id="edge5" class="edge">
<title>Node6&#45;&gt;Node5</title>
<path fill="none" stroke="#63b8ff" d="M271.08,-204.28C321.49,-199.29 400.88,-191.42 453.19,-186.23"/>
<polygon fill="#63b8ff" stroke="#63b8ff" points="270.97,-200.78 261.36,-205.25 271.66,-207.74 270.97,-200.78"/>
</g>
<!-- Node9 -->
<g id="node9" class="node">
<title>Node9</title>
<g id="a_node9"><a xlink:href="classudmaio_1_1_uio_mem_sgdma.html" target="_top" xlink:title="Interface to AXI DMA scatter&#45;gather buffers &amp; descriptors Uses a UioIf to access DMA descriptor memor...">
<polygon fill="white" stroke="#666666" points="567,-227.5 447,-227.5 447,-208.5 567,-208.5 567,-227.5"/>
<text text-anchor="middle" x="507" y="-215.5" font-family="Helvetica,sans-Serif" font-size="10.00">udmaio::UioMemSgdma</text>
</a>
</g>
</g>
<!-- Node6&#45;&gt;Node9 -->
<g id="edge11" class="edge">
<title>Node6&#45;&gt;Node9</title>
<path fill="none" stroke="#63b8ff" d="M271.25,-210.52C319.6,-212.06 394.49,-214.45 446.64,-216.11"/>
<polygon fill="#63b8ff" stroke="#63b8ff" points="271.47,-207.03 261.37,-210.21 271.25,-214.02 271.47,-207.03"/>
</g>
<!-- Node7 -->
<g id="node7" class="node">
<title>Node7</title>
<g id="a_node7"><a xlink:href="structudmaio_1_1_uio_region.html" target="_top" xlink:title="General&#45;purpose struct to define a memory area.">
<polygon fill="white" stroke="#666666" points="98.5,-214.5 0.5,-214.5 0.5,-195.5 98.5,-195.5 98.5,-214.5"/>
<text text-anchor="middle" x="49.5" y="-202.5" font-family="Helvetica,sans-Serif" font-size="10.00">udmaio::UioRegion</text>
</a>
</g>
</g>
<!-- Node7&#45;&gt;Node6 -->
<g id="edge8" class="edge">
<title>Node7&#45;&gt;Node6</title>
<path fill="none" stroke="#9a32cd" stroke-dasharray="5,2" d="M109.93,-205.27C123.44,-205.42 137.71,-205.65 151,-206 162.14,-206.29 174.27,-206.76 185.28,-207.23"/>
<polygon fill="#9a32cd" stroke="#9a32cd" points="110.36,-201.78 100.33,-205.18 110.29,-208.77 110.36,-201.78"/>
<text text-anchor="middle" x="134" y="-209" font-family="Helvetica,sans-Serif" font-size="10.00"> _region</text>
</g>
<!-- Node8 -->
<g id="node8" class="node">
<title>Node8</title>
<g id="a_node8"><a xlink:href="structaxi__dma_1_1block__template.html" target="_top" xlink:title="Template class for the axi_dma block, containing accessors for all its registers.">
<polygon fill="white" stroke="#666666" points="260,-181.5 185,-181.5 185,-162.5 260,-162.5 260,-181.5"/>
<text text-anchor="middle" x="222.5" y="-169.5" font-family="Helvetica,sans-Serif" font-size="10.00">AxiDmaBlock</text>
</a>
</g>
</g>
<!-- Node8&#45;&gt;Node5 -->
<g id="edge9" class="edge">
<title>Node8&#45;&gt;Node5</title>
<path fill="none" stroke="#8b1a1a" d="M271.67,-173.53C322.1,-175.14 401.06,-177.66 453.17,-179.32"/>
<polygon fill="#8b1a1a" stroke="#8b1a1a" points="272.05,-170.05 261.94,-173.22 271.83,-177.04 272.05,-170.05"/>
</g>
<!-- Node9&#45;&gt;Node2 -->
<g id="edge10" class="edge">
<title>Node9&#45;&gt;Node2</title>
<path fill="none" stroke="#9a32cd" stroke-dasharray="5,2" d="M555.42,-205.02C575.12,-199.56 598.19,-193.08 619,-187 637.81,-181.5 658.79,-175.11 675.6,-169.93"/>
<polygon fill="#9a32cd" stroke="#9a32cd" points="554.72,-201.59 546.02,-207.62 556.59,-208.33 554.72,-201.59"/>
<text text-anchor="middle" x="602" y="-199" font-family="Helvetica,sans-Serif" font-size="10.00"> _desc</text>
</g>
<!-- Node10&#45;&gt;Node2 -->
<g id="edge12" class="edge">
<title>Node10&#45;&gt;Node2</title>
<path fill="none" stroke="#9a32cd" stroke-dasharray="5,2" d="M440.9,-143C499.75,-146.75 579.66,-151.85 636.6,-155.48"/>
<polygon fill="#9a32cd" stroke="#9a32cd" points="441.14,-139.51 430.94,-142.36 440.7,-146.49 441.14,-139.51"/>
<text text-anchor="middle" x="507" y="-153" font-family="Helvetica,sans-Serif" font-size="10.00"> _mem</text>
</g>
<!-- Node11 -->
<g id="node11" class="node">
<title>Node11</title>
<g id="a_node11"><a xlink:href="classudmaio_1_1_concurrent_queue.html" target="_top" xlink:title=" ">
<polygon fill="white" stroke="#666666" points="772.5,-73 644.5,-73 644.5,-43 772.5,-43 772.5,-73"/>
<text text-anchor="start" x="652.5" y="-61" font-family="Helvetica,sans-Serif" font-size="10.00">udmaio::ConcurrentQueue</text>
<text text-anchor="middle" x="708.5" y="-50" font-family="Helvetica,sans-Serif" font-size="10.00">&lt; std::vector&lt; uint8_t &gt; &gt;</text>
</a>
</g>
</g>
<!-- Node11&#45;&gt;Node1 -->
<g id="edge14" class="edge">
<title>Node11&#45;&gt;Node1</title>
<path fill="none" stroke="#9a32cd" stroke-dasharray="5,2" d="M783.74,-73.32C810.72,-78.89 840.48,-85.03 864.64,-90.02"/>
<polygon fill="#9a32cd" stroke="#9a32cd" points="784.76,-69.96 774.26,-71.36 783.34,-76.81 784.76,-69.96"/>
<text text-anchor="middle" x="815" y="-85" font-family="Helvetica,sans-Serif" font-size="10.00"> _queue</text>
</g>
<!-- Node12 -->
<g id="node12" class="node">
<title>Node12</title>
<g id="a_node12"><a xlink:title=" ">
<polygon fill="white" stroke="#666666" points="564,-30 450,-30 450,0 564,0 564,-30"/>
<text text-anchor="start" x="458" y="-18" font-family="Helvetica,sans-Serif" font-size="10.00">std::queue&lt; std::vector</text>
<text text-anchor="middle" x="507" y="-7" font-family="Helvetica,sans-Serif" font-size="10.00">&lt; uint8_t &gt; &gt;</text>
</a>
</g>
</g>
<!-- Node12&#45;&gt;Node11 -->
<g id="edge15" class="edge">
<title>Node12&#45;&gt;Node11</title>
<path fill="none" stroke="#9a32cd" stroke-dasharray="5,2" d="M575.42,-29.53C597.67,-34.33 622.32,-39.64 644.25,-44.37"/>
<polygon fill="#9a32cd" stroke="#9a32cd" points="576.36,-26.15 565.85,-27.47 574.89,-33 576.36,-26.15"/>
<text text-anchor="middle" x="602" y="-40" font-family="Helvetica,sans-Serif" font-size="10.00"> _queue</text>
</g>
<!-- Node13 -->
<g id="node13" class="node">
<title>Node13</title>
<g id="a_node13"><a xlink:title=" ">
<polygon fill="white" stroke="#666666" points="276,-24.5 169,-24.5 169,-5.5 276,-5.5 276,-24.5"/>
<text text-anchor="middle" x="222.5" y="-12.5" font-family="Helvetica,sans-Serif" font-size="10.00">std::vector&lt; uint8_t &gt;</text>
</a>
</g>
</g>
<!-- Node13&#45;&gt;Node12 -->
<g id="edge16" class="edge">
<title>Node13&#45;&gt;Node12</title>
<path fill="none" stroke="#9a32cd" stroke-dasharray="5,2" d="M287.67,-15C336.43,-15 402.84,-15 449.58,-15"/>
<polygon fill="#9a32cd" stroke="#9a32cd" points="287.82,-11.5 277.82,-15 287.82,-18.5 287.82,-11.5"/>
<text text-anchor="middle" x="361.5" y="-18" font-family="Helvetica,sans-Serif" font-size="10.00"> elements</text>
</g>
<!-- Node14 -->
<g id="node14" class="node">
<title>Node14</title>
<g id="a_node14"><a xlink:title=" ">
<polygon fill="white" stroke="#666666" points="537.5,-67.5 476.5,-67.5 476.5,-48.5 537.5,-48.5 537.5,-67.5"/>
<text text-anchor="middle" x="507" y="-55.5" font-family="Helvetica,sans-Serif" font-size="10.00">std::mutex</text>
</a>
</g>
</g>
<!-- Node14&#45;&gt;Node11 -->
<g id="edge17" class="edge">
<title>Node14&#45;&gt;Node11</title>
<path fill="none" stroke="#9a32cd" stroke-dasharray="5,2" d="M549.03,-58C576.51,-58 613.22,-58 644.38,-58"/>
<polygon fill="#9a32cd" stroke="#9a32cd" points="549.38,-54.5 539.38,-58 549.38,-61.5 549.38,-54.5"/>
<text text-anchor="middle" x="602" y="-61" font-family="Helvetica,sans-Serif" font-size="10.00"> _mutex</text>
</g>
</g>
</svg>
        <g id="navigator" transform="translate(0 0)" fill="#404254">
                <rect fill="#f2f5e9" fill-opacity="0.5" stroke="#606060" stroke-width=".5" x="0" y="0" width="60" height="60"/>
                <use id="zoomplus" xlink:href="#zoomPlus" x="17" y="9" onmousedown="handleZoom(evt,'in')"/>
                <use id="zoomminus" xlink:href="#zoomMin" x="42" y="9" onmousedown="handleZoom(evt,'out')"/>
                <use id="reset" xlink:href="#resetDef" x="30" y="36" onmousedown="handleReset()"/>
                <g id="arrowUp" xlink:href="#dirArrow" transform="translate(30 24)" onmousedown="handlePan(0,-1)">
                  <use xlink:href="#rim" fill="#404040">
                        <set attributeName="fill" to="#808080" begin="arrowUp.mouseover" end="arrowUp.mouseout"/>
                  </use>
                  <path fill="none" stroke="white" stroke-width="1.5" d="M0,-3.0v7 M-2.5,-0.5L0,-3.0L2.5,-0.5"/>
                </g>
                <g id="arrowRight" xlink:href="#dirArrow" transform="rotate(90) translate(36 -43)" onmousedown="handlePan(1,0)">
                  <use xlink:href="#rim" fill="#404040">
                        <set attributeName="fill" to="#808080" begin="arrowRight.mouseover" end="arrowRight.mouseout"/>
                  </use>
                  <path fill="none" stroke="white" stroke-width="1.5" d="M0,-3.0v7 M-2.5,-0.5L0,-3.0L2.5,-0.5"/>
                </g>
                <g id="arrowDown" xlink:href="#dirArrow" transform="rotate(180) translate(-30 -48)" onmousedown="handlePan(0,1)">
                  <use xlink:href="#rim" fill="#404040">
                        <set attributeName="fill" to="#808080" begin="arrowDown.mouseover" end="arrowDown.mouseout"/>
                  </use>
                  <path fill="none" stroke="white" stroke-width="1.5" d="M0,-3.0v7 M-2.5,-0.5L0,-3.0L2.5,-0.5"/>
                </g>
                <g id="arrowLeft" xlink:href="#dirArrow" transform="rotate(270) translate(-36 17)" onmousedown="handlePan(-1,0)">
                  <use xlink:href="#rim" fill="#404040">
                        <set attributeName="fill" to="#808080" begin="arrowLeft.mouseover" end="arrowLeft.mouseout"/>
                  </use>
                  <path fill="none" stroke="white" stroke-width="1.5" d="M0,-3.0v7 M-2.5,-0.5L0,-3.0L2.5,-0.5"/>
                </g>
        </g>
        <svg viewBox="0 0 15 15" width="100%" height="30px" preserveAspectRatio="xMaxYMin meet">
         <g id="arrow_out" transform="scale(0.3 0.3)">
          <a xlink:href="classudmaio_1_1_data_handler_sync__coll__graph_org.svg" target="_base">
           <rect id="button" ry="5" rx="5" y="6" x="6" height="38" width="38"
                fill="#f2f5e9" fill-opacity="0.5" stroke="#606060" stroke-width="1.0"/>
           <path id="arrow"
             d="M 11.500037,31.436501 C 11.940474,20.09759 22.043105,11.32322 32.158766,21.979434 L 37.068811,17.246167 C 37.068811,17.246167 37.088388,32 37.088388,32 L 22.160133,31.978069 C 22.160133,31.978069 26.997745,27.140456 26.997745,27.140456 C 18.528582,18.264221 13.291696,25.230495 11.500037,31.436501 z"
             style="fill:#404040;"/>
          </a>
         </g>
        </svg>
</svg>
