<?xml version="1.0" encoding="UTF-8" standalone="no"?>
<!DOCTYPE svg PUBLIC "-//W3C//DTD SVG 1.1//EN"
 "http://www.w3.org/Graphics/SVG/1.1/DTD/svg11.dtd">
<!-- Generated by graphviz version 7.0.5 (20221223.1930)
 -->
<!-- Title: udmaio::UioConfigBase Pages: 1 -->
<svg width="256pt" height="82pt"
 viewBox="0.00 0.00 256.00 82.00" xmlns="http://www.w3.org/2000/svg" xmlns:xlink="http://www.w3.org/1999/xlink">
<g id="graph0" class="graph" transform="scale(1 1) rotate(0) translate(4 78)">
<title>udmaio::UioConfigBase</title>
<!-- Node1 -->
<g id="node1" class="node">
<title>Node1</title>
<g id="a_node1"><a xlink:title="Base class for UioDeviceInfo configuration.">
<polygon fill="#999999" stroke="#666666" points="179.5,-74 62.5,-74 62.5,-55 179.5,-55 179.5,-74"/>
<text text-anchor="middle" x="121" y="-62" font-family="Helvetica,sans-Serif" font-size="10.00">udmaio::UioConfigBase</text>
</a>
</g>
</g>
<!-- Node2 -->
<g id="node2" class="node">
<title>Node2</title>
<g id="a_node2"><a xlink:href="classudmaio_1_1_uio_config_uio.html" target="_top" xlink:title="Creates UioDeviceInfo from UioDeviceLocation (UIO version)">
<polygon fill="white" stroke="#666666" points="110,-19 0,-19 0,0 110,0 110,-19"/>
<text text-anchor="middle" x="55" y="-7" font-family="Helvetica,sans-Serif" font-size="10.00">udmaio::UioConfigUio</text>
</a>
</g>
</g>
<!-- Node1&#45;&gt;Node2 -->
<g id="edge1" class="edge">
<title>Node1&#45;&gt;Node2</title>
<path fill="none" stroke="#63b8ff" d="M100.91,-47.37C89.45,-38.16 75.52,-26.98 66.03,-19.36"/>
<polygon fill="#63b8ff" stroke="#63b8ff" points="98.64,-50.03 108.62,-53.56 103.02,-44.57 98.64,-50.03"/>
</g>
<!-- Node3 -->
<g id="node3" class="node">
<title>Node3</title>
<g id="a_node3"><a xlink:href="classudmaio_1_1_uio_config_xdma.html" target="_top" xlink:title="Creates UioDeviceInfo from UioDeviceLocation (XDMA version)">
<polygon fill="white" stroke="#666666" points="248,-19 128,-19 128,0 248,0 248,-19"/>
<text text-anchor="middle" x="188" y="-7" font-family="Helvetica,sans-Serif" font-size="10.00">udmaio::UioConfigXdma</text>
</a>
</g>
</g>
<!-- Node1&#45;&gt;Node3 -->
<g id="edge2" class="edge">
<title>Node1&#45;&gt;Node3</title>
<path fill="none" stroke="#63b8ff" d="M141.05,-47.64C152.75,-38.39 167.07,-27.05 176.8,-19.36"/>
<polygon fill="#63b8ff" stroke="#63b8ff" points="139.22,-44.62 133.55,-53.57 143.57,-50.11 139.22,-44.62"/>
</g>
</g>
</svg>
