<?xml version="1.0" encoding="UTF-8" standalone="no"?>
<!DOCTYPE svg PUBLIC "-//W3C//DTD SVG 1.1//EN"
 "http://www.w3.org/Graphics/SVG/1.1/DTD/svg11.dtd">
<!-- Generated by graphviz version 7.0.5 (20221223.1930)
 -->
<!-- Title: udmaio::UioIf Pages: 1 -->
<svg width="409pt" height="175pt"
 viewBox="0.00 0.00 409.00 175.00" xmlns="http://www.w3.org/2000/svg" xmlns:xlink="http://www.w3.org/1999/xlink">
<g id="graph0" class="graph" transform="scale(1 1) rotate(0) translate(4 171)">
<title>udmaio::UioIf</title>
<!-- Node1 -->
<g id="node1" class="node">
<title>Node1</title>
<g id="a_node1"><a xlink:title="Base class for UIO interfaces.">
<polygon fill="#999999" stroke="#666666" points="209,-93 135,-93 135,-74 209,-74 209,-93"/>
<text text-anchor="middle" x="172" y="-81" font-family="Helvetica,sans-Serif" font-size="10.00">udmaio::UioIf</text>
</a>
</g>
</g>
<!-- Node3 -->
<g id="node3" class="node">
<title>Node3</title>
<g id="a_node3"><a xlink:href="class_uio_gpio_status.html" target="_top" xlink:title="Interface to GPIO status port of the demo application.">
<polygon fill="white" stroke="#666666" points="363,-167 283,-167 283,-148 363,-148 363,-167"/>
<text text-anchor="middle" x="323" y="-155" font-family="Helvetica,sans-Serif" font-size="10.00">UioGpioStatus</text>
</a>
</g>
</g>
<!-- Node1&#45;&gt;Node3 -->
<g id="edge2" class="edge">
<title>Node1&#45;&gt;Node3</title>
<path fill="none" stroke="#63b8ff" d="M190.83,-100.97C204.57,-113.48 224.6,-129.76 245,-139.5 256.65,-145.06 270.12,-148.96 282.51,-151.68"/>
<polygon fill="#63b8ff" stroke="#63b8ff" points="193.56,-98.73 183.88,-94.44 188.77,-103.84 193.56,-98.73"/>
</g>
<!-- Node4 -->
<g id="node4" class="node">
<title>Node4</title>
<g id="a_node4"><a xlink:href="class_uio_traffic_gen.html" target="_top" xlink:title="Interface to LFSR core of the demo application.">
<polygon fill="white" stroke="#666666" points="361,-130 285,-130 285,-111 361,-111 361,-130"/>
<text text-anchor="middle" x="323" y="-118" font-family="Helvetica,sans-Serif" font-size="10.00">UioTrafficGen</text>
</a>
</g>
</g>
<!-- Node1&#45;&gt;Node4 -->
<g id="edge3" class="edge">
<title>Node1&#45;&gt;Node4</title>
<path fill="none" stroke="#63b8ff" d="M220.23,-96.17C228.47,-98.32 236.98,-100.5 245,-102.5 257.92,-105.71 272.11,-109.08 284.74,-112.01"/>
<polygon fill="#63b8ff" stroke="#63b8ff" points="221.23,-92.81 210.67,-93.65 219.45,-99.58 221.23,-92.81"/>
</g>
<!-- Node5 -->
<g id="node5" class="node">
<title>Node5</title>
<g id="a_node5"><a xlink:href="classudmaio_1_1_fpga_mem_buffer_over_axi.html" target="_top" xlink:title="DMA data buffer accessed over AXI/UIO, described w/ explicit address &amp; size.">
<polygon fill="white" stroke="#666666" points="401,-93 245,-93 245,-74 401,-74 401,-93"/>
<text text-anchor="middle" x="323" y="-81" font-family="Helvetica,sans-Serif" font-size="10.00">udmaio::FpgaMemBufferOverAxi</text>
</a>
</g>
</g>
<!-- Node1&#45;&gt;Node5 -->
<g id="edge4" class="edge">
<title>Node1&#45;&gt;Node5</title>
<path fill="none" stroke="#63b8ff" d="M220.74,-83.5C228.44,-83.5 236.58,-83.5 244.76,-83.5"/>
<polygon fill="#63b8ff" stroke="#63b8ff" points="220.96,-80 210.96,-83.5 220.96,-87 220.96,-80"/>
</g>
<!-- Node6 -->
<g id="node6" class="node">
<title>Node6</title>
<g id="a_node6"><a xlink:href="classudmaio_1_1_uio_axi_dma_if.html" target="_top" xlink:title="Interface to AXI DMA Core.">
<polygon fill="white" stroke="#666666" points="376.5,-56 269.5,-56 269.5,-37 376.5,-37 376.5,-56"/>
<text text-anchor="middle" x="323" y="-44" font-family="Helvetica,sans-Serif" font-size="10.00">udmaio::UioAxiDmaIf</text>
</a>
</g>
</g>
<!-- Node1&#45;&gt;Node6 -->
<g id="edge5" class="edge">
<title>Node1&#45;&gt;Node6</title>
<path fill="none" stroke="#63b8ff" d="M220.23,-70.83C228.47,-68.68 236.98,-66.5 245,-64.5 255.79,-61.82 267.46,-59.03 278.38,-56.47"/>
<polygon fill="#63b8ff" stroke="#63b8ff" points="219.45,-67.42 210.67,-73.35 221.23,-74.19 219.45,-67.42"/>
</g>
<!-- Node7 -->
<g id="node7" class="node">
<title>Node7</title>
<g id="a_node7"><a xlink:href="classudmaio_1_1_uio_mem_sgdma.html" target="_top" xlink:title="Interface to AXI DMA scatter&#45;gather buffers &amp; descriptors Uses a UioIf to access DMA descriptor memor...">
<polygon fill="white" stroke="#666666" points="383,-19 263,-19 263,0 383,0 383,-19"/>
<text text-anchor="middle" x="323" y="-7" font-family="Helvetica,sans-Serif" font-size="10.00">udmaio::UioMemSgdma</text>
</a>
</g>
</g>
<!-- Node1&#45;&gt;Node7 -->
<g id="edge6" class="edge">
<title>Node1&#45;&gt;Node7</title>
<path fill="none" stroke="#63b8ff" d="M190.83,-66.03C204.57,-53.52 224.6,-37.24 245,-27.5 251.69,-24.31 258.98,-21.66 266.33,-19.47"/>
<polygon fill="#63b8ff" stroke="#63b8ff" points="188.77,-63.16 183.88,-72.56 193.56,-68.27 188.77,-63.16"/>
</g>
<!-- Node2 -->
<g id="node2" class="node">
<title>Node2</title>
<g id="a_node2"><a xlink:title=" ">
<polygon fill="white" stroke="#666666" points="99,-93 0,-93 0,-74 99,-74 99,-93"/>
<text text-anchor="middle" x="49.5" y="-81" font-family="Helvetica,sans-Serif" font-size="10.00">boost::noncopyable</text>
</a>
</g>
</g>
<!-- Node2&#45;&gt;Node1 -->
<g id="edge1" class="edge">
<title>Node2&#45;&gt;Node1</title>
<path fill="none" stroke="#8b1a1a" d="M110.43,-83.5C118.74,-83.5 127.06,-83.5 134.76,-83.5"/>
<polygon fill="#8b1a1a" stroke="#8b1a1a" points="110.68,-80 100.68,-83.5 110.68,-87 110.68,-80"/>
</g>
</g>
</svg>
