<?xml version="1.0" encoding="UTF-8" standalone="no"?>
<!DOCTYPE svg PUBLIC "-//W3C//DTD SVG 1.1//EN"
 "http://www.w3.org/Graphics/SVG/1.1/DTD/svg11.dtd">
<!-- Generated by graphviz version 7.0.5 (20221223.1930)
 -->
<!-- Title: udmaio::RegAccessorArrayElement&lt; C &gt; Pages: 1 -->
<svg width="221pt" height="359pt"
 viewBox="0.00 0.00 221.00 359.00" xmlns="http://www.w3.org/2000/svg" xmlns:xlink="http://www.w3.org/1999/xlink">
<g id="graph0" class="graph" transform="scale(1 1) rotate(0) translate(4 355)">
<title>udmaio::RegAccessorArrayElement&lt; C &gt;</title>
<!-- Node1 -->
<g id="node1" class="node">
<title>Node1</title>
<g id="a_node1"><a xlink:title="Accessor for register array element. Returned by RegAccessorArray&lt;C&gt;::operator[].">
<polygon fill="#999999" stroke="#666666" points="145.5,-30 11.5,-30 11.5,0 145.5,0 145.5,-30"/>
<text text-anchor="start" x="19.5" y="-18" font-family="Helvetica,sans-Serif" font-size="10.00">udmaio::RegAccessorArray</text>
<text text-anchor="middle" x="78.5" y="-7" font-family="Helvetica,sans-Serif" font-size="10.00">Element&lt; C &gt;</text>
</a>
</g>
</g>
<!-- Node2 -->
<g id="node2" class="node">
<title>Node2</title>
<g id="a_node2"><a xlink:href="classudmaio_1_1_reg_accessor_base.html" target="_top" xlink:title="Base class implementing register access. Only used by subclasses, not used directly.">
<polygon fill="white" stroke="#666666" points="157,-86 0,-86 0,-67 157,-67 157,-86"/>
<text text-anchor="middle" x="78.5" y="-74" font-family="Helvetica,sans-Serif" font-size="10.00">udmaio::RegAccessorBase&lt; C &gt;</text>
</a>
</g>
</g>
<!-- Node2&#45;&gt;Node1 -->
<g id="edge1" class="edge">
<title>Node2&#45;&gt;Node1</title>
<path fill="none" stroke="#63b8ff" d="M78.5,-55.46C78.5,-47.23 78.5,-37.89 78.5,-30.36"/>
<polygon fill="#63b8ff" stroke="#63b8ff" points="75,-55.21 78.5,-65.21 82,-55.21 75,-55.21"/>
</g>
<!-- Node3 -->
<g id="node3" class="node">
<title>Node3</title>
<g id="a_node3"><a xlink:href="classudmaio_1_1_uio_if.html" target="_top" xlink:title="Base class for UIO interfaces.">
<polygon fill="white" stroke="#666666" points="115.5,-152 41.5,-152 41.5,-133 115.5,-133 115.5,-152"/>
<text text-anchor="middle" x="78.5" y="-140" font-family="Helvetica,sans-Serif" font-size="10.00">udmaio::UioIf</text>
</a>
</g>
</g>
<!-- Node3&#45;&gt;Node2 -->
<g id="edge2" class="edge">
<title>Node3&#45;&gt;Node2</title>
<path fill="none" stroke="#9a32cd" stroke-dasharray="5,2" d="M78.5,-121.18C78.5,-109.44 78.5,-95.27 78.5,-86.32"/>
<polygon fill="#9a32cd" stroke="#9a32cd" points="75,-121.09 78.5,-131.09 82,-121.09 75,-121.09"/>
<text text-anchor="middle" x="85" y="-107" font-family="Helvetica,sans-Serif" font-size="10.00"> _if</text>
</g>
<!-- Node4 -->
<g id="node4" class="node">
<title>Node4</title>
<g id="a_node4"><a xlink:title=" ">
<polygon fill="white" stroke="#666666" points="112,-351 13,-351 13,-332 112,-332 112,-351"/>
<text text-anchor="middle" x="62.5" y="-339" font-family="Helvetica,sans-Serif" font-size="10.00">boost::noncopyable</text>
</a>
</g>
</g>
<!-- Node4&#45;&gt;Node3 -->
<g id="edge3" class="edge">
<title>Node4&#45;&gt;Node3</title>
<path fill="none" stroke="#8b1a1a" d="M64.15,-320.24C67.59,-277.87 75.42,-181.36 77.8,-152.08"/>
<polygon fill="#8b1a1a" stroke="#8b1a1a" points="60.67,-319.76 63.35,-330.01 67.65,-320.33 60.67,-319.76"/>
</g>
<!-- Node6 -->
<g id="node6" class="node">
<title>Node6</title>
<g id="a_node6"><a xlink:href="classudmaio_1_1_hw_accessor.html" target="_top" xlink:title="Base class for hardware access.">
<polygon fill="white" stroke="#666666" points="205,-295 96,-295 96,-276 205,-276 205,-295"/>
<text text-anchor="middle" x="150.5" y="-283" font-family="Helvetica,sans-Serif" font-size="10.00">udmaio::HwAccessor</text>
</a>
</g>
</g>
<!-- Node4&#45;&gt;Node6 -->
<g id="edge7" class="edge">
<title>Node4&#45;&gt;Node6</title>
<path fill="none" stroke="#8b1a1a" d="M86.67,-325.67C102.46,-315.98 122.56,-303.64 135.95,-295.43"/>
<polygon fill="#8b1a1a" stroke="#8b1a1a" points="85.01,-322.58 78.32,-330.79 88.68,-328.54 85.01,-322.58"/>
</g>
<!-- Node5 -->
<g id="node5" class="node">
<title>Node5</title>
<g id="a_node5"><a xlink:title=" ">
<polygon fill="white" stroke="#666666" points="210,-229 91,-229 91,-199 210,-199 210,-229"/>
<text text-anchor="start" x="99" y="-217" font-family="Helvetica,sans-Serif" font-size="10.00">std::unique_ptr&lt; udmaio</text>
<text text-anchor="middle" x="150.5" y="-206" font-family="Helvetica,sans-Serif" font-size="10.00">::HwAccessor &gt;</text>
</a>
</g>
</g>
<!-- Node5&#45;&gt;Node3 -->
<g id="edge4" class="edge">
<title>Node5&#45;&gt;Node3</title>
<path fill="none" stroke="#9a32cd" stroke-dasharray="5,2" d="M127.57,-190.86C113.96,-177.73 97.47,-161.81 87.49,-152.18"/>
<polygon fill="#9a32cd" stroke="#9a32cd" points="124.87,-193.12 134.49,-197.55 129.73,-188.09 124.87,-193.12"/>
<text text-anchor="middle" x="128" y="-173" font-family="Helvetica,sans-Serif" font-size="10.00"> _hw</text>
</g>
<!-- Node6&#45;&gt;Node5 -->
<g id="edge5" class="edge">
<title>Node6&#45;&gt;Node5</title>
<path fill="none" stroke="#9a32cd" stroke-dasharray="5,2" d="M150.5,-264.39C150.5,-253.15 150.5,-239.41 150.5,-229.27"/>
<polygon fill="#9a32cd" stroke="#9a32cd" points="147,-264.18 150.5,-274.18 154,-264.18 147,-264.18"/>
<text text-anchor="middle" x="157.5" y="-250" font-family="Helvetica,sans-Serif" font-size="10.00"> ptr</text>
</g>
<!-- Node7 -->
<g id="node7" class="node">
<title>Node7</title>
<g id="a_node7"><a xlink:href="structudmaio_1_1_logger.html" target="_top" xlink:title=" ">
<polygon fill="white" stroke="#666666" points="213,-351 130,-351 130,-332 213,-332 213,-351"/>
<text text-anchor="middle" x="171.5" y="-339" font-family="Helvetica,sans-Serif" font-size="10.00">udmaio::Logger</text>
</a>
</g>
</g>
<!-- Node7&#45;&gt;Node6 -->
<g id="edge6" class="edge">
<title>Node7&#45;&gt;Node6</title>
<path fill="none" stroke="#63b8ff" d="M163.92,-321.01C160.49,-312.19 156.61,-302.2 153.9,-295.25"/>
<polygon fill="#63b8ff" stroke="#63b8ff" points="160.6,-322.12 167.48,-330.17 167.12,-319.58 160.6,-322.12"/>
</g>
</g>
</svg>
