<?xml version="1.0" encoding="UTF-8" standalone="no"?>
<!DOCTYPE svg PUBLIC "-//W3C//DTD SVG 1.1//EN"
 "http://www.w3.org/Graphics/SVG/1.1/DTD/svg11.dtd">
<!-- Generated by graphviz version 7.0.5 (20221223.1930)
 -->
<!-- Title: udmaio::DataHandlerAbstract Pages: 1 -->
<!--zoomable 230 -->
<svg id="main" version="1.1" xmlns="http://www.w3.org/2000/svg" xmlns:xlink="http://www.w3.org/1999/xlink" xml:space="preserve" onload="init(evt)">
<style type="text/css"><![CDATA[
.edge:hover path { stroke: red; }
.edge:hover polygon { stroke: red; fill: red; }
]]></style>
<script type="text/javascript"><![CDATA[
var edges = document.getElementsByTagName('g');
if (edges && edges.length) {
  for (var i=0;i<edges.length;i++) {
    if (edges[i].id.substr(0,4)=='edge') {
      edges[i].setAttribute('class','edge');
    }
  }
}
]]></script>
        <defs>
                <circle id="rim" cx="0" cy="0" r="7"/>
                <circle id="rim2" cx="0" cy="0" r="3.5"/>
                <g id="zoomPlus">
                        <use xlink:href="#rim" fill="#404040">
                                <set attributeName="fill" to="#808080" begin="zoomplus.mouseover" end="zoomplus.mouseout"/>
                        </use>
                        <path d="M-4,0h8M0,-4v8" fill="none" stroke="white" stroke-width="1.5" pointer-events="none"/>
                </g>
                <g id="zoomMin">
                        <use xlink:href="#rim" fill="#404040">
                                <set attributeName="fill" to="#808080" begin="zoomminus.mouseover" end="zoomminus.mouseout"/>
                        </use>
                        <path d="M-4,0h8" fill="none" stroke="white" stroke-width="1.5" pointer-events="none"/>
                </g>
                <g id="dirArrow">
                        <path fill="none" stroke="white" stroke-width="1.5" d="M0,-3.0v7 M-2.5,-0.5L0,-3.0L2.5,-0.5"/>
                </g>
               <g id="resetDef">
                       <use xlink:href="#rim2" fill="#404040">
                               <set attributeName="fill" to="#808080" begin="reset.mouseover" end="reset.mouseout"/>
                       </use>
               </g>
        </defs>

<script type="text/javascript">
var viewWidth = 1176;
var viewHeight = 230;
var sectionId = 'dynsection-1';
</script>
<script xlink:href="svgpan.js"/>
<svg id="graph" class="graph">
<g id="viewport">
<title>udmaio::DataHandlerAbstract</title>
<!-- Node1 -->
<g id="node1" class="node">
<title>Node1</title>
<g id="a_node1"><a xlink:title="Base class to implement a DMA data reception handler.">
<polygon fill="#999999" stroke="#666666" points="1168,-95 1025,-95 1025,-76 1168,-76 1168,-95"/>
<text text-anchor="middle" x="1096.5" y="-83" font-family="Helvetica,sans-Serif" font-size="10.00">udmaio::DataHandlerAbstract</text>
</a>
</g>
</g>
<!-- Node2 -->
<g id="node2" class="node">
<title>Node2</title>
<g id="a_node2"><a xlink:href="structudmaio_1_1_logger.html" target="_top" xlink:title=" ">
<polygon fill="white" stroke="#666666" points="91,-209 8,-209 8,-190 91,-190 91,-209"/>
<text text-anchor="middle" x="49.5" y="-197" font-family="Helvetica,sans-Serif" font-size="10.00">udmaio::Logger</text>
</a>
</g>
</g>
<!-- Node2&#45;&gt;Node1 -->
<g id="edge1" class="edge">
<title>Node2&#45;&gt;Node1</title>
<path fill="none" stroke="#63b8ff" d="M102.44,-210.6C132.42,-216.06 170.92,-221.5 205.5,-221.5 205.5,-221.5 205.5,-221.5 901,-221.5 989.18,-221.5 1065.85,-126.46 1088.63,-95.28"/>
<polygon fill="#63b8ff" stroke="#63b8ff" points="103.36,-207.21 92.88,-208.79 102.06,-214.09 103.36,-207.21"/>
</g>
<!-- Node5 -->
<g id="node5" class="node">
<title>Node5</title>
<g id="a_node5"><a xlink:href="classudmaio_1_1_uio_if.html" target="_top" xlink:title="Base class for UIO interfaces.">
<polygon fill="white" stroke="#666666" points="243.5,-133 169.5,-133 169.5,-114 243.5,-114 243.5,-133"/>
<text text-anchor="middle" x="206.5" y="-121" font-family="Helvetica,sans-Serif" font-size="10.00">udmaio::UioIf</text>
</a>
</g>
</g>
<!-- Node2&#45;&gt;Node5 -->
<g id="edge5" class="edge">
<title>Node2&#45;&gt;Node5</title>
<path fill="none" stroke="#63b8ff" d="M80.95,-184.57C111.8,-169.44 158.66,-146.47 185.23,-133.44"/>
<polygon fill="#63b8ff" stroke="#63b8ff" points="79.56,-181.35 72.12,-188.9 82.64,-187.64 79.56,-181.35"/>
</g>
<!-- Node3 -->
<g id="node3" class="node">
<title>Node3</title>
<g id="a_node3"><a xlink:title=" ">
<polygon fill="white" stroke="#666666" points="99,-57 0,-57 0,-38 99,-38 99,-57"/>
<text text-anchor="middle" x="49.5" y="-45" font-family="Helvetica,sans-Serif" font-size="10.00">boost::noncopyable</text>
</a>
</g>
</g>
<!-- Node3&#45;&gt;Node1 -->
<g id="edge2" class="edge">
<title>Node3&#45;&gt;Node1</title>
<path fill="none" stroke="#8b1a1a" d="M110.85,-47.5C139.52,-47.5 174.28,-47.5 205.5,-47.5 205.5,-47.5 205.5,-47.5 901,-47.5 959.49,-47.5 1026.07,-64.26 1064.2,-75.52"/>
<polygon fill="#8b1a1a" stroke="#8b1a1a" points="110.88,-44 100.88,-47.5 110.88,-51 110.88,-44"/>
</g>
<!-- Node3&#45;&gt;Node5 -->
<g id="edge6" class="edge">
<title>Node3&#45;&gt;Node5</title>
<path fill="none" stroke="#8b1a1a" d="M80.95,-62.43C111.8,-77.56 158.66,-100.53 185.23,-113.56"/>
<polygon fill="#8b1a1a" stroke="#8b1a1a" points="82.64,-59.36 72.12,-58.1 79.56,-65.65 82.64,-59.36"/>
</g>
<!-- Node11 -->
<g id="node11" class="node">
<title>Node11</title>
<g id="a_node11"><a xlink:href="classudmaio_1_1_dma_buffer_abstract.html" target="_top" xlink:title="Base class for DMA data buffer.">
<polygon fill="white" stroke="#666666" points="397,-19 262,-19 262,0 397,0 397,-19"/>
<text text-anchor="middle" x="329.5" y="-7" font-family="Helvetica,sans-Serif" font-size="10.00">udmaio::DmaBufferAbstract</text>
</a>
</g>
</g>
<!-- Node3&#45;&gt;Node11 -->
<g id="edge15" class="edge">
<title>Node3&#45;&gt;Node11</title>
<path fill="none" stroke="#8b1a1a" d="M106.12,-35.39C109.8,-34.71 113.45,-34.07 117,-33.5 165.15,-25.72 219.88,-19.58 261.6,-15.46"/>
<polygon fill="#8b1a1a" stroke="#8b1a1a" points="105.75,-31.89 96.59,-37.22 107.07,-38.77 105.75,-31.89"/>
</g>
<!-- Node4 -->
<g id="node4" class="node">
<title>Node4</title>
<g id="a_node4"><a xlink:href="classudmaio_1_1_uio_axi_dma_if.html" target="_top" xlink:title="Interface to AXI DMA Core.">
<polygon fill="white" stroke="#666666" points="547,-95 440,-95 440,-76 547,-76 547,-95"/>
<text text-anchor="middle" x="493.5" y="-83" font-family="Helvetica,sans-Serif" font-size="10.00">udmaio::UioAxiDmaIf</text>
</a>
</g>
</g>
<!-- Node4&#45;&gt;Node1 -->
<g id="edge3" class="edge">
<title>Node4&#45;&gt;Node1</title>
<path fill="none" stroke="#9a32cd" stroke-dasharray="5,2" d="M558.54,-85.5C671.86,-85.5 906.83,-85.5 1024.76,-85.5"/>
<polygon fill="#9a32cd" stroke="#9a32cd" points="558.82,-82 548.82,-85.5 558.82,-89 558.82,-82"/>
<text text-anchor="middle" x="796.5" y="-88.5" font-family="Helvetica,sans-Serif" font-size="10.00"> _dma</text>
</g>
<!-- Node5&#45;&gt;Node4 -->
<g id="edge4" class="edge">
<title>Node5&#45;&gt;Node4</title>
<path fill="none" stroke="#63b8ff" d="M254.95,-113.68C257.33,-113.26 259.69,-112.87 262,-112.5 322.68,-102.84 392.86,-95.11 439.69,-90.43"/>
<polygon fill="#63b8ff" stroke="#63b8ff" points="254.46,-110.21 245.26,-115.47 255.73,-117.1 254.46,-110.21"/>
</g>
<!-- Node8 -->
<g id="node8" class="node">
<title>Node8</title>
<g id="a_node8"><a xlink:href="classudmaio_1_1_uio_mem_sgdma.html" target="_top" xlink:title="Interface to AXI DMA scatter&#45;gather buffers &amp; descriptors Uses a UioIf to access DMA descriptor memor...">
<polygon fill="white" stroke="#666666" points="960,-133 840,-133 840,-114 960,-114 960,-133"/>
<text text-anchor="middle" x="900" y="-121" font-family="Helvetica,sans-Serif" font-size="10.00">udmaio::UioMemSgdma</text>
</a>
</g>
</g>
<!-- Node5&#45;&gt;Node8 -->
<g id="edge10" class="edge">
<title>Node5&#45;&gt;Node8</title>
<path fill="none" stroke="#63b8ff" d="M254.91,-123.5C377.49,-123.5 704.69,-123.5 839.59,-123.5"/>
<polygon fill="#63b8ff" stroke="#63b8ff" points="255.22,-120 245.22,-123.5 255.22,-127 255.22,-120"/>
</g>
<!-- Node10 -->
<g id="node10" class="node">
<title>Node10</title>
<g id="a_node10"><a xlink:href="classudmaio_1_1_reg_accessor_base.html" target="_top" xlink:title="Base class implementing register access. Only used by subclasses, not used directly.">
<polygon fill="white" stroke="#666666" points="572,-176 415,-176 415,-157 572,-157 572,-176"/>
<text text-anchor="middle" x="493.5" y="-164" font-family="Helvetica,sans-Serif" font-size="10.00">udmaio::RegAccessorBase&lt; C &gt;</text>
</a>
</g>
</g>
<!-- Node5&#45;&gt;Node10 -->
<g id="edge13" class="edge">
<title>Node5&#45;&gt;Node10</title>
<path fill="none" stroke="#9a32cd" stroke-dasharray="5,2" d="M254.93,-135.13C257.32,-135.61 259.68,-136.07 262,-136.5 312.51,-145.78 369.75,-153.25 414.56,-158.41"/>
<polygon fill="#9a32cd" stroke="#9a32cd" points="255.73,-131.72 245.22,-133.02 254.25,-138.56 255.73,-131.72"/>
<text text-anchor="middle" x="329.5" y="-159.5" font-family="Helvetica,sans-Serif" font-size="10.00"> _if</text>
</g>
<!-- Node6 -->
<g id="node6" class="node">
<title>Node6</title>
<g id="a_node6"><a xlink:href="structudmaio_1_1_uio_region.html" target="_top" xlink:title="General&#45;purpose struct to define a memory area.">
<polygon fill="white" stroke="#666666" points="98.5,-133 0.5,-133 0.5,-114 98.5,-114 98.5,-133"/>
<text text-anchor="middle" x="49.5" y="-121" font-family="Helvetica,sans-Serif" font-size="10.00">udmaio::UioRegion</text>
</a>
</g>
</g>
<!-- Node6&#45;&gt;Node5 -->
<g id="edge7" class="edge">
<title>Node6&#45;&gt;Node5</title>
<path fill="none" stroke="#9a32cd" stroke-dasharray="5,2" d="M110.17,-123.5C130.05,-123.5 151.59,-123.5 169.16,-123.5"/>
<polygon fill="#9a32cd" stroke="#9a32cd" points="110.21,-120 100.21,-123.5 110.21,-127 110.21,-120"/>
<text text-anchor="middle" x="134" y="-126.5" font-family="Helvetica,sans-Serif" font-size="10.00"> _region</text>
</g>
<!-- Node7 -->
<g id="node7" class="node">
<title>Node7</title>
<g id="a_node7"><a xlink:href="structaxi__dma_1_1block__template.html" target="_top" xlink:title="Template class for the axi_dma block, containing accessors for all its registers.">
<polygon fill="white" stroke="#666666" points="244,-95 169,-95 169,-76 244,-76 244,-95"/>
<text text-anchor="middle" x="206.5" y="-83" font-family="Helvetica,sans-Serif" font-size="10.00">AxiDmaBlock</text>
</a>
</g>
</g>
<!-- Node7&#45;&gt;Node4 -->
<g id="edge8" class="edge">
<title>Node7&#45;&gt;Node4</title>
<path fill="none" stroke="#8b1a1a" d="M255.83,-85.5C306.82,-85.5 386.94,-85.5 439.6,-85.5"/>
<polygon fill="#8b1a1a" stroke="#8b1a1a" points="255.98,-82 245.98,-85.5 255.98,-89 255.98,-82"/>
</g>
<!-- Node8&#45;&gt;Node1 -->
<g id="edge9" class="edge">
<title>Node8&#45;&gt;Node1</title>
<path fill="none" stroke="#9a32cd" stroke-dasharray="5,2" d="M963.08,-111.37C989.31,-106.25 1019.49,-100.35 1044.4,-95.48"/>
<polygon fill="#9a32cd" stroke="#9a32cd" points="962.73,-107.87 953.59,-113.23 964.07,-114.74 962.73,-107.87"/>
<text text-anchor="middle" x="992.5" y="-111.5" font-family="Helvetica,sans-Serif" font-size="10.00"> _desc</text>
</g>
<!-- Node9 -->
<g id="node9" class="node">
<title>Node9</title>
<g id="a_node9"><a xlink:href="classudmaio_1_1_reg_accessor_array.html" target="_top" xlink:title=" ">
<polygon fill="white" stroke="#666666" points="753,-193 609,-193 609,-152 753,-152 753,-193"/>
<text text-anchor="start" x="617" y="-181" font-family="Helvetica,sans-Serif" font-size="10.00">udmaio::RegAccessorArray</text>
<text text-anchor="start" x="617" y="-170" font-family="Helvetica,sans-Serif" font-size="10.00">&lt; S2mmDesc, 0, 1024, DESC</text>
<text text-anchor="middle" x="681" y="-159" font-family="Helvetica,sans-Serif" font-size="10.00">_ADDR_STEP &gt;</text>
</a>
</g>
</g>
<!-- Node9&#45;&gt;Node8 -->
<g id="edge11" class="edge">
<title>Node9&#45;&gt;Node8</title>
<path fill="none" stroke="#9a32cd" stroke-dasharray="5,2" d="M764.51,-153.87C795.21,-146.94 828.86,-139.34 854.82,-133.48"/>
<polygon fill="#9a32cd" stroke="#9a32cd" points="763.81,-150.44 754.83,-156.05 765.36,-157.27 763.81,-150.44"/>
<text text-anchor="middle" x="796.5" y="-155.5" font-family="Helvetica,sans-Serif" font-size="10.00"> descriptors</text>
</g>
<!-- Node10&#45;&gt;Node9 -->
<g id="edge12" class="edge">
<title>Node10&#45;&gt;Node9</title>
<path fill="none" stroke="#63b8ff" d="M583.68,-169.38C592.02,-169.65 600.4,-169.93 608.55,-170.19"/>
<polygon fill="#63b8ff" stroke="#63b8ff" points="583.98,-165.89 573.88,-169.07 583.76,-172.89 583.98,-165.89"/>
</g>
<!-- Node11&#45;&gt;Node1 -->
<g id="edge14" class="edge">
<title>Node11&#45;&gt;Node1</title>
<path fill="none" stroke="#9a32cd" stroke-dasharray="5,2" d="M408.81,-9.04C460.3,-8.78 529.16,-8.5 590,-8.5 590,-8.5 590,-8.5 901,-8.5 949.4,-8.5 962.07,-15.48 1007,-33.5 1035.12,-44.78 1064.92,-64.01 1081.77,-75.66"/>
<polygon fill="#9a32cd" stroke="#9a32cd" points="408.93,-5.54 398.95,-9.09 408.97,-12.54 408.93,-5.54"/>
<text text-anchor="middle" x="681" y="-11.5" font-family="Helvetica,sans-Serif" font-size="10.00"> _mem</text>
</g>
</g>
</svg>
        <g id="navigator" transform="translate(0 0)" fill="#404254">
                <rect fill="#f2f5e9" fill-opacity="0.5" stroke="#606060" stroke-width=".5" x="0" y="0" width="60" height="60"/>
                <use id="zoomplus" xlink:href="#zoomPlus" x="17" y="9" onmousedown="handleZoom(evt,'in')"/>
                <use id="zoomminus" xlink:href="#zoomMin" x="42" y="9" onmousedown="handleZoom(evt,'out')"/>
                <use id="reset" xlink:href="#resetDef" x="30" y="36" onmousedown="handleReset()"/>
                <g id="arrowUp" xlink:href="#dirArrow" transform="translate(30 24)" onmousedown="handlePan(0,-1)">
                  <use xlink:href="#rim" fill="#404040">
                        <set attributeName="fill" to="#808080" begin="arrowUp.mouseover" end="arrowUp.mouseout"/>
                  </use>
                  <path fill="none" stroke="white" stroke-width="1.5" d="M0,-3.0v7 M-2.5,-0.5L0,-3.0L2.5,-0.5"/>
                </g>
                <g id="arrowRight" xlink:href="#dirArrow" transform="rotate(90) translate(36 -43)" onmousedown="handlePan(1,0)">
                  <use xlink:href="#rim" fill="#404040">
                        <set attributeName="fill" to="#808080" begin="arrowRight.mouseover" end="arrowRight.mouseout"/>
                  </use>
                  <path fill="none" stroke="white" stroke-width="1.5" d="M0,-3.0v7 M-2.5,-0.5L0,-3.0L2.5,-0.5"/>
                </g>
                <g id="arrowDown" xlink:href="#dirArrow" transform="rotate(180) translate(-30 -48)" onmousedown="handlePan(0,1)">
                  <use xlink:href="#rim" fill="#404040">
                        <set attributeName="fill" to="#808080" begin="arrowDown.mouseover" end="arrowDown.mouseout"/>
                  </use>
                  <path fill="none" stroke="white" stroke-width="1.5" d="M0,-3.0v7 M-2.5,-0.5L0,-3.0L2.5,-0.5"/>
                </g>
                <g id="arrowLeft" xlink:href="#dirArrow" transform="rotate(270) translate(-36 17)" onmousedown="handlePan(-1,0)">
                  <use xlink:href="#rim" fill="#404040">
                        <set attributeName="fill" to="#808080" begin="arrowLeft.mouseover" end="arrowLeft.mouseout"/>
                  </use>
                  <path fill="none" stroke="white" stroke-width="1.5" d="M0,-3.0v7 M-2.5,-0.5L0,-3.0L2.5,-0.5"/>
                </g>
        </g>
        <svg viewBox="0 0 15 15" width="100%" height="30px" preserveAspectRatio="xMaxYMin meet">
         <g id="arrow_out" transform="scale(0.3 0.3)">
          <a xlink:href="classudmaio_1_1_data_handler_abstract__coll__graph_org.svg" target="_base">
           <rect id="button" ry="5" rx="5" y="6" x="6" height="38" width="38"
                fill="#f2f5e9" fill-opacity="0.5" stroke="#606060" stroke-width="1.0"/>
           <path id="arrow"
             d="M 11.500037,31.436501 C 11.940474,20.09759 22.043105,11.32322 32.158766,21.979434 L 37.068811,17.246167 C 37.068811,17.246167 37.088388,32 37.088388,32 L 22.160133,31.978069 C 22.160133,31.978069 26.997745,27.140456 26.997745,27.140456 C 18.528582,18.264221 13.291696,25.230495 11.500037,31.436501 z"
             style="fill:#404040;"/>
          </a>
         </g>
        </svg>
</svg>
