<?xml version="1.0" encoding="UTF-8" standalone="no"?>
<!DOCTYPE svg PUBLIC "-//W3C//DTD SVG 1.1//EN"
 "http://www.w3.org/Graphics/SVG/1.1/DTD/svg11.dtd">
<!-- Generated by graphviz version 7.0.5 (20221223.1930)
 -->
<!-- Title: DataHandlerPrint Pages: 1 -->
<svg width="1639pt" height="229pt"
 viewBox="0.00 0.00 1639.00 229.00" xmlns="http://www.w3.org/2000/svg" xmlns:xlink="http://www.w3.org/1999/xlink">
<g id="graph0" class="graph" transform="scale(1 1) rotate(0) translate(4 225)">
<title>DataHandlerPrint</title>
<!-- Node1 -->
<g id="node1" class="node">
<title>Node1</title>
<g id="a_node1"><a xlink:title="DataHandler implementation that checks LFSR data and prints status / stats.">
<polygon fill="#999999" stroke="#666666" points="1631,-94.5 1540,-94.5 1540,-75.5 1631,-75.5 1631,-94.5"/>
<text text-anchor="middle" x="1585.5" y="-82.5" font-family="Helvetica,sans-Serif" font-size="10.00">DataHandlerPrint</text>
</a>
</g>
</g>
<!-- Node2 -->
<g id="node2" class="node">
<title>Node2</title>
<g id="a_node2"><a xlink:href="classudmaio_1_1_data_handler_abstract.html" target="_top" xlink:title="Base class to implement a DMA data reception handler.">
<polygon fill="white" stroke="#666666" points="1503,-94.5 1360,-94.5 1360,-75.5 1503,-75.5 1503,-94.5"/>
<text text-anchor="middle" x="1431.5" y="-82.5" font-family="Helvetica,sans-Serif" font-size="10.00">udmaio::DataHandlerAbstract</text>
</a>
</g>
</g>
<!-- Node2&#45;&gt;Node1 -->
<g id="edge1" class="edge">
<title>Node2&#45;&gt;Node1</title>
<path fill="none" stroke="#63b8ff" d="M1514.51,-85C1523.13,-85 1531.65,-85 1539.61,-85"/>
<polygon fill="#63b8ff" stroke="#63b8ff" points="1514.67,-81.5 1504.67,-85 1514.67,-88.5 1514.67,-81.5"/>
</g>
<!-- Node3 -->
<g id="node3" class="node">
<title>Node3</title>
<g id="a_node3"><a xlink:href="structudmaio_1_1_logger.html" target="_top" xlink:title=" ">
<polygon fill="white" stroke="#666666" points="91,-203.5 8,-203.5 8,-184.5 91,-184.5 91,-203.5"/>
<text text-anchor="middle" x="49.5" y="-191.5" font-family="Helvetica,sans-Serif" font-size="10.00">udmaio::Logger</text>
</a>
</g>
</g>
<!-- Node3&#45;&gt;Node2 -->
<g id="edge2" class="edge">
<title>Node3&#45;&gt;Node2</title>
<path fill="none" stroke="#63b8ff" d="M94.1,-206.92C121.28,-213.86 157.13,-221 189.5,-221 189.5,-221 189.5,-221 1236,-221 1324.18,-221 1400.85,-125.96 1423.63,-94.78"/>
<polygon fill="#63b8ff" stroke="#63b8ff" points="95.04,-203.55 84.48,-204.37 93.24,-210.31 95.04,-203.55"/>
</g>
<!-- Node8 -->
<g id="node8" class="node">
<title>Node8</title>
<g id="a_node8"><a xlink:href="classudmaio_1_1_hw_accessor.html" target="_top" xlink:title="Base class for hardware access.">
<polygon fill="white" stroke="#666666" points="245,-132.5 136,-132.5 136,-113.5 245,-113.5 245,-132.5"/>
<text text-anchor="middle" x="190.5" y="-120.5" font-family="Helvetica,sans-Serif" font-size="10.00">udmaio::HwAccessor</text>
</a>
</g>
</g>
<!-- Node3&#45;&gt;Node8 -->
<g id="edge9" class="edge">
<title>Node3&#45;&gt;Node8</title>
<path fill="none" stroke="#63b8ff" d="M79.96,-178.95C107.22,-165.03 146.97,-144.72 170.34,-132.79"/>
<polygon fill="#63b8ff" stroke="#63b8ff" points="78.49,-175.77 71.18,-183.44 81.67,-182.01 78.49,-175.77"/>
</g>
<!-- Node4 -->
<g id="node4" class="node">
<title>Node4</title>
<g id="a_node4"><a xlink:title=" ">
<polygon fill="white" stroke="#666666" points="99,-74.5 0,-74.5 0,-55.5 99,-55.5 99,-74.5"/>
<text text-anchor="middle" x="49.5" y="-62.5" font-family="Helvetica,sans-Serif" font-size="10.00">boost::noncopyable</text>
</a>
</g>
</g>
<!-- Node4&#45;&gt;Node2 -->
<g id="edge3" class="edge">
<title>Node4&#45;&gt;Node2</title>
<path fill="none" stroke="#8b1a1a" d="M71.17,-48.31C97.15,-29.05 143.91,0 189.5,0 189.5,0 189.5,0 1236,0 1310.44,0 1388.5,-52.92 1418.12,-75.25"/>
<polygon fill="#8b1a1a" stroke="#8b1a1a" points="69.28,-45.35 63.47,-54.21 73.54,-50.9 69.28,-45.35"/>
</g>
<!-- Node6 -->
<g id="node6" class="node">
<title>Node6</title>
<g id="a_node6"><a xlink:href="classudmaio_1_1_uio_if.html" target="_top" xlink:title="Base class for UIO interfaces.">
<polygon fill="white" stroke="#666666" points="700.5,-132.5 626.5,-132.5 626.5,-113.5 700.5,-113.5 700.5,-132.5"/>
<text text-anchor="middle" x="663.5" y="-120.5" font-family="Helvetica,sans-Serif" font-size="10.00">udmaio::UioIf</text>
</a>
</g>
</g>
<!-- Node4&#45;&gt;Node6 -->
<g id="edge6" class="edge">
<title>Node4&#45;&gt;Node6</title>
<path fill="none" stroke="#8b1a1a" d="M110.67,-69.55C244.86,-79.72 557.76,-103.49 569,-105 588,-107.55 608.98,-111.49 626.25,-115.03"/>
<polygon fill="#8b1a1a" stroke="#8b1a1a" points="111.15,-66.08 100.91,-68.81 110.62,-73.06 111.15,-66.08"/>
</g>
<!-- Node4&#45;&gt;Node8 -->
<g id="edge10" class="edge">
<title>Node4&#45;&gt;Node8</title>
<path fill="none" stroke="#8b1a1a" d="M78.87,-80.08C90.53,-86.01 104.26,-92.67 117,-98 130.14,-103.5 144.96,-108.77 157.76,-113.04"/>
<polygon fill="#8b1a1a" stroke="#8b1a1a" points="80.67,-77.07 70.18,-75.59 77.46,-83.29 80.67,-77.07"/>
</g>
<!-- Node13 -->
<g id="node13" class="node">
<title>Node13</title>
<g id="a_node13"><a xlink:href="classudmaio_1_1_dma_buffer_abstract.html" target="_top" xlink:title="Base class for DMA data buffer.">
<polygon fill="white" stroke="#666666" points="398,-55.5 263,-55.5 263,-36.5 398,-36.5 398,-55.5"/>
<text text-anchor="middle" x="330.5" y="-43.5" font-family="Helvetica,sans-Serif" font-size="10.00">udmaio::DmaBufferAbstract</text>
</a>
</g>
</g>
<!-- Node4&#45;&gt;Node13 -->
<g id="edge18" class="edge">
<title>Node4&#45;&gt;Node13</title>
<path fill="none" stroke="#8b1a1a" d="M110.7,-60.9C155.38,-57.86 216.32,-53.71 262.54,-50.56"/>
<polygon fill="#8b1a1a" stroke="#8b1a1a" points="110.67,-57.39 100.93,-61.57 111.14,-64.38 110.67,-57.39"/>
</g>
<!-- Node5 -->
<g id="node5" class="node">
<title>Node5</title>
<g id="a_node5"><a xlink:href="classudmaio_1_1_uio_axi_dma_if.html" target="_top" xlink:title="Interface to AXI DMA Core.">
<polygon fill="white" stroke="#666666" points="882,-94.5 775,-94.5 775,-75.5 882,-75.5 882,-94.5"/>
<text text-anchor="middle" x="828.5" y="-82.5" font-family="Helvetica,sans-Serif" font-size="10.00">udmaio::UioAxiDmaIf</text>
</a>
</g>
</g>
<!-- Node5&#45;&gt;Node2 -->
<g id="edge4" class="edge">
<title>Node5&#45;&gt;Node2</title>
<path fill="none" stroke="#9a32cd" stroke-dasharray="5,2" d="M893.54,-85C1006.86,-85 1241.83,-85 1359.76,-85"/>
<polygon fill="#9a32cd" stroke="#9a32cd" points="893.82,-81.5 883.82,-85 893.82,-88.5 893.82,-81.5"/>
<text text-anchor="middle" x="1131.5" y="-88" font-family="Helvetica,sans-Serif" font-size="10.00"> _dma</text>
</g>
<!-- Node6&#45;&gt;Node5 -->
<g id="edge5" class="edge">
<title>Node6&#45;&gt;Node5</title>
<path fill="none" stroke="#63b8ff" d="M711.61,-112.02C734.7,-106.63 762.31,-100.2 784.78,-94.96"/>
<polygon fill="#63b8ff" stroke="#63b8ff" points="711.09,-108.54 702.15,-114.22 712.68,-115.36 711.09,-108.54"/>
</g>
<!-- Node10 -->
<g id="node10" class="node">
<title>Node10</title>
<g id="a_node10"><a xlink:href="classudmaio_1_1_uio_mem_sgdma.html" target="_top" xlink:title="Interface to AXI DMA scatter&#45;gather buffers &amp; descriptors Uses a UioIf to access DMA descriptor memor...">
<polygon fill="white" stroke="#666666" points="1295,-132.5 1175,-132.5 1175,-113.5 1295,-113.5 1295,-132.5"/>
<text text-anchor="middle" x="1235" y="-120.5" font-family="Helvetica,sans-Serif" font-size="10.00">udmaio::UioMemSgdma</text>
</a>
</g>
</g>
<!-- Node6&#45;&gt;Node10 -->
<g id="edge13" class="edge">
<title>Node6&#45;&gt;Node10</title>
<path fill="none" stroke="#63b8ff" d="M712.34,-123C816.1,-123 1061.57,-123 1174.85,-123"/>
<polygon fill="#63b8ff" stroke="#63b8ff" points="712.5,-119.5 702.5,-123 712.5,-126.5 712.5,-119.5"/>
</g>
<!-- Node12 -->
<g id="node12" class="node">
<title>Node12</title>
<g id="a_node12"><a xlink:href="classudmaio_1_1_reg_accessor_base.html" target="_top" xlink:title="Base class implementing register access. Only used by subclasses, not used directly.">
<polygon fill="white" stroke="#666666" points="907,-175.5 750,-175.5 750,-156.5 907,-156.5 907,-175.5"/>
<text text-anchor="middle" x="828.5" y="-163.5" font-family="Helvetica,sans-Serif" font-size="10.00">udmaio::RegAccessorBase&lt; C &gt;</text>
</a>
</g>
</g>
<!-- Node6&#45;&gt;Node12 -->
<g id="edge16" class="edge">
<title>Node6&#45;&gt;Node12</title>
<path fill="none" stroke="#9a32cd" stroke-dasharray="5,2" d="M711.66,-135.44C736.47,-141.99 766.47,-149.9 789.73,-156.04"/>
<polygon fill="#9a32cd" stroke="#9a32cd" points="712.7,-132.1 702.14,-132.93 710.91,-138.86 712.7,-132.1"/>
<text text-anchor="middle" x="725.5" y="-143" font-family="Helvetica,sans-Serif" font-size="10.00"> _if</text>
</g>
<!-- Node7 -->
<g id="node7" class="node">
<title>Node7</title>
<g id="a_node7"><a xlink:title=" ">
<polygon fill="white" stroke="#666666" points="569,-132.5 416,-132.5 416,-113.5 569,-113.5 569,-132.5"/>
<text text-anchor="middle" x="492.5" y="-120.5" font-family="Helvetica,sans-Serif" font-size="10.00">std::shared_ptr&lt; HwAccessor &gt;</text>
</a>
</g>
</g>
<!-- Node7&#45;&gt;Node6 -->
<g id="edge7" class="edge">
<title>Node7&#45;&gt;Node6</title>
<path fill="none" stroke="#9a32cd" stroke-dasharray="5,2" d="M580.32,-123C596.53,-123 612.63,-123 626.22,-123"/>
<polygon fill="#9a32cd" stroke="#9a32cd" points="580.62,-119.5 570.62,-123 580.62,-126.5 580.62,-119.5"/>
<text text-anchor="middle" x="597.5" y="-126" font-family="Helvetica,sans-Serif" font-size="10.00"> _hw</text>
</g>
<!-- Node8&#45;&gt;Node7 -->
<g id="edge8" class="edge">
<title>Node8&#45;&gt;Node7</title>
<path fill="none" stroke="#9a32cd" stroke-dasharray="5,2" d="M256.7,-123C303.48,-123 366.65,-123 415.68,-123"/>
<polygon fill="#9a32cd" stroke="#9a32cd" points="256.99,-119.5 246.99,-123 256.99,-126.5 256.99,-119.5"/>
<text text-anchor="middle" x="330.5" y="-126" font-family="Helvetica,sans-Serif" font-size="10.00"> ptr</text>
</g>
<!-- Node9 -->
<g id="node9" class="node">
<title>Node9</title>
<g id="a_node9"><a xlink:href="structaxi__dma_1_1block__template.html" target="_top" xlink:title="Template class for the axi_dma block, containing accessors for all its registers.">
<polygon fill="white" stroke="#666666" points="701,-93.5 626,-93.5 626,-74.5 701,-74.5 701,-93.5"/>
<text text-anchor="middle" x="663.5" y="-81.5" font-family="Helvetica,sans-Serif" font-size="10.00">AxiDmaBlock</text>
</a>
</g>
</g>
<!-- Node9&#45;&gt;Node5 -->
<g id="edge11" class="edge">
<title>Node9&#45;&gt;Node5</title>
<path fill="none" stroke="#8b1a1a" d="M712.84,-84.3C732.26,-84.42 754.72,-84.55 774.59,-84.68"/>
<polygon fill="#8b1a1a" stroke="#8b1a1a" points="713.02,-80.8 703,-84.24 712.98,-87.8 713.02,-80.8"/>
</g>
<!-- Node10&#45;&gt;Node2 -->
<g id="edge12" class="edge">
<title>Node10&#45;&gt;Node2</title>
<path fill="none" stroke="#9a32cd" stroke-dasharray="5,2" d="M1298.08,-110.87C1324.31,-105.75 1354.49,-99.85 1379.4,-94.98"/>
<polygon fill="#9a32cd" stroke="#9a32cd" points="1297.73,-107.37 1288.59,-112.73 1299.07,-114.24 1297.73,-107.37"/>
<text text-anchor="middle" x="1327.5" y="-110" font-family="Helvetica,sans-Serif" font-size="10.00"> _desc</text>
</g>
<!-- Node11 -->
<g id="node11" class="node">
<title>Node11</title>
<g id="a_node11"><a xlink:href="classudmaio_1_1_reg_accessor_array.html" target="_top" xlink:title=" ">
<polygon fill="white" stroke="#666666" points="1088,-192.5 944,-192.5 944,-151.5 1088,-151.5 1088,-192.5"/>
<text text-anchor="start" x="952" y="-180.5" font-family="Helvetica,sans-Serif" font-size="10.00">udmaio::RegAccessorArray</text>
<text text-anchor="start" x="952" y="-169.5" font-family="Helvetica,sans-Serif" font-size="10.00">&lt; S2mmDesc, 0, 1024, DESC</text>
<text text-anchor="middle" x="1016" y="-158.5" font-family="Helvetica,sans-Serif" font-size="10.00">_ADDR_STEP &gt;</text>
</a>
</g>
</g>
<!-- Node11&#45;&gt;Node10 -->
<g id="edge14" class="edge">
<title>Node11&#45;&gt;Node10</title>
<path fill="none" stroke="#9a32cd" stroke-dasharray="5,2" d="M1099.51,-153.37C1130.21,-146.44 1163.86,-138.84 1189.82,-132.98"/>
<polygon fill="#9a32cd" stroke="#9a32cd" points="1098.81,-149.94 1089.83,-155.55 1100.36,-156.77 1098.81,-149.94"/>
<text text-anchor="middle" x="1131.5" y="-154" font-family="Helvetica,sans-Serif" font-size="10.00"> descriptors</text>
</g>
<!-- Node12&#45;&gt;Node11 -->
<g id="edge15" class="edge">
<title>Node12&#45;&gt;Node11</title>
<path fill="none" stroke="#63b8ff" d="M918.68,-168.88C927.02,-169.15 935.4,-169.43 943.55,-169.69"/>
<polygon fill="#63b8ff" stroke="#63b8ff" points="918.98,-165.39 908.88,-168.57 918.76,-172.39 918.98,-165.39"/>
</g>
<!-- Node13&#45;&gt;Node2 -->
<g id="edge17" class="edge">
<title>Node13&#45;&gt;Node2</title>
<path fill="none" stroke="#9a32cd" stroke-dasharray="5,2" d="M409.79,-46C462.55,-46 533.71,-46 596.5,-46 596.5,-46 596.5,-46 1236,-46 1295.06,-46 1362.28,-63.5 1400.22,-75.06"/>
<polygon fill="#9a32cd" stroke="#9a32cd" points="409.99,-42.5 399.99,-46 409.99,-49.5 409.99,-42.5"/>
<text text-anchor="middle" x="828.5" y="-49" font-family="Helvetica,sans-Serif" font-size="10.00"> _mem</text>
</g>
</g>
</svg>
