<?xml version="1.0" encoding="UTF-8" standalone="no"?>
<!DOCTYPE svg PUBLIC "-//W3C//DTD SVG 1.1//EN"
 "http://www.w3.org/Graphics/SVG/1.1/DTD/svg11.dtd">
<!-- Generated by graphviz version 7.0.5 (20221223.1930)
 -->
<!-- Title: udmaio::DataHandlerSync Pages: 1 -->
<svg width="1714pt" height="337pt"
 viewBox="0.00 0.00 1714.00 337.00" xmlns="http://www.w3.org/2000/svg" xmlns:xlink="http://www.w3.org/1999/xlink">
<g id="graph0" class="graph" transform="scale(1 1) rotate(0) translate(4 333)">
<title>udmaio::DataHandlerSync</title>
<!-- Node1 -->
<g id="node1" class="node">
<title>Node1</title>
<g id="a_node1"><a xlink:title="Synchronous data handler with blocking read interface.">
<polygon fill="#999999" stroke="#666666" points="1706,-116.5 1578,-116.5 1578,-97.5 1706,-97.5 1706,-116.5"/>
<text text-anchor="middle" x="1642" y="-104.5" font-family="Helvetica,sans-Serif" font-size="10.00">udmaio::DataHandlerSync</text>
</a>
</g>
</g>
<!-- Node2 -->
<g id="node2" class="node">
<title>Node2</title>
<g id="a_node2"><a xlink:href="classudmaio_1_1_data_handler_abstract.html" target="_top" xlink:title="Base class to implement a DMA data reception handler.">
<polygon fill="white" stroke="#666666" points="1508,-183.5 1365,-183.5 1365,-164.5 1508,-164.5 1508,-183.5"/>
<text text-anchor="middle" x="1436.5" y="-171.5" font-family="Helvetica,sans-Serif" font-size="10.00">udmaio::DataHandlerAbstract</text>
</a>
</g>
</g>
<!-- Node2&#45;&gt;Node1 -->
<g id="edge1" class="edge">
<title>Node2&#45;&gt;Node1</title>
<path fill="none" stroke="#63b8ff" d="M1478.28,-160.57C1517.44,-147.68 1575.7,-128.5 1610.85,-116.93"/>
<polygon fill="#63b8ff" stroke="#63b8ff" points="1477.37,-157.19 1468.96,-163.64 1479.56,-163.84 1477.37,-157.19"/>
</g>
<!-- Node3 -->
<g id="node3" class="node">
<title>Node3</title>
<g id="a_node3"><a xlink:href="structudmaio_1_1_logger.html" target="_top" xlink:title=" ">
<polygon fill="white" stroke="#666666" points="91,-316.5 8,-316.5 8,-297.5 91,-297.5 91,-316.5"/>
<text text-anchor="middle" x="49.5" y="-304.5" font-family="Helvetica,sans-Serif" font-size="10.00">udmaio::Logger</text>
</a>
</g>
</g>
<!-- Node3&#45;&gt;Node2 -->
<g id="edge2" class="edge">
<title>Node3&#45;&gt;Node2</title>
<path fill="none" stroke="#63b8ff" d="M102.4,-319.17C128.4,-324.25 160.45,-329 189.5,-329 189.5,-329 189.5,-329 1236,-329 1331.18,-329 1408.34,-217.63 1429.65,-183.7"/>
<polygon fill="#63b8ff" stroke="#63b8ff" points="103.27,-315.78 92.77,-317.21 101.87,-322.63 103.27,-315.78"/>
</g>
<!-- Node8 -->
<g id="node8" class="node">
<title>Node8</title>
<g id="a_node8"><a xlink:href="classudmaio_1_1_hw_accessor.html" target="_top" xlink:title="Base class for hardware access.">
<polygon fill="white" stroke="#666666" points="245,-257.5 136,-257.5 136,-238.5 245,-238.5 245,-257.5"/>
<text text-anchor="middle" x="190.5" y="-245.5" font-family="Helvetica,sans-Serif" font-size="10.00">udmaio::HwAccessor</text>
</a>
</g>
</g>
<!-- Node3&#45;&gt;Node8 -->
<g id="edge9" class="edge">
<title>Node3&#45;&gt;Node8</title>
<path fill="none" stroke="#63b8ff" d="M84.05,-292.76C109.45,-281.98 143.68,-267.45 166.16,-257.91"/>
<polygon fill="#63b8ff" stroke="#63b8ff" points="83,-289.4 75.16,-296.53 85.73,-295.85 83,-289.4"/>
</g>
<!-- Node4 -->
<g id="node4" class="node">
<title>Node4</title>
<g id="a_node4"><a xlink:title=" ">
<polygon fill="white" stroke="#666666" points="99,-200.5 0,-200.5 0,-181.5 99,-181.5 99,-200.5"/>
<text text-anchor="middle" x="49.5" y="-188.5" font-family="Helvetica,sans-Serif" font-size="10.00">boost::noncopyable</text>
</a>
</g>
</g>
<!-- Node4&#45;&gt;Node2 -->
<g id="edge3" class="edge">
<title>Node4&#45;&gt;Node2</title>
<path fill="none" stroke="#8b1a1a" d="M64.77,-172.4C87.77,-144.75 135.9,-96 189.5,-96 189.5,-96 189.5,-96 1236,-96 1310.01,-96 1389.51,-143.13 1421.24,-164.12"/>
<polygon fill="#8b1a1a" stroke="#8b1a1a" points="62.19,-170.02 58.66,-180.01 67.65,-174.4 62.19,-170.02"/>
</g>
<!-- Node6 -->
<g id="node6" class="node">
<title>Node6</title>
<g id="a_node6"><a xlink:href="classudmaio_1_1_uio_if.html" target="_top" xlink:title="Base class for UIO interfaces.">
<polygon fill="white" stroke="#666666" points="700.5,-251.5 626.5,-251.5 626.5,-232.5 700.5,-232.5 700.5,-251.5"/>
<text text-anchor="middle" x="663.5" y="-239.5" font-family="Helvetica,sans-Serif" font-size="10.00">udmaio::UioIf</text>
</a>
</g>
</g>
<!-- Node4&#45;&gt;Node6 -->
<g id="edge6" class="edge">
<title>Node4&#45;&gt;Node6</title>
<path fill="none" stroke="#8b1a1a" d="M110.65,-195.52C247.07,-205.78 568.29,-229.93 569,-230 587.89,-231.92 608.86,-234.56 626.14,-236.88"/>
<polygon fill="#8b1a1a" stroke="#8b1a1a" points="110.94,-192.03 100.71,-194.77 110.42,-199.01 110.94,-192.03"/>
</g>
<!-- Node4&#45;&gt;Node8 -->
<g id="edge10" class="edge">
<title>Node4&#45;&gt;Node8</title>
<path fill="none" stroke="#8b1a1a" d="M78.84,-206.16C90.49,-212.11 104.22,-218.75 117,-224 129.63,-229.19 143.83,-234.09 156.3,-238.09"/>
<polygon fill="#8b1a1a" stroke="#8b1a1a" points="80.64,-203.16 70.15,-201.66 77.42,-209.37 80.64,-203.16"/>
</g>
<!-- Node13 -->
<g id="node13" class="node">
<title>Node13</title>
<g id="a_node13"><a xlink:href="classudmaio_1_1_dma_buffer_abstract.html" target="_top" xlink:title="Base class for DMA data buffer.">
<polygon fill="white" stroke="#666666" points="398,-181.5 263,-181.5 263,-162.5 398,-162.5 398,-181.5"/>
<text text-anchor="middle" x="330.5" y="-169.5" font-family="Helvetica,sans-Serif" font-size="10.00">udmaio::DmaBufferAbstract</text>
</a>
</g>
</g>
<!-- Node4&#45;&gt;Node13 -->
<g id="edge18" class="edge">
<title>Node4&#45;&gt;Node13</title>
<path fill="none" stroke="#8b1a1a" d="M110.7,-186.9C155.38,-183.86 216.32,-179.71 262.54,-176.56"/>
<polygon fill="#8b1a1a" stroke="#8b1a1a" points="110.67,-183.39 100.93,-187.57 111.14,-190.38 110.67,-183.39"/>
</g>
<!-- Node5 -->
<g id="node5" class="node">
<title>Node5</title>
<g id="a_node5"><a xlink:href="classudmaio_1_1_uio_axi_dma_if.html" target="_top" xlink:title="Interface to AXI DMA Core.">
<polygon fill="white" stroke="#666666" points="882,-203.5 775,-203.5 775,-184.5 882,-184.5 882,-203.5"/>
<text text-anchor="middle" x="828.5" y="-191.5" font-family="Helvetica,sans-Serif" font-size="10.00">udmaio::UioAxiDmaIf</text>
</a>
</g>
</g>
<!-- Node5&#45;&gt;Node2 -->
<g id="edge4" class="edge">
<title>Node5&#45;&gt;Node2</title>
<path fill="none" stroke="#9a32cd" stroke-dasharray="5,2" d="M893.81,-191.88C1008.1,-188.11 1245.71,-180.26 1364.58,-176.34"/>
<polygon fill="#9a32cd" stroke="#9a32cd" points="893.87,-188.37 884,-192.2 894.11,-195.37 893.87,-188.37"/>
<text text-anchor="middle" x="1131.5" y="-187" font-family="Helvetica,sans-Serif" font-size="10.00"> _dma</text>
</g>
<!-- Node6&#45;&gt;Node5 -->
<g id="edge5" class="edge">
<title>Node6&#45;&gt;Node5</title>
<path fill="none" stroke="#63b8ff" d="M709.26,-228.82C735.96,-220.96 769.3,-211.14 793.77,-203.93"/>
<polygon fill="#63b8ff" stroke="#63b8ff" points="708.33,-225.44 699.73,-231.63 710.31,-232.16 708.33,-225.44"/>
</g>
<!-- Node10 -->
<g id="node10" class="node">
<title>Node10</title>
<g id="a_node10"><a xlink:href="classudmaio_1_1_uio_mem_sgdma.html" target="_top" xlink:title="Interface to AXI DMA scatter&#45;gather buffers &amp; descriptors Uses a UioIf to access DMA descriptor memor...">
<polygon fill="white" stroke="#666666" points="1295,-251.5 1175,-251.5 1175,-232.5 1295,-232.5 1295,-251.5"/>
<text text-anchor="middle" x="1235" y="-239.5" font-family="Helvetica,sans-Serif" font-size="10.00">udmaio::UioMemSgdma</text>
</a>
</g>
</g>
<!-- Node6&#45;&gt;Node10 -->
<g id="edge13" class="edge">
<title>Node6&#45;&gt;Node10</title>
<path fill="none" stroke="#63b8ff" d="M708.73,-254.73C712.19,-255.56 715.64,-256.33 719,-257 732.62,-259.74 736.17,-259.72 750,-261 899.66,-274.88 938.47,-287.2 1088,-272 1125.2,-268.22 1166.92,-259.15 1196.21,-251.96"/>
<polygon fill="#63b8ff" stroke="#63b8ff" points="709.78,-251.38 699.22,-252.32 708.06,-258.17 709.78,-251.38"/>
</g>
<!-- Node12 -->
<g id="node12" class="node">
<title>Node12</title>
<g id="a_node12"><a xlink:href="classudmaio_1_1_reg_accessor_base.html" target="_top" xlink:title="Base class implementing register access. Only used by subclasses, not used directly.">
<polygon fill="white" stroke="#666666" points="907,-251.5 750,-251.5 750,-232.5 907,-232.5 907,-251.5"/>
<text text-anchor="middle" x="828.5" y="-239.5" font-family="Helvetica,sans-Serif" font-size="10.00">udmaio::RegAccessorBase&lt; C &gt;</text>
</a>
</g>
</g>
<!-- Node6&#45;&gt;Node12 -->
<g id="edge16" class="edge">
<title>Node6&#45;&gt;Node12</title>
<path fill="none" stroke="#9a32cd" stroke-dasharray="5,2" d="M712.06,-242C723.88,-242 736.86,-242 749.71,-242"/>
<polygon fill="#9a32cd" stroke="#9a32cd" points="712.19,-238.5 702.19,-242 712.19,-245.5 712.19,-238.5"/>
<text text-anchor="middle" x="725.5" y="-245" font-family="Helvetica,sans-Serif" font-size="10.00"> _if</text>
</g>
<!-- Node7 -->
<g id="node7" class="node">
<title>Node7</title>
<g id="a_node7"><a xlink:title=" ">
<polygon fill="white" stroke="#666666" points="569,-257.5 416,-257.5 416,-238.5 569,-238.5 569,-257.5"/>
<text text-anchor="middle" x="492.5" y="-245.5" font-family="Helvetica,sans-Serif" font-size="10.00">std::shared_ptr&lt; HwAccessor &gt;</text>
</a>
</g>
</g>
<!-- Node7&#45;&gt;Node6 -->
<g id="edge7" class="edge">
<title>Node7&#45;&gt;Node6</title>
<path fill="none" stroke="#9a32cd" stroke-dasharray="5,2" d="M580.32,-244.92C596.53,-244.34 612.63,-243.77 626.22,-243.29"/>
<polygon fill="#9a32cd" stroke="#9a32cd" points="580.48,-241.41 570.62,-245.26 580.73,-248.41 580.48,-241.41"/>
<text text-anchor="middle" x="597.5" y="-247" font-family="Helvetica,sans-Serif" font-size="10.00"> _hw</text>
</g>
<!-- Node8&#45;&gt;Node7 -->
<g id="edge8" class="edge">
<title>Node8&#45;&gt;Node7</title>
<path fill="none" stroke="#9a32cd" stroke-dasharray="5,2" d="M256.7,-248C303.48,-248 366.65,-248 415.68,-248"/>
<polygon fill="#9a32cd" stroke="#9a32cd" points="256.99,-244.5 246.99,-248 256.99,-251.5 256.99,-244.5"/>
<text text-anchor="middle" x="330.5" y="-251" font-family="Helvetica,sans-Serif" font-size="10.00"> ptr</text>
</g>
<!-- Node9 -->
<g id="node9" class="node">
<title>Node9</title>
<g id="a_node9"><a xlink:href="structaxi__dma_1_1block__template.html" target="_top" xlink:title="Template class for the axi_dma block, containing accessors for all its registers.">
<polygon fill="white" stroke="#666666" points="701,-143.5 626,-143.5 626,-124.5 701,-124.5 701,-143.5"/>
<text text-anchor="middle" x="663.5" y="-131.5" font-family="Helvetica,sans-Serif" font-size="10.00">AxiDmaBlock</text>
</a>
</g>
</g>
<!-- Node9&#45;&gt;Node5 -->
<g id="edge11" class="edge">
<title>Node9&#45;&gt;Node5</title>
<path fill="none" stroke="#8b1a1a" d="M696.76,-148.47C712.64,-155.36 732.17,-163.5 750,-170 763.9,-175.06 779.43,-180.01 792.92,-184.09"/>
<polygon fill="#8b1a1a" stroke="#8b1a1a" points="698.36,-145.35 687.79,-144.53 695.55,-151.76 698.36,-145.35"/>
</g>
<!-- Node10&#45;&gt;Node2 -->
<g id="edge12" class="edge">
<title>Node10&#45;&gt;Node2</title>
<path fill="none" stroke="#9a32cd" stroke-dasharray="5,2" d="M1280.06,-228.68C1300.5,-222.35 1325.07,-214.54 1347,-207 1368.4,-199.64 1392.44,-190.63 1410.06,-183.88"/>
<polygon fill="#9a32cd" stroke="#9a32cd" points="1279.15,-225.3 1270.62,-231.58 1281.21,-231.99 1279.15,-225.3"/>
<text text-anchor="middle" x="1330" y="-221" font-family="Helvetica,sans-Serif" font-size="10.00"> _desc</text>
</g>
<!-- Node11 -->
<g id="node11" class="node">
<title>Node11</title>
<g id="a_node11"><a xlink:href="classudmaio_1_1_reg_accessor_array.html" target="_top" xlink:title=" ">
<polygon fill="white" stroke="#666666" points="1088,-262.5 944,-262.5 944,-221.5 1088,-221.5 1088,-262.5"/>
<text text-anchor="start" x="952" y="-250.5" font-family="Helvetica,sans-Serif" font-size="10.00">udmaio::RegAccessorArray</text>
<text text-anchor="start" x="952" y="-239.5" font-family="Helvetica,sans-Serif" font-size="10.00">&lt; S2mmDesc, 0, 1024, DESC</text>
<text text-anchor="middle" x="1016" y="-228.5" font-family="Helvetica,sans-Serif" font-size="10.00">_ADDR_STEP &gt;</text>
</a>
</g>
</g>
<!-- Node11&#45;&gt;Node10 -->
<g id="edge14" class="edge">
<title>Node11&#45;&gt;Node10</title>
<path fill="none" stroke="#9a32cd" stroke-dasharray="5,2" d="M1099.65,-242C1124.59,-242 1151.46,-242 1174.57,-242"/>
<polygon fill="#9a32cd" stroke="#9a32cd" points="1099.87,-238.5 1089.87,-242 1099.87,-245.5 1099.87,-238.5"/>
<text text-anchor="middle" x="1131.5" y="-245" font-family="Helvetica,sans-Serif" font-size="10.00"> descriptors</text>
</g>
<!-- Node12&#45;&gt;Node11 -->
<g id="edge15" class="edge">
<title>Node12&#45;&gt;Node11</title>
<path fill="none" stroke="#63b8ff" d="M918.68,-242C927.02,-242 935.4,-242 943.55,-242"/>
<polygon fill="#63b8ff" stroke="#63b8ff" points="918.88,-238.5 908.88,-242 918.88,-245.5 918.88,-238.5"/>
</g>
<!-- Node13&#45;&gt;Node2 -->
<g id="edge17" class="edge">
<title>Node13&#45;&gt;Node2</title>
<path fill="none" stroke="#9a32cd" stroke-dasharray="5,2" d="M409.55,-168.34C523.01,-163.34 740.13,-155 925,-155 925,-155 925,-155 1236,-155 1279.14,-155 1327.3,-159.46 1365.49,-164.05"/>
<polygon fill="#9a32cd" stroke="#9a32cd" points="409.58,-164.83 399.75,-168.78 409.89,-171.83 409.58,-164.83"/>
<text text-anchor="middle" x="828.5" y="-159" font-family="Helvetica,sans-Serif" font-size="10.00"> _mem</text>
</g>
<!-- Node14 -->
<g id="node14" class="node">
<title>Node14</title>
<g id="a_node14"><a xlink:href="classudmaio_1_1_concurrent_queue.html" target="_top" xlink:title=" ">
<polygon fill="white" stroke="#666666" points="1500.5,-73 1372.5,-73 1372.5,-43 1500.5,-43 1500.5,-73"/>
<text text-anchor="start" x="1380.5" y="-61" font-family="Helvetica,sans-Serif" font-size="10.00">udmaio::ConcurrentQueue</text>
<text text-anchor="middle" x="1436.5" y="-50" font-family="Helvetica,sans-Serif" font-size="10.00">&lt; std::vector&lt; uint8_t &gt; &gt;</text>
</a>
</g>
</g>
<!-- Node14&#45;&gt;Node1 -->
<g id="edge19" class="edge">
<title>Node14&#45;&gt;Node1</title>
<path fill="none" stroke="#9a32cd" stroke-dasharray="5,2" d="M1511.93,-75.92C1541.51,-83.04 1574.43,-90.97 1599.61,-97.03"/>
<polygon fill="#9a32cd" stroke="#9a32cd" points="1512.79,-72.53 1502.24,-73.59 1511.15,-79.33 1512.79,-72.53"/>
<text text-anchor="middle" x="1543" y="-89" font-family="Helvetica,sans-Serif" font-size="10.00"> _queue</text>
</g>
<!-- Node15 -->
<g id="node15" class="node">
<title>Node15</title>
<g id="a_node15"><a xlink:title=" ">
<polygon fill="white" stroke="#666666" points="1292,-30 1178,-30 1178,0 1292,0 1292,-30"/>
<text text-anchor="start" x="1186" y="-18" font-family="Helvetica,sans-Serif" font-size="10.00">std::queue&lt; std::vector</text>
<text text-anchor="middle" x="1235" y="-7" font-family="Helvetica,sans-Serif" font-size="10.00">&lt; uint8_t &gt; &gt;</text>
</a>
</g>
</g>
<!-- Node15&#45;&gt;Node14 -->
<g id="edge20" class="edge">
<title>Node15&#45;&gt;Node14</title>
<path fill="none" stroke="#9a32cd" stroke-dasharray="5,2" d="M1303.42,-29.53C1325.67,-34.33 1350.32,-39.64 1372.25,-44.37"/>
<polygon fill="#9a32cd" stroke="#9a32cd" points="1304.36,-26.15 1293.85,-27.47 1302.89,-33 1304.36,-26.15"/>
<text text-anchor="middle" x="1330" y="-40" font-family="Helvetica,sans-Serif" font-size="10.00"> _queue</text>
</g>
<!-- Node16 -->
<g id="node16" class="node">
<title>Node16</title>
<g id="a_node16"><a xlink:title=" ">
<polygon fill="white" stroke="#666666" points="1069.5,-24.5 962.5,-24.5 962.5,-5.5 1069.5,-5.5 1069.5,-24.5"/>
<text text-anchor="middle" x="1016" y="-12.5" font-family="Helvetica,sans-Serif" font-size="10.00">std::vector&lt; uint8_t &gt;</text>
</a>
</g>
</g>
<!-- Node16&#45;&gt;Node15 -->
<g id="edge21" class="edge">
<title>Node16&#45;&gt;Node15</title>
<path fill="none" stroke="#9a32cd" stroke-dasharray="5,2" d="M1081.22,-15C1111.79,-15 1148.03,-15 1177.53,-15"/>
<polygon fill="#9a32cd" stroke="#9a32cd" points="1081.32,-11.5 1071.32,-15 1081.32,-18.5 1081.32,-11.5"/>
<text text-anchor="middle" x="1131.5" y="-18" font-family="Helvetica,sans-Serif" font-size="10.00"> elements</text>
</g>
<!-- Node17 -->
<g id="node17" class="node">
<title>Node17</title>
<g id="a_node17"><a xlink:title=" ">
<polygon fill="white" stroke="#666666" points="1265.5,-67.5 1204.5,-67.5 1204.5,-48.5 1265.5,-48.5 1265.5,-67.5"/>
<text text-anchor="middle" x="1235" y="-55.5" font-family="Helvetica,sans-Serif" font-size="10.00">std::mutex</text>
</a>
</g>
</g>
<!-- Node17&#45;&gt;Node14 -->
<g id="edge22" class="edge">
<title>Node17&#45;&gt;Node14</title>
<path fill="none" stroke="#9a32cd" stroke-dasharray="5,2" d="M1277.03,-58C1304.51,-58 1341.22,-58 1372.38,-58"/>
<polygon fill="#9a32cd" stroke="#9a32cd" points="1277.38,-54.5 1267.38,-58 1277.38,-61.5 1277.38,-54.5"/>
<text text-anchor="middle" x="1330" y="-61" font-family="Helvetica,sans-Serif" font-size="10.00"> _mutex</text>
</g>
</g>
</svg>
