<?xml version="1.0" encoding="UTF-8" standalone="no"?>
<!DOCTYPE svg PUBLIC "-//W3C//DTD SVG 1.1//EN"
 "http://www.w3.org/Graphics/SVG/1.1/DTD/svg11.dtd">
<!-- Generated by graphviz version 7.0.5 (20221223.1930)
 -->
<!-- Title: udmaio::UioIf Pages: 1 -->
<svg width="239pt" height="215pt"
 viewBox="0.00 0.00 239.00 215.00" xmlns="http://www.w3.org/2000/svg" xmlns:xlink="http://www.w3.org/1999/xlink">
<g id="graph0" class="graph" transform="scale(1 1) rotate(0) translate(4 211)">
<title>udmaio::UioIf</title>
<!-- Node1 -->
<g id="node1" class="node">
<title>Node1</title>
<g id="a_node1"><a xlink:title="Base class for UIO interfaces.">
<polygon fill="#999999" stroke="#666666" points="102.5,-19 28.5,-19 28.5,0 102.5,0 102.5,-19"/>
<text text-anchor="middle" x="65.5" y="-7" font-family="Helvetica,sans-Serif" font-size="10.00">udmaio::UioIf</text>
</a>
</g>
</g>
<!-- Node2 -->
<g id="node2" class="node">
<title>Node2</title>
<g id="a_node2"><a xlink:title=" ">
<polygon fill="white" stroke="#666666" points="99,-207 0,-207 0,-188 99,-188 99,-207"/>
<text text-anchor="middle" x="49.5" y="-195" font-family="Helvetica,sans-Serif" font-size="10.00">boost::noncopyable</text>
</a>
</g>
</g>
<!-- Node2&#45;&gt;Node1 -->
<g id="edge1" class="edge">
<title>Node2&#45;&gt;Node1</title>
<path fill="none" stroke="#8b1a1a" d="M51.26,-176.07C54.72,-135.79 62.31,-47.61 64.74,-19.38"/>
<polygon fill="#8b1a1a" stroke="#8b1a1a" points="47.77,-175.76 50.4,-186.02 54.75,-176.36 47.77,-175.76"/>
</g>
<!-- Node4 -->
<g id="node4" class="node">
<title>Node4</title>
<g id="a_node4"><a xlink:href="classudmaio_1_1_hw_accessor.html" target="_top" xlink:title="Base class for hardware access.">
<polygon fill="white" stroke="#666666" points="209,-151 100,-151 100,-132 209,-132 209,-151"/>
<text text-anchor="middle" x="154.5" y="-139" font-family="Helvetica,sans-Serif" font-size="10.00">udmaio::HwAccessor</text>
</a>
</g>
</g>
<!-- Node2&#45;&gt;Node4 -->
<g id="edge5" class="edge">
<title>Node2&#45;&gt;Node4</title>
<path fill="none" stroke="#8b1a1a" d="M77.01,-182.35C96.04,-172.57 120.79,-159.84 137.14,-151.43"/>
<polygon fill="#8b1a1a" stroke="#8b1a1a" points="75.48,-179.2 68.18,-186.89 78.68,-185.43 75.48,-179.2"/>
</g>
<!-- Node3 -->
<g id="node3" class="node">
<title>Node3</title>
<g id="a_node3"><a xlink:title=" ">
<polygon fill="white" stroke="#666666" points="231,-85 78,-85 78,-66 231,-66 231,-85"/>
<text text-anchor="middle" x="154.5" y="-73" font-family="Helvetica,sans-Serif" font-size="10.00">std::shared_ptr&lt; HwAccessor &gt;</text>
</a>
</g>
</g>
<!-- Node3&#45;&gt;Node1 -->
<g id="edge2" class="edge">
<title>Node3&#45;&gt;Node1</title>
<path fill="none" stroke="#9a32cd" stroke-dasharray="5,2" d="M132.79,-58.89C115.51,-46.46 91.94,-29.51 77.77,-19.32"/>
<polygon fill="#9a32cd" stroke="#9a32cd" points="130.73,-61.72 140.9,-64.72 134.82,-56.04 130.73,-61.72"/>
<text text-anchor="middle" x="126" y="-40" font-family="Helvetica,sans-Serif" font-size="10.00"> _hw</text>
</g>
<!-- Node4&#45;&gt;Node3 -->
<g id="edge3" class="edge">
<title>Node4&#45;&gt;Node3</title>
<path fill="none" stroke="#9a32cd" stroke-dasharray="5,2" d="M154.5,-120.18C154.5,-108.44 154.5,-94.27 154.5,-85.32"/>
<polygon fill="#9a32cd" stroke="#9a32cd" points="151,-120.09 154.5,-130.09 158,-120.09 151,-120.09"/>
<text text-anchor="middle" x="161.5" y="-106" font-family="Helvetica,sans-Serif" font-size="10.00"> ptr</text>
</g>
<!-- Node5 -->
<g id="node5" class="node">
<title>Node5</title>
<g id="a_node5"><a xlink:href="structudmaio_1_1_logger.html" target="_top" xlink:title=" ">
<polygon fill="white" stroke="#666666" points="200,-207 117,-207 117,-188 200,-188 200,-207"/>
<text text-anchor="middle" x="158.5" y="-195" font-family="Helvetica,sans-Serif" font-size="10.00">udmaio::Logger</text>
</a>
</g>
</g>
<!-- Node5&#45;&gt;Node4 -->
<g id="edge4" class="edge">
<title>Node5&#45;&gt;Node4</title>
<path fill="none" stroke="#63b8ff" d="M156.99,-176.11C156.35,-167.52 155.65,-157.97 155.15,-151.25"/>
<polygon fill="#63b8ff" stroke="#63b8ff" points="153.5,-176.36 157.73,-186.07 160.48,-175.84 153.5,-176.36"/>
</g>
</g>
</svg>
