<?xml version="1.0" encoding="UTF-8" standalone="no"?>
<!DOCTYPE svg PUBLIC "-//W3C//DTD SVG 1.1//EN"
 "http://www.w3.org/Graphics/SVG/1.1/DTD/svg11.dtd">
<!-- Generated by graphviz version 7.0.5 (20221223.1930)
 -->
<!-- Title: udmaio::FrameFormat Pages: 1 -->
<svg width="247pt" height="248pt"
 viewBox="0.00 0.00 247.00 248.00" xmlns="http://www.w3.org/2000/svg" xmlns:xlink="http://www.w3.org/1999/xlink">
<g id="graph0" class="graph" transform="scale(1 1) rotate(0) translate(4 244)">
<title>udmaio::FrameFormat</title>
<!-- Node1 -->
<g id="node1" class="node">
<title>Node1</title>
<g id="a_node1"><a xlink:title=" ">
<polygon fill="#999999" stroke="#666666" points="172,-19 61,-19 61,0 172,0 172,-19"/>
<text text-anchor="middle" x="116.5" y="-7" font-family="Helvetica,sans-Serif" font-size="10.00">udmaio::FrameFormat</text>
</a>
</g>
</g>
<!-- Node2 -->
<g id="node2" class="node">
<title>Node2</title>
<g id="a_node2"><a xlink:title=" ">
<polygon fill="white" stroke="#666666" points="101,-107 0,-107 0,-66 101,-66 101,-107"/>
<text text-anchor="start" x="8" y="-95" font-family="Helvetica,sans-Serif" font-size="10.00">std::unordered_map</text>
<text text-anchor="start" x="8" y="-84" font-family="Helvetica,sans-Serif" font-size="10.00">&lt; PixelFormat, std::</text>
<text text-anchor="middle" x="50.5" y="-73" font-family="Helvetica,sans-Serif" font-size="10.00">string &gt;</text>
</a>
</g>
</g>
<!-- Node2&#45;&gt;Node1 -->
<g id="edge1" class="edge">
<title>Node2&#45;&gt;Node1</title>
<path fill="none" stroke="#9a32cd" stroke-dasharray="5,2" d="M45.99,-54.07C46.49,-48 48.07,-41.99 51.5,-37 57.02,-28.97 65.44,-23.36 74.41,-19.46"/>
<polygon fill="#9a32cd" stroke="#9a32cd" points="42.49,-54.09 46.13,-64.04 49.49,-53.99 42.49,-54.09"/>
<text text-anchor="middle" x="106.5" y="-40" font-family="Helvetica,sans-Serif" font-size="10.00"> _pxfmt_enum_to_str_tab</text>
</g>
<!-- Node3 -->
<g id="node3" class="node">
<title>Node3</title>
<g id="a_node3"><a xlink:title=" ">
<polygon fill="white" stroke="#666666" points="80,-173 21,-173 21,-154 80,-154 80,-173"/>
<text text-anchor="middle" x="50.5" y="-161" font-family="Helvetica,sans-Serif" font-size="10.00">std::string</text>
</a>
</g>
</g>
<!-- Node3&#45;&gt;Node2 -->
<g id="edge2" class="edge">
<title>Node3&#45;&gt;Node2</title>
<path fill="none" stroke="#9a32cd" stroke-dasharray="5,2" d="M50.5,-142.31C50.5,-131.46 50.5,-118.14 50.5,-107.35"/>
<polygon fill="#9a32cd" stroke="#9a32cd" points="47,-142.09 50.5,-152.09 54,-142.09 47,-142.09"/>
<text text-anchor="middle" x="72" y="-128" font-family="Helvetica,sans-Serif" font-size="10.00"> elements</text>
</g>
<!-- Node4 -->
<g id="node4" class="node">
<title>Node4</title>
<g id="a_node4"><a xlink:title=" ">
<polygon fill="white" stroke="#666666" points="97,-240 4,-240 4,-210 97,-210 97,-240"/>
<text text-anchor="start" x="12" y="-228" font-family="Helvetica,sans-Serif" font-size="10.00">std::basic_string&lt;</text>
<text text-anchor="middle" x="50.5" y="-217" font-family="Helvetica,sans-Serif" font-size="10.00"> Char &gt;</text>
</a>
</g>
</g>
<!-- Node4&#45;&gt;Node3 -->
<g id="edge3" class="edge">
<title>Node4&#45;&gt;Node3</title>
<path fill="none" stroke="#63b8ff" d="M50.5,-198.13C50.5,-189.29 50.5,-179.99 50.5,-173.42"/>
<polygon fill="#63b8ff" stroke="#63b8ff" points="47,-198.08 50.5,-208.08 54,-198.08 47,-198.08"/>
</g>
<!-- Node5 -->
<g id="node5" class="node">
<title>Node5</title>
<g id="a_node5"><a xlink:href="structudmaio_1_1_frame_format_1_1dim__t.html" target="_top" xlink:title="Frame dimensions.">
<polygon fill="white" stroke="#666666" points="239,-101.5 128,-101.5 128,-71.5 239,-71.5 239,-101.5"/>
<text text-anchor="start" x="136" y="-89.5" font-family="Helvetica,sans-Serif" font-size="10.00">udmaio::FrameFormat</text>
<text text-anchor="middle" x="183.5" y="-78.5" font-family="Helvetica,sans-Serif" font-size="10.00">::dim_t</text>
</a>
</g>
</g>
<!-- Node5&#45;&gt;Node1 -->
<g id="edge4" class="edge">
<title>Node5&#45;&gt;Node1</title>
<path fill="none" stroke="#9a32cd" stroke-dasharray="5,2" d="M175.59,-60.49C172.17,-52.36 167.53,-43.71 161.5,-37 154.83,-29.58 145.59,-23.65 137.21,-19.29"/>
<polygon fill="#9a32cd" stroke="#9a32cd" points="172.21,-61.46 178.99,-69.6 178.77,-59.01 172.21,-61.46"/>
<text text-anchor="middle" x="180.5" y="-40" font-family="Helvetica,sans-Serif" font-size="10.00"> _dim</text>
</g>
</g>
</svg>
