<?xml version="1.0" encoding="UTF-8" standalone="no"?>
<!DOCTYPE svg PUBLIC "-//W3C//DTD SVG 1.1//EN"
 "http://www.w3.org/Graphics/SVG/1.1/DTD/svg11.dtd">
<!-- Generated by graphviz version 7.0.5 (20221223.1930)
 -->
<!-- Title: UioGpioStatus Pages: 1 -->
<svg width="280pt" height="236pt"
 viewBox="0.00 0.00 279.50 236.00" xmlns="http://www.w3.org/2000/svg" xmlns:xlink="http://www.w3.org/1999/xlink">
<g id="graph0" class="graph" transform="scale(1 1) rotate(0) translate(4 232)">
<title>UioGpioStatus</title>
<!-- Node1 -->
<g id="node1" class="node">
<title>Node1</title>
<g id="a_node1"><a xlink:title="Interface to GPIO status port of the demo application.">
<polygon fill="#999999" stroke="#666666" points="147.5,-19 67.5,-19 67.5,0 147.5,0 147.5,-19"/>
<text text-anchor="middle" x="107.5" y="-7" font-family="Helvetica,sans-Serif" font-size="10.00">UioGpioStatus</text>
</a>
</g>
</g>
<!-- Node2 -->
<g id="node2" class="node">
<title>Node2</title>
<g id="a_node2"><a xlink:href="classudmaio_1_1_uio_if.html" target="_top" xlink:title="Base class for UIO interfaces.">
<polygon fill="white" stroke="#666666" points="144.5,-162 70.5,-162 70.5,-143 144.5,-143 144.5,-162"/>
<text text-anchor="middle" x="107.5" y="-150" font-family="Helvetica,sans-Serif" font-size="10.00">udmaio::UioIf</text>
</a>
</g>
</g>
<!-- Node2&#45;&gt;Node1 -->
<g id="edge1" class="edge">
<title>Node2&#45;&gt;Node1</title>
<path fill="none" stroke="#8b1a1a" d="M107.5,-131.56C107.5,-100.44 107.5,-41.57 107.5,-19.32"/>
<polygon fill="#8b1a1a" stroke="#8b1a1a" points="104,-131.17 107.5,-141.17 111,-131.17 104,-131.17"/>
</g>
<!-- Node5 -->
<g id="node5" class="node">
<title>Node5</title>
<g id="a_node5"><a xlink:href="classudmaio_1_1_reg_accessor.html" target="_top" xlink:title=" ">
<polygon fill="white" stroke="#666666" points="271.5,-96 119.5,-96 119.5,-66 271.5,-66 271.5,-96"/>
<text text-anchor="start" x="127.5" y="-84" font-family="Helvetica,sans-Serif" font-size="10.00">udmaio::RegAccessor</text>
<text text-anchor="middle" x="195.5" y="-73" font-family="Helvetica,sans-Serif" font-size="10.00">&lt; UioGpioStatus::GpioData, 0 &gt;</text>
</a>
</g>
</g>
<!-- Node2&#45;&gt;Node5 -->
<g id="edge5" class="edge">
<title>Node2&#45;&gt;Node5</title>
<path fill="none" stroke="#9a32cd" stroke-dasharray="5,2" d="M127.62,-135.61C142.62,-123.76 162.94,-107.72 177.43,-96.27"/>
<polygon fill="#9a32cd" stroke="#9a32cd" points="125.51,-132.82 119.83,-141.76 129.85,-138.31 125.51,-132.82"/>
<text text-anchor="middle" x="160" y="-117" font-family="Helvetica,sans-Serif" font-size="10.00"> _if</text>
</g>
<!-- Node3 -->
<g id="node3" class="node">
<title>Node3</title>
<g id="a_node3"><a xlink:title=" ">
<polygon fill="white" stroke="#666666" points="99,-228 0,-228 0,-209 99,-209 99,-228"/>
<text text-anchor="middle" x="49.5" y="-216" font-family="Helvetica,sans-Serif" font-size="10.00">boost::noncopyable</text>
</a>
</g>
</g>
<!-- Node3&#45;&gt;Node2 -->
<g id="edge2" class="edge">
<title>Node3&#45;&gt;Node2</title>
<path fill="none" stroke="#8b1a1a" d="M65.25,-200.12C76.33,-187.89 90.7,-172.04 99.5,-162.32"/>
<polygon fill="#8b1a1a" stroke="#8b1a1a" points="62.7,-197.72 58.58,-207.48 67.89,-202.42 62.7,-197.72"/>
</g>
<!-- Node4 -->
<g id="node4" class="node">
<title>Node4</title>
<g id="a_node4"><a xlink:href="structudmaio_1_1_uio_region.html" target="_top" xlink:title="General&#45;purpose struct to define a memory area.">
<polygon fill="white" stroke="#666666" points="215.5,-228 117.5,-228 117.5,-209 215.5,-209 215.5,-228"/>
<text text-anchor="middle" x="166.5" y="-216" font-family="Helvetica,sans-Serif" font-size="10.00">udmaio::UioRegion</text>
</a>
</g>
</g>
<!-- Node4&#45;&gt;Node2 -->
<g id="edge3" class="edge">
<title>Node4&#45;&gt;Node2</title>
<path fill="none" stroke="#9a32cd" stroke-dasharray="5,2" d="M150.81,-200.48C139.49,-188.2 124.67,-172.13 115.63,-162.32"/>
<polygon fill="#9a32cd" stroke="#9a32cd" points="147.92,-202.51 157.27,-207.49 153.07,-197.76 147.92,-202.51"/>
<text text-anchor="middle" x="157.5" y="-183" font-family="Helvetica,sans-Serif" font-size="10.00"> _region</text>
</g>
<!-- Node5&#45;&gt;Node1 -->
<g id="edge4" class="edge">
<title>Node5&#45;&gt;Node1</title>
<path fill="none" stroke="#9a32cd" stroke-dasharray="5,2" d="M168.46,-58.64C151.76,-45.45 131.21,-29.22 118.74,-19.38"/>
<polygon fill="#9a32cd" stroke="#9a32cd" points="166.06,-61.21 176.08,-64.66 170.4,-55.72 166.06,-61.21"/>
<text text-anchor="middle" x="164" y="-40" font-family="Helvetica,sans-Serif" font-size="10.00"> gpio</text>
</g>
</g>
</svg>
