<?xml version="1.0" encoding="UTF-8" standalone="no"?>
<!DOCTYPE svg PUBLIC "-//W3C//DTD SVG 1.1//EN"
 "http://www.w3.org/Graphics/SVG/1.1/DTD/svg11.dtd">
<!-- Generated by graphviz version 7.0.5 (20221223.1930)
 -->
<!-- Title: UioTrafficGen Pages: 1 -->
<!--zoomable 252 -->
<svg id="main" version="1.1" xmlns="http://www.w3.org/2000/svg" xmlns:xlink="http://www.w3.org/1999/xlink" xml:space="preserve" onload="init(evt)">
<style type="text/css"><![CDATA[
.edge:hover path { stroke: red; }
.edge:hover polygon { stroke: red; fill: red; }
]]></style>
<script type="text/javascript"><![CDATA[
var edges = document.getElementsByTagName('g');
if (edges && edges.length) {
  for (var i=0;i<edges.length;i++) {
    if (edges[i].id.substr(0,4)=='edge') {
      edges[i].setAttribute('class','edge');
    }
  }
}
]]></script>
        <defs>
                <circle id="rim" cx="0" cy="0" r="7"/>
                <circle id="rim2" cx="0" cy="0" r="3.5"/>
                <g id="zoomPlus">
                        <use xlink:href="#rim" fill="#404040">
                                <set attributeName="fill" to="#808080" begin="zoomplus.mouseover" end="zoomplus.mouseout"/>
                        </use>
                        <path d="M-4,0h8M0,-4v8" fill="none" stroke="white" stroke-width="1.5" pointer-events="none"/>
                </g>
                <g id="zoomMin">
                        <use xlink:href="#rim" fill="#404040">
                                <set attributeName="fill" to="#808080" begin="zoomminus.mouseover" end="zoomminus.mouseout"/>
                        </use>
                        <path d="M-4,0h8" fill="none" stroke="white" stroke-width="1.5" pointer-events="none"/>
                </g>
                <g id="dirArrow">
                        <path fill="none" stroke="white" stroke-width="1.5" d="M0,-3.0v7 M-2.5,-0.5L0,-3.0L2.5,-0.5"/>
                </g>
               <g id="resetDef">
                       <use xlink:href="#rim2" fill="#404040">
                               <set attributeName="fill" to="#808080" begin="reset.mouseover" end="reset.mouseout"/>
                       </use>
               </g>
        </defs>

<script type="text/javascript">
var viewWidth = 611;
var viewHeight = 252;
var sectionId = 'dynsection-1';
</script>
<script xlink:href="svgpan.js"/>
<svg id="graph" class="graph">
<g id="viewport">
<title>UioTrafficGen</title>
<!-- Node1 -->
<g id="node1" class="node">
<title>Node1</title>
<g id="a_node1"><a xlink:title="Interface to LFSR core of the demo application.">
<polygon fill="#999999" stroke="#666666" points="603,-148 527,-148 527,-129 603,-129 603,-148"/>
<text text-anchor="middle" x="565" y="-136" font-family="Helvetica,sans-Serif" font-size="10.00">UioTrafficGen</text>
</a>
</g>
</g>
<!-- Node2 -->
<g id="node2" class="node">
<title>Node2</title>
<g id="a_node2"><a xlink:href="classudmaio_1_1_uio_if.html" target="_top" xlink:title="Base class for UIO interfaces.">
<polygon fill="white" stroke="#666666" points="243,-148 169,-148 169,-129 243,-129 243,-148"/>
<text text-anchor="middle" x="206" y="-136" font-family="Helvetica,sans-Serif" font-size="10.00">udmaio::UioIf</text>
</a>
</g>
</g>
<!-- Node2&#45;&gt;Node1 -->
<g id="edge1" class="edge">
<title>Node2&#45;&gt;Node1</title>
<path fill="none" stroke="#8b1a1a" d="M218.63,-157.98C232.84,-179.64 259.08,-213.42 292,-227.5 350.84,-252.67 374.25,-244.33 436,-227.5 487.44,-213.48 535.51,-168.33 554.93,-148.27"/>
<polygon fill="#8b1a1a" stroke="#8b1a1a" points="221.74,-156.35 213.46,-149.74 215.82,-160.07 221.74,-156.35"/>
</g>
<!-- Node5 -->
<g id="node5" class="node">
<title>Node5</title>
<g id="a_node5"><a xlink:href="classudmaio_1_1_reg_accessor.html" target="_top" xlink:title=" ">
<polygon fill="white" stroke="#666666" points="430,-218 298,-218 298,-177 430,-177 430,-218"/>
<text text-anchor="start" x="306" y="-206" font-family="Helvetica,sans-Serif" font-size="10.00">udmaio::RegAccessor</text>
<text text-anchor="start" x="306" y="-195" font-family="Helvetica,sans-Serif" font-size="10.00">&lt; UioTrafficGen::StControl,</text>
<text text-anchor="middle" x="364" y="-184" font-family="Helvetica,sans-Serif" font-size="10.00"> 0x30 &gt;</text>
</a>
</g>
</g>
<!-- Node2&#45;&gt;Node5 -->
<g id="edge5" class="edge">
<title>Node2&#45;&gt;Node5</title>
<path fill="none" stroke="#9a32cd" stroke-dasharray="5,2" d="M243.74,-152.4C262.79,-159.6 286.45,-168.55 307.66,-176.57"/>
<polygon fill="#9a32cd" stroke="#9a32cd" points="245.12,-149.17 234.53,-148.91 242.64,-155.72 245.12,-149.17"/>
<text text-anchor="middle" x="267.5" y="-165.5" font-family="Helvetica,sans-Serif" font-size="10.00"> _if</text>
</g>
<!-- Node6 -->
<g id="node6" class="node">
<title>Node6</title>
<g id="a_node6"><a xlink:href="classudmaio_1_1_reg_accessor.html" target="_top" xlink:title=" ">
<polygon fill="white" stroke="#666666" points="428,-159 300,-159 300,-118 428,-118 428,-159"/>
<text text-anchor="start" x="308" y="-147" font-family="Helvetica,sans-Serif" font-size="10.00">udmaio::RegAccessor</text>
<text text-anchor="start" x="308" y="-136" font-family="Helvetica,sans-Serif" font-size="10.00">&lt; UioTrafficGen::StConfig,</text>
<text text-anchor="middle" x="364" y="-125" font-family="Helvetica,sans-Serif" font-size="10.00"> 0x34 &gt;</text>
</a>
</g>
</g>
<!-- Node2&#45;&gt;Node6 -->
<g id="edge7" class="edge">
<title>Node2&#45;&gt;Node6</title>
<path fill="none" stroke="#9a32cd" stroke-dasharray="5,2" d="M254.28,-138.5C268.61,-138.5 284.6,-138.5 299.8,-138.5"/>
<polygon fill="#9a32cd" stroke="#9a32cd" points="254.7,-135 244.7,-138.5 254.7,-142 254.7,-135"/>
<text text-anchor="middle" x="267.5" y="-141.5" font-family="Helvetica,sans-Serif" font-size="10.00"> _if</text>
</g>
<!-- Node7 -->
<g id="node7" class="node">
<title>Node7</title>
<g id="a_node7"><a xlink:href="classudmaio_1_1_reg_accessor.html" target="_top" xlink:title=" ">
<polygon fill="white" stroke="#666666" points="429.5,-100 298.5,-100 298.5,-59 429.5,-59 429.5,-100"/>
<text text-anchor="start" x="306.5" y="-88" font-family="Helvetica,sans-Serif" font-size="10.00">udmaio::RegAccessor</text>
<text text-anchor="start" x="306.5" y="-77" font-family="Helvetica,sans-Serif" font-size="10.00">&lt; UioTrafficGen::TrLength,</text>
<text text-anchor="middle" x="364" y="-66" font-family="Helvetica,sans-Serif" font-size="10.00"> 0x38 &gt;</text>
</a>
</g>
</g>
<!-- Node2&#45;&gt;Node7 -->
<g id="edge9" class="edge">
<title>Node2&#45;&gt;Node7</title>
<path fill="none" stroke="#9a32cd" stroke-dasharray="5,2" d="M243.74,-124.6C262.79,-117.4 286.45,-108.45 307.66,-100.43"/>
<polygon fill="#9a32cd" stroke="#9a32cd" points="242.64,-121.28 234.53,-128.09 245.12,-127.83 242.64,-121.28"/>
<text text-anchor="middle" x="267.5" y="-121.5" font-family="Helvetica,sans-Serif" font-size="10.00"> _if</text>
</g>
<!-- Node8 -->
<g id="node8" class="node">
<title>Node8</title>
<g id="a_node8"><a xlink:href="classudmaio_1_1_reg_accessor.html" target="_top" xlink:title=" ">
<polygon fill="white" stroke="#666666" points="436,-41 292,-41 292,0 436,0 436,-41"/>
<text text-anchor="start" x="300" y="-29" font-family="Helvetica,sans-Serif" font-size="10.00">udmaio::RegAccessor</text>
<text text-anchor="start" x="300" y="-18" font-family="Helvetica,sans-Serif" font-size="10.00">&lt; UioTrafficGen::ExtTrLength,</text>
<text text-anchor="middle" x="364" y="-7" font-family="Helvetica,sans-Serif" font-size="10.00"> 0x50 &gt;</text>
</a>
</g>
</g>
<!-- Node2&#45;&gt;Node8 -->
<g id="edge11" class="edge">
<title>Node2&#45;&gt;Node8</title>
<path fill="none" stroke="#9a32cd" stroke-dasharray="5,2" d="M221,-119.7C236.5,-99.98 263.15,-69.16 292,-49.5 296.29,-46.58 300.92,-43.87 305.69,-41.38"/>
<polygon fill="#9a32cd" stroke="#9a32cd" points="218.37,-117.38 215.06,-127.44 223.92,-121.64 218.37,-117.38"/>
<text text-anchor="middle" x="267.5" y="-76.5" font-family="Helvetica,sans-Serif" font-size="10.00"> _if</text>
</g>
<!-- Node3 -->
<g id="node3" class="node">
<title>Node3</title>
<g id="a_node3"><a xlink:title=" ">
<polygon fill="white" stroke="#666666" points="99,-167 0,-167 0,-148 99,-148 99,-167"/>
<text text-anchor="middle" x="49.5" y="-155" font-family="Helvetica,sans-Serif" font-size="10.00">boost::noncopyable</text>
</a>
</g>
</g>
<!-- Node3&#45;&gt;Node2 -->
<g id="edge2" class="edge">
<title>Node3&#45;&gt;Node2</title>
<path fill="none" stroke="#8b1a1a" d="M110.7,-150.1C130.28,-147.69 151.4,-145.09 168.68,-142.97"/>
<polygon fill="#8b1a1a" stroke="#8b1a1a" points="110.38,-146.61 100.89,-151.3 111.24,-153.56 110.38,-146.61"/>
</g>
<!-- Node4 -->
<g id="node4" class="node">
<title>Node4</title>
<g id="a_node4"><a xlink:href="structudmaio_1_1_uio_region.html" target="_top" xlink:title="General&#45;purpose struct to define a memory area.">
<polygon fill="white" stroke="#666666" points="98.5,-130 0.5,-130 0.5,-111 98.5,-111 98.5,-130"/>
<text text-anchor="middle" x="49.5" y="-118" font-family="Helvetica,sans-Serif" font-size="10.00">udmaio::UioRegion</text>
</a>
</g>
</g>
<!-- Node4&#45;&gt;Node2 -->
<g id="edge3" class="edge">
<title>Node4&#45;&gt;Node2</title>
<path fill="none" stroke="#9a32cd" stroke-dasharray="5,2" d="M110.38,-127.48C130.16,-129.78 151.55,-132.27 168.97,-134.3"/>
<polygon fill="#9a32cd" stroke="#9a32cd" points="110.8,-124 100.46,-126.32 109.99,-130.95 110.8,-124"/>
<text text-anchor="middle" x="134" y="-135.5" font-family="Helvetica,sans-Serif" font-size="10.00"> _region</text>
</g>
<!-- Node5&#45;&gt;Node1 -->
<g id="edge4" class="edge">
<title>Node5&#45;&gt;Node1</title>
<path fill="none" stroke="#9a32cd" stroke-dasharray="5,2" d="M441.18,-174.91C472,-165.78 505.98,-155.7 530.37,-148.47"/>
<polygon fill="#9a32cd" stroke="#9a32cd" points="440.48,-171.47 431.89,-177.67 442.47,-178.18 440.48,-171.47"/>
<text text-anchor="middle" x="481.5" y="-172.5" font-family="Helvetica,sans-Serif" font-size="10.00"> stControl</text>
</g>
<!-- Node6&#45;&gt;Node1 -->
<g id="edge6" class="edge">
<title>Node6&#45;&gt;Node1</title>
<path fill="none" stroke="#9a32cd" stroke-dasharray="5,2" d="M439.47,-138.5C469.23,-138.5 502.2,-138.5 526.73,-138.5"/>
<polygon fill="#9a32cd" stroke="#9a32cd" points="439.75,-135 429.75,-138.5 439.75,-142 439.75,-135"/>
<text text-anchor="middle" x="481.5" y="-141.5" font-family="Helvetica,sans-Serif" font-size="10.00"> stConfig</text>
</g>
<!-- Node7&#45;&gt;Node1 -->
<g id="edge8" class="edge">
<title>Node7&#45;&gt;Node1</title>
<path fill="none" stroke="#9a32cd" stroke-dasharray="5,2" d="M440.69,-101.94C471.67,-111.13 505.93,-121.28 530.46,-128.56"/>
<polygon fill="#9a32cd" stroke="#9a32cd" points="441.92,-98.65 431.34,-99.17 439.93,-105.37 441.92,-98.65"/>
<text text-anchor="middle" x="481.5" y="-124.5" font-family="Helvetica,sans-Serif" font-size="10.00"> trLength</text>
</g>
<!-- Node8&#45;&gt;Node1 -->
<g id="edge10" class="edge">
<title>Node8&#45;&gt;Node1</title>
<path fill="none" stroke="#9a32cd" stroke-dasharray="5,2" d="M428.75,-46.01C431.21,-47.16 433.63,-48.33 436,-49.5 469.74,-66.22 478.23,-70.79 509,-92.5 525.27,-103.98 542.69,-119.08 553.46,-128.79"/>
<polygon fill="#9a32cd" stroke="#9a32cd" points="430.42,-42.93 419.87,-41.99 427.53,-49.3 430.42,-42.93"/>
<text text-anchor="middle" x="481.5" y="-95.5" font-family="Helvetica,sans-Serif" font-size="10.00"> extTrLength</text>
</g>
</g>
</svg>
        <g id="navigator" transform="translate(0 0)" fill="#404254">
                <rect fill="#f2f5e9" fill-opacity="0.5" stroke="#606060" stroke-width=".5" x="0" y="0" width="60" height="60"/>
                <use id="zoomplus" xlink:href="#zoomPlus" x="17" y="9" onmousedown="handleZoom(evt,'in')"/>
                <use id="zoomminus" xlink:href="#zoomMin" x="42" y="9" onmousedown="handleZoom(evt,'out')"/>
                <use id="reset" xlink:href="#resetDef" x="30" y="36" onmousedown="handleReset()"/>
                <g id="arrowUp" xlink:href="#dirArrow" transform="translate(30 24)" onmousedown="handlePan(0,-1)">
                  <use xlink:href="#rim" fill="#404040">
                        <set attributeName="fill" to="#808080" begin="arrowUp.mouseover" end="arrowUp.mouseout"/>
                  </use>
                  <path fill="none" stroke="white" stroke-width="1.5" d="M0,-3.0v7 M-2.5,-0.5L0,-3.0L2.5,-0.5"/>
                </g>
                <g id="arrowRight" xlink:href="#dirArrow" transform="rotate(90) translate(36 -43)" onmousedown="handlePan(1,0)">
                  <use xlink:href="#rim" fill="#404040">
                        <set attributeName="fill" to="#808080" begin="arrowRight.mouseover" end="arrowRight.mouseout"/>
                  </use>
                  <path fill="none" stroke="white" stroke-width="1.5" d="M0,-3.0v7 M-2.5,-0.5L0,-3.0L2.5,-0.5"/>
                </g>
                <g id="arrowDown" xlink:href="#dirArrow" transform="rotate(180) translate(-30 -48)" onmousedown="handlePan(0,1)">
                  <use xlink:href="#rim" fill="#404040">
                        <set attributeName="fill" to="#808080" begin="arrowDown.mouseover" end="arrowDown.mouseout"/>
                  </use>
                  <path fill="none" stroke="white" stroke-width="1.5" d="M0,-3.0v7 M-2.5,-0.5L0,-3.0L2.5,-0.5"/>
                </g>
                <g id="arrowLeft" xlink:href="#dirArrow" transform="rotate(270) translate(-36 17)" onmousedown="handlePan(-1,0)">
                  <use xlink:href="#rim" fill="#404040">
                        <set attributeName="fill" to="#808080" begin="arrowLeft.mouseover" end="arrowLeft.mouseout"/>
                  </use>
                  <path fill="none" stroke="white" stroke-width="1.5" d="M0,-3.0v7 M-2.5,-0.5L0,-3.0L2.5,-0.5"/>
                </g>
        </g>
        <svg viewBox="0 0 15 15" width="100%" height="30px" preserveAspectRatio="xMaxYMin meet">
         <g id="arrow_out" transform="scale(0.3 0.3)">
          <a xlink:href="class_uio_traffic_gen__coll__graph_org.svg" target="_base">
           <rect id="button" ry="5" rx="5" y="6" x="6" height="38" width="38"
                fill="#f2f5e9" fill-opacity="0.5" stroke="#606060" stroke-width="1.0"/>
           <path id="arrow"
             d="M 11.500037,31.436501 C 11.940474,20.09759 22.043105,11.32322 32.158766,21.979434 L 37.068811,17.246167 C 37.068811,17.246167 37.088388,32 37.088388,32 L 22.160133,31.978069 C 22.160133,31.978069 26.997745,27.140456 26.997745,27.140456 C 18.528582,18.264221 13.291696,25.230495 11.500037,31.436501 z"
             style="fill:#404040;"/>
          </a>
         </g>
        </svg>
</svg>
