<?xml version="1.0" encoding="UTF-8" standalone="no"?>
<!DOCTYPE svg PUBLIC "-//W3C//DTD SVG 1.1//EN"
 "http://www.w3.org/Graphics/SVG/1.1/DTD/svg11.dtd">
<!-- Generated by graphviz version 7.0.5 (20221223.1930)
 -->
<!-- Title: udmaio::HwAccessorAxi Pages: 1 -->
<svg width="208pt" height="203pt"
 viewBox="0.00 0.00 208.00 203.00" xmlns="http://www.w3.org/2000/svg" xmlns:xlink="http://www.w3.org/1999/xlink">
<g id="graph0" class="graph" transform="scale(1 1) rotate(0) translate(4 199)">
<title>udmaio::HwAccessorAxi</title>
<!-- Node1 -->
<g id="node1" class="node">
<title>Node1</title>
<g id="a_node1"><a xlink:title=" ">
<polygon fill="#999999" stroke="#666666" points="156.5,-19 34.5,-19 34.5,0 156.5,0 156.5,-19"/>
<text text-anchor="middle" x="95.5" y="-7" font-family="Helvetica,sans-Serif" font-size="10.00">udmaio::HwAccessorAxi</text>
</a>
</g>
</g>
<!-- Node2 -->
<g id="node2" class="node">
<title>Node2</title>
<g id="a_node2"><a xlink:href="classudmaio_1_1_hw_accessor_mmap.html" target="_top" xlink:title=" ">
<polygon fill="white" stroke="#666666" points="163.5,-85 27.5,-85 27.5,-55 163.5,-55 163.5,-85"/>
<text text-anchor="start" x="35.5" y="-73" font-family="Helvetica,sans-Serif" font-size="10.00">udmaio::HwAccessorMmap</text>
<text text-anchor="middle" x="95.5" y="-62" font-family="Helvetica,sans-Serif" font-size="10.00">&lt; uint64_t &gt;</text>
</a>
</g>
</g>
<!-- Node2&#45;&gt;Node1 -->
<g id="edge1" class="edge">
<title>Node2&#45;&gt;Node1</title>
<path fill="none" stroke="#63b8ff" d="M95.5,-43.3C95.5,-34.65 95.5,-25.58 95.5,-19.18"/>
<polygon fill="#63b8ff" stroke="#63b8ff" points="92,-43.03 95.5,-53.03 99,-43.03 92,-43.03"/>
</g>
<!-- Node3 -->
<g id="node3" class="node">
<title>Node3</title>
<g id="a_node3"><a xlink:href="classudmaio_1_1_hw_accessor.html" target="_top" xlink:title="Base class for hardware access.">
<polygon fill="white" stroke="#666666" points="150,-140 41,-140 41,-121 150,-121 150,-140"/>
<text text-anchor="middle" x="95.5" y="-128" font-family="Helvetica,sans-Serif" font-size="10.00">udmaio::HwAccessor</text>
</a>
</g>
</g>
<!-- Node3&#45;&gt;Node2 -->
<g id="edge2" class="edge">
<title>Node3&#45;&gt;Node2</title>
<path fill="none" stroke="#63b8ff" d="M95.5,-109.51C95.5,-101.49 95.5,-92.43 95.5,-85.11"/>
<polygon fill="#63b8ff" stroke="#63b8ff" points="92,-109.35 95.5,-119.35 99,-109.35 92,-109.35"/>
</g>
<!-- Node4 -->
<g id="node4" class="node">
<title>Node4</title>
<g id="a_node4"><a xlink:href="structudmaio_1_1_logger.html" target="_top" xlink:title=" ">
<polygon fill="white" stroke="#666666" points="83,-195 0,-195 0,-176 83,-176 83,-195"/>
<text text-anchor="middle" x="41.5" y="-183" font-family="Helvetica,sans-Serif" font-size="10.00">udmaio::Logger</text>
</a>
</g>
</g>
<!-- Node4&#45;&gt;Node3 -->
<g id="edge3" class="edge">
<title>Node4&#45;&gt;Node3</title>
<path fill="none" stroke="#63b8ff" d="M58.54,-167.78C67.76,-158.72 78.79,-147.9 86.39,-140.44"/>
<polygon fill="#63b8ff" stroke="#63b8ff" points="56.18,-165.19 51.5,-174.69 61.09,-170.18 56.18,-165.19"/>
</g>
<!-- Node5 -->
<g id="node5" class="node">
<title>Node5</title>
<g id="a_node5"><a xlink:title=" ">
<polygon fill="white" stroke="#666666" points="200,-195 101,-195 101,-176 200,-176 200,-195"/>
<text text-anchor="middle" x="150.5" y="-183" font-family="Helvetica,sans-Serif" font-size="10.00">boost::noncopyable</text>
</a>
</g>
</g>
<!-- Node5&#45;&gt;Node3 -->
<g id="edge4" class="edge">
<title>Node5&#45;&gt;Node3</title>
<path fill="none" stroke="#8b1a1a" d="M133.15,-167.78C123.75,-158.72 112.52,-147.9 104.78,-140.44"/>
<polygon fill="#8b1a1a" stroke="#8b1a1a" points="130.7,-170.28 140.33,-174.7 135.56,-165.24 130.7,-170.28"/>
</g>
</g>
</svg>
