<?xml version="1.0" encoding="UTF-8" standalone="no"?>
<!DOCTYPE svg PUBLIC "-//W3C//DTD SVG 1.1//EN"
 "http://www.w3.org/Graphics/SVG/1.1/DTD/svg11.dtd">
<!-- Generated by graphviz version 7.0.5 (20221223.1930)
 -->
<!-- Title: UioTrafficGen Pages: 1 -->
<!--zoomable 281 -->
<svg id="main" version="1.1" xmlns="http://www.w3.org/2000/svg" xmlns:xlink="http://www.w3.org/1999/xlink" xml:space="preserve" onload="init(evt)">
<style type="text/css"><![CDATA[
.edge:hover path { stroke: red; }
.edge:hover polygon { stroke: red; fill: red; }
]]></style>
<script type="text/javascript"><![CDATA[
var edges = document.getElementsByTagName('g');
if (edges && edges.length) {
  for (var i=0;i<edges.length;i++) {
    if (edges[i].id.substr(0,4)=='edge') {
      edges[i].setAttribute('class','edge');
    }
  }
}
]]></script>
        <defs>
                <circle id="rim" cx="0" cy="0" r="7"/>
                <circle id="rim2" cx="0" cy="0" r="3.5"/>
                <g id="zoomPlus">
                        <use xlink:href="#rim" fill="#404040">
                                <set attributeName="fill" to="#808080" begin="zoomplus.mouseover" end="zoomplus.mouseout"/>
                        </use>
                        <path d="M-4,0h8M0,-4v8" fill="none" stroke="white" stroke-width="1.5" pointer-events="none"/>
                </g>
                <g id="zoomMin">
                        <use xlink:href="#rim" fill="#404040">
                                <set attributeName="fill" to="#808080" begin="zoomminus.mouseover" end="zoomminus.mouseout"/>
                        </use>
                        <path d="M-4,0h8" fill="none" stroke="white" stroke-width="1.5" pointer-events="none"/>
                </g>
                <g id="dirArrow">
                        <path fill="none" stroke="white" stroke-width="1.5" d="M0,-3.0v7 M-2.5,-0.5L0,-3.0L2.5,-0.5"/>
                </g>
               <g id="resetDef">
                       <use xlink:href="#rim2" fill="#404040">
                               <set attributeName="fill" to="#808080" begin="reset.mouseover" end="reset.mouseout"/>
                       </use>
               </g>
        </defs>

<script type="text/javascript">
var viewWidth = 659;
var viewHeight = 281;
var sectionId = 'dynsection-1';
</script>
<script xlink:href="svgpan.js"/>
<svg id="graph" class="graph">
<g id="viewport">
<title>UioTrafficGen</title>
<!-- Node1 -->
<g id="node1" class="node">
<title>Node1</title>
<g id="a_node1"><a xlink:title="Interface to LFSR core of the demo application.">
<polygon fill="#999999" stroke="#666666" points="651,-148 575,-148 575,-129 651,-129 651,-148"/>
<text text-anchor="middle" x="613" y="-136" font-family="Helvetica,sans-Serif" font-size="10.00">UioTrafficGen</text>
</a>
</g>
</g>
<!-- Node2 -->
<g id="node2" class="node">
<title>Node2</title>
<g id="a_node2"><a xlink:href="classudmaio_1_1_uio_if.html" target="_top" xlink:title="UIO Interface implementing bus access.">
<polygon fill="white" stroke="#666666" points="436,-255 388,-255 388,-236 436,-236 436,-255"/>
<text text-anchor="middle" x="412" y="-243" font-family="Helvetica,sans-Serif" font-size="10.00">UioIf32</text>
</a>
</g>
</g>
<!-- Node2&#45;&gt;Node1 -->
<g id="edge1" class="edge">
<title>Node2&#45;&gt;Node1</title>
<path fill="none" stroke="#8b1a1a" d="M447.12,-238.92C459.03,-236.09 472.33,-232.3 484,-227.5 532.31,-207.63 580.53,-167.13 601.34,-148.41"/>
<polygon fill="#8b1a1a" stroke="#8b1a1a" points="446.71,-235.43 437.71,-241.02 448.23,-242.26 446.71,-235.43"/>
</g>
<!-- Node3 -->
<g id="node3" class="node">
<title>Node3</title>
<g id="a_node3"><a xlink:href="classudmaio_1_1_uio_if_base.html" target="_top" xlink:title="Base class for UIO interfaces.">
<polygon fill="white" stroke="#666666" points="284,-255 188,-255 188,-236 284,-236 284,-255"/>
<text text-anchor="middle" x="236" y="-243" font-family="Helvetica,sans-Serif" font-size="10.00">udmaio::UioIfBase</text>
</a>
</g>
</g>
<!-- Node3&#45;&gt;Node2 -->
<g id="edge2" class="edge">
<title>Node3&#45;&gt;Node2</title>
<path fill="none" stroke="#63b8ff" d="M295.45,-245.5C327.07,-245.5 364.35,-245.5 387.84,-245.5"/>
<polygon fill="#63b8ff" stroke="#63b8ff" points="295.6,-242 285.6,-245.5 295.6,-249 295.6,-242"/>
</g>
<!-- Node4 -->
<g id="node4" class="node">
<title>Node4</title>
<g id="a_node4"><a xlink:title=" ">
<polygon fill="white" stroke="#666666" points="99,-273 0,-273 0,-254 99,-254 99,-273"/>
<text text-anchor="middle" x="49.5" y="-261" font-family="Helvetica,sans-Serif" font-size="10.00">boost::noncopyable</text>
</a>
</g>
</g>
<!-- Node4&#45;&gt;Node3 -->
<g id="edge3" class="edge">
<title>Node4&#45;&gt;Node3</title>
<path fill="none" stroke="#8b1a1a" d="M110.66,-257.63C135.67,-255.19 164.27,-252.4 187.73,-250.11"/>
<polygon fill="#8b1a1a" stroke="#8b1a1a" points="110.58,-254.12 100.96,-258.58 111.26,-261.09 110.58,-254.12"/>
</g>
<!-- Node5 -->
<g id="node5" class="node">
<title>Node5</title>
<g id="a_node5"><a xlink:href="structudmaio_1_1_uio_region.html" target="_top" xlink:title="General&#45;purpose struct to define a memory area.">
<polygon fill="white" stroke="#666666" points="98.5,-236 0.5,-236 0.5,-217 98.5,-217 98.5,-236"/>
<text text-anchor="middle" x="49.5" y="-224" font-family="Helvetica,sans-Serif" font-size="10.00">udmaio::UioRegion</text>
</a>
</g>
</g>
<!-- Node5&#45;&gt;Node3 -->
<g id="edge4" class="edge">
<title>Node5&#45;&gt;Node3</title>
<path fill="none" stroke="#9a32cd" stroke-dasharray="5,2" d="M110.23,-232.65C135.37,-235.24 164.2,-238.21 187.8,-240.64"/>
<polygon fill="#9a32cd" stroke="#9a32cd" points="110.79,-229.19 100.48,-231.65 110.07,-236.15 110.79,-229.19"/>
<text text-anchor="middle" x="134" y="-239.5" font-family="Helvetica,sans-Serif" font-size="10.00"> _region</text>
</g>
<!-- Node6 -->
<g id="node6" class="node">
<title>Node6</title>
<g id="a_node6"><a xlink:href="classudmaio_1_1_reg_accessor_array.html" target="_top" xlink:title=" ">
<polygon fill="white" stroke="#666666" points="479,-218 345,-218 345,-177 479,-177 479,-218"/>
<text text-anchor="start" x="353" y="-206" font-family="Helvetica,sans-Serif" font-size="10.00">udmaio::RegAccessorArray</text>
<text text-anchor="start" x="353" y="-195" font-family="Helvetica,sans-Serif" font-size="10.00">&lt; UioTrafficGen::StControl,</text>
<text text-anchor="middle" x="412" y="-184" font-family="Helvetica,sans-Serif" font-size="10.00"> 0x30 &gt;</text>
</a>
</g>
</g>
<!-- Node6&#45;&gt;Node1 -->
<g id="edge5" class="edge">
<title>Node6&#45;&gt;Node1</title>
<path fill="none" stroke="#9a32cd" stroke-dasharray="5,2" d="M489.95,-174.69C520.57,-165.61 554.19,-155.64 578.38,-148.47"/>
<polygon fill="#9a32cd" stroke="#9a32cd" points="489.31,-171.23 480.72,-177.42 491.3,-177.94 489.31,-171.23"/>
<text text-anchor="middle" x="529.5" y="-172.5" font-family="Helvetica,sans-Serif" font-size="10.00"> stControl</text>
</g>
<!-- Node7 -->
<g id="node7" class="node">
<title>Node7</title>
<g id="a_node7"><a xlink:href="classudmaio_1_1_reg_accessor_base.html" target="_top" xlink:title="Base class implementing register access. Only used by subclasses, not used directly.">
<polygon fill="white" stroke="#666666" points="303,-212.5 169,-212.5 169,-182.5 303,-182.5 303,-212.5"/>
<text text-anchor="start" x="177" y="-200.5" font-family="Helvetica,sans-Serif" font-size="10.00">udmaio::RegAccessorBase</text>
<text text-anchor="middle" x="236" y="-189.5" font-family="Helvetica,sans-Serif" font-size="10.00">&lt; C, U &gt;</text>
</a>
</g>
</g>
<!-- Node7&#45;&gt;Node6 -->
<g id="edge6" class="edge">
<title>Node7&#45;&gt;Node6</title>
<path fill="none" stroke="#63b8ff" d="M314.52,-197.5C324.56,-197.5 334.78,-197.5 344.62,-197.5"/>
<polygon fill="#63b8ff" stroke="#63b8ff" points="314.79,-194 304.79,-197.5 314.79,-201 314.79,-194"/>
</g>
<!-- Node8 -->
<g id="node8" class="node">
<title>Node8</title>
<g id="a_node8"><a xlink:href="classudmaio_1_1_reg_accessor_array.html" target="_top" xlink:title=" ">
<polygon fill="white" stroke="#666666" points="479,-159 345,-159 345,-118 479,-118 479,-159"/>
<text text-anchor="start" x="353" y="-147" font-family="Helvetica,sans-Serif" font-size="10.00">udmaio::RegAccessorArray</text>
<text text-anchor="start" x="353" y="-136" font-family="Helvetica,sans-Serif" font-size="10.00">&lt; UioTrafficGen::StConfig,</text>
<text text-anchor="middle" x="412" y="-125" font-family="Helvetica,sans-Serif" font-size="10.00"> 0x34 &gt;</text>
</a>
</g>
</g>
<!-- Node8&#45;&gt;Node1 -->
<g id="edge7" class="edge">
<title>Node8&#45;&gt;Node1</title>
<path fill="none" stroke="#9a32cd" stroke-dasharray="5,2" d="M490.62,-138.5C519.54,-138.5 551.06,-138.5 574.72,-138.5"/>
<polygon fill="#9a32cd" stroke="#9a32cd" points="490.78,-135 480.78,-138.5 490.78,-142 490.78,-135"/>
<text text-anchor="middle" x="529.5" y="-141.5" font-family="Helvetica,sans-Serif" font-size="10.00"> stConfig</text>
</g>
<!-- Node9 -->
<g id="node9" class="node">
<title>Node9</title>
<g id="a_node9"><a xlink:href="classudmaio_1_1_reg_accessor_base.html" target="_top" xlink:title="Base class implementing register access. Only used by subclasses, not used directly.">
<polygon fill="white" stroke="#666666" points="303,-153.5 169,-153.5 169,-123.5 303,-123.5 303,-153.5"/>
<text text-anchor="start" x="177" y="-141.5" font-family="Helvetica,sans-Serif" font-size="10.00">udmaio::RegAccessorBase</text>
<text text-anchor="middle" x="236" y="-130.5" font-family="Helvetica,sans-Serif" font-size="10.00">&lt; C, U &gt;</text>
</a>
</g>
</g>
<!-- Node9&#45;&gt;Node8 -->
<g id="edge8" class="edge">
<title>Node9&#45;&gt;Node8</title>
<path fill="none" stroke="#63b8ff" d="M314.52,-138.5C324.56,-138.5 334.78,-138.5 344.62,-138.5"/>
<polygon fill="#63b8ff" stroke="#63b8ff" points="314.79,-135 304.79,-138.5 314.79,-142 314.79,-135"/>
</g>
<!-- Node10 -->
<g id="node10" class="node">
<title>Node10</title>
<g id="a_node10"><a xlink:href="classudmaio_1_1_reg_accessor_array.html" target="_top" xlink:title=" ">
<polygon fill="white" stroke="#666666" points="479,-100 345,-100 345,-59 479,-59 479,-100"/>
<text text-anchor="start" x="353" y="-88" font-family="Helvetica,sans-Serif" font-size="10.00">udmaio::RegAccessorArray</text>
<text text-anchor="start" x="353" y="-77" font-family="Helvetica,sans-Serif" font-size="10.00">&lt; UioTrafficGen::TrLength,</text>
<text text-anchor="middle" x="412" y="-66" font-family="Helvetica,sans-Serif" font-size="10.00"> 0x38 &gt;</text>
</a>
</g>
</g>
<!-- Node10&#45;&gt;Node1 -->
<g id="edge9" class="edge">
<title>Node10&#45;&gt;Node1</title>
<path fill="none" stroke="#9a32cd" stroke-dasharray="5,2" d="M489.95,-102.31C520.57,-111.39 554.19,-121.36 578.38,-128.53"/>
<polygon fill="#9a32cd" stroke="#9a32cd" points="491.3,-99.06 480.72,-99.58 489.31,-105.77 491.3,-99.06"/>
<text text-anchor="middle" x="529.5" y="-123.5" font-family="Helvetica,sans-Serif" font-size="10.00"> trLength</text>
</g>
<!-- Node11 -->
<g id="node11" class="node">
<title>Node11</title>
<g id="a_node11"><a xlink:href="classudmaio_1_1_reg_accessor_base.html" target="_top" xlink:title="Base class implementing register access. Only used by subclasses, not used directly.">
<polygon fill="white" stroke="#666666" points="303,-94.5 169,-94.5 169,-64.5 303,-64.5 303,-94.5"/>
<text text-anchor="start" x="177" y="-82.5" font-family="Helvetica,sans-Serif" font-size="10.00">udmaio::RegAccessorBase</text>
<text text-anchor="middle" x="236" y="-71.5" font-family="Helvetica,sans-Serif" font-size="10.00">&lt; C, U &gt;</text>
</a>
</g>
</g>
<!-- Node11&#45;&gt;Node10 -->
<g id="edge10" class="edge">
<title>Node11&#45;&gt;Node10</title>
<path fill="none" stroke="#63b8ff" d="M314.52,-79.5C324.56,-79.5 334.78,-79.5 344.62,-79.5"/>
<polygon fill="#63b8ff" stroke="#63b8ff" points="314.79,-76 304.79,-79.5 314.79,-83 314.79,-76"/>
</g>
<!-- Node12 -->
<g id="node12" class="node">
<title>Node12</title>
<g id="a_node12"><a xlink:href="classudmaio_1_1_reg_accessor_array.html" target="_top" xlink:title=" ">
<polygon fill="white" stroke="#666666" points="484,-41 340,-41 340,0 484,0 484,-41"/>
<text text-anchor="start" x="348" y="-29" font-family="Helvetica,sans-Serif" font-size="10.00">udmaio::RegAccessorArray</text>
<text text-anchor="start" x="348" y="-18" font-family="Helvetica,sans-Serif" font-size="10.00">&lt; UioTrafficGen::ExtTrLength,</text>
<text text-anchor="middle" x="412" y="-7" font-family="Helvetica,sans-Serif" font-size="10.00"> 0x50 &gt;</text>
</a>
</g>
</g>
<!-- Node12&#45;&gt;Node1 -->
<g id="edge11" class="edge">
<title>Node12&#45;&gt;Node1</title>
<path fill="none" stroke="#9a32cd" stroke-dasharray="5,2" d="M474.99,-46.05C501.3,-58.15 531.68,-73.82 557,-91.5 573.68,-103.15 591.28,-118.87 601.95,-128.85"/>
<polygon fill="#9a32cd" stroke="#9a32cd" points="476.68,-42.98 466.13,-42.05 473.8,-49.36 476.68,-42.98"/>
<text text-anchor="middle" x="529.5" y="-94.5" font-family="Helvetica,sans-Serif" font-size="10.00"> extTrLength</text>
</g>
<!-- Node13 -->
<g id="node13" class="node">
<title>Node13</title>
<g id="a_node13"><a xlink:href="classudmaio_1_1_reg_accessor_base.html" target="_top" xlink:title="Base class implementing register access. Only used by subclasses, not used directly.">
<polygon fill="white" stroke="#666666" points="303,-35.5 169,-35.5 169,-5.5 303,-5.5 303,-35.5"/>
<text text-anchor="start" x="177" y="-23.5" font-family="Helvetica,sans-Serif" font-size="10.00">udmaio::RegAccessorBase</text>
<text text-anchor="middle" x="236" y="-12.5" font-family="Helvetica,sans-Serif" font-size="10.00">&lt; C, U &gt;</text>
</a>
</g>
</g>
<!-- Node13&#45;&gt;Node12 -->
<g id="edge12" class="edge">
<title>Node13&#45;&gt;Node12</title>
<path fill="none" stroke="#63b8ff" d="M314.57,-20.5C322.93,-20.5 331.41,-20.5 339.69,-20.5"/>
<polygon fill="#63b8ff" stroke="#63b8ff" points="314.79,-17 304.79,-20.5 314.79,-24 314.79,-17"/>
</g>
</g>
</svg>
        <g id="navigator" transform="translate(0 0)" fill="#404254">
                <rect fill="#f2f5e9" fill-opacity="0.5" stroke="#606060" stroke-width=".5" x="0" y="0" width="60" height="60"/>
                <use id="zoomplus" xlink:href="#zoomPlus" x="17" y="9" onmousedown="handleZoom(evt,'in')"/>
                <use id="zoomminus" xlink:href="#zoomMin" x="42" y="9" onmousedown="handleZoom(evt,'out')"/>
                <use id="reset" xlink:href="#resetDef" x="30" y="36" onmousedown="handleReset()"/>
                <g id="arrowUp" xlink:href="#dirArrow" transform="translate(30 24)" onmousedown="handlePan(0,-1)">
                  <use xlink:href="#rim" fill="#404040">
                        <set attributeName="fill" to="#808080" begin="arrowUp.mouseover" end="arrowUp.mouseout"/>
                  </use>
                  <path fill="none" stroke="white" stroke-width="1.5" d="M0,-3.0v7 M-2.5,-0.5L0,-3.0L2.5,-0.5"/>
                </g>
                <g id="arrowRight" xlink:href="#dirArrow" transform="rotate(90) translate(36 -43)" onmousedown="handlePan(1,0)">
                  <use xlink:href="#rim" fill="#404040">
                        <set attributeName="fill" to="#808080" begin="arrowRight.mouseover" end="arrowRight.mouseout"/>
                  </use>
                  <path fill="none" stroke="white" stroke-width="1.5" d="M0,-3.0v7 M-2.5,-0.5L0,-3.0L2.5,-0.5"/>
                </g>
                <g id="arrowDown" xlink:href="#dirArrow" transform="rotate(180) translate(-30 -48)" onmousedown="handlePan(0,1)">
                  <use xlink:href="#rim" fill="#404040">
                        <set attributeName="fill" to="#808080" begin="arrowDown.mouseover" end="arrowDown.mouseout"/>
                  </use>
                  <path fill="none" stroke="white" stroke-width="1.5" d="M0,-3.0v7 M-2.5,-0.5L0,-3.0L2.5,-0.5"/>
                </g>
                <g id="arrowLeft" xlink:href="#dirArrow" transform="rotate(270) translate(-36 17)" onmousedown="handlePan(-1,0)">
                  <use xlink:href="#rim" fill="#404040">
                        <set attributeName="fill" to="#808080" begin="arrowLeft.mouseover" end="arrowLeft.mouseout"/>
                  </use>
                  <path fill="none" stroke="white" stroke-width="1.5" d="M0,-3.0v7 M-2.5,-0.5L0,-3.0L2.5,-0.5"/>
                </g>
        </g>
        <svg viewBox="0 0 15 15" width="100%" height="30px" preserveAspectRatio="xMaxYMin meet">
         <g id="arrow_out" transform="scale(0.3 0.3)">
          <a xlink:href="class_uio_traffic_gen__coll__graph_org.svg" target="_base">
           <rect id="button" ry="5" rx="5" y="6" x="6" height="38" width="38"
                fill="#f2f5e9" fill-opacity="0.5" stroke="#606060" stroke-width="1.0"/>
           <path id="arrow"
             d="M 11.500037,31.436501 C 11.940474,20.09759 22.043105,11.32322 32.158766,21.979434 L 37.068811,17.246167 C 37.068811,17.246167 37.088388,32 37.088388,32 L 22.160133,31.978069 C 22.160133,31.978069 26.997745,27.140456 26.997745,27.140456 C 18.528582,18.264221 13.291696,25.230495 11.500037,31.436501 z"
             style="fill:#404040;"/>
          </a>
         </g>
        </svg>
</svg>
