<?xml version="1.0" encoding="UTF-8" standalone="no"?>
<!DOCTYPE svg PUBLIC "-//W3C//DTD SVG 1.1//EN"
 "http://www.w3.org/Graphics/SVG/1.1/DTD/svg11.dtd">
<!-- Generated by graphviz version 7.0.5 (20221223.1930)
 -->
<!-- Title: udmaio::DataHandlerAbstract Pages: 1 -->
<svg width="246pt" height="137pt"
 viewBox="0.00 0.00 245.50 137.00" xmlns="http://www.w3.org/2000/svg" xmlns:xlink="http://www.w3.org/1999/xlink">
<g id="graph0" class="graph" transform="scale(1 1) rotate(0) translate(4 133)">
<title>udmaio::DataHandlerAbstract</title>
<!-- Node1 -->
<g id="node1" class="node">
<title>Node1</title>
<g id="a_node1"><a xlink:title="Base class to implement a DMA data reception handler.">
<polygon fill="#999999" stroke="#666666" points="181,-74 38,-74 38,-55 181,-55 181,-74"/>
<text text-anchor="middle" x="109.5" y="-62" font-family="Helvetica,sans-Serif" font-size="10.00">udmaio::DataHandlerAbstract</text>
</a>
</g>
</g>
<!-- Node3 -->
<g id="node3" class="node">
<title>Node3</title>
<g id="a_node3"><a xlink:href="class_data_handler_print.html" target="_top" xlink:title="DataHandler implementation that checks LFSR data and prints status / stats.">
<polygon fill="white" stroke="#666666" points="91,-19 0,-19 0,0 91,0 91,-19"/>
<text text-anchor="middle" x="45.5" y="-7" font-family="Helvetica,sans-Serif" font-size="10.00">DataHandlerPrint</text>
</a>
</g>
</g>
<!-- Node1&#45;&gt;Node3 -->
<g id="edge2" class="edge">
<title>Node1&#45;&gt;Node3</title>
<path fill="none" stroke="#63b8ff" d="M90.02,-47.37C78.9,-38.16 65.4,-26.98 56.2,-19.36"/>
<polygon fill="#63b8ff" stroke="#63b8ff" points="87.54,-49.86 97.48,-53.54 92.01,-44.47 87.54,-49.86"/>
</g>
<!-- Node4 -->
<g id="node4" class="node">
<title>Node4</title>
<g id="a_node4"><a xlink:href="classudmaio_1_1_data_handler_sync.html" target="_top" xlink:title="Synchronous data handler with blocking read interface.">
<polygon fill="white" stroke="#666666" points="237.5,-19 109.5,-19 109.5,0 237.5,0 237.5,-19"/>
<text text-anchor="middle" x="173.5" y="-7" font-family="Helvetica,sans-Serif" font-size="10.00">udmaio::DataHandlerSync</text>
</a>
</g>
</g>
<!-- Node1&#45;&gt;Node4 -->
<g id="edge3" class="edge">
<title>Node1&#45;&gt;Node4</title>
<path fill="none" stroke="#63b8ff" d="M128.98,-47.37C140.1,-38.16 153.6,-26.98 162.8,-19.36"/>
<polygon fill="#63b8ff" stroke="#63b8ff" points="126.99,-44.47 121.52,-53.54 131.46,-49.86 126.99,-44.47"/>
</g>
<!-- Node2 -->
<g id="node2" class="node">
<title>Node2</title>
<g id="a_node2"><a xlink:title=" ">
<polygon fill="white" stroke="#666666" points="159,-129 60,-129 60,-110 159,-110 159,-129"/>
<text text-anchor="middle" x="109.5" y="-117" font-family="Helvetica,sans-Serif" font-size="10.00">boost::noncopyable</text>
</a>
</g>
</g>
<!-- Node2&#45;&gt;Node1 -->
<g id="edge1" class="edge">
<title>Node2&#45;&gt;Node1</title>
<path fill="none" stroke="#8b1a1a" d="M109.5,-98.35C109.5,-90.1 109.5,-80.97 109.5,-74.44"/>
<polygon fill="#8b1a1a" stroke="#8b1a1a" points="106,-98.23 109.5,-108.23 113,-98.23 106,-98.23"/>
</g>
</g>
</svg>
