<?xml version="1.0" encoding="UTF-8" standalone="no"?>
<!DOCTYPE svg PUBLIC "-//W3C//DTD SVG 1.1//EN"
 "http://www.w3.org/Graphics/SVG/1.1/DTD/svg11.dtd">
<!-- Generated by graphviz version 7.0.5 (20221223.1930)
 -->
<!-- Title: udmaio::DataHandlerSync Pages: 1 -->
<svg width="1379pt" height="331pt"
 viewBox="0.00 0.00 1379.00 331.00" xmlns="http://www.w3.org/2000/svg" xmlns:xlink="http://www.w3.org/1999/xlink">
<g id="graph0" class="graph" transform="scale(1 1) rotate(0) translate(4 327)">
<title>udmaio::DataHandlerSync</title>
<!-- Node1 -->
<g id="node1" class="node">
<title>Node1</title>
<g id="a_node1"><a xlink:title="Synchronous data handler with blocking read interface.">
<polygon fill="#999999" stroke="#666666" points="1371,-109.5 1243,-109.5 1243,-90.5 1371,-90.5 1371,-109.5"/>
<text text-anchor="middle" x="1307" y="-97.5" font-family="Helvetica,sans-Serif" font-size="10.00">udmaio::DataHandlerSync</text>
</a>
</g>
</g>
<!-- Node2 -->
<g id="node2" class="node">
<title>Node2</title>
<g id="a_node2"><a xlink:href="classudmaio_1_1_data_handler_abstract.html" target="_top" xlink:title="Base class to implement a DMA data reception handler.">
<polygon fill="white" stroke="#666666" points="1173,-172.5 1030,-172.5 1030,-153.5 1173,-153.5 1173,-172.5"/>
<text text-anchor="middle" x="1101.5" y="-160.5" font-family="Helvetica,sans-Serif" font-size="10.00">udmaio::DataHandlerAbstract</text>
</a>
</g>
</g>
<!-- Node2&#45;&gt;Node1 -->
<g id="edge1" class="edge">
<title>Node2&#45;&gt;Node1</title>
<path fill="none" stroke="#63b8ff" d="M1145.58,-149.66C1183.97,-137.78 1239.28,-120.65 1273.91,-109.94"/>
<polygon fill="#63b8ff" stroke="#63b8ff" points="1144.71,-146.27 1136.19,-152.57 1146.78,-152.96 1144.71,-146.27"/>
</g>
<!-- Node3 -->
<g id="node3" class="node">
<title>Node3</title>
<g id="a_node3"><a xlink:href="structudmaio_1_1_logger.html" target="_top" xlink:title=" ">
<polygon fill="white" stroke="#666666" points="91,-316.5 8,-316.5 8,-297.5 91,-297.5 91,-316.5"/>
<text text-anchor="middle" x="49.5" y="-304.5" font-family="Helvetica,sans-Serif" font-size="10.00">udmaio::Logger</text>
</a>
</g>
</g>
<!-- Node3&#45;&gt;Node2 -->
<g id="edge2" class="edge">
<title>Node3&#45;&gt;Node2</title>
<path fill="none" stroke="#63b8ff" d="M102.25,-315.03C132.31,-319.02 170.96,-323 205.5,-323 205.5,-323 205.5,-323 901,-323 997.79,-323 1074.4,-206.97 1095.02,-172.53"/>
<polygon fill="#63b8ff" stroke="#63b8ff" points="103.06,-311.61 92.67,-313.71 102.11,-318.54 103.06,-311.61"/>
</g>
<!-- Node6 -->
<g id="node6" class="node">
<title>Node6</title>
<g id="a_node6"><a xlink:href="classudmaio_1_1_uio_if.html" target="_top" xlink:title="Base class for UIO interfaces.">
<polygon fill="white" stroke="#666666" points="243.5,-250.5 169.5,-250.5 169.5,-231.5 243.5,-231.5 243.5,-250.5"/>
<text text-anchor="middle" x="206.5" y="-238.5" font-family="Helvetica,sans-Serif" font-size="10.00">udmaio::UioIf</text>
</a>
</g>
</g>
<!-- Node3&#45;&gt;Node6 -->
<g id="edge6" class="edge">
<title>Node3&#45;&gt;Node6</title>
<path fill="none" stroke="#63b8ff" d="M83.98,-292.74C113.6,-280.13 156.05,-262.06 182.14,-250.95"/>
<polygon fill="#63b8ff" stroke="#63b8ff" points="82.93,-289.39 75.1,-296.53 85.67,-295.83 82.93,-289.39"/>
</g>
<!-- Node4 -->
<g id="node4" class="node">
<title>Node4</title>
<g id="a_node4"><a xlink:title=" ">
<polygon fill="white" stroke="#666666" points="99,-151.5 0,-151.5 0,-132.5 99,-132.5 99,-151.5"/>
<text text-anchor="middle" x="49.5" y="-139.5" font-family="Helvetica,sans-Serif" font-size="10.00">boost::noncopyable</text>
</a>
</g>
</g>
<!-- Node4&#45;&gt;Node2 -->
<g id="edge3" class="edge">
<title>Node4&#45;&gt;Node2</title>
<path fill="none" stroke="#8b1a1a" d="M80.93,-127.3C111.63,-113.84 160.75,-96 205.5,-96 205.5,-96 205.5,-96 901,-96 971.88,-96 1049.9,-134.48 1083.54,-153.11"/>
<polygon fill="#8b1a1a" stroke="#8b1a1a" points="79.54,-124.08 71.87,-131.39 82.43,-130.46 79.54,-124.08"/>
</g>
<!-- Node4&#45;&gt;Node6 -->
<g id="edge7" class="edge">
<title>Node4&#45;&gt;Node6</title>
<path fill="none" stroke="#8b1a1a" d="M75.57,-158.01C107.97,-178.7 163.37,-214.09 190.13,-231.19"/>
<polygon fill="#8b1a1a" stroke="#8b1a1a" points="77.52,-155.1 67.2,-152.67 73.75,-161 77.52,-155.1"/>
</g>
<!-- Node12 -->
<g id="node12" class="node">
<title>Node12</title>
<g id="a_node12"><a xlink:href="classudmaio_1_1_dma_buffer_abstract.html" target="_top" xlink:title="Base class for DMA data buffer.">
<polygon fill="white" stroke="#666666" points="397,-151.5 262,-151.5 262,-132.5 397,-132.5 397,-151.5"/>
<text text-anchor="middle" x="329.5" y="-139.5" font-family="Helvetica,sans-Serif" font-size="10.00">udmaio::DmaBufferAbstract</text>
</a>
</g>
</g>
<!-- Node4&#45;&gt;Node12 -->
<g id="edge16" class="edge">
<title>Node4&#45;&gt;Node12</title>
<path fill="none" stroke="#8b1a1a" d="M110.74,-142C155.16,-142 215.59,-142 261.52,-142"/>
<polygon fill="#8b1a1a" stroke="#8b1a1a" points="110.76,-138.5 100.76,-142 110.76,-145.5 110.76,-138.5"/>
</g>
<!-- Node5 -->
<g id="node5" class="node">
<title>Node5</title>
<g id="a_node5"><a xlink:href="classudmaio_1_1_uio_axi_dma_if.html" target="_top" xlink:title="Interface to AXI DMA Core.">
<polygon fill="white" stroke="#666666" points="547,-288.5 440,-288.5 440,-269.5 547,-269.5 547,-288.5"/>
<text text-anchor="middle" x="493.5" y="-276.5" font-family="Helvetica,sans-Serif" font-size="10.00">udmaio::UioAxiDmaIf</text>
</a>
</g>
</g>
<!-- Node5&#45;&gt;Node2 -->
<g id="edge4" class="edge">
<title>Node5&#45;&gt;Node2</title>
<path fill="none" stroke="#9a32cd" stroke-dasharray="5,2" d="M558.77,-272.84C649.12,-263.45 818.47,-243.18 960,-211 1001.98,-201.46 1048.98,-183.94 1076.58,-172.91"/>
<polygon fill="#9a32cd" stroke="#9a32cd" points="558.45,-269.35 548.86,-273.86 559.16,-276.32 558.45,-269.35"/>
<text text-anchor="middle" x="796.5" y="-248" font-family="Helvetica,sans-Serif" font-size="10.00"> _dma</text>
</g>
<!-- Node6&#45;&gt;Node5 -->
<g id="edge5" class="edge">
<title>Node6&#45;&gt;Node5</title>
<path fill="none" stroke="#63b8ff" d="M254.95,-250.82C257.33,-251.24 259.69,-251.63 262,-252 322.68,-261.66 392.86,-269.39 439.69,-274.07"/>
<polygon fill="#63b8ff" stroke="#63b8ff" points="255.73,-247.4 245.26,-249.03 254.46,-254.29 255.73,-247.4"/>
</g>
<!-- Node9 -->
<g id="node9" class="node">
<title>Node9</title>
<g id="a_node9"><a xlink:href="classudmaio_1_1_uio_mem_sgdma.html" target="_top" xlink:title="Interface to AXI DMA scatter&#45;gather buffers &amp; descriptors Uses a UioIf to access DMA descriptor memor...">
<polygon fill="white" stroke="#666666" points="960,-201.5 840,-201.5 840,-182.5 960,-182.5 960,-201.5"/>
<text text-anchor="middle" x="900" y="-189.5" font-family="Helvetica,sans-Serif" font-size="10.00">udmaio::UioMemSgdma</text>
</a>
</g>
</g>
<!-- Node6&#45;&gt;Node9 -->
<g id="edge11" class="edge">
<title>Node6&#45;&gt;Node9</title>
<path fill="none" stroke="#63b8ff" d="M255.23,-242.02C350.33,-243.46 570.05,-243.83 753,-222 789.49,-217.65 830.42,-208.89 859.63,-201.96"/>
<polygon fill="#63b8ff" stroke="#63b8ff" points="255.29,-238.52 245.24,-241.85 255.18,-245.52 255.29,-238.52"/>
</g>
<!-- Node11 -->
<g id="node11" class="node">
<title>Node11</title>
<g id="a_node11"><a xlink:href="classudmaio_1_1_reg_accessor_base.html" target="_top" xlink:title="Base class implementing register access. Only used by subclasses, not used directly.">
<polygon fill="white" stroke="#666666" points="572,-209.5 415,-209.5 415,-190.5 572,-190.5 572,-209.5"/>
<text text-anchor="middle" x="493.5" y="-197.5" font-family="Helvetica,sans-Serif" font-size="10.00">udmaio::RegAccessorBase&lt; C &gt;</text>
</a>
</g>
</g>
<!-- Node6&#45;&gt;Node11 -->
<g id="edge14" class="edge">
<title>Node6&#45;&gt;Node11</title>
<path fill="none" stroke="#9a32cd" stroke-dasharray="5,2" d="M234.68,-226.2C243.2,-222.21 252.78,-218.35 262,-216 311.75,-203.31 369.38,-199.31 414.56,-198.48"/>
<polygon fill="#9a32cd" stroke="#9a32cd" points="233.33,-222.96 225.94,-230.55 236.45,-229.23 233.33,-222.96"/>
<text text-anchor="middle" x="329.5" y="-219" font-family="Helvetica,sans-Serif" font-size="10.00"> _if</text>
</g>
<!-- Node7 -->
<g id="node7" class="node">
<title>Node7</title>
<g id="a_node7"><a xlink:href="structudmaio_1_1_uio_region.html" target="_top" xlink:title="General&#45;purpose struct to define a memory area.">
<polygon fill="white" stroke="#666666" points="98.5,-250.5 0.5,-250.5 0.5,-231.5 98.5,-231.5 98.5,-250.5"/>
<text text-anchor="middle" x="49.5" y="-238.5" font-family="Helvetica,sans-Serif" font-size="10.00">udmaio::UioRegion</text>
</a>
</g>
</g>
<!-- Node7&#45;&gt;Node6 -->
<g id="edge8" class="edge">
<title>Node7&#45;&gt;Node6</title>
<path fill="none" stroke="#9a32cd" stroke-dasharray="5,2" d="M110.17,-241C130.05,-241 151.59,-241 169.16,-241"/>
<polygon fill="#9a32cd" stroke="#9a32cd" points="110.21,-237.5 100.21,-241 110.21,-244.5 110.21,-237.5"/>
<text text-anchor="middle" x="134" y="-244" font-family="Helvetica,sans-Serif" font-size="10.00"> _region</text>
</g>
<!-- Node8 -->
<g id="node8" class="node">
<title>Node8</title>
<g id="a_node8"><a xlink:href="structaxi__dma_1_1block__template.html" target="_top" xlink:title="Template class for the axi_dma block, containing accessors for all its registers.">
<polygon fill="white" stroke="#666666" points="244,-294.5 169,-294.5 169,-275.5 244,-275.5 244,-294.5"/>
<text text-anchor="middle" x="206.5" y="-282.5" font-family="Helvetica,sans-Serif" font-size="10.00">AxiDmaBlock</text>
</a>
</g>
</g>
<!-- Node8&#45;&gt;Node5 -->
<g id="edge9" class="edge">
<title>Node8&#45;&gt;Node5</title>
<path fill="none" stroke="#8b1a1a" d="M255.83,-283.98C306.82,-282.91 386.94,-281.22 439.6,-280.11"/>
<polygon fill="#8b1a1a" stroke="#8b1a1a" points="255.9,-280.48 245.98,-284.19 256.05,-287.48 255.9,-280.48"/>
</g>
<!-- Node9&#45;&gt;Node2 -->
<g id="edge10" class="edge">
<title>Node9&#45;&gt;Node2</title>
<path fill="none" stroke="#9a32cd" stroke-dasharray="5,2" d="M971.64,-181.73C991.23,-178.88 1012.47,-175.8 1031.94,-172.97"/>
<polygon fill="#9a32cd" stroke="#9a32cd" points="971.21,-178.26 961.81,-183.16 972.21,-185.18 971.21,-178.26"/>
<text text-anchor="middle" x="995" y="-183" font-family="Helvetica,sans-Serif" font-size="10.00"> _desc</text>
</g>
<!-- Node10 -->
<g id="node10" class="node">
<title>Node10</title>
<g id="a_node10"><a xlink:href="classudmaio_1_1_reg_accessor_array.html" target="_top" xlink:title=" ">
<polygon fill="white" stroke="#666666" points="753,-212.5 609,-212.5 609,-171.5 753,-171.5 753,-212.5"/>
<text text-anchor="start" x="617" y="-200.5" font-family="Helvetica,sans-Serif" font-size="10.00">udmaio::RegAccessorArray</text>
<text text-anchor="start" x="617" y="-189.5" font-family="Helvetica,sans-Serif" font-size="10.00">&lt; S2mmDesc, 0, 1024, DESC</text>
<text text-anchor="middle" x="681" y="-178.5" font-family="Helvetica,sans-Serif" font-size="10.00">_ADDR_STEP &gt;</text>
</a>
</g>
</g>
<!-- Node10&#45;&gt;Node9 -->
<g id="edge12" class="edge">
<title>Node10&#45;&gt;Node9</title>
<path fill="none" stroke="#9a32cd" stroke-dasharray="5,2" d="M764.65,-192C789.59,-192 816.46,-192 839.57,-192"/>
<polygon fill="#9a32cd" stroke="#9a32cd" points="764.87,-188.5 754.87,-192 764.87,-195.5 764.87,-188.5"/>
<text text-anchor="middle" x="796.5" y="-195" font-family="Helvetica,sans-Serif" font-size="10.00"> descriptors</text>
</g>
<!-- Node11&#45;&gt;Node10 -->
<g id="edge13" class="edge">
<title>Node11&#45;&gt;Node10</title>
<path fill="none" stroke="#63b8ff" d="M583.68,-196.15C592.02,-195.79 600.4,-195.43 608.55,-195.08"/>
<polygon fill="#63b8ff" stroke="#63b8ff" points="583.71,-192.65 573.87,-196.58 584.02,-199.64 583.71,-192.65"/>
</g>
<!-- Node12&#45;&gt;Node2 -->
<g id="edge15" class="edge">
<title>Node12&#45;&gt;Node2</title>
<path fill="none" stroke="#9a32cd" stroke-dasharray="5,2" d="M408.81,-142C460.3,-142 529.16,-142 590,-142 590,-142 590,-142 901,-142 947.15,-142 998.97,-147.63 1038.23,-153.05"/>
<polygon fill="#9a32cd" stroke="#9a32cd" points="408.95,-138.5 398.95,-142 408.95,-145.5 408.95,-138.5"/>
<text text-anchor="middle" x="681" y="-145" font-family="Helvetica,sans-Serif" font-size="10.00"> _mem</text>
</g>
<!-- Node13 -->
<g id="node13" class="node">
<title>Node13</title>
<g id="a_node13"><a xlink:href="classudmaio_1_1_concurrent_queue.html" target="_top" xlink:title=" ">
<polygon fill="white" stroke="#666666" points="1165.5,-73 1037.5,-73 1037.5,-43 1165.5,-43 1165.5,-73"/>
<text text-anchor="start" x="1045.5" y="-61" font-family="Helvetica,sans-Serif" font-size="10.00">udmaio::ConcurrentQueue</text>
<text text-anchor="middle" x="1101.5" y="-50" font-family="Helvetica,sans-Serif" font-size="10.00">&lt; std::vector&lt; uint8_t &gt; &gt;</text>
</a>
</g>
</g>
<!-- Node13&#45;&gt;Node1 -->
<g id="edge17" class="edge">
<title>Node13&#45;&gt;Node1</title>
<path fill="none" stroke="#9a32cd" stroke-dasharray="5,2" d="M1176.74,-73.32C1203.72,-78.89 1233.48,-85.03 1257.64,-90.02"/>
<polygon fill="#9a32cd" stroke="#9a32cd" points="1177.76,-69.96 1167.26,-71.36 1176.34,-76.81 1177.76,-69.96"/>
<text text-anchor="middle" x="1208" y="-85" font-family="Helvetica,sans-Serif" font-size="10.00"> _queue</text>
</g>
<!-- Node14 -->
<g id="node14" class="node">
<title>Node14</title>
<g id="a_node14"><a xlink:title=" ">
<polygon fill="white" stroke="#666666" points="957,-30 843,-30 843,0 957,0 957,-30"/>
<text text-anchor="start" x="851" y="-18" font-family="Helvetica,sans-Serif" font-size="10.00">std::queue&lt; std::vector</text>
<text text-anchor="middle" x="900" y="-7" font-family="Helvetica,sans-Serif" font-size="10.00">&lt; uint8_t &gt; &gt;</text>
</a>
</g>
</g>
<!-- Node14&#45;&gt;Node13 -->
<g id="edge18" class="edge">
<title>Node14&#45;&gt;Node13</title>
<path fill="none" stroke="#9a32cd" stroke-dasharray="5,2" d="M968.42,-29.53C990.67,-34.33 1015.32,-39.64 1037.25,-44.37"/>
<polygon fill="#9a32cd" stroke="#9a32cd" points="969.36,-26.15 958.85,-27.47 967.89,-33 969.36,-26.15"/>
<text text-anchor="middle" x="995" y="-40" font-family="Helvetica,sans-Serif" font-size="10.00"> _queue</text>
</g>
<!-- Node15 -->
<g id="node15" class="node">
<title>Node15</title>
<g id="a_node15"><a xlink:title=" ">
<polygon fill="white" stroke="#666666" points="734.5,-24.5 627.5,-24.5 627.5,-5.5 734.5,-5.5 734.5,-24.5"/>
<text text-anchor="middle" x="681" y="-12.5" font-family="Helvetica,sans-Serif" font-size="10.00">std::vector&lt; uint8_t &gt;</text>
</a>
</g>
</g>
<!-- Node15&#45;&gt;Node14 -->
<g id="edge19" class="edge">
<title>Node15&#45;&gt;Node14</title>
<path fill="none" stroke="#9a32cd" stroke-dasharray="5,2" d="M746.22,-15C776.79,-15 813.03,-15 842.53,-15"/>
<polygon fill="#9a32cd" stroke="#9a32cd" points="746.32,-11.5 736.32,-15 746.32,-18.5 746.32,-11.5"/>
<text text-anchor="middle" x="796.5" y="-18" font-family="Helvetica,sans-Serif" font-size="10.00"> elements</text>
</g>
<!-- Node16 -->
<g id="node16" class="node">
<title>Node16</title>
<g id="a_node16"><a xlink:title=" ">
<polygon fill="white" stroke="#666666" points="930.5,-67.5 869.5,-67.5 869.5,-48.5 930.5,-48.5 930.5,-67.5"/>
<text text-anchor="middle" x="900" y="-55.5" font-family="Helvetica,sans-Serif" font-size="10.00">std::mutex</text>
</a>
</g>
</g>
<!-- Node16&#45;&gt;Node13 -->
<g id="edge20" class="edge">
<title>Node16&#45;&gt;Node13</title>
<path fill="none" stroke="#9a32cd" stroke-dasharray="5,2" d="M942.03,-58C969.51,-58 1006.22,-58 1037.38,-58"/>
<polygon fill="#9a32cd" stroke="#9a32cd" points="942.38,-54.5 932.38,-58 942.38,-61.5 942.38,-54.5"/>
<text text-anchor="middle" x="995" y="-61" font-family="Helvetica,sans-Serif" font-size="10.00"> _mutex</text>
</g>
</g>
</svg>
