<?xml version="1.0" encoding="UTF-8" standalone="no"?>
<!DOCTYPE svg PUBLIC "-//W3C//DTD SVG 1.1//EN"
 "http://www.w3.org/Graphics/SVG/1.1/DTD/svg11.dtd">
<!-- Generated by graphviz version 7.0.5 (20221223.1930)
 -->
<!-- Title: udmaio::DataHandlerAbstract Pages: 1 -->
<svg width="751pt" height="159pt"
 viewBox="0.00 0.00 751.00 159.00" xmlns="http://www.w3.org/2000/svg" xmlns:xlink="http://www.w3.org/1999/xlink">
<g id="graph0" class="graph" transform="scale(1 1) rotate(0) translate(4 155)">
<title>udmaio::DataHandlerAbstract</title>
<!-- Node1 -->
<g id="node1" class="node">
<title>Node1</title>
<g id="a_node1"><a xlink:title="Base class to implement a DMA data reception handler.">
<polygon fill="#999999" stroke="#666666" points="743,-94 600,-94 600,-75 743,-75 743,-94"/>
<text text-anchor="middle" x="671.5" y="-82" font-family="Helvetica,sans-Serif" font-size="10.00">udmaio::DataHandlerAbstract</text>
</a>
</g>
</g>
<!-- Node2 -->
<g id="node2" class="node">
<title>Node2</title>
<g id="a_node2"><a xlink:title=" ">
<polygon fill="white" stroke="#666666" points="99,-107 0,-107 0,-88 99,-88 99,-107"/>
<text text-anchor="middle" x="49.5" y="-95" font-family="Helvetica,sans-Serif" font-size="10.00">boost::noncopyable</text>
</a>
</g>
</g>
<!-- Node2&#45;&gt;Node1 -->
<g id="edge1" class="edge">
<title>Node2&#45;&gt;Node1</title>
<path fill="none" stroke="#8b1a1a" d="M110.78,-96.24C225.94,-93.82 476.66,-88.56 599.62,-85.99"/>
<polygon fill="#8b1a1a" stroke="#8b1a1a" points="110.85,-92.73 100.92,-96.44 110.99,-99.73 110.85,-92.73"/>
</g>
<!-- Node4 -->
<g id="node4" class="node">
<title>Node4</title>
<g id="a_node4"><a xlink:href="classudmaio_1_1_uio_if.html" target="_top" xlink:title="Base class for UIO interfaces.">
<polygon fill="white" stroke="#666666" points="243.5,-63 169.5,-63 169.5,-44 243.5,-44 243.5,-63"/>
<text text-anchor="middle" x="206.5" y="-51" font-family="Helvetica,sans-Serif" font-size="10.00">udmaio::UioIf</text>
</a>
</g>
</g>
<!-- Node2&#45;&gt;Node4 -->
<g id="edge4" class="edge">
<title>Node2&#45;&gt;Node4</title>
<path fill="none" stroke="#8b1a1a" d="M96.52,-84.44C120.2,-77.71 148.6,-69.65 170.47,-63.44"/>
<polygon fill="#8b1a1a" stroke="#8b1a1a" points="95.79,-81 87.13,-87.1 97.7,-87.74 95.79,-81"/>
</g>
<!-- Node8 -->
<g id="node8" class="node">
<title>Node8</title>
<g id="a_node8"><a xlink:href="classudmaio_1_1_dma_buffer_abstract.html" target="_top" xlink:title="Base class for DMA data buffer.">
<polygon fill="white" stroke="#666666" points="397,-151 262,-151 262,-132 397,-132 397,-151"/>
<text text-anchor="middle" x="329.5" y="-139" font-family="Helvetica,sans-Serif" font-size="10.00">udmaio::DmaBufferAbstract</text>
</a>
</g>
</g>
<!-- Node2&#45;&gt;Node8 -->
<g id="edge10" class="edge">
<title>Node2&#45;&gt;Node8</title>
<path fill="none" stroke="#8b1a1a" d="M106.84,-109.63C110.27,-110.29 113.68,-110.92 117,-111.5 165.21,-119.98 219.94,-127.7 261.64,-133.17"/>
<polygon fill="#8b1a1a" stroke="#8b1a1a" points="107.83,-106.26 97.34,-107.76 106.47,-113.13 107.83,-106.26"/>
</g>
<!-- Node3 -->
<g id="node3" class="node">
<title>Node3</title>
<g id="a_node3"><a xlink:href="classudmaio_1_1_uio_axi_dma_if.html" target="_top" xlink:title="Interface to AXI DMA Core.">
<polygon fill="white" stroke="#666666" points="528.5,-32 421.5,-32 421.5,-13 528.5,-13 528.5,-32"/>
<text text-anchor="middle" x="475" y="-20" font-family="Helvetica,sans-Serif" font-size="10.00">udmaio::UioAxiDmaIf</text>
</a>
</g>
</g>
<!-- Node3&#45;&gt;Node1 -->
<g id="edge2" class="edge">
<title>Node3&#45;&gt;Node1</title>
<path fill="none" stroke="#9a32cd" stroke-dasharray="5,2" d="M520.98,-35.71C539.87,-41.36 562.05,-48.11 582,-54.5 602.09,-60.93 624.59,-68.57 641.88,-74.53"/>
<polygon fill="#9a32cd" stroke="#9a32cd" points="522.02,-32.37 511.43,-32.87 520.02,-39.08 522.02,-32.37"/>
<text text-anchor="middle" x="567.5" y="-57.5" font-family="Helvetica,sans-Serif" font-size="10.00"> _dma</text>
</g>
<!-- Node4&#45;&gt;Node3 -->
<g id="edge3" class="edge">
<title>Node4&#45;&gt;Node3</title>
<path fill="none" stroke="#63b8ff" d="M255.34,-47.94C302.1,-42.5 373.13,-34.23 421.45,-28.61"/>
<polygon fill="#63b8ff" stroke="#63b8ff" points="255.03,-44.45 245.5,-49.08 255.84,-51.4 255.03,-44.45"/>
</g>
<!-- Node7 -->
<g id="node7" class="node">
<title>Node7</title>
<g id="a_node7"><a xlink:href="classudmaio_1_1_uio_mem_sgdma.html" target="_top" xlink:title="Interface to AXI DMA scatter&#45;gather buffers &amp; descriptors Uses a UioIf to access DMA descriptor memor...">
<polygon fill="white" stroke="#666666" points="535,-69 415,-69 415,-50 535,-50 535,-69"/>
<text text-anchor="middle" x="475" y="-57" font-family="Helvetica,sans-Serif" font-size="10.00">udmaio::UioMemSgdma</text>
</a>
</g>
</g>
<!-- Node4&#45;&gt;Node7 -->
<g id="edge8" class="edge">
<title>Node4&#45;&gt;Node7</title>
<path fill="none" stroke="#63b8ff" d="M255.41,-54.58C300.05,-55.58 366.75,-57.09 414.72,-58.17"/>
<polygon fill="#63b8ff" stroke="#63b8ff" points="255.59,-51.08 245.51,-54.36 255.43,-58.08 255.59,-51.08"/>
</g>
<!-- Node5 -->
<g id="node5" class="node">
<title>Node5</title>
<g id="a_node5"><a xlink:href="structudmaio_1_1_uio_region.html" target="_top" xlink:title="General&#45;purpose struct to define a memory area.">
<polygon fill="white" stroke="#666666" points="98.5,-56 0.5,-56 0.5,-37 98.5,-37 98.5,-56"/>
<text text-anchor="middle" x="49.5" y="-44" font-family="Helvetica,sans-Serif" font-size="10.00">udmaio::UioRegion</text>
</a>
</g>
</g>
<!-- Node5&#45;&gt;Node4 -->
<g id="edge5" class="edge">
<title>Node5&#45;&gt;Node4</title>
<path fill="none" stroke="#9a32cd" stroke-dasharray="5,2" d="M109.96,-46.11C123.46,-46.3 137.73,-46.71 151,-47.5 156.89,-47.85 163.13,-48.39 169.19,-48.99"/>
<polygon fill="#9a32cd" stroke="#9a32cd" points="110.39,-42.62 100.35,-46.02 110.32,-49.61 110.39,-42.62"/>
<text text-anchor="middle" x="134" y="-50.5" font-family="Helvetica,sans-Serif" font-size="10.00"> _region</text>
</g>
<!-- Node6 -->
<g id="node6" class="node">
<title>Node6</title>
<g id="a_node6"><a xlink:href="structaxi__dma_1_1block__template.html" target="_top" xlink:title="Template class for the axi_dma block, containing accessors for all its registers.">
<polygon fill="white" stroke="#666666" points="244,-19 169,-19 169,0 244,0 244,-19"/>
<text text-anchor="middle" x="206.5" y="-7" font-family="Helvetica,sans-Serif" font-size="10.00">AxiDmaBlock</text>
</a>
</g>
</g>
<!-- Node6&#45;&gt;Node3 -->
<g id="edge6" class="edge">
<title>Node6&#45;&gt;Node3</title>
<path fill="none" stroke="#8b1a1a" d="M255.59,-11.85C302.24,-14.12 372.86,-17.57 421.08,-19.92"/>
<polygon fill="#8b1a1a" stroke="#8b1a1a" points="255.95,-8.36 245.79,-11.37 255.61,-15.35 255.95,-8.36"/>
</g>
<!-- Node7&#45;&gt;Node1 -->
<g id="edge7" class="edge">
<title>Node7&#45;&gt;Node1</title>
<path fill="none" stroke="#9a32cd" stroke-dasharray="5,2" d="M546.64,-68.04C558.45,-69.5 570.57,-71.02 582,-72.5 587.69,-73.23 593.58,-74.01 599.5,-74.79"/>
<polygon fill="#9a32cd" stroke="#9a32cd" points="547.3,-64.59 536.95,-66.84 546.44,-71.54 547.3,-64.59"/>
<text text-anchor="middle" x="567.5" y="-75.5" font-family="Helvetica,sans-Serif" font-size="10.00"> _desc</text>
</g>
<!-- Node8&#45;&gt;Node1 -->
<g id="edge9" class="edge">
<title>Node8&#45;&gt;Node1</title>
<path fill="none" stroke="#9a32cd" stroke-dasharray="5,2" d="M408.84,-135.76C458.77,-131.21 524.61,-123.58 582,-111.5 602.59,-107.17 625.28,-100.2 642.53,-94.43"/>
<polygon fill="#9a32cd" stroke="#9a32cd" points="408.64,-132.26 398.99,-136.63 409.26,-139.23 408.64,-132.26"/>
<text text-anchor="middle" x="475" y="-138.5" font-family="Helvetica,sans-Serif" font-size="10.00"> _mem</text>
</g>
</g>
</svg>
