<?xml version="1.0" encoding="UTF-8" standalone="no"?>
<!DOCTYPE svg PUBLIC "-//W3C//DTD SVG 1.1//EN"
 "http://www.w3.org/Graphics/SVG/1.1/DTD/svg11.dtd">
<!-- Generated by graphviz version 7.0.5 (20221223.1930)
 -->
<!-- Title: udmaio::UDmaBuf Pages: 1 -->
<svg width="361pt" height="149pt"
 viewBox="0.00 0.00 360.50 149.00" xmlns="http://www.w3.org/2000/svg" xmlns:xlink="http://www.w3.org/1999/xlink">
<g id="graph0" class="graph" transform="scale(1 1) rotate(0) translate(4 145)">
<title>udmaio::UDmaBuf</title>
<!-- Node1 -->
<g id="node1" class="node">
<title>Node1</title>
<g id="a_node1"><a xlink:title="DMA data buffer accessed over AXI/UIO, implemented w/ udmabuf (see https://github....">
<polygon fill="#999999" stroke="#666666" points="242,-19 147,-19 147,0 242,0 242,-19"/>
<text text-anchor="middle" x="194.5" y="-7" font-family="Helvetica,sans-Serif" font-size="10.00">udmaio::UDmaBuf</text>
</a>
</g>
</g>
<!-- Node2 -->
<g id="node2" class="node">
<title>Node2</title>
<g id="a_node2"><a xlink:href="classudmaio_1_1_dma_buffer_abstract.html" target="_top" xlink:title="Base class for DMA data buffer.">
<polygon fill="white" stroke="#666666" points="135,-85 0,-85 0,-66 135,-66 135,-85"/>
<text text-anchor="middle" x="67.5" y="-73" font-family="Helvetica,sans-Serif" font-size="10.00">udmaio::DmaBufferAbstract</text>
</a>
</g>
</g>
<!-- Node2&#45;&gt;Node1 -->
<g id="edge1" class="edge">
<title>Node2&#45;&gt;Node1</title>
<path fill="none" stroke="#63b8ff" d="M95.41,-60.43C120.29,-47.9 155.92,-29.94 176.99,-19.32"/>
<polygon fill="#63b8ff" stroke="#63b8ff" points="93.87,-57.29 86.51,-64.92 97.02,-63.55 93.87,-57.29"/>
</g>
<!-- Node3 -->
<g id="node3" class="node">
<title>Node3</title>
<g id="a_node3"><a xlink:title=" ">
<polygon fill="white" stroke="#666666" points="117,-141 18,-141 18,-122 117,-122 117,-141"/>
<text text-anchor="middle" x="67.5" y="-129" font-family="Helvetica,sans-Serif" font-size="10.00">boost::noncopyable</text>
</a>
</g>
</g>
<!-- Node3&#45;&gt;Node2 -->
<g id="edge2" class="edge">
<title>Node3&#45;&gt;Node2</title>
<path fill="none" stroke="#8b1a1a" d="M67.5,-110.11C67.5,-101.52 67.5,-91.97 67.5,-85.25"/>
<polygon fill="#8b1a1a" stroke="#8b1a1a" points="64,-110.07 67.5,-120.07 71,-110.07 64,-110.07"/>
</g>
<!-- Node4 -->
<g id="node4" class="node">
<title>Node4</title>
<g id="a_node4"><a xlink:href="structudmaio_1_1_logger.html" target="_top" xlink:title=" ">
<polygon fill="white" stroke="#666666" points="236,-85 153,-85 153,-66 236,-66 236,-85"/>
<text text-anchor="middle" x="194.5" y="-73" font-family="Helvetica,sans-Serif" font-size="10.00">udmaio::Logger</text>
</a>
</g>
</g>
<!-- Node4&#45;&gt;Node1 -->
<g id="edge3" class="edge">
<title>Node4&#45;&gt;Node1</title>
<path fill="none" stroke="#63b8ff" d="M194.5,-54.18C194.5,-42.44 194.5,-28.27 194.5,-19.32"/>
<polygon fill="#63b8ff" stroke="#63b8ff" points="191,-54.09 194.5,-64.09 198,-54.09 191,-54.09"/>
</g>
<!-- Node5 -->
<g id="node5" class="node">
<title>Node5</title>
<g id="a_node5"><a xlink:href="structudmaio_1_1_uio_region.html" target="_top" xlink:title="General&#45;purpose struct to define a memory area.">
<polygon fill="white" stroke="#666666" points="352.5,-85 254.5,-85 254.5,-66 352.5,-66 352.5,-85"/>
<text text-anchor="middle" x="303.5" y="-73" font-family="Helvetica,sans-Serif" font-size="10.00">udmaio::UioRegion</text>
</a>
</g>
</g>
<!-- Node5&#45;&gt;Node1 -->
<g id="edge4" class="edge">
<title>Node5&#45;&gt;Node1</title>
<path fill="none" stroke="#9a32cd" stroke-dasharray="5,2" d="M278.68,-59.92C257.37,-47.42 227.37,-29.8 209.53,-19.32"/>
<polygon fill="#9a32cd" stroke="#9a32cd" points="276.64,-62.79 287.04,-64.83 280.19,-56.75 276.64,-62.79"/>
<text text-anchor="middle" x="269.5" y="-40" font-family="Helvetica,sans-Serif" font-size="10.00"> _phys</text>
</g>
</g>
</svg>
