<?xml version="1.0" encoding="UTF-8" standalone="no"?>
<!DOCTYPE svg PUBLIC "-//W3C//DTD SVG 1.1//EN"
 "http://www.w3.org/Graphics/SVG/1.1/DTD/svg11.dtd">
<!-- Generated by graphviz version 7.0.5 (20221223.1930)
 -->
<!-- Title: udmaio::RegAccessorBase&lt; C &gt; Pages: 1 -->
<!--zoomable 500 -->
<svg id="main" version="1.1" xmlns="http://www.w3.org/2000/svg" xmlns:xlink="http://www.w3.org/1999/xlink" xml:space="preserve" onload="init(evt)">
<style type="text/css"><![CDATA[
.edge:hover path { stroke: red; }
.edge:hover polygon { stroke: red; fill: red; }
]]></style>
<script type="text/javascript"><![CDATA[
var edges = document.getElementsByTagName('g');
if (edges && edges.length) {
  for (var i=0;i<edges.length;i++) {
    if (edges[i].id.substr(0,4)=='edge') {
      edges[i].setAttribute('class','edge');
    }
  }
}
]]></script>
        <defs>
                <circle id="rim" cx="0" cy="0" r="7"/>
                <circle id="rim2" cx="0" cy="0" r="3.5"/>
                <g id="zoomPlus">
                        <use xlink:href="#rim" fill="#404040">
                                <set attributeName="fill" to="#808080" begin="zoomplus.mouseover" end="zoomplus.mouseout"/>
                        </use>
                        <path d="M-4,0h8M0,-4v8" fill="none" stroke="white" stroke-width="1.5" pointer-events="none"/>
                </g>
                <g id="zoomMin">
                        <use xlink:href="#rim" fill="#404040">
                                <set attributeName="fill" to="#808080" begin="zoomminus.mouseover" end="zoomminus.mouseout"/>
                        </use>
                        <path d="M-4,0h8" fill="none" stroke="white" stroke-width="1.5" pointer-events="none"/>
                </g>
                <g id="dirArrow">
                        <path fill="none" stroke="white" stroke-width="1.5" d="M0,-3.0v7 M-2.5,-0.5L0,-3.0L2.5,-0.5"/>
                </g>
               <g id="resetDef">
                       <use xlink:href="#rim2" fill="#404040">
                               <set attributeName="fill" to="#808080" begin="reset.mouseover" end="reset.mouseout"/>
                       </use>
               </g>
        </defs>

<script type="text/javascript">
var viewWidth = 363;
var viewHeight = 500;
var sectionId = 'dynsection-0';
</script>
<script xlink:href="svgpan.js"/>
<svg id="graph" class="graph">
<g id="viewport">
<title>udmaio::RegAccessorBase&lt; C &gt;</title>
<!-- Node1 -->
<g id="node1" class="node">
<title>Node1</title>
<g id="a_node1"><a xlink:title="Base class implementing register access. Only used by subclasses, not used directly.">
<polygon fill="#999999" stroke="#666666" points="157,-244.5 0,-244.5 0,-225.5 157,-225.5 157,-244.5"/>
<text text-anchor="middle" x="78.5" y="-232.5" font-family="Helvetica,sans-Serif" font-size="10.00">udmaio::RegAccessorBase&lt; C &gt;</text>
</a>
</g>
</g>
<!-- Node2 -->
<g id="node2" class="node">
<title>Node2</title>
<g id="a_node2"><a xlink:href="classudmaio_1_1_reg_accessor_array.html" target="_top" xlink:title=" ">
<polygon fill="white" stroke="#666666" points="346,-491.5 202,-491.5 202,-450.5 346,-450.5 346,-491.5"/>
<text text-anchor="start" x="210" y="-479.5" font-family="Helvetica,sans-Serif" font-size="10.00">udmaio::RegAccessorArray</text>
<text text-anchor="start" x="210" y="-468.5" font-family="Helvetica,sans-Serif" font-size="10.00">&lt; S2mmDesc, 0, 1024, DESC</text>
<text text-anchor="middle" x="274" y="-457.5" font-family="Helvetica,sans-Serif" font-size="10.00">_ADDR_STEP &gt;</text>
</a>
</g>
</g>
<!-- Node1&#45;&gt;Node2 -->
<g id="edge1" class="edge">
<title>Node1&#45;&gt;Node2</title>
<path fill="none" stroke="#63b8ff" d="M85.37,-255.63C98.13,-296.86 132.23,-389.92 193,-442 196.48,-444.98 200.29,-447.66 204.29,-450.08"/>
<polygon fill="#63b8ff" stroke="#63b8ff" points="88.79,-254.85 82.58,-246.27 82.08,-256.85 88.79,-254.85"/>
</g>
<!-- Node3 -->
<g id="node3" class="node">
<title>Node3</title>
<g id="a_node3"><a xlink:href="classudmaio_1_1_reg_accessor_array_3_01_c_00_01offset_00_010_00_010_01_4.html" target="_top" xlink:title=" ">
<polygon fill="white" stroke="#666666" points="355,-432.5 193,-432.5 193,-391.5 355,-391.5 355,-432.5"/>
<text text-anchor="start" x="201" y="-420.5" font-family="Helvetica,sans-Serif" font-size="10.00">udmaio::RegAccessorArray</text>
<text text-anchor="start" x="201" y="-409.5" font-family="Helvetica,sans-Serif" font-size="10.00">&lt; C, offset, 0, 0 &gt;&lt; UioGpioStatus</text>
<text text-anchor="middle" x="274" y="-398.5" font-family="Helvetica,sans-Serif" font-size="10.00">::GpioData, 0 &gt;</text>
</a>
</g>
</g>
<!-- Node1&#45;&gt;Node3 -->
<g id="edge2" class="edge">
<title>Node1&#45;&gt;Node3</title>
<path fill="none" stroke="#63b8ff" d="M89.65,-254.58C106.85,-285.96 144.63,-347.57 193,-383 197.05,-385.97 201.44,-388.66 206,-391.09"/>
<polygon fill="#63b8ff" stroke="#63b8ff" points="92.95,-253.34 85.15,-246.17 86.78,-256.64 92.95,-253.34"/>
</g>
<!-- Node4 -->
<g id="node4" class="node">
<title>Node4</title>
<g id="a_node4"><a xlink:href="classudmaio_1_1_reg_accessor_array_3_01_c_00_01offset_00_010_00_010_01_4.html" target="_top" xlink:title=" ">
<polygon fill="white" stroke="#666666" points="344,-373.5 204,-373.5 204,-332.5 344,-332.5 344,-373.5"/>
<text text-anchor="start" x="212" y="-361.5" font-family="Helvetica,sans-Serif" font-size="10.00">udmaio::RegAccessorArray</text>
<text text-anchor="start" x="212" y="-350.5" font-family="Helvetica,sans-Serif" font-size="10.00">&lt; C, offset, 0, 0 &gt;&lt; UioTraffic</text>
<text text-anchor="middle" x="274" y="-339.5" font-family="Helvetica,sans-Serif" font-size="10.00">Gen::StControl, 0x30 &gt;</text>
</a>
</g>
</g>
<!-- Node1&#45;&gt;Node4 -->
<g id="edge3" class="edge">
<title>Node1&#45;&gt;Node4</title>
<path fill="none" stroke="#63b8ff" d="M97.81,-252.39C119.22,-271.98 156.4,-303.7 193,-324 198.17,-326.87 203.67,-329.54 209.29,-332.02"/>
<polygon fill="#63b8ff" stroke="#63b8ff" points="100.46,-250.08 90.76,-245.84 95.7,-255.21 100.46,-250.08"/>
</g>
<!-- Node5 -->
<g id="node5" class="node">
<title>Node5</title>
<g id="a_node5"><a xlink:href="classudmaio_1_1_reg_accessor_array_3_01_c_00_01offset_00_010_00_010_01_4.html" target="_top" xlink:title=" ">
<polygon fill="white" stroke="#666666" points="344,-314.5 204,-314.5 204,-273.5 344,-273.5 344,-314.5"/>
<text text-anchor="start" x="212" y="-302.5" font-family="Helvetica,sans-Serif" font-size="10.00">udmaio::RegAccessorArray</text>
<text text-anchor="start" x="212" y="-291.5" font-family="Helvetica,sans-Serif" font-size="10.00">&lt; C, offset, 0, 0 &gt;&lt; UioTraffic</text>
<text text-anchor="middle" x="274" y="-280.5" font-family="Helvetica,sans-Serif" font-size="10.00">Gen::StConfig, 0x34 &gt;</text>
</a>
</g>
</g>
<!-- Node1&#45;&gt;Node5 -->
<g id="edge4" class="edge">
<title>Node1&#45;&gt;Node5</title>
<path fill="none" stroke="#63b8ff" d="M122.77,-248.19C146.78,-255.51 177.18,-264.78 204.35,-273.07"/>
<polygon fill="#63b8ff" stroke="#63b8ff" points="123.92,-244.89 113.34,-245.32 121.88,-251.58 123.92,-244.89"/>
</g>
<!-- Node6 -->
<g id="node6" class="node">
<title>Node6</title>
<g id="a_node6"><a xlink:href="classudmaio_1_1_reg_accessor_array_3_01_c_00_01offset_00_010_00_010_01_4.html" target="_top" xlink:title=" ">
<polygon fill="white" stroke="#666666" points="344,-255.5 204,-255.5 204,-214.5 344,-214.5 344,-255.5"/>
<text text-anchor="start" x="212" y="-243.5" font-family="Helvetica,sans-Serif" font-size="10.00">udmaio::RegAccessorArray</text>
<text text-anchor="start" x="212" y="-232.5" font-family="Helvetica,sans-Serif" font-size="10.00">&lt; C, offset, 0, 0 &gt;&lt; UioTraffic</text>
<text text-anchor="middle" x="274" y="-221.5" font-family="Helvetica,sans-Serif" font-size="10.00">Gen::TrLength, 0x38 &gt;</text>
</a>
</g>
</g>
<!-- Node1&#45;&gt;Node6 -->
<g id="edge5" class="edge">
<title>Node1&#45;&gt;Node6</title>
<path fill="none" stroke="#63b8ff" d="M168.6,-235C180.39,-235 192.33,-235 203.72,-235"/>
<polygon fill="#63b8ff" stroke="#63b8ff" points="168.88,-231.5 158.88,-235 168.88,-238.5 168.88,-231.5"/>
</g>
<!-- Node7 -->
<g id="node7" class="node">
<title>Node7</title>
<g id="a_node7"><a xlink:href="classudmaio_1_1_reg_accessor_array_3_01_c_00_01offset_00_010_00_010_01_4.html" target="_top" xlink:title=" ">
<polygon fill="white" stroke="#666666" points="344,-196.5 204,-196.5 204,-155.5 344,-155.5 344,-196.5"/>
<text text-anchor="start" x="212" y="-184.5" font-family="Helvetica,sans-Serif" font-size="10.00">udmaio::RegAccessorArray</text>
<text text-anchor="start" x="212" y="-173.5" font-family="Helvetica,sans-Serif" font-size="10.00">&lt; C, offset, 0, 0 &gt;&lt; UioTraffic</text>
<text text-anchor="middle" x="274" y="-162.5" font-family="Helvetica,sans-Serif" font-size="10.00">Gen::ExtTrLength, 0x50 &gt;</text>
</a>
</g>
</g>
<!-- Node1&#45;&gt;Node7 -->
<g id="edge6" class="edge">
<title>Node1&#45;&gt;Node7</title>
<path fill="none" stroke="#63b8ff" d="M122.77,-221.81C146.78,-214.49 177.18,-205.22 204.35,-196.93"/>
<polygon fill="#63b8ff" stroke="#63b8ff" points="121.88,-218.42 113.34,-224.68 123.92,-225.11 121.88,-218.42"/>
</g>
<!-- Node8 -->
<g id="node8" class="node">
<title>Node8</title>
<g id="a_node8"><a xlink:href="classudmaio_1_1_reg_accessor_array.html" target="_top" xlink:title="Accessor for register array.">
<polygon fill="white" stroke="#666666" points="341,-137.5 207,-137.5 207,-96.5 341,-96.5 341,-137.5"/>
<text text-anchor="start" x="215" y="-125.5" font-family="Helvetica,sans-Serif" font-size="10.00">udmaio::RegAccessorArray</text>
<text text-anchor="start" x="215" y="-114.5" font-family="Helvetica,sans-Serif" font-size="10.00">&lt; C, offset, arr_size,</text>
<text text-anchor="middle" x="274" y="-103.5" font-family="Helvetica,sans-Serif" font-size="10.00"> arr_stride &gt;</text>
</a>
</g>
</g>
<!-- Node1&#45;&gt;Node8 -->
<g id="edge7" class="edge">
<title>Node1&#45;&gt;Node8</title>
<path fill="none" stroke="#63b8ff" d="M98.22,-217.59C119.75,-198.28 156.81,-167.21 193,-147 198.83,-143.75 205.08,-140.71 211.42,-137.91"/>
<polygon fill="#63b8ff" stroke="#63b8ff" points="96.15,-214.74 91.11,-224.05 100.87,-219.91 96.15,-214.74"/>
</g>
<!-- Node9 -->
<g id="node9" class="node">
<title>Node9</title>
<g id="a_node9"><a xlink:href="classudmaio_1_1_reg_accessor_array_3_01_c_00_01offset_00_010_00_010_01_4.html" target="_top" xlink:title="Accessor for single register.">
<polygon fill="white" stroke="#666666" points="341,-78 207,-78 207,-48 341,-48 341,-78"/>
<text text-anchor="start" x="215" y="-66" font-family="Helvetica,sans-Serif" font-size="10.00">udmaio::RegAccessorArray</text>
<text text-anchor="middle" x="274" y="-55" font-family="Helvetica,sans-Serif" font-size="10.00">&lt; C, offset, 0, 0 &gt;</text>
</a>
</g>
</g>
<!-- Node1&#45;&gt;Node9 -->
<g id="edge8" class="edge">
<title>Node1&#45;&gt;Node9</title>
<path fill="none" stroke="#63b8ff" d="M89.51,-215.3C106.5,-183.78 144,-122.11 193,-88 198.37,-84.26 204.33,-81.06 210.5,-78.33"/>
<polygon fill="#63b8ff" stroke="#63b8ff" points="86.62,-213.27 85.07,-223.76 92.81,-216.53 86.62,-213.27"/>
</g>
<!-- Node10 -->
<g id="node10" class="node">
<title>Node10</title>
<g id="a_node10"><a xlink:href="classudmaio_1_1_reg_accessor_array_element.html" target="_top" xlink:title="Accessor for register array element. Returned by RegAccessorArray&lt;C&gt;::operator[].">
<polygon fill="white" stroke="#666666" points="341,-30 207,-30 207,0 341,0 341,-30"/>
<text text-anchor="start" x="215" y="-18" font-family="Helvetica,sans-Serif" font-size="10.00">udmaio::RegAccessorArray</text>
<text text-anchor="middle" x="274" y="-7" font-family="Helvetica,sans-Serif" font-size="10.00">Element&lt; C &gt;</text>
</a>
</g>
</g>
<!-- Node1&#45;&gt;Node10 -->
<g id="edge9" class="edge">
<title>Node1&#45;&gt;Node10</title>
<path fill="none" stroke="#63b8ff" d="M85.73,-214.36C98.85,-174.41 133.16,-86.28 193,-39 197.21,-35.67 201.87,-32.81 206.77,-30.34"/>
<polygon fill="#63b8ff" stroke="#63b8ff" points="82.46,-213.08 82.79,-223.67 89.14,-215.19 82.46,-213.08"/>
</g>
</g>
</svg>
        <g id="navigator" transform="translate(0 0)" fill="#404254">
                <rect fill="#f2f5e9" fill-opacity="0.5" stroke="#606060" stroke-width=".5" x="0" y="0" width="60" height="60"/>
                <use id="zoomplus" xlink:href="#zoomPlus" x="17" y="9" onmousedown="handleZoom(evt,'in')"/>
                <use id="zoomminus" xlink:href="#zoomMin" x="42" y="9" onmousedown="handleZoom(evt,'out')"/>
                <use id="reset" xlink:href="#resetDef" x="30" y="36" onmousedown="handleReset()"/>
                <g id="arrowUp" xlink:href="#dirArrow" transform="translate(30 24)" onmousedown="handlePan(0,-1)">
                  <use xlink:href="#rim" fill="#404040">
                        <set attributeName="fill" to="#808080" begin="arrowUp.mouseover" end="arrowUp.mouseout"/>
                  </use>
                  <path fill="none" stroke="white" stroke-width="1.5" d="M0,-3.0v7 M-2.5,-0.5L0,-3.0L2.5,-0.5"/>
                </g>
                <g id="arrowRight" xlink:href="#dirArrow" transform="rotate(90) translate(36 -43)" onmousedown="handlePan(1,0)">
                  <use xlink:href="#rim" fill="#404040">
                        <set attributeName="fill" to="#808080" begin="arrowRight.mouseover" end="arrowRight.mouseout"/>
                  </use>
                  <path fill="none" stroke="white" stroke-width="1.5" d="M0,-3.0v7 M-2.5,-0.5L0,-3.0L2.5,-0.5"/>
                </g>
                <g id="arrowDown" xlink:href="#dirArrow" transform="rotate(180) translate(-30 -48)" onmousedown="handlePan(0,1)">
                  <use xlink:href="#rim" fill="#404040">
                        <set attributeName="fill" to="#808080" begin="arrowDown.mouseover" end="arrowDown.mouseout"/>
                  </use>
                  <path fill="none" stroke="white" stroke-width="1.5" d="M0,-3.0v7 M-2.5,-0.5L0,-3.0L2.5,-0.5"/>
                </g>
                <g id="arrowLeft" xlink:href="#dirArrow" transform="rotate(270) translate(-36 17)" onmousedown="handlePan(-1,0)">
                  <use xlink:href="#rim" fill="#404040">
                        <set attributeName="fill" to="#808080" begin="arrowLeft.mouseover" end="arrowLeft.mouseout"/>
                  </use>
                  <path fill="none" stroke="white" stroke-width="1.5" d="M0,-3.0v7 M-2.5,-0.5L0,-3.0L2.5,-0.5"/>
                </g>
        </g>
        <svg viewBox="0 0 15 15" width="100%" height="30px" preserveAspectRatio="xMaxYMin meet">
         <g id="arrow_out" transform="scale(0.3 0.3)">
          <a xlink:href="classudmaio_1_1_reg_accessor_base__inherit__graph_org.svg" target="_base">
           <rect id="button" ry="5" rx="5" y="6" x="6" height="38" width="38"
                fill="#f2f5e9" fill-opacity="0.5" stroke="#606060" stroke-width="1.0"/>
           <path id="arrow"
             d="M 11.500037,31.436501 C 11.940474,20.09759 22.043105,11.32322 32.158766,21.979434 L 37.068811,17.246167 C 37.068811,17.246167 37.088388,32 37.088388,32 L 22.160133,31.978069 C 22.160133,31.978069 26.997745,27.140456 26.997745,27.140456 C 18.528582,18.264221 13.291696,25.230495 11.500037,31.436501 z"
             style="fill:#404040;"/>
          </a>
         </g>
        </svg>
</svg>
