<?xml version="1.0" encoding="UTF-8" standalone="no"?>
<!DOCTYPE svg PUBLIC "-//W3C//DTD SVG 1.1//EN"
 "http://www.w3.org/Graphics/SVG/1.1/DTD/svg11.dtd">
<!-- Generated by graphviz version 7.0.5 (20221223.1930)
 -->
<!-- Title: udmaio::UioDeviceLocation Pages: 1 -->
<svg width="717pt" height="156pt"
 viewBox="0.00 0.00 717.00 155.50" xmlns="http://www.w3.org/2000/svg" xmlns:xlink="http://www.w3.org/1999/xlink">
<g id="graph0" class="graph" transform="scale(1 1) rotate(0) translate(4 151.5)">
<title>udmaio::UioDeviceLocation</title>
<!-- Node1 -->
<g id="node1" class="node">
<title>Node1</title>
<g id="a_node1"><a xlink:title="Holds information where a device can be found over both UIO and XDMA.">
<polygon fill="#999999" stroke="#666666" points="709,-77 574,-77 574,-58 709,-58 709,-77"/>
<text text-anchor="middle" x="641.5" y="-65" font-family="Helvetica,sans-Serif" font-size="10.00">udmaio::UioDeviceLocation</text>
</a>
</g>
</g>
<!-- Node2 -->
<g id="node2" class="node">
<title>Node2</title>
<g id="a_node2"><a xlink:title=" ">
<polygon fill="white" stroke="#666666" points="439,-147.5 320,-147.5 320,-117.5 439,-117.5 439,-147.5"/>
<text text-anchor="start" x="328" y="-135.5" font-family="Helvetica,sans-Serif" font-size="10.00">std::unique_ptr&lt; udmaio</text>
<text text-anchor="middle" x="379.5" y="-124.5" font-family="Helvetica,sans-Serif" font-size="10.00">::UioConfigBase &gt;</text>
</a>
</g>
</g>
<!-- Node2&#45;&gt;Node1 -->
<g id="edge1" class="edge">
<title>Node2&#45;&gt;Node1</title>
<path fill="none" stroke="#9a32cd" stroke-dasharray="5,2" d="M450.59,-120.26C482.91,-114.07 521.64,-105.88 556,-96.5 575.9,-91.07 597.93,-83.45 614.51,-77.39"/>
<polygon fill="#9a32cd" stroke="#9a32cd" points="450.11,-116.79 440.93,-122.08 451.41,-123.67 450.11,-116.79"/>
<text text-anchor="middle" x="515" y="-117.5" font-family="Helvetica,sans-Serif" font-size="10.00"> _link_cfg</text>
</g>
<!-- Node3 -->
<g id="node3" class="node">
<title>Node3</title>
<g id="a_node3"><a xlink:href="classudmaio_1_1_uio_config_base.html" target="_top" xlink:title="Base class for HwAccessor creation.">
<polygon fill="white" stroke="#666666" points="253,-142 136,-142 136,-123 253,-123 253,-142"/>
<text text-anchor="middle" x="194.5" y="-130" font-family="Helvetica,sans-Serif" font-size="10.00">udmaio::UioConfigBase</text>
</a>
</g>
</g>
<!-- Node3&#45;&gt;Node2 -->
<g id="edge2" class="edge">
<title>Node3&#45;&gt;Node2</title>
<path fill="none" stroke="#9a32cd" stroke-dasharray="5,2" d="M264.78,-132.5C282.89,-132.5 302.22,-132.5 319.72,-132.5"/>
<polygon fill="#9a32cd" stroke="#9a32cd" points="264.92,-129 254.92,-132.5 264.92,-136 264.92,-129"/>
<text text-anchor="middle" x="278" y="-135.5" font-family="Helvetica,sans-Serif" font-size="10.00"> ptr</text>
</g>
<!-- Node4 -->
<g id="node4" class="node">
<title>Node4</title>
<g id="a_node4"><a xlink:title=" ">
<polygon fill="white" stroke="#666666" points="456,-99 303,-99 303,-80 456,-80 456,-99"/>
<text text-anchor="middle" x="379.5" y="-87" font-family="Helvetica,sans-Serif" font-size="10.00">std::shared_ptr&lt; HwAccessor &gt;</text>
</a>
</g>
</g>
<!-- Node4&#45;&gt;Node1 -->
<g id="edge3" class="edge">
<title>Node4&#45;&gt;Node1</title>
<path fill="none" stroke="#9a32cd" stroke-dasharray="5,2" d="M467.48,-82.14C502.16,-79.21 541.43,-75.88 573.79,-73.15"/>
<polygon fill="#9a32cd" stroke="#9a32cd" points="467.58,-78.62 457.91,-82.95 468.17,-85.59 467.58,-78.62"/>
<text text-anchor="middle" x="515" y="-84.5" font-family="Helvetica,sans-Serif" font-size="10.00"> _hw_acc_override</text>
</g>
<!-- Node5 -->
<g id="node5" class="node">
<title>Node5</title>
<g id="a_node5"><a xlink:href="classudmaio_1_1_hw_accessor.html" target="_top" xlink:title="Base class for hardware access.">
<polygon fill="white" stroke="#666666" points="249,-99 140,-99 140,-80 249,-80 249,-99"/>
<text text-anchor="middle" x="194.5" y="-87" font-family="Helvetica,sans-Serif" font-size="10.00">udmaio::HwAccessor</text>
</a>
</g>
</g>
<!-- Node5&#45;&gt;Node4 -->
<g id="edge4" class="edge">
<title>Node5&#45;&gt;Node4</title>
<path fill="none" stroke="#9a32cd" stroke-dasharray="5,2" d="M260.61,-89.5C274.2,-89.5 288.65,-89.5 302.6,-89.5"/>
<polygon fill="#9a32cd" stroke="#9a32cd" points="260.93,-86 250.93,-89.5 260.93,-93 260.93,-86"/>
<text text-anchor="middle" x="278" y="-92.5" font-family="Helvetica,sans-Serif" font-size="10.00"> ptr</text>
</g>
<!-- Node6 -->
<g id="node6" class="node">
<title>Node6</title>
<g id="a_node6"><a xlink:href="structudmaio_1_1_logger.html" target="_top" xlink:title=" ">
<polygon fill="white" stroke="#666666" points="91,-117 8,-117 8,-98 91,-98 91,-117"/>
<text text-anchor="middle" x="49.5" y="-105" font-family="Helvetica,sans-Serif" font-size="10.00">udmaio::Logger</text>
</a>
</g>
</g>
<!-- Node6&#45;&gt;Node5 -->
<g id="edge5" class="edge">
<title>Node6&#45;&gt;Node5</title>
<path fill="none" stroke="#63b8ff" d="M102.73,-100.93C114.77,-99.41 127.6,-97.79 139.71,-96.27"/>
<polygon fill="#63b8ff" stroke="#63b8ff" points="102.46,-97.43 92.98,-102.15 103.34,-104.38 102.46,-97.43"/>
</g>
<!-- Node7 -->
<g id="node7" class="node">
<title>Node7</title>
<g id="a_node7"><a xlink:title=" ">
<polygon fill="white" stroke="#666666" points="99,-80 0,-80 0,-61 99,-61 99,-80"/>
<text text-anchor="middle" x="49.5" y="-68" font-family="Helvetica,sans-Serif" font-size="10.00">boost::noncopyable</text>
</a>
</g>
</g>
<!-- Node7&#45;&gt;Node5 -->
<g id="edge6" class="edge">
<title>Node7&#45;&gt;Node5</title>
<path fill="none" stroke="#8b1a1a" d="M110.45,-78.47C120.1,-79.75 130.02,-81.07 139.51,-82.33"/>
<polygon fill="#8b1a1a" stroke="#8b1a1a" points="111.19,-75.03 100.81,-77.18 110.26,-81.97 111.19,-75.03"/>
</g>
<!-- Node8 -->
<g id="node8" class="node">
<title>Node8</title>
<g id="a_node8"><a xlink:title=" ">
<polygon fill="white" stroke="#666666" points="409,-56 350,-56 350,-37 409,-37 409,-56"/>
<text text-anchor="middle" x="379.5" y="-44" font-family="Helvetica,sans-Serif" font-size="10.00">std::string</text>
</a>
</g>
</g>
<!-- Node8&#45;&gt;Node1 -->
<g id="edge7" class="edge">
<title>Node8&#45;&gt;Node1</title>
<path fill="none" stroke="#9a32cd" stroke-dasharray="5,2" d="M420.58,-43.74C456.26,-41.94 509.81,-40.85 556,-46.5 573.56,-48.65 592.71,-53.22 608.34,-57.55"/>
<polygon fill="#9a32cd" stroke="#9a32cd" points="420.51,-40.24 410.72,-44.29 420.89,-47.23 420.51,-40.24"/>
<text text-anchor="middle" x="515" y="-60.5" font-family="Helvetica,sans-Serif" font-size="10.00"> uio_name</text>
<text text-anchor="middle" x="515" y="-49.5" font-family="Helvetica,sans-Serif" font-size="10.00">xdma_evt_dev</text>
</g>
<!-- Node9 -->
<g id="node9" class="node">
<title>Node9</title>
<g id="a_node9"><a xlink:title=" ">
<polygon fill="white" stroke="#666666" points="241,-61.5 148,-61.5 148,-31.5 241,-31.5 241,-61.5"/>
<text text-anchor="start" x="156" y="-49.5" font-family="Helvetica,sans-Serif" font-size="10.00">std::basic_string&lt;</text>
<text text-anchor="middle" x="194.5" y="-38.5" font-family="Helvetica,sans-Serif" font-size="10.00"> Char &gt;</text>
</a>
</g>
</g>
<!-- Node9&#45;&gt;Node8 -->
<g id="edge8" class="edge">
<title>Node9&#45;&gt;Node8</title>
<path fill="none" stroke="#63b8ff" d="M252.31,-46.5C284.57,-46.5 323.6,-46.5 349.62,-46.5"/>
<polygon fill="#63b8ff" stroke="#63b8ff" points="252.72,-43 242.72,-46.5 252.72,-50 252.72,-43"/>
</g>
<!-- Node10 -->
<g id="node10" class="node">
<title>Node10</title>
<g id="a_node10"><a xlink:href="structudmaio_1_1_uio_region.html" target="_top" xlink:title="General&#45;purpose struct to define a memory area.">
<polygon fill="white" stroke="#666666" points="428.5,-19 330.5,-19 330.5,0 428.5,0 428.5,-19"/>
<text text-anchor="middle" x="379.5" y="-7" font-family="Helvetica,sans-Serif" font-size="10.00">udmaio::UioRegion</text>
</a>
</g>
</g>
<!-- Node10&#45;&gt;Node1 -->
<g id="edge9" class="edge">
<title>Node10&#45;&gt;Node1</title>
<path fill="none" stroke="#9a32cd" stroke-dasharray="5,2" d="M440.27,-10.61C474.65,-12.49 518.36,-17 556,-27.5 580.86,-34.44 607.43,-48.19 624,-57.61"/>
<polygon fill="#9a32cd" stroke="#9a32cd" points="440.66,-7.13 430.5,-10.15 440.32,-14.12 440.66,-7.13"/>
<text text-anchor="middle" x="515" y="-30.5" font-family="Helvetica,sans-Serif" font-size="10.00"> xdma_region</text>
</g>
</g>
</svg>
