<?xml version="1.0" encoding="UTF-8" standalone="no"?>
<!DOCTYPE svg PUBLIC "-//W3C//DTD SVG 1.1//EN"
 "http://www.w3.org/Graphics/SVG/1.1/DTD/svg11.dtd">
<!-- Generated by graphviz version 7.0.5 (20221223.1930)
 -->
<!-- Title: UioGpioStatus Pages: 1 -->
<svg width="289pt" height="321pt"
 viewBox="0.00 0.00 288.50 321.00" xmlns="http://www.w3.org/2000/svg" xmlns:xlink="http://www.w3.org/1999/xlink">
<g id="graph0" class="graph" transform="scale(1 1) rotate(0) translate(4 317)">
<title>UioGpioStatus</title>
<!-- Node1 -->
<g id="node1" class="node">
<title>Node1</title>
<g id="a_node1"><a xlink:title="Interface to GPIO status port of the demo application.">
<polygon fill="#999999" stroke="#666666" points="146.5,-19 66.5,-19 66.5,0 146.5,0 146.5,-19"/>
<text text-anchor="middle" x="106.5" y="-7" font-family="Helvetica,sans-Serif" font-size="10.00">UioGpioStatus</text>
</a>
</g>
</g>
<!-- Node2 -->
<g id="node2" class="node">
<title>Node2</title>
<g id="a_node2"><a xlink:href="classudmaio_1_1_uio_if.html" target="_top" xlink:title="UIO Interface implementing bus access.">
<polygon fill="white" stroke="#666666" points="114.5,-144 66.5,-144 66.5,-125 114.5,-125 114.5,-144"/>
<text text-anchor="middle" x="90.5" y="-132" font-family="Helvetica,sans-Serif" font-size="10.00">UioIf32</text>
</a>
</g>
</g>
<!-- Node2&#45;&gt;Node1 -->
<g id="edge1" class="edge">
<title>Node2&#45;&gt;Node1</title>
<path fill="none" stroke="#8b1a1a" d="M93.11,-113.44C96.65,-86.23 102.82,-38.78 105.36,-19.27"/>
<polygon fill="#8b1a1a" stroke="#8b1a1a" points="89.67,-112.79 91.85,-123.15 96.61,-113.69 89.67,-112.79"/>
</g>
<!-- Node3 -->
<g id="node3" class="node">
<title>Node3</title>
<g id="a_node3"><a xlink:href="classudmaio_1_1_uio_if_base.html" target="_top" xlink:title="Base class for UIO interfaces.">
<polygon fill="white" stroke="#666666" points="155.5,-247 59.5,-247 59.5,-228 155.5,-228 155.5,-247"/>
<text text-anchor="middle" x="107.5" y="-235" font-family="Helvetica,sans-Serif" font-size="10.00">udmaio::UioIfBase</text>
</a>
</g>
</g>
<!-- Node3&#45;&gt;Node2 -->
<g id="edge2" class="edge">
<title>Node3&#45;&gt;Node2</title>
<path fill="none" stroke="#63b8ff" d="M104.09,-216.23C100.39,-194.27 94.66,-160.24 91.98,-144.3"/>
<polygon fill="#63b8ff" stroke="#63b8ff" points="100.63,-216.76 105.74,-226.04 107.53,-215.6 100.63,-216.76"/>
</g>
<!-- Node7 -->
<g id="node7" class="node">
<title>Node7</title>
<g id="a_node7"><a xlink:href="classudmaio_1_1_reg_accessor_base.html" target="_top" xlink:title="Base class implementing register access. Only used by subclasses, not used directly.">
<polygon fill="white" stroke="#666666" points="277,-181 120,-181 120,-162 277,-162 277,-181"/>
<text text-anchor="middle" x="198.5" y="-169" font-family="Helvetica,sans-Serif" font-size="10.00">udmaio::RegAccessorBase&lt; C &gt;</text>
</a>
</g>
</g>
<!-- Node3&#45;&gt;Node7 -->
<g id="edge7" class="edge">
<title>Node3&#45;&gt;Node7</title>
<path fill="none" stroke="#9a32cd" stroke-dasharray="5,2" d="M129.2,-221.24C146.92,-208.78 171.33,-191.61 185.95,-181.32"/>
<polygon fill="#9a32cd" stroke="#9a32cd" points="127.56,-218.11 121.39,-226.73 131.58,-223.84 127.56,-218.11"/>
<text text-anchor="middle" x="164" y="-202" font-family="Helvetica,sans-Serif" font-size="10.00"> _if</text>
</g>
<!-- Node4 -->
<g id="node4" class="node">
<title>Node4</title>
<g id="a_node4"><a xlink:title=" ">
<polygon fill="white" stroke="#666666" points="99,-313 0,-313 0,-294 99,-294 99,-313"/>
<text text-anchor="middle" x="49.5" y="-301" font-family="Helvetica,sans-Serif" font-size="10.00">boost::noncopyable</text>
</a>
</g>
</g>
<!-- Node4&#45;&gt;Node3 -->
<g id="edge3" class="edge">
<title>Node4&#45;&gt;Node3</title>
<path fill="none" stroke="#8b1a1a" d="M65.25,-285.12C76.33,-272.89 90.7,-257.04 99.5,-247.32"/>
<polygon fill="#8b1a1a" stroke="#8b1a1a" points="62.7,-282.72 58.58,-292.48 67.89,-287.42 62.7,-282.72"/>
</g>
<!-- Node5 -->
<g id="node5" class="node">
<title>Node5</title>
<g id="a_node5"><a xlink:href="structudmaio_1_1_uio_region.html" target="_top" xlink:title="General&#45;purpose struct to define a memory area.">
<polygon fill="white" stroke="#666666" points="215.5,-313 117.5,-313 117.5,-294 215.5,-294 215.5,-313"/>
<text text-anchor="middle" x="166.5" y="-301" font-family="Helvetica,sans-Serif" font-size="10.00">udmaio::UioRegion</text>
</a>
</g>
</g>
<!-- Node5&#45;&gt;Node3 -->
<g id="edge4" class="edge">
<title>Node5&#45;&gt;Node3</title>
<path fill="none" stroke="#9a32cd" stroke-dasharray="5,2" d="M150.81,-285.48C139.49,-273.2 124.67,-257.13 115.63,-247.32"/>
<polygon fill="#9a32cd" stroke="#9a32cd" points="147.92,-287.51 157.27,-292.49 153.07,-282.76 147.92,-287.51"/>
<text text-anchor="middle" x="157.5" y="-268" font-family="Helvetica,sans-Serif" font-size="10.00"> _region</text>
</g>
<!-- Node6 -->
<g id="node6" class="node">
<title>Node6</title>
<g id="a_node6"><a xlink:href="classudmaio_1_1_reg_accessor_array_3_01_c_00_01offset_00_010_00_010_01_4.html" target="_top" xlink:title=" ">
<polygon fill="white" stroke="#666666" points="280.5,-107 118.5,-107 118.5,-66 280.5,-66 280.5,-107"/>
<text text-anchor="start" x="126.5" y="-95" font-family="Helvetica,sans-Serif" font-size="10.00">udmaio::RegAccessorArray</text>
<text text-anchor="start" x="126.5" y="-84" font-family="Helvetica,sans-Serif" font-size="10.00">&lt; C, offset, 0, 0 &gt;&lt; UioGpioStatus</text>
<text text-anchor="middle" x="199.5" y="-73" font-family="Helvetica,sans-Serif" font-size="10.00">::GpioData, 0 &gt;</text>
</a>
</g>
</g>
<!-- Node6&#45;&gt;Node1 -->
<g id="edge5" class="edge">
<title>Node6&#45;&gt;Node1</title>
<path fill="none" stroke="#9a32cd" stroke-dasharray="5,2" d="M166.37,-58.78C149.17,-44.91 129.31,-28.89 117.33,-19.24"/>
<polygon fill="#9a32cd" stroke="#9a32cd" points="163.91,-61.29 173.89,-64.84 168.3,-55.84 163.91,-61.29"/>
<text text-anchor="middle" x="163" y="-40" font-family="Helvetica,sans-Serif" font-size="10.00"> gpio</text>
</g>
<!-- Node7&#45;&gt;Node6 -->
<g id="edge6" class="edge">
<title>Node7&#45;&gt;Node6</title>
<path fill="none" stroke="#63b8ff" d="M198.75,-150.12C198.9,-137.07 199.11,-120.22 199.26,-107.29"/>
<polygon fill="#63b8ff" stroke="#63b8ff" points="195.25,-150.06 198.63,-160.1 202.25,-150.15 195.25,-150.06"/>
</g>
</g>
</svg>
