<?xml version="1.0" encoding="UTF-8" standalone="no"?>
<!DOCTYPE svg PUBLIC "-//W3C//DTD SVG 1.1//EN"
 "http://www.w3.org/Graphics/SVG/1.1/DTD/svg11.dtd">
<!-- Generated by graphviz version 7.0.5 (20221223.1930)
 -->
<!-- Title: Graphical Class Hierarchy Pages: 1 -->
<svg width="660pt" height="463pt"
 viewBox="0.00 0.00 660.00 462.50" xmlns="http://www.w3.org/2000/svg" xmlns:xlink="http://www.w3.org/1999/xlink">
<g id="graph0" class="graph" transform="scale(1 1) rotate(0) translate(4 458.5)">
<title>Graphical Class Hierarchy</title>
<!-- Node0 -->
<g id="node1" class="node">
<title>Node0</title>
<g id="a_node1"><a xlink:href="structaxi__dma_1_1block__template.html" target="_top" xlink:title="Template class for the axi_dma block, containing accessors for all its registers.">
<polygon fill="white" stroke="#666666" points="276,-454.5 137,-454.5 137,-424.5 276,-424.5 276,-454.5"/>
<text text-anchor="start" x="145" y="-442.5" font-family="Helvetica,sans-Serif" font-size="10.00">axi_dma::block_template</text>
<text text-anchor="middle" x="206.5" y="-431.5" font-family="Helvetica,sans-Serif" font-size="10.00">&lt; R_array_acc, R_acc_arg &gt;</text>
</a>
</g>
</g>
<!-- Node1 -->
<g id="node2" class="node">
<title>Node1</title>
<g id="a_node2"><a xlink:href="classudmaio_1_1_uio_axi_dma_if.html" target="_top" xlink:title="Interface to AXI DMA Core.">
<polygon fill="white" stroke="#666666" points="451.5,-449 344.5,-449 344.5,-430 451.5,-430 451.5,-449"/>
<text text-anchor="middle" x="398" y="-437" font-family="Helvetica,sans-Serif" font-size="10.00">udmaio::UioAxiDmaIf</text>
</a>
</g>
</g>
<!-- Node0&#45;&gt;Node1 -->
<g id="edge1" class="edge">
<title>Node0&#45;&gt;Node1</title>
<path fill="none" stroke="#8b1a1a" d="M287.85,-439.5C306.88,-439.5 326.7,-439.5 344.15,-439.5"/>
<polygon fill="#8b1a1a" stroke="#8b1a1a" points="287.96,-436 277.96,-439.5 287.96,-443 287.96,-436"/>
</g>
<!-- Node9 -->
<g id="node3" class="node">
<title>Node9</title>
<g id="a_node3"><a xlink:href="structudmaio_1_1_logger.html" target="_top" xlink:title=" ">
<polygon fill="white" stroke="#666666" points="91,-188 8,-188 8,-169 91,-169 91,-188"/>
<text text-anchor="middle" x="49.5" y="-176" font-family="Helvetica,sans-Serif" font-size="10.00">udmaio::Logger</text>
</a>
</g>
</g>
<!-- Node10 -->
<g id="node4" class="node">
<title>Node10</title>
<g id="a_node4"><a xlink:href="classudmaio_1_1_data_handler_abstract.html" target="_top" xlink:title="Base class to implement a DMA data reception handler.">
<polygon fill="white" stroke="#666666" points="278,-188 135,-188 135,-169 278,-169 278,-188"/>
<text text-anchor="middle" x="206.5" y="-176" font-family="Helvetica,sans-Serif" font-size="10.00">udmaio::DataHandlerAbstract</text>
</a>
</g>
</g>
<!-- Node9&#45;&gt;Node10 -->
<g id="edge2" class="edge">
<title>Node9&#45;&gt;Node10</title>
<path fill="none" stroke="#63b8ff" d="M102.57,-178.5C112.91,-178.5 123.93,-178.5 134.78,-178.5"/>
<polygon fill="#63b8ff" stroke="#63b8ff" points="102.74,-175 92.74,-178.5 102.74,-182 102.74,-175"/>
</g>
<!-- Node14 -->
<g id="node7" class="node">
<title>Node14</title>
<g id="a_node7"><a xlink:href="classudmaio_1_1_hw_accessor.html" target="_top" xlink:title="Base class for hardware access.">
<polygon fill="white" stroke="#666666" points="261,-110 152,-110 152,-91 261,-91 261,-110"/>
<text text-anchor="middle" x="206.5" y="-98" font-family="Helvetica,sans-Serif" font-size="10.00">udmaio::HwAccessor</text>
</a>
</g>
</g>
<!-- Node9&#45;&gt;Node14 -->
<g id="edge5" class="edge">
<title>Node9&#45;&gt;Node14</title>
<path fill="none" stroke="#63b8ff" d="M80.39,-163.46C111.54,-147.78 159.44,-123.68 186.03,-110.3"/>
<polygon fill="#63b8ff" stroke="#63b8ff" points="78.84,-160.32 71.48,-167.94 81.99,-166.57 78.84,-160.32"/>
</g>
<!-- Node8 -->
<g id="node13" class="node">
<title>Node8</title>
<g id="a_node13"><a xlink:href="classudmaio_1_1_u_dma_buf.html" target="_top" xlink:title="DMA data buffer accessed over AXI/UIO, implemented w/ udmabuf (see https://github....">
<polygon fill="white" stroke="#666666" points="445.5,-227 350.5,-227 350.5,-208 445.5,-208 445.5,-227"/>
<text text-anchor="middle" x="398" y="-215" font-family="Helvetica,sans-Serif" font-size="10.00">udmaio::UDmaBuf</text>
</a>
</g>
</g>
<!-- Node9&#45;&gt;Node8 -->
<g id="edge11" class="edge">
<title>Node9&#45;&gt;Node8</title>
<path fill="none" stroke="#63b8ff" d="M100.43,-190.98C111.74,-193.46 123.74,-195.81 135,-197.5 209.89,-208.72 297.82,-213.8 350.39,-215.98"/>
<polygon fill="#63b8ff" stroke="#63b8ff" points="101.4,-187.62 90.88,-188.82 99.86,-194.44 101.4,-187.62"/>
</g>
<!-- Node11 -->
<g id="node5" class="node">
<title>Node11</title>
<g id="a_node5"><a xlink:href="class_data_handler_print.html" target="_top" xlink:title="DataHandler implementation that checks LFSR data and prints status / stats.">
<polygon fill="white" stroke="#666666" points="443.5,-153 352.5,-153 352.5,-134 443.5,-134 443.5,-153"/>
<text text-anchor="middle" x="398" y="-141" font-family="Helvetica,sans-Serif" font-size="10.00">DataHandlerPrint</text>
</a>
</g>
</g>
<!-- Node10&#45;&gt;Node11 -->
<g id="edge3" class="edge">
<title>Node10&#45;&gt;Node11</title>
<path fill="none" stroke="#63b8ff" d="M272.56,-166.48C298.79,-161.64 328.4,-156.17 352.16,-151.78"/>
<polygon fill="#63b8ff" stroke="#63b8ff" points="272.24,-162.98 263.04,-168.24 273.51,-169.87 272.24,-162.98"/>
</g>
<!-- Node12 -->
<g id="node6" class="node">
<title>Node12</title>
<g id="a_node6"><a xlink:href="classudmaio_1_1_data_handler_sync.html" target="_top" xlink:title="Synchronous data handler with blocking read interface.">
<polygon fill="white" stroke="#666666" points="462,-190 334,-190 334,-171 462,-171 462,-190"/>
<text text-anchor="middle" x="398" y="-178" font-family="Helvetica,sans-Serif" font-size="10.00">udmaio::DataHandlerSync</text>
</a>
</g>
</g>
<!-- Node10&#45;&gt;Node12 -->
<g id="edge4" class="edge">
<title>Node10&#45;&gt;Node12</title>
<path fill="none" stroke="#63b8ff" d="M289.55,-179.37C304.35,-179.52 319.57,-179.68 333.74,-179.83"/>
<polygon fill="#63b8ff" stroke="#63b8ff" points="289.88,-175.87 279.85,-179.26 289.81,-182.87 289.88,-175.87"/>
</g>
<!-- Node15 -->
<g id="node8" class="node">
<title>Node15</title>
<g id="a_node8"><a xlink:href="classudmaio_1_1_hw_accessor_mmap.html" target="_top" xlink:title=" ">
<polygon fill="white" stroke="#666666" points="466,-115.5 330,-115.5 330,-85.5 466,-85.5 466,-115.5"/>
<text text-anchor="start" x="338" y="-103.5" font-family="Helvetica,sans-Serif" font-size="10.00">udmaio::HwAccessorMmap</text>
<text text-anchor="middle" x="398" y="-92.5" font-family="Helvetica,sans-Serif" font-size="10.00">&lt; uint64_t &gt;</text>
</a>
</g>
</g>
<!-- Node14&#45;&gt;Node15 -->
<g id="edge6" class="edge">
<title>Node14&#45;&gt;Node15</title>
<path fill="none" stroke="#63b8ff" d="M272.77,-100.5C291.11,-100.5 311.09,-100.5 329.55,-100.5"/>
<polygon fill="#63b8ff" stroke="#63b8ff" points="272.81,-97 262.81,-100.5 272.81,-104 272.81,-97"/>
</g>
<!-- Node17 -->
<g id="node10" class="node">
<title>Node17</title>
<g id="a_node10"><a xlink:href="classudmaio_1_1_hw_accessor_mmap.html" target="_top" xlink:title=" ">
<polygon fill="white" stroke="#666666" points="466,-67.5 330,-67.5 330,-37.5 466,-37.5 466,-67.5"/>
<text text-anchor="start" x="338" y="-55.5" font-family="Helvetica,sans-Serif" font-size="10.00">udmaio::HwAccessorMmap</text>
<text text-anchor="middle" x="398" y="-44.5" font-family="Helvetica,sans-Serif" font-size="10.00">&lt; max_access_width_t &gt;</text>
</a>
</g>
</g>
<!-- Node14&#45;&gt;Node17 -->
<g id="edge8" class="edge">
<title>Node14&#45;&gt;Node17</title>
<path fill="none" stroke="#63b8ff" d="M257.79,-87.76C281.85,-81.67 310.85,-74.32 336.14,-67.92"/>
<polygon fill="#63b8ff" stroke="#63b8ff" points="257.07,-84.33 248.23,-90.18 258.79,-91.12 257.07,-84.33"/>
</g>
<!-- Node19 -->
<g id="node12" class="node">
<title>Node19</title>
<g id="a_node12"><a xlink:href="classudmaio_1_1_hw_accessor_mock.html" target="_top" xlink:title=" ">
<polygon fill="white" stroke="#666666" points="464.5,-19 331.5,-19 331.5,0 464.5,0 464.5,-19"/>
<text text-anchor="middle" x="398" y="-7" font-family="Helvetica,sans-Serif" font-size="10.00">udmaio::HwAccessorMock</text>
</a>
</g>
</g>
<!-- Node14&#45;&gt;Node19 -->
<g id="edge10" class="edge">
<title>Node14&#45;&gt;Node19</title>
<path fill="none" stroke="#63b8ff" d="M227.82,-83.36C248.32,-66.94 281.48,-42.62 314,-28.5 322.41,-24.85 331.61,-21.85 340.73,-19.41"/>
<polygon fill="#63b8ff" stroke="#63b8ff" points="225.79,-80.5 220.27,-89.54 230.22,-85.92 225.79,-80.5"/>
</g>
<!-- Node16 -->
<g id="node9" class="node">
<title>Node16</title>
<g id="a_node9"><a xlink:href="classudmaio_1_1_hw_accessor_axi.html" target="_top" xlink:title=" ">
<polygon fill="white" stroke="#666666" points="646,-110 524,-110 524,-91 646,-91 646,-110"/>
<text text-anchor="middle" x="585" y="-98" font-family="Helvetica,sans-Serif" font-size="10.00">udmaio::HwAccessorAxi</text>
</a>
</g>
</g>
<!-- Node15&#45;&gt;Node16 -->
<g id="edge7" class="edge">
<title>Node15&#45;&gt;Node16</title>
<path fill="none" stroke="#63b8ff" d="M477.48,-100.5C492.97,-100.5 509.01,-100.5 523.79,-100.5"/>
<polygon fill="#63b8ff" stroke="#63b8ff" points="477.83,-97 467.83,-100.5 477.83,-104 477.83,-97"/>
</g>
<!-- Node18 -->
<g id="node11" class="node">
<title>Node18</title>
<g id="a_node11"><a xlink:href="classudmaio_1_1_hw_accessor_xdma.html" target="_top" xlink:title=" ">
<polygon fill="white" stroke="#666666" points="652,-67.5 518,-67.5 518,-37.5 652,-37.5 652,-67.5"/>
<text text-anchor="start" x="526" y="-55.5" font-family="Helvetica,sans-Serif" font-size="10.00">udmaio::HwAccessorXdma</text>
<text text-anchor="middle" x="585" y="-44.5" font-family="Helvetica,sans-Serif" font-size="10.00">&lt; max_access_width_t &gt;</text>
</a>
</g>
</g>
<!-- Node17&#45;&gt;Node18 -->
<g id="edge9" class="edge">
<title>Node17&#45;&gt;Node18</title>
<path fill="none" stroke="#63b8ff" d="M477.44,-52.5C490.83,-52.5 504.63,-52.5 517.67,-52.5"/>
<polygon fill="#63b8ff" stroke="#63b8ff" points="477.83,-49 467.83,-52.5 477.83,-56 477.83,-49"/>
</g>
<!-- Node13 -->
<g id="node14" class="node">
<title>Node13</title>
<g id="a_node14"><a xlink:title=" ">
<polygon fill="#e0e0e0" stroke="#999999" points="99,-244 0,-244 0,-225 99,-225 99,-244"/>
<text text-anchor="middle" x="49.5" y="-232" font-family="Helvetica,sans-Serif" font-size="10.00">boost::noncopyable</text>
</a>
</g>
</g>
<!-- Node13&#45;&gt;Node10 -->
<g id="edge12" class="edge">
<title>Node13&#45;&gt;Node10</title>
<path fill="none" stroke="#8b1a1a" d="M88.34,-220.83C116.03,-210.83 152.96,-197.48 177.9,-188.47"/>
<polygon fill="#8b1a1a" stroke="#8b1a1a" points="87.49,-217.41 79.28,-224.1 89.87,-224 87.49,-217.41"/>
</g>
<!-- Node13&#45;&gt;Node14 -->
<g id="edge17" class="edge">
<title>Node13&#45;&gt;Node14</title>
<path fill="none" stroke="#8b1a1a" d="M73.6,-217.97C81.83,-211.8 91.03,-204.57 99,-197.5 116.17,-182.28 118.25,-176.17 135,-160.5 154.72,-142.05 178.92,-121.98 193.23,-110.36"/>
<polygon fill="#8b1a1a" stroke="#8b1a1a" points="71.71,-215.01 65.74,-223.76 75.86,-220.65 71.71,-215.01"/>
</g>
<!-- Node6 -->
<g id="node15" class="node">
<title>Node6</title>
<g id="a_node15"><a xlink:href="classudmaio_1_1_dma_buffer_abstract.html" target="_top" xlink:title="Base class for DMA data buffer.">
<polygon fill="white" stroke="#666666" points="274,-264 139,-264 139,-245 274,-245 274,-264"/>
<text text-anchor="middle" x="206.5" y="-252" font-family="Helvetica,sans-Serif" font-size="10.00">udmaio::DmaBufferAbstract</text>
</a>
</g>
</g>
<!-- Node13&#45;&gt;Node6 -->
<g id="edge13" class="edge">
<title>Node13&#45;&gt;Node6</title>
<path fill="none" stroke="#8b1a1a" d="M110.54,-242.25C119.73,-243.43 129.27,-244.66 138.6,-245.87"/>
<polygon fill="#8b1a1a" stroke="#8b1a1a" points="110.98,-238.78 100.62,-240.97 110.09,-245.72 110.98,-238.78"/>
</g>
<!-- Node2 -->
<g id="node18" class="node">
<title>Node2</title>
<g id="a_node18"><a xlink:href="classudmaio_1_1_uio_if.html" target="_top" xlink:title="Base class for UIO interfaces.">
<polygon fill="white" stroke="#666666" points="243.5,-356 169.5,-356 169.5,-337 243.5,-337 243.5,-356"/>
<text text-anchor="middle" x="206.5" y="-344" font-family="Helvetica,sans-Serif" font-size="10.00">udmaio::UioIf</text>
</a>
</g>
</g>
<!-- Node13&#45;&gt;Node2 -->
<g id="edge18" class="edge">
<title>Node13&#45;&gt;Node2</title>
<path fill="none" stroke="#8b1a1a" d="M73.53,-251.14C106.33,-274.84 165.48,-317.58 192,-336.74"/>
<polygon fill="#8b1a1a" stroke="#8b1a1a" points="75.64,-248.35 65.48,-245.33 71.54,-254.02 75.64,-248.35"/>
</g>
<!-- Node6&#45;&gt;Node8 -->
<g id="edge16" class="edge">
<title>Node6&#45;&gt;Node8</title>
<path fill="none" stroke="#63b8ff" d="M269.31,-242.43C295.65,-237.29 325.87,-231.39 350.3,-226.62"/>
<polygon fill="#63b8ff" stroke="#63b8ff" points="268.91,-238.94 259.77,-244.29 270.25,-245.81 268.91,-238.94"/>
</g>
<!-- Node5 -->
<g id="node16" class="node">
<title>Node5</title>
<g id="a_node16"><a xlink:href="classudmaio_1_1_fpga_mem_buffer_over_axi.html" target="_top" xlink:title="DMA data buffer accessed over AXI/UIO, described w/ explicit address &amp; size.">
<polygon fill="white" stroke="#666666" points="476,-301 320,-301 320,-282 476,-282 476,-301"/>
<text text-anchor="middle" x="398" y="-289" font-family="Helvetica,sans-Serif" font-size="10.00">udmaio::FpgaMemBufferOverAxi</text>
</a>
</g>
</g>
<!-- Node6&#45;&gt;Node5 -->
<g id="edge14" class="edge">
<title>Node6&#45;&gt;Node5</title>
<path fill="none" stroke="#63b8ff" d="M269.42,-266.59C294.23,-271.43 322.48,-276.95 346.08,-281.56"/>
<polygon fill="#63b8ff" stroke="#63b8ff" points="270.25,-263.19 259.77,-264.71 268.91,-270.06 270.25,-263.19"/>
</g>
<!-- Node7 -->
<g id="node17" class="node">
<title>Node7</title>
<g id="a_node17"><a xlink:href="classudmaio_1_1_fpga_mem_buffer_over_xdma.html" target="_top" xlink:title="DMA data buffer accessed over XDMA using the xdma c2h0 stream channel.">
<polygon fill="white" stroke="#666666" points="482,-264 314,-264 314,-245 482,-245 482,-264"/>
<text text-anchor="middle" x="398" y="-252" font-family="Helvetica,sans-Serif" font-size="10.00">udmaio::FpgaMemBufferOverXdma</text>
</a>
</g>
</g>
<!-- Node6&#45;&gt;Node7 -->
<g id="edge15" class="edge">
<title>Node6&#45;&gt;Node7</title>
<path fill="none" stroke="#63b8ff" d="M285.77,-254.5C294.93,-254.5 304.3,-254.5 313.53,-254.5"/>
<polygon fill="#63b8ff" stroke="#63b8ff" points="285.82,-251 275.82,-254.5 285.82,-258 285.82,-251"/>
</g>
<!-- Node2&#45;&gt;Node1 -->
<g id="edge22" class="edge">
<title>Node2&#45;&gt;Node1</title>
<path fill="none" stroke="#63b8ff" d="M227,-363.91C247.31,-381.11 280.75,-406.91 314,-421.5 323.45,-425.65 333.94,-428.87 344.19,-431.37"/>
<polygon fill="#63b8ff" stroke="#63b8ff" points="229.39,-361.35 219.54,-357.45 224.81,-366.64 229.39,-361.35"/>
</g>
<!-- Node2&#45;&gt;Node5 -->
<g id="edge21" class="edge">
<title>Node2&#45;&gt;Node5</title>
<path fill="none" stroke="#63b8ff" d="M245.07,-332.77C265.33,-325.62 290.86,-317.04 314,-310.5 325.52,-307.24 338.06,-304.14 349.82,-301.43"/>
<polygon fill="#63b8ff" stroke="#63b8ff" points="244.08,-329.41 235.83,-336.06 246.42,-336 244.08,-329.41"/>
</g>
<!-- Node3 -->
<g id="node19" class="node">
<title>Node3</title>
<g id="a_node19"><a xlink:href="class_uio_gpio_status.html" target="_top" xlink:title="Interface to GPIO status port of the demo application.">
<polygon fill="white" stroke="#666666" points="438,-412 358,-412 358,-393 438,-393 438,-412"/>
<text text-anchor="middle" x="398" y="-400" font-family="Helvetica,sans-Serif" font-size="10.00">UioGpioStatus</text>
</a>
</g>
</g>
<!-- Node2&#45;&gt;Node3 -->
<g id="edge19" class="edge">
<title>Node2&#45;&gt;Node3</title>
<path fill="none" stroke="#63b8ff" d="M243.32,-360.59C263.81,-368.31 290.11,-377.68 314,-384.5 328.18,-388.55 343.94,-392.18 357.89,-395.1"/>
<polygon fill="#63b8ff" stroke="#63b8ff" points="244.6,-357.33 234.01,-357.03 242.1,-363.87 244.6,-357.33"/>
</g>
<!-- Node4 -->
<g id="node20" class="node">
<title>Node4</title>
<g id="a_node20"><a xlink:href="class_uio_traffic_gen.html" target="_top" xlink:title="Interface to LFSR core of the demo application.">
<polygon fill="white" stroke="#666666" points="436,-375 360,-375 360,-356 436,-356 436,-375"/>
<text text-anchor="middle" x="398" y="-363" font-family="Helvetica,sans-Serif" font-size="10.00">UioTrafficGen</text>
</a>
</g>
</g>
<!-- Node2&#45;&gt;Node4 -->
<g id="edge20" class="edge">
<title>Node2&#45;&gt;Node4</title>
<path fill="none" stroke="#63b8ff" d="M255.04,-351.27C287.46,-354.52 329.78,-358.76 359.75,-361.77"/>
<polygon fill="#63b8ff" stroke="#63b8ff" points="255.39,-347.78 245.1,-350.27 254.7,-354.75 255.39,-347.78"/>
</g>
<!-- Node20 -->
<g id="node21" class="node">
<title>Node20</title>
<g id="a_node21"><a xlink:href="classudmaio_1_1_uio_mem_sgdma.html" target="_top" xlink:title="Interface to AXI DMA scatter&#45;gather buffers &amp; descriptors Uses a UioIf to access DMA descriptor memor...">
<polygon fill="white" stroke="#666666" points="458,-338 338,-338 338,-319 458,-319 458,-338"/>
<text text-anchor="middle" x="398" y="-326" font-family="Helvetica,sans-Serif" font-size="10.00">udmaio::UioMemSgdma</text>
</a>
</g>
</g>
<!-- Node2&#45;&gt;Node20 -->
<g id="edge23" class="edge">
<title>Node2&#45;&gt;Node20</title>
<path fill="none" stroke="#63b8ff" d="M254.99,-341.99C280.02,-339.61 310.96,-336.67 337.57,-334.15"/>
<polygon fill="#63b8ff" stroke="#63b8ff" points="254.72,-338.5 245.1,-342.93 255.38,-345.47 254.72,-338.5"/>
</g>
</g>
</svg>
