<?xml version="1.0" encoding="UTF-8" standalone="no"?>
<!DOCTYPE svg PUBLIC "-//W3C//DTD SVG 1.1//EN"
 "http://www.w3.org/Graphics/SVG/1.1/DTD/svg11.dtd">
<!-- Generated by graphviz version 7.0.5 (20221223.1930)
 -->
<!-- Title: Graphical Class Hierarchy Pages: 1 -->
<svg width="490pt" height="323pt"
 viewBox="0.00 0.00 490.00 323.00" xmlns="http://www.w3.org/2000/svg" xmlns:xlink="http://www.w3.org/1999/xlink">
<g id="graph0" class="graph" transform="scale(1 1) rotate(0) translate(4 319)">
<title>Graphical Class Hierarchy</title>
<!-- Node0 -->
<g id="node1" class="node">
<title>Node0</title>
<g id="a_node1"><a xlink:title=" ">
<polygon fill="#e0e0e0" stroke="#999999" points="99,-204 0,-204 0,-185 99,-185 99,-204"/>
<text text-anchor="middle" x="49.5" y="-192" font-family="Helvetica,sans-Serif" font-size="10.00">boost::noncopyable</text>
</a>
</g>
</g>
<!-- Node1 -->
<g id="node2" class="node">
<title>Node1</title>
<g id="a_node2"><a xlink:href="classudmaio_1_1_data_handler_abstract.html" target="_top" xlink:title="Base class to implement a DMA data reception handler.">
<polygon fill="white" stroke="#666666" points="278,-278 135,-278 135,-259 278,-259 278,-278"/>
<text text-anchor="middle" x="206.5" y="-266" font-family="Helvetica,sans-Serif" font-size="10.00">udmaio::DataHandlerAbstract</text>
</a>
</g>
</g>
<!-- Node0&#45;&gt;Node1 -->
<g id="edge1" class="edge">
<title>Node0&#45;&gt;Node1</title>
<path fill="none" stroke="#8b1a1a" d="M81.58,-209.34C112.31,-224.01 158.48,-246.05 184.93,-258.68"/>
<polygon fill="#8b1a1a" stroke="#8b1a1a" points="83.3,-206.28 72.77,-205.13 80.29,-212.6 83.3,-206.28"/>
</g>
<!-- Node4 -->
<g id="node5" class="node">
<title>Node4</title>
<g id="a_node5"><a xlink:href="classudmaio_1_1_dma_buffer_abstract.html" target="_top" xlink:title="Base class for DMA data buffer.">
<polygon fill="white" stroke="#666666" points="274,-204 139,-204 139,-185 274,-185 274,-204"/>
<text text-anchor="middle" x="206.5" y="-192" font-family="Helvetica,sans-Serif" font-size="10.00">udmaio::DmaBufferAbstract</text>
</a>
</g>
</g>
<!-- Node0&#45;&gt;Node4 -->
<g id="edge4" class="edge">
<title>Node0&#45;&gt;Node4</title>
<path fill="none" stroke="#8b1a1a" d="M110.54,-194.5C119.73,-194.5 129.27,-194.5 138.6,-194.5"/>
<polygon fill="#8b1a1a" stroke="#8b1a1a" points="110.63,-191 100.63,-194.5 110.63,-198 110.63,-191"/>
</g>
<!-- Node6 -->
<g id="node9" class="node">
<title>Node6</title>
<g id="a_node9"><a xlink:href="classudmaio_1_1_uio_if.html" target="_top" xlink:title="Base class for UIO interfaces.">
<polygon fill="white" stroke="#666666" points="243.5,-112 169.5,-112 169.5,-93 243.5,-93 243.5,-112"/>
<text text-anchor="middle" x="206.5" y="-100" font-family="Helvetica,sans-Serif" font-size="10.00">udmaio::UioIf</text>
</a>
</g>
</g>
<!-- Node0&#45;&gt;Node6 -->
<g id="edge8" class="edge">
<title>Node0&#45;&gt;Node6</title>
<path fill="none" stroke="#8b1a1a" d="M76.7,-178.95C108.79,-159.9 162.19,-128.21 189.03,-112.27"/>
<polygon fill="#8b1a1a" stroke="#8b1a1a" points="75.2,-175.77 68.39,-183.88 78.78,-181.79 75.2,-175.77"/>
</g>
<!-- Node2 -->
<g id="node3" class="node">
<title>Node2</title>
<g id="a_node3"><a xlink:href="class_data_handler_print.html" target="_top" xlink:title="DataHandler implementation that checks LFSR data and prints status / stats.">
<polygon fill="white" stroke="#666666" points="443.5,-315 352.5,-315 352.5,-296 443.5,-296 443.5,-315"/>
<text text-anchor="middle" x="398" y="-303" font-family="Helvetica,sans-Serif" font-size="10.00">DataHandlerPrint</text>
</a>
</g>
</g>
<!-- Node1&#45;&gt;Node2 -->
<g id="edge2" class="edge">
<title>Node1&#45;&gt;Node2</title>
<path fill="none" stroke="#63b8ff" d="M269.57,-280.62C296.54,-285.89 327.54,-291.94 352.22,-296.76"/>
<polygon fill="#63b8ff" stroke="#63b8ff" points="270.25,-277.19 259.77,-278.71 268.91,-284.06 270.25,-277.19"/>
</g>
<!-- Node3 -->
<g id="node4" class="node">
<title>Node3</title>
<g id="a_node4"><a xlink:href="classudmaio_1_1_data_handler_sync.html" target="_top" xlink:title="Synchronous data handler with blocking read interface.">
<polygon fill="white" stroke="#666666" points="462,-278 334,-278 334,-259 462,-259 462,-278"/>
<text text-anchor="middle" x="398" y="-266" font-family="Helvetica,sans-Serif" font-size="10.00">udmaio::DataHandlerSync</text>
</a>
</g>
</g>
<!-- Node1&#45;&gt;Node3 -->
<g id="edge3" class="edge">
<title>Node1&#45;&gt;Node3</title>
<path fill="none" stroke="#63b8ff" d="M289.55,-268.5C304.35,-268.5 319.57,-268.5 333.74,-268.5"/>
<polygon fill="#63b8ff" stroke="#63b8ff" points="289.85,-265 279.85,-268.5 289.85,-272 289.85,-265"/>
</g>
<!-- Node5 -->
<g id="node6" class="node">
<title>Node5</title>
<g id="a_node6"><a xlink:href="classudmaio_1_1_fpga_mem_buffer_over_axi.html" target="_top" xlink:title="DMA data buffer accessed over AXI/UIO, described w/ explicit address &amp; size.">
<polygon fill="white" stroke="#666666" points="476,-167 320,-167 320,-148 476,-148 476,-167"/>
<text text-anchor="middle" x="398" y="-155" font-family="Helvetica,sans-Serif" font-size="10.00">udmaio::FpgaMemBufferOverAxi</text>
</a>
</g>
</g>
<!-- Node4&#45;&gt;Node5 -->
<g id="edge5" class="edge">
<title>Node4&#45;&gt;Node5</title>
<path fill="none" stroke="#63b8ff" d="M269.42,-182.41C294.23,-177.57 322.48,-172.05 346.08,-167.44"/>
<polygon fill="#63b8ff" stroke="#63b8ff" points="268.91,-178.94 259.77,-184.29 270.25,-185.81 268.91,-178.94"/>
</g>
<!-- Node11 -->
<g id="node7" class="node">
<title>Node11</title>
<g id="a_node7"><a xlink:href="classudmaio_1_1_fpga_mem_buffer_over_xdma.html" target="_top" xlink:title="DMA data buffer accessed over XDMA using the xdma c2h0 stream channel.">
<polygon fill="white" stroke="#666666" points="482,-241 314,-241 314,-222 482,-222 482,-241"/>
<text text-anchor="middle" x="398" y="-229" font-family="Helvetica,sans-Serif" font-size="10.00">udmaio::FpgaMemBufferOverXdma</text>
</a>
</g>
</g>
<!-- Node4&#45;&gt;Node11 -->
<g id="edge6" class="edge">
<title>Node4&#45;&gt;Node11</title>
<path fill="none" stroke="#63b8ff" d="M269.42,-206.59C294.23,-211.43 322.48,-216.95 346.08,-221.56"/>
<polygon fill="#63b8ff" stroke="#63b8ff" points="270.25,-203.19 259.77,-204.71 268.91,-210.06 270.25,-203.19"/>
</g>
<!-- Node12 -->
<g id="node8" class="node">
<title>Node12</title>
<g id="a_node8"><a xlink:href="classudmaio_1_1_u_dma_buf.html" target="_top" xlink:title="DMA data buffer accessed over AXI/UIO, implemented w/ udmabuf (see https://github....">
<polygon fill="white" stroke="#666666" points="445.5,-204 350.5,-204 350.5,-185 445.5,-185 445.5,-204"/>
<text text-anchor="middle" x="398" y="-192" font-family="Helvetica,sans-Serif" font-size="10.00">udmaio::UDmaBuf</text>
</a>
</g>
</g>
<!-- Node4&#45;&gt;Node12 -->
<g id="edge7" class="edge">
<title>Node4&#45;&gt;Node12</title>
<path fill="none" stroke="#63b8ff" d="M285.63,-194.5C307.52,-194.5 330.65,-194.5 350.11,-194.5"/>
<polygon fill="#63b8ff" stroke="#63b8ff" points="285.82,-191 275.82,-194.5 285.82,-198 285.82,-191"/>
</g>
<!-- Node6&#45;&gt;Node5 -->
<g id="edge11" class="edge">
<title>Node6&#45;&gt;Node5</title>
<path fill="none" stroke="#63b8ff" d="M243.77,-116.32C264.2,-123.8 290.31,-132.84 314,-139.5 324.36,-142.41 335.56,-145.13 346.28,-147.52"/>
<polygon fill="#63b8ff" stroke="#63b8ff" points="245.06,-113.07 234.47,-112.88 242.63,-119.63 245.06,-113.07"/>
</g>
<!-- Node7 -->
<g id="node10" class="node">
<title>Node7</title>
<g id="a_node10"><a xlink:href="class_uio_gpio_status.html" target="_top" xlink:title="Interface to GPIO status port of the demo application.">
<polygon fill="white" stroke="#666666" points="438,-130 358,-130 358,-111 438,-111 438,-130"/>
<text text-anchor="middle" x="398" y="-118" font-family="Helvetica,sans-Serif" font-size="10.00">UioGpioStatus</text>
</a>
</g>
</g>
<!-- Node6&#45;&gt;Node7 -->
<g id="edge9" class="edge">
<title>Node6&#45;&gt;Node7</title>
<path fill="none" stroke="#8b1a1a" d="M254.81,-106.99C286.55,-110.01 327.87,-113.93 357.78,-116.77"/>
<polygon fill="#8b1a1a" stroke="#8b1a1a" points="255.38,-103.53 245.1,-106.07 254.72,-110.5 255.38,-103.53"/>
</g>
<!-- Node8 -->
<g id="node11" class="node">
<title>Node8</title>
<g id="a_node11"><a xlink:href="class_uio_traffic_gen.html" target="_top" xlink:title="Interface to LFSR core of the demo application.">
<polygon fill="white" stroke="#666666" points="436,-93 360,-93 360,-74 436,-74 436,-93"/>
<text text-anchor="middle" x="398" y="-81" font-family="Helvetica,sans-Serif" font-size="10.00">UioTrafficGen</text>
</a>
</g>
</g>
<!-- Node6&#45;&gt;Node8 -->
<g id="edge10" class="edge">
<title>Node6&#45;&gt;Node8</title>
<path fill="none" stroke="#8b1a1a" d="M255.04,-97.73C287.46,-94.48 329.78,-90.24 359.75,-87.23"/>
<polygon fill="#8b1a1a" stroke="#8b1a1a" points="254.7,-94.25 245.1,-98.73 255.39,-101.22 254.7,-94.25"/>
</g>
<!-- Node9 -->
<g id="node12" class="node">
<title>Node9</title>
<g id="a_node12"><a xlink:href="classudmaio_1_1_uio_axi_dma_if.html" target="_top" xlink:title="Interface to AXI DMA Core.">
<polygon fill="white" stroke="#666666" points="451.5,-56 344.5,-56 344.5,-37 451.5,-37 451.5,-56"/>
<text text-anchor="middle" x="398" y="-44" font-family="Helvetica,sans-Serif" font-size="10.00">udmaio::UioAxiDmaIf</text>
</a>
</g>
</g>
<!-- Node6&#45;&gt;Node9 -->
<g id="edge12" class="edge">
<title>Node6&#45;&gt;Node9</title>
<path fill="none" stroke="#63b8ff" d="M244.21,-88.63C264.59,-81.22 290.51,-72.25 314,-65.5 325.37,-62.24 337.73,-59.16 349.37,-56.46"/>
<polygon fill="#63b8ff" stroke="#63b8ff" points="243.1,-85.31 234.93,-92.05 245.52,-91.88 243.1,-85.31"/>
</g>
<!-- Node10 -->
<g id="node13" class="node">
<title>Node10</title>
<g id="a_node13"><a xlink:href="classudmaio_1_1_uio_mem_sgdma.html" target="_top" xlink:title="Interface to AXI DMA scatter&#45;gather buffers &amp; descriptors Uses a UioIf to access DMA descriptor memor...">
<polygon fill="white" stroke="#666666" points="458,-19 338,-19 338,0 458,0 458,-19"/>
<text text-anchor="middle" x="398" y="-7" font-family="Helvetica,sans-Serif" font-size="10.00">udmaio::UioMemSgdma</text>
</a>
</g>
</g>
<!-- Node6&#45;&gt;Node10 -->
<g id="edge13" class="edge">
<title>Node6&#45;&gt;Node10</title>
<path fill="none" stroke="#63b8ff" d="M227.08,-85.41C247.45,-68.51 280.93,-43.11 314,-28.5 322.25,-24.85 331.28,-21.87 340.25,-19.43"/>
<polygon fill="#63b8ff" stroke="#63b8ff" points="224.97,-82.61 219.6,-91.75 229.49,-87.95 224.97,-82.61"/>
</g>
</g>
</svg>
