<?xml version="1.0" encoding="UTF-8" standalone="no"?>
<!DOCTYPE svg PUBLIC "-//W3C//DTD SVG 1.1//EN"
 "http://www.w3.org/Graphics/SVG/1.1/DTD/svg11.dtd">
<!-- Generated by graphviz version 7.0.5 (20221223.1930)
 -->
<!-- Title: Graphical Class Hierarchy Pages: 1 -->
<svg width="668pt" height="508pt"
 viewBox="0.00 0.00 668.00 507.50" xmlns="http://www.w3.org/2000/svg" xmlns:xlink="http://www.w3.org/1999/xlink">
<g id="graph0" class="graph" transform="scale(1 1) rotate(0) translate(4 503.5)">
<title>Graphical Class Hierarchy</title>
<!-- Node0 -->
<g id="node1" class="node">
<title>Node0</title>
<g id="a_node1"><a xlink:href="structaxi__dma_1_1block__template.html" target="_top" xlink:title="Template class for the axi_dma block, containing accessors for all its registers.">
<polygon fill="white" stroke="#666666" points="280,-499.5 141,-499.5 141,-469.5 280,-469.5 280,-499.5"/>
<text text-anchor="start" x="149" y="-487.5" font-family="Helvetica,sans-Serif" font-size="10.00">axi_dma::block_template</text>
<text text-anchor="middle" x="210.5" y="-476.5" font-family="Helvetica,sans-Serif" font-size="10.00">&lt; R_array_acc, R_acc_arg &gt;</text>
</a>
</g>
</g>
<!-- Node1 -->
<g id="node2" class="node">
<title>Node1</title>
<g id="a_node2"><a xlink:href="classudmaio_1_1_uio_axi_dma_if.html" target="_top" xlink:title="Interface to AXI DMA Core.">
<polygon fill="white" stroke="#666666" points="459.5,-491 352.5,-491 352.5,-472 459.5,-472 459.5,-491"/>
<text text-anchor="middle" x="406" y="-479" font-family="Helvetica,sans-Serif" font-size="10.00">udmaio::UioAxiDmaIf</text>
</a>
</g>
</g>
<!-- Node0&#45;&gt;Node1 -->
<g id="edge1" class="edge">
<title>Node0&#45;&gt;Node1</title>
<path fill="none" stroke="#8b1a1a" d="M291.52,-483.26C312.02,-482.94 333.54,-482.61 352.27,-482.32"/>
<polygon fill="#8b1a1a" stroke="#8b1a1a" points="291.72,-479.76 281.78,-483.41 291.83,-486.75 291.72,-479.76"/>
</g>
<!-- Node23 -->
<g id="node3" class="node">
<title>Node23</title>
<g id="a_node3"><a xlink:href="structaxi__vdma_1_1block__template.html" target="_top" xlink:title="Template class for the axi_vdma block, containing accessors for all its registers.">
<polygon fill="white" stroke="#666666" points="280,-451.5 141,-451.5 141,-421.5 280,-421.5 280,-451.5"/>
<text text-anchor="start" x="149" y="-439.5" font-family="Helvetica,sans-Serif" font-size="10.00">axi_vdma::block_template</text>
<text text-anchor="middle" x="210.5" y="-428.5" font-family="Helvetica,sans-Serif" font-size="10.00">&lt; R_array_acc, R_acc_arg &gt;</text>
</a>
</g>
</g>
<!-- Node22 -->
<g id="node4" class="node">
<title>Node22</title>
<g id="a_node4"><a xlink:href="classudmaio_1_1_uio_axi_vdma_if.html" target="_top" xlink:title="Interface to AXI VDMA Core.">
<polygon fill="white" stroke="#666666" points="462.5,-449 349.5,-449 349.5,-430 462.5,-430 462.5,-449"/>
<text text-anchor="middle" x="406" y="-437" font-family="Helvetica,sans-Serif" font-size="10.00">udmaio::UioAxiVdmaIf</text>
</a>
</g>
</g>
<!-- Node23&#45;&gt;Node22 -->
<g id="edge2" class="edge">
<title>Node23&#45;&gt;Node22</title>
<path fill="none" stroke="#8b1a1a" d="M291.54,-437.74C310.92,-438.04 331.21,-438.36 349.19,-438.63"/>
<polygon fill="#8b1a1a" stroke="#8b1a1a" points="291.83,-434.25 281.78,-437.59 291.72,-441.24 291.83,-434.25"/>
</g>
<!-- Node9 -->
<g id="node5" class="node">
<title>Node9</title>
<g id="a_node5"><a xlink:href="structudmaio_1_1_logger.html" target="_top" xlink:title=" ">
<polygon fill="white" stroke="#666666" points="91,-129 8,-129 8,-110 91,-110 91,-129"/>
<text text-anchor="middle" x="49.5" y="-117" font-family="Helvetica,sans-Serif" font-size="10.00">udmaio::Logger</text>
</a>
</g>
</g>
<!-- Node10 -->
<g id="node6" class="node">
<title>Node10</title>
<g id="a_node6"><a xlink:href="classudmaio_1_1_concurrent_queue.html" target="_top" xlink:title=" ">
<polygon fill="white" stroke="#666666" points="274.5,-54.5 146.5,-54.5 146.5,-24.5 274.5,-24.5 274.5,-54.5"/>
<text text-anchor="start" x="154.5" y="-42.5" font-family="Helvetica,sans-Serif" font-size="10.00">udmaio::ConcurrentQueue</text>
<text text-anchor="middle" x="210.5" y="-31.5" font-family="Helvetica,sans-Serif" font-size="10.00">&lt; std::vector&lt; uint8_t &gt; &gt;</text>
</a>
</g>
</g>
<!-- Node9&#45;&gt;Node10 -->
<g id="edge3" class="edge">
<title>Node9&#45;&gt;Node10</title>
<path fill="none" stroke="#63b8ff" d="M71.83,-102.98C88.35,-90.78 112.2,-74.47 135,-63.5 141.49,-60.38 148.49,-57.52 155.5,-54.95"/>
<polygon fill="#63b8ff" stroke="#63b8ff" points="70.11,-99.89 64.22,-108.7 74.32,-105.49 70.11,-99.89"/>
</g>
<!-- Node11 -->
<g id="node7" class="node">
<title>Node11</title>
<g id="a_node7"><a xlink:href="classudmaio_1_1_concurrent_queue.html" target="_top" xlink:title="Helper class to implement a blocking FIFO between threads.">
<polygon fill="white" stroke="#666666" points="286,-92 135,-92 135,-73 286,-73 286,-92"/>
<text text-anchor="middle" x="210.5" y="-80" font-family="Helvetica,sans-Serif" font-size="10.00">udmaio::ConcurrentQueue&lt; T &gt;</text>
</a>
</g>
</g>
<!-- Node9&#45;&gt;Node11 -->
<g id="edge4" class="edge">
<title>Node9&#45;&gt;Node11</title>
<path fill="none" stroke="#63b8ff" d="M102.65,-107.36C123.42,-102.53 147.02,-97.04 166.75,-92.45"/>
<polygon fill="#63b8ff" stroke="#63b8ff" points="101.87,-103.95 92.92,-109.63 103.45,-110.77 101.87,-103.95"/>
</g>
<!-- Node12 -->
<g id="node8" class="node">
<title>Node12</title>
<g id="a_node8"><a xlink:href="classudmaio_1_1_data_handler_abstract.html" target="_top" xlink:title="Base class to implement a DMA data reception handler.">
<polygon fill="white" stroke="#666666" points="282,-129 139,-129 139,-110 282,-110 282,-129"/>
<text text-anchor="middle" x="210.5" y="-117" font-family="Helvetica,sans-Serif" font-size="10.00">udmaio::DataHandlerAbstract</text>
</a>
</g>
</g>
<!-- Node9&#45;&gt;Node12 -->
<g id="edge5" class="edge">
<title>Node9&#45;&gt;Node12</title>
<path fill="none" stroke="#63b8ff" d="M102.66,-119.5C114.21,-119.5 126.63,-119.5 138.77,-119.5"/>
<polygon fill="#63b8ff" stroke="#63b8ff" points="102.96,-116 92.96,-119.5 102.96,-123 102.96,-116"/>
</g>
<!-- Node16 -->
<g id="node11" class="node">
<title>Node16</title>
<g id="a_node11"><a xlink:href="classudmaio_1_1_hw_accessor.html" target="_top" xlink:title="Base class for hardware access.">
<polygon fill="white" stroke="#666666" points="265,-166 156,-166 156,-147 265,-147 265,-166"/>
<text text-anchor="middle" x="210.5" y="-154" font-family="Helvetica,sans-Serif" font-size="10.00">udmaio::HwAccessor</text>
</a>
</g>
</g>
<!-- Node9&#45;&gt;Node16 -->
<g id="edge8" class="edge">
<title>Node9&#45;&gt;Node16</title>
<path fill="none" stroke="#63b8ff" d="M102.65,-131.64C123.42,-136.47 147.02,-141.96 166.75,-146.55"/>
<polygon fill="#63b8ff" stroke="#63b8ff" points="103.45,-128.23 92.92,-129.37 101.87,-135.05 103.45,-128.23"/>
</g>
<!-- Node8 -->
<g id="node17" class="node">
<title>Node8</title>
<g id="a_node17"><a xlink:href="classudmaio_1_1_u_dma_buf.html" target="_top" xlink:title="DMA data buffer accessed over AXI/UIO, implemented w/ udmabuf (see https://github....">
<polygon fill="white" stroke="#666666" points="453.5,-227 358.5,-227 358.5,-208 453.5,-208 453.5,-227"/>
<text text-anchor="middle" x="406" y="-215" font-family="Helvetica,sans-Serif" font-size="10.00">udmaio::UDmaBuf</text>
</a>
</g>
</g>
<!-- Node9&#45;&gt;Node8 -->
<g id="edge14" class="edge">
<title>Node9&#45;&gt;Node8</title>
<path fill="none" stroke="#63b8ff" d="M70.53,-136.41C86.83,-149.24 110.99,-166.19 135,-175.5 209.53,-204.39 302.92,-213.44 358.06,-216.26"/>
<polygon fill="#63b8ff" stroke="#63b8ff" points="73.05,-133.95 63.08,-130.38 68.65,-139.39 73.05,-133.95"/>
</g>
<!-- Node13 -->
<g id="node9" class="node">
<title>Node13</title>
<g id="a_node9"><a xlink:href="class_data_handler_print.html" target="_top" xlink:title="DataHandler implementation that checks LFSR data and prints status / stats.">
<polygon fill="white" stroke="#666666" points="451.5,-19 360.5,-19 360.5,0 451.5,0 451.5,-19"/>
<text text-anchor="middle" x="406" y="-7" font-family="Helvetica,sans-Serif" font-size="10.00">DataHandlerPrint</text>
</a>
</g>
</g>
<!-- Node12&#45;&gt;Node13 -->
<g id="edge6" class="edge">
<title>Node12&#45;&gt;Node13</title>
<path fill="none" stroke="#63b8ff" d="M280.62,-104.37C282.49,-103.17 284.29,-101.89 286,-100.5 314.1,-77.72 293.49,-49.77 322,-27.5 332.81,-19.06 346.72,-14.38 360.05,-11.83"/>
<polygon fill="#63b8ff" stroke="#63b8ff" points="279.29,-101.11 272.1,-108.89 282.58,-107.29 279.29,-101.11"/>
</g>
<!-- Node14 -->
<g id="node10" class="node">
<title>Node14</title>
<g id="a_node10"><a xlink:href="classudmaio_1_1_data_handler_sync.html" target="_top" xlink:title="Synchronous data handler with blocking read interface.">
<polygon fill="white" stroke="#666666" points="470,-56 342,-56 342,-37 470,-37 470,-56"/>
<text text-anchor="middle" x="406" y="-44" font-family="Helvetica,sans-Serif" font-size="10.00">udmaio::DataHandlerSync</text>
</a>
</g>
</g>
<!-- Node12&#45;&gt;Node14 -->
<g id="edge7" class="edge">
<title>Node12&#45;&gt;Node14</title>
<path fill="none" stroke="#63b8ff" d="M275.43,-105.62C279.09,-104.08 282.64,-102.38 286,-100.5 305.47,-89.6 302.4,-76.16 322,-65.5 328.75,-61.83 336.19,-58.86 343.75,-56.47"/>
<polygon fill="#63b8ff" stroke="#63b8ff" points="274.5,-102.23 266.34,-108.99 276.93,-108.79 274.5,-102.23"/>
</g>
<!-- Node17 -->
<g id="node12" class="node">
<title>Node17</title>
<g id="a_node12"><a xlink:href="classudmaio_1_1_hw_accessor_mmap.html" target="_top" xlink:title=" ">
<polygon fill="white" stroke="#666666" points="474,-152.5 338,-152.5 338,-122.5 474,-122.5 474,-152.5"/>
<text text-anchor="start" x="346" y="-140.5" font-family="Helvetica,sans-Serif" font-size="10.00">udmaio::HwAccessorMmap</text>
<text text-anchor="middle" x="406" y="-129.5" font-family="Helvetica,sans-Serif" font-size="10.00">&lt; uint64_t &gt;</text>
</a>
</g>
</g>
<!-- Node16&#45;&gt;Node17 -->
<g id="edge9" class="edge">
<title>Node16&#45;&gt;Node17</title>
<path fill="none" stroke="#63b8ff" d="M276.69,-150.1C296.29,-148.17 317.83,-146.06 337.58,-144.12"/>
<polygon fill="#63b8ff" stroke="#63b8ff" points="276.52,-146.6 266.91,-151.06 277.2,-153.57 276.52,-146.6"/>
</g>
<!-- Node19 -->
<g id="node14" class="node">
<title>Node19</title>
<g id="a_node14"><a xlink:href="classudmaio_1_1_hw_accessor_mmap.html" target="_top" xlink:title=" ">
<polygon fill="white" stroke="#666666" points="474,-104.5 338,-104.5 338,-74.5 474,-74.5 474,-104.5"/>
<text text-anchor="start" x="346" y="-92.5" font-family="Helvetica,sans-Serif" font-size="10.00">udmaio::HwAccessorMmap</text>
<text text-anchor="middle" x="406" y="-81.5" font-family="Helvetica,sans-Serif" font-size="10.00">&lt; max_access_width_t &gt;</text>
</a>
</g>
</g>
<!-- Node16&#45;&gt;Node19 -->
<g id="edge11" class="edge">
<title>Node16&#45;&gt;Node19</title>
<path fill="none" stroke="#63b8ff" d="M274.34,-143.12C278.34,-141.72 282.26,-140.18 286,-138.5 303.77,-130.52 304.41,-121.87 322,-113.5 328.77,-110.28 336.07,-107.4 343.42,-104.85"/>
<polygon fill="#63b8ff" stroke="#63b8ff" points="273.54,-139.7 265.07,-146.07 275.66,-146.37 273.54,-139.7"/>
</g>
<!-- Node21 -->
<g id="node16" class="node">
<title>Node21</title>
<g id="a_node16"><a xlink:href="classudmaio_1_1_hw_accessor_mock.html" target="_top" xlink:title=" ">
<polygon fill="white" stroke="#666666" points="472.5,-190 339.5,-190 339.5,-171 472.5,-171 472.5,-190"/>
<text text-anchor="middle" x="406" y="-178" font-family="Helvetica,sans-Serif" font-size="10.00">udmaio::HwAccessorMock</text>
</a>
</g>
</g>
<!-- Node16&#45;&gt;Node21 -->
<g id="edge13" class="edge">
<title>Node16&#45;&gt;Node21</title>
<path fill="none" stroke="#63b8ff" d="M276.7,-164.59C296.88,-167.09 319.13,-169.85 339.34,-172.36"/>
<polygon fill="#63b8ff" stroke="#63b8ff" points="277.26,-161.13 266.9,-163.37 276.4,-168.08 277.26,-161.13"/>
</g>
<!-- Node18 -->
<g id="node13" class="node">
<title>Node18</title>
<g id="a_node13"><a xlink:href="classudmaio_1_1_hw_accessor_axi.html" target="_top" xlink:title=" ">
<polygon fill="white" stroke="#666666" points="654,-147 532,-147 532,-128 654,-128 654,-147"/>
<text text-anchor="middle" x="593" y="-135" font-family="Helvetica,sans-Serif" font-size="10.00">udmaio::HwAccessorAxi</text>
</a>
</g>
</g>
<!-- Node17&#45;&gt;Node18 -->
<g id="edge10" class="edge">
<title>Node17&#45;&gt;Node18</title>
<path fill="none" stroke="#63b8ff" d="M485.48,-137.5C500.97,-137.5 517.01,-137.5 531.79,-137.5"/>
<polygon fill="#63b8ff" stroke="#63b8ff" points="485.83,-134 475.83,-137.5 485.83,-141 485.83,-134"/>
</g>
<!-- Node20 -->
<g id="node15" class="node">
<title>Node20</title>
<g id="a_node15"><a xlink:href="classudmaio_1_1_hw_accessor_xdma.html" target="_top" xlink:title=" ">
<polygon fill="white" stroke="#666666" points="660,-104.5 526,-104.5 526,-74.5 660,-74.5 660,-104.5"/>
<text text-anchor="start" x="534" y="-92.5" font-family="Helvetica,sans-Serif" font-size="10.00">udmaio::HwAccessorXdma</text>
<text text-anchor="middle" x="593" y="-81.5" font-family="Helvetica,sans-Serif" font-size="10.00">&lt; max_access_width_t &gt;</text>
</a>
</g>
</g>
<!-- Node19&#45;&gt;Node20 -->
<g id="edge12" class="edge">
<title>Node19&#45;&gt;Node20</title>
<path fill="none" stroke="#63b8ff" d="M485.44,-89.5C498.83,-89.5 512.63,-89.5 525.67,-89.5"/>
<polygon fill="#63b8ff" stroke="#63b8ff" points="485.83,-86 475.83,-89.5 485.83,-93 485.83,-86"/>
</g>
<!-- Node15 -->
<g id="node18" class="node">
<title>Node15</title>
<g id="a_node18"><a xlink:title=" ">
<polygon fill="#e0e0e0" stroke="#999999" points="99,-205 0,-205 0,-186 99,-186 99,-205"/>
<text text-anchor="middle" x="49.5" y="-193" font-family="Helvetica,sans-Serif" font-size="10.00">boost::noncopyable</text>
</a>
</g>
</g>
<!-- Node15&#45;&gt;Node12 -->
<g id="edge15" class="edge">
<title>Node15&#45;&gt;Node12</title>
<path fill="none" stroke="#8b1a1a" d="M71.02,-178.68C87.44,-166 111.51,-149.03 135,-138.5 143.04,-134.9 151.88,-131.89 160.59,-129.41"/>
<polygon fill="#8b1a1a" stroke="#8b1a1a" points="69.17,-175.69 63.49,-184.64 73.51,-181.18 69.17,-175.69"/>
</g>
<!-- Node15&#45;&gt;Node16 -->
<g id="edge20" class="edge">
<title>Node15&#45;&gt;Node16</title>
<path fill="none" stroke="#8b1a1a" d="M102.02,-182.86C123.64,-177.56 148.44,-171.48 168.76,-166.49"/>
<polygon fill="#8b1a1a" stroke="#8b1a1a" points="101.38,-179.42 92.5,-185.2 103.05,-186.21 101.38,-179.42"/>
</g>
<!-- Node6 -->
<g id="node19" class="node">
<title>Node6</title>
<g id="a_node19"><a xlink:href="classudmaio_1_1_dma_buffer_abstract.html" target="_top" xlink:title="Base class for DMA data buffer.">
<polygon fill="white" stroke="#666666" points="278,-245 143,-245 143,-226 278,-226 278,-245"/>
<text text-anchor="middle" x="210.5" y="-233" font-family="Helvetica,sans-Serif" font-size="10.00">udmaio::DmaBufferAbstract</text>
</a>
</g>
</g>
<!-- Node15&#45;&gt;Node6 -->
<g id="edge16" class="edge">
<title>Node15&#45;&gt;Node6</title>
<path fill="none" stroke="#8b1a1a" d="M101.16,-208.25C123.44,-213.85 149.2,-220.33 170.02,-225.57"/>
<polygon fill="#8b1a1a" stroke="#8b1a1a" points="102.23,-204.91 91.68,-205.86 100.52,-211.69 102.23,-204.91"/>
</g>
<!-- Node2 -->
<g id="node22" class="node">
<title>Node2</title>
<g id="a_node22"><a xlink:href="classudmaio_1_1_uio_if.html" target="_top" xlink:title="Base class for UIO interfaces.">
<polygon fill="white" stroke="#666666" points="247.5,-375 173.5,-375 173.5,-356 247.5,-356 247.5,-375"/>
<text text-anchor="middle" x="210.5" y="-363" font-family="Helvetica,sans-Serif" font-size="10.00">udmaio::UioIf</text>
</a>
</g>
</g>
<!-- Node15&#45;&gt;Node2 -->
<g id="edge21" class="edge">
<title>Node15&#45;&gt;Node2</title>
<path fill="none" stroke="#8b1a1a" d="M67.02,-213.16C100.23,-248.67 174.15,-327.71 200.2,-355.56"/>
<polygon fill="#8b1a1a" stroke="#8b1a1a" points="69.93,-211.15 60.54,-206.23 64.81,-215.93 69.93,-211.15"/>
</g>
<!-- Node6&#45;&gt;Node8 -->
<g id="edge19" class="edge">
<title>Node6&#45;&gt;Node8</title>
<path fill="none" stroke="#63b8ff" d="M289.64,-228.23C312.9,-226.07 337.66,-223.76 358.25,-221.85"/>
<polygon fill="#63b8ff" stroke="#63b8ff" points="289.5,-224.73 279.87,-229.14 290.15,-231.7 289.5,-224.73"/>
</g>
<!-- Node5 -->
<g id="node20" class="node">
<title>Node5</title>
<g id="a_node20"><a xlink:href="classudmaio_1_1_fpga_mem_buffer_over_axi.html" target="_top" xlink:title="DMA data buffer accessed over AXI/UIO, described w/ explicit address &amp; size.">
<polygon fill="white" stroke="#666666" points="484,-301 328,-301 328,-282 484,-282 484,-301"/>
<text text-anchor="middle" x="406" y="-289" font-family="Helvetica,sans-Serif" font-size="10.00">udmaio::FpgaMemBufferOverAxi</text>
</a>
</g>
</g>
<!-- Node6&#45;&gt;Node5 -->
<g id="edge17" class="edge">
<title>Node6&#45;&gt;Node5</title>
<path fill="none" stroke="#63b8ff" d="M248.13,-249.31C269.48,-257.05 297.04,-266.53 322,-273.5 332.51,-276.44 343.88,-279.18 354.73,-281.59"/>
<polygon fill="#63b8ff" stroke="#63b8ff" points="249.59,-246.12 238.99,-245.96 247.18,-252.69 249.59,-246.12"/>
</g>
<!-- Node7 -->
<g id="node21" class="node">
<title>Node7</title>
<g id="a_node21"><a xlink:href="classudmaio_1_1_fpga_mem_buffer_over_xdma.html" target="_top" xlink:title="DMA data buffer accessed over XDMA using the xdma c2h0 stream channel.">
<polygon fill="white" stroke="#666666" points="490,-264 322,-264 322,-245 490,-245 490,-264"/>
<text text-anchor="middle" x="406" y="-252" font-family="Helvetica,sans-Serif" font-size="10.00">udmaio::FpgaMemBufferOverXdma</text>
</a>
</g>
</g>
<!-- Node6&#45;&gt;Node7 -->
<g id="edge18" class="edge">
<title>Node6&#45;&gt;Node7</title>
<path fill="none" stroke="#63b8ff" d="M289.68,-243.18C300.24,-244.21 311.1,-245.28 321.75,-246.33"/>
<polygon fill="#63b8ff" stroke="#63b8ff" points="290.16,-239.71 279.87,-242.21 289.48,-246.67 290.16,-239.71"/>
</g>
<!-- Node2&#45;&gt;Node1 -->
<g id="edge25" class="edge">
<title>Node2&#45;&gt;Node1</title>
<path fill="none" stroke="#63b8ff" d="M241.04,-380.97C255.42,-389.27 272.49,-400.29 286,-412.5 305.26,-429.9 300.41,-444.09 322,-458.5 331.08,-464.56 341.73,-469.03 352.32,-472.33"/>
<polygon fill="#63b8ff" stroke="#63b8ff" points="242.88,-377.99 232.45,-376.17 239.47,-384.11 242.88,-377.99"/>
</g>
<!-- Node2&#45;&gt;Node22 -->
<g id="edge26" class="edge">
<title>Node2&#45;&gt;Node22</title>
<path fill="none" stroke="#63b8ff" d="M237.59,-381.13C259.47,-393.64 291.87,-410.8 322,-421.5 330.75,-424.61 340.23,-427.28 349.53,-429.54"/>
<polygon fill="#63b8ff" stroke="#63b8ff" points="239.47,-378.18 229.07,-376.18 235.95,-384.23 239.47,-378.18"/>
</g>
<!-- Node2&#45;&gt;Node5 -->
<g id="edge24" class="edge">
<title>Node2&#45;&gt;Node5</title>
<path fill="none" stroke="#63b8ff" d="M238.04,-350.05C259.95,-337.85 292.17,-321.17 322,-310.5 331.74,-307.02 342.36,-304.02 352.65,-301.5"/>
<polygon fill="#63b8ff" stroke="#63b8ff" points="236.47,-346.92 229.49,-354.88 239.92,-353.01 236.47,-346.92"/>
</g>
<!-- Node3 -->
<g id="node23" class="node">
<title>Node3</title>
<g id="a_node23"><a xlink:href="class_uio_gpio_status.html" target="_top" xlink:title="Interface to GPIO status port of the demo application.">
<polygon fill="white" stroke="#666666" points="446,-412 366,-412 366,-393 446,-393 446,-412"/>
<text text-anchor="middle" x="406" y="-400" font-family="Helvetica,sans-Serif" font-size="10.00">UioGpioStatus</text>
</a>
</g>
</g>
<!-- Node2&#45;&gt;Node3 -->
<g id="edge22" class="edge">
<title>Node2&#45;&gt;Node3</title>
<path fill="none" stroke="#63b8ff" d="M259.03,-374.59C291.84,-380.86 334.93,-389.1 365.78,-395"/>
<polygon fill="#63b8ff" stroke="#63b8ff" points="259.86,-371.18 249.38,-372.74 258.55,-378.06 259.86,-371.18"/>
</g>
<!-- Node4 -->
<g id="node24" class="node">
<title>Node4</title>
<g id="a_node24"><a xlink:href="class_uio_traffic_gen.html" target="_top" xlink:title="Interface to LFSR core of the demo application.">
<polygon fill="white" stroke="#666666" points="444,-375 368,-375 368,-356 444,-356 444,-375"/>
<text text-anchor="middle" x="406" y="-363" font-family="Helvetica,sans-Serif" font-size="10.00">UioTrafficGen</text>
</a>
</g>
</g>
<!-- Node2&#45;&gt;Node4 -->
<g id="edge23" class="edge">
<title>Node2&#45;&gt;Node4</title>
<path fill="none" stroke="#63b8ff" d="M259.26,-365.5C292.75,-365.5 336.89,-365.5 367.78,-365.5"/>
<polygon fill="#63b8ff" stroke="#63b8ff" points="259.41,-362 249.41,-365.5 259.41,-369 259.41,-362"/>
</g>
<!-- Node24 -->
<g id="node25" class="node">
<title>Node24</title>
<g id="a_node25"><a xlink:href="classudmaio_1_1_uio_mem_sgdma.html" target="_top" xlink:title="Interface to AXI DMA scatter&#45;gather buffers &amp; descriptors Uses a UioIf to access DMA descriptor memor...">
<polygon fill="white" stroke="#666666" points="466,-338 346,-338 346,-319 466,-319 466,-338"/>
<text text-anchor="middle" x="406" y="-326" font-family="Helvetica,sans-Serif" font-size="10.00">udmaio::UioMemSgdma</text>
</a>
</g>
</g>
<!-- Node2&#45;&gt;Node24 -->
<g id="edge27" class="edge">
<title>Node2&#45;&gt;Node24</title>
<path fill="none" stroke="#63b8ff" d="M259.19,-356.38C287.67,-350.94 323.86,-344.01 353.06,-338.43"/>
<polygon fill="#63b8ff" stroke="#63b8ff" points="258.55,-352.94 249.38,-358.26 259.86,-359.82 258.55,-352.94"/>
</g>
</g>
</svg>
