<?xml version="1.0" encoding="UTF-8" standalone="no"?>
<!DOCTYPE svg PUBLIC "-//W3C//DTD SVG 1.1//EN"
 "http://www.w3.org/Graphics/SVG/1.1/DTD/svg11.dtd">
<!-- Generated by graphviz version 7.0.5 (20221223.1930)
 -->
<!-- Title: Graphical Class Hierarchy Pages: 1 -->
<svg width="363pt" height="571pt"
 viewBox="0.00 0.00 363.00 570.50" xmlns="http://www.w3.org/2000/svg" xmlns:xlink="http://www.w3.org/1999/xlink">
<g id="graph0" class="graph" transform="scale(1 1) rotate(0) translate(4 566.5)">
<title>Graphical Class Hierarchy</title>
<!-- Node0 -->
<g id="node1" class="node">
<title>Node0</title>
<g id="a_node1"><a xlink:href="classudmaio_1_1_reg_accessor_base.html" target="_top" xlink:title="Base class implementing register access. Only used by subclasses, not used directly.">
<polygon fill="white" stroke="#666666" points="157,-273.5 0,-273.5 0,-254.5 157,-254.5 157,-273.5"/>
<text text-anchor="middle" x="78.5" y="-261.5" font-family="Helvetica,sans-Serif" font-size="10.00">udmaio::RegAccessorBase&lt; C &gt;</text>
</a>
</g>
</g>
<!-- Node1 -->
<g id="node2" class="node">
<title>Node1</title>
<g id="a_node2"><a xlink:href="classudmaio_1_1_reg_accessor_array.html" target="_top" xlink:title=" ">
<polygon fill="white" stroke="#666666" points="346,-562.5 202,-562.5 202,-521.5 346,-521.5 346,-562.5"/>
<text text-anchor="start" x="210" y="-550.5" font-family="Helvetica,sans-Serif" font-size="10.00">udmaio::RegAccessorArray</text>
<text text-anchor="start" x="210" y="-539.5" font-family="Helvetica,sans-Serif" font-size="10.00">&lt; S2mmDesc, 0, 1024, DESC</text>
<text text-anchor="middle" x="274" y="-528.5" font-family="Helvetica,sans-Serif" font-size="10.00">_ADDR_STEP &gt;</text>
</a>
</g>
</g>
<!-- Node0&#45;&gt;Node1 -->
<g id="edge1" class="edge">
<title>Node0&#45;&gt;Node1</title>
<path fill="none" stroke="#63b8ff" d="M83.45,-285.04C93.37,-332.21 123.67,-447.39 193,-512 196.69,-515.44 200.81,-518.49 205.18,-521.2"/>
<polygon fill="#63b8ff" stroke="#63b8ff" points="86.91,-284.47 81.52,-275.35 80.04,-285.84 86.91,-284.47"/>
</g>
<!-- Node2 -->
<g id="node3" class="node">
<title>Node2</title>
<g id="a_node3"><a xlink:href="classudmaio_1_1_reg_accessor_array.html" target="_top" xlink:title=" ">
<polygon fill="white" stroke="#666666" points="345,-503 203,-503 203,-451 345,-451 345,-503"/>
<text text-anchor="start" x="211" y="-491" font-family="Helvetica,sans-Serif" font-size="10.00">udmaio::RegAccessorArray</text>
<text text-anchor="start" x="211" y="-480" font-family="Helvetica,sans-Serif" font-size="10.00">&lt; S2mmDescStatus, offsetof</text>
<text text-anchor="start" x="211" y="-469" font-family="Helvetica,sans-Serif" font-size="10.00">(S2mmDesc, status), 1024,</text>
<text text-anchor="middle" x="274" y="-458" font-family="Helvetica,sans-Serif" font-size="10.00"> DESC_ADDR_STEP &gt;</text>
</a>
</g>
</g>
<!-- Node0&#45;&gt;Node2 -->
<g id="edge2" class="edge">
<title>Node0&#45;&gt;Node2</title>
<path fill="none" stroke="#63b8ff" d="M87.6,-284.14C103.04,-320.29 139.98,-396.63 193,-442 196.69,-445.15 200.7,-448.07 204.9,-450.75"/>
<polygon fill="#63b8ff" stroke="#63b8ff" points="90.99,-283.19 83.92,-275.3 84.53,-285.88 90.99,-283.19"/>
</g>
<!-- Node3 -->
<g id="node4" class="node">
<title>Node3</title>
<g id="a_node4"><a xlink:href="classudmaio_1_1_reg_accessor_array_3_01_c_00_01offset_00_010_00_010_01_4.html" target="_top" xlink:title=" ">
<polygon fill="white" stroke="#666666" points="355,-432.5 193,-432.5 193,-391.5 355,-391.5 355,-432.5"/>
<text text-anchor="start" x="201" y="-420.5" font-family="Helvetica,sans-Serif" font-size="10.00">udmaio::RegAccessorArray</text>
<text text-anchor="start" x="201" y="-409.5" font-family="Helvetica,sans-Serif" font-size="10.00">&lt; C, offset, 0, 0 &gt;&lt; UioGpioStatus</text>
<text text-anchor="middle" x="274" y="-398.5" font-family="Helvetica,sans-Serif" font-size="10.00">::GpioData, 0 &gt;</text>
</a>
</g>
</g>
<!-- Node0&#45;&gt;Node3 -->
<g id="edge3" class="edge">
<title>Node0&#45;&gt;Node3</title>
<path fill="none" stroke="#63b8ff" d="M93.02,-282.91C112.44,-308.83 150.58,-355.3 193,-383 197.45,-385.91 202.24,-388.57 207.17,-391"/>
<polygon fill="#63b8ff" stroke="#63b8ff" points="95.95,-280.99 87.21,-274.99 90.3,-285.13 95.95,-280.99"/>
</g>
<!-- Node4 -->
<g id="node5" class="node">
<title>Node4</title>
<g id="a_node5"><a xlink:href="classudmaio_1_1_reg_accessor_array_3_01_c_00_01offset_00_010_00_010_01_4.html" target="_top" xlink:title=" ">
<polygon fill="white" stroke="#666666" points="344,-373.5 204,-373.5 204,-332.5 344,-332.5 344,-373.5"/>
<text text-anchor="start" x="212" y="-361.5" font-family="Helvetica,sans-Serif" font-size="10.00">udmaio::RegAccessorArray</text>
<text text-anchor="start" x="212" y="-350.5" font-family="Helvetica,sans-Serif" font-size="10.00">&lt; C, offset, 0, 0 &gt;&lt; UioTraffic</text>
<text text-anchor="middle" x="274" y="-339.5" font-family="Helvetica,sans-Serif" font-size="10.00">Gen::StControl, 0x30 &gt;</text>
</a>
</g>
</g>
<!-- Node0&#45;&gt;Node4 -->
<g id="edge4" class="edge">
<title>Node0&#45;&gt;Node4</title>
<path fill="none" stroke="#63b8ff" d="M106.34,-279.54C129.01,-292.35 162.57,-310.52 193,-324 199.21,-326.75 205.78,-329.45 212.36,-332.03"/>
<polygon fill="#63b8ff" stroke="#63b8ff" points="108.18,-276.56 97.75,-274.66 104.71,-282.65 108.18,-276.56"/>
</g>
<!-- Node5 -->
<g id="node6" class="node">
<title>Node5</title>
<g id="a_node6"><a xlink:href="classudmaio_1_1_reg_accessor_array_3_01_c_00_01offset_00_010_00_010_01_4.html" target="_top" xlink:title=" ">
<polygon fill="white" stroke="#666666" points="344,-314.5 204,-314.5 204,-273.5 344,-273.5 344,-314.5"/>
<text text-anchor="start" x="212" y="-302.5" font-family="Helvetica,sans-Serif" font-size="10.00">udmaio::RegAccessorArray</text>
<text text-anchor="start" x="212" y="-291.5" font-family="Helvetica,sans-Serif" font-size="10.00">&lt; C, offset, 0, 0 &gt;&lt; UioTraffic</text>
<text text-anchor="middle" x="274" y="-280.5" font-family="Helvetica,sans-Serif" font-size="10.00">Gen::StConfig, 0x34 &gt;</text>
</a>
</g>
</g>
<!-- Node0&#45;&gt;Node5 -->
<g id="edge5" class="edge">
<title>Node0&#45;&gt;Node5</title>
<path fill="none" stroke="#63b8ff" d="M154.87,-275.69C170.89,-278.17 187.74,-280.78 203.53,-283.23"/>
<polygon fill="#63b8ff" stroke="#63b8ff" points="155.85,-272.29 145.43,-274.22 154.77,-279.21 155.85,-272.29"/>
</g>
<!-- Node6 -->
<g id="node7" class="node">
<title>Node6</title>
<g id="a_node7"><a xlink:href="classudmaio_1_1_reg_accessor_array_3_01_c_00_01offset_00_010_00_010_01_4.html" target="_top" xlink:title=" ">
<polygon fill="white" stroke="#666666" points="344,-255.5 204,-255.5 204,-214.5 344,-214.5 344,-255.5"/>
<text text-anchor="start" x="212" y="-243.5" font-family="Helvetica,sans-Serif" font-size="10.00">udmaio::RegAccessorArray</text>
<text text-anchor="start" x="212" y="-232.5" font-family="Helvetica,sans-Serif" font-size="10.00">&lt; C, offset, 0, 0 &gt;&lt; UioTraffic</text>
<text text-anchor="middle" x="274" y="-221.5" font-family="Helvetica,sans-Serif" font-size="10.00">Gen::TrLength, 0x38 &gt;</text>
</a>
</g>
</g>
<!-- Node0&#45;&gt;Node6 -->
<g id="edge6" class="edge">
<title>Node0&#45;&gt;Node6</title>
<path fill="none" stroke="#63b8ff" d="M157.15,-252.36C172.52,-250.06 188.57,-247.65 203.65,-245.39"/>
<polygon fill="#63b8ff" stroke="#63b8ff" points="156.96,-248.85 147.59,-253.8 158,-255.77 156.96,-248.85"/>
</g>
<!-- Node7 -->
<g id="node8" class="node">
<title>Node7</title>
<g id="a_node8"><a xlink:href="classudmaio_1_1_reg_accessor_array_3_01_c_00_01offset_00_010_00_010_01_4.html" target="_top" xlink:title=" ">
<polygon fill="white" stroke="#666666" points="344,-196.5 204,-196.5 204,-155.5 344,-155.5 344,-196.5"/>
<text text-anchor="start" x="212" y="-184.5" font-family="Helvetica,sans-Serif" font-size="10.00">udmaio::RegAccessorArray</text>
<text text-anchor="start" x="212" y="-173.5" font-family="Helvetica,sans-Serif" font-size="10.00">&lt; C, offset, 0, 0 &gt;&lt; UioTraffic</text>
<text text-anchor="middle" x="274" y="-162.5" font-family="Helvetica,sans-Serif" font-size="10.00">Gen::ExtTrLength, 0x50 &gt;</text>
</a>
</g>
</g>
<!-- Node0&#45;&gt;Node7 -->
<g id="edge7" class="edge">
<title>Node0&#45;&gt;Node7</title>
<path fill="none" stroke="#63b8ff" d="M107.23,-248.71C129.95,-236.45 163.11,-219.19 193,-206 200.06,-202.89 207.55,-199.8 215,-196.86"/>
<polygon fill="#63b8ff" stroke="#63b8ff" points="105.72,-245.54 98.61,-253.39 109.07,-251.69 105.72,-245.54"/>
</g>
<!-- Node8 -->
<g id="node9" class="node">
<title>Node8</title>
<g id="a_node9"><a xlink:href="classudmaio_1_1_reg_accessor_array.html" target="_top" xlink:title="Accessor for register array.">
<polygon fill="white" stroke="#666666" points="341,-137.5 207,-137.5 207,-96.5 341,-96.5 341,-137.5"/>
<text text-anchor="start" x="215" y="-125.5" font-family="Helvetica,sans-Serif" font-size="10.00">udmaio::RegAccessorArray</text>
<text text-anchor="start" x="215" y="-114.5" font-family="Helvetica,sans-Serif" font-size="10.00">&lt; C, offset, arr_size,</text>
<text text-anchor="middle" x="274" y="-103.5" font-family="Helvetica,sans-Serif" font-size="10.00"> arr_stride &gt;</text>
</a>
</g>
</g>
<!-- Node0&#45;&gt;Node8 -->
<g id="edge8" class="edge">
<title>Node0&#45;&gt;Node8</title>
<path fill="none" stroke="#63b8ff" d="M93.43,-245.1C113.07,-219.64 151.2,-174.37 193,-147 198.09,-143.67 203.6,-140.64 209.27,-137.89"/>
<polygon fill="#63b8ff" stroke="#63b8ff" points="90.77,-242.81 87.53,-252.9 96.36,-247.03 90.77,-242.81"/>
</g>
<!-- Node9 -->
<g id="node10" class="node">
<title>Node9</title>
<g id="a_node10"><a xlink:href="classudmaio_1_1_reg_accessor_array_3_01_c_00_01offset_00_010_00_010_01_4.html" target="_top" xlink:title="Accessor for single register.">
<polygon fill="white" stroke="#666666" points="341,-78 207,-78 207,-48 341,-48 341,-78"/>
<text text-anchor="start" x="215" y="-66" font-family="Helvetica,sans-Serif" font-size="10.00">udmaio::RegAccessorArray</text>
<text text-anchor="middle" x="274" y="-55" font-family="Helvetica,sans-Serif" font-size="10.00">&lt; C, offset, 0, 0 &gt;</text>
</a>
</g>
</g>
<!-- Node0&#45;&gt;Node9 -->
<g id="edge9" class="edge">
<title>Node0&#45;&gt;Node9</title>
<path fill="none" stroke="#63b8ff" d="M86.98,-244.03C101.64,-207.57 137.65,-130.12 193,-88 197.86,-84.3 203.28,-81.14 208.95,-78.44"/>
<polygon fill="#63b8ff" stroke="#63b8ff" points="83.88,-242.33 83.52,-252.92 90.41,-244.87 83.88,-242.33"/>
</g>
<!-- Node10 -->
<g id="node11" class="node">
<title>Node10</title>
<g id="a_node11"><a xlink:href="classudmaio_1_1_reg_accessor_array_element.html" target="_top" xlink:title="Accessor for register array element. Returned by RegAccessorArray&lt;C&gt;::operator[].">
<polygon fill="white" stroke="#666666" points="341,-30 207,-30 207,0 341,0 341,-30"/>
<text text-anchor="start" x="215" y="-18" font-family="Helvetica,sans-Serif" font-size="10.00">udmaio::RegAccessorArray</text>
<text text-anchor="middle" x="274" y="-7" font-family="Helvetica,sans-Serif" font-size="10.00">Element&lt; C &gt;</text>
</a>
</g>
</g>
<!-- Node0&#45;&gt;Node10 -->
<g id="edge10" class="edge">
<title>Node0&#45;&gt;Node10</title>
<path fill="none" stroke="#63b8ff" d="M84.13,-243.11C95.04,-198.73 126.63,-94.62 193,-39 197.11,-35.55 201.71,-32.6 206.56,-30.07"/>
<polygon fill="#63b8ff" stroke="#63b8ff" points="80.75,-242.16 81.88,-252.7 87.57,-243.76 80.75,-242.16"/>
</g>
</g>
</svg>
