<?xml version="1.0" encoding="UTF-8" standalone="no"?>
<!DOCTYPE svg PUBLIC "-//W3C//DTD SVG 1.1//EN"
 "http://www.w3.org/Graphics/SVG/1.1/DTD/svg11.dtd">
<!-- Generated by graphviz version 7.0.5 (20221223.1930)
 -->
<!-- Title: Graphical Class Hierarchy Pages: 1 -->
<svg width="281pt" height="64pt"
 viewBox="0.00 0.00 281.00 64.00" xmlns="http://www.w3.org/2000/svg" xmlns:xlink="http://www.w3.org/1999/xlink">
<g id="graph0" class="graph" transform="scale(1 1) rotate(0) translate(4 60)">
<title>Graphical Class Hierarchy</title>
<!-- Node0 -->
<g id="node1" class="node">
<title>Node0</title>
<g id="a_node1"><a xlink:href="classudmaio_1_1_uio_config_base.html" target="_top" xlink:title="Base class for UioDeviceInfo configuration.">
<polygon fill="white" stroke="#666666" points="117,-37 0,-37 0,-18 117,-18 117,-37"/>
<text text-anchor="middle" x="58.5" y="-25" font-family="Helvetica,sans-Serif" font-size="10.00">udmaio::UioConfigBase</text>
</a>
</g>
</g>
<!-- Node1 -->
<g id="node2" class="node">
<title>Node1</title>
<g id="a_node2"><a xlink:href="classudmaio_1_1_uio_config_uio.html" target="_top" xlink:title="Creates UioDeviceInfo from UioDeviceLocation (UIO version)">
<polygon fill="white" stroke="#666666" points="268,-56 158,-56 158,-37 268,-37 268,-56"/>
<text text-anchor="middle" x="213" y="-44" font-family="Helvetica,sans-Serif" font-size="10.00">udmaio::UioConfigUio</text>
</a>
</g>
</g>
<!-- Node0&#45;&gt;Node1 -->
<g id="edge1" class="edge">
<title>Node0&#45;&gt;Node1</title>
<path fill="none" stroke="#63b8ff" d="M128.48,-36.09C138.22,-37.31 148.12,-38.54 157.54,-39.71"/>
<polygon fill="#63b8ff" stroke="#63b8ff" points="129.01,-32.63 118.66,-34.87 128.15,-39.58 129.01,-32.63"/>
</g>
<!-- Node2 -->
<g id="node3" class="node">
<title>Node2</title>
<g id="a_node3"><a xlink:href="classudmaio_1_1_uio_config_xdma.html" target="_top" xlink:title="Creates UioDeviceInfo from UioDeviceLocation (XDMA version)">
<polygon fill="white" stroke="#666666" points="273,-19 153,-19 153,0 273,0 273,-19"/>
<text text-anchor="middle" x="213" y="-7" font-family="Helvetica,sans-Serif" font-size="10.00">udmaio::UioConfigXdma</text>
</a>
</g>
</g>
<!-- Node0&#45;&gt;Node2 -->
<g id="edge2" class="edge">
<title>Node0&#45;&gt;Node2</title>
<path fill="none" stroke="#63b8ff" d="M128.49,-19.36C136.59,-18.4 144.79,-17.43 152.74,-16.49"/>
<polygon fill="#63b8ff" stroke="#63b8ff" points="128.18,-15.87 118.66,-20.52 129,-22.82 128.18,-15.87"/>
</g>
</g>
</svg>
