<?xml version="1.0" encoding="UTF-8" standalone="no"?>
<!DOCTYPE svg PUBLIC "-//W3C//DTD SVG 1.1//EN"
 "http://www.w3.org/Graphics/SVG/1.1/DTD/svg11.dtd">
<!-- Generated by graphviz version 7.0.5 (20221223.1930)
 -->
<!-- Title: Graphical Class Hierarchy Pages: 1 -->
<svg width="490pt" height="329pt"
 viewBox="0.00 0.00 490.00 328.50" xmlns="http://www.w3.org/2000/svg" xmlns:xlink="http://www.w3.org/1999/xlink">
<g id="graph0" class="graph" transform="scale(1 1) rotate(0) translate(4 324.5)">
<title>Graphical Class Hierarchy</title>
<!-- Node0 -->
<g id="node1" class="node">
<title>Node0</title>
<g id="a_node1"><a xlink:href="structaxi__dma_1_1block__template.html" target="_top" xlink:title="Template class for the axi_dma block, containing accessors for all its registers.">
<polygon fill="white" stroke="#666666" points="268,-320.5 145,-320.5 145,-290.5 268,-290.5 268,-320.5"/>
<text text-anchor="start" x="153" y="-308.5" font-family="Helvetica,sans-Serif" font-size="10.00">axi_dma::block_template</text>
<text text-anchor="middle" x="206.5" y="-297.5" font-family="Helvetica,sans-Serif" font-size="10.00">&lt; R_acc, R_acc_arg &gt;</text>
</a>
</g>
</g>
<!-- Node1 -->
<g id="node2" class="node">
<title>Node1</title>
<g id="a_node2"><a xlink:href="classudmaio_1_1_uio_axi_dma_if.html" target="_top" xlink:title="Interface to AXI DMA Core.">
<polygon fill="white" stroke="#666666" points="451.5,-315 344.5,-315 344.5,-296 451.5,-296 451.5,-315"/>
<text text-anchor="middle" x="398" y="-303" font-family="Helvetica,sans-Serif" font-size="10.00">udmaio::UioAxiDmaIf</text>
</a>
</g>
</g>
<!-- Node0&#45;&gt;Node1 -->
<g id="edge1" class="edge">
<title>Node0&#45;&gt;Node1</title>
<path fill="none" stroke="#8b1a1a" d="M279.64,-305.5C301.12,-305.5 324.26,-305.5 344.26,-305.5"/>
<polygon fill="#8b1a1a" stroke="#8b1a1a" points="279.75,-302 269.75,-305.5 279.75,-309 279.75,-302"/>
</g>
<!-- Node9 -->
<g id="node3" class="node">
<title>Node9</title>
<g id="a_node3"><a xlink:title=" ">
<polygon fill="#e0e0e0" stroke="#999999" points="99,-130 0,-130 0,-111 99,-111 99,-130"/>
<text text-anchor="middle" x="49.5" y="-118" font-family="Helvetica,sans-Serif" font-size="10.00">boost::noncopyable</text>
</a>
</g>
</g>
<!-- Node10 -->
<g id="node4" class="node">
<title>Node10</title>
<g id="a_node4"><a xlink:href="classudmaio_1_1_data_handler_abstract.html" target="_top" xlink:title="Base class to implement a DMA data reception handler.">
<polygon fill="white" stroke="#666666" points="278,-130 135,-130 135,-111 278,-111 278,-130"/>
<text text-anchor="middle" x="206.5" y="-118" font-family="Helvetica,sans-Serif" font-size="10.00">udmaio::DataHandlerAbstract</text>
</a>
</g>
</g>
<!-- Node9&#45;&gt;Node10 -->
<g id="edge2" class="edge">
<title>Node9&#45;&gt;Node10</title>
<path fill="none" stroke="#8b1a1a" d="M110.48,-120.5C118.39,-120.5 126.56,-120.5 134.63,-120.5"/>
<polygon fill="#8b1a1a" stroke="#8b1a1a" points="110.63,-117 100.63,-120.5 110.63,-124 110.63,-117"/>
</g>
<!-- Node6 -->
<g id="node7" class="node">
<title>Node6</title>
<g id="a_node7"><a xlink:href="classudmaio_1_1_dma_buffer_abstract.html" target="_top" xlink:title="Base class for DMA data buffer.">
<polygon fill="white" stroke="#666666" points="274,-93 139,-93 139,-74 274,-74 274,-93"/>
<text text-anchor="middle" x="206.5" y="-81" font-family="Helvetica,sans-Serif" font-size="10.00">udmaio::DmaBufferAbstract</text>
</a>
</g>
</g>
<!-- Node9&#45;&gt;Node6 -->
<g id="edge5" class="edge">
<title>Node9&#45;&gt;Node6</title>
<path fill="none" stroke="#8b1a1a" d="M103.07,-107.95C122.9,-103.22 145.16,-97.9 163.85,-93.44"/>
<polygon fill="#8b1a1a" stroke="#8b1a1a" points="102.42,-104.51 93.51,-110.23 104.05,-111.32 102.42,-104.51"/>
</g>
<!-- Node2 -->
<g id="node11" class="node">
<title>Node2</title>
<g id="a_node11"><a xlink:href="classudmaio_1_1_uio_if.html" target="_top" xlink:title="Base class for UIO interfaces.">
<polygon fill="white" stroke="#666666" points="243.5,-222 169.5,-222 169.5,-203 243.5,-203 243.5,-222"/>
<text text-anchor="middle" x="206.5" y="-210" font-family="Helvetica,sans-Serif" font-size="10.00">udmaio::UioIf</text>
</a>
</g>
</g>
<!-- Node9&#45;&gt;Node2 -->
<g id="edge9" class="edge">
<title>Node9&#45;&gt;Node2</title>
<path fill="none" stroke="#8b1a1a" d="M76.7,-136.05C108.79,-155.1 162.19,-186.79 189.03,-202.73"/>
<polygon fill="#8b1a1a" stroke="#8b1a1a" points="78.78,-133.21 68.39,-131.12 75.2,-139.23 78.78,-133.21"/>
</g>
<!-- Node11 -->
<g id="node5" class="node">
<title>Node11</title>
<g id="a_node5"><a xlink:href="class_data_handler_print.html" target="_top" xlink:title="DataHandler implementation that checks LFSR data and prints status / stats.">
<polygon fill="white" stroke="#666666" points="443.5,-167 352.5,-167 352.5,-148 443.5,-148 443.5,-167"/>
<text text-anchor="middle" x="398" y="-155" font-family="Helvetica,sans-Serif" font-size="10.00">DataHandlerPrint</text>
</a>
</g>
</g>
<!-- Node10&#45;&gt;Node11 -->
<g id="edge3" class="edge">
<title>Node10&#45;&gt;Node11</title>
<path fill="none" stroke="#63b8ff" d="M269.57,-132.62C296.54,-137.89 327.54,-143.94 352.22,-148.76"/>
<polygon fill="#63b8ff" stroke="#63b8ff" points="270.25,-129.19 259.77,-130.71 268.91,-136.06 270.25,-129.19"/>
</g>
<!-- Node12 -->
<g id="node6" class="node">
<title>Node12</title>
<g id="a_node6"><a xlink:href="classudmaio_1_1_data_handler_sync.html" target="_top" xlink:title="Synchronous data handler with blocking read interface.">
<polygon fill="white" stroke="#666666" points="462,-93 334,-93 334,-74 462,-74 462,-93"/>
<text text-anchor="middle" x="398" y="-81" font-family="Helvetica,sans-Serif" font-size="10.00">udmaio::DataHandlerSync</text>
</a>
</g>
</g>
<!-- Node10&#45;&gt;Node12 -->
<g id="edge4" class="edge">
<title>Node10&#45;&gt;Node12</title>
<path fill="none" stroke="#63b8ff" d="M269.42,-108.41C294.23,-103.57 322.48,-98.05 346.08,-93.44"/>
<polygon fill="#63b8ff" stroke="#63b8ff" points="268.91,-104.94 259.77,-110.29 270.25,-111.81 268.91,-104.94"/>
</g>
<!-- Node5 -->
<g id="node8" class="node">
<title>Node5</title>
<g id="a_node8"><a xlink:href="classudmaio_1_1_fpga_mem_buffer_over_axi.html" target="_top" xlink:title="DMA data buffer accessed over AXI/UIO, described w/ explicit address &amp; size.">
<polygon fill="white" stroke="#666666" points="476,-130 320,-130 320,-111 476,-111 476,-130"/>
<text text-anchor="middle" x="398" y="-118" font-family="Helvetica,sans-Serif" font-size="10.00">udmaio::FpgaMemBufferOverAxi</text>
</a>
</g>
</g>
<!-- Node6&#45;&gt;Node5 -->
<g id="edge6" class="edge">
<title>Node6&#45;&gt;Node5</title>
<path fill="none" stroke="#63b8ff" d="M269.42,-95.59C294.23,-100.43 322.48,-105.95 346.08,-110.56"/>
<polygon fill="#63b8ff" stroke="#63b8ff" points="270.25,-92.19 259.77,-93.71 268.91,-99.06 270.25,-92.19"/>
</g>
<!-- Node7 -->
<g id="node9" class="node">
<title>Node7</title>
<g id="a_node9"><a xlink:href="classudmaio_1_1_fpga_mem_buffer_over_xdma.html" target="_top" xlink:title="DMA data buffer accessed over XDMA using the xdma c2h0 stream channel.">
<polygon fill="white" stroke="#666666" points="482,-19 314,-19 314,0 482,0 482,-19"/>
<text text-anchor="middle" x="398" y="-7" font-family="Helvetica,sans-Serif" font-size="10.00">udmaio::FpgaMemBufferOverXdma</text>
</a>
</g>
</g>
<!-- Node6&#45;&gt;Node7 -->
<g id="edge7" class="edge">
<title>Node6&#45;&gt;Node7</title>
<path fill="none" stroke="#63b8ff" d="M232.86,-67.65C253.89,-55.13 284.95,-38.07 314,-27.5 322.59,-24.38 331.89,-21.71 341.05,-19.46"/>
<polygon fill="#63b8ff" stroke="#63b8ff" points="231.15,-64.59 224.41,-72.77 234.78,-70.58 231.15,-64.59"/>
</g>
<!-- Node8 -->
<g id="node10" class="node">
<title>Node8</title>
<g id="a_node10"><a xlink:href="classudmaio_1_1_u_dma_buf.html" target="_top" xlink:title="DMA data buffer accessed over AXI/UIO, implemented w/ udmabuf (see https://github....">
<polygon fill="white" stroke="#666666" points="445.5,-56 350.5,-56 350.5,-37 445.5,-37 445.5,-56"/>
<text text-anchor="middle" x="398" y="-44" font-family="Helvetica,sans-Serif" font-size="10.00">udmaio::UDmaBuf</text>
</a>
</g>
</g>
<!-- Node6&#45;&gt;Node8 -->
<g id="edge8" class="edge">
<title>Node6&#45;&gt;Node8</title>
<path fill="none" stroke="#63b8ff" d="M269.31,-71.43C295.65,-66.29 325.87,-60.39 350.3,-55.62"/>
<polygon fill="#63b8ff" stroke="#63b8ff" points="268.91,-67.94 259.77,-73.29 270.25,-74.81 268.91,-67.94"/>
</g>
<!-- Node2&#45;&gt;Node1 -->
<g id="edge13" class="edge">
<title>Node2&#45;&gt;Node1</title>
<path fill="none" stroke="#63b8ff" d="M227,-229.91C247.31,-247.11 280.75,-272.91 314,-287.5 323.45,-291.65 333.94,-294.87 344.19,-297.37"/>
<polygon fill="#63b8ff" stroke="#63b8ff" points="229.39,-227.35 219.54,-223.45 224.81,-232.64 229.39,-227.35"/>
</g>
<!-- Node2&#45;&gt;Node5 -->
<g id="edge12" class="edge">
<title>Node2&#45;&gt;Node5</title>
<path fill="none" stroke="#63b8ff" d="M227.45,-195.38C247.88,-178.72 281.21,-153.87 314,-139.5 322.26,-135.88 331.3,-132.91 340.27,-130.48"/>
<polygon fill="#63b8ff" stroke="#63b8ff" points="225.38,-192.55 219.93,-201.64 229.86,-197.94 225.38,-192.55"/>
</g>
<!-- Node3 -->
<g id="node12" class="node">
<title>Node3</title>
<g id="a_node12"><a xlink:href="class_uio_gpio_status.html" target="_top" xlink:title="Interface to GPIO status port of the demo application.">
<polygon fill="white" stroke="#666666" points="438,-278 358,-278 358,-259 438,-259 438,-278"/>
<text text-anchor="middle" x="398" y="-266" font-family="Helvetica,sans-Serif" font-size="10.00">UioGpioStatus</text>
</a>
</g>
</g>
<!-- Node2&#45;&gt;Node3 -->
<g id="edge10" class="edge">
<title>Node2&#45;&gt;Node3</title>
<path fill="none" stroke="#8b1a1a" d="M243.32,-226.59C263.81,-234.31 290.11,-243.68 314,-250.5 328.18,-254.55 343.94,-258.18 357.89,-261.1"/>
<polygon fill="#8b1a1a" stroke="#8b1a1a" points="244.6,-223.33 234.01,-223.03 242.1,-229.87 244.6,-223.33"/>
</g>
<!-- Node4 -->
<g id="node13" class="node">
<title>Node4</title>
<g id="a_node13"><a xlink:href="class_uio_traffic_gen.html" target="_top" xlink:title="Interface to LFSR core of the demo application.">
<polygon fill="white" stroke="#666666" points="436,-241 360,-241 360,-222 436,-222 436,-241"/>
<text text-anchor="middle" x="398" y="-229" font-family="Helvetica,sans-Serif" font-size="10.00">UioTrafficGen</text>
</a>
</g>
</g>
<!-- Node2&#45;&gt;Node4 -->
<g id="edge11" class="edge">
<title>Node2&#45;&gt;Node4</title>
<path fill="none" stroke="#8b1a1a" d="M255.04,-217.27C287.46,-220.52 329.78,-224.76 359.75,-227.77"/>
<polygon fill="#8b1a1a" stroke="#8b1a1a" points="255.39,-213.78 245.1,-216.27 254.7,-220.75 255.39,-213.78"/>
</g>
<!-- Node13 -->
<g id="node14" class="node">
<title>Node13</title>
<g id="a_node14"><a xlink:href="classudmaio_1_1_uio_mem_sgdma.html" target="_top" xlink:title="Interface to AXI DMA scatter&#45;gather buffers &amp; descriptors Uses a UioIf to access DMA descriptor memor...">
<polygon fill="white" stroke="#666666" points="458,-204 338,-204 338,-185 458,-185 458,-204"/>
<text text-anchor="middle" x="398" y="-192" font-family="Helvetica,sans-Serif" font-size="10.00">udmaio::UioMemSgdma</text>
</a>
</g>
</g>
<!-- Node2&#45;&gt;Node13 -->
<g id="edge14" class="edge">
<title>Node2&#45;&gt;Node13</title>
<path fill="none" stroke="#63b8ff" d="M254.99,-207.99C280.02,-205.61 310.96,-202.67 337.57,-200.15"/>
<polygon fill="#63b8ff" stroke="#63b8ff" points="254.72,-204.5 245.1,-208.93 255.38,-211.47 254.72,-204.5"/>
</g>
</g>
</svg>
