<?xml version="1.0" encoding="UTF-8" standalone="no"?>
<!DOCTYPE svg PUBLIC "-//W3C//DTD SVG 1.1//EN"
 "http://www.w3.org/Graphics/SVG/1.1/DTD/svg11.dtd">
<!-- Generated by graphviz version 7.0.5 (20221223.1930)
 -->
<!-- Title: Graphical Class Hierarchy Pages: 1 -->
<svg width="660pt" height="508pt"
 viewBox="0.00 0.00 660.00 507.50" xmlns="http://www.w3.org/2000/svg" xmlns:xlink="http://www.w3.org/1999/xlink">
<g id="graph0" class="graph" transform="scale(1 1) rotate(0) translate(4 503.5)">
<title>Graphical Class Hierarchy</title>
<!-- Node0 -->
<g id="node1" class="node">
<title>Node0</title>
<g id="a_node1"><a xlink:href="structaxi__dma_1_1block__template.html" target="_top" xlink:title="Template class for the axi_dma block, containing accessors for all its registers.">
<polygon fill="white" stroke="#666666" points="276,-499.5 137,-499.5 137,-469.5 276,-469.5 276,-499.5"/>
<text text-anchor="start" x="145" y="-487.5" font-family="Helvetica,sans-Serif" font-size="10.00">axi_dma::block_template</text>
<text text-anchor="middle" x="206.5" y="-476.5" font-family="Helvetica,sans-Serif" font-size="10.00">&lt; R_array_acc, R_acc_arg &gt;</text>
</a>
</g>
</g>
<!-- Node1 -->
<g id="node2" class="node">
<title>Node1</title>
<g id="a_node2"><a xlink:href="classudmaio_1_1_uio_axi_dma_if.html" target="_top" xlink:title="Interface to AXI DMA Core.">
<polygon fill="white" stroke="#666666" points="451.5,-491 344.5,-491 344.5,-472 451.5,-472 451.5,-491"/>
<text text-anchor="middle" x="398" y="-479" font-family="Helvetica,sans-Serif" font-size="10.00">udmaio::UioAxiDmaIf</text>
</a>
</g>
</g>
<!-- Node0&#45;&gt;Node1 -->
<g id="edge1" class="edge">
<title>Node0&#45;&gt;Node1</title>
<path fill="none" stroke="#8b1a1a" d="M287.85,-483.23C306.88,-482.93 326.7,-482.61 344.15,-482.34"/>
<polygon fill="#8b1a1a" stroke="#8b1a1a" points="287.91,-479.73 277.96,-483.38 288.02,-486.73 287.91,-479.73"/>
</g>
<!-- Node21 -->
<g id="node3" class="node">
<title>Node21</title>
<g id="a_node3"><a xlink:href="structaxi__vdma_1_1block__template.html" target="_top" xlink:title="Template class for the axi_vdma block, containing accessors for all its registers.">
<polygon fill="white" stroke="#666666" points="276,-451.5 137,-451.5 137,-421.5 276,-421.5 276,-451.5"/>
<text text-anchor="start" x="145" y="-439.5" font-family="Helvetica,sans-Serif" font-size="10.00">axi_vdma::block_template</text>
<text text-anchor="middle" x="206.5" y="-428.5" font-family="Helvetica,sans-Serif" font-size="10.00">&lt; R_array_acc, R_acc_arg &gt;</text>
</a>
</g>
</g>
<!-- Node20 -->
<g id="node4" class="node">
<title>Node20</title>
<g id="a_node4"><a xlink:href="classudmaio_1_1_uio_axi_vdma_if.html" target="_top" xlink:title="Interface to AXI VDMA Core.">
<polygon fill="white" stroke="#666666" points="454.5,-449 341.5,-449 341.5,-430 454.5,-430 454.5,-449"/>
<text text-anchor="middle" x="398" y="-437" font-family="Helvetica,sans-Serif" font-size="10.00">udmaio::UioAxiVdmaIf</text>
</a>
</g>
</g>
<!-- Node21&#45;&gt;Node20 -->
<g id="edge2" class="edge">
<title>Node21&#45;&gt;Node20</title>
<path fill="none" stroke="#8b1a1a" d="M287.82,-437.77C305.77,-438.06 324.43,-438.35 341.14,-438.62"/>
<polygon fill="#8b1a1a" stroke="#8b1a1a" points="288.02,-434.27 277.96,-437.62 287.91,-441.27 288.02,-434.27"/>
</g>
<!-- Node9 -->
<g id="node5" class="node">
<title>Node9</title>
<g id="a_node5"><a xlink:href="structudmaio_1_1_logger.html" target="_top" xlink:title=" ">
<polygon fill="white" stroke="#666666" points="91,-157 8,-157 8,-138 91,-138 91,-157"/>
<text text-anchor="middle" x="49.5" y="-145" font-family="Helvetica,sans-Serif" font-size="10.00">udmaio::Logger</text>
</a>
</g>
</g>
<!-- Node10 -->
<g id="node6" class="node">
<title>Node10</title>
<g id="a_node6"><a xlink:href="classudmaio_1_1_data_handler_abstract.html" target="_top" xlink:title="Base class to implement a DMA data reception handler.">
<polygon fill="white" stroke="#666666" points="278,-93 135,-93 135,-74 278,-74 278,-93"/>
<text text-anchor="middle" x="206.5" y="-81" font-family="Helvetica,sans-Serif" font-size="10.00">udmaio::DataHandlerAbstract</text>
</a>
</g>
</g>
<!-- Node9&#45;&gt;Node10 -->
<g id="edge3" class="edge">
<title>Node9&#45;&gt;Node10</title>
<path fill="none" stroke="#63b8ff" d="M85.31,-133.13C114.59,-121.04 155.7,-104.06 181.45,-93.43"/>
<polygon fill="#63b8ff" stroke="#63b8ff" points="84.03,-129.87 76.12,-136.92 86.7,-136.34 84.03,-129.87"/>
</g>
<!-- Node14 -->
<g id="node9" class="node">
<title>Node14</title>
<g id="a_node9"><a xlink:href="classudmaio_1_1_hw_accessor.html" target="_top" xlink:title="Base class for hardware access.">
<polygon fill="white" stroke="#666666" points="261,-157 152,-157 152,-138 261,-138 261,-157"/>
<text text-anchor="middle" x="206.5" y="-145" font-family="Helvetica,sans-Serif" font-size="10.00">udmaio::HwAccessor</text>
</a>
</g>
</g>
<!-- Node9&#45;&gt;Node14 -->
<g id="edge6" class="edge">
<title>Node9&#45;&gt;Node14</title>
<path fill="none" stroke="#63b8ff" d="M102.42,-147.5C118.25,-147.5 135.68,-147.5 151.64,-147.5"/>
<polygon fill="#63b8ff" stroke="#63b8ff" points="102.74,-144 92.74,-147.5 102.74,-151 102.74,-144"/>
</g>
<!-- Node8 -->
<g id="node15" class="node">
<title>Node8</title>
<g id="a_node15"><a xlink:href="classudmaio_1_1_u_dma_buf.html" target="_top" xlink:title="DMA data buffer accessed over AXI/UIO, implemented w/ udmabuf (see https://github....">
<polygon fill="white" stroke="#666666" points="445.5,-227 350.5,-227 350.5,-208 445.5,-208 445.5,-227"/>
<text text-anchor="middle" x="398" y="-215" font-family="Helvetica,sans-Serif" font-size="10.00">udmaio::UDmaBuf</text>
</a>
</g>
</g>
<!-- Node9&#45;&gt;Node8 -->
<g id="edge12" class="edge">
<title>Node9&#45;&gt;Node8</title>
<path fill="none" stroke="#63b8ff" d="M102.29,-159.39C113.09,-161.8 124.41,-164.28 135,-166.5 210.06,-182.24 297.57,-198.94 350.06,-208.79"/>
<polygon fill="#63b8ff" stroke="#63b8ff" points="103.28,-156.03 92.76,-157.25 101.74,-162.86 103.28,-156.03"/>
</g>
<!-- Node11 -->
<g id="node7" class="node">
<title>Node11</title>
<g id="a_node7"><a xlink:href="class_data_handler_print.html" target="_top" xlink:title="DataHandler implementation that checks LFSR data and prints status / stats.">
<polygon fill="white" stroke="#666666" points="443.5,-19 352.5,-19 352.5,0 443.5,0 443.5,-19"/>
<text text-anchor="middle" x="398" y="-7" font-family="Helvetica,sans-Serif" font-size="10.00">DataHandlerPrint</text>
</a>
</g>
</g>
<!-- Node10&#45;&gt;Node11 -->
<g id="edge4" class="edge">
<title>Node10&#45;&gt;Node11</title>
<path fill="none" stroke="#63b8ff" d="M232.86,-67.65C253.89,-55.13 284.95,-38.07 314,-27.5 326.06,-23.12 339.5,-19.63 352,-16.94"/>
<polygon fill="#63b8ff" stroke="#63b8ff" points="231.15,-64.59 224.41,-72.77 234.78,-70.58 231.15,-64.59"/>
</g>
<!-- Node12 -->
<g id="node8" class="node">
<title>Node12</title>
<g id="a_node8"><a xlink:href="classudmaio_1_1_data_handler_sync.html" target="_top" xlink:title="Synchronous data handler with blocking read interface.">
<polygon fill="white" stroke="#666666" points="462,-56 334,-56 334,-37 462,-37 462,-56"/>
<text text-anchor="middle" x="398" y="-44" font-family="Helvetica,sans-Serif" font-size="10.00">udmaio::DataHandlerSync</text>
</a>
</g>
</g>
<!-- Node10&#45;&gt;Node12 -->
<g id="edge5" class="edge">
<title>Node10&#45;&gt;Node12</title>
<path fill="none" stroke="#63b8ff" d="M269.42,-71.41C294.23,-66.57 322.48,-61.05 346.08,-56.44"/>
<polygon fill="#63b8ff" stroke="#63b8ff" points="268.91,-67.94 259.77,-73.29 270.25,-74.81 268.91,-67.94"/>
</g>
<!-- Node15 -->
<g id="node10" class="node">
<title>Node15</title>
<g id="a_node10"><a xlink:href="classudmaio_1_1_hw_accessor_mmap.html" target="_top" xlink:title=" ">
<polygon fill="white" stroke="#666666" points="466,-152.5 330,-152.5 330,-122.5 466,-122.5 466,-152.5"/>
<text text-anchor="start" x="338" y="-140.5" font-family="Helvetica,sans-Serif" font-size="10.00">udmaio::HwAccessorMmap</text>
<text text-anchor="middle" x="398" y="-129.5" font-family="Helvetica,sans-Serif" font-size="10.00">&lt; uint64_t &gt;</text>
</a>
</g>
</g>
<!-- Node14&#45;&gt;Node15 -->
<g id="edge7" class="edge">
<title>Node14&#45;&gt;Node15</title>
<path fill="none" stroke="#63b8ff" d="M272.77,-144.06C291.11,-143.09 311.09,-142.03 329.55,-141.06"/>
<polygon fill="#63b8ff" stroke="#63b8ff" points="272.61,-140.56 262.81,-144.58 272.98,-147.55 272.61,-140.56"/>
</g>
<!-- Node17 -->
<g id="node12" class="node">
<title>Node17</title>
<g id="a_node12"><a xlink:href="classudmaio_1_1_hw_accessor_mmap.html" target="_top" xlink:title=" ">
<polygon fill="white" stroke="#666666" points="466,-104.5 330,-104.5 330,-74.5 466,-74.5 466,-104.5"/>
<text text-anchor="start" x="338" y="-92.5" font-family="Helvetica,sans-Serif" font-size="10.00">udmaio::HwAccessorMmap</text>
<text text-anchor="middle" x="398" y="-81.5" font-family="Helvetica,sans-Serif" font-size="10.00">&lt; max_access_width_t &gt;</text>
</a>
</g>
</g>
<!-- Node14&#45;&gt;Node17 -->
<g id="edge9" class="edge">
<title>Node14&#45;&gt;Node17</title>
<path fill="none" stroke="#63b8ff" d="M248.51,-134.12C268.27,-127.74 292.32,-120.09 314,-113.5 323.33,-110.66 333.27,-107.72 342.91,-104.91"/>
<polygon fill="#63b8ff" stroke="#63b8ff" points="247.61,-130.73 239.17,-137.14 249.76,-137.39 247.61,-130.73"/>
</g>
<!-- Node19 -->
<g id="node14" class="node">
<title>Node19</title>
<g id="a_node14"><a xlink:href="classudmaio_1_1_hw_accessor_mock.html" target="_top" xlink:title=" ">
<polygon fill="white" stroke="#666666" points="464.5,-190 331.5,-190 331.5,-171 464.5,-171 464.5,-190"/>
<text text-anchor="middle" x="398" y="-178" font-family="Helvetica,sans-Serif" font-size="10.00">udmaio::HwAccessorMock</text>
</a>
</g>
</g>
<!-- Node14&#45;&gt;Node19 -->
<g id="edge11" class="edge">
<title>Node14&#45;&gt;Node19</title>
<path fill="none" stroke="#63b8ff" d="M272.48,-158.82C294.34,-162.62 318.54,-166.84 339.76,-170.53"/>
<polygon fill="#63b8ff" stroke="#63b8ff" points="273.24,-155.4 262.79,-157.13 272.04,-162.29 273.24,-155.4"/>
</g>
<!-- Node16 -->
<g id="node11" class="node">
<title>Node16</title>
<g id="a_node11"><a xlink:href="classudmaio_1_1_hw_accessor_axi.html" target="_top" xlink:title=" ">
<polygon fill="white" stroke="#666666" points="646,-147 524,-147 524,-128 646,-128 646,-147"/>
<text text-anchor="middle" x="585" y="-135" font-family="Helvetica,sans-Serif" font-size="10.00">udmaio::HwAccessorAxi</text>
</a>
</g>
</g>
<!-- Node15&#45;&gt;Node16 -->
<g id="edge8" class="edge">
<title>Node15&#45;&gt;Node16</title>
<path fill="none" stroke="#63b8ff" d="M477.48,-137.5C492.97,-137.5 509.01,-137.5 523.79,-137.5"/>
<polygon fill="#63b8ff" stroke="#63b8ff" points="477.83,-134 467.83,-137.5 477.83,-141 477.83,-134"/>
</g>
<!-- Node18 -->
<g id="node13" class="node">
<title>Node18</title>
<g id="a_node13"><a xlink:href="classudmaio_1_1_hw_accessor_xdma.html" target="_top" xlink:title=" ">
<polygon fill="white" stroke="#666666" points="652,-104.5 518,-104.5 518,-74.5 652,-74.5 652,-104.5"/>
<text text-anchor="start" x="526" y="-92.5" font-family="Helvetica,sans-Serif" font-size="10.00">udmaio::HwAccessorXdma</text>
<text text-anchor="middle" x="585" y="-81.5" font-family="Helvetica,sans-Serif" font-size="10.00">&lt; max_access_width_t &gt;</text>
</a>
</g>
</g>
<!-- Node17&#45;&gt;Node18 -->
<g id="edge10" class="edge">
<title>Node17&#45;&gt;Node18</title>
<path fill="none" stroke="#63b8ff" d="M477.44,-89.5C490.83,-89.5 504.63,-89.5 517.67,-89.5"/>
<polygon fill="#63b8ff" stroke="#63b8ff" points="477.83,-86 467.83,-89.5 477.83,-93 477.83,-86"/>
</g>
<!-- Node13 -->
<g id="node16" class="node">
<title>Node13</title>
<g id="a_node16"><a xlink:title=" ">
<polygon fill="#e0e0e0" stroke="#999999" points="99,-215 0,-215 0,-196 99,-196 99,-215"/>
<text text-anchor="middle" x="49.5" y="-203" font-family="Helvetica,sans-Serif" font-size="10.00">boost::noncopyable</text>
</a>
</g>
</g>
<!-- Node13&#45;&gt;Node10 -->
<g id="edge13" class="edge">
<title>Node13&#45;&gt;Node10</title>
<path fill="none" stroke="#8b1a1a" d="M72.6,-188.76C81.07,-182.08 90.69,-174.16 99,-166.5 116.1,-150.73 117.06,-143.31 135,-128.5 151.57,-114.82 172.54,-101.91 187.29,-93.46"/>
<polygon fill="#8b1a1a" stroke="#8b1a1a" points="70.61,-185.87 64.85,-194.77 74.9,-191.4 70.61,-185.87"/>
</g>
<!-- Node13&#45;&gt;Node14 -->
<g id="edge18" class="edge">
<title>Node13&#45;&gt;Node14</title>
<path fill="none" stroke="#8b1a1a" d="M87.78,-191.55C115.92,-181.02 153.83,-166.83 178.94,-157.44"/>
<polygon fill="#8b1a1a" stroke="#8b1a1a" points="86.7,-188.22 78.56,-195 89.16,-194.77 86.7,-188.22"/>
</g>
<!-- Node6 -->
<g id="node17" class="node">
<title>Node6</title>
<g id="a_node17"><a xlink:href="classudmaio_1_1_dma_buffer_abstract.html" target="_top" xlink:title="Base class for DMA data buffer.">
<polygon fill="white" stroke="#666666" points="274,-245 139,-245 139,-226 274,-226 274,-245"/>
<text text-anchor="middle" x="206.5" y="-233" font-family="Helvetica,sans-Serif" font-size="10.00">udmaio::DmaBufferAbstract</text>
</a>
</g>
</g>
<!-- Node13&#45;&gt;Node6 -->
<g id="edge14" class="edge">
<title>Node13&#45;&gt;Node6</title>
<path fill="none" stroke="#8b1a1a" d="M110.39,-217.09C124.73,-219.87 139.91,-222.81 153.84,-225.5"/>
<polygon fill="#8b1a1a" stroke="#8b1a1a" points="111.09,-213.66 100.6,-215.2 109.76,-220.53 111.09,-213.66"/>
</g>
<!-- Node2 -->
<g id="node20" class="node">
<title>Node2</title>
<g id="a_node20"><a xlink:href="classudmaio_1_1_uio_if.html" target="_top" xlink:title="Base class for UIO interfaces.">
<polygon fill="white" stroke="#666666" points="243.5,-375 169.5,-375 169.5,-356 243.5,-356 243.5,-375"/>
<text text-anchor="middle" x="206.5" y="-363" font-family="Helvetica,sans-Serif" font-size="10.00">udmaio::UioIf</text>
</a>
</g>
</g>
<!-- Node13&#45;&gt;Node2 -->
<g id="edge19" class="edge">
<title>Node13&#45;&gt;Node2</title>
<path fill="none" stroke="#8b1a1a" d="M67.52,-223.07C100.2,-256.8 170.7,-329.58 196.12,-355.82"/>
<polygon fill="#8b1a1a" stroke="#8b1a1a" points="70.26,-220.86 60.78,-216.12 65.23,-225.73 70.26,-220.86"/>
</g>
<!-- Node6&#45;&gt;Node8 -->
<g id="edge17" class="edge">
<title>Node6&#45;&gt;Node8</title>
<path fill="none" stroke="#63b8ff" d="M285.63,-228.08C307.52,-226 330.65,-223.8 350.11,-221.95"/>
<polygon fill="#63b8ff" stroke="#63b8ff" points="285.44,-224.58 275.82,-229.01 286.1,-231.55 285.44,-224.58"/>
</g>
<!-- Node5 -->
<g id="node18" class="node">
<title>Node5</title>
<g id="a_node18"><a xlink:href="classudmaio_1_1_fpga_mem_buffer_over_axi.html" target="_top" xlink:title="DMA data buffer accessed over AXI/UIO, described w/ explicit address &amp; size.">
<polygon fill="white" stroke="#666666" points="476,-301 320,-301 320,-282 476,-282 476,-301"/>
<text text-anchor="middle" x="398" y="-289" font-family="Helvetica,sans-Serif" font-size="10.00">udmaio::FpgaMemBufferOverAxi</text>
</a>
</g>
</g>
<!-- Node6&#45;&gt;Node5 -->
<g id="edge15" class="edge">
<title>Node6&#45;&gt;Node5</title>
<path fill="none" stroke="#63b8ff" d="M243.32,-249.59C263.81,-257.31 290.11,-266.68 314,-273.5 324.35,-276.46 335.55,-279.19 346.26,-281.59"/>
<polygon fill="#63b8ff" stroke="#63b8ff" points="244.6,-246.33 234.01,-246.03 242.1,-252.87 244.6,-246.33"/>
</g>
<!-- Node7 -->
<g id="node19" class="node">
<title>Node7</title>
<g id="a_node19"><a xlink:href="classudmaio_1_1_fpga_mem_buffer_over_xdma.html" target="_top" xlink:title="DMA data buffer accessed over XDMA using the xdma c2h0 stream channel.">
<polygon fill="white" stroke="#666666" points="482,-264 314,-264 314,-245 482,-245 482,-264"/>
<text text-anchor="middle" x="398" y="-252" font-family="Helvetica,sans-Serif" font-size="10.00">udmaio::FpgaMemBufferOverXdma</text>
</a>
</g>
</g>
<!-- Node6&#45;&gt;Node7 -->
<g id="edge16" class="edge">
<title>Node6&#45;&gt;Node7</title>
<path fill="none" stroke="#63b8ff" d="M285.47,-243.32C294.72,-244.25 304.2,-245.2 313.53,-246.13"/>
<polygon fill="#63b8ff" stroke="#63b8ff" points="286.12,-239.86 275.82,-242.35 285.42,-246.83 286.12,-239.86"/>
</g>
<!-- Node2&#45;&gt;Node1 -->
<g id="edge23" class="edge">
<title>Node2&#45;&gt;Node1</title>
<path fill="none" stroke="#63b8ff" d="M235.52,-381.31C249.1,-389.66 265.19,-400.63 278,-412.5 297.04,-430.15 292.41,-444.09 314,-458.5 323.08,-464.56 333.73,-469.03 344.32,-472.33"/>
<polygon fill="#63b8ff" stroke="#63b8ff" points="237.41,-378.36 227.03,-376.24 233.82,-384.37 237.41,-378.36"/>
</g>
<!-- Node2&#45;&gt;Node20 -->
<g id="edge24" class="edge">
<title>Node2&#45;&gt;Node20</title>
<path fill="none" stroke="#63b8ff" d="M232.86,-381.35C253.89,-393.87 284.95,-410.93 314,-421.5 322.59,-424.62 331.89,-427.29 341.05,-429.54"/>
<polygon fill="#63b8ff" stroke="#63b8ff" points="234.78,-378.42 224.41,-376.23 231.15,-384.41 234.78,-378.42"/>
</g>
<!-- Node2&#45;&gt;Node5 -->
<g id="edge22" class="edge">
<title>Node2&#45;&gt;Node5</title>
<path fill="none" stroke="#63b8ff" d="M233.3,-349.83C254.36,-337.62 285.25,-321.02 314,-310.5 323.58,-306.99 334.02,-304 344.17,-301.49"/>
<polygon fill="#63b8ff" stroke="#63b8ff" points="231.66,-346.73 224.82,-354.83 235.21,-352.76 231.66,-346.73"/>
</g>
<!-- Node3 -->
<g id="node21" class="node">
<title>Node3</title>
<g id="a_node21"><a xlink:href="class_uio_gpio_status.html" target="_top" xlink:title="Interface to GPIO status port of the demo application.">
<polygon fill="white" stroke="#666666" points="438,-412 358,-412 358,-393 438,-393 438,-412"/>
<text text-anchor="middle" x="398" y="-400" font-family="Helvetica,sans-Serif" font-size="10.00">UioGpioStatus</text>
</a>
</g>
</g>
<!-- Node2&#45;&gt;Node3 -->
<g id="edge20" class="edge">
<title>Node2&#45;&gt;Node3</title>
<path fill="none" stroke="#63b8ff" d="M254.81,-374.74C286.55,-380.94 327.87,-389 357.78,-394.84"/>
<polygon fill="#63b8ff" stroke="#63b8ff" points="255.56,-371.32 245.08,-372.84 254.22,-378.19 255.56,-371.32"/>
</g>
<!-- Node4 -->
<g id="node22" class="node">
<title>Node4</title>
<g id="a_node22"><a xlink:href="class_uio_traffic_gen.html" target="_top" xlink:title="Interface to LFSR core of the demo application.">
<polygon fill="white" stroke="#666666" points="436,-375 360,-375 360,-356 436,-356 436,-375"/>
<text text-anchor="middle" x="398" y="-363" font-family="Helvetica,sans-Serif" font-size="10.00">UioTrafficGen</text>
</a>
</g>
</g>
<!-- Node2&#45;&gt;Node4 -->
<g id="edge21" class="edge">
<title>Node2&#45;&gt;Node4</title>
<path fill="none" stroke="#63b8ff" d="M255.04,-365.5C287.46,-365.5 329.78,-365.5 359.75,-365.5"/>
<polygon fill="#63b8ff" stroke="#63b8ff" points="255.1,-362 245.1,-365.5 255.1,-369 255.1,-362"/>
</g>
<!-- Node22 -->
<g id="node23" class="node">
<title>Node22</title>
<g id="a_node23"><a xlink:href="classudmaio_1_1_uio_mem_sgdma.html" target="_top" xlink:title="Interface to AXI DMA scatter&#45;gather buffers &amp; descriptors Uses a UioIf to access DMA descriptor memor...">
<polygon fill="white" stroke="#666666" points="458,-338 338,-338 338,-319 458,-319 458,-338"/>
<text text-anchor="middle" x="398" y="-326" font-family="Helvetica,sans-Serif" font-size="10.00">udmaio::UioMemSgdma</text>
</a>
</g>
</g>
<!-- Node2&#45;&gt;Node22 -->
<g id="edge25" class="edge">
<title>Node2&#45;&gt;Node22</title>
<path fill="none" stroke="#63b8ff" d="M254.62,-356.3C282.4,-350.87 317.58,-344.01 346.01,-338.46"/>
<polygon fill="#63b8ff" stroke="#63b8ff" points="254.22,-352.81 245.08,-358.16 255.56,-359.68 254.22,-352.81"/>
</g>
</g>
</svg>
