<?xml version="1.0" encoding="UTF-8" standalone="no"?>
<!DOCTYPE svg PUBLIC "-//W3C//DTD SVG 1.1//EN"
 "http://www.w3.org/Graphics/SVG/1.1/DTD/svg11.dtd">
<!-- Generated by graphviz version 7.0.5 (20221223.1930)
 -->
<!-- Title: udmaio::Logger Pages: 1 -->
<svg width="612pt" height="198pt"
 viewBox="0.00 0.00 612.00 198.00" xmlns="http://www.w3.org/2000/svg" xmlns:xlink="http://www.w3.org/1999/xlink">
<g id="graph0" class="graph" transform="scale(1 1) rotate(0) translate(4 194)">
<title>udmaio::Logger</title>
<!-- Node1 -->
<g id="node1" class="node">
<title>Node1</title>
<g id="a_node1"><a xlink:title=" ">
<polygon fill="#999999" stroke="#666666" points="83,-88 0,-88 0,-69 83,-69 83,-88"/>
<text text-anchor="middle" x="41.5" y="-76" font-family="Helvetica,sans-Serif" font-size="10.00">udmaio::Logger</text>
</a>
</g>
</g>
<!-- Node2 -->
<g id="node2" class="node">
<title>Node2</title>
<g id="a_node2"><a xlink:href="classudmaio_1_1_data_handler_abstract.html" target="_top" xlink:title="Base class to implement a DMA data reception handler.">
<polygon fill="white" stroke="#666666" points="262,-153 119,-153 119,-134 262,-134 262,-153"/>
<text text-anchor="middle" x="190.5" y="-141" font-family="Helvetica,sans-Serif" font-size="10.00">udmaio::DataHandlerAbstract</text>
</a>
</g>
</g>
<!-- Node1&#45;&gt;Node2 -->
<g id="edge1" class="edge">
<title>Node1&#45;&gt;Node2</title>
<path fill="none" stroke="#63b8ff" d="M71.28,-93.61C85.49,-100.86 102.98,-109.47 119,-116.5 132.92,-122.61 148.7,-128.72 161.8,-133.59"/>
<polygon fill="#63b8ff" stroke="#63b8ff" points="72.96,-90.54 62.47,-89.07 69.76,-96.76 72.96,-90.54"/>
</g>
<!-- Node5 -->
<g id="node5" class="node">
<title>Node5</title>
<g id="a_node5"><a xlink:href="classudmaio_1_1_frame_format.html" target="_top" xlink:title=" ">
<polygon fill="white" stroke="#666666" points="246,-107 135,-107 135,-88 246,-88 246,-107"/>
<text text-anchor="middle" x="190.5" y="-95" font-family="Helvetica,sans-Serif" font-size="10.00">udmaio::FrameFormat</text>
</a>
</g>
</g>
<!-- Node1&#45;&gt;Node5 -->
<g id="edge4" class="edge">
<title>Node1&#45;&gt;Node5</title>
<path fill="none" stroke="#63b8ff" d="M94.59,-85.23C107.61,-86.92 121.61,-88.73 134.76,-90.42"/>
<polygon fill="#63b8ff" stroke="#63b8ff" points="95.31,-81.8 84.95,-83.99 94.42,-88.74 95.31,-81.8"/>
</g>
<!-- Node6 -->
<g id="node6" class="node">
<title>Node6</title>
<g id="a_node6"><a xlink:href="classudmaio_1_1_hw_accessor.html" target="_top" xlink:title="Base class for hardware access.">
<polygon fill="white" stroke="#666666" points="245,-70 136,-70 136,-51 245,-51 245,-70"/>
<text text-anchor="middle" x="190.5" y="-58" font-family="Helvetica,sans-Serif" font-size="10.00">udmaio::HwAccessor</text>
</a>
</g>
</g>
<!-- Node1&#45;&gt;Node6 -->
<g id="edge5" class="edge">
<title>Node1&#45;&gt;Node6</title>
<path fill="none" stroke="#63b8ff" d="M94.77,-72.1C108.01,-70.48 122.26,-68.73 135.57,-67.1"/>
<polygon fill="#63b8ff" stroke="#63b8ff" points="94.45,-68.61 84.95,-73.3 95.3,-75.56 94.45,-68.61"/>
</g>
<!-- Node12 -->
<g id="node12" class="node">
<title>Node12</title>
<g id="a_node12"><a xlink:href="classudmaio_1_1_u_dma_buf.html" target="_top" xlink:title="DMA data buffer accessed over AXI/UIO, implemented w/ udmabuf (see https://github....">
<polygon fill="white" stroke="#666666" points="238,-33 143,-33 143,-14 238,-14 238,-33"/>
<text text-anchor="middle" x="190.5" y="-21" font-family="Helvetica,sans-Serif" font-size="10.00">udmaio::UDmaBuf</text>
</a>
</g>
</g>
<!-- Node1&#45;&gt;Node12 -->
<g id="edge11" class="edge">
<title>Node1&#45;&gt;Node12</title>
<path fill="none" stroke="#63b8ff" d="M70.42,-63.33C84.66,-56.02 102.44,-47.55 119,-41.5 127.19,-38.51 136.08,-35.82 144.71,-33.49"/>
<polygon fill="#63b8ff" stroke="#63b8ff" points="68.87,-60.19 61.64,-67.93 72.12,-66.39 68.87,-60.19"/>
</g>
<!-- Node3 -->
<g id="node3" class="node">
<title>Node3</title>
<g id="a_node3"><a xlink:href="class_data_handler_print.html" target="_top" xlink:title="DataHandler implementation that checks LFSR data and prints status / stats.">
<polygon fill="white" stroke="#666666" points="411.5,-190 320.5,-190 320.5,-171 411.5,-171 411.5,-190"/>
<text text-anchor="middle" x="366" y="-178" font-family="Helvetica,sans-Serif" font-size="10.00">DataHandlerPrint</text>
</a>
</g>
</g>
<!-- Node2&#45;&gt;Node3 -->
<g id="edge2" class="edge">
<title>Node2&#45;&gt;Node3</title>
<path fill="none" stroke="#63b8ff" d="M249.07,-155.78C272.21,-160.71 298.49,-166.32 320.17,-170.94"/>
<polygon fill="#63b8ff" stroke="#63b8ff" points="249.99,-152.39 239.48,-153.73 248.53,-159.24 249.99,-152.39"/>
</g>
<!-- Node4 -->
<g id="node4" class="node">
<title>Node4</title>
<g id="a_node4"><a xlink:href="classudmaio_1_1_data_handler_sync.html" target="_top" xlink:title="Synchronous data handler with blocking read interface.">
<polygon fill="white" stroke="#666666" points="430,-153 302,-153 302,-134 430,-134 430,-153"/>
<text text-anchor="middle" x="366" y="-141" font-family="Helvetica,sans-Serif" font-size="10.00">udmaio::DataHandlerSync</text>
</a>
</g>
</g>
<!-- Node2&#45;&gt;Node4 -->
<g id="edge3" class="edge">
<title>Node2&#45;&gt;Node4</title>
<path fill="none" stroke="#63b8ff" d="M273.71,-143.5C283.1,-143.5 292.56,-143.5 301.65,-143.5"/>
<polygon fill="#63b8ff" stroke="#63b8ff" points="273.83,-140 263.83,-143.5 273.83,-147 273.83,-140"/>
</g>
<!-- Node7 -->
<g id="node7" class="node">
<title>Node7</title>
<g id="a_node7"><a xlink:href="classudmaio_1_1_hw_accessor_mmap.html" target="_top" xlink:title=" ">
<polygon fill="white" stroke="#666666" points="434,-115.5 298,-115.5 298,-85.5 434,-85.5 434,-115.5"/>
<text text-anchor="start" x="306" y="-103.5" font-family="Helvetica,sans-Serif" font-size="10.00">udmaio::HwAccessorMmap</text>
<text text-anchor="middle" x="366" y="-92.5" font-family="Helvetica,sans-Serif" font-size="10.00">&lt; uint64_t &gt;</text>
</a>
</g>
</g>
<!-- Node6&#45;&gt;Node7 -->
<g id="edge6" class="edge">
<title>Node6&#45;&gt;Node7</title>
<path fill="none" stroke="#63b8ff" d="M245.92,-73.05C262.41,-76.85 280.72,-81.07 297.93,-85.04"/>
<polygon fill="#63b8ff" stroke="#63b8ff" points="246.84,-69.67 236.31,-70.83 245.27,-76.49 246.84,-69.67"/>
</g>
<!-- Node9 -->
<g id="node9" class="node">
<title>Node9</title>
<g id="a_node9"><a xlink:href="classudmaio_1_1_hw_accessor_mmap.html" target="_top" xlink:title=" ">
<polygon fill="white" stroke="#666666" points="434,-67.5 298,-67.5 298,-37.5 434,-37.5 434,-67.5"/>
<text text-anchor="start" x="306" y="-55.5" font-family="Helvetica,sans-Serif" font-size="10.00">udmaio::HwAccessorMmap</text>
<text text-anchor="middle" x="366" y="-44.5" font-family="Helvetica,sans-Serif" font-size="10.00">&lt; max_access_width_t &gt;</text>
</a>
</g>
</g>
<!-- Node6&#45;&gt;Node9 -->
<g id="edge8" class="edge">
<title>Node6&#45;&gt;Node9</title>
<path fill="none" stroke="#63b8ff" d="M256.92,-57.48C270.23,-56.87 284.25,-56.22 297.62,-55.61"/>
<polygon fill="#63b8ff" stroke="#63b8ff" points="256.79,-53.99 246.96,-57.94 257.11,-60.98 256.79,-53.99"/>
</g>
<!-- Node11 -->
<g id="node11" class="node">
<title>Node11</title>
<g id="a_node11"><a xlink:href="classudmaio_1_1_hw_accessor_mock.html" target="_top" xlink:title=" ">
<polygon fill="white" stroke="#666666" points="432.5,-19 299.5,-19 299.5,0 432.5,0 432.5,-19"/>
<text text-anchor="middle" x="366" y="-7" font-family="Helvetica,sans-Serif" font-size="10.00">udmaio::HwAccessorMock</text>
</a>
</g>
</g>
<!-- Node6&#45;&gt;Node11 -->
<g id="edge10" class="edge">
<title>Node6&#45;&gt;Node11</title>
<path fill="none" stroke="#63b8ff" d="M241.54,-47.57C248.44,-45.62 255.41,-43.57 262,-41.5 278.23,-36.39 281.81,-33.71 298,-28.5 307.67,-25.39 318.2,-22.27 328,-19.49"/>
<polygon fill="#63b8ff" stroke="#63b8ff" points="240.99,-44.09 232.28,-50.12 242.85,-50.84 240.99,-44.09"/>
</g>
<!-- Node8 -->
<g id="node8" class="node">
<title>Node8</title>
<g id="a_node8"><a xlink:href="classudmaio_1_1_hw_accessor_axi.html" target="_top" xlink:title=" ">
<polygon fill="white" stroke="#666666" points="598,-110 476,-110 476,-91 598,-91 598,-110"/>
<text text-anchor="middle" x="537" y="-98" font-family="Helvetica,sans-Serif" font-size="10.00">udmaio::HwAccessorAxi</text>
</a>
</g>
</g>
<!-- Node7&#45;&gt;Node8 -->
<g id="edge7" class="edge">
<title>Node7&#45;&gt;Node8</title>
<path fill="none" stroke="#63b8ff" d="M445.56,-100.5C455.63,-100.5 465.81,-100.5 475.52,-100.5"/>
<polygon fill="#63b8ff" stroke="#63b8ff" points="445.79,-97 435.79,-100.5 445.79,-104 445.79,-97"/>
</g>
<!-- Node10 -->
<g id="node10" class="node">
<title>Node10</title>
<g id="a_node10"><a xlink:href="classudmaio_1_1_hw_accessor_xdma.html" target="_top" xlink:title=" ">
<polygon fill="white" stroke="#666666" points="604,-67.5 470,-67.5 470,-37.5 604,-37.5 604,-67.5"/>
<text text-anchor="start" x="478" y="-55.5" font-family="Helvetica,sans-Serif" font-size="10.00">udmaio::HwAccessorXdma</text>
<text text-anchor="middle" x="537" y="-44.5" font-family="Helvetica,sans-Serif" font-size="10.00">&lt; max_access_width_t &gt;</text>
</a>
</g>
</g>
<!-- Node9&#45;&gt;Node10 -->
<g id="edge9" class="edge">
<title>Node9&#45;&gt;Node10</title>
<path fill="none" stroke="#63b8ff" d="M445.53,-52.5C453.55,-52.5 461.64,-52.5 469.5,-52.5"/>
<polygon fill="#63b8ff" stroke="#63b8ff" points="445.79,-49 435.79,-52.5 445.79,-56 445.79,-49"/>
</g>
</g>
</svg>
